<?xml version="1.0" encoding="UTF-8"?>
<!DOCTYPE svg PUBLIC "-//W3C//DTD SVG 1.1//EN" "http://www.w3.org/Graphics/SVG/1.1/DTD/svg11.dtd">
<!-- Creator: CorelDRAW -->
<svg xmlns="http://www.w3.org/2000/svg" xml:space="preserve" width="6.82666in" height="6.82666in" style="shape-rendering:geometricPrecision; text-rendering:geometricPrecision; image-rendering:optimizeQuality; fill-rule:evenodd; clip-rule:evenodd"
viewBox="0 0 6.82666 6.82666"
 xmlns:xlink="http://www.w3.org/1999/xlink">
 <defs>
  <style type="text/css">
   <![CDATA[
    .str0 {stroke:#424242;stroke-width:0.0333346;stroke-linecap:round;stroke-linejoin:round}
    .fil2 {fill:none}
    .fil10 {fill:#424242}
    .fil7 {fill:#466016}
    .fil8 {fill:#7CA72A}
    .fil9 {fill:#AED581}
    .fil1 {fill:#00000000}
    .fil11 {fill:#E8F5E9}
    .fil0 {fill:#00000000}
    .fil5 {fill:#2D440A;fill-rule:nonzero}
    .fil4 {fill:#33691E;fill-rule:nonzero}
    .fil3 {fill:#5D8016;fill-rule:nonzero}
    .fil6 {fill:#7CA72A;fill-rule:nonzero}
   ]]>
  </style>
   <clipPath id="id0">
    <path d="M3.41333 -3.93701e-006c1.88513,0 3.41333,1.5282 3.41333,3.41333 0,1.88513 -1.5282,3.41333 -3.41333,3.41333 -1.88513,0 -3.41333,-1.5282 -3.41333,-3.41333 0,-1.88513 1.5282,-3.41333 3.41333,-3.41333z"/>
   </clipPath>
 </defs>
 <g id="Layer_x0020_1">
  <metadata id="CorelCorpID_0Corel-Layer"/>
  <path class="fil0" d="M3.41333 -3.93701e-006c1.88513,0 3.41333,1.5282 3.41333,3.41333 0,1.88513 -1.5282,3.41333 -3.41333,3.41333 -1.88513,0 -3.41333,-1.5282 -3.41333,-3.41333 0,-1.88513 1.5282,-3.41333 3.41333,-3.41333z"/>
  <g style="clip-path:url(#id0)">
   <g id="_637664560">
    <g>
     <polygon id="_2161320561" class="fil1" points="3.82943,1.93362 7.6157,5.71989 7.61933,5.72877 7.62287,5.73765 7.62631,5.74652 7.62965,5.75539 7.63289,5.76426 7.63602,5.77311 7.63905,5.78194 7.64197,5.79076 7.64479,5.79955 7.6475,5.80831 7.6501,5.81704 7.65259,5.82573 7.65497,5.83438 7.65724,5.84299 7.65939,5.85154 7.66143,5.86005 7.66336,5.8685 7.66517,5.87688 7.66686,5.8852 7.66843,5.89346 7.66989,5.90164 7.67122,5.90974 7.67243,5.91777 7.67352,5.9257 7.67448,5.93356 7.67532,5.94131 7.67604,5.94897 7.67662,5.95653 7.67708,5.96398 7.67741,5.97133 7.6776,5.97856 7.67767,5.98567 7.67732,6.00223 7.6763,6.0186 7.6746,6.03476 7.67225,6.05072 7.66926,6.06646 7.66564,6.08197 7.66141,6.09724 7.65659,6.11228 7.65119,6.12705 7.64521,6.14157 7.63868,6.15581 7.63161,6.16977 7.62402,6.18344 7.61591,6.19681 7.6073,6.20987 7.59822,6.22262 7.58866,6.23504 7.57865,6.24713 7.5682,6.25887 7.55733,6.27026 7.54604,6.2813 7.53435,6.29195 7.52228,6.30223 7.50984,6.31212 7.49705,6.32162 7.48392,6.3307 7.47046,6.33937 7.45669,6.34762 7.44262,6.35544 7.42826,6.36281 7.41364,6.36973 7.39876,6.37619 3.6125,2.58992 3.62737,2.58346 3.642,2.57654 3.65635,2.56917 3.67042,2.56135 3.68419,2.5531 3.69765,2.54443 3.71078,2.53535 3.72357,2.52585 3.73602,2.51596 3.74808,2.50568 3.75977,2.49502 3.77106,2.48399 3.78193,2.4726 3.79239,2.46086 3.80239,2.44877 3.81195,2.43635 3.82104,2.4236 3.82964,2.41054 3.83775,2.39717 3.84534,2.3835 3.85241,2.36954 3.85894,2.3553 3.86492,2.34078 3.87032,2.326 3.87515,2.31097 3.87937,2.2957 3.88299,2.28019 3.88598,2.26445 3.88833,2.24849 3.89003,2.23233 3.89106,2.21596 3.8914,2.1994 3.89133,2.19229 3.89114,2.18506 3.89081,2.17771 3.89035,2.17026 3.88977,2.1627 3.88906,2.15504 3.88821,2.14728 3.88725,2.13943 3.88616,2.1315 3.88495,2.12347 3.88362,2.11537 3.88217,2.10719 3.88059,2.09893 3.8789,2.09061 3.87709,2.08222 3.87517,2.07378 3.87313,2.06527 3.87097,2.05672 3.8687,2.04811 3.86632,2.03946 3.86383,2.03077 3.86123,2.02204 3.85852,2.01328 3.8557,2.00449 3.85278,1.99567 3.84976,1.98684 3.84662,1.97799 3.84339,1.96912 3.84005,1.96025 3.83661,1.95137 3.83307,1.9425 "/>
     <polygon id="_216132320" class="fil1" points="4.62719,2.53957 8.41346,6.32585 8.41703,6.33031 8.42007,6.33448 4.6338,2.5482 4.63076,2.54404 "/>
     <polygon id="_216137888" class="fil1" points="3.63018,1.63997 7.41644,5.42624 7.41639,5.42641 3.63012,1.64013 "/>
     <polygon id="_216138368" class="fil1" points="4.40703,3.37312 8.1933,7.15939 8.19331,7.15941 8.19331,7.15943 8.19332,7.15945 8.19333,7.15947 8.19333,7.15949 8.19334,7.15951 8.19335,7.15953 8.19335,7.15955 4.40709,3.37328 4.40708,3.37326 4.40707,3.37324 4.40707,3.37322 4.40706,3.3732 4.40706,3.37318 4.40705,3.37316 4.40704,3.37314 "/>
     <polygon id="_216138608" class="fil1" points="4.40709,3.37328 8.19335,7.15955 8.19689,7.16963 8.20036,7.17972 8.20376,7.18984 8.2071,7.19998 8.21036,7.21014 8.21356,7.22032 8.21669,7.23052 8.21975,7.24073 8.22274,7.25097 8.22566,7.26122 8.22852,7.2715 8.2313,7.28178 8.23402,7.29209 8.23667,7.30242 8.23924,7.31276 8.24176,7.32312 8.2442,7.3335 8.24657,7.34389 8.24888,7.3543 8.25111,7.36472 8.25328,7.37517 8.25538,7.38562 8.25741,7.39609 8.25937,7.40658 8.26127,7.41708 8.26309,7.42759 8.26485,7.43812 8.26654,7.44866 8.26815,7.45922 8.2697,7.46979 8.27119,7.48037 8.2726,7.49096 4.48633,3.70469 4.48492,3.69409 4.48344,3.68352 4.48189,3.67294 4.48027,3.66239 4.47858,3.65185 4.47683,3.64132 4.475,3.63081 4.47311,3.62031 4.47115,3.60982 4.46911,3.59935 4.46702,3.58889 4.46485,3.57845 4.46261,3.56803 4.46031,3.55762 4.45793,3.54723 4.45549,3.53685 4.45298,3.52649 4.4504,3.51615 4.44775,3.50582 4.44503,3.49551 4.44225,3.48522 4.43939,3.47495 4.43647,3.4647 4.43348,3.45446 4.43042,3.44424 4.42729,3.43405 4.42409,3.42387 4.42083,3.41371 4.4175,3.40357 4.41409,3.39345 4.41063,3.38335 "/>
     <polygon id="_216138032" class="fil1" points="3.68124,1.69104 7.46751,5.47731 7.4736,5.48423 7.47961,5.49127 7.48556,5.49841 7.49143,5.50567 7.49722,5.51302 7.50294,5.52048 7.50859,5.52804 7.51415,5.53569 3.72789,1.74942 3.72232,1.74177 3.71667,1.73421 3.71095,1.72675 3.70516,1.71939 3.69929,1.71214 3.69335,1.705 3.68733,1.69796 "/>
     <polygon id="_216138056" class="fil1" points="3.02441,2.6545 6.81068,6.44078 6.81068,6.44087 3.02441,2.6546 "/>
     <polygon id="_216138512" class="fil1" points="4.48665,4.14186 8.27292,7.92813 8.2726,7.92829 4.48633,4.14202 "/>
     <polygon id="_216138560" class="fil1" points="4.48633,4.14202 8.2726,7.92829 8.27207,7.9323 8.27154,7.9363 8.271,7.9403 8.27044,7.9443 8.26989,7.9483 8.26931,7.95229 8.26873,7.95628 8.26815,7.96026 8.26755,7.96424 8.26694,7.96821 8.26632,7.97218 8.26569,7.97615 8.26506,7.98011 8.26441,7.98406 8.26375,7.98801 8.26309,7.99196 4.47682,4.20569 4.47748,4.20174 4.47814,4.19779 4.47879,4.19383 4.47943,4.18987 4.48006,4.18591 4.48067,4.18194 4.48128,4.17796 4.48188,4.17398 4.48246,4.17 4.48305,4.16602 4.48362,4.16203 4.48418,4.15803 4.48473,4.15403 4.48527,4.15003 4.48581,4.14602 "/>
     <polygon id="_216138224" class="fil1" points="4.47691,4.20563 8.26318,7.99191 8.26192,7.99923 8.26062,8.00659 8.25928,8.01397 8.25789,8.02138 8.25646,8.02881 8.25499,8.03627 8.25348,8.04374 8.25192,8.05122 8.25033,8.05872 8.2487,8.06622 8.24703,8.07374 8.24533,8.08126 8.24358,8.08878 8.2418,8.09629 8.23999,8.10381 8.23814,8.11131 8.23625,8.11881 8.23433,8.1263 8.23238,8.13378 8.23039,8.14123 8.22837,8.14867 8.22632,8.15608 8.22424,8.16347 8.22213,8.17083 8.21999,8.17816 8.21782,8.18546 8.21562,8.19272 8.21339,8.19995 8.21113,8.20714 8.20885,8.21428 8.20654,8.22137 8.20421,8.22842 4.41794,4.44215 4.42028,4.4351 4.42258,4.42801 4.42487,4.42087 4.42712,4.41368 4.42935,4.40645 4.43155,4.39919 4.43372,4.39189 4.43586,4.38456 4.43797,4.3772 4.44006,4.36981 4.44211,4.36239 4.44413,4.35496 4.44611,4.3475 4.44806,4.34003 4.44998,4.33254 4.45187,4.32504 4.45372,4.31754 4.45554,4.31002 4.45731,4.3025 4.45906,4.29498 4.46076,4.28747 4.46243,4.27995 4.46406,4.27245 4.46565,4.26495 4.46721,4.25746 4.46872,4.25 4.47019,4.24254 4.47162,4.23511 4.47301,4.2277 4.47435,4.22031 4.47565,4.21296 "/>
     <polygon id="_216138104" class="fil1" points="2.23517,2.5335 6.02144,6.31978 6.02426,6.32291 6.02704,6.32641 6.0298,6.33021 6.03251,6.33426 6.03515,6.33851 6.03773,6.34291 6.04022,6.34742 6.04262,6.35197 6.04491,6.35652 2.25864,2.57025 2.25635,2.5657 2.25396,2.56115 2.25146,2.55664 2.24889,2.55224 2.24624,2.54799 2.24353,2.54394 2.24078,2.54014 2.23799,2.53664 "/>
     <polygon id="_216138128" class="fil1" points="4.2188,4.8337 8.00507,8.61997 8.00142,8.62495 7.99775,8.62991 7.99406,8.63483 7.99034,8.63973 7.9866,8.6446 7.98285,8.64945 7.97908,8.65429 7.9753,8.6591 4.18903,4.87283 4.19281,4.86802 4.19658,4.86318 4.20033,4.85833 4.20407,4.85346 4.20779,4.84856 4.21148,4.84363 4.21515,4.83868 "/>
     <polygon id="_216138248" class="fil1" points="4.6338,5.25598 8.42007,9.04225 8.41715,9.04625 8.41424,9.04997 8.41133,9.05339 8.40844,9.05648 8.40557,9.05922 8.40272,9.06158 8.39989,9.06354 8.3971,9.06509 4.61083,5.27882 4.61363,5.27727 4.61645,5.27531 4.6193,5.27294 4.62217,5.2702 4.62506,5.26712 4.62797,5.2637 4.63088,5.25998 "/>
     <polygon id="_216138344" class="fil1" points="4.61083,5.27882 8.3971,9.06509 8.39453,9.06586 8.39188,9.06591 8.38917,9.06528 8.3864,9.06404 8.38359,9.06223 8.38076,9.05991 4.5945,5.27363 4.59733,5.27596 4.60013,5.27776 4.6029,5.27901 4.60561,5.27963 4.60826,5.27959 "/>
     <polygon id="_216139400" class="fil1" points="4.38111,4.94167 8.16737,8.72794 8.15958,8.72065 8.15163,8.71355 8.1435,8.70663 8.13518,8.69989 8.12666,8.6933 8.11793,8.68686 8.10896,8.68056 8.09974,8.67437 8.09027,8.6683 8.08053,8.66232 8.0705,8.65643 8.06016,8.65061 8.04952,8.64486 8.03854,8.63915 8.02722,8.63348 8.01555,8.62784 8.0035,8.62221 4.21723,4.83594 4.22928,4.84157 4.24095,4.84721 4.25227,4.85288 4.26325,4.85859 4.27389,4.86434 4.28423,4.87016 4.29426,4.87605 4.304,4.88202 4.31348,4.8881 4.32269,4.89428 4.33166,4.90059 4.34039,4.90703 4.34891,4.91362 4.35723,4.92036 4.36536,4.92728 4.37331,4.93438 "/>
     <polygon id="_216139112" class="fil1" points="4.67701,5.11466 8.46328,8.90093 8.46309,8.9056 8.46281,8.91031 8.46244,8.91505 8.46198,8.91981 8.46144,8.92459 8.46082,8.92939 8.46011,8.9342 8.45933,8.93902 8.45846,8.94383 8.45752,8.94863 8.45649,8.95343 8.4554,8.95821 8.45423,8.96296 8.45299,8.9677 8.45167,8.97239 8.4503,8.97706 8.44885,8.98167 8.44733,8.98624 8.44576,8.99076 8.44411,8.99522 8.44241,8.99961 8.44065,9.00394 8.43883,9.00819 8.43695,9.01237 8.43502,9.01645 8.43304,9.02045 8.431,9.02435 8.42891,9.02815 8.42677,9.03185 8.42458,9.03543 8.42235,9.0389 8.42007,9.04225 4.6338,5.25598 4.63608,5.25263 4.63831,5.24916 4.6405,5.24558 4.64264,5.24188 4.64473,5.23808 4.64677,5.23418 4.64875,5.23018 4.65069,5.22609 4.65256,5.22192 4.65438,5.21767 4.65615,5.21334 4.65785,5.20895 4.65949,5.20449 4.66107,5.19997 4.66258,5.1954 4.66403,5.19078 4.66541,5.18612 4.66672,5.18143 4.66796,5.17669 4.66913,5.17194 4.67022,5.16716 4.67125,5.16236 4.67219,5.15756 4.67306,5.15274 4.67385,5.14793 4.67455,5.14312 4.67518,5.13832 4.67572,5.13354 4.67617,5.12878 4.67654,5.12404 4.67682,5.11933 "/>
     <polygon id="_216139448" class="fil1" points="4.18922,4.87293 7.97549,8.6592 7.9322,8.71119 4.14593,4.92492 "/>
     <polygon id="_216138800" class="fil1" points="2.60382,4.83453 6.39009,8.6208 6.39217,8.62376 2.6059,4.83749 "/>
     <polygon id="_216138872" class="fil1" points="2.6059,4.83749 6.39217,8.62376 6.3873,8.62606 6.38236,8.62842 6.37733,8.63086 6.37224,8.63337 6.36708,8.63596 6.36186,8.63863 6.35659,8.64137 6.35128,8.64417 6.34592,8.64706 6.34054,8.65001 6.33513,8.65303 6.3297,8.65612 6.32426,8.65929 6.31881,8.66252 6.31337,8.66582 6.30794,8.66919 6.30252,8.67263 6.29712,8.67614 6.29175,8.67971 6.28641,8.68335 6.28111,8.68706 6.27587,8.69083 6.27068,8.69467 6.26554,8.69857 6.26048,8.70254 6.25549,8.70656 6.25058,8.71065 6.24576,8.71481 6.24104,8.71902 6.23641,8.7233 6.23189,8.72764 6.22749,8.73204 2.44122,4.94577 2.44563,4.94137 2.45015,4.93703 2.45477,4.93275 2.4595,4.92854 2.46431,4.92438 2.46922,4.92029 2.47421,4.91626 2.47928,4.9123 2.48441,4.9084 2.4896,4.90456 2.49485,4.90079 2.50014,4.89708 2.50548,4.89344 2.51085,4.88987 2.51625,4.88636 2.52167,4.88292 2.52711,4.87955 2.53255,4.87625 2.53799,4.87302 2.54343,4.86985 2.54886,4.86676 2.55427,4.86374 2.55965,4.86078 2.56501,4.8579 2.57032,4.85509 2.57559,4.85236 2.58081,4.84969 2.58597,4.8471 2.59107,4.84459 2.59609,4.84215 2.60104,4.83978 "/>
     <polygon id="_216138752" class="fil1" points="2.40463,4.44381 6.1909,8.23008 6.19212,8.23352 2.40585,4.44725 "/>
     <polygon id="_216138896" class="fil1" points="2.33611,4.14283 6.12238,7.92911 6.12198,7.92891 2.33572,4.14263 "/>
     <polygon id="_216139232" class="fil1" points="2.44122,4.94577 6.22749,8.73204 6.22036,8.7394 6.21333,8.74696 6.20643,8.7547 6.19962,8.76261 6.19292,8.77069 6.18633,8.77892 6.17983,8.7873 6.17344,8.79583 6.16715,8.80448 6.16095,8.81326 6.15485,8.82215 6.14883,8.83115 6.14291,8.84025 6.13708,8.84943 6.13133,8.8587 6.12567,8.86804 6.12009,8.87743 6.11459,8.88689 6.10917,8.89639 6.10382,8.90593 6.09855,8.91549 6.09335,8.92508 6.08822,8.93468 6.08316,8.94428 6.07817,8.95388 6.07324,8.96347 6.06837,8.97303 6.06357,8.98256 6.05882,8.99205 6.05413,9.0015 6.04949,9.01089 6.04491,9.02021 2.25864,5.23394 2.26322,5.22461 2.26786,5.21522 2.27255,5.20578 2.2773,5.19629 2.28211,5.18676 2.28697,5.1772 2.2919,5.16761 2.29689,5.15801 2.30195,5.14841 2.30708,5.13881 2.31228,5.12922 2.31755,5.11965 2.3229,5.11012 2.32832,5.10061 2.33382,5.09116 2.3394,5.08176 2.34507,5.07243 2.35081,5.06316 2.35665,5.05398 2.36257,5.04488 2.36858,5.03588 2.37469,5.02699 2.38088,5.01821 2.38718,5.00956 2.39357,5.00103 2.40006,4.99265 2.40665,4.98441 2.41335,4.97633 2.42016,4.96843 2.42707,4.96069 2.43409,4.95313 "/>
     <polygon id="_216138968" class="fil1" points="2.25864,5.23394 6.04491,9.02021 6.04258,9.02494 6.04028,9.02939 6.03799,9.03356 6.03573,9.03746 6.0335,9.0411 6.03129,9.04448 6.02911,9.04761 6.02695,9.05048 6.02483,9.05311 6.02275,9.0555 6.0207,9.05765 6.01869,9.05957 6.01672,9.06128 6.01478,9.06276 6.01289,9.06403 6.01104,9.06509 2.22478,5.27882 2.22662,5.27776 2.22852,5.27649 2.23045,5.275 2.23242,5.2733 2.23443,5.27138 2.23648,5.26922 2.23857,5.26683 2.24069,5.2642 2.24284,5.26133 2.24502,5.25821 2.24723,5.25483 2.24946,5.25119 2.25172,5.24729 2.25401,5.24312 2.25631,5.23867 "/>
     <polygon id="_216139256" class="fil1" points="2.22478,5.27882 6.01104,9.06509 6.00706,9.06607 6.00286,9.06528 5.99857,9.06304 5.9943,9.0597 2.20803,5.27343 2.2123,5.27677 2.21659,5.279 2.22079,5.2798 "/>
     <polygon id="_216140216" class="fil1" points="3.77889,5.20069 7.56515,8.98696 7.54713,8.99479 7.52905,9.0022 7.5109,9.00921 7.49269,9.01581 7.47442,9.02201 7.45609,9.02779 7.43772,9.03317 7.41928,9.03814 7.40081,9.0427 7.38228,9.04687 7.36371,9.05062 7.3451,9.05396 7.32646,9.05691 7.30777,9.05944 7.28906,9.06158 7.27031,9.06331 7.25154,9.06463 7.23274,9.06556 7.21392,9.06607 7.19508,9.06619 7.17622,9.0659 7.15735,9.06521 7.13846,9.06412 7.11957,9.06262 7.10067,9.06073 7.08176,9.05843 7.06286,9.05574 7.04395,9.05264 7.02505,9.04914 7.00616,9.04524 6.98727,9.04094 6.96839,9.03625 6.94732,9.03049 6.92642,9.0242 6.9057,9.01739 6.88515,9.01006 6.86479,9.00224 6.84461,8.99393 6.82464,8.98513 6.80487,8.97587 6.7853,8.96616 6.76595,8.956 6.74682,8.9454 6.72791,8.93438 6.70923,8.92294 6.69078,8.91111 6.67258,8.89888 6.65463,8.88627 6.63692,8.87328 6.61948,8.85994 6.60229,8.84626 6.58538,8.83223 6.56874,8.81787 2.78247,5.0316 2.79911,5.04596 2.81602,5.05998 2.83321,5.07367 2.85065,5.08701 2.86836,5.1 2.88631,5.11261 2.90452,5.12483 2.92296,5.13667 2.94164,5.14811 2.96055,5.15913 2.97968,5.16972 2.99904,5.17989 3.0186,5.1896 3.03837,5.19886 3.05835,5.20765 3.07852,5.21597 3.09888,5.22379 3.11943,5.23111 3.14015,5.23793 3.16106,5.24422 3.18213,5.24998 3.201,5.25467 3.21989,5.25897 3.23878,5.26287 3.25769,5.26637 3.27659,5.26946 3.2955,5.27216 3.3144,5.27446 3.3333,5.27635 3.3522,5.27785 3.37108,5.27894 3.38995,5.27963 3.40881,5.27991 3.42765,5.2798 3.44647,5.27928 3.46527,5.27836 3.48404,5.27704 3.50279,5.27531 3.5215,5.27317 3.54019,5.27064 3.55883,5.26769 3.57744,5.26435 3.59601,5.26059 3.61454,5.25643 3.63302,5.25187 3.65145,5.2469 3.66983,5.24152 3.68815,5.23574 3.70642,5.22954 3.72463,5.22294 3.74278,5.21593 3.76087,5.20852 "/>
     <polygon id="_216139688" class="fil1" points="2.34404,3.64888 6.13031,7.43515 6.13018,7.43522 2.34391,3.64895 "/>
     <polygon id="_216139640" class="fil1" points="2.41475,3.37384 6.20102,7.16011 6.19987,7.16319 2.4136,3.37692 "/>
     <polygon id="_216139736" class="fil1" points="4.14593,4.92492 7.9322,8.71119 7.9227,8.72187 7.91306,8.73245 7.90326,8.74294 7.89332,8.75333 7.88324,8.76362 7.87302,8.7738 7.86266,8.78387 7.85217,8.79382 7.84154,8.80365 7.83077,8.81336 7.81988,8.82294 7.80886,8.83239 7.79772,8.8417 7.78645,8.85088 7.77506,8.85991 7.76356,8.86878 7.75193,8.87751 7.7402,8.88607 7.72835,8.89448 7.71639,8.90272 7.70432,8.91079 7.69215,8.91869 7.67988,8.9264 7.6675,8.93393 7.65503,8.94128 7.64246,8.94844 7.6298,8.9554 7.61705,8.96217 7.6042,8.96872 7.59127,8.97507 7.57825,8.98121 7.56515,8.98714 3.77889,5.20087 3.79198,5.19494 3.805,5.1888 3.81793,5.18245 3.83078,5.17589 3.84353,5.16913 3.8562,5.16217 3.86876,5.15501 3.88124,5.14766 3.89361,5.14013 3.90589,5.13241 3.91806,5.12452 3.93012,5.11644 3.94208,5.10821 3.95393,5.0998 3.96567,5.09124 3.97729,5.08251 3.9888,5.07363 4.00018,5.06461 4.01145,5.05543 4.02259,5.04612 4.03361,5.03667 4.0445,5.02709 4.05527,5.01738 4.0659,5.00755 4.07639,4.99759 4.08676,4.98753 4.09698,4.97735 4.10706,4.96706 4.117,4.95667 4.12679,4.94618 4.13643,4.93559 "/>
     <polygon id="_216139592" class="fil1" points="2.25864,2.57025 6.04491,6.35652 6.04951,6.36585 6.05417,6.37525 6.05887,6.3847 6.06363,6.3942 6.06844,6.40374 6.07332,6.41332 6.07825,6.42291 6.08325,6.43252 6.08831,6.44214 6.09344,6.45175 6.09863,6.46135 6.10391,6.47093 6.10924,6.48049 6.11466,6.49 6.12016,6.49947 6.12573,6.50888 6.13139,6.51824 6.13713,6.52751 6.14295,6.53671 6.14887,6.54582 6.15487,6.55483 6.16097,6.56374 6.16716,6.57254 6.17345,6.5812 6.17984,6.58974 6.18633,6.59814 6.19292,6.60639 6.19961,6.61448 6.20642,6.62241 6.21333,6.63015 6.22035,6.63772 6.22749,6.6451 2.44122,2.85883 2.43409,2.85145 2.42706,2.84388 2.42015,2.83613 2.41335,2.82821 2.40665,2.82012 2.40006,2.81187 2.39357,2.80347 2.38718,2.79493 2.38089,2.78626 2.3747,2.77747 2.36861,2.76856 2.3626,2.75955 2.35669,2.75044 2.35086,2.74124 2.34512,2.73196 2.33946,2.72261 2.33389,2.7132 2.32839,2.70373 2.32298,2.69422 2.31764,2.68466 2.31237,2.67508 2.30717,2.66548 2.30204,2.65587 2.29698,2.64625 2.29198,2.63664 2.28705,2.62705 2.28218,2.61747 2.27736,2.60793 2.2726,2.59843 2.2679,2.58898 2.26324,2.57958 "/>
     <polygon id="_216139808" class="fil1" points="2.44122,2.85883 6.22749,6.6451 6.23265,6.65019 2.44638,2.86392 "/>
     <polygon id="_216139856" class="fil1" points="4.41929,4.4383 8.20556,8.22457 8.21354,8.23891 8.22206,8.25437 8.23104,8.27085 8.24046,8.28832 8.25024,8.30669 8.26035,8.3259 8.27072,8.34588 8.2813,8.36657 8.29205,8.3879 8.30291,8.4098 8.31382,8.4322 8.32474,8.45504 8.33561,8.47826 8.34638,8.50178 8.357,8.52554 8.36741,8.54946 8.37757,8.57349 8.38741,8.59756 8.39689,8.6216 8.40596,8.64554 8.41456,8.66932 8.42264,8.69286 8.43015,8.71611 8.43703,8.739 8.44323,8.76145 8.4487,8.78341 8.4534,8.8048 8.45725,8.82556 8.46022,8.84561 8.46225,8.86491 8.46329,8.88337 8.46328,8.90093 4.67701,5.11466 4.67702,5.0971 4.67598,5.07864 4.67395,5.05934 4.67098,5.03928 4.66713,5.01853 4.66244,4.99713 4.65696,4.97518 4.65076,4.95273 4.64388,4.92984 4.63637,4.90659 4.62829,4.88305 4.61969,4.85927 4.61063,4.83533 4.60115,4.81129 4.5913,4.78722 4.58115,4.76319 4.57073,4.73926 4.56011,4.71551 4.54934,4.69199 4.53847,4.66877 4.52756,4.64593 4.51664,4.62352 4.50578,4.60163 4.49504,4.5803 4.48445,4.55961 4.47408,4.53963 4.46397,4.52042 4.45419,4.50205 4.44478,4.48458 4.43579,4.46809 4.42728,4.45264 "/>
     <polygon id="_216140144" class="fil1" points="3.20958,2.5899 6.99585,6.37617 6.98098,6.3697 6.96637,6.36278 6.95202,6.35541 6.93795,6.3476 6.92419,6.33936 6.91073,6.3307 6.89759,6.32162 6.8848,6.31213 6.87236,6.30226 6.86029,6.29199 6.8486,6.28134 6.83731,6.27033 3.05104,2.48406 3.06233,2.49507 3.07402,2.50572 3.08609,2.51598 3.09854,2.52586 3.11133,2.53535 3.12446,2.54443 3.13792,2.55309 3.15169,2.56133 3.16575,2.56914 3.1801,2.57651 3.19471,2.58343 "/>
     <polygon id="_216140120" class="fil1" points="4.48665,3.70485 8.27292,7.49113 8.27461,7.50531 8.27619,7.51941 8.27766,7.5334 8.27902,7.5473 8.28027,7.56112 8.28141,7.57486 8.28244,7.58854 8.28336,7.60215 8.28417,7.6157 8.28487,7.62921 8.28547,7.64268 8.28595,7.65611 8.28632,7.66952 8.28659,7.68291 8.28674,7.69628 8.28679,7.70964 8.28673,7.723 8.28656,7.73638 8.28629,7.74976 8.2859,7.76317 8.28541,7.7766 8.28481,7.79007 8.2841,7.80357 8.28329,7.81713 8.28237,7.83074 8.28133,7.84441 8.2802,7.85815 8.27896,7.87197 8.27761,7.88587 8.27615,7.89986 8.27459,7.91394 8.27292,7.92813 4.48665,4.14186 4.48832,4.12767 4.48988,4.11359 4.49134,4.0996 4.49269,4.0857 4.49393,4.07188 4.49507,4.05814 4.4961,4.04447 4.49702,4.03086 4.49783,4.0173 4.49854,4.0038 4.49914,3.99033 4.49963,3.97689 4.50002,3.96349 4.5003,3.95011 4.50046,3.93673 4.50052,3.92337 4.50048,3.91 4.50032,3.89663 4.50006,3.88325 4.49968,3.86984 4.4992,3.85641 4.49861,3.84294 4.49791,3.82943 4.49709,3.81587 4.49617,3.80226 4.49515,3.78859 4.494,3.77485 4.49275,3.76103 4.49139,3.74713 4.48992,3.73313 4.48834,3.71904 "/>
     <polygon id="_216140000" class="fil1" points="4.6338,2.5482 8.42007,6.33448 8.42235,6.33786 8.42458,6.34136 8.42677,6.34497 8.42891,6.34869 8.431,6.35251 8.43304,6.35643 8.43502,6.36044 8.43695,6.36454 8.43883,6.36872 8.44065,6.37298 8.44241,6.37731 8.44411,6.3817 8.44576,6.38617 8.44733,6.39069 8.44885,6.39526 8.4503,6.39987 8.45168,6.40454 8.45299,6.40924 8.45423,6.41397 8.4554,6.41873 8.4565,6.42351 8.45752,6.42831 8.45846,6.43313 8.45933,6.43794 8.46011,6.44277 8.46082,6.44759 8.46144,6.45241 8.46199,6.45721 8.46244,6.462 8.46281,6.46676 8.46309,6.4715 8.46328,6.4762 4.67701,2.68993 4.67682,2.68522 4.67654,2.68049 4.67617,2.67572 4.67572,2.67094 4.67518,2.66613 4.67456,2.66132 4.67385,2.6565 4.67306,2.65167 4.67219,2.64685 4.67125,2.64204 4.67023,2.63724 4.66913,2.63246 4.66796,2.6277 4.66672,2.62296 4.66541,2.61827 4.66403,2.6136 4.66258,2.60898 4.66107,2.60441 4.65949,2.5999 4.65785,2.59543 4.65615,2.59104 4.65438,2.5867 4.65256,2.58245 4.65069,2.57827 4.64875,2.57417 4.64677,2.57016 4.64473,2.56624 4.64264,2.56242 4.6405,2.5587 4.63831,2.55509 4.63608,2.55159 "/>
     <polygon id="_216140048" class="fil1" points="3.72789,1.74942 7.51415,5.53569 7.51654,5.53903 7.51892,5.54239 7.52128,5.54576 7.52363,5.54915 7.52596,5.55256 7.52828,5.55598 7.53058,5.55941 7.53288,5.56287 3.74661,1.77659 3.74431,1.77314 3.74201,1.7697 3.73969,1.76628 3.73736,1.76288 3.73501,1.75949 3.73265,1.75611 3.73028,1.75276 "/>
     <polygon id="_216141008" class="fil1" points="3.77853,1.80206 7.5648,5.58833 7.56837,5.5923 7.57183,5.59644 7.5752,5.60073 7.57844,5.60518 7.58159,5.60978 7.58461,5.61452 7.58751,5.6194 7.59029,5.62442 7.59295,5.62957 7.59548,5.63485 7.59787,5.64025 7.60014,5.64578 7.60226,5.65141 7.60425,5.65717 7.60609,5.66302 7.60779,5.66898 7.60933,5.67505 7.61072,5.6812 7.61196,5.68745 7.61304,5.69378 7.61395,5.7002 7.6147,5.70669 7.61529,5.71326 7.6157,5.71989 3.82943,1.93362 3.82902,1.92698 3.82844,1.92042 3.82769,1.91393 3.82677,1.90751 3.82569,1.90118 3.82446,1.89493 3.82306,1.88878 3.82152,1.88271 3.81982,1.87675 3.81798,1.87089 3.816,1.86514 3.81387,1.8595 3.81161,1.85398 3.80921,1.84857 3.80668,1.8433 3.80402,1.83815 3.80124,1.83313 3.79834,1.82824 3.79532,1.8235 3.79218,1.81891 3.78893,1.81446 3.78557,1.81017 3.7821,1.80603 "/>
     <polygon id="_216140504" class="fil1" points="4.1254,2.89887 7.91167,6.68515 7.9184,6.69241 7.92504,6.6997 7.93158,6.70701 7.93802,6.71434 7.94436,6.72167 7.95058,6.72901 7.95668,6.73635 7.96266,6.74368 7.9685,6.75099 7.9742,6.75829 7.97977,6.76557 4.1935,2.9793 4.18794,2.97202 4.18223,2.96472 4.17639,2.95741 4.17041,2.95007 4.16431,2.94274 4.15809,2.9354 4.15176,2.92807 4.14531,2.92074 4.13877,2.91343 4.13213,2.90614 "/>
     <polygon id="_216140528" class="fil1" points="4.67701,2.68993 8.46328,6.4762 8.46325,6.49446 8.46209,6.51369 8.45987,6.5338 8.45665,6.55472 8.45247,6.57639 8.44741,6.59872 8.44152,6.62164 8.43486,6.64508 8.42749,6.66896 8.41946,6.6932 8.41085,6.71774 8.40169,6.74249 8.39206,6.76739 8.38201,6.79235 8.3716,6.81731 8.36089,6.84219 8.34994,6.86691 8.33881,6.8914 8.32755,6.91559 8.31623,6.93939 8.3049,6.96275 8.29362,6.98557 8.28245,7.00779 8.27145,7.02933 8.26068,7.05012 8.2502,7.07009 8.24006,7.08915 8.23033,7.10723 8.22106,7.12426 8.21231,7.14017 8.20414,7.15488 8.19661,7.16831 4.41035,3.38204 4.41787,3.36861 4.42604,3.3539 4.43479,3.33799 4.44406,3.32096 4.4538,3.30287 4.46393,3.28381 4.47441,3.26385 4.48519,3.24306 4.49619,3.22152 4.50735,3.1993 4.51863,3.17648 4.52996,3.15312 4.54128,3.12931 4.55254,3.10513 4.56368,3.08064 4.57463,3.05592 4.58533,3.03104 4.59574,3.00608 4.6058,2.98112 4.61543,2.95622 4.62458,2.93146 4.6332,2.90693 4.64122,2.88269 4.64859,2.85881 4.65526,2.83537 4.66115,2.81245 4.6662,2.79012 4.67038,2.76845 4.6736,2.74752 4.67582,2.72741 4.67698,2.70819 "/>
    </g>
    <path id="_637664680" class="fil1" d="M3.97422 2.76179c0.0766024,0.0576535 0.16074,0.140051 0.21928,0.217508 0.0529409,-0.0228386 0.137039,-0.0645669 0.192319,-0.120469 0.0781811,-0.0794646 0.132295,-0.188055 0.182193,-0.288579 0.0128465,-0.0255827 0.0241417,-0.0397559 0.034252,-0.0444843 0.0098937,-0.00515748 0.024248,0.0120157 0.0315394,0.0224409 0.0245276,0.0354331 0.0416693,0.0917244 0.0432087,0.141724 0.00584646,0.18937 -0.189984,0.555894 -0.266665,0.69211 -0.00104724,-0.00300394 -0.00224409,-0.0059252 -0.00331496,-0.00892126 1.9685e-005,5.11811e-005 3.93701e-005,0.000106299 5.51181e-005,0.00015748 0.0381102,0.107382 0.0645472,0.218346 0.0792441,0.331413l0.000318898 0.000165354c0.0186378,0.151945 0.0183622,0.285094 3.93701e-006,0.437008l-0.000322835 0.000153543c-0.00277559,0.0213937 -0.00592913,0.0426339 -0.00951181,0.0636732l9.44882e-005 -5.51181e-005c-0.013189,0.0779724 -0.033937,0.161614 -0.0589724,0.236516l0.00135039 -0.00385039c0.0821378,0.14685 0.263567,0.494071 0.25772,0.676362 -0.00154331,0.0496024 -0.0186811,0.106287 -0.0432087,0.141315 -0.00779134,0.0110315 -0.0155669,0.0192992 -0.0229724,0.0228425 -0.0134488,0.00613386 -0.0309685,-0.0209134 -0.0428189,-0.0448819 -0.0249173,-0.0503898 -0.0513898,-0.103138 -0.0798071,-0.151169 -0.0755945,-0.12663 -0.140457,-0.186795 -0.270972,-0.246831l0.00157087 -0.00223622c-0.00969291,0.0133228 -0.0196654,0.026311 -0.0297756,0.0391299l0.000192913 9.84252e-005 -0.0432913 0.0519921c-0.100484,0.114331 -0.226878,0.213925 -0.367043,0.275945l0 -0.000173228c-0.191831,0.0856457 -0.395492,0.101508 -0.59676,0.0492835 -0.225622,-0.0585433 -0.423429,-0.209823 -0.562988,-0.394756l0.000299213 -0.000185039c-0.00520866,-0.00682677 -0.0105276,-0.0135354 -0.0156142,-0.0205079l0.0020748 0.00296457c-0.051378,0.0240236 -0.118339,0.0610315 -0.164673,0.108276 -0.0766969,0.0774961 -0.133969,0.189098 -0.182583,0.288169 -0.0124567,0.0259882 -0.0241339,0.0397677 -0.0338661,0.0448819 -0.0102598,0.00530709 -0.0238937,-0.0120591 -0.0315354,-0.0228425 -0.0249173,-0.0350276 -0.0420472,-0.0917126 -0.0435984,-0.141315 -0.00545276,-0.180311 0.171669,-0.521248 0.254992,-0.670854l0.00121654 0.00344488c-0.0271693,-0.0823346 -0.0477992,-0.163843 -0.0619409,-0.249504l0.000133858 8.26772e-005c-0.00298425,-0.0181732 -0.00551969,-0.0365591 -0.00793307,-0.0549961l-0.000393701 -0.000200787c-0.0184803,-0.142083 -0.018374,-0.296492 0,-0.438567l0.000393701 -0.000208661c0.00241339,-0.0184291 0.00493701,-0.036815 0.00793307,-0.0549764l-0.000133858 7.08661e-005c0.0151732,-0.0920315 0.0396417,-0.187492 0.0708425,-0.27511l-0.00115354 0.00307874c-0.0774134,-0.137961 -0.263858,-0.488795 -0.264087,-0.678098 -6.69291e-005,-0.0525827 0.017122,-0.112858 0.0437283,-0.150618 0.00778346,-0.0110236 0.0155709,-0.0188976 0.0225827,-0.0224409 0.0139134,-0.00613386 0.0309173,0.0203189 0.0428189,0.0444843 0.0488386,0.0991535 0.105827,0.210957 0.182583,0.288579 0.0541181,0.0547205 0.135484,0.0956575 0.188398,0.118882 0.102815,-0.133449 0.243228,-0.251929 0.394787,-0.323205l0 9.84252e-005c0.0594094,-0.0280669 0.121299,-0.0498583 0.185169,-0.0647047 -0.159882,-0.0664843 -0.279,-0.212508 -0.279,-0.390496 0,-0.0668583 0.0179055,-0.150028 0.0494528,-0.234102 -0.000503937,-0.00638976 -0.000787402,-0.0128701 -0.000787402,-0.0194409 0,-0.0857638 0.0434291,-0.157469 0.101697,-0.177378 0.00434252,-0.00640945 0.00866929,-0.0128307 0.0131575,-0.019063 0.0294882,-0.0410512 0.062311,-0.0782008 0.0977638,-0.109283l-5.51181e-005 -0.000165354 0.0560709 -0.042126 7.08661e-005 5.51181e-005c0.107705,-0.0683583 0.218642,-0.0682874 0.326311,0.000141732l0.00023622 -0.00019685 0.0556811 0.042126 -5.51181e-005 0.000165354c0.0354606,0.0310827 0.0682795,0.0682323 0.0977638,0.109283 0.00638976,0.00888189 0.012626,0.0179528 0.0187244,0.0271772 0.0461378,0.0259134 0.0793622,0.085878 0.0828189,0.157028 0.0393346,0.094626 0.0619724,0.190528 0.0619724,0.26578 0,0.177602 -0.118902,0.324087 -0.278906,0.39052 0.0522559,0.0121732 0.103413,0.0289803 0.152752,0.0500827l0 -7.08661e-005c0.0734016,0.0311732 0.145535,0.0741102 0.208972,0.121854z"/>
   </g>
  </g>
  <path class="fil2" d="M3.41333 -3.93701e-006c1.88513,0 3.41333,1.5282 3.41333,3.41333 0,1.88513 -1.5282,3.41333 -3.41333,3.41333 -1.88513,0 -3.41333,-1.5282 -3.41333,-3.41333 0,-1.88513 1.5282,-3.41333 3.41333,-3.41333z"/>
  <path class="fil3" d="M3.41093 1.54667c0.124492,0 0.235941,0.086248 0.320563,0.20261 0.101051,0.138937 0.165185,0.323661 0.165185,0.450228 0,0.119689 -0.0551535,0.227795 -0.144315,0.305811 -0.0877244,0.0767598 -0.208472,0.124236 -0.341433,0.124236 -0.132961,0 -0.253709,-0.0474764 -0.341433,-0.124236 -0.0891614,-0.0780157 -0.144315,-0.186118 -0.144315,-0.305811 0,-0.126567 0.0641339,-0.311287 0.165189,-0.450228 0.084622,-0.116362 0.196071,-0.20261 0.320559,-0.20261z"/>
  <path class="fil4" d="M3.18917 1.63999c0.0182087,-0.0157717 0.0371142,-0.0299567 0.0566457,-0.0422165 0.0108268,0.00679134 0.0180472,0.0189646 0.0180472,0.0328543 0,0.0212992 -0.0169724,0.038563 -0.0379094,0.038563 -0.0177638,0 -0.0326693,-0.0124252 -0.0367835,-0.0292008z"/>
  <path class="fil4" d="M3.57604 1.59777c0.0195354,0.0122598 0.0384409,0.0264449 0.0566496,0.0422165 -0.00411417,0.0167756 -0.0190197,0.0292008 -0.0367835,0.0292008 -0.020937,0 -0.0379094,-0.0172638 -0.0379094,-0.038563 0,-0.0138898 0.00721654,-0.026063 0.0180433,-0.0328543z"/>
  <path class="fil5" d="M3.41093 2.56677c0.305882,0 0.582295,0.153106 0.781917,0.400638 0.197646,0.245079 0.319898,0.58311 0.319898,0.955976 0,0.372866 -0.122252,0.710894 -0.319898,0.955976 -0.199622,0.247531 -0.476035,0.400634 -0.781917,0.400634 -0.305878,0 -0.582295,-0.153102 -0.781917,-0.400634 -0.197646,-0.245083 -0.319898,-0.58311 -0.319898,-0.955976 0,-0.372866 0.122252,-0.710898 0.319898,-0.955976 0.199622,-0.247531 0.476039,-0.400638 0.781917,-0.400638z"/>
  <path class="fil6" d="M2.5997 3.0052c0.0095748,-0.0128228 0.0193346,-0.0254291 0.0293031,-0.0377874 0.109693,-0.13602 0.242583,-0.243516 0.390799,-0.312772l0 0.191122 -0.172516 0.101886 -0.172512 0.101894 -0.0750748 -0.0443425z"/>
  <path class="fil6" d="M3.76901 2.63995c0.161531,0.068248 0.306047,0.181413 0.423831,0.327461 0.00574409,0.00712205 0.0114173,0.0143268 0.0170276,0.0216024l-0.0958268 0.0566024 -0.172516 -0.101894 -0.172516 -0.101886 0 -0.201886z"/>
  <path class="fil6" d="M3.41093 2.56677c0.114819,0 0.225488,0.0215787 0.3295,0.061622l0 0.00770472 0 0.203776 -0.172516 0.10189 -0.172516 0.10189 -0.172516 -0.10189 -0.172516 -0.10189 0 -0.198866c0.112941,-0.0480984 0.234236,-0.0742362 0.360563,-0.0742362z"/>
  <path class="fil6" d="M3.01196 5.18842c-0.145063,-0.0693583 -0.275205,-0.175441 -0.382957,-0.309055 -0.00638189,-0.00791339 -0.0126811,-0.0159252 -0.0189055,-0.0240315l0.0568307 -0.0335669 0.172516 0.10189 0.172516 0.10189 0 0.162874z"/>
  <path class="fil6" d="M4.19791 4.873c-0.00168898,0.00212205 -0.00337008,0.00425197 -0.00507087,0.0063622 -0.114437,0.141902 -0.254114,0.252744 -0.410106,0.321531l0 -0.165543 0.172516 -0.10189 0.172516 -0.10189 0.0701457 0.0414291z"/>
  <path class="fil6" d="M3.73944 5.21876c-0.103728,0.0397992 -0.214059,0.0612402 -0.328516,0.0612402 -0.126693,0 -0.248323,-0.0262913 -0.361547,-0.0746496l0 -0.177843 0.172516 -0.101886 0.172516 -0.10189 0.172516 0.10189 0.172516 0.101886 0 0.191252z"/>
  <path class="fil6" d="M2.59164 4.83067c-0.128268,-0.175524 -0.219913,-0.392697 -0.259984,-0.632976l0.14902 0.0847559 0.179146 0.101886 0 0.20378 0 0.203776 -0.0681811 0.0387795z"/>
  <path class="fil6" d="M2.32343 4.14253c-0.00940945,-0.0713425 -0.0143189,-0.144543 -0.0143189,-0.219142 0,-0.0745984 0.00490945,-0.147799 0.0143189,-0.219142l0.354591 -0.188413 0.179142 0.10189 0.179146 0.101886 0 0.20378 0 0.20378 -0.179146 0.101886 -0.179142 0.10189 -0.17915 -0.10189 -0.175441 -0.0865236z"/>
  <path class="fil6" d="M2.3317 3.64887c0.0389488,-0.233417 0.126587,-0.445012 0.249173,-0.617803l0.0749409 0.0394843 0 0.20378 0 0.211622 -0.193398 0.0940433 -0.130717 0.068874z"/>
  <path class="fil6" d="M4.22956 3.0152c0.129024,0.17624 0.221091,0.394571 0.261024,0.636181l-0.154091 -0.081185 -0.193398 -0.10189 0 -0.203776 0 -0.20378 0.0864646 -0.0455512z"/>
  <path class="fil6" d="M4.48884 4.2056c-0.0402953,0.234492 -0.129756,0.446681 -0.254402,0.619236l-0.0736969 -0.0388228 0 -0.20378 0 -0.20378 0.193398 -0.101886 0.134701 -0.0709685z"/>
  <path class="fil6" d="M4.4985 3.70487c0.00935433,0.0711457 0.0142362,0.144134 0.0142362,0.218512 0,0.074378 -0.00488189,0.147366 -0.0142362,0.218512l-0.165433 0.0871535 -0.19339 0.10189 -0.193394 -0.10189 -0.193398 -0.101886 0 -0.20378 0 -0.20378 0.193398 -0.101886 0.193394 -0.10189 0.19339 0.10189 0.165433 0.0871535z"/>
  <path class="fil7" d="M2.40215 3.37688c0.0533189,-0.149071 0.127772,-0.284075 0.218646,-0.399173 -0.0535945,-0.0230472 -0.135984,-0.0642559 -0.190697,-0.118969 -0.0391339,-0.0391339 -0.0730157,-0.0866299 -0.103535,-0.137244 -0.0289488,-0.0480039 -0.0555984,-0.100563 -0.0809055,-0.151165 -0.0128937,-0.0257795 -0.0244449,-0.0397441 -0.0345315,-0.0447244 -0.00282283,-0.0013937 -0.00579921,-0.00118898 -0.00872441,0.000200787 -0.0073622,0.00349606 -0.0152717,0.0115236 -0.0231142,0.0225787 -0.0249252,0.0351378 -0.0422559,0.091689 -0.0438346,0.141441 -0.00593701,0.187035 0.18713,0.547043 0.266697,0.687055z"/>
  <path class="fil7" d="M2.5967 4.83757c-0.0851024,-0.114874 -0.154413,-0.247921 -0.20365,-0.393839 -0.0842205,0.149815 -0.263327,0.490717 -0.257606,0.670969 0.00157874,0.049752 0.0189094,0.106303 0.0438346,0.141441 0.00784252,0.0110551 0.015752,0.0190827 0.0231142,0.0225787 0.0029252,0.0013937 0.00590157,0.00159843 0.00872441,0.000200787 0.0100866,-0.00498031 0.0216378,-0.0189449 0.0345315,-0.0447244 0.0253071,-0.0505984 0.0519567,-0.103161 0.0809055,-0.151161 0.0305197,-0.0506181 0.0644016,-0.0981142 0.103535,-0.137244 0.0470433,-0.0470472 0.114543,-0.0841063 0.16661,-0.10822z"/>
  <path class="fil7" d="M4.22637 4.83592c0.0525236,0.0240591 0.122067,0.0617402 0.170201,0.109874 0.0391339,0.0391299 0.0730157,0.086626 0.103535,0.137244 0.0289488,0.048 0.0555984,0.100563 0.0809055,0.151161 0.0128937,0.0257795 0.0244449,0.0397441 0.0345315,0.0447244 0.00282283,0.00139764 0.00579921,0.00119291 0.00872441,-0.000200787 0.0073622,-0.00349606 0.0152717,-0.0115236 0.0231142,-0.0225787 0.0249252,-0.0351378 0.0422559,-0.091689 0.0438346,-0.141441 0.00579134,-0.182433 -0.177752,-0.529433 -0.260622,-0.676323 -0.0491102,0.147319 -0.118638,0.281638 -0.204224,0.397539z"/>
  <path class="fil7" d="M4.42156 3.38207c0.0776142,-0.136079 0.275669,-0.502854 0.269657,-0.692252 -0.00157874,-0.049752 -0.0189094,-0.106303 -0.0438346,-0.141441 -0.00784252,-0.0110551 -0.015752,-0.0190827 -0.0231142,-0.0225787 -0.0029252,-0.00138976 -0.00590157,-0.00159449 -0.00872441,-0.000200787 -0.0100866,0.00498031 -0.0216378,0.0189449 -0.0345315,0.0447244 -0.0253071,0.0506024 -0.0519567,0.103161 -0.0809055,0.151165 -0.0305197,0.0506142 -0.0644016,0.0981102 -0.103535,0.137244 -0.0559567,0.0559567 -0.14085,0.0977835 -0.194295,0.120508 0.091378,0.116098 0.166075,0.252366 0.219283,0.402831z"/>
  <polygon class="fil8" points="3.03557,2.87267 3.20809,2.97456 3.3806,3.07645 3.3806,3.28023 3.3806,3.48401 3.05322,3.67308 2.69054,3.48401 2.69054,3.28023 2.69054,3.07645 2.86306,2.97456 "/>
  <polygon class="fil8" points="3.75626,2.87267 3.58587,2.97456 3.41547,3.07645 3.41547,3.28023 3.41547,3.48401 3.58587,3.5859 3.73861,3.67602 3.92665,3.5859 4.09705,3.48401 4.09705,3.28023 4.09705,3.07645 3.92665,2.97456 "/>
  <polygon class="fil8" points="3.03557,4.17468 3.20809,4.27657 3.3806,4.37846 3.3806,4.58224 3.3806,4.78602 3.20809,4.88791 3.03557,4.9898 2.86306,4.88791 2.69054,4.78602 2.69054,4.58224 2.69054,4.37846 2.86306,4.27657 "/>
  <polygon class="fil8" points="3.76469,4.17468 3.59008,4.27657 3.41547,4.37846 3.41547,4.58224 3.41547,4.78602 3.59008,4.88791 3.76469,4.9898 3.9393,4.88791 4.1139,4.78602 4.1139,4.58224 4.1139,4.37846 3.9393,4.27657 "/>
  <path class="fil6" d="M3.08842 4.14253c-0.00824016,-0.0713425 -0.0125394,-0.144543 -0.0125394,-0.219142 0,-0.0745984 0.00429921,-0.147799 0.0125394,-0.219142l0.310531 -0.188413 0.156882 0.10189 0.15689 0.101886 0 0.20378 0 0.20378 -0.15689 0.101886 -0.156882 0.10189 -0.15689 -0.10189 -0.153642 -0.0865236z"/>
  <ellipse class="fil9 str0" cx="3.11021" cy="1.94565" rx="0.135952" ry="0.183012"/>
  <ellipse class="fil9 str0" cx="3.69846" cy="1.94565" rx="0.135952" ry="0.183012"/>
  <ellipse class="fil10" cx="3.15923" cy="1.90905" rx="0.0732096" ry="0.0985516"/>
  <ellipse class="fil10" cx="3.64944" cy="1.90905" rx="0.0732096" ry="0.0985516"/>
  <ellipse class="fil11" cx="3.17492" cy="1.94303" rx="0.0266897" ry="0.0359285"/>
  <ellipse class="fil11" cx="3.63376" cy="1.94303" rx="0.0266897" ry="0.0359285"/>
 </g>
</svg>
