<?xml version="1.0" encoding="UTF-8"?>
<!DOCTYPE svg PUBLIC "-//W3C//DTD SVG 1.1//EN" "http://www.w3.org/Graphics/SVG/1.1/DTD/svg11.dtd">
<!-- Creator: CorelDRAW -->
<svg xmlns="http://www.w3.org/2000/svg" xml:space="preserve" width="6.82666in" height="6.82666in" style="shape-rendering:geometricPrecision; text-rendering:geometricPrecision; image-rendering:optimizeQuality; fill-rule:evenodd; clip-rule:evenodd"
viewBox="0 0 6.82666 6.82666"
 xmlns:xlink="http://www.w3.org/1999/xlink">
 <defs>
  <style type="text/css">
   <![CDATA[
    .fil2 {fill:none}
    .fil8 {fill:#263238}
    .fil1 {fill:#00000000}
    .fil0 {fill:#00000000}
    .fil10 {fill:#90A4AE}
    .fil3 {fill:#B0BEC5}
    .fil6 {fill:#CFD8DC}
    .fil7 {fill:#ECEFF1}
    .fil5 {fill:url(#id1)}
    .fil4 {fill:url(#id2)}
    .fil9 {fill:url(#id3)}
   ]]>
  </style>
   <clipPath id="id0">
    <path d="M3.41333 -3.93701e-006c1.88513,0 3.41333,1.5282 3.41333,3.41333 0,1.88513 -1.5282,3.41333 -3.41333,3.41333 -1.88513,0 -3.41333,-1.5282 -3.41333,-3.41333 0,-1.88513 1.5282,-3.41333 3.41333,-3.41333z"/>
   </clipPath>
  <linearGradient id="id1" gradientUnits="userSpaceOnUse" x1="3.38063" y1="5.0983" x2="3.16318" y2="4.7416">
   <stop offset="0" style="stop-color:#F48381"/>
   <stop offset="0.709804" style="stop-color:#F38180"/>
   <stop offset="0.988235" style="stop-color:#F37F80"/>
   <stop offset="1" style="stop-color:#F05B7A"/>
  </linearGradient>
  <linearGradient id="id2" gradientUnits="userSpaceOnUse" xlink:href="#id1" x1="3.04868" y1="5.14816" x2="2.80666" y2="4.75116">
  </linearGradient>
  <linearGradient id="id3" gradientUnits="userSpaceOnUse" x1="4.37311" y1="3.90404" x2="4.20212" y2="3.84648">
   <stop offset="0" style="stop-color:#F15F5B"/>
   <stop offset="0.709804" style="stop-color:#EF5D5A"/>
   <stop offset="0.988235" style="stop-color:#ED5B5A"/>
   <stop offset="1" style="stop-color:#C94155"/>
  </linearGradient>
 </defs>
 <g id="Layer_x0020_1">
  <metadata id="CorelCorpID_0Corel-Layer"/>
  <path class="fil0" d="M3.41333 -3.93701e-006c1.88513,0 3.41333,1.5282 3.41333,3.41333 0,1.88513 -1.5282,3.41333 -3.41333,3.41333 -1.88513,0 -3.41333,-1.5282 -3.41333,-3.41333 0,-1.88513 1.5282,-3.41333 3.41333,-3.41333z"/>
  <g style="clip-path:url(#id0)">
   <g id="_637668232">
    <g>
     <polygon id="_5390362321" class="fil1" points="5.27245,2.13618 9.05872,5.92245 9.0625,5.92774 9.06494,5.93319 9.06611,5.9388 9.06613,5.94454 9.06507,5.9504 9.06302,5.95634 9.06007,5.96236 9.05632,5.96843 9.05186,5.97453 9.04677,5.98064 5.2605,2.19437 5.26559,2.18826 5.27006,2.18216 5.2738,2.17609 5.27675,2.17007 5.2788,2.16413 5.27986,2.15827 5.27985,2.15253 5.27867,2.14692 5.27623,2.14146 "/>
     <polygon id="_539036088" class="fil1" points="5.00261,2.13243 8.78887,5.9187 8.79091,5.92224 8.79245,5.92631 8.79349,5.93088 8.79407,5.93593 8.79421,5.94142 8.79393,5.94732 8.79326,5.9536 8.79221,5.96024 8.79081,5.96719 8.78908,5.97443 8.78705,5.98193 8.78473,5.98965 8.78216,5.99757 8.77934,6.00565 8.77631,6.01387 8.7731,6.02219 8.76971,6.03057 4.98344,2.2443 4.98683,2.23591 4.99005,2.22759 4.99307,2.21938 4.99589,2.2113 4.99846,2.20338 5.00078,2.19565 5.00281,2.18816 5.00454,2.18092 5.00594,2.17396 5.00699,2.16733 5.00767,2.16105 5.00794,2.15515 5.00781,2.14965 5.00722,2.14461 5.00618,2.14004 5.00465,2.13596 "/>
     <polygon id="_539036952" class="fil1" points="4.1008,2.83486 7.88706,6.62113 7.89039,6.6256 7.89313,6.63054 7.89531,6.63589 7.89698,6.64165 7.89815,6.64775 7.89885,6.65417 7.89913,6.66086 7.89901,6.66779 7.89852,6.67493 7.89769,6.68222 7.89656,6.68965 7.89516,6.69717 4.10889,2.91089 4.1103,2.90338 4.11143,2.89595 4.11225,2.88865 4.11274,2.88152 4.11286,2.87459 4.11258,2.86789 4.11188,2.86148 4.11071,2.85537 4.10905,2.84962 4.10686,2.84426 4.10412,2.83933 "/>
     <polygon id="_539037000" class="fil1" points="2.52796,1.64501 6.31422,5.43128 6.31976,5.43824 6.32504,5.44624 2.53878,1.65997 2.53349,1.65196 "/>
     <polygon id="_539037024" class="fil1" points="2.53878,1.65997 6.32504,5.44624 6.34235,5.47468 6.35895,5.50154 6.37491,5.52691 6.39026,5.5509 6.40507,5.5736 6.41941,5.5951 6.43332,5.6155 6.44686,5.6349 6.46009,5.65339 6.47306,5.67108 6.48583,5.68805 6.49846,5.70441 6.511,5.72024 6.52351,5.73565 6.53604,5.75072 6.54866,5.76557 6.56142,5.78029 6.57437,5.79496 6.58757,5.80969 6.60108,5.82457 6.61495,5.8397 6.62925,5.85518 6.64402,5.8711 6.65932,5.88756 6.67522,5.90466 6.69176,5.92248 6.709,5.94113 6.727,5.96071 6.74581,5.9813 6.7655,6.00302 6.78612,6.02594 6.80772,6.05017 3.02145,2.2639 2.99985,2.23967 2.97923,2.21674 2.95955,2.19503 2.94073,2.17444 2.92273,2.15486 2.90549,2.13621 2.88895,2.11839 2.87306,2.10129 2.85775,2.08483 2.84298,2.06891 2.82869,2.05343 2.81481,2.0383 2.8013,2.02342 2.7881,2.00869 2.77515,1.99402 2.76239,1.9793 2.74978,1.96445 2.73724,1.94937 2.72473,1.93396 2.71219,1.91813 2.69956,1.90178 2.68679,1.88481 2.67382,1.86712 2.66059,1.84863 2.64705,1.82923 2.63314,1.80883 2.61881,1.78733 2.60399,1.76463 2.58864,1.74064 2.57269,1.71527 2.55608,1.68841 "/>
     <polygon id="_539037048" class="fil1" points="3.85724,3.00815 7.6435,6.79442 7.6464,6.79778 7.64894,6.80191 7.6511,6.80679 7.65288,6.81239 7.65428,6.81869 7.65527,6.82567 7.65585,6.83332 7.65601,6.8416 7.65574,6.8505 7.65504,6.86 7.65388,6.87007 7.65226,6.88069 3.86599,3.09442 3.86761,3.0838 3.86877,3.07372 3.86947,3.06423 3.86974,3.05533 3.86958,3.04705 3.869,3.0394 3.86801,3.03242 3.86661,3.02612 3.86483,3.02052 3.86267,3.01564 3.86013,3.01151 "/>
     <polygon id="_539036664" class="fil1" points="3.02145,2.2639 6.80772,6.05017 6.83838,6.08517 6.86605,6.11775 6.89089,6.14809 6.91304,6.17634 6.93265,6.20267 6.94987,6.22724 6.96486,6.25022 6.97776,6.27177 6.98873,6.29205 6.99791,6.31122 7.00546,6.32944 7.01152,6.34689 7.01626,6.36372 7.01981,6.38009 7.02233,6.39618 7.02396,6.41213 7.02487,6.42812 7.02519,6.44431 7.02509,6.46085 7.0247,6.47793 7.02419,6.49568 7.0237,6.51429 7.02338,6.5339 7.02338,6.5547 7.02386,6.57683 7.02496,6.60046 7.02683,6.62575 7.02963,6.65287 7.0335,6.68198 7.0386,6.71325 7.04508,6.74683 7.05308,6.78289 3.26681,2.99662 3.25881,2.96056 3.25233,2.92698 3.24724,2.89571 3.24336,2.8666 3.24057,2.83948 3.23869,2.81419 3.23759,2.79056 3.23711,2.76843 3.23711,2.74763 3.23743,2.72802 3.23793,2.70941 3.23844,2.69165 3.23882,2.67458 3.23893,2.65804 3.2386,2.64185 3.2377,2.62586 3.23606,2.60991 3.23354,2.59382 3.22999,2.57745 3.22526,2.56062 3.21919,2.54317 3.21164,2.52494 3.20246,2.50578 3.19149,2.4855 3.17859,2.46395 3.1636,2.44097 3.14638,2.4164 3.12677,2.39007 3.10462,2.36181 3.07978,2.33148 3.05211,2.29889 "/>
     <polygon id="_539038032" class="fil1" points="2.52902,2.93925 6.31529,6.72552 6.31384,6.7246 6.31239,6.72367 6.31094,6.72275 6.3095,6.72182 6.30805,6.72089 6.30661,6.71996 6.30516,6.71903 6.30372,6.71809 2.51745,2.93182 2.51889,2.93276 2.52034,2.93369 2.52178,2.93462 2.52323,2.93555 2.52468,2.93648 2.52612,2.9374 2.52757,2.93833 "/>
     <polygon id="_539038056" class="fil1" points="2.51745,2.93182 6.30372,6.71809 6.30213,6.7167 2.51586,2.93043 "/>
     <polygon id="_539037840" class="fil1" points="2.59588,3.75879 6.38215,7.54506 6.37146,7.54126 6.36111,7.53701 6.35111,7.53233 6.34148,7.52726 6.33225,7.52183 6.32343,7.51608 6.31504,7.51004 6.3071,7.50375 6.29965,7.49724 2.51338,3.71096 2.52083,3.71748 2.52877,3.72377 2.53716,3.72981 2.54598,3.73556 2.55522,3.74099 2.56485,3.74606 2.57485,3.75074 2.5852,3.75499 "/>
     <polygon id="_539038152" class="fil1" points="3.50132,4.69043 7.28759,8.4767 7.28434,8.47828 7.28102,8.47983 7.27763,8.48135 7.27417,8.48284 7.27065,8.4843 7.26705,8.48574 7.26339,8.48714 7.25967,8.48851 7.25588,8.48985 7.25204,8.49116 7.24813,8.49244 7.24417,8.49369 7.24015,8.49491 7.23607,8.49609 7.23194,8.49725 7.22776,8.49837 3.4415,4.7121 3.44568,4.71098 3.4498,4.70982 3.45388,4.70863 3.4579,4.70742 3.46186,4.70617 3.46577,4.70489 3.46961,4.70358 3.4734,4.70224 3.47713,4.70087 3.48078,4.69946 3.48438,4.69803 3.48791,4.69657 3.49137,4.69508 3.49476,4.69356 3.49807,4.69201 "/>
     <polygon id="_539037624" class="fil1" points="3.20508,4.75665 6.99135,8.54292 6.98961,8.5415 6.98723,8.54111 6.98429,8.54164 6.98083,8.543 6.97691,8.54511 6.97259,8.54786 6.96794,8.55118 3.18168,4.76491 3.18633,4.76159 3.19064,4.75884 3.19456,4.75673 3.19802,4.75537 3.20096,4.75484 3.20334,4.75523 "/>
     <polygon id="_539037960" class="fil1" points="3.23956,4.81882 7.02583,8.60509 7.02293,8.60309 7.02017,8.60079 3.2339,4.81452 3.23666,4.81682 "/>
     <polygon id="_539037672" class="fil1" points="3.2174,4.78921 7.00367,8.57548 7.00243,8.57477 7.00123,8.57411 3.21496,4.78784 3.21616,4.7885 "/>
     <polygon id="_539037696" class="fil1" points="3.18168,4.76491 6.96794,8.55118 6.96428,8.55396 6.96049,8.55697 6.95659,8.56017 6.95261,8.5635 6.94857,8.56695 6.9445,8.57047 6.94043,8.57402 6.93636,8.57757 6.93234,8.58107 6.92839,8.58449 6.92452,8.58779 6.92076,8.59093 6.91715,8.59387 6.9137,8.59659 6.91044,8.59902 6.90739,8.60115 3.12112,4.81488 3.12417,4.81275 3.12743,4.81031 3.13088,4.8076 3.1345,4.80466 3.13825,4.80152 3.14212,4.79822 3.14607,4.7948 3.15009,4.7913 3.15416,4.78775 3.15824,4.7842 3.16231,4.78068 3.16635,4.77723 3.17033,4.77389 3.17422,4.7707 3.17802,4.76769 "/>
     <polygon id="_539037816" class="fil1" points="2.34063,4.2896 6.1269,8.07587 6.12287,8.07476 6.11885,8.07361 6.11484,8.07243 6.11083,8.07121 6.10681,8.06994 6.10278,8.06863 6.09872,8.06727 6.09465,8.06586 6.09054,8.06439 6.0864,8.06286 6.08221,8.06128 6.07798,8.05962 6.07369,8.0579 6.06934,8.05611 6.06493,8.05425 6.06044,8.05231 6.05588,8.05029 6.05123,8.04819 6.0465,8.046 6.04166,8.04372 6.03673,8.04135 6.03169,8.03888 6.02653,8.03631 6.02126,8.03365 6.01586,8.03088 6.01033,8.028 6.00466,8.02502 5.99885,8.02191 5.99289,8.0187 5.98678,8.01536 5.9805,8.0119 5.97406,8.00831 2.1878,4.22204 2.19424,4.22563 2.20051,4.22909 2.20662,4.23243 2.21258,4.23564 2.21839,4.23874 2.22406,4.24173 2.22959,4.24461 2.23499,4.24738 2.24026,4.25004 2.24542,4.25261 2.25046,4.25507 2.25539,4.25744 2.26023,4.25972 2.26496,4.26191 2.26961,4.26402 2.27417,4.26604 2.27866,4.26798 2.28307,4.26984 2.28742,4.27163 2.29171,4.27335 2.29594,4.275 2.30013,4.27659 2.30427,4.27812 2.30838,4.27959 2.31246,4.281 2.31651,4.28236 2.32054,4.28367 2.32456,4.28494 2.32857,4.28616 2.33259,4.28734 2.3366,4.28849 "/>
     <polygon id="_539037888" class="fil1" points="2.1878,4.22204 5.97406,8.00831 5.96835,8.00472 5.96256,8.00033 5.95682,7.99528 2.17056,4.20901 2.17629,4.21406 2.18208,4.21844 "/>
     <polygon id="_539037528" class="fil1" points="3.27109,4.82483 7.05736,8.6111 7.05466,8.61972 7.0524,8.6273 7.05057,8.63393 7.04915,8.63966 7.04815,8.64459 7.04754,8.64877 7.04731,8.65229 7.04747,8.65521 7.04798,8.65762 7.04886,8.65958 7.05007,8.66117 3.26381,4.8749 3.26259,4.87331 3.26172,4.87135 3.2612,4.86894 3.26105,4.86602 3.26127,4.8625 3.26188,4.85831 3.26289,4.85339 3.2643,4.84765 3.26613,4.84103 3.26839,4.83344 "/>
     <polygon id="_539038800" class="fil1" points="2.89808,4.70171 6.68435,8.48798 6.67825,8.49257 6.67214,8.49716 6.66602,8.50174 6.65989,8.50633 6.65376,8.5109 6.64762,8.51547 6.64148,8.52004 6.63534,8.52459 6.6292,8.52915 6.62306,8.53369 6.61692,8.53823 6.61078,8.54276 6.60465,8.54728 6.59853,8.55179 6.59241,8.55629 6.5863,8.56078 6.5802,8.56526 6.57412,8.56972 6.56805,8.57418 6.56199,8.57862 6.55595,8.58305 6.54993,8.58746 6.54392,8.59186 6.53793,8.59624 6.53196,8.60061 6.52602,8.60496 6.5201,8.6093 6.5142,8.61361 6.50833,8.61791 6.5025,8.62219 6.49669,8.62644 6.4909,8.63069 2.70463,4.84441 2.71042,4.84017 2.71623,4.83591 2.72207,4.83164 2.72794,4.82734 2.73383,4.82302 2.73975,4.81869 2.7457,4.81434 2.75166,4.80997 2.75765,4.80559 2.76366,4.80119 2.76968,4.79678 2.77572,4.79235 2.78178,4.78791 2.78785,4.78345 2.79394,4.77899 2.80004,4.77451 2.80614,4.77002 2.81226,4.76552 2.81838,4.76101 2.82451,4.75649 2.83065,4.75196 2.83679,4.74742 2.84293,4.74288 2.84907,4.73832 2.85521,4.73376 2.86135,4.7292 2.86749,4.72463 2.87362,4.72006 2.87975,4.71547 2.88587,4.71089 2.89198,4.7063 "/>
     <polygon id="_539038944" class="fil1" points="3.31093,4.89945 7.09719,8.68572 7.10228,8.69058 7.10754,8.69626 7.11296,8.70281 7.11853,8.71031 7.12424,8.71885 7.13008,8.72849 7.13604,8.7393 3.34977,4.95303 3.34381,4.94222 3.33797,4.93258 3.33226,4.92404 3.32669,4.91654 3.32127,4.90998 3.31601,4.90431 "/>
     <polygon id="_539038440" class="fil1" points="3.12112,4.81488 6.90739,8.60115 6.89955,8.60628 6.89187,8.61107 6.88437,8.61552 6.87704,8.61963 6.86986,8.6234 6.86286,8.62685 6.85601,8.62998 6.84933,8.6328 6.8428,8.6353 6.83644,8.6375 6.83023,8.63941 6.82417,8.64102 6.81827,8.64234 6.81252,8.64338 6.80691,8.64415 6.80146,8.64464 3.01519,4.85837 3.02065,4.85787 3.02625,4.85711 3.032,4.85607 3.03791,4.85474 3.04396,4.85313 3.05017,4.85123 3.05654,4.84903 3.06306,4.84652 3.06974,4.84371 3.07659,4.84058 3.08359,4.83713 3.09077,4.83335 3.0981,4.82924 3.10561,4.8248 3.11328,4.82001 "/>
     <polygon id="_539038536" class="fil1" points="2.57706,3.9998 6.36333,7.78607 6.36162,7.78504 6.36017,7.78373 2.5739,3.99746 2.57535,3.99876 "/>
     <polygon id="_539038824" class="fil1" points="3.21921,4.91527 7.00548,8.70154 6.99723,8.70637 6.99131,8.71223 6.98739,8.71888 6.98516,8.72607 6.9843,8.73357 6.98448,8.74112 6.98539,8.74847 6.98672,8.75538 6.98815,8.76161 6.98934,8.7669 6.99,8.77101 6.9898,8.77369 6.98843,8.7747 6.98556,8.7738 6.98087,8.77073 6.97405,8.76524 3.18778,4.97897 3.1946,4.98446 3.19929,4.98753 3.20216,4.98843 3.20354,4.98742 3.20374,4.98474 3.20307,4.98063 3.20188,4.97533 3.20045,4.96911 3.19913,4.9622 3.19821,4.95485 3.19803,4.9473 3.19889,4.9398 3.20113,4.93261 3.20504,4.92596 3.21096,4.92009 "/>
     <polygon id="_539038512" class="fil1" points="2.96639,4.84858 6.75266,8.63485 6.74873,8.63259 6.74493,8.63011 6.74126,8.62744 6.73772,8.62457 2.95146,4.8383 2.955,4.84117 2.95867,4.84384 2.96246,4.84632 "/>
     <polygon id="_539038488" class="fil1" points="3.01519,4.85837 6.80146,8.64464 6.79866,8.65098 6.79592,8.65728 6.79326,8.6635 6.7907,8.6696 6.78829,8.67552 6.78603,8.68123 6.78394,8.68668 6.78207,8.69181 6.78043,8.6966 6.77903,8.70098 6.77792,8.70493 6.77711,8.70839 6.77662,8.71131 6.77648,8.71365 6.77672,8.71537 6.77736,8.71643 2.99109,4.93015 2.99046,4.9291 2.99022,4.92738 2.99035,4.92504 2.99084,4.92211 2.99165,4.91866 2.99276,4.91471 2.99416,4.91033 2.9958,4.90554 2.99768,4.90041 2.99976,4.89496 3.00202,4.88925 3.00444,4.88333 3.00699,4.87723 3.00965,4.87101 3.01239,4.86471 "/>
     <polygon id="_539038680" class="fil1" points="2.95468,4.96055 6.74094,8.74682 6.73684,8.7435 6.73196,8.74055 6.72628,8.738 6.71978,8.73589 6.71241,8.73424 2.92614,4.94797 2.93351,4.94962 2.94002,4.95173 2.94569,4.95428 2.95057,4.95723 "/>
     <polygon id="_539038896" class="fil1" points="2.92614,4.94797 6.71241,8.73424 6.70917,8.73451 6.70575,8.7363 6.70221,8.73941 6.69863,8.74365 6.69507,8.74885 6.6916,8.75481 6.68829,8.76135 6.68521,8.76829 6.68243,8.77542 6.68001,8.78257 6.67803,8.78955 6.67654,8.79617 6.67563,8.80224 6.67536,8.80758 6.6758,8.812 6.67702,8.81532 2.89075,5.02905 2.88953,5.02573 2.88909,5.02131 2.88937,5.01597 2.89028,5.00989 2.89176,5.00328 2.89374,4.9963 2.89616,4.98915 2.89894,4.98202 2.90202,4.97508 2.90533,4.96854 2.9088,4.96258 2.91236,4.95738 2.91594,4.95313 2.91948,4.95002 2.9229,4.94824 "/>
     <polygon id="_539038224" class="fil1" points="1.9852,4.45817 5.77147,8.24444 5.76402,8.24304 5.75633,8.24148 5.74843,8.23976 5.74035,8.23787 5.73211,8.23583 5.72375,8.23363 5.7153,8.23128 5.70678,8.22878 5.69824,8.22614 5.68968,8.22335 5.68115,8.22041 5.67268,8.21733 5.66429,8.21411 5.65602,8.21076 5.64788,8.20727 5.63993,8.20365 5.63217,8.1999 5.62464,8.19602 5.61738,8.19202 5.61041,8.18789 5.60376,8.18364 5.59745,8.17928 5.59153,8.17479 5.58602,8.1702 1.79975,4.38393 1.80526,4.38852 1.81119,4.393 1.81749,4.39737 1.82414,4.40162 1.83111,4.40575 1.83837,4.40975 1.8459,4.41363 1.85366,4.41738 1.86161,4.421 1.86975,4.42449 1.87802,4.42784 1.88641,4.43106 1.89489,4.43414 1.90341,4.43707 1.91197,4.43987 1.92052,4.44251 1.92903,4.44501 1.93748,4.44736 1.94584,4.44956 1.95408,4.4516 1.96216,4.45348 1.97006,4.45521 1.97776,4.45677 "/>
     <polygon id="_539039040" class="fil1" points="2.14594,4.39231 5.93221,8.17858 5.92646,8.17665 5.92074,8.17469 5.91504,8.17271 5.90937,8.1707 5.9037,8.16868 5.89807,8.16663 5.89245,8.16456 5.88685,8.16246 5.88128,8.16035 5.87572,8.15823 5.87019,8.15608 5.86468,8.15392 5.85919,8.15174 5.85372,8.14954 5.84827,8.14733 5.84284,8.1451 2.05657,4.35883 2.062,4.36106 2.06745,4.36327 2.07292,4.36546 2.07841,4.36765 2.08393,4.36981 2.08946,4.37196 2.09501,4.37408 2.10059,4.37619 2.10618,4.37828 2.1118,4.38035 2.11744,4.38241 2.1231,4.38443 2.12878,4.38644 2.13448,4.38842 2.1402,4.39037 "/>
     <polygon id="_539039592" class="fil1" points="2.05657,4.35883 5.84284,8.1451 5.83956,8.14371 5.83566,8.14199 5.8312,8.13995 5.82623,8.13762 5.8208,8.135 5.81496,8.1321 5.80878,8.12894 5.80228,8.12555 5.79554,8.12192 5.7886,8.11807 5.78151,8.11403 5.77433,8.1098 5.76711,8.10539 5.75989,8.10083 5.75274,8.09611 5.74569,8.09128 5.73882,8.08632 5.73216,8.08126 5.72577,8.07611 5.7197,8.07089 1.93343,4.28461 1.9395,4.28984 1.94589,4.29498 1.95255,4.30005 1.95943,4.305 1.96647,4.30984 1.97362,4.31456 1.98084,4.31912 1.98806,4.32353 1.99524,4.32776 2.00233,4.3318 2.00927,4.33565 2.01602,4.33928 2.02251,4.34267 2.0287,4.34583 2.03453,4.34872 2.03996,4.35135 2.04493,4.35368 2.04939,4.35572 2.05329,4.35744 "/>
     <polygon id="_539038992" class="fil1" points="3.03781,4.96083 6.82408,8.7471 6.82744,8.75024 6.83062,8.75358 6.8336,8.75715 6.83635,8.76096 6.83883,8.76503 6.841,8.76937 6.84285,8.77399 6.84433,8.77892 6.84541,8.78417 6.84606,8.78975 6.84624,8.79569 6.84594,8.80198 6.8451,8.80867 6.8437,8.81574 6.84171,8.82323 6.8391,8.83115 6.83583,8.83951 6.83186,8.84833 3.04559,5.06206 3.04956,5.05324 3.05283,5.04487 3.05544,5.03696 3.05744,5.02947 3.05883,5.02239 3.05967,5.01571 3.05998,5.00941 3.05979,5.00348 3.05914,4.9979 3.05806,4.99265 3.05658,4.98772 3.05474,4.98309 3.05256,4.97876 3.05008,4.97469 3.04733,4.97088 3.04435,4.96731 3.04117,4.96396 "/>
     <polygon id="_539039112" class="fil1" points="2.70463,4.84441 6.4909,8.63069 6.48384,8.63583 6.47667,8.64097 6.46941,8.64611 6.46205,8.65124 6.45461,8.65636 6.44709,8.66148 6.43949,8.66659 6.43182,8.6717 6.4241,8.6768 6.41631,8.68189 6.40848,8.68696 6.4006,8.69204 6.39268,8.69709 6.38472,8.70214 6.37674,8.70717 6.36874,8.7122 6.36072,8.7172 6.35269,8.7222 6.34466,8.72718 6.33663,8.73214 6.3286,8.73709 6.32059,8.74202 6.31259,8.74693 6.30463,8.75182 6.29669,8.75669 6.28878,8.76155 6.28092,8.76638 6.27311,8.7712 6.26535,8.77598 6.25764,8.78076 6.25001,8.7855 6.24244,8.79022 2.45617,5.00395 2.46374,4.99923 2.47137,4.99448 2.47908,4.98971 2.48684,4.98493 2.49465,4.98011 2.50252,4.97528 2.51042,4.97042 2.51836,4.96555 2.52633,4.96065 2.53432,4.95574 2.54233,4.95081 2.55036,4.94587 2.55839,4.94091 2.56643,4.93593 2.57446,4.93093 2.58248,4.92593 2.59048,4.9209 2.59846,4.91587 2.60641,4.91082 2.61433,4.90576 2.62221,4.90069 2.63005,4.89561 2.63783,4.89053 2.64556,4.88543 2.65322,4.88032 2.66082,4.87521 2.66834,4.87009 2.67578,4.86496 2.68314,4.85983 2.6904,4.8547 2.69757,4.84956 "/>
     <polygon id="_539039088" class="fil1" points="2.89075,5.02905 6.67702,8.81532 6.67852,8.81809 6.67911,8.81999 6.6789,8.82106 6.67796,8.82135 6.67639,8.8209 6.67427,8.81975 6.6717,8.81795 6.66876,8.81554 2.88249,5.02927 2.88543,5.03168 2.888,5.03348 2.89012,5.03463 2.89169,5.03508 2.89263,5.03479 2.89285,5.03372 2.89225,5.03182 "/>
     <polygon id="_539039496" class="fil1" points="3.2346,5.05504 7.02087,8.84131 7.01872,8.84018 7.01516,8.84002 7.01043,8.84063 7.0048,8.8418 6.99851,8.84333 6.99183,8.84501 6.98502,8.84663 6.97833,8.84799 6.97202,8.84887 6.96635,8.84907 6.96157,8.84838 6.95794,8.84659 3.17168,5.06032 3.17531,5.06211 3.18008,5.0628 3.18576,5.0626 3.19207,5.06172 3.19876,5.06036 3.20557,5.05874 3.21224,5.05706 3.21853,5.05553 3.22416,5.05435 3.22889,5.05374 3.23246,5.05391 "/>
     <polygon id="_539038968" class="fil1" points="3.24315,4.93105 7.02942,8.71732 7.02279,8.71204 7.01483,8.70679 7.00548,8.70154 3.21921,4.91527 3.22857,4.92052 3.23652,4.92577 "/>
     <polygon id="_539039616" class="fil1" points="2.95138,5.07579 6.73765,8.86206 6.73533,8.86243 6.73102,8.8638 6.72446,8.8663 6.71543,8.87002 6.70368,8.87508 2.91741,5.08881 2.92916,5.08374 2.93819,5.08002 2.94475,5.07753 2.94907,5.07616 "/>
     <polygon id="_539039664" class="fil1" points="1.71775,4.76118 5.50402,8.54745 5.49832,8.54793 5.49237,8.54837 5.48617,8.54876 5.47976,8.54911 5.47317,8.5494 5.46644,8.54962 5.45958,8.54977 5.45262,8.54983 5.44561,8.54981 5.43856,8.54968 5.4315,8.54945 5.42446,8.54911 5.41747,8.54864 5.41057,8.54804 5.40378,8.54731 5.39712,8.54643 5.39063,8.5454 5.38434,8.54421 5.37827,8.54285 5.37246,8.54131 5.36693,8.53959 5.36172,8.53767 5.35684,8.53556 5.35234,8.53324 5.34824,8.5307 5.34456,8.52794 1.55829,4.74167 1.56197,4.74443 1.56607,4.74696 1.57057,4.74929 1.57545,4.7514 1.58067,4.75331 1.58619,4.75504 1.592,4.75657 1.59807,4.75794 1.60436,4.75913 1.61085,4.76016 1.61751,4.76104 1.6243,4.76177 1.6312,4.76237 1.63819,4.76283 1.64523,4.76318 1.65229,4.76341 1.65934,4.76354 1.66635,4.76356 1.67331,4.7635 1.68017,4.76335 1.68691,4.76313 1.69349,4.76284 1.6999,4.76249 1.7061,4.76209 1.71206,4.76165 "/>
     <polygon id="_539039208" class="fil1" points="1.83254,4.8771 5.6188,8.66337 5.61016,8.66662 5.60146,8.66986 5.59274,8.67307 5.58399,8.67626 5.57523,8.67942 5.56649,8.68253 5.55777,8.68559 5.54908,8.68861 5.54045,8.69156 5.53188,8.69444 5.52339,8.69726 5.515,8.7 5.50672,8.70265 5.49856,8.70521 5.49054,8.70768 5.48267,8.71004 5.47496,8.7123 5.46744,8.71443 5.46011,8.71645 5.453,8.71834 5.44611,8.72009 5.43945,8.7217 5.43305,8.72317 5.42691,8.72448 5.42106,8.72564 5.4155,8.72663 5.41025,8.72744 5.40533,8.72809 5.40074,8.72854 5.39651,8.72881 5.39265,8.72887 5.38916,8.72874 1.60289,4.94247 1.60638,4.9426 1.61024,4.94254 1.61447,4.94227 1.61906,4.94181 1.62398,4.94117 1.62923,4.94036 1.63479,4.93937 1.64065,4.93821 1.64678,4.9369 1.65318,4.93543 1.65984,4.93382 1.66673,4.93207 1.67385,4.93018 1.68117,4.92816 1.6887,4.92602 1.6964,4.92377 1.70427,4.92141 1.71229,4.91894 1.72045,4.91638 1.72873,4.91373 1.73713,4.91099 1.74561,4.90817 1.75418,4.90529 1.76281,4.90233 1.7715,4.89932 1.78022,4.89626 1.78896,4.89315 1.79772,4.88999 1.80647,4.8868 1.8152,4.88359 1.82389,4.88035 "/>
     <polygon id="_539039400" class="fil1" points="2.03887,4.9411 5.82514,8.72737 5.81633,8.73137 5.80741,8.73538 5.79839,8.73939 5.78929,8.7434 5.78012,8.7474 5.77091,8.75138 5.76166,8.75535 5.7524,8.75928 5.74314,8.76319 5.7339,8.76706 5.72469,8.77088 5.71553,8.77465 5.70644,8.77837 5.69743,8.78203 5.68853,8.78561 5.67974,8.78913 5.67108,8.79257 5.66257,8.79592 5.65423,8.79918 5.64607,8.80234 5.63811,8.8054 5.63037,8.80835 5.62286,8.81119 5.6156,8.81391 5.6086,8.8165 5.60189,8.81896 5.59547,8.82128 5.58937,8.82346 5.58359,8.82549 5.57817,8.82736 5.57311,8.82907 5.56843,8.83061 1.78217,5.04434 1.78684,5.0428 1.79191,5.04109 1.79733,5.03922 1.8031,5.03719 1.8092,5.03501 1.81562,5.03269 1.82233,5.03023 1.82933,5.02764 1.83659,5.02492 1.84411,5.02208 1.85185,5.01913 1.85981,5.01607 1.86796,5.01291 1.87631,5.00965 1.88481,5.0063 1.89347,5.00286 1.90226,4.99934 1.91117,4.99576 1.92017,4.9921 1.92926,4.98838 1.93842,4.98461 1.94763,4.98078 1.95687,4.97692 1.96613,4.97301 1.97539,4.96907 1.98464,4.96511 1.99385,4.96113 2.00302,4.95713 2.01212,4.95312 2.02114,4.94911 2.03007,4.9451 "/>
     <polygon id="_539039904" class="fil1" points="1.78217,5.04434 5.56843,8.83061 5.55809,8.83367 5.54851,8.83588 5.53969,8.83728 5.53161,8.8379 5.52427,8.83779 5.51765,8.83698 5.51173,8.83552 5.50651,8.83343 5.50197,8.83077 5.4981,8.82756 1.71183,5.04129 1.7157,5.0445 1.72024,5.04716 1.72546,5.04924 1.73138,5.05071 1.738,5.05152 1.74534,5.05163 1.75342,5.051 1.76224,5.04961 1.77182,5.0474 "/>
     <polygon id="_539040096" class="fil1" points="1.77637,4.55441 5.56264,8.34068 5.5578,8.33895 5.55189,8.3366 5.54511,8.33369 5.53768,8.33026 5.52978,8.32637 5.52163,8.32206 5.51342,8.31739 5.50535,8.31241 5.49764,8.30717 5.49046,8.30172 1.7042,4.51545 1.71137,4.5209 1.71909,4.52614 1.72715,4.53112 1.73536,4.53579 1.74352,4.5401 1.75141,4.54399 1.75884,4.54742 1.76562,4.55033 1.77153,4.55268 "/>
     <polygon id="_539040144" class="fil1" points="1.85826,4.57598 5.64453,8.36225 5.63933,8.36116 5.63415,8.36004 5.62897,8.35889 5.62381,8.35771 5.61865,8.35649 5.61351,8.35525 5.60838,8.35396 5.60326,8.35265 5.59815,8.35129 5.59305,8.3499 5.58796,8.34846 5.58288,8.34699 5.5778,8.34548 5.57274,8.34392 5.56769,8.34232 5.56264,8.34068 1.77637,4.55441 1.78142,4.55605 1.78647,4.55765 1.79154,4.55921 1.79661,4.56072 1.80169,4.56219 1.80678,4.56363 1.81188,4.56502 1.81699,4.56637 1.82211,4.56769 1.82724,4.56898 1.83239,4.57022 1.83754,4.57144 1.8427,4.57262 1.84788,4.57377 1.85306,4.57489 "/>
     <polygon id="_539040120" class="fil1" points="2.19585,4.98964 5.98211,8.77591 5.97362,8.77911 5.96462,8.78269 5.95513,8.78662 5.94521,8.79086 5.93488,8.79539 5.92418,8.80017 5.91313,8.80517 5.90179,8.81035 5.89017,8.81569 5.87832,8.82115 5.86627,8.82669 5.85405,8.83228 5.8417,8.8379 5.82925,8.8435 5.81674,8.84906 5.8042,8.85454 5.79167,8.85991 5.77918,8.86513 5.76676,8.87019 5.75445,8.87502 5.74229,8.87962 5.73031,8.88394 5.71854,8.88796 5.70701,8.89163 5.69577,8.89493 5.68485,8.89783 5.67428,8.90028 5.66409,8.90226 5.65432,8.90374 5.64501,8.90468 5.63619,8.90505 5.62789,8.90481 1.84162,5.11854 1.84992,5.11878 1.85874,5.11841 1.86806,5.11747 1.87782,5.11599 1.88801,5.11401 1.89858,5.11156 1.9095,5.10866 1.92074,5.10536 1.93227,5.10169 1.94404,5.09767 1.95602,5.09335 1.96819,5.08875 1.98049,5.08391 1.99291,5.07886 2.0054,5.07364 2.01793,5.06827 2.03047,5.06279 2.04298,5.05723 2.05543,5.05163 2.06778,5.04601 2.08,5.04041 2.09205,5.03487 2.1039,5.02942 2.11552,5.02408 2.12687,5.0189 2.13791,5.0139 2.14861,5.00912 2.15894,5.00459 2.16887,5.00035 2.17835,4.99642 2.18735,4.99283 "/>
     <polygon id="_539040288" class="fil1" points="1.60289,4.94247 5.38916,8.72874 5.38141,8.72785 5.37435,8.72633 5.36795,8.72422 5.36222,8.72153 5.3571,8.71828 1.57083,4.93201 1.57595,4.93526 1.58169,4.93795 1.58808,4.94006 1.59514,4.94158 "/>
     <polygon id="_539039784" class="fil1" points="1.84162,5.11854 5.62789,8.90481 5.6253,8.90425 5.6238,8.90301 1.83754,5.11674 1.83904,5.11798 "/>
     <polygon id="_539040336" class="fil1" points="2.45617,5.00395 6.24244,8.79022 6.23186,8.7968 6.22083,8.80359 6.20937,8.8106 6.19753,8.81778 6.18531,8.8251 6.17276,8.83256 6.15989,8.84011 6.14672,8.84774 6.1333,8.85542 6.11963,8.86312 6.10575,8.87083 6.09169,8.8785 6.07747,8.88613 6.06311,8.89368 6.04865,8.90113 6.03411,8.90846 6.01951,8.91563 6.00488,8.92263 5.99025,8.92943 5.97564,8.936 5.96108,8.94232 5.9466,8.94836 5.93222,8.9541 5.91796,8.95952 5.90387,8.96458 5.88994,8.96926 5.87623,8.97355 5.86275,8.9774 5.84952,8.98081 5.83659,8.98373 5.82396,8.98615 5.81167,8.98805 2.0254,5.20178 2.03769,5.19988 2.05032,5.19746 2.06326,5.19454 2.07648,5.19113 2.08996,5.18728 2.10368,5.18299 2.1176,5.17831 2.1317,5.17324 2.14595,5.16783 2.16033,5.16209 2.17481,5.15605 2.18937,5.14973 2.20398,5.14316 2.21861,5.13636 2.23324,5.12936 2.24784,5.12219 2.26238,5.11486 2.27685,5.10741 2.2912,5.09986 2.30542,5.09223 2.31948,5.08456 2.33336,5.07685 2.34703,5.06915 2.36045,5.06147 2.37362,5.05384 2.38649,5.04628 2.39905,5.03883 2.41126,5.0315 2.42311,5.02433 2.43456,5.01732 2.44559,5.01052 "/>
     <polygon id="_539040360" class="fil1" points="2.0254,5.20178 5.81167,8.98805 5.8007,8.98891 5.79183,8.98834 5.78489,8.98648 5.77976,8.98347 1.99349,5.1972 1.99862,5.20021 2.00556,5.20207 2.01444,5.20264 "/>
     <polygon id="_539040384" class="fil1" points="2.91741,5.08881 6.70368,8.87508 6.70231,8.87526 6.69937,8.87543 6.69519,8.87556 6.69008,8.87562 6.68437,8.8756 6.67839,8.87546 6.67245,8.87519 6.66689,8.87476 6.66202,8.87414 6.65817,8.87331 6.65565,8.87226 2.86939,5.08598 2.8719,5.08704 2.87575,5.08787 2.88062,5.08849 2.88618,5.08892 2.89212,5.08919 2.8981,5.08933 2.90381,5.08935 2.90892,5.08929 2.9131,5.08916 2.91604,5.08899 "/>
     <polygon id="_539040432" class="fil1" points="2.99377,5.09094 6.78004,8.87721 6.77571,8.87967 6.77089,8.88215 6.76567,8.8846 6.76011,8.88697 6.75431,8.88922 6.74836,8.8913 6.74232,8.89314 6.7363,8.89472 6.73036,8.89596 6.7246,8.89684 6.71909,8.8973 6.71393,8.89728 6.70919,8.89674 6.70495,8.89564 6.70131,8.89391 6.69834,8.89152 2.91207,5.10524 2.91504,5.10764 2.91869,5.10937 2.92292,5.11047 2.92766,5.11101 2.93282,5.11103 2.93833,5.11057 2.94409,5.10969 2.95003,5.10844 2.95606,5.10687 2.96209,5.10502 2.96805,5.10295 2.97384,5.1007 2.9794,5.09833 2.98463,5.09587 2.98944,5.0934 "/>
     <polygon id="_539040048" class="fil1" points="3.04559,5.06206 6.83186,8.84833 6.82833,8.85464 6.82416,8.86029 6.81951,8.8653 6.81452,8.86968 6.80932,8.87343 6.80407,8.87658 6.79891,8.87913 6.79398,8.88109 6.78943,8.88249 6.78539,8.88332 6.78201,8.8836 6.77943,8.88335 6.7778,8.88257 2.99154,5.0963 2.99317,5.09708 2.99574,5.09733 2.99912,5.09705 3.00316,5.09622 3.00771,5.09482 3.01265,5.09286 3.0178,5.09031 3.02306,5.08716 3.02825,5.08341 3.03324,5.07903 3.03789,5.07402 3.04206,5.06837 "/>
     <polygon id="_539040744" class="fil1" points="3.34977,4.95303 7.13604,8.7393 7.14173,8.75172 7.14522,8.7629 7.14672,8.77292 7.14648,8.78188 7.1447,8.78987 7.14161,8.79698 7.13744,8.80332 7.13241,8.80896 7.12674,8.81401 7.12067,8.81855 7.1144,8.82267 7.10817,8.82648 7.10219,8.83006 7.0967,8.8335 7.09192,8.83689 7.08807,8.84034 3.3018,5.05407 3.30565,5.05062 3.31044,5.04722 3.31593,5.04378 3.3219,5.0402 3.32813,5.0364 3.3344,5.03228 3.34048,5.02774 3.34614,5.02269 3.35117,5.01705 3.35535,5.01071 3.35843,5.0036 3.36021,4.99561 3.36046,4.98665 3.35895,4.97663 3.35546,4.96545 "/>
     <polygon id="_539041176" class="fil1" points="3.3018,5.05407 7.08807,8.84034 7.08355,8.84463 7.0785,8.84872 7.07304,8.85252 7.06731,8.85596 7.06141,8.85898 7.05548,8.86151 7.04964,8.86346 7.04401,8.86478 7.03871,8.86538 7.03387,8.86519 7.02961,8.86416 7.02606,8.86219 3.23979,5.07592 3.24335,5.07789 3.2476,5.07892 3.25244,5.07911 3.25774,5.0785 3.26337,5.07719 3.26921,5.07524 3.27514,5.07271 3.28104,5.06969 3.28678,5.06625 3.29223,5.06244 3.29728,5.05836 "/>
     <polygon id="_539040504" class="fil1" points="2.73291,4.16902 6.51917,7.9553 6.49729,7.94478 6.47615,7.93434 6.45576,7.924 6.43619,7.9138 6.41745,7.90375 6.39959,7.89388 6.38265,7.88422 6.36666,7.87479 6.35166,7.86562 6.33768,7.85674 6.32476,7.84817 6.31293,7.83993 6.30225,7.83206 6.29273,7.82458 6.28442,7.81751 2.49815,4.03124 2.50646,4.03831 2.51598,4.04579 2.52667,4.05366 2.53849,4.06189 2.55141,4.07046 2.56539,4.07935 2.58039,4.08852 2.59638,4.09794 2.61333,4.10761 2.63119,4.11748 2.64992,4.12753 2.6695,4.13773 2.68988,4.14807 2.71102,4.15851 "/>
     <polygon id="_539040528" class="fil1" points="2.59305,3.98232 6.37932,7.76859 6.36226,7.75611 6.3472,7.74411 6.33409,7.73261 2.54782,3.94634 2.56094,3.95784 2.57599,3.96983 "/>
     <polygon id="_539041056" class="fil1" points="2.83244,4.19829 6.61871,7.98456 6.61356,7.98329 6.60809,7.98198 6.60235,7.98064 6.59636,7.97924 6.59017,7.9778 6.58381,7.97628 6.57732,7.97468 6.57073,7.973 6.56409,7.97122 6.55743,7.96933 6.55079,7.96734 6.54421,7.96522 6.53772,7.96296 6.53135,7.96056 6.52516,7.95801 6.51917,7.9553 2.73291,4.16902 2.73889,4.17174 2.74509,4.17429 2.75145,4.17669 2.75794,4.17894 2.76452,4.18107 2.77117,4.18306 2.77782,4.18495 2.78446,4.18673 2.79105,4.18841 2.79754,4.19 2.8039,4.19152 2.81009,4.19297 2.81608,4.19437 2.82183,4.19571 2.82729,4.19702 "/>
     <polygon id="_539040936" class="fil1" points="3.4415,4.7121 7.22776,8.49837 7.22286,8.5032 7.21785,8.50804 7.21276,8.51289 7.20758,8.51774 7.20232,8.52257 7.197,8.52739 7.19161,8.53217 7.18617,8.5369 7.18067,8.54158 7.17514,8.5462 7.16957,8.55074 7.16398,8.5552 7.15836,8.55957 7.15274,8.56383 7.1471,8.56797 7.14147,8.572 7.13585,8.57588 7.13024,8.57962 7.12466,8.58321 7.1191,8.58663 7.11358,8.58988 7.10811,8.59294 7.10269,8.5958 7.09732,8.59846 7.09202,8.60091 7.0868,8.60312 7.08165,8.6051 7.07659,8.60683 7.07163,8.60831 7.06676,8.60952 7.062,8.61045 7.05736,8.6111 3.27109,4.82483 3.27574,4.82418 3.28049,4.82325 3.28536,4.82204 3.29032,4.82056 3.29539,4.81883 3.30053,4.81685 3.30576,4.81463 3.31106,4.81219 3.31642,4.80953 3.32184,4.80667 3.32731,4.80361 3.33283,4.80036 3.33839,4.79694 3.34397,4.79335 3.34958,4.78961 3.3552,4.78572 3.36083,4.7817 3.36647,4.77756 3.37209,4.7733 3.37771,4.76893 3.3833,4.76447 3.38887,4.75993 3.39441,4.75531 3.3999,4.75063 3.40534,4.74589 3.41073,4.74111 3.41606,4.7363 3.42131,4.73147 3.42649,4.72662 3.43159,4.72177 3.43659,4.71693 "/>
     <polygon id="_539040672" class="fil1" points="2.60098,3.7731 6.38724,7.55937 6.3854,7.55833 6.38385,7.55698 2.59758,3.77071 2.59913,3.77206 "/>
     <polygon id="_539041080" class="fil1" points="2.60403,3.7741 6.3903,7.56037 6.38992,7.56024 6.38954,7.56012 6.38915,7.56 6.38877,7.55987 6.38839,7.55975 6.38801,7.55963 6.38763,7.5595 6.38724,7.55937 2.60098,3.7731 2.60136,3.77323 2.60174,3.77335 2.60212,3.77348 2.6025,3.7736 2.60289,3.77372 2.60327,3.77385 2.60365,3.77397 "/>
     <polygon id="_539040552" class="fil1" points="2.54882,3.57375 6.33509,7.36002 6.332,7.35839 6.32893,7.35655 6.3259,7.35449 6.32293,7.3522 6.32002,7.34967 2.53375,3.5634 2.53666,3.56593 2.53963,3.56822 2.54266,3.57028 2.54573,3.57212 "/>
     <polygon id="_539041224" class="fil1" points="2.59302,3.43109 6.37929,7.21737 6.36439,7.20665 6.35018,7.19551 6.33667,7.18403 6.32389,7.17226 2.53762,3.38599 2.5504,3.39776 2.56391,3.40924 2.57812,3.42037 "/>
     <polygon id="_539041464" class="fil1" points="3.87763,4.3687 7.66389,8.15497 7.6532,8.17105 7.643,8.18631 7.63326,8.20079 7.6239,8.21454 7.61487,8.22759 7.60611,8.24 7.59758,8.2518 7.5892,8.26304 7.58093,8.27376 7.5727,8.284 7.56446,8.29381 7.55615,8.30324 7.54771,8.31232 7.53909,8.3211 7.53024,8.32961 7.52108,8.33792 7.51157,8.34605 7.50165,8.35405 7.49126,8.36196 7.48035,8.36983 7.46885,8.3777 7.45672,8.38562 7.44389,8.39362 7.4303,8.40176 7.4159,8.41006 7.40063,8.41859 7.38444,8.42737 7.36726,8.43646 7.34905,8.44589 7.32973,8.45571 7.30927,8.46597 7.28759,8.4767 3.50132,4.69043 3.523,4.6797 3.54346,4.66944 3.56278,4.65962 3.58099,4.65019 3.59817,4.6411 3.61436,4.63231 3.62963,4.62379 3.64403,4.61548 3.65762,4.60735 3.67045,4.59935 3.68259,4.59143 3.69408,4.58356 3.705,4.57569 3.71539,4.56778 3.72531,4.55978 3.73481,4.55165 3.74397,4.54334 3.75283,4.53483 3.76144,4.52605 3.76988,4.51697 3.77819,4.50754 3.78643,4.49773 3.79466,4.48748 3.80293,4.47676 3.81131,4.46552 3.81985,4.45372 3.8286,4.44132 3.83763,4.42826 3.84699,4.41452 3.85674,4.40004 3.86693,4.38478 "/>
     <polygon id="_539041272" class="fil1" points="2.48583,2.56536 6.2721,6.35163 6.27852,6.35841 6.28483,6.36572 2.49856,2.57945 2.49225,2.57214 "/>
     <polygon id="_539041920" class="fil1" points="3.26681,2.99662 7.05308,6.78289 7.05785,6.80286 7.06273,6.82285 7.06775,6.84283 7.07291,6.86279 7.07822,6.88272 7.0837,6.90258 7.08938,6.92238 7.09525,6.9421 7.10133,6.96171 7.10764,6.9812 7.11419,7.00055 7.121,7.01976 7.12807,7.03879 7.13543,7.05764 7.14309,7.07628 7.15105,7.09472 7.15934,7.11291 7.16797,7.13085 7.17695,7.14853 7.1863,7.16593 7.19603,7.18302 7.20615,7.1998 7.21669,7.21624 7.22764,7.23234 7.23903,7.24807 7.25087,7.26342 7.26318,7.27837 7.27596,7.2929 7.28924,7.30701 3.50297,3.52074 3.48969,3.50663 3.47691,3.4921 3.46461,3.47715 3.45276,3.4618 3.44137,3.44607 3.43042,3.42997 3.41989,3.41353 3.40976,3.39675 3.40004,3.37965 3.39069,3.36226 3.3817,3.34458 3.37307,3.32664 3.36478,3.30844 3.35682,3.29001 3.34917,3.27137 3.34181,3.25252 3.33473,3.23348 3.32793,3.21428 3.32137,3.19493 3.31506,3.17544 3.30898,3.15583 3.30311,3.13611 3.29744,3.11631 3.29195,3.09644 3.28664,3.07652 3.28148,3.05656 3.27646,3.03658 3.27158,3.01659 "/>
     <polygon id="_539041320" class="fil1" points="4.22051,3.85565 8.00678,7.64192 7.99193,7.65248 7.97747,7.66391 7.9634,7.67617 7.9497,7.6892 7.93636,7.70296 7.92337,7.71739 7.91072,7.73243 7.89838,7.74803 7.88635,7.76414 7.87461,7.78071 7.86316,7.79769 7.85197,7.81502 7.84104,7.83266 7.83034,7.85054 7.81987,7.86861 7.80962,7.88683 7.79957,7.90515 7.7897,7.92349 7.78002,7.94183 7.77049,7.96009 7.76111,7.97824 7.75186,7.99622 7.74274,8.01397 7.73372,8.03144 7.7248,8.04859 7.71596,8.06535 7.70719,8.08168 7.69847,8.09752 7.6898,8.11283 7.68115,8.12754 7.67252,8.1416 7.66389,8.15497 3.87763,4.3687 3.88626,4.35533 3.89489,4.34126 3.90353,4.32656 3.9122,4.31125 3.92092,4.29541 3.92969,4.27908 3.93853,4.26232 3.94745,4.24517 3.95647,4.2277 3.96559,4.20995 3.97484,4.19197 3.98422,4.17382 3.99375,4.15556 4.00344,4.13722 4.0133,4.11887 4.02335,4.10056 4.03361,4.08234 4.04407,4.06426 4.05477,4.04639 4.0657,4.02875 4.07689,4.01142 4.08835,3.99444 4.10008,3.97787 4.11211,3.96176 4.12445,3.94615 4.13711,3.93111 4.15009,3.91669 4.16343,3.90293 4.17713,3.8899 4.1912,3.87764 4.20566,3.8662 "/>
     <polygon id="_539041344" class="fil1" points="4.4072,3.2725 8.19347,7.05878 8.19093,7.06554 8.18829,7.07217 8.18553,7.07867 8.18267,7.08503 8.1797,7.09126 8.17663,7.09737 8.17346,7.10335 8.1702,7.10922 8.16684,7.11498 8.16339,7.12062 8.15984,7.12616 8.15621,7.13159 8.15249,7.13692 8.14869,7.14215 8.14481,7.14729 8.14085,7.15234 8.1368,7.1573 8.13269,7.16218 8.1285,7.16698 8.12424,7.1717 8.11991,7.17635 8.11552,7.18093 8.11106,7.18544 8.10654,7.18989 8.10196,7.19427 8.09733,7.19861 8.09264,7.20289 8.08789,7.20711 8.0831,7.2113 8.07826,7.21544 8.07337,7.21955 8.06843,7.22361 4.28217,3.43734 4.2871,3.43328 4.29199,3.42917 4.29683,3.42503 4.30163,3.42084 4.30637,3.41661 4.31106,3.41233 4.3157,3.408 4.32028,3.40361 4.3248,3.39917 4.32925,3.39465 4.33365,3.39007 4.33797,3.38543 4.34223,3.38071 4.34642,3.37591 4.35054,3.37103 4.35458,3.36607 4.35854,3.36102 4.36243,3.35588 4.36622,3.35065 4.36994,3.34532 4.37357,3.33989 4.37712,3.33435 4.38057,3.32871 4.38393,3.32295 4.3872,3.31708 4.39037,3.3111 4.39343,3.30499 4.3964,3.29876 4.39926,3.29239 4.40202,3.2859 4.40467,3.27927 "/>
     <polygon id="_539041968" class="fil1" points="4.34,3.47909 8.12626,7.26536 8.134,7.27399 8.1412,7.28302 8.14785,7.29241 8.15395,7.30215 8.1595,7.31219 8.16451,7.32252 8.16896,7.33309 8.17287,7.34389 8.17622,7.35487 8.17902,7.36602 8.18127,7.3773 8.18296,7.38869 8.1841,7.40014 8.18468,7.41164 8.1847,7.42315 8.18417,7.43465 8.18308,7.44609 8.18143,7.45746 8.17922,7.46874 8.17644,7.47987 8.17311,7.49084 8.16921,7.50161 8.16474,7.51216 8.15972,7.52246 8.15412,7.53248 8.14796,7.54218 4.36169,3.75591 4.36785,3.7462 4.37345,3.73619 4.37848,3.72589 4.38294,3.71534 4.38684,3.70457 4.39018,3.69359 4.39295,3.68246 4.39516,3.67119 4.39681,3.65982 4.39791,3.64837 4.39844,3.63688 4.39841,3.62537 4.39783,3.61387 4.39669,3.60241 4.395,3.59103 4.39275,3.57975 4.38995,3.5686 4.3866,3.55761 4.38269,3.54682 4.37824,3.53624 4.37324,3.52592 4.36768,3.51587 4.36158,3.50614 4.35493,3.49674 4.34774,3.48772 "/>
     <polygon id="_539041368" class="fil1" points="4.36634,3.78002 8.15261,7.5663 8.15428,7.57248 8.15549,7.57926 8.15629,7.58655 8.15672,7.59424 8.15682,7.60226 8.15665,7.61052 8.15624,7.61891 8.15565,7.62736 8.15491,7.63578 8.15409,7.64407 8.15321,7.65215 8.15233,7.65992 8.15149,7.6673 8.15074,7.6742 8.15013,7.68052 8.14969,7.68618 4.36342,3.89991 4.36386,3.89425 4.36447,3.88793 4.36522,3.88103 4.36606,3.87365 4.36694,3.86587 4.36782,3.8578 4.36865,3.84951 4.36938,3.84109 4.36997,3.83264 4.37038,3.82424 4.37056,3.81599 4.37045,3.80797 4.37002,3.80028 4.36922,3.79299 4.36801,3.78621 "/>
     <polygon id="_539041536" class="fil1" points="4.36342,3.89991 8.14969,7.68618 8.14923,7.69066 8.14852,7.69537 8.14757,7.70031 8.14641,7.70542 8.14505,7.71068 8.14351,7.71606 8.14181,7.72153 8.13998,7.72706 8.13801,7.7326 8.13594,7.73815 8.13379,7.74365 8.13157,7.74909 8.1293,7.75443 8.127,7.75964 8.12468,7.76469 8.12237,7.76954 8.12009,7.77417 8.11784,7.77855 8.11567,7.78264 8.11356,7.78641 8.11156,7.78983 8.10968,7.79287 8.10793,7.79551 8.10633,7.7977 8.10491,7.79942 8.10368,7.80063 8.10265,7.80131 8.10186,7.80142 8.10131,7.80093 4.31504,4.01466 4.31559,4.01515 4.31639,4.01504 4.31741,4.01436 4.31864,4.01315 4.32006,4.01143 4.32166,4.00924 4.32341,4.0066 4.3253,4.00356 4.3273,4.00014 4.3294,3.99637 4.33157,3.99228 4.33382,3.9879 4.3361,3.98327 4.33841,3.97842 4.34073,3.97337 4.34303,3.96816 4.3453,3.96282 4.34752,3.95738 4.34968,3.95187 4.35174,3.94633 4.35371,3.94078 4.35555,3.93526 4.35724,3.92979 4.35878,3.92441 4.36014,3.91915 4.3613,3.91404 4.36225,3.9091 4.36296,3.90439 "/>
     <polygon id="_539041560" class="fil1" points="4.36433,3.75843 8.15059,7.5447 8.15057,7.54537 8.15067,7.54747 8.15087,7.55057 8.15115,7.55426 8.15149,7.5581 8.15186,7.56167 8.15224,7.56455 8.15261,7.5663 4.36634,3.78002 4.36597,3.77828 4.36559,3.7754 4.36522,3.77183 4.36488,3.76799 4.3646,3.7643 4.3644,3.7612 4.3643,3.7591 "/>
     <polygon id="_539041704" class="fil1" points="4.37633,2.61319 8.16259,6.39946 8.16513,6.40253 8.16732,6.4061 8.16917,6.41013 8.17068,6.41458 8.17187,6.41943 8.17275,6.42463 8.17333,6.43016 8.17361,6.43598 8.1736,6.44206 4.38733,2.65579 4.38734,2.64971 4.38706,2.64389 4.38648,2.63836 4.38561,2.63315 4.38441,2.62831 4.3829,2.62385 4.38105,2.61983 4.37886,2.61626 "/>
     <polygon id="_539042760" class="fil1" points="4.69807,2.30445 8.48434,6.09072 8.48721,6.09475 8.48946,6.0993 8.4911,6.10433 8.49219,6.10979 8.49274,6.11565 8.4928,6.12186 8.4924,6.1284 8.49158,6.13522 8.49037,6.14228 8.48881,6.14955 4.70254,2.36328 4.70411,2.35601 4.70531,2.34895 4.70613,2.34213 4.70653,2.33559 4.70647,2.32937 4.70592,2.32352 4.70483,2.31806 4.70319,2.31303 4.70094,2.30848 "/>
     <polygon id="_539042184" class="fil1" points="5.15111,2.30981 8.93738,6.09608 8.9172,6.11211 8.89574,6.13031 8.87311,6.15057 8.84943,6.17274 8.82478,6.19672 8.79929,6.22237 8.77306,6.24956 8.7462,6.27817 8.71882,6.30807 8.69102,6.33912 8.66292,6.37121 8.63462,6.40421 8.60624,6.43799 8.57787,6.47242 8.54962,6.50738 8.52161,6.54273 8.49394,6.57836 8.46672,6.61413 8.44007,6.64992 8.41407,6.68559 8.38885,6.72103 8.36452,6.7561 8.34117,6.79069 8.31893,6.82465 8.29789,6.85786 8.27817,6.8902 8.25986,6.92154 8.24309,6.95176 8.22796,6.98071 8.21457,7.00828 8.20304,7.03435 8.19347,7.05878 4.4072,3.2725 4.41677,3.24808 4.4283,3.22201 4.44169,3.19444 4.45682,3.16548 4.47359,3.13527 4.4919,3.10393 4.51162,3.07159 4.53266,3.03837 4.55491,3.00441 4.57825,2.96983 4.60259,2.93476 4.62781,2.89932 4.6538,2.86365 4.68046,2.82786 4.70767,2.79209 4.73534,2.75646 4.76335,2.72111 4.7916,2.68615 4.81997,2.65172 4.84835,2.61794 4.87665,2.58494 4.90476,2.55285 4.93255,2.5218 4.95993,2.4919 4.98679,2.46329 5.01302,2.4361 5.03851,2.41045 5.06316,2.38647 5.08685,2.3643 5.10948,2.34404 5.13093,2.32583 "/>
     <polygon id="_539042592" class="fil1" points="5.2605,2.19437 9.04677,5.98064 9.04419,5.98606 9.04109,5.99172 9.03747,5.99763 9.03332,6.0038 9.02861,6.0102 9.02335,6.01684 9.01752,6.02372 9.01111,6.03085 9.0041,6.0382 8.99648,6.04579 8.98825,6.05361 8.97938,6.06166 8.96987,6.06993 8.95971,6.07843 8.94889,6.08715 8.93738,6.09608 5.15111,2.30981 5.16262,2.30087 5.17344,2.29215 5.18361,2.28366 5.19311,2.27539 5.20198,2.26734 5.21021,2.25952 5.21783,2.25193 5.22484,2.24457 5.23126,2.23745 5.23709,2.23057 5.24235,2.22393 5.24705,2.21752 5.2512,2.21136 5.25482,2.20545 5.25792,2.19978 "/>
    </g>
    <path id="_637668088" class="fil1" d="M4.98344 2.2443c0.0365394,-0.0399409 0.175748,-0.149303 0.232961,-0.135087 0.0786063,0.0195984 0.0727402,0.052563 0.0441024,0.0851535 -0.0124409,0.0282087 -0.0462008,0.067189 -0.10939,0.115441 -0.208051,0.15885 -0.652705,0.711323 -0.743909,0.962693 -0.0264685,0.072937 -0.0721929,0.121626 -0.125039,0.164839 0.12011,0.0567205 0.14828,0.216846 0.0795276,0.318563 0.000885827,0.000799213 0.00176378,0.00164173 0.00263386,0.00252362 -0.000255906,-0.000507874 0.00106693,0.0188071 0.00201181,0.0215945 0.0102402,0.0312717 -0.00115748,0.0916142 -0.00291732,0.119886 -0.00348425,0.0463307 -0.0532441,0.139504 -0.0483661,0.10939 0.00619291,-0.0366693 -0.0333937,-0.0792559 -0.0557283,-0.10474 -0.0176575,-0.0200472 -0.0301929,-0.0352008 -0.038815,-0.0489094 -0.160646,0.10772 -0.250815,0.374362 -0.342886,0.513047 -0.116976,0.176055 -0.138417,0.204563 -0.376303,0.321732 -0.0171181,0.00850394 -0.0373976,0.0157598 -0.0598268,0.0216732 -0.0517835,0.0513425 -0.121528,0.107406 -0.170402,0.112724 -0.0312047,0.0977165 0.0145118,0.0063189 0.0786772,0.128205 0.036626,0.0697205 -0.030311,0.0823583 -0.0479685,0.101035 -0.0224961,0.0233465 -0.0727638,0.0407165 -0.0667323,0.00330315 0.00242913,-0.015937 -0.0776693,0.0276024 -0.0648071,-0.0110551 0.00279528,-0.00848031 0.0487598,-0.0118268 0.065815,-0.0354724 0.028315,-0.0403307 0.0368701,-0.0675315 -0.0168701,-0.0955748 -0.0507205,0.0225315 0.0111811,0.099815 -0.0314252,0.0637047 -0.0141063,-0.0119567 -0.0285157,-0.0681181 -0.0098937,-0.0794291 0.0318307,-0.0193386 0.0548228,-0.0453701 0.0616732,-0.0807205 -0.00791732,-0.00496457 -0.0143976,-0.0129803 -0.0190354,-0.024622 -0.00505906,-0.0120866 -0.00567323,0.00362598 -0.0123307,-0.0254803 -0.000629921,-0.00276378 -0.0013189,-0.00592913 -0.00206693,-0.00955906 -0.00182677,-0.00827165 -0.0116535,-0.00375591 -0.0244528,0.00574409 -0.0191299,0.0141929 -0.0449016,0.0395276 -0.0605551,0.0499724 -0.0422874,0.0283268 -0.0772323,0.041563 -0.105929,0.0434921 -0.015063,0.0338228 -0.0286102,0.0680394 -0.0240984,0.0717835 0.0232874,0.019815 0.100571,0.0353031 0.0545,0.131906 -0.0169331,0.0354213 -0.0668071,0.0423228 -0.0518268,0.028878 -0.0215984,0.0129685 -0.0678071,0.0289488 -0.0816969,0.0143071 0.0201535,-0.0157677 0.0756299,-0.047252 0.00534252,-0.0164331 -0.00254724,0.000964567 -0.0858622,0.00233858 -0.0291299,-0.0124843 0.0521024,-0.0133701 0.121161,-0.113421 0.0378583,-0.128354 -0.0166614,-0.00292913 -0.0440669,0.0666811 -0.0353937,0.0810748 0.0211496,0.0343622 -0.127083,-0.0874961 0.0443898,-0.126071 0.0177559,-0.00399213 0.0237205,-0.0273346 0.0312559,-0.0543937 -0.0426496,-0.0230276 -0.0623543,-0.082626 -0.068311,-0.14687 -0.0650315,0.0489685 -0.131945,0.0975906 -0.193449,0.142701 -0.0747795,0.054878 -0.168157,0.109307 -0.248461,0.159535 -0.110421,0.0688386 -0.301547,0.180524 -0.430776,0.197827 -0.0642559,0.00869685 -0.0337953,-0.0499882 -0.00281496,-0.0779213 0.0479488,-0.0431811 0.112496,-0.0911181 0.173264,-0.134217 -0.087748,0.0319567 -0.268614,0.134752 -0.354228,0.128906 -0.0335433,-0.00231102 0.127205,-0.125626 0.197256,-0.177441 -0.0932874,0.0425827 -0.20889,0.087689 -0.256709,0.10324 -0.11452,0.0372913 -0.0955984,-0.0770906 -0.010815,-0.13263 0.0188071,-0.0122913 0.0395709,-0.023626 0.061185,-0.0346142 -0.0919016,0.0347638 -0.194579,0.0679055 -0.229642,0.0653701 -0.0432441,-0.00303937 -0.0560197,-0.0337756 -0.0528189,-0.0756496 0.00246063,-0.0368031 0.0373268,-0.0520039 0.0711024,-0.0681772 0.0219606,-0.0105197 0.060315,-0.0244409 0.0965709,-0.0374646 -0.059185,0.00524803 -0.168909,0.00577953 -0.17089,-0.0412165 -0.00252756,-0.0538071 0.0191693,-0.0550866 0.0689528,-0.0765906 0.0289488,-0.0125118 0.133331,-0.0409134 0.242449,-0.0673898 -0.027752,-0.00574409 -0.055,-0.0126811 -0.0818858,-0.0215748 -0.0226535,-0.00747244 -0.0992992,-0.0435197 -0.0924252,-0.0731457 0.0135551,-0.0586457 0.199673,-0.0403976 0.238004,-0.0297283 0.00321654,0.000834646 0.0348937,0.00393701 0.063252,0.00664173 -0.0780827,-0.0140512 -0.202287,-0.0564409 -0.211276,-0.114874 -0.0131496,-0.0850157 0.109256,-0.021189 0.13922,-0.0153189 0.0618465,0.0119134 0.11574,0.0389843 0.171291,0.0508071 0.0196102,0.00411811 0.0404764,0.00882283 0.0615,0.0135197 -0.0306811,-0.0102402 -0.0604764,-0.0215669 -0.0893661,-0.0334803 -0.0315748,-0.0130276 -0.176811,-0.0846693 -0.152035,-0.137496 0.0220945,-0.0479528 0.0610118,-0.0231063 0.101067,-0.00910236 0.0801535,0.0285315 0.182496,0.0483504 0.265563,0.0678583 0.0288307,0.00677165 0.050563,0.00897244 0.0694606,0.00951181 -0.0430433,-0.0116929 -0.0832244,-0.0286181 -0.152835,-0.0675591 -0.03,-0.0168386 -0.0693504,-0.0729961 -0.0237323,-0.0786142 0.00918898,-0.00115354 0.0944685,0.0357756 0.124705,0.0405709 0.0633622,0.00961811 0.13487,0.0304173 0.197732,0.0413228 0.0848858,0.0145039 0.241559,0.0264173 0.340067,-0.0120197 -0.00281102,-0.00494488 -0.00114567,-0.0112402 0.00377165,-0.0141496 0.000704724,-0.000287402 0.00140551,-0.000574803 0.00210236,-0.000862205 -0.0265433,-0.00672835 -0.0682126,-0.0143465 -0.0995354,-0.0292638 -0.237161,-0.1125 -0.35574,-0.216181 -0.155843,-0.169224 -0.00490157,-0.00235433 -0.00722047,-0.00813386 -0.00518504,-0.0132677 0.00212205,-0.00536614 0.00819685,-0.00799213 0.013563,-0.00587008 0.00244882,0.000574803 0.00498819,0.00112598 0.00761024,0.00166142 -0.193098,-0.135917 -0.0267362,-0.184787 0.0109803,-0.208224 -0.00101575,-0.000330709 -0.00203543,-0.000661417 -0.00305512,-0.000996063 -0.00528346,-0.00232677 -0.0076811,-0.00849213 -0.00535433,-0.0137756 8.26772e-005,-0.000185039 0.000165354,-0.000362205 0.000255906,-0.00053937 -0.115626,-0.0379094 -0.178354,-0.160004 -0.0756024,-0.180094 0.0108031,-0.00212598 0.0202795,-0.00374409 0.0285433,-0.00494094 -0.0165315,-0.00816142 -0.0325079,-0.0248819 -0.0392598,-0.0565276 -0.0152047,-0.0721417 0.0723031,-0.0642677 0.0924134,-0.0708504 -0.00305906,-0.00405906 -0.0058189,-0.00829528 -0.00825197,-0.0127283 -0.000350394,-0.000834646 -0.00057874,-0.00169291 -0.000700787,-0.00255118 -0.162528,-0.111898 -0.21098,-0.305642 -0.0426457,-0.227449 -0.00150787,-0.00318898 -0.00135433,-0.00704331 0.000665354,-0.0101575 -0.0211417,-0.0317323 -0.0390236,-0.0611614 -0.053248,-0.086563 -0.13626,-0.243957 -0.0272441,-0.197476 0.0312283,-0.167673 -0.0038622,-0.00246063 -0.00772047,-0.00493701 -0.0115709,-0.00742913 -0.00469685,-0.00335433 -0.0057874,-0.00988189 -0.00243307,-0.0145787 0.00335827,-0.00469685 0.00988583,-0.0057874 0.0145827,-0.00243307 0.00192126,0.0012874 0.00385039,0.00256693 0.00578346,0.00384646 -0.0514685,-0.0731575 -0.073185,-0.109835 -0.112811,-0.209031 -0.0819528,-0.204736 0.00937402,-0.210921 0.0759921,-0.130173 0.00096063,-0.000307087 0.00196063,-0.000472441 0.00297244,-0.000496063 -0.0418661,-0.0670197 -0.14148,-0.223953 -0.148382,-0.234551 -0.0720472,-0.107862 -0.0971024,-0.342102 -0.00189764,-0.258996 0.0221339,0.0192795 0.0369528,0.031815 0.0460945,0.0387874 0.00182283,-0.00227165 0.00449606,-0.00364961 0.00732283,-0.00387402 -0.0193819,-0.0315551 -0.0915669,-0.126299 -0.100295,-0.200374 -0.0123976,-0.103433 0.0308543,-0.109909 0.0834488,-0.0966299 -0.00659449,-0.16248 0.0960197,-0.254417 0.150949,-0.16335 0.188602,0.312122 0.246823,0.338122 0.482673,0.603933 0.343531,0.386701 0.151339,0.334287 0.245362,0.732717 0.0503071,0.212933 0.117929,0.430709 0.279079,0.563677 0.0125039,-0.0339528 0.0268858,-0.0689843 0.0417087,-0.103047 0.0434213,-0.13011 0.128992,-0.278059 0.150925,-0.322709 0.086878,-0.181677 0.147197,-0.156319 0.127469,-0.040122 0.0744764,-0.139409 0.18389,-0.281134 0.215016,-0.272039 0.0338583,0.0102165 0.0360472,0.0482677 0.0278819,0.0885157 0.0306969,-0.0611693 0.0641969,-0.116803 0.0917402,-0.154543 0.142488,-0.194591 0.188283,-0.166642 0.186701,-0.100563 0.0729961,-0.130535 0.223449,-0.361071 0.27824,-0.362551 0.0418071,-0.00138189 0.046185,0.0308189 0.0369724,0.0700394 0.0584291,-0.0815 0.125732,-0.152819 0.192866,-0.19852 0.136957,-0.0930748 0.125,-0.0102165 0.0880315,0.0795472z"/>
   </g>
  </g>
  <path class="fil2" d="M3.41333 -3.93701e-006c1.88513,0 3.41333,1.5282 3.41333,3.41333 0,1.88513 -1.5282,3.41333 -3.41333,3.41333 -1.88513,0 -3.41333,-1.5282 -3.41333,-3.41333 0,-1.88513 1.5282,-3.41333 3.41333,-3.41333z"/>
  <path class="fil3" d="M3.69099 3.75447l0.333421 -0.0762559c0.115945,-0.190484 0.314138,-0.216531 0.382791,-0.405709 0.0912047,-0.25137 0.535858,-0.803843 0.743909,-0.962693 0.063189,-0.048252 0.0969488,-0.0872323 0.10939,-0.115441 0.0286378,-0.0325906 0.0345079,-0.0655551 -0.0441024,-0.0851535 -0.0572126,-0.0142205 -0.196421,0.0951457 -0.232961,0.135087 0.0369685,-0.0897598 0.0489252,-0.172622 -0.0880315,-0.0795472 -0.0671299,0.0457008 -0.134437,0.11702 -0.192866,0.19852 0.0092126,-0.0392205 0.00483465,-0.0714213 -0.0369724,-0.0700394 -0.0547913,0.00148031 -0.205244,0.232016 -0.278244,0.362551 0.00158661,-0.0660787 -0.0442087,-0.0940276 -0.186697,0.100563 -0.0275433,0.0377402 -0.0610433,0.093374 -0.0917362,0.154547 0.00816142,-0.040252 0.00597244,-0.0783031 -0.0278858,-0.0885197 -0.031126,-0.00909449 -0.140539,0.13263 -0.215012,0.272039 0.0197244,-0.116197 -0.0405945,-0.141551 -0.127472,0.040122 -0.021937,0.0446457 -0.107508,0.192598 -0.150921,0.322709 -0.0642598,0.147646 -0.120165,0.3135 -0.0511535,0.330827 0.0173307,0.00441339 0.126291,-0.0233465 0.154543,-0.0336063z"/>
  <path class="fil4" d="M2.99429 4.77737l0.0534252 0.0127717c-0.00761417,0.0137874 -0.0652559,0.132843 -0.0566142,0.140016 0.0232835,0.019815 0.100567,0.0353031 0.0544961,0.131906 -0.018811,0.0393504 -0.0782717,0.0435 -0.0443189,0.0236693 -0.0154331,0.013063 -0.0733543,0.0362205 -0.0892008,0.0195157 0.0201496,-0.0157677 0.075626,-0.047252 0.00533858,-0.0164331 -0.00254724,0.000964567 -0.0858622,0.00233858 -0.0291299,-0.0124843 0.0521024,-0.0133661 0.121161,-0.113421 0.0378583,-0.128354 -0.0166614,-0.00292913 -0.0440669,0.0666811 -0.0353937,0.0810748 0.0211496,0.0343583 -0.127087,-0.0874961 0.0443937,-0.126071 0.0266969,-0.006 0.0267283,-0.0557559 0.0455472,-0.0961142 0.00483071,-0.0101732 0.0110748,-0.0188465 0.0135984,-0.0294961z"/>
  <path class="fil5" d="M3.25603 4.74511l0.0231772 0.0550472c-0.0459173,0.136917 0.00169685,0.022063 0.070563,0.152878 0.036626,0.0697165 -0.030311,0.0823543 -0.0479685,0.101031 -0.0224961,0.0233465 -0.0727638,0.0407205 -0.0667323,0.00330315 0.00242913,-0.015937 -0.0776693,0.0276063 -0.0648031,-0.0110551 0.00279134,-0.00848031 0.0487559,-0.0118268 0.065811,-0.0354724 0.028315,-0.0403307 0.0368701,-0.0675315 -0.0168701,-0.0955748 -0.0507205,0.0225354 0.0111811,0.099815 -0.0314213,0.0637047 -0.0141063,-0.0119567 -0.0285197,-0.0681181 -0.00989764,-0.0794291 0.034122,-0.0207323 0.0580866,-0.0491535 0.0629016,-0.0885039 0.00381102,-0.0310118 0.00545669,-0.0371417 0.0152402,-0.0659291z"/>
  <path class="fil6" d="M3.66763 3.63522c-0.252063,-0.111142 -0.339362,-0.378488 -0.400815,-0.638606 -0.0940197,-0.398429 0.0981654,-0.346016 -0.245358,-0.732717 -0.235854,-0.265811 -0.294075,-0.291811 -0.482677,-0.603933 -0.0549291,-0.0910669 -0.157543,0.000870079 -0.150945,0.16335 -0.0525945,-0.0132795 -0.0958504,-0.00680315 -0.0834528,0.0966339 0.0141654,0.120232 0.19552,0.294917 0.046878,0.165457 -0.0952047,-0.0831063 -0.0701496,0.151134 0.00189764,0.258996 0.00973622,0.0149528 0.204091,0.321299 0.160276,0.255209 -0.0663858,-0.100685 -0.179126,-0.110496 -0.0908583,0.110012 0.0454134,0.113693 0.0673071,0.145256 0.137421,0.243736 -0.00329528,0.00913386 -0.238839,-0.162685 -0.0622008,0.153563 0.0165236,0.0295157 0.0379961,0.0644764 0.0637795,0.102161 -0.183193,-0.0928543 -0.133728,0.111291 0.0359291,0.225051 0.045626,0.0306102 -0.107681,-0.0105512 -0.0879409,0.0830866 0.025189,0.118043 0.178697,0.0284252 0.0107126,0.0614724 -0.104744,0.0204803 -0.0375197,0.146961 0.0824016,0.182201 0.0671417,0.0196772 -0.29474,0.0583622 0.0501732,0.259457 -0.299811,-0.0897087 -0.182606,0.0240709 0.0800591,0.148669 0.039,0.0185709 0.0940433,0.0258346 0.115953,0.0341457 -0.0954685,0.0504449 -0.270732,0.0378031 -0.362358,0.0221496 -0.0628661,-0.0109055 -0.13437,-0.0317047 -0.197732,-0.0413228 -0.0302362,-0.00479528 -0.115516,-0.0417244 -0.124705,-0.0405669 -0.0456181,0.00561417 -0.00626772,0.0617756 0.0237323,0.0786102 0.0696102,0.0389409 0.109791,0.0558661 0.152839,0.0675591 -0.0189016,-0.00053937 -0.0406339,-0.00274016 -0.0694646,-0.00951181 -0.083063,-0.0195118 -0.185409,-0.0393268 -0.265567,-0.0678583 -0.0400512,-0.0140079 -0.0789685,-0.0388504 -0.101063,0.00910236 -0.0247756,0.0528268 0.120465,0.124469 0.152035,0.137496 0.0288937,0.0119094 0.058685,0.0232402 0.0893622,0.0334803 -0.0210197,-0.00469685 -0.0418858,-0.00940157 -0.0614961,-0.0135197 -0.0555512,-0.0118228 -0.109445,-0.0388937 -0.171291,-0.0508071 -0.0299685,-0.00587008 -0.15237,-0.0696969 -0.13922,0.0153189 0.00898819,0.0584331 0.133189,0.100823 0.211276,0.114874 -0.0283583,-0.00270472 -0.0600354,-0.00580709 -0.063252,-0.0066378 -0.0383307,-0.0106693 -0.224449,-0.0289173 -0.238004,0.0297244 -0.00687402,0.029626 0.0697717,0.0656732 0.0924252,0.0731496 0.0268898,0.00888976 0.0541339,0.0158268 0.0818898,0.0215748 -0.109126,0.0264724 -0.213504,0.054874 -0.242453,0.0673819 -0.0497835,0.0215079 -0.0714803,0.0227874 -0.0689488,0.0765945 0.00197638,0.0469961 0.111701,0.0464606 0.170886,0.0412165 -0.0362559,0.0130236 -0.0746102,0.0269449 -0.0965709,0.0374646 -0.0337717,0.0161732 -0.0686417,0.031374 -0.0711024,0.0681732 -0.00320079,0.041878 0.0095748,0.0726142 0.0528189,0.0756575 0.0350669,0.00252756 0.13774,-0.0306102 0.229642,-0.065374 -0.0216142,0.0109882 -0.042378,0.0223228 -0.061189,0.0346142 -0.0847795,0.0555394 -0.103701,0.169925 0.0108189,0.13263 0.0478189,-0.0155472 0.163421,-0.0606575 0.256709,-0.10324 -0.0700512,0.051815 -0.230799,0.175126 -0.197256,0.177441 0.0856142,0.00584252 0.26648,-0.0969488 0.354228,-0.128906 -0.0607717,0.0430984 -0.125315,0.0910354 -0.173264,0.134217 -0.0309803,0.0279331 -0.0614409,0.0866181 0.0028189,0.0779213 0.129224,-0.0173031 0.320346,-0.128988 0.430768,-0.197827 0.0803071,-0.0502323 0.173685,-0.104657 0.248465,-0.159535 0.0615039,-0.0451142 0.128413,-0.0937323 0.193449,-0.142701 0.0108071,0.116547 0.0668504,0.217795 0.223039,0.113161 0.026126,-0.0174331 0.0804488,-0.0763425 0.0850079,-0.0557126 0.00864567,0.0418976 0.00885827,0.0218031 0.0143976,0.0350433 0.0311299,0.0781378 0.145248,-0.00702756 0.220969,-0.0821024 0.0224252,-0.00591339 0.0427087,-0.0131693 0.0598268,-0.0216772 0.237886,-0.117165 0.259331,-0.145673 0.376303,-0.321728 0.101657,-0.15313 0.201,-0.462256 0.395449,-0.541209 0.17348,-0.0705118 0.164976,-0.339138 -0.0129803,-0.399024 -0.316303,-0.106657 -0.327189,0.148134 -0.592469,0.20676z"/>
  <path class="fil3" d="M3.18168 4.76491c0.0127992,-0.00949606 0.022626,-0.0140118 0.0244528,-0.00574409 0.000748031,0.00363386 0.00143701,0.00679528 0.00206693,0.00955906 0.165535,-0.136768 0.159776,-0.215402 0.184335,-0.406917 -0.0305118,0.191094 -0.112173,0.299126 -0.210854,0.403102z"/>
  <path class="fil7" d="M4.17309 3.56269c0.0210591,0.0207205 0.0162598,0.0497362 -0.00736614,0.060874 -0.0463504,0.0217402 -0.0816969,-0.0421024 -0.0406772,-0.0672835 0.0188701,-0.0117047 0.0307835,-0.0106339 0.0480433,0.00640945z"/>
  <path class="fil8" d="M4.16066 3.57474c0.0111339,0.0109567 0.00859843,0.0262992 -0.00389764,0.032189 -0.0245079,0.0114961 -0.0431969,-0.0222638 -0.0215079,-0.0355787 0.00998031,-0.00618898 0.0162795,-0.00562205 0.0254055,0.00338976z"/>
  <path class="fil9" d="M4.36432 3.75843c-0.0465236,-0.0473386 -0.120209,0.027437 -0.156429,-0.0123346 -0.00922835,0.0799134 -0.00584646,0.0934291 0.0514291,0.158465 0.0223386,0.0254843 0.0619252,0.0680669 0.0557323,0.10474 -0.00487795,0.0301181 0.044878,-0.0630591 0.0483661,-0.10939 0.00175984,-0.0282717 0.0131575,-0.0886142 0.00291732,-0.119886 -0.000944882,-0.0027874 -0.00226772,-0.0221024 -0.00201575,-0.0215945z"/>
  <path class="fil3" d="M2.89833 4.70268c0.167953,-0.0954606 0.315972,-0.165854 0.42102,-0.390169 -0.0908189,0.210583 -0.0965472,0.279913 -0.42102,0.390169z"/>
  <path class="fil10" d="M2.40109 2.14022c0.203835,0.107067 0.239425,0.18735 0.369555,0.379154 0.00793701,0.0117047 0.00976378,0.0151299 0.0215669,0.0219252l7.87402e-006 -7.87402e-006c-0.00395669,-0.00481102 -0.00826378,-0.00915354 -0.0116654,-0.0144094 -0.135398,-0.209154 -0.149382,-0.28402 -0.370646,-0.405614 -0.00523228,-0.00243701 -0.0114488,-0.000169291 -0.0138858,0.00506693 -0.00243701,0.00523228 -0.000169291,0.0114488 0.00506693,0.0138858z"/>
  <path class="fil10" d="M2.50754 2.58071c0.198831,0.126713 0.352169,0.170067 0.545882,0.277276 -0.20687,-0.0897638 -0.360319,-0.139075 -0.557476,-0.259882 -0.00480315,-0.00320079 -0.00610236,-0.00968898 -0.00289764,-0.0144961 0.00320079,-0.00480315 0.00968898,-0.00609843 0.0144921,-0.00289764z"/>
  <path class="fil10" d="M2.5296 2.91481c0.192878,0.128961 0.427394,0.223461 0.567378,0.415008 -0.159197,-0.18048 -0.377693,-0.267406 -0.579528,-0.397996 -0.00469685,-0.00335433 -0.0057874,-0.00988189 -0.00243307,-0.0145787 0.00335827,-0.00469685 0.00988583,-0.0057874 0.0145827,-0.00243307z"/>
  <path class="fil10" d="M2.56614 3.19083c0.252165,0.194386 0.384185,0.121488 0.588913,0.364012 -0.231866,-0.233646 -0.345193,-0.155807 -0.601551,-0.347358 -0.00459843,-0.00348819 -0.00549606,-0.0100472 -0.00200787,-0.0146457 0.00349213,-0.00459843 0.0100472,-0.00549606 0.0146457,-0.00200787z"/>
  <path class="fil10" d="M2.61302 3.42561c0.0601772,0.114496 0.478217,0.103528 0.462181,0.250819 -0.0213228,-0.154543 -0.406264,-0.105803 -0.48148,-0.242787 -0.00222047,-0.00532677 0.000307087,-0.0114449 0.00563386,-0.0136654 0.00532677,-0.00222047 0.0114449,0.000307087 0.0136654,0.00563386z"/>
  <path class="fil10" d="M2.58189 3.57343c0.142165,0.0136496 0.436433,0.0738268 0.52235,0.199181 -0.11263,-0.114972 -0.368343,-0.166339 -0.522933,-0.17828 -0.00577165,-0.000161417 -0.0103189,-0.0049685 -0.0101575,-0.0107441 0.000161417,-0.00577165 0.0049685,-0.0103189 0.0107402,-0.0101575z"/>
  <path class="fil10" d="M2.6094 3.75397c0.257906,0.0895787 0.341224,-0.0138307 0.569244,0.169264 -0.253,-0.168445 -0.312071,-0.0631181 -0.577669,-0.15013 -0.00528346,-0.00232677 -0.0076811,-0.00849213 -0.00535433,-0.0137756 0.00232677,-0.0052874 0.00849606,-0.00768504 0.0137795,-0.00535827z"/>
  <path class="fil10" d="M2.58544 3.98066c0.132669,0.0310472 0.529047,0.00629528 0.567661,0.0901417 0.00345669,0.00750787 0.00340551,0.0134094 0.00194882,0.0212008 -0.002,-0.0114803 -0.00287008,-0.0181772 -0.0110945,-0.0275315 -0.0541732,-0.0615906 -0.429799,-0.034622 -0.566209,-0.064374 -0.00536614,-0.00212598 -0.00799606,-0.00820079 -0.00587008,-0.0135669 0.00212205,-0.00536614 0.00819685,-0.00799213 0.013563,-0.00587008z"/>
  <path class="fil10" d="M2.83034 4.19915c0.180055,-0.0739331 0.212807,-0.0612992 0.404559,-0.0490827l0 1.1811e-005c-0.187732,0.00687008 -0.21878,-0.0104882 -0.393921,0.067063 -0.0049685,0.00294094 -0.011378,0.00129134 -0.014315,-0.00367717 -0.00294094,-0.0049685 -0.00129528,-0.011374 0.00367717,-0.014315z"/>
  <path class="fil10" d="M2.41056 1.82661c0.0116772,0.0613307 0.369984,0.408591 0.449071,0.51811 0.0395394,0.0547559 0.0388346,0.0546339 0.106689,0.157579l-0.0610197 -0.0797953 -0.0537913 -0.0724764c-0.0880197,-0.115335 -0.446543,-0.443126 -0.461815,-0.522193 -0.000338583,-0.00576378 0.00405906,-0.0107087 0.0098189,-0.0110472 0.00576378,-0.000334646 0.0107087,0.00406299 0.0110472,0.00982283z"/>
 </g>
</svg>
