<?xml version="1.0" encoding="UTF-8"?>
<!DOCTYPE svg PUBLIC "-//W3C//DTD SVG 1.1//EN" "http://www.w3.org/Graphics/SVG/1.1/DTD/svg11.dtd">
<!-- Creator: CorelDRAW -->
<svg xmlns="http://www.w3.org/2000/svg" xml:space="preserve" width="6.82666in" height="6.82666in" style="shape-rendering:geometricPrecision; text-rendering:geometricPrecision; image-rendering:optimizeQuality; fill-rule:evenodd; clip-rule:evenodd"
viewBox="0 0 6.82666 6.82666"
 xmlns:xlink="http://www.w3.org/1999/xlink">
 <defs>
  <style type="text/css">
   <![CDATA[
    .fil2 {fill:none}
    .fil11 {fill:#666666}
    .fil9 {fill:#AA6021}
    .fil1 {fill:#00000000}
    .fil0 {fill:#00000000}
    .fil8 {fill:#CD7C3A}
    .fil7 {fill:#E8BA31}
    .fil4 {fill:#F2C84B}
    .fil6 {fill:#FFD452}
    .fil12 {fill:#FFE8A3}
    .fil5 {fill:#FFF3E0}
    .fil10 {fill:white}
    .fil3 {fill:#FFF3E0;fill-rule:nonzero}
   ]]>
  </style>
   <clipPath id="id0">
    <path d="M3.41333 -3.93701e-006c1.88513,0 3.41333,1.5282 3.41333,3.41333 0,1.88513 -1.5282,3.41333 -3.41333,3.41333 -1.88513,0 -3.41333,-1.5282 -3.41333,-3.41333 0,-1.88513 1.5282,-3.41333 3.41333,-3.41333z"/>
   </clipPath>
 </defs>
 <g id="Layer_x0020_1">
  <metadata id="CorelCorpID_0Corel-Layer"/>
  <path class="fil0" d="M3.41333 -3.93701e-006c1.88513,0 3.41333,1.5282 3.41333,3.41333 0,1.88513 -1.5282,3.41333 -3.41333,3.41333 -1.88513,0 -3.41333,-1.5282 -3.41333,-3.41333 0,-1.88513 1.5282,-3.41333 3.41333,-3.41333z"/>
  <g style="clip-path:url(#id0)">
   <g id="_637668304">
    <g>
     <polygon id="_5390422561" class="fil1" points="4.31024,2.81909 8.09651,6.60537 8.12628,6.63958 8.15414,6.67485 8.18011,6.71113 8.20419,6.74833 8.22638,6.78641 8.2467,6.82528 8.26514,6.86488 8.28172,6.90515 8.29644,6.94602 8.30931,6.98743 8.32034,7.02931 8.32952,7.0716 8.33688,7.11422 8.3424,7.15712 8.34611,7.20022 8.348,7.24347 8.34809,7.28679 8.34637,7.33012 8.34286,7.37339 8.33756,7.41654 8.33048,7.4595 8.32162,7.50221 8.31099,7.54459 8.2986,7.5866 8.28445,7.62815 8.26856,7.66918 8.25092,7.70963 8.23154,7.74943 8.21043,7.78851 8.18759,7.82681 8.16304,7.86426 4.37677,4.07799 4.40133,4.04054 4.42416,4.00224 4.44527,3.96315 4.46465,3.92335 4.48229,3.88291 4.49819,3.84187 4.51233,3.80033 4.52472,3.75832 4.53535,3.71594 4.54421,3.67323 4.55129,3.63027 4.55659,3.58712 4.5601,3.54385 4.56182,3.50052 4.56173,3.4572 4.55984,3.41395 4.55613,3.37085 4.55061,3.32795 4.54326,3.28533 4.53407,3.24304 4.52305,3.20116 4.51018,3.15975 4.49546,3.11888 4.47887,3.07861 4.46043,3.039 4.44011,3.00013 4.41792,2.96206 4.39384,2.92486 4.36787,2.88858 4.34001,2.85331 "/>
     <polygon id="_539042640" class="fil1" points="4.37677,4.07799 8.16304,7.86426 8.15577,7.87542 8.14828,7.88655 8.14057,7.89764 8.13264,7.9087 8.12448,7.91971 8.1161,7.93069 8.10748,7.9416 8.09863,7.95247 8.08955,7.96328 8.08023,7.97402 8.07067,7.9847 8.06087,7.9953 8.05083,8.00583 8.04054,8.01627 8.03,8.02663 8.01922,8.03691 8.00818,8.04708 7.99689,8.05716 7.98533,8.06714 7.97353,8.07701 7.96146,8.08676 7.94913,8.09641 7.93653,8.10593 7.92366,8.11532 7.91053,8.12459 7.89712,8.13373 7.88344,8.14272 7.86948,8.15158 7.85524,8.16029 7.84072,8.16884 7.82593,8.17724 7.81084,8.18549 4.02457,4.39922 4.03966,4.39097 4.05446,4.38257 4.06898,4.37402 4.08321,4.36531 4.09717,4.35645 4.11085,4.34746 4.12426,4.33832 4.13739,4.32905 4.15026,4.31966 4.16286,4.31013 4.17519,4.30049 4.18726,4.29074 4.19907,4.28087 4.21062,4.27089 4.22191,4.26081 4.23295,4.25063 4.24374,4.24036 4.25427,4.23 4.26456,4.21956 4.2746,4.20903 4.2844,4.19843 4.29396,4.18775 4.30328,4.177 4.31237,4.1662 4.32121,4.15533 4.32983,4.14441 4.33822,4.13344 4.34637,4.12243 4.35431,4.11137 4.36202,4.10028 4.3695,4.08915 "/>
     <polygon id="_539044104" class="fil1" points="2.1,2.84507 5.88627,6.63135 5.89074,6.63661 5.89469,6.64279 5.89819,6.64981 5.90132,6.65762 5.90416,6.66613 5.90678,6.67528 5.90927,6.685 5.91169,6.69523 5.91414,6.70589 5.91668,6.71692 5.91939,6.72824 5.92236,6.7398 5.92565,6.75152 5.92936,6.76333 5.93355,6.77517 5.9383,6.78696 5.94369,6.79865 5.9498,6.81015 5.95671,6.8214 5.9645,6.83233 5.97323,6.84289 5.983,6.85298 2.19673,3.06671 2.18696,3.05661 2.17823,3.04606 2.17044,3.03513 2.16354,3.02387 2.15743,3.01237 2.15203,3.00069 2.14728,2.9889 2.14309,2.97706 2.13939,2.96525 2.13609,2.95353 2.13312,2.94197 2.13041,2.93065 2.12787,2.91962 2.12543,2.90896 2.123,2.89873 2.12051,2.88901 2.11789,2.87985 2.11506,2.87135 2.11193,2.86354 2.10843,2.85652 2.10448,2.85034 "/>
     <polygon id="_539044272" class="fil1" points="3.58744,4.5417 7.37371,8.32798 7.37188,8.33577 7.36959,8.34335 7.36688,8.3507 7.36373,8.35779 7.36017,8.36458 7.35619,8.37104 7.35182,8.37715 7.34707,8.38286 7.34193,8.38815 7.33643,8.393 7.33057,8.39735 7.32437,8.4012 7.31783,8.4045 7.31096,8.40722 7.30377,8.40935 7.29628,8.41083 3.51001,4.62456 3.5175,4.62307 3.52469,4.62095 3.53156,4.61823 3.5381,4.61493 3.54431,4.61108 3.55017,4.60672 3.55567,4.60188 3.5608,4.59659 3.56556,4.59087 3.56993,4.58477 3.5739,4.57831 3.57746,4.57152 3.58061,4.56443 3.58333,4.55708 3.58561,4.5495 "/>
     <polygon id="_539044368" class="fil1" points="3.40844,4.55443 7.19471,8.3407 7.19089,8.34074 7.18706,8.34078 7.18323,8.3408 7.17939,8.34081 7.17555,8.34081 7.1717,8.34081 7.16784,8.3408 7.16398,8.34078 7.16011,8.34074 7.15623,8.3407 7.15235,8.34065 7.14846,8.34059 7.14457,8.34052 7.14067,8.34045 7.13676,8.34036 7.13285,8.34026 3.34659,4.55399 3.3505,4.55409 3.3544,4.55418 3.3583,4.55425 3.36219,4.55432 3.36608,4.55438 3.36996,4.55443 3.37384,4.55447 3.37771,4.5545 3.38157,4.55453 3.38543,4.55454 3.38928,4.55454 3.39313,4.55454 3.39696,4.55453 3.4008,4.5545 3.40462,4.55447 "/>
     <polygon id="_539044488" class="fil1" points="3.34659,4.55399 7.13285,8.34026 7.12849,8.37108 3.34222,4.58481 "/>
     <polygon id="_539044848" class="fil1" points="3.08729,4.53788 6.87356,8.32415 6.80165,8.31278 6.73234,8.29848 6.66561,8.28138 6.60144,8.26163 6.53982,8.23933 6.48071,8.21463 6.4241,8.18765 6.36997,8.15852 6.3183,8.12738 6.26906,8.09435 6.22223,8.05957 6.1778,8.02315 6.13574,7.98523 2.34947,4.19896 2.39153,4.23688 2.43596,4.2733 2.48279,4.30808 2.53203,4.34111 2.5837,4.37225 2.63783,4.40138 2.69444,4.42835 2.75355,4.45306 2.81518,4.47535 2.87934,4.49511 2.94607,4.5122 3.01538,4.52651 "/>
     <polygon id="_539044992" class="fil1" points="3.34222,4.58481 7.12849,8.37108 7.12647,8.38268 7.12375,8.39401 7.12033,8.40502 7.11624,8.41565 7.11148,8.42587 7.10609,8.43561 7.10007,8.44483 7.09344,8.45346 7.08622,8.46148 7.07842,8.46881 7.07006,8.47541 7.06116,8.48124 7.05174,8.48623 7.0418,8.49033 7.03137,8.49351 7.02047,8.4957 3.2342,4.70943 3.24511,4.70724 3.25553,4.70406 3.26547,4.69996 3.27489,4.69496 3.2838,4.68914 3.29215,4.68254 3.29995,4.6752 3.30717,4.66719 3.3138,4.65856 3.31982,4.64934 3.32522,4.6396 3.32997,4.62938 3.33406,4.61874 3.33748,4.60774 3.3402,4.59641 "/>
     <polygon id="_539044896" class="fil1" points="3.50914,4.72149 7.29541,8.50776 7.29517,8.5126 7.29494,8.51746 7.2947,8.52232 7.29448,8.5272 7.29426,8.53208 7.29405,8.53696 7.29386,8.54183 7.29368,8.54669 7.29351,8.55154 7.29337,8.55636 7.29325,8.56116 7.29315,8.56593 7.29307,8.57067 7.29303,8.57536 7.29302,8.58002 7.29304,8.58462 7.29309,8.58918 7.29319,8.59367 7.29332,8.59811 7.2935,8.60247 7.29372,8.60677 7.29398,8.61099 7.2943,8.61513 7.29467,8.61919 7.29509,8.62315 7.29556,8.62702 7.2961,8.6308 7.29669,8.63446 7.29735,8.63803 7.29807,8.64147 7.29886,8.6448 7.29972,8.64801 3.51345,4.86174 3.51259,4.85853 3.5118,4.8552 3.51108,4.85176 3.51043,4.84819 3.50983,4.84452 3.5093,4.84075 3.50882,4.83688 3.5084,4.83292 3.50803,4.82886 3.50772,4.82472 3.50745,4.8205 3.50723,4.8162 3.50706,4.81183 3.50692,4.8074 3.50683,4.80291 3.50677,4.79835 3.50675,4.79374 3.50676,4.78909 3.50681,4.78439 3.50688,4.77966 3.50698,4.77489 3.5071,4.77009 3.50724,4.76526 3.50741,4.76042 3.50759,4.75556 3.50778,4.75069 3.50799,4.74581 3.50821,4.74093 3.50844,4.73605 3.50867,4.73119 3.50891,4.72633 "/>
     <polygon id="_539045088" class="fil1" points="3.63987,4.90679 7.42614,8.69306 7.42519,8.69306 7.42419,8.69306 7.42314,8.69305 7.42204,8.69304 7.42089,8.69303 7.4197,8.69302 7.41846,8.693 7.41718,8.69298 3.63091,4.9067 3.63219,4.90672 3.63343,4.90674 3.63462,4.90676 3.63577,4.90677 3.63687,4.90678 3.63792,4.90679 3.63892,4.90679 "/>
     <polygon id="_539044392" class="fil1" points="3.63091,4.9067 7.41718,8.69298 7.41465,8.69535 7.41211,8.69801 7.40964,8.70095 7.40734,8.70416 7.40529,8.70763 7.40357,8.71135 7.40228,8.7153 7.40148,8.71948 3.61521,4.93321 3.61601,4.92903 3.61731,4.92507 3.61902,4.92136 3.62107,4.91789 3.62337,4.91468 3.62584,4.91174 3.62838,4.90907 "/>
     <polygon id="_539044608" class="fil1" points="3.61745,4.93498 7.40372,8.72125 7.40564,8.72331 7.40722,8.72563 7.40844,8.72817 7.40927,8.73087 7.40968,8.73369 7.40964,8.73659 7.40914,8.73953 3.62287,4.95326 3.62337,4.95032 3.62341,4.94742 3.623,4.94459 3.62217,4.94189 3.62096,4.93936 3.61937,4.93704 "/>
     <polygon id="_539044656" class="fil1" points="3.62287,4.95326 7.40914,8.73953 7.40785,8.74306 7.40594,8.74618 7.4035,8.74881 7.40061,8.75092 7.39739,8.75244 7.3939,8.75332 7.39025,8.75351 7.38653,8.75295 3.60026,4.96668 3.60398,4.96724 3.60763,4.96705 3.61112,4.96617 3.61435,4.96465 3.61723,4.96254 3.61967,4.95991 3.62158,4.95679 "/>
     <polygon id="_539044728" class="fil1" points="3.60026,4.96668 7.38653,8.75295 7.3857,8.75272 7.38481,8.75244 7.38386,8.75213 7.38285,8.75176 7.38177,8.75135 7.38063,8.7509 7.37944,8.7504 7.3782,8.74987 3.59193,4.96359 3.59318,4.96413 3.59437,4.96463 3.5955,4.96508 3.59658,4.96549 3.59759,4.96585 3.59855,4.96617 3.59944,4.96645 "/>
     <polygon id="_539045808" class="fil1" points="3.47699,4.87402 7.26326,8.66029 7.26321,8.66026 3.47694,4.87399 "/>
     <polygon id="_539045496" class="fil1" points="3.56257,5.00994 7.34883,8.79621 7.34885,8.79623 7.34886,8.79624 7.34887,8.79626 7.34889,8.79628 3.56262,5.01 3.56261,5.00999 3.56259,5.00997 3.56258,5.00996 "/>
     <polygon id="_539045832" class="fil1" points="3.18242,4.706 6.96869,8.49227 6.95915,8.48906 6.95,8.4851 6.94125,8.48042 6.93294,8.47506 6.9251,8.46905 6.91774,8.46243 3.13147,4.67616 3.13883,4.68278 3.14668,4.68878 3.15498,4.69415 3.16373,4.69883 3.17288,4.70279 "/>
     <polygon id="_539045400" class="fil1" points="3.2342,4.70943 7.02047,8.4957 7.02078,8.49914 7.02106,8.50265 7.02131,8.50621 7.02153,8.50983 7.02172,8.51351 7.02188,8.51724 7.02201,8.52103 7.02211,8.52487 7.02219,8.52876 7.02225,8.5327 7.02228,8.53668 7.02228,8.54071 7.02227,8.54479 7.02223,8.5489 7.02218,8.55306 7.02211,8.55726 7.02202,8.56149 7.02191,8.56576 7.02179,8.57007 7.02165,8.57441 7.0215,8.57878 7.02134,8.58318 7.02117,8.58761 7.02098,8.59207 7.02079,8.59655 7.02059,8.60106 7.02038,8.60559 7.02017,8.61014 7.01995,8.61471 7.01973,8.6193 7.0195,8.6239 7.01928,8.62852 3.23301,4.84225 3.23324,4.83763 3.23346,4.83302 3.23369,4.82844 3.2339,4.82387 3.23411,4.81931 3.23432,4.81479 3.23452,4.81028 3.23471,4.8058 3.2349,4.80134 3.23507,4.79691 3.23523,4.79251 3.23538,4.78814 3.23552,4.7838 3.23564,4.77949 3.23575,4.77522 3.23584,4.77098 3.23591,4.76679 3.23596,4.76263 3.236,4.75852 3.23602,4.75444 3.23601,4.75041 3.23598,4.74643 3.23593,4.74249 3.23585,4.7386 3.23574,4.73476 3.23561,4.73097 3.23545,4.72724 3.23526,4.72356 3.23505,4.71994 3.2348,4.71637 3.23452,4.71287 "/>
     <polygon id="_539045640" class="fil1" points="3.59193,4.96359 7.3782,8.74987 7.37529,8.75135 7.37244,8.753 7.36969,8.75484 7.36707,8.75687 7.36465,8.75909 7.36248,8.76152 7.36058,8.76417 7.35903,8.76703 7.35735,8.77081 7.3558,8.77465 7.35435,8.7785 7.35302,8.7823 7.3518,8.78602 7.3507,8.78961 7.34971,8.79302 7.34883,8.79621 3.56257,5.00994 3.56344,5.00675 3.56443,5.00334 3.56554,4.99975 3.56675,4.99603 3.56808,4.99223 3.56953,4.98838 3.57109,4.98454 3.57276,4.98076 3.57431,4.97789 3.57621,4.97525 3.57839,4.97282 3.5808,4.9706 3.58342,4.96857 3.58617,4.96673 3.58902,4.96507 "/>
     <polygon id="_539045760" class="fil1" points="3.47222,4.62206 7.25849,8.40833 7.2527,8.40643 7.2471,8.40415 7.2417,8.4015 7.23652,8.3985 7.23155,8.39516 7.22682,8.3915 7.22233,8.38754 3.43607,4.60127 3.44056,4.60523 3.44528,4.60889 3.45025,4.61222 3.45543,4.61522 3.46083,4.61787 3.46643,4.62015 "/>
     <polygon id="_539045592" class="fil1" points="3.51001,4.62456 7.29628,8.41083 7.29671,8.4159 7.29706,8.42114 7.29731,8.42655 7.29748,8.43212 7.29757,8.43783 7.2976,8.44368 7.29757,8.44966 7.29747,8.45575 7.29733,8.46196 7.29714,8.46827 7.29691,8.47467 7.29665,8.48116 7.29637,8.48772 7.29606,8.49435 7.29574,8.50103 7.29541,8.50776 3.50914,4.72149 3.50947,4.71476 3.50979,4.70807 3.5101,4.70145 3.51039,4.69489 3.51065,4.6884 3.51087,4.682 3.51106,4.67569 3.5112,4.66948 3.5113,4.66339 3.51133,4.65741 3.51131,4.65156 3.51121,4.64585 3.51104,4.64028 3.51079,4.63487 3.51044,4.62963 "/>
     <polygon id="_539045616" class="fil1" points="3.66256,4.87491 7.44882,8.66119 7.4511,8.66395 7.45282,8.66712 7.45391,8.67063 7.45429,8.67439 3.66802,4.88812 3.66765,4.88435 3.66656,4.88085 3.66483,4.87768 "/>
     <polygon id="_539045232" class="fil1" points="3.66802,4.88812 7.45429,8.67439 7.45391,8.67815 7.45282,8.68166 7.4511,8.68483 7.44882,8.68759 7.44606,8.68987 7.44289,8.69159 7.43938,8.69269 7.43562,8.69306 3.64935,4.90679 3.65311,4.90641 3.65662,4.90532 3.65979,4.9036 3.66256,4.90132 3.66483,4.89856 3.66656,4.89539 3.66765,4.89188 "/>
     <polygon id="_539045184" class="fil1" points="3.56262,5.01 7.34889,8.79628 7.35109,8.79933 7.35259,8.80267 7.3534,8.80617 7.35352,8.80974 7.35296,8.81326 7.35174,8.81664 7.34984,8.81977 7.34728,8.82254 3.56102,5.03626 3.56357,5.0335 3.56547,5.03037 3.5667,5.02699 3.56726,5.02346 3.56713,5.0199 3.56632,5.01639 3.56482,5.01306 "/>
     <polygon id="_539045304" class="fil1" points="3.23301,4.84225 7.01928,8.62852 7.01896,8.63515 7.01863,8.64181 7.01831,8.64848 7.018,8.65516 7.0177,8.66185 7.01742,8.66853 7.01715,8.67521 7.01691,8.68187 7.01668,8.68851 7.01648,8.69512 7.01631,8.7017 7.01618,8.70823 7.01608,8.71472 7.01602,8.72116 7.016,8.72754 7.01603,8.73385 7.01611,8.74009 7.01624,8.74625 7.01642,8.75233 7.01666,8.75831 7.01696,8.7642 7.01733,8.76998 7.01776,8.77566 7.01826,8.78121 7.01884,8.78665 7.01949,8.79195 7.02022,8.79712 7.02104,8.80215 7.02194,8.80703 7.02293,8.81175 7.02401,8.81631 7.02519,8.82071 3.23892,5.03444 3.23774,5.03004 3.23666,5.02548 3.23567,5.02076 3.23477,5.01588 3.23396,5.01085 3.23322,5.00568 3.23257,5.00038 3.232,4.99494 3.23149,4.98939 3.23106,4.98371 3.23069,4.97793 3.23039,4.97204 3.23015,4.96606 3.22997,4.95998 3.22984,4.95382 3.22976,4.94758 3.22974,4.94127 3.22976,4.93489 3.22981,4.92845 3.22991,4.92196 3.23005,4.91543 3.23022,4.90885 3.23041,4.90224 3.23064,4.8956 3.23089,4.88894 3.23115,4.88226 3.23144,4.87557 3.23174,4.86889 3.23205,4.86221 3.23237,4.85554 3.23269,4.84888 "/>
     <polygon id="_539046216" class="fil1" points="3.44324,5.05249 7.2295,8.83876 7.23263,8.84255 7.23499,8.8469 7.23648,8.8517 7.237,8.85686 3.45073,5.07059 3.45021,5.06543 3.44872,5.06063 3.44636,5.05628 "/>
     <polygon id="_539046552" class="fil1" points="3.45073,5.07059 7.237,8.85686 7.23648,8.86202 7.23499,8.86682 7.23263,8.87117 7.2295,8.87495 7.22572,8.87808 7.22137,8.88044 7.21657,8.88193 7.21141,8.88245 3.42515,5.09618 3.4303,5.09566 3.43511,5.09417 3.43945,5.09181 3.44324,5.08868 3.44636,5.08489 3.44872,5.08055 3.45021,5.07574 "/>
     <polygon id="_539046360" class="fil1" points="3.42515,5.09618 7.21141,8.88245 7.19842,8.88245 3.41215,5.09618 "/>
     <polygon id="_539046432" class="fil1" points="3.41215,5.09618 7.19842,8.88245 7.19712,8.88245 7.19574,8.88244 7.19431,8.88243 7.1928,8.88242 7.19123,8.8824 7.1896,8.88238 7.18791,8.88236 7.18615,8.88233 3.39988,5.09606 3.40164,5.09609 3.40333,5.09611 3.40496,5.09613 3.40654,5.09615 3.40804,5.09616 3.40948,5.09617 3.41085,5.09618 "/>
     <polygon id="_539046312" class="fil1" points="3.39988,5.09606 7.18615,8.88233 7.18268,8.88558 7.17919,8.88923 7.17581,8.89326 7.17267,8.89766 7.16985,8.90241 7.1675,8.9075 7.16572,8.91292 7.16463,8.91865 3.37837,5.13238 3.37945,5.12665 3.38123,5.12123 3.38359,5.11614 3.3864,5.11139 3.38955,5.10699 3.39293,5.10296 3.39641,5.09931 "/>
     <polygon id="_539046456" class="fil1" points="3.38143,5.1348 7.1677,8.92107 7.17033,8.9239 7.1725,8.92708 7.17417,8.93055 7.17531,8.93425 7.17587,8.93812 7.17582,8.9421 7.17513,8.94612 3.38886,5.15985 3.38956,5.15583 3.3896,5.15185 3.38904,5.14798 3.38791,5.14428 3.38623,5.14081 3.38406,5.13763 "/>
     <polygon id="_539046528" class="fil1" points="3.38886,5.15985 7.17513,8.94612 7.17336,8.95097 7.17074,8.95524 7.16739,8.95885 7.16344,8.96173 7.15902,8.96381 7.15424,8.96502 7.14924,8.96528 7.14414,8.96451 3.35787,5.17824 3.36297,5.17901 3.36798,5.17875 3.37275,5.17754 3.37717,5.17546 3.38112,5.17257 3.38447,5.16896 3.38709,5.1647 "/>
     <polygon id="_539046624" class="fil1" points="3.35787,5.17824 7.14414,8.96451 7.14301,8.9642 7.1418,8.96382 7.14049,8.96338 7.13909,8.96288 7.13762,8.96232 7.13606,8.9617 7.13443,8.96102 7.13272,8.96029 3.34645,5.17402 3.34816,5.17475 3.3498,5.17543 3.35135,5.17605 3.35283,5.17661 3.35422,5.17711 3.35553,5.17755 3.35674,5.17793 "/>
     <polygon id="_539045976" class="fil1" points="3.18894,5.05126 6.97521,8.83754 6.97516,8.8375 3.18889,5.05122 "/>
     <polygon id="_539046096" class="fil1" points="3.30622,5.23753 7.09249,9.0238 7.09251,9.02382 7.09252,9.02384 7.09254,9.02387 7.09256,9.02389 3.3063,5.23761 3.30628,5.23759 3.30626,5.23757 3.30624,5.23755 "/>
     <polygon id="_539047128" class="fil1" points="3.3063,5.23761 7.09256,9.02389 7.09558,9.02807 7.09764,9.03265 7.09874,9.03744 7.09891,9.04233 7.09815,9.04716 7.09646,9.05179 7.09387,9.05607 7.09036,9.05987 3.30409,5.27359 3.3076,5.2698 3.3102,5.26552 3.31188,5.26089 3.31265,5.25606 3.31248,5.25117 3.31137,5.24637 3.30931,5.2418 "/>
     <polygon id="_539047224" class="fil1" points="3.30409,5.27359 7.09036,9.05987 7.08617,9.06288 7.08161,9.06494 7.0768,9.06605 7.07191,9.06622 7.06708,9.06546 7.06245,9.06377 7.05817,9.06117 3.2719,5.2749 3.27619,5.2775 3.28081,5.27919 3.28565,5.27995 3.29054,5.27978 3.29534,5.27867 3.29991,5.27661 "/>
     <polygon id="_539047248" class="fil1" points="3.34645,5.17402 7.13272,8.96029 7.12874,8.96232 7.12483,8.96459 7.12106,8.96711 7.11748,8.96989 7.11417,8.97293 7.11118,8.97626 7.10859,8.97988 7.10646,8.9838 7.10417,8.989 7.10203,8.99426 7.10005,8.99952 7.09822,9.00474 7.09656,9.00983 7.09504,9.01475 7.09369,9.01943 7.09249,9.0238 3.30622,5.23753 3.30742,5.23315 3.30878,5.22848 3.31029,5.22356 3.31195,5.21846 3.31378,5.21325 3.31576,5.20798 3.3179,5.20272 3.32019,5.19753 3.32232,5.19361 3.32491,5.18999 3.3279,5.18666 3.33121,5.18361 3.33479,5.18083 3.33856,5.17832 3.34247,5.17605 "/>
     <polygon id="_539047296" class="fil1" points="3.56102,5.03626 7.34728,8.82254 7.34422,8.82474 7.34089,8.82624 7.33739,8.82705 7.33382,8.82717 7.3303,8.82661 7.32692,8.82538 7.32379,8.82348 3.53752,5.03721 3.54065,5.03911 3.54403,5.04034 3.54756,5.0409 3.55112,5.04078 3.55463,5.03996 3.55796,5.03846 "/>
     <polygon id="_539047272" class="fil1" points="3.64935,4.90679 7.43562,8.69306 7.42614,8.69306 3.63987,4.90679 "/>
     <polygon id="_539046864" class="fil1" points="4.02457,4.39922 7.81084,8.18549 7.79907,8.19202 7.78718,8.19844 7.77517,8.20473 7.76303,8.2109 7.75077,8.21694 7.73838,8.22286 7.72588,8.22865 7.71325,8.23431 7.7005,8.23984 7.68762,8.24524 7.67463,8.25051 7.66151,8.25564 7.64827,8.26064 7.63491,8.2655 7.62143,8.27022 7.60782,8.2748 7.59409,8.27924 7.58024,8.28354 7.56628,8.28769 7.55219,8.2917 7.53798,8.29556 7.52364,8.29927 7.50919,8.30283 7.49462,8.30625 7.47993,8.30951 7.46511,8.31262 7.45018,8.31557 7.43513,8.31837 7.41995,8.32101 7.40466,8.3235 7.38924,8.32581 7.37371,8.32798 3.58744,4.5417 3.60298,4.53954 3.61839,4.53722 3.63369,4.53474 3.64886,4.5321 3.66391,4.5293 3.67884,4.52635 3.69366,4.52324 3.70835,4.51998 3.72293,4.51656 3.73737,4.513 3.75171,4.50929 3.76592,4.50543 3.78001,4.50142 3.79398,4.49726 3.80782,4.49296 3.82155,4.48853 3.83516,4.48394 3.84864,4.47922 3.862,4.47437 3.87524,4.46937 3.88836,4.46424 3.90135,4.45897 3.91423,4.45357 3.92698,4.44804 3.93961,4.44238 3.95211,4.43659 3.9645,4.43067 3.97676,4.42463 3.9889,4.41846 4.00091,4.41217 4.0128,4.40575 "/>
     <polygon id="_539047176" class="fil1" points="3.85362,1.54925 7.63989,5.33552 7.64145,5.33812 7.64253,5.34166 7.64309,5.34617 3.85683,1.5599 3.85626,1.55539 3.85518,1.55185 "/>
     <polygon id="_539046768" class="fil1" points="3.85683,1.5599 7.64309,5.34617 7.64333,5.35027 7.64359,5.35446 7.64386,5.35873 7.64417,5.36309 7.64452,5.36753 7.64492,5.37204 7.64539,5.37664 7.64594,5.38131 7.64658,5.38605 7.64732,5.39087 7.64817,5.39575 7.64913,5.4007 7.65024,5.40572 7.65148,5.4108 7.65288,5.41594 7.65444,5.42115 7.65619,5.4264 7.65811,5.43172 7.66024,5.43709 7.66258,5.4425 7.66514,5.44797 7.66793,5.45349 7.67097,5.45905 7.67426,5.46466 7.67781,5.4703 7.68164,5.47599 7.68576,5.48171 7.69017,5.48747 7.69489,5.49326 7.69994,5.49909 3.91367,1.71282 3.90863,1.70699 3.9039,1.7012 3.89949,1.69544 3.89537,1.68972 3.89154,1.68403 3.88799,1.67839 3.8847,1.67278 3.88167,1.66722 3.87887,1.6617 3.87631,1.65623 3.87398,1.65081 3.87185,1.64544 3.86992,1.64013 3.86818,1.63487 3.86661,1.62967 3.86521,1.62453 3.86397,1.61945 3.86287,1.61443 3.8619,1.60948 3.86105,1.60459 3.86031,1.59978 3.85967,1.59504 3.85913,1.59037 3.85865,1.58577 3.85825,1.58126 3.8579,1.57682 3.85759,1.57246 3.85732,1.56819 3.85707,1.564 "/>
     <polygon id="_539046840" class="fil1" points="4.00204,1.55303 7.7883,5.3393 7.78972,5.34187 7.7907,5.34529 7.79122,5.34957 4.00495,1.5633 4.00443,1.55902 4.00345,1.5556 "/>
     <polygon id="_539046912" class="fil1" points="4.00495,1.5633 7.79122,5.34957 7.79152,5.35467 7.79184,5.3599 7.7922,5.36526 7.79263,5.37074 7.79313,5.37634 7.79375,5.38207 7.79449,5.3879 7.79538,5.39385 7.79643,5.39991 7.79768,5.40606 7.79913,5.41232 7.80081,5.41867 7.80276,5.42512 7.80496,5.43165 7.80747,5.43827 7.81029,5.44496 7.81345,5.45174 7.81696,5.45858 7.82085,5.4655 7.82515,5.47248 7.82986,5.47952 7.83502,5.48662 7.84063,5.49378 7.84673,5.50098 4.06046,1.7147 4.05436,1.7075 4.04875,1.70035 4.04359,1.69325 4.03888,1.68621 4.03459,1.67923 4.0307,1.67231 4.02718,1.66546 4.02402,1.65869 4.0212,1.652 4.0187,1.64538 4.01649,1.63885 4.01455,1.6324 4.01286,1.62605 4.01141,1.61979 4.01017,1.61363 4.00911,1.60758 4.00822,1.60163 4.00748,1.5958 4.00687,1.59007 4.00636,1.58446 4.00593,1.57898 4.00557,1.57363 4.00525,1.5684 "/>
     <polygon id="_539047032" class="fil1" points="4.39583,1.9511 8.1821,5.73737 8.19675,5.75433 8.21071,5.77178 8.22396,5.78969 8.2365,5.80805 8.2483,5.82684 8.25933,5.84606 8.26959,5.86567 8.27905,5.88567 8.2877,5.90603 8.29552,5.92675 8.30249,5.9478 8.30858,5.96917 8.3138,5.99084 8.3181,6.0128 8.32148,6.03502 8.32391,6.0575 8.32539,6.08021 8.32589,6.10314 4.53962,2.31687 4.53912,2.29394 4.53765,2.27123 4.53521,2.24875 4.53183,2.22652 4.52753,2.20457 4.52231,2.1829 4.51622,2.16153 4.50925,2.14048 4.50143,2.11976 4.49278,2.09939 4.48332,2.0794 4.47306,2.05978 4.46203,2.04057 4.45023,2.02178 4.4377,2.00342 4.42444,1.9855 4.41048,1.96806 "/>
     <polygon id="_539048064" class="fil1" points="4.53962,2.31687 8.32589,6.10314 8.32587,6.10787 8.3258,6.11259 8.3257,6.1173 8.32555,6.122 8.32536,6.1267 8.32513,6.13138 8.32486,6.13606 8.32455,6.14072 4.53828,2.35445 4.53859,2.34978 4.53887,2.34511 4.53909,2.34043 4.53928,2.33573 4.53943,2.33103 4.53954,2.32632 4.5396,2.3216 "/>
     <polygon id="_539047656" class="fil1" points="4.53828,2.35445 8.32455,6.14072 8.33475,6.15909 8.34585,6.17597 8.35774,6.19144 4.57148,2.40517 4.55958,2.3897 4.54848,2.37282 "/>
     <polygon id="_539048040" class="fil1" points="4.84507,2.55021 8.63134,6.33648 8.63564,6.34153 8.63848,6.34707 8.63976,6.35319 8.6394,6.35998 8.63729,6.36751 8.63333,6.37585 8.62745,6.3851 4.84119,2.59883 4.84707,2.58958 4.85102,2.58124 4.85313,2.57371 4.8535,2.56692 4.85221,2.5608 4.84937,2.55526 "/>
     <polygon id="_539047464" class="fil1" points="4.84119,2.59883 8.62745,6.3851 8.63048,6.39482 8.63156,6.40378 8.6308,6.41202 8.62831,6.41956 8.62418,6.42643 8.61852,6.43267 8.61142,6.4383 8.60299,6.44335 8.59333,6.44786 8.58254,6.45185 8.57072,6.45534 8.55798,6.45838 8.54441,6.46098 8.53011,6.46319 8.5152,6.46503 8.49976,6.46652 8.4839,6.4677 8.46772,6.4686 8.45132,6.46924 8.43481,6.46967 8.41828,6.46989 8.40184,6.46996 8.38559,6.46988 8.36962,6.4697 8.35404,6.46945 8.33896,6.46915 8.32446,6.46883 8.31067,6.46853 8.29766,6.46826 8.28556,6.46807 8.27445,6.46798 8.26444,6.46802 4.47817,2.68175 4.48818,2.68171 4.49929,2.6818 4.51139,2.68199 4.5244,2.68226 4.5382,2.68256 4.55269,2.68288 4.56778,2.68318 4.58335,2.68343 4.59932,2.68361 4.61557,2.68369 4.63202,2.68362 4.64854,2.68339 4.66506,2.68297 4.68145,2.68233 4.69763,2.68143 4.71349,2.68025 4.72893,2.67876 4.74385,2.67692 4.75814,2.67471 4.77171,2.67211 4.78446,2.66907 4.79628,2.66557 4.80706,2.66159 4.81672,2.65708 4.82515,2.65203 4.83225,2.6464 4.83791,2.64016 4.84204,2.63329 4.84454,2.62574 4.84529,2.61751 4.84421,2.60855 "/>
     <polygon id="_539048160" class="fil1" points="4.47817,2.68175 8.26444,6.46802 8.25946,6.46745 8.25456,6.46687 8.24973,6.46626 8.24497,6.46564 8.24029,6.46499 8.23569,6.46431 8.23116,6.4636 8.22671,6.46285 8.22234,6.46207 8.21805,6.46124 8.21384,6.46037 8.20972,6.45944 8.20567,6.45847 8.20172,6.45743 8.19784,6.45634 8.19405,6.45518 4.40778,2.66891 4.41157,2.67007 4.41545,2.67116 4.41941,2.6722 4.42345,2.67317 4.42757,2.67409 4.43178,2.67497 4.43607,2.6758 4.44044,2.67658 4.44489,2.67733 4.44942,2.67804 4.45402,2.67872 4.4587,2.67937 4.46346,2.67999 4.46829,2.68059 4.47319,2.68118 "/>
     <polygon id="_539047968" class="fil1" points="4.40778,2.66891 8.19405,6.45518 8.19058,6.45926 8.18707,6.46331 8.18352,6.46734 8.17993,6.47133 8.1763,6.4753 8.17264,6.47924 8.16893,6.48315 8.16519,6.48703 8.16142,6.49088 8.15761,6.4947 8.15376,6.49849 8.14987,6.50225 8.14595,6.50598 8.14199,6.50968 8.138,6.51335 8.13397,6.51698 8.12991,6.52059 8.12581,6.52416 8.12168,6.5277 8.11751,6.53121 8.11331,6.53469 8.10907,6.53813 8.10481,6.54154 8.10051,6.54492 8.09617,6.54826 8.09181,6.55157 8.08741,6.55485 8.08298,6.55809 8.07851,6.5613 8.07402,6.56448 8.06949,6.56761 8.06493,6.57072 4.27867,2.78445 4.28322,2.78134 4.28775,2.7782 4.29224,2.77503 4.29671,2.77182 4.30114,2.76858 4.30554,2.7653 4.30991,2.76199 4.31424,2.75865 4.31854,2.75527 4.32281,2.75185 4.32704,2.74841 4.33124,2.74494 4.33541,2.74143 4.33954,2.73789 4.34364,2.73431 4.3477,2.73071 4.35173,2.72707 4.35572,2.72341 4.35968,2.71971 4.3636,2.71598 4.36749,2.71222 4.37134,2.70843 4.37515,2.70461 4.37893,2.70076 4.38267,2.69688 4.38637,2.69297 4.39003,2.68903 4.39366,2.68506 4.39725,2.68107 4.4008,2.67704 4.40431,2.67299 "/>
     <polygon id="_539047440" class="fil1" points="4.27867,2.78445 8.06493,6.57072 8.06492,6.57092 8.06491,6.57111 8.0649,6.57131 8.06489,6.5715 8.06487,6.5717 8.06486,6.57189 8.06485,6.57209 8.06483,6.57228 4.27857,2.78601 4.27858,2.78581 4.27859,2.78562 4.2786,2.78543 4.27862,2.78523 4.27863,2.78504 4.27864,2.78484 4.27865,2.78465 "/>
    </g>
    <path id="_637668520" class="fil1" d="M4.27857 2.78601c0.348083,0.346634 0.369248,0.897217 0.0982047,1.29198 -0.076374,0.119126 -0.189752,0.234173 -0.352201,0.321224 -0.124866,0.0703504 -0.270811,0.120311 -0.437126,0.142488 -0.00857087,0.0420315 -0.0366732,0.0767047 -0.0774331,0.0828504 0.00257874,0.0265709 0.000893701,0.0609213 -0.000870079,0.0969331 -0.00252362,0.0515157 -0.00523228,0.106701 0.00431102,0.140252 0.00873622,0.00136614 0.0209449,0.00260236 0.0344291,0.00367717 0.0344134,0.00275197 0.0756417,0.00402362 0.0919882,0.00402362l0.00948031 0c0.010315,0 0.0186732,0.0083622 0.0186732,0.0186772 0,0.010311 -0.00835827,0.0186732 -0.0186732,0.0186732l-0.00948031 0c-0.00246457,0 -0.00548425,-2.75591e-005 -0.00895669,-8.66142e-005 -0.00667323,0.00592913 -0.0143307,0.0150591 -0.0157008,0.0265079 0.00635433,0.00425984 0.00965748,0.0122087 0.00765748,0.0200433 -0.0025315,0.00994882 -0.0126614,0.0159567 -0.0226102,0.0134213 -0.00210236,-0.000543307 -0.00493701,-0.00160236 -0.00833071,-0.00308268 -0.00776772,0.00372441 -0.0155079,0.00923228 -0.0191693,0.0171614 -0.00461417,0.00999606 -0.00801181,0.0210079 -0.0101929,0.029185 1.9685e-005,1.9685e-005 3.54331e-005,4.33071e-005 5.51181e-005,6.29921e-005 0.00680315,0.00769291 0.00608661,0.0194528 -0.0016063,0.0262598 -0.00769291,0.00680709 -0.0194528,0.00608661 -0.0262598,-0.0016063 -0.0235866,-0.0267362 -0.0392992,-0.0529724 -0.0485984,-0.0784252 -0.0104409,-0.0285866 -0.0128189,-0.0560945 -0.00916929,-0.0822165l-4.33071e-005 -2.75591e-005c0.000125984,-0.000905512 0.000314961,-0.0017874 0.000562992,-0.0026378 -0.0110236,-0.0402402 -0.00820472,-0.0977795 -0.00556693,-0.151618 0.0018622,-0.0379724 0.00362598,-0.0739803 0.000283465,-0.0976772 -0.031378,-0.00908661 -0.0550591,-0.0351457 -0.0637795,-0.067626 -0.0203622,0.000244094 -0.0409843,0.000102362 -0.0618583,-0.000437008l-0.0043622 0.030815c-0.00884252,0.0624921 -0.048626,0.115665 -0.108024,0.124618 0.00353543,0.0364094 0.00122835,0.0834764 -0.00118898,0.132823 -0.00345669,0.0705984 -0.00716929,0.146217 0.00590945,0.192193 0.0119764,0.00187008 0.0287008,0.00356299 0.0471772,0.00503937 0.0471535,0.00376772 0.103654,0.00551575 0.126051,0.00551575l0.0129961 0c0.0141299,0 0.0255866,0.0114567 0.0255866,0.0255906 0,0.0141339 -0.0114567,0.0255906 -0.0255866,0.0255906l-0.0129961 0c-0.00337402,0 -0.00751181,-3.93701e-005 -0.0122677,-0.00011811 -0.00914567,0.00812598 -0.0196417,0.0206378 -0.0215157,0.0363228 0.00870472,0.00583858 0.0132323,0.0167323 0.0104961,0.0274685 -0.00347638,0.0136299 -0.0173583,0.0218661 -0.0309921,0.0183898 -0.00287795,-0.000744094 -0.00676378,-0.00219685 -0.0114173,-0.00422047 -0.0106457,0.00510236 -0.021248,0.0126457 -0.0262638,0.0235118 -0.00632283,0.0137008 -0.0109803,0.0287913 -0.0139685,0.0399961 2.3622e-005,2.75591e-005 5.11811e-005,5.90551e-005 7.48031e-005,8.66142e-005 0.00932677,0.0105433 0.00834252,0.0266535 -0.00220079,0.0359803 -0.0105394,0.00933071 -0.0266575,0.00834252 -0.0359843,-0.00219685 -0.0323189,-0.0366378 -0.0538543,-0.0725906 -0.0665945,-0.107472 -0.014311,-0.0391693 -0.0175669,-0.0768701 -0.0125709,-0.112661l-5.51181e-005 -3.93701e-005c0.000173228,-0.00124016 0.000433071,-0.00244488 0.000771654,-0.00361417 -0.0151063,-0.0551378 -0.0112402,-0.133988 -0.00762205,-0.207764 0.00255118,-0.0520354 0.00496457,-0.101378 0.00038189,-0.13385 -0.0518583,-0.0150197 -0.088378,-0.063878 -0.0920906,-0.121189l-0.00303937 -0.0469252c-0.781028,-0.105283 -1.11419,-0.731736 -1.11419,-1.17192 0,-0.481909 0.0356614,-0.546854 0.109547,-0.530516 0.0738622,0.0163268 0.00484646,0.235307 0.217803,0.283492 0.213756,0.0483898 0.823559,-0.143075 0.955902,-0.340673 0.0411417,-0.0614252 0.0777126,-0.117921 0.0384173,-0.219764 -0.000232283,-0.000606299 -0.000429134,-0.00121654 -0.000586614,-0.00183071 -0.0368976,-0.0732402 -0.0574567,-0.154437 -0.0574567,-0.239803 0,-0.288854 0.235409,-0.529969 0.542815,-0.576618 -0.0240591,-0.115752 0.0741654,-0.233772 0.0772874,-0.180354 0.00254331,0.0432717 0.0050748,0.101776 0.0679409,0.164657 -0.0106417,-0.109118 0.0772323,-0.211713 0.080185,-0.161252 0.00315354,0.0536181 0.00629134,0.130626 0.124236,0.210382 0.240094,0.086315 0.410429,0.297476 0.410429,0.543185 0,0.012622 -0.000448819,0.0251535 -0.00133465,0.0375787 0.103693,0.204169 0.376303,0.14065 0.302902,0.244382 0.0429528,0.107776 -0.262465,0.0816969 -0.363016,0.0829173 -0.0267283,-0.00300394 -0.0504094,-0.00648819 -0.0703858,-0.0128386 -0.0368386,0.0436811 -0.0803386,0.0826063 -0.129118,0.115539 -3.14961e-005,0.000519685 -6.69291e-005,0.00104331 -9.84252e-005,0.00156299z"/>
   </g>
  </g>
  <path class="fil2" d="M3.41333 -3.93701e-006c1.88513,0 3.41333,1.5282 3.41333,3.41333 0,1.88513 -1.5282,3.41333 -3.41333,3.41333 -1.88513,0 -3.41333,-1.5282 -3.41333,-3.41333 0,-1.88513 1.5282,-3.41333 3.41333,-3.41333z"/>
  <path class="fil3" d="M3.50701 4.60531c-0.00229528,-0.0100315 -0.0122874,-0.0163031 -0.0223189,-0.0140039 -0.0100315,0.00229528 -0.0163031,0.0122874 -0.0140079,0.0223189 0.00533071,0.0229921 0.00335827,0.0632992 0.00125984,0.106106 -0.0031378,0.0640236 -0.00653543,0.133291 0.0134055,0.172461 0.00466929,0.00918504 0.0159055,0.0128425 0.0250906,0.00816929 0.0091811,-0.00466929 0.0128386,-0.0159055 0.00816929,-0.0250866 -0.0155118,-0.0304724 -0.0123701,-0.0945591 -0.0094685,-0.153791 0.00222835,-0.0454843 0.00432677,-0.088315 -0.00212992,-0.116173z"/>
  <path class="fil4" d="M3.39481 4.37606c0.0612717,0.0301024 0.154638,0.0311693 0.215909,0.00291732l-0.0218819 0.154642c-0.00707874,0.0500512 -0.0413583,0.0919094 -0.0919094,0.0919094l0 0c-0.0505512,0 -0.0886417,-0.0414646 -0.0919094,-0.0919094l-0.0102087 -0.157559z"/>
  <path class="fil5" d="M3.64133 4.89906c0,0 -0.0248031,0.0138583 -0.0262598,0.0357402 -0.00145669,0.0218858 -0.00145669,0.0218858 -0.00145669,0.0218858 0,0 -0.0320945,0.00510236 -0.0408504,0.0240709 -0.00875197,0.0189646 -0.0131299,0.0415748 -0.0131299,0.0415748l-0.055437 -0.0627323 0.000728346 -0.0612717 0.0795079 -0.0145906 0.0568976 0.0153228z"/>
  <path class="fil3" d="M3.53476 5.03466c0.00680709,0.00769291 0.0185669,0.00841339 0.0262598,0.0016063 0.00769291,-0.00680709 0.00841339,-0.0185669 0.0016063,-0.0262598 -0.0203071,-0.0230157 -0.0336929,-0.0452205 -0.0414528,-0.0664646 -0.0055748,-0.0152559 -0.00824016,-0.0300709 -0.00849606,-0.0443661 0.00950787,0.00137008 0.0206063,0.00250787 0.0322953,0.00344094 0.035689,0.00285433 0.0781457,0.00417717 0.0949016,0.00417717l0.00948031 0c0.010315,0 0.0186772,-0.0083622 0.0186772,-0.0186772 0,-0.010311 -0.0083622,-0.0186732 -0.0186772,-0.0186732l-0.00948031 0c-0.0163465,0 -0.0575787,-0.00127559 -0.0919882,-0.00402362 -0.0201457,-0.00161024 -0.0374409,-0.0035748 -0.0445787,-0.0057874 -0.00163386,-0.000759843 -0.00340551,-0.00129134 -0.00527953,-0.00155512 -0.0102126,-0.00142126 -0.0196535,0.00570079 -0.0210787,0.0159134l0.0184961 0.00258268 -0.0184567 -0.00255512c-0.00364567,0.026122 -0.00126772,0.0536339 0.00917323,0.0822165 0.00929921,0.0254528 0.0250118,0.051689 0.0485984,0.0784252z"/>
  <path class="fil3" d="M3.51338 4.87272c-0.00608268,-0.00829528 -0.0177402,-0.0100945 -0.0260394,-0.00401181 -0.00829528,0.00608268 -0.0100945,0.0177441 -0.00401181,0.0260433 0.00548819,0.00747244 0.0295354,0.0240984 0.0543661,0.0392362 0.0251142,0.015311 0.0524016,0.030063 0.062563,0.032685 0.00994882,0.00253543 0.0200748,-0.00347244 0.0226142,-0.0134213 0.00253543,-0.00994882 -0.00347244,-0.0200748 -0.0134213,-0.0226142 -0.00644488,-0.00166142 -0.0296614,-0.014622 -0.0523504,-0.0284528 -0.0214567,-0.0130787 -0.041189,-0.0260197 -0.0437205,-0.0294646z"/>
  <path class="fil6" d="M4.27857 2.78601c0.603504,0.600988 0.224287,1.81504 -0.95674,1.76716 -0.949339,0 -1.34873,-0.705256 -1.34873,-1.18721 0,-0.481909 0.0356654,-0.546854 0.109551,-0.530516 0.0738622,0.0163268 0.00484646,0.235307 0.217803,0.283492 0.213756,0.0483937 0.823559,-0.143075 0.955902,-0.340673 0.0411417,-0.0614213 0.0777126,-0.117925 0.0384173,-0.219764 -0.039311,-0.101839 1.01895,-0.323315 0.983799,0.227508z"/>
  <path class="fil4" d="M3.88817 2.90166c0.358795,0 0.651445,-0.262701 0.651445,-0.584787 0,-0.322063 -0.29265,-0.584772 -0.651445,-0.584772 -0.358799,0 -0.651449,0.262709 -0.651449,0.584772 0,0.322087 0.29265,0.584787 0.651449,0.584787z"/>
  <path class="fil7" d="M4.00848 3.59993c0.00011811,0.206323 -0.175827,0.549945 -0.706,0.549945 -0.530177,0 -0.884169,-0.392906 -0.884169,-0.751984 0,-0.359083 0.12265,0.0707126 0.43813,0.0707126 0.315492,0 0.379906,-0.24528 0.677878,-0.24528 0.297972,0 0.474016,0.142181 0.474161,0.376606z"/>
  <path class="fil8" d="M4.52387 2.32125c-0.0445591,-0.0440197 -0.15928,0.0114606 -0.182575,0.17763 -0.0214685,0.153409 0.0360472,0.171531 0.13687,0.182866 0.100551,-0.00122047 0.405969,0.0248583 0.363016,-0.0829173 0.077126,-0.108996 -0.227752,-0.0333386 -0.317311,-0.277579z"/>
  <path class="fil9" d="M4.33881 2.51959c0.126315,0.158799 0.462303,0.0994606 0.500114,0.0799921 -0.0270551,-0.00576772 -0.357835,0.041315 -0.500114,-0.0799921z"/>
  <path class="fil9" d="M4.45886 2.39969c0.0097874,0.00819685 -0.00890945,0.0201535 -0.0246575,0.0419606 -0.0157441,0.0217953 -0.0225748,0.0452008 -0.0323386,0.0370079 -0.00977559,-0.00820866 -0.00833858,-0.0415354 0.00741339,-0.0633465 0.0157323,-0.021815 0.0397953,-0.0238268 0.0495827,-0.015622z"/>
  <path class="fil10" d="M4.22121 2.36682c0.0639094,0 0.116039,-0.0521102 0.116039,-0.116043 0,-0.0639055 -0.0521299,-0.116039 -0.116039,-0.116039 -0.0639094,0 -0.116039,0.0521339 -0.116039,0.116039 0,0.0639331 0.0521299,0.116043 0.116039,0.116043z"/>
  <path class="fil11" d="M4.26463 2.28833c0.029063,0 0.0527598,-0.0236969 0.0527598,-0.0527559 0,-0.0290551 -0.0236969,-0.052752 -0.0527598,-0.052752 -0.0290551,0 -0.052748,0.0236969 -0.052748,0.052752 0,0.0290591 0.0236929,0.0527559 0.052748,0.0527559z"/>
  <path class="fil6" d="M4.00079 3.61245c0.00011811,0.184575 -0.20565,0.454087 -0.703295,0.454087 -0.49761,0 -0.855429,-0.33226 -0.855429,-0.653421 0,-0.321209 0.115142,0.0664291 0.411248,0.0664291 0.29613,0 0.390728,-0.232583 0.670394,-0.232583 0.279665,0 0.476921,0.155799 0.477083,0.365488z"/>
  <path class="fil7" d="M4.21869 1.82361c-0.20615,-0.0966378 -0.209933,-0.195535 -0.21374,-0.260303 -0.0037874,-0.064748 -0.147382,0.122488 -0.0432992,0.252169 0.104083,0.129681 0.64337,0.429701 0.257039,0.00813386z"/>
  <path class="fil6" d="M4.07056 1.8202c-0.206146,-0.0966339 -0.209929,-0.195531 -0.213736,-0.260303 -0.0037874,-0.0647677 -0.147382,0.122496 -0.0432992,0.252169 0.104083,0.129681 0.64337,0.429681 0.257035,0.00813386z"/>
  <path class="fil7" d="M2.47861 3.62066c0.0604409,0.165114 0.350862,0.337673 0.628732,0.210992 -0.122996,0.0965 -0.517598,0.146709 -0.628732,-0.210992z"/>
  <path class="fil12" d="M3.81325 3.37191c-0.293106,-0.0482874 -0.530177,0.0637087 -0.683031,0.132807 0.12085,-0.112437 0.369579,-0.288406 0.683031,-0.132807z"/>
  <path class="fil7" d="M4.27798 2.78409c-0.178772,0.217 -0.851346,0.219524 -0.972354,-0.20078 0.257055,0.398181 0.779862,0.339988 0.972354,0.20078z"/>
  <path class="fil7" d="M4.38528 4.06445c-0.154941,0.251394 -0.471898,0.48872 -1.06346,0.48872 -0.495071,0 -0.840512,-0.191827 -1.05781,-0.443717 0.563201,0.481449 1.64855,0.527878 2.12127,-0.0450039z"/>
  <path class="fil7" d="M2.61177 3.79506c0.0765039,0.158307 0.382598,0.30124 0.646547,0.147646 -0.112827,0.108209 -0.500512,0.19728 -0.646547,-0.147646z"/>
  <path class="fil7" d="M2.42643 3.3538c0.0129685,0.148004 0.211917,0.352701 0.466488,0.310512 -0.121579,0.0516535 -0.454551,0.00576378 -0.466488,-0.310512z"/>
  <path class="fil3" d="M3.23009 4.68306c-0.00314567,-0.013748 -0.0168386,-0.0223386 -0.0305866,-0.0191929 -0.0137441,0.00314567 -0.0223346,0.0168386 -0.019189,0.0305866 0.00730315,0.0315079 0.00459449,0.0867441 0.00172047,0.145398 -0.00429921,0.0877402 -0.00894882,0.182654 0.0183701,0.236335 0.00640157,0.0125827 0.0217992,0.0175945 0.0343819,0.0111929 0.0125866,-0.00640157 0.0175984,-0.0217953 0.0111969,-0.0343819 -0.0212559,-0.0417559 -0.0169488,-0.129571 -0.0129724,-0.210744 0.00305118,-0.0623268 0.00592913,-0.12102 -0.00292126,-0.159193z"/>
  <path class="fil4" d="M3.07634 4.3689c0.0839606,0.041252 0.211909,0.0427126 0.29587,0.004l-0.0299882 0.211906c-0.00970079,0.0685866 -0.0566732,0.125949 -0.125945,0.125949l0 0c-0.0692717,0 -0.121469,-0.0568189 -0.125945,-0.125949l-0.0139921 -0.215906z"/>
  <path class="fil5" d="M3.41415 5.08558c0,0 -0.0339843,0.0189921 -0.0359843,0.0489803 -0.00199606,0.0299882 -0.00199606,0.0299882 -0.00199606,0.0299882 0,0 -0.0439803,0.00699606 -0.0559764,0.0329843 -0.0119961,0.0259882 -0.0179921,0.0569724 -0.0179921,0.0569724l-0.0759685 -0.0859606 0.001 -0.0839646 0.108953 -0.0199921 0.0779646 0.0209921z"/>
  <path class="fil3" d="M3.26811 5.2714c0.00932677,0.0105394 0.0254449,0.0115276 0.0359843,0.00220079 0.0105433,-0.00932677 0.0115276,-0.0254449 0.00220079,-0.0359843 -0.0278268,-0.0315394 -0.0461693,-0.0619685 -0.0568031,-0.0910787 -0.00764173,-0.0209094 -0.0112913,-0.0412087 -0.0116417,-0.0607992 0.0130276,0.00187795 0.0282362,0.00344094 0.044252,0.00471654 0.0489094,0.00391339 0.107091,0.00572441 0.130047,0.00572441l0.0129961 0c0.0141299,0 0.0255906,-0.0114606 0.0255906,-0.0255906 0,-0.0141339 -0.0114606,-0.0255906 -0.0255906,-0.0255906l-0.0129961 0c-0.0223976,0 -0.0788976,-0.00174803 -0.126051,-0.00551575 -0.0276063,-0.00220472 -0.0513071,-0.00489764 -0.0610866,-0.00792913 -0.00224016,-0.00103937 -0.00466535,-0.00176772 -0.00724016,-0.00212992 -0.0139921,-0.00195276 -0.0269291,0.00781102 -0.0288819,0.0218031l0.0253425 0.00353937 -0.0252874 -0.0035c-0.00499606,0.0357953 -0.00174016,0.0734921 0.0125709,0.112661 0.0127402,0.0348819 0.0342717,0.0708307 0.0665945,0.107472z"/>
  <path class="fil3" d="M3.23882 5.0495c-0.00833465,-0.0113701 -0.024315,-0.0138346 -0.035685,-0.00549606 -0.0113701,0.00833465 -0.0138307,0.024311 -0.00549606,0.0356811 0.00751969,0.0102402 0.0404724,0.0330276 0.0745,0.0537717 0.0344094,0.0209764 0.0718071,0.0411969 0.0857283,0.0447874 0.0136339,0.00347638 0.0275118,-0.00475591 0.0309882,-0.0183898 0.00347638,-0.0136339 -0.00475591,-0.0275118 -0.0183898,-0.0309882 -0.00883071,-0.00227559 -0.0406457,-0.0200394 -0.0717362,-0.0389921 -0.0294055,-0.0179252 -0.0564409,-0.0356535 -0.0599094,-0.040374z"/>
 </g>
</svg>
