<?xml version="1.0" encoding="UTF-8"?>
<!DOCTYPE svg PUBLIC "-//W3C//DTD SVG 1.1//EN" "http://www.w3.org/Graphics/SVG/1.1/DTD/svg11.dtd">
<!-- Creator: CorelDRAW -->
<svg xmlns="http://www.w3.org/2000/svg" xml:space="preserve" width="6.82666in" height="6.82666in" style="shape-rendering:geometricPrecision; text-rendering:geometricPrecision; image-rendering:optimizeQuality; fill-rule:evenodd; clip-rule:evenodd"
viewBox="0 0 6.82666 6.82666"
 xmlns:xlink="http://www.w3.org/1999/xlink">
 <defs>
  <style type="text/css">
   <![CDATA[
    .fil2 {fill:none}
    .fil8 {fill:#4D4D4D}
    .fil1 {fill:#00000000}
    .fil3 {fill:#6B5B50}
    .fil6 {fill:#897769}
    .fil4 {fill:#AA978A}
    .fil0 {fill:#00000000}
    .fil9 {fill:#BDBDBD}
    .fil7 {fill:white}
    .fil5 {fill:#6B5B50;fill-rule:nonzero}
   ]]>
  </style>
   <clipPath id="id0">
    <path d="M3.41333 -3.93701e-006c1.88513,0 3.41333,1.5282 3.41333,3.41333 0,1.88513 -1.5282,3.41333 -3.41333,3.41333 -1.88513,0 -3.41333,-1.5282 -3.41333,-3.41333 0,-1.88513 1.5282,-3.41333 3.41333,-3.41333z"/>
   </clipPath>
 </defs>
 <g id="Layer_x0020_1">
  <metadata id="CorelCorpID_0Corel-Layer"/>
  <path class="fil0" d="M3.41333 -3.93701e-006c1.88513,0 3.41333,1.5282 3.41333,3.41333 0,1.88513 -1.5282,3.41333 -3.41333,3.41333 -1.88513,0 -3.41333,-1.5282 -3.41333,-3.41333 0,-1.88513 1.5282,-3.41333 3.41333,-3.41333z"/>
  <g style="clip-path:url(#id0)">
   <g id="_637664344">
    <g>
     <polygon id="_2161408881" class="fil1" points="4.48833,2.20657 8.2746,5.99285 8.28271,6.00267 8.29035,6.013 8.2975,6.02383 8.30417,6.03515 8.31034,6.04696 8.31601,6.05926 8.32118,6.07202 8.32583,6.08526 8.32996,6.09894 4.5437,2.31267 4.53956,2.29898 4.53491,2.28575 4.52974,2.27298 4.52407,2.26069 4.5179,2.24888 4.51124,2.23756 4.50408,2.22672 4.49644,2.21639 "/>
     <polygon id="_216140408" class="fil1" points="4.6691,2.40059 8.45537,6.18686 8.46709,6.20078 8.47824,6.21538 8.48882,6.23062 8.49886,6.24646 8.50836,6.26284 8.51733,6.27972 8.52579,6.29706 8.53374,6.31481 8.54119,6.33293 8.54816,6.35137 8.55466,6.37008 8.56069,6.38902 8.56628,6.40815 8.57142,6.42741 8.57613,6.44676 8.58043,6.46615 8.58432,6.48555 8.58781,6.5049 8.59092,6.52416 8.59365,6.54328 8.59602,6.56222 8.59804,6.58093 8.59972,6.59937 8.60107,6.61749 8.60209,6.63524 8.60281,6.65258 4.81654,2.86631 4.81582,2.84897 4.8148,2.83122 4.81345,2.8131 4.81178,2.79466 4.80976,2.77595 4.80739,2.75701 4.80465,2.73789 4.80154,2.71863 4.79805,2.69928 4.79416,2.67988 4.78987,2.66048 4.78515,2.64113 4.78001,2.62187 4.77443,2.60275 4.76839,2.58381 4.76189,2.5651 4.75492,2.54666 4.74747,2.52854 4.73952,2.51079 4.73107,2.49345 4.72209,2.47657 4.71259,2.46019 4.70256,2.44435 4.69197,2.42911 4.68082,2.41451 "/>
     <polygon id="_216141800" class="fil1" points="4.81654,2.86631 8.60281,6.65258 8.60737,6.69514 8.61199,6.73469 8.61668,6.77142 8.62144,6.80549 8.62626,6.83707 8.63114,6.86633 8.63609,6.89344 8.6411,6.91857 8.64618,6.94189 8.65133,6.96357 8.65654,6.98378 8.66181,7.00269 8.66716,7.02046 8.67257,7.03728 8.67805,7.05331 8.68359,7.06871 8.6892,7.08366 8.69488,7.09833 8.70063,7.11289 8.70644,7.1275 8.71232,7.14235 8.71827,7.15759 8.72428,7.17339 8.73037,7.18994 8.73652,7.20739 8.74274,7.22591 8.74903,7.24569 8.75538,7.26687 8.76181,7.28965 8.7683,7.31417 8.77487,7.34063 8.7815,7.36918 4.99523,3.58291 4.9886,3.55436 4.98204,3.5279 4.97554,3.50337 4.96911,3.4806 4.96276,3.45941 4.95647,3.43964 4.95025,3.42111 4.9441,3.40367 4.93802,3.38712 4.932,3.37131 4.92605,3.35607 4.92017,3.34123 4.91436,3.32662 4.90861,3.31206 4.90294,3.29739 4.89733,3.28244 4.89178,3.26704 4.8863,3.25101 4.88089,3.23419 4.87555,3.21641 4.87027,3.1975 4.86506,3.1773 4.85991,3.15561 4.85483,3.1323 4.84982,3.10717 4.84487,3.08006 4.83999,3.0508 4.83517,3.01922 4.83041,2.98515 4.82572,2.94842 4.8211,2.90887 "/>
     <polygon id="_216141128" class="fil1" points="5.28,3.6102 9.06626,7.39647 9.05761,7.39869 9.04896,7.40081 9.04031,7.40285 9.03168,7.40478 9.02305,7.40662 9.01443,7.40837 9.00581,7.41002 8.9972,7.41158 8.9886,7.41305 8.98001,7.41443 8.97142,7.41571 8.96284,7.41691 8.95427,7.41802 8.9457,7.41904 8.93715,7.41997 8.9286,7.42081 8.92006,7.42157 8.91152,7.42225 8.903,7.42283 8.89448,7.42334 8.88597,7.42376 8.87747,7.42409 8.86898,7.42435 8.8605,7.42452 8.85202,7.42461 8.84356,7.42463 8.8351,7.42456 8.82665,7.42441 8.81821,7.42419 8.80978,7.42388 8.80136,7.4235 8.79294,7.42305 5.00668,3.63678 5.01509,3.63723 5.02351,3.63761 5.03194,3.63791 5.04038,3.63814 5.04883,3.63829 5.05729,3.63835 5.06575,3.63834 5.07423,3.63825 5.08271,3.63808 5.0912,3.63782 5.0997,3.63748 5.10821,3.63707 5.11673,3.63656 5.12526,3.63598 5.13379,3.6353 5.14233,3.63454 5.15088,3.6337 5.15944,3.63276 5.168,3.63174 5.17657,3.63064 5.18515,3.62944 5.19374,3.62815 5.20233,3.62678 5.21093,3.62531 5.21954,3.62375 5.22816,3.62209 5.23678,3.62035 5.24541,3.61851 5.25405,3.61657 5.26269,3.61454 5.27134,3.61242 "/>
     <polygon id="_216141200" class="fil1" points="5.00668,3.63678 8.79294,7.42305 8.79332,7.42494 8.7937,7.42684 8.79408,7.42875 8.79446,7.43066 8.79485,7.43259 8.79523,7.43452 8.79561,7.43646 8.79599,7.43841 5.00972,3.65213 5.00934,3.65019 5.00896,3.64825 5.00858,3.64631 5.0082,3.64439 5.00781,3.64248 5.00744,3.64057 5.00706,3.63867 "/>
     <polygon id="_216142448" class="fil1" points="4.35197,3.41028 8.13824,7.19656 8.13372,7.19226 8.12883,7.18813 8.12361,7.18415 8.11805,7.18033 8.11217,7.17666 8.10597,7.17311 8.09946,7.16969 8.09267,7.16639 8.08558,7.1632 8.07822,7.16011 8.0706,7.15711 8.06272,7.1542 8.0546,7.15137 8.04624,7.14859 8.03765,7.14589 8.02885,7.14323 8.01985,7.14061 8.01065,7.13804 8.00126,7.13548 7.99169,7.13294 7.98196,7.13042 7.97208,7.1279 7.96204,7.12537 7.95187,7.12282 7.94158,7.12025 7.93117,7.11765 7.92065,7.11501 7.91003,7.11232 7.89933,7.10958 7.88855,7.10677 4.10228,3.3205 4.11306,3.32331 4.12376,3.32605 4.13438,3.32874 4.1449,3.33138 4.15531,3.33398 4.16561,3.33655 4.17578,3.33909 4.18581,3.34163 4.1957,3.34415 4.20543,3.34667 4.21499,3.34921 4.22438,3.35176 4.23358,3.35434 4.24259,3.35696 4.25139,3.35961 4.25997,3.36232 4.26833,3.36509 4.27645,3.36793 4.28433,3.37084 4.29196,3.37384 4.29931,3.37693 4.3064,3.38012 4.3132,3.38342 4.3197,3.38684 4.3259,3.39039 4.33178,3.39406 4.33734,3.39788 4.34257,3.40185 4.34745,3.40598 "/>
     <polygon id="_216142256" class="fil1" points="4.0627,3.43931 7.84897,7.22559 7.84746,7.24376 7.84611,7.26418 7.8449,7.28667 7.84384,7.31108 7.84293,7.33724 7.84216,7.36498 7.84152,7.39415 7.84103,7.42457 7.84067,7.45608 7.84044,7.48852 7.84035,7.52173 7.84038,7.55554 7.84054,7.58978 7.84082,7.62429 7.84122,7.65891 7.84174,7.69347 7.84238,7.72781 7.84313,7.76177 7.844,7.79517 7.84497,7.82787 7.84606,7.85968 7.84724,7.89044 7.84853,7.92001 7.84992,7.9482 7.85141,7.97485 7.853,7.99981 7.85467,8.0229 7.85644,8.04396 7.8583,8.06283 7.86024,8.07935 7.86228,8.09334 7.86439,8.10465 4.07812,4.31838 4.07601,4.30707 4.07398,4.29308 4.07203,4.27656 4.07017,4.25769 4.06841,4.23663 4.06673,4.21354 4.06514,4.18858 4.06365,4.16193 4.06226,4.13374 4.06097,4.10417 4.05979,4.07341 4.0587,4.04159 4.05773,4.0089 4.05687,3.9755 4.05611,3.94154 4.05548,3.9072 4.05495,3.87264 4.05455,3.83802 4.05427,3.80351 4.05411,3.76927 4.05408,3.73546 4.05418,3.70225 4.0544,3.66981 4.05476,3.6383 4.05526,3.60788 4.05589,3.57871 4.05666,3.55097 4.05757,3.52481 4.05863,3.5004 4.05984,3.47791 4.0612,3.45749 "/>
     <polygon id="_216142064" class="fil1" points="4.10228,3.3205 7.88855,7.10677 7.88764,7.10986 7.88672,7.11296 7.8858,7.11606 7.88488,7.11915 7.88396,7.12226 7.88303,7.12536 7.8821,7.12846 7.88116,7.13157 7.88022,7.13468 7.87928,7.13779 7.87833,7.14091 7.87738,7.14402 7.87643,7.14713 7.87547,7.15025 7.87451,7.15337 7.87355,7.1565 4.08728,3.37022 4.08824,3.3671 4.0892,3.36398 4.09016,3.36086 4.09111,3.35775 4.09206,3.35463 4.09301,3.35152 4.09395,3.34841 4.09489,3.3453 4.09583,3.34219 4.09676,3.33909 4.09769,3.33598 4.09861,3.33288 4.09954,3.32978 4.10046,3.32669 4.10137,3.32359 "/>
     <polygon id="_216142016" class="fil1" points="4.76302,3.59221 8.54929,7.37848 8.54506,7.37721 8.54083,7.37591 8.53661,7.37461 8.53239,7.37328 8.52817,7.37195 8.52396,7.37059 8.51975,7.36923 8.51555,7.36785 8.51134,7.36645 8.50715,7.36504 8.50295,7.36362 8.49876,7.36218 8.49457,7.36073 8.49038,7.35926 8.4862,7.35778 8.48202,7.35629 8.47785,7.35478 8.47368,7.35326 8.46951,7.35173 8.46534,7.35018 8.46118,7.34862 8.45703,7.34705 8.45287,7.34546 8.44872,7.34386 8.44457,7.34225 8.44043,7.34062 8.43629,7.33898 8.43216,7.33733 8.42802,7.33567 8.4239,7.33399 8.41977,7.33231 8.41565,7.33061 4.62938,3.54433 4.6335,3.54604 4.63763,3.54772 4.64176,3.5494 4.64589,3.55106 4.65002,3.55271 4.65417,3.55435 4.65831,3.55598 4.66245,3.55759 4.6666,3.55919 4.67076,3.56078 4.67491,3.56235 4.67907,3.56391 4.68324,3.56546 4.68741,3.56699 4.69158,3.56851 4.69576,3.57002 4.69993,3.57151 4.70411,3.57299 4.7083,3.57446 4.71249,3.57591 4.71668,3.57735 4.72088,3.57877 4.72507,3.58018 4.72928,3.58158 4.73348,3.58296 4.73769,3.58432 4.74191,3.58568 4.74612,3.58701 4.75034,3.58833 4.75456,3.58964 4.75879,3.59094 "/>
     <polygon id="_216142280" class="fil1" points="4.5353,4.23278 8.32157,8.01905 8.32656,8.02839 8.33257,8.03674 8.33954,8.04413 4.55328,4.25785 4.5463,4.25047 4.54029,4.24211 "/>
     <polygon id="_216142136" class="fil1" points="4.66321,4.0956 8.44948,7.88187 8.4434,7.87635 8.43684,7.87183 8.42987,7.86829 8.42256,7.86569 8.41497,7.86402 8.40718,7.86324 8.39925,7.86333 8.39124,7.86427 8.38324,7.86602 8.3753,7.86856 8.3675,7.87186 8.3599,7.8759 8.35257,7.88065 8.34557,7.88608 8.33899,7.89217 8.33289,7.89889 8.32732,7.90621 8.32237,7.91411 8.3181,7.92257 8.31458,7.93154 8.31188,7.94102 8.31006,7.95096 8.3092,7.96135 8.30935,7.97216 8.3106,7.98336 8.31301,7.99493 8.31664,8.00683 8.32157,8.01905 4.5353,4.23278 4.53037,4.22056 4.52674,4.20866 4.52433,4.19709 4.52309,4.18589 4.52293,4.17508 4.52379,4.16469 4.52561,4.15475 4.52831,4.14527 4.53183,4.1363 4.53611,4.12784 4.54106,4.11994 4.54662,4.11262 4.55272,4.1059 4.55931,4.09981 4.5663,4.09438 4.57363,4.08963 4.58123,4.08559 4.58903,4.08228 4.59697,4.07974 4.60498,4.078 4.61298,4.07706 4.62091,4.07697 4.6287,4.07775 4.63629,4.07942 4.64361,4.08202 4.65057,4.08556 4.65713,4.09008 "/>
     <polygon id="_216141920" class="fil1" points="4.62938,3.54433 8.41565,7.33061 8.40824,7.33116 8.401,7.33165 8.39396,7.33206 8.38709,7.33241 8.38039,7.3327 8.37387,7.33291 8.36751,7.33305 8.36131,7.33312 8.35527,7.33311 8.34938,7.33304 8.34365,7.33289 8.33805,7.33267 8.33259,7.33237 8.32728,7.332 8.32209,7.33155 8.31704,7.33102 4.53077,3.54475 4.53583,3.54528 4.54101,3.54572 4.54633,3.5461 4.55178,3.54639 4.55738,3.54662 4.56311,3.54677 4.569,3.54684 4.57504,3.54685 4.58124,3.54678 4.5876,3.54663 4.59413,3.54643 4.60082,3.54614 4.60769,3.54579 4.61474,3.54537 4.62197,3.54489 "/>
     <polygon id="_216141968" class="fil1" points="4.53176,3.54531 8.31803,7.33159 8.31711,7.33141 8.31614,7.33122 8.31514,7.33104 8.31411,7.33085 8.31303,7.33067 8.31193,7.33048 8.31078,7.33028 8.3096,7.33007 4.52333,3.5438 4.52451,3.54401 4.52566,3.5442 4.52676,3.5444 4.52784,3.54458 4.52887,3.54477 4.52987,3.54495 4.53084,3.54513 "/>
     <polygon id="_216142208" class="fil1" points="4.52333,3.5438 8.3096,7.33007 8.30284,7.32902 8.29631,7.3278 8.28999,7.32641 8.28388,7.32486 8.27796,7.32315 8.27222,7.32126 8.26665,7.31919 8.26123,7.31696 8.25595,7.31454 8.25081,7.31195 8.24578,7.30918 8.24086,7.30622 8.23604,7.30308 8.2313,7.29976 8.22663,7.29624 8.22201,7.29254 8.21744,7.28864 8.21291,7.28454 8.2084,7.28026 8.2039,7.27577 8.19939,7.27108 4.41313,3.48481 4.41763,3.4895 4.42213,3.49398 4.42665,3.49827 4.43118,3.50237 4.43574,3.50626 4.44036,3.50997 4.44503,3.51348 4.44977,3.51681 4.45459,3.51995 4.45952,3.52291 4.46454,3.52568 4.46969,3.52827 4.47496,3.53069 4.48038,3.53292 4.48595,3.53498 4.49169,3.53687 4.49761,3.53859 4.50372,3.54014 4.51004,3.54153 4.51657,3.54274 "/>
     <polygon id="_216142376" class="fil1" points="4.76558,3.97558 8.55185,7.76185 8.55519,7.7658 8.55779,7.77075 8.5596,7.77684 4.77333,3.99057 4.77152,3.98448 4.76893,3.97953 "/>
     <polygon id="_216143120" class="fil1" points="4.08728,3.37022 7.87355,7.1565 7.87226,7.16064 7.87093,7.16481 7.86957,7.16902 7.86819,7.17326 7.86676,7.17752 7.86531,7.1818 7.86382,7.18611 7.8623,7.19043 7.86075,7.19478 7.85917,7.19915 7.85755,7.20352 7.8559,7.20792 7.85422,7.21232 7.8525,7.21674 7.85075,7.22116 7.84897,7.22559 4.0627,3.43931 4.06448,3.43489 4.06623,3.43046 4.06795,3.42605 4.06963,3.42165 4.07128,3.41725 4.0729,3.41287 4.07448,3.40851 4.07604,3.40416 4.07756,3.39983 4.07904,3.39553 4.0805,3.39124 4.08192,3.38698 4.08331,3.38275 4.08466,3.37854 4.08599,3.37437 "/>
     <polygon id="_216142928" class="fil1" points="4.77333,3.99057 8.5596,7.77684 8.56107,7.78544 8.56194,7.79417 8.56224,7.803 8.562,7.81189 8.56126,7.82078 8.56005,7.82964 8.5584,7.83843 8.55634,7.84711 8.5539,7.85564 8.55112,7.86397 8.54803,7.87207 8.54466,7.87989 8.54104,7.88738 8.5372,7.89452 8.53317,7.90126 8.529,7.90756 8.52471,7.91337 8.52032,7.91866 8.51589,7.92338 8.51142,7.9275 8.50697,7.93096 8.50255,7.93374 8.49821,7.93578 8.49397,7.93706 8.48987,7.93752 8.48593,7.93713 8.48219,7.93583 8.47869,7.93361 8.47545,7.9304 4.68918,4.14413 4.69242,4.14733 4.69593,4.14956 4.69966,4.15085 4.7036,4.15125 4.7077,4.15079 4.71194,4.14951 4.71628,4.14747 4.7207,4.14469 4.72515,4.14122 4.72962,4.13711 4.73406,4.13239 4.73844,4.1271 4.74273,4.12129 4.74691,4.11499 4.75093,4.10825 4.75477,4.10111 4.75839,4.09361 4.76176,4.0858 4.76485,4.0777 4.76763,4.06937 4.77007,4.06084 4.77213,4.05216 4.77378,4.04337 4.775,4.03451 4.77574,4.02561 4.77597,4.01673 4.77567,4.0079 4.7748,3.99917 "/>
     <polygon id="_216143144" class="fil1" points="5.00972,3.65213 8.79599,7.43841 8.80248,7.47325 8.80827,7.5077 8.81335,7.54172 8.81771,7.57529 8.82134,7.60837 8.82424,7.64096 8.8264,7.673 8.8278,7.70449 8.82844,7.73538 8.82832,7.76567 8.82743,7.7953 8.82575,7.82427 8.82328,7.85254 8.82001,7.88008 8.81593,7.90687 8.81104,7.93289 8.80532,7.95809 8.79878,7.98247 8.79139,8.00598 8.78316,8.02861 8.77407,8.05031 8.76412,8.07108 8.7533,8.09088 8.74159,8.10969 8.72901,8.12746 8.71552,8.14419 8.70114,8.15984 8.68584,8.17439 8.66962,8.1878 8.65248,8.20005 8.6344,8.21111 8.61538,8.22096 4.82911,4.43469 4.84813,4.42484 4.86621,4.41378 4.88335,4.40152 4.89957,4.38811 4.91487,4.37357 4.92926,4.35792 4.94274,4.34119 4.95533,4.32341 4.96703,4.30461 4.97785,4.28481 4.9878,4.26404 4.99689,4.24233 5.00512,4.21971 5.01251,4.1962 5.01906,4.17182 5.02477,4.14661 5.02966,4.1206 5.03374,4.09381 5.03701,4.06626 5.03948,4.038 5.04116,4.00903 5.04206,3.97939 5.04218,3.94911 5.04154,3.91822 5.04013,3.88673 5.03797,3.85469 5.03507,3.8221 5.03144,3.78902 5.02708,3.75545 5.022,3.72143 5.01621,3.68698 "/>
     <polygon id="_216142976" class="fil1" points="4.82911,4.43469 8.61538,8.22096 8.59584,8.22952 8.57624,8.23673 8.55661,8.24263 8.53702,8.24725 8.51748,8.25061 8.49806,8.25276 8.47878,8.25372 8.4597,8.25352 8.44084,8.25219 8.42227,8.24977 8.40401,8.24628 8.38611,8.24176 8.36862,8.23622 8.35157,8.22972 8.335,8.22228 8.31897,8.21392 8.30351,8.20468 8.28866,8.19459 8.27447,8.18368 8.26097,8.17198 8.24822,8.15952 4.46195,4.37325 4.4747,4.3857 4.4882,4.39741 4.50239,4.40831 4.51724,4.41841 4.5327,4.42765 4.54874,4.436 4.5653,4.44345 4.58235,4.44995 4.59985,4.45548 4.61774,4.46001 4.636,4.4635 4.65457,4.46592 4.67343,4.46725 4.69251,4.46745 4.71179,4.46649 4.73122,4.46434 4.75075,4.46098 4.77035,4.45636 4.78997,4.45046 4.80957,4.44325 "/>
     <polygon id="_216143168" class="fil1" points="4.07812,4.31838 7.86439,8.10465 7.86681,8.11482 7.86954,8.12449 7.87255,8.13369 7.87582,8.14244 7.87932,8.15076 7.88304,8.15866 7.88695,8.16618 7.89103,8.17333 7.89526,8.18015 7.8996,8.18663 7.90404,8.19282 7.90856,8.19872 7.91313,8.20437 7.91773,8.20978 7.92234,8.21497 7.92693,8.21997 7.93148,8.2248 7.93598,8.22948 7.94038,8.23402 7.94468,8.23846 7.94885,8.24281 7.95286,8.2471 7.9567,8.25135 7.96034,8.25557 7.96375,8.25979 7.96692,8.26404 7.96982,8.26832 7.97243,8.27267 7.97473,8.27711 7.97669,8.28165 7.97828,8.28632 7.9795,8.29114 4.19323,4.50487 4.19202,4.50005 4.19042,4.49538 4.18846,4.49083 4.18617,4.4864 4.18356,4.48205 4.18065,4.47776 4.17748,4.47352 4.17407,4.4693 4.17043,4.46507 4.16659,4.46083 4.16258,4.45654 4.15841,4.45219 4.15411,4.44775 4.14971,4.4432 4.14522,4.43853 4.14067,4.4337 4.13607,4.4287 4.13146,4.42351 4.12686,4.4181 4.12229,4.41245 4.11778,4.40655 4.11333,4.40036 4.10899,4.39387 4.10476,4.38706 4.10069,4.37991 4.09678,4.37239 4.09306,4.36448 4.08955,4.35617 4.08628,4.34742 4.08327,4.33822 4.08054,4.32855 "/>
     <polygon id="_216143192" class="fil1" points="3.50846,3.87201 7.29473,7.65828 7.26124,7.66851 7.22868,7.67828 7.19702,7.68762 7.16625,7.69651 7.13635,7.70496 7.10729,7.71298 7.07907,7.72056 7.05165,7.72771 7.02503,7.73443 6.99918,7.74073 6.97408,7.7466 6.94972,7.75205 6.92607,7.75708 6.90313,7.76169 6.88085,7.76589 6.85924,7.76968 6.83826,7.77306 6.81791,7.77603 6.79815,7.7786 6.77898,7.78076 6.76037,7.78253 6.74231,7.7839 6.72477,7.78487 6.70773,7.78546 6.69119,7.78565 6.67511,7.78546 6.65948,7.78488 6.64428,7.78392 6.62949,7.78258 6.61509,7.78087 6.60106,7.77878 6.58739,7.77631 2.80113,3.99004 2.8148,3.9925 2.82882,3.99459 2.84322,3.99631 2.85801,3.99765 2.87321,3.99861 2.88884,3.99919 2.90492,3.99938 2.92146,3.99919 2.9385,3.9986 2.95604,3.99763 2.9741,3.99626 2.99271,3.99449 3.01188,3.99233 3.03164,3.98976 3.05199,3.98679 3.07297,3.98341 3.09458,3.97962 3.11686,3.97542 3.13981,3.97081 3.16345,3.96578 3.18781,3.96033 3.21291,3.95446 3.23876,3.94816 3.26539,3.94144 3.2928,3.93429 3.32102,3.92671 3.35008,3.91869 3.37998,3.91024 3.41076,3.90135 3.44241,3.89201 3.47498,3.88224 "/>
     <polygon id="_216143024" class="fil1" points="4.05113,4.59812 7.8374,8.38439 7.83545,8.38435 7.83351,8.3843 7.83158,8.38425 7.82966,8.38421 7.82775,8.38416 7.82585,8.38411 7.82396,8.38407 7.82209,8.38402 4.03582,4.59775 4.0377,4.5978 4.03959,4.59784 4.04148,4.59789 4.04339,4.59794 4.04531,4.59798 4.04724,4.59803 4.04918,4.59807 "/>
     <polygon id="_216142664" class="fil1" points="4.03582,4.59775 7.82209,8.38402 7.82256,8.38931 7.82292,8.39468 7.82318,8.40014 7.82333,8.40568 7.82337,8.41131 7.8233,8.41702 7.82312,8.42282 7.82283,8.42871 7.82243,8.43468 7.82191,8.44073 7.82128,8.44687 7.82053,8.45308 7.81967,8.45939 7.8187,8.46577 7.8176,8.47223 7.81639,8.47878 4.03012,4.69251 4.03133,4.68596 4.03243,4.6795 4.03341,4.67311 4.03426,4.66681 4.03501,4.66059 4.03564,4.65446 4.03616,4.64841 4.03656,4.64244 4.03685,4.63655 4.03703,4.63075 4.0371,4.62504 4.03706,4.61941 4.03691,4.61387 4.03665,4.60841 4.03629,4.60304 "/>
     <polygon id="_216142832" class="fil1" points="4.03012,4.69251 7.81639,8.47878 7.77116,8.47878 3.98489,4.69251 "/>
     <polygon id="_216143240" class="fil1" points="3.98489,4.69251 7.77116,8.47878 7.43101,8.47878 3.64474,4.69251 "/>
     <polygon id="_216142904" class="fil1" points="3.64474,4.69251 7.43101,8.47878 7.39527,8.47878 3.609,4.69251 "/>
     <polygon id="_216143504" class="fil1" points="4.19323,4.50487 7.9795,8.29114 7.98046,8.29602 7.98132,8.30085 7.98204,8.30561 7.9826,8.31031 7.98298,8.31494 7.98315,8.31948 7.98309,8.32393 7.98277,8.32829 7.98218,8.33254 7.98128,8.33667 7.98007,8.34069 7.9785,8.34458 7.97656,8.34834 7.97422,8.35195 7.97147,8.35542 7.96827,8.35873 7.9646,8.36187 7.96044,8.36485 7.95577,8.36765 7.95056,8.37026 7.94478,8.37267 7.93843,8.37489 7.93146,8.3769 7.92385,8.37869 7.91559,8.38026 7.90665,8.3816 7.89701,8.3827 7.88664,8.38356 7.87552,8.38417 7.86362,8.38451 7.85092,8.38459 7.8374,8.38439 4.05113,4.59812 4.06465,4.59832 4.07735,4.59824 4.08925,4.59789 4.10037,4.59729 4.11074,4.59643 4.12039,4.59533 4.12933,4.59399 4.13759,4.59242 4.14519,4.59063 4.15216,4.58862 4.15852,4.5864 4.16429,4.58398 4.1695,4.58137 4.17417,4.57858 4.17833,4.5756 4.182,4.57246 4.1852,4.56915 4.18796,4.56568 4.19029,4.56207 4.19223,4.55831 4.1938,4.55442 4.19502,4.5504 4.19591,4.54626 4.1965,4.54202 4.19682,4.53766 4.19688,4.53321 4.19671,4.52867 4.19633,4.52404 4.19577,4.51934 4.19505,4.51458 4.1942,4.50975 "/>
     <polygon id="_216143528" class="fil1" points="1.973,3.25823 5.75926,7.0445 5.75383,7.05116 5.7483,7.05757 5.74266,7.06375 5.73692,7.0697 5.73109,7.07541 5.72517,7.0809 5.71916,7.08616 5.71306,7.09119 5.70689,7.096 5.70063,7.10058 5.6943,7.10495 5.68789,7.1091 5.68141,7.11304 5.67487,7.11676 5.66827,7.12027 5.66161,7.12357 1.87534,3.3373 1.882,3.334 1.88861,3.33049 1.89515,3.32676 1.90162,3.32283 1.90803,3.31868 1.91436,3.31431 1.92062,3.30972 1.9268,3.30492 1.93289,3.29989 1.9389,3.29463 1.94482,3.28914 1.95065,3.28343 1.95639,3.27748 1.96203,3.2713 1.96756,3.26489 "/>
     <polygon id="_216144104" class="fil1" points="1.87534,3.3373 5.66161,7.12357 5.65461,7.1268 5.64756,7.1298 5.64047,7.13257 5.63335,7.13512 5.62619,7.13746 5.61899,7.13958 5.61177,7.14148 5.60453,7.14318 5.59726,7.14467 5.58998,7.14594 5.58268,7.14702 5.57537,7.1479 5.56805,7.14857 5.56073,7.14906 5.55341,7.14934 5.54609,7.14944 1.75982,3.36317 1.76714,3.36307 1.77446,3.36278 1.78178,3.3623 1.7891,3.36163 1.79641,3.36075 1.80371,3.35967 1.81099,3.35839 1.81826,3.35691 1.8255,3.35521 1.83272,3.35331 1.83992,3.35119 1.84708,3.34885 1.8542,3.3463 1.86129,3.34352 1.86834,3.34053 "/>
     <polygon id="_216143360" class="fil1" points="2.80113,3.99004 6.58739,7.77631 6.5849,7.78741 6.58233,7.79839 6.57971,7.80925 6.57704,7.82 6.57431,7.83065 6.57154,7.84118 6.56873,7.85161 6.56589,7.86193 6.56303,7.87215 6.56015,7.88226 6.55726,7.89228 6.55436,7.90219 6.55146,7.91201 6.54857,7.92173 6.54569,7.93136 6.54283,7.94089 6.53999,7.95034 6.53719,7.9597 6.53442,7.96896 6.53169,7.97815 6.52902,7.98725 6.52639,7.99627 6.52383,8.0052 6.52134,8.01406 6.51893,8.02284 6.51659,8.03155 6.51433,8.04018 6.51217,8.04874 6.51011,8.05723 6.50815,8.06565 6.5063,8.074 6.50457,8.08229 2.7183,4.29602 2.72003,4.28773 2.72188,4.27938 2.72384,4.27096 2.7259,4.26247 2.72806,4.25391 2.73032,4.24528 2.73266,4.23657 2.73507,4.22779 2.73757,4.21893 2.74013,4.21 2.74275,4.20098 2.74543,4.19188 2.74815,4.18269 2.75092,4.17343 2.75372,4.16407 2.75656,4.15462 2.75942,4.14509 2.7623,4.13546 2.76519,4.12574 2.76809,4.11592 2.77099,4.106 2.77388,4.09599 2.77676,4.08587 2.77962,4.07566 2.78246,4.06534 2.78527,4.05491 2.78804,4.04438 2.79077,4.03373 2.79344,4.02298 2.79607,4.01211 2.79863,4.00113 "/>
     <polygon id="_216143672" class="fil1" points="1.75982,3.36317 5.54609,7.14944 5.53939,7.14936 5.5327,7.14912 5.52601,7.14874 5.51933,7.14819 5.51266,7.1475 5.506,7.14667 5.49937,7.14568 5.49275,7.14455 5.48615,7.14328 5.47958,7.14186 5.47304,7.14031 5.46652,7.13862 5.46004,7.1368 5.45359,7.13484 5.44719,7.13275 5.44082,7.13053 5.4345,7.12819 5.42822,7.12571 5.422,7.12312 5.41583,7.1204 5.4097,7.11756 5.40365,7.11461 5.39764,7.11154 5.3917,7.10835 5.38583,7.10506 5.38003,7.10165 5.3743,7.09813 5.36864,7.09451 5.36306,7.09078 5.35755,7.08695 5.35213,7.08302 5.34679,7.07899 1.56052,3.29272 1.56586,3.29675 1.57128,3.30068 1.57679,3.30451 1.58237,3.30824 1.58803,3.31186 1.59376,3.31538 1.59956,3.31878 1.60544,3.32208 1.61137,3.32527 1.61738,3.32834 1.62344,3.33129 1.62956,3.33413 1.63573,3.33685 1.64196,3.33944 1.64823,3.34191 1.65456,3.34426 1.66092,3.34648 1.66733,3.34857 1.67377,3.35052 1.68025,3.35235 1.68677,3.35404 1.69331,3.35559 1.69988,3.357 1.70648,3.35828 1.7131,3.35941 1.71974,3.36039 1.72639,3.36123 1.73306,3.36192 1.73974,3.36246 1.74643,3.36285 1.75312,3.36309 "/>
     <polygon id="_216143600" class="fil1" points="1.56052,3.29272 5.34679,7.07899 5.34402,7.07661 1.55775,3.29034 "/>
     <polygon id="_216143480" class="fil1" points="2.81282,4.54552 6.59909,8.33179 6.30082,8.33179 2.51455,4.54552 "/>
     <polygon id="_216143936" class="fil1" points="2.51455,4.54552 6.30082,8.33179 6.30433,8.3367 6.30763,8.34187 6.31069,8.34733 6.3135,8.35309 6.31604,8.35917 6.31829,8.36561 6.32025,8.37241 6.3219,8.37961 6.32322,8.38722 6.32419,8.39526 6.3248,8.40376 6.32504,8.41273 6.32488,8.4222 6.32432,8.4322 6.32334,8.44273 6.32192,8.45382 2.53565,4.66755 2.53707,4.65646 2.53806,4.64593 2.53861,4.63593 2.53877,4.62646 2.53853,4.61749 2.53792,4.60899 2.53695,4.60095 2.53563,4.59334 2.53398,4.58614 2.53202,4.57934 2.52977,4.5729 2.52723,4.56681 2.52442,4.56106 2.52136,4.5556 2.51807,4.55043 "/>
     <polygon id="_216143624" class="fil1" points="2.53565,4.66755 6.32192,8.45382 6.32057,8.48817 2.53431,4.7019 "/>
     <polygon id="_216143816" class="fil1" points="2.53431,4.7019 6.32057,8.48817 6.28631,8.48817 2.50005,4.7019 "/>
     <polygon id="_216144512" class="fil1" points="2.50005,4.7019 6.28631,8.48817 5.92705,8.48817 2.14078,4.7019 "/>
     <polygon id="_216144728" class="fil1" points="2.14078,4.7019 5.92705,8.48817 5.89131,8.48817 2.10504,4.7019 "/>
     <polygon id="_216144368" class="fil1" points="2.7183,4.29602 6.50457,8.08229 6.50983,8.08839 6.51531,8.09413 6.52097,8.09954 2.7347,4.31327 2.72904,4.30786 2.72356,4.30212 "/>
     <polygon id="_216144176" class="fil1" points="2.81208,4.37236 6.59835,8.15863 6.60356,8.16374 6.6085,8.16914 6.61317,8.17486 6.61753,8.18095 6.62155,8.18744 6.62519,8.19439 6.62843,8.20182 6.63124,8.20978 6.63359,8.21831 6.63545,8.22746 6.6368,8.23725 6.63759,8.24774 6.63781,8.25896 6.63741,8.27096 6.63639,8.28377 6.63469,8.29744 2.84843,4.51117 2.85012,4.4975 2.85115,4.48469 2.85154,4.47269 2.85132,4.46147 2.85053,4.45098 2.84919,4.44119 2.84732,4.43204 2.84497,4.42351 2.84216,4.41555 2.83892,4.40811 2.83528,4.40117 2.83126,4.39468 2.82691,4.38859 2.82224,4.38287 2.81729,4.37747 "/>
     <polygon id="_216144464" class="fil1" points="2.84843,4.51117 6.63469,8.29744 6.63335,8.33179 2.84708,4.54552 "/>
     <polygon id="_216144848" class="fil1" points="2.84708,4.54552 6.63335,8.33179 6.59909,8.33179 2.81282,4.54552 "/>
    </g>
    <path id="_637664320" class="fil1" d="M2.64072 2.42303c0.40087,0.166406 0.694646,0.0338465 1.01694,-0.0905709 0.0103622,-0.0076811 0.0207913,-0.0150315 0.0312205,-0.0220079 0.0399213,-0.0267047 0.0945157,-0.0497087 0.138831,-0.0629291 0.054315,-0.0162047 0.103929,-0.0202992 0.147992,-0.0134961 0.0230157,-0.0158898 0.0468228,-0.0306142 0.0706339,-0.0437323 0.0399213,-0.0219921 0.0945157,-0.040937 0.138831,-0.0518268 0.186244,-0.0457638 0.317236,0.0257638 0.358531,0.174205 0.0143858,0.00683465 0.0285551,0.0139646 0.0424606,0.0213622 0.167504,0.0890906 0.224327,0.349657 0.230386,0.532276 0.0482874,0.470508 0.107567,0.400299 0.178689,0.716594 0.0823937,0.0126811 0.174417,0.0205866 0.284764,0.0272913 -0.0923661,0.0242165 -0.183638,0.0318465 -0.273319,0.0265787 0.00101181,0.00503543 0.00202756,0.0101535 0.00304331,0.0153583 0.0729803,0.373713 0.0273543,0.684051 -0.18061,0.782559 -0.207949,0.0985118 -0.433614,-0.0373858 -0.446559,-0.239748 -0.0109488,-0.171091 0.16748,-0.274654 0.293335,-0.23635 0.0468307,0.0142402 0.0899882,-0.00372835 0.0974449,0.0319724 0.0189882,0.0908701 -0.0699252,0.211827 -0.0919685,0.137665 -0.0328307,-0.110465 -0.205772,-0.0273307 -0.146063,0.104543 0.0474528,0.104803 0.28265,0.0432283 0.317693,-0.195051 0.0201417,-0.136984 -0.00527953,-0.349484 -0.0899724,-0.445512 -0.0451299,-0.0135433 -0.0896969,-0.0296811 -0.133638,-0.047878 -0.0400512,0.00312992 -0.0719764,0.0034252 -0.0986142,0.000413386 0.000330709,0.000188976 0.000665354,0.000377953 0.000996063,0.000566929 -0.00241732,-0.000484252 -0.00524016,-0.00096063 -0.00842913,-0.00151181 -0.0733701,-0.0104173 -0.105732,-0.0482244 -0.163409,-0.12439 -0.0383819,-0.050689 -0.14228,-0.0685748 -0.257646,-0.0989173 -0.00484646,0.0164961 -0.00985039,0.0330709 -0.015,0.0497283 -0.00680709,0.0220118 -0.0149882,0.0454606 -0.0245787,0.0690906 -0.016878,0.181319 -0.0075315,0.773358 0.0154173,0.879063 0.0241378,0.111177 0.104283,0.134185 0.11511,0.186492 0.0108268,0.052311 0.00659449,0.0968386 -0.142098,0.093252 -0.00520866,-0.000125984 -0.010315,-0.000248031 -0.015311,-0.000370079 0.00279134,0.0279488 0.00108268,0.059626 -0.00569685,0.0947559l-0.0452283 0 -0.34015 0 -0.0357441 0 0 -0.0357441c0.0319252,-0.283575 -0.0767913,-0.470531 -0.100535,-0.784752 -0.362213,0.111445 -0.563331,0.146272 -0.707339,0.118028 -0.0262362,0.118976 -0.0649921,0.217917 -0.0828268,0.30598 0.0548504,0.0672205 0.151854,0.0646378 0.130126,0.21515l-0.00134646 0.0343504 -0.0342598 0 -0.298268 0c0.019311,0.0255197 0.0298661,0.0613228 0.0211024,0.122031l-0.00134646 0.0343504 -0.0342598 0 -0.359264 0 -0.0357441 0 0 -0.0357441c-0.0299724,-0.12411 -0.0211496,-0.307248 -0.0410079,-0.498173 -0.0164685,-0.158354 0.0736378,-0.0798819 0.0689331,-0.338272 -0.0124606,-0.177008 -0.111811,-0.272622 -0.139547,-0.421402 -0.00930315,-0.0499055 -0.0162087,-0.100134 -0.0204213,-0.150079 -0.028685,0.036126 -0.0619646,0.0620079 -0.0976575,0.0790709 -0.0372126,0.0177953 -0.0764921,0.0258622 -0.11552,0.0258622 -0.0714449,0 -0.142831,-0.0269331 -0.199295,-0.0704488 -0.0155787,-0.0120315 -0.0184528,-0.0344134 -0.0064252,-0.0499882 0.0120315,-0.0155748 0.0344134,-0.0184528 0.0499882,-0.00642126 0.044378,0.0342008 0.100181,0.0553661 0.155732,0.0553661 0.0291654,0 0.0580354,-0.00580315 0.0847992,-0.0185984 0.0270906,-0.0129528 0.0526063,-0.0332283 0.0748386,-0.0620787 0.012748,-0.0165394 0.031626,-0.0625945 0.0497756,-0.115378 0.0152835,-0.363087 0.198713,-0.672587 0.671488,-0.672587z"/>
   </g>
  </g>
  <path class="fil2" d="M3.41333 -3.93701e-006c1.88513,0 3.41333,1.5282 3.41333,3.41333 0,1.88513 -1.5282,3.41333 -3.41333,3.41333 -1.88513,0 -3.41333,-1.5282 -3.41333,-3.41333 0,-1.88513 1.5282,-3.41333 3.41333,-3.41333z"/>
  <path class="fil3" d="M2.29049 3.14832c0.00403543,0.0345551 0.00927559,0.0691575 0.0156969,0.103606 0.0277362,0.148783 0.127087,0.244394 0.139551,0.421402 0.00470472,0.25839 -0.0854016,0.179917 -0.0689331,0.338272 0.0198543,0.190925 0.0110315,0.374063 0.0410039,0.498173l0 0.035748 0.035748 0 0.35926 0 0.0342598 0 0.00134646 -0.0343504c0.0217283,-0.150512 -0.0752756,-0.147929 -0.130126,-0.21515 0.0325827,-0.160878 0.13498,-0.358059 0.103331,-0.647398 0.0344134,0.0349134 0.0665984,0.0654961 0.0990276,0.0914646l0 -0.591768 -0.630165 0z"/>
  <path class="fil3" d="M4.06553 3.41459c-0.0206378,0.143461 -0.0115512,0.792614 0.0125866,0.903791 0.0241378,0.111177 0.104283,0.134185 0.11511,0.186492 0.0108268,0.052311 0.00659449,0.0968386 -0.142098,0.093252 -0.148697,-0.00358268 -0.211028,-0.00358268 -0.172854,-0.136287 0.0381772,-0.132701 -0.0369055,-0.545146 -0.125307,-0.645563 -0.0884134,-0.100421 0.0370079,-0.652736 0.312563,-0.401685z"/>
  <path class="fil4" d="M4.20288 3.29761c-0.129996,0.0141299 -0.231953,-0.0736969 -0.301575,-0.169949 -0.134736,-0.186272 -0.201201,-0.392177 -0.149126,-0.617843 0.0228622,-0.0990591 0.0696102,-0.146232 0.147413,-0.216043 0.0435354,-0.039063 0.0951339,-0.0750433 0.146744,-0.103476 0.0399213,-0.0219921 0.0945157,-0.040937 0.138831,-0.0518268 0.212827,-0.0522953 0.3535,0.0485709 0.37063,0.242343 0.0209488,0.236913 -0.0236378,0.449425 -0.111059,0.682283 -0.0373386,0.0994488 -0.116114,0.234512 -0.241508,0.234512l-0.000350394 0z"/>
  <path class="fil5" d="M1.56052 3.29272c-0.0155787,-0.0120315 -0.0184528,-0.0344134 -0.0064252,-0.0499882 0.0120315,-0.0155748 0.0344134,-0.0184528 0.0499882,-0.00642126 0.044378,0.0342008 0.100181,0.0553661 0.155732,0.0553661 0.0291654,0 0.0580354,-0.00580315 0.0847992,-0.0185984 0.0270906,-0.0129528 0.0526063,-0.0332283 0.0748386,-0.0620787 0.0321614,-0.0417283 0.103362,-0.271346 0.103362,-0.322835 0,-0.0197402 0.0160079,-0.0357441 0.035748,-0.0357441 0.0197402,0 0.0357441,0.0160039 0.0357441,0.0357441 0,0.173539 -0.0607402,0.291528 -0.118441,0.366398 -0.0293268,0.0380512 -0.0636417,0.0651102 -0.100531,0.0827441 -0.0372126,0.0177953 -0.0764921,0.0258622 -0.11552,0.0258622 -0.0714449,0 -0.142831,-0.0269331 -0.199295,-0.0704488z"/>
  <path class="fil6" d="M4.81654 2.86631c0.0515315,0.502102 0.115579,0.388433 0.193177,0.785823 0.0729803,0.373713 0.0273543,0.684051 -0.18061,0.782559 -0.207949,0.0985118 -0.433614,-0.0373858 -0.446559,-0.239748 -0.0109488,-0.171091 0.16748,-0.274654 0.293335,-0.23635 0.0468307,0.0142402 0.0899882,-0.00372835 0.0974449,0.0319724 0.0189882,0.0908701 -0.0699252,0.211827 -0.0919685,0.137665 -0.0328307,-0.110465 -0.205772,-0.0273307 -0.146063,0.104543 0.0474528,0.104803 0.28265,0.0432283 0.317693,-0.195051 0.0273583,-0.186063 -0.0293465,-0.511457 -0.204461,-0.495043 -0.175118,0.0164213 -0.205728,-0.0138228 -0.288606,-0.123268 -0.103205,-0.136291 -0.68002,-0.0354291 -0.68002,-0.577201 0.00727953,-0.713142 0.544728,-0.700469 0.906252,-0.508177 0.167504,0.0890906 0.224327,0.349657 0.230386,0.532276z"/>
  <path class="fil3" d="M4.36176 2.78287c0.0628819,-0.00493307 0.11787,0.0420472 0.122803,0.104941 0.00494094,0.0628819 -0.0420472,0.11787 -0.104933,0.122815 -0.0628937,0.00492913 -0.117882,-0.0420472 -0.122815,-0.104945 -0.00493307,-0.0628937 0.0420472,-0.11787 0.104945,-0.122811z"/>
  <path class="fil7" d="M4.3697 2.80497c0.0562874,-0.0044252 0.105492,0.037626 0.109906,0.0938976 0.0044252,0.0562756 -0.037626,0.10548 -0.0938976,0.109906 -0.0562874,0.00441339 -0.105492,-0.037626 -0.109906,-0.0939134 -0.00441339,-0.0562717 0.037626,-0.105476 0.0938976,-0.10989z"/>
  <path class="fil8" d="M4.4258 2.85898c0.0198819,-0.00155512 0.0372598,0.0132913 0.0388268,0.0331732 0.00155512,0.0198858 -0.0132992,0.0372598 -0.0331732,0.0388268 -0.0198858,0.00155512 -0.0372598,-0.0132992 -0.0388268,-0.0331732 -0.00155906,-0.0198858 0.0132913,-0.0372717 0.0331732,-0.0388268z"/>
  <path class="fil3" d="M4.53176 3.54531c-0.0758898,-0.0430433 -0.138071,-0.116079 -0.178126,-0.190697 -0.0474528,-0.0884291 -0.0676732,-0.181776 -0.0561929,-0.241039 0.00137402,-0.00725197 -0.00337402,-0.014252 -0.0106181,-0.0156417 -0.00725197,-0.00137402 -0.014252,0.00337795 -0.0156378,0.0106181 -0.0125354,0.064752 0.00862598,0.165 0.0589331,0.258713 0.0247559,0.0461339 0.0566378,0.0908701 0.0950669,0.129209 0.0469724,0.0422008 0.0883031,0.0451693 0.106575,0.0488386z"/>
  <path class="fil6" d="M4.00795 3.23139c-0.101807,0.258083 -0.320642,0.376862 -0.47835,0.150429 -0.164386,-0.236024 -0.0622126,-0.600913 0.171291,-0.818492 0.00288583,-0.00269291 0.00579921,-0.00535433 0.00873622,-0.00797638l-0.00442126 -0.000712598 0.0114055 -0.0705984c0.0108898,-0.067374 0.0301811,-0.133012 0.0573268,-0.195055 -0.370291,0.132185 -0.684732,0.32022 -1.13322,0.134047 -0.605457,0 -0.73637,0.507594 -0.647303,0.98528 0.0277362,0.14878 0.127087,0.244394 0.139547,0.421402 0.00470472,0.25839 -0.0854016,0.179917 -0.0689331,0.338272 0.0198583,0.190925 0.0110354,0.374063 0.0410079,0.498173l0 0.0357441 0.0357441 0 0.359264 0 0.0342598 0 0.00134646 -0.0343504c0.0217244,-0.150512 -0.0752795,-0.147925 -0.130126,-0.215146 0.0325827,-0.160878 0.134976,-0.358059 0.103331,-0.647402 0.21637,0.219516 0.344543,0.268555 0.999606,0.0670079 0.0237441,0.31422 0.132461,0.501177 0.100535,0.784752l0 0.0357441 0.0357441 0 0.34015 0 0.0452283 0c0.0269882,-0.139835 -0.0263898,-0.224957 -0.124094,-0.238091 -0.024126,-0.244102 0.0534409,-0.421528 0.0382362,-0.677756 -0.0109803,-0.185067 0.138079,-0.376146 0.137701,-0.518709 -0.0252992,-0.00792913 -0.0508346,-0.0178504 -0.0740157,-0.026563z"/>
  <path class="fil4" d="M3.84542 3.65498c-0.129992,0.0171535 -0.231953,-0.0894843 -0.301575,-0.206358 -0.134736,-0.226177 -0.201201,-0.476193 -0.149126,-0.750201 0.0228622,-0.12028 0.0696102,-0.177559 0.147413,-0.262327 0.0435354,-0.0474331 0.0951339,-0.0911181 0.146744,-0.125642 0.0399213,-0.0267047 0.0945157,-0.0497087 0.138831,-0.0629291 0.212827,-0.0635 0.3535,0.0589764 0.37063,0.29426 0.0209488,0.287661 -0.0236378,0.545705 -0.111059,0.828441 -0.0373386,0.120756 -0.11611,0.284756 -0.241508,0.284756l-0.000350394 0z"/>
  <path class="fil9" d="M4.37878 3.31329c0.339008,0.231748 0.497441,0.272378 0.901213,0.296909 -0.340362,0.0892441 -0.66589,-0.0467874 -0.95174,-0.223205 -0.00207874,-0.0437992 0.0167441,-0.0663504 0.0505276,-0.0737047z"/>
 </g>
</svg>
