<?xml version="1.0" encoding="UTF-8"?>
<!DOCTYPE svg PUBLIC "-//W3C//DTD SVG 1.1//EN" "http://www.w3.org/Graphics/SVG/1.1/DTD/svg11.dtd">
<!-- Creator: CorelDRAW -->
<svg xmlns="http://www.w3.org/2000/svg" xml:space="preserve" width="6.82666in" height="6.82666in" style="shape-rendering:geometricPrecision; text-rendering:geometricPrecision; image-rendering:optimizeQuality; fill-rule:evenodd; clip-rule:evenodd"
viewBox="0 0 6.82666 6.82666"
 xmlns:xlink="http://www.w3.org/1999/xlink">
 <defs>
  <style type="text/css">
   <![CDATA[
    .fil2 {fill:none}
    .fil12 {fill:#282928}
    .fil1 {fill:#00000000}
    .fil7 {fill:#C8E09A}
    .fil0 {fill:#00000000}
    .fil9 {fill:#D96609}
    .fil6 {fill:#E65100}
    .fil13 {fill:#ECEFF1}
    .fil8 {fill:#EF6C00}
    .fil5 {fill:#F4FAF8}
    .fil10 {fill:#FB8C00}
    .fil11 {fill:#FEFEFE}
    .fil3 {fill:#FF9100}
    .fil4 {fill:#FFAB40}
   ]]>
  </style>
   <clipPath id="id0">
    <path d="M3.41333 -3.93701e-006c1.88513,0 3.41333,1.5282 3.41333,3.41333 0,1.88513 -1.5282,3.41333 -3.41333,3.41333 -1.88513,0 -3.41333,-1.5282 -3.41333,-3.41333 0,-1.88513 1.5282,-3.41333 3.41333,-3.41333z"/>
   </clipPath>
 </defs>
 <g id="Layer_x0020_1">
  <metadata id="CorelCorpID_0Corel-Layer"/>
  <path class="fil0" d="M3.41333 -3.93701e-006c1.88513,0 3.41333,1.5282 3.41333,3.41333 0,1.88513 -1.5282,3.41333 -3.41333,3.41333 -1.88513,0 -3.41333,-1.5282 -3.41333,-3.41333 0,-1.88513 1.5282,-3.41333 3.41333,-3.41333z"/>
  <g style="clip-path:url(#id0)">
   <g id="_637664440">
    <g>
     <polygon id="_2161446321" class="fil1" points="3.12728,3.80098 6.91355,7.58725 6.9139,7.58742 3.12763,3.80115 "/>
     <path id="_216144584" class="fil1" d="M6.91223 7.58648l0 0zm-3.78627 -3.78627l0 0z"/>
     <polygon id="_216146072" class="fil1" points="3.00996,3.7403 6.79623,7.52657 6.79307,7.52463 3.0068,3.73836 "/>
     <polygon id="_216145976" class="fil1" points="3.01233,3.74135 6.7986,7.52762 6.78047,7.51762 2.9942,3.73135 "/>
     <polygon id="_216146096" class="fil1" points="2.75784,3.60485 6.54411,7.39112 6.54413,7.39113 6.54416,7.39114 6.54419,7.39115 6.54421,7.39116 2.75794,3.60489 2.75792,3.60488 2.75789,3.60487 2.75787,3.60486 "/>
     <polygon id="_216146192" class="fil1" points="2.75794,3.60489 6.54421,7.39116 6.54264,7.39061 6.54107,7.39007 6.5395,7.38954 6.53792,7.389 6.53635,7.38848 6.53477,7.38795 6.53319,7.38744 6.53161,7.38693 2.74534,3.60065 2.74692,3.60117 2.7485,3.60168 2.75008,3.6022 2.75165,3.60273 2.75323,3.60326 2.7548,3.6038 2.75637,3.60434 "/>
     <polygon id="_216146000" class="fil1" points="4.33743,2.89731 8.1237,6.68358 8.12293,6.68356 4.33666,2.89729 "/>
     <polygon id="_216146024" class="fil1" points="5.20318,3.40652 8.98945,7.1928 9.00587,7.21129 9.02037,7.22828 9.03291,7.24363 9.04349,7.25719 9.05208,7.26882 9.05866,7.27838 9.06322,7.28572 9.06573,7.29069 9.06618,7.29316 5.27991,3.50689 5.27946,3.50442 5.27695,3.49944 5.27239,3.49211 5.26581,3.48255 5.25722,3.47092 5.24665,3.45736 5.2341,3.44201 5.21961,3.42502 "/>
     <polygon id="_216146120" class="fil1" points="5.27991,3.50689 9.06618,7.29316 9.06407,7.29702 9.06184,7.3009 9.0595,7.3048 9.05705,7.3087 9.0545,7.31262 9.05187,7.31655 9.04915,7.32049 9.04636,7.32444 5.26009,3.53817 5.26288,3.53422 5.2656,3.53028 5.26824,3.52635 5.27078,3.52243 5.27323,3.51852 5.27557,3.51463 5.2778,3.51075 "/>
     <polygon id="_216146216" class="fil1" points="5.26061,3.53802 9.04688,7.32429 9.03939,7.33439 5.25313,3.54812 "/>
     <polygon id="_216146288" class="fil1" points="5.25313,3.54812 9.03939,7.33439 9.03662,7.33806 9.03359,7.34188 9.03033,7.34583 9.02688,7.34988 9.02327,7.354 9.01952,7.35817 9.01566,7.36237 9.01174,7.36656 9.00776,7.37072 9.00377,7.37482 8.9998,7.37883 8.99587,7.38274 8.99202,7.3865 8.98827,7.3901 8.98466,7.39351 8.98121,7.3967 5.19494,3.61043 5.19839,3.60724 5.202,3.60383 5.20575,3.60023 5.20961,3.59646 5.21353,3.59256 5.2175,3.58855 5.22149,3.58445 5.22547,3.58029 5.22939,3.5761 5.23325,3.5719 5.237,3.56773 5.24061,3.56361 5.24406,3.55956 5.24732,3.55561 5.25035,3.55179 "/>
     <polygon id="_216146360" class="fil1" points="5.19525,3.61036 8.98152,7.39663 8.95673,7.41843 5.17046,3.63216 "/>
     <polygon id="_216145856" class="fil1" points="5.17046,3.63216 8.95673,7.41843 8.94962,7.42414 8.9427,7.42965 8.93593,7.43497 8.92929,7.44013 8.92274,7.44516 8.91624,7.45006 8.90978,7.45487 8.9033,7.45961 8.89678,7.46429 8.89019,7.46894 8.8835,7.47358 8.87666,7.47823 8.86966,7.48292 8.86245,7.48766 8.855,7.49248 8.84729,7.4974 5.06102,3.71113 5.06874,3.70621 5.07618,3.70139 5.08339,3.69665 5.09039,3.69196 5.09723,3.68731 5.10393,3.68267 5.11052,3.67802 5.11703,3.67333 5.12351,3.6686 5.12998,3.66379 5.13647,3.65889 5.14302,3.65386 5.14966,3.6487 5.15643,3.64338 5.16335,3.63787 "/>
     <polygon id="_216146696" class="fil1" points="5.06102,3.71113 8.84729,7.4974 8.84712,7.49746 5.06085,3.71119 "/>
     <polygon id="_216146552" class="fil1" points="5.06085,3.71119 8.84712,7.49746 8.79904,7.52643 5.01278,3.74015 "/>
     <polygon id="_216146912" class="fil1" points="5.01278,3.74015 8.79904,7.52643 8.69316,7.58205 4.90689,3.79578 "/>
     <polygon id="_216146720" class="fil1" points="4.90689,3.79578 8.69316,7.58205 8.58233,7.63121 4.79607,3.84494 "/>
     <polygon id="_216146792" class="fil1" points="4.79607,3.84494 8.58233,7.63121 8.52027,7.65511 4.734,3.86884 "/>
     <polygon id="_216146960" class="fil1" points="4.734,3.86884 8.52027,7.65511 8.51563,7.65689 8.51077,7.65871 8.5057,7.66059 8.50044,7.6625 8.495,7.66446 8.4894,7.66644 8.48364,7.66846 8.47774,7.6705 8.47172,7.67257 8.46559,7.67465 8.45937,7.67674 8.45307,7.67884 8.4467,7.68094 8.44027,7.68304 8.43381,7.68513 8.42732,7.68721 8.42082,7.68928 8.41432,7.69133 8.40784,7.69335 8.40139,7.69535 8.39498,7.69731 8.38864,7.69924 8.38237,7.70113 8.37619,7.70297 8.3701,7.70476 8.36413,7.70649 8.35829,7.70817 8.35259,7.70978 8.34706,7.71132 8.34169,7.71279 8.33651,7.71419 8.33152,7.7155 4.54526,3.92922 4.55024,3.92791 4.55542,3.92652 4.56079,3.92505 4.56633,3.9235 4.57202,3.92189 4.57786,3.92022 4.58383,3.91848 4.58992,3.9167 4.5961,3.91486 4.60237,3.91297 4.60872,3.91104 4.61512,3.90908 4.62157,3.90708 4.62805,3.90506 4.63455,3.90301 4.64105,3.90094 4.64754,3.89886 4.654,3.89677 4.66043,3.89467 4.6668,3.89257 4.67311,3.89047 4.67933,3.88838 4.68546,3.8863 4.69148,3.88423 4.69737,3.88219 4.70313,3.88017 4.70874,3.87819 4.71418,3.87623 4.71944,3.87431 4.7245,3.87244 4.72937,3.87062 "/>
     <polygon id="_216146816" class="fil1" points="4.54526,3.92922 8.33152,7.7155 8.19731,7.74753 4.41104,3.96126 "/>
     <polygon id="_216146984" class="fil1" points="4.41104,3.96126 8.19731,7.74753 8.12881,7.76056 4.34254,3.97428 "/>
     <polygon id="_216146528" class="fil1" points="4.34254,3.97428 8.12881,7.76056 8.12257,7.76163 8.11625,7.76269 8.10985,7.76375 8.10338,7.76481 8.09685,7.76585 8.09025,7.76688 8.08359,7.76791 8.07689,7.76892 8.07014,7.76991 8.06335,7.7709 8.05652,7.77186 8.04967,7.77281 8.04278,7.77375 8.03588,7.77467 8.02897,7.77556 8.02204,7.77644 8.01511,7.7773 8.00819,7.77813 8.00127,7.77894 7.99436,7.77972 7.98747,7.78048 7.9806,7.78121 7.97376,7.78191 7.96694,7.78259 7.96017,7.78324 7.95344,7.78385 7.94676,7.78443 7.94013,7.78498 7.93357,7.7855 7.92706,7.78598 7.92063,7.78642 7.91426,7.78683 7.90489,7.78738 7.89551,7.7879 7.88613,7.78839 7.87676,7.78883 7.86739,7.78924 7.85802,7.78961 7.84865,7.78993 7.83929,7.79022 7.82992,7.79046 7.82056,7.79067 7.8112,7.79083 7.80183,7.79095 7.79248,7.79103 7.78311,7.79106 7.77376,7.79105 7.7644,7.791 7.75504,7.79089 7.74569,7.79074 7.73633,7.79055 7.72697,7.7903 7.71762,7.79001 7.70826,7.78967 7.69891,7.78928 7.68955,7.78883 7.6802,7.78835 7.67084,7.7878 7.66149,7.78721 7.65213,7.78656 7.64278,7.78586 7.63342,7.78511 7.62406,7.7843 7.6147,7.78343 3.82843,3.99716 3.83779,3.99802 3.84715,3.99883 3.85651,3.99959 3.86586,4.00029 3.87522,4.00094 3.88457,4.00153 3.89393,4.00207 3.90328,4.00256 3.91264,4.003 3.922,4.0034 3.93135,4.00374 3.9407,4.00403 3.95006,4.00428 3.95942,4.00447 3.96878,4.00462 3.97813,4.00472 3.98749,4.00478 3.99685,4.00479 4.00621,4.00476 4.01557,4.00468 4.02493,4.00456 4.03429,4.0044 4.04365,4.00419 4.05302,4.00395 4.06239,4.00366 4.07176,4.00333 4.08112,4.00296 4.0905,4.00256 4.09987,4.00211 4.10924,4.00163 4.11862,4.00111 4.128,4.00056 4.13436,4.00015 4.1408,3.9997 4.1473,3.99922 4.15387,3.99871 4.1605,3.99816 4.16718,3.99758 4.17391,3.99696 4.18068,3.99632 4.18749,3.99564 4.19433,3.99494 4.2012,3.99421 4.20809,3.99345 4.215,3.99267 4.22192,3.99185 4.22885,3.99102 4.23578,3.99017 4.2427,3.98929 4.24961,3.98839 4.25652,3.98748 4.2634,3.98654 4.27025,3.98559 4.27708,3.98463 4.28387,3.98364 4.29062,3.98265 4.29733,3.98163 4.30398,3.98061 4.31058,3.97958 4.31711,3.97854 4.32358,3.97748 4.32998,3.97642 4.3363,3.97535 "/>
     <polygon id="_216147080" class="fil1" points="3.82843,3.99716 7.6147,7.78343 7.4891,7.76815 3.70283,3.98188 "/>
     <polygon id="_216147296" class="fil1" points="3.70283,3.98188 7.4891,7.76815 7.43115,7.75815 3.64488,3.97188 "/>
     <polygon id="_216147848" class="fil1" points="3.64488,3.97188 7.43115,7.75815 7.36725,7.7453 3.58098,3.95902 "/>
     <polygon id="_216147920" class="fil1" points="3.58098,3.95902 7.36725,7.7453 7.31632,7.73331 3.53005,3.94704 "/>
     <polygon id="_216147320" class="fil1" points="3.53005,3.94704 7.31632,7.73331 7.25622,7.71734 3.46996,3.93107 "/>
     <polygon id="_216147344" class="fil1" points="3.46996,3.93107 7.25622,7.71734 7.14739,7.68341 3.36113,3.89713 "/>
     <polygon id="_216147896" class="fil1" points="3.36113,3.89713 7.14739,7.68341 7.08124,7.65961 3.29497,3.87334 "/>
     <polygon id="_216147248" class="fil1" points="3.29497,3.87334 7.08124,7.65961 7.01078,7.63121 3.22452,3.84494 "/>
     <polygon id="_216147224" class="fil1" points="3.22452,3.84494 7.01078,7.63121 6.959,7.60844 3.17273,3.82217 "/>
     <polygon id="_216147392" class="fil1" points="3.17273,3.82217 6.959,7.60844 6.95921,7.60866 3.17294,3.82239 "/>
     <polygon id="_216147464" class="fil1" points="3.17294,3.82239 6.95921,7.60866 6.9445,7.60174 3.15824,3.81547 "/>
     <polygon id="_216147656" class="fil1" points="3.13422,3.80411 6.92048,7.59039 6.91273,7.58672 3.12646,3.80045 "/>
     <polygon id="_216148256" class="fil1" points="3.15877,3.81577 6.94504,7.60204 6.9139,7.58742 3.12763,3.80115 "/>
     <polygon id="_216148448" class="fil1" points="3.12699,3.80078 6.91326,7.58705 6.91219,7.58648 3.12592,3.80021 "/>
     <polygon id="_216148496" class="fil1" points="3.12592,3.80021 6.91219,7.58648 6.91178,7.58625 3.12551,3.79998 "/>
     <polygon id="_216148688" class="fil1" points="3.12551,3.79998 6.91178,7.58625 6.90932,7.58504 3.12305,3.79877 "/>
     <polygon id="_216148520" class="fil1" points="3.12305,3.79877 6.90932,7.58504 6.80372,7.53046 3.01745,3.74419 "/>
     <polygon id="_216148400" class="fil1" points="3.01745,3.74419 6.80372,7.53046 6.80107,7.529 3.01481,3.74273 "/>
     <polygon id="_216148640" class="fil1" points="3.01585,3.74341 6.80211,7.52968 6.79778,7.52725 3.01151,3.74098 "/>
     <polygon id="_216148160" class="fil1" points="3.01151,3.74098 6.79778,7.52725 6.79623,7.52657 3.00996,3.7403 "/>
     <polygon id="_216148424" class="fil1" points="2.9942,3.73135 6.78047,7.51762 6.73657,7.49232 2.95031,3.70605 "/>
     <polygon id="_216148592" class="fil1" points="2.85052,3.64709 6.63679,7.43337 6.63511,7.43244 2.84884,3.64617 "/>
     <polygon id="_216149000" class="fil1" points="2.88004,3.66421 6.66631,7.45048 6.63679,7.43359 2.85052,3.64732 "/>
     <polygon id="_216149408" class="fil1" points="2.95031,3.70605 6.73657,7.49232 6.66631,7.45071 2.88004,3.66444 "/>
     <polygon id="_216149048" class="fil1" points="2.84884,3.64617 6.63511,7.43244 6.59899,7.41415 2.81272,3.62787 "/>
     <polygon id="_216149264" class="fil1" points="2.81272,3.62787 6.59899,7.41415 6.56376,7.39851 2.77749,3.61224 "/>
     <polygon id="_216149312" class="fil1" points="2.77749,3.61224 6.56376,7.39851 6.56195,7.39779 6.56015,7.39708 6.55834,7.39637 6.55653,7.39567 6.55472,7.39498 6.5529,7.39429 6.55109,7.39361 6.54927,7.39293 2.763,3.60666 2.76482,3.60734 2.76663,3.60802 2.76845,3.60871 2.77026,3.6094 2.77207,3.6101 2.77388,3.61081 2.77569,3.61152 "/>
     <polygon id="_216149192" class="fil1" points="2.763,3.60666 6.54927,7.39293 6.54904,7.39286 6.5488,7.39278 6.54857,7.3927 6.54833,7.39263 6.5481,7.39254 6.54787,7.39246 6.54763,7.39237 6.5474,7.39229 2.76113,3.60602 2.76137,3.6061 2.7616,3.60619 2.76183,3.60627 2.76207,3.60635 2.7623,3.60643 2.76253,3.60651 2.76277,3.60659 "/>
     <polygon id="_216148760" class="fil1" points="2.76113,3.60602 6.5474,7.39229 6.54421,7.39116 2.75794,3.60489 "/>
     <polygon id="_216149432" class="fil1" points="2.75227,3.60298 6.53854,7.38926 6.53923,7.38949 6.53993,7.38972 6.54063,7.38995 6.54132,7.39019 6.54202,7.39042 6.54272,7.39065 6.54341,7.39089 6.54411,7.39112 2.75784,3.60485 2.75714,3.60461 2.75645,3.60438 2.75575,3.60415 2.75506,3.60391 2.75436,3.60368 2.75366,3.60345 2.75296,3.60322 "/>
     <polygon id="_216148880" class="fil1" points="2.74534,3.60065 6.53161,7.38693 6.5315,7.3869 6.5314,7.38687 6.53129,7.38684 6.53119,7.38681 6.53108,7.38678 6.53098,7.38674 6.53087,7.38671 6.53077,7.38668 2.7445,3.60041 2.74461,3.60044 2.74471,3.60047 2.74481,3.6005 2.74492,3.60054 2.74502,3.60057 2.74513,3.60059 2.74523,3.60063 "/>
     <polygon id="_216149120" class="fil1" points="2.7445,3.60041 6.53077,7.38668 6.5295,7.3863 2.74323,3.60003 "/>
     <polygon id="_216148928" class="fil1" points="2.74323,3.60003 6.5295,7.3863 6.51747,7.38273 2.7312,3.59646 "/>
     <polygon id="_216149624" class="fil1" points="2.7312,3.59646 6.51747,7.38273 6.51698,7.38259 6.5165,7.38246 6.51602,7.38232 6.51554,7.38219 6.51506,7.38205 6.51457,7.38191 6.51409,7.38177 6.51361,7.38163 2.72735,3.59536 2.72783,3.5955 2.72831,3.59564 2.72879,3.59578 2.72927,3.59591 2.72975,3.59605 2.73024,3.59619 2.73072,3.59632 "/>
     <polygon id="_216149840" class="fil1" points="2.72735,3.59536 6.51361,7.38163 6.513,7.38148 6.51238,7.38132 6.51176,7.38116 6.51115,7.381 6.51054,7.38084 6.50992,7.38068 6.50931,7.38052 6.50869,7.38036 2.72243,3.59409 2.72304,3.59424 2.72365,3.59441 2.72427,3.59457 2.72488,3.59472 2.7255,3.59489 2.72611,3.59505 2.72673,3.5952 "/>
     <polygon id="_216149816" class="fil1" points="2.72243,3.59409 6.50869,7.38036 6.50835,7.38027 6.50802,7.38019 6.50768,7.3801 6.50734,7.38002 6.507,7.37993 6.50666,7.37984 6.50633,7.37976 6.50599,7.37967 2.71972,3.59339 2.72006,3.59348 2.72039,3.59357 2.72073,3.59366 2.72107,3.59374 2.72141,3.59383 2.72175,3.59392 2.72209,3.594 "/>
     <polygon id="_216149720" class="fil1" points="2.04977,3.06816 5.83604,6.85443 5.82627,6.84569 5.81642,6.83761 5.80652,6.83024 5.79638,6.82304 5.78585,6.81547 5.77496,6.80757 5.76378,6.79938 5.75235,6.79094 5.74071,6.78229 5.72891,6.77346 5.717,6.7645 5.70502,6.75545 5.69303,6.74634 5.68107,6.73722 5.66918,6.72811 5.65741,6.71907 5.64581,6.71014 5.63443,6.70134 5.62331,6.69272 5.6125,6.68432 5.60206,6.67618 5.59201,6.66833 5.58241,6.66083 5.57331,6.65369 5.56476,6.64697 5.5568,6.64071 5.54948,6.63494 5.54285,6.6297 5.53694,6.62503 5.53182,6.62098 5.52752,6.61757 5.52409,6.61485 5.52159,6.61286 5.52006,6.61164 5.51953,6.61122 1.73326,2.82495 1.73379,2.82537 1.73532,2.82659 1.73783,2.82858 1.74125,2.8313 1.74555,2.8347 1.75067,2.83876 1.75658,2.84343 1.76321,2.84867 1.77054,2.85444 1.7785,2.8607 1.78705,2.86742 1.79615,2.87456 1.80574,2.88206 1.81579,2.88991 1.82624,2.89805 1.83704,2.90645 1.84816,2.91507 1.85954,2.92387 1.87114,2.9328 1.88291,2.94184 1.8948,2.95094 1.90676,2.96007 1.91876,2.96918 1.93073,2.97823 1.94264,2.98719 1.95444,2.99602 1.96608,3.00467 1.97752,3.01311 1.9887,3.0213 1.99958,3.0292 2.01011,3.03676 2.02025,3.04396 2.03015,3.05134 2.04,3.05942 "/>
     <polygon id="_216149552" class="fil1" points="2.57254,3.58761 6.3588,7.37388 6.35359,7.3749 6.34834,7.37603 6.34306,7.37727 6.33776,7.37861 6.33244,7.38005 6.3271,7.38158 6.32175,7.38322 6.31639,7.38495 6.31103,7.38677 6.30567,7.38868 6.30031,7.39068 6.29496,7.39276 6.28963,7.39493 6.28431,7.39718 6.27901,7.39951 6.27373,7.40192 6.26849,7.4044 6.26328,7.40695 6.2581,7.40958 6.25297,7.41227 6.24789,7.41503 6.24285,7.41786 6.23787,7.42074 6.23294,7.42369 6.22808,7.42669 6.22329,7.42976 6.21856,7.43287 6.21392,7.43603 6.20935,7.43925 6.20486,7.44251 6.20046,7.44581 6.19615,7.44917 2.40989,3.66289 2.41419,3.65954 2.41859,3.65624 2.42308,3.65298 2.42765,3.64976 2.4323,3.64659 2.43702,3.64348 2.44181,3.64042 2.44668,3.63742 2.4516,3.63447 2.45658,3.63159 2.46162,3.62876 2.4667,3.626 2.47183,3.62331 2.47701,3.62068 2.48222,3.61813 2.48746,3.61565 2.49274,3.61324 2.49804,3.61091 2.50336,3.60866 2.5087,3.60649 2.51404,3.60441 2.5194,3.60241 2.52476,3.6005 2.53013,3.59868 2.53548,3.59695 2.54083,3.59531 2.54617,3.59378 2.5515,3.59233 2.5568,3.591 2.56207,3.58976 2.56732,3.58863 "/>
     <polygon id="_216149576" class="fil1" points="2.40989,3.66289 6.19615,7.44917 6.1102,7.51446 2.32393,3.72819 "/>
     <polygon id="_216149888" class="fil1" points="2.32393,3.72819 6.1102,7.51446 6.10698,7.51668 6.10357,7.519 6.09999,7.52141 6.09624,7.5239 6.09233,7.52646 6.08829,7.5291 6.08412,7.53179 6.07983,7.53453 6.07544,7.53731 6.07096,7.54013 6.06639,7.54298 6.06176,7.54584 6.05707,7.54871 6.05234,7.55158 6.04758,7.55444 6.0428,7.5573 6.03801,7.56012 6.03323,7.56291 6.02846,7.56567 6.02373,7.56837 6.01904,7.57102 6.0144,7.5736 6.00983,7.57611 6.00533,7.57855 6.00093,7.58089 5.99663,7.58313 5.99245,7.58527 5.98839,7.5873 5.98447,7.5892 5.9807,7.59097 5.9771,7.5926 5.97368,7.59409 2.18741,3.80782 2.19083,3.80633 2.19444,3.8047 2.1982,3.80293 2.20212,3.80102 2.20618,3.799 2.21037,3.79686 2.21467,3.79461 2.21907,3.79228 2.22356,3.78984 2.22813,3.78733 2.23277,3.78475 2.23746,3.7821 2.2422,3.77939 2.24696,3.77664 2.25174,3.77385 2.25653,3.77102 2.26131,3.76817 2.26607,3.76531 2.2708,3.76244 2.27549,3.75957 2.28012,3.7567 2.28469,3.75386 2.28917,3.75104 2.29356,3.74826 2.29785,3.74552 2.30202,3.74283 2.30607,3.74019 2.30997,3.73763 2.31372,3.73513 2.3173,3.73272 2.32071,3.73041 "/>
     <polygon id="_216114920" class="fil1" points="2.18741,3.80782 5.97368,7.59409 5.96898,7.59632 5.9643,7.59852 5.95962,7.60069 5.95495,7.60281 5.95028,7.60491 5.94562,7.60698 5.94097,7.609 5.93632,7.611 5.93169,7.61297 5.92705,7.6149 5.92243,7.6168 5.91781,7.61867 5.9132,7.6205 5.9086,7.6223 5.904,7.62407 5.89942,7.62581 5.89484,7.62752 5.89027,7.6292 5.88571,7.63085 5.88115,7.63246 5.87661,7.63405 5.87207,7.63561 5.86754,7.63713 5.86302,7.63863 5.85852,7.64009 5.85402,7.64153 5.84952,7.64294 5.84504,7.64431 5.84057,7.64566 5.83611,7.64698 5.83165,7.64827 5.82721,7.64954 2.04094,3.86326 2.04539,3.862 2.04984,3.86071 2.0543,3.85939 2.05877,3.85804 2.06326,3.85667 2.06775,3.85526 2.07225,3.85382 2.07676,3.85235 2.08128,3.85086 2.0858,3.84933 2.09034,3.84778 2.09489,3.84619 2.09944,3.84458 2.104,3.84293 2.10857,3.84125 2.11315,3.83954 2.11774,3.8378 2.12233,3.83603 2.12693,3.83423 2.13154,3.83239 2.13616,3.83053 2.14078,3.82863 2.14542,3.8267 2.15006,3.82473 2.1547,3.82273 2.15935,3.8207 2.16402,3.81864 2.16868,3.81654 2.17335,3.81441 2.17803,3.81225 2.18272,3.81005 "/>
     <polygon id="_216114200" class="fil1" points="2.04094,3.86326 5.82721,7.64954 5.82082,7.65131 2.03456,3.86504 "/>
     <polygon id="_216114488" class="fil1" points="2.03456,3.86504 5.82082,7.65131 5.80493,7.65549 5.78912,7.65933 5.7734,7.66285 5.75778,7.66606 5.74226,7.66896 5.72685,7.67156 5.71156,7.67386 5.69637,7.67587 5.68132,7.6776 5.66639,7.67905 5.65159,7.68022 5.63693,7.68113 5.62241,7.68178 5.60804,7.68218 5.59383,7.68232 5.57977,7.68223 5.56588,7.68189 5.55215,7.68133 5.5386,7.68055 5.52522,7.67954 5.51204,7.67833 5.49904,7.67691 5.48622,7.67529 5.47362,7.67348 5.46121,7.67147 5.44902,7.66929 5.43704,7.66693 5.42528,7.66441 5.41374,7.66172 5.40243,7.65887 5.39135,7.65587 5.38052,7.65272 1.59425,3.86645 1.60509,3.8696 1.61616,3.87259 1.62747,3.87544 1.63901,3.87813 1.65077,3.88066 1.66275,3.88302 1.67494,3.8852 1.68735,3.8872 1.69996,3.88902 1.71277,3.89064 1.72577,3.89206 1.73896,3.89327 1.75233,3.89428 1.76589,3.89506 1.77961,3.89562 1.7935,3.89596 1.80756,3.89605 1.82178,3.89591 1.83615,3.89551 1.85066,3.89486 1.86532,3.89395 1.88012,3.89278 1.89505,3.89133 1.91011,3.8896 1.92529,3.88759 1.94059,3.88529 1.956,3.88269 1.97152,3.87979 1.98713,3.87658 2.00285,3.87306 2.01866,3.86922 "/>
     <polygon id="_216114680" class="fil1" points="1.59425,3.86645 5.38052,7.65272 5.3785,7.6521 5.37604,7.65131 5.37321,7.65037 5.37008,7.64929 5.36671,7.64809 5.36317,7.6468 5.35952,7.64542 5.35584,7.64397 5.35218,7.64248 5.34862,7.64094 5.34522,7.6394 5.34204,7.63785 5.33916,7.63632 5.33663,7.63482 5.33454,7.63338 5.33293,7.632 1.54666,3.84573 1.54827,3.84711 1.55037,3.84855 1.55289,3.85005 1.55578,3.85158 1.55895,3.85313 1.56235,3.85467 1.56591,3.8562 1.56957,3.8577 1.57326,3.85915 1.5769,3.86053 1.58044,3.86182 1.58381,3.86302 1.58694,3.86409 1.58977,3.86504 1.59223,3.86583 "/>
     <polygon id="_216114176" class="fil1" points="2.71972,3.59339 6.50599,7.37967 6.50148,7.37856 6.49697,7.37751 6.49245,7.37651 6.48793,7.37556 6.48341,7.37467 6.47887,7.37384 6.47433,7.37307 6.46979,7.37235 6.46524,7.37169 6.46069,7.37109 6.45612,7.37054 6.45155,7.37006 6.44698,7.36964 6.44239,7.36928 6.4378,7.36898 6.4332,7.36875 6.42859,7.36858 6.42398,7.36847 6.41936,7.36843 6.41473,7.36845 6.41009,7.36854 6.40544,7.3687 6.40079,7.36892 6.39612,7.36921 6.39144,7.36957 6.38676,7.37 6.38207,7.3705 6.37737,7.37107 6.37265,7.37172 6.36793,7.37243 6.36319,7.37322 6.35845,7.37408 2.57218,3.58781 2.57693,3.58694 2.58166,3.58616 2.58638,3.58544 2.5911,3.5848 2.5958,3.58423 2.60049,3.58373 2.60518,3.5833 2.60985,3.58294 2.61452,3.58265 2.61917,3.58243 2.62382,3.58227 2.62846,3.58218 2.63309,3.58216 2.63771,3.5822 2.64233,3.58231 2.64693,3.58248 2.65153,3.58271 2.65612,3.58301 2.66071,3.58337 2.66528,3.58379 2.66985,3.58427 2.67442,3.58481 2.67897,3.58542 2.68352,3.58608 2.68807,3.5868 2.69261,3.58757 2.69714,3.5884 2.70167,3.58929 2.70619,3.59024 2.7107,3.59124 2.71521,3.59229 "/>
    </g>
    <path id="_637663960" class="fil1" d="M3.12763 3.80115l-0.000350394 -0.000165354 0.000350394 0.000165354zm-0.00166929 -0.000937008l0 0zm-0.114453 -0.0592323l-0.00154331 -0.000677165 -0.00316142 -0.00194094 0.00470472 0.00261811zm-0.253563 -0.136087l-0.00567717 -0.00190551c0.0018622,0.00061811 0.00371654,0.00123622 0.00557087,0.00186614 3.54331e-005,1.5748e-005 7.08661e-005,2.75591e-005 0.000106299,3.93701e-005zm0.400823 -0.555087c0.242106,-0.10387 0.562559,-0.208122 0.947193,-0.184787 0.074937,0.00453543 0.158205,0.0159961 0.231472,0.0322953l-0.000771654 -2.3622e-005c0.600299,0.132559 0.949555,0.597122 0.943248,0.609602 -0.00544882,0.0102795 -0.0122874,0.0207362 -0.0198189,0.0312756l0.000519685 -0.000149606 -0.00748425 0.0101063c-0.0140787,0.0190827 -0.0402835,0.0459252 -0.058185,0.0623071l0.000307087 -6.69291e-005 -0.0247874 0.0217992c-0.0384843,0.0310354 -0.0675157,0.0524409 -0.109441,0.0789646l-0.000165354 6.69291e-005 -0.0480787 0.0289606 -0.105886 0.055622 -0.110823 0.0491654 -0.062063 0.0239016c-0.048248,0.0186339 -0.136713,0.0468386 -0.188748,0.0603819l-0.134217 0.0320354 -0.0684961 0.0130236c-0.0660945,0.0114646 -0.147102,0.0221378 -0.214547,0.0262717 -0.100047,0.00612992 -0.199736,0.00611417 -0.299563,-0.0033937l-0.125602 -0.0152835 -0.0579488 -0.00999606 -0.0639016 -0.0128583 -0.0509291 -0.0119882 -0.0600945 -0.0159685 -0.108831 -0.0339331 -0.0661535 -0.0237913 -0.0704567 -0.0284016 -0.0517835 -0.0227717 0.000208661 0.000216535 -0.0147047 -0.00691732 0.000531496 0.000299213 -0.0311378 -0.014622 0.00658661 0.0029685 -0.00775197 -0.00366142 0.000523622 0.000326772 -0.00106693 -0.000570866 -0.000413386 -0.000228346 -0.00245669 -0.00120866 -0.105598 -0.0545787 -0.00264567 -0.00146457 0.00103937 0.000677165 -0.00433858 -0.00242913 0.000826772 0.000370079 -0.0181299 -0.00999606 -0.0438976 -0.0252992 -0.0702638 -0.0416102 -3.93701e-006 -0.000232283 -0.0295157 -0.0168858 0 -0.000228346 -0.00168504 -0.000925197 -0.0361142 -0.0182953 -0.0352362 -0.0156378c-0.00480709,-0.0019252 -0.0096378,-0.00377559 -0.0144843,-0.0055748 -0.000629921,-0.000192913 -0.00124803,-0.000417323 -0.00187008,-0.000641732l-0.00318898 -0.00112992c-0.00418504,-0.0014685 -0.00838976,-0.00287795 -0.0126063,-0.00423622 -0.000279528,-7.48031e-005 -0.000559055,-0.000161417 -0.000834646,-0.000248031l-0.00127559 -0.000377953 -0.0120276 -0.00356693c-0.0012874,-0.000366142 -0.0025748,-0.000724409 -0.00385433,-0.00109843 -0.00164567,-0.000417323 -0.00328346,-0.000854331 -0.00492126,-0.00127559 -0.000901575,-0.000228346 -0.00180709,-0.000452756 -0.00270472,-0.000692913 -0.0480433,-0.0120827 -0.096874,-0.0151614 -0.147539,-0.00558661l0.000354331 -0.000200787c-0.0554291,0.0103386 -0.117209,0.0393386 -0.16265,0.0752874l-0.0859567 0.0652953c-0.0332677,0.0231024 -0.100953,0.0645748 -0.13652,0.0796299 -0.0500748,0.0239921 -0.099126,0.042126 -0.146469,0.0554449l-0.00638583 0.00177953c-0.17,0.0462638 -0.326035,0.0356969 -0.440303,0.00140945 -0.00950394,-0.00285039 -0.0404488,-0.0135827 -0.0475906,-0.0207244l0.0354409 -0.00195276c0.13187,-0.0155433 0.320335,-0.131457 0.407835,-0.227185 0.0956654,-0.104642 0.249591,-0.234173 0.249591,-0.234173 -0.0153465,-0.0595276 -0.11337,-0.26376 -0.219276,-0.338453 -0.105902,-0.074689 -0.286988,-0.219016 -0.286988,-0.219016 0.185846,-0.0179961 0.358677,0.0530315 0.515945,0.145693 0.109051,0.0642559 0.237142,0.15889 0.322654,0.212232 0.0337402,0.0210472 0.0885984,0.0527047 0.128669,0.0552087 0.0771654,0.00505906 0.23424,-0.0914173 0.458236,-0.18828z"/>
   </g>
  </g>
  <path class="fil2" d="M3.41333 -3.93701e-006c1.88513,0 3.41333,1.5282 3.41333,3.41333 0,1.88513 -1.5282,3.41333 -3.41333,3.41333 -1.88513,0 -3.41333,-1.5282 -3.41333,-3.41333 0,-1.88513 1.5282,-3.41333 3.41333,-3.41333z"/>
  <path class="fil3" d="M5.27991 3.50809c0.00737795,-0.0141181 -0.433295,-0.604571 -1.17387,-0.649921 -0.384469,-0.0235433 -0.70513,0.0819094 -0.947157,0.187354 -0.224213,0.0976693 -0.380957,0.195358 -0.458476,0.190504 -0.161236,-0.0100591 -0.544118,-0.463488 -0.967303,-0.418157 0,-3.93701e-006 0.181366,0.146094 0.287161,0.221665 0.105815,0.0755709 0.204043,0.282154 0.219146,0.342606 0,0 -0.153665,0.130972 -0.249386,0.236803 -0.0957244,0.105799 -0.312358,0.236776 -0.443354,0.231744 0.0251929,0.0251811 0.437614,0.167413 0.846409,-0.171311 0.176335,-0.146098 0.337555,-0.100764 0.473579,-0.0201457 0.136031,0.0805984 0.534043,0.34765 1.11846,0.352677 0.584417,0.00503937 1.1789,-0.282134 1.29479,-0.503819z"/>
  <path class="fil4" d="M4.33737 2.89102c-0.158205,-0.00453543 -0.391539,0.00519291 -0.634394,0.0729488 -0.43328,0.120937 -0.765787,0.352701 -0.866555,0.466862 -0.0462638,0.0524409 -0.123677,0.106996 -0.198433,0.153272 -0.077315,-0.00142913 -0.159335,0.0243819 -0.244917,0.0952992 -0.0688465,0.0570472 -0.137791,0.100398 -0.20498,0.133016 -0.0468228,0.0192874 -0.0971142,0.0387756 -0.148205,0.0566535 -0.265488,0.0752008 -0.475465,-0.000633858 -0.493205,-0.018378 0.130984,0.0050315 0.34761,-0.125945 0.44335,-0.231756 0.0957205,-0.105799 0.24937,-0.236791 0.24937,-0.236791 -0.0151063,-0.0604528 -0.113346,-0.267016 -0.219146,-0.342587 -0.105799,-0.0755748 -0.287161,-0.221665 -0.287161,-0.221665 0.0201339,-0.00216142 0.0401929,-0.00318504 0.0601339,-0.00318504 0.399016,0 0.753626,0.411752 0.907169,0.421343l0 -3.93701e-006c0.0775197,0.00485039 0.234283,-0.0928307 0.458461,-0.190504 0.242039,-0.105453 0.562685,-0.210878 0.947157,-0.18735 0.080752,0.00494094 0.157929,0.0163701 0.231354,0.0328268z"/>
  <path class="fil5" d="M3.17344 3.82731l-0.000425197 -0.000192913 0.000417323 0.000192913 7.87402e-006 0zm-0.000425197 -0.000192913l-0.0011063 -0.000511811 0.000720472 0.000334646 0.000385827 0.000177165zm-0.0142717 -0.00663386l-0.00364173 -0.00171654 0.00120866 0.000574803 0.000767717 0.000366142 0.000909449 0.000425197 0.000755906 0.000350394zm-0.0155906 -0.00738976l-0.00318504 -0.00152362 -0.0117362 -0.00567717 -0.00370472 -0.00181102 0.00122441 0.000602362 0.000468504 0.000232283 0.00106693 0.000515748 0.0136654 0.00661024 0.0011063 0.000531496 0.00109449 0.000519685zm-0.0307126 -0.0149803l-0.00113386 -0.000562992 5.90551e-005 3.14961e-005 0.0010748 0.000531496zm-0.00113386 -0.000562992l-5.11811e-005 -2.75591e-005 -7.87402e-006 0 -0.00108268 -0.000543307 0.00109055 0.000543307m-0.0156457 -0.00787008l-0.0114724 -0.0058622c0.00378346,0.00195276 0.0076063,0.00390551 0.0114606,0.0058622l1.1811e-005 0zm-0.0275 -0.0141929l-0.0120551 -0.00637008 0.00218504 0.00116142 0.00987008 0.00520866zm-0.0120551 -0.00637008l-0.00096063 -0.000507874 -0.000448819 -0.000240157 -3.93701e-006 -3.93701e-006 0.000452756 0.000244094m-0.0376102 -0.0204646l-0.00073622 -0.000409449 0.00332283 0.00184252 -0.00258661 -0.00143307zm-0.00073622 -0.000409449l-0.000137795 -7.48031e-005 0.000137795 7.48031e-005zm-0.000137795 -7.48031e-005l-0.000877953 -0.000492126 -0.00227165 -0.00126772 -0.00326772 -0.00182283 -0.00324016 -0.00181496 0.00877953 0.00490551m-0.00877953 -0.00490551l-0.00245669 -0.00137795 0.00245669 0.00137795zm-0.00245669 -0.00137795l-0.000759843 -0.000429134 0.000759843 0.000429134zm-0.000759843 -0.000429134l-0.00948819 -0.00537008 3.93701e-006 0 0.0031378 0.00177953 0.00316142 0.00179134 0.00318504 0.00179921zm-0.0125945 -0.00714173l-0.0091811 -0.00525984 3.93701e-006 -3.93701e-006 -0.000625984 -0.000354331 0.000622047 0.000358268m-0.000622047 -0.000358268l-0.00238189 -0.00137795 0.00238189 0.00137795zm-0.00238189 -0.00137795l-0.00298031 -0.00172047 0.00298031 0.00172047zm-0.00298031 -0.00172047l-0.00295276 -0.0017126 0 -3.93701e-006 0.00295276 0.00171654zm-0.00567717 -0.00329134l-0.000204724 -0.000122047 -0.00290157 -0.00169291 0.000464567 0.000271654 0.00536614 0.00311811 -0.00272441 -0.0015748zm-0.0031063 -0.00181496l-0.00287402 -0.0016811 0.00287402 0.0016811zm0.0239488 0.0138189l0.00159449 0.000917323 0.00151575 0.000858268m0.0596378 0.032878l0.000751969 0.000401575 -0.000248031 -0.000129921 -0.000503937 -0.000271654zm-0.062748 -0.0346496l0 -3.93701e-006m-0.185071 -0.106343l0 -3.93701e-006c-0.052937,-0.0248504 -0.109126,-0.0417638 -0.168067,-0.0428425 -3.93701e-006,-3.93701e-006 1.5748e-005,0 0,0 0.0484724,0.000901575 0.0951063,0.0125118 0.139591,0.0304213l0.000228346 9.44882e-005 7.48031e-005 3.14961e-005 0.00491732 0.00201181 0.000744094 0.000311024 0.000185039 7.87402e-005c0.00566142,0.0023622 0.0112913,0.00482283 0.0168819,0.00737795l0.000318898 0.000141732 0.00508268 0.00235827 4.33071e-005 1.5748e-005 0.000192913 9.44882e-005 0.000480315 0.000228346 0.00444488 0.00211024 -0.0049252 -0.00233858 -0.000192913 -9.05512e-005z"/>
  <path class="fil6" d="M4.00415 4.01191c0.00596063,-1.9685e-005 0.011937,-5.51181e-005 0.0178976,-0.000129921l0.00846457 -0.000122047c0.00593307,-9.84252e-005 0.0118701,-0.000216535 0.0178071,-0.00038189l0.00871654 -0.000255906c0.00603543,-0.000192913 0.0120709,-0.000397638 0.0181024,-0.000649606l0.00747244 -0.000330709c0.00629528,-0.000279528 0.0125827,-0.000586614 0.0188701,-0.000933071l0.00752756 -0.000444882c0.00632283,-0.000374016 0.0126417,-0.000759843 0.0189567,-0.00119291l0.00661024 -0.000484252c0.00657874,-0.000472441 0.0131575,-0.000964567 0.0197323,-0.00150787l0.00567717 -0.000496063c0.00697638,-0.000598425 0.0139409,-0.00120472 0.0209016,-0.00187795l0.0024252 -0.000244094c0.0495866,-0.00483071 0.0988268,-0.0114882 0.147449,-0.0197756l0.00394094 -0.000661417c0.0066811,-0.00114961 0.0133425,-0.00234646 0.02,-0.00355906l0.00565354 -0.00102362c0.00627165,-0.00115748 0.0125315,-0.0023622 0.0187835,-0.00357087l0.0069252 -0.00133465c0.00620866,-0.00122441 0.0123937,-0.00248819 0.0185787,-0.00375984l0.00644882 -0.00132677c0.00625984,-0.00130709 0.0125039,-0.00265354 0.0187362,-0.00401575l0.0065 -0.00142126c0.00588583,-0.00129921 0.0117559,-0.0026378 0.0176142,-0.00398425l0.00806299 -0.0018622c0.00568898,-0.00132677 0.0113661,-0.00268504 0.0170354,-0.00405512l0.0073622 -0.00179528c0.0057874,-0.0014252 0.0115591,-0.00286614 0.017315,-0.00432677l0.00762598 -0.00195669c0.00562598,-0.00145276 0.0112362,-0.00291732 0.0168346,-0.00440551l0.00757087 -0.00203937c0.00564961,-0.00152362 0.0112874,-0.00306299 0.0168976,-0.00462598l0.00708268 -0.00199213c0.00576772,-0.00162205 0.0115276,-0.00325984 0.0172598,-0.00492913l0.00621654 -0.00182283c0.00591339,-0.00173622 0.0118189,-0.00347638 0.0176929,-0.00525984l0.0060315 -0.00185433c0.00587795,-0.00179528 0.0117598,-0.0036063 0.0175984,-0.00544094l0.00555118 -0.00176772c0.00601181,-0.00190945 0.0120236,-0.00383071 0.0179882,-0.00578346l0.00377559 -0.00125591c0.0277756,-0.00914567 0.0550236,-0.0187205 0.0816654,-0.028685l0.00501575 -0.0018622c0.00466929,-0.00176378 0.00930315,-0.00355118 0.0139331,-0.00533465 0.00278346,-0.00106693 0.00557874,-0.00212598 0.00834252,-0.00320472 0.00476378,-0.00185433 0.00948031,-0.00374016 0.0142008,-0.00561811l0.00757874 -0.00301181c0.00451575,-0.00181496 0.00898819,-0.00366142 0.0134606,-0.0055l0.00847638 -0.00348819c0.00420079,-0.00175197 0.00837008,-0.00352362 0.0125315,-0.0052874l0.00885433 -0.00376378c0.00400394,-0.00172047 0.00797638,-0.00345669 0.0119409,-0.00519291l0.00936614 -0.00412598c0.00385827,-0.00170866 0.00768504,-0.00343307 0.0115039,-0.00515748l0.00894882 -0.00407087 0.0114685 -0.00530315 0.00915748 -0.00430315 0.0108031 -0.00514961 0.00935827 -0.00453937c0.00348031,-0.00169685 0.00694882,-0.00339764 0.0103898,-0.00511024l0.00914961 -0.00458268c0.00342913,-0.00172441 0.00685433,-0.00345669 0.0102402,-0.00519291l0.00921654 -0.00476378c0.00329921,-0.00171654 0.00659843,-0.00342913 0.00985827,-0.00515748l0.00891339 -0.00475984c0.00323622,-0.00173622 0.00648031,-0.00347244 0.00967717,-0.0052126 0.0029685,-0.00161811 0.0058937,-0.00324409 0.00883071,-0.00487402 0.00316929,-0.00175591 0.00635827,-0.00350394 0.00948819,-0.00527165 0.00273228,-0.00153937 0.00541732,-0.00308268 0.00811811,-0.00462598 0.00326378,-0.00185827 0.0065315,-0.00371654 0.00974409,-0.00558268 0.00296457,-0.00172835 0.00587795,-0.00346457 0.00880709,-0.00519685 0.0027874,-0.00164567 0.00559449,-0.00328346 0.00834646,-0.00493701 0.00359055,-0.00215354 0.00711024,-0.0043189 0.0106417,-0.00648031 0.00211811,-0.00129921 0.00427953,-0.00259055 0.00637795,-0.0038937 0.00541732,-0.0033622 0.0107874,-0.00673228 0.0160433,-0.0101142l0.000177165 -0.000114173c0.00234252,-0.00150787 0.00462598,-0.00302362 0.00694488,-0.00452756 0.00304724,-0.00198425 0.00611024,-0.00395669 0.00911024,-0.00594488 0.00235827,-0.00156299 0.00465354,-0.00312992 0.00698031,-0.00470079 0.00290157,-0.00195276 0.0058189,-0.00390551 0.00866535,-0.0058622 0.00225984,-0.00155512 0.00446063,-0.00311024 0.00668898,-0.00466142 0.00286614,-0.002 0.00574016,-0.00400787 0.00855512,-0.00600787 0.00209055,-0.00149213 0.00412598,-0.00297638 0.00618898,-0.00446457 0.00279528,-0.00202362 0.00558661,-0.00405118 0.00833071,-0.00607087 0.00226772,-0.00167717 0.00449213,-0.0033622 0.00672441,-0.00503937 0.00244094,-0.00183465 0.00488583,-0.00367323 0.00728346,-0.00551181 0.00220472,-0.00169291 0.00437008,-0.00338976 0.00653937,-0.00508661 0.00237402,-0.00185433 0.00474016,-0.0037126 0.00707087,-0.00556693 0.00215748,-0.00172835 0.00427953,-0.00345276 0.00640157,-0.0051811 0.00225197,-0.00183858 0.00449606,-0.00367323 0.00670866,-0.00551575 0.00202756,-0.00168504 0.00402756,-0.00337795 0.00601575,-0.00506299 0.00218504,-0.00185433 0.00434252,-0.00370866 0.00647638,-0.00555906l0.00594094 -0.00522047c0.00204724,-0.0018189 0.00406299,-0.00363386 0.00606693,-0.00545276 0.00187795,-0.00170866 0.00374409,-0.00340945 0.00557874,-0.00511811 0.0019685,-0.00182677 0.0038937,-0.00365748 0.00581496,-0.00548819 0.0018622,-0.00177165 0.0037126,-0.00354724 0.00552756,-0.0053189 0.00177559,-0.00173622 0.00350787,-0.00347244 0.00524016,-0.00520079 0.00177165,-0.00177165 0.00353543,-0.00354331 0.00525591,-0.00531496 0.00175197,-0.00179921 0.00344882,-0.00359843 0.00514961,-0.0053937 0.00164961,-0.00173622 0.00329528,-0.00348031 0.0048937,-0.00521654 0.0016378,-0.00177953 0.0032126,-0.00355906 0.00479921,-0.00533465 0.00155512,-0.00173622 0.00312205,-0.00347244 0.00462205,-0.00520472 0.0015,-0.00173228 0.0029252,-0.00345276 0.00437402,-0.00517717 0.00151969,-0.00180315 0.00305512,-0.0036063 0.00451575,-0.00540157 0.00122835,-0.00151181 0.00237795,-0.00301969 0.00357087,-0.00452756 0.00156299,-0.00198425 0.00316142,-0.00397244 0.00465354,-0.00594882 0.001,-0.00131496 0.00191732,-0.00261417 0.00288189,-0.00392913 0.00155906,-0.00211417 0.00314567,-0.00424016 0.00462598,-0.00634646 -0.14815,0.0441457 -0.379965,0.0957402 -0.721992,0.129898 -0.127185,0.012685 -0.262646,0.0178543 -0.398283,0.0178543 -0.302744,0 -0.60626,-0.0257362 -0.820287,-0.0509528 -0.239543,-0.0282087 -0.432827,-0.0675787 -0.582508,-0.0675787 -0.0292205,-3.93701e-006 -0.0567795,0.00149213 -0.082689,0.00486614 -0.00564173,0.00356693 -0.0112756,0.0071063 -0.0168937,0.0105827 0.0569252,0.00103937 0.111287,0.0168622 0.162622,0.0403268l0.000318898 0.000141732 0.00505906 0.00234646 6.69291e-005 3.14961e-005 0.000192913 9.05512e-005 0.00237008 0.00112598 0.00255512 0.00121654 0.000688976 0.000330709 0.00019685 9.44882e-005 0.00088189 0.000429134 0.00353937 0.00172441 0.00088189 0.000433071 9.05512e-005 4.72441e-005 0.000791339 0.000393701 0.00440157 0.00220079 0.000374016 0.000192913 0.00553937 0.00283465 0.000220472 0.000114173c0.0072874,0.00377953 0.0145079,0.0076811 0.0216614,0.0117047l2.75591e-005 1.9685e-005c0.0034252,0.00192126 0.00683071,0.00387795 0.0102244,0.00585039l0.00057874 0.000334646 0.000275591 0.00015748 0.000850394 0.0005 0.000846457 0.000496063 0.00338976 0.002 0.00114173 0.000677165 0.00116142 0.000688976 0.00117323 0.00069685 0.00117717 0.000708661 0.00120079 0.000708661 0.000716535 0.000429134 0.000492126 0.000295276 0.00121654 0.000732283 0.00123622 0.000740157 0.00249213 0.00150394 0.00127559 0.000759843 0.00023622 0.000145669 0.00103937 0.000625984 0.00129134 0.000779528 0.00130709 0.000791339 0.00264567 0.00159843 0.00104724 0.000633858 0.000295276 0.000177165 0.00135433 0.000818898 0.00274409 0.00166535 0.00138583 0.000838583 0.00140551 0.000850394 0.000523622 0.000322835 0.000885827 0.000531496 0.0014252 0.000870079 0.00731102 0.00442913 0.0015 0.000905512 0.00150787 0.000917323 0.00151969 0.000917323 0.00153543 0.000933071 0.000862205 0.000523622 0.000685039 0.000409449 0.00155512 0.000940945 0.0015748 0.000952756 0.0015748 0.000952756 0.00159449 0.00096063 0.00161024 0.000972441 0.000240157 0.000145669 0.00137008 0.000826772 0.00163386 0.000980315 0.0016378 0.000984252 0.00165354 0.001 8.66142e-005 5.11811e-005 0.00494488 0.00296457 0.00170079 0.00101575 0.0017126 0.00102756 0.00172047 0.0010315 0.00173622 0.00103543 0.000582677 0.000350394 0.00116142 0.000688976 0.00176378 0.00104724 0.00176772 0.00105512 0.00178346 0.00105512 0.00179528 0.00106693 0.00166929 0.000996063 0.000133858 7.48031e-005 0.0018189 0.0010748 0.00183071 0.00107874 0.00184252 0.00108661 0.00185433 0.00109449 0.0018622 0.00109449 0.00187402 0.00109843 0.00188976 0.00111024 0.00190157 0.00111024 0.00287402 0.0016811 0.000464567 0.000271654 0.00536614 0.00311811 0.00295276 0.00171654 0.00298031 0.00172047 0.00238189 0.00137795 0.000622047 0.000354331 0.000338583 0.00019685 0.00813386 0.00465748 0.000708661 0.000405512 0.00159449 0.000917323 0.00151181 0.000858268 0.00948819 0.00537008 0.000759843 0.000429134 0.00245669 0.00137795 0.00650787 0.0036378 0.00314961 0.00175984 0.000137795 7.48031e-005 0.00073622 0.000409449 0.0109252 0.00602756 0.000677165 0.000374016 0.00108268 0.000594488 0.0116969 0.0063622 0.00011811 6.29921e-005 0.0112362 0.00603937 0.00435039 0.00231102 0.00794488 0.00420472 0.00311024 0.0016378 0.000566929 0.000295276 0.0111693 0.00581496 0.00214173 0.00111024 0.00163386 0.000838583 0.0114724 0.0058622 0.00111811 0.000574803 0.00275984 0.00138976 0.00782283 0.00393307 0.00394488 0.00197244 5.11811e-005 2.75591e-005 0.0039252 0.00194488 0.00915354 0.00451181 0.00441339 0.00215748 0.0111693 0.00540551 0.00318504 0.00152362 0.0115394 0.00548031 0.00452756 0.00212992 0.0119685 0.00556299 0.00330709 0.00152756c0.00430709,0.00197638 0.00864961,0.00394882 0.0130315,0.0059252l0.00333071 0.0015c0.00451575,0.00202756 0.0090748,0.00405512 0.0136693,0.00608268l0.00229528 0.00101181c0.00487008,0.00213386 0.00977953,0.00427559 0.0147283,0.00640551l0.00294488 0.00126378c0.00469685,0.00201181 0.00942913,0.00402362 0.0142008,0.00602756l0.00342913 0.00143701c0.00488583,0.00204724 0.00980315,0.00408268 0.0147756,0.00611417l0.000830709 0.00034252 0.00124016 0.000496063c0.00500787,0.00204331 0.010063,0.00408661 0.0151496,0.00611024l0.00154331 0.000622047 0.00105906 0.00042126c0.0050315,0.00199606 0.0101102,0.00398819 0.0152126,0.0059685l0.00319685 0.00123622c0.00518504,0.00200394 0.0104134,0.004 0.0156811,0.00598425l0.00329134 0.00123622c0.00522835,0.00196063 0.0104803,0.00391339 0.0157835,0.00585039l0.00403937 0.00147244c0.00511024,0.00185433 0.010248,0.00370472 0.0154213,0.00553937l0.00426772 0.0015c0.00481102,0.00168898 0.00964961,0.00337795 0.0145157,0.00504724l0.00280709 0.000968504c0.00537402,0.00183071 0.0107835,0.00364961 0.0162244,0.00546063l0.00449606 0.00149606c0.00548819,0.00180709 0.0110118,0.00359843 0.0165709,0.00537795l0.00359843 0.00114961c0.00557874,0.00177559 0.0111969,0.00354331 0.0168504,0.00527953l0.00493701 0.00150787c0.00546457,0.00167323 0.0109528,0.00333465 0.0164803,0.00497244l0.0043622 0.00127953c0.00593701,0.00174016 0.0118937,0.00347638 0.0179094,0.0051811l0.000330709 9.44882e-005 8.66142e-005 2.3622e-005c0.0060315,0.00170866 0.0121142,0.0033937 0.0182244,0.00506299l0.00487402 0.00133071c0.00579528,0.00157087 0.0116299,0.0031063 0.0174961,0.0046378l0.00441339 0.00114961c0.00598425,0.00154331 0.0120039,0.00306693 0.0180551,0.00456693l0.0045315 0.00111417c0.00615354,0.00150787 0.0123268,0.00300394 0.0185472,0.00446457l0.00402362 0.000937008c0.00645276,0.00150394 0.0129252,0.00299213 0.0194449,0.00443701l0.000527559 0.00011811 0.00116142 0.000251969c0.00619291,0.00137402 0.0124331,0.0027126 0.0186969,0.00403543l0.00441339 0.000933071c0.00638976,0.00133071 0.012811,0.00263386 0.0192638,0.00391339l0.00450394 0.000889764c0.0065748,0.0012874 0.013189,0.00254331 0.0198386,0.00376772l0.00378346 0.00069685c0.00685433,0.00125197 0.0137362,0.00248031 0.0206614,0.00366929l0.00340157 0.00057874c0.00701181,0.00118898 0.0140472,0.00234646 0.0211299,0.00347244l0.00317717 0.000492126c0.00672047,0.00105512 0.0134685,0.00208268 0.020248,0.00306693l0.00259843 0.000385827c0.00711417,0.0010315 0.0142756,0.00200787 0.0214646,0.00296457l0.00404331 0.000543307c0.00695669,0.000905512 0.0139528,0.00177953 0.0209764,0.00261811l0.00498819 0.000594488c0.00688976,0.000807087 0.013815,0.00158661 0.0207756,0.00232283l0.00504724 0.000519685c0.0073189,0.000759843 0.0146614,0.00149213 0.0220512,0.00216535l0.00200787 0.000181102c0.00733465,0.000665354 0.0147126,0.0012874 0.0221181,0.00187402l0.00337795 0.000267717c0.00765748,0.000594488 0.0153504,0.0011378 0.0230787,0.0016378l0.00305512 0.000204724c0.00753543,0.000476378 0.0151063,0.000917323 0.0227126,0.00130709l0.00487402 0.000244094c0.00762992,0.000377953 0.0152953,0.000716535 0.0229961,0.00100394l0.00355118 0.000122047c0.00788583,0.000283465 0.0158071,0.000523622 0.0237638,0.000712598l0.00347244 6.69291e-005c0.00828346,0.000177165 0.0165984,0.000314961 0.0249567,0.000389764l0.000240157 0 0.000240157 3.93701e-006 0.00023622 0 0.000244094 0 0.00023622 0c0.00594094,5.51181e-005 0.0118819,3.54331e-005 0.0178307,1.1811e-005zm-0.762016 -0.154461c0.0048937,0.00204724 0.00980315,0.00408268 0.0147756,0.00611417m0.306051 0.0978819c0.00645276,0.00150394 0.0129213,0.00299213 0.0194449,0.00443701"/>
  <path class="fil7" d="M2.59198 3.58652c0.0134528,-0.00168504 0.0267835,-0.00248031 0.0399724,-0.00248031 0.00201969,-3.93701e-006 0.00403543,1.5748e-005 0.00605906,5.11811e-005 7.87402e-006,-3.93701e-006 0,0 0,0 0.00561417,-0.00348425 0.0112559,-0.00701575 0.0168937,-0.0105827 -0.022189,0.0028937 -0.0431339,0.00715354 -0.0629252,0.0130118z"/>
  <path class="fil8" d="M5.27972 3.50843c-0.159224,0.0759055 -0.418134,0.16622 -0.795823,0.203921 -0.411094,0.0410276 -0.760618,0.0482008 -1.07056,0.0116929 -0.369358,-0.0435 -0.669126,-0.248976 -0.841197,-0.134366 0.106976,-0.0203386 0.206075,0.0171417 0.29452,0.0695512 0.136035,0.0806142 0.534024,0.347626 1.11846,0.352661 0.584118,0.00505512 1.17827,-0.281823 1.2946,-0.503461z"/>
  <path class="fil9" d="M2.86665 3.65923c-3.93701e-006,-7.87402e-006 0.478602,0.261984 1.058,0.315717 0.419118,0.0388898 1.07056,-0.232295 1.13635,-0.260244 -0.251201,0.160535 -0.666,0.30074 -1.07588,0.297189 -0.584441,-0.00503543 -0.982429,-0.272047 -1.11846,-0.352661z"/>
  <path class="fil10" d="M2.51357 3.56017c0,0 -0.0082126,0.00183071 -0.0236614,0.00525984 -0.0156457,0.00295276 -0.0379016,0.00953543 -0.0662835,0.0183583 -0.0564291,0.0183661 -0.133602,0.0547756 -0.221508,0.104524 -0.0882087,0.048878 -0.188122,0.111016 -0.305559,0.149697 -0.0588346,0.0195787 -0.120602,0.0316378 -0.185874,0.0266929 -0.0414331,-0.00225197 -0.0833071,-0.00859055 -0.12539,-0.0160039 -0.00776772,0.00101181 -0.0153346,0.00165354 -0.022689,0.00194094 0.0139291,0.00416535 0.0306181,0.00898425 0.0498858,0.0139409 0.0313031,0.00850787 0.0697598,0.0167756 0.114307,0.0212283 0.011185,0.000681102 0.0226732,0.00183071 0.0345551,0.0021063 0.0119016,-0.000279528 0.024122,-0.000590551 0.0366142,-0.000866142 0.0249646,-0.00242126 0.0511732,-0.00602362 0.0770669,-0.012811 0.0522874,-0.012563 0.106476,-0.032622 0.159843,-0.058374 0.0534528,-0.0256732 0.106197,-0.0566063 0.158504,-0.0885039 0.104331,-0.0640906 0.20926,-0.130193 0.320189,-0.167189z"/>
  <path class="fil10" d="M2.44323 3.52655c0,0 -0.0169094,0.00122047 -0.0471693,0.00452756 -0.0299646,0.00403543 -0.0722598,0.0154882 -0.120307,0.0355 -0.0474213,0.0208937 -0.0997913,0.0500591 -0.15537,0.079189 -0.0140472,0.00695669 -0.0282913,0.0140236 -0.0427559,0.0211969 -0.0147913,0.00631102 -0.0297362,0.0127008 -0.0448583,0.0191535 -0.0306969,0.0120748 -0.0619449,0.0230591 -0.0960866,0.0184606 0,0 0.00466535,0.00127165 0.0132598,0.00362205 0.00862992,0.00300787 0.0217874,0.00419291 0.0386654,0.00415748 0.0167165,-0.00126772 0.0368898,-0.0038622 0.0585866,-0.0102126 0.0217874,-0.00612598 0.046563,-0.0127559 0.0713465,-0.023752 0.0507047,-0.0199449 0.103898,-0.0506024 0.15772,-0.0792638 0.0539409,-0.0290079 0.10985,-0.0541457 0.166969,-0.0725787z"/>
  <path class="fil10" d="M2.45063 3.46613c0,0 -0.00196063,-0.000870079 -0.00566929,-0.00253937 -0.00375984,-0.00158661 -0.00934252,-0.00424409 -0.0168819,-0.00579134 -0.0149134,-0.00409449 -0.0373386,-0.00604331 -0.0630197,-0.00372441 -0.0257047,0.00208661 -0.0545354,0.00796457 -0.0841142,0.0139685 -0.0297441,0.00540945 -0.0598071,0.0127205 -0.0917559,0.00169291 -3.93701e-006,-7.87402e-006 0.00173622,0.00166535 0.00490551,0.00469291 0.00174016,0.00151575 0.00384646,0.00338189 0.00628346,0.00555118 0.00285039,0.00168504 0.0061378,0.00358661 0.00975984,0.0057126 0.0150276,0.00803543 0.0397795,0.0131181 0.0671181,0.0120039 0.0274528,-0.00080315 0.0570709,-0.00664961 0.0860118,-0.0135906 0.0292638,-0.0070315 0.0566181,-0.0153268 0.0873622,-0.0179764z"/>
  <path class="fil10" d="M2.47369 3.41569c7.08661e-005,-0.000452756 -0.00802362,-0.00161811 -0.0202008,-0.00722047 -0.0123031,-0.00525984 -0.0282953,-0.0150354 -0.0469961,-0.0284685 -0.0188701,-0.0132283 -0.0406142,-0.0300118 -0.0674685,-0.0448228 -0.0132795,-0.00748425 -0.0282244,-0.0139724 -0.0439528,-0.0187953 -0.0159409,-0.00448819 -0.0330984,-0.00655906 -0.0495709,-0.00478346 -7.87402e-006,-3.93701e-006 0.00217323,0.000976378 0.00612205,0.0027874 0.00394882,0.00173622 0.00956693,0.00408661 0.0162165,0.00798425 0.0134488,0.00718898 0.0306102,0.019 0.0499921,0.033689 0.0195394,0.0144724 0.0416024,0.0318583 0.0681772,0.045815 0.0131732,0.00695669 0.0278425,0.0126496 0.0429094,0.0159567 0.0152953,0.00293701 0.0313031,0.0025748 0.0447717,-0.00214173z"/>
  <path class="fil10" d="M2.50125 3.35873c0,0 -0.00316535,-0.00218898 -0.00906299,-0.00632677 -0.00569291,-0.00446063 -0.0150354,-0.00901575 -0.0247953,-0.018189 -0.021063,-0.0158858 -0.0466732,-0.0436024 -0.0764252,-0.0779173 -0.0149016,-0.0171732 -0.0308543,-0.0363189 -0.0486535,-0.0560827 -0.0179803,-0.0194724 -0.0379331,-0.0407165 -0.0628346,-0.0581181 -0.024378,-0.0177717 -0.0527598,-0.0319134 -0.0820984,-0.041311 -0.0292874,-0.00969685 -0.0591102,-0.0168583 -0.0891772,-0.024185 0,-3.93701e-006 0.0153819,0.0086811 0.0419528,0.0218858 0.0263937,0.0135079 0.0644882,0.0306614 0.101165,0.0584843 0.0364724,0.0279291 0.0699331,0.0698504 0.109697,0.110205 0.0391654,0.0399291 0.0876654,0.0787165 0.140232,0.0915551z"/>
  <path class="fil10" d="M2.54505 3.27485c0,0 -0.00535827,-0.00374016 -0.0153465,-0.0107323 -0.00501575,-0.00342913 -0.0111929,-0.00767717 -0.0184488,-0.012689 -0.00694094,-0.00537402 -0.0149449,-0.0115709 -0.0239409,-0.0184764 -0.0357402,-0.0278819 -0.0833307,-0.0713976 -0.1395,-0.125547 -0.056626,-0.0532835 -0.122697,-0.118744 -0.209732,-0.169098 -0.0432953,-0.0248701 -0.0919449,-0.0452283 -0.143752,-0.0551614 -0.0254921,-0.00444488 -0.051189,-0.00837008 -0.0769606,-0.0122677 -0.0261024,-0.00235039 -0.0522913,-0.00424803 -0.0783031,-0.00598819 0,-3.93701e-006 0.0290433,0.00640157 0.0779921,0.0172283 0.0239567,0.00713386 0.0536614,0.013626 0.0855394,0.0241693 0.00789764,0.00262598 0.0160591,0.0053937 0.0243976,0.00819291 0.00819685,0.00327165 0.0163898,0.0071378 0.0248622,0.0107559 0.0171772,0.00669685 0.033689,0.0170354 0.0513543,0.0260669 0.034311,0.0205669 0.0691654,0.0453425 0.103984,0.0733268 0.034752,0.0280512 0.0695,0.0591614 0.105331,0.0902402 0.0709055,0.062311 0.14898,0.125146 0.232524,0.15998z"/>
  <path class="fil6" d="M4.40159 3.67962c0,0 -0.161201,0.0906969 -0.251909,0.0906969 -0.0906772,-3.93701e-006 -0.050374,0.114185 0.0739173,0.117543 0.124256,0.00333465 0.235071,-0.167957 0.177992,-0.20824z"/>
  <path class="fil8" d="M4.78161 3.41335c0,0.0461142 0.0485551,0.0826417 0.0946654,0.0826417 0.0341575,0 0.0722992,-0.0365276 0.0722992,-0.0826339 0,-0.0461024 -0.0449291,-0.0834764 -0.0910394,-0.0834764 -0.0460945,-3.93701e-006 -0.0759213,0.037374 -0.0759252,0.0834685z"/>
  <path class="fil11" d="M4.79676 3.41332c0,0.0377323 0.0306102,0.0683228 0.0683346,0.0683228 0.0377402,-3.93701e-006 0.0683307,-0.0305906 0.0683307,-0.068315 0,-0.0377283 -0.0305866,-0.0683228 -0.0683307,-0.0683228 -0.0377283,0 -0.0683346,0.0305945 -0.0683346,0.068315z"/>
  <path class="fil12" d="M4.83128 3.41333c0,0.0186693 0.0151575,0.0338071 0.033811,0.0338071 0.018685,0 0.0338071,-0.0151378 0.0338071,-0.0338071 -3.93701e-006,-0.0186732 -0.0151181,-0.0338268 -0.0338071,-0.0338268 -0.0186535,0 -0.033811,0.0151575 -0.033811,0.0338268z"/>
  <path class="fil6" d="M5.19548 3.61252c0,0 -0.10787,0.0265591 -0.12887,-0.0741929 -7.87402e-006,-3.93701e-006 -0.00845669,0.155965 0.12887,0.0741929z"/>
  <path class="fil6" d="M4.81337 3.18402c0,0 -0.00537795,0.00137402 -0.0154488,0.00393307 -0.00507087,0.00135827 -0.0112953,0.00304331 -0.0186378,0.00501181 -0.0071378,0.00264173 -0.0153307,0.00568898 -0.0245,0.00908268 -0.0357953,0.0150118 -0.0876299,0.041378 -0.134055,0.0923976 -0.0237205,0.0247441 -0.0452244,0.0561535 -0.0607638,0.0929528 -0.0155591,0.0366654 -0.0242953,0.0795787 -0.0203937,0.123531 0.00389764,0.0440354 0.0208465,0.0871772 0.0474882,0.123894 0.0269843,0.0368858 0.0633898,0.0639094 0.0997717,0.0887244 0,0 -0.00443307,-0.00450787 -0.0125945,-0.0127874 -0.00835827,-0.00802756 -0.0200276,-0.0203268 -0.0341575,-0.0359528 -0.0137677,-0.0158701 -0.0297047,-0.035563 -0.0423898,-0.0602087 -0.0038622,-0.00574016 -0.00624803,-0.0125945 -0.00884252,-0.0194882 -0.00266142,-0.0068189 -0.00538976,-0.013815 -0.0082126,-0.0209646 -0.00201969,-0.00738189 -0.00359843,-0.0150512 -0.00554724,-0.0227244 -0.000976378,-0.00383071 -0.00191339,-0.0077126 -0.00287008,-0.011626 -0.000425197,-0.00400787 -0.000799213,-0.00803543 -0.00118504,-0.012126 -0.00990551,-0.065189 0.0146024,-0.139642 0.0605906,-0.200965 0.0464606,-0.0616299 0.111972,-0.110787 0.181748,-0.142685z"/>
  <polygon class="fil13" points="3.12728,3.80098 3.12763,3.80115 3.12698,3.80078 "/>
  <path class="fil13" d="M2.7445 3.60041c-0.000425197,-0.000133858 -0.000850394,-0.000240157 -0.00127559,-0.000377953 0.000425197,0.000137795 0.000850394,0.000244094 0.00127559,0.000377953z"/>
  <polygon class="fil13" points="3.00996,3.7403 3.01151,3.74098 3.0068,3.73836 "/>
 </g>
</svg>
