<?xml version="1.0" encoding="UTF-8"?>
<!DOCTYPE svg PUBLIC "-//W3C//DTD SVG 1.1//EN" "http://www.w3.org/Graphics/SVG/1.1/DTD/svg11.dtd">
<!-- Creator: CorelDRAW -->
<svg xmlns="http://www.w3.org/2000/svg" xml:space="preserve" width="6.82666in" height="6.82666in" style="shape-rendering:geometricPrecision; text-rendering:geometricPrecision; image-rendering:optimizeQuality; fill-rule:evenodd; clip-rule:evenodd"
viewBox="0 0 6.82666 6.82666"
 xmlns:xlink="http://www.w3.org/1999/xlink">
 <defs>
  <style type="text/css">
   <![CDATA[
    .fil2 {fill:none}
    .fil6 {fill:#212121}
    .fil4 {fill:#33691E}
    .fil3 {fill:#558B2F}
    .fil5 {fill:#A5D6A7}
    .fil1 {fill:#00000000}
    .fil0 {fill:#00000000}
   ]]>
  </style>
   <clipPath id="id0">
    <path d="M3.41333 -3.93701e-006c1.88513,0 3.41333,1.5282 3.41333,3.41333 0,1.88513 -1.5282,3.41333 -3.41333,3.41333 -1.88513,0 -3.41333,-1.5282 -3.41333,-3.41333 0,-1.88513 1.5282,-3.41333 3.41333,-3.41333z"/>
   </clipPath>
 </defs>
 <g id="Layer_x0020_1">
  <metadata id="CorelCorpID_0Corel-Layer"/>
  <path class="fil0" d="M3.41333 -3.93701e-006c1.88513,0 3.41333,1.5282 3.41333,3.41333 0,1.88513 -1.5282,3.41333 -3.41333,3.41333 -1.88513,0 -3.41333,-1.5282 -3.41333,-3.41333 0,-1.88513 1.5282,-3.41333 3.41333,-3.41333z"/>
  <g style="clip-path:url(#id0)">
   <g id="_637663072">
    <g>
     <polygon id="_4434296001" class="fil1" points="2.85142,1.60134 6.63769,5.38761 6.64925,5.40039 6.65994,5.41434 6.66973,5.42944 6.67854,5.44564 6.68633,5.46289 6.69305,5.48116 6.69864,5.5004 6.70304,5.52057 6.70621,5.54162 6.7081,5.56351 6.70864,5.5862 6.70779,5.60966 6.70549,5.63382 2.91922,1.84755 2.92152,1.82339 2.92237,1.79993 2.92183,1.77724 2.91994,1.75535 2.91678,1.7343 2.91237,1.71413 2.90678,1.69489 2.90007,1.67662 2.89228,1.65937 2.88346,1.64317 2.87368,1.62807 2.86298,1.61411 "/>
     <polygon id="_443429816" class="fil1" points="3.21869,2.06069 7.00496,5.84696 7.02367,5.86759 7.04178,5.88852 7.05933,5.9097 7.07643,5.93109 7.09312,5.95266 7.1095,5.97438 7.12563,5.99621 7.14159,6.01813 7.15745,6.04008 7.17329,6.06206 7.18918,6.084 7.20519,6.10589 7.22139,6.12769 7.23787,6.14937 7.25469,6.17088 7.27193,6.1922 7.28966,6.2133 7.30796,6.23413 7.3269,6.25467 3.54063,2.4684 3.52169,2.44786 3.50339,2.42703 3.48566,2.40593 3.46842,2.38461 3.4516,2.36309 3.43512,2.34142 3.41892,2.31962 3.40291,2.29773 3.38702,2.27578 3.37119,2.25381 3.35533,2.23185 3.33937,2.20994 3.32323,2.18811 3.30685,2.16639 3.29016,2.14481 3.27307,2.12343 3.25551,2.10225 3.23741,2.08132 "/>
     <polygon id="_443435768" class="fil1" points="4.65629,3.93617 8.44256,7.72244 8.43928,7.73831 8.43546,7.75361 8.43114,7.76836 8.4263,7.78256 8.42095,7.79621 8.41511,7.80933 8.40878,7.82191 8.40197,7.83398 8.39468,7.84554 8.38692,7.85659 8.37869,7.86714 8.37002,7.8772 8.36089,7.88678 8.35132,7.89588 8.34132,7.90452 8.33089,7.91269 8.32004,7.92042 8.30878,7.9277 8.29711,7.93454 8.28505,7.94095 8.27259,7.94694 8.25974,7.95252 8.24652,7.95769 8.23293,7.96245 8.21898,7.96683 8.20466,7.97082 8.19,7.97444 8.175,7.97769 8.15965,7.98057 8.14398,7.9831 8.12799,7.98529 8.11169,7.98713 4.32542,4.20086 4.34172,4.19902 4.35772,4.19683 4.37339,4.1943 4.38873,4.19141 4.40373,4.18817 4.41839,4.18455 4.43271,4.18056 4.44667,4.17618 4.46026,4.17141 4.47348,4.16624 4.48632,4.16067 4.49878,4.15468 4.51085,4.14827 4.52252,4.14143 4.53378,4.13415 4.54463,4.12642 4.55505,4.11825 4.56506,4.10961 4.57462,4.10051 4.58375,4.09093 4.59243,4.08087 4.60065,4.07031 4.60841,4.05926 4.6157,4.04771 4.62252,4.03564 4.62885,4.02306 4.63469,4.00994 4.64003,3.99629 4.64487,3.98209 4.6492,3.96734 4.65301,3.95204 "/>
     <polygon id="_443435960" class="fil1" points="2.78687,3.68388 6.57314,7.47015 6.56689,7.48276 6.56059,7.49531 6.55424,7.50778 6.54783,7.52019 6.54137,7.53252 6.53485,7.54478 6.52828,7.55697 6.52165,7.56909 6.51497,7.58115 6.50824,7.59313 6.50144,7.60504 6.49459,7.61687 6.48769,7.62864 6.48073,7.64033 6.47372,7.65196 6.46664,7.6635 6.45951,7.67498 6.45233,7.68639 6.44509,7.69772 6.43778,7.70897 6.43043,7.72015 6.42301,7.73126 6.41554,7.7423 6.40801,7.75326 6.40042,7.76415 6.39278,7.77496 6.38507,7.7857 6.37731,7.79636 6.36948,7.80694 6.36161,7.81745 6.35367,7.82789 6.34567,7.83824 2.5594,4.05197 2.5674,4.04161 2.57534,4.03118 2.58322,4.02067 2.59104,4.01009 2.5988,3.99943 2.60651,3.98869 2.61415,3.97787 2.62174,3.96699 2.62927,3.95603 2.63674,3.94499 2.64416,3.93388 2.65152,3.9227 2.65882,3.91144 2.66606,3.90011 2.67324,3.88871 2.68037,3.87723 2.68745,3.86569 2.69446,3.85406 2.70142,3.84237 2.70833,3.8306 2.71517,3.81876 2.72197,3.80685 2.7287,3.79487 2.73539,3.78282 2.74201,3.7707 2.74859,3.75851 2.7551,3.74624 2.76156,3.73391 2.76797,3.72151 2.77433,3.70904 2.78063,3.69649 "/>
     <polygon id="_443436320" class="fil1" points="2.1815,3.94909 5.96777,7.73536 5.96258,7.73123 5.95672,7.72777 5.95012,7.72498 5.94272,7.72284 5.93447,7.72134 5.92531,7.72046 5.91517,7.72019 5.90401,7.7205 5.89175,7.72141 2.10548,3.93513 2.11774,3.93423 2.12891,3.93391 2.13904,3.93419 2.1482,3.93507 2.15645,3.93657 2.16385,3.93871 2.17045,3.9415 2.17631,3.94496 "/>
     <polygon id="_443436440" class="fil1" points="2.46428,4.80883 6.25054,8.59511 6.24287,8.59494 6.2358,8.59374 6.2294,8.59161 6.22374,8.58869 6.21888,8.58507 2.43261,4.7988 2.43747,4.80241 2.44313,4.80534 2.44954,4.80746 2.45661,4.80867 "/>
     <polygon id="_443436680" class="fil1" points="1.95091,4.06852 5.73718,7.85479 5.73025,7.85486 5.72367,7.85404 5.71754,7.85241 5.71193,7.85006 5.70693,7.84706 5.70263,7.84352 1.91636,4.05725 1.92066,4.06079 1.92566,4.06378 1.93127,4.06613 1.93741,4.06777 1.94398,4.06859 "/>
     <polygon id="_443436344" class="fil1" points="2.21612,5.26792 6.00239,9.05419 5.99453,9.06017 5.98704,9.06403 5.98001,9.06596 5.97349,9.06614 5.96756,9.06474 5.96228,9.06194 2.17601,5.27567 2.18129,5.27847 2.18722,5.27987 2.19374,5.27969 2.20078,5.27776 2.20826,5.27389 "/>
     <polygon id="_443436368" class="fil1" points="2.10548,3.93513 5.89175,7.72141 5.88731,7.7223 5.88336,7.72215 5.87992,7.72107 5.87703,7.7192 2.09076,3.93293 2.09365,3.9348 2.09709,3.93587 2.10104,3.93602 "/>
     <polygon id="_443436632" class="fil1" points="2.21684,3.90217 6.00311,7.68844 6.00735,7.69262 6.01145,7.69708 6.01542,7.70181 6.01925,7.70681 6.02297,7.71204 6.02657,7.71751 6.03006,7.72319 6.03345,7.72907 6.03674,7.73515 6.03995,7.74141 6.04307,7.74783 6.04612,7.7544 6.0491,7.7611 6.05202,7.76793 2.26575,3.98166 2.26283,3.97483 2.25985,3.96813 2.25681,3.96156 2.25368,3.95514 2.25048,3.94888 2.24718,3.9428 2.24379,3.93692 2.2403,3.93124 2.2367,3.92577 2.23298,3.92054 2.22915,3.91554 2.22518,3.91081 2.22108,3.90635 "/>
     <polygon id="_443436848" class="fil1" points="3.17565,3.98994 6.96191,7.77621 6.94299,7.77472 6.92453,7.77268 6.90655,7.77007 6.88903,7.76691 6.87196,7.7632 6.85536,7.75895 6.83922,7.75415 6.82352,7.74882 6.80827,7.74295 6.79346,7.73656 6.7791,7.72963 6.76517,7.72219 6.75167,7.71423 6.73861,7.70576 6.72597,7.69677 6.71376,7.68729 6.70197,7.6773 6.69059,7.66681 2.90432,3.88054 2.9157,3.89102 2.92749,3.90102 2.9397,3.9105 2.95234,3.91948 2.96541,3.92796 2.9789,3.93592 2.99283,3.94336 3.00719,3.95028 3.022,3.95668 3.03725,3.96255 3.05295,3.96788 3.06909,3.97268 3.0857,3.97693 3.10276,3.98064 3.12028,3.9838 3.13826,3.98641 3.15672,3.98845 "/>
     <polygon id="_443436728" class="fil1" points="2.64917,4.07167 6.43543,7.85794 6.43859,7.86215 6.44079,7.8672 2.65452,4.08093 2.65233,4.07588 "/>
     <polygon id="_443436824" class="fil1" points="2.65452,4.08093 6.44079,7.8672 6.44078,7.86882 6.43954,7.87038 6.43715,7.87191 6.4337,7.87344 6.42925,7.875 6.42388,7.87661 6.41767,7.87832 6.41069,7.88016 6.40302,7.88215 6.39473,7.88432 6.3859,7.88672 6.37661,7.88936 6.36693,7.89229 6.35693,7.89552 6.3467,7.8991 6.33631,7.90306 6.33017,7.90554 6.32398,7.90809 6.31776,7.91072 6.31149,7.91342 6.3052,7.91615 6.29888,7.91893 6.29254,7.92172 6.28619,7.92452 6.27982,7.92732 6.27345,7.93011 6.26708,7.93287 6.26072,7.93558 6.25437,7.93825 6.24804,7.94085 6.24173,7.94337 6.23545,7.9458 6.2292,7.94813 6.22299,7.95035 6.21682,7.95243 6.2107,7.95438 6.20463,7.95618 6.19863,7.95781 6.19269,7.95926 6.18682,7.96052 6.18102,7.96159 6.17531,7.96243 6.16968,7.96306 6.16414,7.96344 6.1587,7.96356 6.15336,7.96343 6.14813,7.96302 6.14301,7.96232 2.35674,4.17605 2.36186,4.17675 2.36709,4.17716 2.37243,4.17729 2.37787,4.17717 2.38341,4.17678 2.38904,4.17616 2.39476,4.17531 2.40055,4.17425 2.40642,4.17299 2.41236,4.17154 2.41837,4.16991 2.42443,4.16811 2.43055,4.16616 2.43672,4.16407 2.44293,4.16186 2.44918,4.15953 2.45546,4.1571 2.46177,4.15458 2.46811,4.15198 2.47446,4.14931 2.48081,4.14659 2.48719,4.14384 2.49355,4.14105 2.49992,4.13825 2.50627,4.13545 2.51261,4.13265 2.51893,4.12988 2.52522,4.12715 2.53149,4.12445 2.53771,4.12182 2.5439,4.11926 2.55004,4.11679 2.56043,4.11283 2.57067,4.10925 2.58066,4.10602 2.59034,4.10309 2.59963,4.10044 2.60846,4.09805 2.61675,4.09587 2.62442,4.09389 2.6314,4.09205 2.63761,4.09034 2.64298,4.08872 2.64743,4.08717 2.65089,4.08564 2.65327,4.08411 2.65451,4.08255 "/>
     <polygon id="_443436944" class="fil1" points="2.35674,4.17605 6.14301,7.96232 6.12656,7.95962 6.11137,7.95623 6.09733,7.95222 6.08435,7.94765 6.07233,7.94259 6.06116,7.93711 6.05074,7.93126 6.04096,7.92511 6.03174,7.91872 6.02297,7.91217 6.01454,7.9055 6.00635,7.8988 5.9983,7.89211 5.9903,7.88551 5.98222,7.87906 5.974,7.87283 5.9655,7.86688 5.95663,7.86127 5.9473,7.85607 5.93741,7.85133 5.92683,7.84714 5.91549,7.84355 5.90327,7.84062 5.89007,7.83842 5.8758,7.83701 5.86035,7.83646 5.84361,7.83684 5.8255,7.8382 5.8059,7.84061 5.78471,7.84413 5.76184,7.84884 5.73718,7.85479 1.95091,4.06852 1.97557,4.06257 1.99844,4.05786 2.01963,4.05434 2.03923,4.05193 2.05735,4.05057 2.07408,4.05019 2.08953,4.05074 2.1038,4.05215 2.117,4.05435 2.12922,4.05728 2.14056,4.06087 2.15114,4.06506 2.16104,4.0698 2.17037,4.075 2.17923,4.08061 2.18773,4.08656 2.19596,4.09279 2.20403,4.09924 2.21203,4.10584 2.22008,4.11252 2.22827,4.11923 2.2367,4.12589 2.24548,4.13245 2.2547,4.13883 2.26447,4.14498 2.27489,4.15083 2.28606,4.15632 2.29808,4.16138 2.31106,4.16595 2.3251,4.16996 2.34029,4.17335 "/>
     <polygon id="_443437544" class="fil1" points="2.80207,4.84363 6.58833,8.6299 6.57887,8.6223 6.56924,8.6154 6.55944,8.60917 6.5495,8.60359 6.5394,8.59862 6.52915,8.59424 6.51877,8.59043 6.50824,8.58715 6.49758,8.58438 6.48679,8.58209 6.47587,8.58026 6.46484,8.57884 6.45369,8.57783 6.44242,8.57719 6.43105,8.57689 6.41957,8.57691 6.408,8.57722 6.39633,8.57779 6.38457,8.5786 6.37273,8.57961 6.36081,8.5808 6.3488,8.58215 6.33673,8.58361 6.32459,8.58518 6.31238,8.58682 6.30011,8.5885 6.28779,8.5902 6.27542,8.59188 6.263,8.59353 6.25054,8.59511 2.46428,4.80883 2.47674,4.80726 2.48915,4.80561 2.50152,4.80393 2.51385,4.80223 2.52611,4.80055 2.53832,4.79891 2.55046,4.79734 2.56254,4.79587 2.57454,4.79453 2.58646,4.79334 2.59831,4.79233 2.61007,4.79152 2.62174,4.79095 2.63331,4.79064 2.64478,4.79062 2.65615,4.79092 2.66742,4.79156 2.67857,4.79257 2.68961,4.79398 2.70052,4.79582 2.71131,4.79811 2.72197,4.80088 2.7325,4.80416 2.74289,4.80797 2.75313,4.81235 2.76323,4.81731 2.77318,4.8229 2.78297,4.82913 2.7926,4.83603 "/>
     <polygon id="_443437568" class="fil1" points="3.04743,4.95359 6.8337,8.73987 6.80986,8.73919 6.78595,8.73888 6.76196,8.73896 6.73788,8.73947 6.7137,8.74044 6.68943,8.74191 6.66505,8.74389 6.64056,8.74643 6.61595,8.74955 6.59121,8.75328 6.56634,8.75767 6.54133,8.76272 6.51618,8.76849 6.49088,8.775 6.46542,8.78228 6.4398,8.79036 6.414,8.79928 6.38804,8.80906 6.36188,8.81973 6.33554,8.83133 6.309,8.84389 6.28227,8.85744 6.25532,8.872 6.22816,8.88763 6.20078,8.90433 6.17317,8.92215 6.14533,8.94111 6.11724,8.96125 6.08892,8.98259 6.06033,9.00518 6.0315,9.02903 6.00239,9.05419 2.21612,5.26792 2.24523,5.24276 2.27407,5.21891 2.30265,5.19632 2.33098,5.17498 2.35906,5.15484 2.3869,5.13587 2.41451,5.11806 2.44189,5.10135 2.46905,5.08573 2.496,5.07117 2.52274,5.05762 2.54927,5.04506 2.57561,5.03346 2.60177,5.02278 2.62774,5.013 2.65353,5.00409 2.67915,4.99601 2.70461,4.98873 2.72991,4.98222 2.75507,4.97645 2.78007,4.97139 2.80494,4.96701 2.82968,4.96328 2.85429,4.96016 2.87878,4.95762 2.90317,4.95564 2.92744,4.95417 2.95161,4.9532 2.97569,4.95269 2.99969,4.95261 3.02359,4.95292 "/>
     <polygon id="_443437328" class="fil1" points="2.66693,5.27206 6.4532,9.05833 6.44824,9.06069 6.44333,9.06198 6.43859,9.06226 6.43407,9.06165 6.42987,9.06023 6.42606,9.05808 6.42274,9.05531 2.63647,5.26904 2.6398,5.27181 2.6436,5.27396 2.6478,5.27538 2.65232,5.27599 2.65707,5.2757 2.66197,5.27442 "/>
     <polygon id="_443437040" class="fil1" points="3.20046,5.0115 6.98673,8.79777 6.96883,8.80322 6.95101,8.80883 6.93326,8.81461 6.91559,8.82056 6.898,8.82667 6.88048,8.83296 6.86304,8.83942 6.84568,8.84604 6.8284,8.85284 6.81119,8.85981 6.79406,8.86696 6.77702,8.87428 6.76005,8.88177 6.74316,8.88943 6.72635,8.89728 6.70962,8.9053 6.69298,8.9135 6.67641,8.92187 6.65993,8.93043 6.64352,8.93917 6.6272,8.94808 6.61096,8.95719 6.59481,8.96646 6.57874,8.97593 6.56275,8.98557 6.54684,8.99541 6.53102,9.00543 6.51529,9.01563 6.49964,9.02602 6.48407,9.0366 6.46859,9.04737 6.4532,9.05833 2.66693,5.27206 2.68233,5.2611 2.69781,5.25033 2.71337,5.23975 2.72902,5.22936 2.74476,5.21916 2.76057,5.20914 2.77648,5.1993 2.79247,5.18966 2.80854,5.18019 2.8247,5.17091 2.84093,5.16181 2.85725,5.1529 2.87366,5.14416 2.89014,5.1356 2.90671,5.12722 2.92335,5.11903 2.94008,5.11101 2.95689,5.10316 2.97378,5.0955 2.99075,5.088 3.0078,5.08069 3.02492,5.07354 3.04213,5.06657 3.05941,5.05977 3.07678,5.05315 3.09421,5.04669 3.11173,5.0404 3.12932,5.03429 3.147,5.02834 3.16474,5.02256 3.18256,5.01694 "/>
     <polygon id="_443437352" class="fil1" points="4.32542,4.20086 8.11169,7.98713 8.08111,8.04031 8.05215,8.09078 8.02461,8.13863 7.99829,8.18396 7.97301,8.22687 7.94857,8.26743 7.92479,8.30574 7.90148,8.34189 7.87844,8.37597 7.85548,8.40807 7.83243,8.4383 7.80907,8.46672 7.78522,8.49343 7.7607,8.51854 7.73532,8.54211 7.70888,8.56426 7.68119,8.58506 7.65206,8.60462 7.6213,8.62301 7.58873,8.64033 7.55415,8.65667 7.51737,8.67213 7.47819,8.68678 7.43644,8.70073 7.39192,8.71406 7.34444,8.72687 7.29381,8.73924 7.23983,8.75127 7.18233,8.76305 7.12111,8.77466 7.05597,8.7862 6.98673,8.79777 3.20046,5.0115 3.2697,4.99993 3.33484,4.98839 3.39606,4.97678 3.45357,4.965 3.50754,4.95297 3.55817,4.9406 3.60565,4.92779 3.65018,4.91446 3.69193,4.90051 3.7311,4.88585 3.76788,4.8704 3.80246,4.85406 3.83504,4.83674 3.86579,4.81835 3.89492,4.79879 3.92261,4.77799 3.94906,4.75584 3.97444,4.73226 3.99896,4.70716 4.0228,4.68044 4.04616,4.65202 4.06922,4.6218 4.09217,4.5897 4.11521,4.55561 4.13852,4.51946 4.1623,4.48115 4.18674,4.44059 4.21202,4.39769 4.23834,4.35236 4.26589,4.3045 4.29485,4.25404 "/>
     <polygon id="_443437232" class="fil1" points="4.12412,2.68893 7.91039,6.4752 7.91634,6.48167 7.92204,6.48839 7.92749,6.49535 7.93271,6.50253 7.93771,6.50993 7.9425,6.51753 7.9471,6.52531 7.95152,6.53326 7.95577,6.54138 7.95986,6.54965 7.96381,6.55804 7.96764,6.56656 7.97134,6.57519 7.97494,6.58391 7.97845,6.59271 7.98189,6.60159 7.98526,6.61051 7.98857,6.61948 7.99185,6.62848 7.9951,6.6375 7.99833,6.64652 8.00157,6.65553 8.00481,6.66452 8.00809,6.67347 8.0114,6.68237 8.01476,6.69121 8.01819,6.69998 8.02169,6.70865 8.02528,6.71723 8.02897,6.72569 4.2427,2.93942 4.23901,2.93096 4.23542,2.92238 4.23192,2.9137 4.22849,2.90494 4.22513,2.8961 4.22182,2.8872 4.21855,2.87824 4.2153,2.86926 4.21207,2.86025 4.20883,2.85123 4.20558,2.84221 4.2023,2.83321 4.19899,2.82424 4.19562,2.81531 4.19219,2.80644 4.18868,2.79764 4.18507,2.78892 4.18137,2.78029 4.17755,2.77177 4.17359,2.76337 4.1695,2.75511 4.16525,2.74699 4.16083,2.73904 4.15624,2.73126 4.15144,2.72366 4.14644,2.71626 4.14122,2.70907 4.13577,2.70211 4.13007,2.69539 "/>
     <polygon id="_443437256" class="fil1" points="4.89204,3.78728 8.6783,7.57355 8.67417,7.58855 8.6697,7.60261 8.66491,7.61574 8.65981,7.62798 8.65442,7.63935 8.64874,7.64989 8.6428,7.65961 8.63659,7.66856 8.63014,7.67675 8.62345,7.68422 8.61655,7.69099 8.60943,7.69709 8.60213,7.70256 8.59463,7.70741 8.58697,7.71168 8.57915,7.7154 8.57118,7.71859 8.56307,7.72128 8.55485,7.7235 8.54652,7.72528 8.53809,7.72664 8.52957,7.72762 8.52099,7.72824 8.51235,7.72854 8.50365,7.72853 8.49493,7.72825 8.48619,7.72773 8.47743,7.72699 8.46867,7.72606 8.45994,7.72498 8.45123,7.72376 8.44256,7.72244 4.65629,3.93617 4.66496,3.93749 4.67367,3.9387 4.68241,3.93979 4.69116,3.94072 4.69992,3.94146 4.70866,3.94198 4.71739,3.94226 4.72608,3.94226 4.73472,3.94197 4.74331,3.94135 4.75182,3.94037 4.76025,3.939 4.76858,3.93722 4.77681,3.935 4.78491,3.93231 4.79288,3.92913 4.8007,3.92541 4.80837,3.92114 4.81586,3.91629 4.82317,3.91082 4.83028,3.90472 4.83719,3.89794 4.84387,3.89048 4.85032,3.88228 4.85653,3.87334 4.86247,3.86361 4.86815,3.85308 4.87354,3.8417 4.87864,3.82947 4.88343,3.81633 4.8879,3.80228 "/>
     <polygon id="_443437208" class="fil1" points="4.76796,2.93529 8.55422,6.72156 8.56925,6.74304 8.58338,6.76493 8.59663,6.78723 8.60902,6.80993 8.62056,6.83301 8.63128,6.85648 8.64119,6.88032 8.65031,6.90452 8.65866,6.92908 8.66626,6.954 8.67311,6.97924 8.67925,7.00483 8.68468,7.03073 8.68943,7.05695 8.69352,7.08348 8.69696,7.11031 8.69976,7.13743 8.70196,7.16483 8.70356,7.19251 8.70457,7.22045 8.70504,7.24865 8.70496,7.2771 8.70436,7.3058 8.70325,7.33472 8.70165,7.36387 8.69959,7.39324 8.69707,7.42282 8.69411,7.45259 8.69074,7.48256 8.68697,7.51272 8.68282,7.54305 8.6783,7.57355 4.89204,3.78728 4.89655,3.75678 4.9007,3.72645 4.90447,3.69629 4.90785,3.66632 4.9108,3.63655 4.91332,3.60697 4.91539,3.5776 4.91698,3.54845 4.91809,3.51952 4.91869,3.49083 4.91877,3.46238 4.91831,3.43418 4.91729,3.40624 4.91569,3.37856 4.91349,3.35116 4.91069,3.32404 4.90725,3.29721 4.90317,3.27068 4.89841,3.24446 4.89298,3.21856 4.88684,3.19297 4.87999,3.16772 4.87239,3.14281 4.86405,3.11825 4.85493,3.09405 4.84502,3.0702 4.8343,3.04674 4.82275,3.02365 4.81036,3.00096 4.79711,2.97866 4.78298,2.95677 "/>
     <polygon id="_443437496" class="fil1" points="4.62475,2.69149 8.41102,6.47776 8.43146,6.50059 8.45138,6.5257 8.47067,6.55304 8.48924,6.58255 8.50698,6.6142 8.5238,6.64795 8.53958,6.68375 8.55422,6.72156 4.76796,2.93529 4.75331,2.89748 4.73753,2.86168 4.72072,2.82793 4.70297,2.79628 4.68441,2.76676 4.66511,2.73943 4.64519,2.71432 "/>
    </g>
    <path id="_637663504" class="fil1" d="M4.76796 2.93529c0.165134,0.226866 0.174122,0.525811 0.124079,0.851988 -0.0423031,0.16522 -0.143535,0.163413 -0.235744,0.148894 -0.0322008,0.172331 -0.155287,0.24678 -0.330874,0.264693 -0.335323,0.581913 -0.363843,0.686882 -1.12496,0.810634 -0.191311,0.0572244 -0.369795,0.142673 -0.533528,0.260559 -0.0265039,0.0156693 -0.0537913,-0.0187717 -0.024815,-0.0413583 0.116051,-0.11435 0.253417,-0.20411 0.405315,-0.277102 -0.25389,-0.00906693 -0.519417,0.0389449 -0.831311,0.314323 -0.0428071,0.0378346 -0.0725157,-0.0220866 -0.0413583,-0.0579016 0.15278,-0.189154 0.360591,-0.314228 0.645724,-0.348976 -0.0963819,-0.100988 -0.223102,-0.0685984 -0.356213,-0.0522047 -0.0423937,0.00207087 -0.0620394,-0.0449764 -0.0124094,-0.0620354 0.0937441,-0.0286811 0.187496,-0.0430157 0.28124,-0.0330866 -0.0705984,-0.24413 0.0940354,-0.485161 0.442539,-0.723776 -0.204402,-0.0128268 -0.327748,-0.122283 -0.388772,-0.306055 -0.0663425,0.13489 -0.141831,0.258016 -0.227476,0.368091 0.0317087,0.00964961 0.0861654,-0.000346457 0.095126,0.0289528 0.00330315,0.0088937 -0.048748,0.0137126 -0.104484,0.0358622 -0.0652165,0.0259134 -0.139307,0.068315 -0.193299,0.0592598 -0.182559,-0.0249449 -0.132866,-0.177843 -0.405831,-0.107531 -0.0377402,0.00292913 -0.0641063,-0.0360157 -0.0201614,-0.0579016 0.0909882,-0.0515157 0.181976,-0.033248 0.272965,-0.0124094 -0.0104528,-0.0515787 -0.0298661,-0.0693937 -0.0982283,-0.0630709 -0.0249409,0.00771654 -0.0302362,-0.0338819 0.0031063,-0.0444606 0.0860866,-0.0370709 0.126346,0.0175157 0.157161,0.0909882l0.248154 -0.421858c-0.0497165,-0.426327 -0.137224,-0.848957 -0.413591,-1.25317 -0.147787,-0.238409 -0.177563,-0.442646 -0.115799,-0.620386 0.174512,-0.066248 0.363098,-0.0621929 0.554205,-0.0454921 0.18924,-0.201488 0.412941,-0.054622 0.3805,0.206795 0.348106,0.151646 0.427374,0.42737 0.641059,0.641059 0.133728,0.0999488 0.426689,0.107878 0.551106,0.188181 0.071,0.0616969 0.0913346,0.17302 0.131315,0.26263 0.0147362,-0.496843 0.375425,-0.417941 0.525256,-0.00413386z"/>
   </g>
  </g>
  <path class="fil2" d="M3.41333 -3.93701e-006c1.88513,0 3.41333,1.5282 3.41333,3.41333 0,1.88513 -1.5282,3.41333 -3.41333,3.41333 -1.88513,0 -3.41333,-1.5282 -3.41333,-3.41333 0,-1.88513 1.5282,-3.41333 3.41333,-3.41333z"/>
  <path class="fil3" d="M4.65629 3.93617c-0.0322008,0.172331 -0.155287,0.24678 -0.330874,0.264693 -0.335323,0.581913 -0.363843,0.686882 -1.12496,0.810634 -0.191311,0.0572244 -0.369795,0.142673 -0.533528,0.260559 -0.0265039,0.0156693 -0.0537913,-0.0187717 -0.024815,-0.0413583 0.116051,-0.11435 0.253417,-0.20411 0.405315,-0.277102 -0.25389,-0.00906693 -0.519417,0.0389449 -0.831311,0.314323 -0.0428071,0.0378346 -0.0725157,-0.0220866 -0.0413583,-0.0579016 0.15278,-0.189154 0.360591,-0.314228 0.645724,-0.348976 -0.0963819,-0.100988 -0.223102,-0.0685984 -0.356213,-0.0522047 -0.0423937,0.00207087 -0.0620394,-0.0449764 -0.0124094,-0.0620354 0.0937441,-0.0286811 0.187496,-0.0430157 0.28124,-0.0330866 -0.0705984,-0.24413 0.0940354,-0.485161 0.442539,-0.723776 -0.204402,-0.0128268 -0.327748,-0.122283 -0.388772,-0.306055 -0.0663425,0.13489 -0.141831,0.258016 -0.227476,0.368091 0.0317087,0.00964961 0.0861654,-0.000346457 0.095126,0.0289528 0.00330315,0.0088937 -0.048748,0.0137126 -0.104484,0.0358622 -0.0652165,0.0259134 -0.139307,0.068315 -0.193299,0.0592598 -0.182559,-0.0249449 -0.132866,-0.177843 -0.405831,-0.107531 -0.0377402,0.00292913 -0.0641063,-0.0360157 -0.0201614,-0.0579016 0.0909882,-0.0515157 0.181976,-0.033248 0.272965,-0.0124094 -0.0104528,-0.0515787 -0.0298661,-0.0693937 -0.0982283,-0.0630709 -0.0249409,0.00771654 -0.0302362,-0.0338819 0.0031063,-0.0444606 0.0860866,-0.0370709 0.126346,0.0175157 0.157161,0.0909882 0.0827165,-0.140618 0.165437,-0.28124 0.248154,-0.421858 -0.0497165,-0.426327 -0.137224,-0.848957 -0.413591,-1.25317 -0.147787,-0.238409 -0.177563,-0.442646 -0.115799,-0.620386 0.174512,-0.066248 0.363098,-0.0621929 0.554205,-0.0454921 0.18924,-0.201488 0.412941,-0.054622 0.3805,0.206795 0.348106,0.151646 0.427374,0.42737 0.641059,0.641059 0.133728,0.0999488 0.426689,0.107878 0.551106,0.188181 0.071,0.0616969 0.0913346,0.17302 0.131315,0.26263 0.0147362,-0.496843 0.375425,-0.417941 0.525256,-0.00413386 0.165134,0.226866 0.174122,0.525811 0.124079,0.851988 -0.0423031,0.16522 -0.143535,0.163413 -0.235744,0.148894z"/>
  <path class="fil4" d="M2.81236 3.61904c0.0295236,-0.0626969 0.0404882,-0.103169 0.0530827,-0.172378 0.066874,0.214787 0.261673,0.387665 0.514008,0.461114 -0.0583465,0.0199646 -0.0900906,0.0310669 -0.147122,0.0545354 -0.265031,-0.0158858 -0.392079,-0.156429 -0.419969,-0.343272z"/>
  <path class="fil4" d="M3.08017 4.46087c0.329071,-0.395984 0.462197,-0.473598 0.99261,-0.550071 -0.547319,0.142094 -0.58174,0.192945 -0.99261,0.550071z"/>
  <path class="fil4" d="M2.82581 4.76944c0.555768,0.210154 1.1434,-0.258319 1.45413,-0.694933 -0.376819,0.421614 -0.923744,0.790831 -1.45413,0.694933z"/>
  <path class="fil4" d="M4.29237 3.91662c-0.387421,0.347661 -0.667165,0.615248 -1.20576,0.725039 0.526051,-0.124697 0.769264,-0.412606 1.20576,-0.725039z"/>
  <path class="fil4" d="M2.50425 3.23768c-0.0390472,-0.715693 -0.459173,-0.896295 -0.491768,-1.22096 0.0679685,0.170815 0.368449,0.473575 0.475228,0.774287 -0.120744,-0.456654 -0.472961,-0.640945 -0.483898,-0.996748 0.0769961,0.179547 0.189437,0.314465 0.289512,0.446673 0.21548,0.284681 0.309961,0.617457 0.210925,0.996744z"/>
  <path class="fil4" d="M2.14446 1.67848c0.645575,-0.0133819 0.884657,0.41485 1.27074,0.888177 0.320268,0.39263 0.585843,0.0167795 1.06292,1.10428 -0.656039,-1.08489 -0.846933,-0.730488 -1.10014,-1.01743 -0.354606,-0.40185 -0.600945,-0.888035 -1.23352,-0.975028z"/>
  <path class="fil4" d="M2.75192 2.27857c0.0193031,0.0634173 0.0172717,0.137882 0.0579016,0.190256 0.0280906,0.0362047 0.0927126,0.0206496 0.128213,0.0496299 0.0355472,0.0290157 0.0396063,0.0859409 0.0744488,0.115803 0.0449409,0.0385236 0.093252,0.0340433 0.133173,0.077752 0.12311,0.134783 0.206606,0.330339 0.346587,0.447504 0.180307,0.150917 0.422484,0.210067 0.616244,0.343276 0.139161,0.0956732 0.250909,0.226094 0.376366,0.339142 -0.136484,-0.102016 -0.263094,-0.218803 -0.409453,-0.306055 -0.213417,-0.127224 -0.455524,-0.189898 -0.647677,-0.347413 -0.140165,-0.114902 -0.201571,-0.301972 -0.31598,-0.442535 -0.0331378,-0.0407087 -0.0985866,-0.0422638 -0.136484,-0.0785827 -0.0307402,-0.0294567 -0.0212323,-0.0877165 -0.0517008,-0.117457 -0.03,-0.0292874 -0.120354,-0.038185 -0.136894,-0.0624528 -0.00551181,0.0606614 -0.0630039,0.136657 -0.0719646,0.205965 -0.00686614,0.0530866 0.0279724,0.103819 0.0140591,0.155512 -0.0177008,0.0657638 -0.0526654,0.110701 -0.0926417,0.165846 0.0261929,-0.0551457 0.0686693,-0.105197 0.0785827,-0.165437 0.00883071,-0.0536732 -0.0320866,-0.107386 -0.0248189,-0.161299 0.00979134,-0.0726063 0.0634764,-0.134358 0.0744488,-0.206791 0.0101378,-0.0669173 -0.00827165,-0.135106 -0.0124094,-0.202661z"/>
  <path class="fil4" d="M4.40889 2.69046c0.0530276,0.408165 0.115118,0.65737 0.244016,1.04638 -0.0831417,-0.350929 -0.164098,-0.697272 -0.244016,-1.04638z"/>
  <path class="fil4" d="M4.78895 3.0473c0.120071,0.263106 0.0677126,0.520094 -0.00257874,0.828701 0.0379331,-0.275945 0.068248,-0.592094 0.00257874,-0.828701z"/>
  <path class="fil4" d="M4.73667 3.71227c0.0462323,-0.424705 -0.0324016,-0.678047 -0.188181,-1.01743 0.134362,0.339638 0.18928,0.656933 0.188181,1.01743z"/>
  <path class="fil4" d="M2.28406 1.82508c-0.024126,0 -0.048252,0 -0.072378,0 -0.057937,-0.0544134 -0.126799,-0.0951654 -0.206795,-0.122008 0.100193,0.005 0.190087,0.0615039 0.279173,0.122008z"/>
  <ellipse class="fil5" cx="2.3463" cy="1.98151" rx="0.104088" ry="0.114427"/>
  <path class="fil6" d="M2.34869 1.9295c0.0345512,0 0.0625551,0.0280079 0.0625551,0.0625551 0,0.0345512 -0.0280039,0.0625551 -0.0625551,0.0625551 -0.0345472,0 -0.0625512,-0.0280039 -0.0625512,-0.0625551 0,-0.0345472 0.0280039,-0.0625551 0.0625512,-0.0625551zm0.0147362 0.0272441c0.00213386,0.00351181 0.00335827,0.0076378 0.00335827,0.0120433 0,0.0128504 -0.0104134,0.0232638 -0.0232638,0.0232638 -0.0128504,0 -0.0232638,-0.0104134 -0.0232638,-0.0232638 0,-0.000834646 4.33071e-005,-0.00165748 0.000133858,-0.00247244 -0.00618504,0.00679921 -0.00995669,0.0158268 -0.00995669,0.0257402 0,0.0211299 0.017126,0.0382559 0.0382559,0.0382559 0.0211339,0 0.0382598,-0.017126 0.0382598,-0.0382559 0,-0.0159055 -0.0097126,-0.0295433 -0.0235236,-0.035311zm-0.00948425 -0.0974646c0.0621024,0 0.112445,0.0556693 0.112445,0.124335 0,0.0686654 -0.0503425,0.124335 -0.112445,0.124335 -0.0621024,0 -0.112445,-0.0556693 -0.112445,-0.124335 0,-0.0686654 0.0503425,-0.124335 0.112445,-0.124335zm-0.00709055 0.0229724c0.0506811,0 0.0917638,0.0454331 0.0917638,0.101469 0,0.0560354 -0.0410827,0.101469 -0.0917638,0.101469 -0.0506811,0 -0.0917638,-0.0454331 -0.0917638,-0.101469 0,-0.0560354 0.0410827,-0.101469 0.0917638,-0.101469z"/>
 </g>
</svg>
