<?xml version="1.0" encoding="UTF-8"?>
<!DOCTYPE svg PUBLIC "-//W3C//DTD SVG 1.1//EN" "http://www.w3.org/Graphics/SVG/1.1/DTD/svg11.dtd">
<!-- Creator: CorelDRAW -->
<svg xmlns="http://www.w3.org/2000/svg" xml:space="preserve" width="6.82666in" height="6.82666in" style="shape-rendering:geometricPrecision; text-rendering:geometricPrecision; image-rendering:optimizeQuality; fill-rule:evenodd; clip-rule:evenodd"
viewBox="0 0 6.82666 6.82666"
 xmlns:xlink="http://www.w3.org/1999/xlink">
 <defs>
  <style type="text/css">
   <![CDATA[
    .fil2 {fill:none}
    .fil1 {fill:#00000000}
    .fil3 {fill:#3E2723}
    .fil4 {fill:#4E342E}
    .fil5 {fill:#5D4037}
    .fil7 {fill:#6D4C41}
    .fil0 {fill:#00000000}
    .fil6 {fill:#A1887F}
   ]]>
  </style>
   <clipPath id="id0">
    <path d="M3.41333 -3.93701e-006c1.88513,0 3.41333,1.5282 3.41333,3.41333 0,1.88513 -1.5282,3.41333 -3.41333,3.41333 -1.88513,0 -3.41333,-1.5282 -3.41333,-3.41333 0,-1.88513 1.5282,-3.41333 3.41333,-3.41333z"/>
   </clipPath>
 </defs>
 <g id="Layer_x0020_1">
  <metadata id="CorelCorpID_0Corel-Layer"/>
  <path class="fil0" d="M3.41333 -3.93701e-006c1.88513,0 3.41333,1.5282 3.41333,3.41333 0,1.88513 -1.5282,3.41333 -3.41333,3.41333 -1.88513,0 -3.41333,-1.5282 -3.41333,-3.41333 0,-1.88513 1.5282,-3.41333 3.41333,-3.41333z"/>
  <g style="clip-path:url(#id0)">
   <g id="_637662952">
    <g>
     <polygon id="_4434376881" class="fil1" points="4.05137,1.60874 7.83763,5.39501 7.84893,5.40799 7.86002,5.42117 7.87089,5.43457 7.88153,5.4482 7.89193,5.46206 7.90209,5.47616 7.912,5.49051 7.92165,5.50512 7.93102,5.52 7.94011,5.53516 7.94892,5.55061 7.95743,5.56635 7.96563,5.58239 7.97352,5.59875 7.98109,5.61543 7.98833,5.63243 7.99522,5.64978 8.00177,5.66747 8.00796,5.68552 8.01378,5.70394 8.01923,5.72273 8.02429,5.74191 8.02896,5.76147 8.03324,5.78143 8.0371,5.80181 8.04054,5.8226 8.04356,5.84381 4.25729,2.05754 4.25428,2.03633 4.25083,2.01554 4.24697,1.99516 4.2427,1.9752 4.23802,1.95563 4.23296,1.93646 4.22751,1.91767 4.22169,1.89925 4.2155,1.8812 4.20895,1.86351 4.20206,1.84616 4.19482,1.82915 4.18726,1.81248 4.17937,1.79612 4.17116,1.78007 4.16265,1.76433 4.15385,1.74889 4.14475,1.73373 4.13538,1.71885 4.12573,1.70424 4.11583,1.68989 4.10567,1.67578 4.09526,1.66193 4.08462,1.6483 4.07375,1.6349 4.06267,1.62172 "/>
     <polygon id="_443437712" class="fil1" points="4.39107,2.12807 8.17733,5.91434 8.18236,5.92007 8.18714,5.92605 8.19165,5.93229 8.19589,5.9388 8.19985,5.94559 8.20353,5.95267 8.20691,5.96004 8.20999,5.96771 8.21276,5.97569 8.21522,5.98398 8.21735,5.9926 8.21915,6.00155 8.2206,6.01084 4.43433,2.22457 4.43288,2.21528 4.43108,2.20633 4.42895,2.19771 4.4265,2.18942 4.42372,2.18144 4.42064,2.17377 4.41726,2.1664 4.41358,2.15932 4.40962,2.15253 4.40538,2.14602 4.40087,2.13978 4.39609,2.1338 "/>
     <polygon id="_443437904" class="fil1" points="4.43433,2.22457 8.2206,6.01084 8.22057,6.01085 8.22054,6.01087 8.22051,6.01089 8.22048,6.01091 8.22044,6.01093 8.22041,6.01094 8.22038,6.01096 8.22035,6.01098 4.43408,2.22471 4.43411,2.22469 4.43415,2.22467 4.43418,2.22465 4.43421,2.22464 4.43424,2.22462 4.43427,2.2246 4.4343,2.22458 "/>
     <polygon id="_443437880" class="fil1" points="4.43408,2.22471 8.22035,6.01098 8.2685,6.15061 4.48223,2.36434 "/>
     <polygon id="_443438480" class="fil1" points="4.9464,2.62502 8.73267,6.41129 8.75291,6.43546 8.77205,6.46078 8.79005,6.48726 8.80685,6.51493 8.8224,6.54381 8.83666,6.57393 8.84957,6.60531 8.86109,6.63798 8.87116,6.67197 8.87974,6.7073 8.88678,6.74399 8.89223,6.78207 8.89603,6.82156 8.89815,6.8625 8.89852,6.90489 5.11225,3.11862 5.11188,3.07622 5.10976,3.03529 5.10596,2.9958 5.10052,2.95772 5.09348,2.92103 5.08489,2.8857 5.07482,2.85171 5.0633,2.81904 5.05039,2.78765 5.03613,2.75754 5.02058,2.72865 5.00378,2.70098 4.98578,2.67451 4.96664,2.64919 "/>
     <polygon id="_443438672" class="fil1" points="5.11225,3.11862 8.89852,6.90489 8.89852,7.23891 5.11225,3.45264 "/>
     <polygon id="_443438984" class="fil1" points="4.16889,4.51693 7.95516,8.3032 7.95004,8.30232 7.94458,8.30164 7.93883,8.30115 7.9328,8.30085 7.92654,8.30072 7.92007,8.30076 7.91342,8.30096 7.90661,8.30132 7.89969,8.30183 7.89267,8.30249 7.88558,8.30328 7.87846,8.3042 7.87133,8.30525 7.86423,8.30641 7.85718,8.30768 7.8502,8.30906 7.84335,8.31053 7.83663,8.31209 7.83007,8.31373 7.82372,8.31545 7.81759,8.31724 7.81172,8.31909 7.80614,8.321 7.80087,8.32296 7.79594,8.32496 7.79139,8.327 7.78724,8.32906 7.78352,8.33115 7.78026,8.33325 7.77749,8.33536 7.77524,8.33748 7.77354,8.33959 3.98727,4.55331 3.98897,4.5512 3.99122,4.54909 3.99399,4.54698 3.99725,4.54487 4.00097,4.54279 4.00512,4.54072 4.00967,4.53869 4.0146,4.53669 4.01987,4.53473 4.02545,4.53282 4.03132,4.53097 4.03745,4.52918 4.0438,4.52746 4.05036,4.52582 4.05708,4.52426 4.06394,4.52279 4.07091,4.52141 4.07796,4.52014 4.08506,4.51898 4.09219,4.51793 4.09931,4.51701 4.1064,4.51622 4.11342,4.51556 4.12035,4.51505 4.12715,4.51469 4.1338,4.51448 4.14028,4.51444 4.14654,4.51457 4.15256,4.51488 4.15831,4.51537 4.16377,4.51605 "/>
     <polygon id="_443438576" class="fil1" points="3.98727,4.55331 7.77354,8.33959 7.77552,8.35983 7.77739,8.38011 7.77915,8.40042 7.78079,8.42075 7.78231,8.44112 7.7837,8.46151 7.78498,8.48193 7.78613,8.50237 7.78714,8.52284 7.78803,8.54333 7.78878,8.56384 7.78939,8.58437 7.78986,8.60492 7.79019,8.62549 7.79038,8.64607 7.79041,8.66667 7.7903,8.68729 7.79004,8.70792 7.78962,8.72856 7.78904,8.74922 7.7883,8.76988 7.7874,8.79056 7.78633,8.81124 7.7851,8.83193 7.78369,8.85262 7.78211,8.87332 7.78036,8.89402 7.77843,8.91472 7.77631,8.93543 7.77402,8.95614 7.77154,8.97685 7.76887,8.99755 3.9826,5.21128 3.98527,5.19057 3.98775,5.16987 3.99005,5.14916 3.99216,5.12845 3.99409,5.10775 3.99585,5.08705 3.99743,5.06635 3.99883,5.04565 4.00006,5.02496 4.00113,5.00428 4.00203,4.98361 4.00277,4.96294 4.00335,4.94229 4.00377,4.92165 4.00404,4.90102 4.00415,4.8804 4.00411,4.8598 4.00393,4.83922 4.00359,4.81865 4.00312,4.79809 4.00251,4.77757 4.00176,4.75706 4.00087,4.73657 3.99986,4.7161 3.99871,4.69566 3.99744,4.67524 3.99604,4.65485 3.99452,4.63448 3.99288,4.61415 3.99113,4.59384 3.98926,4.57356 "/>
     <polygon id="_443438600" class="fil1" points="5.11225,3.45264 8.89852,7.23891 8.89311,7.2986 8.8873,7.35788 8.88109,7.41676 8.87447,7.47523 8.86745,7.5333 8.86004,7.59098 8.85222,7.64826 8.84402,7.70515 8.83543,7.76164 8.82644,7.81775 8.81707,7.87347 8.80732,7.9288 8.79718,7.98376 8.78667,8.03833 8.77577,8.09253 8.7645,8.14635 8.75286,8.1998 8.74085,8.25287 8.72846,8.30558 8.71572,8.35792 8.70261,8.4099 8.68913,8.46152 8.6753,8.51277 8.66111,8.56367 8.64657,8.61421 8.63167,8.6644 8.61642,8.71424 8.60082,8.76373 8.58488,8.81288 8.56859,8.86168 8.55196,8.91014 8.535,8.95826 4.74873,5.17199 4.7657,5.12387 4.78232,5.07541 4.79861,5.02661 4.81456,4.97746 4.83015,4.92797 4.8454,4.87813 4.8603,4.82794 4.87484,4.7774 4.88903,4.7265 4.90287,4.67524 4.91634,4.62363 4.92945,4.57165 4.9422,4.51931 4.95458,4.4666 4.96659,4.41352 4.97824,4.36007 4.9895,4.30626 5.0004,4.25206 5.01091,4.19748 5.02105,4.14253 5.0308,4.0872 5.04017,4.03148 5.04916,3.97537 5.05776,3.91887 5.06596,3.86199 5.07377,3.80471 5.08119,3.74703 5.0882,3.68896 5.09482,3.63048 5.10104,3.57161 5.10685,3.51233 "/>
     <polygon id="_443438648" class="fil1" points="4.74873,5.17199 8.535,8.95826 8.5184,8.96247 8.50115,8.96638 8.4833,8.96999 8.46488,8.97331 8.44594,8.97634 8.42654,8.97907 8.40671,8.98151 8.3865,8.98366 8.36595,8.98551 8.34512,8.98707 8.32404,8.98835 8.30277,8.98932 8.28135,8.99001 8.25981,8.99041 8.23823,8.99052 8.21662,8.99033 8.19505,8.98986 8.17355,8.9891 8.15218,8.98806 8.13097,8.98672 8.10998,8.9851 8.08925,8.98319 8.06882,8.98099 8.04874,8.97851 8.02906,8.97574 8.00982,8.97269 7.99107,8.96935 7.97286,8.96573 7.95522,8.96183 7.9382,8.95764 7.92186,8.95317 7.90623,8.94842 4.11996,5.16215 4.13559,5.1669 4.15194,5.17137 4.16895,5.17556 4.18659,5.17946 4.20481,5.18308 4.22356,5.18642 4.2428,5.18947 4.26248,5.19224 4.28255,5.19472 4.30298,5.19692 4.32371,5.19883 4.3447,5.20045 4.36591,5.20178 4.38728,5.20283 4.40878,5.20359 4.43035,5.20406 4.45196,5.20424 4.47355,5.20414 4.49508,5.20374 4.5165,5.20305 4.53778,5.20207 4.55885,5.2008 4.57969,5.19924 4.60023,5.19739 4.62044,5.19524 4.64027,5.1928 4.65968,5.19007 4.67861,5.18704 4.69703,5.18372 4.71489,5.18011 4.73213,5.1762 "/>
     <polygon id="_443439104" class="fil1" points="2.86541,4.2374 6.65167,8.02367 6.64128,8.04461 6.63083,8.0655 6.62033,8.08633 6.60979,8.10711 6.5992,8.12785 6.58858,8.14855 6.57793,8.16922 6.56725,8.18986 6.55655,8.21048 6.54584,8.23109 6.53512,8.25169 6.5244,8.27229 6.51368,8.29288 6.50297,8.31348 6.49227,8.3341 6.48159,8.35473 6.47093,8.37539 6.46031,8.39607 6.44972,8.41679 6.43917,8.43755 6.42866,8.45835 6.4182,8.47921 6.4078,8.50012 6.39747,8.5211 6.3872,8.54214 6.377,8.56326 6.36688,8.58445 6.35684,8.60572 6.3469,8.62709 6.33704,8.64855 6.32729,8.67011 6.31764,8.69178 2.53137,4.90551 2.54102,4.88384 2.55078,4.86228 2.56063,4.84082 2.57057,4.81945 2.58061,4.79818 2.59073,4.77698 2.60093,4.75587 2.6112,4.73483 2.62154,4.71385 2.63194,4.69294 2.64239,4.67208 2.6529,4.65128 2.66345,4.63052 2.67404,4.6098 2.68467,4.58911 2.69532,4.56846 2.706,4.54783 2.7167,4.52721 2.72741,4.50661 2.73813,4.48602 2.74885,4.46542 2.75957,4.44482 2.77028,4.42421 2.78098,4.40359 2.79166,4.38295 2.80231,4.36228 2.81293,4.34157 2.82352,4.32084 2.83407,4.30006 2.84457,4.27923 2.85502,4.25834 "/>
     <polygon id="_443438744" class="fil1" points="3.20624,4.88923 6.99251,8.6755 6.98931,8.68311 6.98631,8.69072 6.98349,8.69833 6.98087,8.70595 6.97843,8.71358 6.97618,8.72121 6.97411,8.72885 6.97223,8.73649 6.97054,8.74414 6.96902,8.75179 6.96768,8.75945 6.96652,8.76712 6.96554,8.77479 6.96473,8.78246 6.9641,8.79014 6.96364,8.79782 3.17737,5.01155 3.17783,5.00387 3.17846,4.99619 3.17927,4.98852 3.18025,4.98085 3.18141,4.97318 3.18275,4.96552 3.18427,4.95787 3.18596,4.95022 3.18785,4.94257 3.18991,4.93494 3.19216,4.92731 3.1946,4.91968 3.19722,4.91206 3.20004,4.90444 3.20304,4.89683 "/>
     <polygon id="_443439224" class="fil1" points="3.17737,5.01155 6.96364,8.79782 6.95907,8.79711 6.95446,8.79643 6.94982,8.79578 6.94515,8.79517 6.94046,8.79457 6.93574,8.79401 6.93101,8.79346 6.92626,8.79293 6.92149,8.79241 6.91671,8.79189 6.91193,8.79139 6.90715,8.79089 6.90236,8.79039 6.89757,8.78989 6.8928,8.78938 6.88803,8.78887 6.88327,8.78833 6.87853,8.78779 6.87381,8.78723 6.86911,8.78664 6.86443,8.78603 6.85978,8.78539 6.85517,8.78472 6.85059,8.78402 6.84604,8.78328 6.84154,8.7825 6.83708,8.78167 6.83267,8.78079 6.82831,8.77987 6.824,8.77889 6.81975,8.77785 6.81556,8.77676 3.0293,4.99049 3.03348,4.99158 3.03774,4.99262 3.04204,4.9936 3.04641,4.99452 3.05081,4.9954 3.05528,4.99622 3.05978,4.997 3.06432,4.99775 3.0689,4.99845 3.07352,4.99912 3.07817,4.99976 3.08284,5.00037 3.08754,5.00096 3.09226,5.00152 3.097,5.00206 3.10176,5.00259 3.10653,5.00311 3.11131,5.00362 3.11609,5.00412 3.12088,5.00462 3.12566,5.00512 3.13044,5.00562 3.13522,5.00613 3.13999,5.00665 3.14474,5.00719 3.14948,5.00774 3.15419,5.0083 3.15889,5.00889 3.16356,5.00951 3.16819,5.01016 3.1728,5.01084 "/>
     <polygon id="_443439272" class="fil1" points="2.99986,4.55166 6.78613,8.33793 6.77953,8.33204 6.7727,8.32629 6.76567,8.32066 6.75848,8.31513 6.75119,8.30969 6.74383,8.30431 6.73644,8.29897 6.72908,8.29365 6.72178,8.28833 6.71459,8.283 6.70755,8.27763 6.70071,8.27219 6.6941,8.26669 6.68778,8.26108 2.90151,4.47481 2.90783,4.48041 2.91444,4.48592 2.92128,4.49135 2.92832,4.49673 2.93552,4.50206 2.94281,4.50738 2.95018,4.5127 2.95756,4.51804 2.96492,4.52342 2.97222,4.52886 2.9794,4.53439 2.98643,4.54002 2.99326,4.54577 "/>
     <polygon id="_443438816" class="fil1" points="2.97013,4.26124 6.75639,8.04751 6.75007,8.0458 6.74374,8.0441 6.73741,8.0424 6.73106,8.04072 6.72469,8.03906 6.7183,8.03742 6.71187,8.03581 6.70541,8.03424 6.69891,8.03272 6.69235,8.03124 6.68574,8.02981 6.67907,8.02844 6.67234,8.02714 6.66553,8.02591 6.65864,8.02475 6.65167,8.02367 2.86541,4.2374 2.87237,4.23848 2.87926,4.23963 2.88607,4.24087 2.8928,4.24217 2.89948,4.24354 2.90608,4.24496 2.91264,4.24644 2.91914,4.24797 2.92561,4.24954 2.93203,4.25115 2.93843,4.25279 2.94479,4.25445 2.95114,4.25613 2.95748,4.25783 2.9638,4.25953 "/>
     <polygon id="_443440064" class="fil1" points="3.28598,4.8093 7.07224,8.59557 7.06684,8.60056 7.06135,8.60523 7.05582,8.60965 7.05026,8.61387 7.04472,8.61799 7.0392,8.62206 7.03376,8.62615 7.02841,8.63033 7.02319,8.63469 7.01811,8.63926 7.01322,8.64415 7.00854,8.6494 7.0041,8.65509 6.99993,8.6613 6.99606,8.66807 6.99251,8.6755 3.20624,4.88923 3.20979,4.8818 3.21367,4.87502 3.21783,4.86882 3.22228,4.86313 3.22695,4.85787 3.23185,4.85299 3.23692,4.84841 3.24214,4.84406 3.24749,4.83988 3.25294,4.83579 3.25845,4.83172 3.264,4.8276 3.26955,4.82337 3.27509,4.81896 3.28057,4.81429 "/>
     <polygon id="_443439968" class="fil1" points="3.9826,5.21128 7.76887,8.99755 7.74814,9.00344 7.72656,9.00925 7.7042,9.01494 7.68111,9.02048 7.65735,9.02584 7.63298,9.031 7.60806,9.03592 7.58265,9.04058 7.55681,9.04494 7.53061,9.04899 7.50409,9.05268 7.47733,9.056 7.45039,9.0589 7.42331,9.06136 7.39616,9.06336 7.36901,9.06486 7.34191,9.06583 7.31492,9.06625 7.2881,9.06609 7.26152,9.06531 7.23522,9.06389 7.20928,9.0618 7.18376,9.05901 7.1587,9.05548 7.13418,9.0512 7.11025,9.04613 7.08697,9.04025 7.06441,9.03352 7.04262,9.02591 7.02166,9.0174 7.00159,9.00796 6.98248,8.99755 3.19622,5.21128 3.21533,5.22169 3.23539,5.23113 3.25635,5.23964 3.27814,5.24725 3.3007,5.25398 3.32398,5.25986 3.34791,5.26493 3.37243,5.26921 3.39749,5.27274 3.42302,5.27553 3.44896,5.27762 3.47525,5.27904 3.50183,5.27981 3.52865,5.27998 3.55564,5.27956 3.58274,5.27859 3.60989,5.27709 3.63704,5.27509 3.66412,5.27263 3.69107,5.26972 3.71783,5.26641 3.74434,5.26272 3.77055,5.25867 3.79638,5.25431 3.82179,5.24965 3.84671,5.24473 3.87108,5.23957 3.89484,5.2342 3.91793,5.22867 3.9403,5.22298 3.96187,5.21717 "/>
     <polygon id="_443439416" class="fil1" points="2.6163,4.94024 6.40257,8.72651 6.40741,8.73089 6.41196,8.73555 6.41622,8.74052 6.42016,8.74579 6.42379,8.75139 6.42709,8.75731 6.43005,8.76357 6.43266,8.77019 6.43492,8.77716 6.43681,8.78449 6.43832,8.79221 6.43945,8.80031 6.44019,8.8088 6.44052,8.81771 6.44043,8.82702 6.43992,8.83677 6.43897,8.84694 6.43758,8.85757 6.43574,8.86864 2.64947,5.08237 2.65131,5.0713 2.6527,5.06067 2.65365,5.0505 2.65416,5.04075 2.65425,5.03144 2.65392,5.02253 2.65319,5.01404 2.65206,5.00594 2.65054,4.99822 2.64865,4.99089 2.64639,4.98391 2.64378,4.9773 2.64082,4.97104 2.63752,4.96511 2.63389,4.95952 2.62995,4.95424 2.62569,4.94928 2.62114,4.94461 "/>
     <polygon id="_443439848" class="fil1" points="2.64947,5.08237 6.43574,8.86864 6.41594,8.87172 6.39565,8.87455 6.37489,8.87714 6.35369,8.87949 6.3321,8.88161 6.31013,8.8835 6.28784,8.88517 6.26524,8.88663 6.24237,8.88786 6.21926,8.88889 6.19596,8.88972 6.17248,8.89035 6.14887,8.89078 6.12515,8.89102 6.10136,8.89108 6.07754,8.89096 6.05371,8.89067 6.02991,8.89021 6.00617,8.88958 5.98252,8.8888 5.959,8.88785 5.93564,8.88676 5.91248,8.88552 5.88954,8.88415 5.86685,8.88263 5.84447,8.88098 5.82241,8.87921 5.8007,8.87732 5.77939,8.87531 5.7585,8.8732 5.73806,8.87097 5.71812,8.86864 1.93185,5.08237 1.9518,5.0847 1.97223,5.08693 1.99312,5.08904 2.01443,5.09105 2.03614,5.09294 2.0582,5.09471 2.08059,5.09636 2.10327,5.09787 2.12621,5.09925 2.14937,5.10049 2.17273,5.10158 2.19625,5.10252 2.2199,5.10331 2.24364,5.10394 2.26744,5.1044 2.29127,5.10469 2.31509,5.10481 2.33888,5.10475 2.3626,5.10451 2.38621,5.10407 2.40969,5.10344 2.433,5.10262 2.4561,5.10159 2.47897,5.10035 2.50157,5.0989 2.52387,5.09723 2.54583,5.09534 2.56743,5.09322 2.58862,5.09087 2.60938,5.08828 2.62968,5.08545 "/>
    </g>
    <path id="_637662616" class="fil1" d="M3.99203 1.54666c0.131193,0.127917 0.235386,0.282252 0.265264,0.510882 0.0902677,0.0243622 0.163339,0.0661102 0.177043,0.167024 -8.26772e-005,4.72441e-005 -0.000169291,9.44882e-005 -0.000251969,0.000141732l0.0481457 0.13963c0.3355,0.0880591 0.635504,0.294177 0.630024,0.75428l0 0.334024c-0.0554724,0.638843 -0.180732,1.20787 -0.363524,1.71935 -0.173362,0.0464528 -0.466047,0.0423583 -0.628764,-0.00984252 -0.0260039,-0.0665236 -0.0286654,-0.189295 0,-0.255417 0.0532008,-0.0415787 0.131594,-0.0583346 0.177043,-0.108102 -0.000480315,-0.0010315 -0.00096063,-0.00206693 -0.00144488,-0.0031063 -0.0344843,-0.0741732 -0.0816102,-0.172646 -0.126669,-0.278591 -0.0528465,-0.0104409 -0.166496,0.0139291 -0.181622,0.0363858 0.0217323,0.21578 0.0248268,0.43713 -0.00467323,0.657965 -0.216339,0.063248 -0.587819,0.11624 -0.786382,0 -0.0624252,-0.178476 0.0339882,-0.277539 0.108488,-0.373323 -0.00565354,-0.0095748 -0.0119291,-0.0191181 -0.0187283,-0.0286575 -0.0285709,0.0276063 -0.0617402,0.0384567 -0.0797323,0.0799331 -0.0175787,0.0405315 -0.026874,0.0813268 -0.028874,0.122319 -0.0485591,-0.00781496 -0.103709,-0.00905118 -0.148075,-0.021063 -0.0296732,-0.104799 -0.0536496,-0.169323 -0.0757717,-0.28148 0.022122,-0.0435827 0.0616063,-0.0693819 0.0783976,-0.11787 -0.0423268,-0.0779488 -0.177783,-0.107606 -0.168441,-0.198622 0.00388583,-0.0378228 0.0784882,-0.116551 0.106646,-0.131276 -0.0337323,-0.00910236 -0.067315,-0.0183346 -0.10472,-0.0238386 -0.110516,0.22372 -0.231693,0.436398 -0.334031,0.66811 0.0833031,0.0147323 0.140197,0.0562717 0.118098,0.176858 -0.208366,0.0341732 -0.507634,0.0253543 -0.717618,0 -0.0401102,-0.0579291 -0.0585512,-0.137772 -0.078374,-0.21615l0 -0.167008c-0.0102559,-0.28411 0.276524,-0.400972 0.304563,-0.638626 0.0163465,-0.13939 -0.0593661,-0.285118 -0.0491496,-0.422465 0.0164409,-0.224126 0.166165,-0.333185 0.432713,-0.326618 -0.0481732,-0.129185 -0.0744528,-0.271705 -0.0623858,-0.428681 0.0198543,-0.261169 0.149417,-0.55326 0.422272,-0.569839 0.0148228,-0.000897638 0.0290748,-0.00104724 0.0427992,-0.000523622l0.0857087 -0.0494291c0.225862,-0.317094 0.504705,-0.58161 0.913102,-0.71637l0.0489252 0z"/>
   </g>
  </g>
  <path class="fil2" d="M3.41333 -3.93701e-006c1.88513,0 3.41333,1.5282 3.41333,3.41333 0,1.88513 -1.5282,3.41333 -3.41333,3.41333 -1.88513,0 -3.41333,-1.5282 -3.41333,-3.41333 0,-1.88513 1.5282,-3.41333 3.41333,-3.41333z"/>
  <path class="fil3" d="M2.94429 2.31246c0.176173,0.0237913 0.267878,0.136839 0.370039,0.197035 -0.0670512,-0.105579 -0.159087,-0.186961 -0.284925,-0.24563 0.000200787,-0.000279528 0.000397638,-0.000559055 0.000594488,-0.000834646l-0.0857087 0.0494291z"/>
  <path class="fil4" d="M2.15804 4.06059c-0.0280394,0.237654 -0.314819,0.354516 -0.304563,0.638626 0,0.0556496 0,0.111327 0,0.167008 0.0198228,0.078378 0.0382638,0.15822 0.078374,0.21615 0.209984,0.0253543 0.509252,0.0341732 0.717618,0 0.0220984,-0.120587 -0.0347953,-0.162126 -0.118098,-0.176858 0.102339,-0.231713 0.223516,-0.44439 0.334031,-0.66811 0.0451772,0.00664567 0.0847756,0.0187323 0.125795,0.0294606 0.00103543,-0.0715709 0.0189882,-0.142965 0.0343898,-0.213898 0.00264567,-0.0242362 0.0068622,-0.0470551 0.0130906,-0.0672677 -0.0510472,-0.0597165 -0.103531,-0.118193 -0.153846,-0.178618 -0.069248,-0.0831614 -0.134799,-0.169256 -0.191795,-0.261366 -0.046748,-0.075563 -0.0863228,-0.153028 -0.117248,-0.232772 -0.287929,-0.0169567 -0.449768,0.0916457 -0.466898,0.325181 -0.0102165,0.137346 0.0654961,0.283075 0.0491496,0.422465z"/>
  <path class="fil5" d="M2.47922 2.88282c-0.0397087,0.516606 0.33589,0.876642 0.540354,1.12003 -0.0153346,0.124839 -0.0638465,0.246827 -0.0491142,0.353677 0.0280354,0.202618 0.250126,0.338965 0.334244,0.481425 -0.0745,0.0957835 -0.170913,0.194846 -0.108488,0.373323 0.198563,0.11624 0.570043,0.063248 0.786382,0 0.0769646,-0.576161 -0.0679331,-1.15583 -0.186862,-1.63091 0.083311,0.0935512 0.151669,0.286984 0.186862,0.461764 0.0812795,-0.0134882 0.139815,-0.0497323 0.206134,-0.0785748 -0.0245669,0.0920984 -0.12548,0.119516 -0.137555,0.206319 -0.0114685,0.0826772 0.0654961,0.222075 0.108071,0.324177 0.0485197,0.116083 0.100709,0.224783 0.13776,0.304567 -0.0454488,0.0497677 -0.123843,0.0665236 -0.177043,0.108102 -0.0286654,0.066122 -0.0260039,0.188894 0,0.255417 0.162717,0.0522008 0.455402,0.0562953 0.628764,0.00984252 0.182791,-0.51148 0.308051,-1.0805 0.363524,-1.71935 0,-0.111335 0,-0.222685 0,-0.334024 0.00552756,-0.46402 -0.299654,-0.669713 -0.638602,-0.756504 0.000405512,0.0757283 -0.0219094,0.128728 -0.0194449,0.206307 -0.0366417,-0.00695276 -0.042378,0.0167953 -0.0786063,0.00984252 0.0298898,0.0341654 0.104181,0.0695866 0.0882165,0.117886 -0.0730709,0.00573228 -0.162925,0.0464724 -0.177043,0.0785984 0.0931299,-0.0249764 0.18052,-0.0554606 0.30476,-0.049126 -0.0302795,0.169496 -0.112555,0.286965 -0.255441,0.343874 -0.180319,-0.0470787 -0.327484,-0.205902 -0.196283,-0.402827 -0.110524,0.0874055 -0.301917,0.0305079 -0.373547,-0.0589331 -0.00655512,-0.0556693 0.0317323,-0.0663346 0.0392992,-0.108079 -0.035189,-0.0501378 -0.0765394,-0.164961 -0.0294724,-0.235791 0.160461,0.00654724 0.306,0.0280472 0.442315,0.0589409 0.0614094,-0.0431693 0.148602,-0.0607913 0.215933,-0.0982402 -0.0137047,-0.100913 -0.0867756,-0.142661 -0.177043,-0.167024 -0.029878,-0.22863 -0.134071,-0.382965 -0.265264,-0.510882 -0.0161654,0 -0.0325472,0 -0.0489252,0 -0.408756,0.134878 -0.687728,0.39974 -0.913697,0.717205 0.110531,0.0663228 0.20939,0.144295 0.284925,0.24563 -0.108276,-0.0726732 -0.203866,-0.209193 -0.412839,-0.196512 -0.272854,0.0165787 -0.402417,0.308669 -0.422272,0.569839z"/>
  <path class="fil4" d="M2.86348 4.39252c-0.00934252,0.0910157 0.126114,0.120673 0.168441,0.198622 -0.0167913,0.0484882 -0.0562756,0.0742874 -0.0783976,0.11787 0.022122,0.112157 0.0460984,0.176681 0.0757717,0.28148 0.0443661,0.0120118 0.0995157,0.013248 0.148075,0.021063 0.002,-0.0409921 0.0112953,-0.0817874 0.028874,-0.122319 0.0208819,-0.0481339 0.0622047,-0.0550236 0.0930551,-0.0947205 -0.0155906,-0.0197323 -0.0327441,-0.0386063 -0.0490906,-0.056248 -0.0368307,-0.0397441 -0.0750118,-0.0780984 -0.110878,-0.118756 -0.0594567,-0.0674055 -0.112311,-0.140598 -0.139362,-0.225295 -0.00693701,-0.0217244 -0.0178819,-0.107508 -0.0211063,-0.130843 -0.000204724,-0.00148425 -0.000393701,-0.00296457 -0.00057874,-0.00444488 -0.0165512,-0.00329134 -0.110433,0.0910394 -0.114803,0.133591z"/>
  <path class="fil3" d="M4.22781 2.51931c-0.0538189,0.00901181 -0.0337559,0.0718425 -0.0292559,0.117906 0.0130906,-0.016378 0.0556732,-0.00328346 0.0685512,-0.0196575 -0.00306299,-0.0427756 -0.0294606,-0.0622244 -0.0392953,-0.098248z"/>
  <path class="fil3" d="M4.25729 2.51931c0.0174094,0.0286457 0.0311181,0.0607992 0.0493228,0.0884291 0.011685,-0.0112677 0.034811,-0.0110512 0.0589528,-0.00983071 -0.0286457,-0.0337756 -0.0524016,-0.0720551 -0.108276,-0.0785984z"/>
  <path class="fil6" d="M4.1233 2.68401c-0.00731102,0.00441732 -0.0149173,0.00834646 -0.0227598,0.0117913 -0.0491142,0.0215669 -0.105571,0.0233701 -0.157713,0.0135315 -0.0646378,-0.0122008 -0.138488,-0.0462795 -0.180358,-0.0985591l-0.000874016 -0.00108661 -0.000161417 -0.00138189c-0.0035,-0.0297087 0.00407087,-0.0466417 0.020374,-0.0702559 0.00839764,-0.0121693 0.0155236,-0.0227559 0.0185906,-0.037311 -0.0421732,-0.0613307 -0.0726535,-0.172906 -0.0283583,-0.239567l0.00151181 -0.00227559 0.00273228 0.000110236c0.148953,0.00607874 0.29572,0.0257638 0.441098,0.0585866 0.0625079,-0.0431693 0.143091,-0.0588819 0.210075,-0.094811l0.0050315 -0.00269685 0.0516378 0.149752 -0.00564567 -0.00145669c-0.000893701,0.0678386 -0.0215945,0.131374 -0.0194173,0.199886l0.000188976 0.00605906 -0.00595669 -0.00112992c-0.0149213,-0.00283071 -0.0234724,-0.000625984 -0.0371063,0.00480315 -0.0102559,0.00408268 -0.0183386,0.00640551 -0.0276575,0.00644882 0.0331181,0.0305315 0.0954882,0.066063 0.0798976,0.113224l-0.00101181 0.00306693 -0.00322441 0.000251969c-0.0188701,0.00148425 -0.0378307,0.00518504 -0.0560827,0.0101575 -0.0262362,0.00714567 -0.0876417,0.0294882 -0.110323,0.0555748 0.00855118,-0.00234252 0.0170906,-0.00471654 0.0256339,-0.00709449 0.0409331,-0.0113858 0.0816378,-0.0224843 0.123547,-0.0298189 0.0481693,-0.00843307 0.0959488,-0.0115315 0.144811,-0.00904331l0.00550394 0.000279528 -0.000964567 0.00542913c-0.028378,0.158839 -0.104646,0.286283 -0.258433,0.347535l-0.00148031 0.000586614 -0.00154331 -0.000401575c-0.0958543,-0.0250276 -0.197535,-0.086563 -0.235445,-0.182476 -0.028311,-0.071626 -0.0130669,-0.143839 0.0238819,-0.207709zm0.229866 -0.199091c0.0266142,-0.0405591 0.0420906,-0.0898386 0.062248,-0.13439 -0.083185,0.0260118 -0.174854,0.0324055 -0.261319,0.0334843 -0.101354,0.00125984 -0.202929,-0.00472835 -0.304276,-0.00710236 0.000429134,0.00861811 0.00220079,0.0170079 0.00530315,0.0251417 0.0234173,0.0613661 0.124693,0.102138 0.177358,0.141362 0.0596575,-0.0187165 0.0948504,-0.0615315 0.143563,-0.096815l0.00173228 -0.00125591 0.00209843 0.000433071c0.020685,0.00424409 0.0406969,0.0104055 0.0608307,0.0166811 0.0383189,0.0119488 0.0720906,0.0215 0.112461,0.0224606zm-0.0864724 0.0407795c0.0141339,0.0247323 0.0259094,0.0508937 0.041122,0.0749331 0.0123583,-0.00798819 0.0312717,-0.00859449 0.0469449,-0.00808268 -0.0255787,-0.0309685 -0.0462559,-0.0585276 -0.0880669,-0.0668504zm-0.0643386 0.102417c0.017748,-0.00912598 0.0489528,-0.00212992 0.0597402,-0.0122638 -0.00346063,-0.0372559 -0.0271772,-0.0580079 -0.0376732,-0.0908976 -0.00823228,0.00200787 -0.0156299,0.0058937 -0.0206929,0.0131102 -0.0139252,0.0198425 -0.00514961,0.0624961 -0.00137402,0.0900512z"/>
  <path class="fil3" d="M3.83804 2.3702c-0.000826772,0.0875787 0.123189,0.129256 0.191071,0.181016 0.0643189,-0.0192874 0.102232,-0.0653661 0.150827,-0.100567 0.0611969,0.012563 0.108531,0.0391732 0.181012,0.0402165 0.0295433,-0.0439882 0.0465118,-0.100984 0.0704055,-0.150835 -0.163843,0.0551063 -0.376689,0.0349764 -0.593315,0.0301693z"/>
  <path class="fil4" d="M3.7794 3.54999c0.0805906,0.293941 0.168272,0.658311 0.20635,1.00673 0.00559055,-0.0264843 0.163398,-0.0583661 0.201701,-0.0330157 -0.00459449,-0.0098189 -0.00917717,-0.0197087 -0.0137244,-0.0296496 -0.0466299,-0.102102 -0.130925,-0.2415 -0.118362,-0.324177 0.0132244,-0.0868031 0.123744,-0.126882 0.15065,-0.21898 -0.0726299,0.0288465 -0.129142,0.0625551 -0.218161,0.0760433 -0.0385433,-0.174776 -0.117209,-0.383402 -0.208453,-0.476953z"/>
  <path class="fil7" d="M3.96168 3.27856c0.0907205,0.246425 0.238449,0.500417 0.361622,0.731268 0.00644488,0.0120787 0.0375315,0.0801102 0.0457913,0.0888346 0.000673228,-0.000791339 -5.90551e-005,-0.0966772 0.000649606,-0.0999724 0.042685,0.115287 0.0711417,0.272591 0.104169,0.359665 0.017126,-0.0138622 0.00359449,-0.0383583 0.0371811,-0.0666969 0.0239724,0.0226024 -0.0326654,0.214831 0.000433071,0.349106l0.00506299 0.0205433c0.00213386,0.00864961 0.0119252,0.0579882 0.00926378,0.0624291l0.00375984 -0.0121535c-0.069626,0.0807638 0.125996,-0.175472 0.108941,-0.565469l-0.000870079 -0.0198228c-0.00250394,-0.057374 0,-0.117173 0,-0.175059 0,0.0347205 0,0.0694449 0,0.104169 0,-0.248732 0.126331,-0.415358 0.116035,-0.64772 -0.00141732,-0.0319764 -0.00462992,-0.0626142 -0.00462992,-0.0949055 0,0.0278228 -0.00269291,0.11311 0.00296457,0.134551 0.0230039,-0.263984 0.0886457,-0.329591 0.0331299,-0.571551 -0.00447638,-0.0195118 -0.00571654,-0.00568504 -0.00571654,-0.0352244 -0.0100748,-0.00232677 -0.00399606,-0.00470472 -0.0118622,-0.0151929 -0.0160354,0.013752 -0.0329331,0.148476 -0.0442717,0.177012 -0.0106654,-0.0115236 -0.0246693,-0.0320827 -0.0341457,-0.0420315 -0.0313976,0.0220512 -0.0605315,0.0804213 -0.0761693,0.11589 -0.0734882,-0.169811 -0.0518346,0.155752 -0.15372,0.044563 -0.0522283,-0.0570039 -0.0854055,0.0248543 -0.145256,0.0607598l-0.0332756 -0.015189c-0.0376417,-0.017185 -0.0561181,-0.0160236 -0.088252,-0.0435472 -0.0622874,0.0291811 0.017252,0.102559 -0.278937,-0.0328425l-0.010126 -0.00462992c-0.0152441,-0.00697244 -0.0229252,-0.0178268 -0.0277795,-0.0202559l-0.00260236 0.010563c0.00122047,0.0459685 0.0778819,0.17376 0.0886102,0.202909z"/>
  <path class="fil7" d="M4.29556 4.79552c0.24222,-0.00561024 0.314197,-0.0856299 0.314197,-0.32739 0,-0.0034685 -0.00758661,-0.00694488 -0.0075748,-0.0104252 0.000511811,-0.118799 -0.0971811,-0.390756 -0.120681,-0.506437 -0.00773622,-0.038063 -0.0109961,-0.339161 -0.0109961,-0.401331 -0.0350591,0.00328346 -0.495953,-0.453193 -0.598756,-0.479969 -0.00715354,-0.0018622 -0.0134213,-0.00363386 -0.0186535,-0.00528346 -0.0270748,-0.00854331 -0.0688189,-0.0109921 -0.0991024,-0.0109921 -0.0262205,0.0316457 -0.0722205,0.0128425 -0.0920118,0.0700236 -0.0118701,0.00245669 0.147236,0.432295 0.131421,0.441642 0.0852402,0.0996063 0.15789,0.295823 0.194445,0.461587 0.0890197,-0.0134882 0.145531,-0.0471969 0.218161,-0.0760433 -0.0269055,0.0920984 -0.137425,0.132177 -0.15065,0.21898 -0.012563,0.0826772 0.0717323,0.222075 0.118362,0.324177 0.00454724,0.00994094 0.00912992,0.0198307 0.0137283,0.0296496 -0.00461024,-0.00305118 -0.0109567,-0.00527165 -0.0185591,-0.00677953 0.0450591,0.105945 0.092185,0.204417 0.126669,0.278591z"/>
 </g>
</svg>
