<?xml version="1.0" encoding="UTF-8"?>
<!DOCTYPE svg PUBLIC "-//W3C//DTD SVG 1.1//EN" "http://www.w3.org/Graphics/SVG/1.1/DTD/svg11.dtd">
<!-- Creator: CorelDRAW -->
<svg xmlns="http://www.w3.org/2000/svg" xml:space="preserve" width="6.82666in" height="6.82666in" style="shape-rendering:geometricPrecision; text-rendering:geometricPrecision; image-rendering:optimizeQuality; fill-rule:evenodd; clip-rule:evenodd"
viewBox="0 0 6.82666 6.82666"
 xmlns:xlink="http://www.w3.org/1999/xlink">
 <defs>
  <style type="text/css">
   <![CDATA[
    .fil2 {fill:none}
    .fil6 {fill:none;fill-rule:nonzero}
    .fil8 {fill:#263238}
    .fil5 {fill:#424242}
    .fil9 {fill:#4E342E}
    .fil4 {fill:#5D4037}
    .fil3 {fill:#795548}
    .fil1 {fill:#00000000}
    .fil7 {fill:#CFD8DC}
    .fil0 {fill:#00000000}
   ]]>
  </style>
   <clipPath id="id0">
    <path d="M3.41333 -3.93701e-006c1.88513,0 3.41333,1.5282 3.41333,3.41333 0,1.88513 -1.5282,3.41333 -3.41333,3.41333 -1.88513,0 -3.41333,-1.5282 -3.41333,-3.41333 0,-1.88513 1.5282,-3.41333 3.41333,-3.41333z"/>
   </clipPath>
 </defs>
 <g id="Layer_x0020_1">
  <metadata id="CorelCorpID_0Corel-Layer"/>
  <path class="fil0" d="M3.41333 -3.93701e-006c1.88513,0 3.41333,1.5282 3.41333,3.41333 0,1.88513 -1.5282,3.41333 -3.41333,3.41333 -1.88513,0 -3.41333,-1.5282 -3.41333,-3.41333 0,-1.88513 1.5282,-3.41333 3.41333,-3.41333z"/>
  <g style="clip-path:url(#id0)">
   <g id="_637662088">
    <g>
     <path id="_4434444321" class="fil1" d="M8.93456 6.67658l0 0zm-3.78627 -3.78627l0 0z"/>
     <polygon id="_443444672" class="fil1" points="4.91498,1.82395 8.70124,5.61022 8.70008,5.61225 8.69887,5.61432 8.69762,5.61644 8.69633,5.61858 8.69502,5.62075 8.6937,5.62292 8.69236,5.62509 8.69102,5.62726 4.90475,1.84099 4.90609,1.83882 4.90743,1.83665 4.90876,1.83448 4.91007,1.83231 4.91135,1.83017 4.9126,1.82805 4.91381,1.82598 "/>
     <polygon id="_462751032" class="fil1" points="5.10588,1.70782 8.89215,5.49409 8.89621,5.50015 8.89907,5.50691 8.90057,5.51422 8.90059,5.52192 5.11432,1.73565 5.1143,1.72795 5.1128,1.72064 5.10994,1.71387 "/>
     <polygon id="_462750960" class="fil1" points="5.11432,1.73565 8.90059,5.52192 8.89364,5.5919 5.10737,1.80563 "/>
     <polygon id="_462751368" class="fil1" points="5.23187,1.73813 9.01814,5.5244 9.02027,5.52736 9.02211,5.53051 9.02365,5.53383 9.02486,5.53729 9.02574,5.54088 9.02626,5.54456 9.02643,5.54832 9.0262,5.55213 9.02559,5.55598 5.23932,1.76971 5.23994,1.76586 5.24016,1.76205 5.24,1.75829 5.23947,1.75461 5.23859,1.75102 5.23738,1.74756 5.23584,1.74424 5.234,1.74109 "/>
     <polygon id="_462751200" class="fil1" points="5.23932,1.76971 9.02559,5.55598 8.97572,5.79015 5.18945,2.00388 "/>
     <polygon id="_462751464" class="fil1" points="5.18945,2.00388 8.97572,5.79015 8.98204,5.80057 8.98796,5.81192 8.9935,5.82413 8.99867,5.83713 9.00347,5.85084 9.00793,5.86519 9.01206,5.88009 9.01587,5.89548 9.01937,5.91128 9.02257,5.92741 9.02549,5.9438 9.02815,5.96038 9.03054,5.97706 9.03269,5.99377 9.03461,6.01044 9.03632,6.02698 9.03781,6.04334 9.03912,6.05942 9.04025,6.07515 9.04121,6.09046 9.04202,6.10528 9.04268,6.11952 9.04322,6.13311 9.04364,6.14598 9.04396,6.15805 9.04419,6.16924 9.04435,6.17948 9.04444,6.1887 9.04448,6.19681 9.04448,6.20375 9.04445,6.20943 9.04441,6.21379 5.25815,2.42752 5.25818,2.42316 5.25821,2.41748 5.25821,2.41054 5.25817,2.40243 5.25808,2.39321 5.25793,2.38297 5.25769,2.37178 5.25737,2.35971 5.25695,2.34684 5.25641,2.33325 5.25575,2.31901 5.25494,2.30419 5.25398,2.28888 5.25285,2.27315 5.25155,2.25707 5.25005,2.24071 5.24835,2.22417 5.24643,2.2075 5.24427,2.19079 5.24188,2.17411 5.23922,2.15753 5.2363,2.14114 5.2331,2.12501 5.2296,2.10921 5.22579,2.09382 5.22167,2.07891 5.2172,2.06457 5.2124,2.05085 5.20723,2.03785 5.20169,2.02565 5.19577,2.0143 "/>
     <polygon id="_462750936" class="fil1" points="5.25815,2.42752 9.04441,6.21379 9.04665,6.22536 9.04876,6.23674 9.05074,6.24792 9.05259,6.25892 9.05431,6.26972 9.05591,6.28035 9.05739,6.29078 9.05874,6.30104 9.05997,6.31111 9.06109,6.321 9.06209,6.33072 9.06298,6.34025 9.06376,6.34961 9.06443,6.3588 9.06499,6.36782 9.06545,6.37666 9.0658,6.38534 9.06605,6.39385 9.0662,6.4022 9.06626,6.41038 9.06622,6.41839 9.06608,6.42625 9.06586,6.43395 9.06554,6.4415 9.06514,6.44888 9.06465,6.45611 9.06408,6.46319 9.06343,6.47012 9.06269,6.47691 9.06188,6.48354 9.06099,6.49002 9.06003,6.49637 5.27376,2.71009 5.27472,2.70375 5.27561,2.69726 5.27642,2.69063 5.27716,2.68385 5.27781,2.67692 5.27838,2.66984 5.27887,2.66261 5.27928,2.65522 5.27959,2.64768 5.27981,2.63998 5.27995,2.63212 5.27999,2.62411 5.27994,2.61593 5.27978,2.60758 5.27953,2.59907 5.27918,2.59039 5.27872,2.58155 5.27816,2.57253 5.27749,2.56334 5.27671,2.55398 5.27583,2.54444 5.27482,2.53473 5.2737,2.52484 5.27247,2.51477 5.27112,2.50451 5.26964,2.49407 5.26804,2.48345 5.26632,2.47265 5.26447,2.46165 5.2625,2.45046 5.26039,2.43909 "/>
     <polygon id="_462751560" class="fil1" points="5.27376,2.71009 9.06003,6.49637 9.05842,6.5058 9.05665,6.51491 9.05473,6.52369 9.05266,6.53215 9.05044,6.54031 9.0481,6.54816 9.04563,6.5557 9.04303,6.56296 9.04033,6.56993 9.03751,6.57662 9.0346,6.58303 9.0316,6.58917 9.02852,6.59505 9.02535,6.60066 9.02211,6.60603 9.01881,6.61115 5.23255,2.82487 5.23585,2.81976 5.23908,2.81439 5.24225,2.80878 5.24533,2.8029 5.24833,2.79676 5.25124,2.79035 5.25406,2.78366 5.25676,2.77669 5.25936,2.76943 5.26183,2.76189 5.26418,2.75404 5.26639,2.74588 5.26846,2.73741 5.27039,2.72863 5.27215,2.71953 "/>
     <polygon id="_462751248" class="fil1" points="5.23255,2.82487 9.01881,6.61115 9.0134,6.61889 9.00787,6.62602 9.00225,6.63259 8.99657,6.6386 8.99087,6.64409 8.98516,6.64907 8.97948,6.65357 8.97387,6.65762 8.96833,6.66124 8.96292,6.66446 8.95766,6.6673 8.95257,6.66977 8.94769,6.67192 8.94304,6.67376 8.93865,6.67531 8.93456,6.6766 5.14829,2.89033 5.15238,2.88904 5.15677,2.88748 5.16142,2.88565 5.1663,2.8835 5.17139,2.88102 5.17665,2.87819 5.18207,2.87497 5.1876,2.87135 5.19321,2.8673 5.19889,2.8628 5.2046,2.85781 5.2103,2.85233 5.21598,2.84631 5.2216,2.83975 5.22713,2.83261 "/>
     <polygon id="_462751632" class="fil1" points="5.14829,2.89033 8.93456,6.6766 8.93238,6.67723 8.9303,6.67779 8.92835,6.67828 8.92651,6.67871 8.9248,6.67908 8.92321,6.67939 8.92177,6.67966 8.92046,6.67988 5.1342,2.89361 5.1355,2.89339 5.13694,2.89312 5.13853,2.89281 5.14024,2.89244 5.14208,2.89201 5.14404,2.89152 5.14611,2.89096 "/>
     <polygon id="_462751008" class="fil1" points="4.79737,2.57545 8.58363,6.36172 8.58361,6.36185 8.58359,6.36199 8.58357,6.36212 8.58355,6.36225 8.58353,6.36238 8.5835,6.36252 8.58348,6.36265 8.58346,6.36278 4.79719,2.57651 4.79722,2.57637 4.79724,2.57624 4.79726,2.57611 4.79728,2.57598 4.7973,2.57585 4.79732,2.57572 4.79735,2.57558 "/>
     <polygon id="_462752064" class="fil1" points="4.78833,2.62258 8.5746,6.40885 8.5735,6.41374 8.57237,6.41859 8.57122,6.42344 8.57004,6.42827 8.56882,6.43308 8.56758,6.43787 8.56632,6.44266 8.56502,6.44743 8.5637,6.45218 8.56235,6.45693 8.56097,6.46166 8.55956,6.46638 8.55813,6.4711 8.55667,6.4758 8.55517,6.4805 8.55365,6.4852 4.76739,2.69893 4.76891,2.69423 4.7704,2.68953 4.77186,2.68483 4.7733,2.68011 4.7747,2.67539 4.77608,2.67065 4.77743,2.66591 4.77876,2.66115 4.78005,2.65639 4.78131,2.6516 4.78256,2.64681 4.78377,2.642 4.78495,2.63717 4.78611,2.63232 4.78723,2.62746 "/>
     <polygon id="_462751968" class="fil1" points="4.78875,2.623 8.57502,6.40928 8.57497,6.40922 8.57492,6.40917 8.57487,6.40912 8.57481,6.40907 8.57476,6.40901 8.57471,6.40896 8.57465,6.40891 8.5746,6.40885 4.78833,2.62258 4.78839,2.62263 4.78844,2.62269 4.78849,2.62274 4.78854,2.6228 4.7886,2.62285 4.78865,2.6229 4.7887,2.62295 "/>
     <polygon id="_462752088" class="fil1" points="4.79827,2.57747 8.58454,6.36374 8.57502,6.40928 4.78875,2.623 "/>
     <polygon id="_462752208" class="fil1" points="5.09778,2.89396 8.88404,6.68023 8.87113,6.67876 8.85885,6.67658 8.84719,6.67372 8.83615,6.67023 8.82569,6.66614 8.81581,6.66149 8.80648,6.65632 8.7977,6.65067 8.78945,6.64457 8.7817,6.63807 8.77445,6.6312 8.76768,6.62401 4.98141,2.83774 4.98819,2.84493 4.99544,2.8518 5.00318,2.8583 5.01144,2.8644 5.02022,2.87005 5.02954,2.87522 5.03942,2.87987 5.04988,2.88396 5.06093,2.88745 5.07258,2.89031 5.08486,2.89249 "/>
     <polygon id="_462752016" class="fil1" points="4.92114,2.68418 8.70741,6.47045 8.69581,6.46464 8.68489,6.45875 8.67462,6.45276 8.66495,6.44668 8.65586,6.44049 8.6473,6.43417 8.63925,6.42772 8.63167,6.42112 8.62452,6.41436 8.61776,6.40744 8.61137,6.40033 4.82511,2.61406 4.8315,2.62117 4.83825,2.62809 4.8454,2.63485 4.85298,2.64144 4.86104,2.6479 4.86959,2.65422 4.87868,2.66041 4.88835,2.66649 4.89862,2.67248 4.90954,2.67837 "/>
     <polygon id="_462751896" class="fil1" points="5.1302,2.89431 8.91647,6.68058 8.91631,6.6806 8.91616,6.68062 8.91601,6.68063 8.91586,6.68063 8.91571,6.68064 8.91557,6.68064 8.91543,6.68065 8.91529,6.68064 5.12902,2.89437 5.12916,2.89437 5.1293,2.89437 5.12944,2.89437 5.12959,2.89436 5.12974,2.89435 5.12989,2.89435 5.13004,2.89433 "/>
     <polygon id="_462752112" class="fil1" points="5.12902,2.89437 8.91529,6.68064 8.91247,6.68085 5.1262,2.89457 "/>
     <polygon id="_462751872" class="fil1" points="5.1262,2.89457 8.91247,6.68085 8.90876,6.68095 8.90509,6.681 8.90148,6.681 8.89791,6.68094 8.89437,6.68084 8.89089,6.68069 8.88744,6.68048 8.88404,6.68023 5.09778,2.89396 5.10118,2.89421 5.10462,2.89441 5.10811,2.89457 5.11164,2.89467 5.11521,2.89473 5.11883,2.89473 5.12249,2.89468 "/>
     <polygon id="_462752040" class="fil1" points="5.1342,2.89361 8.92046,6.67988 8.91998,6.67999 8.91948,6.68009 8.91898,6.68019 8.91849,6.68028 8.91798,6.68037 8.91748,6.68044 8.91698,6.68052 8.91647,6.68058 5.1302,2.89431 5.13071,2.89424 5.13122,2.89417 5.13172,2.89409 5.13222,2.89401 5.13272,2.89392 5.13321,2.89382 5.13371,2.89372 "/>
     <polygon id="_462752592" class="fil1" points="4.76739,2.69893 8.55365,6.4852 8.55124,6.49246 8.54876,6.4997 8.54622,6.50694 8.54361,6.51416 8.54093,6.52138 8.53819,6.52859 8.53538,6.53581 8.5325,6.54303 8.52956,6.55026 8.52654,6.5575 8.52346,6.56475 8.52031,6.57202 8.51709,6.57931 8.5138,6.58662 8.51044,6.59396 8.50702,6.60133 8.50352,6.60874 8.49996,6.61619 8.49632,6.62367 8.49262,6.63119 8.48884,6.63877 8.485,6.64639 8.48108,6.65407 8.47709,6.6618 8.47304,6.6696 8.46891,6.67746 8.46471,6.68538 8.46044,6.69337 8.45609,6.70144 8.45168,6.70959 8.44719,6.71781 8.44263,6.72612 4.65636,2.93985 4.66092,2.93154 4.66541,2.92331 4.66983,2.91517 4.67417,2.9071 4.67844,2.89911 4.68264,2.89119 4.68677,2.88333 4.69083,2.87553 4.69481,2.8678 4.69873,2.86012 4.70257,2.8525 4.70635,2.84492 4.71006,2.83739 4.71369,2.82991 4.71725,2.82247 4.72075,2.81506 4.72417,2.80769 4.72753,2.80035 4.73082,2.79304 4.73404,2.78575 4.73719,2.77848 4.74027,2.77122 4.74329,2.76398 4.74623,2.75676 4.74911,2.74954 4.75192,2.74232 4.75467,2.73511 4.75734,2.72789 4.75995,2.72067 4.7625,2.71343 4.76498,2.70619 "/>
     <polygon id="_462752856" class="fil1" points="4.65636,2.93985 8.44263,6.72612 8.43794,6.73698 8.4339,6.7475 8.43047,6.75768 8.42763,6.76753 8.42534,6.77704 8.42358,6.78621 8.42231,6.79506 8.4215,6.80356 8.42112,6.81174 8.42115,6.81959 8.42154,6.82712 8.42228,6.83431 8.42331,6.84119 8.42464,6.84774 8.4262,6.85396 8.42798,6.85986 8.42995,6.86544 8.43207,6.87071 8.43432,6.87565 8.43666,6.88028 8.43906,6.8846 8.44149,6.8886 8.44393,6.89228 8.44633,6.89566 8.44867,6.89873 8.45092,6.90148 8.45305,6.90393 4.66678,3.11766 4.66465,3.11521 4.6624,3.11246 4.66006,3.10939 4.65766,3.10601 4.65522,3.10233 4.65279,3.09833 4.65039,3.09401 4.64805,3.08938 4.64581,3.08444 4.64369,3.07917 4.64172,3.07359 4.63993,3.06769 4.63837,3.06146 4.63705,3.05492 4.63601,3.04804 4.63528,3.04085 4.63488,3.03332 4.63485,3.02547 4.63523,3.01729 4.63604,3.00878 4.63731,2.99994 4.63907,2.99076 4.64136,2.98126 4.6442,2.97141 4.64763,2.96123 4.65167,2.95071 "/>
     <polygon id="_462752880" class="fil1" points="4.68038,3.13062 8.46665,6.91689 8.46809,6.91859 8.46944,6.92038 8.47069,6.92227 8.47183,6.92424 8.47287,6.92631 4.6866,3.14004 4.68556,3.13797 4.68442,3.136 4.68317,3.13411 4.68182,3.13232 "/>
     <polygon id="_462752568" class="fil1" points="4.6866,3.14004 8.47287,6.92631 8.48201,6.94743 8.4898,6.96858 8.49632,6.98976 8.50161,7.01092 8.50574,7.03204 8.50876,7.05307 8.51074,7.07401 8.51172,7.0948 8.51177,7.11543 8.51094,7.13585 8.5093,7.15606 8.5069,7.17599 8.5038,7.19563 8.50006,7.21496 8.49572,7.23393 8.49087,7.25251 8.48555,7.27068 8.47981,7.2884 8.47372,7.30565 8.46734,7.32239 8.46072,7.33858 8.45393,7.35421 8.44701,7.36924 8.44003,7.38364 8.43305,7.39738 8.42612,7.41043 8.4193,7.42274 8.41266,7.43431 8.40624,7.44509 8.4001,7.45506 8.39431,7.46418 8.38893,7.47242 4.60266,3.68615 4.60804,3.67791 4.61383,3.66879 4.61997,3.65882 4.62639,3.64804 4.63304,3.63647 4.63985,3.62415 4.64678,3.61111 4.65376,3.59737 4.66074,3.58297 4.66766,3.56794 4.67446,3.55231 4.68107,3.53611 4.68746,3.51937 4.69354,3.50213 4.69928,3.48441 4.7046,3.46624 4.70946,3.44765 4.71379,3.42869 4.71753,3.40936 4.72063,3.38972 4.72304,3.36978 4.72468,3.34958 4.7255,3.32916 4.72545,3.30853 4.72447,3.28774 4.7225,3.2668 4.71948,3.24576 4.71535,3.22465 4.71006,3.20349 4.70354,3.18231 4.69574,3.16115 "/>
     <polygon id="_462752616" class="fil1" points="4.62329,3.70656 8.40956,7.49283 8.41662,7.50036 8.42374,7.5082 8.4309,7.51631 8.43809,7.52467 8.44528,7.53322 8.45247,7.54195 8.45963,7.55081 8.46674,7.55978 8.47379,7.56881 8.48076,7.57788 8.48763,7.58694 8.49438,7.59597 8.501,7.60493 8.50747,7.61379 8.51377,7.6225 8.51988,7.63105 8.52579,7.63939 8.53147,7.64748 8.53692,7.6553 8.54211,7.66281 8.54702,7.66998 8.55164,7.67678 8.55595,7.68315 8.55993,7.68908 8.56357,7.69453 8.56684,7.69946 8.56974,7.70385 8.57223,7.70765 8.5743,7.71083 4.78804,3.92456 4.78596,3.92137 4.78347,3.91757 4.78057,3.91319 4.7773,3.90826 4.77367,3.90281 4.76969,3.89688 4.76537,3.8905 4.76076,3.88371 4.75584,3.87654 4.75065,3.86903 4.7452,3.86121 4.73952,3.85311 4.73361,3.84478 4.7275,3.83623 4.7212,3.82752 4.71473,3.81866 4.70811,3.8097 4.70136,3.80067 4.69449,3.79161 4.68752,3.78254 4.68047,3.77351 4.67336,3.76454 4.6662,3.75568 4.65902,3.74695 4.65182,3.73839 4.64463,3.73004 4.63747,3.72193 4.63035,3.71409 "/>
     <polygon id="_462753120" class="fil1" points="4.83112,3.96292 8.61739,7.74919 8.62934,7.76268 8.64017,7.77643 8.64994,7.79041 8.65868,7.80454 8.66644,7.8188 8.67329,7.83313 8.67927,7.84748 8.68442,7.86181 8.6888,7.87605 8.69246,7.89017 8.69544,7.90411 8.6978,7.91782 8.69959,7.93126 8.70085,7.94438 8.70165,7.95712 8.70201,7.96944 8.702,7.98129 8.70167,7.99262 8.70107,8.00337 8.70024,8.01351 8.69923,8.02298 8.6981,8.03172 8.69689,8.03971 8.69566,8.04687 8.69445,8.05317 8.69332,8.05855 8.69231,8.06297 8.69147,8.06637 8.69086,8.06872 4.90459,4.28244 4.9052,4.2801 4.90604,4.2767 4.90705,4.27228 4.90819,4.2669 4.90939,4.2606 4.91063,4.25344 4.91183,4.24545 4.91296,4.2367 4.91397,4.22724 4.9148,4.2171 4.91541,4.20635 4.91574,4.19502 4.91574,4.18317 4.91538,4.17085 4.91459,4.15811 4.91332,4.14499 4.91154,4.13155 4.90917,4.11784 4.90619,4.1039 4.90253,4.08978 4.89815,4.07554 4.893,4.06121 4.88702,4.04686 4.88018,4.03253 4.87241,4.01827 4.86367,4.00413 4.85391,3.99016 4.84307,3.97641 "/>
     <polygon id="_462753048" class="fil1" points="4.65524,4.14474 8.44151,7.93101 8.43192,7.92148 8.42202,7.91202 8.41184,7.90264 8.4014,7.89335 8.39072,7.88415 8.37984,7.87506 8.36877,7.86608 8.35754,7.85721 8.34617,7.84846 8.33469,7.83985 8.32311,7.83136 8.31148,7.82302 8.2998,7.81483 8.28811,7.80679 8.27643,7.79891 8.26479,7.7912 8.2532,7.78366 8.24169,7.7763 8.23029,7.76913 8.21903,7.76215 8.20791,7.75537 8.19698,7.7488 8.18626,7.74244 8.17576,7.7363 8.16552,7.73039 8.15555,7.72471 8.14589,7.71927 8.13655,7.71407 8.12756,7.70913 8.11896,7.70445 8.11074,7.70003 8.10296,7.69588 4.31669,3.90961 4.32448,3.91376 4.33269,3.91818 4.3413,3.92286 4.35028,3.9278 4.35962,3.933 4.36928,3.93844 4.37925,3.94412 4.38949,3.95003 4.39999,3.95617 4.41072,3.96253 4.42165,3.9691 4.43276,3.97588 4.44402,3.98285 4.45543,3.99003 4.46693,3.99739 4.47852,4.00493 4.49017,4.01263 4.50185,4.02052 4.51354,4.02856 4.52521,4.03675 4.53685,4.04509 4.54842,4.05357 4.5599,4.06219 4.57127,4.07094 4.5825,4.07981 4.59357,4.08879 4.60446,4.09788 4.61513,4.10707 4.62557,4.11637 4.63576,4.12574 4.64565,4.1352 "/>
     <polygon id="_462752688" class="fil1" points="3.96986,3.85443 7.75613,7.6407 7.73183,7.6485 7.70633,7.65503 7.67974,7.66037 7.65213,7.66457 7.62363,7.66768 7.59433,7.66976 7.56433,7.67087 7.53372,7.67107 7.50261,7.67041 7.47109,7.66895 7.43928,7.66675 7.40726,7.66386 7.37513,7.66034 7.34301,7.65624 7.31098,7.65164 7.27914,7.64657 7.2476,7.6411 7.21645,7.63528 7.1858,7.62918 7.15574,7.62284 7.12638,7.61633 7.09781,7.6097 7.07014,7.60302 7.04346,7.59632 7.01787,7.58968 6.99348,7.58315 6.97037,7.57678 6.94867,7.57064 6.92845,7.56478 6.90982,7.55926 6.89289,7.55413 6.87775,7.54944 3.09148,3.76317 3.10662,3.76785 3.12356,3.77298 3.14218,3.77851 3.1624,3.78437 3.18411,3.79051 3.20721,3.79688 3.23161,3.80341 3.25719,3.81005 3.28387,3.81674 3.31155,3.82343 3.34011,3.83006 3.36948,3.83657 3.39954,3.84291 3.43019,3.84901 3.46133,3.85483 3.49287,3.8603 3.52471,3.86537 3.55674,3.86997 3.58887,3.87407 3.62099,3.87759 3.65301,3.88048 3.68483,3.88268 3.71634,3.88414 3.74745,3.8848 3.77806,3.8846 3.80806,3.88349 3.83737,3.88141 3.86587,3.8783 3.89347,3.8741 3.92007,3.86876 3.94556,3.86222 "/>
     <polygon id="_462753168" class="fil1" points="4.31669,3.90961 8.10296,7.69588 8.10283,7.69581 8.1027,7.69575 8.10257,7.69568 8.10245,7.69561 8.10232,7.69554 8.10219,7.69548 8.10206,7.69541 8.10194,7.69534 4.31567,3.90907 4.3158,3.90913 4.31593,3.9092 4.31605,3.90927 4.31618,3.90934 4.31631,3.90941 4.31644,3.90948 4.31656,3.90954 "/>
     <polygon id="_462752472" class="fil1" points="4.31567,3.90907 8.10194,7.69534 8.09925,7.71339 8.09598,7.73234 8.09216,7.7521 8.08783,7.77257 8.08305,7.79367 8.07784,7.8153 8.07226,7.83737 8.06635,7.85978 8.06015,7.88243 8.0537,7.90525 8.04705,7.92812 8.04024,7.95097 8.03331,7.97369 8.02631,7.9962 8.01928,8.01839 8.01225,8.04018 8.00528,8.06147 7.99842,8.08218 7.99169,8.10219 7.98514,8.12144 7.97882,8.13981 7.97278,8.15721 7.96704,8.17356 7.96166,8.18876 7.95668,8.20272 7.95214,8.21533 7.94809,8.22652 7.94456,8.23619 7.94161,8.24423 7.93927,8.25057 7.93758,8.2551 7.9366,8.25774 4.15033,4.47146 4.15131,4.46883 4.153,4.4643 4.15534,4.45796 4.1583,4.44992 4.16182,4.44025 4.16587,4.42906 4.17041,4.41644 4.17539,4.40249 4.18077,4.38729 4.18651,4.37094 4.19256,4.35354 4.19887,4.33517 4.20542,4.31592 4.21215,4.29591 4.21902,4.2752 4.22598,4.25391 4.23301,4.23212 4.24004,4.20993 4.24704,4.18742 4.25397,4.1647 4.26078,4.14185 4.26743,4.11898 4.27388,4.09616 4.28008,4.0735 4.286,4.05109 4.29157,4.02903 4.29678,4.0074 4.30157,3.9863 4.30589,3.96583 4.30971,3.94607 4.31298,3.92711 "/>
     <polygon id="_462753528" class="fil1" points="4.15033,4.47146 7.9366,8.25774 7.93636,8.25838 7.93612,8.25902 7.93586,8.25965 7.93559,8.26029 7.93531,8.26092 7.93501,8.26155 7.9347,8.26218 7.93438,8.2628 4.14811,4.47653 4.14844,4.47591 4.14874,4.47528 4.14904,4.47465 4.14932,4.47402 4.14959,4.47338 4.14985,4.47274 4.15009,4.47211 "/>
     <polygon id="_462753744" class="fil1" points="3.09148,3.76317 6.87775,7.54944 6.87774,7.54949 6.87774,7.54953 6.87774,7.54957 6.87773,7.54961 6.87773,7.54966 6.87773,7.5497 6.87772,7.54974 6.87772,7.54978 3.09145,3.76351 3.09146,3.76347 3.09146,3.76343 3.09146,3.76339 3.09146,3.76334 3.09147,3.7633 3.09147,3.76326 3.09148,3.76322 "/>
     <polygon id="_462753648" class="fil1" points="2.14808,3.09811 5.93435,6.88438 5.92452,6.89219 5.91534,6.90059 5.9068,6.90954 5.89887,6.91896 5.89152,6.92881 5.88475,6.93904 5.87852,6.94958 5.87281,6.96038 5.86759,6.9714 5.86286,6.98256 5.85858,6.99383 5.85473,7.00513 5.85128,7.01643 5.84823,7.02765 5.84553,7.03875 5.84318,7.04968 5.84114,7.06037 5.8394,7.07078 5.83793,7.08084 5.83672,7.09051 5.83573,7.09972 5.83494,7.10843 5.83434,7.11657 5.83389,7.1241 5.83359,7.13096 5.83339,7.13709 5.83329,7.14243 5.83326,7.14694 5.83328,7.15055 5.83331,7.15322 5.83335,7.15489 5.83337,7.15549 2.04711,3.36922 2.04709,3.36861 2.04705,3.36695 2.04701,3.36428 2.04699,3.36067 2.04702,3.35616 2.04713,3.35081 2.04732,3.34469 2.04763,3.33783 2.04807,3.3303 2.04867,3.32216 2.04946,3.31345 2.05045,3.30424 2.05167,3.29457 2.05313,3.28451 2.05487,3.2741 2.05691,3.26341 2.05926,3.25248 2.06196,3.24138 2.06502,3.23015 2.06846,3.21886 2.07231,3.20756 2.07659,3.19629 2.08133,3.18513 2.08654,3.17411 2.09225,3.16331 2.09848,3.15276 2.10526,3.14254 2.1126,3.13269 2.12053,3.12326 2.12907,3.11432 2.13825,3.10592 "/>
     <polygon id="_462753504" class="fil1" points="3.09145,3.76351 6.87772,7.54978 6.87619,7.56619 6.87433,7.58315 6.87216,7.60059 6.8697,7.61844 6.86699,7.63666 6.86404,7.65517 6.86087,7.67391 6.8575,7.69282 6.85397,7.71184 6.8503,7.7309 6.84649,7.74994 6.84259,7.76891 6.8386,7.78774 6.83456,7.80635 6.83048,7.8247 6.8264,7.84272 6.82232,7.86035 6.81828,7.87753 6.8143,7.89419 6.8104,7.91026 6.8066,7.9257 6.80293,7.94043 6.7994,7.95439 6.79605,7.96753 6.79289,7.97977 6.78994,7.99106 6.78724,8.00133 6.7848,8.01053 6.78264,8.01858 6.78079,8.02543 6.77927,8.031 6.77811,8.03526 2.99184,4.24898 2.993,4.24473 2.99452,4.23915 2.99637,4.23231 2.99853,4.22426 3.00097,4.21506 3.00368,4.20479 3.00662,4.1935 3.00978,4.18126 3.01313,4.16812 3.01666,4.15416 3.02033,4.13943 3.02413,4.12399 3.02803,4.10791 3.03202,4.09126 3.03606,4.07408 3.04013,4.05645 3.04422,4.03843 3.04829,4.02008 3.05233,4.00146 3.05632,3.98264 3.06022,3.96367 3.06403,3.94463 3.0677,3.92557 3.07124,3.90655 3.0746,3.88764 3.07777,3.86889 3.08072,3.85039 3.08344,3.83217 3.08589,3.81431 3.08806,3.79688 3.08992,3.77992 "/>
     <polygon id="_462753312" class="fil1" points="4.21435,5.00476 8.00062,8.79103 8.00123,8.79241 8.00179,8.79383 8.00229,8.79527 8.00273,8.79674 8.00312,8.79824 8.00345,8.79976 8.00372,8.80131 8.00392,8.80289 4.21765,5.01661 4.21745,5.01504 4.21718,5.01349 4.21685,5.01197 4.21646,5.01047 4.21602,5.009 4.21552,5.00756 4.21496,5.00614 "/>
     <polygon id="_462753240" class="fil1" points="3.88916,4.89023 7.67543,8.6765 7.66519,8.67025 7.65615,8.6635 7.64826,8.65631 3.86199,4.87004 3.86988,4.87723 3.87892,4.88398 "/>
     <polygon id="_462753456" class="fil1" points="4.00899,5.12495 7.79526,8.91122 7.78229,8.9105 7.7702,8.9089 7.75896,8.90646 7.74854,8.90322 7.73892,8.89924 7.73006,8.89455 7.72193,8.88921 7.71451,8.88326 3.92824,5.09698 3.93566,5.10294 3.94379,5.10828 3.95265,5.11296 3.96228,5.11695 3.97269,5.12019 3.98393,5.12263 3.99602,5.12423 "/>
     <polygon id="_462753408" class="fil1" points="4.21765,5.01661 8.00392,8.80289 8.00486,8.81626 8.00463,8.8286 8.00332,8.83996 8.00098,8.85037 7.99768,8.85986 7.9935,8.86848 7.9885,8.87627 7.98274,8.88326 7.9763,8.8895 7.96924,8.89501 7.96164,8.89983 7.95355,8.90402 7.94505,8.9076 7.9362,8.91061 7.92708,8.91309 7.91775,8.91508 7.90827,8.91662 7.89872,8.91774 7.88917,8.91849 7.87968,8.91889 7.87031,8.919 7.86115,8.91884 7.85224,8.91846 7.84368,8.91789 7.83551,8.91717 7.82781,8.91635 7.82065,8.91545 7.81409,8.91452 7.8082,8.91359 7.80306,8.91271 7.79872,8.91191 7.79526,8.91122 4.00899,5.12495 4.01245,5.12563 4.01679,5.12644 4.02194,5.12732 4.02782,5.12825 4.03438,5.12918 4.04154,5.13007 4.04924,5.1309 4.05741,5.13162 4.06598,5.13219 4.07488,5.13257 4.08404,5.13272 4.09341,5.13262 4.1029,5.13222 4.11246,5.13147 4.122,5.13035 4.13148,5.12881 4.14081,5.12682 4.14994,5.12434 4.15878,5.12133 4.16728,5.11775 4.17537,5.11356 4.18298,5.10874 4.19003,5.10322 4.19647,5.09699 4.20223,5.09 4.20723,5.08221 4.21141,5.07359 4.21471,5.06409 4.21705,5.05369 4.21837,5.04233 4.21859,5.02998 "/>
     <polygon id="_462753888" class="fil1" points="4.90459,4.28244 8.69086,8.06872 8.68491,8.09617 8.67795,8.123 8.67006,8.14919 8.66131,8.17473 8.65176,8.19962 8.64148,8.22385 8.63056,8.2474 8.61904,8.27027 8.60701,8.29244 8.59453,8.31391 8.58167,8.33467 8.56851,8.3547 8.55511,8.374 8.54154,8.39256 8.52788,8.41037 8.51419,8.42741 8.50053,8.44368 8.48699,8.45917 8.47363,8.47387 8.46052,8.48777 8.44772,8.50085 8.43532,8.51312 8.42338,8.52456 8.41196,8.53515 8.40115,8.54489 8.391,8.55378 8.38159,8.5618 8.37298,8.56893 8.36526,8.57518 8.35848,8.58053 8.35271,8.58496 8.34804,8.58849 4.56177,4.80222 4.56644,4.79869 4.57221,4.79426 4.57899,4.78891 4.58672,4.78266 4.59532,4.77552 4.60473,4.76751 4.61488,4.75862 4.62569,4.74888 4.63711,4.73828 4.64906,4.72685 4.66146,4.71458 4.67425,4.7015 4.68736,4.6876 4.70072,4.6729 4.71426,4.65741 4.72792,4.64114 4.74161,4.62409 4.75528,4.60629 4.76885,4.58773 4.78224,4.56843 4.79541,4.5484 4.80826,4.52764 4.82074,4.50617 4.83277,4.484 4.84429,4.46113 4.85522,4.43758 4.86549,4.41335 4.87504,4.38846 4.88379,4.36291 4.89168,4.33672 4.89864,4.3099 "/>
     <polygon id="_462753984" class="fil1" points="4.14811,4.47653 7.93438,8.2628 7.92621,8.27895 7.91879,8.29497 7.91208,8.31084 7.90606,8.32656 7.9007,8.34208 7.89596,8.35741 7.89183,8.37253 7.88826,8.38741 7.88523,8.40204 7.88271,8.41639 7.88067,8.43046 7.87909,8.44423 7.87793,8.45767 7.87715,8.47078 7.87674,8.48352 7.87667,8.4959 7.87691,8.50787 7.87741,8.51944 7.87817,8.53058 7.87914,8.54127 7.8803,8.5515 7.88161,8.56125 7.88306,8.5705 7.8846,8.57923 7.88621,8.58743 7.88787,8.59508 7.88953,8.60216 7.89118,8.60865 7.89278,8.61453 7.8943,8.6198 7.89572,8.62442 7.897,8.62838 4.11073,4.84211 4.10945,4.83815 4.10804,4.83352 4.10651,4.82826 4.10491,4.82237 4.10326,4.81589 4.1016,4.80881 4.09994,4.80116 4.09833,4.79296 4.09679,4.78423 4.09534,4.77498 4.09403,4.76523 4.09287,4.755 4.0919,4.74431 4.09115,4.73317 4.09064,4.7216 4.09041,4.70963 4.09048,4.69725 4.09089,4.68451 4.09166,4.6714 4.09282,4.65796 4.09441,4.64419 4.09644,4.63012 4.09896,4.61576 4.10199,4.60113 4.10556,4.58626 4.1097,4.57114 4.11443,4.55581 4.1198,4.54028 4.12581,4.52457 4.13252,4.5087 4.13994,4.49268 "/>
     <polygon id="_462754224" class="fil1" points="4.12073,4.85126 7.907,8.63753 7.91189,8.64254 7.91671,8.6478 7.92144,8.65329 7.92609,8.65898 7.93065,8.66484 7.93511,8.67085 7.93947,8.67698 7.94372,8.68321 7.94787,8.6895 7.95189,8.69584 7.9558,8.7022 7.95958,8.70854 7.96323,8.71485 7.96674,8.7211 7.97012,8.72726 7.97335,8.7333 7.97643,8.7392 7.97935,8.74493 7.98212,8.75046 7.98472,8.75578 7.98715,8.76085 7.98941,8.76565 7.99149,8.77015 7.99339,8.77432 7.99509,8.77814 7.9966,8.78158 7.99792,8.78461 7.99903,8.78722 7.99993,8.78937 8.00062,8.79103 4.21435,5.00476 4.21367,5.00309 4.21276,5.00094 4.21165,4.99834 4.21033,4.99531 4.20882,4.99187 4.20712,4.98805 4.20522,4.98387 4.20314,4.97938 4.20089,4.97458 4.19845,4.96951 4.19585,4.96419 4.19309,4.95866 4.19016,4.95293 4.18708,4.94702 4.18385,4.94098 4.18048,4.93483 4.17696,4.92858 4.17331,4.92227 4.16953,4.91593 4.16562,4.90957 4.1616,4.90323 4.15745,4.89694 4.1532,4.89071 4.14884,4.88458 4.14438,4.87857 4.13982,4.8727 4.13518,4.86702 4.13044,4.86153 4.12563,4.85627 "/>
     <polygon id="_462754080" class="fil1" points="2.63652,3.89657 6.42278,7.68285 6.4178,7.67828 6.4128,7.67402 6.4078,7.67007 6.40282,7.6664 6.39788,7.66302 6.39298,7.6599 6.38816,7.65704 6.38342,7.65443 6.37878,7.65206 6.37425,7.64991 6.36985,7.64797 6.3656,7.64624 6.36151,7.6447 6.3576,7.64334 2.57133,3.85707 2.57524,3.85843 2.57933,3.85997 2.58358,3.8617 2.58798,3.86364 2.59251,3.86579 2.59715,3.86816 2.60189,3.87077 2.60672,3.87363 2.61161,3.87674 2.61655,3.88013 2.62153,3.8838 2.62653,3.88775 2.63153,3.892 "/>
     <polygon id="_462754032" class="fil1" points="2.57133,3.85707 6.3576,7.64334 6.35714,7.64319 6.35669,7.64304 6.35623,7.64289 6.35578,7.64274 6.35533,7.6426 6.35489,7.64246 6.35444,7.64232 6.354,7.64219 2.56774,3.85591 2.56818,3.85605 2.56862,3.85619 2.56906,3.85633 2.56951,3.85647 2.56996,3.85662 2.57042,3.85676 2.57087,3.85691 "/>
     <polygon id="_462754656" class="fil1" points="2.04711,3.36922 5.83337,7.15549 5.83339,7.15635 5.83339,7.15722 5.83337,7.15809 5.83332,7.15897 5.83326,7.15984 5.83317,7.16072 5.83307,7.16161 5.83294,7.16249 2.04667,3.37622 2.0468,3.37533 2.04691,3.37445 2.04699,3.37357 2.04706,3.3727 2.0471,3.37182 2.04712,3.37095 2.04712,3.37008 "/>
     <polygon id="_462754296" class="fil1" points="2.04667,3.37622 5.83294,7.16249 5.82156,7.22984 5.80904,7.2925 5.79547,7.35061 5.78094,7.40436 5.76556,7.4539 5.7494,7.49941 5.73256,7.54104 5.71513,7.57897 5.69722,7.61336 5.67889,7.64438 5.66026,7.67219 5.64141,7.69696 5.62244,7.71885 5.60343,7.73804 5.58448,7.75468 5.56568,7.76894 5.54713,7.781 5.52891,7.79101 5.51111,7.79914 5.49384,7.80556 5.47718,7.81043 5.46122,7.81393 5.44607,7.81621 5.4318,7.81744 5.41851,7.81779 5.40629,7.81743 5.39524,7.81651 5.38545,7.81522 5.377,7.8137 5.37,7.81213 5.36454,7.81068 5.3607,7.80951 1.57443,4.02324 1.57827,4.02441 1.58374,4.02586 1.59074,4.02743 1.59918,4.02894 1.60897,4.03024 1.62002,4.03115 1.63224,4.03152 1.64553,4.03117 1.6598,4.02994 1.67496,4.02766 1.69091,4.02416 1.70757,4.01929 1.72485,4.01287 1.74264,4.00474 1.76086,3.99472 1.77941,3.98267 1.79821,3.96841 1.81716,3.95176 1.83617,3.93258 1.85515,3.91069 1.874,3.88592 1.89263,3.85811 1.91095,3.82709 1.92887,3.7927 1.94629,3.75477 1.96313,3.71314 1.97929,3.66763 1.99468,3.61809 2.0092,3.56434 2.02277,3.50622 2.03529,3.44357 "/>
     <polygon id="_462754176" class="fil1" points="2.56774,3.85591 6.354,7.64219 6.34544,7.656 6.33548,7.67102 6.32424,7.68716 6.3118,7.70431 6.29828,7.72239 6.28377,7.74128 6.26838,7.76087 6.2522,7.78109 6.23535,7.80181 6.21791,7.82296 6.2,7.84441 6.18171,7.86608 6.16314,7.88786 6.1444,7.90965 6.12559,7.93135 6.10681,7.95287 6.08815,7.97409 6.06974,7.99493 6.05165,8.01527 6.034,8.03503 6.01689,8.05409 6.00041,8.07237 5.98468,8.08975 5.96979,8.10614 5.95583,8.12144 5.94293,8.13555 5.93117,8.14837 5.92066,8.15979 5.9115,8.16972 5.90378,8.17805 5.89763,8.1847 5.89312,8.18954 2.10685,4.40327 2.11136,4.39843 2.11752,4.39178 2.12523,4.38344 2.13439,4.37352 2.14491,4.36209 2.15667,4.34928 2.16957,4.33517 2.18352,4.31987 2.19841,4.30348 2.21415,4.28609 2.23062,4.26782 2.24773,4.24876 2.26538,4.229 2.28347,4.20865 2.30189,4.18782 2.32054,4.16659 2.33932,4.14508 2.35813,4.12338 2.37687,4.10159 2.39544,4.07981 2.41373,4.05814 2.43165,4.03669 2.44908,4.01554 2.46594,3.99482 2.48211,3.9746 2.4975,3.955 2.51201,3.93612 2.52554,3.91804 2.53797,3.90089 2.54922,3.88475 2.55917,3.86972 "/>
     <polygon id="_462754320" class="fil1" points="3.00858,4.96124 6.79485,8.74751 6.78385,8.74148 6.77306,8.73399 6.76247,8.72515 2.9762,4.93888 2.9868,4.94772 2.99759,4.95521 "/>
     <polygon id="_462754368" class="fil1" points="2.99184,4.24898 6.77811,8.03526 6.77713,8.09232 6.77805,8.14609 6.78074,8.19667 6.78508,8.24414 6.79095,8.28862 6.79823,8.33019 6.80679,8.36896 6.81651,8.40502 6.82727,8.43846 6.83895,8.46939 6.85143,8.4979 6.86457,8.52409 6.87828,8.54806 6.89241,8.5699 6.90685,8.58971 6.92147,8.60759 6.93616,8.62363 6.95079,8.63794 3.16452,4.85167 3.14989,4.83736 3.1352,4.82131 3.12058,4.80344 3.10614,4.78363 3.09201,4.76179 3.07831,4.73782 3.06516,4.71163 3.05268,4.68312 3.041,4.65219 3.03024,4.61874 3.02052,4.58269 3.01196,4.54392 3.00469,4.50235 2.99881,4.45787 2.99448,4.41039 2.99178,4.35982 2.99086,4.30605 "/>
     <polygon id="_462754512" class="fil1" points="3.31396,4.93293 7.10022,8.7192 7.10252,8.72141 3.31625,4.93514 "/>
     <polygon id="_462754584" class="fil1" points="3.31625,4.93514 7.10252,8.72141 7.11495,8.73524 7.12538,8.7483 7.13392,8.76063 7.14066,8.77224 7.1457,8.78315 7.14915,8.79339 7.15109,8.80298 7.15163,8.81193 7.15087,8.82028 7.14891,8.82804 7.14584,8.83523 7.14177,8.84188 7.1368,8.848 7.13102,8.85362 7.12454,8.85876 7.11744,8.86344 7.10985,8.86768 7.10184,8.8715 7.09353,8.87493 7.085,8.87798 7.07637,8.88067 7.06772,8.88304 7.05916,8.88509 7.05079,8.88686 7.04271,8.88836 7.03501,8.88961 7.0278,8.89063 7.02117,8.89146 7.01523,8.89209 7.01007,8.89257 7.00579,8.89291 7.00249,8.89313 3.21622,5.10686 3.21952,5.10664 3.2238,5.1063 3.22896,5.10582 3.2349,5.10519 3.24153,5.10436 3.24874,5.10333 3.25644,5.10209 3.26452,5.10059 3.27289,5.09882 3.28145,5.09677 3.2901,5.0944 3.29873,5.0917 3.30726,5.08865 3.31557,5.08523 3.32358,5.08141 3.33118,5.07717 3.33827,5.07249 3.34475,5.06735 3.35053,5.06173 3.3555,5.05561 3.35957,5.04896 3.36264,5.04177 3.3646,5.03401 3.36536,5.02566 3.36482,5.0167 3.36288,5.00712 3.35943,4.99688 3.35439,4.98596 3.34765,4.97435 3.33911,4.96203 3.32868,4.94896 "/>
     <polygon id="_462755016" class="fil1" points="1.57443,4.02324 5.3607,7.80951 5.35656,7.80809 5.35262,7.80621 5.34891,7.80389 5.34548,7.80114 1.55921,4.01487 1.56265,4.01761 1.56635,4.01994 1.5703,4.02182 "/>
     <polygon id="_462755304" class="fil1" points="2.07506,4.96723 5.86133,8.7535 5.86126,8.75352 2.075,4.96725 "/>
     <polygon id="_462755352" class="fil1" points="2.075,4.96725 5.86126,8.75352 5.86192,8.75573 2.07565,4.96946 "/>
     <polygon id="_462755136" class="fil1" points="2.07565,4.96946 5.86192,8.75573 5.86613,8.77367 5.86891,8.79005 5.87031,8.80493 5.87044,8.81836 5.86936,8.83042 5.86716,8.84116 5.86392,8.85066 5.85972,8.85896 5.85464,8.86615 5.84876,8.87227 5.84217,8.87739 5.83494,8.88158 5.82715,8.88491 5.81889,8.88742 5.81024,8.88919 5.80128,8.89028 5.79208,8.89076 5.78274,8.89068 5.77332,8.89011 5.76392,8.88912 5.75461,8.88776 5.74547,8.88611 5.73659,8.88422 5.72805,8.88215 5.71992,8.87998 5.71229,8.87775 5.70524,8.87555 5.69885,8.87343 5.6932,8.87145 5.68837,8.86968 5.68444,8.86817 5.6815,8.86701 1.89523,5.08074 1.89817,5.0819 1.9021,5.08341 1.90693,5.08518 1.91258,5.08715 1.91897,5.08928 1.92602,5.09148 1.93365,5.0937 1.94178,5.09588 1.95033,5.09794 1.9592,5.09983 1.96834,5.10149 1.97765,5.10285 1.98706,5.10384 1.99647,5.10441 2.00581,5.10449 2.01501,5.10401 2.02397,5.10292 2.03263,5.10115 2.04088,5.09863 2.04867,5.09531 2.0559,5.09112 2.06249,5.086 2.06837,5.07987 2.07345,5.07269 2.07765,5.06439 2.08089,5.05489 2.08309,5.04415 2.08417,5.03209 2.08405,5.01866 2.08264,5.00378 2.07987,4.9874 "/>
     <polygon id="_462755376" class="fil1" points="1.89523,5.08074 5.6815,8.86701 5.68023,8.86656 5.67897,8.86606 5.67772,8.86551 5.67649,8.86491 5.67527,8.86427 5.67407,8.86358 5.67289,8.86284 5.67172,8.86205 1.88545,5.07578 1.88662,5.07657 1.8878,5.07731 1.889,5.078 1.89022,5.07864 1.89146,5.07924 1.8927,5.07978 1.89396,5.08028 "/>
     <polygon id="_462755400" class="fil1" points="1.88545,5.07578 5.67172,8.86205 5.65728,8.85146 5.64424,8.8411 1.85797,5.05483 1.87101,5.06519 "/>
     <polygon id="_462755424" class="fil1" points="4.56177,4.80222 8.34804,8.58849 8.33195,8.61505 8.31672,8.63811 8.30231,8.65784 8.2887,8.67443 8.27587,8.68804 8.2638,8.69884 8.25246,8.70702 8.24184,8.71274 8.23191,8.71619 8.22265,8.71752 8.21404,8.71693 8.20606,8.71457 8.19867,8.71063 8.19187,8.70528 4.40561,4.919 4.41241,4.92435 4.41979,4.9283 4.42777,4.93065 4.43639,4.93125 4.44564,4.92991 4.45557,4.92647 4.46619,4.92075 4.47753,4.91257 4.4896,4.90176 4.50243,4.88816 4.51604,4.87157 4.53045,4.85183 4.54569,4.82878 "/>
     <polygon id="_462755472" class="fil1" points="3.21622,5.10686 7.00249,8.89313 7.00188,8.89321 7.00126,8.89328 7.00064,8.89333 7.00002,8.89338 6.9994,8.89341 6.99877,8.89344 6.99815,8.89345 6.99751,8.89346 3.21124,5.10719 3.21188,5.10718 3.2125,5.10717 3.21313,5.10714 3.21376,5.10711 3.21437,5.10706 3.215,5.107 3.21561,5.10694 "/>
     <polygon id="_462755040" class="fil1" points="3.21124,5.10719 6.99751,8.89346 6.98318,8.89318 6.96952,8.89237 6.95654,8.89106 6.9442,8.88926 6.93249,8.88701 6.9214,8.88432 6.91091,8.88123 6.901,8.87776 6.89167,8.87394 6.88287,8.8698 6.87461,8.86534 6.86687,8.86061 6.85963,8.85563 6.85287,8.85043 6.84658,8.84503 3.06031,5.05876 3.0666,5.06416 3.07336,5.06936 3.0806,5.07434 3.08835,5.07907 3.09661,5.08352 3.1054,5.08767 3.11474,5.09149 3.12465,5.09496 3.13513,5.09805 3.14622,5.10074 3.15793,5.10299 3.17027,5.10479 3.18326,5.1061 3.19691,5.10691 "/>
     <polygon id="_462754776" class="fil1" points="2.10685,4.40327 5.89312,8.18954 5.8813,8.21446 5.87079,8.23952 5.86154,8.26465 5.85347,8.2898 5.84653,8.31489 5.84066,8.33988 5.8358,8.3647 5.83187,8.38929 5.82883,8.41359 5.82662,8.43755 5.82516,8.46109 5.82441,8.48417 5.82428,8.5067 5.82474,8.52865 5.8257,8.54995 5.82713,8.57053 5.82894,8.59034 5.83108,8.60932 5.83349,8.6274 5.83611,8.64452 5.83888,8.66063 5.84172,8.67567 5.84459,8.68957 5.84743,8.70227 5.85016,8.71371 5.85273,8.72383 5.85508,8.73258 5.85714,8.73988 5.85886,8.74569 5.86017,8.74993 5.86102,8.75256 5.86133,8.7535 2.07506,4.96723 2.07475,4.96629 2.07391,4.96366 2.07259,4.95942 2.07087,4.95361 2.06881,4.94631 2.06646,4.93756 2.06389,4.92744 2.06116,4.916 2.05833,4.9033 2.05546,4.8894 2.05261,4.87436 2.04984,4.85825 2.04722,4.84113 2.04481,4.82305 2.04267,4.80407 2.04086,4.78426 2.03944,4.76368 2.03847,4.74238 2.03802,4.72043 2.03814,4.69789 2.03889,4.67482 2.04035,4.65128 2.04257,4.62732 2.04561,4.60302 2.04953,4.57843 2.05439,4.55361 2.06026,4.52862 2.0672,4.50352 2.07527,4.47838 2.08452,4.45325 2.09503,4.42819 "/>
    </g>
    <path id="_637662376" class="fil1" d="M5.14829 2.89031l0 0zm-0.91689 -0.760102c0.288016,-0.424854 0.571528,-0.357409 0.683579,-0.306256 -0.00303543,0.00532283 -0.00664961,0.0112874 -0.0102244,0.0170354 0.00422441,0.00176772 0.00825591,0.00353543 0.0120866,0.00528346 0.00679528,0.00309843 0.0129567,0.00614173 0.0184528,0.00900787l0.10963 -0.144453c0.00753543,-0.0112677 0.0208819,-0.0181299 0.0353189,-0.0167087 0.020878,0.00205512 0.0361339,0.0206496 0.0340827,0.0415276l-0.00694882 0.0699843 0.0661339 -0.0688858c0.00877953,-0.01 0.0225512,-0.0150906 0.0364961,-0.0121339 0.0205472,0.00435827 0.0336732,0.0245472 0.0293189,0.0450984l-0.049874 0.234173c0.0695906,0.105791 0.0691142,0.384547 0.0686969,0.423634 0.024622,0.124453 0.0262638,0.215689 0.0156142,0.282579 -0.00812598,0.0511969 -0.0234606,0.0881339 -0.0412126,0.11478 -0.0285157,0.0429173 -0.0632677,0.0592047 -0.0842559,0.0654567 -0.00596063,0.00177559 -0.010811,0.00274409 -0.0140945,0.00327953 -0.00130315,0.000299213 -0.0026378,0.000535433 -0.00399606,0.000700787 -0.00042126,5.51181e-005 -0.000811024,6.69291e-005 -0.00117717,5.90551e-005l-0.00282283 0.000204724c-0.00995276,0.000354331 -0.0194094,0.000114173 -0.0284252,-0.00061811 -0.14126,-0.0117126 -0.170559,-0.151748 -0.176638,-0.209776 -0.0637205,-0.0308189 -0.0969882,-0.0645 -0.123772,-0.108728 -5.51181e-005,0.000350394 -0.000114173,0.000700787 -0.000173228,0.00105512 0.000358268,0.000318898 0.000716535,0.000637795 0.0010748,0.00096063l-0.00951575 0.0455354c-0.000137795,-0.000137795 -0.000275591,-0.000279528 -0.000417323,-0.00042126 -0.00579528,0.0260787 -0.0127677,0.0513307 -0.0209488,0.0763425 -0.0253661,0.0775472 -0.0619921,0.151846 -0.111024,0.240925 -0.0535866,0.117638 0.00848425,0.177177 0.0181417,0.18548 0.000358268,0.000259843 0.000716535,0.000531496 0.00106693,0.00080315 0.00458268,0.00358268 0.00840945,0.00827165 0.0110315,0.0139094 0.104807,0.224819 -0.0288268,0.462996 -0.0839449,0.546102 0.0715512,0.066 0.16552,0.207898 0.185378,0.238409 0.173516,0.129772 0.121732,0.338764 0.116555,0.35789 -0.0578858,0.296122 -0.298969,0.487138 -0.342823,0.519772 -0.17613,0.302567 -0.204091,-0.0216024 -0.204173,-0.0225276 -0.000141732,-0.00151575 -0.00019685,-0.00305512 -0.000153543,-0.00461417 0.00509843,-0.179953 0.0946378,-0.211472 0.147602,-0.214272 0.0211457,-0.0438268 0.0761614,-0.073563 0.099248,-0.0844803 0.103087,-0.141992 0.0621496,-0.296752 0.0509488,-0.331583 -0.100551,-0.102102 -0.257858,-0.192366 -0.338547,-0.23513 -0.00034252,-0.000181102 -0.000685039,-0.000362205 -0.00102362,-0.000543307 -0.0253228,0.187366 -0.158724,0.544744 -0.165339,0.562398 -0.000610236,0.0017126 -0.00134252,0.00340945 -0.00221654,0.00506693 -0.0912087,0.172862 -0.0502205,0.326858 -0.0373819,0.365579 0.0540236,0.0454449 0.0974173,0.147583 0.103622,0.162646 0.00169685,0.00364961 0.00283465,0.0076378 0.00329921,0.0118583 0.0164016,0.148224 -0.176642,0.114858 -0.208665,0.108335 -0.143087,-0.00276772 -0.13161,-0.164472 -0.119831,-0.234717 -0.115807,-0.0640079 -0.0177362,-0.217925 0.00470866,-0.250307 0.0739291,-0.250224 0.0775197,-0.639547 0.0759921,-0.785492 -0.252398,0.0900039 -0.726772,-0.0439449 -0.878378,-0.0912598 -7.87402e-006,0.000114173 -1.9685e-005,0.000224409 -2.75591e-005,0.000338583 -0.0145118,0.171921 -0.0891457,0.447433 -0.0996142,0.485472 -0.0209291,0.626579 0.302197,0.674685 0.303122,0.674866 0.00785827,0.00130315 0.015374,0.0050748 0.0212874,0.0112913 0.143602,0.151567 -0.0704488,0.169925 -0.100024,0.17172 -0.00163386,0.000216535 -0.00329134,0.000322835 -0.00498031,0.000322835 -0.156618,0 -0.193902,-0.0953701 -0.202665,-0.145945 -0.118248,-0.0562598 -0.204268,-0.376744 -0.220319,-0.440398 -0.141768,-0.143094 -0.0918189,-0.42898 -0.0824331,-0.476012 -0.019874,-0.131598 -0.0938071,-0.174177 -0.134492,-0.187764 -0.00123228,-0.000409449 -0.00242913,-0.000795276 -0.00359843,-0.00115354 -0.0835669,0.140457 -0.421996,0.505571 -0.460886,0.547358 -0.133299,0.264898 -0.0320787,0.563087 -0.0317913,0.563957l-6.29921e-005 1.9685e-005 0.000653543 0.00220866c0.0529921,0.200008 -0.154563,0.121717 -0.180421,0.11128 -0.00339764,-0.00114173 -0.00669291,-0.0027874 -0.00977559,-0.00495669 -0.161768,-0.114146 -0.0737913,-0.189882 -0.0376496,-0.213083 0.00194882,-0.0184528 -0.0215512,-0.0592283 -0.025874,-0.0665472 -0.000728346,-0.00112992 -0.00140157,-0.00230315 -0.00201969,-0.00352756 -0.0742953,-0.14774 0.0821378,-0.443394 0.110327,-0.494445 0.0218425,-0.297654 0.120354,-0.354547 0.163287,-0.365091 0.127173,-0.121138 0.0866929,-0.278713 0.0825236,-0.293535l-3.14961e-005 -9.84252e-005c-0.0800079,-0.244957 -0.0559488,-0.434437 -0.0287795,-0.538142 0.000279528,-0.00107874 0.000562992,-0.00214567 0.000846457,-0.00320472 -0.10848,0.0799646 -0.100984,0.270469 -0.100976,0.271114 7.08661e-005,0.00229921 -6.69291e-005,0.0046378 -0.000433071,0.00699606 -0.114992,0.744118 -0.440287,0.657417 -0.472244,0.647024 -0.0112441,-0.00315748 -0.0208898,-0.011437 -0.0253189,-0.0232087 -0.0073937,-0.0196417 0.00253543,-0.0415709 0.0221772,-0.0489646 0.19078,-0.0722402 0.107929,-0.464181 0.107701,-0.465311 -0.000555118,-0.00273228 -0.000814961,-0.0055748 -0.000748031,-0.00848425 0.0167087,-0.677331 0.481142,-0.631303 0.596071,-0.609484 0.00023622,-0.00026378 0.000476378,-0.000531496 0.000712598,-0.000795276 0.201201,-0.251705 0.698512,-0.177614 0.719689,-0.174343 0.00219291,0.000287402 0.00438976,0.000767717 0.00657087,0.00145669l0.0213701 0.00674803c0.0680118,0.0214882 0.129776,0.041 0.185732,0.0519213 0.224744,0.0439882 0.428039,-0.0247008 0.60676,-0.0850827 0.0259567,-0.00877559 0.0514173,-0.017378 0.0763701,-0.0254567 0.101421,-0.0328346 0.143909,-0.0661299 0.169346,-0.111098 0.00292126,-0.0146378 0.00633071,-0.0304173 0.0102677,-0.0473543 0.00754331,-0.0179961 0.0138071,-0.0378071 0.020811,-0.0599685 0.0226811,-0.0717402 0.0520669,-0.164701 0.139457,-0.293606z"/>
   </g>
  </g>
  <path class="fil2" d="M3.41333 -3.93701e-006c1.88513,0 3.41333,1.5282 3.41333,3.41333 0,1.88513 -1.5282,3.41333 -3.41333,3.41333 -1.88513,0 -3.41333,-1.5282 -3.41333,-3.41333 0,-1.88513 1.5282,-3.41333 3.41333,-3.41333z"/>
  <path class="fil3" d="M3.20839 2.75278c0.224744,0.0439882 0.428039,-0.0247008 0.60676,-0.0850827 0.0259567,-0.00877559 0.0514173,-0.017378 0.0763701,-0.0254567 0.156287,-0.0505945 0.17263,-0.102287 0.202283,-0.196094 0.0226811,-0.0717402 0.0520669,-0.164701 0.139457,-0.293606 0.30548,-0.450614 0.605886,-0.347421 0.702035,-0.297256l0.10963 -0.144453c0.00753543,-0.0112677 0.0208819,-0.0181299 0.0353189,-0.0167087 0.020878,0.00205512 0.0361339,0.0206496 0.0340827,0.0415276l-0.00694882 0.0699843 0.0661339 -0.0688858c0.00877953,-0.01 0.0225512,-0.0150906 0.0364961,-0.0121339 0.0205472,0.00435827 0.0336732,0.0245472 0.0293189,0.0450984l-0.049874 0.234173c0.0695906,0.105791 0.0691142,0.384547 0.0686969,0.423634 0.0824016,0.416516 -0.0925591,0.460961 -0.123949,0.466094 -0.00130315,0.000299213 -0.0026378,0.000535433 -0.00399606,0.000700787 -0.00042126,5.51181e-005 -0.000811024,6.69291e-005 -0.00117717,5.90551e-005 -0.000929134,0.000102362 -0.00187402,0.000173228 -0.00282283,0.000204724 -0.16585,0.00587008 -0.198594,-0.148665 -0.205063,-0.210394 -0.0637205,-0.0308189 -0.0969882,-0.0645 -0.123772,-0.108728 -0.00701969,0.0433307 -0.0169724,0.0837047 -0.0299803,0.123472 -0.0253661,0.0775472 -0.0619921,0.151846 -0.111024,0.240925 -0.0535866,0.117638 0.00848425,0.177177 0.0181417,0.18548 0.00505512,0.00367717 0.00927559,0.00864567 0.0120984,0.0147126 0.104807,0.224819 -0.0288268,0.462996 -0.0839449,0.546102 0.0715512,0.066 0.16552,0.207898 0.185378,0.238409 0.173516,0.129772 0.121732,0.338764 0.116555,0.35789 -0.0578858,0.296122 -0.298969,0.487138 -0.342823,0.519772 -0.17613,0.302567 -0.204091,-0.0216024 -0.204173,-0.0225276 -0.000141732,-0.00151575 -0.00019685,-0.00305512 -0.000153543,-0.00461417 0.00509843,-0.179953 0.0946378,-0.211472 0.147602,-0.214272 0.0211457,-0.0438268 0.0761614,-0.073563 0.099248,-0.0844803 0.103087,-0.141992 0.0621496,-0.296752 0.0509488,-0.331583 -0.10098,-0.102539 -0.259201,-0.193134 -0.339571,-0.235673 -0.0253228,0.187366 -0.158724,0.544744 -0.165339,0.562398 -0.000610236,0.0017126 -0.00134252,0.00340945 -0.00221654,0.00506693 -0.0912087,0.172862 -0.0502205,0.326858 -0.0373819,0.365579 0.0540236,0.0454449 0.0974173,0.147583 0.103622,0.162646 0.00169685,0.00364961 0.00283465,0.0076378 0.00329921,0.0118583 0.0164016,0.148224 -0.176642,0.114858 -0.208665,0.108335 -0.143087,-0.00276772 -0.13161,-0.164472 -0.119831,-0.234717 -0.115807,-0.0640079 -0.0177362,-0.217925 0.00470866,-0.250307 0.0739291,-0.250224 0.0775197,-0.639547 0.0759921,-0.785492 -0.252398,0.0900039 -0.726772,-0.0439449 -0.878378,-0.0912598 -0.0144409,0.171894 -0.0891693,0.447748 -0.0996417,0.485811 -0.0209291,0.626579 0.302197,0.674685 0.303122,0.674866 0.00785827,0.00130315 0.015374,0.0050748 0.0212874,0.0112913 0.143602,0.151567 -0.0704488,0.169925 -0.100024,0.17172 -0.00163386,0.000216535 -0.00329134,0.000322835 -0.00498031,0.000322835 -0.156618,0 -0.193902,-0.0953701 -0.202665,-0.145945 -0.118248,-0.0562598 -0.204268,-0.376744 -0.220319,-0.440398 -0.141768,-0.143094 -0.0918189,-0.42898 -0.0824331,-0.476012 -0.0204764,-0.135579 -0.0983268,-0.176673 -0.138091,-0.188917 -0.0835669,0.140457 -0.421996,0.505571 -0.460886,0.547358 -0.133299,0.264898 -0.0320787,0.563087 -0.0317913,0.563957l-6.29921e-005 1.9685e-005 0.000653543 0.00220866c0.0529921,0.200008 -0.154563,0.121717 -0.180421,0.11128 -0.00339764,-0.00114173 -0.00669291,-0.0027874 -0.00977559,-0.00495669 -0.161768,-0.114146 -0.0737913,-0.189882 -0.0376496,-0.213083 0.00194882,-0.0184528 -0.0215512,-0.0592283 -0.025874,-0.0665472 -0.000728346,-0.00112992 -0.00140157,-0.00230315 -0.00201969,-0.00352756 -0.0742953,-0.14774 0.0821378,-0.443394 0.110327,-0.494445 0.0218425,-0.297654 0.120354,-0.354547 0.163287,-0.365091 0.127173,-0.121138 0.0866929,-0.278713 0.0825236,-0.293535l-3.14961e-005 -9.84252e-005c-0.0808386,-0.2475 -0.055437,-0.43837 -0.0279331,-0.541346 -0.10848,0.0799646 -0.100984,0.270469 -0.100976,0.271114 7.08661e-005,0.00229921 -6.69291e-005,0.0046378 -0.000433071,0.00699606 -0.114992,0.744118 -0.440287,0.657417 -0.472244,0.647024 -0.0112441,-0.00315748 -0.0208898,-0.011437 -0.0253189,-0.0232087 -0.0073937,-0.0196417 0.00253543,-0.0415709 0.0221772,-0.0489646 0.19078,-0.0722402 0.107929,-0.464181 0.107701,-0.465311 -0.000555118,-0.00273228 -0.000814961,-0.0055748 -0.000748031,-0.00848425 0.0167126,-0.677461 0.481319,-0.631283 0.596138,-0.609472 0.200783,-0.252669 0.699134,-0.178425 0.720335,-0.17515 0.00219291,0.000287402 0.00438976,0.000767717 0.00657087,0.00145669l0.0213701 0.00674803c0.0680118,0.0214882 0.129776,0.041 0.185732,0.0519213z"/>
  <path class="fil2" d="M4.91683 1.84628c-0.0101772,0.0178346 -0.0268189,0.0428819 -0.0268228,0.0428858 -0.0180433,0.00309449 -0.00935433,0.0143346 -0.0470945,0.00403937 -0.0113425,0.0156614 -0.0648465,0.084252 -0.0609724,0.0243465 -0.0550236,0.0897835 -0.0249213,0.0166811 -0.0978622,0.0845197 -0.0101102,0.00940551 -0.0468189,0.0437008 -0.0619764,0.0377913 -0.00767323,-0.0778189 -0.0677323,0.0604331 -0.0688346,0.0610748 -0.00467717,-0.00911024 0.000909449,-0.035 -0.00340551,-0.0440118 -0.013126,0.00472835 -0.0811811,0.0852283 -0.0846772,0.103866 -0.011,-0.00253543 -0.012811,-0.0355827 -0.0148819,-0.0443307 -0.0340669,-0.0078622 -0.101043,0.135193 -0.114547,0.15022 -0.00366142,-0.00372441 -0.0181142,-0.0465945 -0.0187677,-0.0500748 -0.00899213,0.00385433 -0.10524,0.120811 -0.113327,0.176902 -0.0137362,-0.0148661 0.00409449,-0.0207835 -0.0131811,-0.0327441 -0.000326772,0.000271654 -0.0770394,0.230957 -0.0889843,0.26328 -0.00290157,0.0330512 -0.00775984,0.0394331 -0.00775984,0.08 -0.0156339,0.0072126 -0.0260472,-0.105921 -0.0260472,-0.122472 4.33071e-005,0.00320866 -0.0135,0.093311 -0.0155236,0.0998307 -0.0538543,0 0.00824016,-0.0793386 0.0208228,-0.175291"/>
  <path class="fil4" d="M5.14828 2.89033c-0.00594882,0.00177165 -0.010811,0.00274803 -0.0140866,0.00328346 -0.00130315,0.000299213 -0.0026378,0.000535433 -0.00399606,0.000700787 -0.00042126,5.51181e-005 -0.000811024,6.69291e-005 -0.00117717,5.90551e-005 -0.000929134,0.000102362 -0.00187402,0.000173228 -0.00282283,0.000204724 -0.00995276,0.000354331 -0.0194094,0.000114173 -0.0284252,-0.000633858 -0.0328071,-0.0498425 -0.0184449,-0.130039 -0.00822441,-0.183484 0.00885039,0.0462756 0.00816142,0.16235 0.0587362,0.179854l-3.93701e-006 1.5748e-005z"/>
  <path class="fil4" d="M5.27376 2.71009c-0.00814173,0.0511929 -0.0234764,0.088122 -0.0412126,0.11478 -0.000846457,5.11811e-005 -0.00169291,7.87402e-005 -0.00254724,7.87402e-005 -0.030311,0 -0.0548819,-0.0320669 -0.0548819,-0.071626 0,-0.0395551 0.0245709,-0.071626 0.0548819,-0.071626 0.0178661,0 0.0337362,0.0111457 0.0437598,0.0283937z"/>
  <line class="fil5" x1="3.29496" y1="4.92385" x2="3.29496" y2= "4.92385" />
  <path class="fil6" d="M2.10784 4.00672c-0.00940551,-0.000771654 -0.0185433,-0.00501969 -0.025315,-0.012626"/>
  <path class="fil7" d="M4.99343 2.12846c0.0316811,0.0238465 0.0439055,0.0610591 0.0273071,0.0831142 -0.0166024,0.0220591 -0.0557441,0.0206102 -0.0874252,-0.00323622 -0.031685,-0.0238465 -0.0439094,-0.0610591 -0.0273071,-0.0831142 0.0166024,-0.0220591 0.0557441,-0.0206063 0.0874252,0.00323622z"/>
  <path class="fil8" d="M4.98672 2.13737c0.0171339,0.0128976 0.0205709,0.0372441 0.00767323,0.054378 -0.0128976,0.0171339 -0.0372402,0.0205709 -0.054378,0.00767323 -0.0171339,-0.0128976 -0.0205669,-0.0372402 -0.00767323,-0.054378 0.0128976,-0.0171339 0.0372441,-0.0205709 0.054378,-0.00767323z"/>
  <path class="fil4" d="M2.27438 2.8678c-0.114819,-0.021811 -0.579425,-0.0679882 -0.596138,0.609472 -6.69291e-005,0.00290945 0.000192913,0.00575197 0.000748031,0.00848425 0.000228346,0.00112992 0.0830787,0.393071 -0.107701,0.465311 -0.0196417,0.0073937 -0.0295709,0.0293228 -0.0221772,0.0489646 0.00442913,0.0117717 0.0140748,0.0200512 0.0253189,0.0232087 0.0319567,0.0103937 0.357252,0.0970945 0.472244,-0.647024 0.000366142,-0.00235827 0.000503937,-0.00469685 0.000433071,-0.00699606 -7.87402e-006,-0.000645669 -0.00750394,-0.19115 0.100976,-0.271114 -0.000283465,0.00105906 -0.000562992,0.00212598 -0.000846457,0.00320472 0.0256063,-0.0748189 0.0665118,-0.166122 0.127787,-0.234319 -0.000216535,0.000267717 -0.000433071,0.00053937 -0.000645669,0.000807087z"/>
  <path class="fil9" d="M4.91498 1.82395c-0.112051,-0.0511535 -0.395563,-0.118598 -0.683579,0.306256 -0.0873898,0.128906 -0.116776,0.221866 -0.139457,0.293606 -0.00700394,0.0221614 -0.0132677,0.0419724 -0.020811,0.0599685 -0.0610276,0.262677 0.00442913,0.246657 0.0430787,0.0122402 1.1811e-005,0.0166575 -0.0193465,0.174295 -0.00372441,0.167087 0,-0.0602795 0.0631378,-0.31226 0.0781378,-0.324673 0.0172756,0.0119606 -0.000551181,0.017878 0.013185,0.0327441 0.00808661,-0.0560906 0.104335,-0.173047 0.113327,-0.176902 0.000653543,0.00348031 0.0151063,0.0463504 0.0187638,0.0500748 0.0135079,-0.0150276 0.0804843,-0.158083 0.114547,-0.15022 0.0020748,0.00874803 0.00388583,0.0417953 0.0148858,0.0443307 0.00349606,-0.0186378 0.0715472,-0.0991378 0.0846772,-0.103866 0.00431102,0.00901181 -0.00127165,0.0349016 0.00340551,0.0440157 0.00110236,-0.000645669 0.0611575,-0.138898 0.0688307,-0.0610787 0.0151575,0.00590945 0.0602402,-0.0609488 0.0703504,-0.0703504 0.072937,-0.0678386 0.0344685,0.0378228 0.0894921,-0.0519606 -0.00387402,0.0599055 0.0496299,-0.00868504 0.0609724,-0.0243465 0.0377402,0.0102953 0.0290512,-0.000944882 0.0470945,-0.00403937 0,-3.93701e-006 0.0166457,-0.0250512 0.0268228,-0.0428858z"/>
  <path class="fil4" d="M2.57133 3.85707c0.040689,0.0135866 0.114618,0.0561654 0.134492,0.187764 -0.00938583,0.0470315 -0.0593346,0.332917 0.0824331,0.476012 0.0160512,0.0636535 0.102071,0.384138 0.220319,0.440398 0.00876378,0.0505748 0.0460472,0.145945 0.202665,0.145945 0.00168898,0 0.00334646,-0.000106299 0.00498031,-0.000322835 0.0295748,-0.00179528 0.243626,-0.0201535 0.100024,-0.17172 -0.00591339,-0.00621654 -0.0134291,-0.00998819 -0.0212874,-0.0112913 -0.000925197,-0.000181102 -0.324051,-0.0482874 -0.303122,-0.674866 0.0104685,-0.0380394 0.0851024,-0.313551 0.0996142,-0.485472 -0.182193,-0.0534331 -0.257906,-0.0406575 -0.436189,-0.179303 -0.016189,0.0896024 -0.0382047,0.190606 -0.0839291,0.272858z"/>
  <path class="fil4" d="M4.31669 3.90961c0.080689,0.0427638 0.237996,0.133028 0.338547,0.23513 0.0112008,0.0348307 0.0521378,0.189591 -0.0509488,0.331583 -0.0230866,0.0109173 -0.0781024,0.0406535 -0.099248,0.0844803 -0.0529646,0.00279921 -0.142504,0.0343189 -0.147602,0.214272 -4.33071e-005,0.00155906 1.1811e-005,0.00309843 0.000153543,0.00461417 8.26772e-005,0.000925197 0.0280433,0.325094 0.204173,0.0225276 0.0438543,-0.0326339 0.284937,-0.22365 0.342823,-0.519772 0.00517717,-0.019126 0.0569606,-0.228118 -0.116555,-0.35789 -0.0198583,-0.0305118 -0.113827,-0.172409 -0.185378,-0.238409 0.0551181,-0.0831063 0.188752,-0.321283 0.0839449,-0.546102 -0.00262205,-0.0056378 -0.00644882,-0.0103268 -0.0110315,-0.0139094 0.040311,0.155567 -0.0402087,0.340665 -0.131268,0.465488 -0.107362,0.147177 -0.046252,0.0380906 -0.182606,0.178437 -0.0206654,0.0212677 -0.0340433,0.0845079 -0.0450039,0.139551z"/>
  <path class="fil4" d="M4.78875 2.623c-0.0330787,-0.0333543 -0.195437,-0.184685 -0.129732,-0.253551l0.00233858 -0.00181496 0.000523622 0.00291732 -0.000311024 0.00259055c-0.0137165,0.102815 0.0600079,0.135378 0.136697,0.204323l-0.00951575 0.0455354z"/>
  <path class="fil9" d="M5.04637 2.23943c-0.0167953,-0.11887 -0.116008,-0.168016 -0.223252,-0.120311 0.135488,-0.0875669 0.224331,-0.0405236 0.223252,0.120311z"/>
 </g>
</svg>
