<?xml version="1.0" encoding="UTF-8"?>
<!DOCTYPE svg PUBLIC "-//W3C//DTD SVG 1.1//EN" "http://www.w3.org/Graphics/SVG/1.1/DTD/svg11.dtd">
<!-- Creator: CorelDRAW -->
<svg xmlns="http://www.w3.org/2000/svg" xml:space="preserve" width="6.82666in" height="6.82666in" style="shape-rendering:geometricPrecision; text-rendering:geometricPrecision; image-rendering:optimizeQuality; fill-rule:evenodd; clip-rule:evenodd"
viewBox="0 0 6.82666 6.82666"
 xmlns:xlink="http://www.w3.org/1999/xlink">
 <defs>
  <style type="text/css">
   <![CDATA[
    .fil2 {fill:none}
    .fil12 {fill:#424242}
    .fil1 {fill:#00000000}
    .fil0 {fill:#00000000}
    .fil11 {fill:#FFD180}
    .fil10 {fill:#212D03;fill-rule:nonzero}
    .fil7 {fill:#283A05;fill-rule:nonzero}
    .fil6 {fill:#364B08;fill-rule:nonzero}
    .fil4 {fill:#3B560A;fill-rule:nonzero}
    .fil8 {fill:#445601;fill-rule:nonzero}
    .fil5 {fill:#507211;fill-rule:nonzero}
    .fil9 {fill:#709721;fill-rule:nonzero}
    .fil3 {fill:#DDC187;fill-rule:nonzero}
   ]]>
  </style>
   <clipPath id="id0">
    <path d="M3.41333 -3.93701e-006c1.88513,0 3.41333,1.5282 3.41333,3.41333 0,1.88513 -1.5282,3.41333 -3.41333,3.41333 -1.88513,0 -3.41333,-1.5282 -3.41333,-3.41333 0,-1.88513 1.5282,-3.41333 3.41333,-3.41333z"/>
   </clipPath>
 </defs>
 <g id="Layer_x0020_1">
  <metadata id="CorelCorpID_0Corel-Layer"/>
  <path class="fil0" d="M3.41333 -3.93701e-006c1.88513,0 3.41333,1.5282 3.41333,3.41333 0,1.88513 -1.5282,3.41333 -3.41333,3.41333 -1.88513,0 -3.41333,-1.5282 -3.41333,-3.41333 0,-1.88513 1.5282,-3.41333 3.41333,-3.41333z"/>
  <g style="clip-path:url(#id0)">
   <g id="_637665136">
    <g>
     <polygon id="_6559718561" class="fil1" points="4.96733,2.5992 8.7536,6.38548 8.75373,6.38564 8.75409,6.38611 8.75469,6.38688 8.75548,6.38794 8.75646,6.38927 8.75763,6.39085 8.75894,6.39267 8.7604,6.39472 4.97413,2.60845 4.97268,2.6064 4.97136,2.60458 4.9702,2.603 4.96921,2.60167 4.96842,2.60061 4.96783,2.59984 4.96746,2.59937 "/>
     <polygon id="_655971904" class="fil1" points="4.84435,2.71153 8.63061,6.4978 8.6307,6.4982 8.63094,6.49935 8.63131,6.50122 8.63181,6.50376 8.6324,6.5069 8.63308,6.51061 8.63382,6.51484 8.6346,6.51953 4.84833,2.73326 4.84755,2.72857 4.84681,2.72434 4.84613,2.72063 4.84554,2.71748 4.84504,2.71495 4.84467,2.71308 4.84443,2.71193 "/>
     <polygon id="_655971880" class="fil1" points="5.06372,2.45456 8.84999,6.24083 8.85025,6.24123 8.85101,6.24241 8.85222,6.24431 8.85384,6.24688 8.85582,6.25007 8.85812,6.25383 8.8607,6.25811 8.8635,6.26285 5.07724,2.47658 5.07443,2.47183 5.07185,2.46756 5.06956,2.4638 5.06757,2.46061 5.06595,2.45804 5.06474,2.45613 5.06398,2.45496 "/>
     <polygon id="_655972048" class="fil1" points="4.91154,2.67343 8.6978,6.4597 8.69337,6.45565 8.68936,6.45187 8.68583,6.44843 8.68283,6.44543 8.68042,6.44294 8.67863,6.44106 8.67752,6.43987 8.67714,6.43945 4.89087,2.65318 4.89126,2.6536 4.89236,2.65479 4.89415,2.65667 4.89657,2.65915 4.89956,2.66216 4.90309,2.6656 4.9071,2.66938 "/>
     <polygon id="_655971688" class="fil1" points="4.66818,2.85807 8.45445,6.64434 8.45456,6.64469 8.45489,6.6457 8.45541,6.64734 8.4561,6.64957 8.45692,6.65235 8.45786,6.65564 8.45889,6.65939 8.45998,6.66358 4.67371,2.87731 4.67262,2.87312 4.67159,2.86937 4.67065,2.86608 4.66983,2.8633 4.66915,2.86107 4.66863,2.85943 4.6683,2.85841 "/>
     <polygon id="_655971352" class="fil1" points="4.67564,2.9817 8.46191,6.76797 8.45417,6.77786 8.44787,6.78553 8.44292,6.7911 8.43925,6.79469 8.43677,6.79643 8.43541,6.79645 4.64915,3.01018 4.6505,3.01016 4.65298,3.00842 4.65665,3.00483 4.6616,2.99926 4.66791,2.99159 "/>
     <polygon id="_655972144" class="fil1" points="4.67371,2.87731 8.45998,6.66358 8.46146,6.66962 8.46296,6.67623 8.46442,6.68332 8.46578,6.69081 8.46698,6.69861 8.46798,6.70663 8.46872,6.71477 8.46914,6.72296 8.46919,6.7311 8.46881,6.7391 8.46794,6.74687 8.46654,6.75434 8.46455,6.7614 8.46191,6.76797 8.45856,6.77396 8.45445,6.77928 4.66818,2.993 4.67229,2.98769 4.67564,2.9817 4.67828,2.97513 4.68028,2.96807 4.68168,2.9606 4.68254,2.95283 4.68292,2.94483 4.68287,2.93669 4.68245,2.9285 4.68172,2.92036 4.68072,2.91234 4.67951,2.90454 4.67815,2.89705 4.67669,2.88996 4.6752,2.88335 "/>
     <polygon id="_655972840" class="fil1" points="2.177,2.78531 5.96326,6.57158 5.9568,6.56617 5.94939,6.56103 2.16312,2.77476 2.17053,2.77989 "/>
     <polygon id="_655972192" class="fil1" points="2.61853,2.54564 6.4048,6.33191 6.4136,6.34089 2.62733,2.55462 "/>
     <polygon id="_655972264" class="fil1" points="4.84833,2.73326 8.6346,6.51953 8.63463,6.52311 8.63374,6.52757 8.63199,6.53285 8.62943,6.53888 8.62612,6.54561 8.62211,6.55298 8.61748,6.56092 8.61226,6.56938 8.60652,6.57828 8.60032,6.58758 8.59371,6.59721 8.58676,6.60711 8.5795,6.61722 8.57202,6.62747 8.56435,6.63781 8.55656,6.64819 8.5487,6.65852 8.54084,6.66876 8.53303,6.67884 8.52532,6.6887 8.51778,6.69829 8.51046,6.70754 8.50341,6.71639 8.4967,6.72478 8.49038,6.73264 8.48451,6.73992 8.47915,6.74656 8.47435,6.7525 8.47017,6.75766 8.46666,6.762 8.46389,6.76546 8.46191,6.76797 4.67564,2.9817 4.67762,2.97919 4.68039,2.97573 4.6839,2.97139 4.68808,2.96622 4.69288,2.96029 4.69824,2.95365 4.70411,2.94637 4.71044,2.9385 4.71715,2.93011 4.72419,2.92127 4.73151,2.91202 4.73906,2.90243 4.74676,2.89257 4.75457,2.88248 4.76244,2.87225 4.77029,2.86191 4.77808,2.85154 4.78575,2.8412 4.79324,2.83094 4.80049,2.82084 4.80744,2.81094 4.81406,2.80131 4.82026,2.79201 4.826,2.78311 4.83121,2.77465 4.83585,2.76671 4.83985,2.75934 4.84316,2.75261 4.84572,2.74657 4.84748,2.7413 4.84837,2.73684 "/>
     <polygon id="_655972288" class="fil1" points="4.97413,2.60845 8.7604,6.39472 8.76169,6.39732 8.76259,6.40083 8.76312,6.4052 8.76329,6.41037 8.76311,6.41626 8.76262,6.42281 8.76182,6.42998 8.76073,6.43769 8.75937,6.44589 8.75776,6.4545 8.75591,6.46348 8.75384,6.47275 8.75157,6.48226 8.74911,6.49194 8.74649,6.50174 8.74372,6.51158 8.74082,6.52141 8.7378,6.53117 8.73469,6.54079 8.73149,6.55021 8.72824,6.55938 8.72493,6.56822 8.7216,6.57669 8.71826,6.5847 8.71493,6.59221 8.71161,6.59915 8.70834,6.60546 8.70513,6.61108 8.702,6.61594 8.69896,6.61999 8.69602,6.62316 8.69322,6.62539 4.90695,2.83912 4.90976,2.83689 4.91269,2.83372 4.91573,2.82967 4.91887,2.82481 4.92207,2.81919 4.92535,2.81288 4.92866,2.80594 4.93199,2.79843 4.93533,2.79041 4.93867,2.78195 4.94197,2.77311 4.94522,2.76394 4.94842,2.75452 4.95154,2.74489 4.95455,2.73514 4.95746,2.72531 4.96022,2.71546 4.96285,2.70567 4.9653,2.69599 4.96757,2.68648 4.96964,2.67721 4.97149,2.66823 4.9731,2.65962 4.97446,2.65142 4.97555,2.64371 4.97635,2.63654 4.97685,2.62998 4.97702,2.62409 4.97685,2.61893 4.97633,2.61456 4.97543,2.61105 "/>
     <polygon id="_655972504" class="fil1" points="5.04063,2.75058 8.8269,6.53685 8.82507,6.53894 8.82333,6.53965 8.82167,6.53907 8.82008,6.5373 5.03381,2.75102 5.0354,2.7528 5.03706,2.75338 5.0388,2.75267 "/>
     <polygon id="_655972240" class="fil1" points="3.04508,2.82437 6.83135,6.61064 6.8008,6.61166 6.77045,6.6128 6.74034,6.6141 6.71051,6.61559 6.68101,6.61729 6.65187,6.61924 6.62313,6.62146 6.59484,6.624 6.56704,6.62687 6.53976,6.63011 6.51306,6.63374 6.48696,6.63781 6.46152,6.64234 6.43676,6.64736 6.41274,6.6529 6.38948,6.65899 6.36705,6.66566 6.34547,6.67294 6.32479,6.68086 6.30504,6.68946 6.28627,6.69876 6.26852,6.70879 6.25183,6.71959 6.23624,6.73118 6.22179,6.74359 6.20852,6.75686 6.19648,6.77102 6.1857,6.78608 6.17623,6.8021 6.1681,6.81909 6.16136,6.83709 6.15605,6.85613 2.36978,3.06985 2.37509,3.05082 2.38183,3.03282 2.38996,3.01583 2.39943,2.99981 2.41021,2.98474 2.42226,2.97059 2.43552,2.95732 2.44997,2.94491 2.46556,2.93331 2.48225,2.92252 2.5,2.91249 2.51877,2.90319 2.53852,2.89459 2.5592,2.88667 2.58078,2.87939 2.60322,2.87272 2.62647,2.86663 2.65049,2.86109 2.67525,2.85607 2.70069,2.85154 2.72679,2.84747 2.7535,2.84383 2.78077,2.84059 2.80857,2.83772 2.83687,2.83519 2.8656,2.83296 2.89474,2.83102 2.92424,2.82931 2.95407,2.82783 2.98418,2.82653 3.01453,2.82539 "/>
     <polygon id="_655972384" class="fil1" points="2.96793,2.47176 6.7542,6.25804 6.75808,6.26296 6.76098,6.26824 6.76281,6.27386 6.7635,6.27983 6.76295,6.28612 6.76109,6.29274 2.97483,2.50647 2.97669,2.49985 2.97723,2.49356 2.97654,2.48759 2.97471,2.48196 2.97181,2.47669 "/>
     <polygon id="_655972576" class="fil1" points="3.13262,2.54581 6.91889,6.33208 6.9245,6.33837 6.92976,6.34524 6.93461,6.35269 3.14834,2.56642 3.14349,2.55896 3.13824,2.5521 "/>
     <polygon id="_655972720" class="fil1" points="3.30636,2.57454 7.09263,6.36081 7.09642,6.36478 7.09959,6.36923 7.1021,6.37419 3.31583,2.58791 3.31332,2.58296 3.31015,2.57851 "/>
     <polygon id="_655972744" class="fil1" points="3.42385,2.5407 7.21011,6.32697 7.2172,6.33448 7.22293,6.3455 3.43667,2.55923 3.43093,2.54821 "/>
     <polygon id="_655973392" class="fil1" points="3.69185,2.48514 7.47812,6.27141 7.47722,6.27236 7.47455,6.27511 7.47016,6.27955 7.4641,6.28556 7.45644,6.29302 7.44721,6.30181 7.43648,6.31182 7.42428,6.32293 7.41069,6.33502 7.39575,6.34796 7.3795,6.36165 7.36202,6.37596 7.34334,6.39077 7.32352,6.40597 7.30261,6.42144 7.28066,6.43706 7.25773,6.4527 7.23387,6.46827 7.20913,6.48362 7.18356,6.49865 7.15722,6.51324 7.13015,6.52727 7.10242,6.54062 7.07407,6.55317 7.04516,6.5648 7.01573,6.5754 6.98584,6.58485 6.95555,6.59302 6.9249,6.59981 6.89395,6.60508 6.86275,6.60873 6.83135,6.61064 3.04508,2.82437 3.07648,2.82246 3.10768,2.81881 3.13863,2.81354 3.16928,2.80675 3.19957,2.79858 3.22946,2.78913 3.25889,2.77853 3.2878,2.7669 3.31615,2.75435 3.34389,2.741 3.37095,2.72697 3.39729,2.71238 3.42286,2.69735 3.4476,2.682 3.47146,2.66643 3.49439,2.65078 3.51634,2.63517 3.53725,2.6197 3.55707,2.6045 3.57575,2.58969 3.59324,2.57537 3.60948,2.56169 3.62443,2.54874 3.63802,2.53666 3.65021,2.52555 3.66094,2.51554 3.67017,2.50674 3.67783,2.49928 3.68389,2.49328 3.68828,2.48883 3.69095,2.48609 "/>
     <polygon id="_655973536" class="fil1" points="2.93391,3.23432 6.72018,7.02059 6.72017,7.0206 6.72013,7.02062 6.72007,7.02066 6.71999,7.02071 6.71988,7.02078 6.71975,7.02087 6.7196,7.02096 6.71943,7.02107 2.93316,3.2348 2.93333,3.23469 2.93348,3.23459 2.93361,3.23451 2.93372,3.23444 2.9338,3.23439 2.93386,3.23435 2.9339,3.23433 "/>
     <polygon id="_655973008" class="fil1" points="2.21535,2.9581 6.00162,6.74437 5.99582,6.73941 5.9895,6.73489 5.98265,6.73086 5.97523,6.72737 5.96723,6.72445 5.95862,6.72217 5.94939,6.72057 2.16312,2.9343 2.17235,2.9359 2.18096,2.93818 2.18896,2.94109 2.19638,2.94459 2.20324,2.94862 2.20955,2.95314 "/>
     <polygon id="_655973608" class="fil1" points="2.36978,3.06985 6.15605,6.85613 6.14954,6.85404 6.14289,6.85222 6.13613,6.8507 6.12926,6.84952 6.12229,6.8487 6.11524,6.84826 6.10812,6.84823 6.10093,6.84865 6.09369,6.84953 6.08641,6.85092 6.0791,6.85283 6.07177,6.85529 6.06442,6.85833 6.05708,6.86199 6.04975,6.86629 6.04244,6.87125 2.25617,3.08498 2.26348,3.08002 2.27081,3.07572 2.27815,3.07206 2.2855,3.06902 2.29283,3.06656 2.30015,3.06465 2.30743,3.06326 2.31467,3.06237 2.32185,3.06196 2.32898,3.06198 2.33602,3.06243 2.34299,3.06325 2.34986,3.06443 2.35662,3.06595 2.36327,3.06776 "/>
     <polygon id="_655973032" class="fil1" points="2.93316,3.2348 6.71943,7.02107 6.71935,7.02102 6.71927,7.02096 6.71919,7.02089 6.7191,7.02083 6.71902,7.02076 6.71893,7.02069 6.71884,7.02062 6.71874,7.02055 2.93248,3.23428 2.93257,3.23435 2.93266,3.23442 2.93275,3.23449 2.93283,3.23456 2.93292,3.23462 2.933,3.23469 2.93308,3.23474 "/>
     <polygon id="_655973320" class="fil1" points="1.70131,2.96181 5.48757,6.74808 5.47694,6.76549 5.46659,6.78339 5.45657,6.80178 5.44692,6.82061 5.43767,6.83987 5.42885,6.85954 5.42053,6.87959 5.41272,6.89999 5.40548,6.92072 5.39884,6.94177 5.39283,6.96309 5.38751,6.98469 5.3829,7.00651 5.37905,7.02854 5.376,7.05077 5.37378,7.07315 5.37244,7.09569 5.37202,7.11833 5.37254,7.14106 5.37406,7.16387 5.37661,7.18672 5.38024,7.20958 5.38497,7.23245 5.39085,7.25528 5.39793,7.27807 5.40623,7.30078 5.4158,7.32339 5.42668,7.34587 5.43891,7.3682 5.45252,7.39037 5.46755,7.41233 5.48405,7.43408 1.69778,3.64781 1.68128,3.62606 1.66625,3.60409 1.65264,3.58193 1.64041,3.5596 1.62954,3.53711 1.61996,3.5145 1.61166,3.4918 1.60459,3.46901 1.5987,3.44618 1.59397,3.42331 1.59035,3.40044 1.58779,3.37759 1.58627,3.35479 1.58575,3.33206 1.58617,3.30941 1.58752,3.28688 1.58973,3.2645 1.59278,3.24227 1.59663,3.22024 1.60124,3.19841 1.60657,3.17682 1.61257,3.1555 1.61921,3.13445 1.62646,3.11372 1.63426,3.09331 1.64259,3.07327 1.6514,3.0536 1.66065,3.03434 1.67031,3.0155 1.68033,2.99712 1.69067,2.97922 "/>
     <polygon id="_655973512" class="fil1" points="1.69778,3.64781 5.48405,7.43408 5.48688,7.43761 5.48975,7.44112 5.49266,7.44463 5.4956,7.44813 5.49858,7.45161 5.5016,7.45509 5.50465,7.45857 5.50774,7.46203 5.51087,7.46548 5.51403,7.46893 5.51723,7.47236 5.52046,7.47579 5.52374,7.47921 5.52704,7.48262 5.53038,7.48602 5.53376,7.48941 1.74749,3.70313 1.74411,3.69974 1.74078,3.69635 1.73747,3.69294 1.7342,3.68952 1.73096,3.68609 1.72776,3.68266 1.7246,3.67921 1.72147,3.67576 1.71839,3.6723 1.71533,3.66882 1.71231,3.66534 1.70933,3.66185 1.70639,3.65835 1.70348,3.65485 1.70061,3.65133 "/>
     <polygon id="_655972912" class="fil1" points="2.20914,3.97747 5.99541,7.76374 5.98577,7.76798 5.97613,7.77174 5.9665,7.77504 5.9569,7.77791 5.94736,7.78035 5.9379,7.78241 5.92853,7.78409 5.91928,7.78543 5.91016,7.78644 5.9012,7.78715 5.89242,7.78759 5.88383,7.78777 5.87547,7.78772 5.86735,7.78745 5.85948,7.78701 5.8519,7.7864 5.84461,7.78565 5.83765,7.78478 5.83103,7.78381 5.82478,7.78278 5.8189,7.78169 5.81343,7.78058 5.80838,7.77947 5.80378,7.77838 5.79964,7.77733 5.79598,7.77634 5.79283,7.77544 5.79021,7.77466 5.78814,7.77401 5.78663,7.77352 5.78571,7.77321 5.7854,7.7731 1.99913,3.98683 1.99944,3.98694 2.00037,3.98725 2.00187,3.98774 2.00394,3.98839 2.00657,3.98917 2.00972,3.99007 2.01337,3.99106 2.01751,3.99211 2.02211,3.9932 2.02716,3.99431 2.03263,3.99542 2.03851,3.9965 2.04476,3.99754 2.05139,3.9985 2.05835,3.99937 2.06563,4.00013 2.07322,4.00074 2.08108,4.00118 2.0892,4.00144 2.09757,4.0015 2.10615,4.00131 2.11493,4.00088 2.12389,4.00017 2.13301,3.99915 2.14226,3.99781 2.15163,3.99613 2.16109,3.99408 2.17063,3.99163 2.18023,3.98877 2.18986,3.98547 2.1995,3.98171 "/>
     <polygon id="_655972960" class="fil1" points="2.13735,4.06817 5.92362,7.85444 5.92987,7.86022 5.93569,7.86609 5.94105,7.87205 5.94587,7.87808 5.95012,7.88418 5.95374,7.89033 5.95667,7.89652 5.95887,7.90274 2.1726,4.11647 2.17041,4.11025 2.16747,4.10406 2.16385,4.09791 2.15961,4.09181 2.15478,4.08578 2.14943,4.07982 2.1436,4.07394 "/>
     <polygon id="_655973176" class="fil1" points="2.1726,4.11647 5.95887,7.90274 5.95842,7.9027 5.95711,7.90259 5.95498,7.90241 5.9521,7.90217 5.94852,7.90187 5.94429,7.90151 5.93946,7.90111 5.9341,7.90066 5.92826,7.90018 5.92198,7.89966 5.91533,7.89911 5.90837,7.89853 5.90113,7.89794 5.89368,7.89733 5.88607,7.89672 5.87837,7.89609 5.87061,7.89547 5.86286,7.89485 5.85517,7.89424 5.84759,7.89365 5.84019,7.89308 5.833,7.89253 5.82609,7.89201 5.81952,7.89152 5.81333,7.89107 5.80758,7.89067 5.80233,7.89032 5.79763,7.89002 5.79353,7.88977 5.79009,7.88959 5.78736,7.88948 5.7854,7.88944 1.99913,4.10317 2.00109,4.10321 2.00382,4.10332 2.00726,4.1035 2.01136,4.10374 2.01606,4.10405 2.02131,4.1044 2.02706,4.1048 2.03325,4.10525 2.03982,4.10574 2.04673,4.10626 2.05392,4.10681 2.06132,4.10738 2.0689,4.10797 2.07659,4.10858 2.08434,4.1092 2.0921,4.10982 2.09981,4.11044 2.10741,4.11106 2.11486,4.11167 2.1221,4.11226 2.12907,4.11283 2.13572,4.11339 2.14199,4.11391 2.14783,4.11439 2.1532,4.11484 2.15802,4.11524 2.16225,4.11559 2.16583,4.1159 2.16871,4.11614 2.17084,4.11632 2.17215,4.11643 "/>
     <polygon id="_655973896" class="fil1" points="1.99913,4.10317 5.7854,7.88944 5.78564,7.88971 5.78633,7.8905 5.78745,7.8918 5.78895,7.89356 5.79081,7.89578 5.793,7.89843 5.79549,7.90148 5.79823,7.90493 5.8012,7.90872 5.80437,7.91286 5.8077,7.91731 5.81117,7.92205 5.81474,7.92706 5.81837,7.93231 5.82204,7.93779 5.82571,7.94346 5.82935,7.94931 5.83293,7.95531 5.83642,7.96144 5.83978,7.96768 5.84298,7.974 5.84599,7.98038 5.84878,7.98679 5.85131,7.99322 5.85356,7.99964 5.85549,8.00602 5.85706,8.01235 5.85825,8.01861 5.85903,8.02475 5.85935,8.03078 5.8592,8.03665 5.85853,8.04235 2.07226,4.25608 2.07293,4.25038 2.07308,4.2445 2.07276,4.23848 2.07198,4.23233 2.0708,4.22608 2.06922,4.21975 2.06729,4.21337 2.06505,4.20695 2.06251,4.20052 2.05972,4.19411 2.05671,4.18773 2.05351,4.18141 2.05015,4.17517 2.04666,4.16904 2.04308,4.16304 2.03944,4.15719 2.03577,4.15152 2.0321,4.14604 2.02847,4.14079 2.02491,4.13578 2.02144,4.13104 2.01811,4.12659 2.01494,4.12245 2.01196,4.11865 2.00922,4.11521 2.00674,4.11216 2.00455,4.10951 2.00269,4.10729 2.00118,4.10552 2.00006,4.10423 1.99937,4.10344 "/>
     <polygon id="_655973800" class="fil1" points="2.07226,4.25608 5.85853,8.04235 5.85815,8.04218 5.85706,8.04168 5.85529,8.04087 5.85287,8.03977 5.84986,8.0384 5.84628,8.03679 5.84218,8.03494 5.8376,8.0329 5.83257,8.03067 5.82714,8.02827 5.82135,8.02573 5.81523,8.02307 5.80883,8.02031 5.80218,8.01746 5.79533,8.01456 5.78831,8.01161 5.78116,8.00864 5.77393,8.00567 5.76665,8.00273 5.75936,7.99983 5.7521,7.99699 5.74492,7.99424 5.73784,7.99159 5.73092,7.98907 5.72419,7.98669 5.71768,7.98448 5.71144,7.98245 5.70552,7.98064 5.69994,7.97905 5.69475,7.97771 5.68998,7.97665 5.68569,7.97587 1.89942,4.1896 1.90372,4.19037 1.90848,4.19144 1.91367,4.19278 1.91925,4.19437 1.92518,4.19618 1.93141,4.1982 1.93792,4.20042 1.94465,4.2028 1.95157,4.20532 1.95865,4.20797 1.96583,4.21072 1.97309,4.21356 1.98038,4.21646 1.98766,4.2194 1.99489,4.22237 2.00204,4.22533 2.00906,4.22828 2.01591,4.23119 2.02256,4.23404 2.02896,4.2368 2.03508,4.23946 2.04087,4.242 2.0463,4.2444 2.05133,4.24663 2.05591,4.24867 2.06001,4.25052 2.06359,4.25213 2.06661,4.2535 2.06902,4.25459 2.0708,4.25541 2.07189,4.25591 "/>
     <polygon id="_655974376" class="fil1" points="1.75649,4.16424 5.54276,7.95051 5.54206,7.95 5.54004,7.9485 5.53679,7.94606 5.5324,7.94271 5.52698,7.93852 5.5206,7.93352 5.51339,7.92777 5.50541,7.9213 5.49678,7.91416 5.48759,7.90641 5.47794,7.89807 1.69167,4.1118 1.70133,4.12013 1.71052,4.12789 1.71915,4.13503 1.72712,4.1415 1.73433,4.14725 1.74071,4.15225 1.74613,4.15644 1.75052,4.15978 1.75377,4.16222 1.75579,4.16372 "/>
     <polygon id="_655974256" class="fil1" points="1.89942,4.1896 5.68569,7.97587 5.68576,7.97612 5.68594,7.97685 5.68624,7.97805 5.68664,7.97969 5.68713,7.98176 5.68768,7.98422 5.6883,7.98706 5.68896,7.99025 5.68966,7.99379 5.69037,7.99763 5.6911,8.00178 5.69182,8.00619 5.69253,8.01085 5.6932,8.01575 5.69383,8.02085 5.69441,8.02614 5.69492,8.03159 5.69535,8.03719 5.69568,8.04291 5.69591,8.04873 5.69602,8.05463 5.69599,8.0606 5.69583,8.0666 5.6955,8.07261 5.695,8.07863 5.69432,8.08461 5.69345,8.09055 5.69237,8.09642 5.69106,8.1022 5.68952,8.10787 5.68774,8.1134 5.68569,8.11878 1.89942,4.33251 1.90147,4.32713 1.90325,4.32159 1.90479,4.31593 1.9061,4.31015 1.90718,4.30428 1.90806,4.29834 1.90874,4.29235 1.90923,4.28634 1.90956,4.28033 1.90972,4.27433 1.90975,4.26836 1.90964,4.26246 1.90941,4.25664 1.90908,4.25092 1.90865,4.24532 1.90814,4.23987 1.90757,4.23457 1.90693,4.22948 1.90626,4.22458 1.90556,4.21992 1.90483,4.2155 1.90411,4.21136 1.90339,4.20752 1.90269,4.20398 1.90203,4.20078 1.90141,4.19794 1.90086,4.19548 1.90037,4.19342 1.89998,4.19178 1.89968,4.19058 1.89949,4.18985 "/>
     <polygon id="_655973872" class="fil1" points="3.50609,4.09387 7.29235,7.88014 7.28918,7.87687 7.28624,7.87355 7.28356,7.87017 7.28114,7.86674 3.49487,4.08046 3.49729,4.0839 3.49998,4.08728 3.50291,4.0906 "/>
     <polygon id="_655974016" class="fil1" points="3.49487,4.08046 7.28114,7.86674 7.27863,7.86189 7.27728,7.85683 7.27709,7.85159 7.278,7.84623 7.28,7.84077 7.28306,7.83526 7.28713,7.82973 7.29219,7.82424 7.29821,7.81881 7.30516,7.8135 7.31301,7.80833 7.32172,7.80336 7.33127,7.79862 7.34162,7.79415 7.35274,7.78999 7.36461,7.78619 7.37719,7.78277 7.39045,7.7798 7.40436,7.77729 7.41888,7.7753 7.434,7.77387 7.44967,7.77304 7.46586,7.77283 7.48255,7.77331 7.4997,7.7745 7.51729,7.77646 7.53528,7.77921 7.55363,7.7828 7.57233,7.78727 7.59133,7.79266 7.61061,7.79901 7.63014,7.80636 3.84387,4.02009 3.82435,4.01274 3.80506,4.00639 3.78606,4.001 3.76736,3.99653 3.74901,3.99294 3.73102,3.99019 3.71344,3.98823 3.69628,3.98704 3.67959,3.98656 3.6634,3.98676 3.64773,3.9876 3.63261,3.98903 3.61809,3.99102 3.60418,3.99352 3.59093,3.9965 3.57835,3.99991 3.56648,4.00372 3.55535,4.00787 3.545,4.01235 3.53545,4.01709 3.52674,4.02206 3.51889,4.02722 3.51194,4.03254 3.50592,4.03796 3.50086,4.04346 3.49679,4.04898 3.49374,4.0545 3.49174,4.05996 3.49082,4.06532 3.49102,4.07056 3.49236,4.07562 "/>
     <polygon id="_655973944" class="fil1" points="2.6388,4.09534 6.42507,7.88161 6.4274,7.88174 6.43419,7.88212 6.44517,7.88274 6.46006,7.88356 6.47859,7.88458 6.50048,7.88577 6.52546,7.88711 6.55324,7.88859 6.58355,7.89019 6.61612,7.89188 6.65066,7.89365 6.68691,7.89548 6.72457,7.89734 6.76339,7.89922 6.80308,7.90111 6.84337,7.90297 6.88397,7.9048 6.92462,7.90657 6.96503,7.90826 7.00493,7.90985 7.04405,7.91133 7.0821,7.91267 7.11881,7.91386 7.15391,7.91488 7.18711,7.9157 7.21814,7.91631 7.24672,7.91669 7.27259,7.91682 7.29545,7.91668 7.31504,7.91625 7.33108,7.91551 7.34329,7.91444 3.55702,4.12817 3.54481,4.12924 3.52877,4.12998 3.50919,4.13041 3.48632,4.13055 3.46046,4.13042 3.43187,4.13004 3.40084,4.12943 3.36764,4.12861 3.33254,4.12759 3.29583,4.1264 3.25778,4.12506 3.21867,4.12358 3.17876,4.12198 3.13835,4.1203 3.0977,4.11853 3.0571,4.1167 3.01681,4.11484 2.97713,4.11295 2.93831,4.11107 2.90064,4.1092 2.86439,4.10738 2.82985,4.10561 2.79728,4.10392 2.76697,4.10232 2.73919,4.10084 2.71422,4.0995 2.69232,4.09831 2.6738,4.09729 2.6589,4.09646 2.64792,4.09585 2.64113,4.09547 "/>
     <polygon id="_655973704" class="fil1" points="3.43285,4.30594 7.21912,8.09221 7.21876,8.09228 7.21772,8.09251 7.21603,8.09287 7.21373,8.09337 7.21086,8.09398 7.20747,8.0947 7.20359,8.09554 7.19926,8.09647 7.19452,8.09748 7.18942,8.09858 7.18399,8.09974 7.17827,8.10097 7.1723,8.10226 7.16613,8.10358 7.15979,8.10494 7.15332,8.10633 7.14676,8.10774 7.14016,8.10917 7.13355,8.11059 7.12697,8.11201 7.12046,8.11341 7.11406,8.11479 7.10782,8.11614 7.10177,8.11745 7.09595,8.11871 7.0904,8.11991 7.08517,8.12105 7.08029,8.12211 7.0758,8.12309 7.07174,8.12398 7.06815,8.12477 7.06507,8.12545 3.27881,4.33918 3.28188,4.3385 3.28547,4.33771 3.28953,4.33682 3.29402,4.33584 3.2989,4.33478 3.30413,4.33364 3.30968,4.33244 3.3155,4.33118 3.32155,4.32987 3.3278,4.32852 3.33419,4.32714 3.3407,4.32574 3.34728,4.32432 3.35389,4.32289 3.3605,4.32147 3.36705,4.32006 3.37352,4.31867 3.37986,4.31731 3.38604,4.31598 3.392,4.3147 3.39772,4.31347 3.40315,4.31231 3.40826,4.31121 3.41299,4.3102 3.41732,4.30927 3.4212,4.30843 3.42459,4.30771 3.42746,4.30709 3.42976,4.3066 3.43145,4.30624 3.4325,4.30601 "/>
     <polygon id="_655974304" class="fil1" points="3.16583,4.23452 6.9521,8.02079 6.95809,8.02652 6.96354,8.03237 3.17727,4.2461 3.17182,4.24024 "/>
     <polygon id="_655973728" class="fil1" points="2.9743,4.1363 6.76057,7.92257 6.75878,7.92376 6.75719,7.92479 6.75583,7.92567 6.7547,7.92641 6.75381,7.92698 6.75317,7.9274 6.75278,7.92765 6.75265,7.92773 2.96638,4.14146 2.96651,4.14137 2.9669,4.14113 2.96755,4.14071 2.96844,4.14013 2.96957,4.1394 2.97093,4.13852 2.97251,4.13748 "/>
     <polygon id="_655974088" class="fil1" points="2.99037,4.41937 6.77664,8.20564 6.77258,8.20188 2.98631,4.41561 "/>
     <polygon id="_655974880" class="fil1" points="3.19961,4.44554 6.98588,8.23181 6.98594,8.23213 6.98609,8.23306 6.98633,8.23457 6.98663,8.23663 6.98699,8.2392 6.98739,8.24226 6.9878,8.24578 6.98823,8.24973 6.98865,8.25407 6.98906,8.25878 6.98942,8.26381 6.98973,8.26915 6.98998,8.27475 6.99014,8.2806 6.99021,8.28665 6.99017,8.29289 6.99,8.29926 6.98969,8.30576 6.98921,8.31233 6.98857,8.31896 6.98775,8.32561 6.98672,8.33225 6.98547,8.33885 6.984,8.34539 6.98227,8.35181 6.98029,8.35811 6.97803,8.36424 6.97547,8.37018 6.97261,8.37589 6.96943,8.38133 6.96591,8.3865 6.96204,8.39134 3.17578,4.60507 3.17965,4.60023 3.18317,4.59506 3.18635,4.58961 3.1892,4.58391 3.19176,4.57797 3.19402,4.57184 3.196,4.56554 3.19773,4.55911 3.1992,4.55258 3.20045,4.54598 3.20148,4.53934 3.20231,4.53269 3.20294,4.52606 3.20342,4.51948 3.20373,4.51299 3.2039,4.50661 3.20394,4.50038 3.20387,4.49433 3.20371,4.48848 3.20346,4.48287 3.20315,4.47754 3.20279,4.4725 3.20239,4.4678 3.20196,4.46346 3.20154,4.45951 3.20112,4.45599 3.20072,4.45293 3.20036,4.45035 3.20006,4.4483 3.19982,4.44679 3.19967,4.44586 "/>
     <polygon id="_655974904" class="fil1" points="2.98631,4.41561 6.77258,8.20188 6.7387,8.19235 6.7062,8.18264 6.67506,8.17277 6.64525,8.16274 6.61676,8.15257 6.58956,8.14225 6.56364,8.1318 6.53897,8.12122 6.51554,8.11053 6.49332,8.09972 6.4723,8.08881 6.45244,8.0778 6.43374,8.0667 6.41618,8.05552 6.39972,8.04426 6.38436,8.03293 6.37007,8.02155 6.35682,8.01011 2.57056,4.22384 2.5838,4.23528 2.59809,4.24666 2.61345,4.25799 2.62991,4.26924 2.64748,4.28043 2.66617,4.29152 2.68603,4.30254 2.70705,4.31344 2.72927,4.32426 2.7527,4.33495 2.77737,4.34553 2.80329,4.35598 2.83049,4.3663 2.85898,4.37647 2.88879,4.3865 2.91993,4.39637 2.95244,4.40607 "/>
     <polygon id="_655974520" class="fil1" points="3.89066,4.01713 7.67693,7.80341 7.68176,7.80052 7.68659,7.79759 7.69143,7.79461 7.69625,7.79159 7.70107,7.78853 7.70589,7.78541 7.7107,7.78225 7.71551,7.77904 7.72031,7.77578 7.72511,7.77248 7.7299,7.76912 7.73469,7.76572 7.73946,7.76226 7.74423,7.75876 7.749,7.75521 7.75375,7.75161 7.75849,7.74796 7.76322,7.74425 7.76795,7.7405 7.77267,7.73669 7.77737,7.73283 7.78206,7.72892 7.78674,7.72496 7.79142,7.72094 7.79607,7.71687 7.80072,7.71274 7.80535,7.70857 7.80997,7.70433 7.81458,7.70005 7.81917,7.6957 7.82374,7.69131 7.82831,7.68685 4.04204,3.90058 4.03748,3.90504 4.0329,3.90943 4.02831,3.91378 4.0237,3.91806 4.01909,3.9223 4.01445,3.92647 4.00981,3.9306 4.00515,3.93467 4.00048,3.93869 3.9958,3.94265 3.9911,3.94656 3.9864,3.95042 3.98168,3.95422 3.97696,3.95798 3.97222,3.96169 3.96748,3.96534 3.96273,3.96894 3.95796,3.97249 3.9532,3.97599 3.94842,3.97944 3.94363,3.98285 3.93885,3.9862 3.93405,3.98951 3.92924,3.99277 3.92444,3.99598 3.91962,3.99914 3.9148,4.00226 3.90998,4.00532 3.90516,4.00834 3.90033,4.01132 3.89549,4.01425 "/>
     <polygon id="_655974424" class="fil1" points="3.84387,4.02009 7.63014,7.80636 7.63036,7.80633 7.63101,7.80624 7.63208,7.8061 7.63354,7.80592 7.63539,7.8057 7.63761,7.80546 7.64019,7.8052 7.64311,7.80493 7.64635,7.80467 7.64991,7.8044 7.65376,7.80415 7.65789,7.80393 7.66229,7.80373 7.66693,7.80357 7.67182,7.80346 7.67693,7.80341 3.89066,4.01713 3.88555,4.01719 3.88067,4.0173 3.87602,4.01746 3.87162,4.01765 3.86749,4.01788 3.86364,4.01813 3.86009,4.01839 3.85684,4.01866 3.85393,4.01893 3.85135,4.01919 3.84913,4.01943 3.84728,4.01965 3.84581,4.01983 3.84474,4.01996 3.84409,4.02006 "/>
     <polygon id="_655974760" class="fil1" points="3.35859,4.49207 7.14485,8.27834 7.1445,8.2782 7.14348,8.27778 7.14181,8.27711 7.13955,8.2762 7.13672,8.27508 7.13337,8.27376 7.12953,8.27226 7.12524,8.2706 7.12054,8.2688 7.11546,8.26688 7.11005,8.26485 7.10435,8.26274 7.09838,8.26057 7.09219,8.25834 7.08581,8.25609 7.07929,8.25383 7.07267,8.25158 7.06596,8.24936 7.05923,8.24718 7.0525,8.24507 7.04581,8.24305 7.03921,8.24113 7.03272,8.23933 7.02639,8.23768 7.02025,8.23619 7.01434,8.23487 7.0087,8.23376 7.00337,8.23286 6.99839,8.2322 6.99379,8.23179 6.98961,8.23165 6.98588,8.23181 3.19961,4.44554 3.20334,4.44538 3.20752,4.44552 3.21212,4.44593 3.21711,4.44659 3.22244,4.44748 3.22807,4.4486 3.23398,4.44991 3.24012,4.45141 3.24645,4.45306 3.25294,4.45486 3.25955,4.45678 3.26623,4.4588 3.27296,4.46091 3.2797,4.46309 3.2864,4.46531 3.29302,4.46756 3.29955,4.46982 3.30592,4.47207 3.31211,4.4743 3.31808,4.47647 3.32378,4.47858 3.3292,4.48061 3.33427,4.48253 3.33897,4.48433 3.34326,4.48599 3.3471,4.48749 3.35045,4.48881 3.35328,4.48993 3.35554,4.49084 3.35721,4.49151 3.35824,4.49193 "/>
     <polygon id="_655974472" class="fil1" points="3.27881,4.33918 7.06507,8.12545 7.06535,8.12574 7.06615,8.12658 7.06744,8.12796 7.06919,8.12984 7.07134,8.13219 7.07386,8.135 7.07672,8.13823 7.07988,8.14186 7.08329,8.14586 7.08693,8.1502 7.09074,8.15485 7.0947,8.1598 7.09876,8.16501 7.10289,8.17046 7.10705,8.17611 7.1112,8.18195 7.1153,8.18794 7.11931,8.19407 7.1232,8.20029 7.12692,8.20659 7.13044,8.21294 7.13372,8.21931 7.13672,8.22568 7.1394,8.23202 7.14173,8.23829 7.14367,8.24448 7.14517,8.25056 7.1462,8.2565 7.14672,8.26228 7.1467,8.26786 7.14609,8.27322 7.14485,8.27834 3.35859,4.49207 3.35982,4.48695 3.36043,4.48159 3.36046,4.47601 3.35993,4.47023 3.3589,4.46429 3.3574,4.45821 3.35546,4.45202 3.35313,4.44574 3.35045,4.43941 3.34745,4.43304 3.34417,4.42667 3.34065,4.42032 3.33693,4.41402 3.33304,4.4078 3.32903,4.40167 3.32493,4.39568 3.32078,4.38984 3.31663,4.38419 3.3125,4.37874 3.30843,4.37353 3.30448,4.36858 3.30066,4.36393 3.29702,4.35959 3.29361,4.35559 3.29045,4.35196 3.28759,4.34873 3.28507,4.34592 3.28292,4.34357 3.28118,4.34169 3.27989,4.34031 3.27908,4.33946 "/>
     <polygon id="_655974592" class="fil1" points="3.41457,4.27092 7.20084,8.05719 7.20693,8.06462 7.21206,8.07291 7.21615,8.08209 7.21912,8.09221 3.43285,4.30594 3.42988,4.29582 3.4258,4.28664 3.42066,4.27835 "/>
     <polygon id="_655974712" class="fil1" points="3.95023,4.11949 7.7365,7.90576 7.73732,7.90631 7.73963,7.90793 7.7432,7.91059 7.74782,7.91428 7.75326,7.91896 7.75929,7.92461 3.97302,4.13834 3.96699,4.13269 3.96156,4.128 3.95694,4.12432 3.95336,4.12165 3.95105,4.12004 "/>
     <polygon id="_655974784" class="fil1" points="3.90594,4.01733 7.69221,7.80361 7.69773,7.80382 7.70338,7.80411 7.70916,7.8045 7.71504,7.80498 7.72103,7.80557 7.72709,7.80627 7.73324,7.80709 7.73943,7.80803 7.74568,7.8091 7.75196,7.81031 7.75826,7.81167 7.76457,7.81319 7.77088,7.81486 7.77717,7.8167 7.78342,7.81871 7.78964,7.8209 7.7958,7.82328 7.80189,7.82585 7.80789,7.82863 7.81381,7.83161 7.81961,7.83481 7.8253,7.83823 7.83086,7.84187 7.83627,7.84576 7.84152,7.84988 7.8466,7.85426 7.8515,7.85889 4.06523,4.07262 4.06033,4.06798 4.05525,4.06361 4.05,4.05948 4.04459,4.0556 4.03904,4.05196 4.03335,4.04854 4.02754,4.04534 4.02163,4.04235 4.01562,4.03958 4.00953,4.03701 4.00337,4.03463 3.99715,4.03244 3.9909,4.03043 3.98461,4.02859 3.9783,4.02691 3.972,4.0254 3.96569,4.02404 3.95941,4.02283 3.95317,4.02176 3.94697,4.02081 3.94083,4.02 3.93476,4.0193 3.92878,4.01871 3.92289,4.01823 3.91711,4.01784 3.91146,4.01755 "/>
     <polygon id="_655974976" class="fil1" points="5.20666,3.21572 8.99293,7.00199 8.88656,7.04519 5.10029,3.25892 "/>
     <polygon id="_655975072" class="fil1" points="5.15767,3.14835 8.94394,6.93462 8.94916,6.94072 8.95432,6.94707 8.95938,6.95356 8.96428,6.96006 8.96897,6.96648 8.9734,6.97269 8.97751,6.9786 5.19124,3.19233 5.18713,3.18642 5.1827,3.1802 5.17802,3.17379 5.17311,3.16728 5.16806,3.1608 5.16289,3.15445 "/>
     <polygon id="_655975576" class="fil1" points="5.19124,3.19233 8.97751,6.9786 8.98082,6.98346 8.98381,6.98793 8.98645,6.99191 8.98869,6.99533 8.99048,6.99813 8.99181,7.00022 8.99264,7.00154 8.99293,7.00199 5.20666,3.21572 5.20637,3.21526 5.20555,3.21395 5.20422,3.21186 5.20242,3.20906 5.20018,3.20563 5.19755,3.20165 5.19456,3.19719 "/>
     <polygon id="_655975912" class="fil1" points="4.99198,3.23064 8.77824,7.01691 8.78274,7.02226 8.787,7.02802 8.79104,7.03406 8.79483,7.04029 8.79837,7.04657 8.80163,7.05281 8.80461,7.0589 8.80729,7.06471 5.02102,3.27844 5.01834,3.27263 5.01536,3.26654 5.0121,3.2603 5.00857,3.25402 5.00478,3.24779 5.00074,3.24175 4.99647,3.23599 "/>
     <polygon id="_655975504" class="fil1" points="5.02102,3.27844 8.80729,7.06471 8.80943,7.0696 8.81132,7.0741 8.81294,7.07813 8.8143,7.08161 8.81536,7.08446 8.81613,7.0866 8.8166,7.08794 8.81676,7.0884 5.03049,3.30213 5.03033,3.30167 5.02986,3.30033 5.02909,3.29819 5.02803,3.29534 5.02668,3.29186 5.02506,3.28783 5.02317,3.28333 "/>
     <polygon id="_655975336" class="fil1" points="4.52012,3.03441 8.30639,6.82068 8.30938,6.82783 8.31237,6.83542 8.31531,6.84335 8.31811,6.85155 8.32071,6.85993 8.32303,6.86839 8.32499,6.87686 8.32653,6.88524 8.32757,6.89345 8.32805,6.90141 8.32788,6.90901 8.327,6.91619 8.32532,6.92284 8.32279,6.92889 8.31933,6.93426 8.31486,6.93883 4.52859,3.15256 4.53306,3.14798 4.53652,3.14262 4.53906,3.13657 4.54073,3.12991 4.54161,3.12274 4.54178,3.11513 4.54131,3.10718 4.54026,3.09897 4.53872,3.09059 4.53676,3.08212 4.53444,3.07366 4.53185,3.06528 4.52904,3.05708 4.52611,3.04915 4.52311,3.04156 "/>
     <polygon id="_655975312" class="fil1" points="4.50532,3.00331 8.29159,6.78959 8.2919,6.79017 8.2928,6.79187 8.2942,6.7946 8.29605,6.79827 8.29826,6.8028 8.30077,6.8081 8.3035,6.81409 8.30639,6.82068 4.52012,3.03441 4.51724,3.02781 4.5145,3.02183 4.51199,3.01652 4.50978,3.012 4.50793,3.00833 4.50653,3.0056 4.50563,3.0039 "/>
     <polygon id="_655975264" class="fil1" points="4.66818,2.993 8.45445,6.77928 8.45113,6.7827 8.44744,6.78611 8.44341,6.78951 8.43905,6.79288 8.43442,6.79622 8.42953,6.79953 8.42443,6.80279 8.41913,6.806 8.41368,6.80915 8.40811,6.81224 8.40244,6.81527 8.39671,6.81822 8.39095,6.82108 8.3852,6.82386 8.37948,6.82654 8.37382,6.82913 8.36826,6.8316 8.36283,6.83396 8.35757,6.83621 8.35249,6.83833 8.34764,6.84031 8.34304,6.84215 8.33873,6.84385 8.33474,6.8454 8.33111,6.84679 8.32785,6.84802 8.32501,6.84907 8.32261,6.84994 8.32069,6.85064 8.31928,6.85114 8.31841,6.85145 8.31811,6.85155 4.53185,3.06528 4.53214,3.06518 4.53301,3.06487 4.53442,3.06437 4.53634,3.06367 4.53874,3.0628 4.54158,3.06174 4.54484,3.06052 4.54848,3.05913 4.55246,3.05758 4.55678,3.05588 4.56137,3.05404 4.56622,3.05206 4.5713,3.04994 4.57657,3.04769 4.582,3.04533 4.58756,3.04285 4.59321,3.04027 4.59893,3.03759 4.60469,3.03481 4.61044,3.03194 4.61617,3.029 4.62184,3.02597 4.62741,3.02288 4.63286,3.01972 4.63816,3.01652 4.64326,3.01326 4.64815,3.00995 4.65278,3.00661 4.65714,3.00324 4.66117,2.99984 4.66487,2.99643 "/>
     <polygon id="_655975768" class="fil1" points="4.84598,3.37231 8.63224,7.15859 8.63421,7.16335 8.63594,7.16772 8.63744,7.17162 8.63868,7.17497 8.63966,7.1777 8.64037,7.17975 8.64081,7.18103 8.64096,7.18147 4.85469,3.3952 4.85454,3.39476 4.85411,3.39348 4.85339,3.39143 4.85241,3.3887 4.85117,3.38535 4.84968,3.38145 4.84794,3.37708 "/>
     <polygon id="_655975360" class="fil1" points="4.52859,3.15256 8.31486,6.93883 8.30955,6.94261 8.30406,6.94535 8.29841,6.94711 8.29266,6.948 8.28684,6.94807 8.28099,6.94743 8.27515,6.94615 8.26936,6.94431 8.26365,6.942 8.25808,6.9393 8.25267,6.93628 8.24747,6.93304 8.24252,6.92965 8.23785,6.92619 8.2335,6.92274 8.22952,6.9194 4.44325,3.13313 4.44723,3.13647 4.45158,3.13991 4.45625,3.14337 4.4612,3.14677 4.46641,3.15001 4.47181,3.15303 4.47739,3.15573 4.48309,3.15804 4.48888,3.15988 4.49472,3.16116 4.50057,3.1618 4.50639,3.16172 4.51215,3.16084 4.51779,3.15907 4.52328,3.15634 "/>
     <polygon id="_655975408" class="fil1" points="4.44325,3.13313 8.22952,6.9194 8.22835,6.91906 8.22652,6.91945 8.22408,6.92052 8.22108,6.92222 8.21756,6.9245 8.21356,6.92733 8.20913,6.93065 8.20432,6.93441 8.19918,6.93856 8.19374,6.94307 8.18806,6.94789 8.18217,6.95295 8.17613,6.95823 8.16997,6.96368 8.16376,6.96924 8.15752,6.97486 8.15131,6.98052 8.14517,6.98614 8.13915,6.9917 8.13328,6.99713 8.12763,7.0024 8.12223,7.00746 8.11713,7.01226 8.11237,7.01675 8.108,7.02089 8.10407,7.02463 8.10062,7.02793 8.09769,7.03073 8.09534,7.03299 8.0936,7.03466 8.09252,7.0357 8.09215,7.03606 4.30589,3.24978 4.30626,3.24943 4.30733,3.24839 4.30907,3.24672 4.31143,3.24446 4.31435,3.24166 4.3178,3.23836 4.32174,3.23462 4.32611,3.23048 4.33086,3.22599 4.33596,3.22119 4.34136,3.21613 4.34702,3.21086 4.35288,3.20543 4.3589,3.19987 4.36504,3.19424 4.37125,3.18859 4.37749,3.18296 4.3837,3.17741 4.38986,3.17196 4.3959,3.16668 4.40179,3.16161 4.40747,3.1568 4.41291,3.15229 4.41806,3.14813 4.42287,3.14437 4.42729,3.14106 4.43129,3.13823 4.43481,3.13595 4.43781,3.13425 4.44025,3.13318 4.44208,3.13279 "/>
     <polygon id="_655975456" class="fil1" points="4.65121,3.46674 8.43748,7.25301 8.43907,7.25826 8.44047,7.26304 8.44167,7.26728 8.44267,7.2709 8.44345,7.27384 8.44402,7.27603 8.44437,7.27739 8.44448,7.27786 4.65821,3.49159 4.6581,3.49112 4.65775,3.48976 4.65719,3.48757 4.6564,3.48463 4.65541,3.481 4.6542,3.47677 4.6528,3.47199 "/>
     <polygon id="_655976104" class="fil1" points="4.35865,3.23931 8.14492,7.02558 8.14637,7.03207 8.14781,7.03907 8.14919,7.04648 8.15046,7.0542 8.15157,7.06216 8.15247,7.07025 8.1531,7.07839 8.15342,7.08647 8.15338,7.09441 8.15292,7.10212 8.152,7.1095 8.15057,7.11646 8.14857,7.12291 8.14596,7.12876 8.14268,7.1339 8.13868,7.13826 4.35241,3.35199 4.35641,3.34763 4.35969,3.34248 4.3623,3.33664 4.3643,3.33019 4.36574,3.32323 4.36665,3.31585 4.36711,3.30814 4.36715,3.3002 4.36683,3.29211 4.3662,3.28398 4.3653,3.27589 4.3642,3.26793 4.36293,3.2602 4.36154,3.2528 4.3601,3.2458 "/>
     <polygon id="_655976392" class="fil1" points="4.38815,3.46117 8.17442,7.24744 8.17839,7.25223 8.18224,7.25768 8.18597,7.26365 8.18955,7.27004 8.19296,7.2767 8.19619,7.28354 8.19923,7.29041 8.20206,7.29719 8.20465,7.30378 8.207,7.31003 8.20908,7.31584 4.42281,3.52957 4.42073,3.52376 4.41838,3.5175 4.41579,3.51092 4.41296,3.50413 4.40993,3.49726 4.40669,3.49043 4.40328,3.48376 4.3997,3.47738 4.39598,3.47141 4.39212,3.46596 "/>
     <polygon id="_655976464" class="fil1" points="4.42281,3.52957 8.20908,7.31584 8.21045,7.31978 8.21165,7.32335 8.21269,7.32651 8.21356,7.32921 8.21424,7.33139 8.21474,7.33302 8.21504,7.33403 8.21514,7.33437 4.42887,3.5481 4.42877,3.54776 4.42847,3.54674 4.42797,3.54512 4.42729,3.54294 4.42642,3.54024 4.42539,3.53708 4.42418,3.5335 "/>
     <polygon id="_655976488" class="fil1" points="4.17258,3.40618 7.95885,7.19245 7.95913,7.19947 7.95928,7.2068 7.9593,7.21435 7.95913,7.22203 7.95876,7.22975 7.95815,7.23742 7.95728,7.24494 7.95611,7.25223 7.95461,7.25919 7.95276,7.26574 7.95053,7.27178 7.94789,7.27721 7.9448,7.28196 7.94124,7.28593 7.93719,7.28902 7.93259,7.29116 4.14633,3.50489 4.15092,3.50275 4.15498,3.49966 4.15854,3.49569 4.16162,3.49094 4.16426,3.4855 4.1665,3.47946 4.16834,3.47292 4.16984,3.46596 4.17101,3.45867 4.17188,3.45115 4.17249,3.44348 4.17286,3.43576 4.17303,3.42808 4.17302,3.42053 4.17286,3.4132 "/>
     <polygon id="_655976656" class="fil1" points="4.16961,3.37193 7.95587,7.1582 7.95596,7.15887 7.95621,7.1608 7.95657,7.16387 7.95701,7.16797 7.9575,7.173 7.95799,7.17883 7.95845,7.18535 7.95885,7.19245 4.17258,3.40618 4.17218,3.39907 4.17172,3.39256 4.17123,3.38672 4.17074,3.3817 4.1703,3.3776 4.16994,3.37453 4.1697,3.3726 "/>
     <polygon id="_655976152" class="fil1" points="4.14633,3.50489 7.93259,7.29116 7.92839,7.29215 7.92415,7.29236 7.91989,7.29185 7.91563,7.29069 7.91136,7.28891 7.90712,7.28657 7.90291,7.28373 7.89875,7.28045 7.89465,7.27677 7.89061,7.27276 4.10435,3.48648 4.10838,3.4905 4.11248,3.49418 4.11664,3.49746 4.12085,3.5003 4.12509,3.50263 4.12936,3.50441 4.13363,3.50558 4.13789,3.50609 4.14212,3.50587 "/>
     <polygon id="_655976200" class="fil1" points="4.42887,3.5481 8.21514,7.33437 8.09955,7.34767 4.31328,3.56139 "/>
     <polygon id="_655976224" class="fil1" points="4.35241,3.35199 8.13868,7.13826 8.13503,7.14099 8.13119,7.1428 8.1272,7.14375 8.12308,7.14391 8.11885,7.14334 8.11454,7.1421 8.11015,7.14025 8.10574,7.13785 8.10131,7.13498 8.09688,7.13167 8.09249,7.12801 8.08816,7.12405 8.0839,7.11984 8.07975,7.11546 4.29348,3.32919 4.29763,3.33357 4.30189,3.33778 4.30622,3.34174 4.31061,3.3454 4.31504,3.3487 4.31947,3.35158 4.32389,3.35398 4.32827,3.35583 4.33258,3.35707 4.33681,3.35764 4.34094,3.35748 4.34493,3.35652 4.34876,3.35472 "/>
     <polygon id="_655975984" class="fil1" points="4.35241,3.21572 8.13868,7.00199 8.13881,7.00243 8.1392,7.00369 8.13979,7.00573 8.14057,7.00849 8.14151,7.01192 8.14256,7.01594 8.14371,7.02052 8.14492,7.02558 4.35865,3.23931 4.35744,3.23424 4.3563,3.22967 4.35524,3.22565 4.3543,3.22222 4.35352,3.21946 4.35293,3.21742 4.35255,3.21615 "/>
     <polygon id="_655976272" class="fil1" points="4.65821,3.49159 8.44448,7.27786 8.31152,7.31774 4.52526,3.53147 "/>
     <polygon id="_655976320" class="fil1" points="5.03049,3.30213 8.81676,7.0884 8.70706,7.14393 4.9208,3.35766 "/>
     <polygon id="_655976944" class="fil1" points="4.85469,3.3952 8.64096,7.18147 8.5385,7.22528 4.75223,3.43901 "/>
     <polygon id="_655976992" class="fil1" points="4.6106,3.38205 8.39687,7.16832 8.40172,7.17401 8.40637,7.18057 8.41081,7.18783 8.41504,7.19565 8.41904,7.20387 8.42279,7.21234 8.42629,7.2209 8.42952,7.2294 8.43247,7.23769 8.43513,7.24561 8.43748,7.25301 4.65121,3.46674 4.64886,3.45934 4.6462,3.45142 4.64325,3.44313 4.64002,3.43463 4.63652,3.42607 4.63277,3.4176 4.62877,3.40938 4.62455,3.40156 4.6201,3.3943 4.61545,3.38774 "/>
     <polygon id="_655977064" class="fil1" points="4.81498,3.31821 8.60124,7.10448 8.60552,7.10976 8.60963,7.11547 8.61354,7.1215 8.61724,7.12775 8.62073,7.13411 8.62399,7.14048 8.627,7.14675 8.62976,7.15282 8.63224,7.15859 4.84598,3.37231 4.84349,3.36655 4.84073,3.36048 4.83772,3.35421 4.83446,3.34784 4.83097,3.34148 4.82727,3.33522 4.82336,3.3292 4.81926,3.32349 "/>
     <polygon id="_655977208" class="fil1" points="5.07724,2.47658 8.8635,6.26285 8.86513,6.26646 8.86641,6.2711 8.86737,6.2767 8.86803,6.28317 8.86839,6.29046 8.86847,6.2985 8.8683,6.3072 8.86788,6.31651 8.86724,6.32635 8.86639,6.33665 8.86533,6.34733 8.86411,6.35835 8.86272,6.3696 8.86118,6.38104 8.85951,6.39258 8.85773,6.40416 8.85585,6.41571 8.85389,6.42715 8.85187,6.43842 8.84979,6.44944 8.84768,6.46015 8.84556,6.47046 8.84343,6.48033 8.84131,6.48966 8.83923,6.49839 8.8372,6.50646 8.83523,6.51379 8.83334,6.5203 8.83154,6.52594 8.82986,6.53062 8.82831,6.53428 8.8269,6.53685 5.04063,2.75058 5.04204,2.74801 5.04359,2.74435 5.04528,2.73967 5.04707,2.73403 5.04896,2.72752 5.05093,2.72019 5.05296,2.71212 5.05505,2.70339 5.05716,2.69406 5.05929,2.68419 5.06141,2.67387 5.06352,2.66317 5.0656,2.65215 5.06763,2.64088 5.06959,2.62944 5.07146,2.61789 5.07324,2.60631 5.07491,2.59477 5.07645,2.58333 5.07784,2.57207 5.07907,2.56106 5.08012,2.55037 5.08097,2.54007 5.08161,2.53024 5.08203,2.52093 5.0822,2.51222 5.08212,2.50419 5.08176,2.4969 5.08111,2.49043 5.08015,2.48483 5.07886,2.48019 "/>
     <polygon id="_655977040" class="fil1" points="4.90695,2.83912 8.69322,6.62539 8.69119,6.62631 8.68958,6.62627 8.68836,6.62531 4.90209,2.83904 4.90331,2.84 4.90493,2.84004 "/>
     <polygon id="_655977112" class="fil1" points="5.27866,3.35088 9.06493,7.13715 9.06209,7.14102 9.05885,7.14498 9.05523,7.14903 9.05122,7.15317 9.04683,7.15739 9.04207,7.1617 9.03695,7.16609 9.03147,7.17056 9.02564,7.17511 9.01947,7.17972 9.01297,7.18442 9.00613,7.18919 8.99898,7.19402 8.9915,7.19893 8.98372,7.20389 8.97565,7.20893 8.96727,7.21402 8.95861,7.21917 8.94967,7.22438 8.94046,7.22964 8.93098,7.23496 8.92124,7.24033 8.91124,7.24575 8.901,7.25121 8.89053,7.25672 8.87982,7.26227 8.86889,7.26787 8.85774,7.2735 8.84638,7.27917 8.83481,7.28487 8.82306,7.29061 8.8111,7.29638 5.02483,3.51011 5.03679,3.50434 5.04855,3.4986 5.06011,3.4929 5.07147,3.48723 5.08262,3.48159 5.09356,3.476 5.10426,3.47045 5.11474,3.46494 5.12498,3.45948 5.13497,3.45406 5.14471,3.44869 5.15419,3.44337 5.1634,3.43811 5.17234,3.4329 5.181,3.42774 5.18938,3.42265 5.19746,3.41762 5.20524,3.41265 5.21271,3.40775 5.21987,3.40291 5.2267,3.39815 5.2332,3.39345 5.23937,3.38883 5.2452,3.38429 5.25068,3.37982 5.2558,3.37543 5.26056,3.37112 5.26495,3.3669 5.26896,3.36276 5.27259,3.35871 5.27582,3.35475 "/>
    </g>
    <path id="_637664992" class="fil1" d="M5.07724 2.47658c0.0192008,0.0328071 -0.0223898,0.252677 -0.0366063,0.274 -0.0199449,0.0299055 -0.0253031,-0.189594 -0.0253031,-0.189594l0.0483937 -0.106433c0,0 0.00576772,0.00879134 0.0135157,0.0220276zm-0.165701 0.19685c-0.0123661,-0.0110748 -0.0206614,-0.020252 -0.0206614,-0.020252l0.0764606 -0.0539764c0,0 0.00274016,0.00348819 0.00679921,0.00924803 0.0159409,0.0226063 -0.0380236,0.212114 -0.0671811,0.230665 -0.0239528,0.0152362 0.0280906,-0.144626 0.00458268,-0.165685zm-1.97906 0.560846c0.000476378,7.87402e-006 0.000956693,2.3622e-005 0.00143307,3.93701e-005 0,0 -0.000255906,0.000165354 -0.000751969,0.000484252 -0.000200787,-0.000153543 -0.000429134,-0.000330709 -0.000681102,-0.000523622zm1.81977 -0.418114l0.0921024 -0.104638c0,0 0.00185039,0.00864567 0.00398819,0.0217283 0.00543701,0.0333031 -0.155988,0.226969 -0.172697,0.248441 -0.0903819,0.117846 0.0766063,-0.165531 0.0766063,-0.165531zm-2.54481 -0.17437c0,0 0.0189764,-0.0210394 0.058248,-0.0210394 0,0 0.0758071,-0.109693 0.145618,-0.0465354 0,0 0.122976,-0.122307 0.216039,-0.0195984 0,0 0.0664843,-0.15326 0.167862,-0.0601811 -0.00457087,-0.078748 0.206752,-0.0602717 0.17963,0.0120276 0,0 0.124043,-0.0228622 0.173512,0.0599528 0,0 0.144425,-0.0340984 0.167492,0.0214921 0,0 0.0942638,-0.0975157 0.120835,-0.0286811 0,0 0.0724606,-0.0475354 0.0991457,-0.0129094 0,0 0.0827874,-0.0907953 0.156043,-0.0611811 0,0 -0.31098,0.328642 -0.646772,0.339224 -0.326795,0.0103031 -0.626409,0.0367992 -0.675299,0.245488 -0.0344016,-0.0118268 -0.0747087,-0.0131614 -0.11361,0.015122 0,0 0.00886614,-0.137378 -0.0930551,-0.150681 0,0 0.0842047,-0.106358 0,-0.159539 0,0 0.0753465,-0.0930748 0.044311,-0.132961zm-0.459937 1.06134c-0.339543,-0.325953 -0.0655354,-0.714827 -0.046185,-0.741323 -0.114803,0.182906 -0.187469,0.455287 -0.00352362,0.686 0.015,0.018815 0.0316063,0.0372677 0.0497087,0.0553228zm0.461646 0.274335c-0.102681,0.047937 -0.210004,0.00935827 -0.210004,0.00935827 0,0 0.154161,0.0631654 0.173469,0.129642 0,0 -0.15685,-0.0132953 -0.173469,-0.0132953 0,0 0.0831102,0.0930827 0.073126,0.152906 0,0 -0.129638,-0.0598228 -0.172839,-0.0664803 0,0 0.0232559,0.0864055 0,0.142913 0,0 -0.126311,-0.150425 -0.142933,-0.168276 0,0 -0.24265,-0.176768 -0.206067,-0.278453 0.0290945,-0.0809449 0.205642,-0.105886 0.281472,-0.109339 0.0147402,0.0112717 0.0300787,0.0223465 0.0459882,0.0332205 0.0151417,0.0103465 0.0307953,0.0205039 0.046937,0.0304685 0.0831299,0.0513189 0.179161,0.0974685 0.284319,0.137335zm0.765165 0.158835c-0.00507087,0.00333858 -0.0079252,0.00515748 -0.0079252,0.00515748 0,0 0.15589,0.0414882 0.21089,0.104642 0,0 0.230157,-0.053189 0.255587,0.0598346 0,0 -0.124122,0.0265906 -0.154047,0.0332402 0,0 0.0964055,0.0997087 0.0797795,0.152894 0,0 -0.121839,-0.0498583 -0.158972,-0.0465276 0,0 0.0193701,0.109677 -0.0238386,0.159528 0,0 -0.149563,-0.152886 -0.189461,-0.189461 -0.368791,-0.100787 -0.499059,-0.231953 -0.502248,-0.35337 0.100118,0.0245394 0.204602,0.0438622 0.311118,0.057252 0.0592087,0.00748819 0.119051,0.013122 0.179118,0.016811zm1.06774 -0.23572c-0.0425866,0.0474685 -0.0886299,0.0858268 -0.136094,0.116752 0.0580669,0.00183071 0.141539,0.0167795 0.180571,0.0825236 0,0 -0.106366,0.0126811 -0.136283,0.0196339 0,0 0.0731299,0.0468346 0.0664803,0.123291 0,0 -0.122988,-0.0773228 -0.172839,-0.078563 0,0 0.0664724,0.095189 0.0199449,0.145039 0,0 -0.162886,-0.133827 -0.212736,-0.145039 0,0 -0.0404843,-0.0109764 -0.0812717,-0.0298543 -0.105819,0.0123307 -0.534496,-0.2985 -0.56737,-0.303126 0.00891339,-0.000728346 -0.37252,0.264929 -0.363638,0.264098 0,0 0.80939,0.0460236 0.918217,0.0328346 -0.0257874,-0.0130827 -0.0499843,-0.029252 -0.0621457,-0.0477087 -0.0332362,-0.0504094 0.139492,-0.144272 0.349,-0.060378 0,0 0.0189882,-0.00281496 0.0467835,-0.00295276 0.0515906,-0.0305236 0.102807,-0.068752 0.151382,-0.116551zm1.23662 -0.549701c-0.028122,0.0407717 -0.125358,0.0975433 -0.253827,0.159224 0.121579,-0.0593031 0.216469,-0.115268 0.253827,-0.159224zm-0.179102 -0.114331c-0.00065748,-0.0361102 0.000440945,-0.104205 0.0176102,-0.11389 0.0163189,-0.00924016 0.0530984,0.0391811 0.0740709,0.0696693 0.00924409,0.0134331 0.0154173,0.0233858 0.0154173,0.0233858l-0.106366 0.0432008c0,0 -0.000488189,-0.00898819 -0.000732283,-0.0223661zm-0.180953 0.0972283c-0.00225984,-0.0365669 -0.00169685,-0.103724 0.0309567,-0.118055 0.0313189,-0.0137717 0.0579606,0.0326417 0.0714567,0.0627126 0.00605906,0.0134921 0.0094685,0.0236929 0.0094685,0.0236929l-0.109693 0.0555315c0,0 -0.00131102,-0.00961417 -0.00218898,-0.0238819zm-0.167409 0.0866732c-0.00127953,-0.035622 -0.000314961,-0.110748 0.0299882,-0.118311 0.0276496,-0.00690945 0.0522756,0.0404449 0.0647913,0.0701732 0.00554331,0.0131732 0.0087126,0.0228858 0.0087126,0.0228858l-0.102457 0.043811c0,0 -0.000629921,-0.00731102 -0.00103543,-0.0185591zm-0.223173 0.0910551c0.00626772,-0.0404961 0.023563,-0.129354 0.055878,-0.139575 0.0303465,-0.00961024 0.0556024,0.0570079 0.0673071,0.0948071 0.00450787,0.014563 0.00700394,0.0248504 0.00700394,0.0248504l-0.132957 0.039878c0,0 0.000885827,-0.00779921 0.00276772,-0.0199606zm-0.208571 0.025815c0.00875984,-0.0309094 0.0261614,-0.0811732 0.0477441,-0.0860709 0.0229094,-0.00519291 0.0452283,0.0487677 0.0556181,0.078315 0.00384646,0.0109409 0.00605906,0.0185354 0.00605906,0.0185354l-0.115594 0.0132913c0,0 0.00219685,-0.0100433 0.00617323,-0.0240709zm-0.146874 -0.131146c0.00174409,0.0364488 -0.00030315,0.090063 -0.026252,0.0987087 -0.0222992,0.00742913 -0.0466811,-0.0204803 -0.0638386,-0.0465276 -0.0135236,-0.0205276 -0.022563,-0.0398976 -0.022563,-0.0398976l0.109681 -0.0465276c0,0 0.00203543,0.0146378 0.00297244,0.0342441zm0.186071 -0.16687c0.00768504,0.0331181 0.0170709,0.0916969 -0.00623622,0.112685 -0.0189646,0.0170787 -0.0466063,-0.00755512 -0.0668346,-0.0318386 -0.0152008,-0.018252 -0.0262165,-0.0363031 -0.0262165,-0.0363031l0.0930512 -0.0681339c0,0 0.00296457,0.00948425 0.00623622,0.0235906zm0.161472 -0.204902c0.0157756,0.0368228 0.0351102,0.0959606 0.00847244,0.118157 -0.027752,0.0231024 -0.0651457,-0.00200394 -0.0853425,-0.019437 -0.00884646,-0.00763386 -0.137366,0.116657 -0.137366,0.116657l0.199433 -0.246469c0,0 0.00696063,0.0127874 0.0148031,0.0310906zm0.148059 -0.176339c0,0 0.00255118,0.00754724 0.0055315,0.0192402 0.00777953,0.0305197 0.0184961,0.0892638 -0.0055315,0.115697 -0.0332244,0.0365709 -0.136335,0.0722756 -0.136335,0.0722756 7.48031e-005,-9.44882e-005 0.0522165,-0.108331 0.0522953,-0.108421l7.87402e-005 -9.05512e-005 0.0839606 -0.0987008z"/>
   </g>
  </g>
  <path class="fil2" d="M3.41333 -3.93701e-006c1.88513,0 3.41333,1.5282 3.41333,3.41333 0,1.88513 -1.5282,3.41333 -3.41333,3.41333 -1.88513,0 -3.41333,-1.5282 -3.41333,-3.41333 0,-1.88513 1.5282,-3.41333 3.41333,-3.41333z"/>
  <path class="fil3" d="M5.06372 2.45456c0,0 0.0698031,0.106354 0.0498504,0.136283 -0.0199449,0.0299055 -0.0982441,-0.0298504 -0.0982441,-0.0298504l0.0483937 -0.106433z"/>
  <path class="fil3" d="M4.96733 2.5992c0,0 0.0664764,0.0846929 0.0298937,0.107965 -0.0365512,0.0232559 -0.106354,-0.0539882 -0.106354,-0.0539882l0.0764606 -0.0539764z"/>
  <path class="fil3" d="M4.84435 2.71153c0,0 0.0232756,0.108654 0,0.138563 -0.0232756,0.0299055 -0.0921024,-0.0339252 -0.0921024,-0.0339252l0.0921024 -0.104638z"/>
  <path class="fil3" d="M4.66818 2.85807c0,0 0.0332362,0.098378 0,0.134941 -0.0332205,0.0365669 -0.0842638,-0.035878 -0.0842638,-0.035878l0.0842638 -0.099063z"/>
  <path class="fil3" d="M4.50532 3.00331c0,0 0.0631535,0.116016 0.0232756,0.149248 -0.0399055,0.0332205 -0.0997362,-0.0332323 -0.0997362,-0.0332323l0.0764606 -0.116016z"/>
  <path class="fil3" d="M4.35241 3.21572c0,0 0.0332323,0.10635 0,0.136276 -0.0332205,0.0299134 -0.0930512,-0.0681417 -0.0930512,-0.0681417l0.0930512 -0.0681339z"/>
  <path class="fil3" d="M4.16961 3.37193c0,0 0.0166299,0.119657 -0.0232795,0.132953 -0.039874,0.0132874 -0.0864016,-0.0864252 -0.0864016,-0.0864252l0.109681 -0.0465276z"/>
  <path class="fil3" d="M5.20665 3.21572c0,0 -0.0659764,-0.106366 -0.0894843,-0.0930591 -0.0235315,0.0132756 -0.016878,0.13626 -0.016878,0.13626l0.106362 -0.0432008z"/>
  <path class="fil3" d="M5.03049 3.30213c0,0 -0.0355551,-0.106354 -0.0809252,-0.0864094 -0.0453937,0.0199291 -0.0287677,0.141941 -0.0287677,0.141941l0.109693 -0.0555315z"/>
  <path class="fil3" d="M4.85469 3.3952c0,0 -0.0336024,-0.103031 -0.0735,-0.0930591 -0.039878,0.00995276 -0.0289567,0.13687 -0.0289567,0.13687l0.102457 -0.043811z"/>
  <path class="fil3" d="M4.65821 3.49159c0,0 -0.0322717,-0.132969 -0.074311,-0.119657 -0.0420197,0.0132913 -0.0586457,0.159535 -0.0586457,0.159535l0.132957 -0.039878z"/>
  <path class="fil3" d="M4.42887 3.5481c0,0 -0.0302795,-0.103965 -0.0616732,-0.0968465 -0.0313819,0.00711811 -0.0539173,0.110142 -0.0539173,0.110142l0.115591 -0.0132953z"/>
  <path class="fil4" d="M3.84387 4.02009c0,0 0.179488,-0.0266024 0.242642,0.0797717 0,0 -0.106366,0.0126811 -0.136283,0.0196339 0,0 0.0731299,0.0468307 0.0664803,0.123291 0,0 -0.122988,-0.0773228 -0.172839,-0.078563 0,0 0.0664724,0.095189 0.0199449,0.145039 0,0 -0.162886,-0.133827 -0.212736,-0.145039 0,0 -0.122988,-0.0333425 -0.156209,-0.0837559 -0.0332362,-0.0504094 0.139492,-0.144272 0.349,-0.060378z"/>
  <path class="fil5" d="M5.07702 2.36481c0,0 0.0531811,-0.119673 -0.0465276,-0.139618 -0.0997362,-0.0199252 -0.139614,0.0465591 -0.119661,0.106386 0,0 -0.0864252,-0.0864409 -0.159535,-0.00665748 -0.0731339,0.0797598 0,0.14624 0,0.14624 0,0 -0.378929,0.425457 -0.664776,0.531819 0,0 0.0199528,-0.186134 -0.132969,-0.159535 -0.152882,0.0265669 -0.119661,0.159535 -0.119661,0.159535 0,0 -0.0863976,-0.119657 -0.199406,-0.0864134 -0.11302,0.0332362 -0.11302,0.21937 -0.11302,0.21937 0,0 -0.0598228,-0.0465276 -0.126303,-0.0199528 -0.0664882,0.0266102 -0.0930906,0.101949 -0.0930906,0.101949 0,0 -0.084185,-0.0310197 -0.155094,0.0620394 -0.0620591,-0.0531811 -0.155114,-0.0842008 -0.212736,-0.0443268 0,0 -0.132937,-0.106354 -0.230441,-0.0576181 0,0 -0.146264,-0.119657 -0.243756,-0.0487362 0,0 -0.106354,-0.115217 -0.203866,-0.0443189 0,0 0.00886614,-0.137378 -0.0930551,-0.150681 0,0 0.0842047,-0.106358 0,-0.159535 0,0 0.0753465,-0.0930787 0.0443071,-0.132961 0,0 -0.195008,0.0265748 -0.354543,0.146236 -0.159531,0.119657 -0.416579,0.531819 -0.155098,0.85978 0.261457,0.327953 1.01044,0.545114 1.67522,0.483055 0,0 0.381138,0.0531772 0.669189,-0.230437 0,0 1.0858,-0.37228 1.23648,-0.549563 0,0 0.0132953,-0.15698 -0.0443268,-0.169343 -0.057622,-0.0123543 -0.522953,0.297882 -0.740122,0.337768 -0.217154,0.039878 -0.55839,0.00885827 -0.55839,0.00885827 0,0 0.239323,-0.0975 0.354539,-0.212717 0.115209,-0.115244 0.279197,-0.367839 0.35898,-0.42102 0.0797756,-0.0531772 0.372276,-0.288083 0.45648,-0.46978l-0.0288189 -0.0598228z"/>
  <path class="fil6" d="M5.27866 3.35089c0,0 -0.993114,0.419618 -1.23885,0.459799 -0.245732,0.0401811 -0.49885,-0.0843622 -0.49885,-0.0843622 0,0 0.143106,0.135469 0.349193,0.145382 0,0 -0.332602,0.157217 -0.457291,0.15835 -0.148752,0.00619685 -0.227315,-0.0895787 -0.227315,-0.0895787 0,0 0.0280197,0.0953465 0.0632953,0.130453 0,0 -0.288366,0.0582008 -0.814339,-0.0994449 -0.525984,-0.157654 -0.994413,-0.402472 -0.752142,-1.01111 0,0 -0.307819,0.406776 0.0472717,0.744807 0.355098,0.338051 1.08426,0.469941 1.58192,0.425693 0,0 0.430311,0.0822047 0.71063,-0.230465 0,0 1.12842,-0.392878 1.23647,-0.549528z"/>
  <path class="fil4" d="M2.06228 3.43901c0,0 0.375614,0.232075 0.262571,0.428157 -0.113008,0.196118 -0.325717,0.119657 -0.325717,0.119657 0,0 0.154157,0.0631654 0.173465,0.129642 0,0 -0.15685,-0.0132953 -0.173465,-0.0132953 0,0 0.0831102,0.0930827 0.073122,0.152906 0,0 -0.129638,-0.0598228 -0.172839,-0.0664803 0,0 0.0232559,0.0864055 0,0.142913 0,0 -0.126311,-0.150429 -0.142933,-0.168276 0,0 -0.24265,-0.176768 -0.206067,-0.278453 0.0365512,-0.101685 0.305799,-0.114996 0.315752,-0.108343 0.00997638,0.00665748 -0.139591,-0.146264 -0.0598268,-0.312453 0.0797795,-0.166181 0.255937,-0.0259764 0.255937,-0.0259764z"/>
  <path class="fil7" d="M1.86617 3.77744c0,0 0.0500945,0.0431969 0.131413,0.0565079 0,0 -0.114776,0.039878 -0.131413,-0.0565079z"/>
  <path class="fil7" d="M1.98742 3.97687c0,0 -0.107941,0 -0.154469,-0.0332205 0,0 0.0866811,0.0987677 0.154469,0.0332205z"/>
  <path class="fil4" d="M3.06276 3.74089c0.0568386,0.0327165 0.162874,0.169508 0.0997165,0.242642 -0.0631535,0.0731299 -0.196102,0.157933 -0.196102,0.157933 0,0 0.155894,0.0414882 0.210894,0.104638 0,0 0.230157,-0.053185 0.255587,0.0598386 0,0 -0.124122,0.0265906 -0.154047,0.0332402 0,0 0.0964055,0.0997087 0.0797835,0.152894 0,0 -0.121843,-0.0498583 -0.15898,-0.0465276 0,0 0.019374,0.109681 -0.0238346,0.159531 0,0 -0.149563,-0.15289 -0.189461,-0.189465 -1.04721,-0.286197 -0.171146,-0.817311 0.0764449,-0.674724z"/>
  <path class="fil7" d="M2.96637 4.14146c0,0 -0.12298,0.0309016 -0.171189,-0.0219685 0,0 0.0645827,0.0980472 0.171189,0.0219685z"/>
  <path class="fil5" d="M3.09678 3.72426c0.0413622,0.0319291 0.127563,0.143886 0.0357835,0.262299 -0.0917835,0.118402 -0.251783,0.0900827 -0.337358,0.066748 -0.138563,-0.0377087 -0.193484,-0.176161 -0.0759646,-0.275866 0.117496,-0.0997087 0.24339,-0.156776 0.377539,-0.0531811z"/>
  <path class="fil5" d="M2.04657 3.42789c0,0 0.274598,0.194925 0.26839,0.329602 -0.00620866,0.134709 -0.143173,0.109693 -0.327539,0.0365866 -0.184382,-0.0731299 -0.238906,-0.204984 -0.218209,-0.271457 0.0206772,-0.0664803 0.042437,-0.299012 0.277358,-0.0947323z"/>
  <path class="fil8" d="M2.20743 2.6418c0,0 0.0189764,-0.0210433 0.058248,-0.0210433 0,0 0.0758071,-0.109693 0.145618,-0.0465315 0,0 0.122976,-0.122311 0.216039,-0.0196063 0,0 0.0664803,-0.153256 0.167862,-0.0601772 -0.0045748,-0.078748 0.206752,-0.0602717 0.17963,0.0120276 0,0 0.124043,-0.0228622 0.173512,0.0599488 0,0 0.144421,-0.0340945 0.167492,0.0214961 0,0 0.0942638,-0.0975118 0.120835,-0.0286811 0,0 0.0724567,-0.0475354 0.0991457,-0.0129094 0,0 0.0827874,-0.0907992 0.156047,-0.0611811 0,0 -0.310984,0.328646 -0.646776,0.339224 -0.335783,0.0105866 -0.64287,0.0382677 -0.67876,0.263126 -0.539705,0.0698189 -0.217134,-0.424661 -0.158894,-0.445693z"/>
  <path class="fil5" d="M2.29849 2.75353c0,0 -0.0145551,-0.0905 0.055248,-0.103776 0.0698031,-0.0132953 0.0830315,0.0465276 0.0830315,0.0465276 0,0 -0.0505945,0.0679803 -0.13828,0.057248z"/>
  <path class="fil5" d="M2.48 2.70485c0,0 0.00997244,-0.1365 0.146228,-0.0789173 0,0 -0.0465276,0.096937 -0.146228,0.0789173z"/>
  <path class="fil5" d="M2.63943 2.63835c0,0 0.0253661,-0.132965 0.151677,-0.0697992 0,0 -0.0308031,0.109677 -0.151677,0.0697992z"/>
  <path class="fil5" d="M2.8272 2.6202c0,0 -0.0155079,-0.122197 0.10415,-0.0723386 0,0 -0.0254882,0.0715394 -0.10415,0.0723386z"/>
  <path class="fil5" d="M2.92839 2.59626c0,0 0.0519449,-0.0906969 0.117067,-0.0306811 0,0 -0.0336535,0.0674921 -0.117067,0.0306811z"/>
  <path class="fil9" d="M3.46495 3.35766c0,0 -0.0431969,-0.0621772 -0.0963858,-0.0389213 -0.0531772,0.0232795 -0.0398976,0.089752 -0.0398976,0.089752 0,0 0.0764488,0.0313031 0.136283,-0.0508307z"/>
  <path class="fil9" d="M3.26885 3.43901c0,0 -0.0731299,-0.0667244 -0.129638,-0.0552677 -0.0564961,0.0114606 -0.0864016,0.122362 -0.0864016,0.122362 0,0 0.140516,0.035315 0.216039,-0.0670945z"/>
  <path class="fil9" d="M2.88328 3.512c0,0 -0.00248819,-0.158846 -0.176169,-0.0607756 0,0 0.0332323,0.160937 0.176169,0.0607756z"/>
  <path class="fil9" d="M2.61072 3.43441c0,0 0.0132953,-0.0857362 -0.0398858,-0.0990315 -0.0531732,-0.0133071 -0.116331,0.0495236 -0.116331,0.0495236 0,0 0.0132835,0.066811 0.0631575,0.0801024 0.0498583,0.013311 0.0930591,-0.0305945 0.0930591,-0.0305945z"/>
  <path class="fil9" d="M2.34607 3.33352c0,0 -0.0112244,-0.114492 -0.0511102,-0.117803 -0.0399055,-0.0033189 -0.109681,0.0432087 -0.109681,0.0432087 0,0 0.00583465,0.145862 0.160791,0.0745945z"/>
  <path class="fil9" d="M2.08223 3.1902c0,0 0.0565079,-0.0778661 0.0332362,-0.10761 -0.0232559,-0.0297362 -0.116346,-0.0164646 -0.116346,-0.0164646 0,0 -0.0199252,0.105228 0.0831102,0.124075z"/>
  <path class="fil9" d="M1.99758 3.00331c0,0 0.0748976,-0.133957 0,-0.145248 -0.0748937,-0.011311 -0.0680394,0.145602 0,0.145248z"/>
  <path class="fil9" d="M2.01257 2.82719c0,0 0.0821693,-0.0593858 0.0734331,-0.0990118 -0.00873622,-0.0395906 -0.0992441,0.0119921 -0.0734331,0.0990118z"/>
  <path class="fil4" d="M3.15174 3.28227c0,0 -0.138835,0.101339 -0.158783,0.185232 0,0 0.0424528,-0.189232 0.158783,-0.185232z"/>
  <path class="fil10" d="M4.89089 2.41831c0,0 -0.00749606,-0.105654 -0.0874173,-0.0485 0,0 0.0349961,-0.0234606 0.0874173,0.0485z"/>
  <path class="fil10" d="M4.97416 2.38559c0,0 -0.069689,-0.0982244 0.0411811,-0.0965315 0,0 -0.0712913,0.014 -0.0411811,0.0965315z"/>
  <ellipse class="fil11" transform="matrix(1.60214 -0.739889 0.789297 1.50185 3.73642 3.15228)" rx="0.0581575" ry="0.0911457"/>
  <ellipse class="fil12" transform="matrix(0.613227 -0.283196 0.302107 0.57484 3.79746 3.14356)" rx="0.0581575" ry="0.0911457"/>
  <path class="fil4" d="M3.30245 3.22061c0,0 -0.0973661,0.0814055 -0.101669,0.148799 0,0 0.00766142,-0.152012 0.101669,-0.148799z"/>
  <path class="fil4" d="M3.52028 3.13841c0,0 -0.0833583,0.0814055 -0.0760669,0.148799 0,0 -0.0184961,-0.152012 0.0760669,-0.148799z"/>
  <path class="fil4" d="M2.93391 3.23432c0,0 -0.158957,0.101335 -0.195567,0.185228 0,0 0.0800315,-0.189232 0.195567,-0.185228z"/>
  <path class="fil4" d="M2.70476 3.17832c0,0 -0.177413,0.0637323 -0.23165,0.137469 0,0 0.119846,-0.166886 0.23165,-0.137469z"/>
  <path class="fil4" d="M2.45944 3.12939c0,0 -0.185657,0.0326772 -0.251626,0.0961339 0,0 0.146445,-0.14411 0.251626,-0.0961339z"/>
  <path class="fil5" d="M3.03668 2.60062c0,0 0.0721811,-0.0755945 0.121008,-0.00170866 0,0 -0.0488583,0.0574488 -0.121008,0.00170866z"/>
  <path class="fil5" d="M3.14857 2.60466c0,0 0.0882047,-0.0560748 0.117886,0.0273661 0,0 -0.0612126,0.0440512 -0.117886,-0.0273661z"/>
  <path class="fil5" d="M3.29113 2.61033c0,0 0.0675236,-0.0226811 0.0735236,0.037374 0,0 -0.0477008,0.0191417 -0.0735236,-0.037374z"/>
  <path class="fil5" d="M3.38004 2.61213c0,0 0.0401614,-0.0588307 0.0811811,-0.0145551 0,0 -0.0264921,0.0440472 -0.0811811,0.0145551z"/>
  <path class="fil5" d="M3.48017 2.58797c0,0 0.0300118,-0.0439606 0.0606614,-0.010874 0,0 -0.0197953,0.0329094 -0.0606614,0.010874z"/>
 </g>
</svg>
