<?xml version="1.0" encoding="UTF-8"?>
<!DOCTYPE svg PUBLIC "-//W3C//DTD SVG 1.1//EN" "http://www.w3.org/Graphics/SVG/1.1/DTD/svg11.dtd">
<!-- Creator: CorelDRAW -->
<svg xmlns="http://www.w3.org/2000/svg" xml:space="preserve" width="6.82666in" height="6.82666in" style="shape-rendering:geometricPrecision; text-rendering:geometricPrecision; image-rendering:optimizeQuality; fill-rule:evenodd; clip-rule:evenodd"
viewBox="0 0 6.82666 6.82666"
 xmlns:xlink="http://www.w3.org/1999/xlink">
 <defs>
  <style type="text/css">
   <![CDATA[
    .fil2 {fill:none}
    .fil5 {fill:#4D2909}
    .fil4 {fill:#57300F}
    .fil3 {fill:#673B15}
    .fil6 {fill:#7C4D24}
    .fil9 {fill:#824E21}
    .fil8 {fill:#945823}
    .fil1 {fill:#00000000}
    .fil0 {fill:#00000000}
    .fil7 {fill:#424242;fill-rule:nonzero}
   ]]>
  </style>
   <clipPath id="id0">
    <path d="M3.41333 -3.93701e-006c1.88513,0 3.41333,1.5282 3.41333,3.41333 0,1.88513 -1.5282,3.41333 -3.41333,3.41333 -1.88513,0 -3.41333,-1.5282 -3.41333,-3.41333 0,-1.88513 1.5282,-3.41333 3.41333,-3.41333z"/>
   </clipPath>
 </defs>
 <g id="Layer_x0020_1">
  <metadata id="CorelCorpID_0Corel-Layer"/>
  <path class="fil0" d="M3.41333 -3.93701e-006c1.88513,0 3.41333,1.5282 3.41333,3.41333 0,1.88513 -1.5282,3.41333 -3.41333,3.41333 -1.88513,0 -3.41333,-1.5282 -3.41333,-3.41333 0,-1.88513 1.5282,-3.41333 3.41333,-3.41333z"/>
  <g style="clip-path:url(#id0)">
   <g id="_637656832">
    <g>
     <polygon id="_4628854001" class="fil1" points="2.63836,3.48122 6.42463,7.26749 6.42442,7.2673 6.42418,7.26713 2.63791,3.48085 2.63815,3.48102 "/>
     <polygon id="_462885448" class="fil1" points="2.23698,4.06261 6.02325,7.84888 6.01607,7.85231 6.00864,7.85567 6.001,7.85897 5.99316,7.86219 5.98519,7.86531 5.9771,7.86835 5.96893,7.87127 5.96074,7.87407 5.95254,7.87674 5.94437,7.87928 5.93627,7.88166 5.92828,7.88389 5.92044,7.88594 5.91278,7.88781 5.90533,7.8895 5.89813,7.89099 2.11187,4.10472 2.11906,4.10323 2.12651,4.10154 2.13417,4.09967 2.14202,4.09761 2.15,4.09539 2.1581,4.093 2.16627,4.09047 2.17447,4.0878 2.18267,4.085 2.19083,4.08207 2.19892,4.07904 2.20689,4.07592 2.21473,4.0727 2.22237,4.0694 2.22981,4.06604 "/>
     <polygon id="_544923864" class="fil1" points="2.4389,3.76617 6.22517,7.55244 6.22262,7.56191 6.21996,7.57172 6.2172,7.58184 6.21434,7.59222 6.21138,7.60284 6.20831,7.61366 6.20513,7.62463 6.20185,7.63573 6.19845,7.64692 6.19495,7.65817 6.19134,7.66943 6.18761,7.68067 6.18378,7.69186 6.17983,7.70296 6.17577,7.71394 6.1716,7.72475 6.16731,7.73537 6.1629,7.74576 6.15838,7.75587 6.15374,7.76569 6.14898,7.77516 6.1441,7.78426 6.1391,7.79294 6.13398,7.80119 6.12874,7.80894 6.12337,7.81618 6.11788,7.82287 6.11226,7.82896 6.10652,7.83443 6.10065,7.83924 6.09466,7.84335 6.08854,7.84672 2.30227,4.06045 2.30839,4.05707 2.31439,4.05296 2.32026,4.04816 2.326,4.04269 2.33161,4.03659 2.3371,4.02991 2.34247,4.02267 2.34771,4.01491 2.35283,4.00667 2.35783,3.99799 2.36271,3.98889 2.36747,3.97942 2.37211,3.9696 2.37663,3.95948 2.38104,3.9491 2.38533,3.93848 2.3895,3.92767 2.39357,3.91669 2.39751,3.90559 2.40135,3.8944 2.40507,3.88315 2.40868,3.87189 2.41219,3.86065 2.41558,3.84946 2.41886,3.83836 2.42204,3.82739 2.42511,3.81657 2.42807,3.80595 2.43094,3.79557 2.43369,3.78545 2.43635,3.77564 "/>
     <path id="_544923192" class="fil1" d="M6.81387 6.57617l0 0zm-3.78627 -3.78627l0 0z"/>
     <polygon id="_544923264" class="fil1" points="4.89248,1.58002 8.67875,5.3663 8.68206,5.37224 8.68419,5.37875 8.68502,5.38567 8.68444,5.39282 8.68244,5.39972 8.67921,5.40589 8.67491,5.41122 8.6697,5.4156 8.66376,5.41891 8.65725,5.42104 8.65033,5.42187 8.64318,5.42129 4.85691,1.63502 4.86407,1.6356 4.87098,1.63477 4.8775,1.63264 4.88344,1.62933 4.88864,1.62495 4.89294,1.61962 4.89618,1.61344 4.89817,1.60655 4.89875,1.59939 4.89792,1.59248 4.89579,1.58596 "/>
     <polygon id="_544923360" class="fil1" points="4.85691,1.63502 8.64318,5.42129 8.58951,5.41285 8.53605,5.4072 8.48287,5.4043 8.43004,5.40407 8.37766,5.40648 8.32578,5.41147 8.2745,5.41899 8.22389,5.42898 8.17403,5.44138 8.125,5.45615 8.07686,5.47322 8.02971,5.49256 7.98362,5.51409 7.93867,5.53778 7.89493,5.56356 7.85249,5.59138 7.81142,5.62119 7.77179,5.65293 7.7337,5.68656 7.6972,5.722 7.6624,5.75922 7.62935,5.79816 7.59815,5.83877 7.56885,5.88098 7.54156,5.92475 7.51633,5.97003 7.49326,6.01676 7.47241,6.06488 7.45387,6.11434 7.43772,6.16509 7.42403,6.21708 7.41287,6.27025 7.41261,6.27157 7.41229,6.27288 7.41193,6.27417 7.41152,6.27543 7.41107,6.27666 7.41057,6.27787 7.41004,6.27906 7.40946,6.28022 3.62319,2.49395 3.62377,2.49279 3.62431,2.4916 3.6248,2.49039 3.62525,2.48915 3.62566,2.48789 3.62602,2.48661 3.62634,2.4853 3.62661,2.48398 3.63776,2.43081 3.65145,2.37882 3.66761,2.32807 3.68615,2.27861 3.70699,2.23048 3.73006,2.18376 3.75529,2.13848 3.78259,2.09471 3.81188,2.0525 3.84308,2.01189 3.87613,1.97295 3.91094,1.93573 3.94743,1.90028 3.98552,1.86666 4.02515,1.83492 4.06622,1.80511 4.10867,1.77729 4.1524,1.75151 4.19735,1.72782 4.24344,1.70629 4.29059,1.68695 4.33873,1.66987 4.38776,1.65511 4.43763,1.6427 4.48824,1.63272 4.53952,1.6252 4.59139,1.62021 4.64378,1.6178 4.6966,1.61802 4.74978,1.62093 4.80324,1.62658 "/>
     <polygon id="_544924320" class="fil1" points="3.62319,2.49395 7.40946,6.28022 7.40993,6.28081 7.41039,6.2814 7.41082,6.28198 7.41124,6.28256 7.41163,6.28314 7.41201,6.2837 7.41237,6.28427 7.4127,6.28483 3.62643,2.49856 3.6261,2.498 3.62574,2.49743 3.62537,2.49687 3.62497,2.49629 3.62456,2.49571 3.62412,2.49513 3.62367,2.49454 "/>
     <polygon id="_544924152" class="fil1" points="3.62643,2.49856 7.4127,6.28483 7.41429,6.28823 7.41556,6.29177 7.41648,6.29543 7.41704,6.29919 7.41724,6.30301 7.41706,6.30688 7.41648,6.31077 7.4155,6.31465 3.62923,2.52838 3.63022,2.5245 3.63079,2.52061 3.63097,2.51674 3.63078,2.51292 3.63021,2.50916 3.62929,2.5055 3.62802,2.50196 "/>
     <polygon id="_544924104" class="fil1" points="2.91572,1.93573 6.70199,5.722 6.6655,5.68656 6.62741,5.65293 6.58778,5.62119 6.54671,5.59138 6.50427,5.56356 6.46053,5.53778 6.41558,5.51409 6.36949,5.49256 6.32233,5.47322 6.2742,5.45615 6.22517,5.44138 6.17531,5.42898 6.1247,5.41899 6.07342,5.41147 6.02154,5.40648 5.96916,5.40407 5.91633,5.4043 5.86315,5.4072 5.80969,5.41285 5.75602,5.42129 5.74887,5.42187 5.74195,5.42104 5.73544,5.41891 5.7295,5.4156 5.72429,5.41122 1.93802,1.62495 1.94323,1.62933 1.94917,1.63264 1.95568,1.63477 1.9626,1.6356 1.96976,1.63502 2.02342,1.62658 2.07689,1.62093 2.13007,1.61802 2.18289,1.6178 2.23528,1.62021 2.28715,1.6252 2.33843,1.63272 2.38904,1.6427 2.4389,1.65511 2.48794,1.66987 2.53607,1.68695 2.58322,1.70629 2.62931,1.72782 2.67426,1.75151 2.718,1.77729 2.76044,1.80511 2.80152,1.83492 2.84114,1.86666 2.87923,1.90028 "/>
     <polygon id="_544924440" class="fil1" points="2.99558,1.91704 6.78185,5.70331 6.81717,5.74403 6.85058,5.7865 6.88202,5.83067 6.91138,5.87648 6.93861,5.92388 6.96361,5.9728 6.9863,6.0232 7.00661,6.07502 7.02445,6.12821 7.03974,6.1827 7.05241,6.23844 3.26614,2.45217 3.25347,2.39643 3.23818,2.34194 3.22034,2.28875 3.20003,2.23693 3.17734,2.18653 3.15234,2.13761 3.12511,2.09021 3.09575,2.0444 3.06431,2.00023 3.0309,1.95776 "/>
     <polygon id="_544923888" class="fil1" points="3.51455,2.49864 7.30082,6.28491 7.30087,6.28501 7.30092,6.28511 7.30097,6.2852 7.30103,6.28528 7.3011,6.28537 7.30117,6.28545 3.5149,2.49918 3.51483,2.49909 3.51476,2.49901 3.5147,2.49893 3.51465,2.49883 3.5146,2.49874 "/>
     <polygon id="_544924008" class="fil1" points="3.6388,2.60079 7.42507,6.38706 7.42485,6.39168 7.42474,6.39631 7.42473,6.40097 7.42481,6.40563 7.425,6.41029 7.42527,6.41493 7.42565,6.41956 7.42611,6.42414 7.42667,6.42869 7.42733,6.43319 7.42807,6.43763 7.4289,6.442 7.42982,6.4463 7.43083,6.45051 7.43193,6.45462 7.4331,6.45863 3.64683,2.67235 3.64566,2.66835 3.64456,2.66424 3.64356,2.66003 3.64263,2.65573 3.6418,2.65136 3.64106,2.64692 3.64041,2.64242 3.63985,2.63787 3.63938,2.63328 3.639,2.62866 3.63873,2.62402 3.63854,2.61936 3.63846,2.6147 3.63847,2.61004 3.63859,2.60541 "/>
     <polygon id="_544924560" class="fil1" points="3.69515,2.73785 7.48142,6.52412 7.48319,6.52778 7.48534,6.53119 7.48786,6.53435 3.70159,2.74808 3.69907,2.74492 3.69693,2.74151 "/>
     <polygon id="_544924584" class="fil1" points="3.62923,2.52838 7.4155,6.31465 7.40946,6.33544 3.6232,2.54917 "/>
     <polygon id="_544924032" class="fil1" points="4.43655,2.8117 8.22281,6.59797 8.22277,6.59795 4.4365,2.81168 "/>
     <polygon id="_544924056" class="fil1" points="4.77294,2.75676 8.55921,6.54303 8.56156,6.54598 8.56361,6.54914 8.56535,6.55248 8.56676,6.55598 8.56784,6.55961 8.56857,6.56335 8.56893,6.56718 8.5689,6.57106 8.56849,6.57498 8.56766,6.57891 8.56644,6.58274 8.56488,6.58636 8.56298,6.58976 8.56079,6.59291 8.55832,6.5958 8.55559,6.59843 8.55264,6.60078 8.54948,6.60283 8.54613,6.60457 8.54264,6.60599 8.53901,6.60707 8.53527,6.6078 8.53144,6.60815 8.52756,6.60813 8.52364,6.60772 8.5197,6.60689 4.73344,2.82062 4.73737,2.82144 4.74129,2.82186 4.74517,2.82188 4.749,2.82152 4.75274,2.8208 4.75637,2.81972 4.75987,2.8183 4.76321,2.81656 4.76637,2.81451 4.76932,2.81216 4.77205,2.80953 4.77452,2.80663 4.77672,2.80348 4.77861,2.80009 4.78018,2.79647 4.78139,2.79264 4.78222,2.78871 4.78263,2.78479 4.78266,2.78091 4.7823,2.77708 4.78157,2.77334 4.7805,2.76971 4.77908,2.76621 4.77734,2.76287 4.77529,2.75971 "/>
     <polygon id="_544924176" class="fil1" points="4.65509,2.82681 8.44136,6.61309 8.43787,6.61448 8.43418,6.61587 8.4303,6.61724 8.42625,6.61861 8.42202,6.61996 8.41765,6.6213 8.41313,6.62261 8.40848,6.62391 8.40371,6.62518 8.39883,6.62643 8.39385,6.62765 8.38879,6.62884 8.38365,6.63 8.37844,6.63113 8.37319,6.63222 8.36789,6.63328 8.36257,6.63429 8.35723,6.63526 8.35188,6.6362 8.34654,6.63708 8.3412,6.63792 8.33591,6.6387 8.33065,6.63944 8.32543,6.64012 8.32028,6.64074 8.31521,6.64131 8.31022,6.64182 8.30532,6.64226 8.30053,6.64264 8.29586,6.64295 8.29132,6.64319 8.28693,6.64337 4.50066,2.85709 4.50506,2.85692 4.50959,2.85668 4.51426,2.85637 4.51905,2.85599 4.52395,2.85555 4.52894,2.85504 4.53402,2.85447 4.53917,2.85385 4.54438,2.85317 4.54964,2.85243 4.55494,2.85165 4.56027,2.85081 4.56561,2.84993 4.57096,2.84899 4.5763,2.84802 4.58163,2.847 4.58692,2.84595 4.59218,2.84485 4.59738,2.84373 4.60252,2.84257 4.60758,2.84137 4.61256,2.84015 4.61744,2.83891 4.62221,2.83763 4.62686,2.83634 4.63138,2.83502 4.63576,2.83369 4.63998,2.83234 4.64404,2.83097 4.64791,2.8296 4.6516,2.82821 "/>
     <polygon id="_544925016" class="fil1" points="4.73344,2.82062 8.5197,6.60689 8.51504,6.60578 8.51029,6.60489 8.50546,6.60422 8.50056,6.60375 8.49562,6.60349 8.49063,6.60344 8.48561,6.60358 8.48059,6.60391 8.47556,6.60444 8.47054,6.60516 8.46554,6.60606 8.46059,6.60713 8.45568,6.60838 8.45083,6.6098 8.44606,6.61139 8.44138,6.61314 4.65511,2.82687 4.65979,2.82512 4.66456,2.82353 4.66941,2.82211 4.67432,2.82086 4.67928,2.81978 4.68427,2.81889 4.68929,2.81817 4.69432,2.81764 4.69935,2.81731 4.70436,2.81717 4.70935,2.81722 4.7143,2.81748 4.71919,2.81794 4.72402,2.81862 4.72878,2.81951 "/>
     <polygon id="_544924944" class="fil1" points="4.45127,2.89456 8.23754,6.68083 8.23411,6.68155 8.23015,6.6819 8.22569,6.68191 8.22073,6.68157 8.21533,6.68093 8.20948,6.67996 8.20323,6.67872 8.19659,6.67719 8.1896,6.6754 8.18227,6.67336 8.17463,6.67108 8.1667,6.66859 8.15851,6.66588 8.15008,6.66298 8.14144,6.65991 8.13262,6.65667 4.34635,2.8704 4.35518,2.87364 4.36381,2.87671 4.37224,2.87961 4.38043,2.88231 4.38836,2.88481 4.396,2.88709 4.40333,2.88913 4.41033,2.89092 4.41696,2.89244 4.42322,2.89369 4.42906,2.89465 4.43446,2.8953 4.43942,2.89563 4.44389,2.89563 4.44784,2.89528 "/>
     <polygon id="_544925040" class="fil1" points="4.48377,2.87665 8.27004,6.66292 8.26655,6.66587 8.26285,6.66866 8.25897,6.67126 8.25493,6.67365 8.25074,6.67583 8.24644,6.67777 8.24203,6.67946 8.23755,6.68088 4.45128,2.89461 4.45576,2.89319 4.46017,2.8915 4.46447,2.88956 4.46866,2.88738 4.4727,2.88498 4.47659,2.88239 4.48028,2.8796 "/>
     <polygon id="_544925112" class="fil1" points="4.50066,2.85709 8.28693,6.64337 8.28508,6.64609 8.28316,6.64875 8.28117,6.65133 8.2791,6.65383 8.27696,6.65626 8.27475,6.65859 8.27246,6.66084 8.2701,6.663 4.48383,2.87672 4.4862,2.87457 4.48848,2.87232 4.4907,2.86998 4.49283,2.86756 4.4949,2.86506 4.49689,2.86248 4.49881,2.85982 "/>
     <polygon id="_544925184" class="fil1" points="4.34635,2.8704 8.13262,6.65667 8.12674,6.65447 8.12078,6.65222 8.11474,6.64991 8.10863,6.64756 8.10246,6.64517 8.09624,6.64275 8.08999,6.64029 8.0837,6.6378 8.0774,6.6353 8.07108,6.63277 8.06477,6.63022 8.05846,6.62767 8.05218,6.62512 8.04592,6.62256 8.0397,6.62001 8.03354,6.61746 8.02743,6.61494 8.02138,6.61243 8.01542,6.60993 8.00954,6.60747 8.00376,6.60504 7.99809,6.60265 7.99253,6.60029 7.9871,6.59798 7.98181,6.59572 7.97666,6.59351 7.97167,6.59136 7.96683,6.58928 7.96219,6.58726 7.95772,6.58531 7.95344,6.58344 7.94937,6.58165 4.16311,2.79538 4.16718,2.79717 4.17145,2.79904 4.17592,2.80098 4.18057,2.803 4.1854,2.80509 4.19039,2.80724 4.19554,2.80944 4.20083,2.8117 4.20626,2.81402 4.21182,2.81637 4.21749,2.81877 4.22327,2.8212 4.22915,2.82366 4.23511,2.82615 4.24116,2.82867 4.24727,2.83119 4.25344,2.83374 4.25965,2.83629 4.26591,2.83885 4.2722,2.8414 4.2785,2.84395 4.28481,2.8465 4.29113,2.84902 4.29743,2.85153 4.30372,2.85402 4.30998,2.85648 4.31619,2.8589 4.32236,2.86129 4.32847,2.86364 4.33451,2.86594 4.34048,2.8682 "/>
     <polygon id="_544925136" class="fil1" points="4.16311,2.79538 7.94937,6.58165 7.89362,6.56124 4.10735,2.77497 "/>
     <polygon id="_544925400" class="fil1" points="4.10735,2.77497 7.89362,6.56124 7.88839,6.56828 7.88266,6.57517 7.87648,6.58189 7.86988,6.58844 7.86292,6.59481 7.85562,6.601 7.84804,6.607 7.84022,6.61279 7.83219,6.61838 7.824,6.62375 7.81569,6.6289 7.8073,6.63383 7.79887,6.63852 7.79045,6.64296 7.78207,6.64716 7.77378,6.65109 3.98752,2.86482 3.9958,2.86089 4.00418,2.85669 4.0126,2.85224 4.02103,2.84756 4.02942,2.84263 4.03773,2.83748 4.04592,2.83211 4.05395,2.82652 4.06178,2.82072 4.06935,2.81473 4.07665,2.80854 4.08361,2.80217 4.09021,2.79562 4.09639,2.7889 4.10212,2.78201 "/>
     <polygon id="_544925304" class="fil1" points="3.62366,2.54898 7.40993,6.33525 7.412,6.33796 7.41392,6.34076 7.41569,6.34364 7.4173,6.34659 7.41876,6.34962 7.42007,6.35272 7.42123,6.3559 7.42224,6.35913 7.4231,6.36244 7.42381,6.3658 7.42439,6.36922 7.42481,6.37269 7.42509,6.37621 7.42522,6.37978 7.42522,6.3834 7.42507,6.38706 3.6388,2.60079 3.63895,2.59713 3.63896,2.59351 3.63882,2.58994 3.63854,2.58642 3.63812,2.58294 3.63755,2.57953 3.63683,2.57617 3.63597,2.57286 3.63496,2.56963 3.6338,2.56645 3.63249,2.56335 3.63103,2.56032 3.62942,2.55737 3.62765,2.55449 3.62573,2.55169 "/>
     <polygon id="_544925376" class="fil1" points="4.19286,3.03017 7.97913,6.81644 7.98655,6.82456 7.99352,6.8327 7.99998,6.84083 8.00592,6.84894 8.01126,6.85701 8.01598,6.865 8.02002,6.87289 8.02335,6.88066 8.02591,6.88829 8.02767,6.89575 8.02857,6.90301 4.2423,3.11674 4.2414,3.10948 4.23964,3.10202 4.23708,3.09439 4.23375,3.08662 4.22971,3.07873 4.225,3.07074 4.21965,3.06267 4.21372,3.05456 4.20725,3.04643 4.20028,3.03828 "/>
     <polygon id="_544924872" class="fil1" points="3.88248,2.82868 7.66874,6.61495 7.66874,6.61509 7.66874,6.61524 7.66875,6.61539 7.66877,6.61553 7.6688,6.61568 7.66883,6.61582 7.66887,6.61596 7.66893,6.61609 3.88266,2.82982 3.88261,2.82969 3.88256,2.82955 3.88253,2.82941 3.8825,2.82926 3.88248,2.82911 3.88247,2.82897 3.88247,2.82882 "/>
     <polygon id="_544925952" class="fil1" points="3.29855,2.46333 7.08481,6.2496 7.08865,6.25452 7.09169,6.26009 7.09383,6.26624 3.30757,2.47996 3.30542,2.47381 3.30238,2.46825 "/>
     <polygon id="_544926024" class="fil1" points="4.18683,3.48075 7.9731,7.26702 7.97293,7.26719 7.97278,7.26738 7.97265,7.26759 7.97254,7.2678 7.97245,7.26803 7.97239,7.26827 7.97234,7.26852 7.97233,7.26878 4.18606,3.4825 4.18607,3.48225 4.18612,3.482 4.18619,3.48176 4.18628,3.48153 4.18639,3.48131 4.18652,3.48111 4.18667,3.48092 "/>
     <polygon id="_544925520" class="fil1" points="4.18606,3.4825 7.97233,7.26878 7.97227,7.27282 4.186,3.48655 "/>
     <polygon id="_544926168" class="fil1" points="3.30757,2.47996 7.09383,6.26624 7.09458,6.2691 7.09531,6.27194 7.09602,6.27475 7.09672,6.27754 7.09741,6.28029 7.09808,6.28302 7.09874,6.28572 7.09937,6.28839 3.31311,2.50212 3.31247,2.49945 3.31181,2.49675 3.31114,2.49402 3.31046,2.49126 3.30976,2.48848 3.30904,2.48567 3.30831,2.48283 "/>
     <polygon id="_544925736" class="fil1" points="3.20243,2.54986 6.98869,6.33613 6.98891,6.33638 3.20265,2.55011 "/>
     <polygon id="_544925784" class="fil1" points="4.18512,3.56561 7.97139,7.35188 7.97115,7.36043 7.97092,7.36896 7.97069,7.37746 7.97047,7.38594 7.97025,7.39439 7.97005,7.4028 7.96985,7.41117 7.96966,7.41951 7.96948,7.42781 7.96931,7.43606 7.96915,7.44427 7.96901,7.45242 7.96888,7.46053 7.96877,7.46857 7.96867,7.47657 7.96859,7.4845 7.96852,7.49236 7.96848,7.50016 7.96845,7.50789 7.96844,7.51555 7.96845,7.52314 7.96849,7.53065 7.96855,7.53807 7.96863,7.54542 7.96873,7.55267 7.96886,7.55985 7.96902,7.56693 7.9692,7.57391 7.96941,7.5808 7.96965,7.58759 7.96993,7.59427 7.97022,7.60085 4.18396,3.81458 4.18366,3.808 4.18339,3.80131 4.18315,3.79452 4.18293,3.78764 4.18275,3.78065 4.18259,3.77357 4.18246,3.7664 4.18236,3.75915 4.18228,3.7518 4.18222,3.74437 4.18219,3.73687 4.18217,3.72928 4.18218,3.72162 4.18221,3.71389 4.18226,3.70609 4.18232,3.69822 4.1824,3.6903 4.1825,3.6823 4.18261,3.67426 4.18274,3.66615 4.18289,3.658 4.18304,3.64979 4.18321,3.64154 4.18339,3.63324 4.18358,3.6249 4.18378,3.61652 4.18398,3.60811 4.1842,3.59967 4.18442,3.59119 4.18465,3.58269 4.18488,3.57416 "/>
     <polygon id="_544926048" class="fil1" points="3.31376,2.49825 7.10003,6.28452 7.09949,6.28409 3.31322,2.49782 "/>
     <polygon id="_544926072" class="fil1" points="4.18865,3.27297 7.97492,7.05924 7.97498,7.06261 7.97503,7.06638 7.97507,7.07054 7.97509,7.07507 7.97511,7.07994 7.97511,7.08514 7.97511,7.09064 7.97509,7.09642 7.97507,7.10247 7.97503,7.10876 7.97499,7.11527 7.97494,7.12198 7.97488,7.12887 7.97481,7.13593 7.97474,7.14312 7.97467,7.15044 7.97459,7.15785 7.9745,7.16534 7.97441,7.17289 7.97431,7.18048 7.97422,7.18809 7.97412,7.19569 7.97402,7.20327 7.97392,7.2108 7.97381,7.21827 7.97371,7.22565 7.9736,7.23293 7.9735,7.24008 7.9734,7.24709 7.9733,7.25393 7.9732,7.26058 7.9731,7.26702 4.18683,3.48075 4.18693,3.47431 4.18703,3.46765 4.18713,3.46082 4.18723,3.45381 4.18733,3.44666 4.18744,3.43938 4.18754,3.432 4.18765,3.42453 4.18775,3.417 4.18785,3.40942 4.18795,3.40181 4.18805,3.39421 4.18814,3.38662 4.18823,3.37907 4.18832,3.37158 4.1884,3.36417 4.18848,3.35685 4.18855,3.34966 4.18861,3.3426 4.18867,3.33571 4.18872,3.329 4.18876,3.32248 4.1888,3.3162 4.18882,3.31015 4.18884,3.30437 4.18885,3.29887 4.18884,3.29367 4.18883,3.2888 4.1888,3.28427 4.18876,3.28011 4.18871,3.27634 "/>
     <polygon id="_544926144" class="fil1" points="4.31648,3.56332 8.10275,7.34959 8.09949,7.35059 8.09611,7.3515 8.09263,7.35234 8.08906,7.35309 8.08539,7.35377 8.08163,7.35437 8.07779,7.3549 8.07388,7.35536 8.06989,7.35575 8.06584,7.35608 8.06173,7.35634 8.05757,7.35655 8.05335,7.3567 8.04909,7.35679 8.0448,7.35683 8.04048,7.35682 8.03612,7.35676 8.03175,7.35666 8.02736,7.35652 8.02296,7.35633 8.01856,7.35611 8.01415,7.35585 8.00976,7.35556 8.00537,7.35524 8.001,7.35489 7.99666,7.35452 7.99234,7.35412 7.98806,7.3537 7.98382,7.35327 7.97962,7.35282 7.97548,7.35235 7.97139,7.35188 4.18512,3.56561 4.18921,3.56608 4.19335,3.56655 4.19755,3.567 4.2018,3.56743 4.20607,3.56785 4.21039,3.56824 4.21474,3.56862 4.2191,3.56897 4.22349,3.56929 4.22789,3.56958 4.23229,3.56984 4.23669,3.57006 4.24109,3.57024 4.24548,3.57039 4.24985,3.57049 4.25421,3.57055 4.25853,3.57056 4.26283,3.57052 4.26708,3.57043 4.2713,3.57028 4.27546,3.57007 4.27957,3.56981 4.28362,3.56948 4.28761,3.56909 4.29152,3.56863 4.29536,3.5681 4.29912,3.5675 4.30279,3.56682 4.30637,3.56607 4.30984,3.56523 4.31322,3.56432 "/>
     <polygon id="_544925712" class="fil1" points="4.59004,4.06569 8.37631,7.85196 8.3723,7.85326 8.36825,7.85441 8.36416,7.85537 8.36005,7.85615 8.35591,7.85676 8.35176,7.85717 8.3476,7.85739 8.34344,7.85741 8.3393,7.85722 8.33516,7.85683 8.33104,7.85622 8.32695,7.8554 8.3229,7.85435 8.31889,7.85306 8.31493,7.85155 8.31102,7.8498 4.52475,4.06352 4.52866,4.06528 4.53262,4.06679 4.53663,4.06807 4.54069,4.06913 4.54478,4.06995 4.54889,4.07056 4.55303,4.07095 4.55718,4.07114 4.56133,4.07112 4.56549,4.0709 4.56964,4.07048 4.57378,4.06988 4.57789,4.0691 4.58198,4.06813 4.58603,4.06699 "/>
     <polygon id="_544925904" class="fil1" points="4.52475,4.06352 8.31102,7.8498 8.30488,7.84641 8.29887,7.84229 8.29299,7.83747 8.28724,7.83198 4.50097,4.04571 4.50672,4.0512 4.5126,4.05602 4.51861,4.06014 "/>
     <polygon id="_544926936" class="fil1" points="4.36559,3.49816 8.15186,7.28443 8.15656,7.29029 8.16106,7.29622 8.16538,7.30223 8.16951,7.30831 8.17348,7.31447 8.17728,7.32071 8.18093,7.32703 8.18443,7.33343 8.18779,7.33991 8.19102,7.34649 8.19413,7.35315 8.19713,7.35991 8.20002,7.36676 8.20281,7.3737 8.20551,7.38075 8.20813,7.38789 8.21069,7.39513 8.21317,7.40248 8.21559,7.40994 8.21797,7.41751 8.22031,7.42518 8.22262,7.43297 8.2249,7.44087 8.22717,7.44889 8.22942,7.45703 8.23168,7.46529 8.23395,7.47367 8.23623,7.48218 8.23854,7.49081 8.24088,7.49958 8.24326,7.50847 8.24569,7.5175 8.24788,7.52563 8.25017,7.53416 8.25256,7.54305 8.25504,7.55227 8.25761,7.56176 8.26026,7.5715 8.26299,7.58144 8.2658,7.59154 8.26868,7.60177 8.27163,7.61208 8.27463,7.62243 8.2777,7.63279 8.28083,7.6431 8.284,7.65335 8.28722,7.66347 8.29049,7.67344 8.29379,7.68321 8.29713,7.69274 8.3005,7.702 8.30389,7.71094 8.30731,7.71954 8.31074,7.72772 8.31419,7.73548 8.31764,7.74276 8.3211,7.74952 8.32457,7.75573 8.32803,7.76135 8.33148,7.76632 8.33492,7.77063 8.33835,7.77422 4.55208,3.98794 4.54865,3.98435 4.54521,3.98005 4.54176,3.97507 4.5383,3.96946 4.53483,3.96325 4.53137,3.95649 4.52792,3.94921 4.52447,3.94145 4.52104,3.93326 4.51762,3.92467 4.51423,3.91573 4.51086,3.90647 4.50752,3.89694 4.50422,3.88717 4.50096,3.8772 4.49774,3.86707 4.49456,3.85683 4.49144,3.84652 4.48837,3.83616 4.48536,3.82581 4.48241,3.8155 4.47953,3.80527 4.47672,3.79517 4.47399,3.78523 4.47134,3.77549 4.46878,3.766 4.4663,3.75678 4.46391,3.74789 4.46161,3.73936 4.45943,3.73123 4.45699,3.7222 4.45461,3.71331 4.45227,3.70454 4.44996,3.69591 4.44768,3.6874 4.44541,3.67902 4.44315,3.67076 4.4409,3.66262 4.43863,3.6546 4.43635,3.6467 4.43404,3.63891 4.4317,3.63124 4.42933,3.62367 4.4269,3.61621 4.42442,3.60886 4.42187,3.60162 4.41924,3.59448 4.41654,3.58743 4.41375,3.58049 4.41086,3.57364 4.40786,3.56688 4.40475,3.56022 4.40152,3.55364 4.39816,3.54716 4.39466,3.54076 4.39101,3.53444 4.38721,3.5282 4.38324,3.52204 4.37911,3.51596 4.3748,3.50995 4.37029,3.50402 "/>
     <polygon id="_544926576" class="fil1" points="4.8075,4.13993 8.59377,7.9262 8.59133,7.92407 8.58835,7.92215 8.58487,7.9204 8.58094,7.91879 8.57662,7.9173 8.57195,7.91588 8.567,7.91452 8.5618,7.91319 8.55642,7.91185 8.5509,7.91048 8.5453,7.90905 8.53966,7.90752 8.53404,7.90589 8.5285,7.9041 8.52307,7.90214 8.51781,7.89997 4.73154,4.1137 4.7368,4.11587 4.74223,4.11783 4.74778,4.11961 4.75339,4.12125 4.75903,4.12278 4.76463,4.1242 4.77015,4.12557 4.77554,4.12691 4.78073,4.12825 4.78569,4.12961 4.79035,4.13102 4.79467,4.13252 4.7986,4.13413 4.80208,4.13588 4.80507,4.1378 "/>
     <polygon id="_544926720" class="fil1" points="2.71792,2.77263 6.50419,6.5589 6.44841,6.57922 2.66214,2.79294 "/>
     <polygon id="_544926672" class="fil1" points="2.87804,2.88287 6.66431,6.66914 6.65606,6.66484 6.64796,6.66072 6.64,6.65676 6.63215,6.65289 6.62441,6.64907 6.61674,6.64526 6.60915,6.64142 6.60161,6.6375 6.59412,6.63346 6.58664,6.62925 6.57917,6.62483 6.57168,6.62015 6.56417,6.61518 6.55662,6.60985 6.54901,6.60414 6.54132,6.598 6.53581,6.59333 6.53054,6.58859 6.52549,6.58378 2.73922,2.7975 2.74427,2.80231 2.74955,2.80706 2.75505,2.81172 2.76274,2.81787 2.77035,2.82358 2.77791,2.82891 2.78541,2.83388 2.7929,2.83856 2.80037,2.84298 2.80785,2.84719 2.81535,2.85123 2.82289,2.85515 2.83048,2.85899 2.83814,2.8628 2.84588,2.86661 2.85373,2.87048 2.86169,2.87445 2.8698,2.87857 "/>
     <polygon id="_544926480" class="fil1" points="2.76874,2.7025 6.555,6.48877 6.55909,6.49399 6.56233,6.50003 6.56466,6.50686 2.77839,2.72059 2.77607,2.71376 2.77283,2.70772 "/>
     <polygon id="_544926456" class="fil1" points="2.81516,2.90686 6.60143,6.69313 6.60144,6.69317 2.81517,2.9069 "/>
     <polygon id="_544926528" class="fil1" points="2.37622,2.79308 6.16249,6.57935 6.16537,6.58228 6.16807,6.58539 6.17059,6.58867 6.17291,6.59213 6.17502,6.59575 2.38875,2.80948 2.38664,2.80586 2.38432,2.8024 2.38181,2.79911 2.3791,2.796 "/>
     <polygon id="_544926360" class="fil1" points="2.77839,2.72059 6.56466,6.50686 6.56583,6.50989 6.56786,6.51335 6.57063,6.51715 6.57402,6.52117 6.57789,6.52531 2.79162,2.73904 2.78775,2.73489 2.78436,2.73087 2.78159,2.72708 2.77956,2.72362 "/>
     <polygon id="_544926384" class="fil1" points="2.38875,2.80948 6.17502,6.59575 6.18163,6.60295 2.39536,2.81668 "/>
     <polygon id="_544926192" class="fil1" points="2.66214,2.79294 6.44841,6.57922 6.44435,6.58101 6.44008,6.58288 6.43563,6.58483 6.43098,6.58685 6.42617,6.58893 6.42118,6.59108 6.41605,6.59329 6.41076,6.59555 6.40534,6.59786 6.3998,6.60021 6.39414,6.60261 6.38837,6.60504 6.3825,6.6075 6.37655,6.60998 6.37052,6.6125 6.36442,6.61502 6.35827,6.61756 6.35206,6.62011 6.34581,6.62267 6.33954,6.62522 6.33325,6.62777 6.32694,6.63031 6.32064,6.63283 6.31435,6.63534 6.30807,6.63783 6.30183,6.64028 6.29562,6.64271 6.28946,6.64509 6.28335,6.64744 6.27732,6.64975 6.27136,6.652 6.26549,6.6542 6.2592,6.65652 6.253,6.65876 6.24689,6.66091 6.2409,6.66298 6.23502,6.66494 6.22927,6.66681 6.22365,6.66857 6.21817,6.67023 6.21285,6.67176 6.20769,6.67318 6.2027,6.67446 6.19789,6.67562 6.19326,6.67665 6.18884,6.67753 6.18462,6.67826 6.18061,6.67885 2.39435,2.89257 2.39835,2.89199 2.40257,2.89126 2.407,2.89037 2.41162,2.88935 2.41643,2.88819 2.42142,2.88691 2.42658,2.88549 2.43191,2.88396 2.43738,2.8823 2.443,2.88054 2.44875,2.87867 2.45463,2.8767 2.46063,2.87464 2.46673,2.87249 2.47293,2.87025 2.47922,2.86793 2.48509,2.86573 2.49105,2.86348 2.49709,2.86117 2.50319,2.85882 2.50935,2.85644 2.51556,2.85401 2.5218,2.85156 2.52808,2.84907 2.53437,2.84656 2.54068,2.84404 2.54698,2.8415 2.55328,2.83895 2.55955,2.8364 2.56579,2.83384 2.572,2.83129 2.57815,2.82875 2.58425,2.82622 2.59028,2.82371 2.59624,2.82122 2.6021,2.81876 2.60787,2.81633 2.61353,2.81394 2.61907,2.81159 2.6245,2.80928 2.62978,2.80702 2.63491,2.80481 2.6399,2.80266 2.64472,2.80057 2.64936,2.79856 2.65381,2.79661 2.65808,2.79474 "/>
     <polygon id="_544926264" class="fil1" points="2.39435,2.89257 6.18061,6.67885 6.17814,6.6794 6.17563,6.67979 6.17309,6.68002 6.17052,6.68008 6.16792,6.67997 6.16532,6.67968 6.16271,6.67922 6.1601,6.67857 2.37383,2.8923 2.37644,2.89294 2.37905,2.89341 2.38165,2.8937 2.38425,2.89381 2.38682,2.89374 2.38937,2.89352 2.39187,2.89313 "/>
     <polygon id="_544927056" class="fil1" points="2.32454,2.85468 6.1108,6.64095 6.10631,6.64078 6.1017,6.64054 6.09698,6.64024 6.09215,6.63987 6.08724,6.63943 6.08224,6.63893 6.07717,6.63837 6.07203,6.63775 6.06685,6.63708 6.06162,6.63635 6.05636,6.63557 6.05107,6.63474 6.04578,6.63386 6.04048,6.63293 6.03519,6.63196 6.02992,6.63095 6.02468,6.6299 6.01947,6.62881 6.01431,6.62769 6.00921,6.62652 6.00418,6.62533 5.99922,6.62411 5.99435,6.62286 5.98958,6.62158 5.98492,6.62028 5.98037,6.61896 5.97595,6.61762 5.97167,6.61626 5.96754,6.61488 5.96356,6.61349 5.95975,6.61209 5.95611,6.61068 2.16985,2.82441 2.17348,2.82582 2.17729,2.82722 2.18127,2.82861 2.1854,2.82999 2.18968,2.83135 2.1941,2.83269 2.19865,2.83401 2.20331,2.83531 2.20808,2.83659 2.21295,2.83784 2.21791,2.83906 2.22294,2.84025 2.22804,2.84141 2.2332,2.84254 2.23841,2.84363 2.24365,2.84468 2.24893,2.84569 2.25422,2.84666 2.25951,2.84759 2.26481,2.84846 2.27009,2.8493 2.27535,2.85008 2.28058,2.85081 2.28576,2.85148 2.2909,2.8521 2.29597,2.85266 2.30097,2.85316 2.30589,2.85359 2.31071,2.85396 2.31543,2.85427 2.32005,2.85451 "/>
     <polygon id="_544927224" class="fil1" points="4.03949,4.62228 7.82576,8.40855 7.82117,8.41409 7.8166,8.41872 7.81204,8.42256 7.8075,8.42571 7.803,8.42827 7.79857,8.43035 7.79419,8.43204 7.7899,8.43345 4.00363,4.64718 4.00793,4.64577 4.0123,4.64407 4.01674,4.642 4.02123,4.63944 4.02577,4.63629 4.03033,4.63245 4.03491,4.62781 "/>
     <polygon id="_544927272" class="fil1" points="2.16985,2.82441 5.95611,6.61068 5.9516,6.60898 5.94697,6.60742 5.94224,6.60602 5.93741,6.60479 5.93251,6.60372 5.92755,6.60283 5.92254,6.60211 5.91751,6.60158 5.91246,6.60124 5.90742,6.60109 5.90239,6.60115 5.8974,6.6014 5.89245,6.60187 5.88757,6.60255 5.88276,6.60345 5.87805,6.60458 2.09178,2.81831 2.0965,2.81718 2.1013,2.81628 2.10619,2.8156 2.11113,2.81513 2.11613,2.81487 2.12115,2.81482 2.1262,2.81497 2.13124,2.81531 2.13628,2.81584 2.14128,2.81656 2.14624,2.81745 2.15114,2.81852 2.15597,2.81975 2.1607,2.82115 2.16533,2.8227 "/>
     <polygon id="_544927368" class="fil1" points="4.18396,3.81458 7.97022,7.60085 7.97058,7.60967 7.97082,7.61913 7.97097,7.6292 7.97102,7.63981 7.97098,7.65095 7.97085,7.66256 7.97063,7.6746 7.97034,7.68704 7.96998,7.69983 7.96954,7.71294 7.96904,7.72631 7.96848,7.73991 7.96787,7.7537 7.9672,7.76764 7.96648,7.78169 7.96573,7.7958 7.96494,7.80993 7.96411,7.82405 7.96326,7.83811 7.96239,7.85207 7.96149,7.86589 7.96058,7.87953 7.95966,7.89295 7.95873,7.90611 7.95781,7.91896 7.95689,7.93146 7.95597,7.94358 7.95507,7.95527 7.95419,7.9665 7.95333,7.97721 7.9525,7.98737 7.95169,7.99694 4.16543,4.21067 4.16623,4.2011 4.16706,4.19094 4.16792,4.18022 4.16881,4.169 4.1697,4.15731 4.17062,4.14519 4.17154,4.13269 4.17246,4.11983 4.17339,4.10668 4.17431,4.09326 4.17522,4.07962 4.17612,4.0658 4.17699,4.05184 4.17785,4.03778 4.17867,4.02366 4.17946,4.00953 4.18022,3.99542 4.18093,3.98137 4.1816,3.96743 4.18221,3.95364 4.18277,3.94004 4.18327,3.92667 4.18371,3.91356 4.18407,3.90077 4.18437,3.88833 4.18458,3.87629 4.18471,3.86468 4.18475,3.85354 4.1847,3.84293 4.18456,3.83286 4.18431,3.8234 "/>
     <polygon id="_544927704" class="fil1" points="4.15446,4.29068 7.94072,8.07695 7.94083,8.07714 7.94096,8.07732 7.94111,8.07749 4.15484,4.29122 4.1547,4.29105 4.15457,4.29087 "/>
     <polygon id="_544927320" class="fil1" points="4.3758,4.2503 8.16207,8.03657 8.16531,8.04019 8.16823,8.04414 8.17081,8.0484 8.17301,8.05297 4.38674,4.2667 4.38454,4.26213 4.38196,4.25787 4.37904,4.25392 "/>
     <polygon id="_544927152" class="fil1" points="4.16667,4.21098 7.95293,7.99725 7.95262,7.99726 7.95231,7.99732 7.95202,7.99741 7.95174,7.99754 7.95148,7.99769 7.95124,7.99788 7.95103,7.9981 7.95084,7.99834 4.16457,4.21207 4.16476,4.21183 4.16497,4.21161 4.16521,4.21142 4.16547,4.21126 4.16575,4.21114 4.16604,4.21105 4.16635,4.21099 "/>
     <polygon id="_544927680" class="fil1" points="2.37383,2.8923 6.1601,6.67857 6.15626,6.67737 6.1525,6.67598 6.14885,6.67442 6.14529,6.67269 6.14183,6.6708 6.13847,6.66875 6.13521,6.66655 6.13206,6.6642 6.129,6.66171 6.12606,6.65909 6.12323,6.65635 2.33696,2.87008 2.3398,2.87282 2.34274,2.87544 2.34579,2.87793 2.34894,2.88028 2.3522,2.88248 2.35556,2.88453 2.35902,2.88642 2.36258,2.88815 2.36624,2.88971 2.36999,2.89109 "/>
     <polygon id="_544927440" class="fil1" points="4.10365,4.44526 7.88992,8.23153 7.88905,8.23597 7.88811,8.24062 7.88711,8.24546 7.88603,8.2505 7.88489,8.2557 7.88367,8.26106 7.88239,8.26656 7.88103,8.27219 7.87961,8.27793 7.87811,8.28378 7.87654,8.2897 7.87489,8.2957 7.87317,8.30175 7.87138,8.30785 7.86952,8.31397 7.86757,8.32011 7.86556,8.32625 7.86346,8.33237 7.86129,8.33846 7.85904,8.34451 7.8567,8.35051 7.8543,8.35643 7.85181,8.36226 7.84924,8.368 7.8466,8.37361 7.84387,8.37911 7.84106,8.38446 7.83817,8.38965 7.83519,8.39467 7.83213,8.3995 7.82898,8.40413 7.82576,8.40855 4.03949,4.62228 4.04272,4.61786 4.04586,4.61323 4.04892,4.60839 4.0519,4.60337 4.05479,4.59819 4.0576,4.59283 4.06033,4.58734 4.06298,4.58172 4.06554,4.57599 4.06803,4.57015 4.07044,4.56424 4.07277,4.55824 4.07502,4.55219 4.07719,4.5461 4.07929,4.53998 4.0813,4.53384 4.08325,4.5277 4.08511,4.52158 4.08691,4.51548 4.08863,4.50943 4.09027,4.50343 4.09184,4.4975 4.09334,4.49166 4.09476,4.48592 4.09612,4.48029 4.09741,4.47479 4.09862,4.46943 4.09976,4.46422 4.10084,4.45919 4.10184,4.45435 4.10278,4.4497 "/>
     <polygon id="_544928328" class="fil1" points="4.68163,5.22112 8.46789,9.00739 8.46357,9.00619 8.45915,9.0049 8.45462,9.00353 8.44999,9.00207 8.44528,9.00054 8.44049,8.99893 8.43563,8.99725 8.43071,8.99549 8.42573,8.99366 8.42071,8.99176 8.41566,8.9898 8.41057,8.98777 8.40546,8.98568 8.40035,8.98353 8.39522,8.98131 8.39011,8.97905 8.385,8.97673 8.37991,8.97436 8.37486,8.97194 8.36984,8.96947 8.36487,8.96696 8.35994,8.9644 8.35509,8.9618 8.3503,8.95916 8.34559,8.95649 8.34096,8.95378 8.33644,8.95104 8.33201,8.94827 8.3277,8.94547 8.3235,8.94264 8.31944,8.93979 8.3155,8.93692 4.52924,5.15065 4.53317,5.15352 4.53724,5.15637 4.54143,5.1592 4.54574,5.162 4.55017,5.16477 4.5547,5.16751 4.55932,5.17022 4.56403,5.17289 4.56882,5.17553 4.57368,5.17813 4.5786,5.18069 4.58357,5.1832 4.58859,5.18567 4.59365,5.18809 4.59873,5.19046 4.60384,5.19278 4.60896,5.19504 4.61408,5.19726 4.6192,5.19941 4.6243,5.2015 4.62939,5.20353 4.63444,5.20549 4.63946,5.20739 4.64444,5.20922 4.64936,5.21098 4.65422,5.21266 4.65901,5.21427 4.66372,5.2158 4.66835,5.21726 4.67288,5.21863 4.67731,5.21992 "/>
     <polygon id="_544928016" class="fil1" points="2.09178,2.81831 5.87805,6.60458 5.87412,6.60541 5.8702,6.60582 5.86631,6.60585 5.86249,6.60549 5.85875,6.60476 5.85511,6.60369 5.85162,6.60227 5.84828,6.60053 5.84511,6.59848 5.84216,6.59613 2.05589,2.80986 2.05885,2.8122 2.06201,2.81426 2.06535,2.816 2.06885,2.81741 2.07248,2.81849 2.07622,2.81922 2.08004,2.81957 2.08393,2.81955 2.08785,2.81914 "/>
     <polygon id="_544928448" class="fil1" points="2.51789,3.56229 6.30416,7.34856 6.30322,7.34834 6.30229,7.34811 6.30136,7.34787 6.30044,7.34762 6.29953,7.34736 6.29862,7.34709 6.29772,7.34681 6.29682,7.34653 2.51056,3.56026 2.51145,3.56054 2.51235,3.56082 2.51326,3.56109 2.51417,3.56135 2.51509,3.56159 2.51602,3.56183 2.51695,3.56207 "/>
     <polygon id="_544927776" class="fil1" points="2.51056,3.56026 6.29682,7.34653 6.29379,7.35117 6.29084,7.35602 6.28796,7.36105 6.28515,7.36627 6.28241,7.37166 6.27974,7.37722 6.27714,7.38293 6.2746,7.38879 6.27211,7.39479 6.26969,7.40093 6.26731,7.40719 6.26499,7.41356 6.26271,7.42004 6.26048,7.42662 6.2583,7.43329 6.25615,7.44004 6.25405,7.44686 6.25198,7.45375 6.24994,7.4607 6.24793,7.4677 6.24594,7.47474 6.24399,7.4818 6.24205,7.4889 6.24013,7.49601 6.23823,7.50312 6.23635,7.51024 6.23447,7.51734 6.23261,7.52443 6.23074,7.53149 6.22889,7.53852 6.22703,7.5455 6.22517,7.55244 2.4389,3.76617 2.44076,3.75923 2.44262,3.75225 2.44448,3.74522 2.44634,3.73816 2.4482,3.73107 2.45008,3.72396 2.45196,3.71685 2.45387,3.70974 2.45578,3.70263 2.45772,3.69553 2.45968,3.68846 2.46166,3.68143 2.46367,3.67443 2.46571,3.66748 2.46778,3.66059 2.46989,3.65377 2.47203,3.64702 2.47422,3.64035 2.47644,3.63377 2.47872,3.62729 2.48104,3.62091 2.48342,3.61465 2.48585,3.60852 2.48833,3.60252 2.49087,3.59666 2.49348,3.59094 2.49615,3.58539 2.49888,3.58 2.50169,3.57478 2.50457,3.56975 2.50752,3.5649 "/>
     <polygon id="_544928232" class="fil1" points="3.6893,5.00413 7.47556,8.79041 7.47552,8.79038 3.68925,5.00411 "/>
     <polygon id="_544927896" class="fil1" points="2.64929,4.21401 6.43556,8.00028 6.43533,8.00008 6.43509,7.99991 6.43482,7.99977 6.43454,7.99967 2.64828,4.21339 2.64856,4.2135 2.64882,4.21364 2.64907,4.21381 "/>
     <polygon id="_544928472" class="fil1" points="3.68925,5.00411 7.47552,8.79038 7.47213,8.79586 7.46868,8.80132 7.46518,8.80673 7.46162,8.81209 7.458,8.8174 7.45431,8.82263 7.45056,8.82779 7.44674,8.83285 7.44285,8.83782 7.43887,8.84267 7.43483,8.84741 7.4307,8.85201 7.42648,8.85648 7.42218,8.8608 7.41778,8.86496 7.41329,8.86894 7.40871,8.87276 7.40402,8.87638 7.39924,8.8798 7.39434,8.88302 7.38934,8.88601 7.38423,8.88878 7.379,8.8913 7.37365,8.89359 7.36819,8.89561 7.36259,8.89736 7.35688,8.89884 7.35104,8.90002 7.34506,8.90092 7.33894,8.9015 7.33269,8.90176 7.3263,8.9017 3.54003,5.11543 3.54642,5.11549 3.55267,5.11523 3.55879,5.11465 3.56477,5.11375 3.57061,5.11257 3.57633,5.11109 3.58192,5.10933 3.58739,5.10731 3.59273,5.10503 3.59796,5.1025 3.60307,5.09974 3.60807,5.09674 3.61297,5.09353 3.61776,5.09011 3.62244,5.08648 3.62702,5.08267 3.63151,5.07869 3.63591,5.07453 3.64021,5.07021 3.64443,5.06574 3.64856,5.06114 3.65261,5.0564 3.65658,5.05155 3.66047,5.04658 3.6643,5.04152 3.66805,5.03636 3.67173,5.03113 3.67535,5.02582 3.67891,5.02046 3.68241,5.01505 3.68586,5.00959 "/>
     <path id="_544927920" class="fil1" d="M6.28737 8.03008l0 0zm-3.78627 -3.78627l0 0z"/>
     <polygon id="_544928376" class="fil1" points="2.30227,4.06045 6.08854,7.84672 6.08463,7.84848 6.08067,7.84999 6.07666,7.85127 6.0726,7.85232 6.06852,7.85315 6.0644,7.85376 6.06026,7.85415 6.05611,7.85433 6.05196,7.85431 6.0478,7.85409 6.04365,7.85368 6.03952,7.85308 6.0354,7.8523 6.03131,7.85133 6.02726,7.85019 6.02325,7.84888 2.23698,4.06261 2.24099,4.06392 2.24504,4.06506 2.24913,4.06602 2.25325,4.06681 2.25738,4.06741 2.26153,4.06782 2.26569,4.06804 2.26985,4.06806 2.274,4.06788 2.27813,4.06749 2.28225,4.06688 2.28633,4.06605 2.29039,4.065 2.2944,4.06372 2.29836,4.0622 "/>
     <path id="_544928256" class="fil1" d="M6.22206 8.05865l0 0zm-3.78627 -3.78627l0 0z"/>
     <polygon id="_544929000" class="fil1" points="2.11187,4.10472 5.89813,7.89099 5.88178,7.89691 2.09551,4.11064 "/>
     <polygon id="_544929096" class="fil1" points="2.09551,4.11064 5.88178,7.89691 5.87651,7.89908 5.87107,7.90104 5.86552,7.90283 5.8599,7.90447 5.85427,7.90598 5.84867,7.90741 5.84316,7.90878 5.83779,7.91012 5.83261,7.91145 5.82767,7.91281 5.82302,7.91422 5.81871,7.91572 5.8148,7.91733 5.81132,7.91908 5.80835,7.921 5.80591,7.92312 2.01965,4.13685 2.02208,4.13473 2.02506,4.13281 2.02853,4.13106 2.03244,4.12944 2.03675,4.12795 2.0414,4.12654 2.04634,4.12518 2.05152,4.12385 2.05689,4.12251 2.0624,4.12114 2.068,4.11971 2.07363,4.1182 2.07925,4.11656 2.0848,4.11477 2.09024,4.11281 "/>
     <polygon id="_544929240" class="fil1" points="2.01965,4.13685 5.80591,7.92312 5.80298,7.92587 5.79985,7.92827 5.79655,7.93031 5.7931,7.93199 5.78953,7.93332 5.78587,7.93429 5.78215,7.9349 5.77839,7.93515 5.77463,7.93505 5.77088,7.93458 5.76719,7.93375 5.76357,7.93257 5.76006,7.93102 5.75667,7.92911 5.75345,7.92683 5.75042,7.9242 1.96415,4.13793 1.96719,4.14056 1.97041,4.14284 1.97379,4.14475 1.9773,4.1463 1.98092,4.14748 1.98461,4.14831 1.98836,4.14878 1.99212,4.14888 1.99588,4.14863 1.9996,4.14802 2.00326,4.14705 2.00683,4.14572 2.01028,4.14404 2.01359,4.142 2.01672,4.1396 "/>
     <polygon id="_544928880" class="fil1" points="2.50029,4.3228 6.28656,8.10907 6.28246,8.12069 6.27843,8.13293 6.27446,8.14575 6.27057,8.15911 6.26674,8.17298 6.26299,8.18733 6.2593,8.20211 6.25567,8.2173 6.25212,8.23284 6.24863,8.24872 6.2452,8.26489 6.24184,8.28133 6.23855,8.29798 6.23531,8.31482 6.23215,8.33181 6.22904,8.34892 6.226,8.3661 6.22303,8.38333 6.22011,8.40057 6.21726,8.41778 6.21446,8.43492 6.21173,8.45196 6.20906,8.46888 6.20645,8.48561 6.2039,8.50215 6.20141,8.51844 6.19897,8.53444 6.19659,8.55014 6.19428,8.56549 6.19202,8.58045 6.18981,8.59498 6.18767,8.60907 6.18641,8.61798 6.1853,8.62711 6.18434,8.63643 6.1835,8.64592 6.18276,8.65557 6.1821,8.66536 6.18151,8.67528 6.18097,8.6853 6.18046,8.69541 6.17995,8.70559 6.17944,8.71583 6.1789,8.72611 6.17832,8.73641 6.17767,8.74671 6.17694,8.757 6.17611,8.76727 6.17517,8.77748 6.17408,8.78764 6.17283,8.79771 6.17142,8.80769 6.16981,8.81755 6.16798,8.82728 6.16593,8.83686 6.16363,8.84628 6.16106,8.85551 6.1582,8.86455 6.15504,8.87337 6.15156,8.88195 6.14774,8.89029 6.14355,8.89835 6.13899,8.90614 6.13403,8.91362 6.13174,8.91669 6.1293,8.91958 6.12672,8.9223 6.12402,8.92486 6.12119,8.92724 6.11825,8.92946 6.11519,8.9315 6.11204,8.93337 6.10879,8.93507 6.10545,8.9366 6.10203,8.93795 6.09854,8.93913 6.09497,8.94013 6.09135,8.94095 6.08768,8.94159 6.08396,8.94206 2.29769,5.15579 2.30141,5.15532 2.30508,5.15468 2.3087,5.15385 2.31227,5.15285 2.31576,5.15168 2.31918,5.15033 2.32252,5.1488 2.32577,5.1471 2.32893,5.14523 2.33198,5.14319 2.33493,5.14097 2.33775,5.13859 2.34046,5.13603 2.34303,5.13331 2.34547,5.13041 2.34776,5.12735 2.35272,5.11987 2.35728,5.11208 2.36147,5.10402 2.36529,5.09568 2.36878,5.08709 2.37193,5.07828 2.37479,5.06924 2.37736,5.06001 2.37966,5.05059 2.38172,5.04101 2.38354,5.03128 2.38515,5.02142 2.38657,5.01144 2.38781,5.00137 2.3889,4.99121 2.38985,4.981 2.39068,4.97073 2.39141,4.96044 2.39205,4.95014 2.39263,4.93983 2.39317,4.92956 2.39369,4.91932 2.39419,4.90913 2.3947,4.89902 2.39524,4.889 2.39583,4.87909 2.39649,4.8693 2.39723,4.85965 2.39807,4.85016 2.39904,4.84084 2.40014,4.83171 2.4014,4.8228 2.40355,4.80871 2.40575,4.79418 2.40801,4.77922 2.41033,4.76387 2.4127,4.74817 2.41514,4.73217 2.41763,4.71587 2.42018,4.69934 2.4228,4.68261 2.42546,4.66569 2.4282,4.64865 2.43099,4.6315 2.43384,4.6143 2.43676,4.59706 2.43974,4.57983 2.44278,4.56265 2.44588,4.54554 2.44905,4.52855 2.45228,4.51171 2.45557,4.49506 2.45893,4.47862 2.46236,4.46245 2.46585,4.44657 2.46941,4.43102 2.47303,4.41584 2.47672,4.40106 2.48048,4.38671 2.4843,4.37284 2.4882,4.35948 2.49216,4.34666 2.49619,4.33442 "/>
     <polygon id="_544929024" class="fil1" points="2.67217,4.29578 6.45844,8.08206 6.45278,8.08349 6.44709,8.08493 6.44139,8.08635 6.43567,8.08776 6.42994,8.08917 6.42421,8.09055 6.41847,8.09191 6.41273,8.09325 6.407,8.09456 6.40128,8.09584 6.39558,8.09709 6.38989,8.09829 6.38423,8.09946 6.37859,8.10057 6.37299,8.10165 6.36742,8.10267 6.36189,8.10363 6.35641,8.10454 6.35097,8.10538 6.34558,8.10615 6.34026,8.10686 6.33499,8.1075 6.32978,8.10805 6.32465,8.10853 6.31959,8.10893 6.3146,8.10923 6.3097,8.10945 6.30488,8.10957 6.30016,8.1096 6.29552,8.10953 6.29099,8.10935 6.28656,8.10907 2.50029,4.3228 2.50472,4.32308 2.50926,4.32326 2.51389,4.32333 2.51861,4.3233 2.52343,4.32318 2.52833,4.32296 2.53332,4.32265 2.53838,4.32226 2.54352,4.32178 2.54872,4.32122 2.55399,4.32059 2.55931,4.31988 2.5647,4.31911 2.57014,4.31826 2.57563,4.31736 2.58115,4.31639 2.58672,4.31537 2.59233,4.3143 2.59796,4.31319 2.60363,4.31202 2.60931,4.31081 2.61502,4.30957 2.62074,4.30829 2.62646,4.30698 2.6322,4.30564 2.63794,4.30428 2.64367,4.30289 2.64941,4.30149 2.65512,4.30008 2.66083,4.29865 2.66651,4.29722 "/>
     <polygon id="_544929216" class="fil1" points="3.13783,5.00401 6.9241,8.79028 6.92392,8.7923 6.92387,8.79402 6.9239,8.79546 6.92394,8.79661 6.92394,8.79749 6.92384,8.79809 6.92358,8.79841 6.9231,8.79847 6.92179,8.79831 6.92047,8.79814 6.91914,8.79798 6.9178,8.79781 6.91645,8.79763 6.9151,8.79744 6.91374,8.79726 6.91237,8.79706 3.1261,5.01079 3.12747,5.01098 3.12883,5.01117 3.13019,5.01136 3.13153,5.01154 3.13287,5.0117 3.1342,5.01187 3.13552,5.01204 3.13683,5.0122 3.13731,5.01214 3.13757,5.01181 3.13768,5.01122 3.13768,5.01034 3.13763,5.00919 3.13761,5.00775 3.13765,5.00603 "/>
     <polygon id="_544928496" class="fil1" points="2.14059,5.22717 5.92686,9.01344 5.9112,9.02053 2.12493,5.23426 "/>
     <polygon id="_544928640" class="fil1" points="2.29291,5.15668 6.07917,8.94295 6.07521,8.94586 6.07113,8.94875 6.06692,8.95161 6.06259,8.95443 6.05817,8.95722 6.05364,8.95998 6.04902,8.96271 6.04432,8.96539 6.03954,8.96804 6.0347,8.97065 6.0298,8.9732 6.02485,8.97572 6.01985,8.97819 6.01481,8.98061 6.00975,8.98298 6.00467,8.98529 5.99957,8.98755 5.99448,8.98975 5.98938,8.99189 5.98429,8.99398 5.97922,8.996 5.97418,8.99795 5.96917,8.99984 5.9642,9.00167 5.95928,9.00341 5.95443,9.00509 5.94963,9.0067 5.94491,9.00822 5.94026,9.00967 5.9357,9.01105 5.93124,9.01233 5.92689,9.01354 2.14062,5.22727 2.14498,5.22606 2.14944,5.22478 2.15399,5.2234 2.15864,5.22195 2.16336,5.22043 2.16816,5.21882 2.17302,5.21714 2.17794,5.21539 2.1829,5.21357 2.18791,5.21168 2.19295,5.20973 2.19802,5.2077 2.20311,5.20562 2.20821,5.20348 2.21331,5.20128 2.2184,5.19902 2.22348,5.1967 2.22855,5.19433 2.23358,5.19192 2.23858,5.18945 2.24353,5.18693 2.24843,5.18437 2.25328,5.18177 2.25805,5.17912 2.26275,5.17644 2.26737,5.17371 2.2719,5.17095 2.27633,5.16816 2.28065,5.16533 2.28486,5.16248 2.28894,5.15959 "/>
     <polygon id="_544928544" class="fil1" points="2.29769,5.15579 6.08396,8.94206 6.07924,8.94316 2.29298,5.15689 "/>
     <polygon id="_544929192" class="fil1" points="2.12493,5.23426 5.9112,9.02053 5.90617,9.02303 5.90095,9.02535 5.89558,9.02749 5.89013,9.0295 5.88464,9.03139 5.87917,9.03319 5.87378,9.03493 5.86851,9.03663 5.86342,9.03833 5.85857,9.04003 5.854,9.04178 5.84979,9.04359 5.84596,9.0455 5.84259,9.04752 5.83973,9.04969 5.83742,9.05202 2.05115,5.26575 2.05346,5.26341 2.05633,5.26124 2.0597,5.25922 2.06352,5.25732 2.06774,5.2555 2.0723,5.25376 2.07715,5.25206 2.08224,5.25036 2.08751,5.24866 2.09291,5.24692 2.09837,5.24512 2.10386,5.24322 2.10931,5.24122 2.11468,5.23907 2.1199,5.23676 "/>
     <polygon id="_544928616" class="fil1" points="2.05115,5.26575 5.83742,9.05202 5.8347,9.05499 5.83176,9.05761 5.82861,9.0599 5.82529,9.06184 5.82183,9.06343 5.81824,9.06467 5.81457,9.06556 5.81084,9.06609 5.80707,9.06627 5.8033,9.06608 5.79954,9.06553 5.79584,9.06462 5.79222,9.06333 5.7887,9.06168 5.78531,9.05965 5.78209,9.05724 1.99582,5.27097 1.99904,5.27338 2.00243,5.27541 2.00595,5.27706 2.00957,5.27835 2.01328,5.27926 2.01703,5.27981 2.0208,5.28 2.02457,5.27982 2.0283,5.27929 2.03198,5.2784 2.03556,5.27716 2.03902,5.27557 2.04234,5.27363 2.04549,5.27134 2.04844,5.26872 "/>
     <polygon id="_544929960" class="fil1" points="3.70843,5.00954 7.49469,8.79581 7.49233,8.79624 7.48998,8.79663 7.48767,8.79698 7.48538,8.79732 7.48312,8.79763 7.48089,8.79792 7.4787,8.79819 7.47655,8.79846 7.47609,8.7984 3.68982,5.01213 3.69028,5.01219 3.69243,5.01192 3.69463,5.01165 3.69685,5.01135 3.69911,5.01105 3.7014,5.01071 3.70372,5.01035 3.70606,5.00996 "/>
     <polygon id="_544929984" class="fil1" points="2.64192,3.56255 6.42819,7.34882 6.42033,7.34972 6.41238,7.35057 6.40435,7.35134 6.39626,7.35204 6.38815,7.35263 6.38004,7.35311 6.37195,7.35347 6.36391,7.35369 6.35593,7.35375 6.34805,7.35364 6.34029,7.35335 6.33267,7.35287 6.32522,7.35217 6.31797,7.35124 6.31093,7.35008 6.30414,7.34866 2.51787,3.56239 2.52467,3.56381 2.5317,3.56497 2.53896,3.56589 2.54641,3.56659 2.55402,3.56708 2.56178,3.56737 2.56966,3.56748 2.57764,3.56741 2.58568,3.5672 2.59377,3.56684 2.60189,3.56636 2.61,3.56576 2.61808,3.56507 2.62611,3.5643 2.63406,3.56345 "/>
     <polygon id="_544929864" class="fil1" points="3.91115,4.82513 7.69742,8.61141 7.69254,8.6182 7.68756,8.62426 7.68256,8.62963 7.67757,8.63435 7.67265,8.63846 7.66785,8.64202 7.66322,8.64506 7.65881,8.64763 7.65468,8.64978 7.65087,8.65154 7.64744,8.65296 7.64444,8.65409 7.64192,8.65497 7.63993,8.65565 7.63851,8.65617 7.63774,8.65656 7.63744,8.65695 7.63683,8.65787 7.63591,8.6593 7.6347,8.6612 7.6332,8.66354 7.63144,8.6663 7.62942,8.66945 7.62715,8.67295 7.62464,8.67677 7.62191,8.68089 7.61896,8.68526 7.61582,8.68987 7.61248,8.69469 7.60897,8.69967 7.60529,8.70479 7.60146,8.71003 7.59748,8.71534 7.59337,8.7207 7.58915,8.72609 7.58481,8.73146 7.58038,8.73679 7.57586,8.74205 7.57127,8.7472 7.56662,8.75223 7.56191,8.75709 7.55717,8.76176 7.55241,8.7662 7.54762,8.77039 7.54283,8.77429 7.53805,8.77788 7.53329,8.78113 7.52856,8.78399 3.7423,4.99772 3.74702,4.99485 3.75178,4.99161 3.75657,4.98802 3.76135,4.98412 3.76614,4.97993 3.77091,4.97548 3.77565,4.97082 3.78035,4.96596 3.785,4.96093 3.78959,4.95578 3.79411,4.95052 3.79854,4.94519 3.80288,4.93981 3.80711,4.93443 3.81122,4.92907 3.81519,4.92376 3.81902,4.91852 3.8227,4.91339 3.82622,4.90841 3.82955,4.9036 3.8327,4.89899 3.83564,4.89461 3.83837,4.8905 3.84088,4.88668 3.84315,4.88318 3.84517,4.88003 3.84694,4.87727 3.84843,4.87493 3.84965,4.87302 3.85056,4.87159 3.85117,4.87068 3.85147,4.87029 3.85224,4.86989 3.85366,4.86938 3.85565,4.8687 3.85817,4.86782 3.86118,4.86669 3.86461,4.86527 3.86841,4.8635 3.87255,4.86136 3.87695,4.85879 3.88158,4.85575 3.88638,4.85219 3.8913,4.84807 3.89629,4.84336 3.9013,4.83799 3.90627,4.83193 "/>
     <polygon id="_544929768" class="fil1" points="3.7423,4.99772 7.52856,8.78399 7.52429,8.78628 7.52,8.78828 7.51572,8.79004 7.51144,8.79156 7.5072,8.79288 7.50298,8.79402 7.49881,8.79498 7.49469,8.79581 3.70843,5.00954 3.71254,5.00871 3.71671,5.00774 3.72093,5.00661 3.72518,5.00529 3.72945,5.00377 3.73373,5.00201 3.73802,5 "/>
     <polygon id="_544929408" class="fil1" points="3.54003,5.11543 7.3263,8.9017 7.32316,8.90454 7.31982,8.90733 7.3163,8.91009 7.3126,8.91279 7.30874,8.91544 7.30472,8.91803 7.30056,8.92056 7.29626,8.92302 7.29184,8.92541 7.28731,8.92772 7.28267,8.92995 7.27795,8.93209 7.27314,8.93414 7.26826,8.93609 7.26333,8.93794 7.25834,8.93969 7.25331,8.94132 7.24826,8.94283 7.24319,8.94423 7.2381,8.9455 7.23303,8.94665 7.22796,8.94765 7.22292,8.94852 7.21791,8.94924 7.21295,8.94981 7.20805,8.95023 7.20321,8.95048 7.19844,8.95058 7.19377,8.95051 7.18919,8.95026 7.18472,8.94983 7.18037,8.94922 7.17333,8.94796 7.16612,8.94643 7.15878,8.94465 7.15135,8.94261 7.14387,8.94033 7.13639,8.93778 7.12894,8.935 7.12157,8.93196 7.11432,8.92868 7.10724,8.92515 7.10036,8.92139 7.09373,8.91739 7.08739,8.91315 7.08137,8.90868 7.07574,8.90398 3.28947,5.1177 3.29511,5.12241 3.30112,5.12688 3.30746,5.13112 3.31409,5.13512 3.32097,5.13888 3.32806,5.14241 3.3353,5.14569 3.34267,5.14872 3.35012,5.15151 3.3576,5.15406 3.36508,5.15634 3.37251,5.15838 3.37985,5.16016 3.38706,5.16169 3.3941,5.16295 3.39845,5.16356 3.40293,5.16399 3.4075,5.16424 3.41218,5.16431 3.41694,5.16421 3.42178,5.16396 3.42669,5.16354 3.43165,5.16296 3.43665,5.16224 3.44169,5.16138 3.44676,5.16037 3.45183,5.15923 3.45692,5.15796 3.46199,5.15656 3.46704,5.15505 3.47207,5.15341 3.47706,5.15167 3.482,5.14982 3.48687,5.14787 3.49168,5.14582 3.49641,5.14368 3.50104,5.14145 3.50557,5.13914 3.50999,5.13675 3.51429,5.13429 3.51845,5.13176 3.52247,5.12917 3.52633,5.12652 3.53003,5.12381 3.53355,5.12106 3.53689,5.11826 "/>
     <polygon id="_544929432" class="fil1" points="3.27868,5.11269 7.06495,8.89896 7.06187,8.89868 7.05872,8.89838 7.05549,8.89804 7.05219,8.89763 7.04882,8.89716 7.04537,8.89658 7.04184,8.8959 7.03824,8.89508 7.03455,8.89412 7.03078,8.89299 7.02693,8.89168 7.02298,8.89017 7.01896,8.88844 7.01485,8.88647 7.01065,8.88425 7.00635,8.88176 7.00196,8.87898 6.99749,8.87589 6.99291,8.87248 6.98824,8.86873 6.98348,8.86461 3.19721,5.07834 3.20198,5.08246 3.20665,5.08621 3.21122,5.08962 3.2157,5.09271 3.22008,5.09549 3.22438,5.09798 3.22858,5.1002 3.23269,5.10217 3.23672,5.1039 3.24066,5.10541 3.24451,5.10672 3.24828,5.10785 3.25197,5.10881 3.25557,5.10963 3.2591,5.11031 3.26256,5.11089 3.26593,5.11136 3.26922,5.11176 3.27245,5.11211 3.2756,5.11241 "/>
     <polygon id="_544929816" class="fil1" points="3.28424,5.11277 7.07051,8.89904 7.06495,8.89911 3.27868,5.11284 "/>
     <polygon id="_544929936" class="fil1" points="2.97573,4.87031 6.762,8.65658 6.75888,8.65548 6.75564,8.6543 6.7523,8.65301 6.74885,8.65157 6.7453,8.64996 6.74167,8.64813 6.73796,8.64607 6.73418,8.64374 6.73033,8.6411 6.72643,8.63812 6.72248,8.63478 2.93621,4.84851 2.94017,4.85185 2.94407,4.85483 2.94791,4.85746 2.9517,4.8598 2.95541,4.86186 2.95904,4.86369 2.96258,4.8653 2.96603,4.86674 2.96937,4.86803 2.97261,4.86921 "/>
     <polygon id="_544929720" class="fil1" points="3.08518,4.99784 6.87144,8.78411 6.8667,8.78128 6.86193,8.77808 6.85714,8.77452 6.85234,8.77065 6.84755,8.76648 3.06128,4.98021 3.06607,4.98437 3.07087,4.98825 3.07566,4.99181 3.08043,4.99501 "/>
     <polygon id="_544929504" class="fil1" points="3.1261,5.01079 6.91237,8.79706 6.90751,8.79629 6.90256,8.79536 6.89753,8.79424 6.89243,8.79288 6.88726,8.79123 6.88203,8.78926 6.87674,8.78691 6.87141,8.78416 3.08515,4.99789 3.09048,5.00064 3.09576,5.00298 3.10099,5.00496 3.10616,5.00661 3.11126,5.00797 3.11629,5.00909 3.12124,5.01002 "/>
     <polygon id="_544929744" class="fil1" points="4.00363,4.64718 7.7899,8.43345 7.78785,8.43845 7.78574,8.44355 7.78355,8.44875 7.7813,8.45403 7.77898,8.4594 7.7766,8.46484 7.77415,8.47035 7.77165,8.47593 7.76909,8.48156 7.76646,8.48723 7.76379,8.49296 7.76106,8.49872 7.75827,8.5045 7.75543,8.51031 7.75255,8.51614 7.74961,8.52198 7.74663,8.52782 7.74361,8.53366 7.74054,8.53949 7.73743,8.5453 7.73428,8.55109 7.73109,8.55685 7.72786,8.56258 7.7246,8.56826 7.7213,8.57389 7.71798,8.57947 7.71462,8.58499 7.71123,8.59043 7.70781,8.59581 7.70437,8.6011 7.70091,8.6063 7.69742,8.61141 3.91115,4.82513 3.91464,4.82003 3.91811,4.81483 3.92155,4.80954 3.92496,4.80416 3.92835,4.79872 3.93171,4.7932 3.93504,4.78762 3.93833,4.78199 3.94159,4.77631 3.94482,4.77058 3.94801,4.76482 3.95116,4.75903 3.95427,4.75322 3.95734,4.74739 3.96037,4.74155 3.96335,4.73571 3.96628,4.72987 3.96917,4.72404 3.972,4.71823 3.97479,4.71244 3.97752,4.70669 3.9802,4.70096 3.98282,4.69528 3.98538,4.68965 3.98789,4.68408 3.99033,4.67857 3.99271,4.67313 3.99503,4.66776 3.99728,4.66248 3.99947,4.65728 4.00158,4.65218 "/>
     <polygon id="_544930608" class="fil1" points="4.13861,4.37744 7.92488,8.16371 7.92477,8.16368 4.1385,4.37741 "/>
     <polygon id="_544930656" class="fil1" points="4.1385,4.37741 7.92477,8.16368 7.92307,8.17023 7.921,8.17661 7.91865,8.18279 7.91605,8.18874 7.91328,8.19442 7.91041,8.19981 7.9075,8.20489 7.90461,8.20963 7.9018,8.21398 7.89914,8.21793 7.8967,8.22145 7.89453,8.2245 7.8927,8.22707 7.89129,8.22911 7.89033,8.23061 7.88992,8.23153 4.10365,4.44526 4.10407,4.44434 4.10502,4.44284 4.10644,4.4408 4.10826,4.43823 4.11043,4.43518 4.11287,4.43166 4.11553,4.42771 4.11834,4.42335 4.12123,4.41862 4.12415,4.41354 4.12702,4.40815 4.12978,4.40246 4.13238,4.39652 4.13474,4.39034 4.1368,4.38396 "/>
     <polygon id="_544930440" class="fil1" points="4.32212,4.31665 8.10839,8.10292 8.10406,8.1032 8.09964,8.10337 8.09513,8.10345 8.09052,8.10343 8.08583,8.10332 8.08105,8.10312 8.0762,8.10283 8.07127,8.10246 8.06627,8.10201 8.0612,8.10148 8.05607,8.10088 8.05089,8.1002 8.04565,8.09946 8.04035,8.09866 8.03501,8.0978 8.02962,8.09687 8.0242,8.0959 8.01874,8.09487 8.01324,8.0938 8.00772,8.09268 8.00218,8.09152 7.99661,8.09032 7.99104,8.08909 7.98544,8.08782 7.97984,8.08653 7.97424,8.08521 7.96863,8.08387 7.96303,8.08251 7.95743,8.08114 7.95185,8.07975 7.94628,8.07835 7.94072,8.07695 4.15446,4.29068 4.16001,4.29208 4.16558,4.29348 4.17116,4.29487 4.17676,4.29624 4.18236,4.2976 4.18797,4.29894 4.19357,4.30026 4.19917,4.30155 4.20477,4.30281 4.21035,4.30405 4.21591,4.30525 4.22146,4.30641 4.22698,4.30753 4.23247,4.3086 4.23793,4.30963 4.24335,4.3106 4.24874,4.31153 4.25408,4.31239 4.25938,4.31319 4.26462,4.31393 4.26981,4.31461 4.27494,4.31521 4.28,4.31574 4.285,4.31619 4.28993,4.31656 4.29478,4.31685 4.29956,4.31705 4.30425,4.31716 4.30886,4.31718 4.31337,4.3171 4.3178,4.31693 "/>
     <polygon id="_544930488" class="fil1" points="4.15576,4.29183 7.94203,8.0781 7.92488,8.16371 4.13861,4.37744 "/>
     <polygon id="_544930296" class="fil1" points="4.3868,4.26667 8.17307,8.05294 8.17793,8.06486 8.18268,8.07751 8.18734,8.09086 8.19191,8.10487 8.19637,8.11948 8.20075,8.13467 8.20503,8.15038 8.20922,8.16658 8.21331,8.18322 8.21732,8.20027 8.22124,8.21767 8.22507,8.23539 8.22881,8.25338 8.23247,8.27161 8.23605,8.29002 8.23954,8.30858 8.24295,8.32725 8.24628,8.34598 8.24953,8.36474 8.2527,8.38347 8.2558,8.40214 8.25881,8.4207 8.26176,8.43911 8.26463,8.45734 8.26743,8.47533 8.27015,8.49305 8.27281,8.51045 8.2754,8.52749 8.27791,8.54413 8.28037,8.56033 8.28275,8.57605 8.28507,8.59123 8.28617,8.59889 8.28714,8.60681 8.28802,8.61498 8.2888,8.62337 8.2895,8.63197 8.29013,8.64074 8.2907,8.64967 8.29124,8.65873 8.29174,8.66791 8.29222,8.67717 8.2927,8.6865 8.29318,8.69588 8.29368,8.70527 8.2942,8.71467 8.29478,8.72404 8.2954,8.73337 8.29609,8.74263 8.29686,8.75181 8.29772,8.76087 8.29868,8.76979 8.29975,8.77856 8.30096,8.78715 8.3023,8.79554 8.30379,8.8037 8.30545,8.81162 8.30728,8.81927 8.3093,8.82663 8.31152,8.83367 8.31395,8.84038 8.31661,8.84673 8.3195,8.8527 8.32264,8.85827 4.53637,5.072 4.53323,5.06643 4.53034,5.06046 4.52768,5.05411 4.52525,5.0474 4.52303,5.04035 4.52101,5.033 4.51918,5.02535 4.51752,5.01743 4.51603,5.00926 4.51469,5.00088 4.51348,4.99229 4.51241,4.98352 4.51145,4.97459 4.51059,4.96554 4.50982,4.95636 4.50913,4.9471 4.50851,4.93777 4.50794,4.9284 4.50741,4.919 4.50691,4.90961 4.50643,4.90023 4.50595,4.8909 4.50547,4.88164 4.50497,4.87246 4.50444,4.8634 4.50386,4.85447 4.50323,4.8457 4.50253,4.8371 4.50175,4.82871 4.50087,4.82054 4.4999,4.81262 4.49881,4.80496 4.49648,4.78978 4.4941,4.77406 4.49165,4.75786 4.48913,4.74122 4.48654,4.72418 4.48389,4.70678 4.48116,4.68906 4.47836,4.67107 4.47549,4.65284 4.47255,4.63443 4.46953,4.61587 4.46644,4.5972 4.46326,4.57846 4.46001,4.55971 4.45669,4.54098 4.45328,4.52231 4.44978,4.50375 4.4462,4.48533 4.44255,4.46711 4.4388,4.44912 4.43497,4.4314 4.43106,4.414 4.42705,4.39695 4.42295,4.38031 4.41876,4.36411 4.41448,4.3484 4.41011,4.33321 4.40564,4.31859 4.40107,4.30459 4.39641,4.29124 4.39166,4.27859 "/>
     <polygon id="_544930272" class="fil1" points="4.83181,5.20949 8.61807,8.99576 8.62048,8.99899 8.62251,9.00237 8.62416,9.00589 8.62544,9.00952 8.62636,9.01322 8.62691,9.01697 8.62709,9.02074 8.62692,9.02451 8.62639,9.02824 8.6255,9.03192 8.62426,9.0355 8.62267,9.03896 8.62072,9.04228 8.61844,9.04543 8.61581,9.04838 8.61285,9.05109 4.82658,5.26482 4.82955,5.26211 4.83217,5.25916 4.83446,5.25601 4.8364,5.25269 4.83799,5.24923 4.83923,5.24565 4.84012,5.24197 4.84065,5.23824 4.84083,5.23447 4.84064,5.2307 4.84009,5.22695 4.83918,5.22324 4.83789,5.21962 4.83624,5.2161 4.83421,5.21272 "/>
     <polygon id="_544930200" class="fil1" points="4.52924,5.15065 8.3155,8.93692 8.31111,8.9359 4.52485,5.14963 "/>
     <path id="_544931088" class="fil1" d="M7.69746 8.61143l0 0zm-3.78627 -3.78627l0 0z"/>
     <polygon id="_544930896" class="fil1" points="4.52485,5.14963 8.31111,8.9359 8.30737,8.93543 8.30366,8.93478 8.30002,8.93396 8.29643,8.93296 8.29292,8.93178 8.28948,8.93042 8.28612,8.92889 8.28286,8.92719 8.27969,8.92531 8.27663,8.92326 8.27368,8.92103 8.27085,8.91863 8.26815,8.91606 4.48188,5.12979 4.48458,5.13236 4.48741,5.13476 4.49036,5.13698 4.49342,5.13904 4.49659,5.14092 4.49985,5.14262 4.50321,5.14415 4.50665,5.14551 4.51017,5.14669 4.51375,5.14769 4.51739,5.14851 4.5211,5.14916 "/>
     <polygon id="_544931448" class="fil1" points="4.69753,5.22805 8.4838,9.01432 8.46789,9.00739 4.68163,5.22112 "/>
     <polygon id="_544931328" class="fil1" points="4.76894,5.25726 8.55521,9.04354 8.55235,9.04137 8.54898,9.03935 8.54516,9.03744 8.54094,9.03563 8.53639,9.03389 8.53154,9.03218 8.52645,9.03049 8.52119,9.02878 8.5158,9.02704 8.51033,9.02524 8.50484,9.02335 8.49939,9.02134 8.49402,9.0192 8.4888,9.01688 8.48377,9.01438 4.6975,5.22811 4.70253,5.23061 4.70776,5.23293 4.71312,5.23507 4.71857,5.23708 4.72406,5.23897 4.72953,5.24077 4.73492,5.24251 4.74019,5.24422 4.74527,5.24591 4.75012,5.24761 4.75468,5.24936 4.75889,5.25117 4.76271,5.25307 4.76608,5.2551 "/>
     <polygon id="_544930920" class="fil1" points="4.82658,5.26482 8.61285,9.05109 8.60962,9.0535 8.60624,9.05553 8.60272,9.05719 8.59909,9.05847 8.59539,9.05938 8.59164,9.05993 8.58787,9.06012 8.5841,9.05994 8.58037,9.05941 8.57669,9.05852 8.57311,9.05728 8.56965,9.05569 8.56633,9.05375 8.56318,9.05146 8.56023,9.04884 4.77396,5.26257 4.77691,5.26519 4.78006,5.26748 4.78338,5.26942 4.78684,5.27101 4.79043,5.27225 4.7941,5.27314 4.79783,5.27367 4.8016,5.27385 4.80537,5.27366 4.80912,5.27311 4.81283,5.2722 4.81645,5.27091 4.81997,5.26926 4.82335,5.26723 "/>
     <polygon id="_544931184" class="fil1" points="4.82589,5.20288 8.61215,8.98915 8.61807,8.99576 4.83181,5.20949 "/>
     <polygon id="_544931256" class="fil1" points="4.73154,4.1137 8.51781,7.89997 8.50075,7.89394 4.71448,4.10767 "/>
     <polygon id="_544931304" class="fil1" points="3.98752,2.86482 7.77378,6.65109 7.73861,6.66917 3.95234,2.8829 "/>
     <polygon id="_544930800" class="fil1" points="3.41538,2.46876 7.20165,6.25504 7.20165,6.25516 3.41538,2.46889 "/>
     <polygon id="_544930968" class="fil1" points="4.36203,3.49421 8.1483,7.28048 8.15186,7.28443 4.36559,3.49816 "/>
     <polygon id="_544931064" class="fil1" points="4.71448,4.10767 8.50075,7.89394 8.49336,7.89235 8.48581,7.89059 8.47812,7.88869 8.47031,7.88664 8.46242,7.88444 8.45446,7.88211 8.44645,7.87963 8.43842,7.87702 8.4304,7.87429 8.4224,7.87143 8.41445,7.86846 8.40658,7.86537 8.39881,7.86217 8.39116,7.85887 8.38365,7.85546 8.37631,7.85196 4.59004,4.06569 4.59738,4.06919 4.60489,4.07259 4.61254,4.0759 4.62031,4.0791 4.62819,4.08219 4.63613,4.08516 4.64413,4.08802 4.65215,4.09075 4.66018,4.09336 4.66819,4.09583 4.67615,4.09817 4.68405,4.10037 4.69185,4.10242 4.69954,4.10432 4.70709,4.10607 "/>
     <polygon id="_544932000" class="fil1" points="4.86407,4.08551 8.65034,7.87178 8.65297,7.87481 8.65525,7.87804 8.65716,7.88142 8.6587,7.88493 8.65989,7.88855 8.66072,7.89224 8.66119,7.89598 8.66129,7.89975 8.66104,7.90351 8.66043,7.90723 8.65946,7.91089 8.65813,7.91446 8.65645,7.91791 8.65441,7.92121 8.65202,7.92434 8.64926,7.92727 8.64623,7.92991 8.64301,7.93218 8.63963,7.93409 8.63612,7.93564 8.6325,7.93683 8.6288,7.93765 8.62506,7.93812 8.6213,7.93822 8.61754,7.93797 8.61381,7.93736 8.61015,7.93639 8.60658,7.93507 8.60313,7.93338 8.59983,7.93134 8.5967,7.92895 8.59377,7.9262 4.8075,4.13993 4.81043,4.14268 4.81356,4.14507 4.81687,4.14711 4.82031,4.1488 4.82389,4.15012 4.82755,4.15109 4.83127,4.1517 4.83503,4.15195 4.83879,4.15185 4.84254,4.15138 4.84623,4.15056 4.84985,4.14937 4.85336,4.14782 4.85674,4.14591 4.85996,4.14363 4.863,4.141 4.86575,4.13807 4.86814,4.13494 4.87018,4.13164 4.87187,4.12819 4.87319,4.12462 4.87416,4.12096 4.87477,4.11724 4.87502,4.11348 4.87492,4.10971 4.87445,4.10597 4.87363,4.10228 4.87244,4.09866 4.87089,4.09515 4.86898,4.09176 4.8667,4.08854 "/>
     <polygon id="_544932048" class="fil1" points="3.66362,2.68796 7.44989,6.47424 7.45302,6.47768 7.4562,6.48141 7.45942,6.48545 7.46265,6.48982 7.46588,6.49454 7.46909,6.49964 7.47227,6.50512 7.4754,6.51102 7.47845,6.51734 7.48142,6.52412 3.69515,2.73785 3.69219,2.73107 3.68913,2.72474 3.686,2.71885 3.68283,2.71337 3.67961,2.70827 3.67638,2.70355 3.67315,2.69918 3.66993,2.69514 3.66675,2.69141 "/>
     <polygon id="_544932312" class="fil1" points="4.2423,3.11674 8.02857,6.90301 8.02886,6.9106 8.02873,6.9179 8.02821,6.92494 8.02732,6.93174 8.02609,6.93832 8.02455,6.9447 8.02272,6.9509 8.02064,6.95694 8.01832,6.96284 8.0158,6.96862 8.0131,6.97431 8.01026,6.97991 8.00728,6.98546 8.00422,6.99098 8.00108,6.99647 7.99791,7.00198 7.99593,7.0054 7.99396,7.00883 7.992,7.01229 7.99009,7.01576 7.98822,7.01926 7.98641,7.02277 7.98469,7.0263 7.98305,7.02985 7.98151,7.03343 7.9801,7.03704 7.97882,7.04067 7.97769,7.04432 7.97672,7.04801 7.97592,7.05172 7.97532,7.05546 7.97492,7.05924 4.18865,3.27297 4.18905,3.26919 4.18965,3.26545 4.19045,3.26174 4.19142,3.25805 4.19255,3.25439 4.19383,3.25076 4.19524,3.24716 4.19678,3.24358 4.19842,3.24003 4.20015,3.2365 4.20195,3.23298 4.20382,3.22949 4.20574,3.22602 4.20769,3.22256 4.20966,3.21913 4.21164,3.2157 4.21481,3.2102 4.21795,3.2047 4.22102,3.19919 4.22399,3.19364 4.22683,3.18804 4.22953,3.18235 4.23206,3.17657 4.23437,3.17067 4.23646,3.16463 4.23828,3.15843 4.23982,3.15205 4.24105,3.14547 4.24194,3.13867 4.24246,3.13163 4.24259,3.12433 "/>
    </g>
    <path id="_637656904" class="fil1" d="M3.91119 4.82516l0 0zm-1.47539 -0.552776l0 0zm0.0653031 -0.0285748l0 0zm0.526508 -1.45391l0 0zm0.53302 -0.338209c0.121004,-0.600823 0.703882,-0.997406 1.30907,-0.886406 0.019252,0.0035315 0.0320039,0.0220118 0.0284724,0.0412638 -0.0035315,0.019248 -0.0220118,0.032 -0.0412638,0.0284685 -0.573236,-0.105138 -1.12517,0.275724 -1.2303,0.848957 -0.000653543,0.00356693 -0.00182283,0.00691339 -0.00341339,0.00997244 0.00128346,0.00158268 0.00237402,0.00312598 0.00324016,0.0046063 0.00467323,0.0088622 0.00597244,0.0194961 0.00279921,0.0298228l-0.00603543 0.0207953c0.00015748,-5.11811e-005 0.000314961,-0.000114173 0.00046063,-0.00019685 0.0114724,0.0142402 0.016315,0.032189 0.0151417,0.051811 -0.00140945,0.0245433 0.00152362,0.0504921 0.00803543,0.0715669l6.29921e-005 -6.69291e-005c0.0126535,0.0109016 0.0326929,0.0281772 0.0482559,0.0655591 0.00841732,0.0202835 0.0334488,0.0284803 0.0677913,0.0397205 0.00934646,0.00305906 0.0192598,0.00626378 0.0295,0.00977559 0.0134331,0.0046063 0.0274213,0.00974016 0.0414134,0.0157598 0.00946457,0.00406693 0.0189291,0.00853937 0.0282244,0.0135315 0.007,0.00262205 0.0135551,0.00559843 0.0185748,0.010874 0.000610236,0.000385827 0.00121654,0.000775591 0.0018189,0.00116929 -3.14961e-005,0.000389764 3.14961e-005,0.000783465 0.000181102,0.00114567l0.000992126 0.00080315c0.0234252,-0.0134134 0.0473031,-0.0261772 0.0709724,-0.037126 0.0248583,-0.0114488 0.0480197,-0.0254213 0.0657047,-0.0399764 0.0143858,-0.0118346 0.0239724,-0.0219488 0.027189,-0.0326024 0.00826378,-0.0273937 0.036689,-0.0337205 0.0622835,-0.0266772 0.0297677,0.00819291 0.0545551,0.0157717 0.0849685,0.0292047 0.0426614,0.0187913 0.12063,0.0517677 0.178945,0.0734764 0.032563,0.012122 0.0537441,0.021874 0.0560512,0.0220551 0.000791339,-0.000224409 0.00152362,-0.000645669 0.00218504,-0.00120472l-6.69291e-005 -7.48031e-005c0.00177953,-0.00156693 0.00334252,-0.00362598 0.00466535,-0.006l-4.33071e-005 -2.3622e-005c0.0101614,-0.0196457 0.0312795,-0.0330079 0.0539449,-0.032815 0.039437,0.00034252 0.103783,-0.0126299 0.135787,-0.0251063l-2.3622e-005 -5.11811e-005c0.0401929,-0.0158898 0.0863425,-0.019815 0.127209,-0.00901969 0.0209646,0.00551575 0.0334882,0.0269921 0.0279724,0.0479567 -0.00551575,0.0209685 -0.0269921,0.0334921 -0.0479567,0.0279764 -0.0245984,-0.0065 -0.0536102,-0.00351575 -0.0783268,0.00625197l-1.9685e-005 -5.51181e-005c-0.0361102,0.0149134 -0.108315,0.0288307 -0.154433,0.0302795 -0.00482677,0.00736614 -0.0104252,0.0140079 -0.0168228,0.0196299l-6.69291e-005 -7.87402e-005c-0.009,0.00810236 -0.0204567,0.0145354 -0.0324843,0.0179606l-1.1811e-005 -4.33071e-005c-0.0168189,0.00480709 -0.0573898,-0.00647244 -0.104921,-0.0241654 -0.0621732,-0.0231457 -0.140965,-0.0563898 -0.183244,-0.0750157l-0.0557559 -0.0204134c-0.0265157,0.0379685 -0.075937,0.0695472 -0.119835,0.0898543l-0.0351732 0.0180787c0.0133346,0.00794094 0.0311772,0.0158268 0.0591378,0.0240866 0.0680709,0.0200354 0.225866,0.133374 0.230823,0.209752 0.00272441,0.0412441 -0.0136575,0.0695709 -0.0306654,0.0989646 -0.0105354,0.0182126 -0.0214252,0.0370394 -0.0229882,0.0572638 0.000748031,0.033689 -0.000807087,0.140244 -0.00181496,0.20778 -0.000468504,0.000440945 -0.00076378,0.00106299 -0.000775591,0.00175591l-5.90551e-005 0.00404331c0.0348976,0.00427559 0.0851811,0.00884252 0.106795,0.00205118l0.00195276 -0.00116535 -3.54331e-005 -5.51181e-005c0.0228976,-0.014252 0.0525315,-0.0115039 0.0708819,0.0107795 0.0511772,0.0621654 0.0676063,0.136039 0.0938307,0.233075 0.022815,0.0844094 0.0634921,0.24422 0.0994488,0.261583l0.00864173 -0.00238976c0.016685,-0.00552362 0.037626,-0.00540551 0.0534094,0.0028622l3.14961e-005 -6.29921e-005c0.0343543,0.0174685 0.0752874,0.0303346 0.110059,0.0375709l0.0321811 0.0109882c0.0276102,0.0122008 0.0668425,0.00837402 0.100874,0.0437283 0.0150236,0.0156181 0.0145433,0.0404646 -0.0010748,0.0554882 -0.0156181,0.0150236 -0.0404685,0.0145433 -0.0554921,-0.0010748 -0.0114449,-0.0118898 -0.0484843,-0.0140709 -0.0759606,-0.0262244l-0.017063 -0.00603543c-0.0389291,-0.00805906 -0.0857953,-0.0230472 -0.124437,-0.0419803 -0.0212638,0.00741732 -0.0446102,0.00784252 -0.0652953,-0.00216142 -0.0661496,-0.0320394 -0.110126,-0.195917 -0.136701,-0.294933 -0.0190197,-0.0707756 -0.0387913,-0.156913 -0.071563,-0.205272 -0.0342283,0.011126 -0.0880551,0.00738976 -0.131366,0.00229134 -0.00254331,0.0913071 -0.0045315,0.179339 -0.00116142,0.248972 0.00434646,0.0905276 -0.0101535,0.297291 -0.0185315,0.396091l0.00124016 0.000307087c-0.000854331,-1.9685e-005 -0.00163386,0.000409449 -0.00209055,0.00108661 0.0570827,0.0145039 0.123146,0.0309961 0.156472,0.0256457l0.00168898 -0.000413386 -1.5748e-005 -4.72441e-005c0.0254685,-0.00852756 0.053315,0.0043189 0.0640236,0.0294449l5.51181e-005 -2.3622e-005c0.0523465,0.123 0.0875827,0.379276 0.112008,0.538287 0.012315,0.0801575 0.00269685,0.20987 0.037563,0.267039 0.0135079,0.00199606 0.0282795,0.00690551 0.0394567,0.0154409l5.11811e-005 -6.69291e-005c0.0328858,0.0247795 0.0897874,0.0479016 0.126343,0.057815l0.0321417 0.0134961 2.75591e-005 -5.51181e-005c0.0271457,0.0144173 0.0663228,0.0132559 0.0974173,0.0508622 0.0138346,0.0167205 0.0114961,0.0414961 -0.00522835,0.0553307 -0.0167205,0.0138386 -0.0414961,0.0115 -0.0553307,-0.00522441 -0.0107087,-0.0129528 -0.0475394,-0.0175709 -0.073748,-0.0314921l3.14961e-005 -5.90551e-005 -0.0159055 -0.00692913c-0.0454291,-0.0123543 -0.111209,-0.0397283 -0.15239,-0.0704685l-0.00438976 -0.00102362c-0.0201102,-0.00201969 -0.0384961,-0.0116811 -0.0502402,-0.0285787l7.48031e-005 -5.51181e-005c-0.0548268,-0.0767559 -0.0393189,-0.211024 -0.0536535,-0.304346 -0.0227323,-0.147988 -0.054689,-0.379181 -0.0989094,-0.5 -0.0455787,0.00354331 -0.108567,-0.011 -0.167661,-0.0259646 0.000275591,0.000519685 0.000732283,0.000937008 0.00130315,0.00114961l-0.0171457 0.0856063 -0.000114173 -2.75591e-005c-0.00798425,0.0353622 -0.0341693,0.0645354 -0.0348465,0.0678504 -0.00893307,0.0461299 -0.0292756,0.131075 -0.0641654,0.17702 -0.0122087,0.0160512 -0.0245236,0.0214094 -0.0358583,0.0249016 -0.0214449,0.052748 -0.0551535,0.124008 -0.0924764,0.177953 -0.0257362,0.0382874 -0.0573189,0.0432638 -0.059685,0.0451575 -0.00141339,0.00112992 -0.0589331,0.0989606 -0.109173,0.127429 -0.0113819,0.00647244 -0.0229764,0.00977953 -0.0338701,0.0118189 -0.00634252,0.00118898 -0.0124528,0.00194488 -0.0181457,0.00264961 -0.00154724,0.000192913 -0.000295276,-0.00241339 -0.000984252,-0.00805512l-4.33071e-005 -2.75591e-005c-0.035937,0.0586339 -0.0802598,0.113772 -0.149224,0.111323 -0.0323976,0.0304449 -0.100177,0.0550079 -0.145925,0.0475236 -0.037,-0.00605512 -0.0831772,-0.0232598 -0.109858,-0.0501811l-0.00556299 6.69291e-005 0 -0.000153543c-0.0324882,-0.00288976 -0.0768465,-0.00683071 -0.140776,-0.108398l6.69291e-005 -4.33071e-005 -0.000141732 -0.000232283c-0.000704724,0.00576378 0.000625984,0.00838583 -0.001,0.00818504 -0.00348425,-0.000429134 -0.00706693,-0.000870079 -0.0107323,-0.00140945 -0.0128307,-0.00188583 -0.026685,-0.0049685 -0.0409528,-0.0128976l3.14961e-005 -5.11811e-005c-0.0503898,-0.0279961 -0.107807,-0.126228 -0.109445,-0.127531 -0.0163189,-0.00569685 -0.037937,-0.0134961 -0.0597756,-0.0451496 -0.0556063,-0.0804252 -0.0716575,-0.12774 -0.128528,-0.202898l-0.030811 -0.0722598c-0.0277126,-0.0693346 -0.0680039,-0.172205 -0.0680866,-0.172563l-0.0163583 -0.0816535c-0.0602559,0.0153228 -0.125165,0.0306378 -0.171886,0.0270118 -0.0441063,0.120563 -0.0762913,0.35237 -0.0988858,0.5 -0.014378,0.0939409 0.00144488,0.226409 -0.0536417,0.304555 -0.0118228,0.0167756 -0.030126,0.0264173 -0.0500669,0.0284409l-0.00471654 0.00109843 -7.08661e-005 -0.000208661c-0.0415118,0.031185 -0.106402,0.058185 -0.152283,0.0705866l-2.75591e-005 -0.000102362 -0.0156654 0.00709055c-0.026185,0.0139173 -0.063063,0.0185354 -0.0737756,0.0314921 -0.0138346,0.0167244 -0.0386102,0.019063 -0.0553346,0.00522441 -0.0167205,-0.0138346 -0.0190591,-0.0386102 -0.00522441,-0.0553307 0.0311024,-0.0376102 0.0703504,-0.0364685 0.0974449,-0.0508622l0.0323228 -0.0133346 -2.75591e-005 -0.000106299c0.038378,-0.010378 0.0915827,-0.0325039 0.126264,-0.0578465l-7.48031e-005 -9.84252e-005c0.0110709,-0.0083622 0.0260512,-0.013311 0.0396299,-0.015252 0.0348189,-0.0572244 0.0252205,-0.186972 0.0374685,-0.267031 0.0234921,-0.153571 0.061185,-0.423047 0.112134,-0.538744 0.0109646,-0.0247756 0.0388661,-0.0374291 0.0640669,-0.0289646l0.00128346 0.000370079 0.00157087 0.000330709 1.1811e-005 -0.000102362c0.0334606,0.00411417 0.0930906,-0.0100157 0.148638,-0.0240945l-0.00141339 -0.00484646c-0.000240157,-0.000826772 -0.000874016,-0.0014252 -0.0016378,-0.00166535 -0.00791339,-0.11185 -0.00968898,-0.304949 -0.00518898,-0.398811 0.00340945,-0.0704488 0.00131102,-0.159654 -0.00116929,-0.252031 -0.0415748,0.00491339 -0.0884921,0.00811024 -0.124047,-0.000165354l2.3622e-005 -9.84252e-005c-0.00251575,-0.00057874 -0.00496063,-0.00125591 -0.00733858,-0.0020315 -0.0327638,0.0484685 -0.0517992,0.132256 -0.0716535,0.205909 -0.026685,0.0991024 -0.070626,0.262311 -0.136634,0.294283 -0.0206732,0.0100079 -0.0440197,0.00957874 -0.0652874,0.00216142 -0.0375197,0.0184016 -0.0874764,0.0347323 -0.125114,0.0421063l-0.0163583 0.0059252c-0.0275669,0.0121654 -0.064437,0.0143071 -0.0758622,0.0262087 -0.0150236,0.0156181 -0.039874,0.0161024 -0.0554921,0.00107874 -0.0156181,-0.0150236 -0.0161024,-0.039874 -0.00107874,-0.0554921 0.0339567,-0.0353701 0.0729843,-0.0314567 0.100768,-0.0437283l0.0329606 -0.0111378c0.0328425,-0.00644882 0.0767756,-0.0209134 0.10926,-0.0374213 0.0301732,-0.0153346 0.059874,0.000653543 0.0620787,-0.000409449 0.0374843,-0.0181024 0.0823386,-0.19726 0.105327,-0.282839 0.0249921,-0.0931378 0.0423465,-0.157791 0.0888701,-0.212913 0.0177205,-0.0209764 0.0474882,-0.0236929 0.0699646,-0.0096811l0.00337402 0.00162992 2.3622e-005 -9.84252e-005c0.0257283,0.00598819 0.0690197,0.00217717 0.103398,-0.00208268l-4.33071e-005 -0.000937008c-3.93701e-005,-0.000834646 -0.000488189,-0.00155512 -0.00114173,-0.00196457l-0.000251969 -0.0831102 4.33071e-005 -3.93701e-006 -0.000492126 -0.0657362c4.72441e-005,-0.020622 0.000291339,-0.0404724 0.000755906,-0.0592756 -0.00106299,-0.0431339 -0.0582283,-0.0844449 -0.0536457,-0.155988 0.00487402,-0.0761654 0.162843,-0.18976 0.230835,-0.209882l1.1811e-005 4.33071e-005c0.0300197,-0.00918898 0.0456339,-0.0157205 0.0602362,-0.0246142 0.000669291,0.000685039 0.00170472,0.000933071 0.0026378,0.00057874 -0.0444252,-0.0235157 -0.0817638,-0.0371299 -0.122992,-0.0711417 -0.0149646,-0.0123465 -0.0276732,-0.0255394 -0.0371299,-0.0390984l-0.0557795 0.0203189c-0.0421969,0.0186535 -0.120795,0.0518386 -0.182917,0.0749803 -0.0337835,0.0125866 -0.0641063,0.0219449 -0.084878,0.0246496 -0.00652756,0.00167717 -0.0135669,0.00169685 -0.0205157,-0.000275591 -0.0207362,-0.00592126 -0.0376181,-0.0198622 -0.0492953,-0.037622 -0.0472008,-0.00140157 -0.116921,-0.0151693 -0.154689,-0.0302677 -0.0237126,-0.00949606 -0.0532087,-0.0127283 -0.078063,-0.00609843 -0.0209685,0.00551575 -0.0424449,-0.00700787 -0.0479606,-0.0279724 -0.00551575,-0.0209685 0.00700787,-0.0424449 0.0279724,-0.0479606 0.042315,-0.0112126 0.0875039,-0.0066378 0.127933,0.00945669 0.0320079,0.0127402 0.0964724,0.0246024 0.135646,0.0245866 0.0227559,-7.87402e-006 0.0426969,0.0133622 0.053374,0.0330551l0.00661417 0.00720079c0.00237795,-0.000248031 0.0237992,-0.0100394 0.0564961,-0.0222244 0.058315,-0.0217244 0.136039,-0.0546142 0.178618,-0.0734409 0.0240551,-0.0106181 0.0830197,-0.0328386 0.107094,-0.0316732 0.0205709,0.001 0.0358937,0.0119764 0.0408228,0.031252 0.00183465,0.00740945 0.0142913,0.0205433 0.0264567,0.0305748 0.0337441,0.0278386 0.0730512,0.0422638 0.112374,0.0635472 0.0140354,0.00760236 0.0319449,0.0171772 0.0477717,0.0274921 0.000110236,-0.00019685 0.000192913,-0.000405512 0.000248031,-0.000622047 0.0125512,0.00088189 0.0238622,-0.034315 0.0426496,-0.0428976l0.0197126 -0.00878346c0.00376378,-0.00138189 0.00750394,-0.00270866 0.0112126,-0.00399606 0.00859843,-0.00298425 0.0170039,-0.00574016 0.0250354,-0.00837402 0.0342598,-0.0112283 0.0592953,-0.0194331 0.0677441,-0.039685 0.0155984,-0.0374921 0.0357244,-0.0548268 0.048437,-0.0657677 0.00675197,-0.0225039 0.00920079,-0.0478976 0.00778346,-0.0712913 -0.00141732,-0.0187953 0.00387795,-0.0370472 0.0146063,-0.0509291 0.000551181,0.000712598 0.00144488,0.00106693 0.00232677,0.000929134l-0.0065 -0.0224094c-0.00317717,-0.0103268 -0.00187402,-0.0209606 0.00279528,-0.0298228 0.000456693,-0.000988189 0.00143307,-0.00229921 0.00282677,-0.00385039 -0.00179921,-0.00326378 -0.00311024,-0.00686614 -0.0038189,-0.0107283 -0.105138,-0.573232 -0.657063,-0.954094 -1.2303,-0.848957 -0.019252,0.0035315 -0.0377362,-0.00922047 -0.0412638,-0.0284685 -0.0035315,-0.019252 0.00922047,-0.0377323 0.0284724,-0.0412638 0.605354,-0.111031 1.18838,0.285795 1.30917,0.886886 0.00181102,-0.000673228 0.00351181,-0.00120079 0.00507874,-0.00156299 0.016811,0.000688976 0.0319134,0.0122244 0.0363504,0.0293543 0.00200394,0.0076811 0.00385827,0.0150709 0.00553937,0.0221535 0.0017126,-0.000885827 0.00176378,-0.0033189 0.00011811,-0.00429528 0.0305472,-0.022689 0.0646693,-0.0290591 0.102154,-0.0290591l0 0.000125984c0.0377756,-0.000858268 0.0733504,0.0100906 0.0991732,0.029752 0.00011811,0.00026378 0.000287402,0.000492126 0.000496063,0.000685039 0.0015,-0.00622835 0.00312598,-0.012685 0.00487008,-0.0193622 0.00443701,-0.0171299 0.0195394,-0.0286654 0.0363504,-0.0293543 0.00122835,0.000173228 0.00269685,0.000543307 0.00435827,0.00108268z"/>
   </g>
  </g>
  <path class="fil2" d="M3.41333 -3.93701e-006c1.88513,0 3.41333,1.5282 3.41333,3.41333 0,1.88513 -1.5282,3.41333 -3.41333,3.41333 -1.88513,0 -3.41333,-1.5282 -3.41333,-3.41333 0,-1.88513 1.5282,-3.41333 3.41333,-3.41333z"/>
  <path class="fil3" d="M3.24131 2.51245c-0.019248,0.0035315 -0.0377283,-0.00922441 -0.0412598,-0.0284724 -0.105138,-0.573232 -0.657063,-0.954094 -1.2303,-0.848957 -0.019252,0.0035315 -0.0377362,-0.00922047 -0.0412638,-0.0284685 -0.0035315,-0.019252 0.00922047,-0.0377323 0.0284724,-0.0412638 0.611717,-0.112197 1.20063,0.294189 1.31283,0.905902 0.0035315,0.019252 -0.00922441,0.0377283 -0.0284764,0.0412598z"/>
  <path class="fil3" d="M3.58535 2.51245c0.019248,0.0035315 0.0377323,-0.00922441 0.0412598,-0.0284724 0.105138,-0.573232 0.657067,-0.954094 1.2303,-0.848957 0.019252,0.0035315 0.0377323,-0.00922047 0.0412638,-0.0284685 0.0035315,-0.019252 -0.00922047,-0.0377323 -0.0284724,-0.0412638 -0.611717,-0.112197 -1.20063,0.294189 -1.31283,0.905902 -0.0035315,0.019252 0.00922441,0.0377283 0.0284724,0.0412598z"/>
  <path class="fil4" d="M3.62136 2.55551l0.00787402 -0.0271299c0.00317323,-0.0103268 0.00187402,-0.0209606 -0.00279921,-0.0298228 -0.0107047,-0.0183228 -0.0560906,-0.0459567 -0.0701654,-0.0479449 -0.016811,0.000688976 -0.0319134,0.0122244 -0.0363504,0.0293543 -0.00245669,0.00940551 -0.0046811,0.018378 -0.00664567,0.0268819l0.000177165 7.08661e-005 0.107598 0.0484173c0.000110236,5.11811e-005 0.000212598,0.000110236 0.000311024,0.000173228z"/>
  <path class="fil5" d="M2.88554 2.88689c-0.0477677,-0.0260906 -0.0869606,-0.0392638 -0.130484,-0.0751693 -0.0149646,-0.0123465 -0.0276732,-0.0255394 -0.0371299,-0.0390984l-0.0557795 0.0203189c-0.0421969,0.0186535 -0.120795,0.0518386 -0.182917,0.0749803 -0.0337835,0.0125866 -0.0641063,0.0219449 -0.084878,0.0246496 -0.00652756,0.00167717 -0.0135669,0.00169685 -0.0205157,-0.000275591 -0.0207362,-0.00592126 -0.0376181,-0.0198622 -0.0492953,-0.037622 -0.0472008,-0.00140157 -0.116921,-0.0151693 -0.154689,-0.0302677 -0.0237126,-0.00949606 -0.0532087,-0.0127283 -0.078063,-0.00609843 -0.0209685,0.00551575 -0.0424449,-0.00700787 -0.0479606,-0.0279724 -0.00551575,-0.0209685 0.00700787,-0.0424449 0.0279724,-0.0479606 0.042315,-0.0112126 0.0875039,-0.0066378 0.127933,0.00945669 0.0320079,0.0127402 0.0964724,0.0246024 0.135646,0.0245866 0.0227559,-7.87402e-006 0.0426969,0.0133622 0.053374,0.0330551l0.00661417 0.00720079c0.00237795,-0.000248031 0.0237992,-0.0100394 0.0564961,-0.0222244 0.058315,-0.0217244 0.136039,-0.0546142 0.178618,-0.0734409 0.0240551,-0.0106181 0.0830197,-0.0328386 0.107094,-0.0316732 0.0205709,0.001 0.0358937,0.0119764 0.0408228,0.031252 0.00183465,0.00740945 0.0142913,0.0205433 0.0264567,0.0305748 0.0337441,0.0278386 0.0730512,0.0422638 0.112374,0.0635472 0.0158937,0.0086063 0.036752,0.0197441 0.0539331,0.031622l-0.0842677 0.0389213c-0.000704724,0.000326772 -0.0011811,0.000940945 -0.00135433,0.0016378z"/>
  <path class="fil5" d="M2.65841 3.56049c-0.0452047,0.00590157 -0.100189,0.0112874 -0.140543,0.0018937l2.3622e-005 -9.84252e-005c-0.00251575,-0.00057874 -0.00496063,-0.00125591 -0.00733858,-0.0020315 -0.0327638,0.0484685 -0.0517992,0.132256 -0.0716535,0.205909 -0.026685,0.0991024 -0.070626,0.262311 -0.136634,0.294283 -0.0206732,0.0100079 -0.0440197,0.00957874 -0.0652874,0.00216142 -0.0375197,0.0184016 -0.0874764,0.0347323 -0.125114,0.0421063l-0.0163583 0.0059252c-0.0275669,0.0121654 -0.064437,0.0143071 -0.0758622,0.0262087 -0.0150236,0.0156181 -0.039874,0.0161024 -0.0554921,0.00107874 -0.0156181,-0.0150236 -0.0161024,-0.039874 -0.00107874,-0.0554921 0.0339567,-0.0353701 0.0729843,-0.0314567 0.100768,-0.0437283l0.0329606 -0.0111378c0.0328425,-0.00644882 0.0767756,-0.0209134 0.10926,-0.0374213 0.0301732,-0.0153346 0.059874,0.000653543 0.0620787,-0.000409449 0.0374843,-0.0181024 0.0823386,-0.19726 0.105327,-0.282839 0.0249921,-0.0931378 0.0423465,-0.157791 0.0888701,-0.212913 0.0177205,-0.0209764 0.0474882,-0.0236929 0.0699646,-0.0096811l0.00337402 0.00162992 2.3622e-005 -9.84252e-005c0.0297362,0.00692126 0.0829252,0.000751969 0.118713,-0.00406693 -0.000204724,0.000377953 -0.000311024,0.000818898 -0.000291339,0.00127953l0.00364961 0.0758976c2.75591e-005,0.000594488 0.000271654,0.00113386 0.000641732,0.00154331z"/>
  <path class="fil5" d="M2.69293 4.29048c-0.0657008,0.0168189 -0.1405,0.0363661 -0.192646,0.0323189 -0.0441063,0.120563 -0.0762913,0.35237 -0.0988858,0.5 -0.014378,0.0939409 0.00144488,0.226409 -0.0536417,0.304555 -0.0118228,0.0167756 -0.030126,0.0264173 -0.0500669,0.0284409l-0.00471654 0.00109843 -7.08661e-005 -0.000208661c-0.0415118,0.031185 -0.106402,0.058185 -0.152283,0.0705866l-2.75591e-005 -0.000102362 -0.0156654 0.00709055c-0.026185,0.0139173 -0.063063,0.0185354 -0.0737756,0.0314921 -0.0138346,0.0167244 -0.0386102,0.019063 -0.0553346,0.00522441 -0.0167205,-0.0138346 -0.0190591,-0.0386102 -0.00522441,-0.0553307 0.0311024,-0.0376102 0.0703504,-0.0364685 0.0974449,-0.0508622l0.0323228 -0.0133346 -2.75591e-005 -0.000106299c0.038378,-0.010378 0.0915827,-0.0325039 0.126264,-0.0578465l-7.48031e-005 -9.84252e-005c0.0110709,-0.0083622 0.0260512,-0.013311 0.0396299,-0.015252 0.0348189,-0.0572244 0.0252205,-0.186972 0.0374685,-0.267031 0.0234921,-0.153571 0.061185,-0.423047 0.112173,-0.538728l-3.93701e-005 -1.5748e-005c0.0109646,-0.0247756 0.0388661,-0.0374291 0.0640669,-0.0289646l0.00127559 0.000405512 7.87402e-006 -3.54331e-005 0.00157087 0.000330709 1.1811e-005 -0.000102362c0.0375433,0.00461811 0.108024,-0.0137362 0.168728,-0.0292087 -0.000212598,0.000503937 -0.00026378,0.00107874 -9.84252e-005,0.00164567l0.0215236 0.0737795 9.05512e-005 0.000259843z"/>
  <path class="fil5" d="M4.13698 4.20509c0.061752,0.015374 0.145189,0.0388583 0.184067,0.0326181l0.00168898 -0.000413386 -1.5748e-005 -4.72441e-005c0.0254685,-0.00852756 0.053315,0.0043189 0.0640236,0.0294449l5.51181e-005 -2.3622e-005c0.0523465,0.123 0.0875827,0.379276 0.112008,0.538287 0.012315,0.0801575 0.00269685,0.20987 0.037563,0.267039 0.0135079,0.00199606 0.0282795,0.00690551 0.0394567,0.0154409l5.11811e-005 -6.69291e-005c0.0328858,0.0247795 0.0897874,0.0479016 0.126343,0.057815l0.0321417 0.0134961 2.75591e-005 -5.51181e-005c0.0271457,0.0144173 0.0663228,0.0132559 0.0974173,0.0508622 0.0138346,0.0167205 0.0114961,0.0414961 -0.00522835,0.0553307 -0.0167205,0.0138386 -0.0414961,0.0115 -0.0553307,-0.00522441 -0.0107087,-0.0129528 -0.0475394,-0.0175709 -0.073748,-0.0314921l3.14961e-005 -5.90551e-005 -0.0159055 -0.00692913c-0.0454291,-0.0123543 -0.111209,-0.0397283 -0.15239,-0.0704685l-0.00438976 -0.00102362c-0.0201102,-0.00201969 -0.0384961,-0.0116811 -0.0502402,-0.0285787l7.48031e-005 -5.51181e-005c-0.0548268,-0.0767559 -0.0393189,-0.211024 -0.0536535,-0.304346 -0.0227323,-0.147988 -0.054689,-0.379181 -0.0989094,-0.5 -0.0523976,0.0040748 -0.127807,-0.0157598 -0.193858,-0.0326496l5.90551e-005 -0.000299213 0.00998819 -0.0760866c0.000141732,-0.00106299 -0.00042126,-0.00205512 -0.00132677,-0.00251575z"/>
  <path class="fil5" d="M4.17077 3.48459c0.0335,0.00450787 0.0969961,0.011878 0.122028,0.00401181l0.00195276 -0.00116535 -3.54331e-005 -5.51181e-005c0.0228976,-0.014252 0.0525315,-0.0115039 0.0708819,0.0107795 0.0511772,0.0621654 0.0676063,0.136039 0.0938307,0.233075 0.022815,0.0844094 0.0634921,0.24422 0.0994488,0.261583l0.00864173 -0.00238976c0.016685,-0.00552362 0.037626,-0.00540551 0.0534094,0.0028622l3.14961e-005 -6.29921e-005c0.0343543,0.0174685 0.0752874,0.0303346 0.110059,0.0375709l0.0321811 0.0109882c0.0276102,0.0122008 0.0668425,0.00837402 0.100874,0.0437283 0.0150236,0.0156181 0.0145433,0.0404646 -0.0010748,0.0554882 -0.0156181,0.0150236 -0.0404685,0.0145433 -0.0554921,-0.0010748 -0.0114449,-0.0118898 -0.0484843,-0.0140709 -0.0759606,-0.0262244l-0.017063 -0.00603543c-0.0389291,-0.00805906 -0.0857953,-0.0230472 -0.124437,-0.0419803 -0.0212638,0.00741732 -0.0446102,0.00784252 -0.0652953,-0.00216142 -0.0661496,-0.0320394 -0.110126,-0.195917 -0.136701,-0.294933 -0.0190197,-0.0707756 -0.0387913,-0.156913 -0.071563,-0.205272 -0.0384016,0.0124843 -0.10148,0.00625591 -0.146689,0.000389764 2.75591e-005,-0.000141732 4.33071e-005,-0.000287402 4.33071e-005,-0.000437008l0.00115354 -0.077622c7.87402e-006,-0.00038189 -7.48031e-005,-0.000740157 -0.000224409,-0.00106299z"/>
  <path class="fil5" d="M3.87411 2.83614c0.0264567,-0.0154173 0.053622,-0.0301969 0.0805118,-0.0426378 0.0248583,-0.0114488 0.0480197,-0.0254213 0.0657047,-0.0399764 0.0143858,-0.0118346 0.0239724,-0.0219488 0.027189,-0.0326024 0.00826378,-0.0273937 0.036689,-0.0337205 0.0622835,-0.0266772 0.0297677,0.00819291 0.0545551,0.0157717 0.0849685,0.0292047 0.0426614,0.0187913 0.12063,0.0517677 0.178945,0.0734764 0.032563,0.012122 0.0537441,0.021874 0.0560512,0.0220551 0.000791339,-0.000224409 0.00152362,-0.000645669 0.00218504,-0.00120472l-6.69291e-005 -7.48031e-005c0.00177953,-0.00156693 0.00334252,-0.00362598 0.00466535,-0.006l-4.33071e-005 -2.3622e-005c0.0101614,-0.0196457 0.0312795,-0.0330079 0.0539449,-0.032815 0.039437,0.00034252 0.103783,-0.0126299 0.135787,-0.0251063l-2.3622e-005 -5.11811e-005c0.0401929,-0.0158898 0.0863425,-0.019815 0.127209,-0.00901969 0.0209646,0.00551575 0.0334882,0.0269921 0.0279724,0.0479567 -0.00551575,0.0209685 -0.0269921,0.0334921 -0.0479567,0.0279764 -0.0245984,-0.0065 -0.0536102,-0.00351575 -0.0783268,0.00625197l-1.9685e-005 -5.51181e-005c-0.0361102,0.0149134 -0.108315,0.0288307 -0.154433,0.0302795 -0.00482677,0.00736614 -0.0104252,0.0140079 -0.0168228,0.0196299l-6.69291e-005 -7.87402e-005c-0.009,0.00810236 -0.0204567,0.0145354 -0.0324843,0.0179606l-1.1811e-005 -4.33071e-005c-0.0168189,0.00480709 -0.0573898,-0.00647244 -0.104921,-0.0241654 -0.0621732,-0.0231457 -0.140965,-0.0563898 -0.183244,-0.0750157l-0.0557559 -0.0204134c-0.0265157,0.0379685 -0.075937,0.0695472 -0.119835,0.0898543l-0.0479213 0.0246299c-0.00011811,-0.000531496 -0.000405512,-0.00102362 -0.000862205,-0.00138976l-0.0645591 -0.051878 -6.29921e-005 -4.72441e-005z"/>
  <path class="fil4" d="M3.20612 2.55551l-0.00787008 -0.0271299c-0.00317717,-0.0103268 -0.00187402,-0.0209606 0.00279528,-0.0298228 0.00409055,-0.00884252 0.0492913,-0.0431024 0.0701693,-0.0479449 0.016811,0.000688976 0.0319134,0.0122244 0.0363504,0.0293543 0.00245669,0.00940551 0.0046811,0.018378 0.00664567,0.0268819l-0.000177165 7.08661e-005 -0.107598 0.0484173c-0.000110236,5.11811e-005 -0.000216535,0.000110236 -0.000314961,0.000173228z"/>
  <path class="fil3" d="M3.62366 2.54898c0.0114724,0.0142402 0.016315,0.032189 0.0151417,0.051811 -0.00140945,0.0245433 0.00152362,0.0504921 0.00803543,0.0715669l6.29921e-005 -6.69291e-005c0.0126535,0.0109016 0.0326929,0.0281772 0.0482559,0.0655591 0.00841732,0.0202835 0.0334488,0.0284803 0.0677913,0.0397205 0.036063,0.0118031 0.0806181,0.0257953 0.119531,0.0511102 -6.29921e-005,0.000783465 0.000251969,0.00158661 0.000913386,0.00211811l0.0645591 0.051878c0.00105118,0.00084252 0.00257874,0.000685039 0.00343307,-0.000350394 0.013437,0.0081378 0.0314606,0.0162047 0.0600984,0.0246654 0.0680709,0.0200354 0.225866,0.133374 0.230823,0.209752 0.00272441,0.0412441 -0.0136575,0.0695709 -0.0306654,0.0989646 -0.0105354,0.0182126 -0.0214252,0.0370394 -0.0229882,0.0572638 0.000748031,0.033689 -0.000807087,0.140244 -0.00181496,0.20778 -0.000468504,0.000440945 -0.00076378,0.00106299 -0.000775591,0.00175591l-0.00115354 0.077626c-3.93701e-006,0.00046063 0.000114173,0.000893701 0.000330709,0.00126378 -0.00259843,0.092811 -0.00470079,0.182484 -0.00127953,0.253189 0.00434646,0.0905276 -0.0101535,0.297291 -0.0185315,0.396091l0.00124016 0.000307087c-0.00123622,-2.75591e-005 -0.00232283,0.00088189 -0.00248819,0.0021378l-0.00998819 0.0760906c-0.000149606,0.00115354 0.000523622,0.00222835 0.00157087,0.00262205l-0.0171457 0.0856063 -0.000114173 -2.75591e-005c-0.00798425,0.0353622 -0.0341693,0.0645354 -0.0348465,0.0678504 -0.00893307,0.0461299 -0.0292756,0.131075 -0.0641654,0.17702 -0.0122087,0.0160512 -0.0245236,0.0214094 -0.0358583,0.0249016 -0.0214449,0.052748 -0.0551535,0.124008 -0.0924409,0.177976l-3.54331e-005 -2.3622e-005c-0.0257362,0.0382874 -0.0573189,0.0432638 -0.059685,0.0451575 -0.00141339,0.00112992 -0.0589331,0.0989606 -0.109173,0.127429 -0.0180118,0.0102441 -0.0365472,0.0125551 -0.0520157,0.0144685 -0.00154724,0.000192913 -0.000295276,-0.00241339 -0.000984252,-0.00805512l-4.33071e-005 -2.75591e-005c-0.035937,0.0586339 -0.0802598,0.113772 -0.149224,0.111323 -0.0323976,0.0304449 -0.100177,0.0550079 -0.145925,0.0475236 -0.037,-0.00605512 -0.0831772,-0.0232598 -0.109858,-0.0501811l-0.00556299 6.69291e-005 0 -0.000153543c-0.0324882,-0.00288976 -0.0768465,-0.00683071 -0.140776,-0.108398l6.69291e-005 -4.33071e-005 -0.000141732 -0.000232283c-0.000704724,0.00576378 0.000625984,0.00838583 -0.001,0.00818504 -0.0156772,-0.00192913 -0.0333386,-0.00411417 -0.051685,-0.0143071l3.14961e-005 -5.11811e-005c-0.0503898,-0.0279961 -0.107807,-0.126228 -0.109445,-0.127531 -0.0163189,-0.00569685 -0.037937,-0.0134961 -0.0597756,-0.0451496 -0.0556063,-0.0804252 -0.0716575,-0.12774 -0.128528,-0.202898l-0.030811 -0.0722598c-0.0277126,-0.0693346 -0.0680039,-0.172205 -0.0680866,-0.172563l-0.0173543 -0.0866339c0.000346457,-0.000566929 0.00046063,-0.00127559 0.000259843,-0.00196063l-0.0215236 -0.0737835c-0.000240157,-0.000826772 -0.000874016,-0.0014252 -0.0016378,-0.00166535 -0.00791339,-0.11185 -0.00968898,-0.304949 -0.00518898,-0.398811 0.00343307,-0.0709213 0.00128346,-0.160854 -0.00122047,-0.253898 0.000543307,-0.000476378 0.000877953,-0.00118898 0.000838583,-0.0019685l-0.00364961 -0.0758976c-3.93701e-005,-0.000834646 -0.000488189,-0.00155512 -0.00114173,-0.00196457l-0.000251969 -0.0831102 4.33071e-005 -3.93701e-006 -0.000492126 -0.0657362c4.72441e-005,-0.020622 0.000291339,-0.0404724 0.000755906,-0.0592756 -0.00106299,-0.0431339 -0.0582283,-0.0844449 -0.0536457,-0.155988 0.00487402,-0.0761654 0.162843,-0.18976 0.230835,-0.209882l1.1811e-005 4.33071e-005c0.0300197,-0.00918898 0.0456339,-0.0157205 0.0602362,-0.0246142 0.000704724,0.000720472 0.0018189,0.00096063 0.0027874,0.000515748l0.0856969 -0.0395827c0.000704724,-0.000322835 0.0011811,-0.000940945 0.00135433,-0.0016378 0.0125512,0.00088189 0.0238622,-0.034315 0.0426496,-0.0428976l0.0197008 -0.0088189 1.1811e-005 3.54331e-005c0.0124921,-0.00458268 0.0247559,-0.00860236 0.036248,-0.0123701 0.0342598,-0.0112283 0.0592953,-0.0194331 0.0677441,-0.039685 0.0155984,-0.0374921 0.0357244,-0.0548268 0.048437,-0.0657677 0.00675197,-0.0225039 0.00920079,-0.0478976 0.00778346,-0.0712913 -0.00141732,-0.0187953 0.00387795,-0.0370472 0.0146063,-0.0509291 0.000681102,0.00088189 0.00189764,0.00121654 0.00295276,0.000740157l0.107602 -0.0484213c0.00183465,-0.000826772 0.00192913,-0.00335433 0.000244094,-0.00435433 0.0305472,-0.022689 0.0646693,-0.0290591 0.102154,-0.0290591l0 0.000125984c0.0377756,-0.000858268 0.0733504,0.0100906 0.0991732,0.029752 0.000440945,0.000988189 0.00162205,0.00149606 0.00280709,0.00149606 0.000200787,0.000200787 0.000433071,0.000366142 0.000700787,0.000488189l0.10337 0.0484213c0.000740157,0.000346457 0.00156299,0.000295276 0.00222835,-7.08661e-005z"/>
  <path class="fil6" d="M3.79244 2.78734c0.0134291,0.0046063 0.0274213,0.00974016 0.0414134,0.0157598 0.014878,0.0125039 0.0356496,0.0119685 0.0473819,0.0250315 0.000173228,0.00069685 0.000751969,0.00115354 0.00135433,0.0016378l0.053815 0.043626 0.0115394 0.00927559c0.00105118,0.00084252 0.00257874,0.000685039 0.00343307,-0.000350394 0.013437,0.0081378 0.0314606,0.0162047 0.0600984,0.0246654 0.0680709,0.0200354 0.225866,0.133374 0.230823,0.209752 0.00272441,0.0412441 -0.0136575,0.0695709 -0.0306654,0.0989646 -0.0105354,0.0182126 -0.0214252,0.0370394 -0.0229882,0.0572638 0.000748031,0.033689 -0.000807087,0.140244 -0.00181496,0.20778 -0.000468504,0.000440945 -0.00076378,0.00106299 -0.000775591,0.00175591l-0.00115354 0.077626c-3.93701e-006,0.00046063 0.000114173,0.000893701 0.000330709,0.00126378 -0.00259843,0.092811 -0.00470079,0.182484 -0.00127953,0.253189 0.00434646,0.0905276 -0.0101535,0.297291 -0.0185315,0.396091l0.00124016 0.000307087c-0.00123622,-2.75591e-005 -0.00232283,0.00088189 -0.00248819,0.0021378l-0.00998819 0.0760906c-0.000149606,0.00115354 0.000523622,0.00222835 0.00157087,0.00262205l-0.0171457 0.0856063 -0.000114173 -2.75591e-005c-0.00798425,0.0353622 -0.0341693,0.0645354 -0.0348465,0.0678504 -0.00893307,0.0461299 -0.0292756,0.131075 -0.0641654,0.17702 -0.0122087,0.0160512 -0.0245236,0.0214094 -0.0358583,0.0249016 -0.0214449,0.052748 -0.0551535,0.124008 -0.0924409,0.177976l-3.54331e-005 -2.3622e-005c-0.0257362,0.0382874 -0.0573189,0.0432638 -0.059685,0.0451575 -0.00141339,0.00112992 -0.0589331,0.0989606 -0.109173,0.127429 -0.0113858,0.00647244 -0.0229764,0.00977559 -0.0338701,0.011815 -0.174736,-0.498583 -0.28326,-1.17078 -0.28326,-1.84745 0,-0.152713 0.144138,-0.288161 0.36728,-0.37474z"/>
  <path class="fil6" d="M3.1261 5.01079c-0.0128268,-0.00188976 -0.0266811,-0.00497244 -0.0409528,-0.0128976l3.14961e-005 -5.11811e-005c-0.0503898,-0.0279961 -0.107807,-0.126228 -0.109445,-0.127531 -0.0163189,-0.00569685 -0.037937,-0.0134961 -0.0597756,-0.0451496 -0.0556063,-0.0804252 -0.0716575,-0.12774 -0.128528,-0.202898l-0.030811 -0.0722598c-0.0277126,-0.0693346 -0.0680039,-0.172205 -0.0680866,-0.172563l-0.0173543 -0.0866339c0.000346457,-0.000566929 0.00046063,-0.00127559 0.000259843,-0.00196063l-0.0215236 -0.0737835c-0.000240157,-0.000826772 -0.000874016,-0.0014252 -0.0016378,-0.00166535 -0.00791339,-0.11185 -0.00968898,-0.304949 -0.00518898,-0.398811 0.00343307,-0.0709213 0.00128346,-0.160854 -0.00122047,-0.253898 0.000543307,-0.000476378 0.000877953,-0.00118898 0.000838583,-0.0019685l-0.00364961 -0.0758976c-3.93701e-005,-0.000834646 -0.000488189,-0.00155512 -0.00114173,-0.00196457l-0.000251969 -0.0831102 4.33071e-005 -3.93701e-006 -0.000492126 -0.0657362c4.72441e-005,-0.020622 0.000291339,-0.0404724 0.000755906,-0.0592756 -0.00106299,-0.0431339 -0.0582283,-0.0844449 -0.0536457,-0.155988 0.00487402,-0.0761654 0.162843,-0.18976 0.230835,-0.209882l1.1811e-005 4.33071e-005c0.0300197,-0.00918898 0.0456339,-0.0157205 0.0602362,-0.0246142 0.000704724,0.000720472 0.0018189,0.00096063 0.0027874,0.000515748l0.0856969 -0.0395827c0.000704724,-0.000322835 0.0011811,-0.000940945 0.00135433,-0.0016378 0.0125512,0.00088189 0.0238622,-0.034315 0.0426496,-0.0428976l0.0197008 -0.0088189 1.1811e-005 3.54331e-005c0.00376378,-0.00138189 0.00750787,-0.00270866 0.0112126,-0.00399606 0.225252,0.0865118 0.370972,0.222622 0.370972,0.376177 0,0.67724 -0.108697,1.34999 -0.283693,1.8487z"/>
  <line class="fil3" x1="3.18782" y1="2.60079" x2="3.18782" y2= "2.60079" />
  <line class="fil3" x1="2.12481" y1="2.72991" x2="2.12481" y2= "2.72991" />
  <line class="fil3" x1="2.11897" y1="2.80828" x2="2.11897" y2= "2.80828" />
  <line class="fil3" x1="2.07683" y1="4.0276" x2="2.07683" y2= "4.0276" />
  <line class="fil3" x1="2.09188" y1="4.10472" x2="2.09188" y2= "4.10472" />
  <line class="fil3" x1="4.55559" y1="5.15578" x2="4.55559" y2= "5.15578" />
  <line class="fil3" x1="4.55999" y1="5.15677" x2="4.55999" y2= "5.15677" />
  <line class="fil3" x1="4.75153" y1="4.11063" x2="4.75153" y2= "4.11063" />
  <line class="fil3" x1="4.78317" y1="4.03872" x2="4.78317" y2= "4.03872" />
  <line class="fil3" x1="4.751" y1="4.02773" x2="4.751" y2= "4.02773" />
  <line class="fil3" x1="4.44206" y1="2.80976" x2="4.44206" y2= "2.80976" />
  <line class="fil3" x1="3.6388" y1="2.60079" x2="3.6388" y2= "2.60079" />
  <path class="fil7" d="M3.64878 2.67811c0.00232677,0.00606693 -0.00188583,-0.00527165 -0.00189764,-0.00580315l-4.72441e-005 5.11811e-005c0.000594488,0.00191732 0.00118898,0.00370079 0.00177953,0.00534252l0.000165354 0.000409449z"/>
  <path class="fil8" d="M3.58295 3.24776c-0.0153622,-0.0153661 -0.0402795,-0.0153661 -0.0556417,0 -0.0153661,0.0153622 -0.0153661,0.0402795 0,0.0556417l0.370445 0.314803 -0.314803 -0.370445z"/>
  <path class="fil8" d="M3.22606 3.72765c0.0111181,-0.0185945 0.0352087,-0.0246496 0.0537992,-0.0135315 0.0185906,0.011122 0.0246457,0.0352126 0.0135276,0.0538031l-0.289902 0.407028 0.222575 -0.447299z"/>
  <path class="fil8" d="M3.58879 3.72765c-0.0111181,-0.0185945 -0.0352087,-0.0246496 -0.0537992,-0.0135315 -0.0185906,0.011122 -0.0246457,0.0352126 -0.0135276,0.0538031l0.289902 0.407028 -0.222575 -0.447299z"/>
  <path class="fil8" d="M3.1698 4.28408c0.00806299,-0.0201181 0.0309134,-0.0298898 0.0510315,-0.0218268 0.0201181,0.00806693 0.0298898,0.0309134 0.0218268,0.0510315l-0.208433 0.415331 0.135575 -0.444535z"/>
  <path class="fil8" d="M3.65735 4.28408c-0.00806299,-0.0201181 -0.0309134,-0.0298898 -0.0510315,-0.0218268 -0.0201181,0.00806693 -0.0298898,0.0309134 -0.0218268,0.0510315l0.208433 0.415331 -0.135575 -0.444535z"/>
  <path class="fil8" d="M3.2319 3.24776c0.0153622,-0.0153661 0.0402795,-0.0153661 0.0556417,0 0.0153661,0.0153622 0.0153661,0.0402795 0,0.0556417l-0.370445 0.314803 0.314803 -0.370445z"/>
  <line class="fil9" x1="2.7874" y1="4.62228" x2="2.7874" y2= "4.62228" />
 </g>
</svg>
