<?xml version="1.0" encoding="UTF-8"?>
<!DOCTYPE svg PUBLIC "-//W3C//DTD SVG 1.1//EN" "http://www.w3.org/Graphics/SVG/1.1/DTD/svg11.dtd">
<!-- Creator: CorelDRAW -->
<svg xmlns="http://www.w3.org/2000/svg" xml:space="preserve" width="6.82666in" height="6.82666in" style="shape-rendering:geometricPrecision; text-rendering:geometricPrecision; image-rendering:optimizeQuality; fill-rule:evenodd; clip-rule:evenodd"
viewBox="0 0 6.82666 6.82666"
 xmlns:xlink="http://www.w3.org/1999/xlink">
 <defs>
  <style type="text/css">
   <![CDATA[
    .fil2 {fill:none}
    .fil10 {fill:#40292A}
    .fil8 {fill:#424242}
    .fil4 {fill:#663300}
    .fil6 {fill:#82400E}
    .fil1 {fill:#00000000}
    .fil11 {fill:#BF8D43}
    .fil5 {fill:#CC984A}
    .fil0 {fill:#00000000}
    .fil3 {fill:#DCA553}
    .fil7 {fill:#EEEEEE}
    .fil9 {fill:#FAFAFA}
   ]]>
  </style>
   <clipPath id="id0">
    <path d="M3.41333 -3.93701e-006c1.88513,0 3.41333,1.5282 3.41333,3.41333 0,1.88513 -1.5282,3.41333 -3.41333,3.41333 -1.88513,0 -3.41333,-1.5282 -3.41333,-3.41333 0,-1.88513 1.5282,-3.41333 3.41333,-3.41333z"/>
   </clipPath>
 </defs>
 <g id="Layer_x0020_1">
  <metadata id="CorelCorpID_0Corel-Layer"/>
  <path class="fil0" d="M3.41333 -3.93701e-006c1.88513,0 3.41333,1.5282 3.41333,3.41333 0,1.88513 -1.5282,3.41333 -3.41333,3.41333 -1.88513,0 -3.41333,-1.5282 -3.41333,-3.41333 0,-1.88513 1.5282,-3.41333 3.41333,-3.41333z"/>
  <g style="clip-path:url(#id0)">
   <g id="_637661128">
    <g>
     <polygon id="_4627446481" class="fil1" points="5.05881,2.92624 8.84507,6.71251 8.84456,6.7167 8.84404,6.7209 8.84353,6.72509 8.84301,6.7293 8.8425,6.7335 8.84199,6.7377 8.84148,6.74189 8.84098,6.74608 8.84048,6.75025 8.83999,6.75441 8.8395,6.75856 8.83903,6.76269 8.83856,6.76679 8.8381,6.77087 8.83765,6.77493 8.8372,6.77895 5.05094,2.99268 5.05138,2.98865 5.05183,2.9846 5.05229,2.98052 5.05276,2.97641 5.05324,2.97229 5.05372,2.96814 5.05422,2.96398 5.05471,2.95981 5.05522,2.95562 5.05572,2.95143 5.05623,2.94723 5.05674,2.94303 5.05726,2.93882 5.05778,2.93463 5.05829,2.93043 "/>
     <polygon id="_462744672" class="fil1" points="5.14142,3.11869 8.92769,6.90496 8.92866,6.9101 8.92963,6.91522 8.93061,6.92033 8.93159,6.92538 8.93257,6.93037 8.93355,6.93529 8.93454,6.94011 8.93552,6.94481 8.93652,6.94937 8.93752,6.95379 8.93852,6.95804 8.93952,6.9621 8.94054,6.96596 8.94155,6.9696 8.94257,6.973 8.9436,6.97614 5.15733,3.18987 5.1563,3.18672 5.15528,3.18333 5.15427,3.17969 5.15326,3.17583 5.15225,3.17177 5.15125,3.16752 5.15025,3.1631 5.14926,3.15854 5.14827,3.15383 5.14728,3.14902 5.1463,3.1441 5.14532,3.13911 5.14434,3.13406 5.14337,3.12895 5.14239,3.12383 "/>
     <polygon id="_462749208" class="fil1" points="5.18276,3.20277 8.96903,6.98904 8.9732,6.99486 8.97624,7.00141 8.97799,7.00854 8.97832,7.01609 5.19205,3.22981 5.19172,3.22226 5.18997,3.21514 5.18694,3.20859 "/>
     <polygon id="_462749256" class="fil1" points="5.19205,3.22981 8.97832,7.01609 8.9781,7.02016 8.97791,7.02426 8.97774,7.02837 8.9776,7.03249 8.97747,7.03663 8.97737,7.04079 8.97728,7.04496 8.97722,7.04914 8.97717,7.05333 8.97715,7.05754 8.97713,7.06176 8.97714,7.06599 8.97716,7.07023 8.97719,7.07448 8.97724,7.07874 8.9773,7.083 8.97737,7.08728 8.97746,7.09156 8.97756,7.09585 8.97766,7.10015 8.97778,7.10444 8.9779,7.10875 8.97803,7.11306 8.97817,7.11737 8.97831,7.12169 8.97846,7.12601 8.97862,7.13033 8.97878,7.13465 8.97894,7.13898 8.9791,7.1433 8.97927,7.14763 8.97943,7.15195 5.19317,3.36568 5.193,3.36135 5.19283,3.35703 5.19267,3.35271 5.19251,3.34838 5.19235,3.34406 5.1922,3.33974 5.19205,3.33542 5.19191,3.3311 5.19176,3.32679 5.19163,3.32248 5.19151,3.31817 5.19139,3.31387 5.19129,3.30958 5.19119,3.30529 5.19111,3.301 5.19104,3.29673 5.19097,3.29246 5.19093,3.2882 5.19089,3.28396 5.19087,3.27972 5.19087,3.27548 5.19088,3.27127 5.19091,3.26706 5.19095,3.26287 5.19102,3.25869 5.1911,3.25452 5.1912,3.25036 5.19133,3.24622 5.19148,3.24209 5.19165,3.23798 5.19183,3.23389 "/>
     <polygon id="_462748872" class="fil1" points="5.19317,3.36568 8.97943,7.15195 8.97956,7.1553 8.97969,7.15864 8.97981,7.16198 8.97994,7.16532 8.98007,7.16866 8.98019,7.172 8.98031,7.17533 8.98043,7.17867 5.19416,3.3924 5.19404,3.38906 5.19392,3.38573 5.1938,3.38239 5.19368,3.37905 5.19355,3.37571 5.19342,3.37237 5.1933,3.36902 "/>
     <polygon id="_462749856" class="fil1" points="5.19416,3.3924 8.98043,7.17867 8.98088,7.19215 8.98127,7.20558 8.98157,7.21895 8.98177,7.23224 8.98184,7.24546 8.98176,7.25857 8.98151,7.27157 8.98107,7.28446 8.98041,7.29721 8.97952,7.30981 8.97838,7.32226 8.97696,7.33454 8.97524,7.34664 8.9732,7.35855 8.97082,7.37025 8.96808,7.38174 8.96496,7.39299 8.96143,7.404 8.95748,7.41477 8.95308,7.42527 8.94821,7.43549 8.94285,7.44542 8.93698,7.45506 8.93058,7.46437 8.92363,7.47337 8.9161,7.48203 8.90797,7.49034 8.89923,7.49829 8.88985,7.50587 8.87981,7.51306 8.86909,7.51986 8.85767,7.52625 5.0714,3.73998 5.08282,3.73359 5.09354,3.72679 5.10358,3.7196 5.11296,3.71202 5.1217,3.70407 5.12983,3.69576 5.13736,3.6871 5.14431,3.6781 5.15072,3.66878 5.15659,3.65915 5.16194,3.64922 5.16681,3.639 5.17121,3.6285 5.17517,3.61773 5.17869,3.60672 5.18181,3.59546 5.18456,3.58398 5.18693,3.57228 5.18897,3.56037 5.19069,3.54827 5.19211,3.53599 5.19326,3.52354 5.19415,3.51094 5.1948,3.49819 5.19524,3.4853 5.19549,3.4723 5.19557,3.45919 5.1955,3.44597 5.1953,3.43268 5.195,3.41931 5.19461,3.40588 "/>
     <polygon id="_462750096" class="fil1" points="4.39188,3.10236 8.17815,6.88863 8.18718,6.89843 8.19601,6.90848 8.20466,6.91878 8.21319,6.92934 8.22163,6.94019 8.23001,6.95133 8.23839,6.96278 8.24679,6.97455 8.25525,6.98666 8.26382,6.99912 8.27253,7.01195 8.28143,7.02515 8.29054,7.03875 8.29991,7.05275 8.30959,7.06717 8.3196,7.08203 8.32998,7.09733 4.54372,3.31106 4.53333,3.29576 4.52332,3.2809 4.51365,3.26648 4.50427,3.25248 4.49516,3.23888 4.48626,3.22568 4.47755,3.21285 4.46898,3.20039 4.46052,3.18828 4.45212,3.17651 4.44374,3.16506 4.43536,3.15391 4.42692,3.14307 4.41839,3.1325 4.40974,3.12221 4.40091,3.11216 "/>
     <polygon id="_462749832" class="fil1" points="4.54372,3.31106 8.32998,7.09733 8.33342,7.10253 8.33671,7.10781 8.33987,7.11318 8.3429,7.11862 8.34582,7.12415 8.34864,7.12975 8.35137,7.13543 8.35402,7.14119 8.3566,7.14702 8.35913,7.15293 8.36161,7.15891 8.36406,7.16496 8.36648,7.17108 8.3689,7.17727 8.37132,7.18353 8.37376,7.18985 8.37621,7.19625 8.3787,7.2027 8.38124,7.20922 8.38384,7.2158 8.3865,7.22244 8.38925,7.22915 8.39209,7.23591 8.39504,7.24273 8.3981,7.2496 8.40128,7.25654 8.40461,7.26352 8.40808,7.27056 8.41172,7.27765 8.41553,7.28478 8.41952,7.29197 8.4237,7.29921 8.43214,7.31231 8.44181,7.32521 8.45261,7.33784 4.66635,3.55157 4.65554,3.53894 4.64587,3.52604 4.63744,3.51294 4.63325,3.5057 4.62926,3.49851 4.62545,3.49137 4.62181,3.48428 4.61834,3.47725 4.61502,3.47026 4.61183,3.46333 4.60877,3.45646 4.60583,3.44964 4.60298,3.44288 4.60024,3.43617 4.59757,3.42953 4.59497,3.42295 4.59243,3.41643 4.58994,3.40998 4.58749,3.40358 4.58506,3.39726 4.58263,3.391 4.58022,3.38481 4.57779,3.37869 4.57534,3.37264 4.57286,3.36666 4.57033,3.36075 4.56775,3.35492 4.5651,3.34916 4.56237,3.34348 4.55956,3.33787 4.55663,3.33235 4.5536,3.32691 4.55044,3.32154 4.54715,3.31626 "/>
     <polygon id="_462749760" class="fil1" points="5.0714,3.73998 8.85767,7.52625 8.85264,7.52885 8.8476,7.53137 8.84256,7.53383 8.83751,7.5362 8.83244,7.53851 8.82738,7.54074 8.8223,7.54289 8.81722,7.54498 8.81213,7.54699 8.80704,7.54893 8.80194,7.5508 8.79684,7.55259 8.79174,7.55431 8.78663,7.55596 8.78152,7.55753 8.77641,7.55904 8.7713,7.56047 8.76618,7.56183 8.76107,7.56312 8.75595,7.56433 8.75084,7.56548 8.74572,7.56656 8.74061,7.56756 8.7355,7.56849 8.7304,7.56935 8.7253,7.57014 8.7202,7.57085 8.7151,7.5715 8.71001,7.57208 8.70493,7.57258 8.69985,7.57302 8.69478,7.57339 8.69017,7.57366 8.68557,7.57387 8.68098,7.57402 8.67639,7.57412 8.67181,7.57416 8.66724,7.57415 8.66269,7.57407 8.65813,7.57394 4.87186,3.78767 4.87642,3.7878 4.88098,3.78787 4.88555,3.78789 4.89013,3.78785 4.89471,3.78775 4.89931,3.7876 4.90391,3.78739 4.90851,3.78711 4.91358,3.78675 4.91866,3.78631 4.92374,3.78581 4.92883,3.78523 4.93393,3.78458 4.93903,3.78387 4.94413,3.78307 4.94924,3.78222 4.95435,3.78128 4.95946,3.78028 4.96457,3.77921 4.96969,3.77806 4.9748,3.77685 4.97991,3.77556 4.98503,3.7742 4.99014,3.77277 4.99526,3.77126 5.00037,3.76969 5.00547,3.76804 5.01057,3.76631 5.01568,3.76452 5.02078,3.76266 5.02587,3.76072 5.03095,3.75871 5.03604,3.75662 5.04111,3.75446 5.04618,3.75224 5.05124,3.74993 5.05629,3.74756 5.06133,3.7451 5.06637,3.74258 "/>
     <polygon id="_462750048" class="fil1" points="5.1933,4.01286 8.97956,7.79913 8.97988,7.80394 8.98023,7.8087 8.98063,7.81341 8.98106,7.81808 8.98153,7.8227 8.98204,7.82728 8.98259,7.83182 8.98317,7.83631 8.98379,7.84077 8.98444,7.84518 8.98513,7.84956 8.98585,7.85389 8.98661,7.85819 8.9874,7.86246 8.98823,7.86669 8.98909,7.87088 8.98998,7.87505 8.9909,7.87918 8.99185,7.88328 8.99284,7.88736 8.99386,7.8914 8.9949,7.89542 8.99598,7.89941 8.99709,7.90338 8.99822,7.90733 8.99938,7.91125 9.00057,7.91515 9.00179,7.91903 9.00304,7.92289 9.00431,7.92673 9.0056,7.93055 9.00693,7.93436 5.22066,4.14809 5.21933,4.14428 5.21804,4.14046 5.21677,4.13661 5.21552,4.13276 5.2143,4.12887 5.21311,4.12498 5.21195,4.12106 5.21082,4.11711 5.20971,4.11314 5.20863,4.10915 5.20759,4.10513 5.20657,4.10109 5.20559,4.09701 5.20463,4.09291 5.20371,4.08878 5.20282,4.08461 5.20196,4.08041 5.20113,4.07619 5.20034,4.07192 5.19959,4.06762 5.19886,4.06328 5.19817,4.05891 5.19752,4.0545 5.1969,4.05004 5.19632,4.04555 5.19577,4.04101 5.19526,4.03643 5.1948,4.03181 5.19436,4.02714 5.19396,4.02243 5.19361,4.01767 "/>
     <polygon id="_462749976" class="fil1" points="5.22066,4.14809 9.00693,7.93436 9.00968,7.94202 9.01255,7.94967 9.01552,7.95729 9.0186,7.9649 9.02177,7.9725 9.02504,7.98011 9.02839,7.98773 9.03183,7.99537 9.03535,8.00303 9.03894,8.01072 9.0426,8.01844 9.04633,8.02621 9.05013,8.03404 9.05398,8.04191 9.05788,8.04986 9.06183,8.05787 5.27556,4.2716 5.27161,4.26359 5.26771,4.25564 5.26386,4.24776 5.26007,4.23994 5.25633,4.23217 5.25267,4.22444 5.24908,4.21676 5.24556,4.20909 5.24212,4.20146 5.23877,4.19384 5.2355,4.18623 5.23233,4.17863 5.22926,4.17102 5.22628,4.16339 5.22341,4.15575 "/>
     <polygon id="_462750024" class="fil1" points="5.27556,4.2716 9.06183,8.05787 9.06334,8.06107 9.06455,8.06439 9.06544,8.06783 9.06602,8.07136 9.06626,8.07495 9.06615,8.07859 9.06568,8.08226 9.06484,8.08594 5.27857,4.29967 5.27941,4.29599 5.27988,4.29232 5.27999,4.28868 5.27975,4.28509 5.27918,4.28156 5.27828,4.27812 5.27707,4.2748 "/>
     <polygon id="_462750072" class="fil1" points="4.96483,4.1333 8.7511,7.91957 8.74816,7.91654 8.74512,7.91363 8.74199,7.91085 8.73876,7.9082 8.73543,7.90567 8.73201,7.90325 8.7285,7.90095 4.94223,4.11468 4.94574,4.11698 4.94917,4.11939 4.95249,4.12193 4.95572,4.12458 4.95885,4.12736 4.96189,4.13027 "/>
     <polygon id="_462749424" class="fil1" points="4.94223,4.11468 8.7285,7.90095 8.72435,7.89844 8.72006,7.89604 8.71563,7.89375 8.71106,7.89157 8.70634,7.88948 8.70149,7.8875 8.6965,7.88561 8.69138,7.88381 8.68612,7.8821 8.68073,7.88048 8.6752,7.87894 8.66955,7.87748 8.66376,7.87609 8.65784,7.87478 8.6518,7.87353 8.64563,7.87235 8.63933,7.87124 8.63291,7.87019 8.62637,7.86919 8.6197,7.86824 8.61292,7.86734 8.60602,7.8665 8.59899,7.86569 8.59185,7.86493 8.58459,7.8642 8.57722,7.8635 8.56974,7.86284 8.56215,7.86221 8.55444,7.86159 8.54662,7.86101 8.53869,7.86043 8.53066,7.85988 4.74439,4.07361 4.75243,4.07416 4.76035,4.07474 4.76817,4.07532 4.77588,4.07594 4.78347,4.07657 4.79096,4.07723 4.79833,4.07793 4.80558,4.07865 4.81272,4.07942 4.81975,4.08022 4.82665,4.08107 4.83344,4.08197 4.8401,4.08291 4.84665,4.08391 4.85307,4.08497 4.85936,4.08608 4.86553,4.08726 4.87157,4.0885 4.87749,4.08982 4.88328,4.0912 4.88894,4.09267 4.89446,4.09421 4.89985,4.09583 4.90511,4.09754 4.91024,4.09934 4.91522,4.10123 4.92007,4.10321 4.92479,4.1053 4.92936,4.10748 4.93379,4.10977 4.93808,4.11217 "/>
     <polygon id="_462749496" class="fil1" points="4.74439,4.07361 8.53066,7.85988 8.51892,7.85901 8.50722,7.85802 8.49555,7.85689 8.48392,7.85564 8.47232,7.85426 8.46076,7.85276 8.44924,7.85112 8.43777,7.84936 8.42634,7.84747 8.41496,7.84546 8.40362,7.84333 8.39234,7.84107 8.38111,7.83869 8.36993,7.83619 8.35881,7.83357 8.34774,7.83082 8.33674,7.82796 8.3258,7.82497 8.31491,7.82187 8.3041,7.81865 8.29335,7.81531 8.28267,7.81186 8.27207,7.80829 8.26153,7.8046 8.25107,7.8008 8.24069,7.79689 8.23039,7.79286 8.22016,7.78872 8.21002,7.78446 8.19996,7.7801 8.18999,7.77563 8.1801,7.77104 4.39383,3.98477 4.40372,3.98935 4.41369,3.99383 4.42375,3.99819 4.43389,4.00244 4.44412,4.00659 4.45442,4.01061 4.4648,4.01453 4.47526,4.01833 4.4858,4.02202 4.49641,4.02559 4.50708,4.02904 4.51783,4.03238 4.52865,4.0356 4.53953,4.0387 4.55047,4.04169 4.56147,4.04455 4.57254,4.0473 4.58366,4.04992 4.59484,4.05242 4.60607,4.0548 4.61735,4.05706 4.62869,4.05919 4.64007,4.0612 4.6515,4.06309 4.66298,4.06485 4.67449,4.06648 4.68605,4.06799 4.69765,4.06937 4.70928,4.07062 4.72095,4.07175 4.73265,4.07274 "/>
     <polygon id="_462749640" class="fil1" points="4.13291,3.78162 7.91918,7.56789 7.91884,7.5683 7.9185,7.56871 7.91816,7.56911 7.91783,7.56952 7.91749,7.56993 7.91715,7.57033 7.91681,7.57074 7.91648,7.57114 4.13021,3.78487 4.13055,3.78446 4.13089,3.78406 4.13122,3.78365 4.13156,3.78325 4.13189,3.78284 4.13223,3.78244 4.13257,3.78203 "/>
     <polygon id="_442140680" class="fil1" points="5.27857,4.29967 9.06484,8.08594 9.06222,8.09452 9.05933,8.10268 9.05617,8.11046 9.05277,8.11789 9.04915,8.12498 9.04532,8.13178 9.04131,8.13829 9.03714,8.14456 9.03281,8.15061 9.02835,8.15647 9.02379,8.16217 9.01913,8.16772 9.01439,8.17317 9.00961,8.17853 9.00478,8.18384 8.99994,8.18912 5.21367,4.40285 5.21851,4.39757 5.22334,4.39226 5.22813,4.3869 5.23286,4.38145 5.23752,4.37589 5.24209,4.3702 5.24654,4.36434 5.25087,4.35829 5.25505,4.35202 5.25906,4.3455 5.26288,4.33871 5.2665,4.33161 5.2699,4.32419 5.27306,4.31641 5.27596,4.30824 "/>
     <polygon id="_442140344" class="fil1" points="5.21367,4.40285 8.99994,8.18912 8.99646,8.19291 8.993,8.19671 8.98956,8.20053 8.98617,8.20437 8.98283,8.20825 8.97957,8.21218 8.97639,8.21616 8.97331,8.2202 8.97034,8.22432 8.9675,8.22852 8.9648,8.23281 8.96226,8.2372 8.95989,8.2417 8.95769,8.24633 8.9557,8.25107 8.95393,8.25596 5.16766,4.46969 5.16944,4.4648 5.17143,4.46006 5.17362,4.45543 5.17599,4.45093 5.17853,4.44654 5.18123,4.44225 5.18407,4.43805 5.18704,4.43393 5.19012,4.42989 5.1933,4.42591 5.19657,4.42198 5.1999,4.4181 5.2033,4.41426 5.20673,4.41044 5.21019,4.40664 "/>
     <polygon id="_442140632" class="fil1" points="5.16766,4.46969 8.95393,8.25596 8.95193,8.26203 8.94898,8.2676 8.94519,8.27258 8.94065,8.27687 8.93544,8.28037 8.92968,8.283 8.92346,8.28464 8.91686,8.28521 5.13059,4.49894 5.13719,4.49837 5.14341,4.49672 5.14918,4.4941 5.15438,4.4906 5.15892,4.48631 5.16271,4.48133 5.16566,4.47576 "/>
     <polygon id="_442140824" class="fil1" points="4.13021,3.78487 7.91648,7.57114 7.90824,7.58093 7.90015,7.59034 7.89222,7.5994 7.88444,7.60812 7.87681,7.6165 7.86933,7.62456 7.86198,7.6323 7.85478,7.63973 7.84771,7.64688 7.84078,7.65374 7.83397,7.66033 7.8273,7.66665 7.82074,7.67272 7.81431,7.67855 7.808,7.68415 7.80181,7.68953 7.79572,7.6947 7.78976,7.69966 7.78389,7.70444 7.77813,7.70903 7.77248,7.71346 7.76692,7.71772 7.76145,7.72184 7.75608,7.72582 7.7508,7.72967 7.74561,7.7334 7.7405,7.73702 7.73548,7.74055 7.73053,7.74399 7.72565,7.74735 7.72085,7.75065 7.71612,7.75389 3.92985,3.96762 3.93459,3.96438 3.93939,3.96108 3.94426,3.95772 3.94921,3.95428 3.95424,3.95075 3.95934,3.94713 3.96454,3.9434 3.96981,3.93955 3.97519,3.93557 3.98065,3.93145 3.98621,3.92719 3.99187,3.92276 3.99763,3.91817 4.00349,3.91339 4.00946,3.90843 4.01554,3.90326 4.02174,3.89788 4.02804,3.89228 4.03448,3.88645 4.04103,3.88038 4.0477,3.87406 4.05451,3.86746 4.06144,3.86061 4.06851,3.85346 4.07572,3.84602 4.08306,3.83828 4.09055,3.83022 4.09818,3.82185 4.10596,3.81313 4.11389,3.80407 4.12197,3.79465 "/>
     <polygon id="_442140272" class="fil1" points="4.39383,3.98477 8.1801,7.77104 8.17037,7.76637 8.16072,7.7616 8.15116,7.75671 8.14169,7.75172 8.13232,7.74663 8.12305,7.74142 8.11387,7.73611 8.10479,7.7307 8.09581,7.72518 8.08694,7.71956 8.07818,7.71383 8.06952,7.708 8.06096,7.70208 8.05252,7.69605 8.0442,7.68992 8.03598,7.68369 8.02789,7.67736 8.01991,7.67093 8.01204,7.66441 8.0043,7.65779 7.99669,7.65107 7.9892,7.64425 7.98183,7.63734 7.9746,7.63034 7.9675,7.62324 4.18123,3.83697 4.18833,3.84407 4.19557,3.85107 4.20293,3.85798 4.21042,3.8648 4.21804,3.87152 4.22578,3.87814 4.23364,3.88466 4.24162,3.89109 4.24972,3.89742 4.25793,3.90365 4.26626,3.90978 4.2747,3.91581 4.28325,3.92173 4.29191,3.92756 4.30068,3.93329 4.30955,3.93891 4.31852,3.94443 4.3276,3.94984 4.33678,3.95515 4.34605,3.96035 4.35543,3.96545 4.36489,3.97044 4.37445,3.97533 4.3841,3.9801 "/>
     <polygon id="_442140656" class="fil1" points="5.13059,4.49894 8.91686,8.28521 8.9062,8.28539 8.89461,8.28589 8.88217,8.28665 8.869,8.28762 8.85519,8.28874 8.84084,8.28995 8.82607,8.2912 8.81096,8.29242 8.79564,8.29356 8.78019,8.29456 8.76472,8.29537 8.74933,8.29592 8.73413,8.29617 8.71922,8.29604 8.70469,8.2955 8.69066,8.29446 8.67722,8.2929 8.66449,8.29073 8.65255,8.28791 8.64151,8.28438 8.63148,8.28008 8.62256,8.27495 8.61484,8.26894 4.82857,4.48267 4.83629,4.48868 4.84521,4.49381 4.85524,4.49811 4.86628,4.50164 4.87822,4.50446 4.89096,4.50663 4.90439,4.50819 4.91843,4.50922 4.93295,4.50977 4.94787,4.50989 4.96307,4.50965 4.97845,4.50909 4.99392,4.50829 5.00937,4.50728 5.0247,4.50615 5.0398,4.50493 5.05457,4.50368 5.06892,4.50247 5.08273,4.50135 5.0959,4.50038 5.10834,4.49962 5.11994,4.49912 "/>
     <polygon id="_442140704" class="fil1" points="3.55195,3.80532 7.33822,7.59159 7.32502,7.59781 7.312,7.60375 7.29915,7.60939 7.28646,7.61474 7.27393,7.61979 7.26157,7.62456 7.24936,7.62903 7.2373,7.6332 7.2254,7.63708 7.21364,7.64067 7.20203,7.64396 7.19056,7.64695 7.17922,7.64965 7.16803,7.65204 7.15696,7.65414 7.14603,7.65594 7.13523,7.65744 7.12455,7.65864 7.11398,7.65954 7.10354,7.66014 7.09322,7.66043 7.083,7.66043 7.0729,7.66012 7.0629,7.6595 7.053,7.65859 7.04321,7.65736 7.03351,7.65583 7.02391,7.654 7.0144,7.65186 7.00498,7.64941 6.99564,7.64665 6.98639,7.64359 3.20012,3.85732 3.20937,3.86038 3.21871,3.86314 3.22813,3.86559 3.23764,3.86773 3.24724,3.86956 3.25694,3.87109 3.26674,3.87231 3.27663,3.87323 3.28663,3.87385 3.29673,3.87416 3.30695,3.87416 3.31728,3.87387 3.32772,3.87327 3.33828,3.87237 3.34896,3.87117 3.35976,3.86967 3.3707,3.86787 3.38176,3.86577 3.39296,3.86337 3.40429,3.86068 3.41576,3.85769 3.42737,3.8544 3.43913,3.85081 3.45104,3.84693 3.46309,3.84276 3.4753,3.83828 3.48767,3.83352 3.50019,3.82846 3.51288,3.82311 3.52573,3.81748 3.53876,3.81154 "/>
     <polygon id="_442140536" class="fil1" points="3.7982,4.11597 7.58447,7.90224 7.58272,7.90609 7.5812,7.91017 7.57991,7.91448 7.57882,7.919 7.57793,7.92371 7.5772,7.92861 7.57664,7.93368 7.57622,7.9389 7.57593,7.94427 7.57575,7.94977 7.57567,7.95539 7.57567,7.96111 7.57572,7.96693 7.57583,7.97283 7.57598,7.97879 7.57613,7.9848 3.78987,4.19853 3.78971,4.19252 3.78957,4.18656 3.78946,4.18066 3.7894,4.17484 3.7894,4.16912 3.78948,4.1635 3.78967,4.158 3.78996,4.15263 3.79037,4.14741 3.79094,4.14234 3.79166,4.13744 3.79256,4.13272 3.79364,4.12821 3.79493,4.1239 3.79645,4.11982 "/>
     <polygon id="_442140752" class="fil1" points="3.20012,3.85732 6.98639,7.64359 6.98297,7.64237 6.97957,7.64111 6.97619,7.63981 6.97281,7.63847 6.96945,7.63709 6.96611,7.63567 6.96278,7.6342 6.95946,7.63269 6.95617,7.63114 6.95287,7.62955 6.9496,7.62791 6.94634,7.62623 6.94309,7.62452 6.93985,7.62276 6.93663,7.62095 6.93342,7.61911 3.14715,3.83283 3.15036,3.83468 3.15359,3.83648 3.15682,3.83824 3.16007,3.83996 3.16333,3.84164 3.16661,3.84328 3.1699,3.84487 3.1732,3.84642 3.17652,3.84793 3.17984,3.84939 3.18319,3.85082 3.18654,3.8522 3.18992,3.85354 3.1933,3.85484 3.1967,3.8561 "/>
     <polygon id="_442140848" class="fil1" points="3.14715,3.83283 6.93342,7.61911 6.93757,7.6322 6.9416,7.6455 6.9455,7.659 6.94924,7.6727 6.95284,7.68659 6.95628,7.70069 6.95955,7.71498 6.96264,7.72946 6.96554,7.74413 6.96825,7.759 6.97076,7.77406 6.97305,7.7893 6.97513,7.80473 6.97697,7.82035 6.97858,7.83615 6.97994,7.85213 6.98105,7.86829 6.9819,7.88463 6.98247,7.90115 6.98277,7.91784 6.98278,7.93471 6.98249,7.95176 6.98189,7.96897 6.98099,7.98636 6.97976,8.00391 6.9782,8.02163 6.9763,8.03952 6.97406,8.05757 6.97145,8.07579 6.96849,8.09417 6.96515,8.11271 6.96143,8.13141 3.17516,4.34513 3.17888,4.32644 3.18222,4.3079 3.18519,4.28952 3.18779,4.2713 3.19003,4.25325 3.19193,4.23536 3.19349,4.21764 3.19472,4.20009 3.19563,4.1827 3.19622,4.16548 3.19651,4.14844 3.1965,4.13157 3.1962,4.11487 3.19563,4.09836 3.19478,4.08202 3.19367,4.06585 3.19231,4.04987 3.1907,4.03407 3.18886,4.01846 3.18678,4.00303 3.18449,3.98778 3.18198,3.97273 3.17927,3.95786 3.17637,3.94319 3.17328,3.9287 3.17001,3.91442 3.16657,3.90032 3.16298,3.88643 3.15923,3.87272 3.15533,3.85923 3.15131,3.84593 "/>
     <polygon id="_442141304" class="fil1" points="3.64191,4.44318 7.42818,8.22945 7.42165,8.22948 7.41491,8.22955 7.40799,8.22967 7.4009,8.22983 7.39365,8.23002 7.38626,8.23024 7.37874,8.23048 7.3711,8.23074 7.36337,8.23101 7.35556,8.23129 7.34768,8.23157 7.33975,8.23185 7.33178,8.23213 7.3238,8.23238 7.3158,8.23262 7.30781,8.23284 7.29985,8.23303 7.29192,8.23318 7.28405,8.23329 7.27625,8.23336 7.26853,8.23338 7.26091,8.23335 7.25341,8.23325 7.24603,8.23309 7.2388,8.23286 7.23173,8.23256 7.22483,8.23217 7.21813,8.2317 7.21162,8.23113 7.20534,8.23048 7.19929,8.22971 7.1935,8.22885 3.40723,4.44257 3.41302,4.44344 3.41907,4.4442 3.42535,4.44486 3.43186,4.44543 3.43856,4.4459 3.44546,4.44628 3.45253,4.44659 3.45976,4.44682 3.46714,4.44698 3.47464,4.44707 3.48226,4.44711 3.48998,4.44709 3.49778,4.44702 3.50565,4.44691 3.51358,4.44676 3.52154,4.44657 3.52953,4.44635 3.53753,4.44611 3.54552,4.44585 3.55348,4.44558 3.56141,4.4453 3.56929,4.44502 3.57711,4.44474 3.58483,4.44447 3.59247,4.44421 3.59999,4.44396 3.60738,4.44374 3.61463,4.44356 3.62172,4.4434 3.62865,4.44328 3.63538,4.4432 "/>
     <polygon id="_442141208" class="fil1" points="3.40723,4.44257 7.1935,8.22885 7.18883,8.22779 7.18443,8.2262 7.18033,8.22412 7.17657,8.22159 7.17315,8.21866 3.38689,4.43239 3.3903,4.43532 3.39407,4.43785 3.39816,4.43993 3.40256,4.44152 "/>
     <polygon id="_442141352" class="fil1" points="3.92985,3.96762 7.71612,7.75389 7.71148,7.75707 7.70692,7.7602 7.70243,7.76331 7.69799,7.76642 7.69362,7.76952 7.6893,7.77263 7.68504,7.77578 7.68082,7.77896 7.67665,7.7822 7.67252,7.78552 7.66843,7.78891 7.66437,7.79239 7.66034,7.79598 7.65634,7.79969 7.65236,7.80354 7.6484,7.80753 7.64445,7.81169 7.64052,7.81601 7.63659,7.82052 7.63266,7.82524 7.62874,7.83017 7.62481,7.83532 7.62087,7.84072 7.61692,7.84636 7.61296,7.85228 7.60898,7.85847 7.60497,7.86495 7.60094,7.87175 7.59688,7.87886 7.59278,7.8863 7.58865,7.89409 7.58447,7.90224 3.7982,4.11597 3.80238,4.10782 3.80651,4.10003 3.81061,4.09259 3.81467,4.08548 3.8187,4.07868 3.82271,4.0722 3.82669,4.066 3.83065,4.06009 3.8346,4.05444 3.83854,4.04905 3.84247,4.04389 3.84639,4.03897 3.85032,4.03425 3.85425,4.02974 3.85818,4.02541 3.86213,4.02126 3.86609,4.01726 3.87007,4.01342 3.87407,4.00971 3.8781,4.00612 3.88216,4.00263 3.88625,3.99924 3.89038,3.99593 3.89455,3.99269 3.89877,3.98951 3.90303,3.98636 3.90735,3.98324 3.91172,3.98015 3.91616,3.97704 3.92065,3.97393 3.92522,3.9708 "/>
     <polygon id="_442140896" class="fil1" points="3.78987,4.19853 7.57613,7.9848 7.57634,7.99276 7.57653,8.00076 7.57666,8.00879 7.57672,8.01685 7.57669,8.02494 7.57652,8.03304 7.57621,8.04115 7.57573,8.04926 7.57504,8.05736 7.57413,8.06545 7.57297,8.07352 7.57154,8.08155 7.5698,8.08955 7.56774,8.09751 7.56533,8.10541 7.56254,8.11326 7.55935,8.12104 7.55574,8.12874 7.55167,8.13637 7.54713,8.14391 7.54209,8.15135 7.53652,8.15869 7.5304,8.16592 7.5237,8.17304 7.51641,8.18002 7.50848,8.18688 7.49991,8.19359 7.49065,8.20017 7.48069,8.20658 7.47001,8.21284 7.45857,8.21893 7.44636,8.22483 3.66009,4.43856 3.67231,4.43265 3.68374,4.42657 3.69443,4.42031 3.70438,4.41389 3.71364,4.40732 3.72221,4.40061 3.73014,4.39375 3.73744,4.38676 3.74413,4.37965 3.75025,4.37242 3.75582,4.36508 3.76086,4.35764 3.76541,4.3501 3.76947,4.34247 3.77308,4.33476 3.77627,4.32698 3.77906,4.31914 3.78147,4.31124 3.78353,4.30328 3.78527,4.29528 3.7867,4.28724 3.78786,4.27918 3.78878,4.27109 3.78946,4.26299 3.78994,4.25488 3.79026,4.24677 3.79042,4.23867 3.79046,4.23058 3.79039,4.22252 3.79026,4.21448 3.79007,4.20648 "/>
     <polygon id="_442141568" class="fil1" points="3.66009,4.43856 7.44636,8.22483 7.4443,8.22588 7.44217,8.2268 7.43997,8.22759 7.43771,8.22824 7.4354,8.22876 7.43304,8.22914 7.43063,8.22937 7.42818,8.22945 3.64191,4.44318 3.64436,4.4431 3.64677,4.44287 3.64913,4.44249 3.65144,4.44197 3.6537,4.44131 3.6559,4.44052 3.65803,4.43961 "/>
     <polygon id="_442141640" class="fil1" points="1.9535,3.23803 5.73976,7.0243 5.73971,7.02477 5.73966,7.02525 5.73961,7.02574 5.73956,7.02624 5.73951,7.02674 5.73946,7.02726 5.73942,7.02778 5.73938,7.02831 5.73926,7.02942 5.73909,7.03037 5.73887,7.03117 5.73859,7.03183 5.73826,7.03238 5.73787,7.03282 5.73742,7.03317 5.73692,7.03344 1.95065,3.24717 1.95115,3.2469 1.9516,3.24655 1.95199,3.24611 1.95232,3.24556 1.9526,3.2449 1.95283,3.2441 1.953,3.24315 1.95311,3.24204 1.95315,3.24151 1.9532,3.24098 1.95324,3.24047 1.95329,3.23997 1.95334,3.23947 1.95339,3.23898 1.95344,3.2385 "/>
     <polygon id="_442140968" class="fil1" points="1.94256,3.27244 5.72882,7.05871 5.72345,7.06603 5.71771,7.07217 5.71163,7.07722 5.70522,7.08126 5.69853,7.08435 5.69157,7.08659 5.68436,7.08805 5.67693,7.0888 5.6693,7.08893 5.6615,7.08851 5.65356,7.08763 5.64548,7.08635 5.6373,7.08475 5.62905,7.08293 5.62074,7.08094 5.61241,7.07887 1.82614,3.2926 1.83447,3.29467 1.84278,3.29665 1.85104,3.29848 1.85921,3.30007 1.86729,3.30135 1.87524,3.30224 1.88304,3.30266 1.89067,3.30253 1.89809,3.30178 1.9053,3.30032 1.91226,3.29808 1.91896,3.29499 1.92536,3.29095 1.93144,3.2859 1.93718,3.27976 "/>
     <polygon id="_442141328" class="fil1" points="2.07841,3.79269 5.86467,7.57896 5.85634,7.58649 2.07007,3.80022 "/>
     <polygon id="_442140920" class="fil1" points="1.82614,3.2926 5.61241,7.07887 5.61044,7.07826 5.60619,7.07688 5.60042,7.07499 5.59393,7.07285 5.58751,7.07073 5.58193,7.06888 5.57798,7.06756 5.57644,7.06704 1.79018,3.28076 1.79171,3.28129 1.79566,3.28261 1.80124,3.28446 1.80767,3.28658 1.81415,3.28872 1.81992,3.29061 1.82418,3.29199 "/>
     <polygon id="_442141088" class="fil1" points="1.79018,3.28076 5.57644,7.06704 5.57465,7.06967 5.57265,7.07213 5.57047,7.07439 5.56813,7.07646 5.56563,7.07831 5.56299,7.07996 5.56023,7.08138 5.55736,7.08258 5.5544,7.08354 5.55136,7.08426 5.54826,7.08472 5.54511,7.08493 5.54193,7.08486 5.53872,7.08453 5.53552,7.08391 5.53233,7.08301 1.74606,3.29674 1.74925,3.29764 1.75246,3.29826 1.75566,3.29859 1.75884,3.29865 1.76199,3.29845 1.76509,3.29798 1.76813,3.29727 1.77109,3.29631 1.77396,3.29511 1.77672,3.29369 1.77936,3.29204 1.78186,3.29019 1.7842,3.28812 1.78638,3.28585 1.78838,3.2834 "/>
     <polygon id="_442141136" class="fil1" points="1.95065,3.24717 5.73692,7.03344 5.7368,7.03575 5.73654,7.03822 5.73613,7.04084 5.73553,7.0436 5.73471,7.04648 5.73364,7.04946 5.73228,7.05254 5.73061,7.05568 1.94434,3.26941 1.94601,3.26626 1.94737,3.26319 1.94844,3.26021 1.94926,3.25733 1.94986,3.25457 1.95028,3.25195 1.95053,3.24948 "/>
     <polygon id="_442142024" class="fil1" points="1.94434,3.26941 5.73061,7.05568 5.72882,7.05871 1.94256,3.27244 "/>
     <polygon id="_442141664" class="fil1" points="1.74606,3.29674 5.53233,7.08301 5.52515,7.08032 5.51812,7.07711 5.51126,7.07338 5.50456,7.06917 5.49804,7.06449 5.49169,7.05938 5.48554,7.05386 1.69927,3.26759 1.70543,3.27311 1.71177,3.27822 1.7183,3.28289 1.72499,3.28711 1.73185,3.29083 1.73888,3.29405 "/>
     <polygon id="_442142048" class="fil1" points="2.10386,4.29764 5.89013,8.08391 5.8881,8.08733 5.88612,8.09115 5.88419,8.09533 5.88229,8.09985 5.88041,8.10467 5.87855,8.10975 5.8767,8.11507 5.87485,8.12058 5.87299,8.12626 5.87112,8.13207 5.86922,8.13798 5.86729,8.14396 5.86531,8.14997 5.86329,8.15598 5.86121,8.16195 5.85906,8.16786 5.85684,8.17367 5.85453,8.17934 5.85214,8.18485 5.84964,8.19015 5.84704,8.19523 5.84431,8.20004 5.84147,8.20454 5.83849,8.20872 5.83537,8.21252 5.8321,8.21593 5.82867,8.21891 5.82508,8.22141 5.82131,8.22342 5.81736,8.2249 5.81322,8.22581 5.80888,8.22612 2.02261,4.43985 2.02695,4.43954 2.03109,4.43863 2.03505,4.43715 2.03881,4.43514 2.04241,4.43263 2.04583,4.42966 2.0491,4.42625 2.05222,4.42244 2.0552,4.41827 2.05805,4.41376 2.06077,4.40896 2.06337,4.40388 2.06587,4.39857 2.06826,4.39307 2.07057,4.38739 2.07279,4.38159 2.07494,4.37568 2.07702,4.3697 2.07904,4.3637 2.08102,4.35769 2.08295,4.35171 2.08485,4.3458 2.08672,4.33999 2.08858,4.33431 2.09043,4.3288 2.09228,4.32348 2.09414,4.3184 2.09602,4.31358 2.09792,4.30906 2.09985,4.30488 2.10183,4.30106 "/>
     <polygon id="_442142240" class="fil1" points="2.02261,4.43985 5.80888,8.22612 5.80478,8.22612 5.80048,8.22614 5.79596,8.22616 5.79125,8.22619 5.78634,8.22623 5.78124,8.22628 5.77596,8.22633 5.77049,8.22639 5.76485,8.22645 5.75904,8.22652 5.75306,8.2266 5.74691,8.22668 5.74061,8.22676 5.73417,8.22685 5.72756,8.22694 5.72082,8.22703 1.93456,4.44076 1.9413,4.44067 1.9479,4.44057 1.95435,4.44049 1.96065,4.44041 1.96679,4.44033 1.97277,4.44025 1.97858,4.44018 1.98422,4.44011 1.98969,4.44006 1.99498,4.44 2.00007,4.43996 2.00498,4.43992 2.0097,4.43989 2.01421,4.43987 2.01851,4.43985 "/>
     <polygon id="_442141976" class="fil1" points="1.93456,4.44076 5.72082,8.22703 5.71441,8.22711 5.70791,8.2272 5.70133,8.22729 5.69468,8.22738 5.68798,8.22747 5.68124,8.22756 5.67446,8.22764 5.66768,8.22772 5.66088,8.22781 5.65409,8.22789 5.64731,8.22796 5.64057,8.22803 5.63387,8.2281 5.62722,8.22817 5.62064,8.22822 5.61413,8.22828 5.60772,8.22832 5.60141,8.22837 5.5952,8.2284 5.58913,8.22843 5.58319,8.22844 5.57739,8.22846 5.57176,8.22846 5.56631,8.22845 5.56103,8.22844 5.55596,8.22841 5.55109,8.22838 5.54644,8.22833 5.54202,8.22827 5.53785,8.2282 5.53394,8.22812 5.53029,8.22802 1.74402,4.44175 1.74767,4.44185 1.75158,4.44193 1.75576,4.442 1.76017,4.44206 1.76482,4.44211 1.76969,4.44214 1.77476,4.44217 1.78004,4.44218 1.7855,4.44219 1.79113,4.44219 1.79692,4.44217 1.80286,4.44215 1.80893,4.44213 1.81514,4.44209 1.82145,4.44205 1.82787,4.442 1.83437,4.44195 1.84096,4.44189 1.8476,4.44183 1.85431,4.44176 1.86105,4.44169 1.86782,4.44161 1.87461,4.44154 1.88141,4.44145 1.8882,4.44137 1.89497,4.44128 1.90171,4.4412 1.90841,4.44111 1.91506,4.44102 1.92164,4.44093 1.92814,4.44084 "/>
     <polygon id="_442142000" class="fil1" points="1.74402,4.44175 5.53029,8.22802 5.52506,8.22859 5.51998,8.22845 5.51508,8.22765 5.51041,8.22623 5.50601,8.22424 5.50193,8.22173 5.4982,8.21874 1.71193,4.43247 1.71566,4.43546 1.71974,4.43797 1.72414,4.43996 1.72881,4.44138 1.73371,4.44218 1.7388,4.44232 "/>
     <polygon id="_442141856" class="fil1" points="2.46482,3.83791 6.25109,7.62419 6.2352,7.63892 6.21989,7.654 6.20511,7.66939 6.19084,7.68506 6.17706,7.70096 6.16372,7.71706 6.15083,7.73331 6.13833,7.7497 6.12622,7.76617 6.11445,7.78269 6.103,7.79922 6.09186,7.81574 6.08098,7.83219 6.07035,7.84854 6.05993,7.86476 6.0497,7.8808 6.03964,7.89664 6.02972,7.91223 6.0199,7.92754 6.01017,7.94252 6.00049,7.95715 5.99084,7.97139 5.9812,7.98519 5.97153,7.99853 5.96181,8.01136 5.95202,8.02365 5.94211,8.03535 5.93209,8.04644 5.9219,8.05689 5.91153,8.06663 5.90094,8.07565 5.89013,8.08391 2.10386,4.29764 2.11468,4.28938 2.12526,4.28036 2.13563,4.27061 2.14582,4.26017 2.15585,4.24908 2.16575,4.23737 2.17554,4.22509 2.18526,4.21226 2.19493,4.19892 2.20457,4.18511 2.21422,4.17088 2.2239,4.15625 2.23363,4.14126 2.24345,4.12596 2.25337,4.11037 2.26344,4.09453 2.27367,4.07848 2.28408,4.06227 2.29472,4.04591 2.30559,4.02946 2.31674,4.01295 2.32818,3.99642 2.33995,3.9799 2.35207,3.96343 2.36456,3.94704 2.37746,3.93078 2.39079,3.91469 2.40457,3.89879 2.41884,3.88312 2.43362,3.86773 2.44894,3.85265 "/>
     <polygon id="_442142288" class="fil1" points="2.57894,3.84418 6.36521,7.63045 6.35407,7.6319 6.34365,7.63294 6.33392,7.6336 6.32484,7.6339 6.31639,7.63387 6.30855,7.63353 6.30128,7.63291 6.29456,7.63203 6.28836,7.63092 6.28265,7.62961 6.2774,7.62811 6.27259,7.62646 6.26819,7.62467 6.26417,7.62278 6.26049,7.62082 6.25715,7.6188 2.47088,3.83252 2.47422,3.83455 2.4779,3.83651 2.48192,3.8384 2.48632,3.84019 2.49113,3.84184 2.49638,3.84333 2.50209,3.84465 2.50829,3.84576 2.51502,3.84664 2.52228,3.84726 2.53013,3.8476 2.53857,3.84763 2.54765,3.84733 2.55739,3.84667 2.56781,3.84563 "/>
     <polygon id="_442142360" class="fil1" points="2.47088,3.83252 6.25715,7.6188 6.25638,7.61946 6.25562,7.62014 6.25486,7.62081 6.2541,7.62148 6.25335,7.62216 6.25259,7.62283 6.25184,7.62351 6.25109,7.62419 2.46482,3.83791 2.46557,3.83724 2.46632,3.83656 2.46708,3.83589 2.46783,3.83521 2.46859,3.83454 2.46935,3.83387 2.47011,3.83319 "/>
     <polygon id="_442141904" class="fil1" points="3.17516,4.34513 6.96143,8.13141 6.95907,8.14094 6.95617,8.1498 6.95273,8.15801 6.9488,8.16563 6.94443,8.1727 6.93963,8.17928 6.93446,8.18541 6.92893,8.19113 6.92309,8.1965 6.91698,8.20155 6.91062,8.20634 6.90405,8.21092 6.89731,8.21533 6.89044,8.21961 6.88346,8.22382 6.87642,8.228 3.09015,4.44173 3.09719,4.43755 3.10417,4.43334 3.11105,4.42906 3.11778,4.42465 3.12435,4.42007 3.13071,4.41528 3.13682,4.41022 3.14266,4.40486 3.14819,4.39914 3.15337,4.39301 3.15816,4.38643 3.16254,4.37935 3.16646,4.37174 3.1699,4.36352 3.17281,4.35467 "/>
     <polygon id="_442142552" class="fil1" points="3.09015,4.44173 6.87642,8.228 6.87285,8.23011 6.8693,8.23223 6.86575,8.23437 6.86224,8.23654 6.85876,8.23873 6.85535,8.24095 6.852,8.24321 6.84874,8.24552 6.84557,8.24787 6.84252,8.25027 6.83959,8.25273 6.83681,8.25525 6.83417,8.25784 6.8317,8.26051 6.82941,8.26325 6.82732,8.26607 3.04105,4.4798 3.04315,4.47698 3.04544,4.47424 3.04791,4.47157 3.05054,4.46898 3.05333,4.46646 3.05626,4.464 3.05931,4.46159 3.06247,4.45924 3.06573,4.45694 3.06908,4.45468 3.0725,4.45246 3.07597,4.45026 3.07948,4.4481 3.08303,4.44596 3.08659,4.44384 "/>
     <polygon id="_442142528" class="fil1" points="2.9382,4.50411 6.72446,8.29038 6.7161,8.29119 6.70759,8.29201 6.69895,8.29282 6.69019,8.29362 6.68134,8.29439 6.67241,8.29513 6.66343,8.29582 6.65441,8.29646 6.64537,8.29702 6.63634,8.29751 6.62732,8.29791 6.61835,8.29822 6.60943,8.29841 6.6006,8.29848 6.59186,8.29843 6.58324,8.29822 6.57475,8.29788 6.56643,8.29737 6.55827,8.29668 6.55031,8.29581 6.54256,8.29476 6.53504,8.29349 6.52777,8.29202 6.52078,8.29031 6.51407,8.28837 6.50767,8.28619 6.5016,8.28375 6.49588,8.28105 6.49052,8.27806 6.48555,8.2748 6.48098,8.27122 2.69471,4.48495 2.69928,4.48852 2.70425,4.49179 2.70961,4.49478 2.71533,4.49748 2.72141,4.49992 2.7278,4.5021 2.73451,4.50404 2.7415,4.50574 2.74877,4.50722 2.75629,4.50848 2.76404,4.50954 2.772,4.51041 2.78016,4.51109 2.78848,4.51161 2.79697,4.51195 2.80559,4.51215 2.81433,4.51221 2.82317,4.51214 2.83208,4.51194 2.84106,4.51164 2.85007,4.51124 2.8591,4.51075 2.86814,4.51019 2.87716,4.50955 2.88614,4.50886 2.89507,4.50812 2.90392,4.50735 2.91268,4.50655 2.92132,4.50574 2.92983,4.50492 "/>
     <polygon id="_442142600" class="fil1" points="3.04105,4.4798 6.82732,8.26607 6.82459,8.27018 6.82137,8.27389 6.8177,8.27715 6.81363,8.27993 6.8092,8.28217 6.80447,8.28383 6.79948,8.28485 6.79427,8.28521 3.008,4.49894 3.01321,4.49858 3.0182,4.49756 3.02294,4.4959 3.02736,4.49366 3.03143,4.49088 3.0351,4.48762 3.03832,4.48391 "/>
     <polygon id="_442142672" class="fil1" points="3.008,4.49894 6.79427,8.28521 6.79105,8.28524 6.78765,8.28532 6.78407,8.28545 6.78031,8.28563 6.7764,8.28585 6.77233,8.28612 6.7681,8.28642 6.76374,8.28676 6.75924,8.28713 6.7546,8.28754 6.74985,8.28796 6.74497,8.28841 6.73999,8.28888 6.73491,8.28937 6.72973,8.28987 6.72446,8.29038 2.9382,4.50411 2.94346,4.5036 2.94864,4.5031 2.95372,4.50261 2.9587,4.50214 2.96358,4.50169 2.96833,4.50126 2.97297,4.50086 2.97747,4.50049 2.98183,4.50015 2.98606,4.49985 2.99013,4.49958 2.99405,4.49936 2.9978,4.49918 3.00138,4.49905 3.00478,4.49896 "/>
     <polygon id="_442142456" class="fil1" points="5.15143,3.86737 8.9377,7.65364 8.94171,7.65847 8.94548,7.66362 8.949,7.66906 8.9523,7.67478 8.95536,7.68077 8.9582,7.68702 8.96083,7.69351 8.96326,7.70024 5.17699,3.91397 5.17456,3.90724 5.17193,3.90074 5.16909,3.8945 5.16603,3.8885 5.16274,3.88278 5.15921,3.87735 5.15544,3.8722 "/>
     <polygon id="_442110920" class="fil1" points="5.17699,3.91397 8.96326,7.70024 8.96501,7.70565 8.96665,7.71121 8.96817,7.7169 8.96958,7.72272 8.97089,7.72865 8.97209,7.73469 8.9732,7.74083 8.97422,7.74706 8.97515,7.75337 8.976,7.75975 8.97676,7.7662 8.97745,7.77271 8.97807,7.77926 8.97863,7.78586 8.97913,7.79248 8.97956,7.79913 5.1933,4.01286 5.19286,4.00621 5.19237,3.99959 5.19181,3.99299 5.19119,3.98644 5.1905,3.97993 5.18973,3.97348 5.18888,3.96709 5.18795,3.96078 5.18694,3.95456 5.18583,3.94842 5.18462,3.94238 5.18331,3.93644 5.1819,3.93063 5.18038,3.92494 5.17874,3.91938 "/>
     <polygon id="_442110416" class="fil1" points="5.06022,2.78971 8.84649,6.57598 8.85083,6.58184 8.85401,6.58846 8.85585,6.5957 8.85624,6.60339 5.06997,2.81711 5.06959,2.80943 5.06774,2.80219 5.06457,2.79557 "/>
     <polygon id="_442110752" class="fil1" points="5.06997,2.81711 8.85624,6.60339 8.85589,6.60945 8.85548,6.61565 8.855,6.62197 8.85447,6.62842 8.85388,6.63497 8.85324,6.64163 8.85256,6.64839 8.85184,6.65525 8.85108,6.66219 8.85028,6.6692 8.84946,6.67628 8.84862,6.68343 8.84775,6.69063 8.84687,6.69789 8.84598,6.70518 8.84507,6.71251 5.05881,2.92624 5.05971,2.91891 5.0606,2.91161 5.06148,2.90436 5.06235,2.89716 5.0632,2.89001 5.06402,2.88293 5.06481,2.87591 5.06557,2.86898 5.0663,2.86212 5.06698,2.85536 5.06761,2.8487 5.0682,2.84215 5.06873,2.8357 5.06921,2.82937 5.06962,2.82318 "/>
     <polygon id="_442110392" class="fil1" points="5.10448,3.00664 8.89075,6.79291 8.89312,6.79583 8.89538,6.79894 8.89753,6.80222 8.89959,6.80568 8.90154,6.80931 8.90341,6.81309 8.90519,6.81702 8.90689,6.8211 8.90851,6.82531 8.91006,6.82965 8.91154,6.83411 8.91296,6.83869 8.91431,6.84336 8.91561,6.84814 8.91687,6.853 8.91807,6.85795 8.91924,6.86298 8.92038,6.86807 8.92148,6.87322 8.92255,6.87843 8.92361,6.88367 8.92464,6.88896 8.92566,6.89427 8.92668,6.89961 8.92769,6.90496 5.14142,3.11869 5.14041,3.11334 5.13939,3.108 5.13837,3.10269 5.13734,3.0974 5.13628,3.09215 5.13521,3.08695 5.13411,3.0818 5.13298,3.0767 5.13181,3.07168 5.1306,3.06673 5.12935,3.06187 5.12804,3.05709 5.12669,3.05241 5.12527,3.04784 5.12379,3.04338 5.12224,3.03904 5.12062,3.03483 5.11893,3.03075 5.11715,3.02681 5.11528,3.02304 5.11332,3.01941 5.11126,3.01595 5.10911,3.01267 5.10685,3.00956 "/>
    </g>
    <path id="_637661080" class="fil1" d="M5.08442 2.99214c0.0356457,0.0134685 0.0462126,0.0694173 0.057,0.126551 0.00517323,0.0273858 0.0104173,0.0551457 0.0159094,0.0711772 0.0203898,0.00172835 0.0358504,0.019374 0.0347205,0.0399488 -0.00242913,0.0433898 -0.000653543,0.0897638 0.00111417,0.135862 0.00034252,0.00892126 0.000685039,0.0178346 0.000996063,0.0267205 0.00508661,0.144004 0.00291339,0.281642 -0.122764,0.347583 -0.0535591,0.0281063 -0.108827,0.0436102 -0.162886,0.0471339 -0.0122913,0.000799213 -0.0245197,0.000980315 -0.0366496,0.000551181 0.00219685,0.000909449 0.0043937,0.0017874 0.00659449,0.0026378 0.00423228,0.000700787 0.00848819,0.00133858 0.0127717,0.00191732 0.0349449,0.0128346 0.0707795,0.0191614 0.109709,0.0260354 0.0333031,0.00588189 0.0686811,0.0121339 0.108535,0.0229134 0.0342677,0.00927953 0.0551142,0.0363071 0.0675157,0.0727992 0.0096811,0.0284882 0.014122,0.0633898 0.0163071,0.0988898 0.00315748,0.051563 0.0131181,0.0947008 0.0273622,0.135228 0.0143976,0.0409606 0.0337087,0.0805591 0.0549055,0.123516 0.00440551,0.0083189 0.00575591,0.0182835 0.00301181,0.028063 -0.0131929,0.0468937 -0.0390551,0.0750472 -0.0649055,0.103185 -0.0185551,0.0202008 -0.0371181,0.0404055 -0.0460118,0.0668346 -0.00399213,0.0167717 -0.0190709,0.029252 -0.037063,0.029252 -0.108268,0 -0.394902,0.0645394 -0.300087,-0.119567 0.0100984,-0.0196102 0.0386811,-0.0662087 0.0618976,-0.0720118 0.00969291,-0.00242913 0.0148228,-0.00364567 0.0199449,-0.00485827 0.0388031,-0.00920079 0.0775984,-0.0184094 0.093311,-0.0424567 -0.00347638,-0.0782717 -0.0254409,-0.121445 -0.0634331,-0.145366 -0.0434606,-0.0273661 -0.111571,-0.0351969 -0.197839,-0.0410709 -0.125331,-0.00852756 -0.245594,-0.0393425 -0.350555,-0.0888386 -0.104339,-0.0492008 -0.193803,-0.117047 -0.258535,-0.200063l-0.00238976 -0.00308268c-0.000901575,0.00108661 -0.00180315,0.00216929 -0.00269685,0.00324803 -0.088752,0.106335 -0.150256,0.148449 -0.200358,0.182748 -0.0498465,0.034122 -0.0868701,0.0594685 -0.131654,0.14835 -0.0100118,0.019874 -0.00919685,0.0503701 -0.00833465,0.082563 0.00226378,0.0845787 0.00474016,0.177953 -0.129772,0.240031 -0.00540551,0.00294094 -0.0115984,0.00461417 -0.018185,0.00461417 -0.0685157,0 -0.174236,0.00924016 -0.234681,-0.000602362 -0.0127913,-0.00208661 -0.0229724,-0.0102559 -0.0281535,-0.0210276 -0.00325984,-0.00678346 -0.00454331,-0.0145984 -0.00324409,-0.0225787 0.0219803,-0.132752 0.0249252,-0.13624 0.0571732,-0.174512 0.0124449,-0.0147677 0.0306969,-0.0364252 0.0611181,-0.0853937 0.0296811,-0.0477835 0.0308346,-0.0913465 0.0322362,-0.14439 0.00135433,-0.0512402 0.00290945,-0.110094 0.0251929,-0.187976 0.000133858,-0.000456693 0.00026378,-0.000917323 0.000397638,-0.00137795 -0.141654,0.0679291 -0.253559,0.0863386 -0.351831,0.052 -0.0182559,-0.00637795 -0.035874,-0.0145315 -0.0529685,-0.0244843 0.0449724,0.138594 0.0697559,0.312024 0.0280118,0.512299 -0.011,0.0527795 -0.0473268,0.0742874 -0.0850118,0.0965945 -0.0189764,0.0112323 -0.0384646,0.0227795 -0.0490984,0.0380748 -0.0065748,0.0114331 -0.0189173,0.0191339 -0.0330512,0.0191339 -0.0166575,0 -0.0414882,0.00241732 -0.0698031,0.00517323 -0.0883031,0.00858268 -0.205756,0.0200118 -0.247626,-0.0230354 -0.00677559,-0.00664567 -0.0110827,-0.0158228 -0.0113622,-0.0260551 -0.00388583,-0.132882 0.0842087,-0.154429 0.172291,-0.175969 0.0116772,-0.00285433 0.0233543,-0.0057126 0.0345236,-0.00890157 -0.0239488,-0.150579 -0.116665,-0.23887 -0.208516,-0.326327 -0.0338189,-0.0322008 -0.0675354,-0.0643031 -0.098563,-0.0996417 -0.0613504,0.00886614 -0.0910315,-0.000771654 -0.108067,-0.0116575 -0.00203543,0.0017874 -0.00405512,0.00358268 -0.00605906,0.00538976 -0.1725,0.155197 -0.244193,0.37587 -0.360961,0.459724 -0.0219213,0.034252 -0.0338386,0.142209 -0.081248,0.142209 -0.0212795,0 -0.0517283,0.000413386 -0.0880551,0.000909449 -0.0678898,0.00092126 -0.153098,0.00207874 -0.190535,0.000996063 -0.0281693,0.00501181 -0.052122,-0.0222402 -0.0424843,-0.0499016 0.0613268,-0.176276 0.099,-0.185154 0.143189,-0.195559 0.0142835,-0.00336614 0.0298858,-0.00704331 0.0536457,-0.0384724 0.0675512,-0.0893386 0.134685,-0.244461 0.180035,-0.365126l-0.00833465 0.00752756 0.0367756 -0.0841929c0.0207953,-0.0475984 0.0309449,-0.0824921 0.0335512,-0.115724 -0.0297638,-0.0588858 -0.0927126,-0.136413 -0.1225,-0.171311 -0.0318858,-0.0373465 -0.0572323,-0.0670512 -0.063248,-0.0908898 -0.00604331,-0.0222244 0.00602756,-0.0890118 -0.00115354,-0.100075 -0.000149606,0.00125197 -0.000275591,0.00258661 -0.00038189,0.00400787 -0.000240157,0.00320472 -0.00104724,0.00449213 -0.00246063,0.0051378 -0.00019685,0.00591339 -0.00140945,0.0137598 -0.00631102,0.0222362l-0.0017874 0.0030315c-0.0276496,0.0422795 -0.0719213,0.0312441 -0.116417,0.0201614 -0.00147638,-0.000370079 -0.0357913,-0.0117323 -0.0359606,-0.0118386 -0.00903543,0.0145433 -0.0271457,0.0215827 -0.0441181,0.0159724 -0.0386969,-0.0128583 -0.0710157,-0.0494528 -0.0929606,-0.0935787 -0.000448819,-0.000897638 -0.000893701,-0.00179921 -0.00133071,-0.00270472 -0.00280709,-0.00579528 -0.00545669,-0.011748 -0.0079252,-0.017815 -0.00242913,-0.00594882 -0.00468898,-0.0120079 -0.00677165,-0.0181339 -0.0100984,-0.029689 -0.0160315,-0.0609764 -0.0165709,-0.0892835 -0.00194882,-0.00265354 -0.00386614,-0.00532677 -0.00575197,-0.00801575 -0.00582677,-0.00829528 -0.0113701,-0.0167441 -0.0166614,-0.0253268 -0.00167717,-0.00271654 -0.00332677,-0.00544882 -0.00495276,-0.00819685 -0.000240157,-0.000401575 -0.000480315,-0.000807087 -0.000716535,-0.0012126 -0.0034685,-0.00588583 -0.00682283,-0.0118268 -0.0100787,-0.0178268 -0.0113543,-0.0209291 -0.0220039,-0.0435315 -0.032189,-0.0672047 -0.00480315,-0.0104646 -0.00481496,-0.0229803 0.00105512,-0.0339016 0.00152362,-0.00283071 0.0246575,-0.0330079 0.0564528,-0.0732756 0.0248898,-0.0315197 0.0657953,-0.0491102 0.0901929,-0.0793622 0.0880984,-0.10922 0.000783465,-0.123571 0.168106,-0.199909 0.0540945,-0.0246772 0.102295,-0.0681654 0.150591,-0.111736 0.015685,-0.0141535 0.0306024,-0.0274134 0.0450669,-0.0396654 0.0999213,-0.0846614 0.178244,-0.121417 0.340008,-0.0746024 0.097189,0.0281339 0.156791,0.0764803 0.217449,0.137024 0.0690276,0.041126 0.231189,0.151701 0.284957,0.204378 0.0341772,0.0334803 0.0686142,0.0672244 0.103181,0.0953898 0.320094,0.260902 0.606575,0.0611929 0.99037,0.133906 0.00702362,0.00132677 0.0140787,0.00275197 0.0211693,0.00427165 0.00175197,0.000948819 0.00350394,0.00190551 0.00525984,0.00286614 0.0579724,0.0132913 0.118177,0.0330433 0.181067,0.0617795 0.183654,0.0839055 0.225701,0.17078 0.338642,0.336461 0.0375,0.0550079 0.0479803,0.124433 0.0937205,0.201878 0.0830591,0.140634 0.393197,0.256398 0.396232,0.0223543 0.000255906,-0.146791 -0.131339,-0.251413 -0.16285,-0.304142 -0.00290551,-0.0048622 -0.0056378,-0.00943701 -0.00816535,-0.0137362 -0.0107323,-0.0182677 -0.0177953,-0.0316654 -0.0188858,-0.0418307 -0.00843307,-0.0783031 0.12128,-0.401854 0.190189,-0.398354 0.0209567,0.00106693 0.0370787,0.0189291 0.0360118,0.0398858 -0.00166535,0.0319724 -0.00634252,0.0699488 -0.0111614,0.109126 -0.00274803,0.022315 -0.00554724,0.0450472 -0.00787008,0.0664409 0.0112244,-0.00489764 0.022374,-0.00474016 0.0334843,-0.000543307z"/>
   </g>
  </g>
  <path class="fil2" d="M3.41333 -3.93701e-006c1.88513,0 3.41333,1.5282 3.41333,3.41333 0,1.88513 -1.5282,3.41333 -3.41333,3.41333 -1.88513,0 -3.41333,-1.5282 -3.41333,-3.41333 0,-1.88513 1.5282,-3.41333 3.41333,-3.41333z"/>
  <path class="fil3" d="M4.89123 3.79222c-0.23389,-0.0315748 -0.391193,-0.24628 -0.509295,-0.518488 -0.0743346,-0.171323 -0.225362,-0.289106 -0.363185,-0.36378 -0.00709055,-0.00151969 -0.0141457,-0.00294488 -0.0211693,-0.00427165 -0.383795,-0.0727126 -0.670276,0.126996 -0.99037,-0.133906 -0.0345669,-0.0281654 -0.0690039,-0.0619094 -0.103181,-0.0953898 -0.0569016,-0.055748 -0.235201,-0.176339 -0.296039,-0.210835 0.0320709,0.0351378 0.0661654,0.0759685 0.0869961,0.114969 0.0109961,0.0205906 0.0354764,0.0707441 0.0214291,0.0940866 -0.0185591,0.0248189 -0.11161,-0.00210236 -0.140106,0.00701969l-0.0368071 -0.00809843 0.0142362 0.0348937c0.026185,0.0641929 0.0892244,0.0918701 0.0938701,0.161409 0.00294488,0.0441693 0.037,0.105913 0.0297087,0.149142 -0.00105512,0.00625984 -0.00206693,0.0125118 -0.00301969,0.0187913 -0.0016378,0.0107992 -0.0116693,0.0182598 -0.0224843,0.0166378 -0.00526772,-0.000791339 -0.00975197,-0.00435039 -0.013311,-0.00811811 -0.00721654,-0.0076378 -0.0229094,-0.0164921 -0.0320827,-0.0219094 -0.0169685,-0.0100315 -0.0967402,-0.0375 -0.113969,-0.0470709l-0.0503504 -0.0279685 0.0225315 0.053c0.0284528,0.0669409 0.0722677,0.113701 0.084752,0.185539 0.00224409,0.0128937 0.00429921,0.0266575 0.00473622,0.039748 0.00366929,0.11113 0.0717244,0.0604528 -0.183071,-0.0671181l0.0371969 0.0782795c0.00390551,0.0885236 0.0228701,0.154673 0.00935827,0.241752 -0.00370079,0.0238346 -0.00109055,0.00698425 -0.00218504,0.0310157l-1.9685e-005 0.000515748c-0.00778346,0.169984 -0.0496969,-0.20661 -0.15372,-0.0864843 -0.00334252,-0.00324803 -0.0185866,0.0292244 -0.0219291,0.0259843 -0.00524016,-0.00509055 -0.0104803,-0.0101772 -0.0156811,-0.0153031l0.00898425 0.0777717 -0.00916142 0.0320787c-0.0273189,0.0956811 -0.0248228,0.149744 -0.123378,0.185748 -0.0434685,0.123941 -0.122512,0.32065 -0.202142,0.425957 -0.0237598,0.0314291 -0.0393622,0.0351063 -0.0536457,0.0384724 -0.044189,0.0104055 -0.0818622,0.0192835 -0.143189,0.195559 -0.0096378,0.0276614 0.014315,0.0549134 0.0424843,0.0499016 0.037437,0.00108268 0.122646,-7.48031e-005 0.190535,-0.000996063 0.0363268,-0.000496063 0.0667756,-0.000909449 0.0880551,-0.000909449 0.0474094,0 0.0593268,-0.107957 0.081248,-0.142209 0.118126,-0.0848307 0.190122,-0.309681 0.36702,-0.465114 0.0170354,0.0108858 0.0467165,0.0205236 0.108067,0.0116575 0.0310276,0.0353386 0.0647441,0.0674409 0.098563,0.0996417 0.0918504,0.0874567 0.184567,0.175748 0.208516,0.326327 -0.0111693,0.00318898 -0.0228465,0.00604724 -0.0345236,0.00890157 -0.0880827,0.0215394 -0.176177,0.0430866 -0.172291,0.175969 0.000279528,0.0102323 0.00458661,0.0194094 0.0113622,0.0260551 0.0418701,0.0430472 0.159323,0.0316181 0.247626,0.0230354 0.028315,-0.00275591 0.0531457,-0.00517323 0.0698031,-0.00517323 0.0141339,0 0.0264764,-0.00770079 0.0330512,-0.0191339 0.0106339,-0.0152953 0.030122,-0.0268425 0.0490984,-0.0380748 0.037685,-0.0223071 0.0740118,-0.043815 0.0850118,-0.0965945 0.0417441,-0.200276 0.0169606,-0.373705 -0.0280118,-0.512299 0.0170945,0.00995276 0.0347126,0.0181063 0.0529685,0.0244843 0.0982717,0.0343386 0.210177,0.0159291 0.351831,-0.052 -0.0226614,0.0785669 -0.0242283,0.137811 -0.0255906,0.189354 -0.00140157,0.0530433 -0.00255512,0.0966063 -0.0322362,0.14439 -0.0304213,0.0489685 -0.0486732,0.070626 -0.0611181,0.0853937 -0.032248,0.0382717 -0.0351929,0.0417598 -0.0571732,0.174512 -0.00129921,0.00798031 -1.5748e-005,0.0157953 0.00324409,0.0225787 0.0051811,0.0107717 0.0153622,0.0189409 0.0281535,0.0210276 0.0604449,0.00984252 0.166165,0.000602362 0.234681,0.000602362 0.00658661,0 0.0127795,-0.00167323 0.018185,-0.00461417 0.134512,-0.0620787 0.132035,-0.155453 0.129772,-0.240031 -0.000862205,-0.0321929 -0.00167717,-0.062689 0.00833465,-0.082563 0.0447835,-0.0888819 0.0818071,-0.114228 0.131654,-0.14835 0.0506102,-0.0346457 0.11285,-0.0772677 0.203055,-0.185996l0.00238976 0.00308268c0.0647323,0.0830157 0.154197,0.150862 0.258535,0.200063 0.104961,0.0494961 0.225224,0.080311 0.350555,0.0888386 0.0862677,0.00587402 0.154378,0.0137047 0.197839,0.0410709 0.0379921,0.0239213 0.0599567,0.0670945 0.0634331,0.145366 -0.0157126,0.0240472 -0.0545079,0.0332559 -0.093311,0.0424567 -0.00512205,0.0012126 -0.010252,0.00242913 -0.0199449,0.00485827 -0.0232165,0.00580315 -0.0517992,0.0524016 -0.0618976,0.0720118 -0.094815,0.184106 0.191819,0.119567 0.300087,0.119567 0.0179921,0 0.0330709,-0.0124803 0.037063,-0.029252 0.0088937,-0.0264291 0.0274567,-0.0466339 0.0460118,-0.0668346 0.0258504,-0.0281378 0.0517126,-0.0562913 0.0649055,-0.103185 0.00274409,-0.00977953 0.0013937,-0.0197441 -0.00301181,-0.028063 -0.0211969,-0.0429567 -0.0405079,-0.0825551 -0.0549055,-0.123516 -0.0142441,-0.0405276 -0.0242047,-0.0836654 -0.0273622,-0.135228 -0.00218504,-0.0355 -0.00662598,-0.0704016 -0.0163071,-0.0988898 -0.0124016,-0.0364921 -0.033248,-0.0635197 -0.0675157,-0.0727992 -0.0398543,-0.0107795 -0.0752323,-0.0170315 -0.108535,-0.0229134 -0.0389291,-0.00687402 -0.0747638,-0.0132008 -0.109709,-0.0260354z"/>
  <path class="fil4" d="M1.94256 3.27244l0.0017874 -0.0030315c0.0115551,-0.0199843 0.00261811,-0.0364528 0.00817323,-0.0324528 0.00917717,0.00660236 -0.00415748,0.0780118 0.00213386,0.101146 0.00601575,0.0238386 0.0313622,0.0535433 0.063248,0.0908898 0.0297874,0.0348976 0.0927362,0.112425 0.1225,0.171311 -0.0026063,0.0332323 -0.0127559,0.068126 -0.0335512,0.115724l-0.0367756 0.0841929 0.051748 -0.046752 0.0164252 -0.0148386c0.0608268,-0.0549567 0.0904882,-0.152445 0.110866,-0.229319 0.00327559,-0.0123425 0.00711417,-0.0283583 0.0130472,-0.0396496 0.00270472,-0.0051378 0.00713386,-0.00909449 0.0128189,-0.0105709 0.0104724,-0.0027126 0.0212441,0.0036378 0.0239606,0.0141063 0.00237795,0.00914961 0.0140984,0.0202756 0.020685,0.0269724 0.0111102,0.0112874 0.0225433,0.0223031 0.0339055,0.0333307 0.00948425,0.00920472 0.0189646,0.0184094 0.0282362,0.0278307l0.027752 0.0282008 0.00591339 -0.039122c0.00538976,-0.0356614 0.0120709,-0.30776 0.0122598,-0.308079 0.00547638,-0.00934252 0.0175276,-0.0125 0.0268661,-0.00701575 0.0443858,0.0260512 0.0930276,0.0488583 0.13865,0.0743425l-0.0114134 -0.0446496c-0.0210787,-0.0824252 -0.0533661,-0.174429 -0.100831,-0.24565 -0.00264961,-0.00397638 -0.00402756,-0.00862205 -0.00353543,-0.0134094 0.00110236,-0.0107677 0.0108031,-0.018685 0.0215709,-0.0175787 0.00816929,0.00096063 0.0294803,0.0110236 0.0372598,0.0146339 0.0224094,0.0103858 0.0445197,0.021874 0.0662047,0.033689 0.00264567,0.00144094 0.00528346,0.00288976 0.00791732,0.00434646 0.0155512,0.00859449 0.0309843,0.0174449 0.0461969,0.026622l0.0264488 0.0159528 0.00343307 -0.0306969c0.0124528,-0.111386 -0.0246614,-0.219827 -0.0716102,-0.319508l0.000200787 -9.44882e-005 -0.00870866 -0.0178661c-0.00219685,-0.00451575 -0.00259055,-0.00959843 -0.00111417,-0.0143937 0.00319291,-0.0103937 0.0141929,-0.0162205 0.0245827,-0.0130236 0.0316929,0.00974016 0.0684961,0.0206732 0.10152,0.0243465 0.0186535,0.0020748 0.0449528,0.00251575 0.0538858,-0.0180669 0.00435827,-0.0100472 0.0021063,-0.020563 -0.00285433,-0.0298543 -0.0126654,-0.0237205 -0.0300433,-0.0466378 -0.0470551,-0.0674055 -0.0204055,-0.0249134 -0.0423189,-0.0487913 -0.0646535,-0.0719803 -0.0820472,-0.0852087 -0.144862,-0.154146 -0.269028,-0.190087 -0.185177,-0.0535906 -0.261012,0.00233465 -0.385075,0.114268 -0.0482953,0.0435709 -0.0964961,0.0870591 -0.150591,0.111736 -0.167323,0.0763386 -0.0740945,0.090689 -0.162193,0.199909 -0.0243976,0.030252 -0.0712165,0.0478425 -0.0961063,0.0793622 -0.0317953,0.0402677 -0.0549291,0.0704449 -0.0564528,0.0732756 -0.00587008,0.0109213 -0.00585827,0.023437 -0.00105512,0.0339016 0.010185,0.0236732 0.0208346,0.0462756 0.032189,0.0672047 0.0113543,0.0209213 0.0239409,0.0411929 0.0381614,0.0605787 0.00076378,0.0401024 0.0123543,0.086189 0.0312677,0.125232 0.0219606,0.0453307 0.0548071,0.0831614 0.0942913,0.0962835 0.0169724,0.00561024 0.0350827,-0.00142913 0.0441181,-0.0159724 0.000169291,0.000106299 0.0344843,0.0114685 0.0359606,0.0118386 0.0444961,0.0110827 0.0887677,0.0221181 0.116417,-0.0201614z"/>
  <path class="fil5" d="M4.54372 3.31106c0.0375,0.0550079 0.0479803,0.124433 0.0937205,0.201878 0.0830591,0.140634 0.393197,0.256398 0.396232,0.0223543 0.000255906,-0.146791 -0.131339,-0.251413 -0.16285,-0.304142 -0.0152441,-0.0255197 -0.0257008,-0.0430118 -0.0270512,-0.0555669 -0.00843307,-0.0783031 0.12128,-0.401854 0.190189,-0.398354 0.0209567,0.00106693 0.0370787,0.0189291 0.0360118,0.0398858 -0.00166535,0.0319724 -0.00634252,0.0699488 -0.0111614,0.109126 -0.00274803,0.022315 -0.00554724,0.0450472 -0.00787008,0.0664409 0.0112244,-0.00489764 0.022374,-0.00474016 0.0334843,-0.000543307 0.0356457,0.0134685 0.0462126,0.0694173 0.057,0.126551 0.00517323,0.0273858 0.0104173,0.0551457 0.0159094,0.0711772 0.0203898,0.00172835 0.0358504,0.019374 0.0347205,0.0399488 -0.00242913,0.0433898 -0.000653543,0.0897638 0.00111417,0.135862 0.00588189,0.153461 0.0116654,0.304291 -0.121768,0.374303 -0.0535591,0.0281063 -0.108827,0.0436102 -0.162886,0.0471339 -0.0122913,0.000799213 -0.0245197,0.000980315 -0.0366496,0.000551181 0.00388583,0.0016063 0.00777953,0.00312205 0.011689,0.00455512 -0.23389,-0.0315748 -0.391193,-0.24628 -0.509295,-0.518488 -0.0743346,-0.171323 -0.225362,-0.289106 -0.363185,-0.36378 0.0619449,0.0132598 0.126421,0.0337677 0.194004,0.0646457 0.183654,0.0839055 0.225701,0.17078 0.338642,0.336461z"/>
  <path class="fil6" d="M4.86265 3.21741c-0.0107323,-0.0182677 -0.0177953,-0.0316654 -0.0188858,-0.0418307 -0.00843307,-0.0783031 0.12128,-0.401854 0.190189,-0.398354 0.0209567,0.00106693 0.0370787,0.0189291 0.0360118,0.0398858 -0.00166535,0.0319724 -0.00634252,0.0699488 -0.0111614,0.109126 -0.00274803,0.022315 -0.00554724,0.0450472 -0.00787008,0.0664409 0.0112244,-0.00489764 0.022374,-0.00474016 0.0334843,-0.000543307 0.0356457,0.0134685 0.0462126,0.0694173 0.057,0.126551 0.00517323,0.0273858 0.0104173,0.0551457 0.0159094,0.0711772 0.0203898,0.00172835 0.0358504,0.019374 0.0347205,0.0399488 -0.00242913,0.0433898 -0.000653543,0.0897638 0.00111417,0.135862 0.00034252,0.00892126 0.000681102,0.0178307 0.000996063,0.0267205 -0.00948425,0.00997244 -0.0210276,0.0170787 -0.0349961,0.0204252 -0.0319724,0.00765748 -0.0640945,-0.0120472 -0.0717559,-0.0440157 -0.00838189,-0.0367047 -0.0133268,-0.0597205 -0.0162362,-0.0803543 -0.00855906,0.00608661 -0.0170039,0.0106732 -0.0253189,0.012315 -0.0753465,0.014878 -0.0854173,-0.0578465 -0.0751339,-0.137276l-0.0479331 0.0393386c-0.019626,0.0143071 -0.0413346,0.018563 -0.0601339,0.0145827z"/>
  <path class="fil2" d="M2.06298 2.39379c0,0.0508701 -0.034748,0.0377992 -0.0221969,0.0806142 0.0414882,0.0235236 0.0145433,-0.000968504 0.0665827,0.0305276 0.0574606,0.0347756 0.0747362,0.164858 0.0367362,0.219228 -0.0162638,0.0232717 -0.0880591,0.161673 -0.0927717,0.184783 -0.0150197,0.0736732 0.0460551,0.189087 -0.00842126,0.252476 -0.00441339,0.0051378 -0.00144882,0.00984646 -0.0126693,0.0151378 -0.00739764,0.00348819 -0.0361378,0.0240787 -0.0500866,0.0272953 -0.00359055,0.0275512 -0.0241142,-0.00148819 -0.0270394,0.0381811 -0.000401575,0.00539764 -0.00241732,0.00535433 -0.0062126,0.00595276"/>
  <path class="fil3" d="M1.60766 2.84026c-0.0317953,0.0402677 -0.0549291,0.0704449 -0.0564528,0.0732756 -0.00587008,0.0109213 -0.00585827,0.023437 -0.00105512,0.0339016 0.010185,0.0236732 0.0208346,0.0462756 0.032189,0.0672047 0.0113543,0.0209213 0.0239409,0.0411929 0.0381614,0.0605787 0.00076378,0.0401024 0.0123543,0.086189 0.0312677,0.125232 0.0219606,0.0453307 0.0548071,0.0831614 0.0942913,0.0962835 0.0169724,0.00561024 0.0350827,-0.00142913 0.0441181,-0.0159724 0.000169291,0.000106299 0.0344843,0.0114685 0.0359606,0.0118386 0.0444961,0.0110827 0.0887677,0.0221181 0.116417,-0.0201614l0.0017874 -0.0030315c0.00490157,-0.00847638 0.00611417,-0.0163228 0.00631102,-0.0222362 0.000271654,-0.00803543 -0.00133465,-0.0125197 0.0018622,-0.0102165 0.000362205,0.000259843 0.000685039,0.00061811 0.000980315,0.00107087 0.00399213,-0.0336496 0.0231969,-0.00761024 0.0266575,-0.0341732 0.0139488,-0.00321654 0.042689,-0.0238071 0.0500866,-0.0272953 0.0112205,-0.00529134 0.00825591,-0.01 0.0126693,-0.0151378 0.0544764,-0.0633898 -0.00659843,-0.178803 0.00842126,-0.252476 0.0047126,-0.0231102 0.0765079,-0.161512 0.0927717,-0.184783 0.038,-0.0543701 0.0207244,-0.184453 -0.0367362,-0.219228 -0.0520394,-0.0314961 -0.0250945,-0.00700394 -0.0665827,-0.0305276 -0.0110433,-0.0376654 0.0145197,-0.0320827 0.0208307,-0.0648189 -0.0144646,0.012252 -0.0293819,0.0255118 -0.0450669,0.0396654 -0.0482953,0.0435709 -0.0964961,0.0870591 -0.150591,0.111736 -0.167323,0.0763386 -0.0800079,0.090689 -0.168106,0.199909 -0.0243976,0.030252 -0.0653031,0.0478425 -0.0901929,0.0793622z"/>
  <path class="fil4" d="M1.59242 3.03247l0.000716535 0.0012126c0.000523622,0.000818898 0.00113386,0.00162992 0.00185433,0.00242913 0.00855118,0.00951969 0.0185394,0.0206378 0.0197598,0.0310945 0.00188583,0.00268898 0.00380315,0.00535827 0.00575197,0.00801575 0.00053937,0.0283071 0.00647638,0.0595945 0.0165709,0.0892835 0.00192913,0.00501181 0.00405906,0.0101417 0.00640551,0.015374 7.87402e-005,0.000779528 0.00019685,0.0017126 0.000366142,0.00275984 0.0024685,0.00606299 0.00511811,0.0120157 0.0079252,0.017815l0.00133071 0.00270472c0.0095748,0.0106024 0.0285197,-0.00131496 0.0660236,-0.0172717 0.0616378,-0.0262283 0.152929,-0.039 0.153138,-0.0392205 0.00451969,-0.00474803 0.00433465,-0.0122677 -0.000417323,-0.0167874 -0.0223346,-0.021252 -0.138224,0.0240236 -0.162024,0.0341496 -0.0386024,0.0164252 -0.0423819,0.0171024 -0.042752,0.013315 6.29921e-005,-0.0017874 -0.000275591,-0.00361417 -0.00107087,-0.00535433l-3.54331e-005 1.5748e-005c-0.00874803,-0.0191299 -0.014311,-0.036874 -0.0177323,-0.0524764 -0.00463386,-0.0210984 -0.0102638,-0.0370276 -0.00966142,-0.0480197 0.00116142,-0.0211811 -0.0135118,-0.0375118 -0.0259094,-0.0513031 -0.00434252,-0.00482677 -0.00338976,-0.0102205 -0.00543701,-0.0135276 -0.00344094,-0.0055748 -0.010752,-0.00730315 -0.0163268,-0.0038622 -0.0055748,0.00344094 -0.00729921,0.010752 -0.0038622,0.0163268 0.00261417,0.00422047 0.00295276,0.00885039 0.00538583,0.0133268z"/>
  <path class="fil4" d="M1.5512 2.91354c-0.00587008,0.0109213 -0.00585827,0.023437 -0.00105512,0.0339016 0.010185,0.0236732 0.0208346,0.0462756 0.032189,0.0672047 0.005,0.0092126 0.0102362,0.0182992 0.015748,0.0272362 0.0300827,-0.0381102 0.0846693,-0.11502 0.0785709,-0.143488 -0.00609843,-0.0284685 -0.0272717,-0.058685 -0.0444134,-0.0815157 -0.0073622,0.00927953 -0.0175787,0.0145118 -0.0245866,0.0233858 -0.0317953,0.0402677 -0.0549291,0.0704449 -0.0564528,0.0732756z"/>
  <path class="fil7" d="M1.94091 2.69095c0.00572441,-0.000153543 0.0115394,0.00015748 0.0173543,0.000661417 0.00287795,0.0142992 0.00279134,0.028878 -0.00337795,0.0418425 -0.00640945,0.0134843 -0.0160984,0.0219921 -0.0280787,0.0302362 -0.0132441,0.00911417 -0.0226929,0.00873228 -0.0371535,0.00269685 -0.0201654,-0.00840157 -0.0322441,-0.0272677 -0.0365866,-0.0479882 0,0 0.000129921,-0.000681102 0.000129921,-0.000681102 0.0275433,-0.0145709 0.0558268,-0.0258937 0.0877126,-0.0267677z"/>
  <path class="fil8" d="M1.88557 2.70272c0.0169921,-0.00654724 0.0346417,-0.0109528 0.0535472,-0.0117008 0.00434646,0.00777559 0.00537402,0.018189 0.00201575,0.0287323 -0.00595669,0.0186929 -0.0234685,0.0307008 -0.0391063,0.0268268 -0.0156417,-0.00387402 -0.0234921,-0.0221693 -0.0175315,-0.0408622 0.000322835,-0.00101969 0.000685039,-0.00201575 0.0010748,-0.00299606z"/>
  <path class="fil9" d="M1.91778 2.70494c0.0035748,-0.00297244 0.00539764,0.00668504 0.00316142,0.00966535 -0.00266929,0.00353937 -0.0141969,0.00673228 -0.0180118,0.00306693 -0.00695669,-0.0067126 0.00949213,-0.023063 0.0168622,-0.013315l-0.00201181 0.000582677z"/>
  <path class="fil10" d="M1.97231 2.69079c-0.0956417,-0.00655118 -0.133642,0.0378228 -0.183539,0.114449 0.0442795,-0.0958898 0.0797402,-0.141449 0.188677,-0.149563 0.00969685,0.00142126 0.0164055,0.0104291 0.0149882,0.020126 -0.00141732,0.00969685 -0.0104291,0.0164094 -0.020126,0.0149882z"/>
  <path class="fil11" d="M4.13021 3.78487c-0.151063,-0.128283 -0.202008,-0.25385 -0.202008,-0.25385 -0.139697,0.152732 -0.175248,0.183102 -0.376654,0.275677 -0.0222835,0.0778819 -0.0238386,0.136732 -0.0251929,0.187976 -0.00140157,0.0530433 -0.00255512,0.0966063 -0.0322362,0.14439 -0.0304213,0.0489685 -0.0486732,0.070626 -0.0611181,0.0853937 -0.032248,0.0382717 -0.0351929,0.0417598 -0.0571732,0.174512 -0.00129921,0.00798031 -1.5748e-005,0.0157953 0.00324409,0.0225787 0.0051811,0.0107717 0.0153622,0.0189409 0.0281535,0.0210276 0.0604449,0.00984252 0.166165,0.000602362 0.234681,0.000602362 0.00658661,0 0.0127795,-0.00167323 0.018185,-0.00461417 0.134512,-0.0620787 0.132035,-0.155453 0.129772,-0.240031 -0.000862205,-0.0321929 -0.00167717,-0.062689 0.00833465,-0.082563 0.0447835,-0.0888819 0.0818071,-0.114228 0.131654,-0.14835 0.0501024,-0.0342992 0.111606,-0.0764134 0.200358,-0.182748z"/>
  <path class="fil11" d="M2.10386 4.29764c0.116768,-0.0838543 0.188461,-0.304528 0.360961,-0.459724 -0.00557874,-0.00892126 -0.0118622,-0.0196811 -0.0188465,-0.0326575 -0.0347244,-0.0644843 -0.0421693,-0.0868071 -0.0992126,-0.126492 -0.0570433,-0.0396811 -0.0719213,-0.0347205 -0.104169,-0.0818465 -0.00484252,-0.00708268 -0.00912992,-0.0139961 -0.0129134,-0.0206339 -0.0196732,0.0604331 -0.047378,0.122543 -0.0914331,0.162346l-0.0164252 0.0148386 -0.0434134 0.0392244c-0.0453504,0.120665 -0.112484,0.275787 -0.180035,0.365126 -0.0237598,0.0314291 -0.0393622,0.0351063 -0.0536457,0.0384724 -0.044189,0.0104055 -0.0818622,0.0192835 -0.143189,0.195559 -0.0096378,0.0276614 0.014315,0.0549134 0.0424843,0.0499016 0.037437,0.00108268 0.122646,-7.48031e-005 0.190535,-0.000996063 0.0363268,-0.000496063 0.0667756,-0.000909449 0.0880551,-0.000909449 0.0474094,0 0.0593268,-0.107957 0.081248,-0.142209z"/>
 </g>
</svg>
