<?xml version="1.0" encoding="UTF-8"?>
<!DOCTYPE svg PUBLIC "-//W3C//DTD SVG 1.1//EN" "http://www.w3.org/Graphics/SVG/1.1/DTD/svg11.dtd">
<!-- Creator: CorelDRAW -->
<svg xmlns="http://www.w3.org/2000/svg" xml:space="preserve" width="6.82666in" height="6.82666in" style="shape-rendering:geometricPrecision; text-rendering:geometricPrecision; image-rendering:optimizeQuality; fill-rule:evenodd; clip-rule:evenodd"
viewBox="0 0 6.82666 6.82666"
 xmlns:xlink="http://www.w3.org/1999/xlink">
 <defs>
  <style type="text/css">
   <![CDATA[
    .fil2 {fill:none}
    .fil7 {fill:#43372D}
    .fil5 {fill:#4D3C2E}
    .fil4 {fill:#7D583C}
    .fil6 {fill:#926A4C}
    .fil1 {fill:#00000000}
    .fil0 {fill:#00000000}
    .fil8 {fill:#FBE9E7}
    .fil3 {fill:#926A4C;fill-rule:nonzero}
   ]]>
  </style>
   <clipPath id="id0">
    <path d="M3.41333 -3.93701e-006c1.88513,0 3.41333,1.5282 3.41333,3.41333 0,1.88513 -1.5282,3.41333 -3.41333,3.41333 -1.88513,0 -3.41333,-1.5282 -3.41333,-3.41333 0,-1.88513 1.5282,-3.41333 3.41333,-3.41333z"/>
   </clipPath>
 </defs>
 <g id="Layer_x0020_1">
  <metadata id="CorelCorpID_0Corel-Layer"/>
  <path class="fil0" d="M3.41333 -3.93701e-006c1.88513,0 3.41333,1.5282 3.41333,3.41333 0,1.88513 -1.5282,3.41333 -3.41333,3.41333 -1.88513,0 -3.41333,-1.5282 -3.41333,-3.41333 0,-1.88513 1.5282,-3.41333 3.41333,-3.41333z"/>
  <g style="clip-path:url(#id0)">
   <g id="_637660768">
    <g>
     <polygon id="_4421103201" class="fil1" points="4.44539,2.03441 8.23166,5.82068 8.2367,5.82649 8.24169,5.83232 8.24663,5.83819 8.25152,5.84408 8.25635,5.85 8.26113,5.85595 4.47487,2.06968 4.47008,2.06373 4.46525,2.05781 4.46036,2.05191 4.45542,2.04605 4.45043,2.04022 "/>
     <polygon id="_442110464" class="fil1" points="4.97505,3.15619 8.76132,6.94246 8.76548,6.94863 8.76959,6.95483 8.77367,6.96105 8.77772,6.96728 8.78172,6.97353 8.78569,6.9798 8.78961,6.98609 8.7935,6.99239 8.79735,6.99872 8.80117,7.00506 8.80494,7.01142 8.80867,7.01779 8.81237,7.02419 8.81602,7.03059 8.81964,7.03702 8.82321,7.04346 5.03694,3.25719 5.03337,3.25075 5.02975,3.24432 5.0261,3.23791 5.02241,3.23152 5.01867,3.22515 5.0149,3.21879 5.01109,3.21244 5.00724,3.20612 5.00335,3.19982 4.99942,3.19353 4.99545,3.18726 4.99145,3.18101 4.98741,3.17478 4.98333,3.16856 4.97921,3.16236 "/>
     <polygon id="_442112384" class="fil1" points="5.03694,3.25719 8.82321,7.04346 8.83197,7.05963 8.84048,7.0759 8.84874,7.09227 8.85674,7.10874 8.86449,7.12531 8.87198,7.14198 8.87922,7.15874 8.88619,7.1756 8.8929,7.19254 8.89935,7.20959 8.90553,7.22671 8.91144,7.24393 8.91708,7.26124 8.92245,7.27863 8.92755,7.2961 8.93237,7.31365 8.93691,7.33129 8.94118,7.349 8.94516,7.3668 8.94886,7.38467 8.95227,7.40261 8.9554,7.42063 8.95824,7.43872 8.96078,7.45687 8.96304,7.4751 8.965,7.4934 8.96667,7.51176 8.96803,7.53019 8.96909,7.54867 8.96986,7.56722 8.97032,7.58583 8.97047,7.6045 5.1842,3.81823 5.18405,3.79956 5.18359,3.78095 5.18283,3.7624 5.18176,3.74391 5.1804,3.72549 5.17873,3.70713 5.17677,3.68883 5.17452,3.6706 5.17197,3.65244 5.16913,3.63435 5.166,3.61634 5.16259,3.59839 5.15889,3.58052 5.15491,3.56273 5.15065,3.54502 5.1461,3.52738 5.14128,3.50983 5.13619,3.49235 5.13081,3.47496 5.12517,3.45766 5.11926,3.44044 5.11308,3.42331 5.10663,3.40627 5.09992,3.38933 5.09295,3.37247 5.08571,3.35571 5.07822,3.33904 5.07047,3.32247 5.06247,3.306 5.05421,3.28963 5.0457,3.27336 "/>
     <polygon id="_442112408" class="fil1" points="5.1842,3.81823 8.97047,7.6045 8.96989,7.64089 8.96815,7.67704 8.96527,7.71294 8.96126,7.7486 8.95615,7.784 8.94993,7.81911 8.94262,7.85394 8.93424,7.88848 8.9248,7.92271 8.91433,7.95661 8.90282,7.99019 8.89029,8.02343 8.87677,8.05632 8.86226,8.08884 8.84677,8.12099 8.83032,8.15275 8.81293,8.18412 8.79461,8.21508 8.77537,8.24562 8.75522,8.27574 8.73419,8.30541 8.71228,8.33463 8.68951,8.36339 8.66589,8.39168 8.64144,8.41948 8.61617,8.44678 8.59009,8.47359 8.56323,8.49987 8.53558,8.52562 8.50718,8.55083 8.47802,8.5755 8.44813,8.5996 4.66186,4.81333 4.69175,4.78923 4.72091,4.76456 4.74931,4.73935 4.77696,4.71359 4.80383,4.68731 4.82991,4.66051 4.85517,4.63321 4.87963,4.60541 4.90324,4.57712 4.92602,4.54836 4.94792,4.51914 4.96896,4.48946 4.9891,4.45935 5.00834,4.42881 5.02666,4.39785 5.04406,4.36648 5.0605,4.33472 5.07599,4.30257 5.0905,4.27005 5.10402,4.23716 5.11655,4.20392 5.12806,4.17034 5.13854,4.13644 5.14797,4.10221 5.15635,4.06767 5.16366,4.03284 5.16988,3.99772 5.175,3.96233 5.179,3.92667 5.18189,3.89076 5.18362,3.85461 "/>
     <polygon id="_442111784" class="fil1" points="1.85161,3.15618 5.63788,6.94245 5.60893,6.92594 5.58116,6.90709 5.55463,6.88605 5.52937,6.86294 1.7431,3.07667 1.76836,3.09978 1.79489,3.12082 1.82266,3.13967 "/>
     <polygon id="_442111760" class="fil1" points="3.41333,5.22101 7.1996,9.00728 7.15407,9.00683 7.10882,9.00547 7.06387,9.00322 7.01922,9.0001 6.9749,8.9961 6.93091,8.99124 6.88728,8.98554 6.84401,8.979 6.80112,8.97164 6.75862,8.96346 6.71653,8.95448 6.67486,8.9447 6.63362,8.93415 6.59283,8.92282 6.55251,8.91074 6.51265,8.8979 6.47329,8.88433 6.43443,8.87003 6.39609,8.85501 6.35828,8.83929 6.32102,8.82287 6.28431,8.80577 6.24818,8.788 6.21264,8.76957 6.17769,8.75048 6.14336,8.73076 6.10966,8.71041 6.0766,8.68944 6.0442,8.66786 6.01247,8.64569 5.98142,8.62293 5.95107,8.5996 2.1648,4.81333 2.19515,4.83666 2.2262,4.85942 2.25793,4.88159 2.29033,4.90317 2.32339,4.92414 2.35709,4.94449 2.39143,4.96421 2.42637,4.9833 2.46191,5.00173 2.49805,5.0195 2.53475,5.0366 2.57202,5.05302 2.60983,5.06874 2.64817,5.08376 2.68702,5.09806 2.72639,5.11163 2.76624,5.12446 2.80657,5.13655 2.84735,5.14788 2.88859,5.15843 2.93026,5.16821 2.97235,5.17719 3.01485,5.18537 3.05774,5.19273 3.10102,5.19927 3.14465,5.20497 3.18863,5.20983 3.23295,5.21383 3.2776,5.21695 3.32255,5.2192 3.3678,5.22056 "/>
     <polygon id="_442111880" class="fil1" points="2.1648,4.81333 5.95107,8.5996 5.92118,8.5755 5.89202,8.55083 2.10575,4.76456 2.13491,4.78923 "/>
     <polygon id="_442112576" class="fil1" points="4.66186,4.81333 8.44813,8.5996 8.41778,8.62293 8.38673,8.64569 8.355,8.66786 8.32259,8.68944 8.28954,8.71041 8.25583,8.73076 8.2215,8.75048 8.18656,8.76957 8.15102,8.788 8.11488,8.80577 8.07818,8.82287 8.04091,8.83929 8.0031,8.85501 7.96476,8.87003 7.92591,8.88433 7.88654,8.8979 7.84669,8.91074 7.80636,8.92282 7.76557,8.93415 7.72433,8.9447 7.68267,8.95448 7.64057,8.96346 7.59807,8.97164 7.55519,8.979 7.51191,8.98554 7.46828,8.99124 7.4243,8.9961 7.37998,9.0001 7.33533,9.00322 7.29038,9.00547 7.24513,9.00683 7.1996,9.00728 3.41333,5.22101 3.45886,5.22056 3.50411,5.2192 3.54906,5.21695 3.59371,5.21383 3.63803,5.20983 3.68202,5.20497 3.72565,5.19927 3.76892,5.19273 3.81181,5.18537 3.85431,5.17719 3.8964,5.16821 3.93807,5.15843 3.97931,5.14788 4.02009,5.13655 4.06042,5.12446 4.10028,5.11163 4.13964,5.09806 4.1785,5.08376 4.21683,5.06874 4.25465,5.05302 4.29191,5.0366 4.32861,5.0195 4.36475,5.00173 4.40029,4.9833 4.43524,4.96421 4.46957,4.94449 4.50327,4.92414 4.53633,4.90317 4.56873,4.88159 4.60046,4.85942 4.63151,4.83666 "/>
     <polygon id="_442112888" class="fil1" points="5.15049,2.19772 8.93676,5.98399 8.95991,6.01298 8.98066,6.04344 8.99904,6.07524 9.01511,6.10824 9.02889,6.14231 9.04045,6.1773 9.04981,6.21309 9.05704,6.24954 9.06216,6.2865 9.06522,6.32385 9.06626,6.36145 9.06534,6.39917 9.06249,6.43686 9.05775,6.47439 9.05117,6.51163 9.0428,6.54844 9.03267,6.58468 9.02084,6.62022 9.00733,6.65492 8.99221,6.68865 8.97551,6.72127 8.95727,6.75264 8.93754,6.78263 8.91636,6.8111 8.89378,6.83792 8.86983,6.86295 8.84457,6.88606 8.81804,6.9071 8.79027,6.92594 8.76132,6.94246 4.97505,3.15619 5.004,3.13967 5.03177,3.12083 5.0583,3.09978 5.08357,3.07668 5.10751,3.05165 5.13009,3.02483 5.15127,2.99636 5.171,2.96637 5.18924,2.935 5.20594,2.90238 5.22107,2.86865 5.23457,2.83395 5.24641,2.79841 5.25653,2.76217 5.26491,2.72536 5.27148,2.68812 5.27622,2.65059 5.27907,2.61289 5.28,2.57518 5.27895,2.53758 5.27589,2.50023 5.27077,2.46326 5.26355,2.42682 5.25418,2.39103 5.24263,2.35604 5.22884,2.32197 5.21278,2.28897 5.19439,2.25717 5.17365,2.2267 "/>
    </g>
    <path id="_637661392" class="fil1" d="M5.09679 2.1447c0.313173,0.263677 0.19326,0.848283 -0.121736,1.01149 0.0222677,0.0329055 0.0429291,0.0665945 0.0618937,0.101008 0.0947362,0.17189 0.14726,0.361598 0.14726,0.561039 0,0.38926 -0.199618,0.741039 -0.522346,0.995098 -0.319961,0.251886 -0.761421,0.407681 -1.24853,0.407681 -0.487106,0 -0.928567,-0.155795 -1.24853,-0.407681 -0.322728,-0.254059 -0.522346,-0.605839 -0.522346,-0.995098 0,-0.199441 0.0525236,-0.38915 0.14726,-0.561039 0.0189646,-0.0344134 0.039626,-0.0681063 0.0618937,-0.101012 -0.314992,-0.163209 -0.434906,-0.747811 -0.121732,-1.01148 0.158598,-0.133539 0.391031,-0.140681 0.621917,-0.0750197 0.050752,-0.0636299 0.110339,-0.122378 0.177402,-0.175173 0.226705,-0.178469 0.539331,-0.288854 0.884134,-0.288854 0.344803,0 0.657429,0.110386 0.884134,0.288854 0.067063,0.0527953 0.12665,0.111543 0.177402,0.175177 0.23089,-0.0656654 0.463323,-0.0585236 0.621921,0.0750157z"/>
   </g>
  </g>
  <path class="fil2" d="M3.41333 -3.93701e-006c1.88513,0 3.41333,1.5282 3.41333,3.41333 0,1.88513 -1.5282,3.41333 -3.41333,3.41333 -1.88513,0 -3.41333,-1.5282 -3.41333,-3.41333 0,-1.88513 1.5282,-3.41333 3.41333,-3.41333z"/>
  <path class="fil3" d="M4.88976 3.18843c-0.0879213,-0.121602 -0.193106,-0.279748 -0.309689,-0.374531 0.00317323,-0.0158858 0.00594488,-0.0318583 0.00831496,-0.0478898 0.00690157,-0.046689 0.0104173,-0.0938425 0.0104173,-0.141043 0,-0.186228 -0.0617165,-0.39415 -0.152929,-0.546657 0.240283,-0.0746693 0.485669,-0.0727402 0.650909,0.0663898 0.340059,0.286311 0.16948,0.95102 -0.207024,1.04373z"/>
  <path class="fil4" d="M4.77499 3.11635c0.013248,-0.0067874 0.0942362,-0.0565984 0.106217,-0.0654606 0.0947559,-0.0701024 0.149925,-0.200146 0.164925,-0.311039 0.0177441,-0.131161 -0.0117717,-0.27611 -0.116949,-0.364669 -0.0922913,-0.0777008 -0.221193,-0.0862756 -0.340465,-0.0672835 -0.00699606,0.00111024 -0.147945,0.0309961 -0.154866,0.0322913 0.0549331,0.124295 0.122268,0.260461 0.122268,0.390626 0,0.0416024 -0.00297244,0.083189 -0.00882677,0.124374 0.0739803,0.0698583 0.168047,0.177528 0.227697,0.261161z"/>
  <path class="fil3" d="M1.9369 3.18843c0.0879213,-0.121602 0.193102,-0.279748 0.309689,-0.374531 -0.00317323,-0.0158858 -0.00594488,-0.0318583 -0.00831496,-0.0478898 -0.00690551,-0.046689 -0.0104213,-0.0938425 -0.0104213,-0.141043 0,-0.186228 0.0617165,-0.39415 0.152933,-0.546657 -0.240283,-0.0746693 -0.485669,-0.0727402 -0.650909,0.0663898 -0.340059,0.286311 -0.16948,0.95102 0.207024,1.04373z"/>
  <path class="fil4" d="M2.05167 3.11635c-0.013248,-0.0067874 -0.0942362,-0.0565984 -0.106217,-0.0654606 -0.0947559,-0.0701024 -0.149925,-0.200146 -0.164925,-0.311039 -0.0177441,-0.131161 0.0117677,-0.27611 0.116949,-0.364669 0.0922874,-0.0777008 0.221193,-0.0862756 0.340461,-0.0672835 0.007,0.00111024 0.147945,0.0309961 0.15487,0.0322913 -0.0549331,0.124295 -0.122268,0.260461 -0.122268,0.390626 0,0.0416024 0.00297244,0.083189 0.00882677,0.124374 -0.0739843,0.0698583 -0.168047,0.177528 -0.227697,0.261161z"/>
  <path class="fil5" d="M4.64216 2.80805c0.166169,0.12685 0.301126,0.279197 0.394787,0.449142 0.0947362,0.17189 0.14726,0.361598 0.14726,0.561039 0,0.38926 -0.199618,0.741039 -0.522346,0.995098 -0.319961,0.251886 -0.761421,0.407681 -1.24853,0.407681 -0.487106,0 -0.928567,-0.155795 -1.24853,-0.407681 -0.322728,-0.254059 -0.522346,-0.605839 -0.522346,-0.995098 0,-0.199441 0.0525236,-0.38915 0.14726,-0.561039 0.0936614,-0.169945 0.228618,-0.322291 0.394787,-0.449142 -0.0076063,-0.0288701 -0.0136535,-0.0582047 -0.0180472,-0.0879449 -0.00572047,-0.0386969 -0.00867323,-0.0778622 -0.00867323,-0.117358 0,-0.277228 0.141937,-0.527591 0.371413,-0.708244 0.226705,-0.178469 0.539331,-0.288854 0.884134,-0.288854 0.344803,0 0.657429,0.110386 0.884134,0.288854 0.229476,0.180654 0.371413,0.431016 0.371413,0.708244 0,0.0394961 -0.00295276,0.0786614 -0.00867323,0.117358 -0.0043937,0.0297402 -0.0104409,0.0590748 -0.0180472,0.0879449z"/>
  <path class="fil6" d="M2.09262 4.29462c-0.0819882,-0.126807 -0.132642,-0.271429 -0.132642,-0.429921 0,-0.415469 0.26024,-0.657472 0.528319,-0.906772l0.0247362 -0.0230157c-0.0569488,-0.439354 0.130378,-0.741689 0.404004,-0.901874 0.148594,-0.0869843 0.322677,-0.131484 0.496634,-0.132736 0.173961,-0.00124409 0.348142,0.0407835 0.496945,0.126843 0.272528,0.157606 0.459764,0.460862 0.405969,0.913748 0.128394,0.118362 0.261445,0.245992 0.365091,0.392335 0.109677,0.154866 0.185004,0.328894 0.185004,0.531472 0,0.158492 -0.0506535,0.303114 -0.132642,0.429921 -0.0933425,0.144374 -0.227181,0.265071 -0.372535,0.35628 -0.136925,0.0859252 -0.287248,0.149264 -0.443236,0.191579 -0.16478,0.0447008 -0.33615,0.0661457 -0.504937,0.0661457 -0.168787,0 -0.340157,-0.0214449 -0.504937,-0.0661457 -0.155988,-0.042315 -0.306311,-0.105654 -0.443236,-0.191579 -0.145354,-0.0912087 -0.279193,-0.211906 -0.372535,-0.35628z"/>
  <path class="fil5" d="M3.7003 3.4778c0.0491024,0 0.0943819,0.00834252 0.127886,0.0218268 0.0447165,0.018 0.0723819,0.0471535 0.0723819,0.083185 0,0.0360276 -0.0276654,0.065185 -0.072378,0.083185 -0.0335039,0.0134843 -0.0787835,0.0218268 -0.12789,0.0218268 -0.0490984,0 -0.0943858,-0.00833858 -0.127886,-0.0218268 -0.0447126,-0.018 -0.072374,-0.0471496 -0.072374,-0.083185 0,-0.0360315 0.0276614,-0.065185 0.072378,-0.083185 0.0335,-0.0134843 0.0787795,-0.0218268 0.127882,-0.0218268z"/>
  <path class="fil5" d="M3.12636 3.4778c0.0491063,0 0.0943858,0.00834252 0.127886,0.0218268 0.0447165,0.018 0.072378,0.0471535 0.072378,0.083185 0,0.0360276 -0.0276614,0.065185 -0.072378,0.083185 -0.0335,0.0134843 -0.0787795,0.0218268 -0.127886,0.0218268 -0.0491024,0 -0.0943819,-0.00834252 -0.127886,-0.0218268 -0.0447165,-0.018 -0.072378,-0.0471575 -0.072378,-0.083185 0,-0.0360315 0.0276614,-0.065185 0.0723819,-0.083185 0.0335039,-0.0134843 0.0787835,-0.0218268 0.127882,-0.0218268z"/>
  <path class="fil7" d="M3.77222 2.74236c0.0613937,0 0.116984,0.0248937 0.15722,0.0651299 0.0402402,0.0402402 0.0651299,0.0958307 0.0651299,0.157224 0,0.0613976 -0.0248898,0.116988 -0.0651299,0.157224 -0.0402362,0.0402402 -0.0958268,0.0651299 -0.15722,0.0651299 -0.0613976,0 -0.116988,-0.0248898 -0.157224,-0.0651299 -0.0402441,-0.0402362 -0.0651299,-0.0958268 -0.0651299,-0.157224 0,-0.0613937 0.0248858,-0.116984 0.0651299,-0.157224 0.0402362,-0.0402402 0.0958268,-0.0651299 0.157224,-0.0651299z"/>
  <path class="fil7" d="M3.05444 2.74236c0.0613937,0 0.116984,0.0248937 0.15722,0.0651299 0.0402441,0.0402402 0.0651299,0.0958307 0.0651299,0.157224 0,0.0613976 -0.0248858,0.116988 -0.0651299,0.157224 -0.0402362,0.0402402 -0.0958268,0.0651299 -0.15722,0.0651299 -0.0613937,0 -0.116988,-0.0248898 -0.157224,-0.0651299 -0.0402402,-0.0402362 -0.0651299,-0.0958268 -0.0651299,-0.157224 0,-0.0613937 0.0248898,-0.116984 0.0651299,-0.157224 0.0402362,-0.0402402 0.0958307,-0.0651299 0.157224,-0.0651299z"/>
  <path class="fil5" d="M3.45162 4.37909l0 0.000614173 -0.0382835 0c-0.278449,0 -0.57422,-0.0725748 -0.802984,-0.235972 -0.0839094,-0.059937 -0.158492,-0.131972 -0.218417,-0.216024 -0.0253307,-0.0355315 -0.017,-0.0849173 0.0185472,-0.110213 0.0355315,-0.0252835 0.0848543,-0.0169606 0.110165,0.0185433 0.0497047,0.0697205 0.11185,0.129319 0.181433,0.179016 0.201831,0.144161 0.465913,0.206402 0.711256,0.206402l0.0215236 0c0.239224,-0.00354724 0.493752,-0.0664213 0.689724,-0.206402 0.0695787,-0.0496969 0.131724,-0.109295 0.181433,-0.179016 0.0253071,-0.0355039 0.0746299,-0.0438268 0.110161,-0.0185433 0.0355472,0.0252953 0.0438819,0.0746811 0.0185472,0.110213 -0.0599213,0.0840472 -0.134504,0.156087 -0.218413,0.216024 -0.218272,0.155906 -0.497681,0.228996 -0.764693,0.235358z"/>
  <path class="fil8" d="M3.83199 2.90494c-0.0152913,-0.0152953 -0.0364252,-0.0247559 -0.0597677,-0.0247559 -0.0233425,0 -0.0444803,0.00946063 -0.0597756,0.0247559 -0.0152913,0.0152913 -0.0247559,0.0364291 -0.0247559,0.0597717 0,0.0233425 0.00946457,0.0444803 0.0247559,0.0597756 0.0152953,0.0152913 0.0364331,0.0247559 0.0597756,0.0247559 0.0233425,0 0.0444764,-0.00946457 0.0597677,-0.0247559 0.0152953,-0.0152953 0.0247598,-0.0364331 0.0247598,-0.0597756 0,-0.0233425 -0.00946457,-0.0444803 -0.0247598,-0.0597717z"/>
  <path class="fil8" d="M3.11421 2.90494c-0.0152953,-0.0152953 -0.0364291,-0.0247559 -0.0597717,-0.0247559 -0.0233425,0 -0.0444803,0.00946063 -0.0597717,0.0247559 -0.0152953,0.0152913 -0.0247598,0.0364291 -0.0247598,0.0597717 0,0.0233425 0.00946457,0.0444803 0.0247598,0.0597756 0.0152913,0.0152913 0.0364291,0.0247559 0.0597717,0.0247559 0.0233425,0 0.0444764,-0.00946457 0.0597717,-0.0247559 0.0152913,-0.0152953 0.0247559,-0.0364331 0.0247559,-0.0597756 0,-0.0233425 -0.00946457,-0.0444803 -0.0247559,-0.0597717z"/>
 </g>
</svg>
