<?xml version="1.0" encoding="UTF-8"?>
<!DOCTYPE svg PUBLIC "-//W3C//DTD SVG 1.1//EN" "http://www.w3.org/Graphics/SVG/1.1/DTD/svg11.dtd">
<!-- Creator: CorelDRAW -->
<svg xmlns="http://www.w3.org/2000/svg" xml:space="preserve" width="6.82666in" height="6.82666in" style="shape-rendering:geometricPrecision; text-rendering:geometricPrecision; image-rendering:optimizeQuality; fill-rule:evenodd; clip-rule:evenodd"
viewBox="0 0 6.82666 6.82666"
 xmlns:xlink="http://www.w3.org/1999/xlink">
 <defs>
  <style type="text/css">
   <![CDATA[
    .fil2 {fill:none}
    .fil5 {fill:#3E2723}
    .fil9 {fill:#424242}
    .fil3 {fill:#4E342E}
    .fil4 {fill:#5D4037}
    .fil6 {fill:#6B4C42}
    .fil7 {fill:#8F6A5E}
    .fil8 {fill:#BCAAA4}
    .fil1 {fill:#00000000}
    .fil0 {fill:#00000000}
   ]]>
  </style>
   <clipPath id="id0">
    <path d="M3.41333 -3.93701e-006c1.88513,0 3.41333,1.5282 3.41333,3.41333 0,1.88513 -1.5282,3.41333 -3.41333,3.41333 -1.88513,0 -3.41333,-1.5282 -3.41333,-3.41333 0,-1.88513 1.5282,-3.41333 3.41333,-3.41333z"/>
   </clipPath>
 </defs>
 <g id="Layer_x0020_1">
  <metadata id="CorelCorpID_0Corel-Layer"/>
  <path class="fil0" d="M3.41333 -3.93701e-006c1.88513,0 3.41333,1.5282 3.41333,3.41333 0,1.88513 -1.5282,3.41333 -3.41333,3.41333 -1.88513,0 -3.41333,-1.5282 -3.41333,-3.41333 0,-1.88513 1.5282,-3.41333 3.41333,-3.41333z"/>
  <g style="clip-path:url(#id0)">
   <g id="_637660576">
    <g>
     <polygon id="_4421127201" class="fil1" points="5.28,3.48824 9.06626,7.27451 9.01196,7.40565 5.22569,3.61937 "/>
     <polygon id="_442112912" class="fil1" points="3.35407,2.6136 7.14034,6.39987 7.14033,6.40002 3.35407,2.61375 "/>
     <polygon id="_442113080" class="fil1" points="4.28068,3.639 8.06694,7.42527 8.06489,7.43146 8.06269,7.43765 8.06035,7.44382 8.05785,7.44999 8.05519,7.45615 8.05238,7.46229 8.04941,7.46843 8.04627,7.47454 8.04296,7.48064 8.03948,7.48672 8.03583,7.49278 8.032,7.49882 8.02798,7.50483 8.02379,7.51083 8.0194,7.51679 8.01483,7.52273 8.01006,7.52864 8.0051,7.53452 7.99994,7.54037 7.99457,7.54619 7.989,7.55196 7.98322,7.55771 7.97722,7.56341 7.97101,7.56908 7.96458,7.5747 7.95793,7.58029 7.95106,7.58583 7.94395,7.59132 7.93662,7.59677 7.92905,7.60217 7.92124,7.60752 7.91319,7.61281 7.90446,7.61844 7.89573,7.62406 7.887,7.62966 7.87828,7.63526 7.86956,7.64083 7.86085,7.64639 7.85214,7.65194 7.84344,7.65747 7.83474,7.66298 7.82605,7.66848 7.81736,7.67395 7.80867,7.6794 7.79999,7.68483 7.79132,7.69024 7.78265,7.69562 7.77399,7.70098 7.76533,7.70631 7.75668,7.71162 7.74803,7.7169 7.73939,7.72215 7.73076,7.72738 7.72213,7.73257 7.71351,7.73773 7.70489,7.74286 7.69629,7.74795 7.68769,7.75301 7.67909,7.75804 7.6705,7.76303 7.66193,7.76798 7.65335,7.7729 7.64479,7.77778 7.63623,7.78261 3.84996,3.99634 3.85852,3.9915 3.86708,3.98663 3.87566,3.98171 3.88424,3.97676 3.89282,3.97177 3.90142,3.96674 3.91002,3.96168 3.91863,3.95659 3.92724,3.95146 3.93586,3.9463 3.94449,3.94111 3.95313,3.93588 3.96176,3.93063 3.97041,3.92535 3.97906,3.92004 3.98772,3.91471 3.99638,3.90935 4.00505,3.90397 4.01372,3.89856 4.02241,3.89313 4.03109,3.88768 4.03978,3.8822 4.04847,3.87671 4.05717,3.8712 4.06587,3.86567 4.07458,3.86012 4.0833,3.85456 4.09201,3.84898 4.10074,3.84339 4.10946,3.83779 4.11819,3.83217 4.12692,3.82654 4.13497,3.82124 4.14278,3.81589 4.15035,3.8105 4.15769,3.80505 4.16479,3.79956 4.17167,3.79402 4.17831,3.78843 4.18474,3.78281 4.19096,3.77714 4.19695,3.77144 4.20273,3.76569 4.2083,3.75991 4.21367,3.7541 4.21883,3.74825 4.2238,3.74237 4.22856,3.73646 4.23313,3.73052 4.23752,3.72456 4.24172,3.71856 4.24573,3.71255 4.24956,3.70651 4.25321,3.70044 4.25669,3.69437 4.26,3.68827 4.26314,3.68215 4.26611,3.67602 4.26893,3.66988 4.27158,3.66372 4.27408,3.65755 4.27643,3.65137 4.27863,3.64519 "/>
     <polygon id="_442112768" class="fil1" points="3.84996,3.99634 7.63623,7.78261 7.63313,7.78772 7.62973,7.79288 7.62603,7.79808 7.62203,7.80332 7.61771,7.80861 7.61308,7.81393 7.60813,7.8193 7.60286,7.82471 3.81659,4.03844 3.82187,4.03303 3.82681,4.02766 3.83144,4.02233 3.83576,4.01705 3.83976,4.01181 3.84346,4.00661 3.84686,4.00145 "/>
     <polygon id="_442112696" class="fil1" points="3.81659,4.03844 7.60286,7.82471 7.59972,7.83022 3.81346,4.04395 "/>
     <polygon id="_442112552" class="fil1" points="3.81346,4.04395 7.59972,7.83022 7.59454,7.83358 7.58945,7.83691 7.58443,7.84021 7.5795,7.84347 7.57464,7.8467 7.56987,7.84989 7.56516,7.85306 7.56053,7.85618 7.55598,7.85926 7.55149,7.86231 7.54707,7.86533 7.54273,7.8683 7.53845,7.87123 7.53423,7.87413 7.53008,7.87698 7.52599,7.8798 3.73972,4.09352 3.74381,4.09071 3.74796,4.08785 3.75218,4.08496 3.75646,4.08203 3.76081,4.07906 3.76522,4.07604 3.76971,4.07299 3.77426,4.06991 3.77889,4.06678 3.7836,4.06362 3.78837,4.06043 3.79323,4.0572 3.79817,4.05394 3.80318,4.05064 3.80828,4.04731 "/>
     <polygon id="_442113680" class="fil1" points="3.48374,3.96429 7.27001,7.75056 7.26339,7.7526 7.25673,7.7546 7.25002,7.75657 7.24326,7.75851 7.23646,7.76042 7.22962,7.7623 7.22273,7.76414 7.2158,7.76595 7.20883,7.76773 7.20181,7.76948 7.19477,7.7712 7.18768,7.77289 7.18056,7.77455 7.17339,7.77618 7.1662,7.77778 7.15897,7.77935 3.3727,3.99308 3.37993,3.99151 3.38713,3.98991 3.39429,3.98828 3.40141,3.98662 3.4085,3.98493 3.41555,3.98321 3.42256,3.98146 3.42953,3.97968 3.43646,3.97787 3.44335,3.97602 3.4502,3.97415 3.457,3.97224 3.46375,3.9703 3.47046,3.96833 3.47713,3.96633 "/>
     <polygon id="_442113560" class="fil1" points="2.14015,2.97489 5.92641,6.76116 5.92934,6.764 5.93217,6.76689 5.9349,6.76984 5.93754,6.77285 5.94008,6.77591 5.94252,6.77903 2.15626,2.99276 2.15381,2.98964 2.15127,2.98658 2.14863,2.98357 2.14591,2.98062 2.14307,2.97772 "/>
     <polygon id="_442113656" class="fil1" points="2.15626,2.99276 5.94252,6.77903 5.94658,6.7846 5.95033,6.7903 5.9538,6.79612 5.95698,6.80205 5.95989,6.80808 5.96254,6.8142 5.96492,6.82041 5.96705,6.82669 5.96894,6.83302 5.97059,6.83941 5.97201,6.84585 5.97322,6.85232 5.97421,6.85881 5.975,6.86531 5.97559,6.87183 5.97599,6.87833 2.18972,3.09206 2.18932,3.08556 2.18873,3.07904 2.18794,3.07254 2.18695,3.06605 2.18574,3.05958 2.18432,3.05314 2.18267,3.04675 2.18078,3.04041 2.17865,3.03414 2.17627,3.02793 2.17362,3.02181 2.17072,3.01578 2.16753,3.00985 2.16407,3.00403 2.16031,2.99833 "/>
     <polygon id="_442113416" class="fil1" points="2.18972,3.09206 5.97599,6.87833 5.97627,6.87869 5.97656,6.87903 5.97686,6.87938 5.97717,6.87972 5.97749,6.88006 5.97782,6.8804 5.97815,6.88074 5.9785,6.88107 2.19223,3.0948 2.19189,3.09447 2.19155,3.09413 2.19122,3.09379 2.19091,3.09345 2.19059,3.09311 2.1903,3.09276 2.19,3.09241 "/>
     <polygon id="_442113440" class="fil1" points="2.19223,3.0948 5.9785,6.88107 5.97795,6.8859 5.97741,6.89081 5.97688,6.89581 5.97636,6.90088 5.97585,6.90603 5.97535,6.91124 5.97487,6.91652 5.97441,6.92186 2.18815,3.13559 2.18861,3.13025 2.18909,3.12497 2.18958,3.11976 2.19009,3.11461 2.19061,3.10954 2.19114,3.10454 2.19168,3.09963 "/>
     <polygon id="_442113512" class="fil1" points="3.3727,3.99308 7.15897,7.77935 7.13528,7.78425 7.11127,7.78886 7.08697,7.79319 7.06242,7.79725 7.03767,7.80105 7.01275,7.80459 6.9877,7.80787 6.96257,7.81092 6.93739,7.81373 6.91219,7.81631 6.88703,7.81867 6.86193,7.82082 6.83695,7.82276 6.81211,7.82451 6.78746,7.82606 6.76304,7.82743 6.73889,7.82862 6.71504,7.82965 6.69153,7.83051 6.66841,7.83122 6.64572,7.83178 6.62349,7.8322 6.60176,7.83249 6.58057,7.83266 6.55998,7.8327 6.53999,7.83264 6.52067,7.83248 6.50206,7.83222 6.48418,7.83187 6.46708,7.83144 6.4508,7.83094 6.43537,7.83037 2.64911,4.0441 2.66453,4.04467 2.68081,4.04517 2.69791,4.0456 2.71579,4.04594 2.73441,4.0462 2.75372,4.04637 2.77371,4.04643 2.79431,4.04639 2.81549,4.04622 2.83722,4.04593 2.85945,4.04551 2.88215,4.04494 2.90526,4.04424 2.92877,4.04337 2.95262,4.04235 2.97677,4.04116 3.00119,4.03979 3.02584,4.03824 3.05068,4.03649 3.07567,4.03455 3.10076,4.0324 3.12593,4.03004 3.15112,4.02746 3.1763,4.02465 3.20144,4.0216 3.22648,4.01831 3.2514,4.01478 3.27615,4.01098 3.3007,4.00692 3.325,4.00259 3.34901,3.99798 "/>
     <polygon id="_442113824" class="fil1" points="2.64911,4.0441 6.43537,7.83037 6.43402,7.83107 6.43267,7.83176 6.43133,7.83245 6.42999,7.83314 6.42866,7.83382 6.42733,7.83451 6.42601,7.8352 6.4247,7.83588 2.63843,4.04961 2.63974,4.04893 2.64107,4.04824 2.64239,4.04755 2.64372,4.04687 2.64506,4.04618 2.64641,4.04548 2.64775,4.0448 "/>
     <polygon id="_442113368" class="fil1" points="2.63843,4.04961 6.4247,7.83588 6.41922,7.83873 6.41383,7.84156 6.40853,7.84437 6.40331,7.84715 6.39817,7.8499 6.39311,7.85263 6.38813,7.85533 6.38322,7.858 6.37839,7.86064 6.37364,7.86325 6.36896,7.86583 6.36435,7.86838 6.35981,7.87089 6.35533,7.87337 6.35093,7.87582 6.34659,7.87824 2.56032,4.09196 2.56466,4.08955 2.56907,4.0871 2.57354,4.08462 2.57808,4.08211 2.58269,4.07956 2.58737,4.07698 2.59213,4.07437 2.59695,4.07173 2.60186,4.06906 2.60684,4.06636 2.6119,4.06363 2.61704,4.06088 2.62226,4.0581 2.62757,4.05529 2.63295,4.05246 "/>
     <polygon id="_442113296" class="fil1" points="2.56032,4.09196 6.34659,7.87824 6.33936,7.88226 6.33229,7.88618 6.32537,7.89 6.31859,7.89372 6.31193,7.89735 6.30537,7.90088 6.29891,7.90431 6.29254,7.90764 6.28624,7.91087 6.27999,7.914 6.27379,7.91704 6.26762,7.91996 6.26146,7.9228 6.25531,7.92552 6.24915,7.92815 6.24297,7.93068 6.23676,7.9331 6.2305,7.93543 6.22417,7.93765 6.21777,7.93976 6.21128,7.94178 6.2047,7.94369 6.198,7.9455 6.19117,7.9472 6.1842,7.9488 6.17708,7.9503 6.1698,7.95169 6.16233,7.95298 6.15467,7.95416 6.14681,7.95524 6.13872,7.9562 6.13041,7.95707 2.34414,4.1708 2.35246,4.16993 2.36054,4.16896 2.3684,4.16789 2.37606,4.16671 2.38353,4.16542 2.39081,4.16403 2.39793,4.16253 2.4049,4.16093 2.41173,4.15923 2.41843,4.15742 2.42502,4.15551 2.4315,4.15349 2.4379,4.15137 2.44423,4.14915 2.45049,4.14683 2.4567,4.14441 2.46289,4.14188 2.46904,4.13925 2.4752,4.13652 2.48135,4.13369 2.48752,4.13076 2.49372,4.12773 2.49997,4.1246 2.50627,4.12137 2.51265,4.11804 2.5191,4.11461 2.52566,4.11108 2.53232,4.10745 2.5391,4.10373 2.54602,4.09991 2.55309,4.09598 "/>
     <polygon id="_442113632" class="fil1" points="2.15581,4.01839 5.94207,7.80466 5.94148,7.80464 2.15522,4.01837 "/>
     <polygon id="_442114448" class="fil1" points="2.15522,4.01837 5.94148,7.80464 5.47944,7.78723 1.69318,4.00096 "/>
     <polygon id="_442114352" class="fil1" points="2.34414,4.1708 6.13041,7.95707 6.12711,7.95738 6.12373,7.95767 6.12024,7.95796 6.11667,7.95823 6.113,7.9585 6.10924,7.95874 6.10539,7.95898 6.10145,7.95921 6.09743,7.95942 6.09331,7.95962 6.08912,7.95981 6.08484,7.95998 6.08048,7.96015 6.07603,7.96029 6.07151,7.96042 6.06691,7.96054 6.06222,7.96064 6.05746,7.96073 6.05263,7.9608 6.04772,7.96085 6.04274,7.9609 6.03769,7.96092 6.03257,7.96093 6.02738,7.96092 6.02212,7.96089 6.01679,7.96085 6.0114,7.96079 6.00594,7.96071 6.00042,7.96061 5.99484,7.9605 5.98919,7.96037 5.98349,7.96021 2.19722,4.17394 2.20293,4.17409 2.20857,4.17423 2.21415,4.17434 2.21967,4.17444 2.22513,4.17452 2.23052,4.17458 2.23585,4.17462 2.24111,4.17465 2.2463,4.17466 2.25143,4.17465 2.25648,4.17463 2.26146,4.17458 2.26637,4.17453 2.2712,4.17446 2.27596,4.17437 2.28064,4.17427 2.28524,4.17415 2.28976,4.17402 2.29421,4.17387 2.29857,4.17371 2.30285,4.17354 2.30705,4.17335 2.31116,4.17315 2.31519,4.17294 2.31912,4.17271 2.32297,4.17247 2.32673,4.17222 2.3304,4.17196 2.33398,4.17169 2.33746,4.1714 2.34085,4.17111 "/>
     <polygon id="_442114016" class="fil1" points="2.19722,4.17394 5.98349,7.96021 5.97867,7.96007 5.97381,7.95991 5.96891,7.95974 5.96398,7.95956 5.95902,7.95936 5.95402,7.95915 5.94899,7.95893 5.94392,7.95869 5.93883,7.95844 5.9337,7.95817 5.92854,7.95789 5.92335,7.95759 5.91814,7.95728 5.91289,7.95695 5.90762,7.95661 5.90232,7.95625 5.897,7.95588 5.89165,7.95549 5.88628,7.95508 5.88088,7.95466 5.87546,7.95422 5.87002,7.95377 5.86456,7.9533 5.85907,7.95281 5.85357,7.95231 5.84805,7.95179 5.84251,7.95125 5.83695,7.9507 5.83138,7.95013 5.82579,7.94954 5.82019,7.94893 5.81457,7.9483 2.0283,4.16203 2.03392,4.16266 2.03952,4.16326 2.04511,4.16385 2.05069,4.16443 2.05624,4.16498 2.06178,4.16552 2.0673,4.16604 2.07281,4.16654 2.07829,4.16703 2.08375,4.1675 2.08919,4.16795 2.09461,4.16839 2.10001,4.16881 2.10538,4.16922 2.11073,4.16961 2.11606,4.16998 2.12135,4.17033 2.12663,4.17068 2.13187,4.171 2.13709,4.17132 2.14227,4.17161 2.14743,4.1719 2.15256,4.17217 2.15765,4.17242 2.16272,4.17266 2.16775,4.17288 2.17275,4.17309 2.17772,4.17329 2.18265,4.17347 2.18754,4.17364 2.1924,4.1738 "/>
     <polygon id="_442114688" class="fil1" points="1.69318,4.00096 5.47944,7.78723 5.47918,7.78716 5.47844,7.78696 5.47728,7.78663 5.47569,7.78616 5.47371,7.78555 5.47136,7.78479 5.46866,7.78389 5.46564,7.78283 5.46231,7.78161 5.45871,7.78022 5.45485,7.77868 5.45075,7.77696 5.44645,7.77506 5.44196,7.77298 5.4373,7.77072 5.4325,7.76828 1.64623,3.982 1.65103,3.98445 1.65569,3.98671 1.66018,3.98879 1.66448,3.99069 1.66858,3.99241 1.67244,3.99395 1.67604,3.99533 1.67937,3.99656 1.68239,3.99761 1.68509,3.99852 1.68744,3.99928 1.68942,3.99989 1.69101,4.00035 1.69218,4.00069 1.69291,4.00089 "/>
     <polygon id="_442114088" class="fil1" points="1.64623,3.982 5.4325,7.76828 5.42967,7.76678 5.42681,7.76521 5.42393,7.76358 5.42101,7.76188 5.41807,7.76011 5.41511,7.75828 5.41214,7.75638 5.40916,7.75441 5.40618,7.75236 5.4032,7.75024 5.40022,7.74806 5.39725,7.7458 5.39429,7.74346 5.39135,7.74105 5.38844,7.73856 1.60217,3.95229 1.60509,3.95478 1.60802,3.95719 1.61098,3.95952 1.61395,3.96178 1.61693,3.96397 1.61991,3.96609 1.62289,3.96813 1.62587,3.97011 1.62884,3.97201 1.6318,3.97384 1.63474,3.97561 1.63766,3.97731 1.64055,3.97894 1.64341,3.9805 "/>
     <polygon id="_442114136" class="fil1" points="3.38603,4.20957 7.1723,7.99585 7.16749,7.99616 7.16263,7.99647 7.15775,7.99676 7.15282,7.99705 7.14786,7.99732 7.14287,7.99759 7.13783,7.99784 7.13277,7.99809 7.12767,7.99831 7.12254,7.99854 7.11738,7.99874 7.11219,7.99894 7.10696,7.99913 7.10172,7.9993 7.09643,7.99946 7.09113,7.99961 7.08579,7.99974 7.08043,7.99986 7.07504,7.99996 7.06963,8.00006 7.06419,8.00014 7.05874,8.0002 7.05325,8.00025 7.04775,8.00029 7.04222,8.00031 7.03668,8.00031 7.03111,8.0003 7.02553,8.00028 7.01992,8.00024 7.0143,8.00018 7.00867,8.00011 7.00301,8.00002 3.21674,4.21375 3.2224,4.21384 3.22804,4.21391 3.23365,4.21397 3.23926,4.21401 3.24484,4.21403 3.25041,4.21404 3.25596,4.21404 3.26148,4.21402 3.26698,4.21398 3.27247,4.21393 3.27793,4.21387 3.28336,4.21379 3.28878,4.21369 3.29416,4.21359 3.29952,4.21346 3.30486,4.21333 3.31017,4.21319 3.31545,4.21303 3.3207,4.21285 3.32592,4.21267 3.33111,4.21247 3.33628,4.21226 3.34141,4.21204 3.3465,4.21181 3.35157,4.21157 3.3566,4.21131 3.36159,4.21105 3.36656,4.21078 3.37148,4.21049 3.37637,4.2102 3.38122,4.20989 "/>
     <polygon id="_442114400" class="fil1" points="3.33005,4.05866 7.11632,7.84493 7.11573,7.84496 3.32946,4.05869 "/>
     <polygon id="_442114112" class="fil1" points="3.73972,4.09352 7.52599,7.8798 7.51917,7.88448 7.51251,7.88906 7.50598,7.89352 7.49958,7.89787 7.49329,7.90211 7.4871,7.90625 7.481,7.91028 7.47497,7.9142 7.469,7.91801 7.46308,7.92172 7.4572,7.92533 7.45133,7.92883 7.44547,7.93223 7.43961,7.93553 7.43373,7.93873 7.42781,7.94183 7.42186,7.94484 7.41584,7.94774 7.40976,7.95056 7.40359,7.95327 7.39732,7.95589 7.39094,7.95842 7.38444,7.96085 7.37781,7.9632 7.37103,7.96545 7.36408,7.96762 7.35696,7.96969 7.34965,7.97168 7.34213,7.97359 7.33441,7.9754 7.32646,7.97713 7.31826,7.97878 3.53199,4.19251 3.54019,4.19086 3.54814,4.18913 3.55587,4.18731 3.56338,4.18541 3.57069,4.18342 3.57781,4.18135 3.58476,4.17918 3.59154,4.17693 3.59818,4.17458 3.60468,4.17215 3.61105,4.16962 3.61732,4.167 3.62349,4.16428 3.62957,4.16147 3.63559,4.15857 3.64155,4.15556 3.64746,4.15246 3.65334,4.14926 3.6592,4.14596 3.66506,4.14256 3.67093,4.13906 3.67681,4.13545 3.68274,4.13174 3.6887,4.12793 3.69473,4.124 3.70083,4.11998 3.70702,4.11584 3.71331,4.1116 3.71971,4.10725 3.72624,4.10278 3.7329,4.09821 "/>
     <polygon id="_442114304" class="fil1" points="3.53199,4.19251 7.31826,7.97878 7.31501,7.9794 7.31167,7.98002 7.30822,7.98063 7.30469,7.98124 7.30106,7.98185 7.29734,7.98246 7.29354,7.98306 7.28963,7.98366 7.28565,7.98425 7.28157,7.98484 7.27741,7.98543 7.27317,7.98601 7.26884,7.98658 7.26443,7.98715 7.25994,7.9877 7.25537,7.98826 7.25072,7.98881 7.24599,7.98934 7.24119,7.98987 7.23631,7.99039 7.23135,7.99091 7.22633,7.99141 7.22123,7.99191 7.21606,7.99239 7.21082,7.99286 7.20552,7.99332 7.20014,7.99377 7.1947,7.99421 7.18919,7.99464 7.18363,7.99506 7.17799,7.99546 7.1723,7.99585 3.38603,4.20957 3.39172,4.20919 3.39736,4.20878 3.40293,4.20837 3.40843,4.20794 3.41387,4.2075 3.41925,4.20705 3.42456,4.20659 3.42979,4.20611 3.43496,4.20563 3.44006,4.20514 3.44509,4.20464 3.45004,4.20412 3.45492,4.2036 3.45972,4.20307 3.46445,4.20254 3.4691,4.20199 3.47367,4.20143 3.47817,4.20087 3.48257,4.20031 3.4869,4.19974 3.49115,4.19916 3.49531,4.19857 3.49938,4.19798 3.50337,4.19739 3.50727,4.19679 3.51107,4.19619 3.5148,4.19558 3.51842,4.19497 3.52196,4.19436 3.5254,4.19374 3.52874,4.19313 "/>
     <polygon id="_442114712" class="fil1" points="4.05491,2.95466 7.84118,6.74093 7.8531,6.75387 7.86478,6.76698 7.87622,6.78027 7.8874,6.79372 7.89831,6.80735 7.90895,6.82114 7.9193,6.83511 7.92936,6.84924 7.93911,6.86354 7.94855,6.878 7.95767,6.89263 7.96646,6.90742 7.9749,6.92237 7.98299,6.93749 7.99072,6.95277 7.99808,6.9682 8.00506,6.9838 8.01165,6.99955 8.01785,7.01546 8.02363,7.03153 8.029,7.04775 8.03393,7.06412 8.03844,7.08065 8.04249,7.09733 8.0436,7.10207 8.04478,7.10695 8.04602,7.11196 8.04732,7.11709 8.04868,7.12235 8.05008,7.12774 8.05152,7.13324 8.053,7.13885 8.0545,7.14459 8.05603,7.15043 8.05757,7.15637 8.05911,7.16243 8.06067,7.16858 8.06221,7.17483 8.06374,7.18117 8.06526,7.18761 8.06676,7.19414 8.06823,7.20075 8.06966,7.20744 8.07105,7.21422 8.07239,7.22107 8.07367,7.228 8.0749,7.235 8.07606,7.24206 8.07714,7.24919 8.07815,7.25638 8.07907,7.26363 8.07989,7.27094 8.08062,7.2783 8.08124,7.28571 8.08175,7.29317 8.08215,7.30067 4.29588,3.5144 4.29548,3.5069 4.29497,3.49944 4.29435,3.49203 4.29363,3.48467 4.2928,3.47736 4.29188,3.47011 4.29087,3.46292 4.28979,3.45579 4.28863,3.44872 4.28741,3.44173 4.28612,3.4348 4.28478,3.42795 4.28339,3.42117 4.28196,3.41448 4.28049,3.40787 4.279,3.40134 4.27748,3.3949 4.27594,3.38856 4.2744,3.38231 4.27285,3.37615 4.2713,3.3701 4.26976,3.36415 4.26823,3.35831 4.26673,3.35258 4.26526,3.34696 4.26381,3.34146 4.26241,3.33608 4.26106,3.33082 4.25975,3.32569 4.25851,3.32068 4.25733,3.3158 4.25622,3.31106 4.25217,3.29438 4.24767,3.27785 4.24273,3.26148 4.23736,3.24526 4.23158,3.22919 4.22539,3.21328 4.2188,3.19753 4.21181,3.18193 4.20445,3.1665 4.19672,3.15122 4.18863,3.1361 4.18019,3.12115 4.1714,3.10635 4.16228,3.09173 4.15284,3.07726 4.14309,3.06296 4.13303,3.04883 4.12268,3.03487 4.11204,3.02107 4.10113,3.00745 4.08995,2.994 4.07852,2.98071 4.06683,2.9676 "/>
     <polygon id="_442114256" class="fil1" points="5.22569,3.61937 9.01196,7.40565 8.98713,7.44404 8.96093,7.47734 8.93345,7.50581 8.90481,7.52972 8.87511,7.54934 8.84447,7.56492 8.81298,7.57674 8.78076,7.58506 8.74792,7.59014 8.71456,7.59226 8.68078,7.59167 8.6467,7.58864 8.61243,7.58344 8.57806,7.57634 8.54372,7.5676 8.5095,7.55748 8.47552,7.54625 8.44187,7.53418 8.40868,7.52153 8.37604,7.50856 8.34407,7.49556 8.31287,7.48276 8.28255,7.47045 8.25321,7.45889 8.22497,7.44835 8.19793,7.43909 8.1722,7.43137 8.14789,7.42546 8.1251,7.42163 8.10394,7.42015 8.08452,7.42128 8.06694,7.42527 4.28068,3.639 4.29825,3.635 4.31767,3.63388 4.33883,3.63536 4.36162,3.63919 4.38593,3.64509 4.41167,3.65281 4.4387,3.66208 4.46694,3.67262 4.49628,3.68418 4.5266,3.69649 4.5578,3.70928 4.58978,3.72229 4.62241,3.73526 4.65561,3.74791 4.68925,3.75998 4.72323,3.77121 4.75745,3.78133 4.7918,3.79007 4.82616,3.79717 4.86043,3.80237 4.89451,3.8054 4.92829,3.80598 4.96165,3.80387 4.9945,3.79879 5.02672,3.79047 5.0582,3.77865 5.08885,3.76307 5.11854,3.74345 5.14718,3.71954 5.17466,3.69107 5.20087,3.65777 "/>
    </g>
    <path id="_637660696" class="fil1" d="M4.29588 3.5144c0.273098,-0.0242835 0.572264,0.437181 0.896622,0.0811024l0.0874488 -0.107291 4.72441e-005 2.75591e-005 -0.0543031 0.131138c-0.257091,0.437642 -0.767799,-0.0392913 -0.945016,0.019626 -0.021122,0.066063 -0.0665984,0.131319 -0.153756,0.187539 -0.0931693,0.0600984 -0.185717,0.118425 -0.276961,0.169799 -0.00787402,0.0135787 -0.0188701,0.0276181 -0.0333661,0.0420984l-0.0031378 0.00551181c-0.0278504,0.0180118 -0.0520827,0.0346811 -0.0737362,0.0495748 -0.0735709,0.0505984 -0.118984,0.0818425 -0.207728,0.0989882 -0.0341417,0.00659843 -0.0849094,0.0129843 -0.145961,0.017063 -0.0511299,0.00341339 -0.108902,0.00521654 -0.169287,0.00417323l-0.0212402 -0.0697165c0.0372913,-0.0259764 0.0839528,-0.0544764 0.130598,-0.0829646l0.00394882 -0.00240945 -0.000590551 3.14961e-005 0.145291 -0.087315c0.00300787,-0.00235039 0.00600394,-0.0047126 0.00898819,-0.00708268 -0.0351457,0.0109488 -0.0723976,0.0204921 -0.111039,0.0287874 -0.250803,0.053811 -0.563807,0.0573937 -0.723594,0.0510236 -0.00361417,0.00184646 -0.00717323,0.00368504 -0.0106772,0.00550394 -0.0294291,0.0152874 -0.0551378,0.0295827 -0.0781063,0.0423583 -0.0780394,0.0433898 -0.126213,0.0701811 -0.216181,0.0788346 -0.0346142,0.00333071 -0.0857598,0.00487008 -0.146921,0.00314173 -0.0512244,-0.00145669 -0.108909,-0.00514173 -0.168921,-0.0119094l-0.0145315 -0.0714134c0.0395906,-0.0223228 0.0887402,-0.0462677 0.137882,-0.0702008l0.00415748 -0.00202756 -0.000590551 -2.3622e-005 -0.462039 -0.0174094c-0.00015748,-4.33071e-005 -0.0210157,-0.00538189 -0.0469449,-0.0189528 -0.0149646,-0.00783071 -0.0316181,-0.0184016 -0.0469528,-0.0322756 -0.0292362,-0.0264488 -0.0536969,-0.0648976 -0.0525787,-0.119248 0.000586614,-0.0282559 0.00834252,-0.0601378 0.0264409,-0.095811 0.0175669,-0.0346181 0.0440276,-0.0709094 0.0700984,-0.0995433 0.000484252,-0.000515748 0.117854,-0.174134 0.163406,-0.252772 -0.00256299,-0.0086811 -0.000255906,-0.0128543 0.00487008,-0.0146063l-0.0055748 -0.0139173 0.00092126 -0.00134646c-0.00556693,-0.0275039 -0.0204685,-0.0723307 -0.0288346,-0.114276 -0.00155512,-0.0205748 -0.00337402,-0.045563 -0.00523228,-0.0731024 0.00230709,-0.044248 0.0104843,-0.0881024 0.0279449,-0.125677 0.0227638,-0.0489921 0.0599882,-0.0872559 0.11789,-0.103744 0.0123228,-0.00350787 0.0259606,-0.00594094 0.0410079,-0.00717323 0.0242165,-0.00202362 0.0459055,-0.00197244 0.0652913,-0.00015748 0.064315,0.00602756 0.105736,0.0309055 0.131327,0.0644016 0.0224291,0.0293504 0.031815,0.0646339 0.0334646,0.0993071 0.000740157,0.000937008 0.00158661,0.00184646 0.00250787,0.00274016 -0.00146457,0.0127559 -0.00287402,0.0264724 -0.00408268,0.0407874 0.0546654,0.0192047 0.168228,0.012122 0.215051,-0.0404803 0.195118,-0.147748 0.446378,-0.496614 0.935453,-0.482043l0.0154252 0.000531496 -7.87402e-006 0.000149606c0.227244,0.0102795 0.425882,0.0965984 0.598075,0.24378 0.144598,0.121846 0.263236,0.274811 0.304083,0.453531 0.0113976,0.0498622 0.0361102,0.123106 0.0396535,0.203339z"/>
   </g>
  </g>
  <path class="fil2" d="M3.41333 -3.93701e-006c1.88513,0 3.41333,1.5282 3.41333,3.41333 0,1.88513 -1.5282,3.41333 -3.41333,3.41333 -1.88513,0 -3.41333,-1.5282 -3.41333,-3.41333 0,-1.88513 1.5282,-3.41333 3.41333,-3.41333z"/>
  <path class="fil3" d="M4.21827 3.53582c0.293736,-0.141417 0.618862,0.449799 0.974232,0.0596772l0.0874488 -0.107291 4.72441e-005 2.75591e-005 -0.0543031 0.131138c-0.259122,0.441098 -0.775882,-0.0468819 -0.949154,0.021122 -0.0282244,0.0149764 -0.0634921,0.00512992 -0.0797638,-0.0227126 -0.0167008,-0.0285669 -0.00707874,-0.0652638 0.0214921,-0.0819606z"/>
  <path class="fil4" d="M4.12692 3.82654c-0.293697,0.189453 -0.581224,0.361264 -0.841165,0.353378l-0.0169331 -0.000511811 -0.0127835 -0.0737323c0.0665157,-0.026252 0.151043,-0.0804843 0.227701,-0.141382 -0.0351457,0.0109488 -0.0723976,0.0204921 -0.111039,0.0287874 -0.250803,0.053811 -0.563807,0.0573937 -0.723594,0.0510236 -0.0339449,0.0173661 -0.0630787,0.0335669 -0.0887835,0.0478622 -0.0780394,0.0433898 -0.126213,0.0701811 -0.216181,0.0788346 -0.0346142,0.00333071 -0.0857598,0.00487008 -0.146921,0.00314173 -0.0512244,-0.00145669 -0.108909,-0.00514173 -0.168921,-0.0119094l-0.0145315 -0.0714134c0.0395906,-0.0223228 0.0887402,-0.0462677 0.137882,-0.0702008l0.00415748 -0.00202756 -0.46263 -0.0174331c-0.000425197,-0.000114173 -0.149197,-0.0382008 -0.146476,-0.170476 0.000586614,-0.0282559 0.00834252,-0.0601378 0.0264409,-0.095811 0.0175669,-0.0346181 0.0440276,-0.0709094 0.0700984,-0.0995433 0.000484252,-0.000515748 0.117854,-0.174134 0.163406,-0.252772 -0.0117323,-0.0397283 0.0785079,0.0150118 0.0742402,-0.0363071 -0.0042874,-0.0515315 -0.00150394,-0.103811 0.0145276,-0.147602 0.0250945,-0.0685315 0.0764803,-0.105476 0.147693,-0.111409 0.0239213,-0.00203937 0.0455276,-0.00199213 0.0650039,-0.000173228 0.0646181,0.00603937 -0.0276339,-0.0293189 0.00103543,0.00431102 0.025122,0.0294685 0.0490709,-0.00522441 0.0540079,0.0295945 0.030689,0.0350276 0.183697,0.0376457 0.240043,-0.0256575 0.195118,-0.147748 0.446378,-0.496614 0.935453,-0.482043l0.0154252 0.000531496 -7.87402e-006 0.000149606c0.227244,0.0102795 0.425882,0.0965984 0.598075,0.24378 0.144598,0.121846 0.263236,0.274811 0.304083,0.453531 0.0262008,0.114642 0.122795,0.352862 -0.129303,0.51548z"/>
  <path class="fil5" d="M1.64623 3.982c-0.0149606,-0.00783071 -0.0316102,-0.0184134 -0.0469449,-0.0322874 0.00440157,-0.00683071 0.013063,-0.0100157 0.0210669,-0.00720079 0.0982362,0.0293819 0.140902,-0.0079685 0.219441,-0.0529685 -0.0420827,0.0701339 -0.117126,0.0982283 -0.193563,0.0924567z"/>
  <path class="fil6" d="M2.63843 4.04961c-0.0294331,0.0152874 -0.0551378,0.0295827 -0.0781063,0.0423583 -0.0780394,0.0433898 -0.126213,0.0701811 -0.216181,0.0788346 -0.0346142,0.00333071 -0.0857598,0.00487008 -0.146921,0.00314173 -0.0512244,-0.00145669 -0.108909,-0.00514173 -0.168921,-0.0119094l-0.0145315 -0.0714134c0.0395906,-0.0223228 0.0887402,-0.0462677 0.137882,-0.0702008l0.00415748 -0.00202756 -0.000590551 -2.3622e-005 0.282138 -0.134941c0.0998307,-0.0278858 0.157878,-0.0094685 0.233846,0.0306339 0.109063,0.0575551 0.0696693,0.0488268 -0.029126,0.130358l-0.00364567 0.00518898z"/>
  <path class="fil6" d="M1.80594 3.35383l0.00092126 -0.00134646c-0.00556693,-0.0275039 -0.0204685,-0.0723307 -0.0288346,-0.114276 -0.00155512,-0.0205748 -0.00337402,-0.045563 -0.00523228,-0.0731024 0.00230709,-0.044248 0.0104843,-0.0881024 0.0279449,-0.125677 0.0227638,-0.0489921 0.0599882,-0.0872559 0.11789,-0.103744 0.0123228,-0.00350787 0.0259606,-0.00594094 0.0410079,-0.00717323 0.0242165,-0.00202362 0.0459055,-0.00197244 0.0652913,-0.00015748 0.064315,0.00602756 0.105736,0.0309055 0.131327,0.0644016 0.0224291,0.0293504 0.031815,0.0646339 0.0334646,0.0993071 0.000740157,0.000937008 0.00158661,0.00184646 0.00250787,0.00274016 -0.00269685,0.0234606 -0.00518898,0.0501614 -0.00664173,0.0778819 -0.00451575,0.0860157 -0.0569173,0.231764 -0.0569173,0.231764 0,0 -0.0783504,-0.0184567 -0.131157,0.00919291 -0.0528071,0.0276535 -0.127098,0.101209 -0.127098,0.101209l-0.0644724 -0.16102z"/>
  <path class="fil7" d="M1.87437 3.35217l0.000562992 -0.000818898c-0.0033937,-0.0167559 -0.0124685,-0.044063 -0.0175669,-0.0696142 -0.000944882,-0.0125354 -0.00205512,-0.0277598 -0.00318504,-0.0445354 0.00140157,-0.0269528 0.00638583,-0.0536693 0.0170197,-0.0765591 0.0138701,-0.0298425 0.0365472,-0.0531535 0.0718189,-0.0631969 0.00750394,-0.0021378 0.015815,-0.00362205 0.0249803,-0.00437008 0.014752,-0.00123622 0.0279646,-0.00120472 0.0397756,-9.84252e-005 0.0391811,0.00367323 0.0644134,0.0188268 0.0800039,0.0392323 0.0136614,0.0178819 0.019378,0.039374 0.0203819,0.0604961 0.000452756,0.000570866 0.000968504,0.00112598 0.00152756,0.00166929 -0.00164173,0.0142913 -0.00315748,0.0305591 -0.00404331,0.0474449 -0.00275197,0.0524016 -0.0346732,0.141185 -0.0346732,0.141185 0,0 -0.0477323,-0.0112441 -0.0799016,0.00560236 -0.0321693,0.0168465 -0.0774252,0.0616535 -0.0774252,0.0616535l-0.0392756 -0.0980906z"/>
  <path class="fil5" d="M1.99559 3.52669c0.044874,0.00198425 0.0796496,0.0399764 0.0776654,0.0848583 -0.00198425,0.0448858 -0.0399764,0.0796575 -0.0848543,0.0776732 -0.044878,-0.00198425 -0.0796535,-0.0399764 -0.0776693,-0.0848583 0.00198819,-0.0448858 0.0399803,-0.0796614 0.0848583,-0.0776732z"/>
  <path class="fil8" d="M1.99369 3.56964c0.0211575,0.000933071 0.0375472,0.0188425 0.0366142,0.0400039 -0.000937008,0.0211575 -0.0188465,0.0375512 -0.0400039,0.0366142 -0.0211535,-0.000933071 -0.0375472,-0.0188465 -0.0366102,-0.0400039 0.000933071,-0.0211575 0.0188425,-0.0375512 0.04,-0.0366142z"/>
  <line class="fil9" x1="3.95213" y1="2.85754" x2="3.95213" y2= "2.85754" />
  <path class="fil6" d="M3.81346 4.04395c-0.0278504,0.0180118 -0.0520827,0.0346811 -0.0737362,0.0495748 -0.0735709,0.0505984 -0.118984,0.0818425 -0.207728,0.0989882 -0.0341417,0.00659843 -0.0849094,0.0129843 -0.145961,0.017063 -0.0511299,0.00341339 -0.108902,0.00521654 -0.169287,0.00417323l-0.0212402 -0.0697165c0.0372913,-0.0259764 0.0839528,-0.0544764 0.130598,-0.0829646l0.00394882 -0.00240945 -0.000590551 3.14961e-005 0.173531 -0.104287c-0.100492,-0.0477205 -0.185024,-0.0534252 -0.202571,-0.114382 -0.0176772,-0.061437 0.0146417,-0.0840394 0.0644606,-0.106642 0.0754528,-0.0342362 0.673705,0.0832598 0.451713,0.305059l-0.0031378 0.00551181z"/>
 </g>
</svg>
