<?xml version="1.0" encoding="UTF-8"?>
<!DOCTYPE svg PUBLIC "-//W3C//DTD SVG 1.1//EN" "http://www.w3.org/Graphics/SVG/1.1/DTD/svg11.dtd">
<!-- Creator: CorelDRAW -->
<svg xmlns="http://www.w3.org/2000/svg" xml:space="preserve" width="6.82666in" height="6.82666in" style="shape-rendering:geometricPrecision; text-rendering:geometricPrecision; image-rendering:optimizeQuality; fill-rule:evenodd; clip-rule:evenodd"
viewBox="0 0 6.82666 6.82666"
 xmlns:xlink="http://www.w3.org/1999/xlink">
 <defs>
  <style type="text/css">
   <![CDATA[
    .fil2 {fill:none}
    .fil1 {fill:#00000000}
    .fil0 {fill:#00000000}
    .fil4 {fill:#202020}
    .fil5 {fill:#D6D6D6}
    .fil3 {fill:#E1E1E2}
    .fil6 {fill:#FBFBFC}
    .fil7 {fill:#202020;fill-rule:nonzero}
   ]]>
  </style>
   <clipPath id="id0">
    <path d="M3.41333 -3.93701e-006c1.88513,0 3.41333,1.5282 3.41333,3.41333 0,1.88513 -1.5282,3.41333 -3.41333,3.41333 -1.88513,0 -3.41333,-1.5282 -3.41333,-3.41333 0,-1.88513 1.5282,-3.41333 3.41333,-3.41333z"/>
   </clipPath>
 </defs>
 <g id="Layer_x0020_1">
  <metadata id="CorelCorpID_0Corel-Layer"/>
  <path class="fil0" d="M3.41333 -3.93701e-006c1.88513,0 3.41333,1.5282 3.41333,3.41333 0,1.88513 -1.5282,3.41333 -3.41333,3.41333 -1.88513,0 -3.41333,-1.5282 -3.41333,-3.41333 0,-1.88513 1.5282,-3.41333 3.41333,-3.41333z"/>
  <g style="clip-path:url(#id0)">
   <g id="_637660432">
    <g>
     <polygon id="_4421142801" class="fil1" points="2.72038,4.19185 6.50665,7.97812 6.50635,7.97841 6.50606,7.97871 6.50578,7.979 6.50552,7.9793 6.50528,7.97959 6.50505,7.97989 6.50485,7.98019 6.50469,7.98048 2.71842,4.1942 2.71859,4.19391 2.71878,4.19362 2.71901,4.19332 2.71925,4.19303 2.71952,4.19273 2.7198,4.19244 2.72008,4.19214 "/>
     <polygon id="_442115312" class="fil1" points="2.73245,4.04933 6.51872,7.83561 6.50363,7.83012 6.48878,7.82437 6.47419,7.81835 6.45987,7.81206 6.44583,7.80549 6.43209,7.79863 6.41868,7.79149 6.4056,7.78405 6.39287,7.77631 6.3805,7.76827 6.36851,7.75991 6.35692,7.75124 6.34574,7.74226 6.33499,7.73294 2.54872,3.94667 2.55948,3.95599 2.57065,3.96497 2.58224,3.97364 2.59423,3.982 2.6066,3.99004 2.61933,3.99778 2.63241,4.00522 2.64583,4.01236 2.65956,4.01922 2.6736,4.02579 2.68792,4.03208 2.70251,4.0381 2.71736,4.04385 "/>
     <polygon id="_442115624" class="fil1" points="2.72777,4.12453 6.51404,7.9108 6.51333,7.91078 6.51264,7.91074 6.51197,7.91066 6.51131,7.91056 6.51065,7.91044 6.50998,7.9103 6.5093,7.91016 6.50859,7.91001 2.72232,4.12374 2.72303,4.12389 2.72372,4.12403 2.72439,4.12417 2.72504,4.12428 2.7257,4.12439 2.72637,4.12446 2.72706,4.12451 "/>
     <polygon id="_442115816" class="fil1" points="2.2898,3.02981 6.07606,6.81609 6.07569,6.81596 2.28942,3.02969 "/>
     <polygon id="_442116128" class="fil1" points="2.5843,4.0889 6.37057,7.87517 6.37757,7.88182 6.38452,7.88872 6.39144,7.89587 6.39831,7.90326 6.40514,7.91091 6.41192,7.9188 6.41866,7.92695 2.63239,4.14068 2.62565,4.13253 2.61887,4.12464 2.61204,4.11699 2.60517,4.10959 2.59826,4.10245 2.5913,4.09555 "/>
     <polygon id="_442115672" class="fil1" points="3.3888,5.28 7.17506,9.06627 7.1437,9.06618 7.11276,9.0659 7.08222,9.06543 7.05211,9.06478 7.02241,9.06394 6.99312,9.06291 6.96425,9.06169 6.93579,9.0603 6.90775,9.0587 6.88013,9.05693 6.85291,9.05497 6.82612,9.05282 6.79974,9.05048 6.77377,9.04796 6.74822,9.04526 6.72309,9.04236 6.69837,9.03928 6.67406,9.03601 6.65017,9.03255 6.6267,9.02891 6.60364,9.02507 6.58099,9.02106 6.55876,9.01685 6.53695,9.01246 6.51555,9.00789 6.49457,9.00312 6.474,8.99817 6.45385,8.99303 6.43411,8.98771 6.41478,8.9822 6.39587,8.9765 6.37738,8.97061 2.59111,5.18434 2.60961,5.19022 2.62852,5.19593 2.64784,5.20144 2.66758,5.20676 2.68773,5.2119 2.7083,5.21685 2.72928,5.22161 2.75068,5.22619 2.7725,5.23058 2.79472,5.23479 2.81737,5.2388 2.84043,5.24263 2.86391,5.24628 2.8878,5.24974 2.9121,5.253 2.93682,5.25609 2.96196,5.25898 2.9875,5.26169 3.01347,5.26421 3.03985,5.26655 3.06665,5.2687 3.09386,5.27066 3.12148,5.27243 3.14952,5.27402 3.17798,5.27542 3.20685,5.27664 3.23614,5.27767 3.26584,5.2785 3.29596,5.27916 3.32649,5.27963 3.35743,5.27991 "/>
     <polygon id="_442115600" class="fil1" points="2.59111,5.18434 6.37738,8.97061 6.35866,8.96434 6.34037,8.95787 6.32252,8.95119 6.3051,8.9443 6.28812,8.9372 6.27157,8.9299 6.25546,8.92239 6.23979,8.91468 6.22456,8.90676 6.20975,8.89863 6.19539,8.8903 6.18145,8.88176 6.16796,8.87302 6.1549,8.86407 6.14227,8.85492 6.13008,8.84557 6.11833,8.83601 2.33206,5.04974 2.34381,5.0593 2.356,5.06865 2.36863,5.0778 2.38169,5.08675 2.39519,5.09549 2.40912,5.10403 2.42348,5.11236 2.43829,5.12048 2.45352,5.12841 2.4692,5.13612 2.48531,5.14363 2.50185,5.15093 2.51883,5.15803 2.53625,5.16491 2.5541,5.1716 2.57239,5.17807 "/>
     <polygon id="_442115840" class="fil1" points="2.63239,4.14068 6.41866,7.92695 6.41893,7.92724 6.41918,7.92753 6.41939,7.92783 6.41958,7.92812 6.41976,7.92842 6.41992,7.92871 6.42007,7.92901 6.42022,7.92931 2.63395,4.14304 2.6338,4.14274 2.63365,4.14244 2.63349,4.14215 2.63331,4.14185 2.63312,4.14156 2.63291,4.14126 2.63267,4.14097 "/>
     <polygon id="_442116032" class="fil1" points="2.63395,4.14304 6.42022,7.92931 6.50665,8.03363 2.72038,4.24736 "/>
     <polygon id="_442115720" class="fil1" points="2.72038,4.24736 6.50665,8.03363 6.5117,8.03846 6.51694,8.04385 6.52234,8.04975 6.52791,8.05611 6.53362,8.06288 6.53947,8.07003 6.54544,8.0775 6.55154,8.08526 6.55775,8.09324 6.56405,8.10143 6.57044,8.10975 6.5769,8.11817 6.58344,8.12665 6.59003,8.13513 6.59666,8.14357 6.60333,8.15194 6.61004,8.16017 6.61675,8.16822 6.62347,8.17606 6.63019,8.18363 6.63689,8.19089 6.64357,8.1978 6.65021,8.2043 6.65681,8.21035 2.87054,4.42407 2.86394,4.41802 2.8573,4.41152 2.85062,4.40462 2.84392,4.39736 2.8372,4.38979 2.83048,4.38195 2.82377,4.37389 2.81707,4.36567 2.81039,4.3573 2.80376,4.34886 2.79717,4.34037 2.79063,4.3319 2.78417,4.32348 2.77778,4.31515 2.77148,4.30697 2.76528,4.29898 2.75918,4.29123 2.7532,4.28376 2.74735,4.27661 2.74164,4.26983 2.73607,4.26348 2.73067,4.25758 2.72543,4.25219 "/>
     <polygon id="_442115888" class="fil1" points="2.92048,4.44774 6.70674,8.23401 6.70087,8.23319 6.69488,8.23154 6.68876,8.22914 6.68254,8.22601 6.67623,8.2222 6.66983,8.21777 6.66335,8.21275 6.65681,8.20719 2.87054,4.42092 2.87708,4.42648 2.88356,4.4315 2.88996,4.43593 2.89628,4.43974 2.9025,4.44287 2.90861,4.44527 2.91461,4.44691 "/>
     <polygon id="_442116248" class="fil1" points="2.63249,3.28029 6.41876,7.06656 6.41325,7.06487 6.40751,7.06307 6.40156,7.06118 6.39543,7.0592 6.38913,7.05714 6.3827,7.05502 6.37614,7.05283 6.36949,7.05058 6.36276,7.04829 6.35598,7.04595 6.34917,7.04359 6.34234,7.04119 6.33554,7.03879 6.32876,7.03637 6.32205,7.03394 6.31541,7.03153 6.30888,7.02913 6.30246,7.02674 6.2962,7.02439 6.2901,7.02207 6.28419,7.0198 6.2785,7.01757 6.27303,7.01541 6.26783,7.01331 6.26289,7.01128 6.25827,7.00934 6.25396,7.00748 6.25,7.00572 6.2464,7.00407 6.24319,7.00253 6.24039,7.00111 6.23802,6.99981 2.45176,3.21354 2.45412,3.21483 2.45692,3.21626 2.46013,3.2178 2.46373,3.21945 2.46769,3.22121 2.472,3.22307 2.47663,3.22501 2.48156,3.22704 2.48676,3.22913 2.49223,3.2313 2.49793,3.23352 2.50383,3.2358 2.50993,3.23812 2.5162,3.24047 2.52261,3.24285 2.52914,3.24526 2.53578,3.24767 2.5425,3.25009 2.54927,3.25252 2.55607,3.25492 2.5629,3.25731 2.56971,3.25968 2.57649,3.26202 2.58322,3.26431 2.58987,3.26656 2.59643,3.26874 2.60287,3.27087 2.60916,3.27293 2.6153,3.27491 2.62124,3.2768 2.62698,3.27859 "/>
     <polygon id="_442116344" class="fil1" points="2.45176,3.21354 6.23802,6.99981 6.2312,6.99571 6.22449,6.9915 6.21787,6.98718 6.21137,6.98274 6.20497,6.97819 6.19868,6.97353 6.19249,6.96876 6.18642,6.96388 6.18046,6.95889 6.1746,6.9538 6.16886,6.94859 6.16324,6.94328 2.37697,3.15701 2.38259,3.16232 2.38833,3.16752 2.39419,3.17262 2.40015,3.17761 2.40622,3.18249 2.41241,3.18726 2.4187,3.19192 2.4251,3.19647 2.43161,3.20091 2.43822,3.20523 2.44494,3.20944 "/>
     <polygon id="_442116752" class="fil1" points="2.67443,3.29976 6.4607,7.08603 6.45756,7.08354 6.45304,7.08086 6.44754,7.07809 6.44143,7.07535 6.43511,7.07274 6.42895,7.07036 6.42334,7.06833 6.41866,7.06674 2.63239,3.28047 2.63707,3.28206 2.64268,3.28409 2.64884,3.28647 2.65517,3.28908 2.66127,3.29182 2.66677,3.29459 2.67129,3.29727 "/>
     <polygon id="_442116656" class="fil1" points="3.82193,4.44799 7.60819,8.23426 7.57931,8.20967 7.55019,8.18841 7.52084,8.1703 7.4913,8.15519 7.46157,8.14287 7.4317,8.1332 7.40171,8.12598 7.37161,8.12104 7.34143,8.1182 7.3112,8.1173 7.28094,8.11816 7.25067,8.12059 7.22043,8.12443 7.19022,8.1295 7.16008,8.13563 7.13004,8.14263 7.10011,8.15034 7.07032,8.15858 7.04069,8.16717 7.01125,8.17594 6.98203,8.18471 6.95304,8.19331 6.92431,8.20156 6.89586,8.20929 6.86772,8.21632 6.83992,8.22248 6.81247,8.22758 6.78541,8.23146 6.75875,8.23395 6.73252,8.23485 6.70674,8.23401 2.92048,4.44774 2.94625,4.44858 2.97248,4.44768 2.99914,4.44519 3.0262,4.44131 3.05365,4.4362 3.08146,4.43005 3.10959,4.42302 3.13804,4.41529 3.16677,4.40704 3.19576,4.39844 3.22498,4.38967 3.25443,4.3809 3.28405,4.37231 3.31384,4.36407 3.34377,4.35636 3.37381,4.34936 3.40395,4.34323 3.43416,4.33816 3.46441,4.33432 3.49467,4.33189 3.52493,4.33103 3.55516,4.33193 3.58534,4.33476 3.61544,4.3397 3.64544,4.34693 3.67531,4.3566 3.70503,4.36891 3.73457,4.38403 3.76392,4.40213 3.79305,4.4234 "/>
     <polygon id="_442116392" class="fil1" points="2.67456,3.29953 6.46083,7.0858 6.4607,7.08603 2.67443,3.29976 "/>
     <polygon id="_442116608" class="fil1" points="3.84092,5.25796 7.62719,9.04423 7.62712,9.04467 7.62705,9.04511 7.62697,9.04556 7.62689,9.046 7.62682,9.04644 7.62676,9.04688 7.6267,9.04733 7.62667,9.04777 3.84041,5.2615 3.84044,5.26106 3.84049,5.26061 3.84055,5.26017 3.84062,5.25972 3.8407,5.25928 3.84078,5.25884 3.84085,5.2584 "/>
     <polygon id="_442116632" class="fil1" points="3.9755,5.20127 7.76177,8.98754 7.75814,8.99212 7.75455,8.99668 7.751,9.00123 7.74751,9.00575 7.74407,9.01023 7.74069,9.01467 7.73737,9.01905 7.73412,9.02337 3.94785,5.2371 3.9511,5.23278 3.95442,5.2284 3.9578,5.22396 3.96124,5.21948 3.96474,5.21496 3.96828,5.21041 3.97187,5.20585 "/>
     <polygon id="_442116968" class="fil1" points="3.94785,5.2371 7.73412,9.02337 7.72611,9.02625 7.71873,9.02887 7.71189,9.03123 7.70549,9.03335 7.69943,9.03525 7.69361,9.03693 7.68793,9.03839 7.68231,9.03967 7.67663,9.04076 7.6708,9.04168 7.66472,9.04244 7.6583,9.04305 7.65143,9.04352 7.64402,9.04387 7.63598,9.0441 7.62719,9.04423 3.84092,5.25796 3.84971,5.25783 3.85776,5.2576 3.86516,5.25725 3.87203,5.25678 3.87845,5.25617 3.88453,5.25541 3.89036,5.25449 3.89604,5.2534 3.90167,5.25212 3.90734,5.25065 3.91316,5.24898 3.91922,5.24708 3.92562,5.24496 3.93246,5.2426 3.93984,5.23998 "/>
     <polygon id="_442116944" class="fil1" points="3.82195,4.45113 7.60822,8.2374 7.6368,8.26551 7.64589,8.27526 7.65472,8.28511 7.66328,8.29506 7.67158,8.30511 7.6796,8.31525 7.68736,8.3255 7.69484,8.33584 7.70205,8.34629 7.70898,8.35684 7.71563,8.3675 7.72201,8.37826 7.72811,8.38912 7.73392,8.40009 7.73945,8.41118 7.7447,8.42237 7.74966,8.43366 7.75434,8.44507 7.75872,8.45659 7.76282,8.46822 7.76662,8.47997 7.77013,8.49183 7.77335,8.50381 7.77627,8.5159 7.77889,8.52811 7.78122,8.54044 7.78324,8.55289 7.78496,8.56545 7.78638,8.57814 7.7875,8.59095 7.7883,8.60388 7.7888,8.61694 7.78899,8.63012 4.00272,4.84385 4.00254,4.83067 4.00204,4.81761 4.00123,4.80468 4.00011,4.79187 3.9987,4.77918 3.99698,4.76661 3.99495,4.75417 3.99263,4.74184 3.99,4.72963 3.98708,4.71754 3.98387,4.70556 3.98035,4.6937 3.97655,4.68195 3.97246,4.67032 3.96807,4.6588 3.96339,4.64739 3.95843,4.63609 3.95319,4.62491 3.94765,4.61382 3.94184,4.60285 3.93574,4.59198 3.92936,4.58122 3.92271,4.57057 3.91578,4.56002 3.90857,4.54957 3.90109,4.53922 3.89333,4.52898 3.88531,4.51883 3.87702,4.50879 3.86845,4.49884 3.85963,4.48899 3.85053,4.47924 "/>
     <polygon id="_442116368" class="fil1" points="3.84041,5.2615 7.62667,9.04777 7.61489,9.04915 7.60282,9.05046 7.59049,9.0517 7.5779,9.05288 7.56507,9.054 7.55202,9.05506 7.53875,9.05606 7.52528,9.057 7.51161,9.05789 7.49778,9.05872 7.48378,9.0595 7.46963,9.06022 7.45534,9.06091 7.44093,9.06154 7.42641,9.06212 7.41179,9.06265 7.39709,9.06315 7.38231,9.0636 7.36747,9.06401 7.35259,9.06438 7.33767,9.06471 7.32273,9.065 7.30778,9.06526 7.29284,9.06549 7.27792,9.06569 7.26303,9.06585 7.24819,9.06598 7.23339,9.06609 7.21867,9.06617 7.20404,9.06623 7.1895,9.06626 7.17506,9.06627 3.3888,5.28 3.40323,5.27999 3.41777,5.27996 3.43241,5.2799 3.44713,5.27982 3.46192,5.27971 3.47676,5.27958 3.49165,5.27941 3.50657,5.27922 3.52152,5.27899 3.53646,5.27873 3.5514,5.27844 3.56632,5.27811 3.5812,5.27774 3.59604,5.27733 3.61082,5.27687 3.62552,5.27638 3.64014,5.27585 3.65467,5.27526 3.66907,5.27463 3.68336,5.27395 3.69751,5.27323 3.71151,5.27245 3.72535,5.27161 3.73901,5.27073 3.75248,5.26979 3.76575,5.26879 3.7788,5.26773 3.79163,5.26661 3.80422,5.26543 3.81655,5.26419 3.82862,5.26287 "/>
     <polygon id="_442116440" class="fil1" points="2.48835,2.25412 6.27462,6.04039 6.27423,6.04039 2.48796,2.25412 "/>
     <polygon id="_442116560" class="fil1" points="4.54621,3.68596 8.33248,7.47224 8.33439,7.47638 8.3362,7.48056 8.33792,7.48476 8.33956,7.489 8.34114,7.49327 8.34268,7.49759 8.34418,7.50194 8.34566,7.50634 8.34713,7.51079 8.34862,7.51528 8.35013,7.51982 8.35168,7.52442 8.35328,7.52907 8.35494,7.53378 8.35669,7.53856 8.35852,7.54339 4.57226,3.75712 4.57042,3.75228 4.56867,3.74751 4.56701,3.7428 4.56541,3.73815 4.56386,3.73355 4.56235,3.72901 4.56087,3.72452 4.55939,3.72007 4.55791,3.71567 4.55641,3.71131 4.55487,3.707 4.5533,3.70272 4.55165,3.69849 4.54993,3.69428 4.54813,3.69011 "/>
     <polygon id="_442117400" class="fil1" points="3.77691,1.61353 7.56318,5.3998 7.56842,5.4057 7.57356,5.4118 7.57862,5.41808 7.58358,5.42454 7.58844,5.43116 7.59321,5.43794 7.59789,5.44487 7.60246,5.45195 7.60694,5.45916 7.61131,5.4665 7.61559,5.47397 3.82932,1.6877 3.82505,1.68023 3.82067,1.67289 3.81619,1.66568 3.81162,1.6586 3.80694,1.65167 3.80217,1.64489 3.79731,1.63827 3.79235,1.63181 3.7873,1.62553 3.78215,1.61943 "/>
     <polygon id="_442117184" class="fil1" points="4.14567,1.92396 7.93193,5.71024 7.94841,5.72899 7.9643,5.748 7.97961,5.76725 7.99434,5.78675 8.0085,5.80649 8.02208,5.82648 8.03509,5.84671 8.04754,5.86718 8.05941,5.88789 8.07071,5.90884 8.08144,5.93003 8.09162,5.95146 8.10122,5.97313 8.11027,5.99503 8.11876,6.01716 8.12669,6.03953 8.13406,6.06213 8.14087,6.08496 8.14713,6.10802 8.15284,6.13131 8.158,6.15483 8.1626,6.17858 8.16666,6.20256 8.17018,6.22675 8.17315,6.25117 8.17557,6.27582 8.17745,6.30069 8.1788,6.32577 8.1796,6.35108 8.17987,6.37661 8.1797,6.39552 8.1792,6.41435 8.17835,6.43307 8.17717,6.4517 8.17566,6.47023 8.17381,6.48866 8.17163,6.507 8.16911,6.52524 8.16627,6.54338 8.16309,6.56143 8.15957,6.57937 8.15574,6.59722 8.15156,6.61498 8.14706,6.63264 8.14223,6.6502 8.13708,6.66767 8.13159,6.68504 8.12578,6.70231 8.11965,6.71949 8.11319,6.73657 8.1064,6.75356 8.0993,6.77044 8.09186,6.78724 8.08411,6.80394 8.07603,6.82054 8.06763,6.83704 8.05892,6.85345 8.04988,6.86977 8.04052,6.88599 8.03085,6.90211 8.02086,6.91814 8.01055,6.93407 4.22428,3.1478 4.23459,3.13187 4.24458,3.11584 4.25426,3.09972 4.26361,3.0835 4.27265,3.06718 4.28137,3.05077 4.28976,3.03426 4.29784,3.01767 4.30559,3.00097 4.31303,2.98417 4.32013,2.96728 4.32692,2.9503 4.33338,2.93322 4.33952,2.91604 4.34533,2.89877 4.35081,2.8814 4.35596,2.86393 4.3608,2.84637 4.3653,2.82871 4.36947,2.81095 4.37331,2.7931 4.37682,2.77515 4.38,2.75711 4.38285,2.73896 4.38536,2.72073 4.38754,2.70239 4.38939,2.68396 4.39091,2.66543 4.39209,2.6468 4.39293,2.62807 4.39343,2.60925 4.3936,2.59033 4.39333,2.56481 4.39253,2.5395 4.39119,2.51441 4.3893,2.48955 4.38688,2.4649 4.38391,2.44048 4.38039,2.41628 4.37633,2.39231 4.37173,2.36856 4.36657,2.34504 4.36086,2.32175 4.3546,2.29869 4.34779,2.27586 4.34042,2.25326 4.33249,2.23089 4.324,2.20876 4.31496,2.18685 4.30535,2.16519 4.29518,2.14376 4.28444,2.12257 4.27314,2.10162 4.26127,2.08091 4.24883,2.06044 4.23581,2.0402 4.22223,2.02022 4.20807,2.00048 4.19334,1.98098 4.17803,1.96173 4.16214,1.94272 "/>
     <polygon id="_442117304" class="fil1" points="4.22428,3.1478 8.01055,6.93407 8.02352,6.95104 8.0363,6.968 8.0489,6.98495 8.06131,7.00189 8.07353,7.01882 8.08557,7.03573 8.09741,7.05264 8.10907,7.06954 8.12055,7.08642 8.13183,7.1033 8.14293,7.12016 8.15383,7.13701 8.16456,7.15386 8.17509,7.17069 8.18544,7.18752 8.19559,7.20433 8.20556,7.22114 8.21535,7.23794 8.22494,7.25473 8.23434,7.27151 8.24356,7.28828 8.25259,7.30504 8.26143,7.3218 8.27007,7.33854 8.27854,7.35528 8.28681,7.37201 8.29489,7.38874 8.30279,7.40545 8.3105,7.42216 8.31801,7.43886 8.32534,7.45555 8.33248,7.47224 4.54621,3.68596 4.53907,3.66928 4.53174,3.65259 4.52423,3.63589 4.51652,3.61918 4.50863,3.60246 4.50054,3.58574 4.49227,3.56901 4.48381,3.55227 4.47516,3.53553 4.46632,3.51877 4.45729,3.50201 4.44807,3.48524 4.43867,3.46846 4.42908,3.45167 4.4193,3.43487 4.40933,3.41806 4.39917,3.40125 4.38882,3.38442 4.37829,3.36759 4.36757,3.35074 4.35666,3.33389 4.34556,3.31702 4.33428,3.30015 4.32281,3.28326 4.31115,3.26637 4.2993,3.24946 4.28726,3.23255 4.27504,3.21562 4.26263,3.19868 4.25004,3.18173 4.23725,3.16477 "/>
     <polygon id="_442117520" class="fil1" points="4.57424,3.75605 8.36051,7.54232 8.36698,7.55973 8.37324,7.57714 8.3793,7.59454 8.38515,7.61193 8.3908,7.6293 8.39624,7.64667 8.40148,7.66403 8.4065,7.68138 8.41133,7.69872 8.41595,7.71606 8.42036,7.73338 8.42457,7.75069 8.42857,7.768 8.43237,7.7853 8.43596,7.80258 8.43935,7.81986 8.44253,7.83713 8.44551,7.85439 8.44828,7.87163 8.45084,7.88887 8.4532,7.90611 8.45536,7.92333 8.45731,7.94054 8.45905,7.95774 8.46059,7.97494 8.46193,7.99213 8.46306,8.0093 8.46398,8.02647 8.4647,8.04363 8.46521,8.06078 8.46552,8.07791 8.46562,8.09504 8.4649,8.1423 8.46275,8.18838 8.45916,8.2333 8.45414,8.27706 8.44769,8.31965 8.4398,8.36108 8.43047,8.40134 8.41971,8.44044 8.40752,8.47837 8.39389,8.51515 8.37883,8.55075 8.36233,8.58519 8.34441,8.61847 8.32504,8.65058 8.30424,8.68153 8.28202,8.71132 8.25835,8.73994 8.23325,8.7674 8.20672,8.79369 8.17876,8.81882 8.14936,8.84279 8.11853,8.86559 8.08626,8.88724 8.05257,8.90772 8.01744,8.92703 7.98087,8.94518 7.94288,8.96217 7.90345,8.978 7.86259,8.99266 7.8203,9.00616 7.77657,9.0185 7.73141,9.02967 3.94514,5.2434 3.9903,5.23222 4.03403,5.21989 4.07632,5.20639 4.11718,5.19172 4.15661,5.1759 4.19461,5.15891 4.23117,5.14076 4.2663,5.12144 4.3,5.10096 4.33226,5.07932 4.36309,5.05652 4.39249,5.03255 4.42045,5.00742 4.44698,4.98113 4.47208,4.95367 4.49575,4.92505 4.51798,4.89526 4.53878,4.86431 4.55814,4.8322 4.57607,4.79892 4.59256,4.76448 4.60762,4.72887 4.62125,4.6921 4.63344,4.65417 4.6442,4.61507 4.65353,4.57481 4.66142,4.53338 4.66787,4.49079 4.67289,4.44703 4.67648,4.40211 4.67863,4.35602 4.67935,4.30877 4.67925,4.29164 4.67894,4.2745 4.67843,4.25735 4.67771,4.2402 4.67679,4.22303 4.67566,4.20585 4.67432,4.18867 4.67278,4.17147 4.67104,4.15427 4.66909,4.13706 4.66694,4.11983 4.66457,4.1026 4.66201,4.08536 4.65924,4.06811 4.65626,4.05085 4.65308,4.03359 4.6497,4.01631 4.6461,3.99902 4.64231,3.98173 4.6383,3.96442 4.63409,3.94711 4.62968,3.92978 4.62506,3.91245 4.62024,3.89511 4.61521,3.87776 4.60997,3.8604 4.60453,3.84303 4.59889,3.82565 4.59303,3.80826 4.58698,3.79087 4.58071,3.77346 "/>
    </g>
    <path id="_637660408" class="fil1" d="M4.57226 3.75712l0.00198819 -0.00107087c0.0700945,0.185807 0.105106,0.370055 0.105106,0.552724 0,0.510228 -0.244874,0.82163 -0.734209,0.934626 0.010126,-0.0130039 0.0202362,-0.0271693 0.0303622,-0.042126 -0.00974803,0.0122008 -0.0190669,0.0243976 -0.0276535,0.0358307 -0.0445945,0.0160787 -0.0579291,0.0204173 -0.106929,0.0208583 -0.000165354,0.00117717 -0.000456693,0.00234646 -0.000515748,0.00353937 -0.124193,0.0150236 -0.298291,0.0184961 -0.45161,0.0185 -0.336736,0 -0.602638,-0.0318819 -0.797681,-0.0956614 -0.202039,-0.0657441 -0.329732,-0.166917 -0.383063,-0.302358l0 -0.000377953c-0.020626,-0.0523701 -0.0358189,-0.125602 -0.0459331,-0.219299 -0.00974803,-0.0921181 -0.0148031,-0.203937 -0.0148031,-0.335413 0,-0.175972 0.0600236,-0.321646 0.242146,-0.321646 0.0451693,0 0.088378,0.0114252 0.130031,0.0350433 0.0393189,0.0228228 0.0770827,0.0562874 0.112902,0.10039 0.000775591,0.000775591 0.00116535,0.00156299 0.00155512,0.0023622l0.0864291 0.104323c0.0529449,0.0484252 0.138197,0.199201 0.200098,0.203531 0.273846,0.0184488 0.626661,-0.290819 0.930055,0.0283465 0.0984134,0.103528 0.151823,0.223339 0.152193,0.36461 0,-0.142803 -0.0524764,-0.262945 -0.152193,-0.367756 -0.303602,-0.319114 -0.657618,-0.00939764 -0.930055,-0.0283543 -0.0619016,-0.00432677 -0.147154,-0.155118 -0.200098,-0.203524l-0.0112913 -0.0130039c0.00544488,-0.0125945 0.010126,-0.0263661 0.0112913,-0.0393661 -0.000791339,0.000783465 -0.00155512,0.00158268 -0.00195669,0.00235827 0,-0.0244016 0.00116535,-0.0480276 0.00312598,-0.0704646 0.00195669,0.000393701 0.00429134,0.000791339 0.00622047,0.000791339 -0.00192913,0 -0.00351575,-0.000397638 -0.00544488,-0.000791339 0.00996063,-0.0181969 0.0104882,-0.0504252 0.010126,-0.0732087l0 -0.00119685c-0.162157,-0.0571063 -0.286138,-0.158472 -0.286138,-0.331476 0,-0.0757283 0.0208622,-0.141807 0.0673307,-0.199209 -0.00638976,-0.0129764 -0.00933071,-0.0339882 -0.00933071,-0.0488189 0,-0.0326772 0.0109016,-0.0602441 0.0326929,-0.0834606 0.0194724,-0.0204685 0.0475,-0.0362087 0.0837087,-0.0472598l0.0720276 -0.0208583 -0.0181811 -0.0187205 -0.000125984 0.000228346c-0.00622047,-0.00629921 -0.0311496,-0.015748 -0.0420394,-0.0192913l9.84252e-005 -0.000177165c-0.0574724,-0.0175315 -0.157878,-0.0536417 -0.180736,-0.066752 -0.0732953,-0.0430945 -0.129083,-0.105811 -0.161961,-0.183724l-0.000374016 -0.000125984c-0.0102638,-0.0255276 -0.0177677,-0.05 -0.0272638,-0.0940984 -0.00738583,-0.0350276 -0.0151772,-0.0771535 -0.0233583,-0.127157 -0.00147244,-0.0015 -0.00259449,-0.00323622 -0.00398425,-0.00479528l-0.00902756 -0.0111417c-0.0340709,-0.0502362 -0.0280472,-0.143669 0.0318583,-0.177181 0.00553937,-0.0031378 0.0113583,-0.00594488 0.017748,-0.00805906 0.0155669,-0.0279449 0.0369843,-0.0578701 0.0638583,-0.089752 0.0229606,-0.0271654 0.051378,-0.0535512 0.0801811,-0.0850394 0.017815,-0.0196811 0.0308031,-0.0429094 0.0354331,-0.0645669l0.000181102 0.000145669 0.0333031 -0.113925 -0.000389764 0c0.0630945,-0.200205 0.182035,-0.356453 0.356209,-0.475177 0.205992,-0.140417 0.435114,-0.197071 0.681917,-0.172346 0.038126,-0.0362795 0.0795709,-0.0599291 0.12161,-0.0599291 0.0740866,0 0.136559,0.0607992 0.181626,0.141031 0.102583,0.0472008 0.196394,0.113673 0.281268,0.199504l0.000385827 0c0.19124,0.193406 0.282626,0.429693 0.282626,0.703134 0,0.202323 -0.0576732,0.388024 -0.169319,0.557465 0.139346,0.181094 0.246791,0.36022 0.321929,0.538165 0.0105,0.0220276 0.0159606,0.0452008 0.0260433,0.0711535z"/>
   </g>
  </g>
  <path class="fil2" d="M3.41333 -3.93701e-006c1.88513,0 3.41333,1.5282 3.41333,3.41333 0,1.88513 -1.5282,3.41333 -3.41333,3.41333 -1.88513,0 -3.41333,-1.5282 -3.41333,-3.41333 0,-1.88513 1.5282,-3.41333 3.41333,-3.41333z"/>
  <path class="fil3" d="M2.72085 2.77078c0.0340827,0.151173 -0.0147992,0.373055 -0.0627205,0.518831 -0.0339803,-0.00634646 -0.188185,-0.0595984 -0.217335,-0.0762126 -0.039,-0.0231339 -0.0723622,-0.0504528 -0.100055,-0.0819409 -0.0276772,-0.0314646 -0.049748,-0.067311 -0.0661929,-0.107543l-5.51181e-005 2.3622e-005c-0.0081811,-0.0199606 -0.0165866,-0.0494724 -0.0251969,-0.0885157 -0.00764567,-0.0346772 -0.0155433,-0.0770472 -0.0236811,-0.127094 -0.00944094,-0.00923228 -0.0169685,-0.0199882 -0.0225906,-0.0322559 -0.00751575,-0.0163976 -0.0112598,-0.0347362 -0.0112598,-0.0550236 0,-0.0319646 0.00727165,-0.0580354 0.0218307,-0.0782047 0.0122953,-0.0170354 0.028689,-0.028874 0.049189,-0.0355197 0.0157323,-0.0279449 0.0371732,-0.057874 0.0643031,-0.0897638 0.0231614,-0.0272283 0.0522008,-0.0535748 0.0809843,-0.0850039 0.0271181,-0.0296142 0.0320512,-0.0505551 0.0328543,-0.0499567 0.128063,0.0616024 0.249409,0.252839 0.279925,0.388181z"/>
  <path class="fil4" d="M2.27693 3.02961c-0.000807087,-0.00188976 -0.00159843,-0.0037874 -0.00237795,-0.00569685l-5.51181e-005 2.3622e-005c-0.0073189,-0.0178622 -0.0148189,-0.043378 -0.0224882,-0.0765197 0.00451969,0.013752 0.00966929,0.0237992 0.0156496,0.0278819 0.0338937,0.0231535 0.142248,0.0340039 0.142555,0.0340315 0.0129252,0.00125197 0.0229252,0.012689 0.0223465,0.0255433 -0.000582677,0.0128583 -0.0115315,0.0222638 -0.0244528,0.0210157 -0.000271654,-2.75591e-005 -0.0776063,-0.00777559 -0.131177,-0.0262795z"/>
  <path class="fil4" d="M2.22008 2.80249c-0.00689764,-0.00784646 -0.0125827,-0.0166535 -0.0170591,-0.0264252 -0.00751575,-0.0163976 -0.0112598,-0.0347362 -0.0112598,-0.0550236 0,-0.0319646 0.00727165,-0.0580354 0.0218307,-0.0782047 0.00948425,-0.0131417 0.0214134,-0.0231929 0.0357835,-0.0301535 0.0118504,-0.00459449 0.0246929,-0.00711417 0.0381142,-0.00711417 0.0595591,0 0.107846,0.0495197 0.107846,0.110598 0,0.0610787 -0.0482874,0.110594 -0.107846,0.110594 -0.0255079,0 -0.0489449,-0.00908661 -0.0674094,-0.0242717z"/>
  <path class="fil4" d="M3.36089 2.03674c-0.0131969,0.015874 -0.0367717,0.0180394 -0.0526457,0.00483858 -0.015874,-0.0131969 -0.0180394,-0.0367717 -0.00483858,-0.0526457 0.0225472,-0.0270591 0.0490433,-0.0473937 0.0794843,-0.0610079 0.0302205,-0.0135197 0.0636929,-0.0202717 0.100398,-0.0202717 0.0431102,0 0.0832795,0.00898425 0.120492,0.0269409 0.0366614,0.017685 0.0698858,0.0439409 0.0996654,0.078748 0.0289843,0.0340118 0.0508858,0.0702283 0.0656535,0.108626 0.0149055,0.0387598 0.0223819,0.0790827 0.0223819,0.120945 0,0.0357598 -0.00562992,0.0694173 -0.016874,0.100961 -0.0113189,0.0317559 -0.0281929,0.061 -0.0506024,0.0877087 -0.0229961,0.0274528 -0.0494843,0.0482126 -0.0794173,0.0622874 -0.0300197,0.0141063 -0.062748,0.0211614 -0.0981496,0.0211614 -0.0207323,0 -0.0375433,-0.016811 -0.0375433,-0.0375433 0,-0.0207323 0.016811,-0.0375433 0.0375433,-0.0375433 0.024689,0 0.0468583,-0.0046063 0.0664764,-0.0138268 0.0196575,-0.00924409 0.0375394,-0.0234528 0.0536024,-0.0426339 0.016689,-0.0198898 0.0291614,-0.0414094 0.0374094,-0.0645394 0.00830709,-0.023315 0.0124685,-0.0486654 0.0124685,-0.0760315 0,-0.0332244 -0.0057126,-0.0646496 -0.0170984,-0.0942559 -0.011563,-0.030063 -0.0291575,-0.0589449 -0.052748,-0.0866299 -0.0229528,-0.0268307 -0.048063,-0.0468268 -0.0753228,-0.0599764 -0.0266772,-0.0128701 -0.0559961,-0.019315 -0.087937,-0.019315 -0.026437,0 -0.0497402,0.00450787 -0.0698976,0.0135236 -0.019937,0.00891732 -0.0374449,0.0224094 -0.0525,0.0404803z"/>
  <line class="fil4" x1="2.44081" y1="3.21337" x2="2.44081" y2= "3.21337" />
  <path class="fil4" d="M3.84509 5.26154c-0.035874,0.00418504 -0.0771969,0.00765748 -0.123972,0.0104094 -0.091122,0.0053622 -0.20198,0.00804331 -0.332563,0.00804331 -0.340524,0 -0.60935,-0.0318268 -0.80648,-0.0954843 -0.204386,-0.0660039 -0.333551,-0.166874 -0.387516,-0.302618l-6.69291e-005 -0.000177165 -8.26772e-005 3.14961e-005c-0.0207717,-0.052626 -0.0362205,-0.125776 -0.0463583,-0.219417 -0.00996457,-0.0920276 -0.014937,-0.20387 -0.014937,-0.3355 0,-0.102681 0.0197402,-0.181059 0.0592087,-0.235114 0.0421496,-0.0577283 0.104094,-0.0865984 0.185815,-0.0865984 0.0455709,0 0.0892953,0.0117598 0.131142,0.0352992 0.0401299,0.0225748 0.0782835,0.0560472 0.114425,0.100437 0.000543307,0.000665354 0.00105906,0.00134646 0.00154331,0.00203937 0.0309685,0.0387008 0.0583819,0.0715236 0.0822283,0.0984606 0.00151181,0.00211417 0.00326772,0.00409843 0.00526378,0.00591732 0.0532913,0.0485039 0.139791,0.19928 0.20226,0.203524 0.0920039,0.00624803 0.192917,-0.0237717 0.299626,-0.0555197 0.205783,-0.0612244 0.43565,-0.129614 0.64087,0.0838307 0.0515236,0.0536299 0.0901378,0.111079 0.115835,0.172327 0.0254764,0.0607283 0.0382205,0.125425 0.0382205,0.194079 0,0.0565551 -0.0102913,0.138299 -0.0326496,0.209449 -0.0161024,0.0512598 -0.0904134,0.157579 -0.117906,0.179787 -0.00852756,0.00685433 -0.0132559,0.0166732 -0.0139055,0.0267953z"/>
  <path class="fil5" d="M4.58739 3.75611c0.0707677,0.185799 0.106161,0.370031 0.106161,0.552689 0,0.510173 -0.247457,0.821693 -0.742287,0.934697 0.0100433,-0.0128976 0.0204094,-0.0271929 0.0305118,-0.0420669 -0.00962992,0.012248 -0.0191575,0.0242677 -0.0279646,0.0357205 -0.045185,0.0163504 -0.0584488,0.0205591 -0.108689,0.0208268 0.000775591,-0.00994094 0.00549213,-0.0195433 0.0138701,-0.0262795 0.0274921,-0.0222087 0.101803,-0.128528 0.117906,-0.179783 0.0223583,-0.0711496 0.0326496,-0.152898 0.0326496,-0.209453 0,-0.0686535 -0.0127441,-0.13335 -0.0382205,-0.194079 -0.0256969,-0.061248 -0.064311,-0.118693 -0.115835,-0.172327 -0.20522,-0.213445 -0.435087,-0.145055 -0.64087,-0.0838307 -0.106709,0.031752 -0.207622,0.0617677 -0.299626,0.0555197 -0.0624685,-0.00424409 -0.148969,-0.15502 -0.20226,-0.203524 -0.00199606,-0.00181496 -0.00375197,-0.00380315 -0.00526378,-0.00591339 -0.00205906,-0.00232677 -0.00414567,-0.00469685 -0.00625591,-0.0071063 0.00559449,-0.0124331 0.0101417,-0.0263031 0.0113465,-0.0391929 -0.000720472,0.000665354 -0.00142126,0.0013622 -0.00209843,0.00209449 0.000173228,-0.0243898 0.00131496,-0.0478504 0.00342913,-0.0704016 0.00201181,0.000515748 0.00410236,0.000870079 0.00624409,0.00104724 0.305315,0.0262913 0.58389,0.0347087 0.868898,-0.0099685 0.27752,-0.0435039 0.67602,-0.179972 0.998354,-0.358669z"/>
  <path class="fil5" d="M4.11874 1.88721c0.0953071,0.0953504 0.166831,0.201724 0.214551,0.319098 0.0477126,0.117335 0.0715669,0.245307 0.0715669,0.383921 0,0.104409 -0.0156732,0.205205 -0.0470079,0.302362 -0.0285551,0.0885512 -0.0700551,0.173685 -0.124476,0.255398 0.140996,0.180776 0.249579,0.360173 0.325732,0.538177 0.0106732,0.0216732 0.0159449,0.0449488 0.0264646,0.0709409 -0.322012,0.178205 -0.719543,0.314244 -0.996539,0.357665 -0.285008,0.0446772 -0.563583,0.0362598 -0.868898,0.0099685 -0.00183465,-0.000153543 -0.00363386,-0.000437008 -0.00537795,-0.000838583 0.0101417,-0.0184449 0.0104331,-0.0517953 0.0100591,-0.0746969 -0.0882126,-0.030689 -0.15635,-0.0707913 -0.20437,-0.120264 -0.056752,-0.0584685 -0.0851299,-0.128819 -0.0851299,-0.211031 0,-0.0438189 0.00727165,-0.0841496 0.0218189,-0.120949 0.0112165,-0.028374 0.0266614,-0.054437 0.0463307,-0.0781772 -0.00107087,-0.00259449 -0.00205512,-0.00524409 -0.00295276,-0.00794488 -0.00437008,-0.0131417 -0.00653937,-0.0268268 -0.00653937,-0.0410433 0,-0.0325118 0.0110866,-0.0603465 0.0332717,-0.0834764 0.0197008,-0.0205276 0.0479134,-0.0362638 0.0846457,-0.047185l0.000311024 -8.66142e-005 -1.5748e-005 -5.90551e-005 0.0726457 -0.0208661 -0.00179528 -0.0019252c-0.00814961,-0.00867323 -0.0174173,-0.0177441 -0.0277953,-0.0272205 0.00133465,-0.00167717 0.00240551,-0.00361417 0.00311811,-0.00576772 0.040315,-0.121685 0.0736378,-0.330209 0.0668701,-0.473567 0.0586772,-0.0118307 0.116594,-0.0395669 0.158756,-0.0819724 0.0408583,-0.0410906 0.0630748,-0.0929331 0.0630748,-0.151165 0,-0.0673504 -0.0255669,-0.128315 -0.078252,-0.171169 -0.0229252,-0.0186496 -0.0494016,-0.032626 -0.0773937,-0.0419803 -0.0286299,-0.00956299 -0.0589409,-0.0142126 -0.0891063,-0.0142126 -0.0731811,0 -0.145437,0.0279016 -0.193043,0.0845827l0.00185039 0.0017126c-0.00965748,-0.00801181 -0.0493228,-0.0419331 -0.0591417,-0.0492244 -0.00344488,-0.00255512 -0.00748819,-0.00374803 -0.0114724,-0.00366535 0.00294488,-0.0116457 0.00624409,-0.0240472 0.00990157,-0.0372126 0.00741732,-0.0267008 0.0165551,-0.0570945 0.0274213,-0.0911457l-0.000129921 -4.33071e-005c0.0313583,-0.0987992 0.0771063,-0.187874 0.137228,-0.267244 0.0599646,-0.0791575 0.13422,-0.148512 0.22276,-0.208083 0.0879685,-0.0591969 0.18013,-0.103614 0.276453,-0.133256 0.0966732,-0.029752 0.197157,-0.044622 0.301417,-0.044622 0.138634,0 0.266618,0.0238543 0.383957,0.0715669 0.117378,0.0477244 0.223744,0.119244 0.319087,0.214551l0.000145669 0.000149606zm-1.60762 0.548236l-7.87402e-006 -7.87402e-006"/>
  <path class="fil2" d="M3.96969 5.23446c-0.0604803,0.021811 -0.0694921,0.0265827 -0.129992,0.0265827"/>
  <path class="fil4" d="M2.50347 3.51879c-0.0196693,0.0237402 -0.0351142,0.0498031 -0.0463307,0.0781772 -0.0145472,0.0367992 -0.0218189,0.0771299 -0.0218189,0.120949 0,0.0822126 0.028378,0.152563 0.0851299,0.211031 0.0480197,0.0494724 0.116157,0.0895748 0.20437,0.120264 7.87402e-006,0.000507874 1.5748e-005,0.00101969 2.3622e-005,0.00153937 0.271937,0.0141181 0.787913,-0.102185 1.0313,-0.212169 0.144142,-0.0651378 0.277724,-0.150693 0.337807,-0.25565 0.0990236,-0.17298 -0.0481417,-0.40963 -0.240661,-0.421591 -0.152209,-0.00945276 -0.333941,0.0823307 -0.492697,0.131748 -0.278957,0.0868386 -0.567839,0.0543031 -0.683551,0.0272756l-0.0648543 0.0186299 1.5748e-005 5.90551e-005 -0.000311024 8.66142e-005c-0.0367323,0.0109213 -0.0649449,0.0266575 -0.0846457,0.047185 -0.022185,0.0231299 -0.0332717,0.0509646 -0.0332717,0.0834764 0,0.0142165 0.00216929,0.0279016 0.00653937,0.0410433 0.000897638,0.00270079 0.00188189,0.00535039 0.00295276,0.00794488z"/>
  <path class="fil4" d="M2.94706 2.57651c0,0.125394 -0.105622,0.211783 -0.221665,0.233157 -0.0165906,-0.130972 -0.121232,-0.28863 -0.21613,-0.375937 0.0476063,-0.0566811 0.119862,-0.0845827 0.193043,-0.0845827 0.0301654,0 0.0604764,0.00464961 0.0891063,0.0142126 0.0279921,0.00935433 0.0544685,0.0233307 0.0773937,0.0419803 0.052685,0.0428543 0.078252,0.103819 0.078252,0.171169z"/>
  <path class="fil6" d="M2.76231 2.44607c0.0361102,0 0.065378,0.0292677 0.065378,0.065378 0,0.0361102 -0.0292677,0.0653819 -0.065378,0.0653819 -0.0361102,0 -0.0653819,-0.0292717 -0.0653819,-0.0653819 0,-0.0361102 0.0292717,-0.065378 0.0653819,-0.065378z"/>
  <path class="fil7" d="M2.42472 2.4119c0.0736142,0.055437 0.213846,0.184657 0.256724,0.390488 0.0532992,0.255839 -0.0216575,0.408717 -0.0579252,0.478181 0.0111339,0.00342913 0.0364646,0.0129409 0.0427047,0.0191811 0.0390906,-0.0750866 0.117126,-0.237705 0.0610472,-0.506894 -0.0473504,-0.227303 -0.206106,-0.368331 -0.283024,-0.424839 -0.00222835,0.00874803 -0.0109646,0.0319488 -0.0195276,0.0438819z"/>
  <path class="fil4" d="M3.65028 1.54666c0.156917,0 0.262126,0.265638 0.262126,0.419776 0,0.154138 -0.11835,0.275051 -0.267555,0.283634 -0.0585866,-0.103862 -0.155815,-0.171811 -0.26587,-0.171811 -0.00396063,0 -0.00790157,0.00011811 -0.0118307,0.000291339 -0.0147874,-0.0343937 -0.0229961,-0.013748 -0.0229961,-0.112114 0,-0.0983701 0.149205,-0.419776 0.306126,-0.419776z"/>
 </g>
</svg>
