<?xml version="1.0" encoding="UTF-8"?>
<!DOCTYPE svg PUBLIC "-//W3C//DTD SVG 1.1//EN" "http://www.w3.org/Graphics/SVG/1.1/DTD/svg11.dtd">
<!-- Creator: CorelDRAW -->
<svg xmlns="http://www.w3.org/2000/svg" xml:space="preserve" width="6.82666in" height="6.82666in" style="shape-rendering:geometricPrecision; text-rendering:geometricPrecision; image-rendering:optimizeQuality; fill-rule:evenodd; clip-rule:evenodd"
viewBox="0 0 6.82666 6.82666"
 xmlns:xlink="http://www.w3.org/1999/xlink">
 <defs>
  <style type="text/css">
   <![CDATA[
    .fil2 {fill:none}
    .fil11 {fill:#1F6B23}
    .fil8 {fill:#212121}
    .fil9 {fill:#247328}
    .fil5 {fill:#2E7D32}
    .fil10 {fill:#4E342E}
    .fil1 {fill:#00000000}
    .fil0 {fill:#00000000}
    .fil7 {fill:#E0F2F1}
    .fil6 {fill:#EF5350}
    .fil4 {fill:#FFA726}
    .fil3 {fill:#FFB74D}
    .fil12 {fill:#FFD180}
   ]]>
  </style>
   <clipPath id="id0">
    <path d="M3.41333 -3.93701e-006c1.88513,0 3.41333,1.5282 3.41333,3.41333 0,1.88513 -1.5282,3.41333 -3.41333,3.41333 -1.88513,0 -3.41333,-1.5282 -3.41333,-3.41333 0,-1.88513 1.5282,-3.41333 3.41333,-3.41333z"/>
   </clipPath>
 </defs>
 <g id="Layer_x0020_1">
  <metadata id="CorelCorpID_0Corel-Layer"/>
  <path class="fil0" d="M3.41333 -3.93701e-006c1.88513,0 3.41333,1.5282 3.41333,3.41333 0,1.88513 -1.5282,3.41333 -3.41333,3.41333 -1.88513,0 -3.41333,-1.5282 -3.41333,-3.41333 0,-1.88513 1.5282,-3.41333 3.41333,-3.41333z"/>
  <g style="clip-path:url(#id0)">
   <g id="_637659664">
    <g>
     <polygon id="_4421175441" class="fil1" points="1.93983,2.75598 5.7261,6.54225 5.72053,6.54188 5.71502,6.54164 5.70956,6.54154 5.70414,6.54159 5.69875,6.5418 5.69337,6.54216 5.68798,6.54271 5.68259,6.54343 5.67716,6.54435 5.67169,6.54546 5.66616,6.54679 5.66056,6.54833 5.65488,6.55009 5.6491,6.55209 5.64321,6.55432 5.6372,6.55681 1.85093,2.77054 1.85694,2.76805 1.86283,2.76581 1.86861,2.76382 1.8743,2.76206 1.87989,2.76052 1.88542,2.75919 1.89089,2.75808 1.89632,2.75716 1.90172,2.75644 1.9071,2.75589 1.91248,2.75552 1.91787,2.75532 1.92329,2.75527 1.92875,2.75537 1.93426,2.75561 "/>
     <polygon id="_442117424" class="fil1" points="4.57726,3.54604 8.36353,7.33231 8.37967,7.35025 8.39415,7.36762 8.40684,7.38437 8.41767,7.40046 8.42653,7.41586 4.64026,3.62959 4.6314,3.61419 4.62057,3.59809 4.60788,3.58135 4.59341,3.56398 "/>
     <polygon id="_442118096" class="fil1" points="4.64026,3.62959 8.42653,7.41586 8.44905,7.45902 4.66278,3.67275 "/>
     <polygon id="_442119032" class="fil1" points="4.66278,3.67275 8.44905,7.45902 8.44424,7.45985 8.43942,7.46066 8.43456,7.46145 8.42969,7.46222 8.42478,7.46298 8.41985,7.46371 8.41491,7.46443 8.40994,7.46513 8.40494,7.4658 8.39993,7.46646 8.39489,7.4671 8.38982,7.46772 8.38474,7.46833 8.37964,7.46891 8.37452,7.46948 8.36937,7.47002 8.3642,7.47055 8.35902,7.47106 8.35381,7.47156 8.34859,7.47203 8.34334,7.47248 8.33808,7.47292 8.3328,7.47333 8.3275,7.47374 8.32218,7.47411 8.31685,7.47448 8.31149,7.47482 8.30612,7.47515 8.30073,7.47546 8.29533,7.47575 8.28991,7.47602 8.28447,7.47627 4.4982,3.69 4.50364,3.68975 4.50906,3.68948 4.51446,3.68919 4.51985,3.68888 4.52522,3.68855 4.53058,3.6882 4.53591,3.68784 4.54123,3.68746 4.54653,3.68706 4.55181,3.68665 4.55707,3.68621 4.56232,3.68576 4.56754,3.68528 4.57275,3.68479 4.57794,3.68428 4.5831,3.68375 4.58825,3.6832 4.59337,3.68264 4.59847,3.68206 4.60356,3.68145 4.60862,3.68083 4.61366,3.68019 4.61867,3.67953 4.62367,3.67885 4.62864,3.67816 4.63359,3.67744 4.63852,3.6767 4.64342,3.67595 4.6483,3.67518 4.65315,3.67439 4.65798,3.67358 "/>
     <polygon id="_442119296" class="fil1" points="4.4982,3.69 8.28447,7.47627 8.26626,7.47698 8.24789,7.4775 8.22936,7.47781 8.21069,7.47793 8.19189,7.47785 8.17297,7.47758 8.15393,7.47711 8.1348,7.47645 8.11557,7.4756 8.09626,7.47455 8.07688,7.47331 8.05744,7.47189 8.03796,7.47028 8.01844,7.46848 7.99889,7.46649 7.97933,7.46432 7.95976,7.46196 7.94019,7.45942 7.92065,7.4567 7.90112,7.4538 7.88163,7.45071 7.86219,7.44745 7.84281,7.44401 7.8235,7.4404 7.80426,7.4366 7.78511,7.43264 7.76606,7.4285 7.74713,7.42418 7.72831,7.41969 7.70963,7.41504 7.69109,7.41021 7.6727,7.40522 3.88643,3.61894 3.90482,3.62394 3.92336,3.62877 3.94204,3.63342 3.96086,3.63791 3.9798,3.64222 3.99884,3.64637 4.01799,3.65033 4.03723,3.65413 4.05654,3.65774 4.07593,3.66118 4.09537,3.66444 4.11485,3.66752 4.13438,3.67043 4.15393,3.67315 4.17349,3.67569 4.19306,3.67805 4.21263,3.68022 4.23217,3.6822 4.2517,3.684 4.27118,3.68562 4.29061,3.68704 4.30999,3.68828 4.3293,3.68933 4.34853,3.69018 4.36766,3.69084 4.3867,3.69131 4.40562,3.69158 4.42443,3.69166 4.44309,3.69154 4.46162,3.69123 4.48,3.69071 "/>
     <polygon id="_442118696" class="fil1" points="2.01016,2.30287 5.79643,6.08915 5.80126,6.09404 5.80596,6.09906 5.81053,6.10422 5.81497,6.10951 5.81929,6.11492 5.82348,6.12046 5.82755,6.12611 5.83149,6.13188 5.83532,6.13776 5.83903,6.14374 5.84262,6.14983 5.8461,6.15602 5.84947,6.1623 5.85273,6.16868 5.85588,6.17515 5.85893,6.1817 5.86187,6.18833 5.86472,6.19504 5.86746,6.20182 5.87011,6.20867 5.87265,6.21559 5.87511,6.22257 5.87748,6.22962 5.87975,6.23671 5.88194,6.24386 5.88404,6.25106 2.09777,2.46479 2.09567,2.45759 2.09348,2.45044 2.09121,2.44335 2.08884,2.4363 2.08639,2.42932 2.08384,2.4224 2.08119,2.41555 2.07845,2.40876 2.07561,2.40206 2.07266,2.39543 2.06961,2.38887 2.06646,2.38241 2.0632,2.37603 2.05983,2.36975 2.05635,2.36356 2.05276,2.35747 2.04905,2.35148 2.04522,2.34561 2.04128,2.33984 2.03721,2.33419 2.03302,2.32865 2.0287,2.32324 2.02426,2.31794 2.01969,2.31279 2.01499,2.30776 "/>
     <polygon id="_442119056" class="fil1" points="2.7494,3.56554 6.53567,7.35181 6.50971,7.33778 6.4891,7.32337 6.4735,7.3086 2.68723,3.52233 2.70283,3.5371 2.72344,3.5515 "/>
     <polygon id="_442118840" class="fil1" points="1.85093,2.77054 5.6372,6.55681 5.62112,6.56452 5.60609,6.57328 5.59207,6.58303 5.57901,6.59367 5.56689,6.60513 5.55566,6.61731 5.54528,6.63013 5.53572,6.6435 5.52694,6.65735 5.51889,6.67159 5.51155,6.68613 5.50487,6.70088 5.49881,6.71576 5.49334,6.7307 5.48842,6.74559 5.484,6.76037 5.48006,6.77494 5.47655,6.78921 5.47343,6.80311 5.47067,6.81655 5.46822,6.82944 5.46606,6.8417 5.46414,6.85325 5.46241,6.864 5.46086,6.87386 5.45943,6.88276 5.45808,6.89059 5.45679,6.89729 5.4555,6.90276 5.45419,6.90693 5.45281,6.9097 5.45133,6.911 1.66507,3.12472 1.66655,3.12343 1.66793,3.12066 1.66924,3.11649 1.67052,3.11102 1.67181,3.10432 1.67316,3.09648 1.67459,3.08759 1.67615,3.07773 1.67787,3.06698 1.67979,3.05543 1.68196,3.04317 1.6844,3.03028 1.68716,3.01684 1.69028,3.00294 1.69379,2.98867 1.69773,2.9741 1.70215,2.95932 1.70707,2.94443 1.71254,2.92949 1.7186,2.91461 1.72528,2.89985 1.73263,2.88531 1.74067,2.87108 1.74945,2.85723 1.75901,2.84386 1.76939,2.83104 1.78062,2.81886 1.79274,2.8074 1.8058,2.79676 1.81982,2.78701 1.83485,2.77824 "/>
     <polygon id="_442119176" class="fil1" points="3.27098,4.63237 7.05724,8.41864 7.05734,8.41919 7.05744,8.41974 7.05752,8.42029 7.0576,8.42084 7.05768,8.4214 7.05774,8.42196 7.05781,8.42252 7.05786,8.42309 3.27159,4.63681 3.27154,4.63625 3.27148,4.63569 3.27141,4.63513 3.27133,4.63457 3.27126,4.63402 3.27117,4.63346 3.27107,4.63291 "/>
     <polygon id="_442119224" class="fil1" points="3.20336,4.63079 6.98963,8.41706 6.99238,8.42175 6.99576,8.42598 6.99968,8.42968 3.21341,4.64341 3.20949,4.6397 3.20611,4.63548 "/>
     <polygon id="_442119368" class="fil1" points="3.23114,4.67654 7.01741,8.46281 7.01472,8.46213 7.01215,8.46098 7.0097,8.45942 7.00737,8.45748 3.2211,4.6712 3.22343,4.67315 3.22588,4.67471 3.22845,4.67585 "/>
     <polygon id="_442118648" class="fil1" points="2.52204,4.18651 6.30831,7.97278 6.30867,7.9798 6.31028,7.9865 6.31302,7.99273 6.31681,7.99835 6.32153,8.00323 2.53526,4.21696 2.53054,4.21208 2.52675,4.20646 2.52401,4.20022 2.52241,4.19353 "/>
     <polygon id="_442118768" class="fil1" points="2.78199,4.30365 6.56826,8.08992 6.57012,8.09657 6.57308,8.10266 6.57703,8.10807 6.58184,8.1127 2.79557,4.32643 2.79076,4.3218 2.78681,4.31639 2.78385,4.3103 "/>
     <polygon id="_442118864" class="fil1" points="2.70593,4.29941 6.4922,8.08568 6.49225,8.08602 6.4923,8.08635 6.49234,8.08669 6.49238,8.08702 6.49242,8.08735 6.49246,8.08769 6.49249,8.08803 6.49252,8.08837 2.70626,4.3021 2.70622,4.30176 2.70619,4.30142 2.70615,4.30108 2.70611,4.30075 2.70607,4.30041 2.70603,4.30008 2.70598,4.29974 "/>
     <polygon id="_442119800" class="fil1" points="2.59138,4.21012 6.37765,7.99639 6.37417,8.0016 6.36998,8.00791 6.36522,8.01473 6.36001,8.02148 6.35449,8.02756 6.3488,8.03237 6.34305,8.03533 6.33739,8.03585 2.55112,4.24957 2.55678,4.24906 2.56253,4.2461 2.56822,4.24129 2.57374,4.23521 2.57895,4.22846 2.58371,4.22164 2.5879,4.21533 "/>
     <polygon id="_442119920" class="fil1" points="2.63667,4.28106 6.42293,8.06733 6.42419,8.07396 6.42655,8.08016 6.42991,8.08581 6.43416,8.09079 2.64789,4.30452 2.64364,4.29954 2.64028,4.29389 2.63792,4.28769 "/>
     <polygon id="_442120136" class="fil1" points="2.85149,4.3208 6.63776,8.10707 6.6343,8.11223 6.63011,8.11855 6.62533,8.12542 6.6201,8.13223 6.61454,8.13838 6.6088,8.14326 6.60301,8.14627 6.5973,8.1468 2.81104,4.36053 2.81674,4.36 2.82254,4.35699 2.82828,4.35211 2.83383,4.34596 2.83906,4.33915 2.84384,4.33228 2.84803,4.32596 "/>
     <polygon id="_442119968" class="fil1" points="2.70626,4.3021 6.49252,8.08837 6.48906,8.09353 6.48488,8.09985 6.4801,8.10672 6.47487,8.11353 6.46931,8.11968 6.46357,8.12456 6.45778,8.12757 6.45207,8.1281 2.6658,4.34183 2.67151,4.3413 2.6773,4.33829 2.68304,4.33341 2.6886,4.32726 2.69383,4.32044 2.69861,4.31357 2.7028,4.30726 "/>
     <polygon id="_442119656" class="fil1" points="2.09777,2.46479 5.88404,6.25106 5.88441,6.25236 5.88478,6.25367 5.88514,6.25498 5.88551,6.25628 5.88587,6.25759 5.88622,6.25891 5.88658,6.26022 5.88693,6.26153 2.10066,2.47526 2.10031,2.47394 2.09996,2.47263 2.0996,2.47132 2.09924,2.47001 2.09887,2.4687 2.09851,2.4674 2.09814,2.46609 "/>
     <polygon id="_442120016" class="fil1" points="2.81104,4.36053 6.5973,8.1468 6.59411,8.14593 6.59108,8.14441 6.58822,8.14232 2.80195,4.35605 2.80481,4.35814 2.80784,4.35965 "/>
     <polygon id="_442119632" class="fil1" points="2.85117,4.3181 6.63743,8.10437 6.63748,8.10471 6.63753,8.10504 6.63757,8.10538 6.63761,8.10572 6.63765,8.10606 6.63769,8.10639 6.63772,8.10673 6.63776,8.10707 2.85149,4.3208 2.85146,4.32046 2.85142,4.32012 2.85139,4.31978 2.85134,4.31944 2.8513,4.31911 2.85126,4.31877 2.85121,4.31844 "/>
     <polygon id="_442119392" class="fil1" points="3.03243,4.57046 6.8187,8.35673 6.81877,8.35715 6.81883,8.35757 6.81889,8.35799 6.81894,8.35842 6.819,8.35885 6.81905,8.35927 6.81909,8.3597 6.81913,8.36013 3.03287,4.57386 3.03282,4.57343 3.03278,4.573 3.03273,4.57257 3.03268,4.57215 3.03262,4.57172 3.03256,4.5713 3.0325,4.57088 "/>
     <polygon id="_442119704" class="fil1" points="2.81598,4.45003 6.60225,8.2363 6.60415,8.24118 6.60667,8.24574 6.60979,8.2499 6.61344,8.25362 2.82718,4.46735 2.82352,4.46363 2.82041,4.45946 2.81788,4.45491 "/>
     <polygon id="_442120112" class="fil1" points="2.879,4.46621 6.66527,8.25248 6.66166,8.25786 6.65769,8.26347 6.65343,8.26899 6.64896,8.27409 6.64434,8.27846 6.63965,8.28178 6.63496,8.2837 6.63034,8.28392 2.84407,4.49765 2.84869,4.49743 2.85338,4.4955 2.85807,4.49219 2.86269,4.48782 2.86717,4.48272 2.87143,4.4772 2.87539,4.47159 "/>
     <polygon id="_442120568" class="fil1" points="2.99241,4.61359 6.77868,8.39986 6.77372,8.39819 6.76918,8.39501 2.98291,4.60874 2.98745,4.61191 "/>
     <polygon id="_442120832" class="fil1" points="2.9653,4.57139 6.75156,8.35767 6.75407,8.36154 6.75703,8.36508 6.76039,8.36824 2.97412,4.58197 2.97076,4.57881 2.96781,4.57527 "/>
     <polygon id="_442120256" class="fil1" points="2.6658,4.34183 6.45207,8.1281 6.44868,8.12715 6.44548,8.12548 6.44246,8.12316 2.6562,4.33689 2.65921,4.3392 2.66241,4.34088 "/>
     <polygon id="_442120328" class="fil1" points="3.03287,4.57386 6.81913,8.36013 6.81567,8.36529 6.81149,8.37161 6.80671,8.37848 6.80148,8.38529 6.79592,8.39144 6.79018,8.39632 6.78439,8.39933 6.77868,8.39986 2.99241,4.61359 2.99812,4.61306 3.00391,4.61005 3.00965,4.60517 3.01521,4.59902 3.02044,4.5922 3.02522,4.58533 3.02941,4.57902 "/>
     <polygon id="_442120352" class="fil1" points="2.84407,4.49765 6.63034,8.28392 6.62757,8.2832 6.62493,8.28201 6.62241,8.28037 6.62002,8.27831 2.83375,4.49204 2.83614,4.49409 2.83866,4.49574 2.8413,4.49693 "/>
     <polygon id="_442120664" class="fil1" points="2.55112,4.24957 6.33739,8.03585 6.33387,8.03485 6.33056,8.03307 6.32745,8.03061 2.54119,4.24434 2.54429,4.2468 2.5476,4.24857 "/>
     <polygon id="_442120688" class="fil1" points="3.27159,4.63681 7.05786,8.42309 7.0544,8.42825 7.05022,8.43456 7.04544,8.44143 7.0402,8.44824 7.03465,8.45439 7.02891,8.45928 7.02312,8.46228 7.01741,8.46281 3.23114,4.67654 3.23685,4.67601 3.24264,4.673 3.24838,4.66812 3.25394,4.66197 3.25917,4.65516 3.26395,4.64829 3.26813,4.64198 "/>
     <polygon id="_442120592" class="fil1" points="1.66507,3.12472 5.45133,6.911 5.4507,6.91108 5.45005,6.91091 5.44937,6.91048 1.6631,3.12421 1.66378,3.12464 1.66444,3.12481 "/>
     <polygon id="_442120376" class="fil1" points="2.10066,2.47526 5.88693,6.26153 5.88791,6.26524 5.88887,6.26896 5.8898,6.27269 5.89072,6.27643 5.89161,6.28018 5.89249,6.28393 5.89335,6.28769 5.89418,6.29146 2.10791,2.50519 2.10708,2.50142 2.10622,2.49766 2.10535,2.49391 2.10445,2.49016 2.10354,2.48642 2.1026,2.48269 2.10164,2.47897 "/>
     <polygon id="_442120880" class="fil1" points="2.10791,2.50519 5.89418,6.29146 5.89567,6.29839 5.8971,6.30533 5.89846,6.31229 5.89977,6.31926 5.90102,6.32624 5.90222,6.33323 5.90336,6.34022 5.90445,6.34721 5.90549,6.3542 5.90648,6.36118 5.90742,6.36815 5.90831,6.37511 5.90917,6.38205 5.90998,6.38898 5.91074,6.39588 5.91147,6.40276 5.91216,6.40962 5.91282,6.41644 5.91344,6.42323 5.91402,6.42999 5.91458,6.4367 5.9151,6.44338 5.9156,6.45 5.91607,6.45659 5.91652,6.46311 5.91694,6.46959 5.91734,6.47601 5.91772,6.48237 5.91808,6.48866 5.91843,6.49489 5.91875,6.50105 5.91907,6.50714 2.1328,2.72087 2.13248,2.71478 2.13216,2.70862 2.13181,2.70239 2.13145,2.69609 2.13107,2.68974 2.13067,2.68332 2.13025,2.67684 2.1298,2.67031 2.12933,2.66373 2.12883,2.65711 2.12831,2.65043 2.12776,2.64372 2.12717,2.63696 2.12655,2.63017 2.12589,2.62335 2.1252,2.61649 2.12448,2.60961 2.12371,2.6027 2.1229,2.59578 2.12205,2.58883 2.12115,2.58188 2.12021,2.57491 2.11922,2.56793 2.11818,2.56094 2.11709,2.55395 2.11595,2.54696 2.11476,2.53997 2.1135,2.53299 2.1122,2.52602 2.11083,2.51906 2.1094,2.51211 "/>
     <polygon id="_442120808" class="fil1" points="2.1328,2.72087 5.91907,6.50714 5.91767,6.50597 2.1314,2.7197 "/>
     <polygon id="_442121360" class="fil1" points="2.1314,2.7197 5.91767,6.50597 5.91516,6.50712 2.12889,2.72085 "/>
     <polygon id="_442121288" class="fil1" points="2.12889,2.72085 5.91516,6.50712 5.91163,6.50872 5.90794,6.51038 5.90407,6.51208 5.90005,6.51382 5.89588,6.51559 5.89158,6.51738 5.88715,6.51919 5.88259,6.521 5.87794,6.52282 5.87318,6.52463 5.86833,6.52641 5.8634,6.52818 5.8584,6.52992 5.85333,6.53161 5.84822,6.53327 5.84306,6.53487 5.83786,6.5364 5.83264,6.53787 5.82741,6.53926 5.82217,6.54056 5.81693,6.54178 5.8117,6.54289 5.8065,6.54389 5.80133,6.54478 5.79619,6.54555 5.79111,6.54619 5.78609,6.54669 5.78113,6.54704 5.77626,6.54724 5.77147,6.54728 5.76678,6.54715 5.76219,6.54684 1.97593,2.76057 1.98051,2.76088 1.9852,2.76101 1.98999,2.76097 1.99487,2.76077 1.99982,2.76042 2.00484,2.75992 2.00993,2.75928 2.01506,2.75851 2.02023,2.75762 2.02543,2.75661 2.03066,2.7555 2.0359,2.75429 2.04114,2.75298 2.04637,2.75159 2.05159,2.75013 2.05679,2.74859 2.06195,2.747 2.06706,2.74534 2.07213,2.74365 2.07713,2.74191 2.08206,2.74014 2.08691,2.73835 2.09167,2.73655 2.09633,2.73473 2.10088,2.73292 2.10531,2.73111 2.10961,2.72932 2.11378,2.72755 2.1178,2.72581 2.12167,2.72411 2.12537,2.72245 "/>
     <polygon id="_442121576" class="fil1" points="1.97593,2.76057 5.76219,6.54684 5.75742,6.54608 5.75273,6.54537 5.74812,6.54471 5.74359,6.5441 5.73913,6.54354 5.73473,6.54305 5.73039,6.54261 5.7261,6.54225 1.93983,2.75598 1.94412,2.75634 1.94846,2.75678 1.95286,2.75727 1.95732,2.75783 1.96185,2.75844 1.96646,2.7591 1.97115,2.75981 "/>
     <polygon id="_442121024" class="fil1" points="3.88643,3.61894 7.6727,7.40522 7.66228,7.40312 7.64693,7.40117 7.62695,7.39934 7.60269,7.39763 7.57448,7.39604 7.54266,7.39453 7.50755,7.39311 7.46948,7.39177 7.42881,7.39048 7.38584,7.38925 7.34092,7.38806 7.29438,7.38689 7.24655,7.38574 7.19777,7.38459 7.14836,7.38344 7.09867,7.38227 7.04902,7.38107 6.99974,7.37983 6.95117,7.37854 6.90365,7.37719 6.85749,7.37576 6.81305,7.37424 6.77064,7.37262 6.73061,7.3709 6.69328,7.36906 6.65899,7.36708 6.62807,7.36496 6.60085,7.36269 6.57767,7.36024 6.55885,7.35763 6.54474,7.35482 6.53567,7.35181 2.7494,3.56554 2.75848,3.56855 2.77259,3.57136 2.7914,3.57397 2.81458,3.57641 2.8418,3.57869 2.87272,3.58081 2.90701,3.58278 2.94434,3.58463 2.98437,3.58635 3.02678,3.58797 3.07122,3.58948 3.11738,3.59091 3.16491,3.59227 3.21347,3.59356 3.26275,3.5948 3.3124,3.596 3.36209,3.59717 3.4115,3.59832 3.46028,3.59947 3.50811,3.60062 3.55465,3.60178 3.59957,3.60298 3.64254,3.60421 3.68322,3.6055 3.72128,3.60684 3.75639,3.60826 3.78821,3.60976 3.81642,3.61136 3.84068,3.61307 3.86066,3.61489 3.87602,3.61685 "/>
     <polygon id="_442121432" class="fil1" points="3.35245,4.0952 7.13872,7.88148 7.14016,7.8817 3.35389,4.09543 "/>
     <polygon id="_442121456" class="fil1" points="3.39066,4.24085 7.17693,8.02713 7.17665,8.02719 3.39039,4.24092 "/>
    </g>
    <path id="_637659640" class="fil1" d="M3.39066 4.24085l-0.000271654 6.69291e-005c9.05512e-005,-2.3622e-005 0.000181102,-4.72441e-005 0.000271654,-6.69291e-005zm-0.0486063 -1.58665l0.00661811 0.00187402c0.0212598,0.00601181 0.0410512,0.0123228 0.0596614,0.0189646 0.149508,0.0533465 0.22261,0.12811 0.362654,0.24263 0.0262362,0.0214528 0.0563071,0.0447598 0.0891654,0.0694921 0.260646,0.196201 0.696429,0.482028 0.780114,0.642421l0.0225197 0.0431654c-0.051122,0.00894094 -0.106504,0.0146417 -0.164579,0.017248 -0.193311,0.00868504 -0.416476,-0.016878 -0.611776,-0.0710551 -0.0834961,-0.0231614 -1.06824,-0.0202205 -1.13703,-0.0534016 -0.306551,-0.147862 0.356591,-0.356102 0.142559,-0.672984 -0.0249055,-0.028185 -0.0138898,-0.0675945 -0.0115315,-0.0870118 0.00239764,-0.0197441 0.0164724,-0.0355827 0.0373031,-0.0487717 2.3622e-005,-1.5748e-005 5.11811e-005,-3.54331e-005 7.48031e-005,-5.11811e-005 2.3622e-005,-1.5748e-005 4.72441e-005,-3.14961e-005 7.48031e-005,-4.72441e-005 0.0213583,-0.0144055 0.0497126,-0.0247244 0.0804449,-0.0336535 0.0543583,-0.0167126 0.114413,-0.0288819 0.149472,-0.0443858 0.0749134,-0.0331299 0.14524,-0.0322874 0.194256,-0.0244331zm-0.138693 1.97659c0.00647638,0.0130709 0.0202008,0.0218189 0.0357205,0.0212126 0.0138228,-0.000543307 0.0256417,-0.00837008 0.0318976,-0.0196378 0.000271654,0.00145669 0.000476378,0.00294094 0.00061811,0.00444882 -0.0081378,0.0116811 -0.0254646,0.0421614 -0.0404528,0.0397244 -0.0146457,-0.00238189 -0.024374,-0.0257126 -0.0277835,-0.045748zm-0.238063 -0.0593976c0.00608268,0.0107402 0.0172362,0.0183465 0.0304685,0.0193307 0.0156378,0.00116535 0.0297756,-0.00724016 0.0366693,-0.0202677 0.000181102,0.00111811 0.000326772,0.00225591 0.000433071,0.00340157 -0.0081378,0.0116811 -0.0254646,0.0421654 -0.0404528,0.0397283 -0.0137835,-0.00224409 -0.0232126,-0.0230472 -0.0271181,-0.0421929zm-0.149311 -0.121366c0.00416142,0.0133937 0.0155709,0.0239921 0.0303583,0.0263976 0.0123543,0.00200787 0.0242913,-0.00214961 0.0326614,-0.0102165 -0.00908268,0.0137402 -0.0227756,0.0334173 -0.0349331,0.0314409 -0.0151024,-0.00245669 -0.0249764,-0.0271969 -0.0280866,-0.047622zm0.536465 -0.354823l0.00144094 0.000228346c-0.000480315,-7.48031e-005 -0.00096063,-0.000153543 -0.00144094,-0.000228346zm-0.570457 0.208445c0.00337008,0.0183819 0.0198228,0.0319724 0.0390394,0.0312165 0.0126142,-0.000496063 0.0235551,-0.00705512 0.0301339,-0.0167638 0.000129921,0.000889764 0.000240157,0.00179134 0.000322835,0.00269685 -0.0081378,0.0116811 -0.0254646,0.0421614 -0.0404528,0.0397283 -0.0174921,-0.00284646 -0.0279685,-0.0355748 -0.0290433,-0.056878zm-0.145327 -0.0225866c0.00179134,0.0181535 0.0164134,0.0329488 0.0352283,0.0343465 0.0138543,0.0010315 0.0265354,-0.00544882 0.0340394,-0.016 0.000129921,0.000889764 0.000240157,0.00178346 0.000322835,0.00268898 -0.0081378,0.0116811 -0.0254646,0.0421654 -0.0404528,0.0397283 -0.0185945,-0.00302362 -0.0292638,-0.0398228 -0.0291378,-0.0607638zm-0.114622 -0.0945551c-0.000783465,0.0190315 0.0127598,0.0360906 0.0320315,0.0392244 0.0148701,0.00241732 0.0291339,-0.00409843 0.0373031,-0.0156102 -0.00821654,0.011878 -0.0253898,0.0418701 -0.0402598,0.0394528 -0.0192953,-0.0031378 -0.0300591,-0.0426535 -0.0290748,-0.0630669zm-0.671114 -1.41597c-0.177197,0.076189 -0.16937,0.348571 -0.185862,0.354185 -0.00164961,0.000559055 -0.00353937,-0.00151575 -0.00588583,-0.00675984 -0.11563,-0.201323 -0.183197,-0.556319 0.0056063,-0.742303 0.0791535,-0.0779764 0.186205,-0.103921 0.296535,-0.0985906 0.00562992,0.000271654 0.0112677,0.000622047 0.0169094,0.00105512l7.87402e-006 -0.00151575c0.061311,0.0417283 0.097563,0.111169 0.119531,0.188177 0.000992126,0.00347638 0.00195669,0.0069685 0.00288976,0.0104724 0.00264173,0.00988189 0.00505118,0.0198701 0.00725197,0.0299291 0.0162205,0.0737795 0.0215945,0.151138 0.0248858,0.215677l-0.00139764 -0.00116929 -0.00250787 0.00115354c-0.0366457,0.0167835 -0.10465,0.0439567 -0.152969,0.0397205 -0.0128622,-0.00207874 -0.0247205,-0.0037126 -0.0360906,-0.00459055 -0.029937,-0.00231496 -0.0564685,0.000610236 -0.0889055,0.0145591z"/>
   </g>
  </g>
  <path class="fil2" d="M3.41333 -3.93701e-006c1.88513,0 3.41333,1.5282 3.41333,3.41333 0,1.88513 -1.5282,3.41333 -3.41333,3.41333 -1.88513,0 -3.41333,-1.5282 -3.41333,-3.41333 0,-1.88513 1.5282,-3.41333 3.41333,-3.41333z"/>
  <path class="fil3" d="M1.66507 3.12472c-0.00164961,0.000559055 -0.00353937,-0.00151575 -0.00588583,-0.00675984 -0.11563,-0.201323 -0.183197,-0.556319 0.0056063,-0.742303 0.0791535,-0.0779764 0.186205,-0.103921 0.296535,-0.0985906 0.00562992,0.000271654 0.0112677,0.000622047 0.0169094,0.00105512l7.87402e-006 -0.00151575c0.0640787,0.0436102 0.100787,0.117496 0.122421,0.19865 -0.239362,-0.00397244 -0.406606,0.0926693 -0.433504,0.354752 -0.00942126,0.0917913 -0.00712598,0.229858 -0.00209055,0.294713z"/>
  <path class="fil4" d="M2.1328 2.72087l-0.00139764 -0.00116929 -0.00250787 0.00115354c-0.0366457,0.0167835 -0.10465,0.0439567 -0.152969,0.0397205 -0.0128622,-0.00207874 -0.0247205,-0.0037126 -0.0360906,-0.00459055 -0.029937,-0.00231496 -0.0564685,0.000610236 -0.0889055,0.0145591 -0.177197,0.076189 -0.16937,0.348571 -0.185862,0.354185 -0.00503543,-0.0648543 -0.00733071,-0.202921 0.00209055,-0.294713 0.0268976,-0.262083 0.194142,-0.358724 0.433504,-0.354752 0.00263386,0.00988189 0.00504331,0.0198701 0.00725197,0.0299291 0.0162126,0.0737795 0.0215945,0.151138 0.0248858,0.215677z"/>
  <path class="fil4" d="M3.34205 2.6542l0.00661811 0.00187402c0.0212598,0.00601181 0.0410512,0.0123228 0.0596614,0.0189646 0.149508,0.0533465 0.22261,0.12811 0.362654,0.24263 0.23435,0.191638 0.775047,0.531299 0.86928,0.711913l0.0225197 0.0431654c-0.294031,0.0514331 -0.728992,-0.00442913 -1.00705,-0.138543 -0.306551,-0.147862 -0.549748,-0.324768 -0.76378,-0.64165 -0.0249055,-0.028185 -0.0138898,-0.0675945 -0.0115315,-0.0870118 0.00928346,-0.0764528 0.193626,-0.0942953 0.26737,-0.126909 0.0749134,-0.0331299 0.14524,-0.0322874 0.194256,-0.0244331z"/>
  <path class="fil5" d="M2.86813 2.28391c0.0752717,0.0788701 0.164563,0.176874 0.192161,0.208831 0.091374,0.105681 0.190575,0.13563 0.28176,0.161465 -0.0490157,-0.00785433 -0.119339,-0.00869685 -0.194256,0.0244331 -0.118921,0.0525945 -0.343618,0.0430315 -0.244185,0.223319 0.238697,0.341 0.482335,0.49837 0.750083,0.627512 0.24624,0.116102 0.543453,0.165614 0.840571,0.155248 0.0496929,0.0665118 0.160709,0.221232 0.217587,0.301965 0.172764,0.24524 0.345402,0.49513 0.56815,0.698343 -0.0705197,0.105272 -0.118437,0.186539 -0.266264,0.0912402 -0.17715,-0.1135 -0.308583,-0.264555 -0.430228,-0.404346 -0.17598,-0.20224 -0.330433,-0.37974 -0.566043,-0.36461 -0.137657,0.00884646 -0.198512,0.0748937 -0.241772,0.121854 -0.0480472,0.0521535 -0.0813346,0.0882677 -0.14635,0.0547992l-0.164055 0.0678504 -0.0237874 0.00179528 -0.0508425 -0.012752c-0.0889724,0.0208583 -0.166264,0.0428268 -0.225118,0.0786732 0.0337362,0.0288622 0.0575236,0.0640866 0.0742638,0.103362 0.0245984,0.0577205 0.0331339,0.123291 0.0359252,0.189472 0.000826772,0.0210669 -0.0155827,0.038815 -0.0366496,0.0396417 -0.0210669,0.000822835 -0.0388189,-0.0155866 -0.0396417,-0.0366535 -0.00245276,-0.0580709 -0.00961417,-0.114846 -0.0299409,-0.162539 -0.0138701,-0.0325433 -0.0343268,-0.0612441 -0.0644488,-0.0836142 -0.0379961,0.0428622 -0.0619724,0.10176 -0.0682953,0.186224 -0.00157087,0.0210669 -0.0199213,0.036874 -0.0409882,0.0353031 -0.0210669,-0.00156693 -0.036874,-0.0199213 -0.0353071,-0.0409843 0.00662598,-0.0884685 0.0298976,-0.15487 0.0668937,-0.20628 -0.00294882,0.000405512 -0.00598031,0.000905512 -0.0090748,0.00149606 -0.0164685,0.00314567 -0.0340669,0.00881496 -0.0509646,0.0168189 -0.0376496,0.0178268 -0.0711535,0.046626 -0.0771378,0.0830866 -0.00338583,0.0208189 -0.0230118,0.0349488 -0.0438307,0.031563 -0.0208189,-0.00338583 -0.0349488,-0.0230157 -0.031563,-0.0438307 0.010685,-0.0651181 0.0624291,-0.112713 0.119917,-0.139933 0.0228583,-0.0108189 0.0467598,-0.0185118 0.0692165,-0.0227992 0.0237283,-0.0045315 0.0465315,-0.00535039 0.065748,-0.00220079 0.00920079,0.00150787 0.0177441,0.00392126 0.0254646,0.00726772 0.00175591,-0.0013189 0.00352362,-0.00262992 0.00531102,-0.00392126 0.0479882,-0.0347087 0.105638,-0.0584724 0.170992,-0.0780039 -0.00335827,-0.0084685 -0.00345276,-0.0184213 -0.000629921,-0.029689 0.00524803,-0.0209213 0.0339016,-0.0415039 0.0708031,-0.0614213 0.00400394,-0.00215748 0.0081063,-0.00431496 0.0122874,-0.00646063 -0.0245906,-0.00388976 -0.0461181,-0.00827953 -0.0666378,-0.0124606 -0.0719606,-0.0146654 -0.130394,-0.0265748 -0.278598,0.000413386l-0.0253543 0.00461811 -0.013689 -0.0218189 -0.0118465 -0.0188858c-0.0533661,0.0132638 -0.100386,0.0278543 -0.13822,0.0487677 0.0384134,0.0400079 0.0380748,0.0889291 0.037626,0.150449 -0.000110236,0.0150827 -0.000224409,0.0311339 0.000515748,0.0487087 0.000822835,0.0210669 -0.0155866,0.038815 -0.0366535,0.0396417 -0.0210669,0.000826772 -0.038815,-0.0155866 -0.0396417,-0.0366535 -0.000759843,-0.018063 -0.000633858,-0.0355512 -0.000511811,-0.0519961 0.00030315,-0.0419055 0.00053937,-0.0749961 -0.0226417,-0.0998465 -0.025063,0.0316693 -0.0409055,0.0743228 -0.0453543,0.133736 -0.00156693,0.021063 -0.0199213,0.036874 -0.0409882,0.0353031 -0.0210669,-0.00156693 -0.036874,-0.0199213 -0.0353031,-0.0409882 0.00461417,-0.0616654 0.0193583,-0.110047 0.0426772,-0.148839 -0.00841339,0.00238583 -0.0170551,0.00560236 -0.0255236,0.00961024 -0.0273622,0.0129567 -0.0516535,0.0334961 -0.0558346,0.0589764 -0.00338976,0.0208189 -0.0230157,0.0349488 -0.0438346,0.031563 -0.020815,-0.00338583 -0.0349488,-0.0230157 -0.031563,-0.0438307 0.00888583,-0.0541339 0.0514213,-0.0934764 0.098622,-0.115823 0.0184843,-0.00875197 0.0379567,-0.015 0.0563622,-0.0185079 0.0194724,-0.00371654 0.0382913,-0.00437402 0.0542559,-0.00175591 0.00615354,0.00100787 0.0119764,0.00249213 0.0174134,0.00446457l0.000527559 -0.000385827c0.0455591,-0.0329528 0.101606,-0.0534803 0.165732,-0.0706063 -0.00392913,-0.0095 -0.00425197,-0.0196024 -0.00124409,-0.0302283 0.00545669,-0.0192874 0.0241969,-0.0353386 0.052063,-0.0480709 0.0201024,-0.00918504 0.0461693,-0.0180236 0.0753622,-0.0259685 0.0751969,-0.0204646 0.177063,-0.0361339 0.25624,-0.0376299 -0.112945,-0.0304409 -0.285386,-0.0975039 -0.382665,-0.17078 -0.0322874,-0.0243583 -0.0277205,-0.0209606 -0.0232047,-0.0175709 -0.12265,-0.0921614 -0.386118,-0.290362 -0.442382,-0.407909 -0.027878,-0.0580945 -0.0456969,-0.110933 -0.0626969,-0.161362 -0.0331732,-0.098378 -0.0630472,-0.18698 -0.16098,-0.277587 -0.0313228,-0.0289528 -0.0700315,-0.0619213 -0.0931181,-0.081315 -0.00389764,-0.0764567 -0.0107205,-0.170902 -0.0350197,-0.256083 -0.0219685,-0.0770079 -0.0582283,-0.146445 -0.119539,-0.188173 0.000370079,-0.0682795 0.0259488,-0.178472 0.156654,-0.233299 0.260248,-0.109173 0.555,0.0538465 0.733236,0.240598z"/>
  <path class="fil6" d="M2.35065 2.98059c-0.0257874,-0.0608031 -0.0607165,-0.119177 -0.124736,-0.178409 -0.0313228,-0.0289528 -0.0700315,-0.0619213 -0.0931181,-0.081315 -0.00389764,-0.0764567 -0.0107205,-0.170902 -0.0350197,-0.256083 -0.0219685,-0.0770079 -0.0582283,-0.146445 -0.119539,-0.188173 0.000370079,-0.0682795 0.0259488,-0.178472 0.156654,-0.233299 0.057063,-0.023937 0.115787,-0.0347795 0.174575,-0.0351693 0.13374,0.0241811 0.235287,0.140878 0.235972,0.281429 0.0795118,0.0736102 0.129307,0.17887 0.129307,0.295768 0,0.195559 -0.139303,0.358571 -0.324094,0.395252z"/>
  <path class="fil7" d="M2.37188 2.25537c0.0315039,0 0.0600315,0.0127756 0.0806811,0.0334252 0.0206496,0.0206496 0.0334252,0.0491811 0.0334252,0.080685 0,0.0315079 -0.0127756,0.0600354 -0.0334252,0.080685 -0.0206496,0.0206496 -0.0491772,0.0334213 -0.0806811,0.0334213 -0.0315079,0 -0.0600354,-0.0127756 -0.080685,-0.0334213 -0.0206496,-0.0206496 -0.0334252,-0.049185 -0.0334252,-0.080685 0,-0.0315039 0.0127756,-0.0600315 0.0334252,-0.0806811 0.0206496,-0.0206535 0.0491772,-0.0334291 0.080685,-0.0334291z"/>
  <path class="fil8" d="M2.39841 2.34295c-0.00677953,-0.00678346 -0.0161654,-0.0109843 -0.0265276,-0.0109843 -0.0103661,0 -0.019748,0.00420079 -0.0265315,0.0109843 -0.00678346,0.00678346 -0.0109843,0.0161693 -0.0109843,0.0265315 0,0.0103661 0.00420079,0.019752 0.0109843,0.0265315 0.00678346,0.00678346 0.0161654,0.0109843 0.0265315,0.0109843 0.0103622,0 0.019748,-0.00420079 0.0265276,-0.0109843 0.0067874,-0.00678346 0.0109882,-0.0161654 0.0109882,-0.0265315 0,-0.0103622 -0.00420079,-0.019748 -0.0109882,-0.0265315z"/>
  <path class="fil6" d="M2.90361 2.90196c0.0442638,0.0632362 0.0886969,0.120157 0.133425,0.171752 0.0144764,0.0167047 0.0289843,0.0328465 0.0435276,0.0484646 0.0605039,0.0571614 0.142539,0.100717 0.218528,0.104858 0.117882,0.00643307 0.113181,-0.0524724 0.0858819,-0.10348 0.0224961,0.0211929 0.257539,0.147378 0.228736,-0.0245236 0.0398307,0.0336575 0.158681,0.0432283 0.1565,-0.0444488 0.0207677,0.00987795 0.172724,0.0321142 0.0899409,-0.0674134 -0.0328583,-0.0247323 -0.0629331,-0.0480354 -0.0891654,-0.0694921 -0.140043,-0.11452 -0.213146,-0.189283 -0.362654,-0.24263 -0.0186102,-0.00664173 -0.0384016,-0.0129528 -0.0596614,-0.0189646l-0.00661811 -0.00187402c-0.0490157,-0.00785433 -0.119339,-0.00869685 -0.194256,0.0244331 -0.0428031,0.0189331 -0.099311,0.029811 -0.149472,0.0443858 -0.0304173,0.00935039 -0.0590472,0.020126 -0.0805197,0.0337008 -0.0405906,0.0274173 -0.0558858,0.0696339 -0.0141929,0.145232z"/>
  <path class="fil9" d="M3.88643 3.61894l0.543465 0.583902c0.0510945,0.0512559 0.101406,0.109071 0.153614,0.169071 0.121646,0.139791 0.253079,0.290846 0.430228,0.404346 0.147827,0.0952992 0.195744,0.0140315 0.266264,-0.0912402 -0.222748,-0.203213 -0.395386,-0.453102 -0.56815,-0.698343 -0.0554213,-0.0786614 -0.16224,-0.227575 -0.213646,-0.296681 -0.00135433,-0.0018189 -0.00266535,-0.00357874 -0.00394094,-0.00528346 -0.20989,0.00732283 -0.419823,-0.0152362 -0.611807,-0.0700394l0.00397244 0.00426772z"/>
  <path class="fil9" d="M3.61873 3.87724c-0.0592402,0.111492 -0.0906693,0.143996 -0.266283,0.217961 0.000480315,7.87402e-005 0.00096063,0.000153543 0.00144094,0.000228346 -0.0041811,0.00214567 -0.00828346,0.00430315 -0.0122874,0.00646063 -0.0369016,0.0199173 -0.0655551,0.0405 -0.0708031,0.0614213 -0.00282283,0.0112677 -0.00272835,0.0212205 0.000629921,0.029689 -0.000322835,9.44882e-005 -0.000645669,0.000192913 -0.000964567,0.000287402 0.0483031,0.0054252 0.0944134,0.00614173 0.119921,0.0476299 9.05512e-005,-2.3622e-005 0.000181102,-4.33071e-005 0.000271654,-6.69291e-005l0.0508425 0.012752 0.0237874 -0.00179528 0.164055 -0.0678504c0.0650157,0.0334685 0.0983031,-0.00264567 0.14635,-0.0547992 0.0432598,-0.0469606 0.104114,-0.113008 0.241772,-0.121854 0.00405118,-0.000259843 0.00807874,-0.000464567 0.0120866,-0.000610236 -0.0149094,-0.00363386 -0.053815,-0.0104449 -0.150902,-0.0172598 -0.142114,-0.00997244 -0.259917,-0.112193 -0.259917,-0.112193z"/>
  <path class="fil10" d="M3.27046 4.19329c-0.0649567,0.0194803 -0.12228,0.0431772 -0.170028,0.0777165l-0.00531102 0.00392126c-0.00772047,-0.00334646 -0.0162638,-0.00575984 -0.0254646,-0.00726772 -0.0192165,-0.00314961 -0.0420197,-0.00233071 -0.065748,0.00220079 -0.0224567,0.0042874 -0.0463583,0.0119803 -0.0692165,0.0227992 -0.0574882,0.0272205 -0.109232,0.074815 -0.119917,0.139933 -0.00338583,0.020815 0.0107441,0.0404449 0.031563,0.0438307 0.0208189,0.00338583 0.0404449,-0.0107441 0.0438307,-0.031563 0.00598425,-0.0364606 0.0394882,-0.0652598 0.0771378,-0.0830866 0.0168976,-0.00800394 0.0344961,-0.0136732 0.0509646,-0.0168189 0.00309449,-0.000590551 0.00612598,-0.00109055 0.0090748,-0.00149606 -0.0369961,0.0514094 -0.0602677,0.117811 -0.0668937,0.20628 -0.00156693,0.021063 0.0142402,0.0394173 0.0353071,0.0409843 0.0210669,0.00157087 0.0394173,-0.0142362 0.0409882,-0.0353031 0.00632283,-0.0844646 0.0302992,-0.143362 0.0682953,-0.186224 0.030122,0.0223701 0.0505787,0.0510709 0.0644488,0.0836142 0.0203268,0.0476929 0.0274882,0.104469 0.0299409,0.162539 0.000822835,0.0210669 0.0185748,0.0374764 0.0396417,0.0366535 0.0210669,-0.000826772 0.0374764,-0.0185748 0.0366496,-0.0396417 -0.00279134,-0.0661811 -0.0113268,-0.131752 -0.0359252,-0.189472 -0.0167402,-0.0392756 -0.0405276,-0.0745 -0.0742638,-0.103362 0.0587953,-0.035811 0.135984,-0.0577677 0.224846,-0.0786063 -0.0255079,-0.0414882 -0.0716181,-0.0422047 -0.119921,-0.0476299z"/>
  <path class="fil11" d="M2.913 3.97135l0.0442087 0.0760906c0.000185039,-4.72441e-005 0.000370079,-9.44882e-005 0.000555118,-0.000141732l0.0118465 0.0188858 0.013689 0.0218189 0.0253543 -0.00461811c0.148205,-0.0269882 0.206638,-0.0150787 0.278598,-0.000413386 0.0201181,0.00409843 0.0412047,0.00839764 0.0651969,0.0122323 0.174382,-0.0734488 0.206598,-0.106008 0.265039,-0.215626 -0.0419488,0.00564567 -0.216803,-0.000850394 -0.320898,-0.0421654 -0.0789961,0.00164173 -0.180185,0.017252 -0.254984,0.0376063 -0.0291929,0.00794488 -0.0552598,0.0167835 -0.0753622,0.0259685 -0.0278661,0.0127323 -0.0466063,0.0287835 -0.052063,0.0480709 -0.00218504,0.00771654 -0.00261417,0.0151575 -0.0011811,0.0222913z"/>
  <path class="fil10" d="M2.62113 4.06608c-0.0472008,0.0223465 -0.0897362,0.061689 -0.098622,0.115823 -0.00338583,0.020815 0.010748,0.0404449 0.031563,0.0438307 0.0208189,0.00338583 0.0404449,-0.0107441 0.0438346,-0.031563 0.0041811,-0.0254803 0.0284724,-0.0460197 0.0558346,-0.0589764 0.0084685,-0.00400787 0.0171102,-0.00722441 0.0255236,-0.00961024 -0.0233189,0.0387913 -0.038063,0.0871732 -0.0426772,0.148839 -0.00157087,0.0210669 0.0142362,0.0394213 0.0353031,0.0409882 0.0210669,0.00157087 0.0394213,-0.0142402 0.0409882,-0.0353031 0.00444882,-0.0594134 0.0202913,-0.102067 0.0453543,-0.133736 0.0231811,0.0248504 0.0229449,0.0579409 0.0226417,0.0998465 -0.000122047,0.0164449 -0.000248031,0.0339331 0.000511811,0.0519961 0.000826772,0.0210669 0.0185748,0.0374803 0.0396417,0.0366535 0.0210669,-0.000826772 0.0374764,-0.0185748 0.0366535,-0.0396417 -0.000740157,-0.0175748 -0.000625984,-0.033626 -0.000515748,-0.0487087 0.000448819,-0.0615197 0.000787402,-0.110441 -0.037626,-0.150449 0.0377008,-0.0208386 0.0845315,-0.0354016 0.137665,-0.048626l-0.0442087 -0.0760906c0.000543307,0.00268898 0.00135039,0.00533465 0.0024252,0.00793701 -0.064126,0.017126 -0.120173,0.0376535 -0.165732,0.0706063l-0.000527559 0.000385827c-0.00543701,-0.00197244 -0.0112598,-0.00345669 -0.0174134,-0.00446457 -0.0159646,-0.00261811 -0.0347835,-0.00196063 -0.0542559,0.00175591 -0.0184055,0.00350787 -0.037878,0.00975591 -0.0563622,0.0185079z"/>
  <path class="fil12" d="M2.52217 4.18466c-0.00177165,0.0197677 0.00905118,0.0616811 0.0289488,0.0649173 0.0149882,0.00243701 0.032315,-0.0280472 0.0404528,-0.0397283 -0.00210236,-0.022563 -0.0190591,-0.0401496 -0.0396732,-0.0401496 -0.011811,0 -0.0224252,0.00577953 -0.0297283,0.0149606z"/>
  <path class="fil12" d="M2.63685 4.27691c-0.00177165,0.0197677 0.00905118,0.0616811 0.0289488,0.0649173 0.0149882,0.00243701 0.032315,-0.0280472 0.0404528,-0.0397283 -0.00209843,-0.022563 -0.0190591,-0.0401496 -0.0396693,-0.0401496 -0.011815,0 -0.0224252,0.00577953 -0.0297323,0.0149606z"/>
  <path class="fil12" d="M2.78209 4.29561c-0.00177165,0.0197677 0.00905118,0.0616772 0.0289488,0.0649173 0.0149882,0.00243307 0.032315,-0.0280472 0.0404528,-0.0397283 -0.00210236,-0.0225669 -0.0190591,-0.0401535 -0.0396693,-0.0401535 -0.011815,0 -0.0224291,0.00578346 -0.0297323,0.0149646z"/>
  <path class="fil12" d="M2.81512 4.43273c-0.00177165,0.0197677 0.00905118,0.0616811 0.0289488,0.0649173 0.0149882,0.00243701 0.032315,-0.0280472 0.0404528,-0.0397283 -0.00210236,-0.022563 -0.0190591,-0.0401496 -0.0396693,-0.0401496 -0.011815,0 -0.0224291,0.00577953 -0.0297323,0.0149606z"/>
  <path class="fil12" d="M2.96346 4.54867c-0.00177165,0.0197677 0.00905118,0.0616772 0.0289488,0.0649173 0.0149882,0.00243701 0.032315,-0.0280472 0.0404528,-0.0397283 -0.00209843,-0.022563 -0.0190591,-0.0401496 -0.0396693,-0.0401496 -0.011815,0 -0.0224252,0.00577953 -0.0297323,0.0149606z"/>
  <path class="fil12" d="M3.20219 4.61163c-0.00177165,0.0197677 0.00905118,0.0616772 0.0289488,0.0649134 0.0149882,0.00243701 0.032315,-0.0280433 0.0404528,-0.0397244 -0.00210236,-0.0225669 -0.0190591,-0.0401535 -0.0396732,-0.0401535 -0.011811,0 -0.0224252,0.00578346 -0.0297283,0.0149646z"/>
 </g>
</svg>
