<?xml version="1.0" encoding="UTF-8"?>
<!DOCTYPE svg PUBLIC "-//W3C//DTD SVG 1.1//EN" "http://www.w3.org/Graphics/SVG/1.1/DTD/svg11.dtd">
<!-- Creator: CorelDRAW -->
<svg xmlns="http://www.w3.org/2000/svg" xml:space="preserve" width="6.82666in" height="6.82666in" style="shape-rendering:geometricPrecision; text-rendering:geometricPrecision; image-rendering:optimizeQuality; fill-rule:evenodd; clip-rule:evenodd"
viewBox="0 0 6.82666 6.82666"
 xmlns:xlink="http://www.w3.org/1999/xlink">
 <defs>
  <style type="text/css">
   <![CDATA[
    .fil2 {fill:none}
    .fil1 {fill:#00000000}
    .fil6 {fill:#3E2723}
    .fil4 {fill:#4E342E}
    .fil0 {fill:#00000000}
    .fil5 {fill:#8D6E63}
    .fil10 {fill:#ADA895}
    .fil8 {fill:#ADADAD}
    .fil11 {fill:#B7B0A2}
    .fil12 {fill:#C8C0B0}
    .fil13 {fill:#E3E1D7}
    .fil7 {fill:#E9E9E8}
    .fil9 {fill:#FFFFFE}
    .fil3 {fill:#424242;fill-rule:nonzero}
   ]]>
  </style>
   <clipPath id="id0">
    <path d="M3.41333 -3.93701e-006c1.88513,0 3.41333,1.5282 3.41333,3.41333 0,1.88513 -1.5282,3.41333 -3.41333,3.41333 -1.88513,0 -3.41333,-1.5282 -3.41333,-3.41333 0,-1.88513 1.5282,-3.41333 3.41333,-3.41333z"/>
   </clipPath>
 </defs>
 <g id="Layer_x0020_1">
  <metadata id="CorelCorpID_0Corel-Layer"/>
  <path class="fil0" d="M3.41333 -3.93701e-006c1.88513,0 3.41333,1.5282 3.41333,3.41333 0,1.88513 -1.5282,3.41333 -3.41333,3.41333 -1.88513,0 -3.41333,-1.5282 -3.41333,-3.41333 0,-1.88513 1.5282,-3.41333 3.41333,-3.41333z"/>
  <g style="clip-path:url(#id0)">
   <g id="_637658128">
    <g>
     <polygon id="_4421357361" class="fil1" points="5.12702,2.68246 8.91329,6.46874 8.92099,6.47794 8.92847,6.4873 8.93574,6.4968 8.94279,6.50645 8.94963,6.51623 8.95625,6.52614 8.96267,6.53619 8.96888,6.54635 8.97487,6.55663 8.98067,6.56704 8.98625,6.57755 8.99163,6.58817 8.9968,6.59889 9.00177,6.6097 9.00654,6.62062 9.01111,6.63162 9.01547,6.64271 9.01964,6.65388 9.0236,6.66513 9.02737,6.67644 9.03095,6.68783 9.03433,6.69928 9.03751,6.7108 9.0405,6.72236 9.0433,6.73398 9.04591,6.74565 9.04832,6.75735 9.05055,6.7691 9.05259,6.78088 9.05444,6.79269 9.05611,6.80452 5.26984,3.01825 5.26817,3.00641 5.26632,2.99461 5.26428,2.98283 5.26206,2.97108 5.25964,2.95937 5.25703,2.94771 5.25423,2.93609 5.25124,2.92452 5.24806,2.91301 5.24468,2.90156 5.24111,2.89017 5.23733,2.87885 5.23337,2.86761 5.2292,2.85644 5.22484,2.84535 5.22027,2.83435 5.2155,2.82343 5.21054,2.81261 5.20536,2.80189 5.19998,2.79128 5.1944,2.78076 5.18861,2.77036 5.18261,2.76008 5.1764,2.74991 5.16998,2.73987 5.16336,2.72996 5.15652,2.72018 5.14947,2.71053 5.1422,2.70103 5.13472,2.69167 "/>
     <polygon id="_442135760" class="fil1" points="5.26984,3.01825 9.05611,6.80452 9.05685,6.81014 9.05757,6.81578 9.05829,6.82144 9.05899,6.82713 9.05967,6.83284 9.06033,6.83856 9.06097,6.84431 9.06159,6.85007 9.06217,6.85584 9.06273,6.86162 9.06326,6.86742 9.06375,6.87322 9.0642,6.87904 9.06462,6.88485 9.06499,6.89068 9.06533,6.8965 9.06561,6.90233 9.06585,6.90815 9.06604,6.91398 9.06617,6.9198 9.06624,6.92561 9.06626,6.93141 9.06622,6.93721 9.06612,6.943 9.06596,6.94878 9.06572,6.95454 9.06542,6.96029 9.06504,6.96602 9.06459,6.97173 9.06406,6.97743 9.06346,6.98309 9.06277,6.98874 5.2765,3.20247 5.27719,3.19682 5.2778,3.19115 5.27832,3.18546 5.27877,3.17975 5.27915,3.17402 5.27945,3.16827 5.27969,3.16251 5.27985,3.15673 5.27996,3.15094 5.28,3.14514 5.27998,3.13933 5.2799,3.13352 5.27977,3.1277 5.27958,3.12188 5.27934,3.11606 5.27906,3.11023 5.27872,3.10441 5.27835,3.09858 5.27794,3.09276 5.27748,3.08695 5.27699,3.08115 5.27646,3.07535 5.27591,3.06957 5.27532,3.0638 5.2747,3.05804 5.27406,3.05229 5.2734,3.04657 5.27272,3.04086 5.27202,3.03517 5.27131,3.0295 5.27058,3.02387 "/>
     <polygon id="_442137440" class="fil1" points="5.2765,3.20247 9.06277,6.98874 9.06143,6.99654 9.05956,7.00344 9.05719,7.00949 9.05435,7.0147 9.05107,7.0191 9.04737,7.02272 9.0433,7.02559 9.03888,7.02772 9.03413,7.02915 9.02909,7.02991 9.0238,7.03002 9.01826,7.0295 9.01253,7.02839 9.00663,7.0267 9.00057,7.02447 8.99441,7.02172 5.20814,3.23545 5.21431,3.2382 5.22036,3.24043 5.22626,3.24211 5.232,3.24323 5.23753,3.24374 5.24283,3.24364 5.24787,3.24288 5.25261,3.24145 5.25704,3.23931 5.26111,3.23645 5.2648,3.23283 5.26808,3.22843 5.27092,3.22322 5.27329,3.21717 5.27516,3.21027 "/>
     <polygon id="_442137464" class="fil1" points="5.20814,3.23545 8.99441,7.02172 8.99534,7.02289 8.99629,7.02405 8.99724,7.02521 8.9982,7.02637 8.99917,7.02753 9.00015,7.02869 9.00115,7.02984 9.00215,7.03099 5.21588,3.24472 5.21488,3.24357 5.21389,3.24242 5.21291,3.24126 5.21193,3.2401 5.21097,3.23894 5.21002,3.23778 5.20907,3.23661 "/>
     <polygon id="_442137416" class="fil1" points="5.21588,3.24472 9.00215,7.03099 9.00087,7.03054 8.99959,7.03006 8.99832,7.02957 8.99706,7.02906 8.99581,7.02852 8.99457,7.02797 8.99334,7.02741 8.99211,7.02682 5.20585,3.24055 5.20707,3.24113 5.2083,3.2417 5.20955,3.24225 5.2108,3.24278 5.21206,3.2433 5.21332,3.24379 5.2146,3.24427 "/>
     <polygon id="_442137296" class="fil1" points="5.20585,3.24055 8.99211,7.02682 8.99113,7.03129 8.99015,7.03575 8.98919,7.04022 8.98824,7.04469 8.98729,7.04915 8.98635,7.05361 8.98541,7.05807 8.98448,7.06254 8.98355,7.06699 8.98263,7.07145 8.9817,7.07591 8.98077,7.08035 8.97984,7.0848 8.97891,7.08925 8.97798,7.09369 8.97703,7.09813 8.97609,7.10257 8.97513,7.107 8.97416,7.11143 8.97319,7.11585 8.9722,7.12027 8.9712,7.12469 8.97019,7.12909 8.96916,7.1335 8.96811,7.13789 8.96705,7.14229 8.96597,7.14667 8.96487,7.15106 8.96375,7.15543 8.96261,7.1598 8.96144,7.16415 8.96025,7.16851 5.17398,3.38224 5.17517,3.37788 5.17634,3.37352 5.17748,3.36916 5.1786,3.36478 5.1797,3.3604 5.18078,3.35602 5.18185,3.35162 5.18289,3.34722 5.18392,3.34282 5.18493,3.33841 5.18593,3.334 5.18692,3.32958 5.18789,3.32516 5.18886,3.32073 5.18982,3.3163 5.19076,3.31186 5.19171,3.30742 5.19264,3.30298 5.19357,3.29853 5.1945,3.29408 5.19543,3.28963 5.19636,3.28518 5.19728,3.28072 5.19821,3.27626 5.19915,3.2718 5.20008,3.26734 5.20102,3.26288 5.20197,3.25841 5.20292,3.25394 5.20389,3.24948 5.20486,3.24502 "/>
     <polygon id="_442137536" class="fil1" points="5.17398,3.38224 8.96025,7.16851 8.96056,7.16894 8.96083,7.16939 8.96107,7.16985 8.96127,7.17033 8.96143,7.17083 8.96154,7.17133 8.96161,7.17185 8.96163,7.17236 5.17536,3.38609 5.17534,3.38557 5.17527,3.38506 5.17516,3.38456 5.175,3.38406 5.1748,3.38358 5.17456,3.38311 5.17429,3.38267 "/>
     <polygon id="_442137200" class="fil1" points="5.17536,3.38609 8.96163,7.17236 8.96116,7.18816 8.96017,7.20394 8.95869,7.21972 8.95676,7.23548 8.95444,7.25122 8.95176,7.26696 8.94877,7.28269 8.94551,7.29841 8.94202,7.31412 8.93836,7.32983 8.93455,7.34553 8.93065,7.36123 8.9267,7.37693 8.92274,7.39261 8.91881,7.40831 8.91497,7.424 8.91124,7.43969 8.90769,7.45538 8.90434,7.47107 8.90124,7.48678 8.89844,7.50248 8.89598,7.51819 8.8939,7.53391 8.89224,7.54963 8.89106,7.56536 8.89039,7.58111 8.89028,7.59686 8.89076,7.61263 8.89189,7.6284 8.8937,7.64419 8.89625,7.66 8.89957,7.67582 5.1133,3.88955 5.10998,3.87373 5.10744,3.85792 5.10562,3.84213 5.10449,3.82635 5.10401,3.81059 5.10412,3.79483 5.1048,3.77909 5.10598,3.76336 5.10763,3.74763 5.10971,3.73192 5.11217,3.71621 5.11497,3.7005 5.11807,3.6848 5.12142,3.66911 5.12498,3.65342 5.1287,3.63772 5.13255,3.62204 5.13647,3.60634 5.14043,3.59065 5.14439,3.57496 5.14828,3.55926 5.15209,3.54356 5.15576,3.52785 5.15924,3.51214 5.1625,3.49642 5.16549,3.48069 5.16817,3.46495 5.17049,3.4492 5.17242,3.43344 5.1739,3.41767 5.17489,3.40189 "/>
     <polygon id="_442137656" class="fil1" points="5.1133,3.88955 8.89957,7.67582 8.90142,7.68302 8.90353,7.69008 8.90589,7.69702 8.90848,7.70384 8.91128,7.71056 8.91428,7.71717 8.91745,7.7237 8.92078,7.73014 8.92426,7.73652 8.92785,7.74282 8.93156,7.74908 8.93535,7.75529 8.9392,7.76146 8.94312,7.76761 8.94706,7.77374 8.95103,7.77986 8.95499,7.78598 8.95893,7.79211 8.96283,7.79825 8.96669,7.80443 8.97047,7.81063 8.97415,7.81688 8.97774,7.82319 8.98119,7.82955 8.9845,7.83599 8.98765,7.84251 8.99062,7.84911 8.9934,7.85581 8.99596,7.86263 8.99828,7.86955 9.00036,7.8766 9.00217,7.88379 5.2159,4.09752 5.21409,4.09033 5.21202,4.08328 5.20969,4.07635 5.20713,4.06954 5.20435,4.06284 5.20139,4.05624 5.19824,4.04972 5.19493,4.04328 5.19147,4.03691 5.18789,4.03061 5.1842,4.02436 5.18042,4.01815 5.17657,4.01198 5.17266,4.00583 5.16872,3.99971 5.16476,3.99359 5.1608,3.98747 5.15685,3.98134 5.15294,3.97519 5.14908,3.96902 5.14529,3.96281 5.14159,3.95655 5.13799,3.95024 5.13452,3.94387 5.13119,3.93743 5.12801,3.9309 5.12502,3.92428 5.12221,3.91757 5.11962,3.91075 5.11726,3.90381 5.11515,3.89675 "/>
     <polygon id="_442137224" class="fil1" points="5.2159,4.09752 9.00217,7.88379 9.00345,7.89007 9.00443,7.89635 9.00509,7.90265 9.00548,7.90894 9.00558,7.91524 9.00543,7.92154 9.00502,7.92783 9.00438,7.93411 9.00352,7.94039 9.00244,7.94666 9.00117,7.95292 8.99971,7.95916 8.99808,7.96539 8.99629,7.9716 8.99435,7.9778 8.99228,7.98396 8.99008,7.99011 8.98778,7.99623 8.98538,8.00232 8.9829,8.00838 8.98035,8.01441 8.97774,8.02041 8.97508,8.02637 8.9724,8.03229 8.96969,8.03817 8.96698,8.044 8.96428,8.0498 8.96159,8.05554 8.95894,8.06124 8.95633,8.06689 8.95378,8.07248 8.9513,8.07802 5.16503,4.29175 5.16751,4.28621 5.17006,4.28061 5.17267,4.27497 5.17532,4.26927 5.17801,4.26352 5.18071,4.25773 5.18343,4.25189 5.18613,4.24602 5.18881,4.24009 5.19147,4.23413 5.19408,4.22814 5.19663,4.22211 5.19911,4.21605 5.20151,4.20996 5.20381,4.20384 5.20601,4.19769 5.20808,4.19152 5.21002,4.18533 5.21181,4.17912 5.21344,4.17289 5.2149,4.16665 5.21618,4.16039 5.21725,4.15412 5.21811,4.14784 5.21876,4.14156 5.21916,4.13526 5.21931,4.12897 5.21921,4.12267 5.21883,4.11637 5.21816,4.11008 5.21719,4.1038 "/>
     <polygon id="_442137728" class="fil1" points="5.16503,4.29175 8.9513,8.07802 8.94946,8.08219 8.94763,8.08637 8.94581,8.09057 8.944,8.0948 8.94222,8.09903 8.94046,8.10328 8.93873,8.10754 8.93703,8.11183 8.93536,8.11612 8.93372,8.12043 8.93213,8.12476 8.93058,8.1291 8.92908,8.13346 8.92763,8.13783 8.92623,8.14222 8.92489,8.14662 8.92361,8.15104 8.92239,8.15547 8.92124,8.15991 8.92017,8.16437 8.91917,8.16885 8.91824,8.17333 8.9174,8.17783 8.91664,8.18235 8.91597,8.18688 8.91539,8.19142 8.91491,8.19597 8.91452,8.20054 8.91424,8.20512 8.91406,8.20972 8.91399,8.21433 8.91403,8.21894 5.12776,4.43267 5.12772,4.42806 5.12779,4.42344 5.12797,4.41885 5.12825,4.41427 5.12864,4.4097 5.12912,4.40515 5.1297,4.40061 5.13037,4.39608 5.13113,4.39156 5.13197,4.38706 5.1329,4.38257 5.1339,4.3781 5.13498,4.37364 5.13613,4.3692 5.13734,4.36477 5.13862,4.36035 5.13996,4.35595 5.14136,4.35156 5.14281,4.34719 5.14431,4.34283 5.14586,4.33849 5.14746,4.33416 5.14909,4.32985 5.15076,4.32556 5.15246,4.32127 5.1542,4.31701 5.15596,4.31276 5.15774,4.30852 5.15954,4.3043 5.16136,4.3001 5.16319,4.29592 "/>
     <polygon id="_442137320" class="fil1" points="4.91736,4.26034 8.70363,8.04661 8.70199,8.04983 8.70039,8.05307 8.69884,8.0563 8.69733,8.05954 8.69589,8.06278 8.69451,8.06601 8.69321,8.06924 8.692,8.07245 8.69089,8.07565 8.68988,8.07883 8.68898,8.08198 8.68821,8.08511 8.68757,8.08822 8.68707,8.09129 8.68671,8.09432 8.68652,8.09731 4.90025,4.31104 4.90044,4.30805 4.9008,4.30502 4.9013,4.30194 4.90194,4.29884 4.90272,4.29571 4.90361,4.29256 4.90462,4.28938 4.90574,4.28618 4.90694,4.28296 4.90824,4.27974 4.90962,4.27651 4.91107,4.27327 4.91257,4.27003 4.91413,4.2668 4.91572,4.26356 "/>
     <polygon id="_442137392" class="fil1" points="2.80444,2.25597 6.59071,6.04224 6.59122,6.04304 6.59148,6.04393 6.59149,6.04485 6.59126,6.04574 6.5908,6.04653 6.59009,6.04716 6.58916,6.04756 2.80289,2.26129 2.80382,2.26089 2.80453,2.26026 2.805,2.25946 2.80522,2.25858 2.80521,2.25765 2.80495,2.25676 "/>
     <polygon id="_442137968" class="fil1" points="2.48672,2.02246 6.27298,5.80873 6.27731,5.81322 6.28156,5.81801 6.28574,5.82309 6.28986,5.82845 6.29392,5.83406 6.29791,5.83989 6.30183,5.84593 6.3057,5.85216 6.30952,5.85856 6.31327,5.8651 6.31697,5.87177 6.32062,5.87855 6.32422,5.88542 6.32777,5.89235 6.33127,5.89932 6.33473,5.90632 6.33814,5.91333 6.34151,5.92031 6.34485,5.92727 6.34814,5.93417 6.3514,5.94098 6.35462,5.9477 6.35781,5.95431 6.36097,5.96077 6.3641,5.96707 6.3672,5.9732 6.37028,5.97913 6.37333,5.98483 6.37636,5.9903 6.37937,5.9955 2.5931,2.20923 2.59009,2.20402 2.58706,2.19856 2.58401,2.19285 2.58093,2.18693 2.57783,2.1808 2.5747,2.1745 2.57154,2.16804 2.56835,2.16143 2.56513,2.15471 2.56187,2.14789 2.55858,2.141 2.55524,2.13404 2.55187,2.12706 2.54846,2.12005 2.545,2.11305 2.5415,2.10607 2.53795,2.09915 2.53435,2.09228 2.5307,2.0855 2.527,2.07883 2.52325,2.07228 2.51944,2.06589 2.51557,2.05966 2.51164,2.05361 2.50765,2.04778 2.50359,2.04218 2.49948,2.03682 2.49529,2.03174 2.49104,2.02694 "/>
     <polygon id="_442138136" class="fil1" points="2.80289,2.26129 6.58916,6.04756 6.58247,6.04955 6.57597,6.05195 6.56963,6.05474 6.56346,6.05789 6.55742,6.06134 6.55151,6.06509 6.54571,6.06907 6.54001,6.07327 6.5344,6.07765 6.52885,6.08216 6.52336,6.08678 6.5179,6.09148 6.51248,6.0962 6.50706,6.10094 6.50164,6.10563 6.4962,6.11026 2.70993,2.32398 2.71537,2.31936 2.72079,2.31467 2.72621,2.30993 2.73163,2.3052 2.73709,2.30051 2.74258,2.29589 2.74813,2.29137 2.75374,2.287 2.75944,2.2828 2.76524,2.27881 2.77115,2.27507 2.77719,2.27161 2.78337,2.26847 2.7897,2.26568 2.7962,2.26328 "/>
     <polygon id="_442138376" class="fil1" points="4.12061,3.92385 7.90688,7.71012 7.891,7.71566 7.87509,7.72105 7.85913,7.72628 7.84314,7.73135 7.82711,7.73624 7.81105,7.74096 7.79495,7.74549 7.77882,7.74983 7.76265,7.75398 7.74645,7.75793 7.73021,7.76166 7.71394,7.76518 7.69764,7.76848 7.68131,7.77155 7.66494,7.77439 7.64855,7.77698 7.63212,7.77933 7.61566,7.78142 7.59918,7.78326 7.58266,7.78482 7.56611,7.78611 7.54954,7.78713 7.53294,7.78786 7.51631,7.7883 7.49966,7.78844 7.48298,7.78827 7.46627,7.78779 7.44954,7.787 7.43279,7.78588 7.416,7.78443 7.3992,7.78265 7.38237,7.78052 3.59611,3.99425 3.61293,3.99637 3.62974,3.99816 3.64652,3.99961 3.66328,4.00073 3.68,4.00152 3.69671,4.002 3.71339,4.00217 3.73005,4.00202 3.74667,4.00159 3.76328,4.00086 3.77985,3.99984 3.79639,3.99855 3.81291,3.99698 3.82939,3.99515 3.84585,3.99306 3.86228,3.99071 3.87867,3.98811 3.89504,3.98528 3.91137,3.98221 3.92768,3.97891 3.94394,3.97539 3.96018,3.97165 3.97638,3.96771 3.99255,3.96356 4.00869,3.95922 4.02478,3.95469 4.04085,3.94997 4.05687,3.94507 4.07287,3.94001 4.08882,3.93478 4.10474,3.92939 "/>
     <polygon id="_442137824" class="fil1" points="4.90025,4.31104 8.68652,8.09731 8.6863,8.10252 8.68603,8.10773 8.68572,8.11294 8.68537,8.11815 8.68498,8.12335 8.68457,8.12856 8.68412,8.13376 8.68365,8.13895 4.89739,4.35268 4.89785,4.34748 4.8983,4.34228 4.89872,4.33708 4.8991,4.33188 4.89945,4.32667 4.89976,4.32146 4.90003,4.31625 "/>
     <polygon id="_442138448" class="fil1" points="4.31524,3.86313 8.10151,7.6494 8.0999,7.64814 8.09794,7.64728 8.09547,7.64684 4.3092,3.86057 4.31167,3.861 4.31363,3.86187 "/>
     <polygon id="_442138280" class="fil1" points="4.30129,3.8611 8.08756,7.64737 8.08252,7.64817 8.07751,7.64919 8.07251,7.6504 8.06755,7.65175 8.06261,7.6532 8.05771,7.65473 8.05285,7.65629 8.04804,7.65784 4.26178,3.87157 4.26659,3.87002 4.27144,3.86846 4.27634,3.86693 4.28128,3.86548 4.28624,3.86413 4.29124,3.86292 4.29626,3.8619 "/>
     <polygon id="_442138208" class="fil1" points="4.26178,3.87157 8.04804,7.65784 8.04358,7.65929 8.03912,7.66076 8.03467,7.66226 8.03023,7.66379 8.0258,7.66534 8.02136,7.66691 8.01694,7.6685 8.01252,7.67011 8.0081,7.67173 8.00369,7.67337 7.99928,7.67502 7.99488,7.67669 7.99048,7.67837 7.98608,7.68005 7.98169,7.68174 7.97729,7.68344 7.9729,7.68515 7.96851,7.68685 7.96411,7.68856 7.95972,7.69026 7.95533,7.69197 7.95094,7.69367 7.94655,7.69536 7.94215,7.69705 7.93775,7.69873 7.93335,7.7004 7.92895,7.70206 7.92455,7.7037 7.92014,7.70533 7.91572,7.70695 7.9113,7.70854 7.90688,7.71012 4.12061,3.92385 4.12504,3.92227 4.12946,3.92068 4.13387,3.91906 4.13828,3.91743 4.14269,3.91579 4.14709,3.91413 4.15148,3.91246 4.15588,3.91078 4.16028,3.90909 4.16467,3.9074 4.16906,3.9057 4.17346,3.90399 4.17785,3.90229 4.18224,3.90058 4.18663,3.89887 4.19102,3.89717 4.19542,3.89547 4.19981,3.89378 4.20421,3.89209 4.20861,3.89042 4.21302,3.88875 4.21743,3.8871 4.22183,3.88546 4.22625,3.88383 4.23067,3.88222 4.23509,3.88063 4.23953,3.87907 4.24396,3.87752 4.24841,3.87599 4.25285,3.87449 4.25731,3.87302 "/>
     <polygon id="_442137872" class="fil1" points="4.87046,4.48473 8.65672,8.271 8.65457,8.27648 8.6522,8.28198 8.64961,8.28746 8.6468,8.29287 8.64374,8.29814 8.64044,8.30323 8.63688,8.30809 8.63305,8.31267 8.62894,8.3169 8.62454,8.32074 8.61985,8.32415 8.61485,8.32705 8.60954,8.32941 8.60389,8.33117 8.59791,8.33229 8.59158,8.33269 4.80531,4.54642 4.81164,4.54602 4.81762,4.5449 4.82327,4.54314 4.82858,4.54078 4.83358,4.53787 4.83828,4.53447 4.84267,4.53063 4.84678,4.52639 4.85061,4.52182 4.85417,4.51696 4.85747,4.51187 4.86053,4.5066 4.86334,4.50119 4.86593,4.49571 4.8683,4.49021 "/>
     <polygon id="_442138544" class="fil1" points="4.79954,4.54629 8.5858,8.33256 8.58191,8.34055 8.57812,8.34824 8.57444,8.35564 8.57087,8.36277 8.56739,8.36965 8.56402,8.37631 8.56073,8.38276 8.55754,8.38901 8.55442,8.39509 8.55138,8.40102 8.54842,8.40681 8.54553,8.4125 8.5427,8.41808 8.53994,8.42358 8.53724,8.42903 8.53459,8.43444 8.53199,8.43983 8.52943,8.44522 8.52692,8.45062 8.52444,8.45606 8.522,8.46156 8.51958,8.46713 8.51719,8.4728 8.51481,8.47857 8.51246,8.48449 8.51012,8.49055 8.50778,8.49678 8.50545,8.5032 8.50311,8.50982 8.50078,8.51668 8.49843,8.52378 8.49607,8.53114 4.7098,4.74487 4.71216,4.7375 4.71451,4.73041 4.71685,4.72355 4.71918,4.71693 4.72151,4.7105 4.72385,4.70428 4.72619,4.69822 4.72855,4.6923 4.73092,4.68653 4.73331,4.68086 4.73573,4.67529 4.73817,4.66979 4.74065,4.66435 4.74317,4.65894 4.74572,4.65356 4.74832,4.64817 4.75097,4.64276 4.75368,4.63731 4.75644,4.63181 4.75926,4.62622 4.76215,4.62054 4.76511,4.61475 4.76815,4.60882 4.77127,4.60274 4.77446,4.59648 4.77775,4.59004 4.78113,4.58338 4.7846,4.5765 4.78817,4.56937 4.79185,4.56196 4.79564,4.55428 "/>
     <polygon id="_442138232" class="fil1" points="4.7098,4.74487 8.49607,8.53114 8.49228,8.54203 8.48897,8.55193 8.48602,8.56088 8.4833,8.56896 8.48067,8.57622 8.47803,8.58274 8.47523,8.58857 8.47215,8.59377 8.46866,8.59841 8.46464,8.60256 8.45996,8.60627 8.45448,8.60961 8.44809,8.61264 8.44065,8.61543 8.43205,8.61804 8.42214,8.62052 4.63587,4.83425 4.64578,4.83176 4.65439,4.82916 4.66182,4.82637 4.66821,4.82334 4.67369,4.82 4.67837,4.81629 4.68239,4.81214 4.68588,4.8075 4.68896,4.8023 4.69176,4.79646 4.69441,4.78995 4.69703,4.78269 4.69975,4.77461 4.7027,4.76565 4.70601,4.75576 "/>
     <polygon id="_442138808" class="fil1" points="4.63587,4.83425 8.42214,8.62052 8.41678,8.62193 8.41059,8.6229 8.40368,8.62347 8.39617,8.62368 8.38819,8.62356 8.37983,8.62313 8.37125,8.62243 8.36254,8.6215 8.35383,8.62036 8.34524,8.61905 8.3369,8.61761 8.32891,8.61605 8.3214,8.61443 8.31449,8.61276 8.3083,8.61108 8.30294,8.60943 4.51668,4.82315 4.52203,4.82481 4.52822,4.82648 4.53513,4.82815 4.54264,4.82978 4.55063,4.83133 4.55898,4.83278 4.56756,4.83409 4.57627,4.83522 4.58498,4.83616 4.59357,4.83685 4.60192,4.83728 4.60991,4.83741 4.61741,4.8372 4.62433,4.83663 4.63052,4.83565 "/>
     <polygon id="_442138616" class="fil1" points="4.3092,3.86057 8.09547,7.64684 8.09707,7.6492 8.09867,7.65156 8.1003,7.65391 8.10193,7.65625 8.10358,7.65859 8.10524,7.66093 8.10691,7.66326 8.1086,7.66559 4.32233,3.87932 4.32065,3.87699 4.31897,3.87466 4.31731,3.87232 4.31566,3.86998 4.31403,3.86763 4.31241,3.86528 4.3108,3.86293 "/>
     <polygon id="_442138640" class="fil1" points="4.32233,3.87932 8.1086,7.66559 8.10587,7.66344 8.10317,7.66125 8.10049,7.65903 8.09785,7.65677 8.09523,7.65447 8.09264,7.65214 8.09008,7.64977 8.08756,7.64737 4.30129,3.8611 4.30381,3.8635 4.30637,3.86587 4.30896,3.8682 4.31158,3.8705 4.31422,3.87276 4.3169,3.87498 4.3196,3.87717 "/>
     <polygon id="_442139024" class="fil1" points="4.57024,4.11311 8.35651,7.89938 8.3508,7.89705 8.34512,7.89465 8.33948,7.89219 8.33388,7.88965 8.32831,7.88703 8.3228,7.88433 8.31733,7.88155 8.31191,7.87867 8.30654,7.87569 8.30124,7.87262 8.29599,7.86943 8.29081,7.86614 8.28569,7.86273 8.28065,7.8592 8.27568,7.85554 8.27078,7.85175 4.48452,4.06548 4.48941,4.06927 4.49438,4.07293 4.49943,4.07646 4.50454,4.07987 4.50972,4.08316 4.51497,4.08635 4.52028,4.08942 4.52564,4.0924 4.53106,4.09528 4.53653,4.09806 4.54205,4.10076 4.54761,4.10338 4.55321,4.10591 4.55885,4.10838 4.56453,4.11078 "/>
     <polygon id="_442139216" class="fil1" points="4.48452,4.06548 8.27078,7.85175 8.26469,7.84679 8.25874,7.84169 8.25293,7.83646 8.24725,7.83111 8.24169,7.82565 8.23624,7.82007 4.44998,4.0338 4.45542,4.03937 4.46098,4.04484 4.46666,4.05019 4.47247,4.05542 4.47842,4.06052 "/>
     <polygon id="_442138952" class="fil1" points="4.65651,4.15863 8.44278,7.94491 8.43848,7.94066 8.4339,7.93669 8.42908,7.93299 8.42404,7.92954 8.4188,7.9263 8.4134,7.92327 8.40786,7.92042 8.40222,7.91772 8.3965,7.91517 8.39072,7.91273 8.38492,7.91039 8.37912,7.90812 8.37335,7.90591 8.36764,7.90372 8.36202,7.90156 8.35651,7.89938 4.57024,4.11311 4.57575,4.11528 4.58137,4.11745 4.58708,4.11963 4.59285,4.12185 4.59865,4.12411 4.60445,4.12646 4.61023,4.1289 4.61595,4.13145 4.62159,4.13415 4.62713,4.137 4.63253,4.14003 4.63777,4.14326 4.64281,4.14672 4.64763,4.15042 4.65221,4.15439 "/>
     <polygon id="_442139120" class="fil1" points="4.89739,4.35268 8.68365,8.13895 8.68326,8.14314 8.68285,8.14733 8.68242,8.15152 8.68197,8.15571 8.6815,8.15991 8.68101,8.1641 8.68049,8.1683 8.67995,8.17249 8.67939,8.17669 8.67879,8.18088 8.67817,8.18507 8.67752,8.18925 8.67684,8.19343 8.67613,8.1976 8.67539,8.20177 8.67461,8.20593 8.6738,8.21009 8.67295,8.21423 8.67207,8.21837 8.67115,8.2225 8.67019,8.22661 8.66919,8.23072 8.66814,8.23481 8.66706,8.23889 8.66593,8.24296 8.66476,8.24702 8.66354,8.25106 8.66228,8.25508 8.66096,8.25909 8.6596,8.26308 8.65819,8.26705 8.65672,8.271 4.87046,4.48473 4.87192,4.48078 4.87333,4.47681 4.87469,4.47281 4.87601,4.46881 4.87727,4.46478 4.87849,4.46074 4.87967,4.45669 4.88079,4.45262 4.88187,4.44854 4.88292,4.44445 4.88392,4.44034 4.88488,4.43622 4.8858,4.4321 4.88669,4.42796 4.88753,4.42381 4.88834,4.41966 4.88912,4.4155 4.88986,4.41133 4.89057,4.40716 4.89125,4.40298 4.89191,4.3988 4.89252,4.39461 4.89312,4.39042 4.89369,4.38622 4.89422,4.38203 4.89474,4.37783 4.89523,4.37364 4.8957,4.36944 4.89615,4.36525 4.89658,4.36106 4.89699,4.35687 "/>
     <polygon id="_442139192" class="fil1" points="5.12728,4.54168 8.91355,8.32795 8.91123,8.33572 8.90824,8.34264 8.90463,8.34875 8.90044,8.3541 8.89572,8.35873 8.89052,8.36268 8.88489,8.366 8.87888,8.36874 5.09261,4.58246 5.09862,4.57973 5.10425,4.57641 5.10945,4.57246 5.11417,4.56783 5.11836,4.56248 5.12198,4.55637 5.12496,4.54944 "/>
     <polygon id="_442138976" class="fil1" points="4.80531,4.54642 8.59158,8.33269 8.59087,8.33269 8.59016,8.33269 8.58944,8.33268 8.58872,8.33267 8.588,8.33265 8.58727,8.33262 8.58654,8.33259 8.5858,8.33256 4.79954,4.54629 4.80027,4.54632 4.801,4.54635 4.80173,4.54638 4.80246,4.5464 4.80318,4.54641 4.80389,4.54642 4.80461,4.54642 "/>
     <polygon id="_442139048" class="fil1" points="4.97999,4.83387 8.76626,8.62014 8.76091,8.62171 8.75471,8.6228 8.7478,8.62344 8.74029,8.62367 8.7323,8.62353 8.72396,8.62306 8.71537,8.62228 8.70666,8.62124 8.69795,8.61997 8.68936,8.61851 8.68102,8.6169 8.67303,8.61517 8.66552,8.61335 8.65861,8.61148 8.65241,8.60961 8.64706,8.60777 4.8608,4.8215 4.86615,4.82334 4.87234,4.82521 4.87925,4.82707 4.88676,4.82889 4.89475,4.83063 4.90309,4.83224 4.91169,4.8337 4.92039,4.83497 4.9291,4.83601 4.93769,4.83679 4.94604,4.83726 4.95402,4.8374 4.96154,4.83717 4.96844,4.83652 4.97464,4.83544 "/>
     <polygon id="_442139096" class="fil1" points="1.81446,2.26001 5.60073,6.04628 5.59467,6.04551 5.58862,6.04463 5.58259,6.04365 5.57659,6.04257 5.57062,6.04141 5.5647,6.04017 5.55883,6.03886 5.55302,6.03749 5.54729,6.03606 5.54163,6.03458 5.53607,6.03306 5.53059,6.03151 5.52523,6.02993 5.51998,6.02833 5.51485,6.02673 5.50985,6.02513 1.72358,2.23885 1.72858,2.24046 1.73371,2.24206 1.73896,2.24366 1.74433,2.24524 1.7498,2.24679 1.75537,2.24831 1.76102,2.24979 1.76676,2.25122 1.77256,2.25259 1.77843,2.2539 1.78435,2.25514 1.79032,2.2563 1.79632,2.25738 1.80235,2.25836 1.80841,2.25924 "/>
     <polygon id="_442139456" class="fil1" points="3.36679,3.92724 7.15306,7.71352 7.1462,7.71031 7.13939,7.707 7.13263,7.70357 7.1259,7.70006 7.11921,7.69646 7.11255,7.6928 7.10591,7.68906 7.0993,7.68528 7.0927,7.68146 7.08612,7.67761 7.07955,7.67375 7.07298,7.66987 7.06641,7.666 7.05983,7.66213 7.05324,7.6583 7.04665,7.65449 7.04003,7.65073 7.03339,7.64703 7.02672,7.64339 7.02002,7.63983 7.01329,7.63635 7.00651,7.63298 6.99969,7.6297 6.99282,7.62656 6.9859,7.62353 6.97892,7.62065 6.97187,7.61792 6.96476,7.61535 6.95758,7.61295 6.95032,7.61073 6.94298,7.60871 6.93556,7.60689 3.14929,3.82061 3.15672,3.82244 3.16406,3.82446 3.17131,3.82668 3.1785,3.82908 3.18561,3.83165 3.19265,3.83438 3.19963,3.83726 3.20656,3.84028 3.21343,3.84343 3.22024,3.8467 3.22702,3.85008 3.23376,3.85356 3.24045,3.85712 3.24712,3.86076 3.25376,3.86446 3.26038,3.86822 3.26698,3.87202 3.27356,3.87586 3.28014,3.87972 3.28671,3.8836 3.29328,3.88748 3.29985,3.89134 3.30644,3.89519 3.31303,3.89901 3.31965,3.90279 3.32628,3.90652 3.33294,3.91019 3.33963,3.91379 3.34636,3.9173 3.35312,3.92072 3.35993,3.92404 "/>
     <polygon id="_442139672" class="fil1" points="1.95283,2.70616 5.7391,6.49243 5.73165,6.4942 5.72454,6.49581 5.7178,6.49726 5.71144,6.49857 5.70547,6.49973 5.69993,6.50076 5.69482,6.50167 5.69018,6.50245 5.686,6.50311 5.68233,6.50367 5.67916,6.50413 5.67653,6.50448 5.67445,6.50475 5.67294,6.50493 5.67202,6.50504 5.67171,6.50507 1.88544,2.7188 1.88576,2.71876 1.88667,2.71866 1.88819,2.71848 1.89026,2.71821 1.89289,2.71785 1.89606,2.7174 1.89974,2.71684 1.90391,2.71618 1.90856,2.71539 1.91366,2.71449 1.9192,2.71346 1.92517,2.7123 1.93153,2.71099 1.93828,2.70954 1.94539,2.70793 "/>
     <polygon id="_442140032" class="fil1" points="1.88544,2.7188 5.67171,6.50507 5.66065,6.50797 5.64962,6.51021 5.63865,6.5118 5.62775,6.51277 5.61695,6.51313 5.60627,6.5129 5.59574,6.5121 5.58536,6.51076 5.57518,6.50888 5.5652,6.5065 5.55545,6.50363 5.54596,6.50029 5.53674,6.4965 5.52781,6.49227 5.5192,6.48764 5.51094,6.48261 5.50304,6.47722 5.49551,6.47146 5.4884,6.46538 1.70213,2.67911 1.70924,2.68519 1.71677,2.69094 1.72467,2.69634 1.73294,2.70137 1.74154,2.706 1.75047,2.71022 1.75969,2.71402 1.76919,2.71736 1.77893,2.72023 1.78891,2.72261 1.79909,2.72448 1.80947,2.72583 1.82,2.72663 1.83069,2.72685 1.84148,2.7265 1.85238,2.72553 1.86335,2.72394 1.87438,2.7217 "/>
     <polygon id="_442139840" class="fil1" points="2.00784,3.0001 5.79411,6.78637 5.78754,6.78039 5.78077,6.77464 5.77382,6.76907 5.76672,6.76366 5.75952,6.75836 5.75224,6.75313 5.74493,6.74794 5.73761,6.74276 5.73031,6.73753 5.72309,6.73222 5.71596,6.7268 1.92969,2.94053 1.93682,2.94595 1.94405,2.95126 1.95134,2.95648 1.95866,2.96167 1.96598,2.96686 1.97325,2.97209 1.98046,2.97739 1.98755,2.9828 1.9945,2.98837 2.00128,2.99412 "/>
     <polygon id="_442139480" class="fil1" points="2.8847,4.08661 6.67096,7.87289 6.66726,7.87231 6.66357,7.87169 6.65988,7.87102 6.6562,7.8703 6.65253,7.86954 6.64886,7.86872 6.6452,7.86785 6.64154,7.86692 6.63788,7.86594 6.63422,7.8649 6.63056,7.8638 6.6269,7.86264 6.62324,7.86141 6.61957,7.86013 6.6159,7.85877 6.61222,7.85735 2.82596,4.07107 2.82963,4.0725 2.8333,4.07385 2.83697,4.07514 2.84063,4.07637 2.84429,4.07753 2.84795,4.07863 2.85161,4.07967 2.85527,4.08065 2.85893,4.08157 2.86259,4.08244 2.86626,4.08326 2.86993,4.08403 2.87361,4.08474 2.8773,4.08541 2.88099,4.08604 "/>
     <polygon id="_442140104" class="fil1" points="2.82596,4.07107 6.61222,7.85735 6.61217,7.85735 6.61211,7.85735 6.61205,7.85735 6.61199,7.85736 6.61193,7.85736 6.61187,7.85736 6.61181,7.85736 6.61175,7.85736 2.82548,4.07109 2.82554,4.07109 2.8256,4.07109 2.82566,4.07109 2.82572,4.07109 2.82578,4.07108 2.82584,4.07108 2.8259,4.07108 "/>
     <polygon id="_442139600" class="fil1" points="2.8549,4.33792 6.64117,8.12419 6.64381,8.13453 6.64682,8.14515 6.65014,8.15602 6.65374,8.16711 6.65757,8.17842 6.66158,8.1899 6.66574,8.20155 6.66998,8.21333 6.67428,8.22522 6.67859,8.2372 6.68286,8.24926 6.68704,8.26135 6.6911,8.27346 6.69498,8.28557 6.69865,8.29766 6.70206,8.30969 6.70517,8.32165 6.70792,8.33352 6.71027,8.34526 6.71219,8.35686 6.71362,8.3683 6.71453,8.37954 6.71486,8.39058 6.71457,8.40138 6.71362,8.41192 6.71196,8.42217 6.70955,8.43212 6.70635,8.44174 6.7023,8.45102 6.69737,8.45991 6.69151,8.46841 6.68467,8.47648 2.8984,4.69021 2.90524,4.68213 2.9111,4.67364 2.91603,4.66474 2.92008,4.65547 2.92328,4.64585 2.92569,4.6359 2.92735,4.62565 2.9283,4.61511 2.92859,4.60431 2.92826,4.59327 2.92735,4.58203 2.92592,4.57059 2.924,4.55899 2.92165,4.54724 2.9189,4.53538 2.9158,4.52342 2.91239,4.51139 2.90872,4.4993 2.90483,4.48719 2.90078,4.47508 2.89659,4.46298 2.89232,4.45093 2.88802,4.43895 2.88372,4.42706 2.87947,4.41528 2.87531,4.40363 2.8713,4.39215 2.86747,4.38084 2.86387,4.36974 2.86055,4.35888 2.85754,4.34826 "/>
     <polygon id="_442139528" class="fil1" points="3.14386,4.74487 6.93013,8.53114 6.92633,8.54203 6.92303,8.55193 6.92007,8.56088 6.91735,8.56896 6.91474,8.57622 6.91209,8.58274 6.90929,8.58857 6.90621,8.59377 6.90272,8.59841 6.8987,8.60256 6.89402,8.60627 6.88854,8.60961 6.88215,8.61264 6.87471,8.61543 6.86611,8.61804 6.8562,8.62052 3.06993,4.83425 3.07984,4.83176 3.08844,4.82916 3.09588,4.82637 3.10228,4.82334 3.10775,4.82 3.11243,4.81629 3.11646,4.81214 3.11994,4.8075 3.12302,4.8023 3.12582,4.79646 3.12847,4.78995 3.13109,4.78269 3.13381,4.77461 3.13676,4.76565 3.14007,4.75576 "/>
     <polygon id="_442139552" class="fil1" points="2.8984,4.69021 6.68467,8.47648 6.67194,8.53114 2.88567,4.74487 "/>
     <polygon id="_442139696" class="fil1" points="1.92969,2.94053 5.71596,6.7268 5.71059,6.72258 5.7053,6.71828 5.70012,6.71387 5.69506,6.70936 5.69017,6.70473 1.9039,2.91846 1.9088,2.92309 1.91385,2.9276 1.91904,2.932 1.92433,2.93631 "/>
     <polygon id="_460207680" class="fil1" points="2.82548,4.07109 6.61175,7.85736 6.60974,7.85737 6.60772,7.85739 6.60569,7.85741 6.60364,7.85744 6.60158,7.85747 6.59951,7.8575 6.59743,7.85754 6.59533,7.85758 2.80906,4.07131 2.81116,4.07127 2.81324,4.07123 2.81531,4.0712 2.81737,4.07117 2.81942,4.07114 2.82145,4.07112 2.82347,4.0711 "/>
     <polygon id="_460207080" class="fil1" points="2.30504,3.744 6.0913,7.53027 6.08547,7.52833 6.07967,7.52619 6.0739,7.52387 6.06817,7.52136 6.06248,7.51868 6.05683,7.51583 6.05122,7.51283 6.04566,7.50967 6.04015,7.50636 6.03469,7.50291 6.02929,7.49933 6.02394,7.49563 6.01866,7.4918 6.01344,7.48787 6.00828,7.48382 6.00319,7.47968 5.99817,7.47544 5.99322,7.47112 5.98835,7.46672 2.20208,3.68044 2.20695,3.68485 2.2119,3.68917 2.21692,3.69341 2.22201,3.69755 2.22717,3.70159 2.23239,3.70553 2.23768,3.70936 2.24302,3.71306 2.24843,3.71664 2.25388,3.72009 2.25939,3.72339 2.26495,3.72656 2.27056,3.72956 2.27621,3.73241 2.2819,3.73509 2.28763,3.73759 2.2934,3.73992 2.2992,3.74206 "/>
     <polygon id="_460207416" class="fil1" points="2.43082,3.75812 6.21709,7.54439 6.20916,7.54427 6.20122,7.54413 6.1933,7.54396 6.18537,7.54373 6.17745,7.54344 6.16954,7.54306 6.16164,7.54257 6.15375,7.54195 6.14587,7.54119 6.13802,7.54027 6.13017,7.53917 6.12235,7.53786 6.11456,7.53634 6.10678,7.53458 6.09903,7.53256 6.0913,7.53027 2.30504,3.744 2.31276,3.74629 2.32051,3.74831 2.32829,3.75007 2.33609,3.75159 2.34391,3.75289 2.35175,3.754 2.35961,3.75492 2.36748,3.75568 2.37537,3.7563 2.38327,3.75678 2.39118,3.75717 2.3991,3.75746 2.40703,3.75769 2.41496,3.75786 2.42289,3.758 "/>
     <polygon id="_460207128" class="fil1" points="3.15659,4.69021 6.94286,8.47648 6.93013,8.53114 3.14386,4.74487 "/>
     <polygon id="_460207512" class="fil1" points="2.88567,4.74487 6.67194,8.53114 6.66815,8.54203 6.66484,8.55193 6.66189,8.56088 6.65917,8.56896 6.65654,8.57622 6.6539,8.58274 6.6511,8.58857 6.64802,8.59377 6.64453,8.59841 6.64051,8.60256 6.63583,8.60627 6.63035,8.60961 6.62396,8.61264 6.61653,8.61543 6.60792,8.61804 6.59801,8.62052 2.81174,4.83425 2.82165,4.83176 2.83026,4.82916 2.83769,4.82637 2.84409,4.82334 2.84956,4.82 2.85424,4.81629 2.85826,4.81214 2.86175,4.8075 2.86483,4.8023 2.86763,4.79646 2.87028,4.78995 2.8729,4.78269 2.87562,4.77461 2.87857,4.76565 2.88188,4.75576 "/>
     <polygon id="_460207560" class="fil1" points="3.06993,4.83425 6.8562,8.62052 6.85085,8.62193 6.84465,8.6229 6.83774,8.62347 6.83024,8.62368 6.82225,8.62356 6.8139,8.62313 6.80531,8.62243 6.7966,8.6215 6.7879,8.62036 6.77931,8.61906 6.77096,8.61761 6.76297,8.61606 6.75546,8.61443 6.74855,8.61276 6.74236,8.61108 6.73701,8.60943 2.95074,4.82315 2.95609,4.82481 2.96228,4.82648 2.96919,4.82815 2.9767,4.82978 2.98469,4.83133 2.99304,4.83278 3.00163,4.83409 3.01033,4.83523 3.01904,4.83616 3.02763,4.83685 3.03598,4.83728 3.04397,4.83741 3.05148,4.8372 3.05839,4.83663 3.06458,4.83565 "/>
     <polygon id="_460207752" class="fil1" points="2.81174,4.83425 6.59801,8.62052 6.59266,8.62193 6.58647,8.6229 6.57956,8.62347 6.57205,8.62368 6.56406,8.62356 6.55571,8.62313 6.54712,8.62243 6.53841,8.6215 6.52971,8.62036 6.52112,8.61906 6.51277,8.61761 6.50478,8.61606 6.49727,8.61443 6.49036,8.61276 6.48417,8.61108 6.47882,8.60943 2.69255,4.82315 2.6979,4.82481 2.70409,4.82648 2.711,4.82815 2.71852,4.82978 2.7265,4.83133 2.73485,4.83278 2.74344,4.83409 2.75215,4.83523 2.76085,4.83616 2.76944,4.83685 2.77779,4.83728 2.78578,4.83741 2.79329,4.8372 2.8002,4.83663 2.80639,4.83565 "/>
     <polygon id="_460207032" class="fil1" points="2.43923,3.76811 6.2255,7.55439 6.21917,7.5486 2.4329,3.76233 "/>
     <polygon id="_460207176" class="fil1" points="2.58906,4.04135 6.37533,7.82763 6.36975,7.82409 6.36433,7.82031 6.35907,7.81626 6.35398,7.81195 2.56772,4.02568 2.5728,4.02999 2.57806,4.03404 2.58348,4.03782 "/>
     <polygon id="_460207248" class="fil1" points="2.80906,4.07131 6.59533,7.85758 6.5965,7.86592 6.59769,7.87424 6.5989,7.88255 6.60011,7.89084 6.60135,7.89912 6.6026,7.90739 6.60387,7.91564 6.60515,7.92389 6.60645,7.93213 6.60777,7.94037 6.6091,7.94861 6.61045,7.95684 6.61181,7.96507 6.6132,7.97331 6.6146,7.98156 6.61602,7.98981 6.61745,7.99806 6.61891,8.00633 6.62037,8.01461 6.62187,8.02291 6.62337,8.03122 6.62489,8.03955 6.62644,8.04789 6.628,8.05626 6.62958,8.06465 6.63118,8.07307 6.6328,8.08151 6.63443,8.08998 6.63609,8.09849 6.63776,8.10702 6.63946,8.11559 6.64117,8.12419 2.8549,4.33792 2.85319,4.32932 2.85149,4.32075 2.84982,4.31222 2.84816,4.30371 2.84653,4.29524 2.84491,4.2868 2.84331,4.27838 2.84173,4.26999 2.84017,4.26162 2.83863,4.25328 2.8371,4.24495 2.8356,4.23664 2.83411,4.22834 2.83264,4.22006 2.83119,4.21179 2.82975,4.20354 2.82833,4.19528 2.82693,4.18704 2.82555,4.1788 2.82418,4.17057 2.82283,4.16233 2.8215,4.1541 2.82019,4.14586 2.81889,4.13762 2.8176,4.12937 2.81633,4.12111 2.81508,4.11285 2.81385,4.10457 2.81263,4.09628 2.81143,4.08797 2.81024,4.07965 "/>
     <polygon id="_460207488" class="fil1" points="3.11309,4.33792 6.89936,8.12419 6.902,8.13453 6.90501,8.14515 6.90833,8.15602 6.91193,8.16711 6.91576,8.17842 6.91977,8.1899 6.92392,8.20155 6.92817,8.21333 6.93247,8.22522 6.93678,8.2372 6.94104,8.24926 6.94523,8.26135 6.94929,8.27346 6.95317,8.28557 6.95684,8.29766 6.96025,8.30969 6.96335,8.32165 6.9661,8.33352 6.96846,8.34526 6.97038,8.35686 6.97181,8.3683 6.97271,8.37954 6.97304,8.39058 6.97276,8.40138 6.97181,8.41192 6.97015,8.42217 6.96774,8.43212 6.96454,8.44174 6.96049,8.45102 6.95556,8.45991 6.9497,8.46841 6.94286,8.47648 3.15659,4.69021 3.16343,4.68213 3.16929,4.67364 3.17422,4.66474 3.17827,4.65547 3.18148,4.64585 3.18388,4.6359 3.18554,4.62565 3.18649,4.61511 3.18678,4.60431 3.18644,4.59327 3.18554,4.58203 3.18411,4.57059 3.18219,4.55899 3.17983,4.54724 3.17708,4.53538 3.17398,4.52342 3.17057,4.51139 3.16691,4.4993 3.16302,4.48719 3.15896,4.47508 3.15478,4.46298 3.15051,4.45093 3.1462,4.43895 3.1419,4.42706 3.13765,4.41528 3.1335,4.40363 3.12949,4.39215 3.12566,4.38084 3.12206,4.36974 3.11874,4.35888 3.11573,4.34826 "/>
     <polygon id="_460208256" class="fil1" points="1.86189,2.74196 5.64816,6.52823 5.6459,6.52746 5.64411,6.52603 1.85785,2.73976 1.85963,2.74119 "/>
     <polygon id="_460208448" class="fil1" points="3.07844,4.07424 6.8647,7.86052 6.86664,7.87011 6.86841,7.87942 6.87002,7.88846 6.8715,7.89725 6.87283,7.90581 6.87406,7.91417 6.87516,7.92233 6.87617,7.93033 6.87709,7.93817 6.87793,7.94589 6.87871,7.95351 6.87943,7.96103 6.88011,7.96849 6.88075,7.9759 6.88137,7.98328 6.88198,7.99066 6.8826,7.99805 6.88322,8.00547 6.88387,8.01295 6.88455,8.0205 6.88527,8.02815 6.88606,8.0359 6.8869,8.0438 6.88783,8.05184 6.88884,8.06006 6.88995,8.06848 6.89118,8.07711 6.89253,8.08598 6.89401,8.0951 6.89563,8.10449 6.89741,8.11419 6.89936,8.12419 3.11309,4.33792 3.11115,4.32791 3.10936,4.31822 3.10774,4.30883 3.10626,4.2997 3.10491,4.29084 3.10369,4.28221 3.10257,4.27379 3.10156,4.26557 3.10063,4.25752 3.09979,4.24963 3.099,4.24187 3.09828,4.23423 3.0976,4.22668 3.09695,4.2192 3.09633,4.21178 3.09572,4.20439 3.09511,4.19701 3.09448,4.18963 3.09384,4.18222 3.09316,4.17476 3.09244,4.16724 3.09167,4.15962 3.09082,4.1519 3.0899,4.14406 3.08889,4.13606 3.08779,4.12789 3.08657,4.11954 3.08523,4.11098 3.08376,4.10219 3.08214,4.09315 3.08037,4.08384 "/>
     <polygon id="_460208040" class="fil1" points="3.14685,3.98473 6.93311,7.771 6.93146,7.77836 6.92944,7.78554 6.92705,7.79253 6.92429,7.79932 6.92117,7.80589 6.9177,7.81224 6.91388,7.81834 6.90972,7.8242 6.90521,7.82979 6.90038,7.8351 6.89522,7.84013 6.88974,7.84485 6.88394,7.84927 6.87783,7.85336 6.87142,7.85711 6.8647,7.86052 3.07844,4.07424 3.08515,4.07084 3.09157,4.06709 3.09767,4.063 3.10347,4.05858 3.10895,4.05385 3.11411,4.04883 3.11894,4.04352 3.12345,4.03793 3.12761,4.03207 3.13143,4.02596 3.1349,4.01962 3.13802,4.01305 3.14078,4.00626 3.14317,3.99927 3.1452,3.99209 "/>
     <polygon id="_460208184" class="fil1" points="3.14714,3.82505 6.93341,7.61132 6.93295,7.61628 6.9326,7.62125 6.93237,7.62621 6.93223,7.63117 6.93219,7.63614 6.93222,7.6411 6.93233,7.64606 6.9325,7.65102 6.93273,7.65598 6.93301,7.66095 6.93332,7.66591 6.93366,7.67088 6.93403,7.67585 6.9344,7.68082 6.93478,7.68579 6.93515,7.69077 6.93551,7.69575 6.93584,7.70073 6.93614,7.70571 6.9364,7.7107 6.93661,7.7157 6.93676,7.7207 6.93685,7.7257 6.93685,7.73071 6.93678,7.73572 6.93661,7.74074 6.93633,7.74577 6.93594,7.7508 6.93544,7.75584 6.93481,7.76089 6.93403,7.76594 6.93311,7.771 3.14685,3.98473 3.14776,3.97967 3.14854,3.97462 3.14917,3.96957 3.14968,3.96453 3.15006,3.9595 3.15034,3.95447 3.15051,3.94945 3.15059,3.94444 3.15058,3.93943 3.1505,3.93443 3.15034,3.92943 3.15013,3.92443 3.14987,3.91944 3.14957,3.91446 3.14924,3.90948 3.14888,3.9045 3.14851,3.89952 3.14813,3.89455 3.14776,3.88957 3.14739,3.88461 3.14705,3.87964 3.14674,3.87468 3.14646,3.86971 3.14624,3.86475 3.14606,3.85979 3.14595,3.85483 3.14592,3.84987 3.14596,3.8449 3.1461,3.83994 3.14633,3.83498 3.14668,3.83001 "/>
     <polygon id="_460208376" class="fil1" points="3.14929,3.82061 6.93556,7.60689 6.93533,7.60775 6.93511,7.60862 6.93491,7.6095 6.93472,7.61039 6.93454,7.61128 6.93437,7.61218 6.93422,7.61309 6.93408,7.614 3.14781,3.82773 3.14795,3.82681 3.14811,3.82591 3.14827,3.82501 3.14845,3.82411 3.14864,3.82323 3.14884,3.82235 3.14906,3.82148 "/>
     <polygon id="_460208232" class="fil1" points="1.58152,2.11991 5.36779,5.90618 5.36177,5.90038 5.35548,5.89496 5.34888,5.88997 5.34194,5.88548 5.33461,5.88155 1.54834,2.09528 1.55567,2.09921 1.56261,2.1037 1.56921,2.10869 1.5755,2.11411 "/>
     <polygon id="_460207776" class="fil1" points="1.54834,2.09528 5.33461,5.88155 5.33382,5.881 1.54755,2.09472 "/>
     <polygon id="_460207800" class="fil1" points="1.72358,2.23885 5.50985,6.02513 5.5041,6.02319 5.49842,6.02116 5.49281,6.01901 5.48727,6.01674 5.48181,6.01435 5.47643,6.01183 5.47113,6.00916 5.46592,6.00635 5.4608,6.00338 5.45577,6.00025 5.45084,5.99695 5.44601,5.99348 5.44129,5.98982 5.43667,5.98598 5.43216,5.98193 5.42776,5.97769 1.64149,2.19141 1.64589,2.19566 1.6504,2.1997 1.65502,2.20355 1.65974,2.20721 1.66457,2.21068 1.6695,2.21398 1.67453,2.21711 1.67965,2.22007 1.68486,2.22289 1.69016,2.22556 1.69554,2.22808 1.701,2.23047 1.70654,2.23274 1.71215,2.23489 1.71783,2.23692 "/>
     <polygon id="_460208352" class="fil1" points="3.59611,3.99425 7.38237,7.78052 7.3748,7.77945 7.36726,7.77831 7.35976,7.77711 7.3523,7.77585 7.34488,7.77452 7.33749,7.77313 7.33014,7.77167 7.32282,7.77015 7.31553,7.76856 7.30827,7.76691 7.30103,7.76519 7.29383,7.7634 7.28665,7.76155 7.27949,7.75963 7.27235,7.75765 7.26524,7.7556 7.25814,7.75348 7.25106,7.7513 7.244,7.74904 7.23696,7.74672 7.22993,7.74433 7.22291,7.74188 7.21589,7.73935 7.20889,7.73676 7.2019,7.7341 7.19492,7.73137 7.18794,7.72856 7.18096,7.72569 7.17398,7.72276 7.16701,7.71974 7.16004,7.71667 7.15306,7.71352 3.36679,3.92724 3.37377,3.93039 3.38074,3.93347 3.38772,3.93648 3.39469,3.93942 3.40167,3.94229 3.40865,3.94509 3.41563,3.94783 3.42263,3.95049 3.42963,3.95308 3.43664,3.95561 3.44366,3.95806 3.45069,3.96045 3.45774,3.96277 3.4648,3.96502 3.47187,3.96721 3.47897,3.96933 3.48608,3.97138 3.49322,3.97336 3.50038,3.97528 3.50756,3.97713 3.51476,3.97892 3.522,3.98063 3.52926,3.98229 3.53655,3.98388 3.54387,3.9854 3.55122,3.98686 3.55861,3.98825 3.56604,3.98958 3.5735,3.99084 3.58099,3.99204 3.58853,3.99318 "/>
     <polygon id="_460208328" class="fil1" points="5.09261,4.58246 8.87888,8.36874 8.87638,8.37831 8.87412,8.38705 8.87207,8.395 8.87024,8.40221 8.86859,8.40875 8.86711,8.41465 8.8658,8.41998 8.86463,8.42479 8.86358,8.42913 8.86266,8.43304 8.86183,8.4366 8.86108,8.43984 8.8604,8.44282 8.85978,8.4456 8.85919,8.44822 8.85863,8.45074 8.85807,8.45321 8.8575,8.45569 8.85691,8.45822 8.85628,8.46087 8.8556,8.46368 8.85485,8.4667 8.85401,8.46999 8.85307,8.4736 8.85203,8.47759 8.85085,8.482 8.84952,8.48689 8.84804,8.49231 8.84637,8.49833 8.84452,8.50497 8.84246,8.51231 8.84019,8.52039 5.05392,4.73411 5.0562,4.72604 5.05826,4.7187 5.06011,4.71206 5.06177,4.70604 5.06326,4.70062 5.06458,4.69573 5.06576,4.69132 5.06681,4.68733 5.06774,4.68372 5.06858,4.68043 5.06933,4.67741 5.07001,4.6746 5.07064,4.67195 5.07123,4.66942 5.0718,4.66694 5.07236,4.66447 5.07292,4.66195 5.07351,4.65933 5.07413,4.65655 5.07481,4.65357 5.07556,4.65033 5.07639,4.64677 5.07731,4.64285 5.07836,4.63852 5.07953,4.63371 5.08084,4.62838 5.08232,4.62248 5.08397,4.61594 5.08581,4.60872 5.08785,4.60078 5.09011,4.59204 "/>
     <polygon id="_460208016" class="fil1" points="5.12776,4.43267 8.91403,8.21894 8.91426,8.226 8.91462,8.23296 8.91506,8.23984 8.91557,8.24666 8.9161,8.25342 8.91661,8.26014 8.91708,8.26684 8.91748,8.27352 8.91775,8.2802 8.91787,8.28689 8.91781,8.2936 8.91754,8.30035 8.91701,8.30714 8.91619,8.314 8.91505,8.32093 8.91355,8.32795 5.12728,4.54168 5.12878,4.53466 5.12992,4.52773 5.13074,4.52087 5.13127,4.51407 5.13155,4.50733 5.13161,4.50061 5.13148,4.49393 5.13121,4.48725 5.13081,4.48057 5.13035,4.47387 5.12983,4.46715 5.1293,4.46039 5.1288,4.45357 5.12835,4.44669 5.12799,4.43972 "/>
     <polygon id="_460209240" class="fil1" points="5.05392,4.73411 8.84019,8.52039 8.83639,8.53255 8.83309,8.54359 8.83013,8.55358 8.82741,8.5626 8.8248,8.5707 8.82215,8.57798 8.81935,8.58448 8.81627,8.59029 8.81278,8.59547 8.80876,8.6001 8.80407,8.60424 8.7986,8.60796 8.79221,8.61135 8.78477,8.61446 8.77617,8.61737 8.76626,8.62014 4.97999,4.83387 4.9899,4.83109 4.9985,4.82819 5.00594,4.82508 5.01233,4.82169 5.01781,4.81797 5.02249,4.81383 5.02652,4.8092 5.03,4.80402 5.03308,4.79821 5.03588,4.7917 5.03853,4.78443 5.04115,4.77633 5.04387,4.76731 5.04682,4.75732 5.05013,4.74628 "/>
     <polygon id="_460208880" class="fil1" points="2.6108,4.95113 6.39706,8.7374 6.39583,8.73667 6.3951,8.73624 6.39484,8.73605 2.60857,4.94978 2.60883,4.94996 2.60956,4.9504 "/>
     <polygon id="_460208616" class="fil1" points="2.6125,4.95173 6.39876,8.738 6.39851,8.73794 6.39827,8.73788 6.39804,8.73781 6.39781,8.73774 6.39761,8.73766 6.39741,8.73758 6.39723,8.73749 6.39706,8.7374 2.6108,4.95113 2.61096,4.95122 2.61115,4.95131 2.61134,4.95139 2.61155,4.95147 2.61177,4.95154 2.612,4.95161 2.61224,4.95167 "/>
    </g>
    <path id="_637658152" class="fil1" d="M4.74132 2.44415c0.141677,0.0370827 0.280059,0.119921 0.377791,0.229264 0.0855709,0.0957402 0.133949,0.218484 0.150728,0.344839 0.00792913,0.0597677 0.0144331,0.124106 0.00666535,0.184224 -0.00569291,0.0439803 -0.0352362,0.0489685 -0.0683622,0.0329764 0.00247638,0.00311417 0.00505118,0.00620472 0.00774016,0.00927165 -0.00343701,-0.00118504 -0.00677953,-0.00258661 -0.0100354,-0.00417323 -0.0105748,0.0476457 -0.0190197,0.0952953 -0.0318661,0.141689 0.000862205,0.00111811 0.0013937,0.0024685 0.00137795,0.00385433 -0.00199213,0.168598 -0.10174,0.334606 -0.0620551,0.503461 0.0182165,0.0775236 0.0847992,0.130591 0.102598,0.207965 0.0154094,0.0669449 -0.0248307,0.135449 -0.050874,0.194232 -0.0196614,0.0443858 -0.0383346,0.0915787 -0.0372638,0.140925 0.000822835,0.037878 0.00851969,0.0713189 -0.000484252,0.109004 -0.00522835,0.0218898 -0.0181772,0.0342441 -0.0346654,0.0407874 -0.0279764,0.106807 -0.0131457,0.0613228 -0.0386969,0.15165 -0.0217362,0.0679685 -0.0173937,0.085189 -0.0739291,0.099752 -0.0260945,0.00972441 -0.0930984,-0.00266142 -0.119193,-0.0123701 0.00428346,-0.161898 0.0688858,-0.117937 0.0918819,-0.267406 -0.0145591,-0.0204921 -0.0197992,-0.0484449 -0.0207087,-0.0764528 -0.00237008,-0.0731535 -0.00779528,-0.144693 -0.0146102,-0.217295 -0.00877953,0.0171457 -0.0165118,0.0348504 -0.0171063,0.0506969 -0.000523622,0.0139016 -0.00159055,0.0277835 -0.00286614,0.0416417 -0.00409843,0.044622 -0.0110394,0.0899764 -0.0269291,0.132051 -0.0109685,0.0290472 -0.0304567,0.0614843 -0.0651417,0.061689 -0.00188189,1.1811e-005 -0.00381102,-3.54331e-005 -0.00577953,-0.000133858 -0.0421969,0.0869331 -0.0644646,0.118559 -0.0897362,0.198579 -0.0217402,0.0608937 -0.0173976,0.0763307 -0.0739291,0.0893819 -0.0260984,0.00870079 -0.0930984,-0.00239764 -0.119193,-0.0110945 0.00423228,-0.143598 0.119201,-0.205181 0.145756,-0.340063 -0.00254331,-0.00355906 -0.00488189,-0.00729921 -0.00699213,-0.0112323 -0.0264449,-0.0492717 0.00611417,-0.0966457 0.0168858,-0.144453 0.011689,-0.0518661 0.0242795,-0.126291 -0.015815,-0.168772 -0.0221575,-0.0234646 -0.0572441,-0.0338465 -0.0862717,-0.0455276 -0.0305236,-0.0122756 -0.0598307,-0.0270709 -0.0857244,-0.047626 -0.0657913,-0.052185 -0.105598,-0.12887 -0.16074,-0.191079 -0.00694094,-0.00782677 -0.00715748,-0.0132638 -0.0145709,-0.0138346 0.00423228,0.00630315 0.00861024,0.0125512 0.0131299,0.018752 -0.00732283,-0.0056811 -0.0143425,-0.0117717 -0.0210472,-0.0182205 -0.013437,0.00179921 -0.026752,0.00638189 -0.0395118,0.0104724 -0.0476614,0.0152756 -0.0939567,0.0355669 -0.141161,0.0522795 -0.169165,0.059878 -0.344894,0.0949449 -0.524508,0.0703976 -0.0810512,-0.0110945 -0.154878,-0.0330276 -0.229315,-0.0670039 -0.0734291,-0.0335276 -0.137843,-0.0883228 -0.2175,-0.10663 -0.000629921,0.00229528 -0.00112598,0.00466535 -0.00147638,0.00711417 -0.000255906,-0.000885827 -0.000480315,-0.00177953 -0.000673228,-0.0026811 -0.00557874,0.0529764 0.0103189,0.105657 -0.000295276,0.159685 -0.0077874,0.0397008 -0.0318071,0.0723071 -0.0684094,0.0895118 0.0215709,0.103984 0.0129606,0.155177 0.0346535,0.263677 0.0260906,0.108736 0.121783,0.268496 0.0435039,0.352287l-0.0127362 0.0546575c-0.0217362,0.0608937 -0.0173937,0.0763307 -0.0739291,0.0893819 -0.0260945,0.00869685 -0.0930906,-0.00238976 -0.119189,-0.0110945 0.00187795,-0.0637598 0.0255709,-0.111335 0.0536732,-0.156346 0,-3.93701e-006 0.0477835,-0.068622 -0.00875197,-0.240067l-0.113386 -0.339965 0.00242126 -0.000161417c-0.0197795,-0.00296457 -0.0391142,-0.00775984 -0.0587402,-0.0155394 -0.00015748,7.87402e-006 -0.000314961,1.5748e-005 -0.000476378,1.5748e-005 -0.00533465,2.75591e-005 -0.010815,0.000106299 -0.0164173,0.000216535 0.0124331,0.0890945 0.0274528,0.174642 0.0458386,0.266614 0.0260945,0.108736 0.121787,0.268496 0.0435,0.352287l-0.0127283 0.0546575c-0.0217441,0.0608937 -0.0174016,0.0763307 -0.0739291,0.0893819 -0.0260945,0.00869685 -0.0930984,-0.00238976 -0.119193,-0.0110945 0.00187795,-0.0637598 0.0255748,-0.111335 0.0536772,-0.156346 0,-3.93701e-006 0.0477795,-0.068622 -0.00875591,-0.240067l-0.148409 -0.385386c-0.0150827,-0.00910236 -0.0285709,-0.0207795 -0.0398031,-0.0357323 -0.053874,-0.0717087 -0.0464331,-0.183173 -0.116362,-0.243291 -0.00149213,-0.00128346 -0.00208661,-0.00275984 -0.0020748,-0.00420866 -0.0423071,-0.000665354 -0.0846732,-0.00114173 -0.125787,-0.014122 -0.0623819,-0.0196772 -0.119839,-0.0736102 -0.158272,-0.124906 -0.0988504,-0.131902 -0.0614606,-0.298469 -0.0713307,-0.450449 -0.00306693,-0.0472835 -0.0145236,-0.0931969 -0.0391693,-0.133917 -0.0255079,-0.0421614 -0.0688701,-0.0649134 -0.106575,-0.0941969 -0.0287598,-0.0223268 -0.0554685,-0.0476063 -0.0614685,-0.0849764 -0.00660236,-0.0409724 0.0184252,-0.0746969 -0.00633071,-0.113594 -0.00658661,-0.000988189 -0.00883465,-0.0113071 -0.00131496,-0.0124882 0.0315748,-0.00496063 0.0624134,-0.0128386 0.0922598,-0.023311 -0.0406181,0.00985433 -0.0673898,0.0126378 -0.0673898,0.0126378 -0.118083,0.0345787 -0.234354,-0.0477402 -0.228878,-0.140177 0.000870079,-0.0150433 0.00498425,-0.0303583 0.0128661,-0.0454606 0.0012126,-0.00240945 0.00255118,-0.00479921 0.00398425,-0.0071811 0.0522402,-0.0868425 0.101591,-0.174787 0.141047,-0.265972 -0.0323346,-0.00379921 -0.0645906,-0.0125945 -0.0908819,-0.0211535 -0.0308307,-0.0100354 -0.0589528,-0.0242244 -0.0820906,-0.0474409 -0.0309803,-0.0310709 -0.0529409,-0.0767441 -0.0931535,-0.0961378 -0.00244882,-0.00118898 -0.00211024,-0.00481102 0.000366142,-0.00568898 0.0564961,-0.0201969 0.112315,-0.0417323 0.171764,-0.018748 0.0375984,0.0145276 0.0711929,0.0363898 0.105102,0.0577126 -0.00129528,-0.00242126 -0.00246457,-0.00503543 -0.00349606,-0.00784646 -0.020378,-0.0554724 0.0140472,-0.141602 0.0601024,-0.17511 0.10411,-0.0757205 0.266047,-0.0954449 0.377705,-0.0352559 0.0391969,0.021122 0.0742953,0.0450906 0.117185,0.0585984 0.0358031,0.0112677 0.0711024,0.0217362 0.100783,0.0455709 0.0480748,0.0385945 0.0832441,0.140677 0.115252,0.19472 0.0120394,-0.00342126 0.0242362,-0.00633858 0.0366654,-0.00851575 0.0662244,-0.0115906 0.119591,0.0221457 0.173909,0.054622 0.00238976,0.00142126 0.002,0.00524016 -0.000783465,0.00595669 -0.0361969,0.00938583 -0.063878,0.0382717 -0.0929646,0.0626929 0.023752,0.0116299 0.0502559,0.0195354 0.0802205,0.0234134 0.0896614,0.0115984 0.180618,-0.00660236 0.270618,-0.00118898 0.0885039,0.0053189 0.175681,0.0417913 0.261323,0.0628386 0.0999764,0.0245945 0.19848,0.0284961 0.300917,0.0244409 0.0495433,-0.00195669 0.099063,-0.00499606 0.148594,-0.00737402 0.0434724,-0.00209055 0.0894528,-0.00720079 0.132787,-0.00225984 0.0869173,0.00991732 0.175732,0.00487402 0.262929,0.00109449 0.191886,-0.00829921 0.385528,-0.0301496 0.574,0.0191969zm-2.13052 2.50698c-0.00402756,-0.00233858 -0.00207087,-0.00132283 0.00170079,0.000602362 -0.000692913,-0.000149606 -0.00126772,-0.000346457 -0.00170079,-0.000602362z"/>
   </g>
  </g>
  <path class="fil2" d="M3.41333 -3.93701e-006c1.88513,0 3.41333,1.5282 3.41333,3.41333 0,1.88513 -1.5282,3.41333 -3.41333,3.41333 -1.88513,0 -3.41333,-1.5282 -3.41333,-3.41333 0,-1.88513 1.5282,-3.41333 3.41333,-3.41333z"/>
  <path class="fil3" d="M2.6125 4.95173c-0.00377165,-0.0019252 -0.00572835,-0.00294094 -0.00170079,-0.000602362 0.000433071,0.000255906 0.00100787,0.000452756 0.00170079,0.000602362z"/>
  <path class="fil3" d="M3.23054 3.7077l-0.000153543 -8.66142e-005 -0.00019685 0.000240157c0.000192913,7.08661e-005 0.00100787,0.000515748 0.000350394,0.000129921l0.000125984 -0.000212598 -0.000125984 -7.08661e-005z"/>
  <path class="fil4" d="M1.90578 2.17561c0.000248031,-0.00130709 -0.000393701,-0.00281496 -0.00165354,-0.00336614 -0.0644055,-0.0281535 -0.117902,-0.076 -0.183661,-0.101406 -0.0594488,-0.0229843 -0.115268,-0.00144882 -0.171764,0.018748 -0.00247638,0.000877953 -0.00281496,0.0045 -0.000366142,0.00568898 0.0402126,0.0193937 0.0621732,0.0650669 0.0931535,0.0961378 0.0231378,0.0232165 0.0512598,0.0374055 0.0820906,0.0474409 0.0522205,0.0169961 0.127949,0.0349291 0.181146,0.0128228 0.000362205,-0.000141732 0.000625984,-0.000358268 0.000897638,-0.000598425 0.000417323,-0.00026378 0.000614173,-0.000625984 0.000811024,-0.00111024 4.33071e-005,-9.44882e-005 4.33071e-005,-0.00019685 7.48031e-005,-0.000271654 0.000102362,-0.000389764 0.00038189,-0.000653543 0.000287402,-0.00116142 -0.0044252,-0.0249409 -0.00598425,-0.0477559 -0.00101575,-0.0729252z"/>
  <path class="fil5" d="M1.85935 2.14034c-0.0424094,0.134969 -0.111209,0.261433 -0.185929,0.385642 -0.0660984,0.10989 0.071685,0.233917 0.212028,0.192819 -7.87402e-006,-3.93701e-006 0.495815,-0.0515079 0.456669,-0.496555l-0.437106 -0.146177 -0.0456614 0.0642717z"/>
  <path class="fil6" d="M1.66943 2.53316c-0.00785039,0.0151181 -0.0119803,0.0304173 -0.0128661,0.0454606 0.00711811,0.0207126 0.0244803,0.030122 0.0445787,0.0316063 0.0245827,0.0018189 0.0532677,-0.0082126 0.0722677,-0.0238898 0.0969685,-0.0800079 0.0521378,-0.126035 0.0118661,-0.0827795 -0.0185394,0.0199094 -0.0200039,0.0525512 -0.0573701,0.0592992 -0.0243031,0.00438583 -0.0512598,-0.00157087 -0.0582756,-0.0291339 -5.51181e-005,-0.000220472 -0.000125984,-0.000405512 -0.000200787,-0.000562992z"/>
  <path class="fil6" d="M2.20959 2.33837c-0.00250787,-0.00232677 -0.00511024,-0.00452756 -0.00777953,-0.00659843 0.000850394,0.00285039 0.00131496,0.00587402 0.00131496,0.009 0,0.0172835 -0.0140157,0.0312953 -0.0312992,0.0312953 -0.0172913,0 -0.0313031,-0.0140118 -0.0313031,-0.0312953 0,-0.0131732 0.00812992,-0.0244409 0.0196457,-0.029063 -0.0260591,-0.00616142 -0.0539134,-0.0020748 -0.0774882,0.0146457 -0.00689764,0.00487795 -0.0134094,-0.00644094 -0.00659449,-0.0112717 0.0342913,-0.0243268 0.077189,-0.0242992 0.112894,-0.00656693 0.0350591,-0.000728346 0.0697756,-0.00950394 0.101673,-0.0238583 -0.0089252,0.0268189 -0.0442244,0.0501496 -0.0730748,0.0544055 -0.00230315,0.00148031 -0.00541339,0.00169685 -0.00798425,-0.000692913l-3.93701e-006 0z"/>
  <path class="fil7" d="M4.82592 3.78639c0.0651772,-0.160839 0.202161,-0.302732 0.339626,-0.405925 0.00406299,-0.00305906 0.00986614,0.00109449 0.00981102,0.00562205 -0.00199213,0.168598 -0.10174,0.334606 -0.0620551,0.503461 0.0182165,0.0775236 0.0847992,0.130591 0.102598,0.207965 0.0154094,0.0669449 -0.0248307,0.135449 -0.050874,0.194232 -0.0196614,0.0443858 -0.0383346,0.0915787 -0.0372638,0.140925 0.000822835,0.037878 0.00851969,0.0713189 -0.000484252,0.109004 -0.0134252,0.0561929 -0.0777165,0.0495394 -0.122169,0.0430984 -0.0563543,-0.00818504 -0.0715354,-0.0575709 -0.0731417,-0.107138 -0.00261417,-0.080689 -0.00894488,-0.159417 -0.0167598,-0.239772 -0.0322047,-0.0688228 -0.0643898,-0.137661 -0.0965787,-0.206512 -0.0127087,-0.0271811 -0.0224843,-0.0462008 -0.0247047,-0.0763976 -0.00422441,-0.0576457 0.0105315,-0.115551 0.0319961,-0.168563z"/>
  <path class="fil4" d="M4.95397 4.54513c-0.021752,0.160217 -0.088811,0.111311 -0.0931772,0.276362 0.0260945,0.00970866 0.0930984,0.0220945 0.119193,0.0123701 0.0565354,-0.014563 0.0521929,-0.0317835 0.0739291,-0.099752 0.0260945,-0.0922441 0.0100748,-0.0428504 0.0405354,-0.158657l-0.14048 -0.0303228z"/>
  <path class="fil4" d="M4.66456 4.47087c-0.021748,0.14352 -0.143524,0.204421 -0.147882,0.352287 0.0260945,0.00869685 0.0930945,0.0197953 0.119193,0.0110945 0.0565315,-0.0130512 0.052189,-0.0284882 0.0739291,-0.0893819 0.0260945,-0.0826299 0.0489882,-0.113657 0.0939291,-0.20726l-0.139169 -0.0667402z"/>
  <path class="fil4" d="M3.0783 4.0736c0.0217402,0.104417 0.0130512,0.155594 0.0347874,0.264319 0.0260906,0.108736 0.121783,0.268496 0.0435039,0.352287l-0.0127362 0.0546575c-0.0217362,0.0608937 -0.0173937,0.0763307 -0.0739291,0.0893819 -0.0260945,0.00869685 -0.0930906,-0.00238976 -0.119189,-0.0110945 0.00187795,-0.0637598 0.0255709,-0.111335 0.0536732,-0.156346 0,-3.93701e-006 0.0477835,-0.068622 -0.00875197,-0.240067l-0.113386 -0.339965 0.196028 -0.0131732z"/>
  <path class="fil4" d="M2.80827 4.06562c0.0125866,0.0911496 0.0278543,0.178374 0.0466299,0.272303 0.0260945,0.108736 0.121787,0.268496 0.0435,0.352287l-0.0127283 0.0546575c-0.0217441,0.0608937 -0.0174016,0.0763307 -0.0739291,0.0893819 -0.0260945,0.00869685 -0.0930984,-0.00238976 -0.119193,-0.0110945 0.00187795,-0.0637598 0.0255748,-0.111335 0.0536772,-0.156346 0,-3.93701e-006 0.0477795,-0.068622 -0.00875591,-0.240067l-0.151016 -0.392154 0.221815 0.0310315z"/>
  <path class="fil7" d="M2.43114 3.75632c1.5748e-005,-0.000122047 5.11811e-005,-0.000208661 7.48031e-005,-0.000311024 0.000106299,-0.000240157 0.000169291,-0.000472441 0.000307087,-0.00069685 0.000452756,-0.00123622 0.00124016,-0.00238189 0.00270079,-0.00321654 0.0646496,-0.0369055 0.129315,-0.0737874 0.193976,-0.110677 0.0028622,-0.00164173 0.0074252,-0.000913386 0.0089252,0.00234252 0.0646654,0.139165 0.129331,0.278343 0.193996,0.417524 0.0020315,0.00438189 -0.000338583,0.00978346 -0.0056378,0.00980709 -0.0879331,0.000433071 -0.215299,0.0156378 -0.27622,-0.0654685 -0.053874,-0.0717087 -0.0464331,-0.183173 -0.116362,-0.243291 -0.00212205,-0.00182283 -0.0024252,-0.00404331 -0.00175984,-0.00601181z"/>
  <path class="fil8" d="M2.39184 3.51657c0.00201969,0.11248 0.0752205,0.201469 0.177878,0.241618 0.00775197,0.00302362 0.00437795,0.0156575 -0.00347244,0.0125748 -0.108205,-0.042311 -0.185319,-0.135539 -0.187449,-0.254193 -0.000165354,-0.00842126 0.0128858,-0.00840551 0.0130433,0l0 0z"/>
  <path class="fil8" d="M4.27048 3.45306c-0.0500157,0.129626 -0.0372913,0.269512 0.0384882,0.386409 0.00459449,0.00707874 -0.00670472,0.0136102 -0.0112717,0.00659055 -0.0774764,-0.119504 -0.0909567,-0.263862 -0.0397953,-0.396472 0.003,-0.00775984 0.0156142,-0.00438583 0.0125787,0.00347244l0 0z"/>
  <path class="fil9" d="M2.28736 2.20445c-0.0161142,-0.00540551 -0.0341575,-0.00609843 -0.050748,-0.00952362 -0.0323071,-0.00668504 -0.0629882,0.0132874 -0.0952913,0.00541339 -0.0625945,-0.0152992 -0.075626,-0.0959055 -0.152516,-0.0717402 -0.0426811,0.0134134 -0.142472,0.0581929 -0.166732,-0.0078937 -0.020378,-0.0554724 0.0140472,-0.141602 0.0601024,-0.17511 0.10411,-0.0757205 0.266047,-0.0954449 0.377705,-0.0352559 0.0391969,0.021122 0.0742953,0.0450906 0.117185,0.0585984 0.0358031,0.0112677 0.0711024,0.0217362 0.100783,0.0455709 0.0494882,0.0397323 0.0853031,0.14674 0.118071,0.199362 0.0465118,0.0747323 0.105055,0.121992 0.194228,0.133528 0.0896614,0.0115984 0.180618,-0.00660236 0.270618,-0.00118898 0.0885039,0.0053189 0.175681,0.0417913 0.261323,0.0628386 0.0999764,0.0245945 0.19848,0.0284961 0.300917,0.0244409 0.0495433,-0.00195669 0.099063,-0.00499606 0.148594,-0.00737402 0.0434724,-0.00209055 0.0894528,-0.00720079 0.132787,-0.00225984 0.0869173,0.00991732 0.175732,0.00487402 0.262929,0.00109449 0.191886,-0.00829921 0.385528,-0.0301496 0.574,0.0191969 0.141677,0.0370827 0.280059,0.119921 0.377791,0.229264 0.0855709,0.0957402 0.133949,0.218484 0.150728,0.344839 0.00792913,0.0597677 0.0144331,0.124106 0.00666535,0.184224 -0.00575197,0.044437 -0.0358543,0.0490669 -0.0694016,0.0324685 -0.0193307,0.0856457 -0.0309488,0.171465 -0.0727795,0.25013 -0.0451654,0.0849646 -0.0993386,0.163343 -0.147799,0.246354 -0.0254803,0.0436693 -0.0487795,0.0893622 -0.0535591,0.14035 -0.00429134,0.0457717 0.00959055,0.0919882 0.020311,0.135972 0.00951575,0.0390236 0.0173307,0.0767126 0.0137047,0.117039 -0.00301575,0.0335551 -0.0158819,0.0652244 -0.0292362,0.0957559 -0.0116299,0.0265748 -0.0364094,0.061626 -0.0374921,0.0904961 -0.000523622,0.0139016 -0.00159055,0.0277835 -0.00286614,0.0416417 -0.00409843,0.044622 -0.0110394,0.0899764 -0.0269291,0.132051 -0.0109685,0.0290472 -0.0304567,0.0614843 -0.0651417,0.061689 -0.0205315,0.000122047 -0.0465866,-0.00658268 -0.0660709,-0.0125236 -0.034122,-0.0103898 -0.0665433,-0.0299055 -0.0838031,-0.0620394 -0.0264449,-0.0492717 0.00611417,-0.0966457 0.0168858,-0.144453 0.011689,-0.0518661 0.0242795,-0.126291 -0.015815,-0.168772 -0.0221575,-0.0234646 -0.0572441,-0.0338465 -0.0862717,-0.0455276 -0.0305236,-0.0122756 -0.0598307,-0.0270709 -0.0857244,-0.047626 -0.0657913,-0.052185 -0.105598,-0.12887 -0.16074,-0.191079 -0.00791732,-0.0089252 -0.00708661,-0.0147441 -0.0181614,-0.0137795 -0.0149016,0.0012874 -0.0297087,0.00642126 -0.0438386,0.0109488 -0.0476614,0.0152756 -0.0939567,0.0355669 -0.141161,0.0522795 -0.169165,0.059878 -0.344894,0.0949449 -0.524508,0.0703976 -0.0810512,-0.0110945 -0.154878,-0.0330276 -0.229315,-0.0670039 -0.0739173,-0.033748 -0.138697,-0.0890512 -0.219087,-0.106988 -0.00712205,0.0545945 0.0100748,0.108819 -0.000858268,0.164476 -0.00779921,0.0397677 -0.0318858,0.0724134 -0.0685906,0.0895984 -0.0357953,0.016752 -0.0778701,0.0173937 -0.116598,0.0170512 -0.0585039,-0.000515748 -0.107421,-0.00387402 -0.160602,-0.0317559 -0.028185,-0.0147874 -0.0587165,-0.0323701 -0.080937,-0.0555433 -0.0215906,-0.0225118 -0.0353622,-0.0527283 -0.0485748,-0.0805315 -0.0140236,-0.0295 -0.0266575,-0.0596181 -0.0425472,-0.0882008 -0.0204488,-0.0367638 -0.0492598,-0.0567835 -0.0900157,-0.0670276 -0.076685,-0.0192874 -0.157476,-0.000185039 -0.233945,-0.0243228 -0.0623819,-0.0196772 -0.119839,-0.0736102 -0.158272,-0.124906 -0.0988504,-0.131902 -0.0614606,-0.298469 -0.0713307,-0.450449 -0.00306693,-0.0472835 -0.0145236,-0.0931969 -0.0391693,-0.133917 -0.0255079,-0.0421614 -0.0688701,-0.0649134 -0.106575,-0.0941969 -0.0287598,-0.0223268 -0.0554685,-0.0476063 -0.0614685,-0.0849764 -0.00660236,-0.0409724 0.0184252,-0.0746969 -0.00633071,-0.113594 -0.00658661,-0.000988189 -0.00883465,-0.0113071 -0.00131496,-0.0124882 0.157669,-0.0247677 0.296878,-0.122307 0.386705,-0.25222 0.039063,-0.0564921 0.154354,-0.234524 0.0400827,-0.272803z"/>
  <path class="fil4" d="M2.41651 2.27117c0,-0.00139764 0.000980315,-0.00283858 0.00238976,-0.00315354 0.0724331,-0.0159213 0.137594,-0.0544724 0.21087,-0.0673031 0.0662244,-0.0115906 0.119591,0.0221457 0.173909,0.054622 0.00238976,0.00142126 0.002,0.00524016 -0.000783465,0.00595669 -0.0456024,0.0118228 -0.077689,0.0545984 -0.116094,0.0804055 -0.0287362,0.0192835 -0.0607362,0.0281929 -0.0946929,0.0322677 -0.0575157,0.00688189 -0.139587,0.00992913 -0.190102,-0.0238543 -0.00034252,-0.00023622 -0.000586614,-0.000507874 -0.000791339,-0.000807087 -0.000389764,-0.000362205 -0.000531496,-0.000779528 -0.000633858,-0.0013189 -1.5748e-005,-0.000102362 0,-0.00019685 -1.1811e-005,-0.000299213 -3.54331e-005,-0.000417323 -0.000244094,-0.000755906 -6.29921e-005,-0.00125197 0.00968504,-0.0249094 0.0159843,-0.048185 0.0160039,-0.0752638z"/>
  <path class="fil10" d="M2.52884 2.56407c-0.0139252,0.0620984 -0.0382441,0.119685 -0.0733307,0.169488 -0.0177677,0.0246929 -0.0372362,0.0480669 -0.0594134,0.0687638 -0.0218622,0.0209528 -0.0455236,0.0400945 -0.0709803,0.0566772 -0.0250709,0.0171535 -0.0518386,0.0318858 -0.0795551,0.0446772 -0.0275315,0.0132677 -0.0564567,0.0235354 -0.0857756,0.032815 -0.0589528,0.0177441 -0.120547,0.0275945 -0.184138,0.0288898 0.0620118,0.0150079 0.128201,0.0137835 0.191614,0.000728346 0.0319055,-0.00617717 0.0629134,-0.0164016 0.0932008,-0.0285118 0.0300866,-0.0125945 0.059,-0.0281339 0.0864134,-0.0460984 0.027,-0.0185236 0.0525827,-0.0393622 0.0753543,-0.0630551 0.0224567,-0.0239449 0.0429803,-0.049937 0.0589921,-0.0785866 0.0328386,-0.0567362 0.0499409,-0.122106 0.0476181,-0.185787z"/>
  <path class="fil11" d="M2.41506 2.19551c0.00589764,0.0218346 0.00793307,0.0419016 0.00793307,0.0621102 5.51181e-005,0.0201024 -0.00180315,0.04 -0.00508268,0.0597402 -0.0033189,0.0197244 -0.00787795,0.0392756 -0.0140866,0.0585669 -0.00621654,0.0193937 -0.0138937,0.0381496 -0.025311,0.057685 0.0213031,-0.0086811 0.0379094,-0.0266614 0.05,-0.0460787 0.0120551,-0.0197323 0.0198976,-0.0418228 0.023626,-0.0645512 0.00372441,-0.0227323 0.00332677,-0.046315 -0.00218504,-0.0689213 -0.00566142,-0.0223504 -0.0166496,-0.0445512 -0.0348937,-0.0585512z"/>
  <path class="fil12" d="M5.1115 3.02943c-0.00622441,0.0205039 -0.00564173,0.0426693 -0.00206299,0.0636614 0.00364961,0.0211102 0.0104173,0.0415827 0.0196575,0.0608189 0.00920079,0.0192598 0.0209764,0.0372992 0.0351772,0.0533661 0.0141378,0.0158583 0.0312756,0.0304291 0.0516142,0.0374488 -0.0139803,-0.0159528 -0.0248465,-0.0324961 -0.0352402,-0.0495591 -0.010252,-0.0170945 -0.0193622,-0.0347323 -0.0280394,-0.0525551 -0.00854331,-0.0179016 -0.0166102,-0.0360354 -0.023563,-0.0547402 -0.00688189,-0.0187598 -0.0129173,-0.0377205 -0.0175433,-0.0584409z"/>
  <path class="fil12" d="M4.22076 3.44706c-0.0135512,0.0364606 -0.0209764,0.0752717 -0.0234409,0.114425 -0.0026378,0.0392047 0.000311024,0.078874 0.00815354,0.11763 0.00831102,0.0386299 0.0216181,0.0764606 0.0412874,0.110811 0.0193937,0.0343819 0.0447835,0.0655118 0.0755709,0.0893898 -0.0229016,-0.0314173 -0.042189,-0.0641299 -0.0574016,-0.0985472 -0.0150315,-0.0344409 -0.0264724,-0.0702638 -0.033937,-0.106992 -0.00792126,-0.0366654 -0.0118504,-0.074189 -0.0134016,-0.112004 -0.00137008,-0.0378622 0.000181102,-0.0759646 0.00316929,-0.114713z"/>
  <path class="fil12" d="M3.30765 3.56025c-0.00223228,0.0142953 -0.0048937,0.0279961 -0.00919685,0.0411102 -0.00403543,0.013122 -0.00935433,0.0256654 -0.0155,0.0376575 -0.0123346,0.0239961 -0.0286417,0.0456102 -0.0468268,0.0657205l0.000854331 -0.000830709c-0.0180315,0.0160472 -0.0401693,0.0313504 -0.0589094,0.0507638 -0.00948425,0.00961811 -0.0182087,0.0205118 -0.0245827,0.0329606 -0.00619685,0.0123819 -0.00942126,0.0271614 -0.00566929,0.0400945 0.00189764,-0.0132323 0.00803937,-0.0241535 0.0160315,-0.033374 0.00786614,-0.0093622 0.0175354,-0.0171693 0.0273976,-0.0248543 0.0100906,-0.00745669 0.0204488,-0.0147874 0.0311378,-0.0221063 0.0106929,-0.00733071 0.0214213,-0.0149016 0.0319921,-0.0241654l0.000334646 -0.000314961 0.000511811 -0.000535433c0.0201969,-0.0215 0.0367953,-0.0470197 0.0468504,-0.0751535 0.00505118,-0.0140394 0.00819685,-0.0287283 0.00933465,-0.0434606 0.000870079,-0.0147598 5.11811e-005,-0.0295157 -0.00375984,-0.0435118z"/>
  <path class="fil13" d="M2.41522 2.19255c0.0458189,0.0675039 0.0208268,0.1945 -0.0374528,0.244016l0.0374528 -0.244016z"/>
 </g>
</svg>
