#00000000<?xml version="1.0" encoding="UTF-8"?>
<!DOCTYPE svg PUBLIC "-//W3C//DTD SVG 1.1//EN" "http://www.w3.org/Graphics/SVG/1.1/DTD/svg11.dtd">
<!-- Creator: CorelDRAW -->
<svg xmlns="http://www.w3.org/2000/svg" xml:space="preserve" width="6.82666in" height="6.82666in" style="shape-rendering:geometricPrecision; text-rendering:geometricPrecision; image-rendering:optimizeQuality; fill-rule:evenodd; clip-rule:evenodd"
viewBox="0 0 6.82666 6.82666"
 xmlns:xlink="http://www.w3.org/1999/xlink">
 <defs>
  <style type="text/css">
   <![CDATA[
    .fil2 {fill:none}
    .fil1 {fill:#00000000}
    .fil0 {fill:#00000000}
    .fil8 {fill:#BA68C8}
    .fil9 {fill:#F3E5F5}
    .fil3 {fill:#660404;fill-rule:nonzero}
    .fil5 {fill:#7D0E0E;fill-rule:nonzero}
    .fil4 {fill:#B71C1C;fill-rule:nonzero}
    .fil7 {fill:#D32F2F;fill-rule:nonzero}
    .fil6 {fill:#F57C00;fill-rule:nonzero}
   ]]>
  </style>
   <clipPath id="id0">
    <path d="M3.41333 -3.93701e-006c1.88513,0 3.41333,1.5282 3.41333,3.41333 0,1.88513 -1.5282,3.41333 -3.41333,3.41333 -1.88513,0 -3.41333,-1.5282 -3.41333,-3.41333 0,-1.88513 1.5282,-3.41333 3.41333,-3.41333z"/>
   </clipPath>
 </defs>
 <g id="Layer_x0020_1">
  <metadata id="CorelCorpID_0Corel-Layer"/>
  <path class="fil0" d="M3.41333 -3.93701e-006c1.88513,0 3.41333,1.5282 3.41333,3.41333 0,1.88513 -1.5282,3.41333 -3.41333,3.41333 -1.88513,0 -3.41333,-1.5282 -3.41333,-3.41333 0,-1.88513 1.5282,-3.41333 3.41333,-3.41333z"/>
  <g style="clip-path:url(#id0)">
   <g id="_637657816">
    <g>
     <polygon id="_4602151441" class="fil1" points="2.82212,1.56864 6.60839,5.35491 6.68926,5.78621 2.90299,1.99994 "/>
     <polygon id="_460215120" class="fil1" points="2.8148,1.55468 6.60107,5.34095 6.60436,5.34499 6.60684,5.34967 6.60839,5.35491 2.82212,1.56864 2.82057,1.5634 2.81809,1.55872 "/>
     <polygon id="_460217112" class="fil1" points="3.50709,2.42345 7.29335,6.20972 7.29513,6.2129 7.29677,6.21619 7.29831,6.21957 7.29978,6.22304 7.30122,6.22658 7.30265,6.23017 7.30413,6.23378 7.30568,6.23742 3.51941,2.45115 3.51786,2.44751 3.51639,2.44389 3.51495,2.44031 3.51351,2.43677 3.51204,2.4333 3.5105,2.42992 3.50887,2.42663 "/>
     <polygon id="_460217520" class="fil1" points="3.51941,2.45115 7.30568,6.23742 7.3068,6.24121 7.30798,6.24504 7.30918,6.2489 7.31037,6.2528 7.31149,6.25674 7.31254,6.26074 7.31345,6.2648 7.31421,6.2689 3.52794,2.48263 3.52719,2.47852 3.52627,2.47447 3.52522,2.47047 3.5241,2.46653 3.52291,2.46263 3.52172,2.45876 3.52054,2.45494 "/>
     <polygon id="_460217232" class="fil1" points="2.90299,1.99994 6.68926,5.78621 6.68954,5.78781 2.90327,2.00154 "/>
     <polygon id="_460217544" class="fil1" points="4.04999,1.55444 7.83626,5.34071 7.83957,5.34468 7.84207,5.3492 7.84366,5.35416 7.84427,5.35943 7.8438,5.36487 4.05753,1.57859 4.058,1.57315 4.05739,1.56789 4.0558,1.56293 4.0533,1.55841 "/>
     <polygon id="_460217736" class="fil1" points="4.05753,1.57859 7.8438,5.36487 7.76326,5.79441 3.977,2.00814 "/>
     <polygon id="_460217688" class="fil1" points="5.00185,2.56714 8.78811,6.35341 8.52239,6.51284 4.73613,2.72657 "/>
     <polygon id="_460218288" class="fil1" points="3.47329,2.37479 7.25956,6.16106 7.26261,6.16446 7.26583,6.16825 7.26918,6.17239 7.27262,6.17685 7.27609,6.18159 7.27955,6.18657 3.49328,2.4003 3.48982,2.39532 3.48635,2.39058 3.48291,2.38612 3.47956,2.38198 3.47634,2.37819 "/>
     <polygon id="_460217856" class="fil1" points="3.92318,2.84227 7.70945,6.62854 7.70871,6.63971 3.92244,2.85344 "/>
     <polygon id="_460218360" class="fil1" points="2.90327,2.00154 6.68954,5.78781 6.68965,5.78945 2.90338,2.00318 "/>
     <polygon id="_460218048" class="fil1" points="2.90338,2.00318 6.68965,5.78945 6.7427,6.61175 2.95643,2.82548 "/>
     <polygon id="_460217904" class="fil1" points="3.33408,2.35918 7.12035,6.14545 7.12118,6.14648 7.12178,6.1476 7.12217,6.14879 7.12234,6.15002 7.12229,6.15126 7.12202,6.15248 7.12153,6.15363 7.12082,6.15471 3.33456,2.36844 3.33526,2.36736 3.33575,2.3662 3.33602,2.36499 3.33607,2.36375 3.33591,2.36252 3.33552,2.36133 3.33491,2.3602 "/>
     <polygon id="_460218312" class="fil1" points="3.33456,2.36844 7.12082,6.15471 7.11168,6.16608 3.32541,2.37981 "/>
     <polygon id="_460218336" class="fil1" points="3.32541,2.37981 7.11168,6.16608 7.11051,6.16746 7.10933,6.16893 7.10815,6.17047 7.10698,6.17209 7.1058,6.17378 7.10462,6.17554 7.10345,6.17738 7.10229,6.17928 3.31602,2.39301 3.31719,2.39111 3.31835,2.38927 3.31953,2.38751 3.32071,2.38581 3.32189,2.3842 3.32307,2.38266 3.32424,2.38119 "/>
     <polygon id="_460218000" class="fil1" points="3.31602,2.39301 7.10229,6.17928 7.10104,6.18121 7.09975,6.1832 7.09844,6.18527 7.09711,6.18741 7.0958,6.18963 7.09449,6.19196 7.09322,6.1944 7.09198,6.19695 3.30571,2.41068 3.30695,2.40813 3.30822,2.40569 3.30953,2.40336 3.31085,2.40113 3.31217,2.399 3.31348,2.39693 3.31477,2.39494 "/>
     <polygon id="_460218072" class="fil1" points="3.30571,2.41068 7.09198,6.19695 7.09061,6.19948 7.08928,6.20207 7.08798,6.20475 7.08672,6.2075 7.0855,6.21033 7.08431,6.21322 7.08316,6.21618 7.08205,6.2192 3.29578,2.43293 3.29689,2.42991 3.29804,2.42695 3.29923,2.42406 3.30045,2.42123 3.30172,2.41848 3.30302,2.4158 3.30435,2.4132 "/>
     <polygon id="_460217976" class="fil1" points="3.29578,2.43293 7.08205,6.2192 7.0808,6.2222 7.07969,6.22529 7.07868,6.22846 7.07775,6.23169 7.07686,6.23497 7.07596,6.23828 7.07504,6.24161 7.07405,6.24494 3.28778,2.45867 3.28877,2.45534 3.2897,2.45201 3.29059,2.4487 3.29148,2.44542 3.29241,2.44219 3.29342,2.43902 3.29453,2.43593 "/>
     <polygon id="_460218216" class="fil1" points="3.28778,2.45867 7.07405,6.24494 7.07346,6.24841 7.07283,6.25189 7.07219,6.25539 7.07156,6.25891 7.07098,6.26246 7.0705,6.26603 7.07014,6.26964 7.06993,6.27329 3.28366,2.48702 3.28387,2.48337 3.28423,2.47976 3.28472,2.47619 3.28529,2.47264 3.28592,2.46912 3.28656,2.46562 3.2872,2.46214 "/>
     <polygon id="_460218552" class="fil1" points="3.28366,2.48702 7.06993,6.27329 7.06956,6.27691 7.06933,6.28056 7.06922,6.28421 7.06919,6.28787 7.06923,6.29154 7.06929,6.29521 7.06935,6.29888 7.06939,6.30254 3.28312,2.51627 3.28309,2.51261 3.28302,2.50894 3.28296,2.50527 3.28293,2.5016 3.28295,2.49794 3.28306,2.49428 3.28329,2.49064 "/>
     <polygon id="_460219104" class="fil1" points="3.28312,2.51627 7.06939,6.30254 7.06982,6.30619 7.07022,6.30982 7.07062,6.31345 7.07104,6.31706 7.07153,6.32065 7.07209,6.32421 7.07278,6.32775 7.0736,6.33125 3.28733,2.54498 3.28651,2.54148 3.28583,2.53794 3.28526,2.53437 3.28478,2.53079 3.28435,2.52718 3.28395,2.52355 3.28355,2.51992 "/>
     <polygon id="_460218696" class="fil1" points="3.28733,2.54498 7.0736,6.33125 7.07426,6.33475 7.07507,6.33819 7.07599,6.34159 7.077,6.34494 7.07804,6.34826 7.0791,6.35155 7.08013,6.3548 7.0811,6.35803 3.29483,2.57176 3.29386,2.56853 3.29283,2.56528 3.29177,2.56199 3.29073,2.55867 3.28972,2.55531 3.2888,2.55192 3.28799,2.54848 "/>
     <polygon id="_460218600" class="fil1" points="3.29483,2.57176 7.0811,6.35803 7.08247,6.36111 7.08376,6.36417 7.08501,6.3672 7.08626,6.3702 7.08753,6.37314 7.08886,6.37601 7.09028,6.37879 7.09184,6.38147 3.30557,2.5952 3.30402,2.59252 3.30259,2.58974 3.30126,2.58687 3.29999,2.58393 3.29874,2.58093 3.29749,2.57789 3.2962,2.57483 "/>
     <polygon id="_460219032" class="fil1" points="3.30557,2.5952 7.09184,6.38147 7.09324,6.38417 7.09466,6.3868 7.09611,6.38936 7.09759,6.39184 7.0991,6.39425 7.10063,6.39658 7.10218,6.39884 7.10376,6.40102 3.31749,2.61474 3.31591,2.61257 3.31436,2.61031 3.31283,2.60798 3.31133,2.60557 3.30985,2.60309 3.30839,2.60053 3.30697,2.5979 "/>
     <polygon id="_460219272" class="fil1" points="3.31749,2.61474 7.10376,6.40102 7.10518,6.40321 7.10665,6.40531 7.10814,6.40732 7.10965,6.40924 7.11116,6.41109 7.11265,6.41286 7.11411,6.41457 7.11553,6.41622 3.32926,2.62994 3.32784,2.6283 3.32638,2.62659 3.32489,2.62481 3.32338,2.62297 3.32187,2.62105 3.32038,2.61904 3.31891,2.61694 "/>
     <polygon id="_460219152" class="fil1" points="3.32926,2.62994 7.11553,6.41622 7.11635,6.41724 7.11716,6.41824 7.11797,6.41921 7.11877,6.42014 7.11957,6.42104 7.12035,6.42192 7.12113,6.42276 7.12191,6.42356 3.33564,2.63729 3.33487,2.63648 3.33409,2.63565 3.3333,2.63477 3.3325,2.63387 3.3317,2.63294 3.33089,2.63197 3.33008,2.63097 "/>
     <polygon id="_460219128" class="fil1" points="3.52794,2.48263 7.31421,6.2689 7.31511,6.27301 7.31586,6.27715 7.31648,6.28133 7.31702,6.28553 7.31748,6.28976 7.31791,6.294 7.31833,6.29826 7.31876,6.30254 3.53249,2.51627 3.53206,2.51199 3.53165,2.50773 3.53122,2.50348 3.53075,2.49926 3.53022,2.49506 3.52959,2.49088 3.52884,2.48674 "/>
     <polygon id="_460218720" class="fil1" points="3.53249,2.51627 7.31876,6.30254 7.31879,6.30682 7.31885,6.31111 7.31889,6.3154 7.31889,6.31969 7.31881,6.32396 7.31864,6.32824 7.31834,6.33249 7.31788,6.33673 3.53161,2.55046 3.53207,2.54622 3.53237,2.54196 3.53255,2.53769 3.53262,2.53341 3.53262,2.52913 3.53258,2.52483 3.53252,2.52055 "/>
     <polygon id="_460218816" class="fil1" points="3.53161,2.55046 7.31788,6.33673 7.31757,6.34097 7.3171,6.34517 7.3165,6.34934 7.3158,6.35347 7.31504,6.35757 7.31424,6.36165 7.31345,6.3657 7.3127,6.36974 3.52644,2.58346 3.52719,2.57943 3.52797,2.57537 3.52877,2.5713 3.52953,2.5672 3.53023,2.56307 3.53083,2.5589 3.53131,2.5547 "/>
     <polygon id="_460219632" class="fil1" points="3.52644,2.58346 7.3127,6.36974 7.31155,6.37363 7.31045,6.37752 7.30937,6.38137 7.30828,6.38519 7.30714,6.38896 7.30593,6.39265 7.3046,6.39625 7.30313,6.39975 3.51686,2.61348 3.51833,2.60998 3.51966,2.60637 3.52087,2.60269 3.52201,2.59892 3.5231,2.5951 3.52418,2.59124 3.52528,2.58736 "/>
     <polygon id="_460219920" class="fil1" points="3.51686,2.61348 7.30313,6.39975 7.30181,6.40326 7.30044,6.40668 7.29903,6.41004 7.29757,6.41331 7.29607,6.4165 7.29454,6.41961 7.29296,6.42263 7.29135,6.42556 3.50509,2.63929 3.5067,2.63635 3.50827,2.63333 3.50981,2.63022 3.5113,2.62704 3.51276,2.62376 3.51417,2.62041 3.51554,2.61698 "/>
     <polygon id="_460219848" class="fil1" points="3.50509,2.63929 7.29135,6.42556 7.2904,6.42748 7.28943,6.42935 7.28844,6.43117 7.28743,6.43295 7.28641,6.43468 7.28539,6.43637 7.28436,6.43802 7.28333,6.43964 3.49707,2.65337 3.49809,2.65175 3.49912,2.6501 3.50015,2.64841 3.50116,2.64668 3.50217,2.6449 3.50316,2.64308 3.50413,2.64121 "/>
     <polygon id="_460219872" class="fil1" points="3.58436,2.71354 7.37063,6.49981 7.37722,6.50686 7.38357,6.51415 7.38966,6.52166 7.39548,6.52939 7.40102,6.53733 7.40629,6.54548 7.41126,6.55382 7.41594,6.56235 7.42032,6.57107 7.42439,6.57997 7.42813,6.58904 7.43156,6.59826 7.43466,6.60764 7.43742,6.61717 7.43983,6.62685 7.44189,6.63665 7.44359,6.64659 7.44493,6.65664 7.44589,6.66681 7.44648,6.67708 7.44667,6.68745 3.66041,2.90118 3.66021,2.89081 3.65963,2.88054 3.65866,2.87037 3.65733,2.86031 3.65563,2.85038 3.65356,2.84057 3.65115,2.8309 3.64839,2.82137 3.6453,2.81199 3.64187,2.80276 3.63812,2.7937 3.63405,2.7848 3.62967,2.77608 3.62499,2.76755 3.62002,2.7592 3.61476,2.75106 3.60921,2.74312 3.60339,2.73539 3.5973,2.72788 3.59096,2.72059 "/>
     <polygon id="_460219704" class="fil1" points="3.66041,2.90118 7.44667,6.68745 7.44664,6.69188 7.44653,6.69629 7.44635,6.70069 7.44611,6.70506 7.44579,6.70942 7.44541,6.71375 7.44495,6.71807 7.44443,6.72237 7.44384,6.72664 7.44319,6.73089 7.44247,6.73513 7.44169,6.73933 7.44083,6.74352 7.43992,6.74768 7.43894,6.75182 7.4379,6.75593 3.65163,2.96966 3.65267,2.96555 3.65365,2.96141 3.65457,2.95725 3.65542,2.95306 3.6562,2.94885 3.65692,2.94462 3.65757,2.94037 3.65817,2.93609 3.65869,2.9318 3.65914,2.92748 3.65952,2.92315 3.65984,2.91879 3.66009,2.91441 3.66026,2.91002 3.66037,2.90561 "/>
     <polygon id="_460219296" class="fil1" points="3.91258,2.86202 7.69885,6.64829 7.3744,6.92996 3.58813,3.14369 "/>
     <polygon id="_460219968" class="fil1" points="3.82778,3.30214 7.61404,7.08841 7.62151,7.0967 7.62883,7.10513 7.63598,7.11369 7.64298,7.1224 7.64982,7.13123 7.65649,7.1402 7.663,7.1493 7.66934,7.15852 7.6755,7.16787 7.6815,7.17733 7.68732,7.18693 7.69296,7.19663 7.69843,7.20645 7.70371,7.21639 7.70881,7.22644 7.71372,7.23659 7.71844,7.24685 7.72297,7.25722 7.72731,7.26769 7.73146,7.27825 7.7354,7.28892 7.73915,7.29968 7.74269,7.31053 7.74604,7.32147 7.74917,7.3325 7.75209,7.34362 7.75481,7.35482 7.75731,7.36611 7.75959,7.37747 7.76166,7.38891 7.76351,7.40043 7.76514,7.41202 3.97887,3.62574 3.97724,3.61416 3.97539,3.60264 3.97333,3.5912 3.97104,3.57983 3.96854,3.56855 3.96583,3.55735 3.9629,3.54623 3.95977,3.5352 3.95643,3.52426 3.95288,3.51341 3.94913,3.50265 3.94519,3.49198 3.94104,3.48141 3.9367,3.47094 3.93217,3.46058 3.92745,3.45032 3.92254,3.44017 3.91744,3.43012 3.91216,3.42018 3.9067,3.41036 3.90106,3.40065 3.89523,3.39106 3.88924,3.38159 3.88307,3.37225 3.87673,3.36302 3.87022,3.35393 3.86355,3.34496 3.85672,3.33613 3.84972,3.32742 3.84256,3.31885 3.83524,3.31043 "/>
     <polygon id="_460219320" class="fil1" points="3.91417,3.27857 7.70044,7.06484 7.69592,7.06592 7.69141,7.06702 7.6869,7.06814 7.68239,7.06928 7.67789,7.07044 7.67339,7.07162 7.6689,7.07281 7.66441,7.07402 7.65993,7.07524 7.65544,7.07648 7.65096,7.07772 7.64649,7.07898 7.64202,7.08024 7.63756,7.08151 7.63309,7.08279 7.62863,7.08407 3.84236,3.2978 3.84682,3.29652 3.85129,3.29524 3.85575,3.29397 3.86022,3.2927 3.8647,3.29145 3.86918,3.2902 3.87366,3.28897 3.87814,3.28775 3.88263,3.28654 3.88713,3.28535 3.89162,3.28417 3.89612,3.28301 3.90063,3.28187 3.90514,3.28075 3.90965,3.27965 "/>
     <polygon id="_460219368" class="fil1" points="4.38157,3.7603 8.16784,7.54657 8.16541,7.54603 8.16296,7.54552 8.16048,7.54504 8.15799,7.54457 8.1555,7.54411 8.153,7.54365 8.15051,7.54318 8.14804,7.5427 4.36177,3.75643 4.36424,3.75691 4.36673,3.75737 4.36923,3.75783 4.37172,3.7583 4.37422,3.75876 4.37669,3.75925 4.37915,3.75976 "/>
     <polygon id="_460219440" class="fil1" points="4.36177,3.75643 8.14804,7.5427 8.14311,7.54171 8.13816,7.54076 8.13319,7.53985 8.12819,7.53899 8.12316,7.53818 8.11809,7.53744 8.11297,7.53678 8.1078,7.53619 4.32154,3.74992 4.3267,3.7505 4.33182,3.75117 4.33689,3.75191 4.34192,3.75272 4.34692,3.75358 4.35189,3.75449 4.35684,3.75544 "/>
     <polygon id="_460219608" class="fil1" points="3.84236,3.2978 7.62863,7.08407 7.62681,7.0846 7.62499,7.08514 7.62317,7.08568 7.62134,7.08622 7.61952,7.08677 7.61769,7.08731 7.61587,7.08786 7.61404,7.08841 3.82778,3.30214 3.8296,3.30159 3.83143,3.30104 3.83325,3.3005 3.83507,3.29995 3.8369,3.29941 3.83872,3.29887 3.84054,3.29833 "/>
     <polygon id="_460220424" class="fil1" points="4.40004,3.76566 8.1863,7.55193 8.16784,7.54657 4.38157,3.7603 "/>
     <polygon id="_460220472" class="fil1" points="4.28041,3.74512 8.06668,7.53139 8.0615,7.53091 8.05631,7.53043 8.05112,7.52998 8.04592,7.52954 8.04072,7.52912 8.03551,7.52872 8.0303,7.52833 8.02509,7.52796 8.01987,7.52761 8.01464,7.52728 8.00941,7.52695 8.00418,7.52665 7.99894,7.52636 7.9937,7.52609 7.98846,7.52583 7.9832,7.52558 4.19694,3.73931 4.20219,3.73956 4.20743,3.73981 4.21268,3.74009 4.21791,3.74038 4.22315,3.74068 4.22837,3.741 4.2336,3.74134 4.23882,3.74169 4.24404,3.74206 4.24924,3.74245 4.25445,3.74285 4.25965,3.74327 4.26485,3.7437 4.27004,3.74416 4.27523,3.74463 "/>
     <polygon id="_460220280" class="fil1" points="4.19694,3.73931 7.9832,7.52558 7.97796,7.52533 7.97272,7.52509 7.96747,7.52486 7.96222,7.52464 7.95696,7.52444 7.9517,7.52424 7.94644,7.52406 7.94118,7.52389 7.93591,7.52373 7.93065,7.52358 7.92538,7.52344 7.92011,7.52331 7.91484,7.52318 7.90957,7.52307 7.9043,7.52296 7.89904,7.52286 4.11277,3.73659 4.11804,3.73669 4.12331,3.7368 4.12857,3.73691 4.13384,3.73704 4.13911,3.73717 4.14438,3.73731 4.14965,3.73746 4.15491,3.73762 4.16017,3.73779 4.16544,3.73797 4.17069,3.73817 4.17595,3.73837 4.1812,3.73859 4.18645,3.73881 4.1917,3.73906 "/>
     <polygon id="_460220544" class="fil1" points="4.11277,3.73659 7.89904,7.52286 7.89496,7.5228 7.89087,7.52274 7.8868,7.52268 7.88271,7.52263 7.87863,7.52258 7.87454,7.52254 7.87046,7.5225 7.86637,7.52247 7.86229,7.52244 7.8582,7.52241 7.85411,7.52238 7.85002,7.52236 7.84593,7.52235 7.84185,7.52233 7.83776,7.52233 7.83367,7.52232 7.82957,7.52232 7.82548,7.52232 7.82139,7.52233 7.8173,7.52234 7.8132,7.52235 7.80911,7.52237 7.80501,7.52239 7.80092,7.52241 7.79682,7.52244 7.79273,7.52247 7.78863,7.52251 7.78454,7.52255 7.78044,7.52259 7.77634,7.52264 7.77225,7.52269 7.76815,7.52274 3.98188,3.73647 3.98598,3.73641 3.99007,3.73637 3.99417,3.73632 3.99827,3.73628 4.00236,3.73624 4.00646,3.7362 4.01056,3.73617 4.01465,3.73614 4.01874,3.73612 4.02284,3.7361 4.02693,3.73608 4.03103,3.73607 4.03512,3.73606 4.03921,3.73605 4.0433,3.73605 4.0474,3.73605 4.05149,3.73606 4.05558,3.73606 4.05967,3.73607 4.06376,3.73609 4.06785,3.73611 4.07193,3.73613 4.07602,3.73617 4.08011,3.7362 4.08419,3.73623 4.08828,3.73627 4.09236,3.73631 4.09644,3.73636 4.10053,3.73641 4.10461,3.73646 4.10869,3.73652 "/>
     <polygon id="_460220208" class="fil1" points="3.22642,3.13319 7.01269,6.91946 6.70035,6.64829 2.91409,2.86202 "/>
     <polygon id="_460220712" class="fil1" points="2.79979,3.73608 6.58606,7.52235 6.58068,7.52233 6.5753,7.52232 6.56993,7.52232 6.56456,7.52232 6.55918,7.52233 6.55381,7.52235 6.54844,7.52237 6.54307,7.52239 6.5377,7.52243 6.53233,7.52247 6.52697,7.52252 6.52161,7.52257 6.51624,7.52263 6.51088,7.5227 6.50552,7.52278 6.50017,7.52286 2.7139,3.73659 2.71926,3.7365 2.72461,3.73643 2.72998,3.73636 2.73534,3.7363 2.7407,3.73625 2.74607,3.7362 2.75143,3.73616 2.7568,3.73612 2.76217,3.73609 2.76754,3.73607 2.77291,3.73606 2.77829,3.73605 2.78366,3.73605 2.78904,3.73605 2.79441,3.73606 "/>
     <polygon id="_460220304" class="fil1" points="2.91248,3.27857 6.69875,7.06484 6.69424,7.06369 6.68972,7.06257 6.6852,7.06149 6.68068,7.06042 6.67615,7.05938 6.67161,7.05835 6.66708,7.05735 6.66254,7.05635 6.658,7.05538 6.65345,7.05441 6.64891,7.05345 6.64435,7.0525 6.6398,7.05156 6.63524,7.05061 6.63069,7.04966 6.62612,7.04871 2.83985,3.26244 2.84442,3.26339 2.84898,3.26433 2.85353,3.26528 2.85809,3.26623 2.86264,3.26718 2.86719,3.26814 2.87173,3.26911 2.87627,3.27008 2.88081,3.27107 2.88535,3.27208 2.88988,3.27311 2.89441,3.27415 2.89893,3.27522 2.90345,3.2763 2.90797,3.27742 "/>
     <polygon id="_460220736" class="fil1" points="2.83985,3.26244 6.62612,7.04871 6.62156,7.04788 6.61699,7.04705 6.61242,7.04622 6.60785,7.04539 6.60328,7.04457 6.5987,7.04377 6.59412,7.04297 6.58954,7.04219 6.58496,7.04142 6.58037,7.04067 6.57578,7.03993 6.5712,7.03923 6.5666,7.03854 6.56201,7.03789 6.55741,7.03726 6.55281,7.03667 2.76655,3.25039 2.77115,3.25099 2.77574,3.25161 2.78033,3.25227 2.78493,3.25296 2.78952,3.25366 2.7941,3.25439 2.79869,3.25515 2.80327,3.25591 2.80785,3.2567 2.81243,3.2575 2.81701,3.2583 2.82158,3.25912 2.82615,3.25995 2.83072,3.26078 2.83529,3.26161 "/>
     <polygon id="_460220592" class="fil1" points="2.7139,3.73659 6.50017,7.52286 6.49489,7.52296 6.48962,7.52307 6.48435,7.52318 6.47908,7.52331 6.47381,7.52344 6.46854,7.52358 6.46328,7.52373 6.45801,7.52389 6.45275,7.52406 6.44749,7.52424 6.44223,7.52444 6.43697,7.52464 6.43172,7.52486 6.42647,7.52509 6.42122,7.52533 6.41598,7.52558 2.62971,3.73931 2.63495,3.73906 2.6402,3.73881 2.64545,3.73859 2.6507,3.73837 2.65596,3.73817 2.66122,3.73797 2.66648,3.73779 2.67174,3.73762 2.67701,3.73746 2.68228,3.73731 2.68755,3.73717 2.69281,3.73704 2.69808,3.73691 2.70335,3.7368 2.70863,3.73669 "/>
     <polygon id="_460220112" class="fil1" points="2.62971,3.73931 6.41598,7.52558 6.41073,7.52583 6.40548,7.52609 6.40024,7.52636 6.39501,7.52665 6.38978,7.52695 6.38455,7.52728 6.37933,7.52761 6.37411,7.52796 6.36889,7.52833 6.36369,7.52872 6.35848,7.52912 6.35328,7.52954 6.34808,7.52998 6.34289,7.53043 6.3377,7.53091 6.33251,7.53139 2.54624,3.74512 2.55143,3.74463 2.55662,3.74416 2.56181,3.7437 2.56701,3.74327 2.57221,3.74285 2.57742,3.74245 2.58263,3.74206 2.58784,3.74169 2.59306,3.74134 2.59828,3.741 2.60351,3.74068 2.60874,3.74038 2.61398,3.74009 2.61922,3.73981 2.62446,3.73956 "/>
     <polygon id="_460220952" class="fil1" points="2.54624,3.74512 6.33251,7.53139 6.32729,7.5318 6.32211,7.5323 6.31697,7.53289 6.31185,7.53353 6.30675,7.5342 6.30165,7.53489 6.29653,7.53556 6.2914,7.53619 2.50513,3.74992 2.51026,3.74929 2.51538,3.74862 2.52048,3.74793 2.52558,3.74726 2.5307,3.74662 2.53584,3.74603 2.54102,3.74553 "/>
     <polygon id="_460221144" class="fil1" points="2.50513,3.74992 6.2914,7.53619 6.28623,7.53678 6.28111,7.53744 6.27604,7.53818 6.27101,7.53899 6.26601,7.53985 6.26104,7.54076 6.25608,7.54171 6.25114,7.5427 2.46487,3.75643 2.46981,3.75544 2.47477,3.75449 2.47974,3.75358 2.48474,3.75272 2.48978,3.75191 2.49485,3.75117 2.49996,3.7505 "/>
     <polygon id="_460221384" class="fil1" points="2.96357,3.2919 6.74984,7.07817 6.74666,7.07728 6.74348,7.0764 6.7403,7.07552 6.73711,7.07465 6.73393,7.07379 6.73074,7.07293 6.72755,7.07208 6.72436,7.07124 6.72117,7.07041 6.71797,7.06958 6.71477,7.06877 6.71157,7.06796 6.70837,7.06717 6.70517,7.06638 6.70196,7.0656 6.69875,7.06484 2.91248,3.27857 2.91569,3.27933 2.9189,3.28011 2.9221,3.28089 2.9253,3.28169 2.9285,3.2825 2.9317,3.28331 2.9349,3.28413 2.93809,3.28497 2.94128,3.28581 2.94447,3.28666 2.94766,3.28752 2.95085,3.28838 2.95403,3.28925 2.95721,3.29013 2.96039,3.29101 "/>
     <polygon id="_460220832" class="fil1" points="3.39087,4.40395 7.17714,8.19022 7.17666,8.18991 7.17522,8.189 7.17287,8.18749 7.16964,8.1854 7.16556,8.18274 7.16066,8.17952 7.15497,8.17575 7.14853,8.17144 7.14137,8.16661 7.13352,8.16126 7.12502,8.15541 7.11589,8.14907 7.10617,8.14225 7.0959,8.13496 7.0851,8.12722 7.07381,8.11903 7.06206,8.11041 7.04988,8.10136 7.03731,8.09191 7.02437,8.08205 7.01111,8.07181 6.99754,8.0612 6.98372,8.05021 6.96966,8.03888 6.95541,8.0272 6.94098,8.0152 6.92643,8.00288 6.91177,7.99025 6.89704,7.97732 6.88228,7.96411 6.86751,7.95063 6.85277,7.93689 3.0665,4.15062 3.08124,4.16436 3.09601,4.17784 3.11077,4.19105 3.1255,4.20398 3.14016,4.21661 3.15472,4.22893 3.16914,4.24093 3.18339,4.25261 3.19745,4.26394 3.21128,4.27493 3.22484,4.28554 3.2381,4.29578 3.25104,4.30563 3.26361,4.31509 3.27579,4.32413 3.28754,4.33276 3.29883,4.34094 3.30963,4.34869 3.31991,4.35598 3.32962,4.3628 3.33875,4.36914 3.34725,4.37499 3.3551,4.38033 3.36226,4.38517 3.3687,4.38948 3.37439,4.39325 3.37929,4.39647 3.38337,4.39913 3.38661,4.40122 3.38896,4.40273 3.39039,4.40364 "/>
     <polygon id="_460221456" class="fil1" points="2.46487,3.75643 6.25114,7.5427 6.24867,7.54318 6.24619,7.54365 6.24369,7.54411 6.24119,7.54457 6.2387,7.54504 6.23623,7.54552 6.23378,7.54603 6.23137,7.54657 2.4451,3.7603 2.44751,3.75976 2.44996,3.75925 2.45243,3.75876 2.45492,3.7583 2.45742,3.75783 2.45992,3.75737 2.46241,3.75691 "/>
     <polygon id="_460221288" class="fil1" points="2.23828,4.04336 6.02455,7.82963 6.02164,7.83371 6.01872,7.83778 6.01579,7.84185 6.01285,7.84591 6.00989,7.84996 6.00692,7.854 6.00393,7.85804 6.00093,7.86206 5.99792,7.86607 5.99489,7.87008 5.99185,7.87408 5.98878,7.87806 5.98571,7.88204 5.98261,7.886 5.9795,7.88996 5.97637,7.8939 2.1901,4.10763 2.19323,4.10369 2.19635,4.09973 2.19944,4.09577 2.20252,4.09179 2.20558,4.08781 2.20862,4.08381 2.21165,4.0798 2.21467,4.07579 2.21767,4.07176 2.22065,4.06773 2.22362,4.06369 2.22658,4.05963 2.22952,4.05558 2.23245,4.05151 2.23537,4.04744 "/>
     <polygon id="_460221192" class="fil1" points="2.01311,4.27949 5.79937,8.06576 5.59722,8.17358 1.81095,4.38731 "/>
     <polygon id="_460220880" class="fil1" points="2.82278,5.1526 6.60904,8.93887 6.60473,8.94579 2.81846,5.15952 "/>
     <polygon id="_460221000" class="fil1" points="2.81846,5.15952 6.60473,8.94579 6.53733,9.0536 2.75106,5.26733 "/>
     <polygon id="_460221024" class="fil1" points="2.75106,5.26733 6.53733,9.0536 6.53399,9.05792 6.52998,9.06137 6.52545,9.06394 6.52055,9.06557 6.51542,9.06625 6.51022,9.06593 6.50509,9.06458 6.50019,9.06216 2.71392,5.27589 2.71882,5.27831 2.72395,5.27966 2.72915,5.27998 2.73428,5.2793 2.73919,5.27767 2.74372,5.2751 2.74772,5.27165 "/>
     <polygon id="_460221216" class="fil1" points="2.71392,5.27589 6.50019,9.06216 6.49588,9.05882 2.70961,5.27255 "/>
     <polygon id="_460221624" class="fil1" points="2.76655,3.25039 6.55281,7.03667 6.54821,7.03595 6.54361,7.03529 6.539,7.03467 6.5344,7.03409 6.52979,7.03355 6.52519,7.03304 6.52058,7.03256 6.51597,7.0321 6.51136,7.03166 6.50674,7.03123 6.50213,7.03081 6.49751,7.03039 6.49289,7.02998 6.48826,7.02956 6.48363,7.02914 6.479,7.0287 2.69273,3.24243 2.69737,3.24287 2.702,3.24329 2.70662,3.24371 2.71124,3.24412 2.71586,3.24454 2.72048,3.24496 2.72509,3.24539 2.7297,3.24583 2.73431,3.24629 2.73892,3.24677 2.74352,3.24728 2.74813,3.24782 2.75274,3.2484 2.75734,3.24902 2.76194,3.24968 "/>
     <polygon id="_460221648" class="fil1" points="2.12596,2.68496 5.91223,6.47123 5.91512,6.47465 2.12885,2.68837 "/>
     <polygon id="_460222032" class="fil1" points="2.4451,3.7603 6.23137,7.54657 6.21289,7.55193 2.42663,3.76566 "/>
     <polygon id="_460222224" class="fil1" points="2.42663,3.76566 6.21289,7.55193 6.20864,7.55298 6.2047,7.5542 6.20102,7.55555 6.19754,7.55701 6.19419,7.55854 6.1909,7.56009 6.18762,7.56165 6.18428,7.56318 2.39801,3.77691 2.40135,3.77538 2.40463,3.77382 2.40792,3.77226 2.41127,3.77074 2.41476,3.76928 2.41843,3.76793 2.42237,3.76671 "/>
     <polygon id="_460221960" class="fil1" points="2.39801,3.77691 6.18428,7.56318 6.18214,7.56744 6.17999,7.57169 6.17783,7.57593 6.17567,7.58015 6.17349,7.58437 6.17131,7.58857 6.16911,7.59277 6.16691,7.59695 6.1647,7.60113 6.16248,7.6053 6.16025,7.60945 6.15802,7.6136 6.15577,7.61774 6.15352,7.62188 6.15125,7.626 6.14898,7.63013 6.1467,7.63424 6.14442,7.63835 6.14212,7.64245 6.13981,7.64655 6.1375,7.65064 6.13518,7.65472 6.13285,7.65881 6.13052,7.66289 6.12817,7.66696 6.12582,7.67104 6.12346,7.67511 6.12109,7.67918 6.11871,7.68324 6.11632,7.68731 6.11393,7.69137 6.11153,7.69544 2.32526,3.90917 2.32766,3.9051 2.33006,3.90104 2.33244,3.89697 2.33482,3.89291 2.33719,3.88884 2.33955,3.88477 2.3419,3.88069 2.34425,3.87662 2.34659,3.87254 2.34891,3.86845 2.35124,3.86437 2.35355,3.86028 2.35585,3.85618 2.35815,3.85207 2.36044,3.84797 2.36272,3.84385 2.36498,3.83973 2.36725,3.83561 2.3695,3.83147 2.37175,3.82733 2.37398,3.82318 2.37621,3.81902 2.37843,3.81485 2.38064,3.81068 2.38284,3.8065 2.38504,3.8023 2.38722,3.79809 2.3894,3.79388 2.39156,3.78965 2.39372,3.78542 2.39587,3.78117 "/>
     <polygon id="_460222128" class="fil1" points="2.32526,3.90917 6.11153,7.69544 6.10896,7.69972 6.10639,7.70399 6.1038,7.70826 6.10121,7.71254 6.09862,7.7168 6.09601,7.72106 6.0934,7.72531 6.09078,7.72956 6.08815,7.73381 6.08551,7.73805 6.08286,7.74228 6.0802,7.74651 6.07753,7.75073 6.07485,7.75495 6.07217,7.75916 6.06946,7.76336 6.06675,7.76756 6.06403,7.77175 6.0613,7.77594 6.05855,7.78011 6.05579,7.78428 6.05302,7.78845 6.05024,7.7926 6.04744,7.79675 6.04463,7.80089 6.0418,7.80502 6.03896,7.80915 6.03611,7.81326 6.03324,7.81737 6.03036,7.82146 6.02746,7.82555 6.02455,7.82963 2.23828,4.04336 2.24119,4.03928 2.24409,4.03519 2.24698,4.03109 2.24984,4.02699 2.2527,4.02287 2.25554,4.01875 2.25836,4.01462 2.26117,4.01048 2.26397,4.00633 2.26675,4.00218 2.26952,3.99801 2.27228,3.99384 2.27503,3.98967 2.27776,3.98548 2.28048,3.98129 2.2832,3.97709 2.2859,3.97289 2.28859,3.96868 2.29126,3.96446 2.29393,3.96024 2.29659,3.95601 2.29924,3.95178 2.30188,3.94754 2.30451,3.94329 2.30713,3.93904 2.30974,3.93478 2.31235,3.93053 2.31494,3.92626 2.31754,3.92199 2.32012,3.91772 2.32269,3.91344 "/>
     <polygon id="_460221600" class="fil1" points="3.0665,4.15062 6.85277,7.93689 6.59553,8.46551 2.80926,4.67924 "/>
     <polygon id="_460221816" class="fil1" points="4.05823,5.13787 7.8445,8.92414 7.90757,9.02503 4.1213,5.23876 "/>
     <polygon id="_460221888" class="fil1" points="4.1213,5.23876 7.90757,9.02503 7.90998,9.02993 7.91133,9.03506 7.91165,9.04026 7.91097,9.04538 7.90933,9.05029 7.90677,9.05481 7.90332,9.05882 7.89901,9.06216 4.11274,5.27589 4.11705,5.27255 4.1205,5.26854 4.12307,5.26402 4.1247,5.25911 4.12538,5.25398 4.12506,5.24878 4.12371,5.24366 "/>
     <polygon id="_460221984" class="fil1" points="4.11274,5.27589 7.89901,9.06216 7.89411,9.06458 7.88898,9.06593 7.88378,9.06625 7.87865,9.06557 7.87375,9.06394 7.86921,9.06137 7.8652,9.05792 4.07893,5.27165 4.08294,5.2751 4.08748,5.27767 4.09239,5.2793 4.09752,5.27998 4.10272,5.27966 4.10784,5.27831 "/>
     <polygon id="_460222080" class="fil1" points="2.1901,4.10763 5.97637,7.8939 5.951,7.9252 2.16473,4.13893 "/>
     <polygon id="_460222416" class="fil1" points="2.16473,4.13893 5.951,7.9252 5.92413,7.95546 2.13786,4.16919 "/>
     <polygon id="_460206912" class="fil1" points="2.13786,4.16919 5.92413,7.95546 5.92081,7.95928 5.91739,7.96302 5.9139,7.9667 5.91034,7.97033 5.90675,7.97394 5.90315,7.97755 5.89955,7.98115 5.89598,7.98479 2.10971,4.19852 2.11328,4.19488 2.11688,4.19128 2.12048,4.18767 2.12407,4.18406 2.12763,4.18043 2.13113,4.17674 2.13454,4.17301 "/>
     <polygon id="_460206720" class="fil1" points="2.10971,4.19852 5.89598,7.98479 5.89243,7.98843 5.88885,7.99205 5.88525,7.99564 5.8816,7.9992 5.87791,8.00272 5.87415,8.00619 5.87031,8.0096 5.8664,8.01295 2.08013,4.22668 2.08405,4.22333 2.08788,4.21991 2.09164,4.21644 2.09533,4.21293 2.09898,4.20937 2.10259,4.20578 2.10616,4.20215 "/>
     <polygon id="_460206384" class="fil1" points="2.08013,4.22668 5.8664,8.01295 5.8625,8.01631 5.85866,8.01972 5.85483,8.02314 5.85101,8.02656 5.84714,8.02994 5.84322,8.03327 5.8392,8.03651 5.83506,8.03964 2.0488,4.25337 2.05293,4.25024 2.05695,4.247 2.06087,4.24367 2.06474,4.24029 2.06857,4.23687 2.07239,4.23344 2.07624,4.23004 "/>
     <polygon id="_460206672" class="fil1" points="2.0488,4.25337 5.83506,8.03964 5.80164,8.06439 2.01537,4.27811 "/>
     <polygon id="_460206480" class="fil1" points="2.01537,4.27811 5.80164,8.06439 5.80093,8.06493 2.01466,4.27866 "/>
     <polygon id="_460206264" class="fil1" points="2.01466,4.27866 5.80093,8.06493 5.79937,8.06576 2.01311,4.27949 "/>
     <polygon id="_460206408" class="fil1" points="2.80926,4.67924 6.59553,8.46551 6.60883,8.93074 2.82256,5.14447 "/>
     <polygon id="_460206600" class="fil1" points="2.82256,5.14447 6.60883,8.93074 6.60904,8.93887 2.82278,5.1526 "/>
     <polygon id="_460206960" class="fil1" points="1.81095,4.38731 5.59722,8.17358 5.59216,8.17565 5.58696,8.17665 5.58174,8.17661 5.57668,8.17558 5.57189,8.17361 5.56755,8.17074 1.78128,4.38446 1.78563,4.38733 1.79041,4.38931 1.79548,4.39033 1.80069,4.39037 1.80589,4.38938 "/>
     <polygon id="_460206312" class="fil1" points="2.09052,2.72656 5.87679,6.51283 5.61109,6.35341 1.82482,2.56714 "/>
     <polygon id="_460206528" class="fil1" points="2.12885,2.68837 5.91512,6.47465 6.33568,6.97407 2.54941,3.1878 "/>
     <polygon id="_654549920" class="fil1" points="2.54487,3.24433 6.33114,7.03061 6.33109,7.03061 2.54482,3.24433 "/>
     <polygon id="_654550112" class="fil1" points="2.54482,3.24433 6.33109,7.03061 6.31498,7.0332 2.52871,3.24693 "/>
     <polygon id="_654550328" class="fil1" points="2.61876,3.24033 6.40503,7.0266 6.40038,7.02654 6.39574,7.02656 6.39111,7.02664 6.38649,7.02678 6.38188,7.02697 6.37727,7.02721 6.37267,7.02749 6.36807,7.0278 6.36346,7.02814 6.35887,7.02849 6.35426,7.02885 6.34965,7.02922 6.34504,7.02959 6.34041,7.02995 6.33578,7.03029 6.33114,7.03061 2.54487,3.24433 2.54951,3.24402 2.55415,3.24368 2.55877,3.24332 2.56338,3.24295 2.56799,3.24258 2.5726,3.24222 2.5772,3.24187 2.5818,3.24153 2.5864,3.24122 2.591,3.24094 2.59561,3.2407 2.60022,3.24051 2.60484,3.24037 2.60947,3.24028 2.61411,3.24027 "/>
     <polygon id="_654550472" class="fil1" points="1.82482,2.56714 5.61109,6.35341 5.60671,6.35015 1.82044,2.56387 "/>
     <polygon id="_654550232" class="fil1" points="2.69273,3.24243 6.479,7.0287 6.44202,7.02689 2.65576,3.24062 "/>
     <polygon id="_654550088" class="fil1" points="2.65576,3.24062 6.44202,7.02689 6.43737,7.02661 6.43274,7.02646 6.42812,7.02641 6.4235,7.02643 6.41889,7.02648 6.41428,7.02655 6.40967,7.0266 6.40503,7.0266 2.61876,3.24033 2.6234,3.24033 2.62802,3.24028 2.63263,3.24021 2.63724,3.24015 2.64185,3.24014 2.64647,3.24019 2.6511,3.24034 "/>
     <polygon id="_654550400" class="fil1" points="3.74581,4.12109 7.53207,7.90736 7.51655,7.92254 7.50091,7.93744 7.48521,7.95206 7.46948,7.96638 7.45376,7.98039 7.43808,7.99408 7.4225,8.00743 7.40705,8.02042 7.39176,8.03305 7.37668,8.0453 7.36185,8.05715 7.3473,8.06859 7.33308,8.07961 7.31922,8.0902 7.30578,8.10033 7.29277,8.11 7.28024,8.1192 7.26824,8.12789 7.2568,8.13609 7.24596,8.14376 7.23576,8.1509 7.22625,8.15749 7.21745,8.16352 7.20941,8.16898 7.20217,8.17384 7.19576,8.17811 7.19024,8.18175 7.18563,8.18476 7.18198,8.18713 7.17931,8.18884 7.17769,8.18987 7.17714,8.19022 3.39087,4.40395 3.39143,4.4036 3.39305,4.40257 3.39571,4.40086 3.39936,4.39849 3.40397,4.39548 3.4095,4.39183 3.4159,4.38757 3.42314,4.38271 3.43118,4.37725 3.43998,4.37122 3.4495,4.36463 3.4597,4.35749 3.47054,4.34981 3.48197,4.34162 3.49398,4.33293 3.5065,4.32373 3.51951,4.31406 3.53296,4.30393 3.54681,4.29334 3.56104,4.28232 3.57558,4.27088 3.59041,4.25903 3.60549,4.24678 3.62078,4.23415 3.63623,4.22116 3.65181,4.20781 3.66749,4.19412 3.68321,4.18011 3.69894,4.16579 3.71465,4.15117 3.73028,4.13626 "/>
     <polygon id="_654550136" class="fil1" points="4.07162,4.66967 7.85789,8.45594 7.85776,8.46053 4.07149,4.67426 "/>
     <polygon id="_654550544" class="fil1" points="4.06948,4.66332 7.85575,8.44959 7.85789,8.45594 4.07162,4.66967 "/>
     <polygon id="_654550640" class="fil1" points="4.07149,4.67426 7.85776,8.46053 7.8445,8.92414 4.05823,5.13787 "/>
     <polygon id="_654551336" class="fil1" points="3.8501,4.0061 7.63637,7.79237 7.85575,8.44959 4.06948,4.66332 "/>
     <polygon id="_654551192" class="fil1" points="2.91409,2.86202 6.70035,6.64829 6.69046,6.63971 2.90419,2.85344 "/>
     <polygon id="_654551408" class="fil1" points="3.98188,3.73647 7.76815,7.52274 7.76704,7.53122 7.76568,7.53971 7.76409,7.54821 7.76228,7.55672 7.76024,7.56524 7.75798,7.57377 7.7555,7.5823 7.75281,7.59083 7.74991,7.59936 7.74681,7.6079 7.74351,7.61643 7.74002,7.62496 7.73634,7.63348 7.73248,7.642 7.72843,7.6505 7.72421,7.659 7.71981,7.66749 7.71526,7.67596 7.71053,7.68442 7.70565,7.69287 7.70062,7.70129 7.69543,7.7097 7.69011,7.71809 7.68464,7.72645 7.67903,7.73479 7.6733,7.74311 7.66743,7.75139 7.66145,7.75965 7.65534,7.76788 7.64913,7.77608 7.6428,7.78424 7.63637,7.79237 3.8501,4.0061 3.85653,3.99797 3.86286,3.98981 3.86907,3.98161 3.87518,3.97338 3.88117,3.96512 3.88703,3.95683 3.89276,3.94852 3.89837,3.94018 3.90384,3.93181 3.90917,3.92343 3.91435,3.91502 3.91939,3.90659 3.92426,3.89815 3.92899,3.88969 3.93355,3.88122 3.93794,3.87273 3.94216,3.86423 3.94621,3.85572 3.95007,3.84721 3.95376,3.83869 3.95724,3.83016 3.96054,3.82163 3.96364,3.81309 3.96654,3.80456 3.96923,3.79603 3.97171,3.7875 3.97397,3.77897 3.97601,3.77045 3.97783,3.76194 3.97941,3.75344 3.98077,3.74495 "/>
     <polygon id="_654551264" class="fil1" points="3.49328,2.4003 7.27955,6.18657 7.28137,6.18917 7.28317,6.19185 7.28493,6.19462 7.28667,6.19747 7.28839,6.20041 7.29007,6.20343 7.29173,6.20654 7.29335,6.20972 3.50709,2.42345 3.50546,2.42026 3.5038,2.41716 3.50212,2.41414 3.50041,2.4112 3.49867,2.40835 3.4969,2.40557 3.4951,2.4029 "/>
     <path id="_654550952" class="fil1" d="M8.0681 7.03061l0 0zm-3.78627 -3.78627l0 0z"/>
     <polygon id="_654550784" class="fil1" points="3.92244,2.85344 7.70871,6.63971 7.69885,6.64829 3.91258,2.86202 "/>
     <polygon id="_654551216" class="fil1" points="4.28179,3.24433 8.06806,7.03061 8.06342,7.03029 8.05878,7.02995 8.05416,7.02959 8.04955,7.02922 8.04494,7.02885 8.04033,7.02849 8.03573,7.02814 8.03113,7.0278 8.02653,7.02749 8.02193,7.02721 8.01731,7.02697 8.0127,7.02678 8.00808,7.02664 8.00345,7.02656 7.99881,7.02654 7.99415,7.0266 4.20789,3.24033 4.21254,3.24027 4.21718,3.24028 4.22181,3.24037 4.22643,3.24051 4.23105,3.2407 4.23566,3.24094 4.24026,3.24122 4.24486,3.24153 4.24946,3.24187 4.25407,3.24222 4.25867,3.24258 4.26328,3.24295 4.26789,3.24332 4.27252,3.24368 4.27715,3.24402 "/>
     <polygon id="_654551288" class="fil1" points="4.20789,3.24033 7.99415,7.0266 7.98952,7.0266 7.98491,7.02655 7.9803,7.02648 7.97569,7.02643 7.97108,7.02641 7.96646,7.02646 7.96183,7.02661 7.95718,7.02689 4.17091,3.24062 4.17556,3.24034 4.18019,3.24019 4.18481,3.24014 4.18943,3.24015 4.19403,3.24021 4.19864,3.24028 4.20326,3.24033 "/>
     <polygon id="_654550904" class="fil1" points="4.17091,3.24062 7.95718,7.02689 7.9202,7.0287 4.13393,3.24243 "/>
     <polygon id="_654550976" class="fil1" points="4.13393,3.24243 7.9202,7.0287 7.91557,7.02914 7.91094,7.02956 7.90631,7.02998 7.90169,7.03039 7.89707,7.03081 7.89246,7.03123 7.88785,7.03166 7.88324,7.0321 7.87863,7.03256 7.87402,7.03304 7.86941,7.03355 7.86481,7.03409 7.8602,7.03467 7.8556,7.03529 7.85099,7.03595 7.84639,7.03667 4.06012,3.25039 4.06472,3.24968 4.06933,3.24902 4.07394,3.2484 4.07854,3.24782 4.08315,3.24728 4.08775,3.24677 4.09236,3.24629 4.09697,3.24583 4.10158,3.24539 4.10619,3.24496 4.1108,3.24454 4.11542,3.24412 4.12004,3.24371 4.12467,3.24329 4.1293,3.24287 "/>
     <polygon id="_654551048" class="fil1" points="4.06012,3.25039 7.84639,7.03667 7.84179,7.03726 7.83719,7.03789 7.83259,7.03854 7.828,7.03923 7.82341,7.03993 7.81883,7.04067 7.81424,7.04142 7.80966,7.04219 7.80508,7.04297 7.8005,7.04377 7.79593,7.04457 7.79135,7.04539 7.78678,7.04622 7.7822,7.04705 7.77764,7.04788 7.77307,7.04871 3.9868,3.26244 3.99137,3.26161 3.99594,3.26078 4.00051,3.25995 4.00508,3.25912 4.00966,3.2583 4.01423,3.2575 4.01881,3.2567 4.02339,3.25591 4.02797,3.25515 4.03256,3.25439 4.03715,3.25366 4.04174,3.25296 4.04633,3.25227 4.05092,3.25161 4.05552,3.25099 "/>
     <polygon id="_654552152" class="fil1" points="3.9868,3.26244 7.77307,7.04871 7.76851,7.04966 7.76395,7.05061 7.75939,7.05156 7.75484,7.0525 7.75029,7.05345 7.74574,7.05441 7.7412,7.05538 7.73666,7.05635 7.73212,7.05735 7.72759,7.05835 7.72305,7.05938 7.71852,7.06042 7.714,7.06149 7.70948,7.06257 7.70496,7.06369 7.70044,7.06484 3.91417,3.27857 3.91869,3.27742 3.92321,3.2763 3.92773,3.27522 3.93226,3.27415 3.93678,3.27311 3.94132,3.27208 3.94585,3.27107 3.95039,3.27008 3.95493,3.26911 3.95948,3.26814 3.96402,3.26718 3.96857,3.26623 3.97313,3.26528 3.97768,3.26433 3.98224,3.26339 "/>
     <polygon id="_654551456" class="fil1" points="4.42868,3.77691 8.21495,7.56318 8.2116,7.56166 8.20831,7.56009 8.20502,7.55854 8.20167,7.55701 8.19818,7.55556 8.1945,7.5542 8.19056,7.55298 8.1863,7.55193 4.40004,3.76566 4.4043,3.76671 4.40823,3.76793 4.41191,3.76928 4.4154,3.77074 4.41875,3.77226 4.42204,3.77382 4.42533,3.77539 "/>
     <polygon id="_654551936" class="fil1" points="4.812,4.27866 8.59826,8.06493 8.59756,8.06439 4.8113,4.27811 "/>
     <polygon id="_654551600" class="fil1" points="4.8113,4.27811 8.59756,8.06439 8.56412,8.03964 4.77785,4.25337 "/>
     <polygon id="_654551504" class="fil1" points="4.47315,3.74533 8.25942,7.5316 8.26155,7.53589 8.2637,7.54019 8.26586,7.54449 8.26804,7.54878 8.27023,7.55308 8.27244,7.55737 8.27466,7.56167 8.2769,7.56596 8.27916,7.57025 8.28142,7.57454 8.2837,7.57883 8.286,7.58311 8.2883,7.58739 8.29062,7.59167 8.29295,7.59595 8.2953,7.60022 8.29765,7.60449 8.30001,7.60875 8.30239,7.61301 8.30477,7.61727 8.30716,7.62152 8.30956,7.62576 8.31198,7.63 8.31439,7.63424 8.31682,7.63847 8.31926,7.64269 8.3217,7.64691 8.32415,7.65111 8.3266,7.65532 8.32906,7.65951 8.33153,7.6637 8.334,7.66788 4.54773,3.88161 4.54526,3.87743 4.5428,3.87324 4.54033,3.86905 4.53788,3.86484 4.53543,3.86063 4.53299,3.85642 4.53056,3.8522 4.52813,3.84797 4.52571,3.84373 4.5233,3.83949 4.52089,3.83525 4.5185,3.831 4.51612,3.82674 4.51374,3.82248 4.51138,3.81822 4.50903,3.81395 4.50669,3.80968 4.50435,3.8054 4.50204,3.80112 4.49973,3.79684 4.49744,3.79256 4.49515,3.78827 4.49289,3.78398 4.49063,3.77969 4.48839,3.7754 4.48617,3.7711 4.48396,3.76681 4.48177,3.76251 4.47959,3.75822 4.47743,3.75392 4.47528,3.74962 "/>
     <polygon id="_654551984" class="fil1" points="4.63233,4.01215 8.4186,7.79842 8.42142,7.80237 8.42424,7.8063 8.42707,7.81023 8.42992,7.81416 8.43278,7.81807 8.43565,7.82198 8.43852,7.82587 8.44142,7.82976 8.44432,7.83363 8.44724,7.8375 8.45017,7.84135 8.45311,7.84519 8.45607,7.84901 8.45905,7.85281 8.46203,7.85661 8.46504,7.86039 4.67877,4.07412 4.67576,4.07034 4.67278,4.06654 4.66981,4.06274 4.66685,4.05891 4.6639,4.05507 4.66097,4.05122 4.65806,4.04736 4.65515,4.04349 4.65226,4.0396 4.64938,4.0357 4.64651,4.0318 4.64365,4.02789 4.64081,4.02396 4.63797,4.02003 4.63515,4.01609 "/>
     <polygon id="_654551432" class="fil1" points="4.70307,4.10409 8.48933,7.89036 8.51485,7.91909 4.72858,4.13282 "/>
     <polygon id="_654552056" class="fil1" points="4.72858,4.13282 8.51485,7.91909 8.518,7.92273 8.52123,7.92627 8.52453,7.92973 4.73826,4.14346 4.73496,4.14 4.73173,4.13646 "/>
     <polygon id="_654552008" class="fil1" points="4.67877,4.07412 8.46504,7.86039 8.48933,7.89036 4.70307,4.10409 "/>
     <polygon id="_654551720" class="fil1" points="4.54773,3.88161 8.334,7.66788 8.3365,7.67206 8.33902,7.67623 8.34154,7.6804 8.34406,7.68456 8.34659,7.68872 8.34913,7.69287 8.35168,7.69702 8.35424,7.70117 8.3568,7.70531 8.35937,7.70944 8.36196,7.71357 8.36455,7.71769 8.36715,7.7218 8.36976,7.72591 8.37237,7.73001 8.375,7.7341 8.37764,7.73819 8.38029,7.74227 8.38295,7.74634 8.38562,7.7504 8.3883,7.75445 8.391,7.7585 8.3937,7.76254 8.39642,7.76656 8.39915,7.77058 8.40189,7.77459 8.40464,7.77859 8.40741,7.78257 8.41019,7.78655 8.41298,7.79052 8.41578,7.79448 8.4186,7.79842 4.63233,4.01215 4.62952,4.0082 4.62671,4.00425 4.62392,4.00028 4.62114,3.9963 4.61837,3.99231 4.61562,3.98831 4.61288,3.98431 4.61015,3.98029 4.60743,3.97626 4.60473,3.97223 4.60204,3.96818 4.59935,3.96413 4.59668,3.96007 4.59402,3.956 4.59137,3.95192 4.58874,3.94783 4.58611,3.94374 4.58349,3.93964 4.58088,3.93553 4.57828,3.93141 4.57569,3.9273 4.57311,3.92317 4.57054,3.91904 4.56797,3.9149 4.56541,3.91075 4.56287,3.9066 4.56033,3.90245 4.5578,3.89829 4.55527,3.89413 4.55275,3.88996 4.55024,3.88579 "/>
     <polygon id="_654552032" class="fil1" points="5.05219,4.37621 8.83846,8.16248 8.83541,8.16701 8.83165,8.17074 8.8273,8.17361 8.82251,8.17558 8.81744,8.17661 8.81224,8.17665 8.80703,8.17565 8.80198,8.17358 5.01572,4.38731 5.02076,4.38938 5.02597,4.39037 5.03118,4.39033 5.03624,4.38931 5.04103,4.38733 5.04538,4.38446 5.04915,4.38074 "/>
     <polygon id="_654552800" class="fil1" points="3.977,2.00814 7.76326,5.79441 7.70945,6.62854 3.92318,2.84227 "/>
     <polygon id="_654552896" class="fil1" points="4.73613,2.72657 8.52239,6.51284 8.094,7.02156 4.30773,3.23528 "/>
     <polygon id="_654552464" class="fil1" points="4.30773,3.23528 8.094,7.02156 8.08422,7.0332 4.29796,3.24693 "/>
     <polygon id="_654552320" class="fil1" points="4.29796,3.24693 8.08422,7.0332 8.06806,7.03061 4.28179,3.24433 "/>
     <polygon id="_654552848" class="fil1" points="4.4705,3.73895 8.25677,7.52522 8.25942,7.5316 4.47315,3.74533 "/>
     <polygon id="_654552704" class="fil1" points="4.32154,3.74992 8.1078,7.53619 8.10267,7.53556 8.09756,7.53489 8.09245,7.5342 8.08735,7.53353 8.08223,7.53289 8.07709,7.5323 8.07191,7.5318 8.06668,7.53139 4.28041,3.74512 4.28564,3.74553 4.29082,3.74603 4.29596,3.74662 4.30108,3.74726 4.30618,3.74793 4.31129,3.74862 4.3164,3.74929 "/>
     <polygon id="_654552368" class="fil1" points="5.04935,4.34654 8.83562,8.13281 8.83849,8.13717 8.84046,8.14195 8.84149,8.14702 8.84153,8.15223 8.84054,8.15743 8.83846,8.16248 5.05219,4.37621 5.05427,4.37116 5.05526,4.36596 5.05522,4.36075 5.05419,4.35568 5.05222,4.35089 "/>
     <polygon id="_654552200" class="fil1" points="4.77785,4.25337 8.56412,8.03964 8.55998,8.03651 8.55597,8.03327 8.55204,8.02994 8.54818,8.02656 8.54435,8.02314 8.54053,8.01972 8.53669,8.01631 8.5328,8.01295 4.74653,4.22668 4.75042,4.23004 4.75426,4.23344 4.75808,4.23687 4.76191,4.24029 4.76578,4.24367 4.7697,4.247 4.77372,4.25024 "/>
     <polygon id="_654552680" class="fil1" points="4.71694,4.19852 8.50321,7.98479 8.49965,7.98115 8.49606,7.97755 8.49245,7.97394 8.48886,7.97033 8.4853,7.9667 4.69903,4.18043 4.70259,4.18406 4.70619,4.18767 4.70979,4.19128 4.71339,4.19488 "/>
     <polygon id="_654552248" class="fil1" points="4.74653,4.22668 8.5328,8.01295 8.52888,8.0096 8.52505,8.00619 8.52129,8.00272 8.51759,7.9992 8.51394,7.99564 8.51033,7.99205 8.50676,7.98843 8.50321,7.98479 4.71694,4.19852 4.72049,4.20215 4.72407,4.20578 4.72767,4.20937 4.73132,4.21293 4.73502,4.21644 4.73878,4.21991 4.74261,4.22333 "/>
     <polygon id="_654553016" class="fil1" points="4.81354,4.27949 8.59981,8.06576 8.59826,8.06493 4.812,4.27866 "/>
     <polygon id="_654553064" class="fil1" points="5.01572,4.38731 8.80198,8.17358 8.59981,8.06576 4.81354,4.27949 "/>
     <polygon id="_654537584" class="fil1" points="5.00781,2.52578 8.79408,6.31205 8.79734,6.31643 5.01107,2.53016 "/>
     <polygon id="_654537080" class="fil1" points="5.01107,2.53016 8.79734,6.31643 8.79967,6.32136 8.80094,6.32651 8.80117,6.33171 8.80039,6.33683 8.79867,6.3417 8.79602,6.34619 8.79249,6.35015 8.78811,6.35341 5.00185,2.56714 5.00622,2.56387 5.00975,2.55992 5.0124,2.55543 5.01413,2.55056 5.0149,2.54544 5.01467,2.54024 5.01341,2.53509 "/>
    </g>
    <path id="_637658416" class="fil1" d="M4.28183 3.24433l0 0zm-0.304835 -1.2362l-0.053815 0.83413 -0.000740157 0.0111693 -0.0098622 0.00858268 -0.324445 0.281665c0.0359646,0.012685 0.0703425,0.0287362 0.102748,0.0477835 0.0424843,-0.00843307 0.0837047,-0.0145669 0.125898,-0.0198661 0.0263937,-0.00312992 0.0527441,-0.00601181 0.0792913,-0.00788189 0.0263898,-0.00236614 0.0530039,-0.00335433 0.0794921,-0.00445669 0.0266142,-0.000496063 0.053122,-0.00103937 0.0797362,-7.08661e-005 0.0265039,9.05512e-005 0.0532323,0.00259449 0.0796457,0.00437008l0.039748 0.00455118c0.0131929,0.00114173 0.0264134,0.00407087 0.0395394,0.00614567 0.0211811,0.0030315 0.0421693,0.0083937 0.0630197,0.0135394l0.420543 -0.499425 0.00290945 -0.00341732 0.00385039 -0.00232283 0.269547 -0.161728c0.0127677,-0.00765748 0.0293189,-0.00351181 0.0369724,0.00925197 0.0076811,0.012748 0.00353543,0.0293228 -0.00922835,0.0369803l-0.26572 0.159429 -0.428398 0.508717 -0.00977165 0.0116457 -0.0161654 -0.00259449c-0.0247913,-0.00162205 -0.0490472,-0.00452362 -0.0739055,-0.00400787 -0.0123622,9.44882e-005 -0.0245433,-0.000653543 -0.0369764,0.000295276l-0.0369764 0.00180315c-0.0247283,0.00238583 -0.0492441,0.00402756 -0.073815,0.0079685 -0.0245433,0.00308661 -0.0489528,0.00761417 -0.0733189,0.0120472 -0.0243228,0.00507087 -0.0485551,0.00993701 -0.072626,0.016126 -0.0241142,0.00569291 -0.0480315,0.0123858 -0.071811,0.0192283 -0.00485433,0.0014252 -0.00972047,0.00287402 -0.0145866,0.00434252 0.0804921,0.0876614 0.134941,0.199618 0.151094,0.323606 0.0470866,0.00487402 0.0941181,0.0104331 0.14124,0.0167638 0.0286614,0.00398031 0.0573031,0.00818898 0.0859724,0.0130591 0.0286417,0.00470472 0.057311,0.0101102 0.0859528,0.0163465 0.0142559,0.00265354 0.028689,0.00682677 0.0429921,0.0102441 0.0142559,0.00322047 0.028685,0.00766142 0.0430551,0.0123661 0.0071811,0.00233858 0.0142992,0.00434646 0.0215039,0.00698031l0.021752 0.00916535c0.0140984,0.00477165 0.0295197,0.0157205 0.043685,0.0247913l0.00547638 0.00349213 0.00265354 0.00637402c0.0226102,0.0458268 0.0481929,0.0917362 0.0745787,0.136283 0.026689,0.0445591 0.0544488,0.0885157 0.0846024,0.130539 0.0149803,0.0210512 0.0303819,0.0418583 0.0464331,0.0619685l0.0242992 0.0299724 0.0255157 0.0287323c0.00826378,0.00984252 0.0176299,0.0184213 0.0264803,0.0275433 0.00887402,0.0091378 0.0178386,0.0181732 0.0275157,0.0262323 0.00959843,0.00808661 0.0186063,0.017185 0.0286693,0.0244528l0.0294094 0.0217992 0.200437 0.106878c0.013126,0.00702362 0.0181063,0.0233465 0.0110984,0.0364803 -0.00702362,0.013122 -0.0233465,0.0181024 -0.0364764,0.0110984l-0.202173 -0.107819 -0.00154724 -0.000830709 -0.000700787 -0.000543307 -0.0334409 -0.024748c-0.0112165,-0.00817323 -0.0208583,-0.017811 -0.0313228,-0.026685 -0.010563,-0.00885039 -0.0201378,-0.0184409 -0.0295906,-0.0281654 -0.00941339,-0.00973228 -0.0194764,-0.0190354 -0.028126,-0.0293228l-0.0268898 -0.0302638 -0.025374 -0.0313031c-0.0167323,-0.0209882 -0.0327008,-0.0424921 -0.0481693,-0.0642677 -0.0311693,-0.0434606 -0.0596299,-0.0885197 -0.0869646,-0.134193 -0.0256654,-0.0433386 -0.0499921,-0.0867402 -0.0727362,-0.132256 -0.00907874,-0.00399213 -0.0167953,-0.0087126 -0.0286457,-0.011248l-0.0184646 -0.0053622c-0.00641732,-0.00148819 -0.0132402,-0.00256693 -0.0197992,-0.00387402 -0.0131417,-0.00265354 -0.0263858,-0.00506693 -0.0402362,-0.00650394 -0.0137323,-0.00162205 -0.0271142,-0.00387795 -0.041122,-0.00479921 -0.0276299,-0.00266142 -0.0554606,-0.00454724 -0.0834764,-0.00581102 -0.0279409,-0.00138976 -0.0560709,-0.00220866 -0.0841693,-0.00272441 -0.0435079,-0.000688976 -0.087189,-0.000704724 -0.130886,-0.00011811 -0.0106063,0.090374 -0.0626417,0.183114 -0.13178,0.26963l0.219382 0.65722 0.0021378 0.00634646 -0.000129921 0.00459449 -0.0132598 0.46361 0.0630669 0.10089c0.00788189,0.012626 0.00405118,0.0292677 -0.00855906,0.037126 -0.012626,0.00790945 -0.0292677,0.00405906 -0.0371496,-0.00855512l-0.067378 -0.107811 -0.00432283 -0.00691732 0.000204724 -0.00812992 0.0132992 -0.465276 -0.271587 -0.558106c-0.164909,0.163232 -0.354933,0.282858 -0.354933,0.282858 0,0 -0.167433,-0.105402 -0.32437,-0.253331l-0.25724 0.528622 0.0132953 0.465232 0.000216535 0.00812992 -0.00431496 0.00691732 -0.0673976 0.107811c-0.00787008,0.0126142 -0.0245,0.0164646 -0.0371417,0.00855512 -0.0126024,-0.00785827 -0.0164488,-0.0245 -0.00854724,-0.037126l0.0630472 -0.100886 -0.013248 -0.463614 -0.000137795 -0.00459449 0.0021378 -0.00634646 0.206539 -0.618846c-0.0848465,-0.0972126 -0.151854,-0.204378 -0.163925,-0.308394 -0.0286772,-0.000106299 -0.0573228,5.51181e-005 -0.0858898,0.000507874 -0.0281142,0.000515748 -0.0562283,0.00133465 -0.084189,0.00272441 -0.0280039,0.00126378 -0.0558228,0.00314961 -0.0834646,0.00581102 -0.0140079,0.00092126 -0.0273819,0.00317717 -0.0411142,0.00479921 -0.0138504,0.00143701 -0.0270945,0.00385039 -0.0402559,0.00650394 -0.00655118,0.00130709 -0.0133937,0.00238583 -0.0197756,0.00387402l-0.0184724 0.0053622c-0.0118386,0.00253543 -0.0195669,0.00725197 -0.0286142,0.0112441 -0.0227795,0.0455197 -0.0470945,0.0889213 -0.072752,0.13226 -0.0273583,0.0456732 -0.055815,0.0907323 -0.0869803,0.134193 -0.0154764,0.0217756 -0.0314331,0.0432795 -0.0481772,0.0642677l-0.0253701 0.0313031 -0.0268701 0.0302638c-0.00869291,0.0102874 -0.0186929,0.0195906 -0.0281535,0.0293228 -0.00944488,0.00972441 -0.0190276,0.019315 -0.0295748,0.0281654 -0.0104843,0.00887402 -0.020122,0.0185118 -0.0313386,0.026685l-0.0334252 0.024748 -0.000712598 0.000543307 -0.00155118 0.000830709 -0.202157 0.107819c-0.0131457,0.00700394 -0.0294724,0.00202362 -0.0364724,-0.0110984 -0.00702756,-0.0131339 -0.00204724,-0.0294567 0.0110906,-0.0364803l0.200472 -0.106898 0.0293898 -0.0217795c0.0100787,-0.00726772 0.0190472,-0.0163661 0.0286614,-0.0244528 0.00966142,-0.00805906 0.0186339,-0.0170945 0.0275118,-0.0262323 0.00885039,-0.00912205 0.018189,-0.0177008 0.0264803,-0.0275433l0.0255039 -0.0287323 0.0242953 -0.0299724c0.0160669,-0.0201102 0.0314528,-0.0409173 0.0464409,-0.0619685 0.0301654,-0.0420236 0.0579055,-0.0859803 0.0845669,-0.130539 0.0264409,-0.0445472 0.052,-0.0904567 0.0746102,-0.136283l0.00265354 -0.00637402 0.00548425 -0.00349213c0.0141575,-0.00907087 0.0295906,-0.0200197 0.0437205,-0.0247913l0.0217205 -0.00916535c0.00720472,-0.00263386 0.0143228,-0.00464173 0.0215039,-0.00698031 0.0143661,-0.00470472 0.0287992,-0.00914567 0.0430709,-0.0123661 0.0142795,-0.00341732 0.0287205,-0.00759055 0.0429803,-0.0102441 0.0286378,-0.00623622 0.0572992,-0.0116417 0.0859409,-0.0163465 0.0286693,-0.00487008 0.057311,-0.00907874 0.0859803,-0.0130591 0.0319134,-0.0042874 0.0637874,-0.00822047 0.0956654,-0.0118307 0.0159331,-0.130843 0.0744843,-0.248535 0.16135,-0.33878 -0.0169449,-0.00474409 -0.0339724,-0.0092874 -0.0510866,-0.0133307 -0.0240591,-0.00618898 -0.0482953,-0.0110551 -0.0726299,-0.016126 -0.0243425,-0.00443307 -0.0487756,-0.00896063 -0.0733071,-0.0120472 -0.0245551,-0.00394094 -0.0490945,-0.00558268 -0.073815,-0.0079685l-0.0369764 -0.00180315c-0.0124331,-0.000948819 -0.0246181,-0.000200787 -0.0369921,-0.000295276 -0.0248425,-0.000515748 -0.0490984,0.00238583 -0.0738937,0.00400787l-5.11811e-005 0 -0.0161063 0.00259449 -0.00979134 -0.0116457 -0.428398 -0.508724 -0.265705 -0.159421c-0.0127717,-0.00765748 -0.0169016,-0.0242323 -0.00924016,-0.0369803 0.00765354,-0.0127638 0.0242165,-0.0169094 0.0369803,-0.00925197l0.269551 0.161728 0.00385039 0.00232283 0.0028937 0.00341732 0.420559 0.499425c0.0208425,-0.00514567 0.0418346,-0.0105079 0.0630039,-0.0135394 0.0131378,-0.0020748 0.0263583,-0.00500394 0.0395394,-0.00614567l0.039748 -0.00455118c0.0264331,-0.00177559 0.0531535,-0.00427953 0.0796614,-0.00437008 0.0266142,-0.000968504 0.053122,-0.000425197 0.0797362,7.08661e-005 0.0264449,0.00110236 0.0530906,0.00209055 0.0794882,0.00445669 0.0265394,0.00187008 0.0528858,0.00475197 0.079315,0.00788189 0.030874,0.00387795 0.0612323,0.00820472 0.0919528,0.0135512 0.0390118,-0.021815 0.0807441,-0.0393504 0.124559,-0.0519685l-0.312331 -0.271165 -0.0098937 -0.00858268 -0.000712598 -0.0111693 -0.0537913 -0.833843 -0.0805866 -0.429831c-0.00273622,-0.0146339 0.00688976,-0.0287126 0.0215236,-0.0314606 0.0146378,-0.00274409 0.0287244,0.00687008 0.0314961,0.0215039l0.0808661 0.431299 0.000283465 0.00160236 0.000110236 0.00164173 0.0530472 0.822295 0.167067 0.110189c-0.00144094,-0.0112913 -0.00218504,-0.0227992 -0.00218504,-0.0344843 0,-0.111146 0.0672835,-0.206594 0.16335,-0.247823 -0.00273228,-0.00424803 -0.00551969,-0.00888583 -0.00802756,-0.0140709 -0.0043189,-0.00770079 -0.00830709,-0.0163701 -0.0117992,-0.0258071 -0.00411811,-0.00918504 -0.00635039,-0.0196339 -0.00954724,-0.0300157 -0.00191732,-0.0107402 -0.00459449,-0.0216339 -0.00517717,-0.0330079 -0.00144488,-0.0112638 -0.00092126,-0.0227913 -0.000858268,-0.034185 0.00116929,-0.0114213 0.00191732,-0.0227402 0.00455118,-0.0336417 0.00175591,-0.0110354 0.0056063,-0.0214134 0.00850787,-0.0314803 0.00423622,-0.00970866 0.00738976,-0.0193937 0.0123425,-0.0277008 0.00427559,-0.00860236 0.00891732,-0.0163504 0.0137795,-0.0231457 0.00918898,-0.0135827 0.0189606,-0.0249488 0.0254016,-0.0309921l0.0104055 -0.0101969c0.00274409,-0.00267717 0.00716142,-0.00265748 0.00984252,6.69291e-005 0.00249606,0.00257087 0.00265354,0.0065315 0.000472441,0.00925591l-0.00914567 0.011374c-0.0031063,0.00358268 -0.00630315,0.0080315 -0.00938583,0.0131969 -0.0032874,0.00508661 -0.0070748,0.0106929 -0.010315,0.0176732 -0.00367323,0.00662205 -0.00702756,0.0140984 -0.00992913,0.022252 -0.00356299,0.00783465 -0.00522835,0.0168819 -0.008,0.0257323 -0.00146457,0.00925591 -0.00380315,0.0185591 -0.00411811,0.0283543 -0.00121654,0.00963386 -0.000562992,0.0195 -0.000543307,0.029252 0.00121654,0.00972441 0.00180315,0.0194134 0.00421654,0.0287087 0.00152756,0.00938976 0.00501969,0.0181969 0.00749606,0.0267795 0.00377953,0.00819685 0.0063937,0.016437 0.0107402,0.023437 0.00369291,0.00729528 0.0076811,0.0138504 0.0119173,0.0195472 0.00373228,0.00599213 0.00805906,0.010874 0.0117717,0.0152008 0.00219685,0.00278346 0.00433071,0.00523622 0.00637795,0.00734646 0.0178268,-0.00370866 0.0362953,-0.00566142 0.0552244,-0.00566142 0.0189252,0 0.0373976,0.00195276 0.0552205,0.00566535 0.00204724,-0.00211417 0.00419291,-0.00456693 0.00637402,-0.00735039 0.00372047,-0.00432677 0.00801969,-0.00920866 0.0117598,-0.0152008 0.00425591,-0.00569685 0.00824016,-0.012252 0.0119331,-0.0195472 0.00434252,-0.007 0.00693701,-0.0152402 0.0107402,-0.023437 0.00248031,-0.00858268 0.0059685,-0.0173898 0.0075,-0.0267795 0.00238583,-0.00929528 0.00301969,-0.0189843 0.00420866,-0.0287087 2.3622e-005,-0.00975197 0.00069685,-0.0196181 -0.000515748,-0.029252 -0.000362205,-0.00979528 -0.00270079,-0.0190984 -0.0041378,-0.0283543 -0.00275197,-0.00885039 -0.00444094,-0.0178976 -0.008,-0.0257323 -0.00290551,-0.00815354 -0.00623622,-0.0156299 -0.00992913,-0.022252 -0.00324409,-0.00698031 -0.00702756,-0.0125866 -0.010315,-0.0176732 -0.00308661,-0.00516535 -0.00630315,-0.00961417 -0.00941339,-0.0131969l-0.00911811 -0.011374c-0.00241339,-0.00301969 -0.00191732,-0.00738583 0.00107874,-0.00979921 0.00279134,-0.00220079 0.00673228,-0.00198031 0.00925591,0.000476378l0.010378 0.0101969c0.00646457,0.00604331 0.0162165,0.0174094 0.0254016,0.0309921 0.00488976,0.00679528 0.00950394,0.0145433 0.0138031,0.0231457 0.00495669,0.00830709 0.00806693,0.0179921 0.0123228,0.0277008 0.00290157,0.0100669 0.00675197,0.0204449 0.00853543,0.0314803 0.00261024,0.0109016 0.00335433,0.0222205 0.00454331,0.0336417 4.72441e-005,0.0113937 0.000590551,0.0229213 -0.000874016,0.034185 -0.000562992,0.011374 -0.00326772,0.0222677 -0.00517717,0.0330079 -0.00317717,0.0103819 -0.00543307,0.0208307 -0.0095748,0.0300157 -0.00346457,0.00943701 -0.00743307,0.0181063 -0.0117756,0.0258071 -0.00250787,0.00518898 -0.00528346,0.00982677 -0.00801969,0.0140787 0.0960512,0.0412323 0.163339,0.136677 0.163339,0.247815 0,0.0236614 -0.00305118,0.0466142 -0.00877559,0.0684803l0.218594 -0.144169 0.0530709 -0.822311 8.66142e-005 -0.00164173 0.000318898 -0.00160236 0.0808622 -0.431299c0.00274803,-0.0146339 0.0168189,-0.024248 0.0314606,-0.0215039 0.0146339,0.00274803 0.0242756,0.0168268 0.0215039,0.0314606l-0.0805315 0.429543z"/>
   </g>
  </g>
  <path class="fil2" d="M3.41333 -3.93701e-006c1.88513,0 3.41333,1.5282 3.41333,3.41333 0,1.88513 -1.5282,3.41333 -3.41333,3.41333 -1.88513,0 -3.41333,-1.5282 -3.41333,-3.41333 0,-1.88513 1.5282,-3.41333 3.41333,-3.41333z"/>
  <path class="fil3" d="M3.46955 3.08975l0.410441 -0.270697 -0.010626 0.019752 0.0539291 -0.835622 8.66142e-005 -0.00164173 0.000318898 -0.00160236 0.0808622 -0.431299c0.00274803,-0.0146339 0.0168189,-0.024248 0.0314606,-0.0215039 0.0146339,0.00274803 0.0242756,0.0168268 0.0215039,0.0314606l-0.0808622 0.431299 0.000425197 -0.00324409 -0.0539094 0.835618 -0.000740157 0.0111693 -0.0098622 0.00858268 -0.371283 0.322331c-0.0248189,0.0215236 -0.062378,0.0188898 -0.0839449,-0.00592126 -0.0215315,-0.0248189 -0.018874,-0.062378 0.00594094,-0.0839528 0.00191339,-0.00166929 0.00418898,-0.00337402 0.00625984,-0.00472835z"/>
  <path class="fil3" d="M3.65767 3.19849c0.0544724,-0.0122283 0.10602,-0.0202165 0.159114,-0.0268858 0.0263937,-0.00312992 0.0527441,-0.00601181 0.0792913,-0.00788189 0.0263898,-0.00236614 0.0530039,-0.00335433 0.0794921,-0.00445669 0.0266142,-0.000496063 0.053122,-0.00103937 0.0797362,-7.08661e-005 0.0265039,9.05512e-005 0.0532323,0.00259449 0.0796457,0.00437008l0.039748 0.00455118c0.0131929,0.00114173 0.0264134,0.00407087 0.0395394,0.00614567 0.0263031,0.00376378 0.052311,0.011122 0.0781181,0.0172008l7.08661e-005 2.75591e-005 -0.0258976 0.00905118 0.431272 -0.512165 0.00290945 -0.00341732 0.00385039 -0.00232283 0.269547 -0.161728c0.0127677,-0.00765748 0.0293189,-0.00351181 0.0369724,0.00925197 0.0076811,0.012748 0.00353543,0.0293228 -0.00922835,0.0369803l-0.269551 0.161728 0.00673228 -0.00574409 -0.431299 0.512161 -0.00977165 0.0116457 -0.016126 -0.00259449 -3.93701e-005 0c-0.0247913,-0.00162205 -0.0490472,-0.00452362 -0.0739055,-0.00400787 -0.0123622,9.44882e-005 -0.0245433,-0.000653543 -0.0369764,0.000295276l-0.0369764 0.00180315c-0.0247283,0.00238583 -0.0492441,0.00402756 -0.073815,0.0079685 -0.0245433,0.00308661 -0.0489528,0.00761417 -0.0733189,0.0120472 -0.0243228,0.00507087 -0.0485551,0.00993701 -0.072626,0.016126 -0.0241142,0.00569291 -0.0480315,0.0123858 -0.071811,0.0192283 -0.0471732,0.0138504 -0.0952992,0.0297756 -0.13876,0.0473583 -0.0394528,0.0160315 -0.0844449,-0.00290157 -0.10048,-0.042378 -0.0160315,-0.0394528 0.00292913,-0.0844488 0.0423819,-0.100476 0.00383071,-0.00155512 0.00824409,-0.00288189 0.0121614,-0.00381102z"/>
  <path class="fil3" d="M3.77512 3.60875c0.115878,0.00747638 0.230161,0.0183346 0.344988,0.0337598 0.0286614,0.00398031 0.0573031,0.00818898 0.0859724,0.0130591 0.0286417,0.00470472 0.057311,0.0101102 0.0859528,0.0163465 0.0142559,0.00265354 0.028689,0.00682677 0.0429921,0.0102441 0.0142559,0.00322047 0.028685,0.00766142 0.0430551,0.0123661 0.0071811,0.00233858 0.0142992,0.00434646 0.0215039,0.00698031l0.021752 0.00916535c0.0140984,0.00477165 0.0295197,0.0157205 0.043685,0.0247913l0.00547638 0.00349213 0.00265354 0.00637402c0.0226102,0.0458268 0.0481929,0.0917362 0.0745787,0.136283 0.026689,0.0445591 0.0544488,0.0885157 0.0846024,0.130539 0.0149803,0.0210512 0.0303819,0.0418583 0.0464331,0.0619685l0.0242992 0.0299724 0.0255157 0.0287323c0.00826378,0.00984252 0.0176299,0.0184213 0.0264803,0.0275433 0.00887402,0.0091378 0.0178386,0.0181732 0.0275157,0.0262323 0.00959843,0.00808661 0.0186063,0.017185 0.0286693,0.0244528l0.0299528 0.0222047 -0.00227559 -0.00132677 0.202169 0.107799c0.013126,0.00702362 0.0181063,0.0233465 0.0110984,0.0364803 -0.00702362,0.013122 -0.0233465,0.0181024 -0.0364764,0.0110984l-0.202173 -0.107819 -0.00154724 -0.000830709 -0.000700787 -0.000543307 -0.0334409 -0.024748c-0.0112165,-0.00817323 -0.0208583,-0.017811 -0.0313228,-0.026685 -0.010563,-0.00885039 -0.0201378,-0.0184409 -0.0295906,-0.0281654 -0.00941339,-0.00973228 -0.0194764,-0.0190354 -0.028126,-0.0293228l-0.0268898 -0.0302638 -0.025374 -0.0313031c-0.0167323,-0.0209882 -0.0327008,-0.0424921 -0.0481693,-0.0642677 -0.0311693,-0.0434606 -0.0596299,-0.0885197 -0.0869646,-0.134193 -0.0272047,-0.045937 -0.0529016,-0.0919409 -0.076811,-0.140465l-4.33071e-005 0 0.00814961 0.00988189c-0.0109685,-0.00425591 -0.0191181,-0.0100197 -0.0326772,-0.0129213l-0.0184646 -0.0053622c-0.00641732,-0.00148819 -0.0132402,-0.00256693 -0.0197992,-0.00387402 -0.0131417,-0.00265354 -0.0263858,-0.00506693 -0.0402362,-0.00650394 -0.0137323,-0.00162205 -0.0271142,-0.00387795 -0.041122,-0.00479921 -0.0276299,-0.00266142 -0.0554606,-0.00454724 -0.0834764,-0.00581102 -0.0279409,-0.00138976 -0.0560709,-0.00220866 -0.0841693,-0.00272441 -0.112413,-0.00177953 -0.225996,0.000929134 -0.337957,0.00696063l-0.000385827 1.9685e-005c-0.037248,0.00200787 -0.0690669,-0.0265709 -0.0710472,-0.0637953 -0.00202362,-0.0372441 0.0265276,-0.0690433 0.0637717,-0.071063 0.00256693,-0.000137795 0.0054685,-7.48031e-005 0.00797244,3.93701e-005z"/>
  <path class="fil3" d="M3.84315 3.98526l0.226339 0.678063 0.0021378 0.00634646 -0.000129921 0.00459449 -0.0134921 0.47172 -0.00409843 -0.0150394 0.0673976 0.107819c0.00788189,0.012626 0.00405118,0.0292677 -0.00855906,0.037126 -0.012626,0.00790945 -0.0292677,0.00405906 -0.0371496,-0.00855512l-0.067378 -0.107811 -0.00432283 -0.00691732 0.000204724 -0.00812992 0.0134843 -0.47172 0.00200787 0.0109488 -0.312787 -0.642772c-0.0178583,-0.0366654 -0.00261024,-0.0808228 0.0340472,-0.0986811 0.0366614,-0.0178307 0.0808228,-0.00256299 0.0986811,0.0340748 0.00137008,0.00281102 0.00265354,0.00605118 0.00361811,0.00893307z"/>
  <path class="fil3" d="M3.28535 3.18435l-0.371264 -0.322331 -0.0098937 -0.00858268 -0.000712598 -0.0111693 -0.0539055 -0.835618 0.000389764 0.00324409 -0.0808622 -0.431299c-0.00273622,-0.0146339 0.00688976,-0.0287126 0.0215236,-0.0314606 0.0146378,-0.00274409 0.0287244,0.00687008 0.0314961,0.0215039l0.0808661 0.431299 0.000283465 0.00160236 0.000110236 0.00164173 0.0539055 0.835622 -0.0106024 -0.019752 0.410433 0.270697c0.0274291,0.0180787 0.0350157,0.0549921 0.0169291,0.0824173 -0.018126,0.0274488 -0.0550079,0.0350157 -0.082437,0.0169094 -0.00211811,-0.00137008 -0.00437008,-0.00312992 -0.00625984,-0.00472441z"/>
  <path class="fil3" d="M3.12304 3.34515c-0.0434606,-0.0175827 -0.0915748,-0.0335079 -0.138732,-0.0473583 -0.0237795,-0.00684252 -0.0477126,-0.0135354 -0.0718189,-0.0192283 -0.0240591,-0.00618898 -0.0482953,-0.0110551 -0.0726299,-0.016126 -0.0243425,-0.00443307 -0.0487756,-0.00896063 -0.0733071,-0.0120472 -0.0245551,-0.00394094 -0.0490945,-0.00558268 -0.073815,-0.0079685l-0.0369764 -0.00180315c-0.0124331,-0.000948819 -0.0246181,-0.000200787 -0.0369921,-0.000295276 -0.0248425,-0.000515748 -0.0490984,0.00238583 -0.0738937,0.00400787l-5.11811e-005 0 -0.0161063 0.00259449 -0.00979134 -0.0116457 -0.431291 -0.512161 0.00674016 0.00574409 -0.269551 -0.161728c-0.0127717,-0.00765748 -0.0169016,-0.0242323 -0.00924016,-0.0369803 0.00765354,-0.0127638 0.0242165,-0.0169094 0.0369803,-0.00925197l0.269551 0.161728 0.00385039 0.00232283 0.0028937 0.00341732 0.431287 0.512165 -0.0258976 -0.00905118 7.87402e-005 -2.75591e-005c0.0257913,-0.00607874 0.0518071,-0.013437 0.0780945,-0.0172008 0.0131378,-0.0020748 0.0263583,-0.00500394 0.0395394,-0.00614567l0.039748 -0.00455118c0.0264331,-0.00177559 0.0531535,-0.00427953 0.0796614,-0.00437008 0.0266142,-0.000968504 0.053122,-0.000425197 0.0797362,7.08661e-005 0.0264449,0.00110236 0.0530906,0.00209055 0.0794882,0.00445669 0.0265394,0.00187008 0.0528858,0.00475197 0.079315,0.00788189 0.0530748,0.00666929 0.104622,0.0146575 0.159114,0.0268858 0.0415276,0.00932283 0.0676654,0.0505512 0.0583268,0.092126 -0.00932677,0.0415709 -0.0505787,0.067689 -0.0921535,0.0583701 -0.00400394,-0.000929134 -0.00841732,-0.00234646 -0.0121575,-0.00383071z"/>
  <path class="fil3" d="M3.05184 3.74355c-0.111949,-0.0060315 -0.225547,-0.00874016 -0.337945,-0.00696063 -0.0281142,0.000515748 -0.0562283,0.00133465 -0.084189,0.00272441 -0.0280039,0.00126378 -0.0558228,0.00314961 -0.0834646,0.00581102 -0.0140079,0.00092126 -0.0273819,0.00317717 -0.0411142,0.00479921 -0.0138504,0.00143701 -0.0270945,0.00385039 -0.0402559,0.00650394 -0.00655118,0.00130709 -0.0133937,0.00238583 -0.0197756,0.00387402l-0.0184724 0.0053622c-0.0135551,0.00290157 -0.0217205,0.00866535 -0.0326417,0.0129213l0.0081063 -0.00988189c-0.0239488,0.0485236 -0.0496378,0.0945276 -0.0768307,0.140465 -0.0273583,0.0456732 -0.055815,0.0907323 -0.0869803,0.134193 -0.0154764,0.0217756 -0.0314331,0.0432795 -0.0481772,0.0642677l-0.0253701 0.0313031 -0.0268701 0.0302638c-0.00869291,0.0102874 -0.0186929,0.0195906 -0.0281535,0.0293228 -0.00944488,0.00972441 -0.0190276,0.019315 -0.0295748,0.0281654 -0.0104843,0.00887402 -0.020122,0.0185118 -0.0313386,0.026685l-0.0334252 0.024748 -0.000712598 0.000543307 -0.00155118 0.000830709 -0.202157 0.107819c-0.0131457,0.00700394 -0.0294724,0.00202362 -0.0364724,-0.0110984 -0.00702756,-0.0131339 -0.00204724,-0.0294567 0.0110906,-0.0364803l0.202161 -0.107799 -0.00226378 0.00132677 0.0299646 -0.0222047c0.0100787,-0.00726772 0.0190472,-0.0163661 0.0286614,-0.0244528 0.00966142,-0.00805906 0.0186339,-0.0170945 0.0275118,-0.0262323 0.00885039,-0.00912205 0.018189,-0.0177008 0.0264803,-0.0275433l0.0255039 -0.0287323 0.0242953 -0.0299724c0.0160669,-0.0201102 0.0314528,-0.0409173 0.0464409,-0.0619685 0.0301654,-0.0420236 0.0579055,-0.0859803 0.0845669,-0.130539 0.0264409,-0.0445472 0.052,-0.0904567 0.0746102,-0.136283l0.00265354 -0.00637402 0.00548425 -0.00349213c0.0141575,-0.00907087 0.0295906,-0.0200197 0.0437205,-0.0247913l0.0217205 -0.00916535c0.00720472,-0.00263386 0.0143228,-0.00464173 0.0215039,-0.00698031 0.0143661,-0.00470472 0.0287992,-0.00914567 0.0430709,-0.0123661 0.0142795,-0.00341732 0.0287205,-0.00759055 0.0429803,-0.0102441 0.0286378,-0.00623622 0.0572992,-0.0116417 0.0859409,-0.0163465 0.0286693,-0.00487008 0.057311,-0.00907874 0.0859803,-0.0130591 0.114819,-0.0154252 0.229094,-0.0262835 0.344972,-0.0337598 0.0372323,-0.00238583 0.0692992,0.0258307 0.0717323,0.0630276 0.00238583,0.0372283 -0.0258268,0.0693386 -0.0630512,0.0717244 -0.00254331,0.000185039 -0.00507874,0.000204724 -0.0075748,9.44882e-005l-0.000791339 -4.72441e-005z"/>
  <path class="fil3" d="M3.11988 4.04093l-0.312787 0.642772 0.00198425 -0.0109488 0.0134803 0.47172 0.000216535 0.00812992 -0.00431496 0.00691732 -0.0673976 0.107811c-0.00787008,0.0126142 -0.0245,0.0164646 -0.0371417,0.00855512 -0.0126024,-0.00785827 -0.0164488,-0.0245 -0.00854724,-0.037126l0.0673819 -0.107819 -0.00410236 0.0150394 -0.0134803 -0.47172 -0.000137795 -0.00459449 0.0021378 -0.00634646 0.226303 -0.678063c0.0129252,-0.0386614 0.0547323,-0.0595591 0.0933937,-0.0466299 0.038689,0.0129016 0.0595394,0.0546969 0.0466654,0.0933583 -0.00101575,0.00294882 -0.00234252,0.00619685 -0.00365354,0.00894488z"/>
  <path class="fil4" d="M3.98387 3.7031c0,0.327535 -0.592996,0.70085 -0.592996,0.70085 0,0 -0.593031,-0.373315 -0.593031,-0.70085 0,-0.3275 0.265512,-0.593016 0.593031,-0.593016 0.3275,0 0.592996,0.265516 0.592996,0.593016z"/>
  <path class="fil5" d="M3.66041 2.90118c0,0.148866 -0.120697,0.269567 -0.269543,0.269567 -0.148874,0 -0.269551,-0.120701 -0.269551,-0.269567 0,-0.14885 0.120677,-0.269551 0.269551,-0.269551 0.148846,0 0.269543,0.120701 0.269543,0.269551z"/>
  <path class="fil6" d="M3.33456 2.36844c0,0 -0.00331102,0.00412598 -0.00914567,0.011374 -0.0031063,0.00358268 -0.00630315,0.0080315 -0.00938583,0.0131969 -0.0032874,0.00508661 -0.0070748,0.0106929 -0.010315,0.0176732 -0.00367323,0.00662205 -0.00702756,0.0140984 -0.00992913,0.022252 -0.00356299,0.00783465 -0.00522835,0.0168819 -0.008,0.0257323 -0.00146457,0.00925591 -0.00380315,0.0185591 -0.00411811,0.0283543 -0.00121654,0.00963386 -0.000562992,0.0195 -0.000543307,0.029252 0.00121654,0.00972441 0.00180315,0.0194134 0.00421654,0.0287087 0.00152756,0.00938976 0.00501969,0.0181969 0.00749606,0.0267795 0.00377953,0.00819685 0.0063937,0.016437 0.0107402,0.023437 0.00369291,0.00729528 0.0076811,0.0138504 0.0119173,0.0195472 0.00373228,0.00599213 0.00805906,0.010874 0.0117717,0.0152008 0.00353543,0.00448031 0.00691339,0.0081063 0.0100197,0.0108307 0.00583465,0.00567323 0.00918898,0.00891732 0.00918898,0.00891732l0.00166929 0.00164567c0.0107165,0.0103819 0.0109409,0.0275197 0.000559055,0.0382323 -0.0104252,0.0107008 -0.0275354,0.0109488 -0.0382559,0.000562992 -0.000720472,-0.000740157 -0.00143701,-0.0015315 -0.00211811,-0.00231496 0,0 -0.00374016,-0.00462205 -0.010315,-0.0126535 -0.00341732,-0.00394094 -0.00716535,-0.00898819 -0.0109685,-0.0151575 -0.00398031,-0.00598819 -0.00852756,-0.0127008 -0.0124055,-0.0207205 -0.0043189,-0.00770079 -0.00830709,-0.0163701 -0.0117992,-0.0258071 -0.00411811,-0.00918504 -0.00635039,-0.0196339 -0.00954724,-0.0300157 -0.00191732,-0.0107402 -0.00459449,-0.0216339 -0.00517717,-0.0330079 -0.00144488,-0.0112638 -0.00092126,-0.0227913 -0.000858268,-0.034185 0.00116929,-0.0114213 0.00191732,-0.0227402 0.00455118,-0.0336417 0.00175591,-0.0110354 0.0056063,-0.0214134 0.00850787,-0.0314803 0.00423622,-0.00970866 0.00738976,-0.0193937 0.0123425,-0.0277008 0.00427559,-0.00860236 0.00891732,-0.0163504 0.0137795,-0.0231457 0.00918898,-0.0135827 0.0189606,-0.0249488 0.0254016,-0.0309921 0.00664567,-0.00648425 0.0104055,-0.0101969 0.0104055,-0.0101969 0.00274409,-0.00267717 0.00716142,-0.00265748 0.00984252,6.69291e-005 0.00249606,0.00257087 0.00265354,0.0065315 0.000472441,0.00925591z"/>
  <path class="fil6" d="M3.4575 2.35911c0,0 0.00373622,0.0037126 0.010378,0.0101969 0.00646457,0.00604331 0.0162165,0.0174094 0.0254016,0.0309921 0.00488976,0.00679528 0.00950394,0.0145433 0.0138031,0.0231457 0.00495669,0.00830709 0.00806693,0.0179921 0.0123228,0.0277008 0.00290157,0.0100669 0.00675197,0.0204449 0.00853543,0.0314803 0.00261024,0.0109016 0.00335433,0.0222205 0.00454331,0.0336417 4.72441e-005,0.0113937 0.000590551,0.0229213 -0.000874016,0.034185 -0.000562992,0.011374 -0.00326772,0.0222677 -0.00517717,0.0330079 -0.00317717,0.0103819 -0.00543307,0.0208307 -0.0095748,0.0300157 -0.00346457,0.00943701 -0.00743307,0.0181063 -0.0117756,0.0258071 -0.00387402,0.00801969 -0.00839764,0.0147323 -0.0124055,0.0207205 -0.00383071,0.00616929 -0.00754724,0.0112165 -0.0109488,0.0151575 -0.0065748,0.0080315 -0.0103583,0.0126535 -0.0103583,0.0126535 -0.00943307,0.0115748 -0.0264803,0.0132835 -0.0380079,0.00387008 -0.0115984,-0.00945276 -0.0133307,-0.0264803 -0.00387795,-0.0380827 0.000653543,-0.00080315 0.00135433,-0.00156693 0.00207874,-0.00226772l0.00170472 -0.00164567c0,0 0.00333465,-0.00324409 0.00919291,-0.00891732 0.00305906,-0.00272441 0.00648425,-0.00635039 0.00999213,-0.0108307 0.00372047,-0.00432677 0.00801969,-0.00920866 0.0117598,-0.0152008 0.00425591,-0.00569685 0.00824016,-0.012252 0.0119331,-0.0195472 0.00434252,-0.007 0.00693701,-0.0152402 0.0107402,-0.023437 0.00248031,-0.00858268 0.0059685,-0.0173898 0.0075,-0.0267795 0.00238583,-0.00929528 0.00301969,-0.0189843 0.00420866,-0.0287087 2.3622e-005,-0.00975197 0.00069685,-0.0196181 -0.000515748,-0.029252 -0.000362205,-0.00979528 -0.00270079,-0.0190984 -0.0041378,-0.0283543 -0.00275197,-0.00885039 -0.00444094,-0.0178976 -0.008,-0.0257323 -0.00290551,-0.00815354 -0.00623622,-0.0156299 -0.00992913,-0.022252 -0.00324409,-0.00698031 -0.00702756,-0.0125866 -0.010315,-0.0176732 -0.00308661,-0.00516535 -0.00630315,-0.00961417 -0.00941339,-0.0131969 -0.00581102,-0.00724803 -0.00911811,-0.011374 -0.00911811,-0.011374 -0.00241339,-0.00301969 -0.00191732,-0.00738583 0.00107874,-0.00979921 0.00279134,-0.00220079 0.00673228,-0.00198031 0.00925591,0.000476378z"/>
  <path class="fil7" d="M3.27086 3.31183c0,0 -0.0075,0.00935039 -0.0207362,0.0257874 -0.00703937,0.00812205 -0.0142874,0.0182165 -0.0212835,0.0299252 -0.00745276,0.0115315 -0.0160354,0.024248 -0.0233858,0.0400748 -0.00833071,0.0150157 -0.0159331,0.0319724 -0.0225157,0.0504528 -0.0080748,0.0177717 -0.0118543,0.0382835 -0.0181417,0.0583504 -0.0033189,0.0209882 -0.00862598,0.0420787 -0.00933465,0.0642953 -0.00275591,0.0218465 -0.00127559,0.0442126 -0.00123228,0.0663228 0.00275591,0.0220551 0.00409055,0.0440197 0.00955906,0.0650945 0.0034685,0.0212992 0.0113858,0.0412638 0.017,0.0607244 0.00856693,0.0185866 0.0144961,0.0372756 0.0243543,0.0531496 0.00837402,0.0165394 0.0174134,0.0314055 0.0270157,0.044315 0.00846457,0.0135906 0.0182756,0.0246614 0.0266929,0.0344724 0.00801969,0.0101535 0.0156811,0.018378 0.0227244,0.0245591 0.0132323,0.0128661 0.0208386,0.0202165 0.0208386,0.0202165l0.00377953 0.00373622c0.0243031,0.0235354 0.0248071,0.0623976 0.00127165,0.086689 -0.0236378,0.0242598 -0.0624409,0.0248228 -0.086748,0.00127559 -0.00162992,-0.00167717 -0.00325984,-0.0034685 -0.00480315,-0.00524803 0,0 -0.00847638,-0.0104803 -0.0233858,-0.0286929 -0.00775197,-0.00893701 -0.0162441,-0.0203819 -0.0248701,-0.0343701 -0.00902756,-0.0135787 -0.0193425,-0.0287992 -0.0281299,-0.0469843 -0.00979921,-0.0174606 -0.0188386,-0.0371142 -0.026752,-0.0585157 -0.00933858,-0.0208228 -0.0144055,-0.0445236 -0.0216535,-0.0680591 -0.00434252,-0.0243504 -0.0104213,-0.0490551 -0.0117402,-0.0748465 -0.00327559,-0.0255354 -0.00209055,-0.0516811 -0.00194094,-0.0775157 0.00265354,-0.0258898 0.00434252,-0.051563 0.010315,-0.0762835 0.00398819,-0.0250157 0.0127165,-0.0485551 0.0192992,-0.071378 0.00960236,-0.0220118 0.016748,-0.0439764 0.0279803,-0.062811 0.00969291,-0.0195079 0.0202165,-0.0370709 0.0312441,-0.0524843 0.0208386,-0.0307992 0.0429961,-0.0565709 0.0575945,-0.0702677 0.0150748,-0.0147008 0.0235945,-0.0231181 0.0235945,-0.0231181 0.00622441,-0.00607874 0.0162441,-0.00603543 0.0223228,0.000145669 0.00566142,0.00582677 0.00601575,0.0148071 0.00106693,0.0209882z"/>
  <path class="fil7" d="M3.54965 3.2907c0,0 0.00847638,0.00841732 0.0235354,0.0231181 0.0146575,0.0136969 0.0367717,0.0394685 0.0575945,0.0702677 0.0110866,0.0154134 0.0215512,0.0329764 0.0313031,0.0524843 0.0112323,0.0188346 0.0182874,0.0407992 0.027937,0.062811 0.00657874,0.0228228 0.015311,0.0463622 0.0193543,0.071378 0.00591732,0.0247205 0.0076063,0.0503937 0.0103031,0.0762835 0.000102362,0.0258346 0.00133465,0.0519803 -0.00198819,0.0775157 -0.00127165,0.0257913 -0.00740945,0.0504961 -0.0117362,0.0748465 -0.00720472,0.0235354 -0.0123189,0.0472362 -0.0217126,0.0680591 -0.00785827,0.0214016 -0.0168543,0.0410551 -0.0266929,0.0585157 -0.00879134,0.018185 -0.0190472,0.0334055 -0.0281299,0.0469843 -0.00868898,0.0139882 -0.017122,0.0254331 -0.0248268,0.0343701 -0.0149094,0.0182126 -0.0234921,0.0286929 -0.0234921,0.0286929 -0.0213858,0.026248 -0.0600394,0.0301181 -0.086185,0.00877559 -0.0262913,-0.0214331 -0.0302205,-0.0600433 -0.0087874,-0.0863504 0.00148031,-0.00182283 0.00306693,-0.00355512 0.0047126,-0.00514173l0.00386614 -0.00373622c0,0 0.00755906,-0.00735039 0.0208386,-0.0202165 0.00693701,-0.0061811 0.0147047,-0.0144055 0.0226614,-0.0245591 0.00843307,-0.00981102 0.018185,-0.0208819 0.0266654,-0.0344724 0.00964961,-0.0129094 0.018689,-0.0277756 0.027063,-0.044315 0.00984252,-0.015874 0.0157244,-0.034563 0.0243504,-0.0531496 0.00561811,-0.0194606 0.0135315,-0.0394252 0.017,-0.0607244 0.00540945,-0.0210748 0.00684646,-0.0430394 0.00954331,-0.0650945 6.29921e-005,-0.0221102 0.00158661,-0.0444764 -0.00116929,-0.0663228 -0.000814961,-0.0222165 -0.00612205,-0.0433071 -0.00938189,-0.0642953 -0.00624016,-0.0200669 -0.010063,-0.0405787 -0.0181417,-0.0583504 -0.00657874,-0.0184803 -0.0141378,-0.035437 -0.0225118,-0.0504528 -0.00735039,-0.0158268 -0.0159331,-0.0285433 -0.0233898,-0.0400748 -0.00699606,-0.0117087 -0.0142874,-0.0218031 -0.0213425,-0.0299252 -0.0131732,-0.016437 -0.0206732,-0.0257874 -0.0206732,-0.0257874 -0.0054685,-0.00684646 -0.00434252,-0.016748 0.00244488,-0.0222165 0.00632677,-0.00499606 0.0152638,-0.00449213 0.0209882,0.00108268z"/>
  <path class="fil7" d="M3.33061 3.43695c0,0 -0.00399213,0.00497638 -0.0110315,0.0137205 -0.00374803,0.00432283 -0.00760236,0.00969291 -0.0113228,0.0159213 -0.0039685,0.00613386 -0.0085315,0.0129016 -0.0124449,0.0213228 -0.00442913,0.00798819 -0.00847638,0.0170079 -0.0119764,0.0268386 -0.00429921,0.00945669 -0.00630709,0.0203701 -0.00965354,0.0310472 -0.00176378,0.0111654 -0.00458661,0.0223858 -0.00496457,0.0342047 -0.0014685,0.011622 -0.000681102,0.0235197 -0.00065748,0.0352874 0.0014685,0.0117323 0.00217717,0.0234173 0.00508661,0.0346299 0.00184646,0.0113307 0.00605512,0.0219528 0.00904331,0.0323071 0.00455906,0.00988583 0.0077126,0.0198307 0.0129567,0.0282756 0.00445669,0.00879921 0.00926378,0.0167087 0.014374,0.0235748 0.00450394,0.00723228 0.00972441,0.013122 0.0142008,0.0183425 0.00426772,0.00540157 0.00834252,0.00977953 0.0120906,0.0130669 0.00703937,0.00684252 0.0110866,0.0107559 0.0110866,0.0107559l0.00200787 0.00198425c0.0129331,0.0125236 0.0132008,0.0331969 0.000681102,0.046122 -0.0125787,0.0129094 -0.0332205,0.0132087 -0.0461535,0.000677165 -0.000866142,-0.000889764 -0.00173622,-0.00184252 -0.00255512,-0.00279134 0,0 -0.00450787,-0.0055748 -0.0124409,-0.0152638 -0.00412598,-0.00475591 -0.00864173,-0.0108425 -0.0132323,-0.0182874 -0.00480315,-0.00722047 -0.0102913,-0.0153189 -0.0149646,-0.0249961 -0.0052126,-0.0092874 -0.0100236,-0.0197441 -0.0142362,-0.0311299 -0.00496457,-0.0110787 -0.00766142,-0.023689 -0.0115197,-0.0362087 -0.00231102,-0.0129567 -0.00554331,-0.0261024 -0.00624409,-0.0398189 -0.00174409,-0.0135866 -0.00111024,-0.0274961 -0.0010315,-0.0412402 0.00140945,-0.0137756 0.00230709,-0.0274331 0.00548819,-0.0405866 0.00211811,-0.013311 0.00676378,-0.0258307 0.0102638,-0.0379764 0.00511024,-0.0117087 0.00890945,-0.0233937 0.0148898,-0.0334173 0.00515354,-0.010374 0.0107559,-0.0197205 0.016622,-0.0279213 0.0110866,-0.0163858 0.022874,-0.0300984 0.0306417,-0.0373819 0.00801969,-0.00782283 0.0125512,-0.0123031 0.0125512,-0.0123031 0.00331102,-0.00323228 0.00864173,-0.00320866 0.011874,7.87402e-005 0.00301575,0.00310236 0.00320472,0.00787795 0.000570866,0.0111654z"/>
  <path class="fil7" d="M3.47893 3.42571c0,0 0.00451181,0.00448031 0.0125236,0.0123031 0.00779528,0.00728346 0.019563,0.0209961 0.0306417,0.0373819 0.00589764,0.00820079 0.0114646,0.0175472 0.0166535,0.0279213 0.00597638,0.0100236 0.00972835,0.0217087 0.0148622,0.0334173 0.0035,0.0121457 0.00814567,0.0246654 0.0102992,0.0379764 0.00314567,0.0131535 0.00404331,0.026811 0.00548031,0.0405866 5.51181e-005,0.0137441 0.000708661,0.0276535 -0.00105906,0.0412402 -0.000677165,0.0137165 -0.00394094,0.0268622 -0.00624409,0.0398189 -0.00383071,0.0125197 -0.00655118,0.0251299 -0.0115512,0.0362087 -0.0041811,0.0113858 -0.00896457,0.0218425 -0.0142008,0.0311299 -0.00467717,0.00967717 -0.0101339,0.0177756 -0.0149685,0.0249961 -0.00461811,0.00744488 -0.0091063,0.0135315 -0.0132047,0.0182874 -0.00793307,0.00968898 -0.0125,0.0152638 -0.0125,0.0152638 -0.011378,0.0139646 -0.0319409,0.0160236 -0.0458504,0.00466929 -0.0139882,-0.0114016 -0.0160787,-0.0319449 -0.00467717,-0.0459409 0.000787402,-0.000968504 0.00163386,-0.00188976 0.00250787,-0.00273622l0.00205906 -0.00198425c0,0 0.00401969,-0.00391339 0.0110866,-0.0107559 0.00368898,-0.0032874 0.0078189,-0.00766535 0.0120551,-0.0130669 0.00448819,-0.00522047 0.00967323,-0.0111102 0.014185,-0.0183425 0.00513386,-0.00686614 0.00994488,-0.0147756 0.0143976,-0.0235748 0.00523622,-0.00844488 0.00836614,-0.0183898 0.0129567,-0.0282756 0.00298819,-0.0103543 0.00719685,-0.0209764 0.00904331,-0.0323071 0.00287795,-0.0112126 0.00364173,-0.0228976 0.00507874,-0.0346299 3.14961e-005,-0.0117677 0.00084252,-0.0236654 -0.000622047,-0.0352874 -0.000433071,-0.0118189 -0.00325591,-0.0230394 -0.00499213,-0.0342047 -0.0033189,-0.0106772 -0.00535433,-0.0215906 -0.00965354,-0.0310472 -0.0035,-0.00983071 -0.00751969,-0.0188504 -0.0119764,-0.0268386 -0.00390945,-0.00842126 -0.00847638,-0.015189 -0.0124409,-0.0213228 -0.00372441,-0.00622835 -0.00760236,-0.0115984 -0.0113543,-0.0159213 -0.00701181,-0.00874409 -0.011,-0.0137205 -0.011,-0.0137205 -0.00290945,-0.00364173 -0.00231102,-0.00890945 0.00129921,-0.0118189 0.00336614,-0.00265748 0.00812205,-0.00238976 0.0111654,0.000574803z"/>
  <circle class="fil8" cx="3.26394" cy="2.82098" r="0.0438099"/>
  <circle class="fil9" cx="3.26394" cy="2.82098" r="0.0192342"/>
  <circle class="fil8" cx="3.51779" cy="2.82098" r="0.0438099"/>
  <circle class="fil9" cx="3.51779" cy="2.82098" r="0.0192342"/>
 </g>
</svg>
