<?xml version="1.0" encoding="UTF-8"?>
<!DOCTYPE svg PUBLIC "-//W3C//DTD SVG 1.1//EN" "http://www.w3.org/Graphics/SVG/1.1/DTD/svg11.dtd">
<!-- Creator: CorelDRAW -->
<svg xmlns="http://www.w3.org/2000/svg" xml:space="preserve" width="6.82666in" height="6.82666in" style="shape-rendering:geometricPrecision; text-rendering:geometricPrecision; image-rendering:optimizeQuality; fill-rule:evenodd; clip-rule:evenodd"
viewBox="0 0 6.82666 6.82666"
 xmlns:xlink="http://www.w3.org/1999/xlink">
 <defs>
  <style type="text/css">
   <![CDATA[
    .fil2 {fill:none}
    .fil1 {fill:#00000000}
    .fil0 {fill:#00000000}
    .fil8 {fill:#3E2723}
    .fil4 {fill:#BA8F72}
    .fil3 {fill:#C4997C}
    .fil5 {fill:#EBBFA1}
    .fil6 {fill:#F7D2B9}
    .fil7 {fill:#F9FBE7}
   ]]>
  </style>
   <clipPath id="id0">
    <path d="M3.41333 -3.93701e-006c1.88513,0 3.41333,1.5282 3.41333,3.41333 0,1.88513 -1.5282,3.41333 -3.41333,3.41333 -1.88513,0 -3.41333,-1.5282 -3.41333,-3.41333 0,-1.88513 1.5282,-3.41333 3.41333,-3.41333z"/>
   </clipPath>
 </defs>
 <g id="Layer_x0020_1">
  <metadata id="CorelCorpID_0Corel-Layer"/>
  <path class="fil0" d="M3.41333 -3.93701e-006c1.88513,0 3.41333,1.5282 3.41333,3.41333 0,1.88513 -1.5282,3.41333 -3.41333,3.41333 -1.88513,0 -3.41333,-1.5282 -3.41333,-3.41333 0,-1.88513 1.5282,-3.41333 3.41333,-3.41333z"/>
  <g style="clip-path:url(#id0)">
   <g id="_637657600">
    <g>
     <polygon id="_6545371041" class="fil1" points="5.02956,2.08151 8.81583,5.86778 8.82938,5.88405 8.84266,5.90069 8.85566,5.91768 8.86836,5.93502 5.08209,2.14875 5.06939,2.13141 5.05639,2.11441 5.04311,2.09778 "/>
     <polygon id="_654536864" class="fil1" points="5.08209,2.14875 8.86836,5.93502 8.87996,5.95154 8.89128,5.96835 8.90232,5.98544 8.91307,6.00281 8.92353,6.02045 8.93368,6.03836 8.94352,6.05653 8.95304,6.07495 8.96223,6.09362 8.97108,6.11254 8.97959,6.13169 8.98776,6.15107 8.99556,6.17067 9.003,6.1905 9.01007,6.21053 9.01676,6.23077 9.02306,6.25121 9.02896,6.27185 9.03446,6.29267 9.03955,6.31367 9.04422,6.33485 9.04846,6.3562 9.05227,6.37772 9.05564,6.39939 9.05856,6.42121 9.06102,6.44318 9.06302,6.46529 9.06455,6.48753 9.0656,6.5099 9.06616,6.53239 9.06623,6.55499 9.0658,6.57771 5.27953,2.79144 5.27996,2.76872 5.27989,2.74612 5.27933,2.72363 5.27828,2.70126 5.27676,2.67902 5.27476,2.65691 5.2723,2.63494 5.26937,2.61312 5.266,2.59144 5.26219,2.56993 5.25795,2.54858 5.25328,2.5274 5.24819,2.5064 5.24269,2.48557 5.23679,2.46494 5.23049,2.4445 5.2238,2.42426 5.21674,2.40422 5.2093,2.3844 5.20149,2.3648 5.19333,2.34542 5.18481,2.32626 5.17596,2.30735 5.16677,2.28868 5.15725,2.27026 5.14741,2.25209 5.13726,2.23418 5.12681,2.21654 5.11606,2.19917 5.10502,2.18207 5.09369,2.16527 "/>
     <polygon id="_654540272" class="fil1" points="5.27953,2.79144 9.0658,6.57771 9.0657,6.58059 9.06561,6.58348 9.06552,6.58637 9.06541,6.58926 9.06531,6.59216 9.0652,6.59506 9.06508,6.59796 9.06496,6.60088 9.06484,6.60379 9.06472,6.60671 9.06458,6.60963 9.06445,6.61256 9.06431,6.61549 9.06417,6.61843 9.06402,6.62137 9.06387,6.62431 5.2776,2.83804 5.27775,2.83509 5.2779,2.83216 5.27804,2.82922 5.27818,2.82629 5.27831,2.82336 5.27845,2.82044 5.27857,2.81752 5.2787,2.81461 5.27881,2.81169 5.27893,2.80879 5.27904,2.80589 5.27915,2.80299 5.27925,2.80009 5.27935,2.7972 5.27944,2.79432 "/>
     <polygon id="_654540560" class="fil1" points="5.2776,2.83804 9.06387,6.62431 9.06317,6.63681 9.0624,6.64939 9.06155,6.66204 9.06062,6.67476 9.05961,6.68756 9.05853,6.70041 9.05736,6.71334 9.05611,6.72634 9.05478,6.73941 9.05337,6.75254 9.05188,6.76573 9.05031,6.77899 9.04865,6.79232 9.04691,6.8057 9.04508,6.81916 9.04317,6.83267 9.04117,6.84625 9.03909,6.85988 9.03692,6.87358 9.03467,6.88733 9.03232,6.90115 9.02989,6.91502 9.02737,6.92894 9.02476,6.94293 9.02207,6.95697 9.01928,6.97106 9.0164,6.98521 9.01343,6.99941 9.01037,7.01367 9.00722,7.02797 9.00398,7.04233 9.00064,7.05674 5.21437,3.27046 5.21771,3.25606 5.22096,3.2417 5.22411,3.22739 5.22717,3.21314 5.23013,3.19894 5.23301,3.18479 5.2358,3.1707 5.2385,3.15666 5.24111,3.14267 5.24362,3.12875 5.24606,3.11487 5.2484,3.10106 5.25065,3.08731 5.25282,3.07361 5.2549,3.05998 5.2569,3.0464 5.25881,3.03289 5.26064,3.01943 5.26238,3.00605 5.26404,2.99272 5.26561,2.97946 5.26711,2.96626 5.26852,2.95313 5.26985,2.94007 5.27109,2.92707 5.27226,2.91414 5.27335,2.90128 5.27435,2.88849 5.27528,2.87577 5.27613,2.86312 5.27691,2.85054 "/>
     <polygon id="_654540608" class="fil1" points="4.90246,3.1711 8.68873,6.95737 8.68252,6.95125 8.67627,6.94526 8.66998,6.9394 8.66367,6.93367 8.65733,6.92807 8.65096,6.92261 8.64457,6.91727 8.63815,6.91207 8.63172,6.907 8.62527,6.90206 8.6188,6.89725 8.61232,6.89257 8.60583,6.88803 8.59933,6.88362 8.59283,6.87934 8.58632,6.8752 4.80005,3.08893 4.80656,3.09307 4.81307,3.09735 4.81956,3.10176 4.82606,3.1063 4.83254,3.11098 4.839,3.11579 4.84545,3.12073 4.85189,3.1258 4.8583,3.131 4.86469,3.13633 4.87106,3.1418 4.87741,3.1474 4.88372,3.15313 4.89,3.15899 4.89625,3.16498 "/>
     <polygon id="_654541088" class="fil1" points="4.92948,3.19975 8.71574,6.98602 8.70683,6.97619 8.69783,6.96664 8.68873,6.95737 4.90246,3.1711 4.91156,3.18037 4.92057,3.18992 "/>
     <polygon id="_654540872" class="fil1" points="4.80005,3.08893 8.58632,6.8752 8.5791,6.87075 8.57187,6.86647 8.56464,6.86234 8.55741,6.85837 8.55019,6.85457 8.54296,6.85092 8.53575,6.84743 8.52855,6.8441 8.52136,6.84093 8.51419,6.83791 8.50704,6.83506 8.49991,6.83237 8.4928,6.82983 8.48573,6.82746 8.47869,6.82525 8.47168,6.8232 8.4647,6.82131 8.45778,6.81957 8.45089,6.818 8.44405,6.81659 8.43725,6.81534 8.43051,6.81426 8.42383,6.81333 8.4172,6.81256 8.41063,6.81196 8.40413,6.81151 8.39769,6.81123 8.39132,6.81111 8.38502,6.81115 8.3788,6.81135 8.37266,6.81172 8.36659,6.81224 4.58033,3.02597 4.58639,3.02544 4.59253,3.02508 4.59876,3.02488 4.60505,3.02484 4.61142,3.02496 4.61786,3.02524 4.62436,3.02569 4.63093,3.02629 4.63756,3.02706 4.64424,3.02798 4.65098,3.02907 4.65778,3.03032 4.66462,3.03173 4.67151,3.0333 4.67844,3.03504 4.68541,3.03693 4.69242,3.03898 4.69946,3.04119 4.70654,3.04356 4.71364,3.0461 4.72077,3.04879 4.72792,3.05164 4.73509,3.05465 4.74228,3.05783 4.74948,3.06116 4.7567,3.06465 4.76392,3.0683 4.77115,3.0721 4.77837,3.07607 4.78561,3.0802 4.79283,3.08448 "/>
     <polygon id="_654540896" class="fil1" points="4.58033,3.02597 8.36659,6.81224 8.35986,6.81302 8.35323,6.814 8.34671,6.81516 8.3403,6.81652 8.33401,6.81807 8.32784,6.81981 8.32179,6.82174 8.31586,6.82386 8.31007,6.82618 8.3044,6.82869 8.29887,6.83139 8.29348,6.83429 8.28824,6.83738 8.28313,6.84066 8.27818,6.84413 8.27337,6.8478 8.26873,6.85167 8.26424,6.85572 8.25991,6.85997 8.25575,6.86442 8.25176,6.86906 8.24793,6.87389 8.24428,6.87892 8.24081,6.88415 8.23753,6.88956 8.23443,6.89518 8.23151,6.90098 8.22878,6.90699 8.22626,6.91319 8.22393,6.91958 8.2218,6.92617 8.21987,6.93296 4.4336,3.14669 4.43553,3.1399 4.43766,3.13331 4.43999,3.12692 4.44252,3.12072 4.44524,3.11471 4.44816,3.10891 4.45126,3.10329 4.45455,3.09787 4.45802,3.09265 4.46167,3.08762 4.46549,3.08279 4.46948,3.07815 4.47364,3.0737 4.47797,3.06945 4.48246,3.06539 4.48711,3.06153 4.49191,3.05786 4.49687,3.05439 4.50197,3.05111 4.50722,3.04802 4.51261,3.04512 4.51813,3.04242 4.5238,3.03991 4.52959,3.03759 4.53552,3.03546 4.54157,3.03354 4.54774,3.0318 4.55404,3.03025 4.56044,3.02889 4.56696,3.02772 4.57359,3.02675 "/>
     <polygon id="_654541112" class="fil1" points="5.21437,3.27046 9.00064,7.05674 8.99823,7.06692 8.99578,7.07713 8.99328,7.08735 8.99073,7.09761 8.98813,7.10788 8.98549,7.11818 8.9828,7.1285 8.98006,7.13884 8.97727,7.1492 8.97444,7.15959 8.97155,7.17 8.96862,7.18043 8.96564,7.19087 8.96261,7.20134 8.95953,7.21183 8.9564,7.22234 8.95322,7.23287 8.95,7.24342 8.94672,7.25398 8.94339,7.26457 8.94001,7.27518 8.93659,7.2858 8.93311,7.29644 8.92958,7.3071 8.926,7.31778 8.92237,7.32847 8.91869,7.33919 8.91495,7.34991 8.91117,7.36066 8.90733,7.37142 8.90344,7.3822 8.8995,7.39299 5.11323,3.60672 5.11717,3.59593 5.12106,3.58515 5.1249,3.57439 5.12868,3.56364 5.13242,3.55291 5.1361,3.5422 5.13973,3.53151 5.14331,3.52083 5.14684,3.51017 5.15032,3.49953 5.15374,3.48891 5.15712,3.4783 5.16045,3.46771 5.16373,3.45715 5.16696,3.4466 5.17013,3.43607 5.17326,3.42556 5.17634,3.41507 5.17937,3.4046 5.18235,3.39415 5.18528,3.38372 5.18817,3.37332 5.191,3.36293 5.19379,3.35257 5.19653,3.34223 5.19922,3.33191 5.20187,3.32161 5.20446,3.31133 5.20701,3.30108 5.20951,3.29085 5.21196,3.28065 "/>
     <polygon id="_654541424" class="fil1" points="4.4336,3.14669 8.21987,6.93296 8.21784,6.94141 8.21617,6.95017 8.21484,6.95923 8.21387,6.9686 8.21328,6.97827 8.21306,6.98824 8.21323,6.99852 8.21379,7.00909 8.21475,7.01998 8.21612,7.03116 8.2179,7.04265 8.2201,7.05444 8.22274,7.06654 8.22581,7.07893 8.22933,7.09163 8.2333,7.10463 8.23772,7.11793 8.24262,7.13154 8.248,7.14544 8.25385,7.15965 8.2602,7.17417 8.26705,7.18898 8.2744,7.20409 8.28226,7.2195 8.29065,7.23521 8.29956,7.25123 8.30901,7.26755 8.31901,7.28416 8.32955,7.30108 8.34066,7.3183 8.35233,7.33581 8.36457,7.35363 4.5783,3.56736 4.56606,3.54954 4.55439,3.53202 4.54328,3.51481 4.53274,3.49789 4.52274,3.48128 4.5133,3.46496 4.50438,3.44894 4.496,3.43323 4.48813,3.41781 4.48078,3.4027 4.47393,3.38789 4.46759,3.37338 4.46173,3.35917 4.45635,3.34527 4.45146,3.33166 4.44703,3.31836 4.44306,3.30536 4.43954,3.29266 4.43647,3.28026 4.43383,3.26817 4.43163,3.25638 4.42985,3.24489 4.42848,3.2337 4.42752,3.22282 4.42696,3.21224 4.4268,3.20197 4.42701,3.192 4.42761,3.18233 4.42857,3.17296 4.4299,3.1639 4.43157,3.15514 "/>
     <polygon id="_654541352" class="fil1" points="4.5783,3.56736 8.36457,7.35363 8.3703,7.36185 8.37606,7.37011 8.38184,7.37841 8.38764,7.38676 8.39345,7.39516 8.39927,7.40359 8.4051,7.41208 8.41093,7.4206 8.41675,7.42917 8.42256,7.43778 8.42836,7.44643 8.43414,7.45512 8.4399,7.46385 8.44563,7.47261 8.45133,7.48143 8.457,7.49027 8.46262,7.49915 8.46819,7.50808 8.47372,7.51704 8.47919,7.52603 8.48461,7.53506 8.48996,7.54413 8.49524,7.55323 8.50044,7.56237 8.50558,7.57154 8.51063,7.58074 8.51559,7.58997 8.52046,7.59924 8.52524,7.60854 8.52991,7.61787 8.53448,7.62723 8.53894,7.63662 4.75268,3.85035 4.74822,3.84096 4.74365,3.8316 4.73897,3.82227 4.73419,3.81297 4.72932,3.8037 4.72436,3.79446 4.71931,3.78526 4.71418,3.77609 4.70897,3.76696 4.70369,3.75786 4.69834,3.74879 4.69293,3.73976 4.68745,3.73076 4.68193,3.72181 4.67635,3.71288 4.67073,3.704 4.66506,3.69515 4.65936,3.68634 4.65363,3.67757 4.64787,3.66885 4.64209,3.66015 4.63629,3.6515 4.63048,3.6429 4.62466,3.63433 4.61883,3.62581 4.613,3.61732 4.60718,3.60889 4.60137,3.60049 4.59557,3.59214 4.58979,3.58383 4.58403,3.57557 "/>
     <polygon id="_654541376" class="fil1" points="4.75268,3.85035 8.53894,7.63662 8.54317,7.64576 8.54728,7.65493 8.55127,7.66414 8.55515,7.67337 8.55891,7.68264 8.56254,7.69194 8.56604,7.70128 8.56941,7.71064 8.57263,7.72004 8.57572,7.72946 8.57865,7.73892 8.58144,7.7484 8.58407,7.75792 8.58654,7.76746 8.58884,7.77703 8.59098,7.78663 8.59294,7.79626 8.59473,7.80592 8.59634,7.81561 8.59776,7.82531 8.59899,7.83506 8.60002,7.84482 8.60086,7.85461 8.6015,7.86443 8.60193,7.87427 8.60215,7.88413 8.60215,7.89403 8.60194,7.90394 8.6015,7.91388 8.60083,7.92385 8.59993,7.93383 8.5988,7.94384 4.81253,4.15757 4.81366,4.14756 4.81456,4.13757 4.81523,4.12761 4.81567,4.11767 4.81589,4.10776 4.81588,4.09786 4.81566,4.088 4.81523,4.07815 4.81459,4.06834 4.81376,4.05855 4.81272,4.04878 4.81149,4.03904 4.81007,4.02933 4.80846,4.01965 4.80668,4.00999 4.80471,4.00036 4.80257,3.99076 4.80027,3.98119 4.7978,3.97165 4.79517,3.96213 4.79239,3.95265 4.78945,3.94319 4.78637,3.93376 4.78314,3.92437 4.77977,3.915 4.77627,3.90567 4.77264,3.89637 4.76888,3.8871 4.765,3.87787 4.76101,3.86866 4.7569,3.85949 "/>
     <polygon id="_654541232" class="fil1" points="2.47668,2.40746 6.26295,6.19373 6.27221,6.20606 6.28076,6.21804 6.2886,6.22969 6.29576,6.24102 6.30225,6.25204 6.30809,6.26276 6.31329,6.27319 6.31788,6.28333 6.32186,6.29322 6.32526,6.30284 6.32809,6.31222 6.33037,6.32137 6.33211,6.33029 6.33333,6.339 6.33406,6.34752 6.33429,6.35583 6.33406,6.36398 6.33337,6.37195 6.33225,6.37977 6.3307,6.38744 6.32876,6.39498 6.32643,6.40239 6.32373,6.4097 6.32068,6.4169 6.31729,6.424 6.31358,6.43104 6.30957,6.438 6.30527,6.4449 6.3007,6.45176 6.29588,6.45858 6.29082,6.46538 6.28554,6.47217 2.49927,2.68589 2.50455,2.67911 2.50961,2.67231 2.51443,2.66549 2.519,2.65863 2.5233,2.65172 2.52731,2.64476 2.53102,2.63773 2.53441,2.63063 2.53746,2.62343 2.54017,2.61612 2.5425,2.60871 2.54444,2.60117 2.54598,2.5935 2.5471,2.58568 2.54779,2.57771 2.54802,2.56956 2.54779,2.56124 2.54707,2.55273 2.54584,2.54402 2.5441,2.5351 2.54182,2.52595 2.53899,2.51657 2.53559,2.50694 2.53161,2.49706 2.52702,2.48691 2.52182,2.47648 2.51598,2.46577 2.50949,2.45475 2.50233,2.44342 2.49449,2.43177 2.48594,2.41979 "/>
     <polygon id="_654541328" class="fil1" points="2.16851,2.45755 5.95478,6.24382 5.96187,6.25093 5.96839,6.258 5.97434,6.26503 5.97976,6.27204 5.98466,6.27901 5.98905,6.28596 5.99294,6.2929 5.99637,6.29981 5.99933,6.30672 6.00185,6.31362 6.00394,6.32051 6.00563,6.32741 6.00691,6.3343 6.00783,6.34121 6.00838,6.34813 6.00858,6.35506 6.00846,6.36202 6.00802,6.36899 6.00729,6.376 6.00628,6.38304 6.005,6.39011 6.00348,6.39722 6.00173,6.40437 5.99976,6.41157 5.99759,6.41883 2.21133,2.63256 2.21349,2.6253 2.21546,2.6181 2.21722,2.61094 2.21874,2.60383 2.22001,2.59676 2.22102,2.58973 2.22176,2.58272 2.22219,2.57574 2.22231,2.56879 2.22211,2.56186 2.22156,2.55494 2.22065,2.54803 2.21936,2.54113 2.21767,2.53424 2.21558,2.52735 2.21306,2.52045 2.2101,2.51354 2.20668,2.50663 2.20278,2.49969 2.19839,2.49274 2.1935,2.48576 2.18807,2.47876 2.18212,2.47172 2.1756,2.46465 "/>
     <polygon id="_654540848" class="fil1" points="4.09407,4.66205 7.88034,8.44832 7.87595,8.44514 7.87155,8.44198 7.86715,8.43883 7.86274,8.43569 7.85832,8.43256 7.85389,8.42945 7.84946,8.42635 7.84503,8.42325 7.84059,8.42016 7.83615,8.41707 7.8317,8.414 7.82725,8.41092 7.8228,8.40784 7.81834,8.40477 7.81388,8.4017 7.80942,8.39862 4.02315,4.61235 4.02761,4.61543 4.03207,4.6185 4.03653,4.62157 4.04098,4.62465 4.04543,4.62772 4.04988,4.6308 4.05432,4.63389 4.05876,4.63698 4.0632,4.64007 4.06763,4.64318 4.07205,4.64629 4.07647,4.64942 4.08088,4.65256 4.08528,4.6557 4.08968,4.65887 "/>
     <polygon id="_654540992" class="fil1" points="4.02315,4.61235 7.80942,8.39862 7.80904,8.39939 4.02277,4.61312 "/>
     <polygon id="_654541544" class="fil1" points="4.02277,4.61312 7.80904,8.39939 7.79006,8.43825 4.00379,4.65198 "/>
     <polygon id="_654541736" class="fil1" points="4.00379,4.65198 7.79006,8.43825 7.78439,8.44962 7.77863,8.46068 7.77279,8.47145 7.76687,8.48193 7.76085,8.49212 7.75476,8.50202 7.74859,8.51165 7.74234,8.52099 7.73601,8.53007 7.7296,8.53887 7.72312,8.54741 7.71656,8.55569 7.70993,8.5637 7.70322,8.57147 7.69644,8.57898 7.6896,8.58625 7.68268,8.59327 7.67569,8.60006 7.66864,8.60661 7.66152,8.61292 7.65434,8.61901 7.64709,8.62488 7.63978,8.63052 7.63241,8.63595 7.62498,8.64117 7.61749,8.64617 7.60994,8.65097 7.60233,8.65557 7.59468,8.65997 7.58696,8.66418 7.57919,8.6682 7.57137,8.67203 3.7851,4.88576 3.79293,4.88193 3.80069,4.87791 3.80841,4.8737 3.81607,4.8693 3.82367,4.8647 3.83122,4.8599 3.83871,4.85489 3.84615,4.84968 3.85352,4.84425 3.86082,4.83861 3.86807,4.83274 3.87526,4.82665 3.88237,4.82033 3.88943,4.81378 3.89641,4.807 3.90333,4.79998 3.91018,4.79271 3.91695,4.7852 3.92366,4.77743 3.93029,4.76941 3.93685,4.76114 3.94333,4.7526 3.94974,4.7438 3.95607,4.73472 3.96232,4.72537 3.9685,4.71575 3.97459,4.70585 3.9806,4.69566 3.98652,4.68518 3.99237,4.67441 3.99812,4.66335 "/>
     <polygon id="_654541448" class="fil1" points="2.43344,3.62324 6.2197,7.40952 6.20679,7.39804 6.19306,7.38681 6.17863,7.37589 6.1636,7.36533 6.14806,7.35517 6.13213,7.34546 6.11592,7.33625 6.09952,7.3276 6.08303,7.31955 6.06657,7.31214 6.05023,7.30544 6.03413,7.29948 6.01835,7.29431 6.00302,7.29 2.21676,3.50373 2.23209,3.50804 2.24786,3.5132 2.26396,3.51917 2.2803,3.52587 2.29676,3.53328 2.31325,3.54133 2.32965,3.54998 2.34587,3.55919 2.3618,3.56889 2.37733,3.57906 2.39236,3.58962 2.4068,3.60054 2.42052,3.61176 "/>
     <polygon id="_654542096" class="fil1" points="2.21676,3.50373 6.00302,7.29 5.99189,7.29129 5.98028,7.2924 5.96822,7.29332 5.95574,7.29405 5.94287,7.29461 5.92965,7.29498 5.91609,7.29517 5.90224,7.29517 5.88813,7.29501 5.87378,7.29466 5.85923,7.29415 5.84451,7.29345 5.82965,7.29259 5.81467,7.29155 5.79962,7.29034 5.78452,7.28897 5.7694,7.28743 5.7543,7.28572 5.73924,7.28384 5.72425,7.28181 5.70937,7.27961 5.69463,7.27725 5.68006,7.27473 5.66569,7.27206 5.65155,7.26922 5.63767,7.26624 5.62408,7.2631 5.61081,7.2598 5.5979,7.25636 5.58538,7.25276 5.57327,7.24902 5.56161,7.24513 1.77534,3.45886 1.787,3.46275 1.79911,3.46649 1.81163,3.47009 1.82455,3.47353 1.83781,3.47683 1.8514,3.47997 1.86528,3.48295 1.87942,3.48579 1.89379,3.48846 1.90837,3.49098 1.92311,3.49334 1.93798,3.49554 1.95297,3.49757 1.96803,3.49944 1.98313,3.50115 1.99825,3.5027 2.01335,3.50407 2.02841,3.50528 2.04338,3.50631 2.05824,3.50718 2.07296,3.50787 2.08752,3.50839 2.10186,3.50874 2.11598,3.5089 2.12983,3.50889 2.14338,3.5087 2.15661,3.50833 2.16948,3.50778 2.18196,3.50705 2.19402,3.50613 2.20563,3.50502 "/>
     <polygon id="_654541832" class="fil1" points="2.57245,4.11017 6.35872,7.89644 6.34044,7.89125 2.55418,4.10498 "/>
     <polygon id="_654541856" class="fil1" points="1.77534,3.45886 5.56161,7.24513 5.5568,7.24343 5.55203,7.24167 5.5473,7.23985 5.54261,7.23797 5.53798,7.23603 5.53341,7.23402 5.52892,7.23196 5.52452,7.22983 5.52021,7.22765 5.51601,7.2254 5.51192,7.22309 5.50796,7.22072 5.50413,7.21829 5.50044,7.21579 5.4969,7.21324 5.49353,7.21062 1.70726,3.42435 1.71063,3.42696 1.71417,3.42952 1.71786,3.43202 1.72169,3.43445 1.72565,3.43682 1.72974,3.43913 1.73394,3.44138 1.73825,3.44356 1.74265,3.44569 1.74714,3.44775 1.75171,3.44976 1.75634,3.4517 1.76103,3.45358 1.76576,3.4554 1.77054,3.45716 "/>
     <polygon id="_654542048" class="fil1" points="2.63459,4.15524 6.42085,7.94151 6.41208,7.93381 6.40271,7.92618 6.3927,7.91863 6.38206,7.91116 6.37073,7.90376 6.35872,7.89644 2.57245,4.11017 2.58446,4.11749 2.59579,4.12489 2.60644,4.13236 2.61644,4.13991 2.62581,4.14754 "/>
     <polygon id="_654541784" class="fil1" points="1.70726,3.42435 5.49353,7.21062 5.48919,7.20693 1.70293,3.42065 "/>
     <polygon id="_654541904" class="fil1" points="1.83645,3.87407 5.62272,7.66035 5.61673,7.65959 5.61024,7.65872 5.60329,7.65773 5.5959,7.65662 5.58812,7.65538 5.57998,7.65401 5.57151,7.65252 5.56276,7.65089 5.55376,7.64912 5.54455,7.64722 5.53516,7.64518 5.52563,7.64299 5.51598,7.64066 5.50628,7.63819 5.49653,7.63556 5.48679,7.63278 5.47709,7.62985 5.46746,7.62676 5.45794,7.62352 5.44857,7.62011 5.43939,7.61654 5.43042,7.6128 5.4217,7.6089 5.41328,7.60482 5.40519,7.60057 5.39746,7.59615 5.39012,7.59154 5.38322,7.58676 5.3768,7.5818 5.37088,7.57665 1.58461,3.79037 1.59053,3.79552 1.59696,3.80049 1.60385,3.80527 1.61119,3.80987 1.61892,3.8143 1.62702,3.81855 1.63544,3.82263 1.64415,3.82653 1.65312,3.83027 1.66231,3.83384 1.67168,3.83725 1.68119,3.84049 1.69082,3.84358 1.70052,3.84651 1.71026,3.84929 1.72001,3.85191 1.72972,3.85439 1.73936,3.85672 1.74889,3.85891 1.75828,3.86094 1.7675,3.86285 1.7765,3.86461 1.78524,3.86624 1.79371,3.86774 1.80185,3.86911 1.80963,3.87035 1.81702,3.87146 1.82398,3.87245 1.83046,3.87332 "/>
     <polygon id="_654541472" class="fil1" points="2.55418,4.10498 6.34044,7.89125 6.31541,7.89018 6.29098,7.88824 6.26715,7.88548 6.24388,7.88194 6.22114,7.87769 6.19891,7.87275 6.17715,7.8672 6.15585,7.86107 6.13498,7.85443 6.11451,7.84731 6.09441,7.83977 6.07465,7.83186 6.05522,7.82363 6.03607,7.81513 6.0172,7.80642 5.99856,7.79754 5.98013,7.78853 5.96188,7.77946 5.9438,7.77038 5.92584,7.76132 5.90799,7.75235 5.89021,7.74352 5.87248,7.73487 5.85478,7.72646 5.83707,7.71833 5.81934,7.71054 5.80154,7.70313 5.78367,7.69616 5.76567,7.68968 5.74754,7.68374 5.72925,7.67838 5.71076,7.67366 5.70634,7.67266 5.70174,7.67169 5.69698,7.67076 5.69206,7.66986 5.68698,7.66899 5.68175,7.66815 5.67638,7.66732 5.67087,7.66651 5.66524,7.66572 5.65948,7.66494 5.65361,7.66417 5.64763,7.66341 5.64154,7.66264 5.63535,7.66188 5.62908,7.66112 5.62272,7.66035 1.83645,3.87407 1.84281,3.87485 1.84909,3.87561 1.85527,3.87637 1.86136,3.87713 1.86734,3.8779 1.87322,3.87867 1.87897,3.87945 1.88461,3.88024 1.89011,3.88105 1.89548,3.88187 1.90071,3.88272 1.90579,3.88359 1.91071,3.88449 1.91548,3.88542 1.92007,3.88639 1.9245,3.88739 1.94298,3.89211 1.96128,3.89746 1.97941,3.90341 1.9974,3.90989 2.01528,3.91686 2.03307,3.92426 2.05081,3.93206 2.06852,3.94019 2.08622,3.9486 2.10394,3.95725 2.12172,3.96608 2.13957,3.97505 2.15753,3.98411 2.17561,3.99319 2.19386,4.00226 2.21229,4.01126 2.23093,4.02015 2.24981,4.02886 2.26895,4.03736 2.28839,4.04559 2.30814,4.0535 2.32824,4.06104 2.34871,4.06815 2.36959,4.0748 2.39088,4.08093 2.41264,4.08648 2.43487,4.09141 2.45761,4.09567 2.48088,4.09921 2.50472,4.10197 2.52914,4.10391 "/>
     <polygon id="_654542864" class="fil1" points="3.7851,4.88576 7.57137,8.67203 7.56337,8.67573 7.55532,8.67926 7.5472,8.68261 7.53903,8.6858 7.5308,8.68882 7.52252,8.69167 7.51418,8.69437 7.50578,8.69691 7.49734,8.69931 7.48885,8.70155 7.48031,8.70365 7.47172,8.70561 7.46309,8.70743 7.45441,8.70913 7.44569,8.71069 7.43693,8.71213 7.42812,8.71344 7.41928,8.71464 7.4104,8.71573 7.40149,8.7167 7.39254,8.71757 7.38356,8.71834 7.37454,8.71901 7.36549,8.71958 7.35642,8.72006 7.34731,8.72046 7.33819,8.72077 7.32903,8.721 7.31985,8.72116 7.31065,8.72124 7.30143,8.72125 7.29219,8.7212 3.50592,4.93493 3.51516,4.93498 3.52438,4.93497 3.53358,4.93489 3.54276,4.93473 3.55192,4.9345 3.56105,4.93419 3.57015,4.93379 3.57922,4.93331 3.58827,4.93274 3.59729,4.93207 3.60627,4.9313 3.61522,4.93043 3.62413,4.92946 3.63301,4.92837 3.64185,4.92717 3.65066,4.92585 3.65942,4.92442 3.66814,4.92285 3.67682,4.92116 3.68545,4.91934 3.69404,4.91738 3.70258,4.91528 3.71107,4.91304 3.71952,4.91064 3.72791,4.9081 3.73625,4.9054 3.74453,4.90255 3.75276,4.89953 3.76094,4.89634 3.76905,4.89299 3.77711,4.88946 "/>
     <polygon id="_654542288" class="fil1" points="3.50592,4.93493 7.29219,8.7212 7.28407,8.72102 7.27512,8.72064 7.26539,8.72006 7.25496,8.7193 7.24391,8.71838 7.23229,8.71731 7.2202,8.71609 7.20769,8.71476 7.19485,8.71333 7.18174,8.71179 7.16843,8.71018 7.15501,8.7085 7.14154,8.70678 7.12809,8.70502 7.11474,8.70323 7.10157,8.70144 7.08863,8.69965 7.076,8.69789 7.06377,8.69616 7.052,8.69448 7.04075,8.69286 7.03011,8.69132 7.02015,8.68988 7.01094,8.68854 7.00255,8.68732 6.99506,8.68624 6.98853,8.6853 6.98304,8.68454 6.97867,8.68394 6.97547,8.68354 6.97354,8.68335 6.97294,8.68338 6.97514,8.6859 3.18887,4.89963 3.18667,4.89711 3.18727,4.89708 3.1892,4.89727 3.1924,4.89767 3.19677,4.89826 3.20226,4.89903 3.20879,4.89996 3.21628,4.90105 3.22467,4.90227 3.23388,4.90361 3.24384,4.90505 3.25448,4.90659 3.26573,4.9082 3.2775,4.90989 3.28974,4.91161 3.30236,4.91338 3.3153,4.91517 3.32848,4.91696 3.34183,4.91874 3.35527,4.92051 3.36874,4.92223 3.38217,4.92391 3.39547,4.92552 3.40858,4.92706 3.42143,4.92849 3.43393,4.92982 3.44602,4.93104 3.45764,4.93211 3.46869,4.93303 3.47912,4.93379 3.48885,4.93437 3.49781,4.93475 "/>
     <polygon id="_654542384" class="fil1" points="3.32244,4.97991 7.1087,8.76618 7.11434,8.77174 7.11861,8.77714 7.12135,8.78234 7.12238,8.7873 7.12153,8.79198 7.11862,8.79634 7.11348,8.80034 7.10594,8.80396 7.09583,8.80714 7.08296,8.80985 7.06717,8.81205 7.04828,8.8137 7.02611,8.81478 7.00051,8.81522 6.97128,8.81501 3.18502,5.02874 3.21424,5.02895 3.23985,5.0285 3.26201,5.02743 3.2809,5.02578 3.29669,5.02357 3.30956,5.02087 3.31968,5.01769 3.32722,5.01407 3.33235,5.01007 3.33526,5.0057 3.33611,5.00103 3.33509,4.99607 3.33235,4.99087 3.32807,4.98547 "/>
     <polygon id="_654542408" class="fil1" points="3.18502,5.02874 6.97128,8.81501 6.95763,8.81336 6.94132,8.81189 6.92254,8.81058 6.90144,8.80942 6.8782,8.80841 6.85297,8.80752 6.82593,8.80674 6.79724,8.80608 6.76706,8.80551 6.73556,8.80502 6.70291,8.80461 6.66927,8.80426 6.63481,8.80396 6.59969,8.80369 6.56409,8.80345 6.52815,8.80323 6.49206,8.80302 6.45598,8.80279 6.42007,8.80255 6.3845,8.80228 6.34943,8.80196 6.31503,8.80159 6.28146,8.80117 6.2489,8.80066 6.21751,8.80007 6.18744,8.79938 6.15888,8.79858 6.13198,8.79766 6.10691,8.79661 6.08384,8.79542 6.06293,8.79407 6.04435,8.79256 6.02736,8.79042 6.01276,8.7874 6.00049,8.78356 5.99047,8.77896 5.98265,8.77365 2.19638,4.98738 2.2042,4.99269 2.21422,4.99729 2.2265,5.00113 2.24109,5.00415 2.25808,5.00628 2.27666,5.0078 2.29757,5.00915 2.32065,5.01034 2.34572,5.01139 2.37261,5.01231 2.40118,5.01311 2.43124,5.0138 2.46263,5.01439 2.4952,5.01489 2.52876,5.01532 2.56316,5.01569 2.59823,5.016 2.6338,5.01628 2.66971,5.01652 2.7058,5.01674 2.74189,5.01696 2.77782,5.01718 2.81343,5.01742 2.84854,5.01769 2.883,5.01799 2.91664,5.01834 2.94929,5.01875 2.98079,5.01924 3.01097,5.01981 3.03966,5.02047 3.0667,5.02124 3.09193,5.02213 3.11518,5.02315 3.13627,5.02431 3.15506,5.02562 3.17136,5.02709 "/>
     <polygon id="_654542648" class="fil1" points="2.49927,2.68589 6.28554,6.47217 6.29785,6.49049 6.31197,6.5085 6.32778,6.52617 6.34519,6.54348 2.55892,2.75721 2.54152,2.7399 2.5257,2.72223 2.51159,2.70422 "/>
     <polygon id="_654542528" class="fil1" points="3.78743,3.23835 7.5737,7.02463 7.60443,7.05852 7.63302,7.09401 7.65953,7.1309 7.68407,7.16896 7.7067,7.20801 7.72753,7.24783 7.74664,7.28821 7.76411,7.32894 7.78002,7.36983 7.79447,7.41065 7.80755,7.45121 7.81933,7.4913 7.8299,7.53071 7.83935,7.56923 7.84777,7.60665 7.85524,7.64278 7.86185,7.67739 7.86769,7.71029 7.87283,7.74127 7.87737,7.77012 7.88139,7.79663 4.09512,4.01035 4.0911,3.98385 4.08656,3.955 4.08142,3.92402 4.07558,3.89112 4.06898,3.85651 4.0615,3.82038 4.05309,3.78296 4.04363,3.74444 4.03306,3.70503 4.02128,3.66494 4.0082,3.62438 3.99376,3.58356 3.97784,3.54267 3.96037,3.50194 3.94126,3.46156 3.92044,3.42174 3.8978,3.38269 3.87326,3.34463 3.84675,3.30774 3.81817,3.27225 "/>
     <polygon id="_654542552" class="fil1" points="4.54638,4.56316 8.33265,8.34943 8.30718,8.36978 8.28286,8.38854 8.25964,8.40574 8.23748,8.42144 8.21635,8.4357 8.19619,8.44855 8.17696,8.46004 8.15863,8.47022 8.14116,8.47915 8.1245,8.48687 8.10861,8.49343 8.09346,8.49887 8.07899,8.50324 8.06517,8.5066 8.05196,8.50899 8.03931,8.51046 8.02719,8.51106 8.01556,8.51084 8.00436,8.50984 7.99357,8.50811 7.98313,8.50571 7.97302,8.50267 7.96318,8.49906 7.95358,8.49491 7.94418,8.49028 7.93493,8.4852 7.92579,8.47974 7.91672,8.47394 7.90768,8.46786 7.89863,8.46152 7.88953,8.455 7.88034,8.44832 4.09407,4.66205 4.10326,4.66872 4.11237,4.67525 4.12141,4.68159 4.13045,4.68767 4.13952,4.69347 4.14866,4.69893 4.15791,4.704 4.16731,4.70864 4.17691,4.71279 4.18675,4.7164 4.19687,4.71944 4.2073,4.72184 4.21809,4.72357 4.22929,4.72457 4.24093,4.72479 4.25304,4.72419 4.26569,4.72272 4.2789,4.72033 4.29272,4.71697 4.30719,4.71259 4.32234,4.70715 4.33823,4.7006 4.35489,4.69288 4.37237,4.68395 4.39069,4.67377 4.40992,4.66228 4.43008,4.64943 4.45122,4.63517 4.47337,4.61947 4.49659,4.60226 4.52091,4.58351 "/>
     <polygon id="_654542600" class="fil1" points="4.09512,4.01035 7.88139,7.79663 7.88159,7.79798 7.8818,7.79933 7.882,7.80067 7.8822,7.802 7.88239,7.80332 7.88259,7.80464 7.88279,7.80595 7.88298,7.80725 4.09672,4.02098 4.09652,4.01968 4.09633,4.01837 4.09613,4.01705 4.09593,4.01573 4.09573,4.0144 4.09553,4.01306 4.09533,4.01171 "/>
     <polygon id="_654542768" class="fil1" points="4.09672,4.02098 7.88298,7.80725 7.88446,7.81712 7.88589,7.82657 7.88728,7.83561 7.88863,7.84424 7.88996,7.85243 7.89128,7.8602 7.89259,7.86754 7.89392,7.87444 7.89526,7.88091 7.89662,7.88693 7.89802,7.8925 7.89947,7.89762 7.90098,7.90229 7.90254,7.9065 7.90419,7.91024 7.90592,7.91352 4.11965,4.12725 4.11792,4.12397 4.11628,4.12022 4.11471,4.11602 4.1132,4.11135 4.11176,4.10623 4.11035,4.10066 4.10899,4.09464 4.10765,4.08817 4.10633,4.08127 4.10501,4.07393 4.10369,4.06616 4.10236,4.05796 4.10101,4.04934 4.09962,4.0403 4.09819,4.03085 "/>
     <polygon id="_654542792" class="fil1" points="4.11965,4.12725 7.90592,7.91352 7.90863,7.91789 7.91146,7.92182 7.91439,7.92532 7.91743,7.92839 4.13116,4.14211 4.12812,4.13905 4.12519,4.13555 4.12237,4.13162 "/>
     <polygon id="_654542264" class="fil1" points="4.81253,4.15757 8.5988,7.94384 8.59654,7.95948 8.59373,7.97494 8.59039,7.99019 8.58652,8.00526 8.58215,8.02013 8.57728,8.0348 8.57194,8.04929 8.56615,8.06358 8.55992,8.07768 8.55326,8.09159 8.54619,8.1053 8.53874,8.11883 8.53091,8.13216 8.52272,8.1453 8.51419,8.15825 8.50533,8.17102 8.49616,8.18358 8.4867,8.19596 8.47696,8.20815 8.46696,8.22015 8.45672,8.23196 8.44626,8.24359 8.43557,8.25502 8.4247,8.26626 8.41365,8.27731 8.40243,8.28818 8.39107,8.29886 8.37958,8.30935 8.36797,8.31965 8.35627,8.32977 8.34449,8.33969 8.33265,8.34943 4.54638,4.56316 4.55822,4.55342 4.57,4.5435 4.5817,4.53338 4.59331,4.52308 4.6048,4.51259 4.61617,4.50191 4.62738,4.49104 4.63843,4.47999 4.64931,4.46875 4.65999,4.45731 4.67046,4.44569 4.6807,4.43388 4.6907,4.42188 4.70043,4.40969 4.70989,4.39731 4.71906,4.38474 4.72792,4.37198 4.73645,4.35903 4.74464,4.34589 4.75247,4.33256 4.75993,4.31903 4.76699,4.30531 4.77365,4.29141 4.77988,4.27731 4.78568,4.26302 4.79101,4.24853 4.79588,4.23385 4.80025,4.21898 4.80412,4.20392 4.80746,4.18867 4.81028,4.17321 "/>
    </g>
    <path id="_637657336" class="fil1" d="M4.57744 1.80552c0.185366,0.0282598 0.370717,0.156362 0.50465,0.343228 0.125138,0.174598 0.204776,0.399835 0.197433,0.642685 -0.000464567,0.0153543 -0.0011063,0.0308937 -0.00192913,0.0466024 -0.00699213,0.133004 -0.0271299,0.278484 -0.0632244,0.432425 -0.025437,0.108484 -0.0588228,0.221043 -0.101146,0.336252 -0.0298228,-0.192409 -0.113287,-0.338287 -0.210764,-0.435618 -0.0330433,-0.0329961 -0.0676929,-0.0604134 -0.102413,-0.0821732 -0.0769685,-0.0482402 -0.1555,-0.069437 -0.219724,-0.0629528 -0.0723858,0.00731102 -0.127291,0.0472756 -0.146724,0.120717 -0.023437,0.0885472 0.0110039,0.22902 0.144701,0.420669 0.0609567,0.0873819 0.127382,0.182661 0.174374,0.282992 0.0455748,0.0972992 0.0732362,0.200327 0.0598504,0.30722 -0.0210197,0.167898 -0.139512,0.302697 -0.26615,0.405591 -0.277858,0.225764 -0.353594,0.170685 -0.452307,0.0988898 -0.0233858,-0.0170079 -0.0471299,-0.0332874 -0.0709173,-0.0497047l-0.00038189 0.000775591 -0.0189803 0.0388583c-0.0600157,0.122839 -0.134988,0.193894 -0.218689,0.233776 -0.0849528,0.0404843 -0.180504,0.0500551 -0.279185,0.0491732 -0.0817362,-0.00073622 -0.320165,-0.0393583 -0.319248,-0.0378189 0.0144055,0.0241732 0.330004,0.137555 -0.00165354,0.13163 -0.130988,-0.0185472 -0.741713,-0.00538189 -0.926937,-0.0224567 -0.0970827,-0.00894882 -0.0893819,-0.0578937 -0.0222047,-0.107465 0.138673,-0.139575 0.346598,-0.173969 0.53774,-0.210807l0.0546575 -0.0105394 -0.0297047 -0.0469449c-0.0569291,-0.0899724 -0.0655472,-0.171598 -0.0731693,-0.243862 -0.0114409,-0.108406 -0.0209843,-0.198823 -0.152949,-0.276492l-0.0182717 -0.00519685c-0.270441,-0.00651969 -0.43137,-0.170854 -0.629681,-0.217587 -0.0231181,-0.00544882 -0.0539094,-0.0091811 -0.0880433,-0.013315 -0.0610551,-0.0073937 -0.214087,-0.0345866 -0.262008,-0.0945669 -0.0152756,-0.019122 -0.0266496,-0.0425512 -0.0277441,-0.0644843 -0.00120079,-0.0252677 0.0256929,-0.0493819 0.0443858,-0.0625709 0.0752953,-0.0531063 0.124898,-0.0288425 0.20985,-0.010252 0.0496732,0.0325748 0.394433,0.250783 0.607567,0.175551 0.222618,-0.0785787 -0.0309291,-0.272677 -0.191748,-0.314024 -0.116028,0.0147913 -0.319516,-0.00259055 -0.441417,-0.0448701 -0.0256732,-0.00890157 -0.0505315,-0.0203819 -0.0680787,-0.0345118 -0.0121142,-0.00975197 -0.0199134,-0.0202717 -0.0193701,-0.0309291 0.000311024,-0.00610236 0.00284646,-0.0133425 0.00814173,-0.0218937l0.00579134 -0.0199016c0,-0.228504 0.149398,-0.482386 0.312382,-0.625272l0.0115709 -0.0101614c-0.023252,-0.0870354 -0.033378,-0.214709 0.0757008,-0.309835 0.126976,0.0802992 0.133965,0.148551 0.10985,0.226201 0.019189,-0.00187795 0.0375669,-0.00151575 0.0540197,0.00153937l0.0264173 0.00522441c0.017878,-0.0875906 0.0647362,-0.185752 0.184917,-0.231862 0.102693,0.133386 0.0800197,0.206091 0.0225906,0.278437 0.121417,0.197161 0.567126,0.342217 0.783224,0.344417 0.658126,0.00664961 0.772173,0.71048 0.812626,0.980043 0.000547244,0.00362205 0.0010748,0.00716535 0.00159449,0.010626 0.00803543,0.0537165 0.0134724,0.0900394 0.0229331,0.106268 0.0142205,0.0244528 0.0328386,0.0305197 0.0569252,0.0164685l0.00320472 -0.00197638 -4.72441e-005 -7.08661e-005c0.0277205,-0.0183504 0.083811,-0.102157 0.104409,-0.220933 0.0199134,-0.114819 0.0101811,-0.266248 -0.0844016,-0.428614 -0.00674803,-0.0115787 -0.0144291,-0.0239409 -0.0230866,-0.0370984 -0.174142,-0.264693 -0.264795,-0.72187 -0.208295,-1.09235 0.0277402,-0.181933 0.0993071,-0.38889 0.260126,-0.494693 0.089685,-0.0590039 0.20485,-0.0844331 0.348961,-0.0624567z"/>
   </g>
  </g>
  <path class="fil2" d="M3.41333 -3.93701e-006c1.88513,0 3.41333,1.5282 3.41333,3.41333 0,1.88513 -1.5282,3.41333 -3.41333,3.41333 -1.88513,0 -3.41333,-1.5282 -3.41333,-3.41333 0,-1.88513 1.5282,-3.41333 3.41333,-3.41333z"/>
  <path class="fil3" d="M2.10148 2.40635c0.164843,0.104244 0.127461,0.188193 0.0823346,0.298748 0,0 -0.042626,-0.0119685 -0.0722874,0.00199606 -0.0296654,0.0139685 -0.0722047,0.0526575 -0.0722047,0.0526575 -0.029,-0.0823819 -0.0670472,-0.240724 0.0621575,-0.353402z"/>
  <path class="fil4" d="M2.10148 2.40635c0.164843,0.104244 0.127461,0.188193 0.0823346,0.298748 0,0 -0.042626,-0.0119685 -0.0722874,0.00199606 -0.0296654,0.0139685 -0.0722047,0.0526575 -0.0722047,0.0526575 -0.029,-0.0823819 -0.0670472,-0.240724 0.0621575,-0.353402z"/>
  <path class="fil5" d="M1.70182 3.35162l-0.00579134 0.0199016c-0.00529528,0.00855118 -0.00783071,0.0157913 -0.00814173,0.0218937 -0.000543307,0.0106575 0.00725591,0.0211772 0.0193701,0.0309291 0.0175472,0.0141299 0.0424055,0.0256102 0.0680787,0.0345118 0.121902,0.0422795 0.32539,0.0596614 0.441417,0.0448701 0.160819,0.0413465 0.414366,0.235445 0.191748,0.314024 -0.213134,0.0752323 -0.557894,-0.142976 -0.607567,-0.175551 -0.0849528,-0.0185906 -0.134555,-0.0428543 -0.20985,0.010252 -0.0186929,0.013189 -0.0455866,0.0373031 -0.0443858,0.0625709 0.00109449,0.0219331 0.0124685,0.0453622 0.0277441,0.0644843 0.0479213,0.0599803 0.200953,0.0871732 0.262008,0.0945669 0.0341339,0.00413386 0.0649252,0.00786614 0.0880433,0.013315 0.198311,0.0467323 0.35924,0.211067 0.629681,0.217587l0.0182717 0.00519685c0.131965,0.0776693 0.141508,0.168087 0.152949,0.276492 0.00762205,0.0722638 0.0162402,0.15389 0.0731693,0.243862l0.0297047 0.0469449 -0.0546575 0.0105394c-0.191142,0.0368386 -0.399067,0.0712323 -0.53774,0.210807 -0.0671772,0.0495709 -0.074878,0.0985157 0.0222047,0.107465 0.185224,0.0170748 0.795949,0.00390945 0.926937,0.0224567 0.331657,0.0059252 0.0160591,-0.107457 0.00165354,-0.13163 -0.000917323,-0.00153937 0.237512,0.0370827 0.319248,0.0378189 0.0986811,0.00088189 0.194232,-0.00868898 0.279185,-0.0491732 0.0837008,-0.0398819 0.158673,-0.110937 0.218689,-0.233776l0.0193622 -0.0396339c0.0237874,0.0164173 0.0475315,0.0326969 0.0709173,0.0497047 0.0987126,0.0717953 0.174449,0.126874 0.452307,-0.0988898 0.126638,-0.102894 0.24513,-0.237693 0.26615,-0.405591 0.0133858,-0.106894 -0.0142756,-0.209921 -0.0598504,-0.30722 -0.0469921,-0.100331 -0.113417,-0.19561 -0.174374,-0.282992 -0.133697,-0.19165 -0.168138,-0.332122 -0.144701,-0.420669 0.0194331,-0.0734409 0.0743386,-0.113406 0.146724,-0.120717 0.0642244,-0.00648425 0.142756,0.0147126 0.219724,0.0629528 0.137134,0.0859488 0.273244,0.260154 0.313177,0.517791 0.0423228,-0.115209 0.0757087,-0.227768 0.101146,-0.336252 0.0403583,-0.172122 0.0607677,-0.333669 0.0651535,-0.479028 0.00734252,-0.24285 -0.0722953,-0.468087 -0.197433,-0.642685 -0.133933,-0.186866 -0.319283,-0.314969 -0.50465,-0.343228 -0.14411,-0.0219764 -0.259276,0.00345276 -0.348961,0.0624567 -0.160819,0.105803 -0.232386,0.31276 -0.260126,0.494693 -0.0565,0.37048 0.0341535,0.827657 0.208295,1.09235 0.00865748,0.0131575 0.0163386,0.0255197 0.0230866,0.0370984 0.0945827,0.162366 0.104315,0.313795 0.0844016,0.428614 -0.0205984,0.118776 -0.076689,0.202583 -0.104409,0.220933l4.72441e-005 7.08661e-005c-0.000964567,0.000637795 -0.00203937,0.00130315 -0.00320472,0.00197638 -0.0240866,0.0140512 -0.0427047,0.00798425 -0.0569252,-0.0164685 -0.00946063,-0.0162283 -0.0148976,-0.0525512 -0.0229331,-0.106268 -0.0390827,-0.261154 -0.147252,-0.983929 -0.81422,-0.990669 -0.217795,-0.00221654 -0.668819,-0.149543 -0.786024,-0.349071 -0.0282992,-0.0481772 -0.0928268,-0.15802 -0.139283,-0.168122 -0.0152244,-0.00331102 -0.0316575,0.0191732 -0.0474331,0.0917165l-0.00792913 0.0364724 -0.0364803 -0.0072126c-0.0730354,-0.013563 -0.183941,0.0259724 -0.235717,0.0787087l-0.0154252 0.0135472c-0.162984,0.142886 -0.312382,0.396768 -0.312382,0.625272z"/>
  <path class="fil6" d="M2.42357 3.0392c-0.121846,0.195996 -0.22152,0.152524 -0.35274,0.100134 0,0 0.0137717,-0.0505472 -0.00301969,-0.0855197 -0.0167953,-0.0349724 -0.0629606,-0.0849567 -0.0629606,-0.0849567 0.0972165,-0.0350591 0.284224,-0.0815157 0.41872,0.0703425z"/>
  <path class="fil7" d="M2.15504 2.93694c0.0485551,0 0.0879173,0.0393622 0.0879173,0.0879173 0,0.0485512 -0.0393622,0.0879134 -0.0879173,0.0879134 -0.0485512,0 -0.0879134,-0.0393622 -0.0879134,-0.0879134 0,-0.0485551 0.0393622,-0.0879173 0.0879134,-0.0879173z"/>
  <path class="fil8" d="M2.15504 2.98597c0.0214803,0 0.0388898,0.0174134 0.0388898,0.0388898 0,0.0214764 -0.0174094,0.0388858 -0.0388898,0.0388858 -0.0214764,0 -0.0388858,-0.0174094 -0.0388858,-0.0388858 0,-0.0214764 0.0174094,-0.0388898 0.0388858,-0.0388898z"/>
  <path class="fil3" d="M4.09407 4.66205c0.0987126,0.0717953 0.174449,0.126874 0.452307,-0.0988898 0.126638,-0.102894 0.24513,-0.237693 0.26615,-0.405591 0.0133858,-0.106894 -0.0142756,-0.209921 -0.0598504,-0.30722 -0.0469921,-0.100331 -0.113417,-0.19561 -0.174374,-0.282992 -0.133697,-0.19165 -0.168138,-0.332122 -0.144701,-0.420669 0.0194331,-0.0734409 0.0743386,-0.113406 0.146724,-0.120717 0.0642244,-0.00648425 0.142756,0.0147126 0.219724,0.0629528 0.137134,0.0859488 0.273244,0.260154 0.313177,0.517791 0.0423228,-0.115209 0.0757087,-0.227768 0.101146,-0.336252 0.0403583,-0.172122 0.0607677,-0.333669 0.0651535,-0.479028 0.00734252,-0.24285 -0.0722953,-0.468087 -0.197433,-0.642685 -0.133933,-0.186866 -0.319283,-0.314969 -0.50465,-0.343228 -0.14411,-0.0219764 -0.259276,0.00345276 -0.348961,0.0624567 -0.160819,0.105803 -0.232386,0.31276 -0.260126,0.494693 -0.0565,0.37048 0.0341535,0.827657 0.208295,1.09235 0.00865748,0.0131575 0.0163386,0.0255197 0.0230866,0.0370984 0.0945827,0.162366 0.104315,0.313795 0.0844016,0.428614 -0.0205984,0.118776 -0.076689,0.202583 -0.104409,0.220933l4.72441e-005 7.08661e-005c-0.000964567,0.000637795 -0.00203937,0.00130315 -0.00320472,0.00197638 -0.0240866,0.0140512 -0.0427047,0.00798425 -0.0569252,-0.0164685 -0.00946063,-0.0162283 -0.0148976,-0.0525512 -0.0229331,-0.106268 -0.000519685,-0.00346063 -0.00105118,-0.00700394 -0.00159449,-0.010626 0.0142441,0.129157 0.0177992,0.365157 -0.0723504,0.602768l0.00038189 -0.000775591c0.0237874,0.0164173 0.0475315,0.0326969 0.0709173,0.0497047z"/>
  <path class="fil6" d="M4.90246 3.1711c0.0974764,0.0973346 0.180941,0.243209 0.210764,0.435618 0.0423228,-0.115209 0.0757087,-0.227768 0.101146,-0.336252 0.0360945,-0.153941 0.0562323,-0.299421 0.0632244,-0.432425l-0.101642 -0.153492 -0.0117992 0.206378 -0.129878 -0.185984 0.0209567 0.249602 -0.191106 -0.152654 0.107854 0.254815 -0.140528 -0.0689882 0.0710079 0.183382z"/>
  <path class="fil3" d="M2.47668 2.40746c0.129339,0.168 0.059815,0.239736 -0.0275551,0.33574 0,0 -0.0390433,-0.0281417 -0.0745433,-0.0249685 -0.0355,0.00317323 -0.0933819,0.0267835 -0.0933819,0.0267835 0.00117323,-0.094937 0.0214843,-0.270795 0.19548,-0.337555z"/>
  <path class="fil6" d="M2.42522 2.72955c-0.0142047,-0.00664961 -0.0328622,-0.0129094 -0.0506339,-0.0113189 -0.0152795,0.00136614 -0.0347008,0.00651575 -0.0518701,0.0119409 0.0012874,-0.0568228 0.0152283,-0.156134 0.115102,-0.194457 0.0744016,0.0966417 0.0371142,0.139228 -0.0125984,0.193835z"/>
  <path class="fil3" d="M1.98968 2.94909c0.0748465,-0.0180197 0.133866,-0.0330787 0.195614,-0.0337835 0.106984,-0.00122441 0.197051,0.0491063 0.249882,0.139894 0,0 -0.00150787,-0.00275591 -0.00235827,-0.00373622 -0.066122,-0.0762165 -0.157378,-0.116413 -0.25178,-0.117634 -0.0600669,-0.000775591 -0.121421,0.0215079 -0.178382,0.0367992l-0.0129764 -0.0215394z"/>
  <path class="fil6" d="M3.02093 3.10759c0.190823,0.166988 0.251969,0.105413 0.447083,0.206331 0.227224,0.117524 0.38787,0.515961 0.441673,0.755929 0.00883465,0.0394016 0.00735827,0.027689 0.00069685,0.0725512 -0.140508,-0.216268 -0.203091,-0.424862 -0.387232,-0.646614 -0.164102,-0.197618 -0.476091,-0.185843 -0.50222,-0.388197z"/>
  <path class="fil6" d="M2.86444 3.22275c0.19802,0.177043 0.247508,0.135205 0.452236,0.251709 0.217165,0.123579 0.295685,0.429193 0.344874,0.658016 0.0244843,0.113917 0.0189488,0.0880551 0.0185236,0.190047 -0.111618,-0.220992 -0.171339,-0.461445 -0.321043,-0.668921 -0.129449,-0.179409 -0.468732,-0.22361 -0.494591,-0.43085z"/>
  <path class="fil6" d="M2.73593 3.32289c0.17024,0.203894 0.225276,0.169677 0.410937,0.31465 0.196941,0.153776 0.230295,0.467547 0.245772,0.701083 0.00770079,0.116264 0.00597244,0.089874 -0.00924409,0.190724 -0.078378,-0.234846 -0.102583,-0.481417 -0.220606,-0.708417 -0.102055,-0.196287 -0.431339,-0.28924 -0.426858,-0.498039z"/>
  <path class="fil6" d="M2.65724 3.45513c0.113646,0.18422 0.162008,0.163008 0.294933,0.301496 0.141,0.146894 0.13148,0.40385 0.11685,0.594016 -0.00728346,0.0946693 -0.00561417,0.073185 -0.0295945,0.152764 -0.0359567,-0.198524 -0.0268583,-0.400217 -0.0957047,-0.597012 -0.0595315,-0.170169 -0.314335,-0.28337 -0.286484,-0.451264z"/>
 </g>
</svg>
