<?xml version="1.0" encoding="UTF-8"?>
<!DOCTYPE svg PUBLIC "-//W3C//DTD SVG 1.1//EN" "http://www.w3.org/Graphics/SVG/1.1/DTD/svg11.dtd">
<!-- Creator: CorelDRAW -->
<svg xmlns="http://www.w3.org/2000/svg" xml:space="preserve" width="6.82666in" height="6.82666in" style="shape-rendering:geometricPrecision; text-rendering:geometricPrecision; image-rendering:optimizeQuality; fill-rule:evenodd; clip-rule:evenodd"
viewBox="0 0 6.82666 6.82666"
 xmlns:xlink="http://www.w3.org/1999/xlink">
 <defs>
  <style type="text/css">
   <![CDATA[
    .fil2 {fill:none}
    .fil5 {fill:#43A4D8}
    .fil6 {fill:#55B0DB}
    .fil1 {fill:#00000000}
    .fil0 {fill:#00000000}
    .fil7 {fill:#E65100}
    .fil3 {fill:#EF6C00}
    .fil8 {fill:#FF9100}
    .fil4 {fill:#FFAB40}
   ]]>
  </style>
   <clipPath id="id0">
    <path d="M3.41333 -3.93701e-006c1.88513,0 3.41333,1.5282 3.41333,3.41333 0,1.88513 -1.5282,3.41333 -3.41333,3.41333 -1.88513,0 -3.41333,-1.5282 -3.41333,-3.41333 0,-1.88513 1.5282,-3.41333 3.41333,-3.41333z"/>
   </clipPath>
 </defs>
 <g id="Layer_x0020_1">
  <metadata id="CorelCorpID_0Corel-Layer"/>
  <path class="fil0" d="M3.41333 -3.93701e-006c1.88513,0 3.41333,1.5282 3.41333,3.41333 0,1.88513 -1.5282,3.41333 -3.41333,3.41333 -1.88513,0 -3.41333,-1.5282 -3.41333,-3.41333 0,-1.88513 1.5282,-3.41333 3.41333,-3.41333z"/>
  <g style="clip-path:url(#id0)">
   <g id="_637659256">
    <g>
     <polygon id="_4421311041" class="fil1" points="3.81776,4.52942 7.60403,8.31569 7.60281,8.31524 3.81654,4.52897 "/>
     <polygon id="_442131392" class="fil1" points="5.23041,2.53275 9.01667,6.31902 9.02041,6.32402 9.02389,6.32939 5.23763,2.54312 5.23415,2.53774 "/>
     <polygon id="_442132184" class="fil1" points="5.23763,2.54312 9.02389,6.32939 9.02678,6.33456 9.0293,6.33987 9.03145,6.3453 9.03324,6.35082 9.03467,6.35644 9.03572,6.36211 9.03642,6.36783 9.03674,6.37358 9.03671,6.37934 9.03631,6.38509 9.03554,6.39081 9.03441,6.39649 9.03291,6.40211 9.03106,6.40763 9.02883,6.41306 9.02624,6.41837 5.23997,2.6321 5.24256,2.62679 5.24479,2.62136 5.24665,2.61583 5.24814,2.61022 5.24927,2.60454 5.25004,2.59882 5.25044,2.59307 5.25048,2.58731 5.25015,2.58156 5.24946,2.57584 5.2484,2.57017 5.24697,2.56455 5.24519,2.55902 5.24303,2.55359 5.24051,2.54829 "/>
     <polygon id="_442133000" class="fil1" points="5.23997,2.6321 9.02624,6.41837 9.02596,6.4188 9.02572,6.41919 9.0255,6.41957 9.02531,6.41994 9.02513,6.42031 9.02498,6.4207 9.02483,6.42109 9.02469,6.42152 5.23842,2.63525 5.23856,2.63482 5.23871,2.63443 5.23887,2.63404 5.23904,2.63367 5.23923,2.6333 5.23945,2.63292 5.23969,2.63252 "/>
     <polygon id="_442132544" class="fil1" points="3.22687,1.5754 7.01313,5.36167 7.02369,5.37355 7.03441,5.38584 7.04528,5.39852 7.05631,5.4116 7.06748,5.42506 7.07881,5.4389 7.09028,5.45311 7.1019,5.4677 7.11365,5.48264 7.12553,5.49794 7.13755,5.5136 7.1497,5.5296 7.16196,5.54594 7.17436,5.56261 7.18687,5.57962 7.1995,5.59694 7.21224,5.61459 7.22509,5.63254 7.23804,5.6508 7.2511,5.66936 7.26426,5.68822 7.27751,5.70736 7.29085,5.72678 7.30429,5.74649 7.31781,5.76646 7.33142,5.7867 7.3451,5.8072 7.35886,5.82796 7.3727,5.84896 7.38661,5.8702 7.40058,5.89169 7.41461,5.9134 3.62835,2.12713 3.61431,2.10542 3.60034,2.08393 3.58643,2.06269 3.57259,2.04169 3.55883,2.02093 3.54515,2.00043 3.53154,1.98019 3.51802,1.96022 3.50459,1.94051 3.49124,1.92109 3.47799,1.90194 3.46483,1.88309 3.45178,1.86453 3.43882,1.84627 3.42597,1.82831 3.41323,1.81067 3.4006,1.79335 3.38809,1.77634 3.3757,1.75967 3.36343,1.74333 3.35128,1.72733 3.33926,1.71167 3.32738,1.69637 3.31563,1.68143 3.30402,1.66684 3.29254,1.65263 3.28122,1.63879 3.27004,1.62533 3.25901,1.61225 3.24814,1.59957 3.23742,1.58728 "/>
     <polygon id="_442132496" class="fil1" points="4.48821,3.67028 8.27448,7.45655 8.29183,7.49204 8.30902,7.52745 8.32604,7.56276 8.3429,7.59797 8.35959,7.63308 8.3761,7.66807 8.39244,7.70294 8.40859,7.73768 8.42456,7.77228 8.44035,7.80675 8.45594,7.84106 8.47135,7.87521 8.48655,7.9092 8.50155,7.94302 8.51635,7.97666 8.53094,8.01011 8.54532,8.04337 8.55948,8.07643 8.57343,8.10928 8.58716,8.14192 8.60066,8.17433 8.61394,8.20652 8.62698,8.23847 8.63979,8.27017 8.65236,8.30163 8.66469,8.33282 8.67677,8.36376 8.68861,8.39441 8.70019,8.42479 8.71152,8.45489 8.72259,8.48469 8.73341,8.51418 4.94714,4.72791 4.93633,4.69841 4.92526,4.66861 4.91393,4.63852 4.90234,4.60814 4.8905,4.57748 4.87842,4.54655 4.86609,4.51535 4.85352,4.4839 4.84071,4.4522 4.82767,4.42025 4.81439,4.38806 4.80089,4.35565 4.78717,4.32301 4.77322,4.29016 4.75905,4.2571 4.74467,4.22384 4.73008,4.19039 4.71528,4.15675 4.70028,4.12293 4.68508,4.08894 4.66968,4.05479 4.65408,4.02048 4.6383,3.98601 4.62232,3.95141 4.60617,3.91667 4.58983,3.8818 4.57332,3.84681 4.55663,3.8117 4.53977,3.77649 4.52275,3.74118 4.50556,3.70577 "/>
     <polygon id="_442132784" class="fil1" points="4.94714,4.72791 8.73341,8.51418 8.73932,8.53058 4.95306,4.74431 "/>
     <polygon id="_442132976" class="fil1" points="4.95306,4.74431 8.73932,8.53058 8.74129,8.53653 8.74281,8.54256 8.74391,8.54865 8.74457,8.55476 8.7448,8.56089 8.74462,8.56701 8.74402,8.57308 8.74302,8.5791 8.74161,8.58504 8.73981,8.59087 8.73762,8.59657 8.73504,8.60211 8.73209,8.60749 8.72876,8.61266 8.72507,8.61762 8.72102,8.62233 4.93475,4.83606 4.93881,4.83135 4.9425,4.82639 4.94582,4.82122 4.94878,4.81584 4.95135,4.8103 4.95354,4.80459 4.95534,4.79876 4.95675,4.79283 4.95775,4.78681 4.95835,4.78074 4.95853,4.77462 4.9583,4.76849 4.95764,4.76237 4.95655,4.75629 4.95502,4.75026 "/>
     <polygon id="_442133096" class="fil1" points="4.93475,4.83606 8.72102,8.62233 8.7183,8.62515 8.71559,8.62776 8.71287,8.63017 8.71014,8.6324 8.70739,8.63445 8.7046,8.63634 8.70178,8.63808 8.69892,8.63968 8.69601,8.64114 8.69303,8.64249 8.68999,8.64373 8.68688,8.64487 8.68368,8.64593 8.68039,8.64691 8.67701,8.64783 8.67352,8.6487 8.66825,8.64973 8.66308,8.65032 8.65796,8.6505 8.65285,8.65032 8.64773,8.64981 8.64255,8.64902 8.63727,8.64798 8.63187,8.64673 4.8456,4.86046 4.851,4.8617 4.85628,4.86275 4.86146,4.86354 4.86659,4.86405 4.87169,4.86423 4.87681,4.86405 4.88198,4.86346 4.88725,4.86243 4.89074,4.86156 4.89413,4.86064 4.89741,4.85966 4.90061,4.8586 4.90372,4.85746 4.90676,4.85622 4.90974,4.85487 4.91265,4.85341 4.91552,4.85181 4.91833,4.85007 4.92112,4.84818 4.92387,4.84613 4.92661,4.8439 4.92932,4.84148 4.93204,4.83887 "/>
     <polygon id="_442133696" class="fil1" points="4.8456,4.86046 8.63187,8.64673 8.62569,8.64493 4.83942,4.85866 "/>
     <polygon id="_442133888" class="fil1" points="4.83942,4.85866 8.62569,8.64493 8.42907,8.58717 4.64281,4.8009 "/>
     <polygon id="_442133480" class="fil1" points="4.64281,4.8009 8.42907,8.58717 8.41101,8.58187 8.39303,8.57658 8.37511,8.57131 8.35725,8.56604 8.33944,8.56077 8.32167,8.5555 8.30391,8.55022 8.28617,8.54493 8.26843,8.53961 8.25068,8.53427 8.23291,8.5289 8.21511,8.5235 8.19727,8.51805 8.17937,8.51256 8.16141,8.50702 8.14337,8.50142 8.12524,8.49576 8.10702,8.49003 8.08869,8.48423 8.07024,8.47835 8.05165,8.47239 8.03292,8.46635 8.01404,8.4602 7.99499,8.45396 7.97577,8.44762 7.95636,8.44117 7.93675,8.4346 7.91694,8.42792 7.8969,8.42111 7.87663,8.41417 7.85611,8.40709 7.83535,8.39987 4.04908,4.6136 4.06985,4.62082 4.09036,4.62789 4.11063,4.63483 4.13067,4.64165 4.15048,4.64833 4.17009,4.6549 4.1895,4.66135 4.20872,4.66769 4.22777,4.67393 4.24665,4.68007 4.26538,4.68612 4.28397,4.69208 4.30242,4.69796 4.32076,4.70376 4.33898,4.70949 4.3571,4.71515 4.37514,4.72075 4.3931,4.72629 4.411,4.73178 4.42885,4.73723 4.44665,4.74263 4.46441,4.748 4.48216,4.75334 4.4999,4.75865 4.51764,4.76395 4.5354,4.76923 4.55317,4.7745 4.57098,4.77977 4.58884,4.78504 4.60676,4.79031 4.62474,4.7956 "/>
     <polygon id="_442133624" class="fil1" points="4.04908,4.6136 7.83535,8.39987 7.60403,8.31569 3.81776,4.52942 "/>
     <polygon id="_442133816" class="fil1" points="3.81776,4.52942 7.60403,8.31569 7.60281,8.31524 3.81654,4.52897 "/>
     <polygon id="_442133216" class="fil1" points="3.81654,4.52897 7.60281,8.31524 7.49392,8.2731 3.70765,4.48683 "/>
     <polygon id="_442133240" class="fil1" points="2.68145,4.02542 6.46772,7.81169 6.42499,7.78978 6.38274,7.76781 6.34098,7.74582 6.29972,7.72381 6.25897,7.70179 6.21875,7.67976 6.17907,7.65775 6.13993,7.63576 6.10136,7.61381 6.06337,7.5919 6.02596,7.57005 5.98915,7.54826 5.95296,7.52656 5.91739,7.50494 5.88246,7.48343 5.84818,7.46202 5.81456,7.44074 5.78162,7.4196 5.74936,7.3986 5.71781,7.37776 5.68696,7.35709 5.65685,7.33659 5.62746,7.31629 5.59883,7.29619 5.57097,7.2763 5.54387,7.25663 5.51757,7.2372 5.49206,7.21801 5.46737,7.19909 5.4435,7.18043 5.42047,7.16205 5.39829,7.14396 1.61202,3.35769 1.6342,3.37578 1.65723,3.39416 1.6811,3.41281 1.7058,3.43174 1.7313,3.45093 1.75761,3.47036 1.7847,3.49002 1.81257,3.50991 1.8412,3.53002 1.87058,3.55032 1.9007,3.57081 1.93154,3.59149 1.96309,3.61233 1.99535,3.63333 2.02829,3.65447 2.06191,3.67575 2.09619,3.69716 2.13112,3.71867 2.16669,3.74029 2.20289,3.76199 2.23969,3.78378 2.2771,3.80563 2.31509,3.82754 2.35367,3.84949 2.3928,3.87148 2.43248,3.89349 2.4727,3.91552 2.51345,3.93754 2.55471,3.95955 2.59648,3.98154 2.63872,4.0035 "/>
     <polygon id="_442133384" class="fil1" points="2.79669,5.26007 6.58295,9.04634 6.57738,9.05046 6.57166,9.05409 6.56581,9.05723 6.55985,9.05989 6.55381,9.06208 6.5477,9.06381 6.54155,9.06509 6.53537,9.06593 6.52919,9.06632 6.52302,9.0663 6.5169,9.06586 6.51083,9.06501 6.50485,9.06376 6.49896,9.06213 6.4932,9.06012 6.48758,9.05774 6.48213,9.05499 6.47686,9.05189 6.4718,9.04845 6.46696,9.04468 2.68069,5.25841 2.68553,5.26218 2.69059,5.26562 2.69586,5.26872 2.70131,5.27146 2.70693,5.27385 2.71269,5.27586 2.71858,5.27749 2.72456,5.27874 2.73063,5.27959 2.73676,5.28003 2.74292,5.28005 2.7491,5.27965 2.75528,5.27882 2.76143,5.27754 2.76754,5.27581 2.77359,5.27362 2.77954,5.27096 2.78539,5.26782 2.79111,5.26419 "/>
     <polygon id="_442133792" class="fil1" points="1.61202,3.35769 5.39829,7.14396 5.39303,7.13933 1.60676,3.35306 "/>
     <polygon id="_442133744" class="fil1" points="3.70765,4.48683 7.49392,8.2731 7.46048,8.30485 7.42737,8.33595 7.39461,8.36642 7.36218,8.39627 7.33009,8.42553 7.29833,8.4542 7.26689,8.4823 7.23579,8.50985 7.20502,8.53687 7.17457,8.56337 7.14444,8.58936 7.11463,8.61486 7.08515,8.63989 7.05598,8.66446 7.02712,8.68858 6.99858,8.71228 6.97035,8.73557 6.94243,8.75847 6.91481,8.78099 6.88751,8.80314 6.8605,8.82494 6.8338,8.84642 6.8074,8.86757 6.7813,8.88843 6.75548,8.909 6.72997,8.9293 6.70475,8.94935 6.67982,8.96916 6.65517,8.98875 6.63081,9.00813 6.60674,9.02732 6.58295,9.04634 2.79669,5.26007 2.82048,5.24105 2.84455,5.22186 2.86891,5.20248 2.89355,5.18289 2.91848,5.16308 2.9437,5.14303 2.96922,5.12273 2.99503,5.10216 3.02113,5.0813 3.04753,5.06015 3.07424,5.03867 3.10124,5.01687 3.12855,4.99472 3.15616,4.9722 3.18408,4.9493 3.21231,4.92601 3.24085,4.90231 3.26971,4.87819 3.29888,4.85361 3.32837,4.82859 3.35817,4.80309 3.3883,4.77709 3.41875,4.7506 3.44952,4.72358 3.48063,4.69603 3.51206,4.66793 3.54382,4.63926 3.57591,4.61 3.60834,4.58015 3.64111,4.54968 3.67421,4.51858 "/>
     <polygon id="_442134656" class="fil1" points="3.62835,2.12713 7.41461,5.9134 7.42467,5.92903 7.4347,5.94468 7.44471,5.96034 7.45469,5.97603 7.46465,5.99175 7.47459,6.00749 7.48452,6.02327 7.49442,6.03908 7.50431,6.05494 7.51419,6.07083 7.52406,6.08676 7.53393,6.10275 7.54378,6.11878 7.55363,6.13487 7.56348,6.15101 7.57333,6.16721 7.58319,6.18348 7.59304,6.1998 7.6029,6.2162 7.61277,6.23267 7.62265,6.24921 7.63254,6.26582 7.64245,6.28252 7.65237,6.2993 7.66231,6.31617 7.67227,6.33312 7.68225,6.35017 7.69226,6.36731 7.70229,6.38455 7.71235,6.40189 7.72244,6.41933 7.73256,6.43687 3.94629,2.6506 3.93617,2.63306 3.92608,2.61561 3.91602,2.59828 3.90599,2.58104 3.89598,2.56389 3.886,2.54685 3.87604,2.52989 3.86611,2.51303 3.85618,2.49625 3.84628,2.47955 3.83639,2.46294 3.8265,2.44639 3.81663,2.42993 3.80677,2.41353 3.79692,2.3972 3.78707,2.38094 3.77722,2.36474 3.76737,2.34859 3.75751,2.33251 3.74766,2.31648 3.7378,2.30049 3.72793,2.28456 3.71804,2.26867 3.70815,2.25281 3.69825,2.237 3.68832,2.22122 3.67839,2.20548 3.66843,2.18976 3.65844,2.17407 3.64844,2.15841 3.63841,2.14276 "/>
     <polygon id="_442134584" class="fil1" points="5.23842,2.63525 9.02469,6.42152 9.0109,6.44678 8.99642,6.47266 8.98124,6.49913 8.96538,6.52619 8.94885,6.55382 8.93164,6.582 8.91377,6.6107 8.89525,6.63994 8.87609,6.66967 8.85628,6.6999 8.83585,6.73059 8.81479,6.76174 8.79311,6.79334 8.77083,6.82536 8.74795,6.85779 8.72447,6.89061 8.70041,6.92381 8.67578,6.95738 8.65057,6.99129 8.6248,7.02553 8.59847,7.06009 8.5716,7.09495 8.54419,7.13009 8.51625,7.1655 8.48778,7.20116 8.4588,7.23706 8.4293,7.27318 8.39931,7.30951 8.36882,7.34602 8.33785,7.38271 8.3064,7.41956 8.27448,7.45655 4.48821,3.67028 4.52013,3.63329 4.55158,3.59644 4.58256,3.55975 4.61304,3.52324 4.64304,3.48691 4.67253,3.45079 4.70151,3.41489 4.72998,3.37923 4.75792,3.34382 4.78533,3.30868 4.8122,3.27382 4.83853,3.23926 4.8643,3.20502 4.88951,3.17111 4.91415,3.13754 4.9382,3.10434 4.96168,3.07152 4.98456,3.03909 5.00685,3.00707 5.02852,2.97547 5.04958,2.94432 5.07002,2.91363 5.08982,2.8834 5.10898,2.85367 5.1275,2.82443 5.14537,2.79572 5.16258,2.76755 5.17911,2.73992 5.19497,2.71286 5.21015,2.68639 5.22463,2.66051 "/>
    </g>
    <path id="_637659232" class="fil1" d="M3.81776 4.52942l-0.00122047 -0.000448819 0.00122047 0.000448819zm1.33904 -2.02871c0.0336654,-0.000732283 0.0629606,0.0127362 0.0808189,0.0424094 0.0163622,0.0271693 0.017126,0.0610236 0.00234646,0.0889803 -0.000791339,0.0011811 -0.00117717,0.0019685 -0.00155512,0.00314961 -0.143276,0.266142 -0.40722,0.639764 -0.750209,1.03503 0.185898,0.379 0.345028,0.744622 0.458929,1.05763l0.00591732 0.0163976c0.0116811,0.0314921 0.00426772,0.0673189 -0.0183031,0.091748 -0.0144961,0.0156063 -0.0285984,0.0218701 -0.0475,0.0263701 -0.0141969,0.00338189 -0.0270276,0.00160236 -0.0416535,-0.0019685l-0.0061811 -0.00179921 -0.19661 -0.0577559c-0.193138,-0.056685 -0.370831,-0.109559 -0.593724,-0.187299l-0.231319 -0.084185 -0.00122047 -0.000448819 -0.10889 -0.0421378c-0.358551,0.34213 -0.658705,0.571276 -0.910969,0.773236 -0.0585551,0.0466969 -0.146193,0.00692126 -0.148724,-0.0696811 -0.00934252,-0.288197 -0.00349606,-0.681898 0.0334882,-1.16497 -0.458224,-0.23348 -0.837402,-0.476382 -1.06943,-0.667728 -0.0584213,-0.0480472 -0.0424567,-0.141634 0.027248,-0.167709 0.251886,-0.0944843 0.683622,-0.207878 1.16714,-0.315366 0.0743661,-0.521654 0.170913,-1 0.267846,-1.26693 0.0244685,-0.0681929 0.108417,-0.079189 0.15261,-0.0322874 0.11172,0.124587 0.251425,0.318902 0.40148,0.551732 0.107457,0.166622 0.209811,0.335713 0.317945,0.523472 0.468362,-0.0803071 0.894559,-0.137201 1.16543,-0.148531l0.0450276 -0.00136614c1.1811e-005,-3.93701e-006 3.93701e-005,3.93701e-006 5.51181e-005,3.93701e-006z"/>
   </g>
  </g>
  <path class="fil2" d="M3.41333 -3.93701e-006c1.88513,0 3.41333,1.5282 3.41333,3.41333 0,1.88513 -1.5282,3.41333 -3.41333,3.41333 -1.88513,0 -3.41333,-1.5282 -3.41333,-3.41333 0,-1.88513 1.5282,-3.41333 3.41333,-3.41333z"/>
  <path class="fil3" d="M3.0703 1.60746c0.0111654,-0.0304724 0.0375157,-0.0528937 0.0693701,-0.0590866 0.0319016,-0.00620079 0.0647795,0.00466929 0.0865472,0.0287677 0.19065,0.210764 0.460642,0.617772 0.725839,1.07342 0.499319,-0.0845118 0.951189,-0.143201 1.22165,-0.150008 0.0331693,-0.000838583 0.0643071,0.0161299 0.0815315,0.0444685 0.0172835,0.0283071 0.0180472,0.0636732 0.00215748,0.0927953 -0.145165,0.265913 -0.411346,0.638354 -0.756965,1.03242 0.215252,0.433882 0.368421,0.796807 0.467665,1.06735 0.0120512,0.0328858 0.00459449,0.0698386 -0.0193937,0.0953898 -0.0239685,0.0255827 -0.0603031,0.0353937 -0.0939134,0.0255039 -0.312287,-0.091811 -0.679728,-0.190469 -1.14384,-0.371598 -0.362587,0.341827 -0.666311,0.570953 -0.921429,0.773047 -0.0274606,0.0217598 -0.0648386,0.026189 -0.0965984,0.011437 -0.0318031,-0.0147165 -0.0526378,-0.0460709 -0.0537362,-0.0810866 -0.0093937,-0.288024 -0.00331496,-0.68189 0.0338583,-1.16484 -0.463453,-0.2335 -0.846654,-0.476551 -1.08154,-0.667839 -0.0272283,-0.0221575 -0.0404961,-0.057189 -0.034752,-0.0918543 0.00570472,-0.0346181 0.0295394,-0.0635906 0.0624488,-0.0757795 0.25463,-0.0944488 0.691256,-0.207886 1.18021,-0.315362 0.0752126,-0.52178 0.173055,-1.00023 0.270886,-1.26715z"/>
  <path class="fil4" d="M3.47874 2.68158c0.0122795,0.063185 -0.0289606,0.124469 -0.0922087,0.136764 -0.0632402,0.0122795 -0.124429,-0.0290551 -0.136713,-0.0922559 -0.0122874,-0.0632126 0.0289606,-0.124472 0.0921969,-0.136764 0.0632441,-0.0123071 0.124437,0.0290551 0.136724,0.0922559z"/>
  <path class="fil4" d="M3.38701 2.39044c0.00866535,0.0445709 -0.0203583,0.0876614 -0.0649291,0.0963268 -0.0445236,0.00865354 -0.0876063,-0.0204094 -0.0962717,-0.0649803 -0.00864567,-0.0444843 0.0204055,-0.0876063 0.0649291,-0.0962598 0.0445669,-0.00867717 0.0876299,0.0204528 0.0962717,0.0649134z"/>
  <path class="fil4" d="M3.30545 2.12109c0.00564567,0.0290512 -0.0132598,0.0570748 -0.0422598,0.0627126 -0.0289567,0.00560236 -0.0570472,-0.013248 -0.0626929,-0.0422992 -0.00562205,-0.0289134 0.0133386,-0.0570276 0.0422913,-0.0626535 0.0289961,-0.00566142 0.0570276,0.0133386 0.0626614,0.0422402z"/>
  <path class="fil4" d="M3.93802 3.3383c-0.0610236,0.0394252 -0.142283,0.0219134 -0.181787,-0.0390079 -0.0394094,-0.060937 -0.0219567,-0.142311 0.0390276,-0.18174 0.0609843,-0.0394409 0.142354,-0.0219528 0.181728,0.0389449 0.0394331,0.0610079 0.0219134,0.142358 -0.0389685,0.181803z"/>
  <path class="fil4" d="M4.23444 3.15591c-0.0540118,0.0349724 -0.126228,0.0195157 -0.161287,-0.0346654 -0.0349646,-0.0540236 -0.0194449,-0.12624 0.0346496,-0.161232 0.0541339,-0.0350472 0.12628,-0.0195039 0.161272,0.0345906 0.0349921,0.0540945 0.0195039,0.126295 -0.0346339,0.161307z"/>
  <path class="fil4" d="M4.47941 2.99306c-0.0381417,0.0246378 -0.0889921,0.0137205 -0.113575,-0.0243937 -0.0246654,-0.0380827 -0.013748,-0.0889331 0.0243504,-0.113602 0.0380906,-0.0246417 0.0889528,-0.0136496 0.113571,0.0244449 0.0246654,0.0380236 0.0137047,0.0889055 -0.0243465,0.113551z"/>
  <path class="fil4" d="M4.70863 2.83764c-0.0248071,0.0160512 -0.0579252,0.00896457 -0.0739291,-0.0158031 -0.0160315,-0.0248346 -0.00891339,-0.0579331 0.015815,-0.0739291 0.0248071,-0.0160394 0.0579213,-0.00891339 0.073937,0.0158504 0.0160591,0.0247913 0.00894094,0.057878 -0.0158228,0.0738819z"/>
  <path class="fil4" d="M3.99972 4.04939c-0.0506299,-0.0398504 -0.0593346,-0.113307 -0.0194567,-0.163862 0.0398189,-0.0505827 0.11322,-0.0593189 0.163787,-0.0193937 0.0505906,0.0398622 0.0593346,0.11313 0.0194882,0.163772 -0.0398701,0.0505906 -0.113244,0.0592717 -0.163819,0.0194843z"/>
  <path class="fil4" d="M4.233 4.22835c-0.0355945,-0.0280827 -0.0416614,-0.079748 -0.0136693,-0.11537 0.0280472,-0.0356378 0.0797047,-0.0417402 0.115382,-0.0136732 0.0355984,0.0280433 0.0417835,0.079685 0.0136969,0.115327 -0.0280669,0.0356772 -0.0797323,0.0417953 -0.115409,0.0137165z"/>
  <path class="fil4" d="M3.07023 4.10159c0.0243425,-0.0596181 0.0924843,-0.0881693 0.152091,-0.063815 0.059685,0.0244173 0.0882283,0.0925236 0.0638701,0.152134 -0.0244252,0.0596339 -0.0925591,0.0882323 -0.152146,0.0637835 -0.0596654,-0.0243937 -0.0881693,-0.0924843 -0.063815,-0.152102z"/>
  <path class="fil4" d="M2.9624 4.37517c0.0171969,-0.0419685 0.0651969,-0.0620906 0.10713,-0.0448858 0.0420236,0.0171457 0.0621102,0.0651575 0.0449961,0.107161 -0.017252,0.0419409 -0.0651969,0.0621142 -0.107189,0.0448701 -0.0420039,-0.0171142 -0.0620748,-0.0650748 -0.044937,-0.107146z"/>
  <path class="fil4" d="M2.73048 3.46759c0.0632244,0.0121614 0.124346,-0.0292008 0.136559,-0.0925591 0.0121417,-0.0631811 -0.0292717,-0.124382 -0.0925276,-0.136512 -0.0632677,-0.0122047 -0.124449,0.0291811 -0.136622,0.0924567 -0.012126,0.0632913 0.0293228,0.124461 0.0925906,0.136614z"/>
  <path class="fil4" d="M2.4387 3.38974c0.0445433,0.00856693 0.0876496,-0.0206142 0.0962008,-0.0651693 0.0086063,-0.0445276 -0.0206142,-0.0875984 -0.0651339,-0.0962087 -0.0445472,-0.00857874 -0.0875866,0.0206654 -0.0961535,0.0652087 -0.00860236,0.0444921 0.0205236,0.0875827 0.0650866,0.0961693z"/>
  <path class="fil4" d="M2.16799 3.33149c0.0290118,0.00559055 0.0570512,-0.0133858 0.0626142,-0.0423425 0.00555906,-0.0290315 -0.0133898,-0.057063 -0.0424409,-0.0626063 -0.0289646,-0.00558661 -0.0569685,0.0133701 -0.0625315,0.042378 -0.00559055,0.029 0.0133898,0.0570118 0.0423583,0.0625709z"/>
  <path class="fil5" d="M4.90457 4.86231l-0.000846457 0.000165354 -0.000641732 0.000122047c-0.0135945,0.00254331 -0.0278031,0.00192913 -0.0415787,-0.00214173 -0.00172835,-0.000503937 -0.00352362,-0.0010315 -0.00525197,-0.00153543 0.0140787,0.00389764 0.0286299,0.00434252 0.0424961,0.00164961 0.018811,-0.00365748 0.0363583,-0.0130906 0.0499528,-0.0275866 0.0236969,-0.0252323 0.0312717,-0.0615827 0.0198425,-0.094185 0.000665354,0.00180315 0.00133858,0.00366535 0.00199606,0.00549606 0.0116063,0.0316299 0.00432283,0.0670945 -0.0187362,0.091622 -0.0128858,0.0137323 -0.0294843,0.0227559 -0.0472323,0.0263937zm0.0270433 -0.22198c-0.086622,-0.225929 -0.206161,-0.505752 -0.362453,-0.829618 0.156335,0.323843 0.275835,0.603701 0.362453,0.829618z"/>
  <path class="fil4" d="M3.90191 4.55891c-0.0618189,-0.0224961 -0.125469,-0.0464055 -0.19098,-0.0719606 -7.87402e-006,-4.72441e-005 -7.87402e-006,-4.72441e-005 2.75591e-005,-5.51181e-005 0.0655236,0.0255512 0.129169,0.0495118 0.190941,0.0720315l1.1811e-005 -1.5748e-005z"/>
  <path class="fil5" d="M4.05621 4.6135c-0.0501693,-0.0172441 -0.101583,-0.0353898 -0.154315,-0.0545709l1.1811e-005 -1.5748e-005c0.0527559,0.019189 0.104134,0.0373543 0.154303,0.0545866z"/>
  <path class="fil6" d="M5.25879 2.63518c0.014437,-0.0285866 0.0132244,-0.0626535 -0.00355118,-0.0901535 -0.0172244,-0.0283386 -0.0483583,-0.0452953 -0.0815315,-0.0444685 -0.250146,0.00630709 -0.655488,0.0569961 -1.11005,0.131453l-7.87402e-006 -4.72441e-005c0.458429,-0.0750984 0.866811,-0.126 1.1164,-0.131583 0.031811,-0.000740157 0.0615472,0.0156102 0.0781142,0.042748 0.0165591,0.0271693 0.0174449,0.0610945 0.00225591,0.089063 -0.000566929,0.00096063 -0.00111417,0.00202362 -0.00162598,0.00298819z"/>
  <polygon class="fil4" points="4.06366,2.63201 4.06366,2.63201 4.06365,2.63196 "/>
  <path class="fil4" d="M4.06366 2.63201c-0.0368937,0.00600394 -0.0741457,0.0122441 -0.111598,0.0185551 -0.0139961,-0.0239882 -0.0279764,-0.0478386 -0.0419606,-0.0715551 0.0139921,0.0237008 0.0279606,0.0475433 0.0419606,0.0715551 0.0374567,-0.00635039 0.0747087,-0.0125236 0.111591,-0.0185906l7.87402e-006 3.54331e-005zm-0.153693 -0.053252c-0.000208661,-0.000346457 -0.00042126,-0.000744094 -0.000673228,-0.00113386 0.000259843,0.000374016 0.00046063,0.000751969 0.000673228,0.00113386z"/>
  <path class="fil7" d="M4.89875 4.86057c-0.0138661,0.00269291 -0.0284173,0.00224803 -0.0424961,-0.00164961 -0.230909,-0.0679409 -0.491976,-0.139559 -0.800043,-0.245417 -0.0501732,-0.0172559 -0.101551,-0.0354094 -0.154319,-0.0545827 -0.0617717,-0.0225197 -0.125429,-0.0464764 -0.190941,-0.0720315 -3.54331e-005,7.87402e-006 -3.54331e-005,7.87402e-006 -2.75591e-005,5.51181e-005 -5.90551e-005,-3.93701e-005 -5.90551e-005,-3.93701e-005 -5.90551e-005,-3.93701e-005l-0.174106 -0.895701c0,0 3.93701e-006,1.1811e-005 3.93701e-006,1.1811e-005 0.085378,-0.0166063 0.141142,-0.0992323 0.124547,-0.184602 -0.0165748,-0.0853346 -0.099248,-0.141102 -0.184634,-0.124504l-0.0227874 -0.117248c0,0 0,1.1811e-005 0,1.1811e-005 0.071311,-0.013874 0.117795,-0.0827756 0.103945,-0.154039 -0.0138543,-0.0712638 -0.0827835,-0.117831 -0.154094,-0.103969l-0.0172126 -0.0885394c0,0 3.93701e-006,1.1811e-005 3.93701e-006,1.1811e-005 0.0632441,-0.0123071 0.104496,-0.0735551 0.0922087,-0.136752 -0.0122874,-0.0632126 -0.0734764,-0.104563 -0.136724,-0.0922677l-0.019937 -0.102559c0,0 0,0 0,0 0.0445709,-0.00866535 0.0735945,-0.0517441 0.0649331,-0.096315 -0.00864961,-0.0444843 -0.0517047,-0.0735906 -0.0962756,-0.0649252l-0.0275512 -0.14174c0,0 3.93701e-006,2.3622e-005 3.93701e-006,2.3622e-005 0.0289961,-0.00566142 0.0478937,-0.0336457 0.042248,-0.0626969 -0.00561024,-0.0289173 -0.0336457,-0.0478937 -0.0626496,-0.0422559l-0.092248 -0.474579c-0.00341339,-0.0175669 0.00522047,-0.0353031 0.0212283,-0.0433701 0.00334646,-0.00168898 0.00682677,-0.00288189 0.0103701,-0.00357087 0.00745669,-0.00146063 0.0151654,-0.000724409 0.0221535,0.00198031 0.00739764,0.0043189 0.0142441,0.0097126 0.0202953,0.016063 0.180531,0.198984 0.43276,0.575146 0.684705,1.00225 0.000259843,0.000374016 0.000468504,0.000799213 0.000661417,0.00114961 6.69291e-005,7.48031e-005 0.000129921,0.000149606 0.000145669,0.00023622 0.0139921,0.0237008 0.0279685,0.0475906 0.0419606,0.0715551 0.0374646,-0.00631496 0.0747087,-0.0125236 0.111598,-0.0185551l0 0c0.454575,-0.0744724 0.85989,-0.125142 1.11005,-0.131453 0.0331693,-0.000838583 0.0643071,0.0161299 0.0815315,0.0444685 0.0167717,0.0274882 0.0179882,0.0615669 0.00355512,0.0901772 -0.144913,0.266094 -0.411661,0.639697 -0.758425,1.03496 0.0237087,0.0476929 0.046626,0.0945866 0.0687953,0.140547 0.156287,0.323854 0.275835,0.603701 0.362453,0.829618 0.0130433,0.0340591 0.0253465,0.0668976 0.0369291,0.0984685 0.0114291,0.0326024 0.00384252,0.0689567 -0.0198425,0.094185 -0.0135945,0.0144843 -0.0311535,0.0239331 -0.0499528,0.0275866zm-0.630685 -0.777394c-0.0185906,0.00361417 -0.036063,0.0136969 -0.0487402,0.0297992 -0.0279921,0.035622 -0.0219252,0.0872874 0.0136693,0.11537 0.0195906,0.0153976 0.0439528,0.0205 0.0665945,0.0160984 0.0186378,-0.0036378 0.0361496,-0.0137165 0.048815,-0.029815 0.0280866,-0.0356417 0.0218898,-0.0872795 -0.0136969,-0.115327 -0.0195906,-0.0153976 -0.0439606,-0.0205236 -0.0666378,-0.0161142zm-0.218488 -0.239941c-0.0264843,0.00514961 -0.0513307,0.0194488 -0.0693228,0.0422795 -0.039878,0.0505551 -0.031185,0.124012 0.0194567,0.163874 0.0277402,0.0218189 0.0623386,0.0290315 0.0944921,0.0227835 0.0264882,-0.00514961 0.0513228,-0.019437 0.0693268,-0.0422795 0.0398465,-0.0506417 0.0311024,-0.123909 -0.0194882,-0.163772 -0.0277165,-0.0218858 -0.0623189,-0.0291339 -0.0944764,-0.0228819zm-0.262173 -0.247709c-0.0298504,0.00579921 -0.0578661,0.0219724 -0.0781299,0.0477283 -0.0449449,0.057 -0.0351299,0.139646 0.0218937,0.184591 0.0312913,0.0245906 0.0702756,0.0327717 0.106484,0.0257323 0.0298583,-0.00580315 0.0578386,-0.0219055 0.0781024,-0.0476614 0.0449291,-0.0570827 0.0350709,-0.139685 -0.0219055,-0.184638 -0.031311,-0.0246496 -0.0702402,-0.0327795 -0.106445,-0.0257402zm0.0541102 -0.496705c-0.0159921,0.00311024 -0.0316969,0.00932283 -0.046248,0.0187008 -0.0609843,0.0394173 -0.0784488,0.120803 -0.0390276,0.18174 0.0300866,0.0463661 0.0844055,0.0676378 0.135539,0.0576969 0.0159803,-0.00311811 0.031689,-0.00929528 0.0462402,-0.0186732 0.0608898,-0.0394606 0.0784016,-0.120795 0.0389764,-0.181819 -0.0299882,-0.0463622 -0.0843031,-0.0675669 -0.135476,-0.057622zm0.307374 -0.155492c-0.014252,0.00276772 -0.028189,0.00827559 -0.0410787,0.016626 -0.0540945,0.0349921 -0.069622,0.107224 -0.0346496,0.161232 0.0266969,0.0412441 0.0749173,0.0600591 0.120299,0.0512362 0.0142008,-0.00277165 0.0280984,-0.00819685 0.0409921,-0.0165472 0.0541299,-0.035063 0.069622,-0.107224 0.0346299,-0.161331 -0.0266339,-0.0411654 -0.0748228,-0.0600236 -0.120205,-0.0512047zm0.270146 -0.10002c-0.00998425,0.00194094 -0.0197598,0.00581102 -0.0288386,0.011689 -0.0381024,0.0246457 -0.0490157,0.0755197 -0.0243504,0.113602 0.0187362,0.0290039 0.0526535,0.0422717 0.0846378,0.0360512 0.0100197,-0.00196063 0.0198465,-0.00581496 0.028937,-0.0116457 0.0380512,-0.0246575 0.0490039,-0.0755157 0.0243465,-0.113563 -0.018748,-0.029063 -0.0527402,-0.0423268 -0.0847283,-0.0361102zm0.250291 -0.103098c-0.00649213,0.00126378 -0.0128622,0.00379134 -0.0187953,0.0076063 -0.0247283,0.0159961 -0.0318425,0.0491181 -0.015815,0.0739291 0.0122008,0.0188189 0.0342795,0.0274488 0.0550827,0.0234055 0.00652756,-0.00126772 0.0129094,-0.00374016 0.0188465,-0.00759055 0.0247638,-0.0160276 0.0318858,-0.0490906 0.0158228,-0.0738937 -0.0122126,-0.018878 -0.0343346,-0.0274882 -0.0551417,-0.0234567z"/>
  <path class="fil4" d="M3.38653 2.81833c0,0 3.93701e-006,1.1811e-005 3.93701e-006,1.1811e-005l-0.0445197 -0.229031c0,0 3.93701e-006,1.1811e-005 3.93701e-006,1.1811e-005 0.0632441,-0.0123071 0.124437,0.0290551 0.136724,0.0922677 0.0122795,0.0631732 -0.0289606,0.124457 -0.0922126,0.13674z"/>
  <path class="fil4" d="M3.32208 2.48676c0,0 0,0 0,0l-0.0313465 -0.161252c0,0 3.93701e-006,1.1811e-005 3.93701e-006,1.1811e-005 0.0445669,-0.00867717 0.0876299,0.0204528 0.0962756,0.0649252 0.00866142,0.0445591 -0.0203622,0.0876496 -0.0649331,0.096315z"/>
  <path class="fil4" d="M3.26319 2.18378c0,0 3.93701e-006,2.3622e-005 3.93701e-006,2.3622e-005l-0.0204055 -0.104976c0,0 3.93701e-006,2.3622e-005 3.93701e-006,2.3622e-005 0.0289961,-0.00566142 0.0570276,0.0133386 0.0626496,0.0422559 0.00565748,0.0290354 -0.013248,0.0570591 -0.042252,0.0626732z"/>
  <path class="fil8" d="M3.90163 3.40756c-0.0711772,0.0138386 -0.146795,-0.0157323 -0.188661,-0.0802913 -0.0548543,-0.0848228 -0.030563,-0.198094 0.0543268,-0.25298 0.020252,-0.0130512 0.0421181,-0.0216693 0.064378,-0.0259961 0.0712244,-0.013878 0.146823,0.0156969 0.188579,0.0802087 0.0548898,0.0849213 0.0305039,0.198157 -0.0542559,0.253087 -0.0202559,0.0130354 -0.0421181,0.0216654 -0.0643661,0.0259724z"/>
  <path class="fil4" d="M3.89177 3.35698c-0.0511378,0.00994094 -0.105461,-0.0113031 -0.135539,-0.057685 -0.0394094,-0.060937 -0.0219567,-0.142311 0.0390276,-0.18174 0.0145512,-0.00937795 0.0302598,-0.0155669 0.046252,-0.0186772 0.0511654,-0.00997244 0.10548,0.0112756 0.135476,0.057622 0.0394331,0.0610079 0.0219134,0.142358 -0.0389764,0.181819 -0.0145512,0.00936614 -0.0302598,0.0155669 -0.0462402,0.0186614z"/>
  <path class="fil4" d="M4.19345 3.17247c-0.0453701,0.0088189 -0.0935984,-0.00998031 -0.120295,-0.0512244 -0.0349646,-0.0540236 -0.0194449,-0.12624 0.0346496,-0.161232 0.0128898,-0.00835039 0.0268268,-0.0138465 0.0410669,-0.0166142 0.0453819,-0.00883071 0.0935748,0.0100512 0.120205,0.0512047 0.0349921,0.0540945 0.0195039,0.126295 -0.0346299,0.161331 -0.0128937,0.00833858 -0.0267913,0.0137874 -0.0409961,0.0165354z"/>
  <path class="fil4" d="M4.45047 3.00471c-0.0319882,0.00621654 -0.0658976,-0.00701181 -0.0846378,-0.0360394 -0.0246654,-0.0380827 -0.013748,-0.0889331 0.0243504,-0.113602 0.00907874,-0.00587795 0.0188583,-0.00972441 0.0288425,-0.0116654 0.0319843,-0.00624016 0.0659803,0.00704724 0.0847283,0.0361102 0.0246654,0.0380236 0.0137047,0.0889055 -0.0243465,0.113563 -0.00909055,0.00583071 -0.0189134,0.00969685 -0.028937,0.0116339z"/>
  <path class="fil4" d="M4.6898 2.84524c-0.020815,0.00404724 -0.0428898,-0.00457087 -0.0550945,-0.0234016 -0.0160315,-0.0248346 -0.00891339,-0.0579331 0.015815,-0.0739291 0.00594094,-0.00383858 0.0123031,-0.00633071 0.0187835,-0.00759055 0.020815,-0.00405906 0.0429409,0.0045748 0.0551535,0.0234409 0.0160591,0.0247913 0.00894094,0.057878 -0.0158228,0.0738937 -0.00593701,0.00383858 -0.0123189,0.00632283 -0.0188346,0.00758661z"/>
  <path class="fil4" d="M4.09421 4.07219c-0.0321535,0.00624803 -0.066752,-0.000964567 -0.0944921,-0.0227835 -0.0506299,-0.0398622 -0.0593346,-0.113319 -0.0194567,-0.163874 0.0179921,-0.0228307 0.0428386,-0.0371299 0.069311,-0.0422756 0.0321575,-0.00625197 0.0667638,0.00100787 0.0944764,0.0228819 0.0505906,0.0398622 0.0593346,0.11313 0.0194882,0.163772 -0.0180079,0.0228307 -0.0428386,0.0371299 -0.0693268,0.0422795z"/>
  <path class="fil4" d="M4.29959 4.24444c-0.0226417,0.00439764 -0.047,-0.000688976 -0.0665906,-0.0160866 -0.0355945,-0.0280827 -0.0416614,-0.079748 -0.0136693,-0.11537 0.0126772,-0.0161024 0.0301496,-0.0261732 0.0487441,-0.0297874 0.022689,-0.00442126 0.0470472,0.000716535 0.0666378,0.0161142 0.0355984,0.0280433 0.0417835,0.079685 0.0136969,0.115327 -0.0126654,0.0160984 -0.030185,0.0261929 -0.0488189,0.0298031z"/>
  <path class="fil8" d="M3.70977 3.39719c0.0217953,0.112134 -0.0514528,0.220693 -0.163602,0.242492 -0.112134,0.0217795 -0.22065,-0.0514134 -0.242445,-0.163547 -0.0217874,-0.112083 0.0513937,-0.220661 0.163528,-0.242457 0.112142,-0.021815 0.22072,0.0514488 0.24252,0.163512z"/>
  <path class="fil8" d="M3.59988 3.00261c0.0183622,0.0944803 -0.0433543,0.185945 -0.137846,0.204315 -0.0944803,0.0183504 -0.185909,-0.0433189 -0.204276,-0.137799 -0.0183583,-0.094437 0.0433031,-0.185921 0.13778,-0.204283 0.0944882,-0.0183819 0.185972,0.0433465 0.204343,0.137768z"/>
  <path class="fil8" d="M3.50193 3.79891c0.0183622,0.0944764 -0.0433543,0.185945 -0.137846,0.204311 -0.0944803,0.0183543 -0.185909,-0.0433189 -0.204276,-0.137795 -0.0183583,-0.094437 0.0433031,-0.185921 0.13778,-0.204287 0.0944882,-0.018378 0.185972,0.0433504 0.204343,0.137772z"/>
  <path class="fil8" d="M3.98354 3.69133c0.0183661,0.0944764 -0.0433543,0.185945 -0.137843,0.204311 -0.0944803,0.0183504 -0.185913,-0.0433189 -0.204276,-0.137799 -0.0183583,-0.094437 0.0433031,-0.185921 0.13778,-0.204283 0.0944882,-0.0183819 0.185972,0.0433465 0.204339,0.137772z"/>
  <path class="fil8" d="M3.26956 3.36331c0.0183622,0.0944764 -0.0433543,0.185945 -0.137846,0.204311 -0.0944803,0.0183543 -0.185909,-0.0433189 -0.204276,-0.137795 -0.0183583,-0.094437 0.0433031,-0.185921 0.13778,-0.204287 0.0944921,-0.018378 0.185972,0.0433504 0.204343,0.137772z"/>
  <path class="fil4" d="M3.66132 3.40661c0.0165906,0.0853701 -0.0391772,0.16802 -0.124559,0.184614 -0.085374,0.0165827 -0.167992,-0.0391417 -0.184587,-0.124512 -0.0165866,-0.0853346 0.0391299,-0.168 0.1245,-0.184594 0.0853819,-0.0166102 0.168047,0.0391693 0.184646,0.124492z"/>
  <path class="fil4" d="M3.55783 3.01083c0.0138543,0.0712756 -0.0326299,0.140189 -0.103941,0.154051 -0.071252,0.0138386 -0.140213,-0.032626 -0.154067,-0.103886 -0.0138504,-0.0712638 0.0326535,-0.140272 0.103917,-0.154122 0.071311,-0.0138622 0.14024,0.0327047 0.154091,0.103957z"/>
  <path class="fil4" d="M3.07369 3.52561c0.0712756,0.0137598 0.140177,-0.0329409 0.153909,-0.104169 0.0136575,-0.0713425 -0.0329291,-0.14022 -0.104315,-0.153917 -0.0712323,-0.0137441 -0.140173,0.0329528 -0.153862,0.104213 -0.0137126,0.071252 0.0329567,0.140173 0.104268,0.153874z"/>
  <path class="fil4" d="M3.20918 3.78247c0.0275079,-0.0672087 0.104264,-0.0994646 0.171445,-0.0719528 0.0672126,0.0274567 0.0993543,0.10426 0.0718622,0.171429 -0.0274291,0.0671535 -0.104169,0.0992953 -0.17137,0.0718976 -0.0671299,-0.0274961 -0.0993425,-0.104209 -0.071937,-0.171374z"/>
  <path class="fil4" d="M3.73116 3.82787c-0.0570236,-0.0449567 -0.0668465,-0.127563 -0.0218937,-0.184591 0.0448898,-0.0570512 0.127469,-0.0669055 0.184575,-0.0219764 0.0569764,0.0449528 0.0668386,0.127567 0.0219055,0.184638 -0.0449094,0.0570039 -0.127543,0.0667835 -0.184587,0.0219291z"/>
  <path class="fil4" d="M3.83765 3.8536c-0.0362087,0.00703937 -0.0751929,-0.00114173 -0.106484,-0.0257323 -0.0570236,-0.0449567 -0.0668465,-0.127563 -0.0218937,-0.184591 0.0202559,-0.0257795 0.0482835,-0.0419173 0.0781299,-0.0477165 0.0362047,-0.00705118 0.0751378,0.00111417 0.106445,0.0257402 0.0569764,0.0449528 0.0668386,0.127567 0.0219055,0.184638 -0.0202638,0.0257559 -0.0482441,0.0418583 -0.0781024,0.0476614z"/>
 </g>
</svg>
