<?xml version="1.0" encoding="UTF-8"?>
<!DOCTYPE svg PUBLIC "-//W3C//DTD SVG 1.1//EN" "http://www.w3.org/Graphics/SVG/1.1/DTD/svg11.dtd">
<!-- Creator: CorelDRAW -->
<svg xmlns="http://www.w3.org/2000/svg" xml:space="preserve" width="6.82666in" height="6.82666in" style="shape-rendering:geometricPrecision; text-rendering:geometricPrecision; image-rendering:optimizeQuality; fill-rule:evenodd; clip-rule:evenodd"
viewBox="0 0 6.82666 6.82666"
 xmlns:xlink="http://www.w3.org/1999/xlink">
 <defs>
  <style type="text/css">
   <![CDATA[
    .fil2 {fill:none}
    .fil5 {fill:#212121}
    .fil9 {fill:#381B04}
    .fil6 {fill:#421F03}
    .fil1 {fill:#00000000}
    .fil0 {fill:#00000000}
    .fil8 {fill:#BA5D17}
    .fil10 {fill:#D67E3A}
    .fil3 {fill:#EB761D}
    .fil4 {fill:#F2934B}
    .fil7 {fill:#FAFAFA}
   ]]>
  </style>
   <clipPath id="id0">
    <path d="M3.41333 -3.93701e-006c1.88513,0 3.41333,1.5282 3.41333,3.41333 0,1.88513 -1.5282,3.41333 -3.41333,3.41333 -1.88513,0 -3.41333,-1.5282 -3.41333,-3.41333 0,-1.88513 1.5282,-3.41333 3.41333,-3.41333z"/>
   </clipPath>
 </defs>
 <g id="Layer_x0020_1">
  <metadata id="CorelCorpID_0Corel-Layer"/>
  <path class="fil0" d="M3.41333 -3.93701e-006c1.88513,0 3.41333,1.5282 3.41333,3.41333 0,1.88513 -1.5282,3.41333 -3.41333,3.41333 -1.88513,0 -3.41333,-1.5282 -3.41333,-3.41333 0,-1.88513 1.5282,-3.41333 3.41333,-3.41333z"/>
  <g style="clip-path:url(#id0)">
   <g id="_637657456">
    <g>
     <polygon id="_6545435361" class="fil1" points="4.50406,2.75268 8.29032,6.53895 8.29298,6.54189 8.29563,6.54486 8.29828,6.54785 8.30091,6.55087 8.30352,6.55392 8.30613,6.55699 8.30873,6.56009 8.31132,6.56322 8.3139,6.56637 4.52763,2.7801 4.52506,2.77695 4.52246,2.77382 4.51987,2.77072 4.51726,2.76765 4.51464,2.7646 4.51201,2.76158 4.50937,2.75859 4.50672,2.75562 "/>
     <polygon id="_654543728" class="fil1" points="4.52763,2.7801 8.3139,6.56637 8.3168,6.56996 8.31967,6.57358 8.32254,6.57724 8.32539,6.58093 8.32823,6.58465 8.33106,6.58841 8.33387,6.59221 8.33667,6.59604 4.5504,2.80977 4.5476,2.80594 4.54479,2.80214 4.54196,2.79838 4.53913,2.79466 4.53627,2.79097 4.53341,2.78731 4.53053,2.78369 "/>
     <polygon id="_654544040" class="fil1" points="4.5504,2.80977 8.33667,6.59604 8.33752,6.59722 8.33837,6.59841 8.33922,6.5996 8.34007,6.60079 8.34092,6.60199 8.34177,6.60319 8.34261,6.6044 8.34345,6.60561 4.55719,2.81933 4.55634,2.81813 4.5555,2.81692 4.55465,2.81572 4.55381,2.81452 4.55296,2.81333 4.55211,2.81214 4.55125,2.81095 "/>
     <polygon id="_654543776" class="fil1" points="4.55719,2.81933 8.34345,6.60561 8.34619,6.60956 8.34889,6.61355 8.35159,6.61757 8.35426,6.62163 8.35691,6.62572 8.35955,6.62984 8.36216,6.634 8.36476,6.63819 8.36734,6.64241 8.3699,6.64666 8.37244,6.65094 8.37496,6.65525 8.37747,6.65959 8.37996,6.66396 8.38243,6.66837 8.38489,6.67279 4.59862,2.88652 4.59617,2.88209 4.59369,2.87769 4.5912,2.87332 4.5887,2.86898 4.58617,2.86467 4.58363,2.86039 4.58107,2.85613 4.57849,2.85191 4.57589,2.84772 4.57328,2.84357 4.57065,2.83944 4.56799,2.83535 4.56532,2.8313 4.56263,2.82728 4.55992,2.82329 "/>
     <polygon id="_654544208" class="fil1" points="4.59862,2.88652 8.38489,6.67279 8.38799,6.67847 8.39106,6.68419 8.39411,6.68994 8.39713,6.69574 8.40012,6.70158 8.40309,6.70746 8.40603,6.71337 8.40894,6.71932 8.41183,6.7253 8.4147,6.73132 8.41754,6.73737 8.42035,6.74344 8.42314,6.74955 8.42591,6.75569 8.42865,6.76185 8.43137,6.76804 4.6451,2.98177 4.64238,2.97558 4.63964,2.96942 4.63687,2.96328 4.63408,2.95717 4.63127,2.95109 4.62843,2.94505 4.62557,2.93903 4.62268,2.93305 4.61976,2.9271 4.61682,2.92119 4.61385,2.91531 4.61086,2.90947 4.60784,2.90367 4.6048,2.89791 4.60172,2.8922 "/>
     <polygon id="_654543848" class="fil1" points="4.6451,2.98177 8.43137,6.76804 8.43141,6.76813 8.43144,6.76822 8.43148,6.76831 8.43152,6.7684 8.43156,6.76849 8.4316,6.76857 8.43164,6.76867 8.43168,6.76876 4.64541,2.98248 4.64537,2.98239 4.64533,2.9823 4.6453,2.98222 4.64526,2.98213 4.64522,2.98204 4.64518,2.98195 4.64514,2.98186 "/>
     <polygon id="_654544256" class="fil1" points="4.64541,2.98248 8.43168,6.76876 8.4355,6.77759 8.43928,6.78648 8.443,6.7954 8.44669,6.80437 8.45033,6.81337 8.45393,6.8224 8.45749,6.83146 8.461,6.84055 8.46448,6.84966 8.46792,6.85879 8.47132,6.86794 8.47469,6.87709 8.47801,6.88626 8.4813,6.89543 8.48456,6.90459 8.48778,6.91376 8.49097,6.92293 8.49413,6.93208 8.49726,6.94123 8.50035,6.95035 8.50342,6.95946 8.50646,6.96855 8.50946,6.97761 8.51245,6.98664 8.51541,6.99564 8.51834,7.0046 8.52124,7.01353 8.52413,7.02241 8.52699,7.03124 8.52983,7.04003 8.53265,7.04876 8.53544,7.05743 4.74918,3.27116 4.74638,3.26249 4.74356,3.25376 4.74072,3.24497 4.73786,3.23613 4.73498,3.22726 4.73207,3.21833 4.72914,3.20937 4.72618,3.20037 4.7232,3.19134 4.72019,3.18228 4.71715,3.17319 4.71408,3.16408 4.71099,3.15496 4.70786,3.14581 4.7047,3.13666 4.70151,3.12749 4.69829,3.11832 4.69504,3.10915 4.69174,3.09998 4.68842,3.09082 4.68505,3.08167 4.68165,3.07252 4.67821,3.06339 4.67474,3.05428 4.67122,3.04519 4.66766,3.03613 4.66406,3.0271 4.66042,3.01809 4.65674,3.00913 4.65301,3.0002 4.64923,2.99132 "/>
     <polygon id="_654544400" class="fil1" points="4.47912,3.10737 8.26539,6.89364 8.26444,6.89703 8.26346,6.90044 8.26246,6.90388 8.26144,6.90734 8.2604,6.91082 8.25933,6.91433 8.25824,6.91785 8.25713,6.92139 8.256,6.92495 8.25486,6.92854 8.25369,6.93214 8.2525,6.93576 8.2513,6.9394 8.25008,6.94305 8.24885,6.94673 8.24759,6.95042 4.46133,3.16415 4.46258,3.16046 4.46381,3.15678 4.46503,3.15313 4.46624,3.14949 4.46742,3.14587 4.46859,3.14226 4.46974,3.13868 4.47087,3.13512 4.47198,3.13157 4.47306,3.12806 4.47413,3.12455 4.47518,3.12107 4.4762,3.11761 4.4772,3.11417 4.47817,3.11076 "/>
     <polygon id="_654543944" class="fil1" points="4.80911,3.44446 8.59537,7.23073 8.59786,7.23673 8.6004,7.24267 8.60299,7.24855 8.60564,7.25436 8.60834,7.26012 8.6111,7.26581 8.6139,7.27144 8.61676,7.277 8.61966,7.2825 8.6226,7.28794 8.6256,7.29331 8.62863,7.29863 8.63171,7.30387 8.63483,7.30905 8.638,7.31416 8.6412,7.31921 8.64443,7.32419 8.64771,7.3291 8.65102,7.33395 8.65436,7.33873 8.65774,7.34344 8.66114,7.34808 8.66458,7.35266 8.66804,7.35717 8.67154,7.3616 8.67505,7.36597 8.67859,7.37026 8.68216,7.37449 8.68575,7.37865 8.68936,7.38273 8.69299,7.38674 8.69663,7.39068 4.91037,3.60441 4.90672,3.60047 4.90309,3.59646 4.89948,3.59237 4.89589,3.58822 4.89233,3.58399 4.88878,3.5797 4.88527,3.57533 4.88178,3.57089 4.87831,3.56639 4.87487,3.56181 4.87147,3.55717 4.86809,3.55246 4.86475,3.54768 4.86144,3.54283 4.85817,3.53792 4.85493,3.53294 4.85173,3.52789 4.84857,3.52278 4.84544,3.5176 4.84237,3.51235 4.83933,3.50704 4.83633,3.50167 4.83339,3.49623 4.83049,3.49073 4.82763,3.48517 4.82483,3.47954 4.82207,3.47385 4.81937,3.46809 4.81672,3.46228 4.81413,3.4564 4.81159,3.45046 "/>
     <polygon id="_654544832" class="fil1" points="5.22839,3.54513 9.01466,7.33141 9.01997,7.3375 9.02499,7.3438 9.02972,7.3503 9.03417,7.35697 9.03833,7.36381 9.0422,7.37081 9.04579,7.37796 9.04909,7.38525 9.0521,7.39265 9.05482,7.40017 9.05726,7.40778 9.0594,7.41548 9.06126,7.42326 5.27499,3.63699 5.27313,3.62921 5.27099,3.62151 5.26856,3.6139 5.26583,3.60638 5.26282,3.59898 5.25952,3.59169 5.25594,3.58454 5.25206,3.57754 5.2479,3.5707 5.24346,3.56402 5.23872,3.55753 5.2337,3.55123 "/>
     <polygon id="_654544616" class="fil1" points="5.27499,3.63699 9.06126,7.42326 9.06267,7.43026 9.06384,7.43731 9.06479,7.44441 9.0655,7.45153 9.06598,7.45868 9.06622,7.46585 9.06624,7.47302 9.06602,7.48019 9.06557,7.48735 9.06488,7.49449 9.06396,7.5016 9.0628,7.50868 9.06141,7.5157 9.05978,7.52268 9.05792,7.52959 9.05582,7.53643 5.26955,3.75016 5.27165,3.74332 5.27351,3.73641 5.27514,3.72943 5.27653,3.72241 5.27769,3.71533 5.27861,3.70822 5.2793,3.70107 5.27975,3.69392 5.27997,3.68675 5.27996,3.67957 5.27971,3.67241 5.27923,3.66526 5.27852,3.65813 5.27757,3.65104 5.2764,3.64399 "/>
     <polygon id="_654544808" class="fil1" points="4.74918,3.27116 8.53544,7.05743 8.53742,7.06355 8.53938,7.06963 8.54133,7.07567 8.54327,7.08169 8.54521,7.08766 8.54713,7.0936 8.54905,7.0995 8.55096,7.10535 8.55287,7.11117 8.55476,7.11695 8.55665,7.12268 8.55853,7.12837 8.56041,7.13401 8.56228,7.1396 8.56415,7.14515 8.56601,7.15064 8.56786,7.15609 8.56972,7.16148 8.57156,7.16681 8.57341,7.17209 8.57525,7.17732 8.57709,7.18249 8.57892,7.1876 8.58076,7.19265 8.58259,7.19764 8.58441,7.20256 8.58624,7.20743 8.58807,7.21222 8.5899,7.21695 8.59172,7.22161 8.59355,7.22621 8.59537,7.23073 4.80911,3.44446 4.80728,3.43994 4.80545,3.43534 4.80363,3.43068 4.8018,3.42595 4.79998,3.42115 4.79815,3.41629 4.79632,3.41137 4.79449,3.40638 4.79265,3.40133 4.79082,3.39622 4.78898,3.39105 4.78714,3.38582 4.7853,3.38054 4.78345,3.3752 4.78159,3.36981 4.77974,3.36437 4.77788,3.35888 4.77601,3.35333 4.77414,3.34774 4.77226,3.3421 4.77038,3.33641 4.76849,3.33068 4.7666,3.3249 4.76469,3.31908 4.76278,3.31322 4.76087,3.30733 4.75894,3.30139 4.757,3.29541 4.75506,3.2894 4.75311,3.28335 4.75115,3.27728 "/>
     <polygon id="_654545240" class="fil1" points="4.46133,3.16415 8.24759,6.95042 8.24624,6.95439 8.24487,6.95837 8.24348,6.96237 8.24208,6.96639 8.24067,6.97043 8.23924,6.97448 8.2378,6.97856 8.23635,6.98264 8.23489,6.98674 8.23342,6.99085 8.23194,6.99498 8.23046,6.99912 8.22896,7.00328 8.22746,7.00744 8.22596,7.01162 8.22444,7.01581 4.43818,3.22954 4.43969,3.22535 4.44119,3.22117 4.44269,3.21701 4.44419,3.21285 4.44567,3.20871 4.44715,3.20458 4.44862,3.20047 4.45008,3.19637 4.45154,3.19228 4.45297,3.18821 4.4544,3.18416 4.45581,3.18012 4.45722,3.1761 4.4586,3.1721 4.45997,3.16811 "/>
     <polygon id="_654545216" class="fil1" points="4.43818,3.22954 8.22444,7.01581 8.22408,7.01683 8.22371,7.01785 8.22334,7.01887 8.22297,7.0199 8.2226,7.02092 8.22223,7.02194 8.22187,7.02297 8.2215,7.02399 4.43523,3.23772 4.4356,3.2367 4.43596,3.23567 4.43633,3.23465 4.4367,3.23363 4.43707,3.2326 4.43744,3.23158 4.43781,3.23056 "/>
     <polygon id="_654545072" class="fil1" points="4.40497,3.32437 8.19124,7.11064 8.18849,7.11907 8.18581,7.12745 8.1832,7.13578 8.18069,7.14405 8.17826,7.15224 8.17592,7.16035 8.1737,7.16837 8.17158,7.1763 8.16959,7.18412 8.16772,7.19183 8.16598,7.19942 8.16439,7.20688 8.16294,7.2142 8.16165,7.22139 8.16052,7.22841 8.15956,7.23528 4.37329,3.44901 4.37425,3.44214 4.37538,3.43511 4.37667,3.42793 4.37812,3.42061 4.37971,3.41315 4.38145,3.40556 4.38332,3.39785 4.38531,3.39003 4.38743,3.3821 4.38965,3.37408 4.39199,3.36596 4.39442,3.35778 4.39694,3.34951 4.39954,3.34118 4.40222,3.3328 "/>
     <polygon id="_654544640" class="fil1" points="5.26955,3.75016 9.05582,7.53643 9.05343,7.54335 9.05079,7.55018 9.0479,7.5569 9.04477,7.56352 9.04138,7.57002 9.03775,7.57639 9.03387,7.58263 9.02973,7.58873 9.02535,7.59467 9.02071,7.60044 9.01583,7.60605 9.01069,7.61148 9.0053,7.61672 8.99967,7.62176 8.99378,7.62659 8.98763,7.6312 5.20136,3.84493 5.20751,3.84031 5.2134,3.83548 5.21904,3.83044 5.22443,3.82521 5.22956,3.81978 5.23444,3.81417 5.23908,3.80839 5.24346,3.80246 5.2476,3.79636 5.25148,3.79012 5.25511,3.78375 5.2585,3.77725 5.26163,3.77063 5.26452,3.76391 5.26716,3.75708 "/>
     <polygon id="_654545264" class="fil1" points="5.20136,3.84493 8.98763,7.6312 8.98165,7.63532 8.97546,7.63923 8.96906,7.64291 8.96245,7.64636 8.95563,7.64957 8.9486,7.65254 8.94137,7.65526 8.93393,7.65772 8.92628,7.6599 8.91841,7.66181 8.91034,7.66344 8.90207,7.66477 8.89358,7.66581 8.88489,7.66654 8.87599,7.66695 8.86688,7.66704 5.08061,3.88077 5.08972,3.88068 5.09862,3.88026 5.10731,3.87954 5.1158,3.8785 5.12407,3.87717 5.13215,3.87554 5.14001,3.87363 5.14766,3.87144 5.1551,3.86899 5.16233,3.86627 5.16936,3.8633 5.17618,3.86009 5.18279,3.85664 5.18919,3.85296 5.19538,3.84905 "/>
     <polygon id="_654544592" class="fil1" points="4.43523,3.23772 8.2215,7.02399 8.21214,7.05007 4.42587,3.2638 "/>
     <polygon id="_654544856" class="fil1" points="4.42587,3.2638 8.21214,7.05007 8.21076,7.05395 8.20938,7.05783 8.20801,7.06172 8.20664,7.0656 8.20527,7.06949 8.20391,7.07337 8.20256,7.07726 8.20121,7.08115 4.41494,3.29487 4.41629,3.29099 4.41764,3.2871 4.419,3.28322 4.42037,3.27933 4.42174,3.27544 4.42311,3.27156 4.42449,3.26768 "/>
     <polygon id="_654545648" class="fil1" points="4.41494,3.29487 8.20121,7.08115 8.19994,7.08485 8.19867,7.08855 8.19741,7.09224 8.19615,7.09593 8.19491,7.09962 8.19368,7.1033 8.19245,7.10697 8.19124,7.11064 4.40497,3.32437 4.40619,3.3207 4.40741,3.31703 4.40864,3.31335 4.40989,3.30966 4.41114,3.30597 4.4124,3.30228 4.41367,3.29857 "/>
     <polygon id="_654545600" class="fil1" points="5.08061,3.88077 8.86688,7.66704 8.86054,7.66692 8.85416,7.66663 8.84775,7.6662 8.84131,7.66562 8.83485,7.66488 8.82836,7.664 8.82185,7.66297 8.81531,7.6618 8.80876,7.66048 8.80219,7.65902 8.7956,7.65743 8.789,7.65569 8.78239,7.65381 8.77577,7.6518 8.76915,7.64965 8.76251,7.64738 8.75588,7.64497 8.74924,7.64243 8.74261,7.63976 8.73598,7.63697 8.72936,7.63405 8.72274,7.63101 8.71613,7.62784 8.70954,7.62456 8.70296,7.62115 8.69639,7.61763 8.68985,7.61399 8.68332,7.61024 8.67681,7.60637 8.67033,7.60239 8.66388,7.5983 8.65746,7.59411 4.87119,3.80783 4.87761,3.81203 4.88407,3.81612 4.89055,3.8201 4.89706,3.82396 4.90358,3.82772 4.91013,3.83135 4.91669,3.83488 4.92327,3.83828 4.92987,3.84157 4.93647,3.84474 4.94309,3.84778 4.94971,3.8507 4.95634,3.85349 4.96298,3.85616 4.96961,3.8587 4.97624,3.86111 4.98288,3.86338 4.9895,3.86553 4.99612,3.86754 5.00273,3.86941 5.00933,3.87115 5.01592,3.87275 5.02249,3.87421 5.02904,3.87553 5.03558,3.8767 5.04209,3.87773 5.04858,3.87861 5.05505,3.87935 5.06148,3.87993 5.06789,3.88036 5.07427,3.88065 "/>
     <polygon id="_654545912" class="fil1" points="4.87119,3.80783 8.65746,7.59411 8.65114,7.58986 8.64485,7.5855 8.63859,7.58105 8.63237,7.57649 8.62618,7.57183 8.62002,7.56707 8.6139,7.56222 8.60781,7.55727 8.60178,7.55223 8.59578,7.54709 8.58983,7.54187 8.58393,7.53655 8.57808,7.53115 8.57228,7.52566 8.56653,7.52008 8.56085,7.51443 8.55522,7.50869 8.54965,7.50287 4.76338,3.71659 4.76895,3.72241 4.77458,3.72815 4.78026,3.73381 4.78601,3.73939 4.79181,3.74488 4.79766,3.75028 4.80356,3.75559 4.80951,3.76082 4.81551,3.76596 4.82155,3.771 4.82763,3.77595 4.83375,3.7808 4.83991,3.78556 4.8461,3.79022 4.85233,3.79478 4.85859,3.79923 4.86487,3.80359 "/>
     <polygon id="_654545480" class="fil1" points="4.37329,3.44901 8.15956,7.23528 8.15918,7.23833 8.15884,7.24134 8.15854,7.24432 8.15828,7.24726 8.15806,7.25016 8.15787,7.25303 8.15772,7.25585 8.15762,7.25864 8.15756,7.26139 8.15754,7.26409 8.15756,7.26676 8.15762,7.26938 8.15773,7.27196 8.15789,7.27449 8.15809,7.27698 8.15833,7.27942 4.37206,3.49315 4.37182,3.49071 4.37162,3.48822 4.37146,3.48569 4.37135,3.48311 4.37129,3.48049 4.37127,3.47782 4.37129,3.47512 4.37135,3.47237 4.37146,3.46958 4.3716,3.46676 4.37179,3.46389 4.37201,3.46099 4.37228,3.45805 4.37257,3.45507 4.37291,3.45206 "/>
     <polygon id="_654545552" class="fil1" points="4.37206,3.49315 8.15833,7.27942 8.15869,7.28237 8.15912,7.2854 8.15962,7.2885 8.16019,7.29165 8.16081,7.29488 8.1615,7.29817 8.16225,7.3015 8.16306,7.3049 4.3768,3.51863 4.37598,3.51523 4.37524,3.51189 4.37454,3.50861 4.37392,3.50538 4.37335,3.50222 4.37285,3.49913 4.37243,3.4961 "/>
     <polygon id="_654545576" class="fil1" points="4.3768,3.51863 8.16306,7.3049 8.16399,7.30861 8.16498,7.31237 8.16604,7.31619 8.16715,7.32005 8.16831,7.32395 8.16952,7.3279 8.17079,7.33189 8.1721,7.33591 8.17346,7.33995 8.17486,7.34403 8.1763,7.34813 8.17778,7.35224 8.17929,7.35637 8.18083,7.36051 8.1824,7.36466 8.184,7.36881 4.39774,3.58254 4.39613,3.57839 4.39456,3.57424 4.39302,3.5701 4.39151,3.56597 4.39003,3.56185 4.38859,3.55776 4.38719,3.55368 4.38583,3.54963 4.38452,3.54561 4.38326,3.54163 4.38204,3.53768 4.38088,3.53378 4.37977,3.52991 4.37872,3.5261 4.37772,3.52234 "/>
     <polygon id="_654545936" class="fil1" points="4.39774,3.58254 8.184,7.36881 8.18779,7.3784 8.19169,7.38794 8.19565,7.39739 8.19965,7.4067 8.20366,7.41583 8.20765,7.42473 8.21159,7.43336 8.21544,7.44167 8.21919,7.44961 8.22279,7.45714 8.22621,7.46421 8.22943,7.47078 8.23241,7.4768 8.23513,7.48223 8.23755,7.48702 8.23965,7.49112 4.45338,3.70485 4.45128,3.70075 4.44887,3.69596 4.44615,3.69053 4.44316,3.68451 4.43994,3.67794 4.43652,3.67087 4.43292,3.66333 4.42918,3.65539 4.42532,3.64709 4.42138,3.63846 4.41739,3.62956 4.41338,3.62043 4.40938,3.61111 4.40542,3.60167 4.40152,3.59213 "/>
     <polygon id="_654545672" class="fil1" points="4.47517,3.72356 8.26144,7.50983 8.26717,7.51647 8.27221,7.52328 8.27657,7.53023 8.28029,7.5373 8.28341,7.54446 8.28596,7.55169 8.28797,7.55897 8.28949,7.56626 8.29054,7.57355 8.29115,7.58081 8.29136,7.58801 8.29121,7.59514 8.29073,7.60217 8.28995,7.60907 8.28891,7.61581 8.28765,7.62239 8.28619,7.62876 8.28456,7.63492 8.28281,7.64082 8.28098,7.64645 8.27908,7.65179 8.27716,7.6568 8.27524,7.66147 8.27338,7.66578 8.27159,7.66968 8.26992,7.67317 8.26839,7.67622 8.26704,7.6788 8.26591,7.68089 4.47965,3.89462 4.48078,3.89253 4.48212,3.88995 4.48365,3.8869 4.48532,3.88341 4.48711,3.8795 4.48898,3.8752 4.49089,3.87053 4.49281,3.86552 4.49471,3.86018 4.49655,3.85455 4.4983,3.84865 4.49992,3.84249 4.50138,3.83612 4.50265,3.82954 4.50369,3.8228 4.50446,3.81589 4.50494,3.80887 4.50509,3.80174 4.50488,3.79454 4.50427,3.78728 4.50322,3.77999 4.5017,3.7727 4.49969,3.76542 4.49714,3.75819 4.49402,3.75103 4.4903,3.74396 4.48594,3.73701 4.48091,3.7302 "/>
     <polygon id="_654545960" class="fil1" points="4.24,3.89935 8.02626,7.68562 8.02279,7.68247 8.0191,7.67911 8.01521,7.67555 8.01113,7.67178 8.00687,7.66784 8.00244,7.66372 7.99785,7.65945 7.99312,7.65503 4.20685,3.86876 4.21158,3.87318 4.21617,3.87745 4.2206,3.88157 4.22486,3.88551 4.22894,3.88928 4.23283,3.89284 4.23652,3.8962 "/>
     <polygon id="_654546032" class="fil1" points="4.02246,3.6956 7.80873,7.48187 7.80569,7.47963 7.80253,7.47727 7.79926,7.47479 7.79586,7.47219 7.79235,7.46948 7.78874,7.46666 7.78503,7.46373 7.78122,7.46071 7.77731,7.45759 7.77332,7.45439 7.76924,7.4511 7.76508,7.44772 7.76085,7.44428 7.75655,7.44075 7.75218,7.43716 7.74774,7.4335 7.74318,7.42973 7.73856,7.42589 7.73389,7.42201 7.72918,7.41807 7.72442,7.4141 7.71963,7.41008 7.7148,7.40604 7.70995,7.40196 7.70507,7.39785 7.70019,7.39372 7.69528,7.38959 7.69037,7.38543 7.68544,7.38128 7.68053,7.37712 7.67562,7.37296 7.67072,7.36881 3.88445,3.58254 3.88935,3.58669 3.89426,3.59085 3.89918,3.595 3.9041,3.59916 3.90901,3.60331 3.91392,3.60745 3.91881,3.61158 3.92369,3.61569 3.92854,3.61976 3.93336,3.62381 3.93815,3.62783 3.94291,3.6318 3.94763,3.63574 3.9523,3.63962 3.95691,3.64346 3.96148,3.64723 3.96591,3.65089 3.97028,3.65448 3.97458,3.658 3.97881,3.66145 3.98297,3.66483 3.98705,3.66812 3.99104,3.67132 3.99495,3.67444 3.99876,3.67746 4.00248,3.68039 4.00609,3.6832 4.00959,3.68592 4.01299,3.68852 4.01626,3.691 4.01943,3.69336 "/>
     <polygon id="_654545384" class="fil1" points="3.35093,3.57478 7.1372,7.36105 7.13182,7.36127 7.12652,7.36147 7.12128,7.36166 7.11612,7.36184 7.11104,7.36201 7.10604,7.36217 7.10112,7.36231 7.09629,7.36245 7.09154,7.36258 7.08689,7.3627 7.08232,7.36281 7.07785,7.36291 7.07348,7.36301 7.06922,7.36309 7.06505,7.36317 7.06099,7.36324 3.27472,3.57697 3.27878,3.5769 3.28295,3.57682 3.28722,3.57674 3.29159,3.57664 3.29606,3.57654 3.30062,3.57643 3.30527,3.57631 3.31002,3.57618 3.31485,3.57604 3.31977,3.57589 3.32477,3.57574 3.32985,3.57557 3.33501,3.57539 3.34025,3.5752 3.34556,3.575 "/>
     <polygon id="_654546440" class="fil1" points="4.20685,3.86876 7.99312,7.65503 7.99289,7.6554 7.99265,7.65577 7.99241,7.65614 7.99218,7.65651 7.99194,7.65688 7.9917,7.65725 7.99146,7.65762 7.99122,7.658 4.20496,3.87172 4.2052,3.87135 4.20544,3.87098 4.20567,3.87061 4.20591,3.87024 4.20615,3.86987 4.20638,3.8695 4.20662,3.86913 "/>
     <polygon id="_654546800" class="fil1" points="3.88445,3.58254 7.67072,7.36881 7.67018,7.36836 7.66965,7.36791 7.66911,7.36746 7.66858,7.367 7.66805,7.36655 7.66752,7.3661 7.66698,7.36565 7.66645,7.3652 3.88019,3.57893 3.88072,3.57938 3.88125,3.57983 3.88178,3.58028 3.88231,3.58073 3.88285,3.58119 3.88338,3.58164 3.88391,3.58209 "/>
     <polygon id="_654546344" class="fil1" points="3.57472,3.55587 7.36099,7.34214 7.35788,7.34258 7.35476,7.34301 7.35164,7.34344 7.34851,7.34386 7.34538,7.34427 7.34225,7.34468 7.33911,7.34508 7.33596,7.34548 7.33282,7.34587 7.32967,7.34626 7.32652,7.34664 7.32336,7.34701 7.32021,7.34738 7.31705,7.34774 7.31389,7.3481 7.31073,7.34845 3.52446,3.56218 3.52763,3.56183 3.53078,3.56147 3.53394,3.56111 3.53709,3.56074 3.54025,3.56037 3.5434,3.55998 3.54655,3.5596 3.5497,3.55921 3.55284,3.55881 3.55598,3.55841 3.55911,3.558 3.56224,3.55759 3.56537,3.55717 3.5685,3.55674 3.57161,3.55631 "/>
     <polygon id="_654546728" class="fil1" points="3.52446,3.56218 7.31073,7.34845 7.30546,7.34903 7.30018,7.34959 7.29491,7.35014 7.28963,7.35067 7.28436,7.35119 7.2791,7.3517 7.27384,7.35219 7.26859,7.35266 3.48232,3.56639 3.48757,3.56591 3.49283,3.56543 3.49809,3.56492 3.50337,3.5644 3.50864,3.56387 3.51391,3.56332 3.51919,3.56276 "/>
     <polygon id="_654546488" class="fil1" points="3.88019,3.57893 7.66645,7.3652 7.66241,7.36177 7.65839,7.35836 7.65439,7.35497 7.65044,7.3516 7.64651,7.34826 7.64263,7.34495 7.63879,7.34167 7.63499,7.33843 3.84872,3.55216 3.85252,3.5554 3.85636,3.55868 3.86024,3.56199 3.86417,3.56533 3.86813,3.5687 3.87212,3.57209 3.87614,3.5755 "/>
     <polygon id="_654546392" class="fil1" points="3.84872,3.55216 7.63499,7.33843 7.62976,7.33396 7.62464,7.32957 7.61964,7.32528 7.61476,7.32109 7.61001,7.31702 7.60541,7.31306 7.60097,7.30924 7.59669,7.30556 7.59258,7.30202 7.58865,7.29864 7.58492,7.29543 7.58139,7.29239 7.57807,7.28954 7.57498,7.28688 7.57211,7.28443 7.56948,7.28218 3.78322,3.49591 3.78584,3.49815 3.78871,3.50061 3.79181,3.50327 3.79512,3.50612 3.79865,3.50916 3.80239,3.51237 3.80631,3.51575 3.81042,3.51928 3.8147,3.52297 3.81915,3.52679 3.82374,3.53074 3.82849,3.53482 3.83337,3.539 3.83837,3.5433 3.8435,3.54769 "/>
     <polygon id="_654546680" class="fil1" points="3.78322,3.49591 7.56948,7.28218 7.56667,7.28398 7.56376,7.28576 7.56076,7.28752 7.55769,7.28924 7.55452,7.29095 7.55128,7.29262 7.54796,7.29427 7.54456,7.29589 7.54107,7.29749 7.53752,7.29907 7.53389,7.30061 7.53019,7.30214 7.52641,7.30363 7.52257,7.30511 7.51865,7.30656 7.51468,7.30798 7.51063,7.30939 7.50652,7.31076 7.50235,7.31212 7.49812,7.31345 7.49383,7.31476 7.48949,7.31604 7.48508,7.3173 7.48063,7.31854 7.47612,7.31976 7.47156,7.32096 7.46694,7.32213 7.46228,7.32328 7.45757,7.32441 7.45282,7.32552 7.44803,7.32661 7.44319,7.32768 3.65692,3.54141 3.66176,3.54034 3.66656,3.53925 3.67131,3.53814 3.67602,3.53701 3.68068,3.53586 3.68529,3.53469 3.68985,3.53349 3.69436,3.53227 3.69881,3.53103 3.70322,3.52977 3.70757,3.52848 3.71185,3.52718 3.71609,3.52585 3.72026,3.52449 3.72436,3.52311 3.72841,3.52171 3.73239,3.52029 3.7363,3.51884 3.74014,3.51736 3.74392,3.51587 3.74762,3.51434 3.75125,3.5128 3.75481,3.51122 3.75829,3.50962 3.76169,3.508 3.76501,3.50635 3.76826,3.50468 3.77142,3.50297 3.7745,3.50125 3.77749,3.49949 3.7804,3.49771 "/>
     <polygon id="_654546584" class="fil1" points="3.65692,3.54141 7.44319,7.32768 7.44044,7.32827 7.43767,7.32886 7.4349,7.32944 7.43211,7.33002 7.42931,7.33059 7.4265,7.33115 7.42367,7.33171 7.42084,7.33226 7.41799,7.3328 7.41514,7.33334 7.41227,7.33387 7.40939,7.33439 7.40651,7.33491 7.40361,7.33542 7.40071,7.33593 7.3978,7.33643 3.61153,3.55015 3.61444,3.54965 3.61735,3.54915 3.62024,3.54864 3.62313,3.54812 3.626,3.54759 3.62887,3.54707 3.63172,3.54653 3.63457,3.54599 3.63741,3.54544 3.64023,3.54488 3.64304,3.54432 3.64584,3.54375 3.64863,3.54317 3.65141,3.54259 3.65417,3.542 "/>
     <polygon id="_654546176" class="fil1" points="3.61153,3.55015 7.3978,7.33643 7.39326,7.33719 7.3887,7.33794 7.38412,7.33868 7.37953,7.3394 7.37492,7.34011 7.37029,7.3408 7.36565,7.34148 7.36099,7.34214 3.57472,3.55587 3.57938,3.5552 3.58402,3.55453 3.58865,3.55383 3.59326,3.55313 3.59785,3.55241 3.60243,3.55167 3.60699,3.55092 "/>
     <polygon id="_654546224" class="fil1" points="4.20496,3.87172 7.99122,7.658 7.98792,7.66311 7.9845,7.66832 7.98094,7.67363 7.97728,7.67902 7.9735,7.6845 7.96961,7.69005 7.96561,7.69566 7.96151,7.70132 7.95731,7.70704 7.95301,7.7128 7.94862,7.71859 7.94415,7.72441 7.93958,7.73025 7.93494,7.7361 7.93022,7.74195 7.92542,7.7478 7.92056,7.75363 7.91562,7.75945 7.91063,7.76524 7.90557,7.771 7.90046,7.77672 7.8953,7.78238 7.89009,7.78799 7.88483,7.79354 7.87953,7.79901 7.8742,7.8044 7.86883,7.80971 7.86343,7.81492 7.858,7.82003 7.85256,7.82502 7.84709,7.82991 7.8416,7.83466 4.05533,4.04839 4.06082,4.04363 4.06629,4.03875 4.07174,4.03376 4.07716,4.02865 4.08256,4.02344 4.08793,4.01813 4.09326,4.01274 4.09856,4.00726 4.10382,4.00172 4.10903,3.99611 4.11419,3.99044 4.11931,3.98473 4.12436,3.97897 4.12935,3.97318 4.13429,3.96736 4.13915,3.96153 4.14395,3.95568 4.14867,3.94983 4.15331,3.94398 4.15788,3.93814 4.16235,3.93232 4.16674,3.92653 4.17104,3.92077 4.17524,3.91505 4.17934,3.90939 4.18334,3.90378 4.18723,3.89823 4.19101,3.89275 4.19468,3.88736 4.19823,3.88205 4.20165,3.87683 "/>
     <polygon id="_654546824" class="fil1" points="3.48232,3.56639 7.26859,7.35266 7.26485,7.353 7.26111,7.35332 7.25739,7.35364 7.25366,7.35396 7.24994,7.35426 7.24624,7.35456 7.24254,7.35486 7.23884,7.35515 7.23516,7.35543 7.23148,7.3557 7.22782,7.35597 7.22417,7.35623 7.22052,7.35649 7.21689,7.35674 7.21327,7.35698 7.20966,7.35722 3.42339,3.57095 3.427,3.57071 3.43062,3.57046 3.43425,3.57022 3.4379,3.56996 3.44155,3.5697 3.44522,3.56943 3.44889,3.56915 3.45257,3.56887 3.45627,3.56859 3.45997,3.56829 3.46368,3.56799 3.46739,3.56769 3.47112,3.56737 3.47485,3.56705 3.47858,3.56672 "/>
     <polygon id="_654547208" class="fil1" points="4.47965,3.89462 8.26591,7.68089 8.16773,7.91605 4.38146,4.12978 "/>
     <polygon id="_654547256" class="fil1" points="3.42339,3.57095 7.20966,7.35722 7.20491,7.35753 7.20019,7.35783 7.19548,7.35811 7.19081,7.35839 7.18617,7.35866 7.18154,7.35892 7.17696,7.35917 7.1724,7.35942 7.16787,7.35965 7.16338,7.35987 7.15893,7.36009 7.1545,7.3603 7.15012,7.3605 7.14577,7.36069 7.14147,7.36087 7.1372,7.36105 3.35093,3.57478 3.3552,3.5746 3.3595,3.57442 3.36385,3.57423 3.36824,3.57403 3.37266,3.57382 3.37711,3.5736 3.38161,3.57338 3.38613,3.57315 3.39069,3.5729 3.39528,3.57265 3.3999,3.57239 3.40454,3.57212 3.40922,3.57184 3.41392,3.57156 3.41865,3.57126 "/>
     <polygon id="_654547520" class="fil1" points="3.87688,4.10387 7.66315,7.89014 7.65963,7.88856 7.65621,7.88694 7.65289,7.8853 7.64969,7.88363 7.64658,7.88193 7.64357,7.8802 7.64067,7.87844 7.63787,7.87666 7.63517,7.87485 7.63256,7.87301 7.63005,7.87115 7.62763,7.86926 7.62531,7.86735 7.62309,7.86542 7.62095,7.86346 7.61891,7.86148 3.83264,4.07521 3.83469,4.07719 3.83682,4.07915 3.83905,4.08108 3.84137,4.08299 3.84378,4.08488 3.84629,4.08674 3.8489,4.08857 3.8516,4.09039 3.85441,4.09217 3.85731,4.09393 3.86031,4.09565 3.86342,4.09735 3.86663,4.09903 3.86994,4.10067 3.87336,4.10228 "/>
     <polygon id="_654547472" class="fil1" points="4.05533,4.04839 7.8416,7.83466 7.83604,7.83934 7.83045,7.84389 7.82484,7.8483 7.81921,7.85257 7.81356,7.8567 7.8079,7.86067 7.80222,7.86448 7.79654,7.86813 7.79084,7.8716 7.78514,7.8749 7.77944,7.87801 7.77374,7.88093 7.76803,7.88366 7.76233,7.88619 7.75664,7.8885 7.75095,7.89061 7.74528,7.89249 7.73962,7.89415 7.73398,7.89557 7.72835,7.89676 7.72274,7.8977 7.71716,7.89839 7.7116,7.89882 7.70607,7.899 7.70057,7.8989 7.69511,7.89853 7.68968,7.89787 7.68428,7.89694 7.67893,7.8957 7.67361,7.89417 7.66835,7.89234 7.66313,7.89019 3.87686,4.10392 3.88208,4.10607 3.88735,4.1079 3.89266,4.10943 3.89802,4.11067 3.90341,4.1116 3.90884,4.11226 3.91431,4.11263 3.91981,4.11272 3.92533,4.11255 3.93089,4.11211 3.93648,4.11143 3.94208,4.11048 3.94771,4.1093 3.95335,4.10787 3.95901,4.10622 3.96469,4.10433 3.97037,4.10223 3.97606,4.09991 3.98176,4.09739 3.98747,4.09466 3.99317,4.09174 3.99887,4.08863 4.00457,4.08533 4.01027,4.08185 4.01596,4.07821 4.02163,4.0744 4.0273,4.07043 4.03294,4.0663 4.03857,4.06203 4.04419,4.05762 4.04977,4.05307 "/>
     <polygon id="_654546872" class="fil1" points="4.38146,4.12978 8.16773,7.91605 8.16371,7.92602 8.15895,7.93528 8.15348,7.94386 8.14737,7.95179 8.14067,7.95908 8.13343,7.96577 8.12569,7.97188 8.11752,7.97743 8.10895,7.98245 8.10006,7.98696 8.09088,7.991 8.08147,7.99457 8.07188,7.99772 8.06217,8.00046 8.05237,8.00282 8.04256,8.00482 8.03278,8.00649 8.02307,8.00785 8.0135,8.00893 8.00411,8.00975 7.99496,8.01034 7.9861,8.01072 7.97757,8.01092 7.96944,8.01096 7.96176,8.01087 7.95457,8.01067 7.94793,8.01039 7.94188,8.01005 7.93649,8.00967 7.9318,8.00929 7.92787,8.00892 7.92475,8.0086 4.13848,4.22233 4.14161,4.22265 4.14554,4.22302 4.15022,4.2234 4.15561,4.22378 4.16166,4.22411 4.1683,4.2244 4.17549,4.2246 4.18318,4.22469 4.19131,4.22465 4.19983,4.22445 4.20869,4.22407 4.21784,4.22348 4.22723,4.22265 4.2368,4.22157 4.24651,4.22022 4.25629,4.21855 4.26611,4.21655 4.2759,4.21419 4.28561,4.21145 4.2952,4.2083 4.30461,4.20473 4.31379,4.20069 4.32269,4.19618 4.33125,4.19116 4.33942,4.18561 4.34716,4.1795 4.35441,4.17281 4.36111,4.16552 4.36722,4.15759 4.37268,4.14901 4.37744,4.13975 "/>
     <polygon id="_654547544" class="fil1" points="4.13848,4.22233 7.92475,8.0086 7.90395,8.00862 7.88561,8.00658 7.86959,8.00274 7.85572,7.99735 7.84384,7.99067 7.83381,7.98295 4.04755,4.19668 4.05757,4.20439 4.06945,4.21107 4.08332,4.21647 4.09935,4.22031 4.11768,4.22235 "/>
     <polygon id="_654547040" class="fil1" points="3.27472,3.57697 7.06099,7.36324 7.06025,7.36326 7.05952,7.36327 7.05879,7.36328 7.05807,7.36329 7.05735,7.3633 7.05663,7.36331 7.05591,7.36332 7.0552,7.36333 3.26894,3.57706 3.26965,3.57705 3.27036,3.57704 3.27108,3.57703 3.2718,3.57702 3.27252,3.57701 3.27325,3.577 3.27398,3.57698 "/>
     <polygon id="_654547064" class="fil1" points="3.26894,3.57706 7.0552,7.36333 7.05546,7.36434 3.26919,3.57807 "/>
     <polygon id="_654547304" class="fil1" points="3.26919,3.57807 7.05546,7.36434 7.05696,7.37026 3.27069,3.58399 "/>
     <polygon id="_654547400" class="fil1" points="3.27069,3.58399 7.05696,7.37026 7.05877,7.37784 7.06053,7.38558 7.06224,7.39344 7.06389,7.40137 7.06547,7.40933 7.067,7.41727 7.06846,7.42514 7.06985,7.43289 7.07118,7.44048 7.07243,7.44787 7.0736,7.455 7.07469,7.46183 7.0757,7.46831 7.07663,7.4744 7.07746,7.48005 7.07821,7.48521 3.29194,3.69894 3.2912,3.69378 3.29036,3.68813 3.28943,3.68204 3.28842,3.67556 3.28733,3.66873 3.28616,3.6616 3.28491,3.65421 3.28359,3.64662 3.28219,3.63887 3.28073,3.631 3.2792,3.62306 3.27762,3.6151 3.27597,3.60717 3.27426,3.59931 3.2725,3.59157 "/>
     <polygon id="_654547976" class="fil1" points="3.29194,3.69894 7.07821,7.48521 7.07863,7.48828 7.07905,7.4916 7.07947,7.49517 7.0799,7.49897 7.08033,7.50299 7.08078,7.50722 7.08124,7.51165 7.08172,7.51625 3.29545,3.72998 3.29497,3.72537 3.29452,3.72095 3.29407,3.71672 3.29363,3.7127 3.2932,3.7089 3.29278,3.70533 3.29236,3.702 "/>
     <polygon id="_654548192" class="fil1" points="3.29545,3.72998 7.08172,7.51625 7.08219,7.52086 7.08269,7.52565 7.08321,7.5306 7.08376,7.53572 7.08435,7.54099 7.08498,7.54642 7.08564,7.552 7.08635,7.55772 7.08711,7.56358 7.08792,7.56957 7.08879,7.5757 7.08972,7.58195 7.09072,7.58832 7.09178,7.59481 7.09291,7.60141 7.09412,7.60811 7.09541,7.61492 7.09679,7.62182 7.09825,7.62881 7.0998,7.63589 7.10145,7.64306 7.10319,7.6503 7.10504,7.65761 7.107,7.66499 7.10907,7.67243 7.11124,7.67993 7.11354,7.68749 7.11596,7.69509 7.11851,7.70274 7.12119,7.71043 7.124,7.71815 7.12694,7.7259 3.34068,3.93963 3.33773,3.93187 3.33492,3.92415 3.33224,3.91647 3.3297,3.90882 3.32728,3.90122 3.32498,3.89366 3.3228,3.88616 3.32073,3.87872 3.31878,3.87134 3.31693,3.86402 3.31518,3.85678 3.31353,3.84962 3.31198,3.84254 3.31052,3.83555 3.30915,3.82865 3.30785,3.82184 3.30665,3.81514 3.30551,3.80854 3.30445,3.80205 3.30345,3.79568 3.30252,3.78943 3.30165,3.7833 3.30084,3.77731 3.30008,3.77144 3.29937,3.76572 3.29871,3.76015 3.29808,3.75472 3.2975,3.74944 3.29694,3.74433 3.29642,3.73937 3.29593,3.73459 "/>
     <polygon id="_654548216" class="fil1" points="2.94034,3.60752 6.72661,7.39379 6.72313,7.39062 6.71959,7.38785 6.71597,7.38553 2.9297,3.59926 2.93332,3.60158 2.93687,3.60435 "/>
     <polygon id="_654547880" class="fil1" points="2.23781,3.25741 6.02407,7.04368 6.02225,7.04269 6.02018,7.04168 6.01788,7.04067 6.01535,7.03966 6.01259,7.03863 6.00962,7.03759 6.00644,7.03654 6.00304,7.03547 5.99944,7.03439 5.99565,7.03328 5.99165,7.03216 5.98748,7.03102 5.98312,7.02986 5.97858,7.02867 5.97387,7.02746 5.969,7.02622 2.18273,3.23994 2.1876,3.24119 2.19231,3.2424 2.19685,3.24359 2.20121,3.24475 2.20539,3.24589 2.20938,3.24701 2.21317,3.24811 2.21677,3.2492 2.22017,3.25026 2.22335,3.25131 2.22633,3.25235 2.22908,3.25339 2.23161,3.2544 2.23391,3.25541 2.23598,3.25641 "/>
     <polygon id="_654548264" class="fil1" points="2.76275,3.5483 6.54902,7.33457 6.54604,7.33434 6.54313,7.33412 6.54029,7.33391 6.53752,7.3337 6.53483,7.33349 6.53221,7.3333 6.52967,7.3331 6.5272,7.33291 2.74093,3.54664 2.7434,3.54683 2.74594,3.54702 2.74856,3.54722 2.75126,3.54743 2.75402,3.54763 2.75686,3.54785 2.75977,3.54807 "/>
     <polygon id="_654547928" class="fil1" points="2.9297,3.59926 6.71597,7.38553 6.71092,7.38258 6.70609,7.37964 6.70146,7.3767 6.69705,7.37379 6.69283,7.3709 6.68883,7.36804 6.68502,7.36521 6.68141,7.36243 6.67799,7.35971 6.67476,7.35705 6.67172,7.35445 6.66887,7.35193 6.66621,7.3495 6.66372,7.34715 2.87746,3.56087 2.87994,3.56322 2.88261,3.56566 2.88546,3.56818 2.88849,3.57078 2.89172,3.57344 2.89514,3.57616 2.89875,3.57894 2.90256,3.58176 2.90657,3.58463 2.91078,3.58752 2.91519,3.59043 2.91982,3.59337 2.92465,3.59631 "/>
     <polygon id="_654547592" class="fil1" points="2.87302,3.55648 6.65929,7.34275 6.65507,7.34244 6.65089,7.34214 6.64672,7.34183 6.64259,7.34153 6.63849,7.34123 6.63443,7.34093 6.63039,7.34064 6.62639,7.34034 2.84012,3.55407 2.84412,3.55437 2.84816,3.55466 2.85222,3.55496 2.85633,3.55526 2.86046,3.55556 2.86462,3.55587 2.86881,3.55617 "/>
     <polygon id="_654548072" class="fil1" points="2.84012,3.55407 6.62639,7.34034 6.60574,7.33881 2.81948,3.55254 "/>
     <polygon id="_654547640" class="fil1" points="1.90366,2.64137 5.68993,6.42764 5.6913,6.4296 5.69098,6.43087 1.90471,2.64459 1.90503,2.64333 "/>
     <polygon id="_654547688" class="fil1" points="2.81948,3.55254 6.60574,7.33881 6.60179,7.33852 6.59788,7.33823 6.59402,7.33794 6.59021,7.33766 6.58646,7.33738 6.58276,7.3371 6.57911,7.33683 6.57552,7.33656 6.57199,7.3363 6.56852,7.33604 6.56511,7.33578 6.56176,7.33553 6.55848,7.33528 6.55526,7.33504 6.5521,7.3348 6.54902,7.33457 2.76275,3.5483 2.76583,3.54853 2.76899,3.54877 2.77221,3.54901 2.77549,3.54926 2.77884,3.54951 2.78225,3.54976 2.78572,3.55002 2.78925,3.55029 2.79284,3.55056 2.79649,3.55083 2.80019,3.55111 2.80394,3.55139 2.80775,3.55167 2.81161,3.55196 2.81552,3.55225 "/>
     <polygon id="_654547808" class="fil1" points="2.74093,3.54664 6.5272,7.33291 6.52572,7.33706 6.52413,7.3413 6.52244,7.34565 6.52063,7.3501 6.51871,7.35464 6.51669,7.35928 6.51457,7.364 6.51235,7.36881 2.72609,3.58254 2.72831,3.57773 2.73043,3.573 2.73244,3.56837 2.73436,3.56383 2.73617,3.55938 2.73787,3.55503 2.73946,3.55079 "/>
     <polygon id="_654548768" class="fil1" points="2.18273,3.23994 5.969,7.02622 5.94736,7.02081 2.16109,3.23454 "/>
     <polygon id="_654548864" class="fil1" points="2.16109,3.23454 5.94736,7.02081 5.93504,7.01774 2.14877,3.23147 "/>
     <polygon id="_654548528" class="fil1" points="2.2593,4.2393 6.04557,8.02557 6.04496,8.0264 6.04433,8.02722 6.04367,8.02802 6.04299,8.02881 6.04228,8.02958 6.04156,8.03033 6.0408,8.03107 6.04002,8.0318 2.25375,4.24552 2.25453,4.2448 2.25529,4.24406 2.25602,4.24331 2.25672,4.24254 2.25741,4.24175 2.25806,4.24094 2.25869,4.24013 "/>
     <polygon id="_654548696" class="fil1" points="2.25375,4.24552 6.04002,8.0318 6.03299,8.03742 6.02508,8.04249 6.01635,8.04704 6.00686,8.05109 5.99669,8.05465 5.98591,8.05776 5.97458,8.06044 5.96277,8.06272 5.95056,8.0646 5.93799,8.06613 5.92516,8.06731 5.91212,8.06819 5.89894,8.06878 5.8857,8.0691 5.87246,8.06917 5.85928,8.06903 5.84624,8.06869 5.83341,8.06819 5.82085,8.06753 5.80864,8.06675 5.79683,8.06586 5.7855,8.06491 5.77472,8.06389 5.76456,8.06285 5.75507,8.0618 5.74634,8.06077 5.73843,8.05978 5.73141,8.05885 5.72535,8.05802 5.72031,8.05729 5.71637,8.0567 5.71359,8.05627 1.92732,4.27 1.9301,4.27043 1.93404,4.27102 1.93908,4.27174 1.94515,4.27258 1.95217,4.27351 1.96007,4.2745 1.9688,4.27553 1.97829,4.27658 1.98845,4.27762 1.99923,4.27863 2.01056,4.27959 2.02237,4.28048 2.03459,4.28126 2.04715,4.28191 2.05998,4.28242 2.07302,4.28276 2.08619,4.2829 2.09943,4.28283 2.11268,4.28251 2.12585,4.28192 2.13889,4.28104 2.15172,4.27985 2.16429,4.27833 2.1765,4.27644 2.18831,4.27417 2.19964,4.27149 2.21043,4.26838 2.22059,4.26481 2.23008,4.26077 2.23881,4.25622 2.24672,4.25115 "/>
     <polygon id="_654548456" class="fil1" points="1.92732,4.27 5.71359,8.05627 5.71146,8.05598 5.70935,8.05557 5.70724,8.05504 5.70517,8.05438 5.70311,8.0536 5.70109,8.05269 5.6991,8.05165 5.69715,8.05048 1.91089,4.2642 1.91283,4.26537 1.91482,4.26641 1.91684,4.26733 1.9189,4.26811 1.92098,4.26877 1.92308,4.2693 1.92519,4.26971 "/>
     <polygon id="_654548840" class="fil1" points="1.91089,4.2642 5.69715,8.05048 5.68906,8.0449 5.68192,8.03925 1.89565,4.25298 1.9028,4.25863 "/>
     <polygon id="_654548912" class="fil1" points="2.14877,3.23147 5.93504,7.01774 5.93343,7.01738 2.14716,3.23111 "/>
     <polygon id="_654548552" class="fil1" points="2.14716,3.23111 5.93343,7.01738 5.93331,7.01735 2.14704,3.23108 "/>
     <polygon id="_654548672" class="fil1" points="2.14704,3.23108 5.93331,7.01735 5.93298,7.01727 5.93267,7.01719 5.93234,7.01711 5.93202,7.01703 5.9317,7.01695 5.93138,7.01687 5.93106,7.01679 5.93074,7.01671 2.14448,3.23044 2.1448,3.23052 2.14511,3.2306 2.14543,3.23068 2.14576,3.23076 2.14607,3.23084 2.1464,3.23092 2.14672,3.231 "/>
     <polygon id="_654548576" class="fil1" points="2.14448,3.23044 5.93074,7.01671 5.92793,7.01601 5.92514,7.01531 5.92239,7.01462 5.91967,7.01394 5.91698,7.01326 5.91433,7.01259 5.9117,7.01193 5.90911,7.01128 2.12284,3.22501 2.12544,3.22566 2.12806,3.22632 2.13072,3.22699 2.1334,3.22767 2.13612,3.22835 2.13887,3.22904 2.14166,3.22974 "/>
     <polygon id="_654549272" class="fil1" points="2.12284,3.22501 5.90911,7.01128 5.90604,7.0105 5.90301,7.00974 5.90002,7.00897 5.89707,7.00822 5.89415,7.00747 5.89126,7.00672 5.88841,7.00598 5.88559,7.00524 5.8828,7.00451 5.88004,7.00378 5.87731,7.00305 5.8746,7.00232 5.87191,7.00159 5.86925,7.00087 5.86661,7.00014 5.86399,6.99941 2.07772,3.21314 2.08034,3.21387 2.08298,3.2146 2.08565,3.21532 2.08833,3.21605 2.09104,3.21678 2.09378,3.21751 2.09654,3.21824 2.09933,3.21897 2.10215,3.21971 2.105,3.22045 2.10788,3.2212 2.1108,3.22194 2.11375,3.2227 2.11674,3.22346 2.11977,3.22423 "/>
     <polygon id="_654549728" class="fil1" points="2.07772,3.21314 5.86399,6.99941 5.86081,6.99852 5.85766,6.99762 5.85454,6.99672 5.85143,6.99581 5.84833,6.9949 5.84526,6.99397 5.8422,6.99304 5.83915,6.99209 5.83611,6.99114 5.83307,6.99017 5.83004,6.98919 5.827,6.98819 5.82396,6.98717 5.82093,6.98613 5.81788,6.98508 5.81482,6.98401 2.02855,3.19774 2.03161,3.19881 2.03466,3.19986 2.0377,3.2009 2.04073,3.20191 2.04377,3.20291 2.0468,3.2039 2.04984,3.20487 2.05288,3.20582 2.05593,3.20677 2.05899,3.2077 2.06207,3.20863 2.06516,3.20954 2.06827,3.21045 2.07139,3.21135 2.07455,3.21225 "/>
     <polygon id="_654549248" class="fil1" points="2.02855,3.19774 5.81482,6.98401 5.8115,6.98283 5.80815,6.98162 5.8048,6.98039 5.80141,6.97912 5.798,6.97783 5.79456,6.9765 5.79109,6.97514 5.78757,6.97374 2.00131,3.18747 2.00482,3.18887 2.00829,3.19023 2.01173,3.19156 2.01514,3.19285 2.01853,3.19411 2.02189,3.19535 2.02523,3.19656 "/>
     <polygon id="_654549368" class="fil1" points="2.00131,3.18747 5.78757,6.97374 5.78409,6.97238 5.78063,6.97109 5.77722,6.96987 5.77384,6.96873 5.7705,6.96767 5.76719,6.96667 5.76391,6.96576 5.76067,6.96492 5.75746,6.96416 5.75428,6.96348 5.75113,6.96288 5.74801,6.96235 5.74492,6.96191 5.74185,6.96154 5.73882,6.96125 5.73581,6.96105 1.94954,3.17478 1.95255,3.17498 1.95559,3.17527 1.95865,3.17563 1.96174,3.17608 1.96486,3.17661 1.96801,3.17721 1.97119,3.17789 1.9744,3.17865 1.97765,3.17949 1.98092,3.1804 1.98423,3.18139 1.98757,3.18246 1.99095,3.1836 1.99437,3.18481 1.99782,3.18611 "/>
     <polygon id="_654549344" class="fil1" points="1.94954,3.17478 5.73581,6.96105 5.733,6.96093 5.73021,6.96088 5.72744,6.9609 5.72467,6.961 5.72192,6.96117 5.71917,6.96141 5.71644,6.96172 5.71372,6.96211 5.711,6.96257 5.7083,6.96311 5.70559,6.96372 5.7029,6.9644 5.70021,6.96517 5.69753,6.966 5.69485,6.96691 5.69217,6.96791 1.9059,3.18163 1.90858,3.18064 1.91126,3.17973 1.91394,3.17889 1.91663,3.17813 1.91933,3.17744 1.92203,3.17683 1.92473,3.1763 1.92745,3.17583 1.93017,3.17545 1.93291,3.17513 1.93565,3.17489 1.9384,3.17473 1.94117,3.17463 1.94394,3.17461 1.94674,3.17466 "/>
     <polygon id="_654549128" class="fil1" points="1.9059,3.18163 5.69217,6.96791 5.68831,6.96953 5.6841,6.97155 5.6796,6.97393 5.67483,6.97662 5.66984,6.9796 5.66466,6.98284 5.65933,6.98629 5.65389,6.98991 1.86763,3.20364 1.87307,3.20002 1.87839,3.19657 1.88357,3.19333 1.88856,3.19035 1.89333,3.18765 1.89783,3.18528 1.90204,3.18326 "/>
     <polygon id="_654549296" class="fil1" points="1.86763,3.20364 5.65389,6.98991 5.64813,6.99386 5.64232,6.99793 5.63652,7.00207 5.63076,7.00625 5.62511,7.01043 5.61958,7.01456 5.61424,7.0186 5.60912,7.02252 5.60427,7.02627 5.59972,7.02981 5.59554,7.0331 5.59174,7.0361 5.58839,7.03878 5.58551,7.04108 5.58317,7.04297 5.58139,7.04441 1.79513,3.25814 1.7969,3.2567 1.79924,3.25481 1.80212,3.2525 1.80547,3.24983 1.80927,3.24683 1.81346,3.24354 1.818,3.24 1.82285,3.23624 1.82797,3.23233 1.83331,3.22829 1.83884,3.22416 1.8445,3.21998 1.85025,3.2158 1.85605,3.21166 1.86186,3.20759 "/>
     <polygon id="_654549464" class="fil1" points="1.79513,3.25814 5.58139,7.04441 5.58093,7.04483 5.58046,7.04524 5.57998,7.04565 5.5795,7.04605 5.579,7.04644 5.5785,7.04683 5.57799,7.0472 5.57747,7.04758 1.7912,3.26131 1.79172,3.26093 1.79223,3.26056 1.79274,3.26017 1.79323,3.25978 1.79372,3.25937 1.79419,3.25897 1.79467,3.25856 "/>
     <polygon id="_654549704" class="fil1" points="1.56274,3.14676 5.34901,6.93303 5.34894,6.93332 5.34889,6.93358 5.34884,6.9338 5.3488,6.93398 5.34876,6.93411 5.34873,6.93421 5.34871,6.93427 5.3487,6.93428 1.56243,3.14801 1.56244,3.148 1.56246,3.14794 1.56249,3.14784 1.56253,3.1477 1.56257,3.14753 1.56262,3.14731 1.56268,3.14705 "/>
     <polygon id="_654549320" class="fil1" points="1.66327,3.25032 5.44954,7.03659 5.44828,7.03546 1.66202,3.24919 "/>
     <polygon id="_654549584" class="fil1" points="1.65448,3.24178 5.44074,7.02806 5.43572,7.02547 5.43076,7.02252 5.42586,7.01924 5.42106,7.0157 5.41638,7.01194 5.41183,7.00802 5.40745,7.004 1.62118,3.21772 1.62556,3.22175 1.63011,3.22567 1.63479,3.22943 1.63959,3.23297 1.64449,3.23625 1.64946,3.2392 "/>
     <polygon id="_657388536" class="fil1" points="1.7912,3.26131 5.57747,7.04758 5.57225,7.05109 5.56708,7.05421 5.56196,7.05696 5.5569,7.05935 5.5519,7.06139 5.54696,7.06311 5.54209,7.06451 5.53729,7.0656 5.53256,7.06641 5.5279,7.06694 5.52331,7.0672 5.51881,7.06722 5.51439,7.06701 5.51005,7.06657 5.5058,7.06593 5.50164,7.06509 5.49757,7.06407 5.4936,7.06289 5.48972,7.06155 5.48595,7.06008 5.48228,7.05848 5.47872,7.05677 5.47526,7.05496 5.47192,7.05307 5.46869,7.05111 5.46558,7.04909 5.46259,7.04704 5.45972,7.04495 5.45698,7.04285 5.45437,7.04075 5.45189,7.03866 5.44954,7.03659 1.66327,3.25032 1.66562,3.25239 1.6681,3.25448 1.67072,3.25658 1.67346,3.25868 1.67632,3.26076 1.67931,3.26282 1.68243,3.26484 1.68565,3.2668 1.689,3.26869 1.69245,3.2705 1.69601,3.2722 1.69968,3.27381 1.70346,3.27528 1.70733,3.27661 1.7113,3.2778 1.71537,3.27881 1.71953,3.27965 1.72378,3.2803 1.72812,3.28074 1.73254,3.28095 1.73705,3.28093 1.74163,3.28067 1.74629,3.28014 1.75102,3.27933 1.75583,3.27824 1.7607,3.27684 1.76563,3.27512 1.77063,3.27307 1.77569,3.27069 1.78081,3.26794 1.78598,3.26481 "/>
     <polygon id="_657388440" class="fil1" points="2.72609,3.58254 6.51235,7.36881 6.50286,7.38821 6.49199,7.4088 6.47985,7.43048 6.46654,7.45313 6.45218,7.47664 6.43685,7.5009 6.42068,7.5258 6.40375,7.55121 6.38619,7.57704 6.36808,7.60316 6.34954,7.62947 6.33068,7.65585 6.31159,7.6822 6.29237,7.70839 6.27315,7.73431 6.25402,7.75987 6.23508,7.78493 6.21644,7.80938 6.1982,7.83313 6.18048,7.85604 6.16337,7.87802 6.14697,7.89894 6.1314,7.9187 6.11676,7.93719 6.10315,7.95428 6.09067,7.96987 6.07944,7.98384 6.06956,7.99609 6.06112,8.0065 6.05424,8.01496 6.04902,8.02135 6.04557,8.02557 2.2593,4.2393 2.26276,4.23508 2.26797,4.22869 2.27485,4.22023 2.28329,4.20982 2.29317,4.19757 2.30441,4.18359 2.31688,4.168 2.33049,4.15091 2.34513,4.13243 2.3607,4.11267 2.3771,4.09174 2.39421,4.06977 2.41194,4.04685 2.43017,4.02311 2.44881,3.99865 2.46775,3.97359 2.48689,3.94804 2.50611,3.92212 2.52532,3.89593 2.54441,3.86958 2.56328,3.8432 2.58181,3.81689 2.59992,3.79077 2.61748,3.76494 2.63441,3.73952 2.65058,3.71463 2.66591,3.69037 2.68028,3.66686 2.69358,3.64421 2.70572,3.62253 2.71659,3.60194 "/>
     <polygon id="_657388104" class="fil1" points="3.03609,4.16345 6.82235,7.94972 6.82055,7.94911 6.81878,7.94841 6.81702,7.94761 6.81531,7.94672 6.81363,7.94573 6.81198,7.94465 6.81038,7.94347 6.80883,7.9422 3.02256,4.15593 3.02411,4.1572 3.02572,4.15838 3.02736,4.15946 3.02904,4.16044 3.03076,4.16134 3.03251,4.16214 3.03428,4.16284 "/>
     <polygon id="_657388056" class="fil1" points="3.32288,4.12467 7.10915,7.91094 7.10214,7.92064 7.09435,7.92934 7.08583,7.93709 7.07667,7.94392 7.06691,7.94988 7.05663,7.95503 7.04589,7.95939 7.03476,7.96303 7.02331,7.96598 7.0116,7.9683 6.9997,7.97002 6.98767,7.97119 6.97558,7.97186 6.9635,7.97207 6.95149,7.97188 6.93962,7.97131 6.92795,7.97043 6.91655,7.96928 6.90549,7.96789 6.89483,7.96632 6.88464,7.96461 6.87498,7.96281 6.86592,7.96096 6.85753,7.95912 6.84987,7.95731 6.84302,7.9556 6.83702,7.95402 6.83196,7.95263 6.82789,7.95146 6.82489,7.95056 6.82302,7.94998 6.82234,7.94977 3.03607,4.1635 3.03675,4.16371 3.03862,4.16429 3.04163,4.16519 3.04569,4.16636 3.05076,4.16775 3.05675,4.16933 3.06361,4.17104 3.07126,4.17285 3.07965,4.17469 3.08871,4.17654 3.09837,4.17834 3.10856,4.18005 3.11922,4.18162 3.13028,4.183 3.14168,4.18416 3.15335,4.18504 3.16522,4.18561 3.17723,4.1858 3.18931,4.18559 3.20141,4.18492 3.21343,4.18375 3.22533,4.18203 3.23705,4.17971 3.2485,4.17676 3.25963,4.17312 3.27036,4.16876 3.28064,4.16361 3.2904,4.15765 3.29957,4.15081 3.30808,4.14307 3.31587,4.13437 "/>
     <polygon id="_657388080" class="fil1" points="3.34068,3.93963 7.12694,7.7259 7.1307,7.73605 7.13399,7.7459 7.1368,7.75544 7.13918,7.76469 7.14114,7.77363 7.14269,7.78228 7.14387,7.79064 7.14469,7.7987 7.14516,7.80648 7.14532,7.81396 7.14518,7.82117 7.14476,7.82809 7.14408,7.83474 7.14316,7.8411 7.14203,7.84719 7.1407,7.85301 7.13919,7.85856 7.13752,7.86384 7.13572,7.86885 7.1338,7.8736 7.13179,7.87809 7.1297,7.88233 7.12756,7.8863 7.12538,7.89002 7.12319,7.89349 7.121,7.89671 7.11884,7.89969 7.11673,7.90242 7.11468,7.90491 7.11272,7.90715 7.11087,7.90916 7.10915,7.91094 3.32288,4.12467 3.3246,4.12289 3.32645,4.12088 3.32841,4.11863 3.33046,4.11615 3.33257,4.11341 3.33473,4.11044 3.33692,4.10722 3.33911,4.10375 3.34129,4.10003 3.34343,4.09606 3.34552,4.09182 3.34754,4.08733 3.34945,4.08258 3.35126,4.07757 3.35292,4.07229 3.35443,4.06674 3.35576,4.06092 3.35689,4.05483 3.35781,4.04846 3.35849,4.04182 3.35891,4.0349 3.35905,4.02769 3.35889,4.0202 3.35842,4.01243 3.3576,4.00437 3.35643,3.99601 3.35487,3.98736 3.35291,3.97841 3.35054,3.96917 3.34772,3.95963 3.34444,3.94978 "/>
    </g>
    <path id="_637657528" class="fil1" d="M3.66153 2.55713c0.167323,-0.0125197 0.342386,-0.0256142 0.502736,0.00784252 0.0135669,0.00279528 0.0270236,0.00595669 0.0403543,0.0095 0.0191575,0.0050315 0.0380669,0.0108346 0.0566772,0.0174961 0.0214173,0.00758661 0.0424449,0.0163031 0.0630315,0.026252 0.0574606,0.0277323 0.111508,0.0649961 0.160819,0.114579 0.0145906,0.0146654 0.0287638,0.0304094 0.0424882,0.0472992 0.00773228,0.00951969 0.0153228,0.0194055 0.0227638,0.0296654 0.00228346,0.00314961 0.00454724,0.00633858 0.0067874,0.00956693 0.0146142,0.0209803 0.0283937,0.0435039 0.0414331,0.067185 0.0166181,0.0301535 0.0320433,0.0621732 0.0464803,0.095248 0.000106299,0.000240157 0.000212598,0.000476378 0.000314961,0.000716535 0.0409882,0.0940079 0.0740236,0.196457 0.103764,0.288677 0.0210787,0.0653701 0.0404449,0.125421 0.0599291,0.173299 0.0261732,0.0643189 0.0622677,0.118303 0.10126,0.159949 0.0355512,0.0379724 0.0733465,0.0655827 0.107894,0.0812008 0.0292205,0.0132126 0.0540906,0.0172795 0.0701024,0.0107638 0.00306299,-0.00124803 0.00559843,-0.00277559 0.00751575,-0.00457087 0.00589764,-0.00551969 0.00990945,-0.0153386 0.0113465,-0.0299094 0.00173622,-0.0175787 -0.000602362,-0.0403031 -0.00793701,-0.068626 -0.000775591,-0.00235039 -0.00133071,-0.00480709 -0.00164173,-0.00735827 -0.0205,-0.164685 0.111846,-0.058752 0.112213,-0.0584449l0.000901575 0.000728346c0.033626,0.0281969 0.0551102,0.0671339 0.0642283,0.108799 0.00813386,0.0371811 0.00638189,0.0768937 -0.00543701,0.113169 -0.0120866,0.0371142 -0.034748,0.0707441 -0.068189,0.0947717 -0.0313465,0.0225276 -0.0716142,0.0362205 -0.120752,0.0358386 -0.0674606,-0.000531496 -0.141039,-0.0275984 -0.209421,-0.072937 -0.0674921,-0.044752 -0.130728,-0.107634 -0.178232,-0.180295 -0.0350669,-0.0536299 -0.0590039,-0.109252 -0.079189,-0.166433 -0.0113937,-0.0322795 -0.0215945,-0.0650591 -0.0319213,-0.0982559 -0.0260433,-0.0837008 -0.0529764,-0.17024 -0.102724,-0.255484 -0.005,0.0180315 -0.0110827,0.0370512 -0.0177953,0.0567795 -0.0071811,0.0211063 -0.0150827,0.0430236 -0.0231496,0.0653937 -0.000980315,0.00272047 -0.00196457,0.00544882 -0.00294882,0.0081811l-0.00935433 0.0260748c-0.00368898,0.0103425 -0.00735039,0.0207244 -0.0109291,0.0310787 -0.00341339,0.00987402 -0.00675591,0.0197244 -0.00997244,0.0294921 -0.0148386,0.0450866 -0.0270276,0.0884606 -0.0316811,0.124642 -0.00210236,0.0163504 -0.00266142,0.0312362 -0.00122835,0.0441417 0.000866142,0.00777559 0.00249606,0.0163543 0.00473228,0.0254803 0.00479134,0.0196142 0.0123346,0.0417598 0.0209409,0.0639094 0.0198819,0.0511654 0.0454094,0.102339 0.0556417,0.122311 0.0904094,0.062689 0.037063,0.170169 0.0262677,0.189772l-0.098185 0.235157c-0.0386457,0.110161 -0.214142,0.0957008 -0.24298,0.0925472 -0.117776,0.00609843 -0.123787,-0.0869094 -0.123961,-0.102638 -3.54331e-005,-0.00104331 -3.54331e-005,-0.00208661 1.5748e-005,-0.00314567 0.00420866,-0.0890118 0.140933,-0.091315 0.175846,-0.0904488 0.0287559,-0.0139921 0.0439252,-0.0903071 0.0496142,-0.126748 -0.0089685,-0.00808661 -0.0203425,-0.0186063 -0.0331457,-0.0305906 -0.000622047,0.000984252 -0.00125197,0.00197244 -0.0018937,0.0029685 -0.0345433,0.0539488 -0.0910551,0.126634 -0.149622,0.176665 -0.0591929,0.0505669 -0.123043,0.0801063 -0.178476,0.0555315l2.3622e-005 -5.51181e-005c-0.0190787,-0.0083622 -0.0335866,-0.0180394 -0.0442402,-0.0286535 -0.020748,-0.0206811 -0.0275551,-0.0437874 -0.0245827,-0.0677756l0.000165354 -0.00140945c0.00281102,-0.0203819 0.0131772,-0.0397835 0.0277756,-0.0575866 0.019185,-0.0233898 0.0464331,-0.0447244 0.0715079,-0.0610236 0.0277677,-0.0180748 0.0628583,-0.0602913 0.0875236,-0.106673 0.0156929,-0.0295157 0.0265984,-0.0594449 0.0273898,-0.083378 1.9685e-005,-0.000594488 3.14961e-005,-0.0011811 3.93701e-005,-0.00176772 -0.0158504,-0.0115906 -0.037185,-0.0287087 -0.0609843,-0.0483661 -0.024185,-0.0199764 -0.0509213,-0.0425906 -0.0770276,-0.0646929 -0.0014252,-0.00120472 -0.00284646,-0.00240945 -0.00426378,-0.00361024 -0.0108189,-0.00916142 -0.0214055,-0.0181772 -0.0314606,-0.0267717 -0.0281535,-0.0240709 -0.0521614,-0.0448425 -0.0655079,-0.056252 -0.0295945,0.0194213 -0.0744646,0.0342283 -0.126295,0.0455 -0.0146378,0.00319685 -0.0298307,0.00610236 -0.0453937,0.00874803 -0.0120748,0.00206299 -0.0243701,0.00396457 -0.0368031,0.00571654 -0.0165827,0.00235433 -0.0334055,0.00444488 -0.0502598,0.00631102 -0.0140669,0.00155906 -0.0281535,0.00295669 -0.0421417,0.00420866 -0.0199646,0.00179921 -0.0397244,0.00330315 -0.0589291,0.00455906 -0.0253937,0.00166929 -0.0498189,0.00290945 -0.0724606,0.00383071 -0.0288622,0.00117717 -0.0548386,0.00183071 -0.0762126,0.00219291 -0.0019685,3.14961e-005 -0.0038937,6.29921e-005 -0.00578346,9.05512e-005l0.000255906 0.00100394 0.00149606 0.00592126c0.00979528,0.0398937 0.0175157,0.088811 0.0212559,0.114949 0.00111024,0.00782677 0.00221654,0.0185236 0.00350394,0.0310433 0.00496063,0.0482441 0.0130472,0.126835 0.0452283,0.209646 0.0427677,0.109937 -0.000165354,0.16735 -0.0177992,0.185039 -0.0702953,0.109035 -0.286177,0.0390315 -0.286807,0.0388307l1.5748e-005 -4.33071e-005c-0.00483465,-0.00150394 -0.00944882,-0.00400394 -0.0135236,-0.00752756 -0.0783425,-0.0679055 0.0864764,-0.170673 0.115752,-0.188047 0.000917323,-0.00361811 -0.00775197,-0.0265709 -0.0199606,-0.0560984 -0.0335866,-0.0812362 -0.103831,-0.185016 -0.116984,-0.203831 -0.00779134,-0.0111378 -0.0147323,-0.0246496 -0.0222953,-0.0393898 -0.0136102,-0.0265039 -0.0298583,-0.0581614 -0.049374,-0.0693031 -0.0274921,-0.0156969 -0.0457874,-0.031626 -0.0566772,-0.0427756 -0.0112795,-0.000822835 -0.0222795,-0.00162992 -0.0329016,-0.00240945l-0.0206457 -0.00152756c-0.0212283,-0.0015748 -0.0404606,-0.00301969 -0.0567244,-0.00424803 -0.00803543,-0.000606299 -0.0153504,-0.00116142 -0.0218189,-0.00165354 -0.00378346,0.0109134 -0.00879921,0.0229449 -0.0148465,0.0359016 -0.0935591,0.200091 -0.439744,0.623791 -0.466783,0.656756 -0.00159055,0.00223228 -0.00343701,0.00432283 -0.00555512,0.00622441 -0.069937,0.0630079 -0.303205,0.0281299 -0.326429,0.0244764 -0.00567717,-0.000606299 -0.0113031,-0.0025 -0.0164331,-0.00579528 -0.0457362,-0.0295591 -0.0498425,-0.0623228 -0.0284134,-0.0954843 0.036063,-0.0558071 0.193591,-0.0943228 0.230965,-0.103457l0.00473228 -0.00120079c0.0565,-0.0176614 0.0785945,-0.0883661 0.0964646,-0.145547 0.00559055,-0.0179055 0.0108346,-0.0346693 0.017689,-0.0514449 0.0182244,-0.0446181 0.052185,-0.199571 0.0701142,-0.284531 0.000204724,-0.000972441 0.000409449,-0.00194094 0.000610236,-0.0028937 0.00337402,-0.0160039 0.00614173,-0.0293504 0.00807874,-0.0387638 -0.0372953,-0.0675315 -0.0658346,-0.236063 -0.0733189,-0.283472 -0.00909449,-0.00530315 -0.0286378,-0.0107756 -0.0550787,-0.0174646l-0.0216378 -0.00540551 -0.0123228 -0.00306693 -0.0016063 -0.000362205 -0.000122047 -2.75591e-005c-0.000858268,-0.000216535 -0.0017126,-0.000429134 -0.00256299,-0.000641732 -0.00756299,-0.0018937 -0.014752,-0.00369291 -0.0216378,-0.00543307 -0.0164685,-0.00416142 -0.0311929,-0.00797638 -0.0451142,-0.0118661 -0.0170197,-0.00475591 -0.0328386,-0.00962992 -0.0491732,-0.0154016 -0.00884252,-0.00311811 -0.0178307,-0.0065 -0.0272441,-0.0102677 -0.0187047,-0.00747638 -0.0357835,-0.011815 -0.0517638,-0.0126969 -0.015,-0.000826772 -0.0293701,0.00137008 -0.0436417,0.00685827 -0.0098189,0.00377953 -0.0236535,0.012126 -0.0382756,0.0220079 -0.0305945,0.0206811 -0.0646299,0.0480984 -0.0725,0.0544961 -0.00122047,0.00112598 -0.00252756,0.00218504 -0.00392126,0.00316929 -0.0559724,0.0395197 -0.103606,0.0108307 -0.127933,-0.0109843 -0.00340157,-0.00304724 -0.00634646,-0.00596457 -0.00879528,-0.00853937 -0.0134409,-0.00633465 -0.0265512,-0.0172441 -0.0375,-0.0281339 -0.00537402,-0.00534646 -0.0102283,-0.010685 -0.0143465,-0.0154764 -0.00501969,-0.00584646 -0.00894488,-0.010878 -0.0113819,-0.0141102 -0.00724803,-0.00670866 -0.0133701,-0.0136339 -0.0184606,-0.0207323 -0.00393701,-0.00541732 -0.00726378,-0.0109449 -0.0100472,-0.0165709 -0.000173228,0.000830709 -0.000283465,0.00127559 -0.000311024,0.00124803 -0.019378,-0.0199134 -0.018874,-0.0758268 -0.00931496,-0.0804764 0.00669291,-0.037626 0.0259055,-0.0730433 0.0416457,-0.0988071 0.00370472,-0.00606299 0.0072126,-0.0115866 0.0103228,-0.0164843 0.00361024,-0.0056811 0.00646457,-0.0101693 0.00730315,-0.0118583 0.00194882,-0.00390551 0.00337795,-0.0140236 0.00458268,-0.026248 0.000767717,-0.00777953 0.00144094,-0.0164134 0.00210236,-0.0248425 0.00194094,-0.0248504 0.00378346,-0.0483937 0.0104213,-0.0638622 0.00223622,-0.00521654 0.00617717,-0.0107598 0.0114213,-0.0165906 0.00959449,-0.0106614 0.0235472,-0.0222795 0.039374,-0.0345945 0.00712598,-0.00554331 0.0146299,-0.0112244 0.0222913,-0.0170236 0.00735827,-0.00557087 0.0148976,-0.0112795 0.0222047,-0.0168898 0.0103543,-0.00794882 0.020252,-0.0157008 0.0285354,-0.0225984 0.0111102,-0.00925591 0.0193189,-0.0169764 0.0218307,-0.0215669 0.00443701,-0.00812992 -0.0566693,-0.0773228 -0.0691811,-0.0913543 -0.0847441,-0.110142 0.211563,0.0302402 0.19874,0.0397835 0.00990551,-0.00309843 0.0202402,-0.00561024 0.0309528,-0.0076063 0.0241063,-0.0045 0.050126,-0.0063937 0.0774685,-0.00650394 0.0258543,-0.000114173 0.0528898,0.00136614 0.0806142,0.00374409 0.019437,0.00166535 0.0392126,0.00377165 0.0591575,0.0060748 0.0143858,0.00166535 0.0288465,0.00343307 0.0433425,0.0052126 0.00197638,0.000240157 0.00395276,0.000484252 0.00592913,0.000728346 0.0144252,0.00177559 0.0288661,0.00355118 0.0432205,0.00524016 0.0225512,0.00264567 0.0448898,0.00505906 0.066622,0.00688583 0.0214646,0.00180709 0.0423386,0.0030315 0.0622362,0.0033189 0.0289567,0.000429134 0.0558583,-0.00111024 0.0795197,-0.00570866 0.00340551,-0.000661417 0.00674016,-0.00138583 0.0100079,-0.00217717l0.000677165 -0.000192913c0.0186181,-0.00505512 0.0359803,-0.00914961 0.0522441,-0.0123937 0.0362441,-0.00725197 0.0670354,-0.010311 0.094122,-0.0104646 0.0292835,-0.000181102 0.0542323,0.00303543 0.0770591,0.00801575 0.0195787,0.00426378 0.0375984,0.00982677 0.0554449,0.0156575 0.00388583,0.00127165 0.00776378,0.00255512 0.0116496,0.00383858 0.0056811,0.00187795 0.0113819,0.00376378 0.0171614,0.0056063 0.0258386,0.00824016 0.0533071,0.0156575 0.0881969,0.0180827 0.0176457,0.00123228 0.0371929,0.0011811 0.0593898,-0.000685039 0.0183819,-0.00154331 0.0385866,-0.00433465 0.0610354,-0.00867323 0.0231102,-0.00445669 0.0485945,-0.0105669 0.0769252,-0.0186575 0.0258976,-0.00738976 0.0541969,-0.0164449 0.0852126,-0.0273858 0.00190157,-0.000673228 0.00381102,-0.00135039 0.00573228,-0.00203543 0.0170433,-0.00608268 0.0362874,-0.011811 0.0569331,-0.0171063 0.0136496,-0.00350787 0.0279134,-0.00682283 0.042563,-0.00993701 0.0175748,-0.00373228 0.0357047,-0.00716929 0.0539961,-0.0102756 0.00158661,-0.000267717 0.00317717,-0.000535433 0.00476772,-0.00080315 0.0221535,-0.00368504 0.0445787,-0.00688583 0.0665433,-0.0095315 0.0193465,-0.00233465 0.0383307,-0.00424016 0.0564606,-0.00567323 0.0170079,-0.00135039 0.0332598,-0.00227953 0.0483425,-0.00276378 0.0160079,-0.000515748 0.0324843,-0.00125591 0.0493307,-0.00216535 0.019626,-0.00105512 0.039748,-0.00233858 0.0601969,-0.00375197 0.0203031,-0.00139764 0.0409252,-0.00292126 0.0617008,-0.00447244 0.00401575,-0.000299213 0.00803543,-0.000598425 0.012063,-0.000901575z"/>
   </g>
  </g>
  <path class="fil2" d="M3.41333 -3.93701e-006c1.88513,0 3.41333,1.5282 3.41333,3.41333 0,1.88513 -1.5282,3.41333 -3.41333,3.41333 -1.88513,0 -3.41333,-1.5282 -3.41333,-3.41333 0,-1.88513 1.5282,-3.41333 3.41333,-3.41333z"/>
  <path class="fil3" d="M3.66153 2.55713c0.320469,-0.0239764 0.669335,-0.0500748 0.88887,0.252634 0.0900157,0.124126 0.149016,0.307079 0.19878,0.461394 0.0210787,0.0653701 0.0404449,0.125421 0.0599291,0.173299 0.0261732,0.0643189 0.0622677,0.118303 0.10126,0.159949 0.0355512,0.0379724 0.0733465,0.0655827 0.107894,0.0812008 0.0292205,0.0132126 0.0540906,0.0172795 0.0701024,0.0107638 0.00306299,-0.00124803 0.00559843,-0.00277559 0.00751575,-0.00457087 0.00589764,-0.00551969 0.00990945,-0.0153386 0.0113465,-0.0299094 0.00173622,-0.0175787 -0.000602362,-0.0403031 -0.00793701,-0.068626 -0.000775591,-0.00235039 -0.00133071,-0.00480709 -0.00164173,-0.00735827 -0.0205,-0.164685 0.111846,-0.058752 0.112213,-0.0584449l0.000901575 0.000728346c0.033626,0.0281969 0.0551102,0.0671339 0.0642283,0.108799 0.00813386,0.0371811 0.00638189,0.0768937 -0.00543701,0.113169 -0.0120866,0.0371142 -0.034748,0.0707441 -0.068189,0.0947717 -0.0313465,0.0225276 -0.0716142,0.0362205 -0.120752,0.0358386 -0.0674606,-0.000531496 -0.141039,-0.0275984 -0.209421,-0.072937 -0.0674921,-0.044752 -0.130728,-0.107634 -0.178232,-0.180295 -0.0548622,-0.0839094 -0.0824882,-0.172689 -0.11111,-0.264689 -0.0260433,-0.0837008 -0.0529764,-0.17024 -0.102724,-0.255484 -0.0103543,0.0373228 -0.0253386,0.0788937 -0.0409449,0.122173 -0.0347087,0.0962677 -0.0729252,0.202264 -0.0661142,0.26361 0.00701575,0.0630866 0.0645906,0.179063 0.081315,0.211701 0.0904094,0.062689 0.037063,0.170169 0.0262677,0.189772l-0.098185 0.235157c-0.0386457,0.110161 -0.214142,0.0957008 -0.24298,0.0925472 -0.117776,0.00609843 -0.123787,-0.0869094 -0.123961,-0.102638 -3.54331e-005,-0.00104331 -3.54331e-005,-0.00208661 1.5748e-005,-0.00314567 0.00420866,-0.0890118 0.140933,-0.091315 0.175846,-0.0904488 0.0287559,-0.0139921 0.0439252,-0.0903071 0.0496142,-0.126748 -0.0089685,-0.00808661 -0.0203425,-0.0186063 -0.0331457,-0.0305906 -0.0343504,0.0542244 -0.0918661,0.128677 -0.151516,0.179634 -0.0591929,0.0505669 -0.123043,0.0801063 -0.178476,0.0555315l2.3622e-005 -5.51181e-005c-0.0190787,-0.0083622 -0.0335866,-0.0180394 -0.0442402,-0.0286535 -0.020748,-0.0206811 -0.0275551,-0.0437874 -0.0245827,-0.0677756l0.000165354 -0.00140945c0.00281102,-0.0203819 0.0131772,-0.0397835 0.0277756,-0.0575866 0.019185,-0.0233898 0.0464331,-0.0447244 0.0715079,-0.0610236 0.0277677,-0.0180748 0.0628583,-0.0602913 0.0875236,-0.106673 0.0160866,-0.030248 0.0271378,-0.0609291 0.0274291,-0.0851457 -0.0328386,-0.0240157 -0.0892165,-0.0717441 -0.142276,-0.116669 -0.0411102,-0.034811 -0.0788543,-0.0675394 -0.0969685,-0.0830236 -0.103248,0.067752 -0.392394,0.0793386 -0.51428,0.0811575l0.00175197 0.0069252c0.00979528,0.0398937 0.0175157,0.088811 0.0212559,0.114949 0.00111024,0.00782677 0.00221654,0.0185236 0.00350394,0.0310433 0.00496063,0.0482441 0.0130472,0.126835 0.0452283,0.209646 0.0427677,0.109937 -0.000165354,0.16735 -0.0177992,0.185039 -0.0702953,0.109035 -0.286177,0.0390315 -0.286807,0.0388307l1.5748e-005 -4.33071e-005c-0.00483465,-0.00150394 -0.00944882,-0.00400394 -0.0135236,-0.00752756 -0.0783425,-0.0679055 0.0864764,-0.170673 0.115752,-0.188047 0.000917323,-0.00361811 -0.00775197,-0.0265709 -0.0199606,-0.0560984 -0.0335866,-0.0812362 -0.103831,-0.185016 -0.116984,-0.203831 -0.00779134,-0.0111378 -0.0147323,-0.0246496 -0.0222953,-0.0393898 -0.0136102,-0.0265039 -0.0298583,-0.0581614 -0.049374,-0.0693031 -0.0274921,-0.0156969 -0.0457874,-0.031626 -0.0566772,-0.0427756 -0.054311,-0.00395669 -0.102197,-0.00756299 -0.132091,-0.00983858 -0.0622165,0.179461 -0.452839,0.657559 -0.48163,0.692657 -0.00159055,0.00223228 -0.00343701,0.00432283 -0.00555512,0.00622441 -0.069937,0.0630079 -0.303205,0.0281299 -0.326429,0.0244764 -0.00567717,-0.000606299 -0.0113031,-0.0025 -0.0164331,-0.00579528 -0.0457362,-0.0295591 -0.0498425,-0.0623228 -0.0284134,-0.0954843 0.036063,-0.0558071 0.193591,-0.0943228 0.230965,-0.103457 0.00251969,-0.000614173 0.0041378,-0.00101575 0.00473228,-0.00120079 0.0565,-0.0176614 0.0785945,-0.0883661 0.0964646,-0.145547 0.00559055,-0.0179055 0.0108346,-0.0346693 0.017689,-0.0514449 0.0219331,-0.0537008 0.0666575,-0.267209 0.0788031,-0.326189 -0.0372953,-0.0675315 -0.0658346,-0.236063 -0.0733189,-0.283472 -0.0114252,-0.00666142 -0.0393504,-0.0135945 -0.0767165,-0.0228701l-0.0123228 -0.00306693 -0.0016063 -0.000362205 -0.000122047 -2.75591e-005c-0.0612598,-0.0153268 -0.0980827,-0.0245394 -0.145732,-0.0436102 -0.0187047,-0.00747638 -0.0357835,-0.011815 -0.0517638,-0.0126969 -0.015,-0.000826772 -0.0293701,0.00137008 -0.0436417,0.00685827 -0.0303661,0.011685 -0.0991417,0.0670472 -0.110776,0.0765039 -0.00122047,0.00112598 -0.00252756,0.00218504 -0.00392126,0.00316929 -0.0637953,0.0450433 -0.11676,0.00148031 -0.136728,-0.0195236 -0.0280827,-0.0132323 -0.0547244,-0.0464449 -0.0632283,-0.0577205 -0.084,-0.077752 -0.0162913,-0.18439 0.0138346,-0.231823 0.00361024,-0.0056811 0.00646457,-0.0101693 0.00730315,-0.0118583 0.00318898,-0.0063937 0.00498819,-0.0294173 0.00668504,-0.0510906 0.00194094,-0.0248504 0.00378346,-0.0483937 0.0104213,-0.0638622 0.00816142,-0.0190472 0.0391063,-0.0424803 0.0730866,-0.0682087 0.0317677,-0.0240512 0.0668661,-0.050626 0.0725709,-0.0610551 0.00443701,-0.00812992 -0.0566693,-0.0773228 -0.0691811,-0.0913543 -0.0847441,-0.110142 0.211563,0.0302402 0.19874,0.0397835 0.0801772,-0.0250709 0.188425,-0.0117638 0.297465,0.00164961 0.096748,0.0119094 0.194173,0.0238898 0.261606,0.00755906l0.000677165 -0.000192913c0.151831,-0.0412126 0.220122,-0.018626 0.29052,0.00465354 0.0761535,0.025189 0.155209,0.0513307 0.393654,-0.033748 0.0418307,-0.0149291 0.0968898,-0.0277087 0.153492,-0.0373189 0.0614488,-0.010437 0.12539,-0.0171457 0.176114,-0.0187717 0.056748,-0.00182283 0.119445,-0.00651181 0.183291,-0.0112913z"/>
  <path class="fil4" d="M4.41494 3.29487c-0.0262992,0.0760433 -0.0481732,0.150626 -0.0428819,0.198276 0.00701575,0.0630866 0.0645906,0.179063 0.081315,0.211701 0.0904094,0.062689 0.037063,0.170169 0.0262677,0.189772l-0.098185 0.235157c-0.0386457,0.110161 -0.214142,0.0957008 -0.24298,0.0925472 -0.117776,0.00609843 -0.123787,-0.0869094 -0.123961,-0.102638 -3.54331e-005,-0.00104331 -3.54331e-005,-0.00208661 1.5748e-005,-0.00314567 0.00420866,-0.0890118 0.140933,-0.091315 0.175846,-0.0904488 0.0287559,-0.0139921 0.0439252,-0.0903071 0.0496142,-0.126748 -0.0089685,-0.00808661 -0.0203425,-0.0186063 -0.0331457,-0.0305906 -0.0343504,0.0542244 -0.0918661,0.128677 -0.151516,0.179634 -0.0591929,0.0505669 -0.123043,0.0801063 -0.178476,0.0555315l2.3622e-005 -5.51181e-005c-0.0190787,-0.0083622 -0.0335866,-0.0180394 -0.0442402,-0.0286535 -0.020748,-0.0206811 -0.0275551,-0.0437874 -0.0245827,-0.0677756l0.000165354 -0.00140945c0.00281102,-0.0203819 0.0131772,-0.0397835 0.0277756,-0.0575866 0.019185,-0.0233898 0.0464331,-0.0447244 0.0715079,-0.0610236 0.0277677,-0.0180748 0.0628583,-0.0602913 0.0875236,-0.106673 0.0160866,-0.030248 0.0271378,-0.0609291 0.0274291,-0.0851457 -0.0158504,-0.0115906 -0.037185,-0.0287087 -0.0609843,-0.0483661 -0.0255039,-0.0210669 -0.0538425,-0.045063 -0.0812913,-0.0683031 -0.0411102,-0.034811 -0.0788543,-0.0675394 -0.0969685,-0.0830236 -0.103248,0.067752 -0.392394,0.0793386 -0.51428,0.0811575l0.00175197 0.0069252c0.00979528,0.0398937 0.0175157,0.088811 0.0212559,0.114949 0.00111024,0.00782677 0.00221654,0.0185236 0.00350394,0.0310433 0.00496063,0.0482441 0.0130472,0.126835 0.0452283,0.209646 0.0427677,0.109937 -0.000165354,0.16735 -0.0177992,0.185039 -0.0702953,0.109035 -0.286177,0.0390315 -0.286807,0.0388307l1.5748e-005 -4.33071e-005c-0.00483465,-0.00150394 -0.00944882,-0.00400394 -0.0135236,-0.00752756 -0.0783425,-0.0679055 0.0864764,-0.170673 0.115752,-0.188047 0.000917323,-0.00361811 -0.00775197,-0.0265709 -0.0199606,-0.0560984 -0.0335866,-0.0812362 -0.103831,-0.185016 -0.116984,-0.203831 -0.00779134,-0.0111378 -0.0147323,-0.0246496 -0.0222953,-0.0393898 -0.0136102,-0.0265039 -0.0298583,-0.0581614 -0.049374,-0.0693031 -0.0274921,-0.0156969 -0.0457874,-0.031626 -0.0566772,-0.0427756 -0.054311,-0.00395669 -0.102197,-0.00756299 -0.132091,-0.00983858 -0.0622165,0.179461 -0.452839,0.657559 -0.48163,0.692657 -0.00159055,0.00223228 -0.00343701,0.00432283 -0.00555512,0.00622441 -0.069937,0.0630079 -0.303205,0.0281299 -0.326429,0.0244764 -0.00567717,-0.000606299 -0.0113031,-0.0025 -0.0164331,-0.00579528 -0.0457362,-0.0295591 -0.0498425,-0.0623228 -0.0284134,-0.0954843 0.036063,-0.0558071 0.193591,-0.0943228 0.230965,-0.103457 0.00251969,-0.000614173 0.0041378,-0.00101575 0.00473228,-0.00120079 0.0565,-0.0176614 0.0785945,-0.0883661 0.0964646,-0.145547 0.00559055,-0.0179055 0.0108346,-0.0346693 0.017689,-0.0514449 0.0219331,-0.0537008 0.0666575,-0.267209 0.0788031,-0.326189 -0.0372953,-0.0675315 -0.0658346,-0.236063 -0.0733189,-0.283472 -0.0114252,-0.00666142 -0.0393504,-0.0135945 -0.0767165,-0.0228701l-0.0123228 -0.00306693 -0.0016063 -0.000362205 -0.000122047 -2.75591e-005c-0.0612598,-0.0153268 -0.0980827,-0.0245394 -0.145732,-0.0436102 -0.0187047,-0.00747638 -0.0357835,-0.011815 -0.0517638,-0.0126969 -0.015,-0.000826772 -0.0293701,0.00137008 -0.0436417,0.00685827 -0.0303661,0.011685 -0.0991417,0.0670472 -0.110776,0.0765039 -0.00122047,0.00112598 -0.00252756,0.00218504 -0.00392126,0.00316929 -0.0637953,0.0450433 -0.11676,0.00148031 -0.136728,-0.0195236 -0.0200354,-0.00944094 -0.0393346,-0.0290551 -0.0518425,-0.0436142 0.0154843,-0.0237087 0.0343386,-0.0471142 0.0560079,-0.0637795 0.0643346,-0.0494882 0.133618,-0.0742283 0.267232,-0.0692795 0.133618,0.00494882 0.237539,0.0494921 0.316724,0.103925 0.0791811,0.0544331 0.232594,0.202902 0.282083,0.222693 0.0494882,0.0197953 0.0940276,0.0890827 0.247437,0.0940276 0.153413,0.00494882 0.262287,0 0.386008,-0.0197953 0.123717,-0.0197953 0.277134,-0.0296929 0.381055,-0.054437 0.103925,-0.0247441 0.222701,-0.0494882 0.316724,-0.0791811 0.0940236,-0.029689 0.128665,-0.0494882 0.257335,-0.054437 0.128669,-0.00494882 0.291976,0.00494882 0.291976,0.00494882 0,0 0.00359055,0.00441339 0.00972835,0.0120197z"/>
  <path class="fil5" d="M1.66327 3.25032c-0.00340157,-0.00305118 -0.00634646,-0.00596457 -0.00879528,-0.00853937 -0.0134409,-0.00633465 -0.0265512,-0.0172441 -0.0375,-0.0281339 0.00200787,-0.000326772 0.0041378,0.000204724 0.00579134,0.0016378 0.0334724,0.0288465 0.0529016,0.0225039 0.0683071,0.00462598 0.00773228,-0.00897638 0.0148425,-0.0208622 0.0220669,-0.0329488 0.0140945,-0.0235709 0.0286299,-0.0478819 0.051248,-0.0575945 0.00361024,-0.00155118 0.00780315,0.00011811 0.00935433,0.00373228 0.00155118,0.00361024 -0.000122047,0.00779921 -0.00373228,0.00935039 -0.018437,0.00791732 -0.0317598,0.0302008 -0.0446772,0.0518071 -0.00754331,0.0126181 -0.0149606,0.0250276 -0.0235157,0.0349488 -0.0109409,0.0127008 -0.0232047,0.0212323 -0.0385472,0.0211142z"/>
  <path class="fil5" d="M1.57279 3.16333c-0.0150315,-0.0208386 -0.0213583,-0.0430433 -0.0220394,-0.0651811 0.00361811,0.00724409 0.00867323,0.0136063 0.0144764,0.0107047 0.0112638,-0.00563386 0.0095748,-0.0287283 0.0146457,-0.0343622 0.0231772,-0.0257559 0.0342362,0.0739173 -0.00708268,0.0888386z"/>
  <line class="fil3" x1="5.20986" y1="3.52746" x2="5.20986" y2= "3.52746" />
  <path class="fil6" d="M1.61772 2.91716c0.00292913,0.0302244 0.044374,0.0687835 0.0644646,0.120492 -0.0274921,-0.0175433 -0.0633425,-0.0403425 -0.0874173,-0.0689252 0.00370079,-0.00605512 0.0072126,-0.0115906 0.0103189,-0.0164843 0.00361024,-0.0056811 0.00646457,-0.0101693 0.00730315,-0.0118583 0.00194882,-0.00390551 0.00338189,-0.0140236 0.00458661,-0.026248 0.000307087,0.000976378 0.000559055,0.00198819 0.000744094,0.00302362zm0.135602 -0.199425c0.0722717,0.0454252 0.0699606,0.108965 0.0488701,0.198673 -0.00820079,-0.0823307 0.00246457,-0.141394 -0.0774055,-0.176075 0.0103543,-0.00794882 0.020252,-0.0157008 0.0285354,-0.0225984zm-0.0730276 0.0565157c0.00811811,0.128913 0.101661,0.130449 0.101276,0.224433 -8.66142e-005,0.0215669 0.00250394,0.0626535 -0.0140197,0.0822677 0.017878,-0.127323 -0.0384803,-0.131587 -0.0594567,-0.158815 -0.0271299,-0.0339685 -0.053622,-0.0714409 -0.0671772,-0.113295 0.00959843,-0.0106614 0.0235472,-0.0222795 0.039378,-0.0345906z"/>
  <path class="fil6" d="M3.28588 2.91054c-0.0424291,0.117661 0.0175315,0.494028 0.0569882,0.577024 0.0394409,0.0829961 0.0613583,0.110665 0.0569764,0.00395276 -0.00438189,-0.106713 -0.0893976,-0.326547 -0.0455787,-0.453028 0.0438307,-0.126465 0.0336378,0.0757283 0.0599409,0.146866 0.0262953,0.0711339 0.0952087,0.116457 0.0645315,0.0492677 -0.0306811,-0.067185 -0.0701339,-0.292465 -0.0306929,-0.403126 0.0196614,-0.0551417 0.0520157,-0.160587 0.0795236,-0.265236 -0.0168465,0.000909449 -0.0333268,0.00165354 -0.0493307,0.00216535 -0.0150827,0.000484252 -0.0313346,0.00141339 -0.0483425,0.00276378 0.000692913,0.0132677 0.00148425,0.0261417 0.0023937,0.0385157 0.00608661,0.0828819 -0.103984,0.183169 -0.146409,0.300835z"/>
  <path class="fil6" d="M3.20556 2.60741c-0.0109803,0.118626 -0.0289173,0.137402 -0.0567598,0.259551 -0.0243228,0.106606 -0.0486457,0.245122 -0.018752,0.359382 0.0499134,0.190752 0.0398701,0.0262756 0.0423583,-0.0158228 0.00248819,-0.0420945 0.00479921,-0.160177 0.0244055,-0.0959094 0.0196024,0.0642598 0.0664134,0.107906 0.051622,0.0281339 -0.035748,-0.192937 0.0370236,-0.275441 0.103799,-0.455756 0.011811,-0.0318898 0.0187559,-0.0695118 0.0211969,-0.110126 -0.0219646,0.00264567 -0.0443898,0.00584646 -0.0665433,0.0095315 -0.00545276,0.0452244 -0.0194252,0.0969291 -0.0444606,0.174744 -0.0278504,0.0865748 -0.0214213,-0.0439055 -0.0143031,-0.163665 -0.0146496,0.00311417 -0.0289134,0.00642913 -0.042563,0.00993701z"/>
  <path class="fil6" d="M3.11261 3.36034c-0.0555551,-0.0748858 -0.0392087,-0.34998 0.00397244,-0.521051 0.0194055,-0.0768661 0.0266024,-0.149795 0.026311,-0.212748 -0.0310118,0.0109488 -0.059311,0.0200039 -0.0852087,0.0273937 -0.00425591,0.0184606 -0.0102126,0.0375787 -0.0183701,0.0571378 -0.0431732,0.103508 0.0355591,0.156406 -0.0302323,0.306165 -0.0416457,0.0948031 -0.0766378,-0.13174 -0.0335157,-0.318248 0.00208268,-0.00901575 0.00379921,-0.017815 0.00519291,-0.0263976 -0.0224488,0.00433858 -0.0426535,0.00712992 -0.0610354,0.00867323 -0.0338622,0.107693 -0.0176457,0.235 -0.0374803,0.305437 -0.0385354,0.136799 0.0564213,0.168303 0.0564213,0.363437 0,0.111043 -0.0282165,0.16428 -0.0474882,0.207421 0.0196417,0.00116535 0.0411339,0.00242913 0.0636654,0.00374409 0.0206378,-0.0517992 0.0509449,-0.112504 0.0595512,-0.16115 0.021185,-0.119854 -0.0270709,-0.296472 0.0404528,-0.00128346 0.0141339,0.0617835 0.00877165,0.119406 0.00355118,0.168386 0.0179528,0.00101181 0.0357795,0.00201181 0.0531417,0.00296457 0.010315,-0.0738858 0.0395157,-0.158039 0.00107087,-0.209882z"/>
  <path class="fil6" d="M2.76857 3.45812c0.0200276,-0.0658504 -0.0577638,-0.313378 -0.0980039,-0.386846 -0.0335669,-0.139024 -0.0324213,-0.0940748 0,0.116622 0.0255433,0.0832244 0.064252,0.218776 0.0661063,0.238795 0.00437795,0.0475433 0.0141654,0.0897441 0.0318976,0.0314291z"/>
  <path class="fil6" d="M2.71299 2.79535c0.0114567,-0.0529961 0.0305748,-0.0869409 0.0303386,-0.140917 -0.0178465,-0.00583071 -0.0358661,-0.0113937 -0.0554449,-0.0156614l0 0.311756c0.0104961,0.0354803 0.0246102,0.070252 0.0403346,0.0989961 0.0419134,0.0765512 -0.0304646,-0.183748 -0.0152283,-0.254173z"/>
  <path class="fil6" d="M2.77214 2.66387c-0.00304331,0.061378 -0.0126142,0.144146 -0.0221811,0.203945 -0.0129528,0.0809724 0.0226732,0.158705 0.0194409,0.22348 -0.00324409,0.0647795 -0.0210906,0.132228 0.0112913,0.177567 0.0323937,0.0453504 0.0517283,0.11289 0.0420236,0.180909 -0.00972441,0.0680157 0.0421024,-0.00324409 0.0583031,-0.0939213 0.016185,-0.0906969 -0.0371299,-0.219205 -0.0500827,-0.329331 -0.0129528,-0.110122 0.00647638,-0.233197 0.0291496,-0.343323l0.000251969 -0.00124409c-0.0348898,-0.0024252 -0.0623583,-0.00984252 -0.0881969,-0.0180827z"/>
  <path class="fil6" d="M3.42423 3.26852c-0.0417126,-0.0559961 -0.0734882,-0.0613228 -0.0334882,0.0215984 0.0233425,0.0484094 0.029248,0.161 0.0326496,0.280831 0.0192047,-0.00125984 0.0389685,-0.00276772 0.0589291,-0.00455906 -0.00123228,-0.0999055 -0.0195945,-0.246209 -0.0580906,-0.29787z"/>
  <path class="fil6" d="M3.52987 3.50881c0,0.0155709 -0.00195276,0.0338268 -0.00540945,0.053374 0.0168543,-0.00186614 0.0336732,-0.00396457 0.0502598,-0.00631102 0.00217717,-0.0167323 0.00337402,-0.031315 0.00337402,-0.0431181 0.00436614,-0.185756 -0.0482244,-0.165988 -0.0482244,-0.00394488z"/>
  <path class="fil6" d="M3.20817 3.51602c-0.0287953,-0.0320866 -0.0497244,-0.00973622 -0.0198583,0.0577244l0.000267717 0.000598425c0.0210079,0.00107874 0.0399252,0.00200394 0.0558386,0.00270866 -0.00816142,-0.0259528 -0.0206575,-0.0436496 -0.036248,-0.0610315z"/>
  <path class="fil6" d="M3.29468 3.43294c-0.0482126,-0.0851732 -0.0503661,-0.0987717 -0.0602244,-0.175276 -0.0146929,-0.114004 -0.0408031,-0.0719488 -0.0422638,-0.00543307 -0.00383071,0.172413 0.0463268,0.235181 0.0825315,0.324736 0.021374,-0.000362205 0.0473504,-0.00101575 0.0762126,-0.00219291 -0.0134173,-0.0508307 -0.0323465,-0.0996063 -0.0562559,-0.141835z"/>
  <path class="fil6" d="M2.76275 3.5483c0.00615354,-0.0483386 -0.0334803,-0.0292126 -0.0578819,0.0342402l0.0212087 0c0.00605512,-0.0129528 0.0110709,-0.0249843 0.0148543,-0.0358976l0.0218189 0.00165748z"/>
  <path class="fil6" d="M2.84012 3.55407c-0.00316142,-0.0112008 -0.00645669,-0.0211575 -0.00982677,-0.0295669 -0.00807087,-0.0201654 -0.0107677,-0.0050748 -0.0108189,0.0280394l0.0206457 0.00152756z"/>
  <polygon class="fil6" points="4.6451,2.98177 4.64541,2.98485 4.64541,2.98249 "/>
  <path class="fil6" d="M4.55719 2.81933c-0.00327559,0.0813425 -0.0116811,0.189146 -0.0116811,0.231276 0,0.081878 0.045874,0.195583 0.0999055,0.245307 0.0333858,0.0147992 0.0326024,-0.0131142 0,-0.0808031l-0.00266535 -0.006c-0.0299213,-0.0674528 -0.0710512,-0.165244 -0.0523543,-0.276531 0.00259843,-0.0154567 0.00539764,-0.0308346 0.00822835,-0.046063 -0.0130433,-0.0236772 -0.0268228,-0.0462008 -0.0414331,-0.067185z"/>
  <path class="fil6" d="M4.61283 3.40809c-0.00374409,-0.0944291 -0.112205,-0.327126 -0.119697,-0.401331 -0.00679134,-0.0674843 0.00187795,-0.121043 0.0344724,-0.226642 -0.0137244,-0.016878 -0.027878,-0.0326535 -0.0424646,-0.0473189 -0.0130276,0.0301654 -0.0258346,0.0586142 -0.0368701,0.0884803 -0.0286142,0.0773858 -0.016185,0.226031 0.0130512,0.342862 0.0067126,-0.0197283 0.0127953,-0.038748 0.0177953,-0.0567795 0.049748,0.0852441 0.0766811,0.171783 0.102724,0.255484 0.0103268,0.0331969 0.0205315,0.0659764 0.0319213,0.0982559 1.1811e-005,-0.0191024 -0.000299213,-0.0370276 -0.000933071,-0.0530118z"/>
  <path class="fil6" d="M4.24099 2.91054c-0.0424291,0.117661 0.0175315,0.494028 0.0569882,0.577024 0.0394409,0.0829961 0.0613583,0.110665 0.0569764,0.00395276 -0.00438189,-0.106713 -0.0894016,-0.326547 -0.0455787,-0.453028 0.0438307,-0.126465 0.0336378,0.0757283 0.059937,0.146866 0.0139409,0.0377047 0.0398504,0.0681535 0.0565591,0.0784409 0.00311417,-0.00872835 0.00624016,-0.0174331 0.00935433,-0.0260748 -0.000433071,-0.00100787 -0.000893701,-0.00203937 -0.00137795,-0.00309843 -0.0306811,-0.067185 -0.0701339,-0.292465 -0.0306969,-0.403126 0.0112598,-0.031563 0.0266693,-0.0796142 0.0429528,-0.134555 -0.0206024,-0.017315 -0.0419055,-0.0327756 -0.063815,-0.0465906 -0.0219449,0.0744055 -0.105587,0.161142 -0.141299,0.260189z"/>
  <path class="fil6" d="M4.16149 2.59832c-0.0109016,0.126858 -0.0290354,0.143433 -0.0575748,0.268642 -0.0243228,0.106606 -0.0486457,0.245122 -0.018752,0.359382 0.0499134,0.190752 0.0398701,0.0262756 0.0423583,-0.0158228 0.00248819,-0.0420945 0.00479921,-0.160177 0.0244016,-0.0959094 0.0196063,0.0642598 0.0664173,0.107906 0.051626,0.0281339 -0.035752,-0.192937 0.0370236,-0.275441 0.103799,-0.455756 0.00768504,-0.020748 0.013311,-0.0439213 0.0169764,-0.0687638 -0.0205906,-0.00994094 -0.041626,-0.0186299 -0.0630315,-0.026252 -0.00590157,0.0439134 -0.0197362,0.0945276 -0.043752,0.169165 -0.0296496,0.0921654 -0.0204528,-0.0616575 -0.0129252,-0.186661 -0.0133386,-0.00351969 -0.0267913,-0.00667323 -0.0403543,-0.0095 -0.000826772,0.0104055 -0.00175591,0.0214882 -0.00277165,0.0333425z"/>
  <path class="fil6" d="M4.06772 3.36034c-0.0555512,-0.0748858 -0.0392047,-0.34998 0.00397638,-0.521051 0.0272165,-0.107831 0.0304291,-0.207909 0.0226142,-0.283567l-0.0724094 0c0.0015,0.0441063 -0.00348819,0.0978504 -0.0274724,0.15535 -0.0431732,0.103508 0.0355591,0.156406 -0.0302323,0.306165 -0.0416496,0.0948031 -0.0766378,-0.13174 -0.0335157,-0.318248 0.013063,-0.0564921 0.0118031,-0.104472 0.00470472,-0.143268l-0.0550039 0c0.00958661,0.0338819 0.0129173,0.0729055 -0.0015315,0.11352 -0.0391496,0.110091 -0.0209134,0.244382 -0.0414921,0.317461 -0.0385354,0.136799 0.0564213,0.168303 0.0564213,0.363437 0,0.106453 -0.0259331,0.15978 -0.0450551,0.202016 0.0100551,0.00859449 0.0206417,0.0176102 0.0314606,0.0267717l0.00426378 0.00361024 0.0174685 0c0.0197402,-0.055752 0.0577756,-0.126906 0.0675906,-0.182382 0.021185,-0.119854 -0.0270709,-0.296472 0.0404528,-0.00128346 0.0156339,0.0683307 0.00741339,0.131575 0.00191732,0.183665 0.103728,0 0.0807874,-0.188563 0.0558425,-0.222197z"/>
  <path class="fil6" d="M3.77161 2.66411c-0.0149685,-0.0245 -0.019126,-0.0688976 -0.0211693,-0.108386l-0.0300197 0c0.00249606,0.0150709 0.00608661,0.0318465 0.00732677,0.0529803 0.00324803,0.055063 -0.00972047,0.178142 -0.0226732,0.25911 -0.0129528,0.0809724 0.0226732,0.158705 0.0194409,0.22348 -0.00324409,0.0647795 -0.0210906,0.132228 0.0112913,0.177567 0.0323937,0.0453504 0.0517283,0.11289 0.0420197,0.180909 -0.00972047,0.0680157 0.0421063,-0.00324409 0.0583031,-0.0939213 0.016189,-0.0906969 -0.037126,-0.219205 -0.0500787,-0.329331 -0.0129528,-0.110122 0.00647638,-0.233197 0.0291496,-0.343323 0.00752756,-0.0365512 0.00994094,-0.0813307 0.00875591,-0.127472l-0.0409646 0c0.00271654,0.0740984 0.0021378,0.13052 -0.0113819,0.108386z"/>
  <path class="fil6" d="M4.3768 3.51863c0.00846457,0.220547 0.0380394,0.344346 0.0209409,0.0639094 -0.0086063,-0.0221496 -0.0161496,-0.0442953 -0.0209409,-0.0639094z"/>
  <path class="fil6" d="M4.37935 3.26852c-0.0417126,-0.0559961 -0.0734882,-0.0613228 -0.0334882,0.0215984 0.0150827,0.0312835 0.0228819,0.0893701 0.027437,0.15889 0.00464961,-0.0361811 0.0168386,-0.0795551 0.0316772,-0.124642 -0.00725984,-0.0232244 -0.0157835,-0.0426378 -0.025626,-0.0558465z"/>
  <path class="fil6" d="M4.16328 3.51602c-0.0464213,-0.0517205 -0.018248,0.102823 -0.0197756,0.15065 0.0481929,-0.0703307 0.0840512,-0.0789961 0.0197756,-0.15065z"/>
  <path class="fil6" d="M4.24979 3.43294c-0.0482126,-0.0851732 -0.0503661,-0.0987717 -0.0602244,-0.175276 -0.0146929,-0.114004 -0.0408031,-0.0719488 -0.0422638,-0.00543307 -0.00556299,0.250382 0.0924094,0.339339 0.23689,0.509697 -0.0307205,-0.072374 -0.0994724,-0.267303 -0.134402,-0.328988z"/>
  <path class="fil6" d="M2.60857 3.40809c-0.00374409,-0.0944291 -0.112205,-0.327126 -0.119697,-0.401331 -0.00746457,-0.0741811 0.00374409,-0.131524 0.0448858,-0.259669 0.0411457,-0.128161 0.00748031,0.219205 0.00748031,0.303516 0,0.081878 0.045874,0.195583 0.0999055,0.245307 0.0333858,0.0147992 0.0326024,-0.0131142 0,-0.0808031l-0.00266535 -0.006c-0.0299213,-0.0674528 -0.0710512,-0.165244 -0.0523543,-0.276531 0.0187008,-0.111303 0.0478268,-0.21824 0.0253976,-0.299181 -0.00023622,-0.000854331 -0.000472441,-0.00173622 -0.000704724,-0.00264961 -0.0270866,0.000161417 -0.057878,0.00322047 -0.094122,0.0104646 -0.0233622,0.0698228 -0.0513346,0.122291 -0.072685,0.180067 -0.0448858,0.121398 0.0112087,0.418181 0.0747953,0.492374 0.0920945,0.107472 -0.0155276,0.214531 0.0900354,0.314043 -0.00517323,-0.0735709 0.00266929,-0.14535 -0.000271654,-0.219606z"/>
  <path class="fil6" d="M2.23673 2.91054c-0.0424291,0.117661 0.0175315,0.494028 0.0569882,0.577024 0.0394409,0.0829961 0.0613583,0.110665 0.0569764,0.00395276 -0.00438189,-0.106713 -0.0894016,-0.326547 -0.0455787,-0.453028 0.0438307,-0.126465 0.0336378,0.0757283 0.059937,0.146866 0.0262992,0.0711339 0.0952126,0.116457 0.0645354,0.0492677 -0.0306811,-0.067185 -0.0701339,-0.292465 -0.0306969,-0.403126 0.0139803,-0.0392008 0.034374,-0.103827 0.054878,-0.175516 -0.0236614,0.00459843 -0.050563,0.0061378 -0.0795197,0.00570866 -0.0264764,0.0718346 -0.103606,0.154791 -0.13752,0.24885z"/>
  <path class="fil6" d="M2.1529 2.6403c-0.0111614,0.0905472 -0.0281969,0.11676 -0.0532441,0.226657 -0.0233976,0.102535 -0.0467795,0.234583 -0.0219331,0.346181 0.0139213,0.00388976 0.0286457,0.00770472 0.0451142,0.0118661 7.08661e-005,-0.00562598 0.00019685,-0.0105827 0.000425197,-0.0144882 0.00248819,-0.0420945 0.00479921,-0.160177 0.0244016,-0.0959094 0.0196063,0.0642598 0.0664173,0.107906 0.051626,0.0281339 -0.035752,-0.192937 0.0370236,-0.275441 0.103799,-0.455756 0.00337008,-0.00909055 0.00633858,-0.0186535 0.0089252,-0.0286181 -0.0217323,-0.00182677 -0.0440709,-0.00424016 -0.066622,-0.00688583 -0.00752756,0.0306575 -0.0180827,0.0660551 -0.0321102,0.109654 -0.0241299,0.0750039 -0.0225276,-0.0129094 -0.0170394,-0.115622 -0.0144961,-0.00177953 -0.0289567,-0.00354724 -0.0433425,-0.0052126z"/>
  <path class="fil6" d="M2.02855 3.19774c-0.00364173,-0.112449 0.0126772,-0.254606 0.0388858,-0.358449 0.0186181,-0.0737598 0.026,-0.143894 0.0263071,-0.205063 -0.0277244,-0.00237795 -0.0547598,-0.00385433 -0.0806142,-0.00374409 -0.00411417,0.0255236 -0.0112913,0.0526102 -0.0229606,0.0805906 0.00531102,0.126913 0.0756457,0.175795 -0.0373504,0.302764 0.0205197,-0.0364921 0.0174646,-0.0525866 0.0179449,-0.175433 0.000122047,-0.0327913 0.0043937,-0.042622 -0.0120787,-0.0729094 -0.0120472,-0.0221457 -0.0279213,-0.0526142 -0.0230236,-0.128508 -0.0107126,0.002 -0.0210472,0.00451181 -0.0309528,0.0076063 -0.00588976,-0.00438189 -0.0130787,-0.00969291 -0.0211457,-0.0155748 -0.00127953,0.0131378 -0.00412205,0.0265906 -0.00897244,0.0402244 -0.00615354,0.017311 0.0317244,0.0781811 0.0245118,0.117843 -0.0099685,0.0547953 -0.0616181,0.088811 -0.0345236,0.088811 0.0175827,0 0.0318386,0.0142559 0.0318386,0.0318386 0,0.0175827 -0.0142559,0.0318386 -0.0318386,0.0318386 -0.0325079,0 -0.0301732,0.00325591 -0.0194843,0.0100512 0.0847835,0.053874 0.0457205,0.17722 0.0225315,0.254016 0.014622,-0.00988189 0.0284567,-0.0182283 0.0382756,-0.0220079 0.0142717,-0.00548819 0.0286417,-0.00768504 0.0436417,-0.00685827 0.0159803,0.00088189 0.0330591,0.00522047 0.0517638,0.0126969 0.00941339,0.00376772 0.0184016,0.00714961 0.0272441,0.0102677z"/>
  <path class="fil6" d="M2.37509 3.26852c-0.0417126,-0.0559961 -0.0734882,-0.0613228 -0.0334921,0.0215984 0.0500236,0.103728 -0.00722441,0.238783 0.0612559,0.330157 0.0581417,-0.0722283 0.0251811,-0.280709 -0.0277638,-0.351756z"/>
  <path class="fil6" d="M2.48073 3.50881c0,0.020874 -0.00350787,0.0465669 -0.00944488,0.0737323 -0.0260906,0.100311 -0.00114173,0.0811732 0.050311,0 0.00466535,-0.0281102 0.00735827,-0.0520748 0.00735827,-0.0697874 0.00436614,-0.185756 -0.0482244,-0.165988 -0.0482244,-0.00394488z"/>
  <polygon class="fil6" points="2.30244,3.58254 2.30378,3.58254 2.30321,3.58028 2.30305,3.57965 "/>
  <path class="fil6" d="M2.18273 3.23994c-0.0131457,-0.0802953 -0.0327323,-0.0585079 -0.038252,-0.00950394l0.00256299 0.000641732 0.000122047 2.75591e-005 0.0016063 0.000362205 0.0123228 0.00306693c0.00762598,0.0018937 0.0148583,0.00368898 0.0216378,0.00540551z"/>
  <path class="fil6" d="M3.65772 3.40809c-0.00374409,-0.0944291 -0.112205,-0.327126 -0.119697,-0.401327 -0.00746457,-0.074189 0.00374409,-0.131531 0.0448898,-0.259677 0.0411417,-0.128157 0.00747638,0.219209 0.00747638,0.303516 0,0.0818819 0.045874,0.195587 0.0999094,0.245311 0.0207598,0.0242638 0.0198661,-0.0510669 -0.00266929,-0.0868031 -0.0299213,-0.0674528 -0.0710512,-0.165244 -0.0523543,-0.276535 0.0187008,-0.111303 0.0478268,-0.218236 0.0253937,-0.299181 -0.00466535,-0.0168031 -0.00861811,-0.0450591 -0.0112047,-0.0753622 -0.0207795,0.00155512 -0.0413976,0.00307874 -0.0617008,0.00447244 -0.0253583,0.11324 -0.0659449,0.18122 -0.0946024,0.258776 -0.0448858,0.121402 0.0112087,0.418181 0.0747992,0.492374 0.0420197,0.0490433 0.0464646,0.151118 0.0435669,0.236496 0.0155669,-0.00265354 0.030752,-0.00555906 0.0453937,-0.00874803 0.002,-0.0485787 0.00227165,-0.0961654 0.000799213,-0.133311z"/>
  <path class="fil7" d="M1.85379 2.88267c0.0182441,-0.00785039 0.0378622,-0.00299213 0.0438189,0.0108504 0.00595669,0.0138425 -0.00400394,0.0314291 -0.022248,0.0392795 -0.0182402,0.00785039 -0.0378583,0.00298819 -0.043815,-0.0108543 -0.00595669,-0.0138425 0.00400394,-0.0314291 0.0222441,-0.0392756z"/>
  <path class="fil5" d="M1.85876 2.89422c0.00739764,-0.0031811 0.016,0.000287402 0.0192087,0.00775197 0.0032126,0.00746457 -0.000181102,0.0160984 -0.00757874,0.0192795 -0.00739764,0.00318504 -0.016,-0.000287402 -0.0192126,-0.00775197 -0.0032126,-0.00746063 0.000185039,-0.0160945 0.00758268,-0.0192795z"/>
  <path class="fil8" d="M1.76967 2.6126c0,0 0.0581457,0.0272205 0.0940276,0.0729961 0.0358819,0.0457756 0.00866142,0.105161 0.00866142,0.105161 0,0 -0.0185591,-0.035878 -0.0494882,-0.0816575 -0.0309291,-0.0457756 -0.0532008,-0.0965 -0.0532008,-0.0965z"/>
  <path class="fil6" d="M1.88813 2.85885c-0.0847087,-0.00749213 -0.086378,0.0870197 -0.113496,0.138433 0.0424724,-0.0370709 0.0389764,-0.130173 0.11937,-0.115728 -0.0022126,-0.00655906 -0.00427953,-0.0172244 -0.00587402,-0.0227047z"/>
  <path class="fil9" d="M1.84948 2.95291c0.0485079,0.00235827 0.0540236,-0.0281654 0.0735984,-0.0731654 -0.0307874,0.0329488 -0.0309488,0.0637677 -0.0794685,0.0544882 0.0022126,0.00655906 0.00427953,0.0132008 0.00587008,0.0186772z"/>
  <path class="fil6" d="M1.55501 3.06728c0.00401969,0.00216929 0.0111339,0.0114449 0.0136063,0.0222717 0.00272047,0.0118937 -0.00591732,0.0587323 -0.00618504,0.0584567 -0.0205866,-0.0211575 -0.0187323,-0.0829528 -0.00742126,-0.0807283z"/>
  <path class="fil10" d="M3.836 3.94844c-0.0145984,0.0178031 -0.0249646,0.0372047 -0.0277756,0.0575866l-0.000165354 0.00140945c-0.00297244,0.0239882 0.00383465,0.0470945 0.0245827,0.0677756 0.0106535,0.0106142 0.0251614,0.0202913 0.0442402,0.0286535l-2.3622e-005 5.51181e-005c0.0554331,0.0245748 0.119283,-0.00496457 0.178476,-0.0555315 0.0585669,-0.0500315 0.115079,-0.122717 0.149622,-0.176665 -0.0411693,-0.067378 -0.112752,-0.120445 -0.182535,-0.174358 -0.000791339,0.0239331 -0.0116969,0.0538622 -0.0273898,0.083378 -0.0246654,0.0463819 -0.0597559,0.0885984 -0.0875236,0.106673 -0.0250748,0.0162992 -0.0523228,0.0376339 -0.0715079,0.0610236z"/>
  <path class="fil10" d="M3.00137 3.70795c0.0131535,0.018815 0.0833976,0.122594 0.116984,0.203831 0.0122087,0.0295276 0.020878,0.0524803 0.0199606,0.0560984 -0.0292756,0.017374 -0.194094,0.120142 -0.115752,0.188047 0.0040748,0.00352362 0.00868898,0.00602362 0.0135236,0.00752756l-1.5748e-005 4.33071e-005c0.000629921,0.000200787 0.216512,0.0702047 0.286807,-0.0388307 0.0176339,-0.017689 0.0605669,-0.0751024 0.0177992,-0.185039 -0.0321811,-0.082811 -0.0402677,-0.161402 -0.0452283,-0.209646 -0.0012874,-0.0125197 -0.0023937,-0.0232165 -0.00350394,-0.0310433 -0.00374016,-0.0261378 -0.0114606,-0.0750551 -0.0212559,-0.114949l-0.00149606 -0.00592126c-0.00706299,-0.000251969 -0.0153937,-0.000594488 -0.0247756,-0.00101575 -0.0159134,-0.000704724 -0.0348307,-0.00162992 -0.0558386,-0.00270866 -0.0235669,-0.00120866 -0.0497165,-0.00261417 -0.0770394,-0.00411811 -0.0173583,-0.000956693 -0.0351929,-0.00195276 -0.0531417,-0.00296457 -0.0349724,-0.00197638 -0.070378,-0.00401575 -0.103555,-0.00595276 -0.0225236,-0.00131496 -0.0440236,-0.00258268 -0.0636654,-0.00374409 -0.00624803,-0.000370079 -0.012311,-0.000728346 -0.0181535,-0.00108268 0.0108898,0.0111496 0.029185,0.0270787 0.0566772,0.0427756 0.0195157,0.0111417 0.0357638,0.0427992 0.049374,0.0693031 0.00756299,0.0147402 0.0145039,0.028252 0.0222953,0.0393898z"/>
  <path class="fil6" d="M4.11448 3.77075c0.000374016,-0.00559055 0.000566929,-0.0107677 0.000566929,-0.0155079 0.00418504,-0.178079 -0.0439646,-0.167244 -0.0479567,-0.0232874 0.0162165,0.0127362 0.0321496,0.0256024 0.0473898,0.0387953z"/>
  <path class="fil6" d="M4.25911 3.74497c0.0074685,0.0327283 0.0149331,0.075252 0.00575591,0.110331 -0.0153228,0.058563 -0.0122402,0.00806693 -0.0130039,-0.00485433 -0.00076378,-0.0129252 -0.00147244,-0.0491772 -0.00749213,-0.0294488 -0.00601969,0.0197323 -0.0203898,0.0331299 -0.0158504,0.0086378 0.0109764,-0.0592323 -0.0113661,-0.084563 -0.0318661,-0.139921 -0.00362598,-0.00979134 -0.00575984,-0.0213386 -0.00650787,-0.0338071 0.00674409,-0.0294567 0.013626,-0.0372402 0.0204291,0.0029252 0.00167323,0.0138819 0.00596457,0.0297559 0.0136496,0.0536496 0.0153937,0.0478386 -0.00899606,-0.160047 0.0348858,0.0324882z"/>
  <path class="fil6" d="M4.27315 3.9125c-0.0074685,0.0542874 -0.014937,0.124823 -0.00575984,0.183008 0.0153268,0.0971378 0.0122402,0.0133819 0.0130039,-0.00805512 0.00076378,-0.021437 0.00147638,-0.0815669 0.00749213,-0.0488425 0.00601969,0.0327244 0.0203898,0.0549488 0.0158504,0.0143268 -0.0109764,-0.098248 0.0113661,-0.140264 0.0318661,-0.232087 0.0183583,-0.0822047 -0.00375984,-0.0849961 -0.0275709,0.0377598 -0.0145039,0.0747913 0.00881496,-0.264118 -0.0348819,0.0538898z"/>
  <path class="fil6" d="M4.38735 3.88007c0,-0.0140197 -0.00196063,-0.0312717 -0.00528346,-0.0495118 -0.0145984,-0.0673622 -0.000637795,-0.0545118 0.0281535,0 0.00261024,0.018874 0.00411417,0.0349685 0.00411417,0.0468622 0.00244488,0.12474 -0.0269843,0.111465 -0.0269843,0.00264961z"/>
  <path class="fil6" d="M4.43932 3.79268c0,-0.00771654 -0.00196063,-0.0172126 -0.00528346,-0.0272559 -0.0145984,-0.0370827 -0.000637795,-0.0300079 0.0281496,0 0.00261024,0.0103898 0.00411811,0.019252 0.00411811,0.0257992 0.00244094,0.0686654 -0.0269843,0.0613583 -0.0269843,0.00145669z"/>
  <path class="fil6" d="M2.39589 3.70043c0.0074685,0.0327283 0.014937,0.075252 0.00575984,0.110331 -0.0153268,0.058563 -0.0122402,0.00807087 -0.0130039,-0.00485433 -0.00076378,-0.0129252 -0.00147638,-0.0491772 -0.00749213,-0.0294488 -0.00601969,0.0197323 -0.0203898,0.0331299 -0.0158504,0.0086378 0.0109764,-0.0592323 -0.0113661,-0.084563 -0.0318661,-0.139921 -0.00362598,-0.0097874 -0.00575984,-0.0213386 -0.00650787,-0.0338071 0.00674016,-0.0294567 0.013626,-0.0372402 0.0204291,0.0029252 0.00167323,0.0138858 0.00596457,0.0297559 0.0136496,0.0536496 0.0153898,0.0478386 -0.009,-0.160047 0.0348819,0.0324882z"/>
  <path class="fil6" d="M2.4446 3.77245c-0.00507874,0.0153346 0.000137795,0.0495827 -0.0101063,0.0683346 -0.0403661,0.0683976 -0.0204409,0.0593976 0.0307953,0.0101969 0.00969291,-0.0197047 0.0171693,-0.0367638 0.0214803,-0.0497756 0.0143425,-0.0406339 0.0148898,-0.0454528 0.0144961,-0.0637047 -0.000444882,-0.0205669 0.0274173,-0.0597717 0.0174291,-0.0573268 -0.0107244,0.00262598 -0.0598031,0.0491142 -0.0740945,0.0922756z"/>
  <path class="fil6" d="M2.5761 3.74814c0,-0.00771654 -0.00196457,-0.0172126 -0.0052874,-0.0272559 -0.0145945,-0.0370787 -0.000637795,-0.0300079 0.0281535,0 0.00261024,0.0103898 0.00411417,0.019252 0.00411417,0.0257992 0.00244488,0.0686654 -0.0269803,0.0613583 -0.0269803,0.00145669z"/>
 </g>
</svg>
