<?xml version="1.0" encoding="UTF-8"?>
<!DOCTYPE svg PUBLIC "-//W3C//DTD SVG 1.1//EN" "http://www.w3.org/Graphics/SVG/1.1/DTD/svg11.dtd">
<!-- Creator: CorelDRAW -->
<svg xmlns="http://www.w3.org/2000/svg" xml:space="preserve" width="6.82666in" height="6.82666in" style="shape-rendering:geometricPrecision; text-rendering:geometricPrecision; image-rendering:optimizeQuality; fill-rule:evenodd; clip-rule:evenodd"
viewBox="0 0 6.82666 6.82666"
 xmlns:xlink="http://www.w3.org/1999/xlink">
 <defs>
  <style type="text/css">
   <![CDATA[
    .fil2 {fill:none}
    .fil1 {fill:#00000000}
    .fil0 {fill:#00000000}
    .fil5 {fill:#EFEBE9}
    .fil3 {fill:#3E2723;fill-rule:nonzero}
    .fil4 {fill:#EFEBE9;fill-rule:nonzero}
   ]]>
  </style>
   <clipPath id="id0">
    <path d="M3.41333 -3.93701e-006c1.88513,0 3.41333,1.5282 3.41333,3.41333 0,1.88513 -1.5282,3.41333 -3.41333,3.41333 -1.88513,0 -3.41333,-1.5282 -3.41333,-3.41333 0,-1.88513 1.5282,-3.41333 3.41333,-3.41333z"/>
   </clipPath>
 </defs>
 <g id="Layer_x0020_1">
  <metadata id="CorelCorpID_0Corel-Layer"/>
  <path class="fil0" d="M3.41333 -3.93701e-006c1.88513,0 3.41333,1.5282 3.41333,3.41333 0,1.88513 -1.5282,3.41333 -3.41333,3.41333 -1.88513,0 -3.41333,-1.5282 -3.41333,-3.41333 0,-1.88513 1.5282,-3.41333 3.41333,-3.41333z"/>
  <g style="clip-path:url(#id0)">
   <g id="_637665760">
    <g>
     <polygon id="_4629468241" class="fil1" points="5.17122,1.89581 8.95749,5.68208 8.97604,5.70731 8.99282,5.73328 9.00784,5.75994 9.02112,5.78719 9.03267,5.81496 9.04249,5.84318 9.0506,5.87176 9.05702,5.90064 9.06174,5.92974 9.0648,5.95898 9.06619,5.98828 9.06593,6.01756 9.06402,6.04676 9.0605,6.07579 9.05535,6.10458 9.04859,6.13306 9.04024,6.16113 9.03031,6.18874 9.01881,6.2158 9.00576,6.24223 8.99115,6.26796 8.97501,6.29292 8.95734,6.31703 8.93817,6.3402 8.91748,6.36237 8.89531,6.38346 8.87167,6.40339 8.84656,6.42208 8.81999,6.43946 8.79198,6.45546 8.75106,6.47721 4.96479,2.69094 5.00571,2.66919 5.03372,2.65319 5.06029,2.63581 5.0854,2.61711 5.10905,2.59719 5.13122,2.5761 5.1519,2.55393 5.17107,2.53076 5.18874,2.50665 5.20488,2.48169 5.21949,2.45596 5.23255,2.42952 5.24405,2.40246 5.25398,2.37486 5.26233,2.34678 5.26908,2.31831 5.27423,2.28952 5.27776,2.26049 5.27966,2.23129 5.27992,2.202 5.27853,2.1727 5.27548,2.14347 5.27075,2.11437 5.26433,2.08549 5.25622,2.05691 5.2464,2.02869 5.23485,2.00091 5.22157,1.97367 5.20655,1.94701 5.18977,1.92104 "/>
     <polygon id="_462946608" class="fil1" points="4.96479,2.69094 8.75106,6.47721 8.77894,6.51426 4.99268,2.72798 "/>
     <polygon id="_542706608" class="fil1" points="2.43993,1.85992 6.2262,5.64619 6.24083,5.66246 6.25477,5.67935 6.268,5.69685 6.2805,5.71493 6.29224,5.73357 6.3032,5.75275 6.31336,5.77246 6.3227,5.79267 6.33119,5.81335 6.3388,5.8345 6.34551,5.85609 6.35131,5.8781 6.35616,5.9005 6.36523,5.94738 2.57896,2.16111 2.56989,2.11423 2.56504,2.09183 2.55924,2.06982 2.55253,2.04823 2.54492,2.02708 2.53643,2.00639 2.52709,1.98619 2.51694,1.96648 2.50597,1.9473 2.49423,1.92865 2.48173,1.91057 2.4685,1.89308 2.45456,1.87619 "/>
     <polygon id="_542706848" class="fil1" points="1.86187,2.69094 5.64814,6.47721 5.60722,6.45546 5.59167,6.44684 5.57648,6.43775 5.56167,6.42818 5.54724,6.41815 5.53321,6.40768 5.51958,6.39676 5.50636,6.38543 5.49355,6.37368 1.70728,2.58741 1.72009,2.59916 1.73331,2.61049 1.74694,2.62141 1.76098,2.63188 1.7754,2.64191 1.79021,2.65148 1.8054,2.66057 1.82095,2.66919 "/>
     <polygon id="_542706872" class="fil1" points="2.58233,4.96661 6.3686,8.75288 6.31544,8.72987 6.26296,8.70526 6.21123,8.67906 6.16032,8.65131 6.11028,8.62203 6.06119,8.59124 6.01312,8.55898 5.96612,8.52528 5.92026,8.49014 5.87562,8.45361 2.08935,4.66734 2.134,4.70387 2.17985,4.739 2.22685,4.77271 2.27493,4.80497 2.32402,4.83576 2.37405,4.86504 2.42496,4.89279 2.4767,4.91898 2.52917,4.9436 "/>
     <polygon id="_542706368" class="fil1" points="4.73591,4.66895 8.52217,8.45522 8.50724,8.46766 8.49219,8.47993 8.477,8.49203 8.46169,8.50396 8.44625,8.51573 8.43069,8.52732 8.41502,8.53875 8.39922,8.55 8.38331,8.56109 8.36729,8.57201 8.35115,8.58276 8.3349,8.59333 8.31855,8.60374 8.30209,8.61399 8.28552,8.62406 8.26885,8.63396 8.25208,8.6437 8.23521,8.65326 8.21824,8.66266 8.20118,8.67189 8.18403,8.68094 8.16678,8.68983 8.14944,8.69856 8.13202,8.70711 8.11451,8.71549 8.09691,8.72371 8.07924,8.73176 8.06148,8.73963 8.04365,8.74734 8.02573,8.75488 8.00774,8.76225 7.98969,8.76945 7.96302,8.77973 7.93626,8.78962 7.90944,8.79911 7.88253,8.80822 7.85555,8.81695 7.8285,8.82529 7.80137,8.83325 7.77417,8.84083 7.7469,8.84804 7.71956,8.85486 7.69216,8.86132 7.66469,8.8674 7.63715,8.87311 7.60955,8.87846 7.58189,8.88344 7.55416,8.88806 7.52638,8.89231 7.49854,8.89621 7.47064,8.89976 7.44269,8.90294 7.41468,8.90577 7.38661,8.90825 7.3585,8.91039 7.33034,8.91217 7.30213,8.91361 7.27387,8.9147 7.24556,8.91546 7.21721,8.91588 7.18882,8.91596 7.16038,8.9157 7.1319,8.91511 7.10339,8.91419 7.09278,8.91376 7.08215,8.91326 7.07148,8.9127 7.06078,8.91209 7.05006,8.91141 7.03931,8.91067 7.02854,8.90987 7.01775,8.90902 7.00695,8.90811 6.99614,8.90713 6.98531,8.90611 6.97448,8.90503 6.96364,8.90389 6.9528,8.9027 6.94196,8.90145 6.93113,8.90015 6.9203,8.8988 6.90948,8.89739 6.89867,8.89594 6.88787,8.89443 6.87709,8.89288 6.86634,8.89127 6.8556,8.88962 6.84489,8.88792 6.83421,8.88617 6.82356,8.88437 6.81294,8.88253 6.80236,8.88064 6.79182,8.8787 6.78131,8.87673 6.77086,8.8747 6.76045,8.87264 6.74783,8.87007 6.73524,8.86742 6.72268,8.86469 6.71014,8.86189 6.69763,8.85901 6.68515,8.85606 6.67269,8.85303 6.66025,8.84993 6.64784,8.84675 6.63545,8.84349 6.62309,8.84016 6.61075,8.83676 6.59844,8.83328 6.58615,8.82972 6.57388,8.82609 6.56164,8.82238 6.54941,8.8186 6.53721,8.81474 6.52504,8.81081 6.51288,8.8068 6.50074,8.80272 6.48863,8.79856 6.47654,8.79433 6.46447,8.79002 6.45242,8.78564 6.44039,8.78119 6.42837,8.77665 6.41638,8.77205 6.40441,8.76737 6.39245,8.76261 6.38052,8.75778 6.3686,8.75288 2.58233,4.96661 2.59425,4.97151 2.60619,4.97634 2.61814,4.98109 2.63011,4.98578 2.64211,4.99038 2.65412,4.99491 2.66615,4.99937 2.6782,5.00375 2.69027,5.00806 2.70237,5.01229 2.71448,5.01645 2.72661,5.02053 2.73877,5.02454 2.75094,5.02847 2.76315,5.03233 2.77537,5.03611 2.78761,5.03981 2.79988,5.04344 2.81217,5.047 2.82448,5.05048 2.83682,5.05389 2.84919,5.05722 2.86157,5.06048 2.87398,5.06365 2.88642,5.06676 2.89888,5.06979 2.91136,5.07274 2.92387,5.07562 2.93641,5.07842 2.94898,5.08115 2.96156,5.0838 2.97418,5.08637 2.98459,5.08843 2.99505,5.09046 3.00555,5.09243 3.01609,5.09437 3.02667,5.09626 3.03729,5.0981 3.04794,5.09989 3.05863,5.10165 3.06933,5.10335 3.08007,5.105 3.09083,5.10661 3.10161,5.10816 3.1124,5.10967 3.12321,5.11112 3.13403,5.11253 3.14486,5.11388 3.15569,5.11518 3.16653,5.11643 3.17737,5.11762 3.18821,5.11876 3.19904,5.11984 3.20987,5.12086 3.22069,5.12183 3.23148,5.12275 3.24227,5.1236 3.25304,5.1244 3.26379,5.12514 3.27451,5.12581 3.28521,5.12643 3.29588,5.12699 3.30652,5.12749 3.31712,5.12792 3.34563,5.12884 3.37411,5.12943 3.40255,5.12969 3.43094,5.12961 3.4593,5.12919 3.4876,5.12843 3.51586,5.12734 3.54407,5.1259 3.57224,5.12411 3.60035,5.12198 3.62841,5.1195 3.65642,5.11667 3.68437,5.11348 3.71227,5.10994 3.74011,5.10604 3.76789,5.10179 3.79562,5.09717 3.82328,5.09219 3.85088,5.08684 3.87842,5.08113 3.90589,5.07505 3.9333,5.06859 3.96063,5.06176 3.98791,5.05456 4.0151,5.04698 4.04223,5.03902 4.06928,5.03068 4.09626,5.02195 4.12317,5.01284 4.15,5.00335 4.17675,4.99346 4.20342,4.98318 4.22148,4.97598 4.23946,4.96861 4.25738,4.96107 4.27521,4.95336 4.29297,4.94548 4.31065,4.93744 4.32824,4.92922 4.34575,4.92084 4.36318,4.91229 4.38051,4.90356 4.39776,4.89467 4.41491,4.88561 4.43198,4.87639 4.44894,4.86699 4.46581,4.85743 4.48258,4.84769 4.49925,4.83779 4.51582,4.82772 4.53228,4.81747 4.54863,4.80706 4.56488,4.79648 4.58102,4.78574 4.59704,4.77482 4.61295,4.76373 4.62875,4.75248 4.64443,4.74105 4.65998,4.72946 4.67542,4.71769 4.69073,4.70576 4.70592,4.69366 4.72098,4.68139 "/>
     <polygon id="_542706416" class="fil1" points="4.99268,2.72798 8.77894,6.51426 8.79584,6.53713 8.81227,6.56026 8.82824,6.58365 8.84373,6.60728 8.85874,6.63114 8.87328,6.65525 8.88733,6.67958 8.90089,6.70415 8.91395,6.72893 8.92652,6.75393 8.93857,6.77915 8.95012,6.80457 8.96115,6.8302 8.97166,6.85602 8.98164,6.88204 8.99109,6.90825 9.00002,6.93465 9.00839,6.96122 9.01623,6.98797 9.02351,7.0149 9.03024,7.04198 9.03641,7.06924 9.04202,7.09665 9.04706,7.1242 9.05152,7.15192 9.0554,7.17977 9.0587,7.20776 9.06141,7.23589 9.06353,7.26414 9.06504,7.29252 9.06596,7.32102 9.06626,7.34963 9.06566,7.38996 9.06385,7.43004 9.06085,7.46985 9.05667,7.50939 9.05134,7.54864 9.04486,7.58759 9.03725,7.62624 9.02852,7.66456 9.0187,7.70254 9.00778,7.74017 8.99579,7.77745 8.98275,7.81435 8.96866,7.85087 8.95354,7.88699 8.93741,7.9227 8.92028,7.95799 8.90217,7.99285 8.88308,8.02726 8.86304,8.0612 8.84206,8.09469 8.82015,8.12768 8.79733,8.16018 8.77361,8.19217 8.74901,8.22365 8.72354,8.25458 8.69722,8.28498 8.67006,8.31481 8.64207,8.34409 8.61327,8.37277 8.58368,8.40087 8.55331,8.42835 8.52217,8.45522 4.73591,4.66895 4.76704,4.64208 4.79741,4.61459 4.827,4.5865 4.8558,4.55781 4.88379,4.52854 4.91095,4.49871 4.93727,4.46831 4.96274,4.43737 4.98734,4.4059 5.01106,4.37391 5.03388,4.34141 5.05579,4.30841 5.07677,4.27493 5.09681,4.24098 5.1159,4.20657 5.13401,4.17172 5.15114,4.13643 5.16728,4.10072 5.18239,4.0646 5.19648,4.02808 5.20952,3.99118 5.22151,3.9539 5.23243,3.91627 5.24226,3.87828 5.25098,3.83996 5.25859,3.80132 5.26507,3.76237 5.27041,3.72311 5.27458,3.68357 5.27758,3.64376 5.27939,3.60369 5.28,3.56336 5.27969,3.53475 5.27878,3.50625 5.27726,3.47787 5.27514,3.44961 5.27243,3.42149 5.26913,3.3935 5.26525,3.36565 5.26079,3.33793 5.25575,3.31037 5.25015,3.28296 5.24397,3.25571 5.23724,3.22863 5.22996,3.2017 5.22213,3.17495 5.21375,3.14837 5.20483,3.12198 5.19537,3.09577 5.18539,3.06975 5.17488,3.04393 5.16385,3.0183 5.1523,2.99287 5.14025,2.96766 5.12769,2.94266 5.11462,2.91787 5.10106,2.89331 5.08702,2.86898 5.07248,2.84487 5.05746,2.821 5.04197,2.79737 5.026,2.77399 5.00957,2.75086 "/>
    </g>
    <path id="_637666048" class="fil1" d="M2.59399 2.15521c0.381598,-0.156657 0.817346,-0.197295 1.22482,-0.121453 0.133957,0.0249331 0.262728,0.0620709 0.384591,0.109953l0.0442992 0.0174055 0.00907087 -0.0468819c0.0232205,-0.120035 0.0879843,-0.225236 0.17872,-0.300004 0.204925,-0.168862 0.505319,-0.154287 0.693287,0.033685 0.24552,0.245524 0.183362,0.658339 -0.123071,0.821272l-0.0409173 0.0217559 0.0278858 0.0370433c0.182642,0.24265 0.287319,0.529547 0.287319,0.835378 0,0.431421 -0.207925,0.822335 -0.544091,1.10559 -0.158563,0.133594 -0.339469,0.238307 -0.532488,0.314232 -0.284051,0.111732 -0.581909,0.156307 -0.886299,0.14474 -0.112894,-0.00429134 -0.232154,-0.0193031 -0.342937,-0.0415512 -0.13472,-0.0270551 -0.264831,-0.0670551 -0.391846,-0.119764 -0.570453,-0.236736 -1.03567,-0.752386 -1.03567,-1.40324 0,-0.305839 0.10465,-0.592724 0.287319,-0.835378l0.0278858 -0.0370433 -0.0409173 -0.0217559c-0.167846,-0.0892441 -0.274287,-0.263102 -0.274287,-0.456177 0,-0.285165 0.231146,-0.516315 0.516311,-0.516315 0.248626,0 0.460276,0.17648 0.506913,0.417539l0.00907087 0.046878 0.0150276 -0.00590157z"/>
   </g>
  </g>
  <path class="fil2" d="M3.41333 -3.93701e-006c1.88513,0 3.41333,1.5282 3.41333,3.41333 0,1.88513 -1.5282,3.41333 -3.41333,3.41333 -1.88513,0 -3.41333,-1.5282 -3.41333,-3.41333 0,-1.88513 1.5282,-3.41333 3.41333,-3.41333z"/>
  <path class="fil3" d="M3.81881 2.03376c-0.130126,-0.0242205 -0.265795,-0.037 -0.40548,-0.037 -0.139673,0 -0.275335,0.0127795 -0.405445,0.037 -0.133965,0.0249331 -0.262748,0.0620787 -0.384626,0.109953l-0.0442992 0.0174016 -0.00907087 -0.046878c-0.0232205,-0.120035 -0.0879843,-0.225236 -0.17872,-0.300004 -0.0891102,-0.0734291 -0.203433,-0.117535 -0.328193,-0.117535 -0.142579,0 -0.271661,0.0577913 -0.365094,0.15122 -0.0934252,0.0934331 -0.151217,0.222512 -0.151217,0.365094 0,0.0973189 0.0268071,0.188232 0.0734134,0.26574 0.0482126,0.0801811 0.117768,0.146248 0.200874,0.190437l0.0409173 0.0217559 -0.0278858 0.0370433c-0.0924724,0.122835 -0.16522,0.257429 -0.214449,0.400598 -0.047437,0.137976 -0.0728701,0.283862 -0.0728701,0.43478 0,0.431421 0.207925,0.822335 0.544091,1.10559 0.338043,0.284839 0.805618,0.461016 1.32257,0.461016 0.516957,0 0.984531,-0.176177 1.32257,-0.461016 0.336165,-0.283252 0.544091,-0.674165 0.544091,-1.10559 0,-0.150906 -0.0254331,-0.29678 -0.0728701,-0.434744 -0.0492283,-0.143177 -0.12198,-0.277783 -0.214449,-0.400634l-0.0278858 -0.0370433 0.0409173 -0.0217559c0.0831063,-0.044189 0.152661,-0.110256 0.200874,-0.190437 0.0466063,-0.0775079 0.0734134,-0.168421 0.0734134,-0.26574 0,-0.142583 -0.0577913,-0.271661 -0.151217,-0.365094 -0.0934331,-0.0934291 -0.222516,-0.15122 -0.365094,-0.15122 -0.12476,0 -0.239083,0.0441063 -0.328193,0.117535 -0.0907362,0.0747677 -0.1555,0.179969 -0.17872,0.300004l-0.00907087 0.0468819 -0.0442992 -0.0174055c-0.121862,-0.0478819 -0.250634,-0.0850197 -0.384591,-0.109953z"/>
  <path class="fil4" d="M2.092 4.66998c0.337945,0.284224 0.805004,0.45998 1.32133,0.45998 0.516331,0 0.983386,-0.175756 1.32133,-0.459984 -0.101283,-0.726201 -0.654264,-1.28137 -1.32133,-1.28137 -0.667071,0 -1.22005,0.555173 -1.32133,1.28137z"/>
  <path class="fil4" d="M4.12822 2.65872c0.0548346,0 0.10448,0.0222323 0.140417,0.0581654 0.0359331,0.035937 0.0581654,0.0855827 0.0581654,0.140417 0,0.0548307 -0.0222323,0.10448 -0.0581654,0.140417 -0.035937,0.035937 -0.0855827,0.0581654 -0.140417,0.0581654 -0.0548307,0 -0.10448,-0.0222283 -0.140417,-0.0581654 -0.0359331,-0.035937 -0.0581654,-0.0855866 -0.0581654,-0.140417 0,-0.0548346 0.0222323,-0.10448 0.0581654,-0.140417 0.035937,-0.0359331 0.0855866,-0.0581654 0.140417,-0.0581654z"/>
  <path class="fil4" d="M2.69844 2.65872c0.0548307,0 0.10448,0.0222323 0.140417,0.0581654 0.0359331,0.035937 0.0581654,0.0855827 0.0581654,0.140417 0,0.0548307 -0.0222323,0.10448 -0.0581654,0.140417 -0.035937,0.035937 -0.0855866,0.0581654 -0.140417,0.0581654 -0.0548346,0 -0.10448,-0.0222283 -0.140417,-0.0581654 -0.0359331,-0.035937 -0.0581654,-0.0855866 -0.0581654,-0.140417 0,-0.0548346 0.0222323,-0.10448 0.0581654,-0.140417 0.035937,-0.0359331 0.0855827,-0.0581654 0.140417,-0.0581654z"/>
  <path class="fil3" d="M3.38633 4.09223l-0.42002 -0.334122 -0.030248 -0.0240669 0.0330866 -0.0199409c0.152146,-0.0917165 0.302398,-0.136181 0.450819,-0.13548 0.148551,0.000704724 0.294394,0.0466339 0.437638,0.135689l0.0323189 0.0200906 -0.0297992 0.0237087 -0.420016 0.334122 0 0.255976c0,0.0353701 -0.0537795,0.0353701 -0.0537795,0l0 -0.255976z"/>
  <path class="fil3" d="M2.78269 2.77305c-0.0215591,-0.0215591 -0.0513543,-0.0348976 -0.0842559,-0.0348976 -0.0329055,0 -0.0626969,0.0133386 -0.0842559,0.0348976 -0.0215551,0.0215551 -0.0348937,0.0513465 -0.0348937,0.084252 0,0.0329055 0.0133386,0.0626969 0.0348937,0.0842559 0.0215591,0.0215551 0.0513504,0.0348937 0.0842559,0.0348937 0.0329016,0 0.0626969,-0.0133386 0.0842559,-0.0348937 0.0215551,-0.0215591 0.0348937,-0.0513504 0.0348937,-0.0842559 0,-0.0329055 -0.0133386,-0.0626969 -0.0348937,-0.084252z"/>
  <path class="fil3" d="M4.21248 2.77305c-0.0215591,-0.0215591 -0.0513504,-0.0348976 -0.0842559,-0.0348976 -0.0329016,0 -0.0626969,0.0133386 -0.0842559,0.0348976 -0.0215551,0.0215551 -0.0348937,0.0513465 -0.0348937,0.084252 0,0.0329055 0.0133386,0.0626969 0.0348937,0.0842559 0.0215591,0.0215551 0.0513543,0.0348937 0.0842559,0.0348937 0.0329055,0 0.0626969,-0.0133386 0.0842559,-0.0348937 0.0215551,-0.0215591 0.0348937,-0.0513504 0.0348937,-0.0842559 0,-0.0329055 -0.0133386,-0.0626969 -0.0348937,-0.084252z"/>
  <path class="fil5" d="M4.43549 1.81423c-0.0907362,0.0747677 -0.1555,0.179969 -0.17872,0.300004l-0.00907087 0.0468819 -0.015 -0.0058937c1.5748e-005,7.87402e-006 3.54331e-005,1.1811e-005 5.11811e-005,1.9685e-005 0.302453,0.124177 0.558988,0.314953 0.742476,0.549563l-3.54331e-005 -4.72441e-005 -0.0104016 -0.013815 0.0409173 -0.0217559c0.0831063,-0.044189 0.152661,-0.110256 0.200874,-0.190437 0.0466063,-0.0775079 0.0734134,-0.168421 0.0734134,-0.26574 0,-0.142583 -0.0577913,-0.271661 -0.151217,-0.365094 -0.0934331,-0.0934291 -0.222516,-0.15122 -0.365094,-0.15122 -0.12476,0 -0.239083,0.0441063 -0.328193,0.117535z"/>
  <path class="fil5" d="M1.69788 1.84791c-0.0934252,0.0934331 -0.151217,0.222512 -0.151217,0.365094 0,0.0973189 0.0268071,0.188232 0.0734134,0.26574 0.0482126,0.0801811 0.117768,0.146248 0.200874,0.190437l0.0409173 0.0217559 -0.0103858 0.0137992c0.183516,-0.234622 0.440091,-0.425402 0.742587,-0.549567l-8.26772e-005 3.54331e-005 -0.0150276 0.00590157 -0.00907087 -0.046878c-0.0232205,-0.120035 -0.0879843,-0.225236 -0.17872,-0.300004 -0.0891102,-0.0734291 -0.203433,-0.117535 -0.328193,-0.117535 -0.142579,0 -0.271661,0.0577913 -0.365094,0.15122z"/>
  <path class="fil3" d="M3.443 4.36803c0.000830709,-0.0163858 -0.0117717,-0.0303504 -0.0281575,-0.0311811 -0.0163858,-0.000834646 -0.0303504,0.0117717 -0.0311811,0.0281575 -0.00161811,0.0313819 -0.0115157,0.0624016 -0.0277205,0.0899016 -0.0170945,0.0290197 -0.0411535,0.0539882 -0.0698386,0.0711969 -0.0281457,0.0168858 -0.060815,0.0262362 -0.0956929,0.0244449 -0.0283701,-0.00145669 -0.0584646,-0.0102795 -0.0891535,-0.0283622 -0.0141339,-0.0082874 -0.0323189,-0.00354724 -0.0406102,0.0105866 -0.0082874,0.0141378 -0.00354724,0.0323228 0.0105866,0.0406102 0.0394094,0.0232165 0.0786732,0.0345827 0.11615,0.0365039 0.0472953,0.00243701 0.091378,-0.010126 0.129205,-0.0328189 0.0372953,-0.022374 0.0684843,-0.0546811 0.0905512,-0.0921378 0.0209449,-0.0355472 0.033752,-0.075874 0.0358622,-0.116902z"/>
  <path class="fil3" d="M3.38089 4.36803c-0.000830709,-0.0163858 0.0117717,-0.0303504 0.0281575,-0.0311811 0.0163858,-0.000834646 0.0303504,0.0117717 0.031185,0.0281575 0.00161417,0.0313819 0.0115118,0.0624016 0.0277165,0.0899016 0.0170945,0.0290197 0.0411535,0.0539882 0.0698386,0.0711969 0.0281496,0.0168858 0.060815,0.0262362 0.0956929,0.0244449 0.0283701,-0.00145669 0.0584646,-0.0102795 0.0891535,-0.0283622 0.0141378,-0.0082874 0.0323228,-0.00354724 0.0406102,0.0105866 0.0082874,0.0141378 0.00354724,0.0323228 -0.0105866,0.0406102 -0.0394094,0.0232165 -0.0786732,0.0345827 -0.11615,0.0365039 -0.0472953,0.00243701 -0.091378,-0.010126 -0.129205,-0.0328189 -0.0372953,-0.022374 -0.0684803,-0.0546811 -0.0905512,-0.0921378 -0.0209449,-0.0355472 -0.033748,-0.075874 -0.0358622,-0.116902z"/>
 </g>
</svg>
