<?xml version="1.0" encoding="UTF-8"?>
<!DOCTYPE svg PUBLIC "-//W3C//DTD SVG 1.1//EN" "http://www.w3.org/Graphics/SVG/1.1/DTD/svg11.dtd">
<!-- Creator: CorelDRAW -->
<svg xmlns="http://www.w3.org/2000/svg" xml:space="preserve" width="6.82666in" height="6.82666in" style="shape-rendering:geometricPrecision; text-rendering:geometricPrecision; image-rendering:optimizeQuality; fill-rule:evenodd; clip-rule:evenodd"
viewBox="0 0 6.82666 6.82666"
 xmlns:xlink="http://www.w3.org/1999/xlink">
 <defs>
  <style type="text/css">
   <![CDATA[
    .fil2 {fill:none}
    .fil14 {fill:#3E2723}
    .fil3 {fill:#42250B}
    .fil9 {fill:#424242}
    .fil1 {fill:#00000000}
    .fil10 {fill:#5D3512}
    .fil0 {fill:#00000000}
    .fil13 {fill:#FFCC00}
    .fil7 {fill:#263238;fill-rule:nonzero}
    .fil5 {fill:#331B05;fill-rule:nonzero}
    .fil8 {fill:#424242;fill-rule:nonzero}
    .fil4 {fill:#522F0F;fill-rule:nonzero}
    .fil12 {fill:#E3CF91;fill-rule:nonzero}
    .fil11 {fill:#EEDA9D;fill-rule:nonzero}
    .fil6 {fill:white;fill-rule:nonzero}
   ]]>
  </style>
   <clipPath id="id0">
    <path d="M3.41333 -3.93701e-006c1.88513,0 3.41333,1.5282 3.41333,3.41333 0,1.88513 -1.5282,3.41333 -3.41333,3.41333 -1.88513,0 -3.41333,-1.5282 -3.41333,-3.41333 0,-1.88513 1.5282,-3.41333 3.41333,-3.41333z"/>
   </clipPath>
 </defs>
 <g id="Layer_x0020_1">
  <metadata id="CorelCorpID_0Corel-Layer"/>
  <path class="fil0" d="M3.41333 -3.93701e-006c1.88513,0 3.41333,1.5282 3.41333,3.41333 0,1.88513 -1.5282,3.41333 -3.41333,3.41333 -1.88513,0 -3.41333,-1.5282 -3.41333,-3.41333 0,-1.88513 1.5282,-3.41333 3.41333,-3.41333z"/>
  <g style="clip-path:url(#id0)">
   <g id="_637665952">
    <g>
     <polygon id="_5427062001" class="fil1" points="3.98101,1.55339 7.76728,5.33966 7.7701,5.34294 7.77219,5.34676 7.77335,5.35086 7.77356,5.35496 7.77287,5.35895 7.77133,5.36272 7.769,5.36617 7.76593,5.36919 7.76219,5.37166 7.75784,5.37349 3.97157,1.58722 3.97593,1.58539 3.97966,1.58292 3.98273,1.5799 3.98506,1.57645 3.9866,1.57268 3.9873,1.56869 3.98709,1.56459 3.98592,1.56048 3.98383,1.55667 "/>
     <polygon id="_542706488" class="fil1" points="3.97157,1.58722 7.75784,5.37349 7.74424,5.37763 7.73041,5.38233 7.71636,5.38756 7.70214,5.39331 7.68776,5.39957 7.67327,5.40631 7.65869,5.41354 7.64404,5.42121 7.62936,5.42933 7.61467,5.43788 7.60001,5.44683 7.58541,5.45619 7.57088,5.46591 7.55647,5.476 7.5422,5.48644 7.5281,5.49722 7.5142,5.5083 7.50053,5.51969 7.48712,5.53136 7.47399,5.5433 7.46118,5.5555 7.44872,5.56793 7.43663,5.58058 7.42494,5.59344 7.41369,5.60649 7.40289,5.61971 7.39259,5.63309 7.38281,5.64662 7.37358,5.66027 7.36493,5.67403 7.35688,5.68789 7.34947,5.70183 3.5632,1.91556 3.57061,1.90162 3.57866,1.88776 3.58731,1.874 3.59655,1.86035 3.60633,1.84682 3.61663,1.83344 3.62742,1.82022 3.63867,1.80717 3.65036,1.79431 3.66245,1.78166 3.67491,1.76923 3.68772,1.75703 3.70085,1.74509 3.71426,1.73342 3.72793,1.72203 3.74183,1.71094 3.75593,1.70017 3.7702,1.68973 3.78461,1.67964 3.79914,1.66991 3.81374,1.66056 3.82841,1.65161 3.84309,1.64306 3.85777,1.63494 3.87242,1.62726 3.887,1.62004 3.9015,1.6133 3.91587,1.60704 3.93009,1.60129 3.94414,1.59606 3.95797,1.59136 "/>
     <polygon id="_542707568" class="fil1" points="3.81467,2.04825 7.60094,5.83452 7.60648,5.84085 7.61191,5.84726 7.61721,5.85377 7.62239,5.86037 7.62743,5.86705 7.63235,5.87381 7.63713,5.88067 7.64179,5.8876 7.64631,5.89462 7.65069,5.90171 7.65494,5.90889 7.65904,5.91614 7.66301,5.92346 7.66683,5.93087 7.67052,5.93834 7.67405,5.94588 7.67744,5.9535 7.68067,5.96118 7.68376,5.96893 7.6867,5.97674 7.68948,5.98462 7.69211,5.99256 7.69458,6.00056 7.69689,6.00862 7.69904,6.01674 7.70103,6.02492 3.91476,2.23865 3.91277,2.23047 3.91062,2.22235 3.90831,2.21429 3.90584,2.20629 3.90321,2.19835 3.90043,2.19047 3.89749,2.18266 3.89441,2.17491 3.89117,2.16722 3.88778,2.15961 3.88425,2.15207 3.88057,2.14459 3.87674,2.13719 3.87278,2.12987 3.86867,2.12262 3.86443,2.11544 3.86004,2.10835 3.85552,2.10133 3.85087,2.09439 3.84608,2.08754 3.84117,2.08078 3.83612,2.07409 3.83094,2.0675 3.82564,2.06099 3.82022,2.05457 "/>
     <polygon id="_542707136" class="fil1" points="3.91476,2.23865 7.70103,6.02492 7.70231,6.03061 7.70352,6.03633 7.70465,6.04208 7.70569,6.04785 7.70666,6.05365 7.70754,6.05947 7.70835,6.06531 7.70907,6.07118 7.7097,6.07707 7.71026,6.08298 7.71073,6.08891 7.71111,6.09487 7.71141,6.10085 7.71163,6.10684 7.71176,6.11285 7.7118,6.11889 3.92554,2.33262 3.92549,2.32658 3.92536,2.32057 3.92515,2.31457 3.92485,2.3086 3.92446,2.30264 3.92399,2.29671 3.92344,2.2908 3.9228,2.28491 3.92208,2.27904 3.92128,2.2732 3.92039,2.26738 3.91943,2.26158 3.91838,2.25581 3.91726,2.25006 3.91605,2.24434 "/>
     <polygon id="_542707352" class="fil1" points="3.92554,2.33262 7.7118,6.11889 7.71179,6.12245 7.71174,6.126 7.71166,6.12956 7.71155,6.13312 7.71141,6.13667 7.71124,6.14023 7.71104,6.14378 7.7108,6.14733 7.71054,6.15089 7.71024,6.15443 7.70991,6.15798 7.70955,6.16153 7.70916,6.16507 7.70874,6.16861 7.70829,6.17215 7.70781,6.17569 3.92154,2.38941 3.92202,2.38588 3.92247,2.38234 3.92289,2.3788 3.92328,2.37526 3.92364,2.37171 3.92397,2.36816 3.92427,2.36461 3.92453,2.36106 3.92477,2.35751 3.92497,2.35396 3.92514,2.3504 3.92528,2.34685 3.92539,2.34329 3.92547,2.33973 3.92552,2.33618 "/>
     <polygon id="_542707208" class="fil1" points="3.92154,2.38941 7.70781,6.17569 7.706,6.17549 7.70419,6.17526 7.70236,6.175 7.70052,6.1747 7.69868,6.17438 7.69683,6.17403 7.69497,6.17364 7.6931,6.17322 3.90683,2.38695 3.9087,2.38737 3.91056,2.38776 3.91241,2.38811 3.91426,2.38843 3.91609,2.38872 3.91792,2.38899 3.91973,2.38922 "/>
     <polygon id="_542707160" class="fil1" points="3.90683,2.38695 7.6931,6.17322 7.69251,6.17861 7.69185,6.18399 7.69113,6.18936 7.69033,6.19472 7.68946,6.20008 7.68852,6.20543 7.6875,6.21076 7.68642,6.21609 7.68527,6.2214 7.68405,6.2267 7.68276,6.232 7.6814,6.23728 7.67997,6.24254 7.67847,6.2478 7.6769,6.25303 7.67527,6.25826 3.889,2.47198 3.89063,2.46676 3.8922,2.46152 3.8937,2.45627 3.89513,2.451 3.89649,2.44572 3.89778,2.44043 3.899,2.43513 3.90015,2.42981 3.90124,2.42449 3.90225,2.41915 3.90319,2.41381 3.90406,2.40845 3.90486,2.40309 3.90559,2.39772 3.90624,2.39234 "/>
     <polygon id="_542707016" class="fil1" points="3.17628,1.79431 6.96255,5.58058 6.95046,5.56793 6.93799,5.5555 6.92518,5.5433 6.91206,5.53136 6.89864,5.51969 6.88497,5.5083 6.87107,5.49722 6.85697,5.48644 6.8427,5.476 6.82829,5.46591 6.81377,5.45619 6.79916,5.44683 6.7845,5.43788 6.76981,5.42933 6.75513,5.42121 6.74049,5.41354 6.7259,5.40631 6.71141,5.39957 6.69704,5.39331 6.68281,5.38756 6.66877,5.38233 6.65493,5.37763 6.64133,5.37349 2.85507,1.58722 2.86867,1.59136 2.8825,1.59606 2.89654,1.60129 2.91077,1.60704 2.92514,1.6133 2.93963,1.62004 2.95422,1.62726 2.96887,1.63494 2.98355,1.64306 2.99823,1.65161 3.01289,1.66056 3.0275,1.66991 3.04202,1.67964 3.05644,1.68973 3.0707,1.70017 3.0848,1.71094 3.0987,1.72203 3.11237,1.73342 3.12579,1.74509 3.13891,1.75703 3.15172,1.76923 3.16419,1.78166 "/>
     <polygon id="_542707640" class="fil1" points="3.16999,1.75365 6.95626,5.53992 6.96845,5.55353 6.98024,5.56735 6.99157,5.58137 7.00243,5.59556 7.01279,5.60991 7.02261,5.62439 7.03186,5.639 7.04052,5.65371 7.04855,5.6685 7.05593,5.68337 7.06262,5.69828 3.27635,1.91201 3.26966,1.89709 3.26228,1.88223 3.25425,1.86744 3.24559,1.85272 3.23634,1.83812 3.22652,1.82363 3.21617,1.80929 3.2053,1.79509 3.19397,1.78108 3.18219,1.76726 "/>
     <polygon id="_542707064" class="fil1" points="3.86192,2.46309 7.64819,6.24936 7.64548,6.25365 7.64298,6.25774 7.64068,6.26166 7.63856,6.26542 7.63662,6.26903 7.63486,6.27251 7.63326,6.27587 7.63181,6.27913 7.63051,6.28231 7.62935,6.28541 7.62832,6.28844 7.62741,6.29143 7.62663,6.2944 7.62594,6.29734 7.62535,6.30029 7.62486,6.30324 3.83859,2.51697 3.83909,2.51402 3.83967,2.51107 3.84036,2.50813 3.84115,2.50516 3.84205,2.50217 3.84308,2.49913 3.84424,2.49604 3.84554,2.49286 3.84699,2.4896 3.84859,2.48624 3.85035,2.48276 3.85229,2.47915 3.85441,2.47539 3.85672,2.47147 3.85922,2.46737 "/>
     <polygon id="_542706944" class="fil1" points="3.88654,2.47941 7.67281,6.26568 7.66985,6.26369 7.66685,6.26169 7.66382,6.25967 7.66076,6.25763 7.65766,6.25559 7.65454,6.25352 7.65138,6.25145 7.64819,6.24936 3.86192,2.46309 3.86511,2.46518 3.86827,2.46725 3.87139,2.46931 3.87449,2.47136 3.87755,2.4734 3.88058,2.47542 3.88358,2.47742 "/>
     <polygon id="_542707328" class="fil1" points="4.54659,3.17228 8.33286,6.95855 8.33605,6.96294 8.33922,6.96733 8.34238,6.97172 8.34552,6.97612 8.34863,6.98052 8.35173,6.98492 8.35481,6.98932 8.35787,6.99372 8.36092,6.99813 8.36394,7.00254 8.36695,7.00694 8.36994,7.01135 8.3729,7.01576 8.37585,7.02017 8.37878,7.02459 8.38169,7.029 8.38457,7.03342 8.38744,7.03783 8.39029,7.04225 8.39311,7.04667 8.39592,7.05109 8.3987,7.0555 8.40147,7.05992 8.40421,7.06434 8.40694,7.06876 8.40963,7.07318 8.41231,7.0776 8.41497,7.08202 8.41761,7.08644 8.42022,7.09086 8.42281,7.09528 8.42538,7.0997 4.63911,3.31343 4.63654,3.30901 4.63395,3.30459 4.63134,3.30017 4.6287,3.29575 4.62605,3.29133 4.62337,3.28691 4.62067,3.28249 4.61794,3.27807 4.6152,3.27365 4.61244,3.26923 4.60965,3.26481 4.60685,3.26039 4.60402,3.25598 4.60117,3.25156 4.59831,3.24715 4.59542,3.24273 4.59251,3.23831 4.58958,3.2339 4.58663,3.22949 4.58367,3.22508 4.58068,3.22067 4.57768,3.21626 4.57465,3.21185 4.57161,3.20745 4.56855,3.20305 4.56546,3.19865 4.56237,3.19424 4.55925,3.18985 4.55611,3.18545 4.55296,3.18106 4.54978,3.17667 "/>
     <polygon id="_542707856" class="fil1" points="3.20693,1.91788 6.9932,5.70415 6.9935,5.70619 6.99378,5.70824 6.99405,5.71031 6.99429,5.71239 6.99451,5.7145 6.99471,5.71662 6.9949,5.71876 6.99506,5.72092 3.20879,1.93465 3.20863,1.93249 3.20844,1.93035 3.20824,1.92823 3.20802,1.92612 3.20778,1.92404 3.20752,1.92196 3.20724,1.91991 "/>
     <polygon id="_542708024" class="fil1" points="2.97381,2.45717 6.76008,6.24344 6.75567,6.2463 6.75131,6.24915 6.74701,6.25196 6.74276,6.25476 6.73857,6.25753 6.73444,6.26028 6.73037,6.26299 6.72635,6.26568 2.94009,2.47941 2.9441,2.47672 2.94817,2.474 2.9523,2.47126 2.95649,2.46848 2.96074,2.46569 2.96504,2.46287 2.9694,2.46003 "/>
     <polygon id="_542708408" class="fil1" points="4.75274,4.59919 8.53901,8.38546 8.5358,8.38777 8.53261,8.39001 8.52943,8.39218 8.52628,8.39428 8.52315,8.3963 8.52004,8.39825 8.51695,8.40013 8.51388,8.40193 4.72761,4.61566 4.73068,4.61385 4.73377,4.61198 4.73688,4.61003 4.74002,4.608 4.74317,4.60591 4.74634,4.60374 4.74953,4.6015 "/>
     <polygon id="_542707712" class="fil1" points="4.72761,4.61566 8.51388,8.40193 8.50315,8.40783 8.49223,8.41325 8.48112,8.41817 8.46983,8.4226 8.45837,8.42655 8.44673,8.43002 8.43493,8.43301 8.42296,8.43553 8.41083,8.43757 8.39856,8.43915 8.38613,8.44026 8.37357,8.4409 8.36086,8.44109 8.34802,8.44082 8.33505,8.4401 8.32195,8.43893 8.30874,8.43731 8.29541,8.43525 8.28197,8.43274 8.26843,8.42981 8.25478,8.42643 8.24104,8.42263 8.2272,8.41839 8.21328,8.41374 8.19928,8.40866 8.1852,8.40316 8.17105,8.39724 8.15683,8.39092 8.14254,8.38418 8.1282,8.37704 8.1138,8.3695 8.09936,8.36155 4.31309,4.57528 4.32754,4.58322 4.34193,4.59077 4.35628,4.59791 4.37056,4.60465 4.38478,4.61097 4.39893,4.61689 4.41301,4.62239 4.42702,4.62746 4.44094,4.63212 4.45477,4.63635 4.46851,4.64016 4.48216,4.64354 4.4957,4.64647 4.50914,4.64898 4.52247,4.65104 4.53569,4.65266 4.54878,4.65383 4.56175,4.65455 4.57459,4.65482 4.5873,4.65463 4.59987,4.65398 4.61229,4.65287 4.62457,4.6513 4.63669,4.64926 4.64866,4.64674 4.66046,4.64375 4.6721,4.64028 4.68356,4.63633 4.69485,4.6319 4.70596,4.62698 4.71688,4.62156 "/>
     <polygon id="_542708456" class="fil1" points="4.01501,4.33129 7.80128,8.11756 7.80072,8.12196 7.80016,8.12636 7.79959,8.13076 7.79902,8.13514 7.79843,8.13952 7.79784,8.1439 7.79724,8.14826 7.79663,8.15263 7.79602,8.15698 7.7954,8.16133 7.79477,8.16567 7.79413,8.17 7.79349,8.17433 7.79283,8.17866 7.79218,8.18297 7.79151,8.18728 7.79084,8.19158 7.79015,8.19588 7.78947,8.20017 7.78877,8.20445 7.78807,8.20872 7.78736,8.21299 7.78664,8.21725 7.78591,8.22151 7.78518,8.22576 7.78444,8.23 7.78369,8.23423 7.78294,8.23846 7.78218,8.24267 7.78141,8.24689 7.78063,8.25109 7.77985,8.25529 3.99358,4.46902 3.99437,4.46482 3.99514,4.46061 3.99591,4.4564 3.99667,4.45219 3.99743,4.44796 3.99817,4.44372 3.99891,4.43948 3.99965,4.43524 4.00037,4.43098 4.00109,4.42672 4.0018,4.42245 4.0025,4.41818 4.0032,4.41389 4.00389,4.40961 4.00457,4.40531 4.00524,4.40101 4.00591,4.3967 4.00657,4.39239 4.00722,4.38806 4.00787,4.38373 4.0085,4.3794 4.00913,4.37506 4.00975,4.37071 4.01037,4.36635 4.01097,4.36199 4.01157,4.35763 4.01217,4.35325 4.01275,4.34887 4.01332,4.34448 4.01389,4.34009 4.01445,4.33569 "/>
     <polygon id="_542708264" class="fil1" points="4.31309,4.57528 8.09936,8.36155 8.09017,8.3563 8.08096,8.35089 8.07172,8.34532 8.06248,8.33959 8.05321,8.3337 8.04393,8.32765 8.03463,8.32144 8.02531,8.31508 8.01599,8.30856 8.00666,8.30189 7.99731,8.29506 7.98796,8.28807 7.9786,8.28094 7.96924,8.27365 7.95987,8.26621 7.9505,8.25863 7.94113,8.25089 7.93176,8.243 7.92239,8.23497 7.91302,8.22679 7.90365,8.21847 7.89429,8.21 7.88494,8.20139 7.87559,8.19263 7.86626,8.18374 7.85693,8.1747 4.07067,4.38843 4.07999,4.39746 4.08933,4.40636 4.09867,4.41512 4.10802,4.42373 4.11739,4.4322 4.12675,4.44052 4.13612,4.4487 4.14549,4.45673 4.15486,4.46461 4.16423,4.47235 4.17361,4.47994 4.18297,4.48738 4.19233,4.49467 4.2017,4.5018 4.21105,4.50878 4.22039,4.51561 4.22972,4.52229 4.23905,4.52881 4.24836,4.53517 4.25766,4.54138 4.26694,4.54743 4.27621,4.55332 4.28546,4.55905 4.29469,4.56462 4.3039,4.57003 "/>
     <polygon id="_542707736" class="fil1" points="3.99853,4.46902 7.7848,8.25529 7.78356,8.26086 7.78232,8.26642 7.78107,8.27197 7.7798,8.2775 7.77853,8.28302 7.77724,8.28852 7.77594,8.29402 7.77464,8.29949 7.77332,8.30496 7.77199,8.31041 7.77065,8.31584 7.7693,8.32127 7.76794,8.32667 7.76657,8.33207 7.76519,8.33745 7.7638,8.34281 7.7624,8.34817 7.76098,8.3535 7.75956,8.35883 7.75813,8.36414 7.75669,8.36943 7.75523,8.37471 7.75377,8.37998 7.75229,8.38522 7.75081,8.39046 7.74931,8.39568 7.74781,8.40089 7.74629,8.40608 7.74477,8.41126 7.74323,8.41642 7.74169,8.42156 7.74013,8.42669 3.95386,4.64042 3.95542,4.63529 3.95696,4.63015 3.9585,4.62498 3.96002,4.61981 3.96154,4.61462 3.96304,4.60941 3.96454,4.60419 3.96602,4.59895 3.9675,4.5937 3.96896,4.58844 3.97042,4.58316 3.97186,4.57787 3.9733,4.57256 3.97472,4.56723 3.97613,4.56189 3.97753,4.55654 3.97893,4.55118 3.98031,4.5458 3.98168,4.5404 3.98304,4.535 3.98439,4.52957 3.98572,4.52413 3.98706,4.51869 3.98837,4.51322 3.98968,4.50774 3.99098,4.50225 3.99226,4.49675 3.99354,4.49123 3.9948,4.4857 3.99606,4.48015 3.9973,4.47459 "/>
     <polygon id="_542708144" class="fil1" points="3.95386,4.64042 7.74013,8.42669 7.73786,8.43476 7.73556,8.44279 7.73323,8.45078 7.73088,8.45874 7.7285,8.46665 7.72608,8.47453 7.72365,8.48237 7.72118,8.49017 7.71868,8.49793 7.71616,8.50565 7.71361,8.51333 7.71104,8.52097 7.70843,8.52857 7.7058,8.53613 7.70315,8.54365 7.70046,8.55113 3.9142,4.76486 3.91688,4.75738 3.91954,4.74986 3.92217,4.7423 3.92477,4.7347 3.92734,4.72706 3.92989,4.71938 3.93241,4.71166 3.93491,4.7039 3.93738,4.6961 3.93981,4.68826 3.94223,4.68038 3.94461,4.67246 3.94696,4.66451 3.94929,4.65652 3.95159,4.64849 "/>
     <polygon id="_542708000" class="fil1" points="2.81165,4.33129 6.59792,8.11756 6.58869,8.12743 6.57943,8.13715 6.57017,8.14675 6.56088,8.1562 6.55158,8.16552 6.54226,8.1747 6.53294,8.18374 6.5236,8.19263 6.51426,8.20139 6.50491,8.21 6.49554,8.21847 6.48618,8.22679 6.47681,8.23497 6.46744,8.243 6.45807,8.25089 6.4487,8.25863 6.43932,8.26621 6.42996,8.27365 6.42059,8.28094 6.41123,8.28807 6.40188,8.29506 6.39254,8.30189 6.3832,8.30856 6.37388,8.31508 6.36457,8.32144 6.35527,8.32765 6.34599,8.3337 6.33672,8.33959 6.32747,8.34532 6.31824,8.35089 6.30903,8.3563 6.29984,8.36155 2.51357,4.57528 2.52276,4.57003 2.53197,4.56462 2.5412,4.55905 2.55045,4.55332 2.55972,4.54743 2.569,4.54138 2.5783,4.53517 2.58761,4.52881 2.59694,4.52229 2.60627,4.51561 2.61561,4.50878 2.62496,4.5018 2.63433,4.49467 2.64369,4.48738 2.65306,4.47994 2.66243,4.47235 2.6718,4.46461 2.68117,4.45673 2.69054,4.4487 2.69991,4.44052 2.70928,4.4322 2.71864,4.42373 2.72799,4.41512 2.73733,4.40636 2.74667,4.39746 2.756,4.38843 2.76531,4.37925 2.77461,4.36993 2.7839,4.36048 2.79317,4.35088 2.80242,4.34115 "/>
     <polygon id="_542708192" class="fil1" points="3.854,4.89692 7.64026,8.68319 6.75887,8.68319 2.97261,4.89692 "/>
     <polygon id="_542708984" class="fil1" points="3.9142,4.76486 7.70046,8.55113 7.69778,8.5585 7.69507,8.56584 7.69233,8.57313 7.68956,8.58039 7.68678,8.58759 7.68396,8.59476 7.68112,8.60189 7.67826,8.60896 7.67537,8.616 7.67245,8.623 7.66951,8.62995 7.66655,8.63686 7.66356,8.64372 7.66055,8.65054 7.65752,8.65731 7.65446,8.66404 7.65137,8.67072 7.64826,8.67736 7.64513,8.68395 7.64198,8.6905 7.6388,8.697 7.6356,8.70345 7.63238,8.70985 7.62913,8.71621 7.62587,8.72252 7.62257,8.72879 7.61926,8.735 7.61593,8.74117 7.61257,8.74728 7.60919,8.75335 7.60579,8.75937 7.60236,8.76534 3.81609,4.97907 3.81952,4.9731 3.82292,4.96708 3.8263,4.96101 3.82966,4.9549 3.83299,4.94873 3.83631,4.94252 3.8396,4.93625 3.84287,4.92994 3.84611,4.92358 3.84933,4.91718 3.85254,4.91073 3.85571,4.90423 3.85887,4.89768 3.862,4.89109 3.8651,4.88445 3.86819,4.87777 3.87125,4.87104 3.87428,4.86427 3.8773,4.85745 3.88028,4.85059 3.88324,4.84368 3.88619,4.83673 3.8891,4.82973 3.89199,4.82269 3.89485,4.81561 3.89769,4.80849 3.90051,4.80132 3.9033,4.79411 3.90606,4.78686 3.9088,4.77957 3.91151,4.77223 "/>
     <polygon id="_542708840" class="fil1" points="2.97261,4.89692 6.75887,8.68319 6.76149,8.68848 6.76413,8.69375 6.76677,8.69898 6.76943,8.70418 6.7721,8.70935 6.77479,8.71449 6.77748,8.7196 6.7802,8.72468 6.78292,8.72973 6.78566,8.73474 6.78841,8.73973 6.79117,8.74468 6.79394,8.7496 6.79673,8.75449 6.79954,8.75935 6.80235,8.76418 3.01608,4.97791 3.01327,4.97308 3.01046,4.96822 3.00768,4.96333 3.0049,4.95841 3.00214,4.95346 2.99939,4.94847 2.99665,4.94346 2.99393,4.93841 2.99122,4.93333 2.98852,4.92822 2.98583,4.92308 2.98316,4.91791 2.9805,4.91271 2.97786,4.90748 2.97522,4.90221 "/>
     <polygon id="_542708744" class="fil1" points="3.01608,4.97791 6.80235,8.76418 6.80443,8.76772 6.80652,8.77124 6.80861,8.77474 6.81072,8.77823 6.81283,8.7817 6.81494,8.78515 6.81707,8.78859 6.8192,8.792 6.82133,8.7954 6.82348,8.79878 6.82563,8.80214 6.82778,8.80549 6.82994,8.80881 6.83211,8.81212 6.83429,8.81541 6.83647,8.81868 3.0502,5.03241 3.04802,5.02914 3.04584,5.02585 3.04367,5.02254 3.04151,5.01922 3.03936,5.01587 3.03721,5.01251 3.03506,5.00913 3.03293,5.00573 3.0308,5.00231 3.02868,4.99888 3.02656,4.99543 3.02445,4.99196 3.02235,4.98847 3.02025,4.98497 3.01816,4.98144 "/>
     <polygon id="_542708504" class="fil1" points="3.0502,5.03241 6.83647,8.81868 6.84632,8.83311 6.85629,8.84715 6.86637,8.86081 6.87658,8.87407 6.88689,8.88694 6.89732,8.89941 6.90785,8.91147 6.91849,8.92312 6.92924,8.93435 6.94008,8.94517 6.95102,8.95555 6.96206,8.9655 3.17579,5.17923 3.16475,5.16928 3.15381,5.15889 3.14297,5.14808 3.13222,5.13685 3.12158,5.1252 3.11105,5.11314 3.10063,5.10067 3.09031,5.0878 3.08011,5.07454 3.07002,5.06088 3.06005,5.04683 "/>
     <polygon id="_542708696" class="fil1" points="3.41311,5.28 7.19938,9.06627 7.1993,9.06627 7.19921,9.06627 7.19913,9.06627 7.19904,9.06627 7.19896,9.06627 7.19887,9.06627 7.19879,9.06627 7.1987,9.06627 3.41244,5.28 3.41252,5.28 3.41261,5.28 3.41269,5.28 3.41277,5.28 3.41286,5.28 3.41294,5.28 3.41303,5.28 "/>
     <polygon id="_542708792" class="fil1" points="3.41244,5.28 7.1987,9.06627 7.18437,9.0659 7.17011,9.06487 7.15593,9.0632 7.14184,9.06089 7.12784,9.05795 7.11394,9.05438 7.10013,9.05019 7.08643,9.0454 7.07283,9.04 7.05933,9.034 7.04595,9.02741 7.03268,9.02024 7.01953,9.01249 7.0065,9.00417 6.9936,8.9953 6.98083,8.98587 6.96819,8.97589 6.95569,8.96537 3.16942,5.1791 3.18192,5.18961 3.19456,5.19959 3.20733,5.20903 3.22024,5.2179 3.23326,5.22622 3.24641,5.23396 3.25968,5.24114 3.27306,5.24772 3.28656,5.25372 3.30016,5.25913 3.31387,5.26392 3.32767,5.26811 3.34157,5.27168 3.35557,5.27462 3.36967,5.27693 3.38384,5.2786 3.3981,5.27963 "/>
     <polygon id="_542708648" class="fil1" points="3.81609,4.97907 7.60236,8.76534 7.59211,8.78271 7.58167,8.79965 7.57104,8.81612 7.56024,8.83215 7.54926,8.8477 7.53811,8.86279 7.5268,8.8774 7.51531,8.89152 7.50367,8.90515 7.49187,8.91828 7.47992,8.93091 7.46782,8.94302 7.45557,8.9546 7.44317,8.96566 7.43064,8.97619 7.41797,8.98617 7.40517,8.9956 7.39224,9.00448 7.37918,9.01279 7.366,9.02053 7.3527,9.02769 7.33929,9.03427 7.32576,9.04025 7.31213,9.04563 7.29839,9.05041 7.28455,9.05457 7.27061,9.05812 7.25658,9.06103 7.24246,9.06331 7.22826,9.06495 7.21396,9.06594 7.19959,9.06627 3.41332,5.28 3.4277,5.27967 3.44199,5.27868 3.4562,5.27704 3.47031,5.27476 3.48435,5.27185 3.49828,5.2683 3.51212,5.26414 3.52586,5.25936 3.5395,5.25398 3.55302,5.248 3.56643,5.24142 3.57973,5.23426 3.59291,5.22652 3.60597,5.2182 3.6189,5.20933 3.6317,5.1999 3.64437,5.18992 3.65691,5.17939 3.6693,5.16833 3.68155,5.15674 3.69365,5.14463 3.70561,5.13201 3.71741,5.11888 3.72905,5.10525 3.74053,5.09113 3.75185,5.07652 3.76299,5.06143 3.77397,5.04587 3.78477,5.02985 3.7954,5.01337 3.80584,4.99644 "/>
     <polygon id="_542708936" class="fil1" points="2.51357,4.57528 6.29984,8.36155 6.28539,8.3695 6.271,8.37704 6.25665,8.38418 6.24237,8.39092 6.22815,8.39724 6.214,8.40316 6.19992,8.40866 6.18591,8.41374 6.17199,8.41839 6.15816,8.42263 6.14442,8.42643 6.13077,8.42981 6.11722,8.43274 6.10379,8.43525 6.09046,8.43731 6.07724,8.43893 6.06415,8.4401 6.05118,8.44082 6.03834,8.44109 6.02563,8.4409 6.01306,8.44026 6.00064,8.43915 5.98836,8.43757 5.97624,8.43553 5.96427,8.43301 5.95247,8.43002 5.94083,8.42655 5.92937,8.4226 5.91807,8.41817 5.90697,8.41325 5.89605,8.40783 5.88531,8.40193 2.09905,4.61566 2.10978,4.62156 2.1207,4.62698 2.13181,4.6319 2.1431,4.63633 2.15456,4.64028 2.1662,4.64375 2.178,4.64674 2.18997,4.64926 2.20209,4.6513 2.21437,4.65287 2.2268,4.65398 2.23936,4.65463 2.25207,4.65482 2.26491,4.65455 2.27788,4.65383 2.29098,4.65266 2.30419,4.65104 2.31752,4.64898 2.33096,4.64647 2.3445,4.64354 2.35815,4.64016 2.37189,4.63635 2.38572,4.63212 2.39965,4.62746 2.41365,4.62239 2.42773,4.61689 2.44188,4.61097 2.4561,4.60465 2.47039,4.59791 2.48473,4.59077 2.49913,4.58322 "/>
     <polygon id="_542709008" class="fil1" points="2.09905,4.61566 5.88531,8.40193 5.88225,8.40013 5.87916,8.39825 5.87605,8.3963 5.87291,8.39428 5.86976,8.39218 5.86659,8.39001 5.8634,8.38777 5.86019,8.38546 2.07392,4.59919 2.07713,4.6015 2.08032,4.60374 2.0835,4.60591 2.08665,4.608 2.08978,4.61003 2.09289,4.61198 2.09598,4.61385 "/>
     <polygon id="_542709104" class="fil1" points="2.07392,4.59919 5.86019,8.38546 5.84855,8.37652 5.83737,8.367 2.0511,4.58073 2.06228,4.59025 "/>
     <polygon id="_542708552" class="fil1" points="2.91993,2.38806 6.7062,6.17433 6.70501,6.17455 6.70382,6.17475 6.70264,6.17494 6.70146,6.17511 6.70029,6.17528 6.69912,6.17543 6.69796,6.17556 6.6968,6.17569 2.91053,2.38941 2.91169,2.38929 2.91285,2.38915 2.91402,2.389 2.9152,2.38884 2.91637,2.38867 2.91756,2.38848 2.91874,2.38828 "/>
     <polygon id="_542709488" class="fil1" points="4.90403,4.07727 8.6903,7.86354 8.69231,7.88563 8.69391,7.90744 8.69508,7.92898 8.69582,7.95022 8.69614,7.97117 8.69602,7.9918 8.69548,8.01211 8.6945,8.0321 8.69309,8.05174 8.69125,8.07102 8.68897,8.08995 8.68626,8.1085 8.68311,8.12667 8.67953,8.14445 8.6755,8.16182 8.67104,8.17878 8.66613,8.19531 8.66079,8.21142 8.655,8.22707 8.64877,8.24227 8.64209,8.25701 8.63497,8.27127 8.6274,8.28504 8.61939,8.29832 8.61092,8.31109 8.602,8.32335 8.59264,8.33508 8.58282,8.34627 8.57255,8.35692 8.56183,8.367 8.55065,8.37652 8.53901,8.38546 4.75274,4.59919 4.76438,4.59025 4.77556,4.58073 4.78628,4.57065 4.79655,4.56 4.80637,4.54881 4.81574,4.53708 4.82465,4.52482 4.83312,4.51205 4.84113,4.49877 4.8487,4.485 4.85582,4.47074 4.8625,4.456 4.86873,4.4408 4.87452,4.42515 4.87987,4.40904 4.88477,4.39251 4.88923,4.37555 4.89326,4.35818 4.89684,4.3404 4.89999,4.32223 4.9027,4.30368 4.90498,4.28475 4.90682,4.26546 4.90823,4.24583 4.90921,4.22584 4.90975,4.20553 4.90987,4.1849 4.90956,4.16395 4.90881,4.14271 4.90764,4.12117 4.90605,4.09936 "/>
     <polygon id="_542709944" class="fil1" points="2.85507,1.58722 6.64133,5.37349 6.63698,5.37166 6.63324,5.36919 6.63018,5.36617 2.84391,1.5799 2.84698,1.58292 2.85071,1.58539 "/>
     <polygon id="_542709656" class="fil1" points="3.889,2.47198 7.67527,6.25826 7.67281,6.26568 3.88654,2.47941 "/>
     <polygon id="_542709776" class="fil1" points="4.63911,3.31343 8.42538,7.0997 8.43943,7.12433 8.45312,7.149 8.46644,7.17372 8.4794,7.19846 8.492,7.22323 8.50422,7.24801 8.51609,7.27279 8.52758,7.29756 8.5387,7.32231 8.54946,7.34704 8.55983,7.37172 8.56985,7.39635 8.57948,7.42093 8.58874,7.44544 8.59763,7.46987 8.60614,7.49421 8.61427,7.51845 8.62203,7.54259 8.6294,7.56661 8.63639,7.59049 8.64301,7.61424 8.64924,7.63785 8.65509,7.66129 8.66055,7.68457 8.66563,7.70767 8.67032,7.73058 8.67462,7.75329 8.67854,7.7758 8.68206,7.79808 8.6852,7.82015 8.68794,7.84197 8.6903,7.86354 4.90403,4.07727 4.90168,4.0557 4.89893,4.03387 4.8958,4.01181 4.89227,3.98952 4.88835,3.96702 4.88405,3.94431 4.87936,3.92139 4.87428,3.8983 4.86882,3.87502 4.86297,3.85157 4.85674,3.82797 4.85013,3.80422 4.84313,3.78033 4.83576,3.75632 4.828,3.73218 4.81987,3.70794 4.81136,3.6836 4.80248,3.65917 4.79321,3.63466 4.78358,3.61008 4.77357,3.58545 4.76319,3.56076 4.75243,3.53604 4.74131,3.51129 4.72982,3.48652 4.71796,3.46174 4.70573,3.43696 4.69313,3.41219 4.68017,3.38744 4.66685,3.36273 4.65316,3.33806 "/>
     <polygon id="_542709440" class="fil1" points="4.39065,2.98305 8.17692,6.76932 8.19544,6.78972 8.2137,6.81029 8.2317,6.83103 8.24939,6.85193 8.26678,6.87299 8.28384,6.89418 8.30055,6.91552 8.3169,6.93697 8.33286,6.95855 4.54659,3.17228 4.53063,3.1507 4.51428,3.12924 4.49757,3.10791 4.48052,3.08672 4.46313,3.06566 4.44543,3.04476 4.42744,3.02402 4.40917,3.00344 "/>
    </g>
    <path id="_637665808" class="fil1" d="M3.95543 1.5479c0.0123819,-0.00390945 0.0260276,0.00172835 0.0304882,0.0125827 0.00445669,0.0108543 -0.00196457,0.0228228 -0.0143465,0.0267323 -0.143681,0.0411969 -0.332831,0.179299 -0.408366,0.328339 0.0205866,0.00594094 0.0405945,0.0130709 0.0599213,0.0213031 0.000405512,-0.00655906 0.00107087,-0.0128937 0.00200787,-0.0189764 0.0416339,0.0162598 0.0803307,0.0375472 0.115146,0.0630315 0.0134685,0.00985039 0.0263543,0.0203268 0.0386024,0.0313858 0.0672992,0.060752 0.11552,0.138846 0.135882,0.226346 0.00706299,0.0303031 0.0107717,0.0617402 0.0107717,0.0939724 0,0.0189764 -0.00134252,0.0379449 -0.00399606,0.0567953 -0.00480709,-0.000484252 -0.0097126,-0.00130709 -0.0147087,-0.00246063 -0.00293701,0.0287441 -0.0089252,0.0572126 -0.0178307,0.0850315l-0.00245669 0.0074252c-0.00785827,-0.00527953 -0.0160787,-0.0107362 -0.024622,-0.0163189 -0.0149843,0.0233819 -0.0209213,0.0380512 -0.0233268,0.0538819 0.0313898,0.0199764 0.0637205,0.0417717 0.096622,0.0652244 0.206591,0.147276 0.443209,0.359343 0.611378,0.590079 0.0341181,0.046811 0.0652402,0.0940157 0.0925157,0.141154 0.151799,0.262358 0.241925,0.535055 0.264917,0.763843 0.023815,0.236976 -0.0247402,0.429681 -0.151283,0.521917 -0.00859449,0.00626378 -0.0169764,0.011752 -0.0251299,0.0164685 -0.113437,0.0656378 -0.260197,0.0464843 -0.414524,-0.040378 -0.0979055,-0.0551063 -0.199685,-0.138035 -0.298083,-0.243992 -0.0058622,0.0470236 -0.0130354,0.0929882 -0.0214252,0.137732l0.00494488 0c-0.0130787,0.0595079 -0.0280197,0.116756 -0.0446654,0.171402 -0.0120315,0.043126 -0.0252874,0.0846693 -0.0396654,0.124437 -0.0285197,0.0788937 -0.0614724,0.150799 -0.0981024,0.214213 -0.108398,0.187638 -0.249055,0.300925 -0.402772,0.300925 0.133957,0 0.259925,-0.092563 0.364701,-0.250035 0.0110866,-0.0166614 0.0219213,-0.0340276 0.0324961,-0.0520669 0.0150354,-0.0256535 0.0295433,-0.0526732 0.0434764,-0.0809724l-0.88139 0c0.0139331,0.0283071 0.028437,0.0553307 0.0434724,0.0809843 0.0110906,0.0189252 0.0224685,0.0371063 0.034122,0.0545039 0.104413,0.155898 0.229713,0.247488 0.362909,0.247587 -0.000224409,0 -0.000448819,0 -0.000673228,0 -0.153362,-0.000440945 -0.293681,-0.113654 -0.40187,-0.300925 -0.0366339,-0.0634134 -0.0695827,-0.135319 -0.0981024,-0.214213 -0.0143071,-0.0395709 -0.0275,-0.0809016 -0.0394882,-0.123799 -0.0167126,-0.0548307 -0.0317126,-0.112291 -0.0448386,-0.172039l0.00494094 0c-0.0083937,-0.0447441 -0.015563,-0.0907126 -0.0214252,-0.137732 -0.0983976,0.105957 -0.200177,0.188886 -0.298083,0.243992 -0.154327,0.0868622 -0.301087,0.106016 -0.414524,0.040378 -0.00815354,-0.00471654 -0.0165354,-0.0102047 -0.0251299,-0.0164685 -0.126543,-0.0922362 -0.175098,-0.284941 -0.151283,-0.521917 0.0229921,-0.228787 0.113118,-0.501484 0.264917,-0.763843 0.0272756,-0.0471378 0.0583976,-0.0943425 0.0925157,-0.141154 0.168169,-0.230736 0.404787,-0.442803 0.611378,-0.590079 0.0367323,-0.026185 0.0727559,-0.0503031 0.107547,-0.072126 -0.00308268,-0.0228622 -0.0101457,-0.0378071 -0.0251811,-0.0528976 -0.0118307,0.00764961 -0.0231102,0.0151063 -0.0337244,0.0222362 -0.00260236,-0.00764961 -0.00498819,-0.0153701 -0.00714961,-0.0231496 -0.00624016,-0.0224685 -0.0105984,-0.0452677 -0.0130079,-0.0682008 -0.00317323,0.000590551 -0.00630709,0.00104331 -0.00940157,0.00135433 -0.00265748,-0.0188504 -0.004,-0.0378189 -0.004,-0.0567953 0,-0.0322323 0.00370866,-0.0636693 0.0107717,-0.0939724 0.0203622,-0.0875 0.0685866,-0.165594 0.135886,-0.226346 0.012248,-0.0110551 0.0251339,-0.0215354 0.0385984,-0.0313898 0.034815,-0.0254764 0.0735118,-0.0467677 0.11515,-0.0630276 0.000830709,0.00539764 0.00144882,0.0109882 0.00185827,0.0167638 0.017685,-0.00730315 0.0359213,-0.013689 0.0546417,-0.0190906 -0.0755354,-0.149039 -0.264685,-0.287142 -0.408366,-0.328339 -0.012378,-0.00390945 -0.0188031,-0.015878 -0.0143465,-0.0267323 0.00446063,-0.0108543 0.0181063,-0.0164921 0.0304882,-0.0125827 0.147724,0.0510276 0.337547,0.204827 0.405142,0.364106 0.0435118,-0.0113701 0.0894685,-0.0174646 0.136969,-0.0174646 0.0475,0 0.0934606,0.00609449 0.136972,0.0174646 0.0675906,-0.15928 0.257413,-0.313079 0.405138,-0.364106z"/>
   </g>
  </g>
  <path class="fil2" d="M3.41333 -3.93701e-006c1.88513,0 3.41333,1.5282 3.41333,3.41333 0,1.88513 -1.5282,3.41333 -3.41333,3.41333 -1.88513,0 -3.41333,-1.5282 -3.41333,-3.41333 0,-1.88513 1.5282,-3.41333 3.41333,-3.41333z"/>
  <path class="fil3" d="M2.93862 2.42906l0.479992 -0.221157 0.474988 0.209988c-0.0800512,0.108591 -0.0465394,0.0850079 -0.0614331,0.219657l-0.832114 -0.0130315c0.00223228,-0.133791 0.00738976,-0.147236 -0.0614331,-0.195457z"/>
  <path class="fil4" d="M2.94009 2.47941c-0.00260236,-0.00764961 -0.00498819,-0.0153701 -0.00714961,-0.0231496 -0.0100787,-0.0362835 -0.0152402,-0.0734331 -0.0152402,-0.11061 0,-0.125291 0.0560472,-0.238528 0.146657,-0.320319 0.0895157,-0.0808031 0.212913,-0.130787 0.348965,-0.130787 0.136051,0 0.259453,0.0499843 0.348965,0.130787 0.0906102,0.0817913 0.146657,0.195028 0.146657,0.320319 0,0.0427205 -0.00678346,0.0852402 -0.0199409,0.126335 -0.000795276,0.00248031 -0.00161417,0.00495669 -0.00245669,0.0074252 -0.127642,-0.0857677 -0.351654,-0.218307 -0.473276,-0.172898 -0.121646,-0.045315 -0.345571,0.0871496 -0.473181,0.172898z"/>
  <path class="fil5" d="M2.91053 2.38941c-0.00265748,-0.0188504 -0.004,-0.0378189 -0.004,-0.0567953 0,-0.125287 0.0560472,-0.238524 0.146657,-0.320319 0.0439252,-0.0396496 0.0960118,-0.0718701 0.153748,-0.0944173 0.0104291,0.0678583 -0.0123031,0.166697 -0.0662087,0.263996 -0.0662008,0.119504 -0.159311,0.20039 -0.230197,0.207535z"/>
  <path class="fil5" d="M3.92154 2.38941c0.00265354,-0.0188504 0.00399606,-0.0378189 0.00399606,-0.0567953 0,-0.125287 -0.0560433,-0.238524 -0.146654,-0.320319 -0.0439252,-0.0396496 -0.0960157,-0.0718701 -0.153748,-0.0944173 -0.0104331,0.0678583 0.0123031,0.166697 0.0662087,0.263996 0.0662008,0.119504 0.159307,0.20039 0.230197,0.207535z"/>
  <path class="fil6" d="M2.9173 2.23865c0.0203622,-0.0875 0.0685866,-0.165594 0.135886,-0.226346 0.012248,-0.0110551 0.0251378,-0.0215354 0.0385984,-0.0313858 0.0122362,0.0382047 0.00273622,0.0946339 -0.028878,0.149138 -0.0387835,0.0668661 -0.0986299,0.109772 -0.145606,0.108594z"/>
  <path class="fil6" d="M3.91476 2.23865c-0.0203622,-0.0875 -0.0685827,-0.165594 -0.135882,-0.226346 -0.012252,-0.0110551 -0.0251378,-0.0215354 -0.0386024,-0.0313858 -0.0122323,0.0382047 -0.00273228,0.0946339 0.0288819,0.149138 0.0387835,0.0668661 0.098626,0.109772 0.145602,0.108594z"/>
  <path class="fil7" d="M2.94148 2.17924c0.0104449,-0.0448937 0.035189,-0.0849646 0.0697205,-0.116138 0.00628346,-0.00567323 0.0128976,-0.0110472 0.0198031,-0.0161024 0.00627953,0.0196024 0.00140551,0.0485551 -0.014815,0.0765197 -0.0199016,0.034311 -0.0506063,0.0563268 -0.0747087,0.0557205z"/>
  <path class="fil7" d="M3.89059 2.17924c-0.0104488,-0.0448937 -0.035189,-0.0849646 -0.0697205,-0.116138 -0.0062874,-0.00567323 -0.0128976,-0.0110472 -0.0198071,-0.0161024 -0.00627559,0.0196024 -0.00140157,0.0485551 0.0148189,0.0765197 0.0198976,0.034311 0.0506063,0.0563268 0.0747087,0.0557205z"/>
  <path class="fil8" d="M3.47265 2.44603c0.000244094,-0.000181102 0.000370079,-0.000275591 5.90551e-005,-4.72441e-005l-5.90551e-005 4.72441e-005z"/>
  <path class="fil9" d="M3.854 4.89692l-0.88139 0c0.0242126,0.0491929 0.0501496,0.0945079 0.0775945,0.135488 0.104469,0.15598 0.229846,0.247587 0.363122,0.247587 0.133957,0 0.259925,-0.092563 0.364701,-0.250035 0.0268465,-0.0403465 0.0522362,-0.0848346 0.0759724,-0.133039zm-0.476969 -1.35996l0.0725748 0c-0.0130354,-0.0427756 -0.0251063,-0.0857756 -0.0362835,-0.128665 -0.0111732,0.0428937 -0.0232559,0.0858898 -0.0362913,0.128665zm-0.174839 0.427902l0.422256 0c-0.0593819,-0.108181 -0.109114,-0.228122 -0.150472,-0.351654l-0.121311 0c-0.0413622,0.123531 -0.0910906,0.243472 -0.150472,0.351654zm-0.309374 0.427902l1.041 0c-0.0581496,-0.0617992 -0.111484,-0.127327 -0.159012,-0.192535 -0.0375512,-0.0515157 -0.0729055,-0.10465 -0.106051,-0.159114l-0.510878 0c-0.0331457,0.0544646 -0.0685,0.107598 -0.106051,0.159114 -0.0475276,0.0652087 -0.100862,0.130736 -0.159012,0.192535zm0.0449567 0.427902l0.951071 0c0.0442205,-0.104256 0.0813307,-0.222638 0.109685,-0.35165l-1.17039 0c0.0283504,0.129043 0.0654449,0.247421 0.109634,0.35165z"/>
  <ellipse class="fil10" cx="3.41333" cy="4.02189" rx="0.620585" ry="1.25811"/>
  <path class="fil8" d="M3.31976 2.44598c-0.000307087,-0.000228346 -0.000181102,-0.000133858 5.90551e-005,4.72441e-005l-5.90551e-005 -4.72441e-005z"/>
  <path class="fil11" d="M3.35874 2.38082c0.00152756,0.00088189 0.0034252,0.00214961 0.00569291,0.00380315 0.0648425,0.0472638 0.0671299,0.385248 -0.0047874,0.762571 -0.0532402,0.279315 -0.144134,0.584181 -0.274957,0.810287 -0.0404646,0.0699331 -0.0836299,0.136079 -0.128642,0.197835 -0.139846,0.191866 -0.295531,0.337252 -0.442476,0.419961 -0.154327,0.0868622 -0.301087,0.106016 -0.414524,0.040378 -0.00815354,-0.00471654 -0.0165354,-0.0102047 -0.0251299,-0.0164685 -0.126543,-0.0922362 -0.175098,-0.284941 -0.151283,-0.521917 0.0229921,-0.228787 0.113118,-0.501484 0.264917,-0.763843 0.0272756,-0.0471378 0.0583976,-0.0943425 0.0925157,-0.141154 0.168169,-0.230736 0.404787,-0.442803 0.611378,-0.590079 0.215677,-0.153752 0.407004,-0.23626 0.467295,-0.201374z"/>
  <path class="fil12" d="M3.34269 2.47555c0.0141102,-0.0137244 0.0144213,-0.0362913 0.000700787,-0.0504016 -0.0137244,-0.0141142 -0.0362913,-0.0144252 -0.0504016,-0.000700787 -0.0745,0.0724646 -0.135783,0.167768 -0.187697,0.268457 -0.051437,0.0997677 -0.0932992,0.20363 -0.129701,0.295626 -0.0106772,0.0269961 -0.034378,0.0320315 -0.0718071,0.0399803 -0.0298425,0.00633858 -0.066122,0.0140433 -0.111543,0.0326299l-0.0462717 0.018937 0.0134016 0.0329488 -0.0135354 -0.0330787c-0.000964567,0.000393701 -0.00190551,0.000830709 -0.0028189,0.00129528 -0.00522441,0.0022126 -0.00780709,0.00353937 -0.00970472,0.00452756l0 -0.000185039c-0.000704724,0.000543307 -0.00147244,0.000944882 -0.00019685,0.000283465l0.00019685 -9.84252e-005 0 -0.000185039c0.000665354,-0.000523622 0.00126772,-0.00117323 0,-0.00117323 -0.0159685,0 -0.0294843,0.0104724 -0.0340709,0.0249213l-0.00204331 -0.00490945c0.000413386,0.00525197 -0.000681102,0.0156378 0.000885827,0.0096811 0.000279528,-0.00162598 0.000665354,-0.00322441 0.00115748,-0.00477165l-0.00204331 -0.00490945c-0.000141732,-0.00180709 -0.00046063,-0.00301181 -0.00112992,-0.00272835 -0.0160433,0.00672441 -0.0328465,0.0137638 -0.0425315,0.0275276 -0.00590157,0.00433071 -0.0101063,0.0101654 -0.012437,0.016622 -0.015874,0.0343307 -0.027248,0.0678504 -0.0381535,0.100028 -0.0308307,0.0909331 -0.0575039,0.169594 -0.173736,0.17376 -0.0533819,0.00190551 -0.111618,0.0104409 -0.151925,0.0163425 -0.0218071,0.00319685 -0.037874,0.00554724 -0.0401811,0.00544094 -0.0196614,-0.00092126 -0.0363543,0.0142677 -0.0372756,0.0339252 -0.000925197,0.0196614 0.0142638,0.0363543 0.0339252,0.0372756 0.00979528,0.00046063 0.0284882,-0.00227953 0.0538661,-0.00599606 0.0392835,-0.00575197 0.0960394,-0.0140669 0.144102,-0.0157874 0.165512,-0.00592913 0.199504,-0.106177 0.238795,-0.222063 0.00974016,-0.0287283 0.0198583,-0.058563 0.0323346,-0.086685 0.00706693,-0.00538189 0.0121496,-0.0133858 0.0136417,-0.0228543l-0.0353031 -0.00557087 0.0351811 0.00544882c0.00193701,-0.0122677 0.0027126,0.010311 0.00706299,0.00848819 0.00883858,-0.00370079 0.0174567,-0.00731496 0.0248071,-0.012122 0.00712205,-0.000661417 0.0102874,-0.00230709 0.0178228,-0.00622047 0.00131102,-0.000681102 0.00300394,-0.00155512 0.00481496,-0.00238976 0.000681102,-0.000232283 0.00135827,-0.000484252 0.0020315,-0.000759843l-4.72441e-005 -0.000110236 5.11811e-005 -1.9685e-005 -1.9685e-005 -4.72441e-005 0.0461535 -0.0188858c0.0385394,-0.0157717 0.0720039,-0.0228819 0.0995315,-0.0287283 0.0604449,-0.0128346 0.0987126,-0.0209606 0.123469,-0.0835394 0.0360236,-0.0910315 0.0773425,-0.19361 0.12663,-0.289201 0.048815,-0.0946811 0.105831,-0.183705 0.174012,-0.250024z"/>
  <path class="fil12" d="M2.95467 3.09704c0.00207874,-0.0195866 -0.0121102,-0.0371535 -0.0316969,-0.0392323 -0.0195827,-0.00207874 -0.0371496,0.0121102 -0.0392323,0.0316969 -0.00940945,0.0873504 -0.00658661,0.246736 0.00785039,0.399047 0.0121969,0.128677 0.0328425,0.253323 0.0616654,0.32739 0.00709055,0.0183465 0.0277244,0.0274764 0.0460709,0.0203819 0.0183504,-0.00709055 0.0274764,-0.0277244 0.0203858,-0.0460709 -0.026311,-0.0676102 -0.0455433,-0.185445 -0.0571969,-0.308406 -0.014,-0.147709 -0.0168346,-0.30139 -0.00784646,-0.384807z"/>
  <path class="fil12" d="M2.95182 3.57239c0.0105591,-0.0166535 0.00562205,-0.0387205 -0.0110354,-0.0492835 -0.0166535,-0.010563 -0.0387205,-0.00562205 -0.0492835,0.0110315 -0.00019685,0.000311024 -0.0763071,0.045878 -0.181307,0.108736 -0.131512,0.0787283 -0.306264,0.183346 -0.445858,0.274594 -0.0841969,0.0550315 -0.144244,0.134091 -0.187181,0.190622 -0.0191693,0.0252441 -0.0345118,0.0454409 -0.0444213,0.0534449 -0.0153425,0.0123386 -0.0177795,0.0347795 -0.00544094,0.050122 0.0123346,0.0153465 0.0347795,0.0177835 0.050122,0.00544488 0.0162835,-0.0131535 0.0341299,-0.0366496 0.0564252,-0.0660079 0.0396378,-0.052189 0.0950669,-0.125165 0.169587,-0.173874 0.141539,-0.0925197 0.313748,-0.195614 0.443346,-0.273197 0.113598,-0.0680079 0.195941,-0.117303 0.205047,-0.131634z"/>
  <path class="fil12" d="M2.56424 3.84612c0.0179646,-0.00801969 0.0260276,-0.0290866 0.0180118,-0.0470512 -0.00801969,-0.0179606 -0.0290866,-0.0260276 -0.0470512,-0.0180118 -0.00153937,0.000685039 -0.0830394,0.107543 -0.128898,0.215315 -0.0154291,0.0362677 -0.0280118,0.0733661 -0.0341102,0.107748 -0.00675591,0.0380709 -0.0056811,0.0737677 0.00756299,0.103457 0.011122,0.024937 0.0299213,0.0445512 0.0584409,0.056685 0.046122,0.019622 0.0545394,0.042252 0.0627283,0.0642717 0.00693307,0.0186378 0.0137756,0.0370157 0.0312638,0.0563701 0.013185,0.0145748 0.035689,0.0157008 0.0502638,0.00251575 0.0145709,-0.013185 0.0156969,-0.035689 0.00251181,-0.0502638 -0.00823228,-0.00911024 -0.0127362,-0.0212047 -0.0172992,-0.0334724 -0.0134764,-0.0362323 -0.0273268,-0.0734606 -0.101547,-0.105039 -0.0106063,-0.00451575 -0.0174409,-0.0114567 -0.0212992,-0.0201063 -0.0067874,-0.0152087 -0.0067126,-0.0370118 -0.00225591,-0.0621299 0.00511024,-0.0288071 0.0159646,-0.060626 0.0293583,-0.0921102 0.0398031,-0.0935512 0.0916378,-0.177878 0.0923189,-0.178177z"/>
  <path class="fil12" d="M2.27795 3.98876c0.0078622,-0.0180433 -0.000389764,-0.0390512 -0.0184331,-0.0469134 -0.0180433,-0.0078622 -0.0390472,0.000389764 -0.0469094,0.0184291 -0.0035748,0.00820472 -0.00783858,0.0770433 -0.0103425,0.144382 -0.00238189,0.0640748 -0.0038189,0.129374 -0.00216142,0.140157 0.00292913,0.0195079 0.0211181,0.0329488 0.040626,0.0300157 0.0195039,-0.00292913 0.0329449,-0.0211181 0.0300157,-0.040626 -0.00108661,-0.00708661 0.000488189,-0.0669055 0.00272441,-0.127035 0.00224016,-0.0603583 0.0044252,-0.118283 0.00448031,-0.118409z"/>
  <path class="fil12" d="M2.49321 4.26017c0.0114094,-0.0160394 0.00766142,-0.0382953 -0.00837795,-0.0497047 -0.0160354,-0.0114094 -0.0382913,-0.00766142 -0.0497008,0.00837795l-0.0219803 0.0308622c-0.014122,0.0198307 -0.0673819,0.081311 -0.116669,0.13537 -0.0393189,0.043122 -0.074378,0.080185 -0.0805472,0.0835039 -0.0173465,0.00932677 -0.0238465,0.0309567 -0.0145197,0.0483071 0.00933071,0.0173465 0.0309606,0.0238465 0.0483071,0.0145197 0.0138583,-0.00745669 0.0557283,-0.0502598 0.0995315,-0.0983031 0.0505866,-0.0554764 0.106173,-0.119878 0.12198,-0.142071l0.0219764 -0.0308622z"/>
  <path class="fil12" d="M2.56569 3.44905c0.0164213,-0.010874 0.0209213,-0.0330039 0.0100512,-0.0494252 -0.0108701,-0.0164213 -0.0330039,-0.0209252 -0.0494252,-0.0100551 -0.0339094,0.0224646 -0.122807,0.119417 -0.197295,0.212528 -0.0635236,0.0794094 -0.118035,0.158705 -0.123335,0.193154 -0.00292913,0.0195079 0.0105118,0.0376969 0.0300157,0.040626 0.0195079,0.00293307 0.0376969,-0.0105118 0.040626,-0.0300157 0.00326772,-0.0212441 0.0514409,-0.0883386 0.10826,-0.159366 0.0705276,-0.0881575 0.152327,-0.178386 0.181102,-0.197445z"/>
  <path class="fil12" d="M3.10962 2.8701c0.00169291,-0.0195827 -0.0128071,-0.0368386 -0.0323937,-0.0385315 -0.0195827,-0.00169685 -0.0368386,0.0128071 -0.0385315,0.0323898 -0.00301575,0.0335197 0.010878,0.142535 0.0298465,0.237394 0.0156102,0.0780315 0.035878,0.149693 0.0556181,0.171075 0.0133346,0.0144961 0.0359055,0.0154331 0.0504016,0.00209449 0.0144961,-0.0133346 0.0154331,-0.0359055 0.00209449,-0.0504016 -0.00985039,-0.0106693 -0.0245709,-0.0694606 -0.0380236,-0.136728 -0.0179921,-0.0899528 -0.0314843,-0.189819 -0.0290118,-0.217291z"/>
  <path class="fil8" d="M3.5069 2.44598c0.000307087,-0.000228346 0.000181102,-0.000133858 -5.90551e-005,4.72441e-005l5.90551e-005 -4.72441e-005z"/>
  <path class="fil11" d="M3.46792 2.38082c-0.00152756,0.00088189 -0.0034252,0.00214961 -0.00569291,0.00380315 -0.0648425,0.0472638 -0.0671299,0.385248 0.0047874,0.762571 0.0532402,0.279315 0.144134,0.584181 0.274957,0.810287 0.0404646,0.0699331 0.0836299,0.136079 0.128642,0.197835 0.139846,0.191866 0.295531,0.337252 0.442476,0.419961 0.154327,0.0868622 0.301087,0.106016 0.414524,0.040378 0.00815354,-0.00471654 0.0165354,-0.0102047 0.0251299,-0.0164685 0.126543,-0.0922362 0.175098,-0.284941 0.151283,-0.521917 -0.0229921,-0.228787 -0.113118,-0.501484 -0.264917,-0.763843 -0.0272756,-0.0471378 -0.0583976,-0.0943425 -0.0925157,-0.141154 -0.168169,-0.230736 -0.404787,-0.442803 -0.611378,-0.590079 -0.215677,-0.153752 -0.407004,-0.23626 -0.467295,-0.201374z"/>
  <path class="fil12" d="M3.53368 2.42445c-0.0141102,-0.0137244 -0.0366772,-0.0134134 -0.0504016,0.000700787 -0.0137205,0.0141102 -0.0134094,0.0366772 0.000700787,0.0504016 0.0681811,0.0663189 0.125197,0.155343 0.174012,0.250024 0.0492874,0.0955906 0.0906063,0.198169 0.12663,0.289201 0.0247559,0.0625787 0.0630236,0.0707047 0.123469,0.0835394 0.0275276,0.00584646 0.0609921,0.0129567 0.0995315,0.0287283l0.0461535 0.0188858 -1.9685e-005 4.72441e-005 5.11811e-005 1.9685e-005 -4.72441e-005 0.000110236c0.000673228,0.000275591 0.00135039,0.000527559 0.0020315,0.000759843 0.00181102,0.000834646 0.00350394,0.00170866 0.00481496,0.00238976 0.00753543,0.00391339 0.0107008,0.00555906 0.0178228,0.00622047 0.00735039,0.00480709 0.0159685,0.00842126 0.0248071,0.012122 0.00435039,0.00182283 0.00512598,-0.0207559 0.00706299,-0.00848819l0.0351811 -0.00544882 -0.0353031 0.00557087c0.00149213,0.0094685 0.0065748,0.0174724 0.0136417,0.0228543 0.0124764,0.028122 0.0225945,0.0579567 0.0323346,0.086685 0.0392913,0.115886 0.0732835,0.216134 0.238795,0.222063 0.048063,0.00172047 0.104819,0.0100354 0.144102,0.0157874 0.025378,0.00371654 0.0440709,0.00645669 0.0538661,0.00599606 0.0196614,-0.00092126 0.0348504,-0.0176142 0.0339252,-0.0372756 -0.00092126,-0.0196575 -0.0176142,-0.0348465 -0.0372756,-0.0339252 -0.00230709,0.000106299 -0.018374,-0.00224409 -0.0401811,-0.00544094 -0.0403071,-0.00590157 -0.0985433,-0.014437 -0.151925,-0.0163425 -0.116232,-0.00416535 -0.142906,-0.0828268 -0.173736,-0.17376 -0.0109055,-0.0321772 -0.0222795,-0.0656969 -0.0381535,-0.100028 -0.00233071,-0.00645669 -0.00653543,-0.0122913 -0.012437,-0.016622 -0.00968504,-0.0137638 -0.0264882,-0.0208031 -0.0425315,-0.0275276 -0.000669291,-0.000283465 -0.000988189,0.00092126 -0.00112992,0.00272835l-0.00204331 0.00490945c0.000492126,0.00154724 0.000877953,0.00314173 0.00115748,0.00477165 0.00156693,0.00595669 0.000472441,-0.00442913 0.000885827,-0.0096811l-0.00204331 0.00490945c-0.00458268,-0.0144528 -0.0181024,-0.0249213 -0.0340709,-0.0249213 -0.00126772,0 -0.000665354,0.000649606 0,0.00117323l0 0.000185039 0.00019685 9.84252e-005c0.00127559,0.000661417 0.000507874,0.000259843 -0.00019685,-0.000283465l0 0.000185039c-0.00189764,-0.000988189 -0.00448031,-0.00231496 -0.00970472,-0.00452756 -0.000913386,-0.000468504 -0.00185433,-0.000901575 -0.0028189,-0.00129528l-0.0135354 0.0330787 0.0134016 -0.0329488 -0.0462717 -0.018937c-0.0454213,-0.0185866 -0.0817008,-0.0262913 -0.111543,-0.0326299 -0.0374291,-0.00794882 -0.0611299,-0.0129843 -0.0718071,-0.0399803 -0.0364016,-0.0919961 -0.0782638,-0.195858 -0.129701,-0.295626 -0.0519134,-0.100689 -0.113197,-0.195992 -0.187697,-0.268457z"/>
  <path class="fil12" d="M3.94292 3.0895c-0.00208268,-0.0195866 -0.0196496,-0.0337756 -0.0392323,-0.0316969 -0.0195866,0.00207874 -0.0337756,0.0196457 -0.0316969,0.0392323 0.00898819,0.0834173 0.00615354,0.237098 -0.00784646,0.384807 -0.0116535,0.122961 -0.0308858,0.240795 -0.0571969,0.308406 -0.00709055,0.0183465 0.00203543,0.0389803 0.0203858,0.0460709 0.0183465,0.00709449 0.0389803,-0.00203543 0.0460709,-0.0203819 0.0288228,-0.0740669 0.0494685,-0.198713 0.0616654,-0.32739 0.014437,-0.152311 0.0172598,-0.311697 0.00785039,-0.399047z"/>
  <path class="fil12" d="M3.93516 3.53414c-0.010563,-0.0166535 -0.0326299,-0.0215945 -0.0492835,-0.0110315 -0.0166575,0.010563 -0.0215945,0.0326299 -0.0110354,0.0492835 0.0091063,0.0143307 0.0914488,0.063626 0.205047,0.131634 0.129598,0.0775827 0.301807,0.180677 0.443346,0.273197 0.0745197,0.0487087 0.129949,0.121685 0.169587,0.173874 0.0222953,0.0293583 0.0401417,0.0528543 0.0564252,0.0660079 0.0153425,0.0123386 0.0377874,0.00990157 0.050122,-0.00544488 0.0123386,-0.0153425 0.00990157,-0.0377835 -0.00544094,-0.050122 -0.00990945,-0.00800394 -0.025252,-0.0282008 -0.0444213,-0.0534449 -0.042937,-0.0565315 -0.102984,-0.135591 -0.187181,-0.190622 -0.139594,-0.091248 -0.314346,-0.195866 -0.445858,-0.274594 -0.105,-0.0628583 -0.18111,-0.108425 -0.181307,-0.108736z"/>
  <path class="fil12" d="M4.29146 3.78106c-0.0179646,-0.00801575 -0.0390315,5.11811e-005 -0.0470512,0.0180118 -0.00801575,0.0179646 4.72441e-005,0.0390315 0.0180118,0.0470512 0.000681102,0.000299213 0.0525157,0.084626 0.0923189,0.178177 0.0133937,0.0314843 0.024248,0.0633031 0.0293583,0.0921102 0.00445669,0.0251181 0.0045315,0.0469213 -0.00225591,0.0621299 -0.00385827,0.00864961 -0.0106929,0.0155906 -0.0212992,0.0201063 -0.0742205,0.0315787 -0.0880709,0.0688071 -0.101547,0.105039 -0.00456299,0.0122677 -0.00906693,0.0243622 -0.0172992,0.0334724 -0.013185,0.0145748 -0.0120591,0.0370787 0.00251181,0.0502638 0.0145748,0.013185 0.0370787,0.0120591 0.0502638,-0.00251575 0.0174882,-0.0193543 0.0243307,-0.0377323 0.0312638,-0.0563701 0.00818898,-0.0220197 0.0166063,-0.0446496 0.0627283,-0.0642717 0.0285197,-0.0121339 0.0473189,-0.031748 0.0584409,-0.056685 0.0132441,-0.029689 0.0143189,-0.0653858 0.00756299,-0.103457 -0.00609843,-0.0343819 -0.0186811,-0.0714803 -0.0341102,-0.107748 -0.0458583,-0.107772 -0.127358,-0.21463 -0.128898,-0.215315z"/>
  <path class="fil12" d="M4.61406 3.96028c-0.0078622,-0.0180394 -0.0288661,-0.0262913 -0.0469094,-0.0184291 -0.0180433,0.0078622 -0.0262953,0.0288701 -0.0184331,0.0469134 5.51181e-005,0.000125984 0.00224016,0.0580512 0.00448031,0.118409 0.00223622,0.0601299 0.00381102,0.119949 0.00272441,0.127035 -0.00292913,0.0195079 0.0105118,0.0376969 0.0300157,0.040626 0.0195079,0.00293307 0.0376969,-0.0105079 0.040626,-0.0300157 0.00165748,-0.0107835 0.000220472,-0.0760827 -0.00216142,-0.140157 -0.00250394,-0.0673386 -0.00676772,-0.136177 -0.0103425,-0.144382z"/>
  <path class="fil12" d="M4.39153 4.21885c-0.0114094,-0.0160394 -0.0336654,-0.0197874 -0.0497008,-0.00837795 -0.0160394,0.0114094 -0.0197874,0.0336654 -0.00837795,0.0497047l0.0219764 0.0308622c0.0158071,0.0221929 0.0713937,0.0865945 0.12198,0.142071 0.0438031,0.0480433 0.0856732,0.0908465 0.0995315,0.0983031 0.0173465,0.00932677 0.0389764,0.00282677 0.0483071,-0.0145197 0.00932677,-0.0173504 0.00282677,-0.0389803 -0.0145197,-0.0483071 -0.00616929,-0.0033189 -0.0412283,-0.0403819 -0.0805472,-0.0835039 -0.0492874,-0.0540591 -0.102547,-0.115539 -0.116669,-0.13537l-0.0219803 -0.0308622z"/>
  <path class="fil12" d="M4.30035 3.38957c-0.0164213,-0.0108701 -0.0385551,-0.00636614 -0.0494252,0.0100551 -0.0108701,0.0164213 -0.00637008,0.0385512 0.0100512,0.0494252 0.0287756,0.0190591 0.110575,0.109287 0.181102,0.197445 0.0568189,0.0710276 0.104992,0.138122 0.10826,0.159366 0.00292913,0.0195039 0.0211181,0.0329488 0.040626,0.0300157 0.0195039,-0.00292913 0.0329449,-0.0211181 0.0300157,-0.040626 -0.00529921,-0.0344488 -0.059811,-0.113744 -0.123335,-0.193154 -0.0744882,-0.0931102 -0.163386,-0.190063 -0.197295,-0.212528z"/>
  <path class="fil12" d="M3.78796 2.86396c-0.00169291,-0.0195827 -0.0189488,-0.0340866 -0.0385315,-0.0323898 -0.0195866,0.00169291 -0.0340866,0.0189488 -0.0323937,0.0385315 0.00247244,0.0274724 -0.0110197,0.127339 -0.0290118,0.217291 -0.0134528,0.0672677 -0.0281732,0.126059 -0.0380236,0.136728 -0.0133386,0.0144961 -0.0124016,0.0370669 0.00209449,0.0504016 0.0144961,0.0133386 0.0370669,0.0124016 0.0504016,-0.00209449 0.0197402,-0.0213819 0.0400079,-0.0930433 0.0556181,-0.171075 0.0189685,-0.0948583 0.0328622,-0.203874 0.0298465,-0.237394z"/>
  <path class="fil13" d="M3.41333 4.6994c-0.175772,0 -0.343831,0.0229449 -0.498291,0.0647598 -0.000858268,0.000232283 -0.00171654,0.000464567 -0.0025748,0.000700787 0.0285197,0.0788937 0.0614724,0.150799 0.0981024,0.214213 0.00183465,-0.000389764 0.00367323,-0.000779528 0.00551181,-0.00116535 0.125752,-0.0263622 0.259118,-0.0405354 0.397252,-0.0405354 0.13811,0 0.271457,0.0141693 0.397193,0.0405236 0.00185433,0.000389764 0.0037126,0.000779528 0.00557087,0.00117717 0.0366299,-0.0634134 0.0695827,-0.135319 0.0981024,-0.214213 -0.000870079,-0.000240157 -0.00173622,-0.000472441 -0.0026063,-0.000708661 -0.154457,-0.041811 -0.3225,-0.064752 -0.49826,-0.064752z"/>
  <path class="fil13" d="M3.41333 4.18413c-0.130524,0 -0.256787,0.0126535 -0.37639,0.0362874 -0.0558661,0.0110354 -0.11028,0.0244724 -0.162996,0.0401339 -0.0205669,0.0245906 -0.0413504,0.048185 -0.0622913,0.0707402 0.0058622,0.0470236 0.0130354,0.0929882 0.0214252,0.137732 0.00250394,0.0133386 0.00511417,0.026563 0.00783071,0.0396811 0.047252,-0.0150827 0.0959488,-0.0283465 0.145906,-0.0396811 0.134252,-0.0304528 0.277618,-0.0469213 0.426516,-0.0469213 0.148898,0 0.292264,0.0164685 0.426516,0.0469213 0.0499567,0.0113346 0.0986535,0.0245984 0.145906,0.0396811 0.00271654,-0.0131181 0.00532677,-0.0263425 0.00783071,-0.0396811 0.00838976,-0.0447441 0.015563,-0.0907087 0.0214252,-0.137732 -0.0209409,-0.0225551 -0.0417244,-0.0461496 -0.0622913,-0.0707402 -0.0527244,-0.0156654 -0.10715,-0.0291024 -0.163028,-0.0401417 -0.119594,-0.0236299 -0.24585,-0.0362795 -0.376358,-0.0362795z"/>
  <path class="fil13" d="M3.21755 3.66893c-0.0332638,0.0896772 -0.0708031,0.17511 -0.112697,0.25252 0.0421102,-0.0067126 0.0849606,-0.0120866 0.128453,-0.0160433 0.0589134,-0.00535827 0.119004,-0.00812598 0.180028,-0.00812598 0.0610118,0 0.121094,0.00276378 0.18,0.00812205 0.0435,0.00396063 0.0863583,0.00933071 0.12848,0.0160472 -0.0418937,-0.0774094 -0.0794331,-0.162843 -0.112697,-0.25252 -0.0390709,-0.00387402 -0.0786732,-0.0066063 -0.118732,-0.00814567 -0.0255039,-0.000984252 -0.0511929,-0.00147638 -0.0770512,-0.00147638 -0.0258661,0 -0.0515669,0.000496063 -0.0770827,0.00147638 -0.0400472,0.00153937 -0.0796417,0.00427165 -0.118701,0.00814567z"/>
  <path class="fil13" d="M3.35251 3.18367c-0.0159252,0.0792756 -0.0348425,0.16022 -0.056815,0.240508 0.0377087,-0.00222441 0.0758504,-0.00338976 0.114366,-0.00345276 0.00109055,-3.93701e-006 0.0021811,-3.93701e-006 0.00327165,-3.93701e-006 0.00108268,0 0.00216535,0 0.00325197,3.93701e-006 0.0385197,6.29921e-005 0.0766732,0.00122835 0.114386,0.00345276 -0.0219724,-0.0802874 -0.0408898,-0.161232 -0.056815,-0.240508 -0.0201654,-0.000614173 -0.0404409,-0.00092126 -0.0608228,-0.00092126 -0.0203819,0 -0.0406575,0.000307087 -0.0608228,0.00092126z"/>
  <path class="fil14" d="M3.97157 1.58722c-0.189563,0.0543504 -0.458268,0.277378 -0.440787,0.471665l0.00896457 0.0462874 -0.0121299 -0.0459882c-0.0317874,-0.200929 0.234177,-0.444394 0.427811,-0.511276 0.0123819,-0.00390945 0.0260276,0.00172047 0.0304882,0.0125787 0.00445669,0.0108543 -0.00196457,0.0228228 -0.0143465,0.0267323z"/>
  <path class="fil14" d="M2.85507 1.58722c0.189563,0.0543504 0.458268,0.277378 0.440791,0.471665l-0.0089685 0.0462874 0.0121339 -0.0459882c0.0317835,-0.200929 -0.234181,-0.444394 -0.427815,-0.511276 -0.0123819,-0.00390945 -0.0260276,0.00172047 -0.0304882,0.0125787 -0.00445669,0.0108543 0.00196457,0.0228228 0.0143465,0.0267323z"/>
 </g>
</svg>
