<?xml version="1.0" encoding="UTF-8"?>
<!DOCTYPE svg PUBLIC "-//W3C//DTD SVG 1.1//EN" "http://www.w3.org/Graphics/SVG/1.1/DTD/svg11.dtd">
<!-- Creator: CorelDRAW -->
<svg xmlns="http://www.w3.org/2000/svg" xml:space="preserve" width="6.82666in" height="6.82666in" style="shape-rendering:geometricPrecision; text-rendering:geometricPrecision; image-rendering:optimizeQuality; fill-rule:evenodd; clip-rule:evenodd"
viewBox="0 0 6.82666 6.82666"
 xmlns:xlink="http://www.w3.org/1999/xlink">
 <defs>
  <style type="text/css">
   <![CDATA[
    .str0 {stroke:#212121;stroke-width:0.00333465;stroke-linecap:round;stroke-linejoin:round}
    .fil2 {fill:none}
    .fil1 {fill:#00000000}
    .fil0 {fill:#00000000}
    .fil6 {fill:#757575}
    .fil4 {fill:#1A1919;fill-rule:nonzero}
    .fil3 {fill:#212121;fill-rule:nonzero}
    .fil5 {fill:#FD5B00;fill-rule:nonzero}
   ]]>
  </style>
   <clipPath id="id0">
    <path d="M3.41333 -3.93701e-006c1.88513,0 3.41333,1.5282 3.41333,3.41333 0,1.88513 -1.5282,3.41333 -3.41333,3.41333 -1.88513,0 -3.41333,-1.5282 -3.41333,-3.41333 0,-1.88513 1.5282,-3.41333 3.41333,-3.41333z"/>
   </clipPath>
 </defs>
 <g id="Layer_x0020_1">
  <metadata id="CorelCorpID_0Corel-Layer"/>
  <path class="fil0" d="M3.41333 -3.93701e-006c1.88513,0 3.41333,1.5282 3.41333,3.41333 0,1.88513 -1.5282,3.41333 -3.41333,3.41333 -1.88513,0 -3.41333,-1.5282 -3.41333,-3.41333 0,-1.88513 1.5282,-3.41333 3.41333,-3.41333z"/>
  <g style="clip-path:url(#id0)">
   <g id="_637654624">
    <g>
     <polygon id="_4605823041" class="fil1" points="4.07342,1.89943 7.85969,5.6857 7.67921,5.85352 3.89294,2.06725 "/>
     <polygon id="_460582328" class="fil1" points="3.89294,2.06725 7.67921,5.85352 7.67002,5.86208 3.88376,2.07581 "/>
     <polygon id="_460584992" class="fil1" points="3.88376,2.07581 7.67002,5.86208 7.6609,5.86162 3.87463,2.07535 "/>
     <polygon id="_460584944" class="fil1" points="3.87463,2.07535 7.6609,5.86162 7.46791,5.85198 3.68164,2.06571 "/>
     <polygon id="_460585016" class="fil1" points="3.68164,2.06571 7.46791,5.85198 7.34261,5.99517 3.55635,2.2089 "/>
     <polygon id="_460585064" class="fil1" points="3.59103,2.23997 7.3773,6.02624 7.38065,6.02999 7.38392,6.03381 7.3871,6.03769 7.3902,6.04165 7.39321,6.04567 7.39613,6.04976 7.39896,6.05391 7.4017,6.05813 7.40434,6.0624 7.40689,6.06674 7.40935,6.07114 7.4117,6.0756 7.41395,6.08011 7.41611,6.08468 7.41816,6.08931 7.4201,6.09398 7.42194,6.09872 7.42367,6.1035 7.4253,6.10833 7.42681,6.11322 7.42821,6.11815 7.4295,6.12312 7.43067,6.12814 7.43172,6.13321 7.43266,6.13832 7.43348,6.14347 7.43418,6.14866 7.43475,6.15389 7.4352,6.15916 7.43553,6.16447 7.43572,6.16981 3.64946,2.38354 3.64926,2.3782 3.64893,2.37289 3.64848,2.36762 3.64791,2.36239 3.64721,2.3572 3.64639,2.35205 3.64546,2.34694 3.6444,2.34187 3.64323,2.33685 3.64194,2.33187 3.64054,2.32694 3.63903,2.32206 3.63741,2.31723 3.63567,2.31244 3.63383,2.30771 3.63189,2.30304 3.62984,2.29841 3.62769,2.29384 3.62543,2.28933 3.62308,2.28487 3.62063,2.28047 3.61807,2.27613 3.61543,2.27185 3.61269,2.26764 3.60986,2.26349 3.60694,2.2594 3.60393,2.25538 3.60083,2.25142 3.59765,2.24754 3.59438,2.24372 "/>
     <polygon id="_460585088" class="fil1" points="3.77168,2.46612 7.55795,6.25239 7.56311,6.25816 7.56812,6.26404 7.57296,6.27004 7.57765,6.27615 7.58218,6.28238 7.58656,6.28872 7.59078,6.29517 7.59484,6.30173 7.59876,6.3084 7.60253,6.31517 7.60615,6.32206 7.60962,6.32905 7.61294,6.33615 7.61613,6.34335 3.82986,2.55707 3.82668,2.54987 3.82335,2.54278 3.81988,2.53579 3.81626,2.5289 3.81249,2.52213 3.80857,2.51546 3.80451,2.50889 3.80029,2.50244 3.79591,2.49611 3.79138,2.48988 3.7867,2.48377 3.78185,2.47777 3.77685,2.47189 "/>
     <polygon id="_460584704" class="fil1" points="2.83782,1.82972 6.62409,5.616 6.74894,5.81645 2.96267,2.03018 "/>
     <polygon id="_460584872" class="fil1" points="3.14502,2.06571 6.93129,5.85198 6.7383,5.86162 2.95203,2.07535 "/>
     <polygon id="_460584608" class="fil1" points="3.85588,2.88357 7.64215,6.66985 7.63881,6.66985 3.85254,2.88357 "/>
     <polygon id="_460584752" class="fil1" points="3.16435,2.02011 6.95061,5.80638 6.95773,5.8145 3.17146,2.02823 "/>
     <polygon id="_460585376" class="fil1" points="3.17146,2.02823 6.95773,5.8145 7.09552,5.97196 3.30925,2.18569 "/>
     <polygon id="_460585808" class="fil1" points="5.01505,2.6007 8.80132,6.38697 8.80331,6.38985 8.80472,6.39306 8.80549,6.3965 8.80559,6.40009 8.80494,6.40374 5.01868,2.61746 5.01932,2.61382 5.01922,2.61023 5.01845,2.60679 5.01704,2.60358 "/>
     <polygon id="_460585568" class="fil1" points="5.01868,2.61746 8.80494,6.40374 8.73425,6.65354 4.94798,2.86727 "/>
     <polygon id="_460585184" class="fil1" points="4.94798,2.86727 8.73425,6.65354 8.7367,6.65689 8.73876,6.6604 8.74045,6.66404 8.74175,6.6678 8.74268,6.67163 8.74324,6.6755 8.74342,6.67941 8.74323,6.6833 8.74268,6.68717 8.74176,6.69096 8.74048,6.69467 8.73884,6.69826 8.73684,6.7017 8.73449,6.70496 8.73178,6.70802 8.72873,6.71085 4.94246,2.92458 4.94552,2.92175 4.94822,2.91869 4.95057,2.91543 4.95257,2.91199 4.95421,2.9084 4.95549,2.90469 4.95641,2.90089 4.95696,2.89703 4.95715,2.89313 4.95697,2.88923 4.95641,2.88535 4.95548,2.88152 4.95418,2.87777 4.9525,2.87413 4.95043,2.87062 "/>
     <polygon id="_460585424" class="fil1" points="4.94246,2.92458 8.72873,6.71085 8.50434,6.8991 4.71807,3.11283 "/>
     <polygon id="_460585448" class="fil1" points="4.71807,3.11283 8.50434,6.8991 8.50496,6.90564 8.50506,6.91216 8.50464,6.91863 8.50371,6.92503 8.50229,6.93131 8.50039,6.93746 8.49801,6.94344 8.49517,6.94922 8.49189,6.95478 8.48817,6.96007 8.48401,6.96509 8.47944,6.96978 8.47447,6.97413 8.4691,6.97809 8.46335,6.98166 8.45722,6.98479 4.67095,3.19852 4.67708,3.19539 4.68283,3.19182 4.6882,3.18785 4.69317,3.18351 4.69774,3.17881 4.7019,3.1738 4.70562,3.16851 4.70891,3.16295 4.71174,3.15717 4.71412,3.15119 4.71602,3.14504 4.71744,3.13876 4.71837,3.13236 4.71879,3.12589 4.7187,3.11937 "/>
     <polygon id="_460585208" class="fil1" points="3.82986,2.55707 7.61613,6.34335 7.61932,6.35102 7.62234,6.35881 7.6252,6.36669 7.62791,6.37468 7.63044,6.38278 7.63283,6.39096 7.63506,6.39926 7.63713,6.40765 7.63906,6.41614 7.64083,6.42472 7.64246,6.4334 7.64394,6.44217 7.64528,6.45103 7.64647,6.45999 7.64753,6.46903 7.64844,6.47817 7.64922,6.48738 7.64987,6.49669 7.65038,6.50608 7.65076,6.51556 7.65101,6.52511 7.65114,6.53475 7.65114,6.54446 7.65101,6.55426 7.65077,6.56413 7.6504,6.57408 7.64992,6.58411 7.64932,6.5942 7.6486,6.60437 7.64778,6.61461 7.64684,6.62493 7.6458,6.63531 3.85953,2.84904 3.86057,2.83865 3.86151,2.82834 3.86233,2.8181 3.86305,2.80793 3.86365,2.79783 3.86413,2.78781 3.8645,2.77786 3.86474,2.76799 3.86487,2.75819 3.86487,2.74848 3.86474,2.73884 3.86449,2.72928 3.86411,2.71981 3.8636,2.71042 3.86296,2.70111 3.86218,2.69189 3.86126,2.68276 3.8602,2.67372 3.85901,2.66476 3.85767,2.6559 3.85619,2.64713 3.85457,2.63845 3.85279,2.62987 3.85087,2.62138 3.84879,2.61299 3.84656,2.60469 3.84418,2.5965 3.84164,2.58841 3.83894,2.58042 3.83607,2.57254 3.83305,2.56475 "/>
     <polygon id="_460585352" class="fil1" points="2.95203,2.07535 6.7383,5.86162 6.72917,5.86208 2.9429,2.07581 "/>
     <polygon id="_460585616" class="fil1" points="2.93372,2.06725 6.71998,5.85352 6.53951,5.6857 2.75324,1.89943 "/>
     <polygon id="_460585760" class="fil1" points="4.29753,3.44896 8.0838,7.23524 8.08378,7.24124 8.08373,7.24741 8.08365,7.25373 8.08354,7.2602 8.08339,7.26683 8.0832,7.2736 8.08299,7.28052 8.08274,7.28758 8.08245,7.29479 8.08213,7.30213 8.08177,7.30961 8.08137,7.31723 8.08094,7.32498 8.08047,7.33286 8.07996,7.34087 8.07942,7.349 8.07883,7.35726 8.07821,7.36564 8.07754,7.37413 8.07684,7.38275 8.07609,7.39148 8.07531,7.40033 8.07448,7.40928 8.07361,7.41835 8.0727,7.42752 8.07175,7.43679 8.07075,7.44616 8.06971,7.45564 8.06863,7.46521 8.0675,7.47487 8.06632,7.48463 8.0651,7.49448 4.27883,3.70821 4.28006,3.69836 4.28123,3.6886 4.28236,3.67894 4.28344,3.66937 4.28448,3.65989 4.28548,3.65052 4.28643,3.64124 4.28735,3.63207 4.28822,3.62301 4.28904,3.61406 4.28983,3.60521 4.29057,3.59648 4.29128,3.58786 4.29194,3.57937 4.29257,3.57098 4.29315,3.56273 4.2937,3.55459 4.2942,3.54659 4.29467,3.53871 4.29511,3.53096 4.2955,3.52334 4.29586,3.51586 4.29619,3.50852 4.29647,3.50131 4.29672,3.49425 4.29694,3.48733 4.29712,3.48056 4.29727,3.47393 4.29738,3.46746 4.29746,3.46114 4.29751,3.45497 "/>
     <polygon id="_460586048" class="fil1" points="5.27616,3.46667 9.06243,7.25294 9.06434,7.25597 9.0656,7.25926 9.06621,7.26271 9.06615,7.26621 9.06541,7.26967 9.064,7.27296 9.06189,7.27601 5.27562,3.48974 5.27773,3.48669 5.27915,3.48339 5.27988,3.47994 5.27994,3.47644 5.27933,3.47299 5.27807,3.4697 "/>
     <polygon id="_460586168" class="fil1" points="3.85953,2.84904 7.6458,6.63531 7.64215,6.66985 3.85588,2.88357 "/>
     <polygon id="_460586384" class="fil1" points="4.17527,3.11796 7.96154,6.90423 7.96617,6.91008 7.97073,6.91598 7.9752,6.92191 7.97959,6.92788 7.98391,6.93389 7.98813,6.93993 7.99228,6.94601 7.99633,6.95212 8.00031,6.95827 8.0042,6.96446 8.008,6.97068 8.01172,6.97693 8.01535,6.98322 8.01889,6.98954 8.02235,6.9959 8.02572,7.00228 4.23945,3.21601 4.23608,3.20963 4.23263,3.20327 4.22908,3.19695 4.22545,3.19066 4.22173,3.18441 4.21793,3.17819 4.21404,3.172 4.21007,3.16585 4.20601,3.15974 4.20186,3.15366 4.19764,3.14761 4.19333,3.14161 4.18894,3.13564 4.18446,3.12971 4.17991,3.12381 "/>
     <polygon id="_460585952" class="fil1" points="4.14449,3.08225 7.93076,6.86852 7.93874,6.8773 7.94654,6.88618 7.95413,6.89515 7.96154,6.90423 4.17527,3.11796 4.16787,3.10888 4.16027,3.09991 4.15247,3.09103 "/>
     <polygon id="_460586408" class="fil1" points="2.9429,2.07581 6.72917,5.86208 6.71998,5.85352 2.93372,2.06725 "/>
     <polygon id="_460586456" class="fil1" points="4.71704,3.87251 8.50331,7.65878 8.03978,7.65878 4.25351,3.87251 "/>
     <polygon id="_460586504" class="fil1" points="2.97411,2.88357 6.76037,6.66985 6.75704,6.66985 2.97078,2.88357 "/>
     <polygon id="_460586072" class="fil1" points="4.25351,3.87251 8.03978,7.65878 8.03841,7.66622 8.03702,7.67369 8.03559,7.68119 8.03415,7.6887 8.03269,7.69624 8.03119,7.7038 8.02967,7.71137 8.02813,7.71897 8.02657,7.72659 8.02497,7.73422 8.02335,7.74188 8.02171,7.74955 8.02004,7.75723 8.01835,7.76494 8.01663,7.77265 8.01489,7.78038 8.01311,7.78813 8.01131,7.79588 8.00949,7.80365 8.00764,7.81143 8.00576,7.81922 8.00386,7.82703 8.00193,7.83484 7.99997,7.84266 7.99798,7.85048 7.99597,7.85832 7.99393,7.86616 7.99186,7.87401 7.98977,7.88186 7.98765,7.88972 7.98549,7.89758 7.98331,7.90545 4.19705,4.11918 4.19922,4.11131 4.20138,4.10345 4.2035,4.09559 4.20559,4.08774 4.20766,4.07989 4.2097,4.07205 4.21172,4.06421 4.2137,4.05639 4.21566,4.04857 4.21759,4.04076 4.2195,4.03295 4.22137,4.02516 4.22322,4.01738 4.22505,4.00961 4.22685,4.00185 4.22862,3.99411 4.23036,3.98638 4.23208,3.97867 4.23378,3.97096 4.23544,3.96328 4.23709,3.95561 4.2387,3.94795 4.2403,3.94032 4.24187,3.9327 4.24341,3.9251 4.24493,3.91752 4.24642,3.90997 4.24789,3.90243 4.24933,3.89492 4.25075,3.88742 4.25214,3.87995 "/>
     <polygon id="_460586552" class="fil1" points="4.68827,4.43482 8.47454,8.22109 8.62588,8.449 4.83961,4.66273 "/>
     <polygon id="_460586096" class="fil1" points="4.62661,4.49043 8.41287,8.2767 8.40965,8.2773 8.40641,8.27778 8.40313,8.27812 8.39985,8.27834 8.39655,8.27842 8.39324,8.27837 8.38992,8.27818 8.3866,8.27786 8.38328,8.2774 8.37997,8.2768 8.37667,8.27606 8.37339,8.27518 8.37011,8.27415 8.36687,8.27298 8.36365,8.27167 8.36045,8.2702 4.57419,4.48393 4.57738,4.4854 4.5806,4.48671 4.58385,4.48788 4.58712,4.48891 4.59041,4.48979 4.5937,4.49053 4.59702,4.49113 4.60033,4.49159 4.60365,4.49191 4.60697,4.49209 4.61028,4.49215 4.61358,4.49207 4.61687,4.49185 4.62014,4.4915 4.62339,4.49103 "/>
     <polygon id="_460586264" class="fil1" points="4.57419,4.48393 8.36045,8.2702 7.9332,8.06354 4.14694,4.27726 "/>
     <polygon id="_460587392" class="fil1" points="4.14694,4.27726 7.9332,8.06354 7.93004,8.07231 7.92683,8.08108 7.92357,8.08983 7.92029,8.09856 7.91696,8.10727 7.91359,8.11596 7.91018,8.12463 7.90672,8.13329 7.90323,8.14192 7.8997,8.15052 7.89612,8.15911 7.89251,8.16766 7.88885,8.17619 7.88515,8.1847 7.88141,8.19317 7.87762,8.20162 7.8738,8.21004 7.86993,8.21842 7.86601,8.22678 7.86206,8.23509 7.85806,8.24338 7.85401,8.25163 7.84993,8.25985 7.8458,8.26803 7.84162,8.27617 7.83741,8.28427 7.83314,8.29233 7.82883,8.30035 7.82448,8.30833 7.82008,8.31626 7.81564,8.32416 7.81115,8.332 4.02489,4.54573 4.02937,4.53789 4.03381,4.52999 4.03821,4.52206 4.04257,4.51408 4.04687,4.50606 4.05114,4.498 4.05535,4.48989 4.05953,4.48176 4.06366,4.47357 4.06774,4.46536 4.07179,4.45711 4.07579,4.44882 4.07974,4.4405 4.08366,4.43215 4.08753,4.42376 4.09135,4.41535 4.09514,4.4069 4.09888,4.39843 4.10258,4.38992 4.10624,4.38139 4.10985,4.37283 4.11343,4.36425 4.11696,4.35565 4.12046,4.34702 4.12391,4.33836 4.12732,4.32969 4.13069,4.321 4.13402,4.31229 4.13731,4.30356 4.14056,4.29481 4.14377,4.28604 "/>
     <polygon id="_460587440" class="fil1" points="4.80743,4.99693 8.5937,8.7832 8.59002,8.7828 8.5866,8.7817 8.58352,8.77998 8.58084,8.77772 4.79457,4.99145 4.79725,4.99371 4.80033,4.99543 4.80375,4.99653 "/>
     <polygon id="_460587368" class="fil1" points="4.79213,4.72432 8.5784,8.51059 8.57534,8.50941 8.57237,8.50798 8.56951,8.50631 8.56678,8.50441 8.56419,8.50226 8.56176,8.49989 4.7755,4.71361 4.77792,4.71599 4.78051,4.71813 4.78324,4.72004 4.7861,4.72171 4.78907,4.72314 "/>
     <polygon id="_460587056" class="fil1" points="4.83961,4.66273 8.62588,8.449 8.62801,8.45258 8.62974,8.45628 8.63107,8.46007 8.63201,8.46394 8.63257,8.46785 8.63275,8.47176 8.63256,8.47567 8.632,8.47952 8.63108,8.48331 8.6298,8.487 8.62818,8.49057 8.6262,8.49398 8.62389,8.49721 8.62125,8.50024 8.61828,8.50302 8.61498,8.50554 4.82871,4.71927 4.83201,4.71675 4.83498,4.71396 4.83763,4.71094 4.83994,4.70771 4.84191,4.7043 4.84354,4.70073 4.84481,4.69704 4.84573,4.69325 4.84629,4.68939 4.84648,4.68549 4.8463,4.68157 4.84574,4.67767 4.8448,4.6738 4.84347,4.67001 4.84174,4.66631 "/>
     <polygon id="_460586792" class="fil1" points="4.82871,4.71927 8.61498,8.50554 8.61213,8.76514 4.82587,4.97887 "/>
     <polygon id="_460586960" class="fil1" points="4.82587,4.97887 8.61213,8.76514 8.61172,8.76882 8.61063,8.77224 8.60891,8.77532 8.60665,8.778 8.60393,8.7802 8.60081,8.78185 8.59738,8.78287 8.5937,8.7832 4.80743,4.99693 4.81111,4.9966 4.81455,4.99558 4.81766,4.99393 4.82039,4.99173 4.82265,4.98905 4.82436,4.98597 4.82546,4.98255 "/>
     <polygon id="_460586888" class="fil1" points="1.83734,2.59854 5.62361,6.38481 5.62607,6.38734 5.62802,6.39035 5.62938,6.3938 1.84311,2.60752 1.84176,2.60408 1.8398,2.60107 "/>
     <polygon id="_460586720" class="fil1" points="2.57354,3.87251 6.35981,7.65878 5.89589,7.65878 2.10963,3.87251 "/>
     <polygon id="_460586864" class="fil1" points="1.57614,3.46348 5.36241,7.24975 5.36508,7.25231 1.57881,3.46604 "/>
     <polygon id="_460587032" class="fil1" points="1.57881,3.46604 5.36508,7.25231 5.53008,7.44562 1.74381,3.65935 "/>
     <polygon id="_460587920" class="fil1" points="2.25248,4.48393 6.03875,8.2702 6.03556,8.27167 6.03234,8.27298 6.02909,8.27415 6.02582,8.27518 6.02253,8.27606 6.01923,8.2768 6.01592,8.2774 6.0126,8.27786 6.00928,8.27818 6.00597,8.27837 6.00266,8.27842 5.99935,8.27834 5.99607,8.27812 5.9928,8.27778 5.98955,8.2773 5.98633,8.2767 2.20006,4.49043 2.20328,4.49103 2.20653,4.4915 2.2098,4.49185 2.21309,4.49207 2.21639,4.49215 2.2197,4.49209 2.22302,4.49191 2.22633,4.49159 2.22965,4.49113 2.23296,4.49053 2.23626,4.48979 2.23955,4.48891 2.24282,4.48788 2.24607,4.48671 2.24929,4.4854 "/>
     <polygon id="_460587632" class="fil1" points="2.20006,4.49043 5.98633,8.2767 5.84175,8.49445 2.05548,4.70818 "/>
     <polygon id="_460587488" class="fil1" points="2.05548,4.70818 5.84175,8.49445 5.83969,8.49728 5.83744,8.49989 5.83502,8.50226 5.83243,8.50441 5.8297,8.50631 5.82684,8.50798 5.82387,8.50941 5.8208,8.51059 2.03454,4.72432 2.0376,4.72314 2.04057,4.72171 2.04343,4.72004 2.04616,4.71813 2.04875,4.71599 2.05117,4.71361 2.05343,4.71101 "/>
     <polygon id="_460587944" class="fil1" points="1.99795,4.71927 5.78422,8.50554 5.78093,8.50302 1.99466,4.71674 "/>
     <polygon id="_460587704" class="fil1" points="2.0373,4.97848 5.82357,8.76475 5.82324,8.76844 5.82221,8.77188 5.82056,8.775 5.81836,8.77772 5.81569,8.77998 5.8126,8.7817 5.80919,8.7828 5.80551,8.7832 2.01924,4.99693 2.02292,4.99653 2.02633,4.99543 2.02942,4.99371 2.03209,4.99145 2.0343,4.98872 2.03594,4.98561 2.03697,4.98217 "/>
     <polygon id="_460587872" class="fil1" points="2.01924,4.99693 5.80551,8.7832 5.80183,8.78287 5.79839,8.78185 5.79527,8.7802 5.79255,8.778 2.00628,4.99173 2.009,4.99393 2.01212,4.99558 2.01556,4.9966 "/>
     <polygon id="_460587896" class="fil1" points="2.03454,4.72432 5.8208,8.51059 5.82357,8.76475 2.0373,4.97848 "/>
     <polygon id="_460587968" class="fil1" points="2.10859,3.11283 5.89486,6.8991 5.67048,6.71085 1.88421,2.92458 "/>
     <polygon id="_460588016" class="fil1" points="1.74853,3.73699 5.5348,7.52326 5.53084,7.52196 5.52711,7.52031 5.52361,7.51832 5.52036,7.51603 5.51737,7.51345 1.73111,3.72718 1.73409,3.72976 1.73734,3.73205 1.74084,3.73404 1.74457,3.73569 "/>
     <polygon id="_460588088" class="fil1" points="2.03103,3.81432 5.8173,7.60059 5.5348,7.52326 1.74853,3.73699 "/>
     <polygon id="_460588208" class="fil1" points="2.10963,3.87251 5.89589,7.65878 5.88902,7.6585 5.88231,7.65766 5.87577,7.6563 5.86943,7.65443 5.86332,7.65207 5.85746,7.64925 5.85186,7.64599 5.84656,7.64231 5.84156,7.63824 2.0553,3.85197 2.06029,3.85604 2.06559,3.85972 2.07119,3.86298 2.07706,3.8658 2.08317,3.86815 2.0895,3.87002 2.09604,3.87139 2.10276,3.87222 "/>
     <polygon id="_460588520" class="fil1" points="2.68072,4.27678 6.46699,8.06306 6.03875,8.2702 2.25248,4.48393 "/>
     <polygon id="_460588424" class="fil1" points="3.41333,4.95445 7.1996,8.74072 7.16448,8.73979 7.13026,8.73702 7.09692,8.73247 7.06445,8.72619 7.03285,8.71823 7.00209,8.70865 6.97218,8.6975 6.94309,8.68483 6.91483,8.67069 6.88737,8.65515 6.86072,8.63824 6.83485,8.62003 6.80976,8.60057 6.78544,8.57991 2.99918,4.79363 3.0235,4.8143 3.04859,4.83376 3.07445,4.85197 3.10111,4.86887 3.12856,4.88442 3.15683,4.89856 3.18591,4.91122 3.21582,4.92237 3.24658,4.93196 3.27819,4.93991 3.31065,4.9462 3.34399,4.95075 3.37822,4.95352 "/>
     <polygon id="_460588616" class="fil1" points="2.15571,3.19852 5.94198,6.98479 5.93585,6.98166 5.9301,6.97809 5.92473,6.97413 5.91976,6.96978 2.13349,3.18351 2.13846,3.18785 2.14383,3.19182 2.14959,3.19539 "/>
     <polygon id="_460588904" class="fil1" points="1.88421,2.92458 5.67048,6.71085 5.66742,6.70802 1.88115,2.92175 "/>
     <polygon id="_460588712" class="fil1" points="1.84311,2.60752 5.62938,6.3938 5.69858,6.63835 1.91231,2.85208 "/>
     <polygon id="_460588448" class="fil1" points="2.53508,3.37287 6.32135,7.15914 5.94198,6.98479 2.15571,3.19852 "/>
     <polygon id="_460588808" class="fil1" points="4.02489,4.54573 7.81115,8.332 7.80771,8.33794 7.80424,8.34386 7.80074,8.34974 7.79722,8.3556 7.79367,8.36144 7.79009,8.36724 7.78648,8.37302 7.78285,8.37876 7.7792,8.38448 7.77551,8.39017 7.7718,8.39582 7.76806,8.40145 7.7643,8.40704 7.7605,8.41261 7.75669,8.41814 7.75284,8.42364 7.74896,8.42911 7.74506,8.43454 7.74113,8.43994 7.73717,8.44531 7.73319,8.45065 7.72918,8.45594 7.72513,8.46121 7.72107,8.46644 7.71697,8.47163 7.71284,8.47679 7.70869,8.48191 7.70451,8.48699 7.7003,8.49204 7.69606,8.49704 7.6918,8.50201 7.6875,8.50694 3.90123,4.72067 3.90553,4.71574 3.9098,4.71077 3.91403,4.70576 3.91824,4.70072 3.92243,4.69563 3.92657,4.69052 3.9307,4.68536 3.9348,4.68017 3.93887,4.67494 3.94291,4.66967 3.94692,4.66437 3.95091,4.65904 3.95486,4.65367 3.95879,4.64827 3.9627,4.64283 3.96657,4.63737 3.97042,4.63187 3.97424,4.62633 3.97803,4.62077 3.9818,4.61518 3.98553,4.60955 3.98924,4.60389 3.99293,4.5982 3.99659,4.59249 4.00022,4.58674 4.00382,4.58097 4.0074,4.57517 4.01095,4.56933 4.01447,4.56347 4.01797,4.55759 4.02144,4.55167 "/>
     <polygon id="_460588856" class="fil1" points="3.90123,4.72067 7.6875,8.50694 7.67578,8.52003 7.66384,8.53283 7.65169,8.54533 7.63933,8.55752 7.62675,8.56939 7.61396,8.58094 7.60094,8.59216 7.58771,8.60303 7.57425,8.61356 7.56057,8.62372 7.54667,8.63353 7.53253,8.64296 7.51817,8.652 7.50357,8.66066 7.48875,8.66892 7.47369,8.67678 7.45839,8.68422 7.44286,8.69124 7.42709,8.69783 7.41108,8.70398 7.39483,8.70969 7.37833,8.71494 7.36159,8.71973 7.3446,8.72405 7.32736,8.72789 7.30987,8.73125 7.29213,8.73411 7.27414,8.73647 7.25589,8.73832 7.23739,8.73965 7.21862,8.74045 7.1996,8.74072 3.41333,4.95445 3.43235,4.95418 3.45112,4.95338 3.46962,4.95205 3.48787,4.9502 3.50587,4.94784 3.5236,4.94498 3.54109,4.94162 3.55833,4.93778 3.57532,4.93346 3.59206,4.92867 3.60856,4.92341 3.62481,4.91771 3.64082,4.91156 3.65659,4.90497 3.67213,4.89794 3.68742,4.8905 3.70248,4.88265 3.71731,4.87439 3.7319,4.86573 3.74626,4.85669 3.7604,4.84726 3.7743,4.83745 3.78798,4.82728 3.80144,4.81676 3.81468,4.80589 3.82769,4.79467 3.84048,4.78312 3.85306,4.77125 3.86543,4.75906 3.87757,4.74656 3.88951,4.73376 "/>
     <polygon id="_460588568" class="fil1" points="4.66981,4.35368 8.45608,8.13995 8.46083,8.14548 8.46505,8.15138 8.46871,8.15759 8.47181,8.16409 8.47433,8.17082 8.47626,8.17775 8.47758,8.18483 8.47828,8.19203 8.47833,8.19929 8.47774,8.20659 8.47648,8.21387 8.47454,8.22109 4.68827,4.43482 4.69021,4.42759 4.69147,4.42031 4.69207,4.41302 4.69201,4.40576 4.69131,4.39856 4.69,4.39148 4.68807,4.38455 4.68554,4.37781 4.68244,4.37132 4.67878,4.36511 4.67456,4.35921 "/>
     <polygon id="_460588232" class="fil1" points="4.67095,3.19852 8.45722,6.98479 8.07785,7.15914 4.29158,3.37287 "/>
     <polygon id="_460589336" class="fil1" points="4.29158,3.37287 8.07785,7.15914 8.07846,7.16312 8.07904,7.16711 8.07958,7.17111 8.08009,7.17511 8.08057,7.17912 8.08102,7.18314 8.08143,7.18717 8.08181,7.1912 8.08216,7.19524 8.08248,7.19928 8.08276,7.20333 8.083,7.20739 8.08322,7.21146 8.0834,7.21553 8.08354,7.21961 8.08366,7.22369 4.29739,3.43742 4.29728,3.43333 4.29713,3.42926 4.29695,3.42519 4.29674,3.42112 4.29649,3.41706 4.29621,3.41301 4.29589,3.40896 4.29555,3.40493 4.29517,3.40089 4.29475,3.39687 4.2943,3.39285 4.29383,3.38884 4.29331,3.38483 4.29277,3.38084 4.29219,3.37685 "/>
     <polygon id="_460589144" class="fil1" points="4.29739,3.43742 8.08366,7.22369 8.08369,7.22513 8.08372,7.22657 8.08374,7.22802 8.08376,7.22946 8.08378,7.2309 8.08379,7.23235 8.08379,7.23379 8.0838,7.23524 4.29753,3.44896 4.29752,3.44752 4.29752,3.44607 4.29751,3.44463 4.2975,3.44319 4.29748,3.44174 4.29745,3.4403 4.29742,3.43886 "/>
     <polygon id="_460589360" class="fil1" points="4.79564,3.81432 8.58191,7.60059 8.57974,7.6068 8.5771,7.61276 8.57402,7.61846 8.5705,7.62389 8.56659,7.62901 8.5623,7.6338 8.55764,7.63824 8.55265,7.64231 8.54734,7.64599 8.54175,7.64925 8.53588,7.65207 8.52977,7.65443 8.52343,7.6563 8.5169,7.65766 8.51018,7.6585 8.50331,7.65878 4.71704,3.87251 4.72391,3.87222 4.73063,3.87139 4.73717,3.87002 4.7435,3.86815 4.74961,3.8658 4.75548,3.86298 4.76107,3.85972 4.76638,3.85604 4.77137,3.85197 4.77603,3.84753 4.78032,3.84274 4.78424,3.83762 4.78775,3.83219 4.79083,3.82649 4.79347,3.82052 "/>
     <polygon id="_460589288" class="fil1" points="5.10708,3.68721 8.89335,7.47348 8.89417,7.47754 8.89458,7.48159 8.89459,7.48561 8.89421,7.48956 8.89345,7.49343 8.89233,7.49719 8.89087,7.50081 8.88907,7.50427 8.88696,7.50755 8.88454,7.51062 8.88183,7.51345 8.87884,7.51603 8.87559,7.51832 8.87209,7.52031 8.86836,7.52196 8.86441,7.52326 5.07814,3.73699 5.08209,3.73569 5.08583,3.73404 5.08932,3.73205 5.09257,3.72976 5.09556,3.72718 5.09827,3.72435 5.10069,3.72128 5.10281,3.718 5.1046,3.71454 5.10607,3.71092 5.10719,3.70716 5.10794,3.70329 5.10832,3.69934 5.10831,3.69532 5.10791,3.69127 "/>
     <polygon id="_460589552" class="fil1" points="5.07814,3.73699 8.86441,7.52326 8.58191,7.60059 4.79564,3.81432 "/>
     <polygon id="_460589000" class="fil1" points="5.27562,3.48974 9.06189,7.27601 8.89335,7.47348 5.10708,3.68721 "/>
    </g>
    <path id="_637655080" class="fil1" d="M3.98883 1.82972l0.0845866 0.0697008 -0.18048 0.167827 -0.00918504 0.00855512 -0.00912205 -0.000456693 -0.192992 -0.00964173 -0.125295 0.143189c0.0112323,0.00822441 0.0216969,0.0173937 0.031248,0.0273976 0.0370551,0.0388189 0.0604409,0.0900709 0.0618622,0.147244 0.0897205,0.0363858 0.147213,0.096185 0.180406,0.173535 0.0348976,0.081315 0.0413858,0.180878 0.0296654,0.291961l-0.00364567 0.0345394 -0.00333858 0c0.133264,0.0560945 0.24478,0.137075 0.322728,0.234382 0.024937,0.0311299 0.0464528,0.0639016 0.0641772,0.0980551l0.362902 -0.166764c0.0215039,-0.00988976 0.045063,-0.00970472 0.065374,-0.00141732l0.221949 -0.186173c0.00722835,-0.00606299 0.0159331,-0.0092126 0.0246811,-0.0095748l0.0692008 -0.244559c0.00273622,-0.0097126 0.0128189,-0.015374 0.0225315,-0.0125906 0.00969685,0.00273228 0.0153228,0.0128189 0.0125906,0.0225315l-0.0706929 0.249807c0.0140827,0.0173622 0.0117008,0.0428937 -0.00552362,0.057311l-0.224386 0.188244c0.00474016,0.0348858 -0.0134803,0.0702205 -0.047122,0.085689l-0.379374 0.17435c0.00334252,0.0212205 0.00529921,0.042752 0.00581102,0.0645512 9.44882e-005,0.00384252 0.000137795,0.00768898 0.000137795,0.0115472 0,0.063248 -0.00544094,0.153705 -0.0186929,0.259248l0.438209 0c0.0236693,0 0.0450039,0.0100157 0.0599921,0.0260394l0.279409 -0.0765079c0.00909449,-0.00248425 0.018311,-0.0017126 0.0264094,0.0016063l0.165 -0.193311c0.00654724,-0.0076811 0.0180748,-0.00859843 0.025748,-0.00203937 0.00766535,0.00653937 0.00856693,0.0180512 0.00201969,0.0257402l-0.168543 0.197469c0.00554331,0.0216614 -0.0072874,0.0438543 -0.0289409,0.0497835l-0.2825 0.0773268c-0.0102559,0.0336772 -0.0415669,0.058189 -0.0785945,0.058189l-0.463531 0c-0.0144921,0.0792913 -0.0330709,0.16276 -0.0564646,0.246669 0.00167717,0.000677165 0.00334252,0.00141339 0.00499213,0.0022126l0.443701 0.214642c0.0372362,0.0180197 0.0547323,0.0604764 0.0425315,0.0987874l0.151339 0.227909c0.0124331,0.0187047 0.00752756,0.0438465 -0.0108976,0.0565433l-0.00284646 0.259598c-0.000102362,0.0100945 -0.0083622,0.0181732 -0.018437,0.018063 -0.0100945,-9.05512e-005 -0.0181693,-0.00837008 -0.0180669,-0.0184528l0.00277165 -0.254161c-0.00828346,-0.0028189 -0.0157362,-0.00829528 -0.0209449,-0.0161417l-0.144583 -0.217752c-0.0171102,0.00355906 -0.0354803,0.00170472 -0.0524213,-0.00649213l-0.427248 -0.206669c-0.0336024,0.0937244 -0.073937,0.185008 -0.122051,0.268469 -0.0366063,0.0635 -0.077685,0.122551 -0.123654,0.174937 -0.123941,0.141185 -0.283591,0.233783 -0.487902,0.233783 -0.37937,0 -0.604524,-0.322201 -0.732606,-0.677669l-0.42824 0.20715c-0.0169409,0.00819685 -0.035315,0.0100512 -0.0524252,0.00649213l-0.144579 0.217752c-0.0052126,0.00784646 -0.0126614,0.0133228 -0.0209449,0.0161417l0.00276772 0.254161c0.000102362,0.0100827 -0.00797244,0.0183622 -0.018063,0.0184528 -0.0100787,0.000110236 -0.0183386,-0.0079685 -0.0184409,-0.018063l-0.00284646 -0.259602c-0.0184213,-0.0126969 -0.0233268,-0.0378346 -0.0108976,-0.0565394l0.151343 -0.227913c-0.0122008,-0.038311 0.00529528,-0.0807677 0.0425276,-0.0987835l0.443705 -0.214642c0.00189764,-0.000917323 0.00381496,-0.00175591 0.00574803,-0.00251575 -0.0235394,-0.0838504 -0.0422441,-0.167197 -0.0568386,-0.246366l-0.463913 0c-0.0370276,0 -0.0683425,-0.0245118 -0.0785984,-0.058189l-0.282496 -0.0773268c-0.0216575,-0.00592913 -0.0344843,-0.0281181 -0.0289449,-0.0497835l-0.168543 -0.197469c-0.00654331,-0.00768898 -0.00564567,-0.0192008 0.00201969,-0.0257402 0.00767717,-0.00655906 0.0192047,-0.00564173 0.025748,0.00203937l0.165004 0.193311c0.00809449,-0.0033189 0.017311,-0.00409055 0.0264055,-0.0016063l0.279409 0.0765079c0.0149921,-0.0160236 0.0363268,-0.0260394 0.0599961,-0.0260394l0.438378 0c-0.0133701,-0.105453 -0.0188701,-0.195862 -0.0188701,-0.259248 0,-0.025748 0.00201969,-0.0511417 0.00594882,-0.0760984l-0.37937 -0.17435c-0.0336417,-0.0154685 -0.0518583,-0.0508031 -0.0471181,-0.085689l-0.224386 -0.188244c-0.0172283,-0.0144173 -0.0196063,-0.0399449 -0.00552756,-0.057311l-0.0706929 -0.249807c-0.00273228,-0.0097126 0.00289764,-0.0197992 0.0125906,-0.0225315 0.0097126,-0.00278346 0.0197992,0.00287795 0.0225315,0.0125906l0.0692008 0.244559c0.00874803,0.000358268 0.0174488,0.00350787 0.0246811,0.0095748l0.221949 0.186173c0.0203071,-0.0082874 0.0438701,-0.00847244 0.065374,0.00141732l0.362898 0.166764c0.0177244,-0.0341535 0.0392441,-0.0669252 0.0641772,-0.0980551 0.0779488,-0.0973071 0.189453,-0.178287 0.322717,-0.234382l-0.00333071 0 -0.00364961 -0.0345394c-0.0117205,-0.111083 -0.00522835,-0.210646 0.0296693,-0.291961 0.033189,-0.0773504 0.090685,-0.13715 0.180406,-0.173535 0.00142126,-0.0571732 0.0248071,-0.108425 0.0618622,-0.147244 0.00955118,-0.0100039 0.0200157,-0.0191772 0.031252,-0.0274016l-0.125295 -0.143185 -0.192992 0.00964173 -0.00912598 0.000456693 -0.00918504 -0.00855512 -0.180476 -0.167827 0.0845827 -0.0697008 0.12485 0.200457 0.190894 -0.00954331 0.0107795 -0.000531496 0.00711417 0.00812598 0.137787 0.157461c0.0238504,-0.0113228 0.0498465,-0.018878 0.0770276,-0.0219173 0.00929134,-0.00103937 0.0183307,-0.00157087 0.0270512,-0.00157087 0.00872047,0 0.0177598,0.000531496 0.0270512,0.00157087 0.027185,0.00303937 0.0531811,0.0105984 0.0770315,0.0219213l0.137776 -0.157465 0.00711417 -0.00812598 0.0107795 0.000531496 0.190906 0.00954331 0.12485 -0.200457z"/>
   </g>
  </g>
  <path class="fil2" d="M3.41333 -3.93701e-006c1.88513,0 3.41333,1.5282 3.41333,3.41333 0,1.88513 -1.5282,3.41333 -3.41333,3.41333 -1.88513,0 -3.41333,-1.5282 -3.41333,-3.41333 0,-1.88513 1.5282,-3.41333 3.41333,-3.41333z"/>
  <path class="fil3" d="M2.14277 4.44576c-0.0197638,-0.0408386 -0.00266535,-0.0899764 0.0381575,-0.109732l0.443705 -0.214642c0.0408583,-0.0197402 0.0899764,-0.00265748 0.109732,0.038185 0.0197559,0.0408425 0.00265748,0.0899606 -0.038185,0.109732l-0.443693 0.214626c-0.0408268,0.0197559 -0.0899724,0.00265748 -0.109717,-0.0381693z"/>
  <path class="fil3" d="M1.99855 4.71967c-0.0189134,-0.012563 -0.0240591,-0.0380394 -0.0114961,-0.0569449l0.179268 -0.269969c0.0125315,-0.0188976 0.0380157,-0.0240433 0.0569213,-0.0114961 0.0189173,0.0125551 0.0240591,0.0380315 0.0114961,0.0569291l-0.17926 0.269984c-0.0125394,0.0188819 -0.0380433,0.0240276 -0.0569291,0.0114961z"/>
  <path class="fil3" d="M2.01924 4.99693c-0.0100787,0.000110236 -0.0183386,-0.0079685 -0.0184409,-0.018063l-0.00325197 -0.296618c-0.000102362,-0.0100591 0.00798031,-0.0183346 0.0180669,-0.0184213 0.0100748,-0.000137795 0.0183346,0.00794488 0.0184567,0.0180315l0.00323228 0.296618c0.000102362,0.0100827 -0.00797244,0.0183622 -0.018063,0.0184528z"/>
  <path class="fil3" d="M2.02748 3.79037c0,0.0453583 0.0367874,0.0821417 0.0821457,0.0821417l0.49289 0c0.0453661,0 0.0821575,-0.0367835 0.0821575,-0.0821417 0,-0.045378 -0.0367913,-0.0821535 -0.0821575,-0.0821535l-0.49289 0c-0.0453583,0 -0.0821457,0.0367756 -0.0821457,0.0821535z"/>
  <path class="fil3" d="M1.71977 3.68652c-0.00599213,0.021878 0.00687795,0.0444764 0.0287638,0.0504685l0.312559 0.0855551c0.021878,0.00600394 0.0444685,-0.00688583 0.0504685,-0.0287598 0.00599606,-0.021878 -0.0068937,-0.0444685 -0.0287874,-0.0504606l-0.312551 -0.0855827c-0.021878,-0.00597638 -0.0444646,0.00688583 -0.0504528,0.0287795z"/>
  <path class="fil3" d="M1.55306 3.464c-0.00766535,0.00653937 -0.00856299,0.0180512 -0.00201969,0.0257402l0.192571 0.225622c0.00654724,0.00766535 0.0180669,0.00858268 0.0257244,0.00203543 0.0076811,-0.00655118 0.00858268,-0.018063 0.00205512,-0.0257362l-0.192583 -0.225622c-0.00654331,-0.0076811 -0.0180709,-0.00859843 -0.025748,-0.00203937z"/>
  <path class="fil3" d="M2.11537 3.08957c-0.018937,0.0412244 -0.000874016,0.0899961 0.0403425,0.108945l0.447854 0.205823c0.0412244,0.0189409 0.0900039,0.000874016 0.108945,-0.0403425 0.0189449,-0.0412244 0.000874016,-0.0900118 -0.0403346,-0.108941l-0.447862 -0.205807c-0.0412244,-0.0189567 -0.0900039,-0.000901575 -0.108945,0.0403228z"/>
  <path class="fil3" d="M1.87912 2.86674c-0.0145669,0.0173701 -0.0123189,0.0432795 0.00508661,0.0578465l0.24826 0.208276c0.0173858,0.0145787 0.0432953,0.012311 0.0578622,-0.00506693 0.0145787,-0.017378 0.012311,-0.0432795 -0.00505906,-0.057874l-0.24828 -0.20826c-0.0173858,-0.0145827 -0.0432756,-0.012315 -0.0578701,0.00507874z"/>
  <path class="fil3" d="M1.82058 2.59493c-0.00969291,0.00273228 -0.0153228,0.0128189 -0.0125906,0.0225315l0.0807677 0.285417c0.00273622,0.00969685 0.0128189,0.0153504 0.0225157,0.0125984 0.0097126,-0.00275591 0.0153583,-0.0128346 0.0126063,-0.0225276l-0.0807677 -0.285429c-0.00273228,-0.0097126 -0.0128189,-0.015374 -0.0225315,-0.0125906z"/>
  <path class="fil3" d="M4.6839 4.44576c0.0197638,-0.0408386 0.00266535,-0.0899764 -0.0381614,-0.109732l-0.443701 -0.214642c-0.0408622,-0.0197402 -0.0899803,-0.00265748 -0.109736,0.038185 -0.019752,0.0408425 -0.00265354,0.0899606 0.038185,0.109732l0.443697 0.214626c0.0408228,0.0197559 0.0899685,0.00265748 0.109717,-0.0381693z"/>
  <path class="fil3" d="M4.82812 4.71967c0.0189134,-0.012563 0.0240591,-0.0380394 0.0114921,-0.0569449l-0.179268 -0.269969c-0.0125315,-0.0188976 -0.0380157,-0.0240433 -0.0569213,-0.0114961 -0.0189134,0.0125551 -0.0240591,0.0380315 -0.0114961,0.0569291l0.179264 0.269984c0.0125354,0.0188819 0.0380394,0.0240276 0.0569291,0.0114961z"/>
  <path class="fil3" d="M4.80743 4.99693c0.0100748,0.000110236 0.0183346,-0.0079685 0.018437,-0.018063l0.00325197 -0.296618c0.000102362,-0.0100591 -0.00798031,-0.0183346 -0.018063,-0.0184213 -0.0100787,-0.000137795 -0.0183386,0.00794488 -0.0184567,0.0180315l-0.00323622 0.296618c-0.000102362,0.0100827 0.00797244,0.0183622 0.0180669,0.0184528z"/>
  <path class="fil3" d="M4.79919 3.79037c0,0.0453583 -0.0367835,0.0821417 -0.0821417,0.0821417l-0.49289 0c-0.0453661,0 -0.0821614,-0.0367835 -0.0821614,-0.0821417 0,-0.045378 0.0367953,-0.0821535 0.0821614,-0.0821535l0.49289 0c0.0453583,0 0.0821417,0.0367756 0.0821417,0.0821535z"/>
  <path class="fil3" d="M5.1069 3.68652c0.00599213,0.021878 -0.00687795,0.0444764 -0.0287598,0.0504685l-0.312563 0.0855551c-0.021874,0.00600394 -0.0444646,-0.00688583 -0.0504685,-0.0287598 -0.00599213,-0.021878 0.0068937,-0.0444685 0.0287874,-0.0504606l0.312551 -0.0855827c0.021878,-0.00597638 0.0444685,0.00688583 0.0504528,0.0287795z"/>
  <path class="fil3" d="M5.2736 3.464c0.00766535,0.00653937 0.00856693,0.0180512 0.00201969,0.0257402l-0.192571 0.225622c-0.00654331,0.00766535 -0.0180669,0.00858268 -0.0257244,0.00203543 -0.0076811,-0.00655118 -0.00858268,-0.018063 -0.00205118,-0.0257362l0.192579 -0.225622c0.00654724,-0.0076811 0.0180748,-0.00859843 0.025748,-0.00203937z"/>
  <path class="fil3" d="M4.7113 3.08957c0.0189409,0.0412244 0.000874016,0.0899961 -0.0403425,0.108945l-0.447854 0.205823c-0.0412205,0.0189409 -0.0900039,0.000874016 -0.108941,-0.0403425 -0.0189488,-0.0412244 -0.000874016,-0.0900118 0.0403307,-0.108941l0.447862 -0.205807c0.0412244,-0.0189567 0.0900039,-0.000901575 0.108945,0.0403228z"/>
  <path class="fil3" d="M4.94754 2.86674c0.0145709,0.0173701 0.0123189,0.0432795 -0.00508268,0.0578465l-0.248264 0.208276c-0.0173858,0.0145787 -0.0432953,0.012311 -0.0578622,-0.00506693 -0.0145748,-0.017378 -0.012311,-0.0432795 0.00505906,-0.057874l0.24828 -0.20826c0.0173858,-0.0145827 0.0432795,-0.012315 0.0578701,0.00507874z"/>
  <path class="fil3" d="M5.00609 2.59493c0.00969685,0.00273228 0.0153228,0.0128189 0.0125906,0.0225315l-0.0807677 0.285417c-0.00273228,0.00969685 -0.0128189,0.0153504 -0.0225118,0.0125984 -0.0097126,-0.00275591 -0.0153583,-0.0128346 -0.0126102,-0.0225276l0.0807677 -0.285429c0.00273622,-0.0097126 0.0128189,-0.015374 0.0225315,-0.0125906z"/>
  <path class="fil4" d="M3.64946 2.38354c0.0897205,0.0363858 0.147213,0.096185 0.180406,0.173535 0.0348976,0.081315 0.0413858,0.180878 0.0296654,0.291961l-0.00364567 0.0345394 -0.0344961 0 -0.816114 0 -0.0344961 0 -0.00364961 -0.0345394c-0.0117205,-0.111083 -0.00522835,-0.210646 0.0296693,-0.291961 0.033189,-0.0773504 0.090685,-0.13715 0.180406,-0.173535 0.00142126,-0.0571732 0.0248071,-0.108425 0.0618622,-0.147244 0.0377795,-0.0395748 0.0898543,-0.0661102 0.147213,-0.0725197 0.00929134,-0.00103937 0.0183307,-0.00157087 0.0270512,-0.00157087 0.00872047,0 0.0177598,0.000531496 0.0270512,0.00157087 0.0573661,0.00641339 0.109437,0.0329488 0.147217,0.0725197 0.0370551,0.0388189 0.0604409,0.0900709 0.0618622,0.147244z"/>
  <path class="fil3" d="M3.84997 2.8825c0.134402,0.0561339 0.24685,0.137528 0.325299,0.235461 0.0777402,0.0970512 0.122256,0.210102 0.122256,0.331008 0,0.212043 -0.0611772,0.729961 -0.272642,1.09677 -0.135287,0.234673 -0.331453,0.40872 -0.611555,0.40872 -0.719299,0 -0.884197,-1.15828 -0.884197,-1.50549 0,-0.120906 0.0445157,-0.233957 0.122256,-0.331008 0.0789055,-0.0985039 0.192197,-0.180276 0.327634,-0.236437 0.00481496,-0.00200394 0.00980709,-0.00294882 0.0147165,-0.00294488l0 -6.29921e-005 0.839181 0c0.00612205,0 0.0119173,0.00143701 0.0170512,0.00398425z"/>
  <path class="fil5" d="M3.84997 2.8825c0.134402,0.0561339 0.24685,0.137528 0.325299,0.235461 0.0364488,0.0455 0.0655945,0.0945157 0.0862677,0.146213 0.00204331,0.00789764 0.00403543,0.0158661 0.00598819,0.0239173 0.0114724,0.0473858 0.0213543,0.0974409 0.0298622,0.149331 9.44882e-005,0.00384252 0.000137795,0.00768898 0.000137795,0.0115472 0,0.212043 -0.0611772,0.729961 -0.272642,1.09677 -0.0366063,0.0635 -0.077685,0.122551 -0.123665,0.174925 -0.129984,-0.0943819 -0.242031,-0.241402 -0.3265,-0.412606 -0.0818386,-0.165858 -0.138024,-0.354728 -0.159594,-0.540232 -0.0217874,-0.187311 -0.00838189,-0.371728 0.0492992,-0.526693 0.0614843,-0.165185 0.172429,-0.296484 0.343445,-0.3625l0.000295276 -0.000114173 0.0247559 0c0.00612205,0 0.0119173,0.00143701 0.0170512,0.00398425z"/>
  <path class="fil5" d="M2.92013 4.71265c-0.307409,-0.358839 -0.391,-1.01659 -0.391,-1.26368 0,-0.120906 0.0445157,-0.233957 0.122256,-0.331008 0.0789055,-0.0985039 0.192197,-0.180276 0.327634,-0.236437 0.00481496,-0.00200394 0.00980709,-0.00294882 0.0147165,-0.00294488l0 -6.29921e-005 0.00861811 0 0.000295276 0.000114173c0.17102,0.0660157 0.281965,0.197315 0.343449,0.3625 0.0576772,0.154961 0.0710866,0.339382 0.0492953,0.526693 -0.0215709,0.185504 -0.077752,0.374374 -0.159591,0.540232 -0.0821181,0.166425 -0.190291,0.310012 -0.315673,0.404594z"/>
  <circle class="fil6 str0" cx="3.20809" cy="2.56931" r="0.0625717"/>
  <circle class="fil6 str0" cx="3.61856" cy="2.56931" r="0.0625717"/>
  <polygon class="fil3" points="3.28056,2.2206 3.1379,2.05757 3.15579,2.06517 2.95203,2.07535 2.9429,2.07581 2.93372,2.06725 2.75324,1.89943 2.83782,1.82972 2.96811,2.03891 2.9498,2.03082 3.15357,2.02064 3.16435,2.02011 3.17146,2.02823 3.31412,2.19126 "/>
  <polygon class="fil3" points="3.51254,2.19126 3.65519,2.02823 3.6623,2.02011 3.67308,2.02064 3.87686,2.03082 3.85855,2.03891 3.98883,1.82972 4.07342,1.89943 3.89294,2.06725 3.88376,2.07581 3.87463,2.07535 3.67085,2.06517 3.68876,2.05757 3.5461,2.2206 "/>
  <path class="fil3" d="M2.81114 3.19974c0,0.0595039 0.0482283,0.107728 0.107724,0.107728 0.0594961,0 0.107724,-0.0482244 0.107724,-0.107728 0,-0.0594882 -0.0482283,-0.10772 -0.107724,-0.10772 -0.0594961,0 -0.107724,0.0482323 -0.107724,0.10772z"/>
  <path class="fil3" d="M3.97414 3.19974c0,0.0595039 -0.0482323,0.107728 -0.107728,0.107728 -0.0594961,0 -0.10772,-0.0482244 -0.10772,-0.107728 0,-0.0594882 0.0482244,-0.10772 0.10772,-0.10772 0.0594961,0 0.107728,0.0482323 0.107728,0.10772z"/>
  <path class="fil3" d="M2.66097 3.62333c0,0.0594961 0.0482283,0.107728 0.107724,0.107728 0.0594961,0 0.107724,-0.0482323 0.107724,-0.107728 0,-0.0594882 -0.0482283,-0.10772 -0.107724,-0.10772 -0.0594961,0 -0.107724,0.0482323 -0.107724,0.10772z"/>
  <path class="fil3" d="M4.12431 3.62333c0,0.0594961 -0.0482323,0.107728 -0.107728,0.107728 -0.0594961,0 -0.10772,-0.0482323 -0.10772,-0.107728 0,-0.0594882 0.0482244,-0.10772 0.10772,-0.10772 0.0594961,0 0.107728,0.0482323 0.107728,0.10772z"/>
  <path class="fil3" d="M3.03203 3.53151c0,0.0595 0.0482323,0.107717 0.107728,0.107717 0.0594882,0 0.10772,-0.0482165 0.10772,-0.107717 0,-0.0594921 -0.0482323,-0.10772 -0.10772,-0.10772 -0.0594961,0 -0.107728,0.0482283 -0.107728,0.10772z"/>
  <path class="fil3" d="M3.75326 3.53151c0,0.0595 -0.0482323,0.107717 -0.107728,0.107717 -0.0594882,0 -0.10772,-0.0482165 -0.10772,-0.107717 0,-0.0594921 0.0482323,-0.10772 0.10772,-0.10772 0.0594961,0 0.107728,0.0482283 0.107728,0.10772z"/>
  <path class="fil3" d="M2.97633 3.92367c0,0.0594961 0.0482323,0.107728 0.107728,0.107728 0.0594921,0 0.10772,-0.0482323 0.10772,-0.107728 0,-0.0594882 -0.0482283,-0.10772 -0.10772,-0.10772 -0.0594961,0 -0.107728,0.0482323 -0.107728,0.10772z"/>
  <path class="fil3" d="M3.80896 3.92367c0,0.0594961 -0.0482323,0.107728 -0.107728,0.107728 -0.0594961,0 -0.10772,-0.0482323 -0.10772,-0.107728 0,-0.0594882 0.0482244,-0.10772 0.10772,-0.10772 0.0594961,0 0.107728,0.0482323 0.107728,0.10772z"/>
  <path class="fil3" d="M2.84618 4.28407c0,0.0594961 0.0482323,0.107728 0.107728,0.107728 0.0594961,0 0.107724,-0.0482323 0.107724,-0.107728 0,-0.0594882 -0.0482283,-0.10772 -0.107724,-0.10772 -0.0594961,0 -0.107728,0.0482323 -0.107728,0.10772z"/>
  <path class="fil3" d="M3.9391 4.28407c0,0.0594961 -0.0482323,0.107728 -0.107724,0.107728 -0.0594961,0 -0.107724,-0.0482323 -0.107724,-0.107728 0,-0.0594882 0.0482283,-0.10772 0.107724,-0.10772 0.0594921,0 0.107724,0.0482323 0.107724,0.10772z"/>
 </g>
</svg>
