<?xml version="1.0" encoding="UTF-8"?>
<!DOCTYPE svg PUBLIC "-//W3C//DTD SVG 1.1//EN" "http://www.w3.org/Graphics/SVG/1.1/DTD/svg11.dtd">
<!-- Creator: CorelDRAW -->
<svg xmlns="http://www.w3.org/2000/svg" xml:space="preserve" width="6.82666in" height="6.82666in" style="shape-rendering:geometricPrecision; text-rendering:geometricPrecision; image-rendering:optimizeQuality; fill-rule:evenodd; clip-rule:evenodd"
viewBox="0 0 6.82666 6.82666"
 xmlns:xlink="http://www.w3.org/1999/xlink">
 <defs>
  <style type="text/css">
   <![CDATA[
    .fil2 {fill:none}
    .fil6 {fill:#212121}
    .fil9 {fill:#703112}
    .fil10 {fill:#B87654}
    .fil5 {fill:#D50000}
    .fil1 {fill:#00000000}
    .fil3 {fill:#E9E9E8}
    .fil0 {fill:#00000000}
    .fil7 {fill:#FFEBEE}
    .fil8 {fill:#FFFFFE}
    .fil4 {fill:#88421E;fill-rule:nonzero}
   ]]>
  </style>
   <clipPath id="id0">
    <path d="M3.41333 -3.93701e-006c1.88513,0 3.41333,1.5282 3.41333,3.41333 0,1.88513 -1.5282,3.41333 -3.41333,3.41333 -1.88513,0 -3.41333,-1.5282 -3.41333,-3.41333 0,-1.88513 1.5282,-3.41333 3.41333,-3.41333z"/>
   </clipPath>
 </defs>
 <g id="Layer_x0020_1">
  <metadata id="CorelCorpID_0Corel-Layer"/>
  <path class="fil0" d="M3.41333 -3.93701e-006c1.88513,0 3.41333,1.5282 3.41333,3.41333 0,1.88513 -1.5282,3.41333 -3.41333,3.41333 -1.88513,0 -3.41333,-1.5282 -3.41333,-3.41333 0,-1.88513 1.5282,-3.41333 3.41333,-3.41333z"/>
  <g style="clip-path:url(#id0)">
   <g id="_637656232">
    <g>
     <polygon id="_6376621601" class="fil1" points="4.52368,2.88626 8.30994,6.67253 8.31074,6.67474 8.31212,6.67865 8.31407,6.68417 8.31654,6.69124 8.31949,6.69977 8.32288,6.70967 8.32668,6.72088 8.33084,6.73331 8.33533,6.74687 8.34011,6.7615 8.34513,6.77711 8.35037,6.79362 8.35578,6.81095 8.36132,6.82903 8.36696,6.84776 8.37265,6.86708 8.37836,6.8869 8.38405,6.90714 8.38967,6.92773 8.3952,6.94857 8.40059,6.96961 8.40581,6.99074 8.4108,7.01189 8.41555,7.033 8.42,7.05396 8.42412,7.07471 8.42787,7.09516 8.43121,7.11524 8.4341,7.13486 8.43651,7.15394 8.43839,7.17242 8.4397,7.19019 4.65344,3.40392 4.65212,3.38615 4.65024,3.36767 4.64783,3.34859 4.64494,3.32896 4.6416,3.30889 4.63785,3.28844 4.63373,3.26769 4.62928,3.24672 4.62454,3.22562 4.61954,3.20446 4.61432,3.18333 4.60893,3.1623 4.60341,3.14146 4.59778,3.12087 4.59209,3.10063 4.58638,3.08081 4.58069,3.06149 4.57506,3.04276 4.56951,3.02468 4.5641,3.00735 4.55887,2.99084 4.55384,2.97523 4.54906,2.9606 4.54457,2.94704 4.54041,2.93461 4.53661,2.9234 4.53322,2.9135 4.53027,2.90497 4.5278,2.8979 4.52585,2.89237 4.52447,2.88847 "/>
     <polygon id="_637662064" class="fil1" points="2.77167,2.544 6.55793,6.33027 6.57263,6.34567 6.58685,6.3616 6.60055,6.37807 6.6137,6.39507 6.62626,6.41258 6.63819,6.4306 6.64946,6.44911 6.66002,6.46811 6.66983,6.48759 2.88357,2.70132 2.87375,2.68184 2.86319,2.66284 2.85193,2.64433 2.84,2.62631 2.82743,2.6088 2.81428,2.5918 2.80058,2.57533 2.78636,2.55939 "/>
     <polygon id="_637665424" class="fil1" points="2.36201,3.20088 6.14828,6.98715 6.14562,6.98481 2.35935,3.19854 "/>
     <polygon id="_637664944" class="fil1" points="2.48109,3.68329 6.26736,7.46956 6.26395,7.46702 6.26074,7.46431 2.47447,3.67804 2.47769,3.68074 "/>
     <polygon id="_637665112" class="fil1" points="3.68456,4.55446 7.47083,8.34073 7.46908,8.349 7.46727,8.35787 7.46541,8.36728 7.46352,8.37719 7.46162,8.38757 7.45972,8.39838 7.45786,8.40957 7.45604,8.42111 7.45428,8.43296 7.45261,8.44508 7.45104,8.45743 7.44958,8.46996 7.44826,8.48265 7.44711,8.49544 7.44612,8.5083 7.44533,8.52119 7.44476,8.53407 7.44441,8.5469 7.44431,8.55964 7.44448,8.57224 7.44494,8.58469 7.4457,8.59692 7.44679,8.6089 7.44822,8.62059 7.45001,8.63196 7.45218,8.64295 7.45474,8.65354 7.45773,8.66368 7.46115,8.67333 7.46502,8.68246 7.46937,8.69102 7.4742,8.69897 3.68793,4.9127 3.6831,4.90475 3.67875,4.89619 3.67488,4.88706 3.67146,4.87741 3.66848,4.86727 3.66591,4.85668 3.66374,4.84569 3.66195,4.83432 3.66052,4.82263 3.65943,4.81065 3.65867,4.79841 3.65821,4.78597 3.65804,4.77337 3.65814,4.76063 3.65849,4.7478 3.65906,4.73492 3.65985,4.72203 3.66084,4.70917 3.662,4.69637 3.66331,4.68369 3.66477,4.67116 3.66634,4.65881 3.66802,4.64669 3.66977,4.63484 3.67159,4.6233 3.67346,4.61211 3.67535,4.6013 3.67725,4.59092 3.67914,4.581 3.681,4.57159 3.68281,4.56273 "/>
     <polygon id="_637666096" class="fil1" points="4.09563,5.05878 7.88189,8.84506 7.88133,8.84959 7.87969,8.85228 7.87702,8.85339 7.87339,8.85316 7.86885,8.85182 7.86349,8.84962 7.85734,8.8468 7.85048,8.84361 7.84296,8.84028 7.83486,8.83706 7.82622,8.83419 7.81711,8.83191 7.80759,8.83046 7.79773,8.8301 7.78759,8.83106 7.77721,8.83357 3.99094,5.0473 4.00132,5.04478 4.01146,5.04383 4.02133,5.04419 4.03085,5.04564 4.03995,5.04791 4.04859,5.05078 4.0567,5.054 4.06421,5.05733 4.07107,5.06053 4.07722,5.06335 4.08259,5.06555 4.08712,5.06689 4.09075,5.06712 4.09342,5.06601 4.09506,5.06331 "/>
     <polygon id="_637665712" class="fil1" points="3.99094,5.0473 7.77721,8.83357 7.77502,8.83357 7.77256,8.83356 7.76986,8.83353 7.76692,8.8335 7.76376,8.83346 7.76038,8.83341 7.7568,8.83336 7.75302,8.83331 3.96675,5.04704 3.97053,5.04709 3.97411,5.04714 3.97749,5.04719 3.98065,5.04722 3.98359,5.04726 3.9863,5.04728 3.98875,5.0473 "/>
     <polygon id="_637665784" class="fil1" points="3.96675,5.04704 7.75302,8.83331 7.74992,8.83326 7.7467,8.83322 7.74338,8.83318 7.73996,8.83313 7.73645,8.83309 7.73285,8.83304 7.72916,8.833 7.72539,8.83296 7.72156,8.83292 7.71765,8.83289 7.71369,8.83285 7.70967,8.83283 7.70559,8.83281 7.70148,8.83279 7.69732,8.83278 7.69313,8.83278 3.90686,5.0465 3.91105,5.04651 3.91521,5.04652 3.91933,5.04654 3.9234,5.04656 3.92742,5.04658 3.93139,5.04661 3.93529,5.04665 3.93913,5.04669 3.94289,5.04673 3.94658,5.04677 3.95018,5.04681 3.95369,5.04686 3.95711,5.04691 3.96043,5.04695 3.96365,5.04699 "/>
     <polygon id="_637665736" class="fil1" points="3.90686,5.0465 7.69313,8.83278 7.68414,8.83279 7.67559,8.83285 7.66748,8.83293 7.6598,8.83304 7.65252,8.83319 7.64565,8.83335 7.63917,8.83354 7.63306,8.83376 7.62732,8.83399 7.62194,8.83425 7.6169,8.83452 7.6122,8.8348 7.60781,8.8351 7.60374,8.83541 7.59996,8.83572 7.59648,8.83605 3.81021,5.04978 3.8137,5.04945 3.81747,5.04914 3.82154,5.04883 3.82593,5.04853 3.83063,5.04824 3.83567,5.04798 3.84106,5.04772 3.8468,5.04749 3.8529,5.04727 3.85938,5.04708 3.86626,5.04691 3.87353,5.04677 3.88122,5.04666 3.88933,5.04657 3.89787,5.04652 "/>
     <polygon id="_637666240" class="fil1" points="3.86415,5.0579 7.65041,8.84417 7.6516,8.84543 7.65293,8.84708 7.65437,8.8491 7.65592,8.85146 7.65757,8.85413 7.65931,8.85709 7.66112,8.86032 3.87485,5.07405 3.87304,5.07082 3.8713,5.06786 3.86965,5.06519 3.8681,5.06283 3.86666,5.06081 3.86533,5.05916 "/>
     <polygon id="_637665928" class="fil1" points="3.94905,5.12259 7.73531,8.90886 7.74289,8.91633 7.74981,8.9237 7.75593,8.93083 7.76111,8.93757 7.76521,8.94379 7.76808,8.94934 7.76959,8.95408 3.98332,5.16781 3.98181,5.16307 3.97894,5.15752 3.97485,5.1513 3.96967,5.14456 3.96354,5.13743 3.95662,5.13006 "/>
     <polygon id="_637666168" class="fil1" points="3.98332,5.16781 7.76959,8.95408 7.76944,8.95591 7.76819,8.9565 7.76596,8.95602 7.76289,8.95464 7.75909,8.95254 7.7547,8.94987 7.74984,8.94683 7.74465,8.94357 7.73923,8.94027 7.73373,8.93709 7.72827,8.93422 7.72298,8.93182 7.71798,8.93006 7.7134,8.92911 7.70937,8.92915 7.70602,8.93035 3.91976,5.14408 3.92311,5.14288 3.92713,5.14284 3.93171,5.14379 3.93671,5.14555 3.942,5.14795 3.94746,5.15082 3.95296,5.154 3.95838,5.1573 3.96357,5.16056 3.96844,5.1636 3.97283,5.16626 3.97662,5.16837 3.9797,5.16975 3.98193,5.17023 3.98317,5.16964 "/>
     <polygon id="_637666744" class="fil1" points="3.91976,5.14408 7.70602,8.93035 7.70491,8.931 7.70373,8.93163 7.70246,8.93222 7.7011,8.93279 7.69963,8.93332 7.69804,8.93382 7.6963,8.93428 7.69441,8.93471 3.90815,5.14844 3.91003,5.14801 3.91177,5.14755 3.91336,5.14705 3.91483,5.14652 3.9162,5.14595 3.91746,5.14535 3.91864,5.14473 "/>
     <polygon id="_637666768" class="fil1" points="3.90815,5.14844 7.69441,8.93471 7.69527,8.93722 7.69604,8.93957 7.6967,8.94172 7.69725,8.94368 7.69769,8.94543 7.69802,8.94696 7.69821,8.94824 7.69828,8.94928 3.91201,5.16301 3.91194,5.16197 3.91175,5.16069 3.91143,5.15916 3.91098,5.15741 3.91043,5.15545 3.90977,5.1533 3.909,5.15095 "/>
     <polygon id="_637666312" class="fil1" points="3.29939,4.63142 7.08566,8.41769 7.08263,8.4177 3.29636,4.63143 "/>
     <polygon id="_637666888" class="fil1" points="3.29636,4.63143 7.08263,8.4177 7.04691,8.41611 7.01059,8.41143 6.97381,8.40379 6.93667,8.3933 6.89932,8.38011 6.86188,8.36434 6.82447,8.34612 6.78721,8.32558 6.75024,8.30284 6.71368,8.27804 6.67765,8.2513 6.64229,8.22275 6.60771,8.19252 2.82144,4.40624 2.85602,4.43648 2.89139,4.46503 2.92741,4.49177 2.96397,4.51657 3.00094,4.53931 3.0382,4.55985 3.07561,4.57807 3.11306,4.59384 3.15041,4.60703 3.18754,4.61752 3.22432,4.62516 3.26064,4.62984 "/>
     <polygon id="_637666816" class="fil1" points="3.77674,5.15068 7.563,8.93695 7.55975,8.93691 7.55637,8.93686 7.55289,8.93681 7.5493,8.93677 7.54561,8.93672 7.54183,8.93667 7.53796,8.93663 7.53401,8.93659 7.52998,8.93655 7.52588,8.93651 7.52172,8.93648 7.5175,8.93645 7.51322,8.93643 7.5089,8.93641 7.50454,8.9364 7.50013,8.93639 3.71387,5.15012 3.71827,5.15013 3.72263,5.15014 3.72695,5.15015 3.73123,5.15018 3.73545,5.1502 3.73961,5.15024 3.74371,5.15028 3.74774,5.15031 3.75169,5.15036 3.75556,5.1504 3.75934,5.15045 3.76303,5.1505 3.76662,5.15054 3.7701,5.15059 3.77348,5.15064 "/>
     <polygon id="_637666864" class="fil1" points="3.71387,5.15012 7.50013,8.93639 7.4907,8.93641 7.48173,8.93646 7.47322,8.93656 7.46515,8.93667 7.45752,8.93682 7.4503,8.937 7.4435,8.9372 7.43709,8.93743 7.43107,8.93767 7.42542,8.93794 7.42013,8.93822 7.41519,8.93852 7.41059,8.93883 7.40631,8.93916 7.40235,8.93949 7.39869,8.93983 3.61242,5.15356 3.61608,5.15322 3.62004,5.15289 3.62432,5.15256 3.62892,5.15225 3.63386,5.15195 3.63915,5.15167 3.6448,5.1514 3.65082,5.15115 3.65723,5.15093 3.66404,5.15072 3.67125,5.15055 3.67889,5.1504 3.68695,5.15028 3.69546,5.15019 3.70443,5.15014 "/>
     <polygon id="_637666576" class="fil1" points="3.74941,5.22197 7.53568,9.00824 7.54422,9.01607 7.55221,9.02394 7.55952,9.03171 7.56598,9.03922 7.57145,9.04633 7.57578,9.05288 7.57881,9.05873 7.58039,9.06373 3.79413,5.27746 3.79254,5.27246 3.78951,5.26661 3.78518,5.26006 3.77971,5.25295 3.77325,5.24544 3.76594,5.23767 3.75795,5.2298 "/>
     <polygon id="_637667176" class="fil1" points="3.79413,5.27746 7.58039,9.06373 7.58024,9.06565 7.57893,9.06627 7.57659,9.06576 7.57337,9.06432 7.56938,9.06211 7.56477,9.05931 7.55967,9.05611 7.55421,9.05269 7.54853,9.04923 7.54276,9.0459 7.53702,9.04288 7.53147,9.04036 7.52622,9.03851 7.52142,9.03752 7.51719,9.03756 7.51367,9.03881 3.72741,5.25254 3.73093,5.25129 3.73515,5.25125 3.73996,5.25224 3.7452,5.25409 3.75076,5.25661 3.75649,5.25963 3.76226,5.26296 3.76794,5.26642 3.77341,5.26984 3.7785,5.27304 3.78311,5.27583 3.7871,5.27805 3.79033,5.27949 3.79266,5.28 3.79397,5.27938 "/>
     <polygon id="_637667248" class="fil1" points="3.72741,5.25254 7.51367,9.03881 7.51107,9.04025 7.50805,9.04155 7.50447,9.04269 7.50019,9.04365 7.49507,9.04443 7.48895,9.045 7.48169,9.04536 7.47315,9.04548 3.68689,5.25921 3.69543,5.25909 3.70268,5.25873 3.7088,5.25815 3.71393,5.25738 3.7182,5.25641 3.72178,5.25528 3.7248,5.25398 "/>
     <polygon id="_637667104" class="fil1" points="3.26113,5.01988 7.0474,8.80615 7.0432,8.80741 7.039,8.80876 7.03481,8.8102 7.03064,8.81171 7.02649,8.81329 7.02236,8.81493 7.01827,8.81661 7.01421,8.81834 7.01019,8.8201 7.00622,8.82189 7.00229,8.82369 6.99841,8.8255 6.9946,8.8273 6.99085,8.82909 6.98717,8.83087 6.98355,8.83261 3.19728,5.04634 3.2009,5.04459 3.20458,5.04282 3.20833,5.04103 3.21215,5.03922 3.21602,5.03742 3.21995,5.03561 3.22392,5.03383 3.22794,5.03207 3.232,5.03034 3.23609,5.02865 3.24022,5.02702 3.24437,5.02544 3.24854,5.02393 3.25273,5.02249 3.25693,5.02114 "/>
     <polygon id="_637667680" class="fil1" points="3.68689,5.25921 7.47315,9.04548 7.46716,9.04541 7.46017,9.04519 7.45225,9.0448 7.44346,9.04424 7.43387,9.0435 7.42351,9.04255 7.41247,9.04139 7.40079,9.04 7.38853,9.03838 7.37576,9.03651 7.36253,9.03437 7.3489,9.03196 7.33493,9.02926 7.32068,9.02626 7.30622,9.02295 7.29159,9.01931 7.27685,9.01534 7.26208,9.01102 7.24732,9.00633 7.23263,9.00127 7.21808,8.99583 7.20373,8.98998 7.18962,8.98372 7.17583,8.97704 7.16241,8.96991 7.14941,8.96234 7.13691,8.95431 7.12495,8.9458 7.1136,8.93681 7.10292,8.92731 3.31665,5.14104 3.32733,5.15054 3.33869,5.15953 3.35064,5.16804 3.36315,5.17607 3.37614,5.18364 3.38956,5.19076 3.40335,5.19745 3.41746,5.20371 3.43181,5.20956 3.44637,5.215 3.46105,5.22006 3.47581,5.22475 3.49059,5.22907 3.50532,5.23304 3.51995,5.23668 3.53441,5.23999 3.54866,5.24299 3.56263,5.24569 3.57626,5.2481 3.58949,5.25024 3.60226,5.25211 3.61452,5.25373 3.6262,5.25512 3.63724,5.25628 3.6476,5.25722 3.6572,5.25797 3.66598,5.25853 3.6739,5.25892 3.68089,5.25914 "/>
     <polygon id="_637667704" class="fil1" points="3.19728,5.04634 6.98355,8.83261 6.98048,8.83408 6.97741,8.83551 6.97435,8.8369 6.97135,8.83824 6.96841,8.83954 6.96557,8.84078 6.96285,8.84196 6.96027,8.84308 3.174,5.05681 3.17658,5.05569 3.1793,5.05451 3.18214,5.05326 3.18508,5.05197 3.18809,5.05063 3.19114,5.04924 3.19421,5.04781 "/>
     <polygon id="_637667344" class="fil1" points="3.174,5.05681 6.96027,8.84308 6.95743,8.84378 6.95439,8.84367 6.95121,8.84298 6.94796,8.84191 6.94472,8.84069 6.94154,8.83955 6.9385,8.8387 6.93567,8.83837 3.1494,5.0521 3.15223,5.05243 3.15527,5.05328 3.15845,5.05442 3.1617,5.05564 3.16494,5.0567 3.16813,5.0574 3.17117,5.05751 "/>
     <polygon id="_637667560" class="fil1" points="3.1494,5.0521 6.93567,8.83837 6.93203,8.83917 6.92858,8.8414 6.9253,8.84482 6.9222,8.84921 6.91928,8.85432 6.91653,8.85992 6.91394,8.86577 6.91152,8.87165 6.90926,8.8773 6.90716,8.88249 6.90521,8.887 6.90343,8.89057 6.90178,8.89299 6.9003,8.894 6.89895,8.89339 3.11268,5.10711 3.11403,5.10773 3.11552,5.10672 3.11716,5.1043 3.11894,5.10072 3.12089,5.09622 3.12299,5.09102 3.12525,5.08537 3.12767,5.0795 3.13026,5.07365 3.13301,5.06805 3.13594,5.06294 3.13904,5.05855 3.14231,5.05513 3.14576,5.0529 "/>
     <polygon id="_637668544" class="fil1" points="3.91201,5.16301 7.69828,8.94928 7.69769,8.95404 7.69596,8.95687 7.69316,8.95804 7.68935,8.95779 7.68459,8.95639 7.67896,8.95407 7.67251,8.95112 7.66531,8.94776 7.65742,8.94427 7.64891,8.94089 7.63984,8.93787 7.63028,8.93548 7.62029,8.93397 7.60994,8.93359 7.59929,8.93459 7.5884,8.93723 3.80213,5.15096 3.81302,5.14832 3.82367,5.14731 3.83402,5.1477 3.84401,5.14921 3.85357,5.1516 3.86264,5.15461 3.87115,5.158 3.87904,5.16149 3.88624,5.16485 3.89269,5.1678 3.89833,5.17011 3.90308,5.17152 3.90689,5.17177 3.90969,5.1706 3.91142,5.16777 "/>
     <polygon id="_637668040" class="fil1" points="3.80213,5.15096 7.5884,8.93723 7.58609,8.93723 7.58352,8.93721 7.58068,8.93719 7.57759,8.93715 7.57428,8.93711 7.57073,8.93706 7.56697,8.93701 7.563,8.93695 3.77674,5.15068 3.7807,5.15074 3.78446,5.15079 3.78801,5.15084 3.79133,5.15088 3.79441,5.15091 3.79725,5.15094 3.79982,5.15096 "/>
     <polygon id="_637668112" class="fil1" points="4.05122,4.95991 7.83749,8.74619 7.8402,8.74982 7.84335,8.75482 7.84685,8.76095 7.85059,8.76801 7.85449,8.77578 7.85845,8.78404 7.86239,8.79257 7.86621,8.80117 7.86982,8.80962 7.87313,8.8177 7.87604,8.8252 7.87846,8.8319 7.88031,8.83758 7.88148,8.84204 7.88189,8.84506 4.09563,5.05878 4.09521,5.05577 4.09404,5.05131 4.09219,5.04563 4.08977,5.03893 4.08686,5.03143 4.08355,5.02335 4.07994,5.0149 4.07613,5.0063 4.07219,4.99776 4.06822,4.9895 4.06432,4.98174 4.06058,4.97468 4.05709,4.96855 4.05394,4.96355 "/>
     <polygon id="_637667824" class="fil1" points="2.35303,3.17635 6.1393,6.96262 6.12694,6.95348 6.11511,6.94396 6.10379,6.93409 6.09297,6.92387 2.3067,3.1376 2.31752,3.14781 2.32884,3.15769 2.34067,3.1672 "/>
     <polygon id="_637667968" class="fil1" points="4.12752,4.1957 7.91378,7.98197 7.90316,7.99069 7.89218,7.99985 7.88087,8.00943 7.86924,8.01939 7.85731,8.0297 7.84508,8.04034 7.83258,8.05128 7.81981,8.0625 7.80679,8.07395 7.79354,8.08563 7.78006,8.09748 7.76637,8.10951 7.7525,8.12166 7.73844,8.13392 7.72422,8.14626 7.70985,8.15864 7.69534,8.17105 7.6807,8.18344 7.66596,8.19581 7.65113,8.20811 7.63621,8.22033 7.62122,8.23242 7.60619,8.24437 7.59111,8.25614 7.57602,8.26771 7.56091,8.27906 7.5458,8.29014 7.53072,8.30094 7.51566,8.31143 7.50065,8.32157 7.4857,8.33135 7.47083,8.34073 3.68456,4.55446 3.69943,4.54508 3.71438,4.5353 3.72939,4.52515 3.74445,4.51467 3.75954,4.50387 3.77464,4.49278 3.78975,4.48144 3.80485,4.46987 3.81992,4.45809 3.83496,4.44615 3.84994,4.43406 3.86486,4.42184 3.8797,4.40954 3.89444,4.39717 3.90907,4.38478 3.92358,4.37237 3.93795,4.35998 3.95217,4.34765 3.96623,4.33539 3.98011,4.32324 3.99379,4.31121 4.00727,4.29935 4.02052,4.28768 4.03354,4.27622 4.04631,4.26501 4.05881,4.25407 4.07104,4.24343 4.08298,4.23311 4.09461,4.22316 4.10591,4.21358 4.11689,4.20442 "/>
     <polygon id="_637668016" class="fil1" points="2.88357,2.70132 6.66983,6.48759 6.67959,6.50689 6.69002,6.5254 6.70108,6.54313 6.71274,6.56011 6.72497,6.57634 6.73773,6.59183 6.75099,6.6066 6.76472,6.62065 2.97845,2.83437 2.96472,2.82033 2.95146,2.80556 2.9387,2.79007 2.92647,2.77384 2.91481,2.75686 2.90375,2.73913 2.89333,2.72061 "/>
     <polygon id="_637668328" class="fil1" points="4.65344,3.40392 8.4397,7.19019 8.44038,7.21759 8.43923,7.24506 8.43632,7.27257 8.43174,7.30011 8.42555,7.32764 8.41781,7.35514 8.40862,7.38259 8.39804,7.40997 8.38613,7.43725 8.37297,7.46441 8.35864,7.49141 8.3432,7.51825 8.32674,7.54489 8.30931,7.57131 8.291,7.59749 8.27187,7.6234 8.252,7.64902 8.23145,7.67432 8.21031,7.69928 8.18864,7.72388 8.16652,7.74809 8.14401,7.77189 8.12119,7.79526 8.09814,7.81817 8.07492,7.84059 8.0516,7.8625 8.02827,7.88388 8.00498,7.9047 7.98182,7.92495 7.95885,7.94459 7.93615,7.96361 7.91378,7.98197 4.12752,4.1957 4.14988,4.17733 4.17258,4.15832 4.19555,4.13868 4.21871,4.11843 4.242,4.09761 4.26533,4.07623 4.28865,4.05431 4.31187,4.03189 4.33493,4.00899 4.35774,3.98562 4.38025,3.96182 4.40237,3.93761 4.42404,3.91301 4.44519,3.88805 4.46573,3.86274 4.4856,3.83713 4.50473,3.81122 4.52304,3.78504 4.54047,3.75862 4.55694,3.73198 4.57237,3.70514 4.5867,3.67813 4.59986,3.65098 4.61177,3.6237 4.62235,3.59632 4.63155,3.56887 4.63928,3.54137 4.64547,3.51383 4.65006,3.4863 4.65296,3.45879 4.65411,3.43132 "/>
     <polygon id="_637669096" class="fil1" points="3.97926,1.84715 7.76553,5.63342 7.76551,5.63341 3.97924,1.84713 "/>
     <polygon id="_637669216" class="fil1" points="3.97923,1.84711 7.7655,5.63339 7.76548,5.63337 7.76546,5.63335 3.9792,1.84708 3.97921,1.8471 "/>
     <polygon id="_637668712" class="fil1" points="3.9792,1.84708 7.76546,5.63335 7.75677,5.6242 7.74867,5.61554 7.74116,5.60736 7.7342,5.59964 3.94794,1.81337 3.95489,1.82109 3.9624,1.82927 3.9705,1.83793 "/>
     <polygon id="_637668760" class="fil1" points="4.14652,1.57286 7.93279,5.35913 7.9361,5.36345 7.93934,5.36826 7.94254,5.37354 7.94572,5.37926 7.94891,5.38543 7.95215,5.392 7.95545,5.39897 7.95885,5.40631 7.96238,5.41401 4.17611,1.62774 4.17258,1.62004 4.16918,1.6127 4.16588,1.60573 4.16264,1.59916 4.15945,1.59299 4.15627,1.58726 4.15307,1.58198 4.14983,1.57718 "/>
     <polygon id="_637669144" class="fil1" points="4.17611,1.62774 7.96238,5.41401 7.96319,5.41579 7.96403,5.41763 7.9649,5.41952 7.96579,5.42146 7.9667,5.42344 7.96763,5.42543 7.96857,5.42743 7.96951,5.42944 4.18324,1.64317 4.1823,1.64116 4.18136,1.63916 4.18044,1.63717 4.17952,1.63519 4.17863,1.63325 4.17776,1.63136 4.17692,1.62952 "/>
     <polygon id="_637669072" class="fil1" points="4.27514,1.55976 8.06141,5.34603 8.06467,5.35108 8.06739,5.35677 8.06961,5.36302 8.07139,5.36974 8.07279,5.37688 8.07385,5.38433 8.07463,5.39204 8.07519,5.39993 8.07559,5.40791 8.07587,5.41591 8.07609,5.42386 4.28982,1.63759 4.2896,1.62964 4.28932,1.62164 4.28893,1.61366 4.28837,1.60577 4.28758,1.59806 4.28652,1.59061 4.28513,1.58347 4.28335,1.57675 4.28112,1.5705 4.27841,1.56481 "/>
     <polygon id="_637669768" class="fil1" points="4.28982,1.63759 8.07609,5.42386 8.07644,5.43516 4.29017,1.64889 "/>
     <polygon id="_637670080" class="fil1" points="4.38991,1.61483 8.17618,5.4011 8.1779,5.40336 8.17939,5.40581 8.18064,5.40843 8.18165,5.4112 4.39538,1.62493 4.39437,1.62215 4.39312,1.61954 4.39163,1.61709 "/>
     <polygon id="_637670008" class="fil1" points="4.39538,1.62493 8.18165,5.4112 8.18208,5.41266 8.18252,5.41446 8.18288,5.41667 8.18309,5.41937 8.18306,5.42265 8.18272,5.42656 8.182,5.4312 8.1808,5.43664 8.17906,5.44295 8.17669,5.45022 8.17362,5.45852 8.16977,5.46792 8.16506,5.47851 8.15941,5.49036 8.15274,5.50355 8.14498,5.51815 4.35871,1.73188 4.36647,1.71728 4.37314,1.70409 4.37879,1.69224 4.3835,1.68165 4.38735,1.67224 4.39043,1.66394 4.39279,1.65668 4.39454,1.65037 4.39573,1.64493 4.39646,1.64029 4.3968,1.63637 4.39682,1.6331 4.39661,1.6304 4.39625,1.62819 4.39581,1.62639 "/>
     <polygon id="_637670536" class="fil1" points="4.35871,1.73188 8.14498,5.51815 8.14518,5.51842 8.14538,5.51868 8.14559,5.51895 8.14579,5.51922 8.146,5.51949 8.1462,5.51976 8.14642,5.52004 8.14663,5.52031 4.36036,1.73404 4.36015,1.73376 4.35994,1.73349 4.35973,1.73322 4.35952,1.73294 4.35932,1.73268 4.35911,1.73241 4.35891,1.73215 "/>
     <polygon id="_637672528" class="fil1" points="4.36036,1.73404 8.14663,5.52031 8.15029,5.5252 8.15424,5.53061 8.15842,5.53647 8.16276,5.54274 8.1672,5.54938 8.17167,5.55633 8.17612,5.56354 8.18049,5.57096 8.1847,5.57854 8.1887,5.58623 8.19244,5.59398 8.19583,5.60175 8.19883,5.60948 8.20137,5.61711 8.20339,5.62461 8.20483,5.63192 4.41856,1.84565 4.41713,1.83834 4.41511,1.83084 4.41257,1.8232 4.40957,1.81548 4.40617,1.80771 4.40244,1.79996 4.39843,1.79226 4.39422,1.78469 4.38985,1.77726 4.3854,1.77006 4.38093,1.76311 4.37649,1.75647 4.37215,1.7502 4.36798,1.74433 4.36402,1.73893 "/>
     <polygon id="_637672432" class="fil1" points="4.41856,1.84565 8.20483,5.63192 8.20499,5.63302 8.20514,5.6341 8.20527,5.63518 8.20539,5.63626 8.20549,5.63733 8.20557,5.63839 8.20565,5.63944 8.2057,5.64049 4.41943,1.85422 4.41938,1.85317 4.41931,1.85211 4.41922,1.85106 4.41912,1.84998 4.419,1.84891 4.41887,1.84783 4.41872,1.84674 "/>
     <polygon id="_637672696" class="fil1" points="4.41943,1.85422 8.2057,5.64049 8.20703,5.64281 4.42076,1.85654 "/>
     <polygon id="_637672768" class="fil1" points="4.6119,1.98624 8.39817,5.77252 8.4014,5.77626 8.40447,5.78002 8.40739,5.78378 8.41014,5.78755 8.41271,5.79131 8.4151,5.79509 4.62883,2.00881 4.62644,2.00504 4.62387,2.00128 4.62112,1.99751 4.6182,1.99374 4.61513,1.98999 "/>
     <polygon id="_637649464" class="fil1" points="4.62883,2.00881 8.4151,5.79509 8.41256,5.79608 8.40945,5.79694 8.40581,5.7977 8.40168,5.79834 8.39708,5.79887 8.39206,5.7993 8.38665,5.79963 8.38088,5.79987 8.3748,5.80003 8.36843,5.80009 8.36181,5.80009 8.35497,5.80001 8.34796,5.79986 8.3408,5.79964 8.33354,5.79937 8.32619,5.79905 8.31881,5.79867 8.31144,5.79825 8.30409,5.7978 8.29681,5.7973 8.28963,5.79678 8.28259,5.79623 8.27572,5.79567 8.26906,5.79509 8.26265,5.7945 8.25651,5.7939 8.25068,5.7933 8.24521,5.79271 8.24012,5.79212 8.23544,5.79156 8.23123,5.791 8.2275,5.79048 4.44124,2.0042 4.44496,2.00473 4.44918,2.00528 4.45385,2.00585 4.45894,2.00644 4.46441,2.00703 4.47024,2.00763 4.47638,2.00822 4.48279,2.00881 4.48945,2.0094 4.49632,2.00996 4.50336,2.01051 4.51054,2.01103 4.51782,2.01152 4.52517,2.01198 4.53255,2.0124 4.53993,2.01278 4.54727,2.0131 4.55453,2.01337 4.56169,2.01359 4.5687,2.01374 4.57554,2.01381 4.58216,2.01382 4.58853,2.01376 4.59461,2.0136 4.60038,2.01336 4.6058,2.01303 4.61081,2.0126 4.61541,2.01207 4.61955,2.01143 4.62319,2.01067 4.62629,2.00981 "/>
     <polygon id="_637650088" class="fil1" points="4.44124,2.0042 8.2275,5.79048 8.22757,5.79076 8.22763,5.79106 8.22769,5.79135 8.22775,5.79164 8.22781,5.79193 8.22787,5.79222 8.22793,5.79252 8.228,5.79281 4.44173,2.00654 4.44167,2.00624 4.44161,2.00595 4.44154,2.00566 4.44148,2.00537 4.44142,2.00507 4.44136,2.00478 4.4413,2.00449 "/>
     <polygon id="_637650112" class="fil1" points="4.44173,2.00654 8.228,5.79281 8.22805,5.79308 8.22811,5.79335 8.22817,5.79363 8.22822,5.7939 8.22828,5.79417 8.22833,5.79444 8.22839,5.79472 8.22844,5.795 4.44217,2.00872 4.44212,2.00845 4.44206,2.00817 4.44201,2.0079 4.44195,2.00763 4.4419,2.00735 4.44184,2.00708 4.44178,2.00681 "/>
     <polygon id="_637649752" class="fil1" points="4.44217,2.00872 8.22844,5.795 8.22929,5.79934 8.23011,5.80383 8.2309,5.80845 8.23165,5.8132 8.23235,5.81806 8.23299,5.82303 8.23357,5.8281 8.23407,5.83325 8.2345,5.83848 8.23484,5.84378 8.23508,5.84915 8.23523,5.85456 8.23526,5.86 8.23518,5.86548 8.23497,5.87098 8.23463,5.87649 8.23415,5.882 8.23353,5.8875 8.23275,5.89299 8.23181,5.89844 8.23069,5.90387 8.22941,5.90924 8.22793,5.91456 8.22626,5.91981 8.2244,5.925 8.22232,5.93009 8.22004,5.93509 8.21752,5.93998 8.21478,5.94477 8.2118,5.94943 8.20858,5.95396 8.2051,5.95835 4.41883,2.17207 4.42231,2.16769 4.42554,2.16316 4.42851,2.1585 4.43126,2.15371 4.43377,2.14882 4.43606,2.14382 4.43813,2.13872 4.44,2.13354 4.44166,2.12829 4.44314,2.12297 4.44443,2.11759 4.44554,2.11217 4.44648,2.10672 4.44726,2.10123 4.44789,2.09573 4.44837,2.09022 4.4487,2.08471 4.44891,2.07921 4.449,2.07373 4.44896,2.06828 4.44881,2.06287 4.44857,2.05751 4.44823,2.05221 4.4478,2.04698 4.4473,2.04183 4.44672,2.03676 4.44608,2.03179 4.44538,2.02693 4.44463,2.02218 4.44385,2.01756 4.44302,2.01307 "/>
     <polygon id="_637650184" class="fil1" points="4.41883,2.17207 8.2051,5.95835 8.20032,5.96369 8.19554,5.96868 8.19076,5.97333 8.18598,5.97764 8.1812,5.9816 8.17642,5.98522 8.17164,5.9885 8.16687,5.99143 8.16209,5.99402 8.15733,5.99626 8.15256,5.99816 8.14781,5.99972 8.14306,6.00093 8.13831,6.00179 8.13357,6.00231 8.12884,6.00248 4.34257,2.21621 4.3473,2.21604 4.35204,2.21552 4.35679,2.21465 4.36154,2.21344 4.3663,2.21189 4.37106,2.20999 4.37583,2.20775 4.3806,2.20516 4.38537,2.20222 4.39015,2.19895 4.39493,2.19533 4.39971,2.19137 4.40449,2.18706 4.40928,2.18241 4.41406,2.17741 "/>
     <polygon id="_637650784" class="fil1" points="4.34257,2.21621 8.12884,6.00248 8.12654,6.00244 8.12427,6.00231 8.12201,6.00209 8.11977,6.00179 8.11755,6.0014 8.11536,6.00093 8.11319,6.00037 8.11105,5.99974 4.32478,2.21346 4.32692,2.2141 4.32909,2.21466 4.33128,2.21513 4.3335,2.21552 4.33574,2.21581 4.338,2.21604 4.34028,2.21617 "/>
     <polygon id="_637650448" class="fil1" points="4.32478,2.21346 8.11105,5.99974 8.11106,5.99994 8.11107,6.00015 8.11107,6.00035 8.11109,6.00056 8.11109,6.00076 8.11111,6.00097 8.11111,6.00117 8.11113,6.00138 4.32486,2.21511 4.32485,2.2149 4.32484,2.2147 4.32483,2.21449 4.32482,2.21428 4.32481,2.21408 4.3248,2.21387 4.32479,2.21367 "/>
     <polygon id="_637650328" class="fil1" points="4.32486,2.21511 8.11113,6.00138 8.11115,6.00178 8.11117,6.00217 8.11119,6.00257 8.1112,6.00296 8.11123,6.00336 8.11125,6.00376 8.11127,6.00416 8.11129,6.00456 4.32502,2.21828 4.325,2.21789 4.32498,2.21749 4.32496,2.21709 4.32494,2.21669 4.32492,2.2163 4.3249,2.2159 4.32488,2.2155 "/>
     <polygon id="_637650712" class="fil1" points="4.32502,2.21828 8.11129,6.00456 8.11296,6.0275 8.11546,6.05115 8.11873,6.07539 8.12271,6.10013 8.12735,6.1253 8.13258,6.15078 8.13835,6.17649 8.14461,6.20233 8.1513,6.22823 8.15835,6.25407 8.16571,6.27978 8.17333,6.30526 8.18114,6.33041 8.18909,6.35514 8.19713,6.37937 8.20519,6.40299 8.21321,6.42593 8.22114,6.44807 8.22893,6.46934 8.23651,6.48964 8.24383,6.50888 8.25082,6.52696 8.25744,6.5438 8.26363,6.55929 8.26932,6.57336 8.27446,6.5859 8.279,6.59683 8.28287,6.60604 8.28602,6.61346 8.28839,6.61899 8.28992,6.62253 8.29056,6.62399 4.5043,2.83772 4.50365,2.83626 4.50212,2.83272 4.49975,2.82719 4.4966,2.81977 4.49273,2.81056 4.48819,2.79963 4.48305,2.78709 4.47736,2.77302 4.47117,2.75752 4.46456,2.74069 4.45756,2.72261 4.45024,2.70337 4.44266,2.68307 4.43487,2.6618 4.42694,2.63965 4.41892,2.61672 4.41086,2.5931 4.40283,2.56887 4.39487,2.54414 4.38706,2.51898 4.37944,2.49351 4.37208,2.4678 4.36503,2.44196 4.35835,2.41606 4.35209,2.39022 4.34631,2.3645 4.34108,2.33902 4.33644,2.31386 4.33246,2.28911 4.32919,2.26487 4.32669,2.24123 "/>
     <polygon id="_637651504" class="fil1" points="4.5043,2.83772 8.29056,6.62399 8.30994,6.67253 4.52368,2.88626 "/>
    </g>
    <path id="_637655800" class="fil1" d="M4.52368 2.88626c0.0051063,0.0142087 0.118854,0.332035 0.12976,0.517661 0.017185,0.291807 -0.289445,0.59948 -0.525921,0.791776 -0.111437,0.0906142 -0.28474,0.260925 -0.442957,0.35876 -0.0182126,0.0850118 -0.0508976,0.276799 0.00337402,0.358244 0.0200157,0.0191732 0.0721535,0.0413583 0.206071,0.0413583 0.0344291,0 0.0667087,-0.00142126 0.0902874,-0.00247638 0.0148701,-0.000653543 0.0267598,-0.00117323 0.0344606,-0.00117323 0.0125433,0 0.0224409,0.00243307 0.0302756,0.00743307 0.010126,0.00647244 0.0465984,0.0890984 0.0465984,0.100941 0,0.0294724 -0.048874,-0.0295079 -0.104681,-0.0114803 -0.00550394,0 -0.013874,-0.00011811 -0.0241929,-0.000267717 -0.016248,-0.000220472 -0.0374567,-0.000531496 -0.0598937,-0.000531496 -0.0491535,0 -0.0788031,0.00152756 -0.0966457,0.00327559 3.54331e-005,1.9685e-005 7.08661e-005,3.93701e-005 0.000106299,5.51181e-005 0.00862598,-0.000346457 0.0157441,-0.00057874 0.0210039,-0.00057874 0.0131614,0 0.0235512,0.00255512 0.0317756,0.00780315 0.00259055,0.00165748 0.00682677,0.00806299 0.011752,0.0169882 0.0357677,0.00748819 0.104358,0.0708858 0.108469,0.0937598 0.00238976,0.013378 -0.0477165,-0.0334961 -0.063563,-0.0237283 -0.00288976,0.00177165 -0.00636614,0.00326772 -0.0116102,0.0043622 0.00241339,0.00691339 0.00386614,0.0121496 0.00386614,0.0145709 0,0.030937 -0.0512992,-0.0309724 -0.109882,-0.0120512 -0.00577953,0 -0.014563,-0.000122047 -0.0253937,-0.000279528 -0.0170551,-0.000232283 -0.039315,-0.000559055 -0.0628701,-0.000559055 -0.0515906,0 -0.0827126,0.00160236 -0.101445,0.00344094 0.0186654,0.0100945 0.0459724,0.0210906 0.0674567,0.0253937 0.0374291,0.00747244 0.109917,0.0744016 0.114248,0.0985 0.00251181,0.0140394 -0.0500866,-0.0351614 -0.0667205,-0.0249134 -0.0065315,0.00400394 -0.0159094,0.00666535 -0.0405197,0.00666535 -0.0584803,0 -0.295913,-0.0235394 -0.389362,-0.138701 -0.0245984,-0.030315 -0.0367638,-0.0640394 -0.0363898,-0.10063 -0.0224449,0.00644882 -0.0447835,0.0172402 -0.0638504,0.0264646 -0.00816535,0.00394488 -0.0166181,0.00757087 -0.0232835,0.0104685 -0.00721654,0.00314567 -0.0173898,-0.00470866 -0.0246024,-0.00470866 -0.019874,0 -0.031878,0.0712126 -0.0379213,0.0525197 -0.00687008,-0.021248 0.00682283,-0.0938661 0.0275394,-0.108819 0.00368504,-0.00265748 0.0180787,0.0026811 0.0255236,-0.00249213 0.0436654,-0.0303622 0.133169,-0.106492 0.164543,-0.127l-0.0294685 -0.233134 -0.000220472 -0.00175984 -0.00303543 1.5748e-005c-0.377374,0 -0.878012,-0.549764 -0.815264,-0.948142 -0.00933858,-0.00659449 -0.0167047,-0.0147953 -0.0214882,-0.0249055 -0.00289764,-0.0090748 -0.000161417,-0.0185984 0.00625591,-0.0247992 -0.070063,-0.108862 -0.154327,-0.315528 -0.10385,-0.432705 -0.0076378,-0.00579921 -0.0109961,-0.0154724 -0.00898425,-0.0245315 -0.134567,-0.0955354 -0.178819,-0.256417 -0.180382,-0.4115 -0.00158268,-0.156984 0.0110354,-0.404039 0.217268,-0.404039 0.159075,0 0.393047,0.130201 0.493654,0.340512 0.100425,0.210004 0.32035,0.284512 0.478154,0.284496 0.0425118,0 0.0799291,-0.00579528 0.105335,-0.016311 0.057685,-0.0238622 0.0919094,-0.0682283 0.122094,-0.107394 0.0246732,-0.0320079 0.048248,-0.0625748 0.0807244,-0.0738189 0.00672835,-0.320173 0.0808386,-0.719169 0.309386,-0.941146 -1.9685e-005,-2.3622e-005 -4.33071e-005,-4.33071e-005 -6.29921e-005,-6.69291e-005 -0.0960433,-0.100354 -0.0862323,-0.113417 -0.075878,-0.127201 0.00395669,-0.00529921 0.0117047,-0.0116339 0.0259055,-0.0116339 0.0137717,0 0.0322638,0.00556299 0.0610827,0.0147323 0.00579528,0.00183858 0.0127992,0.00407087 0.0194606,0.00606693 -0.00264173,-0.0105039 -0.00601181,-0.0224331 -0.00850394,-0.0312874 -0.0146181,-0.0518583 -0.0206772,-0.0733228 -0.00302756,-0.0867205 0.00461811,-0.00348031 0.0101299,-0.00530315 0.0160236,-0.00530315 0.0147638,0 0.0281929,0.0104213 0.0658583,0.042685l0.00754331 0.00643701c-0.00405118,-0.0459646 -0.00642126,-0.0819803 0.0189094,-0.0939882 0.00395669,-0.0018622 0.00810236,-0.00279134 0.0124291,-0.00279134 0.0252677,0 0.0379173,0.0277087 0.0571102,0.0696614 0.00211417,0.00464173 0.00461024,0.0100866 0.00713386,0.0154291 0.00354724,-0.0078622 0.00716535,-0.0163346 0.010122,-0.0233031 0.0200945,-0.0472008 0.0311575,-0.0732008 0.0552717,-0.0732008 0.0387598,0.00109055 0.040063,0.0488189 0.041185,0.0909252l0.000346457 0.0112953c0.0046378,-0.00331102 0.00931102,-0.00676772 0.0132677,-0.0096811 0.0297874,-0.0219449 0.0474528,-0.0343583 0.0642441,-0.0343583 0.00476772,0 0.00925197,0.00101969 0.0133346,0.00302362 0.00691339,0.00340551 0.0120236,0.00946457 0.0143622,0.0170551 0.0021811,0.00703937 0.00779134,0.0251496 -0.0366693,0.106957 0.000535433,0.00069685 0.00108661,0.00141732 0.00164961,0.00216142 0.0186772,0.024622 0.0522165,0.0732165 0.0582008,0.111606 0.000456693,0.00292126 0.000751969,0.00578346 0.000870079,0.00857087 0.00439764,0.0115433 0.0539291,0.0363898 0.0777283,0.0483307 0.0503504,0.0252677 0.107173,0.066063 0.131677,0.106264 -0.0239685,0.0112283 -0.150587,0.000866142 -0.187598,-0.00461024 0.000165354,0.000767717 0.000326772,0.00154724 0.000492126,0.00233465 0.000149606,0.000720472 0.000299213,0.00144882 0.000444882,0.00218504 0.00917323,0.0455157 0.0151181,0.117346 -0.0233386,0.16335 -0.0254843,0.029378 -0.0510551,0.0441339 -0.0762638,0.0441339 -0.0061378,0 -0.0121181,-0.000937008 -0.0177913,-0.00274409 2.3622e-005,0.000547244 5.11811e-005,0.00109449 7.87402e-005,0.00164173 5.11811e-005,0.00105512 0.000106299,0.00211417 0.000165354,0.00317717 0.0132087,0.240795 0.177417,0.615228 0.179272,0.619437l0.0193819 0.0485394z"/>
   </g>
  </g>
  <path class="fil2" d="M3.41333 -3.93701e-006c1.88513,0 3.41333,1.5282 3.41333,3.41333 0,1.88513 -1.5282,3.41333 -3.41333,3.41333 -1.88513,0 -3.41333,-1.5282 -3.41333,-3.41333 0,-1.88513 1.5282,-3.41333 3.41333,-3.41333z"/>
  <path class="fil3" d="M3.68793 4.9127c-0.054748,-0.0821575 -0.0210079,-0.276598 -0.00289764,-0.360453 -0.0572756,0.000165354 -0.11535,0.00161811 -0.172827,0.00177559l0.0280709 0.222102c-0.0298819,0.0195354 -0.115154,0.092063 -0.156752,0.120988 -0.00709449,0.00492913 -0.0208031,-0.000161417 -0.024315,0.00237402 -0.0197362,0.0142441 -0.0327795,0.0834291 -0.0262402,0.103669 0.00576378,0.0178071 0.0171969,-0.0500354 0.0361299,-0.0500354 0.00687008,0 0.016563,0.00748425 0.023437,0.00448425 0.00635039,-0.00275984 0.0144016,-0.00621654 0.0221811,-0.00997244 0.0181693,-0.0087874 0.0394449,-0.0190709 0.0608307,-0.0252126 -0.000358268,0.0348583 0.0112323,0.0669882 0.0346693,0.0958661 0.0890236,0.109713 0.31522,0.132142 0.370933,0.132142 0.0234449,0 0.032378,-0.00253937 0.0386024,-0.00635039 0.0158465,-0.00976772 0.0659528,0.0371063 0.063563,0.0237283 -0.00412598,-0.0229528 -0.0731811,-0.0867165 -0.108843,-0.0938346 -0.0204646,-0.00409843 -0.0464803,-0.0145748 -0.0642638,-0.0241929 0.0178425,-0.00174803 0.0474921,-0.00327559 0.0966457,-0.00327559 0.022437,0 0.0436457,0.000311024 0.0598937,0.000531496 0.0103189,0.000149606 0.018689,0.000267717 0.0241929,0.000267717 0.0558071,-0.0180276 0.104681,0.0409528 0.104681,0.0114803 0,-0.0118425 -0.0364724,-0.0944685 -0.0465984,-0.100941 -0.00783465,-0.005 -0.0177323,-0.00743307 -0.0302756,-0.00743307 -0.00770079,0 -0.0195906,0.000519685 -0.0344606,0.00117323 -0.0235787,0.00105512 -0.0558583,0.00247638 -0.0902874,0.00247638 -0.133917,0 -0.186055,-0.022185 -0.206071,-0.0413583z"/>
  <path class="fil4" d="M3.68689 5.25921c-0.0584803,0 -0.295913,-0.0235394 -0.389362,-0.138701 -0.0245984,-0.030315 -0.0367638,-0.0640394 -0.0363898,-0.10063 -0.0224449,0.00644882 -0.0447835,0.0172402 -0.0638504,0.0264646 -0.00816535,0.00394488 -0.0166181,0.00757087 -0.0232835,0.0104685 -0.00721654,0.00314567 -0.0173898,-0.00470866 -0.0246024,-0.00470866 -0.019874,0 -0.031878,0.0712126 -0.0379213,0.0525197 -0.00687008,-0.021248 0.00682283,-0.0938661 0.0275394,-0.108819 0.00368504,-0.00265748 0.0180787,0.0026811 0.0255236,-0.00249213 0.0436654,-0.0303622 0.133169,-0.106492 0.164543,-0.127l-0.029689 -0.234894c-0.00101575,1.5748e-005 -0.00202362,1.5748e-005 -0.00303543,1.5748e-005 -0.384291,0 -0.896409,-0.570106 -0.81124,-0.969894 -0.0749764,-0.100787 -0.186272,-0.350181 -0.116256,-0.47452 -0.146957,-0.0938937 -0.194594,-0.261157 -0.196217,-0.422169 -0.00158268,-0.156984 0.0110354,-0.404039 0.217268,-0.404039 0.159075,0 0.393047,0.130201 0.493654,0.340512 0.100425,0.210004 0.32035,0.284512 0.478154,0.284496 0.0425118,0 0.0799291,-0.00579528 0.105335,-0.016311 0.057685,-0.0238622 0.0919094,-0.0682283 0.122094,-0.107394 0.0246732,-0.0320079 0.048248,-0.0625748 0.0807244,-0.0738189 0.00672835,-0.320173 0.0808386,-0.719169 0.309386,-0.941146 -0.0961102,-0.100417 -0.0862992,-0.11348 -0.0759409,-0.127268 0.00395669,-0.00529921 0.0117047,-0.0116339 0.0259055,-0.0116339 0.0137717,0 0.0322638,0.00556299 0.0610827,0.0147323 0.00579528,0.00183858 0.0127992,0.00407087 0.0194606,0.00606693 -0.00264173,-0.0105039 -0.00601181,-0.0224331 -0.00850394,-0.0312874 -0.0146181,-0.0518583 -0.0206772,-0.0733228 -0.00302756,-0.0867205 0.00461811,-0.00348031 0.0101299,-0.00530315 0.0160236,-0.00530315 0.0147638,0 0.0281929,0.0104213 0.0658583,0.042685 0.00233858,0.00199213 0.0048937,0.0041811 0.00754331,0.00643701 -0.00405118,-0.0459646 -0.00642126,-0.0819803 0.0189094,-0.0939882 0.00395669,-0.0018622 0.00810236,-0.00279134 0.0124291,-0.00279134 0.0252677,0 0.0379173,0.0277087 0.0571102,0.0696614 0.00211417,0.00464173 0.00461024,0.0100866 0.00713386,0.0154291 0.00354724,-0.0078622 0.00716535,-0.0163346 0.010122,-0.0233031 0.0200945,-0.0472008 0.0311575,-0.0732008 0.0552717,-0.0732008 0.0387598,0.00109055 0.040063,0.0488189 0.041185,0.0909252 9.44882e-005,0.00341339 0.000216535,0.00733071 0.000346457,0.0112953 0.0046378,-0.00331102 0.00931102,-0.00676772 0.0132677,-0.0096811 0.0297874,-0.0219449 0.0474528,-0.0343583 0.0642441,-0.0343583 0.00476772,0 0.00925197,0.00101969 0.0133346,0.00302362 0.00691339,0.00340551 0.0120236,0.00946457 0.0143622,0.0170551 0.0021811,0.00703937 0.00779134,0.0251496 -0.0366693,0.106957 0.019626,0.0256024 0.0590079,0.0818071 0.0607205,0.122339l0.0218071 0.149984c0.00965748,0.0451535 0.0173543,0.120311 -0.0224016,0.16787 -0.0254843,0.029378 -0.0510551,0.0441339 -0.0762638,0.0441339 -0.0061378,0 -0.0121181,-0.000937008 -0.0177913,-0.00274409 0.011248,0.240583 0.17765,0.62002 0.179516,0.624256l0.0193819 0.0485394c0.0051063,0.0142087 0.118854,0.332035 0.12976,0.517661 0.017185,0.291807 -0.289445,0.59948 -0.525921,0.791776 -0.163189,0.132693 -0.459043,0.436295 -0.645909,0.432933 -0.0188504,0.0864882 -0.0555984,0.293917 0.00246063,0.381043 0.0210118,0.020126 0.0757362,0.0434134 0.216307,0.0434134 0.0361417,0 0.0700236,-0.00149213 0.0947756,-0.00260236 0.0156063,-0.000681102 0.0280866,-0.00122835 0.0361732,-0.00122835 0.0131614,0 0.0235512,0.00255512 0.0317756,0.00780315 0.010626,0.00679134 0.0489134,0.0935236 0.0489134,0.105953 0,0.030937 -0.0512992,-0.0309724 -0.109882,-0.0120512 -0.00577953,0 -0.014563,-0.000122047 -0.0253937,-0.000279528 -0.0170551,-0.000232283 -0.039315,-0.000559055 -0.0628701,-0.000559055 -0.0515906,0 -0.0827126,0.00160236 -0.101445,0.00344094 0.0186654,0.0100945 0.0459724,0.0210906 0.0674567,0.0253937 0.0374291,0.00747244 0.109917,0.0744016 0.114248,0.0985 0.00251181,0.0140394 -0.0500866,-0.0351614 -0.0667205,-0.0249134 -0.0065315,0.00400394 -0.0159094,0.00666535 -0.0405197,0.00666535z"/>
  <path class="fil5" d="M3.9792 1.84708c0.0367598,-0.0320787 0.132504,-0.107087 0.246972,-0.129898 0.0863268,-0.0171811 0.122209,0.0054685 0.134189,0.0168583 -0.000562992,-0.000744094 -0.00111811,-0.00146457 -0.00165354,-0.00216142 0.0444646,-0.0818071 0.0388543,-0.0999173 0.0366732,-0.106957 -0.00233858,-0.00759055 -0.00744488,-0.0136496 -0.0143583,-0.0170551 -0.00408661,-0.00200394 -0.00857087,-0.00302362 -0.0133346,-0.00302362 -0.0167953,0 -0.0344606,0.0124173 -0.0642441,0.0343583 -0.00395669,0.00291339 -0.00863386,0.00637402 -0.0132717,0.0096811l-0.000346457 -0.0112953c-0.00112205,-0.0421063 -0.00242913,-0.0898386 -0.041185,-0.0909291 -0.0241142,0 -0.0351772,0.0260039 -0.0552677,0.0732047 -0.00296063,0.0069685 -0.00657874,0.0154409 -0.010126,0.0233031 -0.00252362,-0.00534252 -0.00501969,-0.0107874 -0.0071378,-0.0154291 -0.019189,-0.0419528 -0.0318386,-0.0696614 -0.0571063,-0.0696614 -0.00433071,0 -0.00847638,0.000929134 -0.0124291,0.00279134 -0.0253307,0.0120039 -0.0229606,0.0480236 -0.0189094,0.0939921l-0.00754331 -0.00644488c-0.0376654,-0.0322598 -0.0510945,-0.0426811 -0.0658583,-0.0426811 -0.00588976,0 -0.0114016,0.00182283 -0.0160236,0.00530315 -0.0176496,0.0133976 -0.0115906,0.0348622 0.00302756,0.0867244 0.00249213,0.00885039 0.00585827,0.0207795 0.00850787,0.0312795 -0.00666535,-0.00198819 -0.0136693,-0.00422441 -0.0194646,-0.00606299 -0.0288189,-0.00916929 -0.047311,-0.0147323 -0.0610827,-0.0147323 -0.0142008,0 -0.0219488,0.00633465 -0.0259016,0.0116339 -0.0103622,0.0137835 -0.0201654,0.0268425 0.075874,0.127201z"/>
  <circle class="fil6" cx="4.20544" cy="1.8999" r="0.042575"/>
  <circle class="fil7" cx="4.20544" cy="1.8999" r="0.0200284"/>
  <path class="fil8" d="M4.62883 2.00881c-0.0245039,-0.0402008 -0.0813268,-0.0809961 -0.131677,-0.106264 -0.0237992,-0.0119409 -0.0733307,-0.0367874 -0.0777283,-0.0483307 -0.00011811,-0.0027874 -0.000413386,-0.00564961 -0.000870079,-0.00857087 -0.00635039,0.0138858 -0.021815,0.0498268 -0.021311,0.0693976 0.000531496,0.0209134 0.0343504,0.0755669 0.0444803,0.0914921 -0.000161417,-0.000787402 -0.000322835,-0.00156693 -0.000492126,-0.00233465 0.0370118,0.00547638 0.16363,0.0158386 0.187598,0.00461024z"/>
  <path class="fil5" d="M4.41884 2.17207c0.0384528,-0.0460039 0.0325079,-0.117835 0.0233386,-0.16335 -0.0198543,-0.0140551 -0.0489016,-0.0340276 -0.0859449,0.00519291 -0.0239882,0.0253937 -0.0735197,-0.0153898 -0.089622,0.0523307 -0.00770079,0.0323976 -0.0480945,-0.029437 -0.0779843,0.0283543 -0.0282992,0.0547244 0.106512,0.120311 0.136378,0.123681 -6.29921e-005,-0.00161417 -0.000149606,-0.00322047 -0.000220472,-0.0048189 0.00566535,0.00180709 0.0116496,0.00274409 0.0177874,0.00274409 0.0252047,0 0.0507795,-0.0147559 0.0762677,-0.0441339z"/>
  <path class="fil5" d="M4.05757 1.9414c-0.0242874,0.0633071 0.0363465,0.0176693 0.0363465,0.0545157 0,0.0562835 0.0215866,0.0135039 0.0382441,0.0495827 0.00475984,0.0103071 0.0360433,0.0359646 0.0305906,0.0502913 -0.0279724,0.00277559 -0.0725551,0.0268268 -0.114004,-0.0116575 -0.0420551,-0.0390472 -0.042811,-0.12035 -0.0063189,-0.129102 0.0031811,-0.00185433 0.0129409,-0.00788189 0.0151417,-0.0136299z"/>
  <path class="fil9" d="M3.90907 3.23968c-0.00218504,0.0238307 -0.0121378,0.0769488 -0.0288661,0.107154 0.0595394,0.0150118 0.0753307,0.0365984 -0.00775984,0.114449 -0.0949921,0.0890039 -0.13311,0.0362205 -0.100457,0.124146 0.0252323,0.0679331 -0.109866,0.0186299 -0.0916811,0.0964291 0.0133622,0.0571496 -0.064626,0.00477953 -0.0828189,0.0910197 -0.0142126,0.067378 -0.0776969,0.0427441 -0.137469,0.0863504 -0.142504,0.103961 -0.288193,0.0552992 -0.446039,-0.0117205 -0.208362,-0.0884685 -0.15772,-0.161409 -0.288976,-0.304 0.059878,0.0474173 0.0551772,0.0435236 0.0951732,0.108594 0.0857717,0.139547 0.161386,0.169764 0.317028,0.211583 0.273091,0.073374 0.227543,-0.0222756 0.369591,-0.064878 0.121217,-0.0363543 0.00311811,-0.0805315 0.132744,-0.116484 -0.021437,-0.0702559 0.0479567,-0.0707795 0.0887559,-0.0909488 -0.0585669,-0.11365 0.119378,-0.127787 0.149165,-0.19985 -0.113622,-0.0167598 -0.0253307,-0.0454291 -0.0166654,-0.155953 0.0011378,-0.0133307 0.0128622,-0.0232165 0.0261929,-0.0220827 0.0133307,0.0011378 0.0232205,0.0128622 0.0220827,0.0261929zm-0.173217 0.347492l1.5748e-005 -1.1811e-005 -7.87402e-006 0 -7.87402e-006 1.1811e-005z"/>
  <path class="fil9" d="M3.71437 3.26702c-0.0803071,0.191945 -0.279563,0.33663 -0.489496,0.326169l-0.106185 -0.0178819 0.106843 -0.000925197c0.196382,-0.014374 0.372531,-0.136374 0.442264,-0.32072 0.00368898,-0.0128622 0.0171063,-0.0202992 0.0299685,-0.0166102 0.0128583,0.00368898 0.0202953,0.0171063 0.0166063,0.0299685z"/>
  <path class="fil9" d="M3.43206 3.3079c-0.141933,0.188091 -0.414236,0.233386 -0.609819,0.10639l-0.00662598 -0.00512205 -0.00583858 -0.00648031 7.87402e-006 -3.93701e-006c0.0123543,0.00264567 0.00484252,0.000511811 0.0162677,0.00501181 0.205417,0.0809488 0.431571,0.0650906 0.566811,-0.12828 0.00786614,-0.0108268 0.0230157,-0.0132244 0.0338386,-0.00535827 0.0108268,0.00786614 0.0132244,0.0230157 0.00535827,0.0338425z"/>
  <path class="fil9" d="M3.15228 3.24576c-0.172457,0.161827 -0.489283,0.0183346 -0.551472,-0.142898 0.0193189,0.0157874 0.00252756,0.000925197 0.0200315,0.0189961 0.115591,0.119366 0.353858,0.235634 0.494539,0.0925039 0.00866929,-0.0101929 0.0239606,-0.0114252 0.0341496,-0.00275197 0.0101929,0.00866929 0.0114252,0.0239567 0.00275197,0.0341496z"/>
  <path class="fil9" d="M2.38931 3.16092c0.129945,0.0729173 0.205287,0.104756 0.347776,0.147878 -0.158768,-0.00393307 -0.231799,-0.0391142 -0.37302,-0.10652 -0.0114213,-0.00697244 -0.0150276,-0.0218819 -0.00805512,-0.0333031 0.00697244,-0.0114173 0.021878,-0.0150236 0.0332992,-0.00805512z"/>
  <path class="fil9" d="M2.50576 3.64366l-0.00030315 -0.000173228c0.00748425,0.0243465 0.220157,0.0396378 0.246764,0.043878 -0.0579606,0.0122205 -0.255063,0.0504213 -0.292618,-0.0289803 -0.00406693,-0.0127441 0.00297244,-0.026374 0.0157165,-0.0304409 0.0127441,-0.00406693 0.026374,0.00297244 0.0304409,0.0157165z"/>
  <path class="fil10" d="M2.46728 2.47722c0.110819,0.022878 0.264252,0.259941 0.295157,0.335665l0.026 0.0808228c0,0 -0.0602677,-0.114929 -0.0881142,-0.156378 -0.0209606,-0.0312047 -0.173417,-0.215421 -0.225067,-0.222803 -0.011685,-0.00133071 -0.0229449,-0.0107638 -0.0251496,-0.0210669 -0.00220472,-0.0102992 0.00548425,-0.0175709 0.0171732,-0.0162402z"/>
  <path class="fil10" d="M2.34084 2.50739c0.200283,0.012437 0.342654,0.39576 0.336783,0.399276 -0.0476063,-0.0543819 -0.182287,-0.358118 -0.320768,-0.361236 -0.0120157,0.000208661 -0.0253346,-0.00812992 -0.0297598,-0.0186378 -0.00442126,-0.0105039 0.00172835,-0.019189 0.0137441,-0.0194016z"/>
  <path class="fil10" d="M2.27567 2.59719c0.0924331,-0.0567441 0.243126,0.125138 0.280319,0.190476 0.0304252,0.0534488 0.0286024,0.0552598 0.0593858,0.16402 -0.00805118,-0.0155276 -0.0747047,-0.145169 -0.0848346,-0.160492 -0.0227677,-0.0344409 -0.163106,-0.201157 -0.219913,-0.161732 -0.00835039,0.00545669 -0.0229528,0.00265354 -0.0326063,-0.00625984 -0.00965354,-0.00890945 -0.0107047,-0.0205551 -0.00235039,-0.0260118z"/>
  <path class="fil10" d="M2.27035 2.70829c0.161248,0.0391417 0.203028,0.0639803 0.295354,0.216988 0.0324528,0.0537835 0.0350433,0.0632756 0.0411063,0.114701l-0.000161417 -3.14961e-005c-0.0194016,-0.0443386 -0.028685,-0.0660866 -0.0590906,-0.109244 -0.100461,-0.142594 -0.123906,-0.155051 -0.274783,-0.185583 -0.0117323,-0.00279134 -0.0217874,-0.0132992 -0.0224567,-0.0234685 -0.000669291,-0.0101732 0.00829528,-0.0161535 0.0200315,-0.0133622z"/>
  <path class="fil10" d="M4.18713 2.63496c0.197626,0.390961 0.314717,0.697535 0.106976,1.11408 0.1505,-0.459224 0.074378,-0.669555 -0.14815,-1.08854 -0.00705512,-0.0113701 -0.00355512,-0.0263031 0.00781496,-0.0333583 0.0113661,-0.00705118 0.0263031,-0.00355118 0.0333583,0.00781496z"/>
  <path class="fil10" d="M4.28006 3.38761c-0.00903937,0.220827 -0.0323622,0.438677 -0.27085,0.523016 0.214626,-0.156921 0.222654,-0.262441 0.222398,-0.523016 0,-0.013378 0.0108465,-0.0242244 0.0242283,-0.0242244 0.0133819,0 0.0242244,0.0108465 0.0242244,0.0242244z"/>
  <path class="fil8" d="M3.48407 5.00967c-0.0574646,-0.0862362 -0.0220512,-0.290339 -0.00303937,-0.378358 -0.060126,0.000173228 -0.121083,0.00170079 -0.181413,0.0018622l0.0294646 0.233134c-0.0313661,0.0205079 -0.120874,0.0966378 -0.164539,0.127004 -0.00744488,0.00516929 -0.0218346,-0.000169291 -0.0255197,0.00248819 -0.0207205,0.0149567 -0.0344134,0.0875748 -0.0275433,0.108819 0.00604331,0.0186929 0.0180472,-0.0525197 0.0379252,-0.0525197 0.00720866,0 0.0173819,0.00785433 0.0245984,0.00470866 0.00666535,-0.00290157 0.0151142,-0.00652756 0.0232835,-0.0104685 0.0190709,-0.00922441 0.0414055,-0.0200157 0.0638504,-0.0264646 -0.000374016,0.0365866 0.0117913,0.070315 0.0363898,0.10063 0.0934488,0.115161 0.330882,0.138705 0.389362,0.138705 0.0246102,0 0.0339882,-0.00266535 0.0405197,-0.00666929 0.0166339,-0.010248 0.0692283,0.0389528 0.0667205,0.0249094 -0.00433071,-0.0240945 -0.0768189,-0.0910236 -0.114252,-0.0985 -0.0214803,-0.00429921 -0.0487874,-0.0152953 -0.0674528,-0.0253937 0.0187283,-0.00183071 0.0498543,-0.00343701 0.101445,-0.00343701 0.0235551,0 0.045815,0.000326772 0.0628701,0.000559055 0.0108307,0.00015748 0.0196142,0.000279528 0.0253937,0.000279528 0.0585827,-0.0189213 0.109882,0.0429882 0.109882,0.0120512 0,-0.0124291 -0.0382835,-0.0991614 -0.0489134,-0.105953 -0.00822441,-0.00524803 -0.0186142,-0.00780315 -0.0317795,-0.00780315 -0.00808268,0 -0.020563,0.000547244 -0.0361732,0.00122835 -0.024748,0.00111024 -0.0586299,0.00259843 -0.0947717,0.00259843 -0.140571,0 -0.195295,-0.0232835 -0.216307,-0.0434094z"/>
 </g>
</svg>
