<?xml version="1.0" encoding="UTF-8"?>
<!DOCTYPE svg PUBLIC "-//W3C//DTD SVG 1.1//EN" "http://www.w3.org/Graphics/SVG/1.1/DTD/svg11.dtd">
<!-- Creator: CorelDRAW -->
<svg xmlns="http://www.w3.org/2000/svg" xml:space="preserve" width="6.82666in" height="6.82666in" style="shape-rendering:geometricPrecision; text-rendering:geometricPrecision; image-rendering:optimizeQuality; fill-rule:evenodd; clip-rule:evenodd"
viewBox="0 0 6.82666 6.82666"
 xmlns:xlink="http://www.w3.org/1999/xlink">
 <defs>
  <style type="text/css">
   <![CDATA[
    .fil2 {fill:none}
    .fil5 {fill:#130F0F}
    .fil10 {fill:#212121}
    .fil8 {fill:#424242}
    .fil1 {fill:#00000000}
    .fil13 {fill:#616161}
    .fil0 {fill:#00000000}
    .fil11 {fill:#AB7165}
    .fil12 {fill:#C98576}
    .fil6 {fill:#D49385}
    .fil3 {fill:#D5D5D4}
    .fil7 {fill:#FAFAFA}
    .fil4 {fill:#FFFFFE}
    .fil9 {fill:#130F0F;fill-rule:nonzero}
   ]]>
  </style>
   <clipPath id="id0">
    <path d="M3.41333 -3.93701e-006c1.88513,0 3.41333,1.5282 3.41333,3.41333 0,1.88513 -1.5282,3.41333 -3.41333,3.41333 -1.88513,0 -3.41333,-1.5282 -3.41333,-3.41333 0,-1.88513 1.5282,-3.41333 3.41333,-3.41333z"/>
   </clipPath>
 </defs>
 <g id="Layer_x0020_1">
  <metadata id="CorelCorpID_0Corel-Layer"/>
  <path class="fil0" d="M3.41333 -3.93701e-006c1.88513,0 3.41333,1.5282 3.41333,3.41333 0,1.88513 -1.5282,3.41333 -3.41333,3.41333 -1.88513,0 -3.41333,-1.5282 -3.41333,-3.41333 0,-1.88513 1.5282,-3.41333 3.41333,-3.41333z"/>
  <g style="clip-path:url(#id0)">
   <g id="_637655848">
    <g>
     <polygon id="_6376509041" class="fil1" points="5.064,2.72746 8.85026,6.51373 8.85003,6.51376 8.8498,6.51421 8.84957,6.51517 8.84935,6.51672 8.84915,6.51893 8.84897,6.52187 8.84881,6.52564 8.84862,6.53083 8.84839,6.53601 8.84811,6.54117 8.8478,6.54631 8.84745,6.55143 8.84706,6.55654 8.84664,6.56161 8.84618,6.56667 8.84568,6.5717 8.84515,6.57671 8.84458,6.58169 8.84397,6.58664 8.84334,6.59156 8.84267,6.59645 8.84196,6.60131 8.84123,6.60613 8.84046,6.61092 8.83966,6.61567 8.83883,6.62038 8.83796,6.62506 8.83707,6.62969 8.83615,6.63428 8.8352,6.63883 8.83422,6.64333 8.83321,6.64779 8.83217,6.6522 8.83111,6.65656 8.83002,6.66087 8.8289,6.66513 8.82776,6.66933 8.82659,6.67348 8.8254,6.67758 5.03913,2.89131 5.04032,2.88721 5.04149,2.88306 5.04263,2.87885 5.04375,2.87459 5.04484,2.87028 5.04591,2.86593 5.04694,2.86152 5.04795,2.85706 5.04893,2.85256 5.04988,2.84801 5.0508,2.84342 5.0517,2.83878 5.05256,2.83411 5.05339,2.8294 5.05419,2.82465 5.05496,2.81986 5.0557,2.81504 5.0564,2.81018 5.05707,2.80529 5.0577,2.80037 5.05831,2.79542 5.05888,2.79044 5.05941,2.78543 5.05991,2.7804 5.06037,2.77534 5.0608,2.77026 5.06118,2.76516 5.06153,2.76004 5.06184,2.7549 5.06212,2.74974 5.06235,2.74456 5.06255,2.73937 5.0627,2.7356 5.06289,2.73265 5.06309,2.73044 5.0633,2.7289 5.06353,2.72794 5.06376,2.72748 "/>
     <polygon id="_637651648" class="fil1" points="5.03913,2.89131 8.8254,6.67758 8.8249,6.67931 8.82434,6.68133 8.82372,6.68363 8.82305,6.68619 8.82232,6.68901 8.82154,6.69208 8.82072,6.6954 8.81984,6.69896 8.81892,6.70275 8.81795,6.70676 8.81694,6.71098 8.8159,6.71541 8.81481,6.72005 8.81369,6.72487 8.81253,6.72987 8.81134,6.73506 8.81012,6.7404 8.80887,6.74591 8.80759,6.75157 8.8063,6.75738 8.80497,6.76333 8.80363,6.7694 8.80226,6.7756 8.80088,6.78191 8.79948,6.78833 8.79807,6.79484 8.79665,6.80144 8.79521,6.80814 8.79377,6.8149 8.79232,6.82173 8.79087,6.82863 8.78942,6.83557 5.00315,3.0493 5.0046,3.04235 5.00606,3.03546 5.0075,3.02863 5.00894,3.02187 5.01038,3.01517 5.0118,3.00857 5.01321,3.00206 5.01461,2.99564 5.01599,2.98933 5.01736,2.98313 5.0187,2.97706 5.02003,2.97111 5.02133,2.9653 5.02261,2.95964 5.02385,2.95413 5.02507,2.94878 5.02626,2.9436 5.02742,2.93859 5.02854,2.93378 5.02963,2.92914 5.03068,2.92471 5.03169,2.92049 5.03265,2.91648 5.03357,2.91269 5.03445,2.90913 5.03528,2.90581 5.03605,2.90274 5.03678,2.89991 5.03745,2.89735 5.03807,2.89506 5.03863,2.89304 "/>
     <polygon id="_637653616" class="fil1" points="4.96645,3.26085 8.75272,7.04712 8.75154,7.0645 8.7504,7.08143 8.7493,7.09794 8.74823,7.11402 8.7472,7.12969 8.7462,7.14495 8.74524,7.15981 8.7443,7.17428 8.7434,7.18836 8.74253,7.20207 8.74169,7.21542 8.74088,7.22841 8.74009,7.24104 8.73934,7.25333 8.73861,7.26528 8.73791,7.27691 8.73723,7.28822 8.73658,7.29921 8.73595,7.30991 8.73535,7.3203 8.73476,7.33041 8.7342,7.34024 8.73367,7.3498 8.73315,7.35909 8.73265,7.36813 8.73217,7.37693 8.7317,7.38548 8.73126,7.3938 8.73083,7.40189 8.73041,7.40978 8.73002,7.41745 8.72963,7.42492 4.94336,3.63865 4.94375,3.63118 4.94415,3.6235 4.94456,3.61562 4.94499,3.60753 4.94543,3.59921 4.9459,3.59065 4.94638,3.58186 4.94688,3.57282 4.9474,3.56353 4.94794,3.55397 4.9485,3.54414 4.94908,3.53403 4.94969,3.52363 4.95031,3.51294 4.95096,3.50194 4.95164,3.49064 4.95234,3.47901 4.95307,3.46706 4.95383,3.45476 4.95461,3.44213 4.95542,3.42915 4.95626,3.4158 4.95713,3.40209 4.95804,3.38801 4.95897,3.37354 4.95994,3.35868 4.96093,3.34342 4.96196,3.32775 4.96303,3.31167 4.96413,3.29516 4.96528,3.27822 "/>
     <polygon id="_637653856" class="fil1" points="5.11704,2.76254 8.90331,6.54881 8.89843,6.54343 8.89348,6.53849 8.88843,6.53394 8.88326,6.5297 8.87793,6.5257 8.87241,6.52187 8.86666,6.51813 8.86066,6.51441 8.85438,6.51065 5.06811,2.72438 5.07439,2.72814 5.08039,2.73186 5.08614,2.73559 5.09166,2.73943 5.09699,2.74343 5.10217,2.74767 5.10721,2.75222 5.11216,2.75715 "/>
     <polygon id="_637653952" class="fil1" points="5.06811,2.72438 8.85438,6.51065 8.8497,6.5079 5.06343,2.72163 "/>
     <polygon id="_637654240" class="fil1" points="5.06343,2.72163 8.8497,6.5079 8.84981,6.50881 8.84992,6.50969 8.85003,6.51052 8.85013,6.5113 8.85022,6.51205 8.85032,6.51276 8.85041,6.51343 8.85049,6.51406 5.06422,2.72778 5.06414,2.72715 5.06405,2.72648 5.06396,2.72578 5.06386,2.72503 5.06376,2.72424 5.06365,2.72341 5.06354,2.72254 "/>
     <polygon id="_637654504" class="fil1" points="5.06422,2.72778 8.85049,6.51406 8.85084,6.51515 8.85114,6.51665 8.85136,6.51818 8.85148,6.51939 8.85148,6.51994 5.06521,2.73367 5.06521,2.73312 5.06509,2.73191 5.06487,2.73037 5.06457,2.72888 "/>
     <polygon id="_637654144" class="fil1" points="5.00315,3.0493 8.78942,6.83557 8.78863,6.83932 8.78785,6.84308 8.78707,6.84685 8.7863,6.85063 8.78552,6.85443 8.78474,6.85822 8.78396,6.86202 8.78319,6.86583 8.78242,6.86964 8.78165,6.87345 8.78088,6.87726 8.78012,6.88107 8.77936,6.88489 8.7786,6.8887 8.77785,6.8925 8.7771,6.8963 4.99083,3.11003 4.99158,3.10623 4.99233,3.10243 4.99309,3.09861 4.99385,3.0948 4.99461,3.09099 4.99538,3.08718 4.99615,3.08337 4.99692,3.07956 4.99769,3.07575 4.99847,3.07195 4.99925,3.06815 5.00003,3.06436 5.00081,3.06058 5.00159,3.05681 5.00237,3.05305 "/>
     <polygon id="_637654000" class="fil1" points="4.99083,3.11003 8.7771,6.8963 8.77596,6.90211 8.77484,6.90789 8.77373,6.91364 8.77264,6.91936 8.77156,6.92504 8.7705,6.93068 8.76946,6.93627 8.76844,6.94181 8.76744,6.94729 8.76646,6.9527 8.7655,6.95806 8.76457,6.96334 8.76366,6.96855 8.76278,6.97367 8.76193,6.97872 8.7611,6.98367 8.76031,6.98853 8.75954,6.9933 8.75881,6.99795 8.75811,7.00251 8.75745,7.00695 8.75682,7.01127 8.75623,7.01548 8.75567,7.01956 8.75516,7.0235 8.75468,7.02732 8.75424,7.03099 8.75385,7.03452 8.7535,7.03791 8.75319,7.04114 8.75293,7.04421 8.75272,7.04712 4.96645,3.26085 4.96667,3.25794 4.96693,3.25487 4.96723,3.25164 4.96758,3.24825 4.96798,3.24472 4.96841,3.24105 4.96889,3.23723 4.96941,3.23328 4.96996,3.2292 4.97056,3.225 4.97118,3.22068 4.97185,3.21624 4.97255,3.21168 4.97328,3.20702 4.97404,3.20226 4.97483,3.1974 4.97566,3.19244 4.97651,3.1874 4.97739,3.18228 4.9783,3.17707 4.97923,3.17179 4.98019,3.16643 4.98117,3.16102 4.98217,3.15554 4.98319,3.15 4.98423,3.14441 4.98529,3.13877 4.98637,3.13309 4.98746,3.12737 4.98857,3.12162 4.9897,3.11583 "/>
     <polygon id="_637654720" class="fil1" points="5.27876,3.1702 9.06502,6.95647 9.06478,6.96451 9.06454,6.97565 9.06428,6.9897 9.06402,7.00641 9.06371,7.02557 9.06337,7.04697 9.06297,7.07037 9.06251,7.09556 9.06197,7.12231 9.06134,7.15041 9.06061,7.17963 9.05977,7.20974 9.0588,7.24054 9.0577,7.2718 9.05645,7.30329 9.05505,7.33479 9.05347,7.36609 9.05172,7.39696 9.04976,7.42718 9.04761,7.45652 9.04524,7.48478 9.04264,7.51172 9.0398,7.53712 9.03671,7.56077 9.03336,7.58244 9.02974,7.60191 9.02583,7.61895 9.02162,7.63335 9.0171,7.64489 9.01226,7.65335 9.00709,7.65849 9.00158,7.66011 5.21531,3.87383 5.22082,3.87222 5.22599,3.86707 5.23083,3.85862 5.23535,3.84708 5.23956,3.83268 5.24347,3.81563 5.24709,3.79617 5.25044,3.7745 5.25354,3.75085 5.25637,3.72545 5.25897,3.69851 5.26134,3.67025 5.2635,3.64091 5.26545,3.61069 5.2672,3.57981 5.26878,3.54852 5.27019,3.51702 5.27143,3.48552 5.27254,3.45427 5.2735,3.42347 5.27434,3.39335 5.27507,3.36414 5.2757,3.33604 5.27624,3.30929 5.2767,3.2841 5.2771,3.2607 5.27744,3.2393 5.27775,3.22014 5.27802,3.20343 5.27827,3.18938 5.27851,3.17824 "/>
     <polygon id="_637654048" class="fil1" points="5.21531,3.87383 9.00158,7.66011 8.99969,7.65957 8.99795,7.65816 5.21168,3.87189 5.21342,3.8733 "/>
     <polygon id="_637654312" class="fil1" points="4.94336,3.63865 8.72963,7.42492 8.72936,7.43022 8.7291,7.43541 8.72884,7.44052 8.72859,7.44552 8.72835,7.45044 8.72811,7.45528 8.72787,7.46004 8.72765,7.46471 8.72742,7.46931 8.7272,7.47383 8.72699,7.47828 8.72678,7.48267 8.72657,7.48699 8.72636,7.49125 8.72616,7.49546 8.72596,7.4996 4.9397,3.71333 4.93989,3.70919 4.94009,3.70498 4.9403,3.70072 4.94051,3.6964 4.94072,3.69201 4.94093,3.68756 4.94115,3.68304 4.94138,3.67844 4.94161,3.67376 4.94184,3.66901 4.94208,3.66417 4.94232,3.65925 4.94257,3.65424 4.94283,3.64914 4.94309,3.64394 "/>
     <polygon id="_637655128" class="fil1" points="4.9397,3.71333 8.72596,7.4996 8.72555,7.50833 8.72514,7.51684 8.72474,7.52518 8.72433,7.53336 8.72394,7.54141 8.72354,7.54937 8.72313,7.55726 8.72272,7.56511 8.7223,7.57294 8.72186,7.58078 8.72141,7.58866 8.72094,7.59661 8.72046,7.60466 8.71994,7.61283 8.71941,7.62115 8.71884,7.62966 8.71825,7.63836 8.71762,7.64731 8.71695,7.65651 8.71624,7.66601 8.7155,7.67582 8.7147,7.68598 8.71387,7.69651 8.71298,7.70744 8.71204,7.7188 8.71104,7.73061 8.70999,7.74291 8.70888,7.75572 8.7077,7.76907 8.70646,7.78299 8.70515,7.7975 8.70377,7.81263 4.9175,4.02636 4.91889,4.01123 4.92019,3.99672 4.92144,3.9828 4.92261,3.96945 4.92372,3.95664 4.92478,3.94434 4.92577,3.93252 4.92671,3.92117 4.9276,3.91024 4.92844,3.8997 4.92923,3.88955 4.92998,3.87974 4.93069,3.87024 4.93135,3.86104 4.93198,3.85209 4.93257,3.84339 4.93314,3.83488 4.93368,3.82656 4.93419,3.81839 4.93468,3.81034 4.93515,3.80239 4.93559,3.79451 4.93603,3.78667 4.93645,3.77883 4.93687,3.77099 4.93727,3.7631 4.93767,3.75514 4.93807,3.74709 4.93847,3.73891 4.93887,3.73057 4.93928,3.72206 "/>
     <polygon id="_637654984" class="fil1" points="4.55687,3.72562 8.34313,7.51189 8.3425,7.51223 4.55624,3.72596 "/>
     <polygon id="_637655344" class="fil1" points="4.22872,3.52846 8.01498,7.31473 8.00819,7.31845 8.00137,7.32217 7.99456,7.32588 7.98775,7.32957 7.98096,7.33325 7.9742,7.3369 7.96749,7.34052 7.96083,7.34409 7.95424,7.34761 7.94773,7.35109 7.94131,7.3545 7.93499,7.35784 7.92879,7.36111 7.92272,7.36429 7.91678,7.36739 7.911,7.37039 7.90538,7.37329 7.89994,7.37608 7.89468,7.37876 7.88962,7.38131 7.88477,7.38373 7.88015,7.38602 7.87575,7.38817 7.87161,7.39016 7.86772,7.392 7.8641,7.39368 7.86077,7.39519 7.85773,7.39652 7.855,7.39767 7.85258,7.39863 7.85049,7.39939 7.84875,7.39994 4.06248,3.61367 4.06422,3.61311 4.06631,3.61235 4.06873,3.61139 4.07146,3.61025 4.0745,3.60892 4.07783,3.60741 4.08145,3.60573 4.08534,3.60389 4.08948,3.60189 4.09388,3.59975 4.0985,3.59746 4.10335,3.59504 4.10841,3.59248 4.11367,3.58981 4.11911,3.58702 4.12474,3.58412 4.13052,3.58111 4.13645,3.57802 4.14252,3.57483 4.14872,3.57157 4.15504,3.56822 4.16146,3.56481 4.16797,3.56134 4.17456,3.55782 4.18122,3.55424 4.18793,3.55063 4.19469,3.54698 4.20148,3.5433 4.20829,3.53961 4.21511,3.5359 4.22192,3.53218 "/>
     <polygon id="_637654840" class="fil1" points="4.34103,3.74422 8.1273,7.53049 8.12311,7.53017 8.11906,7.5297 8.11513,7.52911 8.11132,7.52836 8.10763,7.52747 8.10407,7.52642 8.10061,7.52522 8.09728,7.52385 8.09406,7.52231 8.09095,7.52061 8.08795,7.51872 8.08506,7.51665 8.08227,7.51439 8.07959,7.51194 8.07701,7.50929 4.29074,3.72302 4.29332,3.72567 4.296,3.72812 4.29879,3.73038 4.30168,3.73244 4.30468,3.73433 4.30779,3.73604 4.31101,3.73758 4.31435,3.73895 4.3178,3.74015 4.32137,3.7412 4.32505,3.74209 4.32886,3.74283 4.33279,3.74343 4.33685,3.74389 "/>
     <polygon id="_637655368" class="fil1" points="4.89136,4.32472 8.67763,8.111 8.67931,8.12075 4.89305,4.33448 "/>
     <polygon id="_637654912" class="fil1" points="4.06248,3.61367 7.84875,7.39994 7.84636,7.40065 7.84391,7.40139 7.84139,7.40219 7.83881,7.40301 7.83617,7.40387 7.83348,7.40478 7.83074,7.40571 7.82795,7.40667 4.04168,3.6204 4.04447,3.61944 4.04722,3.6185 4.04991,3.6176 4.05254,3.61674 4.05512,3.61591 4.05764,3.61512 4.06009,3.61438 "/>
     <polygon id="_637654792" class="fil1" points="4.04168,3.6204 7.82795,7.40667 7.82418,7.408 7.82033,7.40936 7.81641,7.41078 7.81243,7.41222 7.80839,7.4137 7.8043,7.4152 7.80017,7.41673 7.79599,7.41827 4.00972,3.632 4.0139,3.63046 4.01804,3.62893 4.02213,3.62743 4.02617,3.62595 4.03015,3.6245 4.03406,3.62309 4.03791,3.62172 "/>
     <polygon id="_637656088" class="fil1" points="2.52601,2.25657 6.31228,6.04284 6.31484,6.04593 2.52857,2.25966 "/>
     <polygon id="_637656208" class="fil1" points="2.52857,2.25966 6.31484,6.04593 6.31543,6.04675 6.316,6.04755 6.31653,6.04833 6.31703,6.04911 6.3175,6.04986 6.31793,6.0506 6.31833,6.05133 6.31871,6.05204 2.53244,2.26576 2.53207,2.26506 2.53167,2.26433 2.53123,2.26359 2.53076,2.26283 2.53026,2.26206 2.52973,2.26128 2.52917,2.26048 "/>
     <polygon id="_637655920" class="fil1" points="2.53244,2.26576 6.31871,6.05204 6.32004,6.0549 6.32115,6.05784 6.32204,6.06084 6.32272,6.06391 6.32319,6.06704 6.32346,6.07023 6.32353,6.07348 6.32341,6.07678 2.53715,2.2905 2.53726,2.28721 2.53719,2.28396 2.53692,2.28077 2.53645,2.27764 2.53577,2.27457 2.53488,2.27157 2.53377,2.26863 "/>
     <polygon id="_637655944" class="fil1" points="3.84685,3.67218 7.63312,7.45845 7.62953,7.45855 7.62587,7.45865 7.62213,7.45873 7.61834,7.45882 7.61448,7.4589 7.61055,7.45898 7.60657,7.45905 7.60252,7.45911 7.59843,7.45917 7.59428,7.45922 7.59007,7.45926 7.58583,7.4593 7.58153,7.45933 7.57719,7.45935 7.57281,7.45936 7.56839,7.45937 7.56393,7.45936 7.55944,7.45934 7.55491,7.45931 7.55035,7.45928 7.54577,7.45923 7.54116,7.45917 7.53653,7.4591 7.53188,7.45901 7.5272,7.45892 7.52252,7.45881 7.51781,7.45868 7.5131,7.45855 7.50837,7.45839 7.50365,7.45823 7.49891,7.45805 7.49417,7.45785 3.7079,3.67158 3.71264,3.67178 3.71738,3.67196 3.72211,3.67212 3.72683,3.67228 3.73155,3.67241 3.73625,3.67254 3.74094,3.67265 3.74561,3.67274 3.75026,3.67283 3.75489,3.6729 3.7595,3.67296 3.76409,3.67301 3.76864,3.67304 3.77317,3.67307 3.77766,3.67309 3.78212,3.67309 3.78654,3.67309 3.79092,3.67308 3.79526,3.67306 3.79956,3.67303 3.80381,3.67299 3.80801,3.67295 3.81216,3.6729 3.81626,3.67284 3.8203,3.67278 3.82428,3.6727 3.82821,3.67263 3.83207,3.67255 3.83587,3.67246 3.8396,3.67237 3.84326,3.67228 "/>
     <polygon id="_637656112" class="fil1" points="3.7079,3.67158 7.49417,7.45785 7.48928,7.45763 7.4844,7.45739 7.47951,7.45714 7.47463,7.45687 7.46976,7.45658 7.46489,7.45627 7.46003,7.45594 7.45519,7.45559 7.45036,7.45522 7.44555,7.45483 7.44076,7.45443 7.43599,7.45399 7.43124,7.45354 7.42652,7.45307 7.42183,7.45257 7.41718,7.45205 7.41255,7.4515 7.40796,7.45093 7.40341,7.45034 7.3989,7.44972 7.39443,7.44908 7.39001,7.44841 7.38563,7.44772 7.3813,7.447 7.37703,7.44625 7.37281,7.44548 7.36864,7.44467 7.36454,7.44384 7.36049,7.44298 7.3565,7.44209 7.35259,7.44118 7.34874,7.44023 3.56247,3.65396 3.56632,3.65491 3.57024,3.65582 3.57422,3.65671 3.57827,3.65757 3.58237,3.6584 3.58654,3.6592 3.59076,3.65998 3.59504,3.66072 3.59936,3.66144 3.60374,3.66214 3.60817,3.66281 3.61263,3.66345 3.61715,3.66407 3.6217,3.66466 3.62628,3.66523 3.63091,3.66578 3.63557,3.6663 3.64026,3.6668 3.64498,3.66727 3.64972,3.66772 3.65449,3.66815 3.65928,3.66856 3.66409,3.66895 3.66892,3.66932 3.67376,3.66967 3.67862,3.67 3.68349,3.67031 3.68836,3.6706 3.69324,3.67087 3.69813,3.67112 3.70302,3.67136 "/>
     <polygon id="_637656136" class="fil1" points="4.5057,4.4783 8.29196,8.26457 8.28774,8.26404 8.28354,8.26343 8.27935,8.26276 8.2752,8.262 8.27109,8.26118 8.26703,8.26028 8.26303,8.2593 8.25909,8.25823 8.25524,8.25708 8.25147,8.25585 8.2478,8.25452 8.24424,8.2531 8.24079,8.25159 8.23746,8.24998 8.23428,8.24827 8.23123,8.24646 4.44496,4.46019 4.44801,4.462 4.4512,4.46371 4.45452,4.46531 4.45797,4.46683 4.46154,4.46825 4.4652,4.46957 4.46897,4.47081 4.47283,4.47196 4.47676,4.47302 4.48076,4.47401 4.48482,4.47491 4.48893,4.47573 4.49309,4.47648 4.49727,4.47716 4.50148,4.47776 "/>
     <polygon id="_637655728" class="fil1" points="4.57678,4.57189 8.36305,8.35817 8.35791,8.35377 8.35324,8.34925 4.56697,4.56298 4.57165,4.5675 "/>
     <polygon id="_637656856" class="fil1" points="4.58575,4.48986 8.37202,8.27613 8.36849,8.27593 8.36435,8.27554 8.35967,8.275 8.35456,8.27434 8.34909,8.27356 8.34337,8.2727 8.33748,8.27179 8.33152,8.27083 8.32557,8.26985 8.31972,8.26889 8.31408,8.26796 8.30872,8.26708 8.30373,8.26628 8.29922,8.26558 8.29527,8.265 8.29196,8.26457 4.5057,4.4783 4.509,4.47873 4.51295,4.47931 4.51746,4.48001 4.52245,4.48081 4.52781,4.48169 4.53346,4.48262 4.5393,4.48358 4.54525,4.48456 4.55122,4.48552 4.55711,4.48643 4.56283,4.48729 4.56829,4.48807 4.57341,4.48873 4.57808,4.48927 4.58222,4.48965 "/>
     <polygon id="_637656664" class="fil1" points="4.63793,4.59651 8.4242,8.38278 8.41966,8.38201 8.41519,8.38112 8.41079,8.38013 8.40647,8.37902 8.40224,8.37782 8.39809,8.37651 8.39405,8.3751 8.39011,8.37359 8.38628,8.37198 8.38257,8.37028 8.37898,8.36849 8.37551,8.3666 8.37218,8.36462 8.36899,8.36256 8.36594,8.3604 8.36305,8.35817 4.57678,4.57189 4.57967,4.57413 4.58272,4.57628 4.58591,4.57835 4.58924,4.58033 4.59271,4.58222 4.5963,4.58401 4.60001,4.58571 4.60384,4.58732 4.60778,4.58883 4.61183,4.59024 4.61597,4.59155 4.6202,4.59275 4.62452,4.59385 4.62892,4.59485 4.63339,4.59574 "/>
     <polygon id="_637656952" class="fil1" points="4.40326,4.42297 8.18953,8.20924 8.18941,8.20931 4.40315,4.42304 "/>
     <polygon id="_637656784" class="fil1" points="4.44496,4.46019 8.23123,8.24646 8.22511,8.24252 8.21914,8.23841 8.21335,8.23411 8.20783,8.22962 8.20263,8.2249 4.41636,4.43863 4.42156,4.44335 4.42709,4.44784 4.43287,4.45214 4.43885,4.45625 "/>
     <polygon id="_637656280" class="fil1" points="4.55624,3.72596 8.3425,7.51223 8.34139,7.51317 4.55512,3.7269 "/>
     <polygon id="_637656400" class="fil1" points="4.55512,3.7269 8.34139,7.51317 8.34116,7.5136 8.34132,7.51381 4.55505,3.72754 4.55489,3.72733 "/>
     <polygon id="_637656568" class="fil1" points="4.55696,3.72818 8.34323,7.51445 8.34337,7.51507 8.34311,7.51607 4.55685,3.7298 4.5571,3.7288 "/>
     <polygon id="_637657384" class="fil1" points="4.55685,3.7298 8.34311,7.51607 8.34306,7.5162 4.5568,3.72993 "/>
     <polygon id="_637657168" class="fil1" points="4.43078,3.67044 8.21704,7.45671 8.21496,7.45505 8.21293,7.45338 8.21094,7.4517 8.20899,7.45003 8.20709,7.44836 8.20523,7.4467 8.20342,7.44506 8.20166,7.44344 4.41539,3.65717 4.41715,3.65879 4.41896,3.66043 4.42082,3.66209 4.42272,3.66376 4.42467,3.66543 4.42666,3.66711 4.4287,3.66878 "/>
     <polygon id="_637657432" class="fil1" points="4.27719,3.60866 8.06346,7.39493 8.0634,7.39496 4.27713,3.60869 "/>
     <polygon id="_637657360" class="fil1" points="4.41539,3.65717 8.20166,7.44344 8.20132,7.44473 8.20099,7.44606 8.20067,7.44741 8.20034,7.44879 8.20003,7.45019 8.19972,7.45161 8.19941,7.45304 8.19911,7.45448 4.41284,3.66821 4.41315,3.66677 4.41345,3.66534 4.41376,3.66392 4.41407,3.66252 4.4144,3.66114 4.41472,3.65979 4.41505,3.65846 "/>
     <polygon id="_637657672" class="fil1" points="4.41165,3.67378 8.19791,7.46005 8.19656,7.46663 8.1951,7.47322 8.19348,7.47979 8.19162,7.48624 8.18946,7.49252 8.18694,7.49855 8.18399,7.50428 8.18054,7.50962 8.17653,7.51451 8.1719,7.51889 8.16657,7.52268 8.1605,7.52582 8.15359,7.52824 8.1458,7.52987 8.13706,7.53064 8.1273,7.53049 4.34103,3.74422 4.35079,3.74437 4.35953,3.7436 4.36732,3.74197 4.37423,3.73955 4.38031,3.73641 4.38563,3.73261 4.39026,3.72824 4.39427,3.72335 4.39772,3.718 4.40067,3.71228 4.40319,3.70625 4.40535,3.69997 4.40721,3.69352 4.40883,3.68695 4.41029,3.68035 "/>
     <polygon id="_637657408" class="fil1" points="4.41284,3.66821 8.19911,7.45448 8.19882,7.45575 4.41255,3.66948 "/>
     <polygon id="_637657264" class="fil1" points="4.41255,3.66948 8.19882,7.45575 8.19821,7.45874 4.41194,3.67247 "/>
     <polygon id="_637658056" class="fil1" points="4.41194,3.67247 8.19821,7.45874 8.19791,7.46005 4.41165,3.67378 "/>
     <polygon id="_637657840" class="fil1" points="4.55685,3.72994 8.34311,7.51622 8.34166,7.51978 8.34015,7.52343 8.33856,7.52711 8.33687,7.53084 8.33508,7.53457 8.33316,7.53829 8.33109,7.54198 8.32885,7.54561 8.32643,7.54918 8.3238,7.55265 8.32096,7.556 8.31787,7.55922 8.31452,7.56229 8.31089,7.56518 8.30697,7.56787 8.30274,7.57035 4.51647,3.78408 4.5207,3.7816 4.52463,3.77891 4.52825,3.77602 4.5316,3.77295 4.53469,3.76973 4.53754,3.76638 4.54016,3.76291 4.54258,3.75934 4.54482,3.7557 4.54689,3.75202 4.54881,3.7483 4.55061,3.74457 4.55229,3.74084 4.55388,3.73715 4.55539,3.73351 "/>
     <polygon id="_637658080" class="fil1" points="4.51647,3.78408 8.30274,7.57035 8.29844,7.57253 8.29419,7.57444 8.28999,7.57606 8.28585,7.57739 8.28176,7.57845 8.27772,7.57922 8.27372,7.5797 8.26979,7.57991 8.26589,7.57981 8.26205,7.57944 8.25826,7.57878 8.25451,7.57782 8.25081,7.57658 8.24715,7.57505 8.24354,7.57322 8.23997,7.5711 4.4537,3.78483 4.45727,3.78695 4.46088,3.78878 4.46454,3.79031 4.46824,3.79155 4.47199,3.7925 4.47578,3.79317 4.47963,3.79354 4.48352,3.79363 4.48746,3.79343 4.49145,3.79295 4.49549,3.79218 4.49958,3.79112 4.50372,3.78978 4.50792,3.78817 4.51217,3.78626 "/>
     <polygon id="_637658392" class="fil1" points="4.4537,3.78483 8.23997,7.5711 8.23716,7.56918 8.2345,7.56711 8.23199,7.56487 8.22963,7.56248 4.44336,3.77621 4.44572,3.7786 4.44824,3.78083 4.45089,3.78291 "/>
     <polygon id="_637658176" class="fil1" points="4.89428,4.26461 8.68055,8.05088 8.67998,8.0556 8.67944,8.06018 8.67893,8.06461 8.67844,8.06891 8.67801,8.07307 8.67762,8.0771 8.67728,8.081 8.67701,8.08478 8.6768,8.08844 8.67665,8.09199 8.67659,8.09542 8.67661,8.09874 8.67672,8.10195 8.67692,8.10506 8.67722,8.10808 8.67763,8.111 4.89136,4.32472 4.89095,4.32181 4.89065,4.31879 4.89045,4.31568 4.89034,4.31246 4.89032,4.30915 4.89039,4.30572 4.89053,4.30217 4.89074,4.29851 4.89102,4.29473 4.89135,4.29083 4.89174,4.2868 4.89218,4.28263 4.89266,4.27834 4.89317,4.27391 4.89371,4.26933 "/>
     <polygon id="_637658320" class="fil1" points="4.9175,4.02636 8.70377,7.81263 8.7033,7.81774 8.70283,7.82292 8.70234,7.82817 8.70185,7.8335 8.70135,7.83889 8.70084,7.84437 8.70032,7.84991 8.69979,7.85554 8.69926,7.86124 8.69871,7.86703 8.69816,7.87289 8.6976,7.87883 8.69703,7.88485 8.69644,7.89096 8.69586,7.89715 8.69526,7.90343 8.69465,7.90979 8.69403,7.91624 8.69341,7.92278 8.69277,7.9294 8.69212,7.93611 8.69146,7.94292 8.6908,7.94982 8.69012,7.95681 8.68943,7.96389 8.68874,7.97107 8.68803,7.97834 8.68731,7.98571 8.68658,7.99317 8.68585,8.00074 8.68509,8.00841 8.68433,8.01617 4.89807,4.2299 4.89883,4.22213 4.89958,4.21447 4.90031,4.2069 4.90104,4.19944 4.90176,4.19207 4.90247,4.1848 4.90317,4.17762 4.90385,4.17054 4.90453,4.16355 4.9052,4.15665 4.90585,4.14984 4.9065,4.14313 4.90714,4.1365 4.90776,4.12997 4.90838,4.12352 4.90899,4.11716 4.90959,4.11088 4.91018,4.10469 4.91076,4.09858 4.91133,4.09256 4.91189,4.08662 4.91244,4.08076 4.91299,4.07497 4.91352,4.06927 4.91405,4.06364 4.91457,4.05809 4.91508,4.05262 4.91558,4.04722 4.91607,4.0419 4.91656,4.03665 4.91704,4.03147 "/>
     <polygon id="_637657960" class="fil1" points="4.89807,4.2299 8.68433,8.01617 8.68373,8.02225 8.68318,8.02767 8.68266,8.0325 8.68219,8.03683 8.68174,8.04075 8.68133,8.04435 8.68093,8.04769 8.68055,8.05088 4.89428,4.26461 4.89466,4.26142 4.89506,4.25807 4.89548,4.25448 4.89592,4.25056 4.89639,4.24623 4.89691,4.2414 4.89746,4.23598 "/>
     <polygon id="_216467944" class="fil1" points="4.89305,4.33448 8.67931,8.12075 8.68073,8.12915 8.68215,8.13799 8.68348,8.14715 8.68462,8.15653 8.68548,8.166 8.68597,8.17546 8.686,8.1848 8.68548,8.19389 8.6843,8.20264 8.68238,8.21091 8.67963,8.21861 8.67594,8.22562 8.67124,8.23182 8.66543,8.2371 8.65841,8.24135 8.65009,8.24446 4.86382,4.45819 4.87214,4.45508 4.87916,4.45083 4.88498,4.44555 4.88968,4.43935 4.89336,4.43234 4.89611,4.42464 4.89803,4.41637 4.89921,4.40762 4.89973,4.39853 4.8997,4.38919 4.89921,4.37973 4.89835,4.37026 4.89721,4.36088 4.89588,4.35172 4.89446,4.34288 "/>
     <polygon id="_216467872" class="fil1" points="4.00972,3.632 7.79599,7.41827 7.79139,7.41997 7.78674,7.42169 7.78206,7.42341 7.77735,7.42513 7.7726,7.42685 7.76781,7.42856 7.76299,7.43026 7.75814,7.43195 7.75325,7.43363 7.74833,7.43528 7.74338,7.43691 7.7384,7.43851 7.73339,7.44007 7.72835,7.4416 7.72328,7.44309 7.71818,7.44454 7.71305,7.44593 7.70789,7.44728 7.7027,7.44857 7.6975,7.4498 7.69226,7.45096 7.687,7.45206 7.68171,7.45308 7.6764,7.45403 7.67107,7.4549 7.66571,7.45569 7.66033,7.45639 7.65493,7.457 7.64951,7.45752 7.64406,7.45793 7.6386,7.45824 7.63312,7.45845 3.84685,3.67218 3.85233,3.67197 3.8578,3.67166 3.86324,3.67124 3.86866,3.67073 3.87406,3.67012 3.87944,3.66942 3.8848,3.66863 3.89013,3.66776 3.89544,3.66681 3.90073,3.66578 3.90599,3.66469 3.91123,3.66352 3.91644,3.6623 3.92162,3.661 3.92678,3.65966 3.93191,3.65826 3.93701,3.65682 3.94208,3.65533 3.94712,3.6538 3.95213,3.65224 3.95711,3.65063 3.96207,3.64901 3.96698,3.64735 3.97187,3.64568 3.97672,3.64399 3.98154,3.64229 3.98633,3.64057 3.99108,3.63885 3.9958,3.63713 4.00048,3.63541 4.00512,3.6337 "/>
     <polygon id="_216467896" class="fil1" points="4.83403,4.45826 8.6203,8.24453 8.62059,8.24897 4.83432,4.4627 "/>
     <polygon id="_216467968" class="fil1" points="4.79837,4.54783 8.58463,8.3341 8.58038,8.33748 8.576,8.34093 8.57146,8.34442 8.56675,8.34794 8.56187,8.35144 8.55681,8.35491 8.55154,8.35832 8.54605,8.36164 8.54034,8.36483 8.53439,8.36789 8.52819,8.37078 8.52172,8.37346 8.51497,8.37592 8.50793,8.37813 8.50059,8.38006 8.49294,8.38167 4.70667,4.5954 4.71433,4.59378 4.72167,4.59185 4.7287,4.58965 4.73545,4.58719 4.74192,4.5845 4.74812,4.58162 4.75407,4.57856 4.75978,4.57537 4.76527,4.57205 4.77054,4.56864 4.77561,4.56517 4.78048,4.56167 4.78519,4.55815 4.78973,4.55465 4.79411,4.5512 "/>
     <polygon id="_216468016" class="fil1" points="4.70667,4.5954 8.49294,8.38167 8.48852,8.38244 8.48409,8.38312 8.47966,8.38369 8.47523,8.38417 8.47082,8.38455 8.46642,8.38483 8.46204,8.38502 8.45767,8.38512 8.45334,8.38513 8.44904,8.38506 8.44478,8.38489 8.44056,8.38463 8.43639,8.3843 8.43227,8.38387 8.4282,8.38337 8.4242,8.38278 4.63793,4.59651 4.64193,4.5971 4.646,4.5976 4.65012,4.59802 4.65429,4.59836 4.65851,4.59861 4.66278,4.59878 4.66707,4.59886 4.67141,4.59885 4.67577,4.59875 4.68015,4.59856 4.68455,4.59828 4.68896,4.59789 4.69339,4.59742 4.69782,4.59685 4.70225,4.59617 "/>
     <polygon id="_216468328" class="fil1" points="3.56247,3.65396 7.34874,7.44023 7.34015,7.43802 7.33168,7.43575 7.32332,7.43343 7.31507,7.43105 7.30694,7.42863 7.29891,7.42616 7.291,7.42365 7.28319,7.42109 7.27549,7.41851 7.2679,7.41589 7.26041,7.41324 7.25304,7.41057 7.24577,7.40787 7.2386,7.40515 7.23154,7.40242 7.22458,7.39968 7.21773,7.39693 7.21098,7.39417 7.20433,7.39141 7.19778,7.38865 7.19133,7.38589 7.18499,7.38314 7.17874,7.3804 7.17259,7.37767 7.16655,7.37497 7.1606,7.37228 7.15474,7.36961 7.14899,7.36698 7.14333,7.36437 7.13776,7.3618 7.13229,7.35926 7.12692,7.35677 3.34065,3.5705 3.34602,3.57299 3.3515,3.57553 3.35706,3.5781 3.36272,3.58071 3.36848,3.58334 3.37433,3.58601 3.38028,3.5887 3.38633,3.5914 3.39247,3.59413 3.39872,3.59687 3.40507,3.59962 3.41151,3.60237 3.41806,3.60513 3.42471,3.6079 3.43146,3.61065 3.43831,3.61341 3.44527,3.61615 3.45233,3.61888 3.4595,3.6216 3.46677,3.6243 3.47415,3.62697 3.48163,3.62961 3.48922,3.63224 3.49692,3.63482 3.50473,3.63737 3.51265,3.63989 3.52067,3.64235 3.52881,3.64478 3.53706,3.64715 3.54541,3.64948 3.55389,3.65175 "/>
     <polygon id="_216468352" class="fil1" points="3.34065,3.5705 7.12692,7.35677 7.11891,7.35305 7.11115,7.34946 7.10365,7.34602 7.09643,7.34273 7.08947,7.33963 7.08279,7.33671 7.0764,7.334 7.07031,7.3315 7.06452,7.32925 7.05903,7.32725 7.05385,7.32551 7.049,7.32406 7.04448,7.3229 7.04029,7.32205 7.03644,7.32153 7.03294,7.32135 3.24668,3.53508 3.25018,3.53526 3.25402,3.53578 3.25821,3.53663 3.26274,3.53778 3.26759,3.53924 3.27276,3.54098 3.27825,3.54298 3.28404,3.54523 3.29013,3.54772 3.29652,3.55044 3.3032,3.55335 3.31016,3.55646 3.31739,3.55974 3.32488,3.56319 3.33264,3.56678 "/>
     <polygon id="_216467848" class="fil1" points="3.24668,3.53508 7.03294,7.32135 7.03111,7.32164 7.02941,7.32251 7.02783,7.324 7.02639,7.32614 7.02506,7.32897 7.02386,7.33252 7.02278,7.33682 7.02182,7.34191 7.02098,7.34782 7.02026,7.35458 7.01965,7.36223 7.01916,7.3708 7.01878,7.38031 7.0185,7.39081 7.01835,7.40233 7.01829,7.41491 3.23202,3.62863 3.23208,3.61606 3.23224,3.60454 3.23251,3.59404 3.23289,3.58452 3.23338,3.57596 3.23399,3.56831 3.23471,3.56155 3.23556,3.55564 3.23651,3.55055 3.23759,3.54625 3.23879,3.5427 3.24012,3.53987 3.24157,3.53772 3.24314,3.53624 3.24485,3.53537 "/>
     <polygon id="_216468424" class="fil1" points="3.23202,3.62863 7.01829,7.41491 7.01823,7.41834 7.01805,7.42202 7.01775,7.42592 7.01734,7.43003 7.01683,7.43433 7.01622,7.43881 7.01552,7.44346 7.01472,7.44826 7.01385,7.4532 7.01289,7.45826 7.01187,7.46344 7.01078,7.4687 7.00962,7.47406 7.00841,7.47947 7.00715,7.48494 7.00584,7.49045 3.21957,3.70418 3.22088,3.69867 3.22214,3.6932 3.22335,3.68778 3.22451,3.68243 3.2256,3.67717 3.22663,3.67199 3.22758,3.66693 3.22845,3.66199 3.22925,3.65719 3.22995,3.65254 3.23056,3.64806 3.23107,3.64376 3.23148,3.63965 3.23178,3.63575 3.23196,3.63207 "/>
     <polygon id="_216468592" class="fil1" points="2.26068,2.81384 6.04695,6.60011 6.04025,6.59387 6.03326,6.58815 6.026,6.58299 6.01843,6.5784 6.01056,6.5744 2.22429,2.78813 2.23216,2.79213 2.23973,2.79672 2.247,2.80188 2.25398,2.80759 "/>
     <polygon id="_216469264" class="fil1" points="1.81617,2.49067 5.60243,6.27694 5.6023,6.27696 1.81603,2.49069 "/>
     <polygon id="_216469096" class="fil1" points="1.81603,2.49069 5.6023,6.27696 5.59788,6.2777 1.81161,2.49143 "/>
     <polygon id="_216469288" class="fil1" points="2.17525,3.00094 5.96152,6.78721 5.96005,6.7902 5.95817,6.79325 5.95592,6.79634 5.95332,6.79947 5.95039,6.80261 5.94715,6.80577 5.94363,6.80893 5.93985,6.81207 5.93583,6.81519 5.93161,6.81827 5.92719,6.8213 5.92261,6.82427 5.91789,6.82717 5.91304,6.82998 5.90811,6.8327 5.90309,6.83531 2.11683,3.04904 2.12184,3.04643 2.12678,3.04371 2.13162,3.0409 2.13634,3.038 2.14093,3.03503 2.14534,3.032 2.14957,3.02891 2.15358,3.0258 2.15736,3.02266 2.16088,3.0195 2.16412,3.01634 2.16705,3.0132 2.16965,3.01007 2.17191,3.00698 2.17378,3.00393 "/>
     <polygon id="_216469240" class="fil1" points="1.81161,2.49143 5.59788,6.2777 5.59128,6.27881 5.58434,6.27994 5.5771,6.28107 5.56963,6.28215 5.56196,6.28314 5.55417,6.284 5.5463,6.28471 5.53841,6.28521 5.53055,6.28548 5.52277,6.28546 5.51513,6.28513 5.50769,6.28444 5.50048,6.28337 5.49359,6.28186 5.48704,6.27988 5.48091,6.27739 1.69464,2.49112 1.70078,2.49361 1.70732,2.49559 1.71422,2.49709 1.72142,2.49817 1.72886,2.49886 1.7365,2.49919 1.74428,2.4992 1.75214,2.49894 1.76003,2.49844 1.7679,2.49773 1.7757,2.49687 1.78336,2.49587 1.79083,2.4948 1.79807,2.49367 1.80502,2.49254 "/>
     <polygon id="_216468928" class="fil1" points="2.04691,3.0729 5.83318,6.85917 5.83006,6.85932 5.82626,6.85933 5.82183,6.8592 5.81684,6.85896 5.81134,6.85859 5.80538,6.85811 5.79902,6.85752 5.7923,6.85683 5.78529,6.85606 5.77804,6.85519 5.7706,6.85425 5.76303,6.85324 5.75538,6.85216 5.74771,6.85102 5.74007,6.84983 5.73251,6.8486 1.94624,3.06233 1.9538,3.06356 1.96144,3.06475 1.96911,3.06589 1.97676,3.06697 1.98433,3.06798 1.99177,3.06892 1.99902,3.06979 2.00603,3.07056 2.01275,3.07125 2.01911,3.07183 2.02507,3.07231 2.03057,3.07269 2.03557,3.07293 2.03999,3.07306 2.04379,3.07305 "/>
     <polygon id="_216468760" class="fil1" points="1.94624,3.06233 5.73251,6.8486 5.72577,6.84744 5.7191,6.84622 5.71253,6.84494 5.70609,6.84361 5.69981,6.84224 5.69373,6.84081 5.68787,6.83935 5.68227,6.83783 5.67696,6.83629 5.67197,6.83471 5.66733,6.8331 5.66307,6.83146 5.65922,6.8298 5.65582,6.82812 5.65289,6.82641 5.65047,6.8247 1.8642,3.03843 1.86663,3.04014 1.86955,3.04185 1.87295,3.04353 1.8768,3.04519 1.88106,3.04683 1.8857,3.04844 1.89069,3.05002 1.896,3.05156 1.90161,3.05307 1.90746,3.05454 1.91354,3.05596 1.91982,3.05734 1.92626,3.05867 1.93283,3.05995 1.9395,3.06117 "/>
     <polygon id="_216469144" class="fil1" points="1.8642,3.03843 5.65047,6.8247 5.64573,6.82082 5.64145,6.81712 5.63759,6.81351 1.85132,3.02724 1.85518,3.03085 1.85946,3.03455 "/>
     <polygon id="_216469216" class="fil1" points="2.93032,3.97375 6.71659,7.76002 6.71551,7.76788 6.71448,7.77569 6.7135,7.78344 6.71256,7.79115 6.71166,7.7988 6.7108,7.80643 6.70998,7.814 6.70919,7.82155 6.70842,7.82906 6.70769,7.83655 6.70698,7.84401 6.7063,7.85145 6.70564,7.85887 6.70499,7.86628 6.70437,7.87369 6.70375,7.88107 6.70314,7.88846 6.70254,7.89585 6.70195,7.90324 6.70136,7.91063 6.70077,7.91804 6.70017,7.92546 6.69957,7.9329 6.69897,7.94035 6.69835,7.94783 6.69772,7.95534 6.69707,7.96288 6.69641,7.97045 6.69573,7.97806 6.69502,7.98571 6.69429,7.99341 6.69353,8.00115 2.90726,4.21487 2.90802,4.20713 2.90875,4.19944 2.90946,4.19179 2.91015,4.18418 2.91081,4.17661 2.91145,4.16907 2.91208,4.16156 2.9127,4.15408 2.91331,4.14663 2.91391,4.13919 2.9145,4.13177 2.91509,4.12436 2.91568,4.11697 2.91628,4.10958 2.91687,4.10219 2.91748,4.0948 2.9181,4.08741 2.91872,4.08001 2.91937,4.0726 2.92004,4.06518 2.92072,4.05774 2.92143,4.05028 2.92215,4.04279 2.92292,4.03528 2.92371,4.02773 2.92453,4.02015 2.92539,4.01253 2.92629,4.00487 2.92723,3.99717 2.92821,3.98941 2.92924,3.98161 "/>
     <polygon id="_216469312" class="fil1" points="2.90726,4.21487 6.69353,8.00115 6.69346,8.00185 6.69339,8.00256 6.69332,8.00331 6.69324,8.00413 6.69316,8.00508 6.69307,8.00618 6.69296,8.00748 6.69284,8.00902 2.90657,4.22274 2.90669,4.22121 2.9068,4.21991 2.90689,4.21881 2.90698,4.21786 2.90705,4.21704 2.90712,4.21629 2.90719,4.21558 "/>
     <polygon id="_216468832" class="fil1" points="2.90657,4.22274 6.69284,8.00902 6.69281,8.00998 6.6929,8.01043 2.90663,4.22415 2.90654,4.2237 "/>
     <polygon id="_216468976" class="fil1" points="2.8532,4.34202 6.63946,8.12829 6.63942,8.13157 6.63936,8.13486 6.63928,8.13814 6.63915,8.14143 6.63899,8.14471 6.63876,8.14799 6.63845,8.15127 6.63806,8.15455 6.63758,8.15782 6.63698,8.16108 6.63626,8.16434 6.63541,8.16759 6.63441,8.17084 6.63326,8.17407 6.63193,8.1773 6.63042,8.18052 2.84415,4.39424 2.84566,4.39103 2.84699,4.3878 2.84815,4.38457 2.84914,4.38132 2.85,4.37807 2.85071,4.37481 2.85131,4.37155 2.8518,4.36828 2.85219,4.365 2.85249,4.36172 2.85272,4.35844 2.85289,4.35516 2.85301,4.35187 2.85309,4.34859 2.85315,4.3453 "/>
     <polygon id="_216469600" class="fil1" points="2.84415,4.39424 6.63042,8.18052 6.62887,8.18349 6.62714,8.18663 6.62522,8.18991 6.62312,8.1933 6.62085,8.19679 6.61841,8.20037 6.61581,8.204 6.61306,8.20769 6.61015,8.21139 6.6071,8.2151 6.60392,8.21879 6.6006,8.22245 6.59716,8.22606 6.5936,8.22959 6.58993,8.23303 6.58615,8.23636 2.79989,4.45009 2.80367,4.44676 2.80733,4.44331 2.81089,4.43978 2.81433,4.43618 2.81765,4.43252 2.82083,4.42883 2.82388,4.42512 2.82679,4.42141 2.82954,4.41773 2.83214,4.41409 2.83458,4.41052 2.83685,4.40703 2.83895,4.40363 2.84087,4.40036 2.84261,4.39722 "/>
     <polygon id="_216469624" class="fil1" points="1.69464,2.49112 5.48091,6.27739 5.48052,6.2772 5.48013,6.27702 5.47974,6.27683 5.47936,6.27663 5.47898,6.27643 5.47861,6.27622 5.47823,6.27602 5.47786,6.27581 1.69159,2.48954 1.69196,2.48975 1.69234,2.48995 1.69271,2.49016 1.69309,2.49036 1.69347,2.49056 1.69386,2.49075 1.69425,2.49093 "/>
     <polygon id="_216469864" class="fil1" points="2.71222,3.63221 6.49849,7.41848 6.49572,7.41792 6.4924,7.41647 6.48857,7.41418 6.48425,7.41107 6.47945,7.40717 6.47421,7.40251 2.68794,3.61624 2.69319,3.6209 2.69798,3.6248 2.7023,3.62791 2.70613,3.6302 2.70945,3.63165 "/>
     <polygon id="_216469648" class="fil1" points="2.11683,3.04904 5.90309,6.83531 5.89858,6.83756 5.89398,6.83975 5.88933,6.84188 5.88465,6.84394 5.87994,6.84592 5.87524,6.8478 5.87057,6.84958 5.86595,6.85125 5.86139,6.85279 5.85693,6.85419 5.85257,6.85545 5.84834,6.85655 5.84427,6.85748 5.84037,6.85824 5.83667,6.85881 5.83318,6.85917 2.04691,3.0729 2.0504,3.07254 2.0541,3.07196 2.058,3.07121 2.06207,3.07028 2.0663,3.06918 2.07066,3.06792 2.07513,3.06652 2.07968,3.06498 2.0843,3.06331 2.08898,3.06153 2.09367,3.05965 2.09838,3.05767 2.10307,3.05561 2.10772,3.05348 2.11231,3.05129 "/>
     <polygon id="_216469408" class="fil1" points="2.90776,4.22424 6.69403,8.01051 6.69439,8.01094 6.69476,8.01189 2.90849,4.22561 2.90813,4.22467 "/>
     <polygon id="_216469720" class="fil1" points="2.91033,4.22597 6.6966,8.01224 6.69803,8.01433 6.69906,8.01793 6.69974,8.02281 6.70009,8.02874 6.70015,8.0355 6.69994,8.04285 6.69951,8.05056 6.69888,8.05841 6.69808,8.06616 6.69715,8.07359 6.69611,8.08048 6.69501,8.08658 6.69387,8.09168 6.69272,8.09554 6.6916,8.09793 2.90533,4.31166 2.90646,4.30926 2.9076,4.30541 2.90874,4.30031 2.90985,4.2942 2.91088,4.28732 2.91181,4.27989 2.91261,4.27213 2.91324,4.26428 2.91368,4.25657 2.91388,4.24922 2.91382,4.24247 2.91347,4.23654 2.9128,4.23166 2.91176,4.22806 "/>
     <polygon id="_216469768" class="fil1" points="3.15084,4.44462 6.93711,8.23089 6.93551,8.2339 6.93371,8.23713 6.9317,8.24058 6.9295,8.24421 6.92709,8.248 6.9245,8.25192 6.92173,8.25595 6.91878,8.26007 6.91566,8.26425 6.91237,8.26847 6.90892,8.2727 6.9053,8.27692 6.90154,8.2811 6.89763,8.28522 6.89358,8.28926 6.8894,8.29319 3.10313,4.50692 3.10731,4.50299 3.11137,4.49895 3.11528,4.49483 3.11904,4.49065 3.12265,4.48643 3.1261,4.4822 3.12939,4.47798 3.13252,4.4738 3.13546,4.46968 3.13824,4.46565 3.14083,4.46172 3.14323,4.45794 3.14543,4.45431 3.14744,4.45086 3.14924,4.44763 "/>
     <polygon id="_216469816" class="fil1" points="2.90533,4.31166 6.6916,8.09793 6.68837,8.10231 6.68513,8.10617 6.68189,8.10952 6.67863,8.11242 6.67535,8.11487 6.67207,8.11692 6.66878,8.11858 6.66548,8.1199 6.66216,8.1209 6.65883,8.12161 6.6555,8.12207 6.65215,8.12229 6.64878,8.12231 6.64541,8.12217 6.64203,8.12188 6.63863,8.12148 2.85236,4.33521 2.85576,4.33561 2.85915,4.33589 2.86252,4.33604 2.86588,4.33602 2.86923,4.3358 2.87257,4.33534 2.87589,4.33463 2.87921,4.33363 2.88251,4.33231 2.88581,4.33065 2.88909,4.3286 2.89236,4.32615 2.89562,4.32325 2.89887,4.31989 2.90211,4.31604 "/>
     <polygon id="_216469528" class="fil1" points="2.85236,4.33521 6.63863,8.12148 6.63881,8.1222 6.63897,8.12296 6.63911,8.12375 6.63924,8.12458 6.63934,8.12545 6.63942,8.12635 6.63946,8.1273 6.63946,8.12829 2.8532,4.34202 2.85319,4.34103 2.85315,4.34008 2.85307,4.33918 2.85297,4.33831 2.85285,4.33748 2.8527,4.33669 2.85254,4.33593 "/>
     <polygon id="_216469960" class="fil1" points="3.10313,4.50692 6.8894,8.29319 6.88611,8.29611 6.88273,8.29896 6.87927,8.30172 6.87572,8.3044 6.8721,8.30698 6.86839,8.30945 6.8646,8.31181 6.86074,8.31405 6.85679,8.31615 6.85277,8.31811 6.84867,8.31993 6.8445,8.32159 6.84025,8.32309 6.83593,8.32441 6.83153,8.32555 6.82706,8.3265 3.0408,4.54023 3.04526,4.53928 3.04966,4.53814 3.05398,4.53681 3.05823,4.53532 3.06241,4.53366 3.0665,4.53184 3.07052,4.52988 3.07447,4.52778 3.07833,4.52554 3.08212,4.52318 3.08583,4.52071 3.08946,4.51813 3.093,4.51545 3.09646,4.51269 3.09984,4.50984 "/>
     <polygon id="_216470848" class="fil1" points="3.0408,4.54023 6.82706,8.3265 6.82233,8.32734 6.81744,8.32808 6.81242,8.32874 6.80727,8.3293 6.80203,8.32976 6.7967,8.33013 6.7913,8.33041 6.78586,8.33058 6.78037,8.33066 6.77488,8.33064 6.76938,8.33052 6.7639,8.3303 6.75845,8.32998 6.75306,8.32956 6.74772,8.32903 6.74248,8.3284 2.95621,4.54213 2.96146,4.54276 2.96679,4.54329 2.97218,4.54371 2.97763,4.54403 2.98311,4.54425 2.98861,4.54437 2.99411,4.54439 2.99959,4.54431 3.00504,4.54413 3.01043,4.54386 3.01576,4.54349 3.021,4.54302 3.02615,4.54246 3.03117,4.54181 3.03606,4.54107 "/>
     <polygon id="_216470224" class="fil1" points="2.95621,4.54213 6.74248,8.3284 6.73712,8.32763 6.73183,8.32672 6.72663,8.32569 6.72152,8.32452 6.71652,8.32322 6.71164,8.32178 6.70689,8.32021 6.70229,8.3185 6.69785,8.31664 6.69358,8.31465 6.6895,8.31251 6.68561,8.31023 6.68193,8.3078 6.67848,8.30522 6.67526,8.3025 2.88899,4.51622 2.89221,4.51895 2.89567,4.52153 2.89934,4.52396 2.90323,4.52624 2.90731,4.52838 2.91158,4.53037 2.91602,4.53222 2.92063,4.53394 2.92537,4.53551 2.93025,4.53695 2.93525,4.53825 2.94036,4.53942 2.94557,4.54045 2.95085,4.54136 "/>
     <polygon id="_216470320" class="fil1" points="2.79989,4.45009 6.58615,8.23636 6.58297,8.239 6.57971,8.24157 6.57637,8.24406 6.57295,8.24646 6.56946,8.24875 6.56591,8.25094 6.56227,8.25301 6.55857,8.25496 6.5548,8.25678 6.55097,8.25846 6.54707,8.26 6.54311,8.26138 6.53908,8.2626 6.535,8.26365 6.53086,8.26452 6.52667,8.26521 2.7404,4.47894 2.74459,4.47825 2.74873,4.47738 2.75281,4.47633 2.75684,4.47511 2.7608,4.47373 2.7647,4.47219 2.76854,4.47051 2.7723,4.46869 2.776,4.46674 2.77964,4.46467 2.7832,4.46248 2.78669,4.46019 2.7901,4.45779 2.79344,4.4553 2.7967,4.45273 "/>
     <polygon id="_216470584" class="fil1" points="2.7404,4.47894 6.52667,8.26521 6.5225,8.26577 6.51818,8.2663 6.51373,8.2668 6.50917,8.26726 6.5045,8.26769 6.49975,8.26806 6.49492,8.26839 6.49002,8.26865 6.48509,8.26886 6.48011,8.269 6.47513,8.26908 6.47013,8.26908 6.46514,8.269 6.46018,8.26885 6.45526,8.2686 6.45038,8.26826 2.66411,4.48199 2.66899,4.48233 2.67391,4.48257 2.67887,4.48273 2.68386,4.48281 2.68886,4.48281 2.69385,4.48273 2.69882,4.48259 2.70376,4.48238 2.70865,4.48211 2.71348,4.48179 2.71824,4.48141 2.7229,4.48099 2.72746,4.48053 2.73191,4.48003 2.73623,4.4795 "/>
     <polygon id="_216470776" class="fil1" points="2.66411,4.48199 6.45038,8.26826 6.4461,8.26788 6.44185,8.26741 6.43764,8.26686 6.43346,8.26622 6.42934,8.26549 6.42527,8.26467 6.42127,8.26374 6.41733,8.26272 6.41346,8.26159 6.40967,8.26036 6.40597,8.25902 6.40236,8.25757 6.39885,8.256 6.39544,8.25431 6.39215,8.25251 6.38897,8.25058 2.6027,4.46431 2.60588,4.46624 2.60918,4.46804 2.61258,4.46973 2.61609,4.4713 2.6197,4.47275 2.6234,4.47409 2.62719,4.47532 2.63106,4.47645 2.635,4.47747 2.639,4.47839 2.64307,4.47922 2.6472,4.47995 2.65137,4.48059 2.65558,4.48114 2.65983,4.48161 "/>
     <polygon id="_216470344" class="fil1" points="2.6027,4.46431 6.38897,8.25058 6.38394,8.2472 6.37925,8.24374 6.37493,8.2402 2.58866,4.45393 2.59298,4.45747 2.59767,4.46093 "/>
     <polygon id="_216470440" class="fil1" points="2.20743,2.8027 5.9937,6.58898 5.99224,6.59225 5.99085,6.59566 5.9895,6.59919 5.98821,6.60283 5.98697,6.60659 5.98579,6.61044 5.98465,6.61439 5.98356,6.61843 5.98252,6.62254 5.98152,6.62673 5.98057,6.63098 5.97967,6.6353 5.9788,6.63966 5.97798,6.64406 5.97719,6.6485 5.97644,6.65298 5.97574,6.65747 5.97507,6.66198 5.97443,6.66649 5.97383,6.67101 5.97325,6.67552 5.97271,6.68001 5.9722,6.68448 5.97172,6.68893 5.97127,6.69334 5.97084,6.6977 5.97044,6.70202 5.97006,6.70628 5.9697,6.71047 5.96937,6.71459 5.96905,6.71864 5.96875,6.72259 2.18248,2.93632 2.18278,2.93237 2.1831,2.92832 2.18343,2.9242 2.18379,2.92001 2.18417,2.91575 2.18457,2.91143 2.185,2.90707 2.18545,2.90266 2.18594,2.89821 2.18644,2.89374 2.18698,2.88924 2.18756,2.88474 2.18816,2.88022 2.1888,2.8757 2.18947,2.8712 2.19018,2.8667 2.19093,2.86223 2.19171,2.85779 2.19253,2.85339 2.1934,2.84902 2.19431,2.84471 2.19526,2.84046 2.19625,2.83627 2.19729,2.83216 2.19838,2.82812 2.19952,2.82417 2.2007,2.82031 2.20194,2.81656 2.20323,2.81292 2.20458,2.80939 2.20598,2.80598 "/>
     <polygon id="_216470464" class="fil1" points="2.22429,2.78813 6.01056,6.5744 6.00824,6.57376 6.00599,6.57396 6.00379,6.57493 6.00164,6.5766 5.99956,6.57891 5.99754,6.58179 5.99558,6.58517 5.9937,6.58898 2.20743,2.8027 2.20931,2.79889 2.21127,2.79552 2.21329,2.79264 2.21537,2.79033 2.21752,2.78866 2.21972,2.78769 2.22198,2.78749 "/>
     <polygon id="_216470728" class="fil1" points="3.21957,3.70418 7.00584,7.49045 7.00381,7.49875 7.0017,7.50707 6.99954,7.51539 6.99733,7.52362 6.99511,7.53172 6.9929,7.53963 6.9907,7.54728 6.98856,7.55464 6.98648,7.56163 6.98448,7.56821 6.9826,7.57431 6.98084,7.57988 6.97923,7.58486 6.97779,7.5892 6.97654,7.59283 6.9755,7.59571 3.18923,3.80944 3.19027,3.80656 3.19152,3.80293 3.19296,3.79859 3.19457,3.79361 3.19633,3.78804 3.19822,3.78194 3.20021,3.77536 3.20229,3.76837 3.20444,3.76101 3.20663,3.75335 3.20885,3.74544 3.21107,3.73735 3.21327,3.72911 3.21544,3.7208 3.21754,3.71248 "/>
     <polygon id="_216470824" class="fil1" points="3.18923,3.80944 6.9755,7.59571 6.97487,7.59748 6.97417,7.59965 6.97341,7.60221 6.97259,7.60513 6.97174,7.6084 6.97085,7.61199 6.96994,7.61591 6.96902,7.62011 6.96809,7.62459 6.96717,7.62933 6.96627,7.63432 6.9654,7.63954 6.96457,7.64496 6.96378,7.65057 6.96306,7.65636 6.9624,7.6623 3.17613,3.87603 3.17679,3.87009 3.17752,3.8643 3.1783,3.85869 3.17913,3.85326 3.18,3.84805 3.18091,3.84306 3.18182,3.83832 3.18275,3.83384 3.18367,3.82963 3.18458,3.82572 3.18547,3.82213 3.18633,3.81886 3.18714,3.81594 3.1879,3.81338 3.1886,3.81121 "/>
     <polygon id="_216470536" class="fil1" points="2.94281,3.64545 6.72908,7.43172 6.7292,7.4332 6.72931,7.43467 6.72943,7.43613 6.72955,7.43758 6.72967,7.43903 6.72978,7.44046 6.7299,7.44189 6.73001,7.44331 2.94374,3.65704 2.94363,3.65562 2.94352,3.65419 2.9434,3.65276 2.94328,3.65131 2.94317,3.64986 2.94305,3.6484 2.94293,3.64693 "/>
     <polygon id="_216470992" class="fil1" points="2.18248,2.93632 5.96875,6.72259 5.96851,6.72592 5.96828,6.72918 5.96807,6.73235 5.96786,6.73544 5.96767,6.73845 5.96748,6.74137 5.9673,6.74418 5.96713,6.7469 2.18086,2.96063 2.18103,2.95791 2.18121,2.95509 2.1814,2.95218 2.18159,2.94917 2.1818,2.94608 2.18202,2.94291 2.18224,2.93965 "/>
     <polygon id="_216471592" class="fil1" points="1.69159,2.48954 5.47786,6.27581 5.47648,6.27507 5.47504,6.27426 5.47355,6.27341 5.47201,6.2725 5.47042,6.27153 5.46879,6.27051 5.4671,6.26944 5.46538,6.26832 1.67911,2.48205 1.68083,2.48317 1.68252,2.48424 1.68415,2.48526 1.68574,2.48623 1.68728,2.48714 1.68877,2.48799 1.69021,2.4888 "/>
     <polygon id="_216471232" class="fil1" points="1.67911,2.48205 5.46538,6.26832 5.46108,6.26542 5.45648,6.26216 5.45163,6.25858 5.44654,6.25469 5.44125,6.25051 5.4358,6.24606 5.43022,6.24138 5.42454,6.23646 5.4188,6.23135 5.41301,6.22606 5.40723,6.22061 1.62096,2.43434 1.62674,2.43979 1.63253,2.44508 1.63827,2.45019 1.64395,2.45511 1.64954,2.45979 1.65498,2.46424 1.66027,2.46841 1.66536,2.47231 1.67021,2.47589 1.67481,2.47915 "/>
     <polygon id="_216470968" class="fil1" points="3.20559,4.29503 6.99186,8.0813 6.99278,8.0876 6.9935,8.0938 6.99401,8.09987 6.9943,8.10579 6.99434,8.11154 6.99413,8.1171 6.99365,8.12245 6.99289,8.12757 6.99184,8.13244 6.99049,8.13704 6.98881,8.14135 6.9868,8.14534 6.98444,8.149 6.98172,8.15231 6.97863,8.15524 6.97515,8.15779 3.18889,4.37152 3.19237,4.36897 3.19546,4.36604 3.19817,4.36273 3.20053,4.35907 3.20254,4.35507 3.20422,4.35077 3.20557,4.34617 3.20663,4.3413 3.20738,4.33618 3.20786,4.33083 3.20807,4.32527 3.20803,4.31952 3.20774,4.3136 3.20724,4.30753 3.20651,4.30133 "/>
     <polygon id="_216471016" class="fil1" points="3.18889,4.37152 6.97515,8.15779 6.97266,8.15924 6.9701,8.16049 6.96749,8.16153 6.96484,8.16237 6.96216,8.16301 6.95946,8.16345 6.95675,8.16369 6.95404,8.16374 3.16777,4.37747 3.17048,4.37742 3.17319,4.37718 3.17589,4.37674 3.17857,4.3761 3.18122,4.37526 3.18383,4.37422 3.18639,4.37297 "/>
     <polygon id="_216470920" class="fil1" points="3.16777,4.37747 6.95404,8.16374 6.95436,8.16628 6.95459,8.16898 6.9547,8.17187 6.95469,8.17496 6.95452,8.17824 6.95417,8.18175 6.95364,8.18548 6.95289,8.18944 6.95193,8.19365 6.9507,8.19812 6.94922,8.20285 6.94744,8.20786 6.94537,8.21316 6.94296,8.21876 6.94022,8.22467 6.93711,8.23089 3.15084,4.44462 3.15395,4.43839 3.15669,4.43248 3.1591,4.42689 3.16118,4.42159 3.16295,4.41658 3.16444,4.41185 3.16566,4.40738 3.16663,4.40317 3.16737,4.3992 3.16791,4.39548 3.16825,4.39197 3.16842,4.38869 3.16844,4.3856 3.16832,4.38271 3.16809,4.38 "/>
     <polygon id="_216471064" class="fil1" points="2.18086,2.96063 5.96713,6.7469 5.96669,6.75374 5.96625,6.76004 5.96577,6.7658 5.96522,6.77104 5.96455,6.77579 5.96374,6.78006 5.96274,6.78386 5.96152,6.78721 2.17525,3.00094 2.17647,2.99759 2.17747,2.99378 2.17828,2.98952 2.17895,2.98477 2.1795,2.97952 2.17998,2.97376 2.18042,2.96747 "/>
     <polygon id="_216471112" class="fil1" points="2.94374,3.65704 6.73001,7.44331 6.73121,7.45855 6.7323,7.47284 6.73329,7.48624 6.73416,7.4988 6.73493,7.5106 6.73559,7.5217 6.73614,7.53214 6.73658,7.542 6.73692,7.55133 6.73715,7.5602 6.73728,7.56866 6.73731,7.57678 6.73723,7.58461 6.73704,7.59222 6.73676,7.59967 6.73637,7.60701 6.73587,7.61431 6.73528,7.62163 6.73459,7.62904 6.7338,7.63657 6.7329,7.64431 6.73191,7.65232 6.73081,7.66064 6.72962,7.66935 6.72833,7.6785 6.72694,7.68815 6.72546,7.69837 6.72387,7.7092 6.7222,7.72073 6.72042,7.733 6.71856,7.74607 6.71659,7.76002 2.93032,3.97375 2.93229,3.9598 2.93415,3.94673 2.93593,3.93446 2.93761,3.92293 2.93919,3.91209 2.94067,3.90188 2.94206,3.89222 2.94335,3.88307 2.94454,3.87437 2.94564,3.86605 2.94663,3.85804 2.94753,3.8503 2.94832,3.84276 2.94902,3.83536 2.94961,3.82804 2.9501,3.82074 2.95049,3.81339 2.95078,3.80594 2.95096,3.79834 2.95104,3.7905 2.95102,3.78239 2.95089,3.77393 2.95065,3.76506 2.95031,3.75573 2.94987,3.74587 2.94932,3.73543 2.94866,3.72433 2.94789,3.71253 2.94702,3.69996 2.94604,3.68657 2.94494,3.67228 "/>
     <polygon id="_216471280" class="fil1" points="3.18469,4.2029 6.97096,7.98917 6.97172,7.99159 6.97265,7.99479 6.97373,7.99869 6.97494,8.00322 6.97627,8.00831 6.97767,8.01389 6.97915,8.01991 6.98066,8.02626 6.9822,8.0329 6.98375,8.03975 6.98527,8.04674 6.98675,8.0538 6.98817,8.06085 6.98951,8.06783 6.99075,8.07467 6.99186,8.0813 3.20559,4.29503 3.20448,4.2884 3.20324,4.28156 3.20191,4.27458 3.20048,4.26753 3.199,4.26047 3.19748,4.25348 3.19594,4.24663 3.19439,4.23999 3.19288,4.23363 3.19141,4.22762 3.19,4.22204 3.18868,4.21694 3.18746,4.21241 3.18638,4.20852 3.18545,4.20532 "/>
     <polygon id="_216471376" class="fil1" points="3.18215,4.09859 6.96842,7.88487 6.96852,7.89467 6.96863,7.90429 6.96874,7.91368 6.96885,7.92278 6.96897,7.93153 6.96909,7.93988 6.96922,7.94777 6.96937,7.95515 6.96952,7.96197 6.96967,7.96816 6.96985,7.97368 6.97004,7.97846 6.97024,7.98246 6.97046,7.98561 6.9707,7.98787 6.97096,7.98917 3.18469,4.2029 3.18443,4.2016 3.18419,4.19934 3.18397,4.19619 3.18377,4.19219 3.18358,4.18741 3.18341,4.18189 3.18325,4.1757 3.1831,4.16888 3.18296,4.1615 3.18283,4.15361 3.1827,4.14526 3.18259,4.1365 3.18248,4.12741 3.18237,4.11802 3.18226,4.1084 "/>
     <polygon id="_216471976" class="fil1" points="3.17613,3.87603 6.9624,7.6623 6.96203,7.66606 6.9617,7.66985 6.96141,7.67368 6.96115,7.67752 6.96095,7.68138 6.9608,7.68525 6.96069,7.68913 6.96064,7.69301 6.96064,7.69688 6.96071,7.70075 6.96083,7.7046 6.96102,7.70843 6.96128,7.71224 6.9616,7.71601 6.962,7.71975 6.96248,7.72344 3.17621,3.93717 3.17574,3.93348 3.17533,3.92974 3.17501,3.92596 3.17475,3.92216 3.17456,3.91833 3.17444,3.91448 3.17437,3.91061 3.17437,3.90674 3.17442,3.90286 3.17453,3.89898 3.17469,3.89511 3.17489,3.89125 3.17514,3.88741 3.17543,3.88358 3.17576,3.87979 "/>
     <polygon id="_216472216" class="fil1" points="3.17621,3.93717 6.96248,7.72344 6.96289,7.72659 6.96328,7.72993 6.96365,7.73346 6.964,7.73719 6.96433,7.74108 6.96465,7.74515 6.96494,7.74937 6.96522,7.75375 6.96548,7.75828 6.96573,7.76294 6.96596,7.76773 6.96617,7.77265 6.96637,7.77768 6.96656,7.78281 6.96673,7.78806 6.96689,7.79339 6.96705,7.7988 6.96719,7.80429 6.96732,7.80985 6.96744,7.81547 6.96755,7.82114 6.96766,7.82686 6.96776,7.83262 6.96785,7.83841 6.96793,7.84421 6.96801,7.85004 6.96809,7.85587 6.96816,7.8617 6.96822,7.86752 6.96829,7.87333 6.96835,7.87911 6.96842,7.88487 3.18215,4.09859 3.18209,4.09284 3.18202,4.08706 3.18196,4.08125 3.18189,4.07543 3.18182,4.0696 3.18174,4.06377 3.18166,4.05794 3.18158,4.05213 3.18149,4.04635 3.18139,4.04059 3.18128,4.03487 3.18117,4.0292 3.18105,4.02357 3.18092,4.01802 3.18078,4.01253 3.18063,4.00711 3.18046,4.00178 3.18029,3.99654 3.1801,3.99141 3.1799,3.98637 3.17969,3.98146 3.17946,3.97667 3.17921,3.972 3.17895,3.96748 3.17868,3.9631 3.17838,3.95887 3.17807,3.95481 3.17774,3.95091 3.17739,3.94719 3.17702,3.94366 3.17662,3.94031 "/>
     <polygon id="_216471832" class="fil1" points="4.83432,4.4627 8.62059,8.24897 8.62084,8.25428 8.62105,8.25956 8.62117,8.2648 8.62117,8.27 8.62099,8.27515 8.62061,8.28023 8.61997,8.28524 8.61903,8.29016 8.61776,8.29498 8.6161,8.29971 8.61402,8.30432 8.61148,8.30881 8.60843,8.31317 8.60483,8.31738 8.60063,8.32144 8.59581,8.32534 4.80954,4.53907 4.81437,4.53517 4.81856,4.53111 4.82216,4.52689 4.82521,4.52254 4.82776,4.51805 4.82983,4.51344 4.83149,4.50871 4.83276,4.50389 4.8337,4.49896 4.83434,4.49396 4.83472,4.48888 4.8349,4.48373 4.8349,4.47853 4.83478,4.47329 4.83457,4.46801 "/>
     <polygon id="_216472312" class="fil1" points="4.80954,4.53907 8.59581,8.32534 8.59483,8.32607 8.59369,8.32695 8.59241,8.32794 8.59102,8.32904 8.58952,8.33021 8.58795,8.33146 8.58631,8.33276 8.58463,8.3341 4.79837,4.54783 4.80004,4.54649 4.80168,4.54519 4.80326,4.54394 4.80475,4.54276 4.80614,4.54167 4.80742,4.54068 4.80856,4.5398 "/>
     <polygon id="_216472240" class="fil1" points="4.86382,4.45819 8.65009,8.24446 8.64574,8.24551 8.64161,8.2462 8.63768,8.24657 8.63393,8.24665 8.63032,8.24644 8.62687,8.24601 8.62353,8.24536 8.6203,8.24453 4.83403,4.45826 4.83726,4.45909 4.8406,4.45974 4.84406,4.46017 4.84766,4.46037 4.85141,4.4603 4.85535,4.45993 4.85948,4.45924 "/>
     <polygon id="_216471856" class="fil1" points="5.1022,2.54163 8.88847,6.32791 8.89724,6.3384 8.90576,6.34903 8.914,6.3598 8.922,6.37069 8.92974,6.3817 8.93723,6.39283 8.94447,6.40409 8.95146,6.41546 8.95822,6.42694 8.96474,6.43854 8.97102,6.45024 8.97706,6.46204 8.98289,6.47395 8.98848,6.48596 8.99385,6.49806 8.999,6.51026 9.00394,6.52255 9.00866,6.53492 5.22239,2.74865 5.21767,2.73628 5.21273,2.72399 5.20758,2.71179 5.20221,2.69969 5.19662,2.68768 5.1908,2.67577 5.18475,2.66396 5.17847,2.65226 5.17195,2.64067 5.1652,2.62919 5.1582,2.61781 5.15096,2.60656 5.14347,2.59543 5.13573,2.58441 5.12774,2.57352 5.11949,2.56276 5.11098,2.55213 "/>
     <polygon id="_216472096" class="fil1" points="5.22239,2.74865 9.00866,6.53492 9.01316,6.54735 9.01745,6.55985 9.02153,6.57242 9.02541,6.58507 9.0291,6.59778 9.03258,6.61056 9.03588,6.6234 9.03898,6.6363 9.0419,6.64926 9.04464,6.66228 9.04719,6.67534 9.04957,6.68845 9.05178,6.70161 9.05381,6.71481 9.05568,6.72805 9.05739,6.74133 9.05893,6.75464 9.06031,6.76798 9.06155,6.78135 9.06263,6.79475 9.06357,6.80817 9.06435,6.82161 9.065,6.83506 9.06552,6.84853 9.06589,6.86202 9.06614,6.8755 9.06625,6.889 9.06624,6.9025 9.06611,6.916 9.06587,6.9295 9.0655,6.94299 9.06502,6.95647 5.27876,3.1702 5.27923,3.15672 5.2796,3.14323 5.27985,3.12973 5.27998,3.11623 5.27998,3.10273 5.27987,3.08923 5.27962,3.07574 5.27925,3.06226 5.27874,3.04879 5.27809,3.03533 5.2773,3.02189 5.27636,3.00848 5.27528,2.99508 5.27405,2.98171 5.27266,2.96837 5.27112,2.95506 5.26941,2.94178 5.26754,2.92854 5.26551,2.91533 5.2633,2.90218 5.26093,2.88907 5.25837,2.876 5.25563,2.86299 5.25272,2.85003 5.24961,2.83713 5.24631,2.82429 5.24283,2.81151 5.23915,2.7988 5.23526,2.78615 5.23118,2.77357 5.22689,2.76107 "/>
    </g>
    <path id="_637655560" class="fil1" d="M5.06422 2.72778c0.000984252,0.00209055 0.00165354,0.0121457 0,0zm0.214531 0.442417c-0.00268898,0.0682913 -0.00276378,0.706012 -0.0634449,0.703634 -0.0210787,-0.000826772 -0.0137992,-0.16078 -0.0129724,-0.181854l8.26772e-005 -0.524772c0.00531496,-0.134843 -0.00522047,-0.226941 -0.0503268,-0.34826 -0.0288622,-0.0590157 -0.0496457,-0.074252 -0.0839843,-0.0945669l-0.0046811 -0.00275591c0.000311024,0.0025 0.000574803,0.00452756 0.000795276,0.00615748 -0.000594488,-0.00126378 -0.00129921,0.000377953 -0.00167717,0.0115866 -0.00187008,0.0554488 -0.0105591,0.108539 -0.0234173,0.151941 -0.00501969,0.016937 -0.0204685,0.0836575 -0.0359803,0.157988 -0.00416929,0.0199646 -0.00833858,0.0404803 -0.012315,0.0607283 -0.012189,0.062063 -0.0223465,0.120654 -0.0243858,0.150823 -0.0127323,0.187705 -0.0190591,0.299126 -0.0230866,0.377799 -0.00145669,0.0285039 -0.00261417,0.0527047 -0.00366535,0.0746811 -0.00450787,0.0942756 -0.00708268,0.148189 -0.0221929,0.313031 -0.00495669,0.0541102 -0.0112677,0.120169 -0.019437,0.203535 -0.0016811,0.0171929 -0.00277953,0.0263425 -0.0037874,0.0347126 -0.0030748,0.0255669 -0.00538976,0.0447992 -0.00292126,0.0601142l0.00168898 0.00975591c0.00738976,0.0434291 0.0187795,0.110382 -0.0292283,0.123709 -0.011878,0.00330315 -0.0212953,0.00249606 -0.0297874,7.08661e-005l0.000287402 0.00444094c0.00138189,0.0283465 0.00273228,0.0560236 -0.0247795,0.0763661 -0.00238976,0.00176772 -0.00666142,0.00516535 -0.0111732,0.00875984 -0.0223228,0.0177717 -0.0499961,0.0398031 -0.0916969,0.0475748 -0.0235669,0.00438583 -0.0475551,0.00444488 -0.0687402,0.00111024 -0.0243819,-0.00384252 -0.0461299,-0.0124606 -0.0611496,-0.0246181 -0.0142913,-0.0115709 -0.0238268,-0.0243819 -0.0276732,-0.0385945 0.00269291,-0.00042126 0.00525984,-0.00175984 0.0071811,-0.00398031 0.0104646,-0.0121024 0.0202795,-0.0253071 0.0294606,-0.0394606 -0.0169685,-0.000586614 -0.0643346,-0.00969685 -0.0800512,-0.0115591 -0.0225276,-0.0026811 -0.0448819,-0.00818504 -0.0607362,-0.0181102 -0.0164252,-0.0102874 -0.0320787,-0.0222441 -0.0416614,-0.0371535l-3.93701e-005 -6.69291e-005 -0.000114173 6.69291e-005c-0.0158937,-0.024748 -0.0163976,-0.0503031 0.0113425,-0.0756732 0.0173307,-0.0158543 0.0445276,-0.0485236 0.066874,-0.0753701 0.0577992,-0.0694252 0.0970669,-0.134571 0.101441,-0.231024 0.00258268,-0.0566024 -0.0039252,-0.104799 -0.00957087,-0.146598 -0.00455906,-0.033811 -0.00861024,-0.0637953 -0.00762992,-0.0928858 0.000519685,-0.0154488 -0.00388189,-0.0441299 -0.00733071,-0.0666181l-0.00140551 -0.00924803 -0.000629921 0.000338583 -0.00111417 0.000940945c-0.00125197,0.00154331 0.00305512,-0.000370079 0.00172441,0.00289764l-5.11811e-005 0.000129921 5.11811e-005 1.9685e-005c-0.00765354,0.0188031 -0.0169213,0.0415472 -0.040374,0.0541339 -0.0230906,0.0123898 -0.0438661,0.0128346 -0.0627677,0.000751969 -0.0153819,-0.00982677 -0.0243898,-0.0262677 -0.0272677,-0.0497087 -0.00133465,-0.0108858 -0.000129921,-0.0226614 0.00116142,-0.0353583 0.00138583,-0.0136417 0.00334646,-0.029189 0.00317717,-0.0293268 -0.0056063,-0.0043937 -0.0107402,-0.009 -0.0153858,-0.0132638 -0.000909449,0.00338583 -0.00174409,0.00719291 -0.00254724,0.0110394l-0.000291339 0.00126772 -0.000610236 0.00298819 -0.000295276 0.00131102c-0.00706299,0.0348583 -0.0157244,0.0738346 -0.0706181,0.0704409 -0.0226496,-0.0013937 -0.0397992,-0.00829921 -0.0527677,-0.0240512 -0.0111339,-0.0135157 -0.0160039,-0.0307874 -0.0154055,-0.0541654 0.000244094,-0.00974803 0.00117717,-0.0193189 0.00208661,-0.0287008 0.00138189,-0.0142362 0.00270866,-0.0278583 0.00235039,-0.0284685l-0.000102362 -0.000173228 -5.51181e-005 2.75591e-005 -0.00261417 -0.00445276c-0.0091063,-0.0155551 -0.0296772,-0.050689 -0.0458031,-0.0757756 -0.0723819,0.0396417 -0.149492,0.0803701 -0.166236,0.0852126 -0.00627953,0.00181496 -0.0132874,0.00411811 -0.0207992,0.00672835 -0.00994882,0.00346063 -0.0207756,0.00746457 -0.0319567,0.0115984 -0.0489331,0.0180906 -0.104287,0.0385551 -0.162874,0.0401811 -0.0379055,0.00105512 -0.0883937,0.00157874 -0.138949,-0.000602362 -0.0521024,-0.00224803 -0.104732,-0.00735433 -0.145433,-0.017622 -0.0921614,-0.0232441 -0.16498,-0.0570669 -0.221819,-0.0834606 -0.0433819,-0.0201496 -0.076252,-0.0354134 -0.0939724,-0.0354134 -0.010122,0 -0.0146535,0.0236417 -0.0146535,0.0935512 0,0.0176811 -0.00537008,0.0460866 -0.0124488,0.0755472 -0.0105827,0.0440354 -0.0253937,0.0920472 -0.0303465,0.105256 -0.00313386,0.0083622 -0.00978346,0.0345079 -0.0130984,0.0665945 -0.00206299,0.0199567 -0.00265354,0.0415433 7.87402e-005,0.0611417 0.00452756,0.0324331 0.00527559,0.100264 0.00594094,0.161421 0.00057874,0.0526693 0.00110236,0.0999921 0.00253937,0.104307 0.00356299,0.0107087 0.0153543,0.0574882 0.0209016,0.092126 0.0054252,0.033878 0.00290551,0.0640197 -0.0167047,0.0764882 -0.00655906,0.00415748 -0.0138976,0.00607874 -0.0211181,0.00595276 0.00194882,0.0130748 0.000653543,0.0330748 -0.0169291,0.0671496 -0.00793307,0.0153701 -0.0250276,0.0416772 -0.0477087,0.0622992 -0.0173307,0.0157598 -0.0383189,0.028752 -0.0623346,0.033315 -0.0248189,0.00470079 -0.0568701,0.00553937 -0.0845827,0.00189764 -0.0287441,-0.00377953 -0.0550236,-0.0130394 -0.0701969,-0.0287795 -0.0160709,-0.0166614 -0.0247402,-0.0323268 -0.0249685,-0.050248 -0.000279528,-0.0219685 0.0104685,-0.0384252 0.0335827,-0.0522874 0.0159134,-0.00954331 0.0320315,-0.0389606 0.0471732,-0.0665984 0.0515354,-0.0940827 0.0850315,-0.326472 0.0619528,-0.398374 -0.0220709,-0.0687795 -0.059248,-0.297728 -0.0609449,-0.300394 0.000318898,0.00395276 0.000629921,0.0078189 0.000933071,0.0115945 0.0133976,0.167807 0.00802362,0.163142 -0.0134213,0.316705 -0.0117756,0.0841575 -0.0147835,0.15828 -0.023063,0.241126 -0.000188976,0.00191732 -0.00034252,0.0034252 -0.000685039,0.00787008 -0.000259843,0.0033937 0.000980315,-0.000464567 0.00191339,0.00287008 0.0110315,-0.00314961 0.00269685,0.0775906 -0.00315354,0.0860433 -0.017189,0.0248307 -0.0348228,0.0259134 -0.0529724,0.0235512 0.000480315,0.00188189 0.000870079,0.00411811 0.000834646,0.00680709 -0.00023622,0.0175118 -0.000484252,0.0351063 -0.00904724,0.0522283 -0.00770866,0.0154252 -0.0238386,0.0384134 -0.0442638,0.0558425 -0.0167638,0.0142992 -0.0369606,0.0257008 -0.0594882,0.0288504 -0.0218268,0.00305906 -0.0504528,0.00511024 -0.0762835,0.00305118 -0.0228937,-0.00182677 -0.0447874,-0.00705512 -0.0614094,-0.0176811 -0.0139016,-0.00887402 -0.0240394,-0.0187638 -0.0303307,-0.0289882 -0.00549606,-0.00894488 -0.00845669,-0.0185079 -0.0088622,-0.0284803 -0.000448819,-0.0110512 0.00238976,-0.0215079 0.00852756,-0.0311181 0.00508268,-0.00797244 0.0120394,-0.0147795 0.0208031,-0.0201693l0.0011811 -0.000692913c0.00357087,-0.00285039 0.00929134,-0.00968504 0.0155787,-0.0180197 0.0107362,-0.0142283 0.0207087,-0.0303346 0.0261811,-0.0412795 0.0390394,-0.0780433 0.101134,-0.229921 0.109354,-0.322441 0.000866142,-0.0097874 0.00294488,-0.014252 0.00231102,-0.015126 -0.0078622,-0.010815 -0.0190315,-0.0340945 -0.0276417,-0.058252 -0.00702362,-0.0196929 -0.0128386,-0.0413386 -0.0144252,-0.0591299 -0.00231102,-0.0259803 0.00130315,-0.0482717 0.00549213,-0.0741102 0.00151575,-0.00937008 0.00313386,-0.0193346 0.00481496,-0.033252 0.00266142,-0.0221063 -0.000594488,-0.068689 -0.0034685,-0.101035 -0.0132992,-0.000633858 -0.050689,-0.0399843 -0.096063,-0.0976929 -0.0775906,-0.0986811 -0.178524,-0.251035 -0.222394,-0.355315 -0.00877953,-0.0208661 -0.0152677,-0.0398071 -0.0188307,-0.0560079 -0.0336654,-0.153161 -0.0649685,-0.295535 -0.150646,-0.335071 -0.00622441,-0.00287795 -0.0119252,0.00390157 -0.0168583,0.0145787 -0.015811,0.0342283 -0.021874,0.0918976 -0.0249449,0.133618 -0.00065748,0.0089685 -0.00117717,0.0172008 -0.00162598,0.0243031 -0.00120472,0.0189961 -0.00201969,0.0319488 -0.0056063,0.040315 -0.00675591,0.0157756 -0.0315512,0.0344764 -0.0584252,0.0481024 -0.0238346,0.0120866 -0.0519173,0.0224449 -0.0699173,0.0238583 -0.0147559,0.00116929 -0.0606969,-0.00388189 -0.100665,-0.0105709 -0.0360787,-0.00603543 -0.0705433,-0.0147047 -0.0820394,-0.0239055 -0.0132795,-0.010626 -0.0213307,-0.0185551 -0.0269803,-0.0308425 -0.00225197,-0.00489764 -0.00374803,-0.00958268 -0.00461811,-0.0144055 -0.00152362,-0.00840157 -0.00116535,-0.0172087 0.000362205,-0.028248l0.000200787 -0.00127559c0.0015,-0.0104173 0.00470866,-0.0280748 0.00836614,-0.0482362l0.00394488 -0.0218346c0.0069252,-0.0385984 0.0139016,-0.0797992 0.0127441,-0.0903976 -0.0023189,-0.0212953 -0.00844094,-0.0423701 -0.0134843,-0.0597402 -0.00338189,-0.0116535 -0.00638189,-0.0219606 -0.00803937,-0.0305315 -0.00246063,-0.0127362 -0.00201969,-0.0286575 -0.00154331,-0.0460315 0.000492126,-0.017626 0.00103543,-0.0372835 -0.0020748,-0.0482047l-0.000444882 -0.00170866c-0.00256299,-0.00901575 -0.00361417,-0.0124528 -0.00453937,-0.0154803 -0.00549606,-0.0179921 -0.0087126,-0.0285276 -0.0105472,-0.0505866 -0.000838583,-0.0101378 -0.000988189,-0.0254252 -0.00112992,-0.0400866 -6.69291e-005,-0.00739764 -0.000137795,-0.0145827 -0.000255906,-0.0201496l-0.000133858 2.3622e-005 -0.00441732 0.000740157c-0.0341693,0.00575197 -0.085437,0.0143819 -0.116976,-0.000311024 -0.00104724,-0.000484252 -0.00205906,-0.00101575 -0.00304331,-0.00158268 -0.00361811,-0.00190157 -0.00782283,-0.0044252 -0.0124843,-0.00748819 -0.0220906,-0.0145118 -0.0581654,-0.0448937 -0.0859291,-0.0766063 -0.0344764,-0.039378 -0.0576811,-0.0841772 -0.0409685,-0.120146 0.00109449,-0.00236614 0.00257087,-0.00497244 0.00444882,-0.00782283 0.0143189,-0.0217913 0.0508268,-0.039378 0.0905236,-0.0444606 0.0319331,-0.00408268 0.0679803,-0.00114961 0.0974055,0.0131339 0.021063,0.0102323 0.0412953,0.0246575 0.0605827,0.0384055 0.0215827,0.0153819 0.041315,0.0295827 0.0413819,0.029563 0.0011063,-0.00034252 0.00277953,-0.00141732 0.0048937,-0.00305118 0.00562205,-0.00433858 0.0143386,-0.0126024 0.0236693,-0.0214528 0.0242717,-0.0230118 0.0513661,-0.0487008 0.0853346,-0.057248 0.00880315,-0.00221654 0.0438937,-0.00351181 0.0836339,-0.00416929 0.0612126,-0.00101575 0.139256,5.51181e-005 0.143465,0.00133858 0.0164685,0.00501181 0.033189,0.0208543 0.0527402,0.0393898 0.0162717,0.0154252 0.0357441,0.033878 0.0450394,0.0417992 0.00904331,-0.00772835 0.019878,-0.0150433 0.0270669,-0.0207795 0.0167795,-0.0133937 0.034378,-0.0274449 0.0527008,-0.0380669 0.0255945,-0.0148386 0.0569528,-0.0208268 0.0847283,-0.0205394 0.0345315,0.000362205 0.0662913,0.0114921 0.0787441,0.0283228 0.00163386,0.00220079 0.00291732,0.00423622 0.00387008,0.0061063 0.00385433,0.00754331 0.00526772,0.0158819 0.00470472,0.0247402 0.112362,0.00517323 0.229665,0.0264843 0.344106,0.0472795 0.10252,0.018626 0.202669,0.0368268 0.293008,0.0418976 0.0430866,0.00241732 0.0840591,0.00437795 0.12326,0.00594094 0.0815157,0.00325984 0.15537,0.00483858 0.224571,0.00537008 0.259472,0.002 0.45363,-0.0106654 0.742063,-0.00412992 0.0594134,0.00134646 0.13335,-0.00775197 0.208232,-0.0169646 0.0776024,-0.00955118 0.156209,-0.0192244 0.227087,-0.0179449 0.0104409,0.000188976 0.0204016,0.000232283 0.0301063,0.000248031l0.00570866 7.87402e-006c0.0295472,3.14961e-005 0.0574016,6.69291e-005 0.0840354,0.00289764 0.0464134,0.00494094 0.0891102,0.0183937 0.130579,0.0551811 0.13815,0.0878976 0.223248,0.205913 0.272488,0.338362 0.0491181,0.132106 0.0620354,0.277787 0.0563661,0.421551z"/>
   </g>
  </g>
  <path class="fil2" d="M3.41333 -3.93701e-006c1.88513,0 3.41333,1.5282 3.41333,3.41333 0,1.88513 -1.5282,3.41333 -3.41333,3.41333 -1.88513,0 -3.41333,-1.5282 -3.41333,-3.41333 0,-1.88513 1.5282,-3.41333 3.41333,-3.41333z"/>
  <path class="fil3" d="M4.58794 4.48988c-0.014622,0.00026378 -0.0657874,-0.00963386 -0.0822441,-0.0115827 -0.0225276,-0.0026811 -0.0448819,-0.00818504 -0.0607362,-0.0181102 -0.0164252,-0.0102874 -0.0320787,-0.0222441 -0.0416614,-0.0371535l-3.93701e-005 -6.69291e-005 -0.000114173 6.69291e-005c-0.0158937,-0.024748 -0.0163976,-0.0503031 0.0113425,-0.0756732 0.0173307,-0.0158543 0.0445276,-0.0485236 0.066874,-0.0753701 0.0577992,-0.0694252 0.0970669,-0.134571 0.101441,-0.231024 0.00258268,-0.0566024 -0.0039252,-0.104799 -0.00957087,-0.146598 -0.00455906,-0.033811 -0.00861024,-0.0637953 -0.00762992,-0.0928858 0.000519685,-0.0154488 -0.00388189,-0.0441299 -0.00733071,-0.0666181l-0.00140551 -0.00924803 -0.000629921 0.000338583 -0.00111417 0.000940945c-0.00125197,0.00154331 0.00305512,-0.000370079 0.00172441,0.00289764l-5.11811e-005 0.000129921 5.11811e-005 1.9685e-005c-0.00765354,0.0188031 -0.0169213,0.0415472 -0.040374,0.0541339 -0.0230906,0.0123898 -0.0438661,0.0128346 -0.0627677,0.000751969 -0.0153819,-0.00982677 -0.0243898,-0.0262677 -0.0272677,-0.0497087 -0.00133465,-0.0108858 -0.000129921,-0.0226614 0.00116142,-0.0353583 0.00138583,-0.0136417 0.00334646,-0.029189 0.00317717,-0.0293268 -0.0056063,-0.0043937 -0.0107402,-0.009 -0.0153858,-0.0132638 -0.000909449,0.00338583 -0.00174409,0.00719291 -0.00254724,0.0110394l-0.000291339 0.00126772 -0.000610236 0.00298819 -0.000295276 0.00131102c-0.00706299,0.0348583 -0.0157244,0.0738346 -0.0706181,0.0704409 -0.0226496,-0.0013937 -0.0397992,-0.00829921 -0.0527677,-0.0240512 -0.0111339,-0.0135157 -0.0160039,-0.0307874 -0.0154055,-0.0541654 0.000244094,-0.00974803 0.00117717,-0.0193189 0.00208661,-0.0287008 0.00138189,-0.0142362 0.00270866,-0.0278583 0.00235039,-0.0284685l-0.000102362 -0.000173228 -5.51181e-005 2.75591e-005 -0.00261417 -0.00445276c-0.0102638,-0.0175354 -0.0350984,-0.0599409 -0.0517047,-0.0847992 0.0303071,-0.0152402 0.129272,-0.0652598 0.161854,-0.084815 0.0893189,0.0738858 0.154453,0.136339 0.201043,0.196583 0.0473071,0.0611732 0.0755394,0.120228 0.0907717,0.187059 0.0227126,0.0996457 0.0347559,0.243244 0.0105472,0.37539 -0.0203583,0.111098 -0.0355,0.222335 -0.0961024,0.28948 -0.00177953,0.0019685 -0.00276772,0.00433858 -0.00298819,0.00674803z"/>
  <path class="fil4" d="M4.96645 3.26085c-0.0173425,0.255709 -0.0228031,0.36985 -0.026752,0.45248 -0.00598819,0.12522 -0.00856693,0.179232 -0.0416299,0.516567 -0.0016811,0.0171929 -0.00277953,0.0263425 -0.0037874,0.0347126 -0.0030748,0.0255669 -0.00538976,0.0447992 -0.00292126,0.0601142 0.000440945,0.0027126 0.000602362,0.00337402 0.00168898,0.00975591 0.00738976,0.0434291 0.0187795,0.110382 -0.0292283,0.123709 -0.011878,0.00330315 -0.0212953,0.00249606 -0.0297874,7.08661e-005l0.000287402 0.00444094c0.00138189,0.0283465 0.00273228,0.0560236 -0.0247795,0.0763661 -0.00238976,0.00176772 -0.00666142,0.00516535 -0.0111732,0.00875984 -0.0223228,0.0177717 -0.0499961,0.0398031 -0.0916969,0.0475748 -0.0235669,0.00438583 -0.0475551,0.00444488 -0.0687402,0.00111024 -0.0243819,-0.00384252 -0.0461299,-0.0124606 -0.0611496,-0.0246181 -0.0142913,-0.0115709 -0.0238268,-0.0243819 -0.0276732,-0.0385945 0.00269291,-0.00042126 0.00525984,-0.00175984 0.0071811,-0.00398031 0.0611732,-0.070748 0.100118,-0.179224 0.120287,-0.294122 0.0237165,-0.135114 0.0216181,-0.279709 -0.000732283,-0.382071 -0.0153228,-0.0701732 -0.0436811,-0.13213 -0.0911693,-0.196224 -0.0469843,-0.0634173 -0.112681,-0.128799 -0.20313,-0.206429l0 3.93701e-006c-0.00429921,-0.0036811 -0.010748,-0.00388583 -0.0152913,-0.000188976 -0.0118504,0.00966142 -0.271299,0.153996 -0.303772,0.163386 -0.0145906,0.00421654 -0.0331299,0.0110709 -0.0527559,0.0183268 -0.0489331,0.0180906 -0.104287,0.0385551 -0.162874,0.0401811 -0.0379055,0.00105512 -0.0883937,0.00157874 -0.138949,-0.000602362 -0.0521024,-0.00224803 -0.104732,-0.00735433 -0.145433,-0.017622 -0.0921614,-0.0232441 -0.16498,-0.0570669 -0.221819,-0.0834606 -0.0433819,-0.0201496 -0.076252,-0.0354134 -0.0939724,-0.0354134 -0.010122,0 -0.0146535,0.0236417 -0.0146535,0.0935512 0,0.0176811 -0.00537008,0.0460866 -0.0124488,0.0755472 -0.0105827,0.0440354 -0.0253937,0.0920472 -0.0303465,0.105256 -0.00313386,0.0083622 -0.00978346,0.0345079 -0.0130984,0.0665945 -0.00206299,0.0199567 -0.00265354,0.0415433 7.87402e-005,0.0611417 0.00452756,0.0324331 0.00527559,0.100264 0.00594094,0.161421 0.00057874,0.0526693 0.00110236,0.0999921 0.00253937,0.104307 0.00356299,0.0107087 0.0153543,0.0574882 0.0209016,0.092126 0.0054252,0.033878 0.00290551,0.0640197 -0.0167047,0.0764882 -0.00655906,0.00415748 -0.0138976,0.00607874 -0.0211181,0.00595276 0.00194882,0.0130748 0.000653543,0.0330748 -0.0169291,0.0671496 -0.00793307,0.0153701 -0.0250276,0.0416772 -0.0477087,0.0622992 -0.0173307,0.0157598 -0.0383189,0.028752 -0.0623346,0.033315 -0.0248189,0.00470079 -0.0568701,0.00553937 -0.0845827,0.00189764 -0.0287441,-0.00377953 -0.0550236,-0.0130394 -0.0701969,-0.0287795 -0.0160709,-0.0166614 -0.0247402,-0.0323268 -0.0249685,-0.050248 -0.000279528,-0.0219685 0.0104685,-0.0384252 0.0335827,-0.0522874 0.0159134,-0.00954331 0.0320315,-0.0389606 0.0471732,-0.0665984 0.0515354,-0.0940827 0.0850315,-0.326472 0.0619528,-0.398374 -0.0220709,-0.0687795 -0.059248,-0.297728 -0.0609449,-0.300394 0.014563,0.179693 0.00944094,0.17128 -0.0124882,0.328299 -0.0117756,0.0841575 -0.0147835,0.15828 -0.023063,0.241126 -0.000188976,0.00191732 -0.00034252,0.0034252 -0.000685039,0.00787008 -0.000259843,0.0033937 0.000980315,-0.000464567 0.00191339,0.00287008 0.0110315,-0.00314961 0.00269685,0.0775906 -0.00315354,0.0860433 -0.017189,0.0248307 -0.0348228,0.0259134 -0.0529724,0.0235512 0.000480315,0.00188189 0.000870079,0.00411811 0.000834646,0.00680709 -0.00023622,0.0175118 -0.000484252,0.0351063 -0.00904724,0.0522283 -0.00770866,0.0154252 -0.0238386,0.0384134 -0.0442638,0.0558425 -0.0167638,0.0142992 -0.0369606,0.0257008 -0.0594882,0.0288504 -0.0218268,0.00305906 -0.0504528,0.00511024 -0.0762835,0.00305118 -0.0228937,-0.00182677 -0.0447874,-0.00705512 -0.0614094,-0.0176811 -0.0139016,-0.00887402 -0.0240394,-0.0187638 -0.0303307,-0.0289882 -0.00549606,-0.00894488 -0.00845669,-0.0185079 -0.0088622,-0.0284803 -0.000448819,-0.0110512 0.00238976,-0.0215079 0.00852756,-0.0311181 0.00508268,-0.00797244 0.0120394,-0.0147795 0.0208031,-0.0201693l0.0011811 -0.000692913c0.00357087,-0.00285039 0.00929134,-0.00968504 0.0155787,-0.0180197 0.0107362,-0.0142283 0.0207087,-0.0303346 0.0261811,-0.0412795 0.0390394,-0.0780433 0.101134,-0.229921 0.109354,-0.322441 0.000866142,-0.0097874 0.00294488,-0.014252 0.00231102,-0.015126 -0.0078622,-0.010815 -0.0190315,-0.0340945 -0.0276417,-0.058252 -0.00702362,-0.0196929 -0.0128386,-0.0413386 -0.0144252,-0.0591299 -0.00231102,-0.0259803 0.00130315,-0.0482717 0.00549213,-0.0741102 0.00151575,-0.00937008 0.00313386,-0.0193346 0.00481496,-0.033252 0.00266142,-0.0221063 -0.000594488,-0.068689 -0.0034685,-0.101035 -0.0405984,-0.00193307 -0.305516,-0.364488 -0.337287,-0.509016 -0.0336654,-0.153161 -0.0649685,-0.295535 -0.150646,-0.335071 -0.00622441,-0.00287795 -0.0119252,0.00390157 -0.0168583,0.0145787 -0.0192087,0.0415866 -0.0240315,0.117772 -0.0265709,0.157921 -0.00120472,0.0189961 -0.00201969,0.0319488 -0.0056063,0.040315 -0.00675591,0.0157756 -0.0315512,0.0344764 -0.0584252,0.0481024 -0.0238346,0.0120866 -0.0519173,0.0224449 -0.0699173,0.0238583 -0.0147559,0.00116929 -0.0606969,-0.00388189 -0.100665,-0.0105709 -0.0360787,-0.00603543 -0.0705433,-0.0147047 -0.0820394,-0.0239055 -0.0132795,-0.010626 -0.0213307,-0.0185551 -0.0269803,-0.0308425 -0.00617323,-0.0134291 -0.00665748,-0.0252756 -0.00425591,-0.0426535l0.000200787 -0.00127559c0.0015,-0.0104173 0.00470866,-0.0280748 0.00836614,-0.0482362 0.00787008,-0.043378 0.0180709,-0.0995866 0.016689,-0.112232 -0.0023189,-0.0212953 -0.00844094,-0.0423701 -0.0134843,-0.0597402 -0.00338189,-0.0116535 -0.00638189,-0.0219606 -0.00803937,-0.0305315 -0.00246063,-0.0127362 -0.00201969,-0.0286575 -0.00154331,-0.0460315 0.000492126,-0.017626 0.00103543,-0.0372835 -0.0020748,-0.0482047l-0.000444882 -0.00170866c-0.00256299,-0.00901575 -0.00361417,-0.0124528 -0.00453937,-0.0154803 -0.00549606,-0.0179921 -0.0087126,-0.0285276 -0.0105472,-0.0505866 -0.000838583,-0.0101378 -0.000988189,-0.0254252 -0.00112992,-0.0400866 -6.69291e-005,-0.00739764 -0.000137795,-0.0145827 -0.000255906,-0.0201496l-0.00455118 0.00076378c-0.0341693,0.00575197 -0.085437,0.0143819 -0.116976,-0.000311024 -0.00104724,-0.000484252 -0.00205906,-0.00101575 -0.00304331,-0.00158268 -0.00361811,-0.00190157 -0.00782283,-0.0044252 -0.0124843,-0.00748819 -0.0220906,-0.0145118 -0.0581654,-0.0448937 -0.0859291,-0.0766063 -0.0344764,-0.039378 -0.0576811,-0.0841772 -0.0409685,-0.120146 0.00109449,-0.00236614 0.00257087,-0.00497244 0.00444882,-0.00782283 0.0143189,-0.0217913 0.0508268,-0.039378 0.0905236,-0.0444606 0.0319331,-0.00408268 0.0679803,-0.00114961 0.0974055,0.0131339 0.021063,0.0102323 0.0412953,0.0246575 0.0605827,0.0384055 0.0215827,0.0153819 0.041315,0.0295827 0.0413819,0.029563 0.00404331,-0.00125197 0.0157244,-0.0123268 0.028563,-0.0245039 0.0242717,-0.0230118 0.0513661,-0.0487008 0.0853346,-0.057248 0.00880315,-0.00221654 0.0438937,-0.00351181 0.0836339,-0.00416929 0.0612126,-0.00101575 0.139256,5.51181e-005 0.143465,0.00133858 0.0164685,0.00501181 0.033189,0.0208543 0.0527402,0.0393898 0.0215669,0.0204449 0.0487598,0.0462126 0.0504252,0.0457244 0.177067,-0.0519882 0.388276,-0.0136142 0.590535,0.0231378 0.10252,0.018626 0.202669,0.0368268 0.293008,0.0418976 0.468646,0.0263071 0.687547,-0.00193307 1.08989,0.0071811 0.0594134,0.00134646 0.13335,-0.00775197 0.208232,-0.0169646 0.0776024,-0.00955118 0.156209,-0.0192244 0.227087,-0.0179449 0.0125,0.000224409 0.0243071,0.000244094 0.035815,0.000255906 0.0810512,8.66142e-005 0.14935,0.000181102 0.214614,0.0580787 0.13815,0.0878976 0.223248,0.205913 0.272488,0.338362 0.0491181,0.132106 0.0620354,0.277787 0.0563661,0.421551 -0.00268898,0.0682913 -0.00276378,0.706012 -0.0634449,0.703634 -0.0210787,-0.000826772 -0.0137992,-0.16078 -0.0129724,-0.181854l8.26772e-005 -0.524772c0.00531496,-0.134843 -0.00522047,-0.226941 -0.0503268,-0.34826 -0.0301496,-0.0616496 -0.0514843,-0.0755236 -0.0886654,-0.0973228 0.00402362,0.0324094 0.000200787,-0.0145 -0.00088189,0.0177441 -0.00187008,0.0554488 -0.0105591,0.108539 -0.0234173,0.151941 -0.00636614,0.0214843 -0.0295197,0.123094 -0.0482953,0.218717 -0.012189,0.062063 -0.0223465,0.120654 -0.0243858,0.150823z"/>
  <path class="fil5" d="M2.61616 3.53452c-0.0775906,-0.0986811 -0.178524,-0.251035 -0.222382,-0.355319 0.0454685,-0.0239567 0.104134,-0.0359094 0.140016,-0.0279409 0.0791181,0.0169449 0.080815,0.168409 0.0686654,0.280744 -0.00233465,0.0215394 0.0285748,0.0739528 0.0225984,0.0884646 -0.00248425,0.00521654 -0.00548819,0.00990551 -0.00889764,0.0140512z"/>
  <path class="fil6" d="M2.18248 2.93632c-0.00065748,0.0089685 -0.00117717,0.0172008 -0.00162598,0.0243031 -0.00120472,0.0189961 -0.00201969,0.0319488 -0.0056063,0.040315 -0.00675591,0.0157756 -0.0315512,0.0344764 -0.0584252,0.0481024 -0.0238346,0.0120866 -0.0519173,0.0224449 -0.0699173,0.0238583 -0.0147559,0.00116929 -0.0606969,-0.00388189 -0.100665,-0.0105709 -0.0360787,-0.00603543 -0.0705433,-0.0147047 -0.0820394,-0.0239055 -0.0132795,-0.010626 -0.0213307,-0.0185551 -0.0269803,-0.0308425 -0.00617323,-0.0134291 -0.00665748,-0.0252756 -0.00425591,-0.0426535l0.000200787 -0.00127559c0.0015,-0.0104173 0.00470866,-0.0280748 0.00836614,-0.0482362 0.00127165,-0.00702362 0.0026063,-0.0143819 0.00394488,-0.0218346 0.018689,-0.0180748 0.026874,-0.0298898 0.061815,-0.0298898 0.0349409,0 0.0572913,0.0302795 0.0754173,0.0625157 0.00972047,-0.0250472 0.0516614,-0.0455118 0.0911772,-0.0423937 0.0395118,0.00312205 0.0729961,0.0406339 0.108594,0.0525079z"/>
  <path class="fil5" d="M4.94337 3.63865c-0.00146063,0.0285 -0.00261811,0.0527087 -0.00366929,0.0746811 -0.00450787,0.0942717 -0.00708661,0.148205 -0.022189,0.313031 -0.0572559,0.0160472 -0.156346,-0.0421929 -0.183114,-0.0908937 -0.037437,-0.0669213 0.0693228,-0.162909 0.15689,-0.224551 0.0167913,-0.011815 0.0347638,-0.0666142 0.0488346,-0.071437 0.00108661,-0.000311024 0.00216929,-0.00057874 0.00324803,-0.000830709z"/>
  <path class="fil5" d="M4.72958 2.3522l0.00570866 7.87402e-006c0.0295472,3.14961e-005 0.0574016,6.69291e-005 0.0840354,0.00290157 0.168516,0.0631378 0.23339,0.220154 0.248787,0.369272l-0.0046811 -0.00275591c0.00402362,0.0324094 0.000200787,-0.0145 -0.00088189,0.0177441 -0.00187008,0.0554488 -0.0105591,0.108539 -0.0234173,0.151941 -0.00501969,0.016937 -0.0204646,0.0836575 -0.0359803,0.157988 -0.00681496,-0.00636614 -0.0194488,-0.0251457 -0.0359843,-0.0805039 -0.025437,-0.0851614 -0.122862,-0.0648346 -0.178634,-0.0576417 -0.0557638,0.00718504 -0.14915,-0.0589724 -0.206996,-0.0213976 -0.0578465,0.0375906 -0.174264,-0.0175984 -0.191886,-0.080311 -0.0175984,-0.0627126 -0.0504606,0.00633858 -0.134894,-0.0510315 -0.0844331,-0.0573543 -0.00405906,-0.112146 0.0446535,-0.109949 0.0487047,0.00217323 0.061189,-0.00686614 0.0863583,-0.0592874 0.0251496,-0.0524409 0.12028,-0.0462677 0.15626,-0.0373937 0.0359685,0.00887402 0.064374,0.047126 0.154157,0.0319055 0.0897795,-0.0152087 0.0895787,-0.0935748 0.0401575,-0.151559 -0.0298937,-0.0350906 -0.0195709,-0.0632047 -0.00676378,-0.0799291z"/>
  <path class="fil5" d="M3.29752 2.38562c0.0815157,0.00325984 0.15537,0.00483858 0.224571,0.00537008 0.0132441,0.00814173 0.0243268,0.0188386 0.0327795,0.0326457 0.0185787,0.139547 -0.167283,0.0786575 -0.161752,0.164925 0.00555118,0.0862717 -0.0798858,0.0786496 -0.180783,0.0304488 -0.100902,-0.0482165 -0.106213,0.0811929 -0.098248,0.212264 0.00798425,0.131094 -0.117878,0.110382 -0.197528,0.10785 -0.0796496,0.0208268 -0.168886,0.101606 -0.28798,0.0116457 -0.119094,-0.0386693 -0.194228,-0.176992 -0.194228,-0.176992 -0.0901181,-0.333874 0.193268,-0.483354 0.336268,-0.371831 0.0418031,0.0325984 0.089063,0.0663898 0.142685,0.0647559 0.105295,-0.00320472 0.254339,-0.0543307 0.384217,-0.0810827z"/>
  <path class="fil5" d="M4.49216 3.55175c-0.031937,-0.0318031 -0.0686063,-0.0652165 -0.110618,-0.101276l0 3.93701e-006c-0.00429921,-0.0036811 -0.010748,-0.00388583 -0.0152913,-0.000188976 -0.0118504,0.00966142 -0.271299,0.153996 -0.303772,0.163386 -0.00627953,0.00181496 -0.0132874,0.00411811 -0.0207992,0.00673228 -0.180008,0.0230315 -0.371878,0.0102874 -0.362772,-0.0808031 -0.0165748,-0.119276 0.184161,-0.0672283 0.179228,-0.140961 -0.00495276,-0.0737362 0.121161,-0.0772047 0.211177,-0.036 0.0900197,0.0412087 0.097252,-0.0294882 0.0901457,-0.14152 -0.00712205,-0.112043 0.122823,-0.0657677 0.193878,-0.0636024 0.071063,0.00216142 0.165445,-0.0740709 0.271693,-0.0410236 0.106248,0.0330512 0.140846,0.153772 0.140846,0.153772 0.0171929,0.0227441 0.024311,0.356083 -0.273717,0.28148z"/>
  <path class="fil7" d="M1.88178 2.54493c0.0195748,0 0.0354449,0.0198386 0.0354449,0.0443071 0,0.0244685 -0.0158701,0.0443071 -0.0354449,0.0443071 -0.0195709,0 -0.0354409,-0.0198386 -0.0354409,-0.0443071 0,-0.0244685 0.0158701,-0.0443071 0.0354409,-0.0443071z"/>
  <path class="fil8" d="M1.88178 2.56505c0.010689,0 0.0193504,0.0108307 0.0193504,0.024189 0,0.0133583 -0.00866142,0.024189 -0.0193504,0.024189 -0.010685,0 -0.0193465,-0.0108307 -0.0193465,-0.024189 0,-0.0133583 0.00866142,-0.024189 0.0193465,-0.024189z"/>
  <path class="fil9" d="M3.32766 3.22843c-0.0855472,-0.0526417 -0.0229528,-0.210551 0.0459291,-0.220091 0.0948543,-0.0131614 0.0551654,-0.11263 0.17989,-0.124728 0.114827,-0.0111181 0.218169,0.0875945 0.191378,0.198972 -0.0267992,0.111402 -0.0995157,0.153508 -0.191378,0.130543 -0.0918583,-0.0229606 -0.126303,0.0765512 -0.225819,0.0153031z"/>
  <path class="fil9" d="M3.8863 2.72632c0.0884843,-0.00470866 0.197772,-0.0933504 0.144709,-0.162496 -0.0530472,-0.0691299 -0.197618,-0.0994016 -0.255567,-0.0312008 -0.0579724,0.0681929 -0.0724409,0.203445 0.110858,0.193697z"/>
  <path class="fil9" d="M3.09077 3.47919c0.0458228,-0.00136614 0.124795,0.0248189 0.173657,0.0129331 0.0480866,-0.011689 0.0666811,-0.0612047 0.0396339,-0.0975236 -0.00951575,-0.0114331 -0.067126,-0.00873622 -0.0841417,-0.0202244 -0.0887598,-0.0599134 -0.216445,-0.125543 -0.265669,-0.0667441 -0.0392717,0.0461929 -0.0585354,0.176894 -0.00878346,0.214795 0.0257205,0.0195827 0.0811181,-0.0398228 0.145303,-0.0432362z"/>
  <path class="fil9" d="M2.20118 2.73129c0.0573228,-0.00170866 0.0219606,-0.000177165 0.0830709,-0.0150236 0.0601339,-0.0146024 0.136488,-0.15772 0.102646,-0.203154 -0.0119016,-0.0143071 -0.118331,0.0514646 -0.11776,-0.000330709 0.00148031,-0.133933 -0.177169,-0.10713 -0.238752,-0.0335669 -0.049126,0.0577874 -0.0732283,0.221311 -0.0109843,0.26872 0.0321654,0.0244961 0.10148,-0.012378 0.18178,-0.0166457z"/>
  <path class="fil7" d="M2.13435 2.54026c0.0195709,0 0.0354449,0.0198386 0.0354449,0.0443071 0,0.0244685 -0.015874,0.0443031 -0.0354449,0.0443031 -0.0195748,0 -0.0354449,-0.0198346 -0.0354449,-0.0443031 0,-0.0244685 0.0158701,-0.0443071 0.0354449,-0.0443071z"/>
  <path class="fil10" d="M2.13435 2.56115c0.0103425,0 0.0187283,0.0104803 0.0187283,0.0234134 0,0.0129291 -0.00838583,0.0234134 -0.0187283,0.0234134 -0.0103425,0 -0.0187323,-0.0104843 -0.0187323,-0.0234134 0,-0.0129331 0.00838976,-0.0234134 0.0187323,-0.0234134z"/>
  <ellipse class="fil11" cx="1.9133" cy="2.95668" rx="0.0202689" ry="0.0261918"/>
  <ellipse class="fil11" cx="2.0399" cy="2.97289" rx="0.0202689" ry="0.0261918"/>
  <path class="fil12" d="M2.11683 3.04904c0.026874,-0.013626 0.0516693,-0.0323268 0.0584252,-0.0481024 0.00358661,-0.00836614 0.00440157,-0.0213189 0.0056063,-0.040315 0.000448819,-0.00710236 0.000968504,-0.0153346 0.00162598,-0.0243031 -0.0120787,-0.0040315 -0.0239173,-0.0110118 -0.0358307,-0.0185984 -0.00657087,0.0224213 -0.0203543,0.0653858 -0.0334724,0.0807717 -0.0496102,0.0581654 -0.209303,0.023685 -0.280579,-0.0053189 0.000874016,0.00482283 0.00237008,0.00950787 0.00462205,0.0144055 0.00564961,0.0122874 0.0137008,0.0202165 0.0269803,0.0308425 0.0114961,0.00920079 0.0459606,0.0178701 0.0820394,0.0239055 0.0399685,0.00668898 0.0859094,0.0117402 0.100665,0.0105709 0.018,-0.00141339 0.0460827,-0.0117717 0.0699173,-0.0238583z"/>
  <path class="fil13" d="M1.81603 2.49069c0.00372441,-0.031248 0.0119331,-0.0930157 0.0227441,-0.132661 0.00548031,-0.0200866 0.00962205,-0.0355 0.0126732,-0.0469646 -0.00211417,0.00163386 -0.0037874,0.00270866 -0.0048937,0.00305118 -6.69291e-005,1.9685e-005 -0.0197992,-0.0141811 -0.0413819,-0.029563 -0.0192874,-0.013748 -0.0395197,-0.0281732 -0.0605827,-0.0384055 -0.0294252,-0.0142835 -0.0654724,-0.0172165 -0.0974055,-0.0131339 -0.0396969,0.00508268 -0.0762047,0.0226693 -0.0905236,0.0444606 -0.00187795,0.00285039 -0.00335433,0.00545669 -0.00444882,0.00782283 -0.0167126,0.0359685 0.00649213,0.0807677 0.0409685,0.120146 0.0277638,0.0317126 0.0638386,0.0620945 0.0859291,0.0766063 0.00466142,0.00306299 0.00886614,0.00558661 0.0124843,0.00748819 0.000984252,0.000566929 0.00199606,0.00109843 0.00304331,0.00158268 0.0315394,0.0146929 0.0828071,0.00606299 0.116976,0.000311024l0.00441732 -0.000740157z"/>
  <path class="fil13" d="M2.30296 2.46346c-0.0696378,-0.023126 -0.0298937,-0.129752 -0.0318819,-0.136724 0.00684252,-0.0130512 0.0292402,-0.0271496 0.0413228,-0.0367953 0.0167795,-0.0133937 0.034378,-0.0274449 0.0527008,-0.0380669 0.0255945,-0.0148386 0.0569528,-0.0208268 0.0847283,-0.0205394 0.0345315,0.000362205 0.0662913,0.0114921 0.0787441,0.0283228 0.00163386,0.00220079 0.00291732,0.00423622 0.00387008,0.0061063 0.0145354,0.0284528 -0.00564961,0.0682087 -0.0356378,0.104535 -0.0639291,0.0774291 -0.0935906,0.0980906 -0.190008,0.0933504l-0.00383858 -0.000188976z"/>
  <path class="fil3" d="M2.93032 3.97375c0.0214449,-0.153563 0.0268189,-0.148898 0.0134213,-0.316705 -0.0252756,0.000811024 -0.098878,0.00191339 -0.145791,-0.0103268 -0.057374,-0.0149685 -0.0424094,-0.0199567 -0.10976,-0.0523858 -0.0225787,-0.0108701 -0.0471181,-0.0351929 -0.0697677,-0.0627323 -0.000732283,0.001 -0.00148819,0.00197638 -0.00226772,0.00292126 0.045374,0.0577087 0.0827638,0.0970591 0.096063,0.0976929 0.00287402,0.0323465 0.00612992,0.0789291 0.0034685,0.101035 -0.0016811,0.0139173 -0.00329921,0.0238819 -0.00481496,0.033252 -0.00418898,0.0258386 -0.00780315,0.0481299 -0.00549213,0.0741102 0.00158661,0.0177913 0.00740157,0.039437 0.0144252,0.0591299 0.00861024,0.0241575 0.0197795,0.047437 0.0276417,0.058252 0.000633858,0.000874016 -0.00144488,0.00533858 -0.00231102,0.015126 -0.00822047,0.0925197 -0.070315,0.244398 -0.109354,0.322441 -0.00547244,0.0109449 -0.0154449,0.0270512 -0.0261811,0.0412795 -0.0062874,0.00833465 -0.0120079,0.0151693 -0.0155787,0.0180197l-0.0011811 0.000692913c-0.00876378,0.00538976 -0.0157205,0.0121969 -0.0208031,0.0201693 -0.0061378,0.00961024 -0.00897638,0.0200669 -0.00852756,0.0311181 0.000405512,0.00997244 0.00336614,0.0195354 0.0088622,0.0284803 0.00629134,0.0102244 0.0164291,0.0201142 0.0303307,0.0289882 0.016622,0.010626 0.0385157,0.0158543 0.0614094,0.0176811 0.0258307,0.00205906 0.0544567,7.87402e-006 0.0762835,-0.00305118 0.0225276,-0.00314961 0.0427244,-0.0145512 0.0594882,-0.0288504 0.0204252,-0.0174291 0.0365551,-0.0404173 0.0442638,-0.0558425 0.00856299,-0.017122 0.00881102,-0.0347165 0.00904724,-0.0522283 3.54331e-005,-0.00268898 -0.000354331,-0.0049252 -0.000834646,-0.00680709 0.0181496,0.0023622 0.0357835,0.00127953 0.0529724,-0.0235512 0.00585039,-0.00845276 0.014185,-0.0891929 0.00315354,-0.0860433 -0.000933071,-0.00333465 -0.00217323,0.000523622 -0.00191339,-0.00287008 0.00034252,-0.00444488 0.000496063,-0.00595276 0.000685039,-0.00787008 0.00827953,-0.0828465 0.0112874,-0.156969 0.023063,-0.241126z"/>
 </g>
</svg>
