<?xml version="1.0" encoding="utf-8"?>
<!-- Generator: Adobe Illustrator 22.0.1, SVG Export Plug-In . SVG Version: 6.00 Build 0)  -->
<svg version="1.1" xmlns="http://www.w3.org/2000/svg" xmlns:xlink="http://www.w3.org/1999/xlink" x="0px" y="0px"
	 viewBox="0 0 512 512" style="enable-background:new 0 0 512 512;" xml:space="preserve">
<style type="text/css">
	.st0{fill:#4B71B4;}
	.st1{fill:#80B4E8;}
	.st2{fill:#594144;}
	.st3{fill:#B8E876;}
	.st4{fill:#E09122;}
	.st5{fill:#FBF355;}
	.st6{fill:#EEC82F;}
	.st7{fill:#CEA628;}
	.st8{fill:#9BC9EF;}
	.st9{fill:#9DD055;}
	.st10{fill:#5686C5;}
	.st11{fill:#3B5880;}
	.st12{fill:#C2E5FB;}
	.st13{fill:#446697;}
	.st14{fill:#D1F1A0;}
	.st15{fill:#ABD170;}
	.st16{fill:#9DBD6A;}
	.st17{fill:#649D53;}
	.st18{fill:#72B35D;}
	.st19{fill:#ABD68D;}
	.st20{fill:#7FB358;}
	.st21{fill:#920C50;}
	.st22{fill:#C60053;}
	.st23{fill:#530730;}
	.st24{fill:#600332;}
	.st25{fill:#D5AC2A;}
	.st26{fill:#EFD776;}
	.st27{fill:#A7C76D;}
	.st28{fill:#A43749;}
	.st29{fill:#DC4355;}
	.st30{fill:#E18696;}
	.st31{fill:#77A255;}
	.st32{fill:#628547;}
	.st33{fill:#6E994D;}
	.st34{fill:none;stroke:#54743C;stroke-width:8;stroke-linecap:round;stroke-miterlimit:10;}
	.st35{fill:#9BCF75;}
	.st36{fill:#CA8F80;}
	.st37{fill:#E6B8AB;}
	.st38{fill:#E2A18B;}
	.st39{fill:#8E3F2B;}
	.st40{fill:#D89988;}
	.st41{fill:#CFCFCF;}
	.st42{fill:#A64B2D;}
	.st43{fill:#FFFFFF;}
	.st44{fill:#CA801F;}
	.st45{fill:#719C50;}
	.st46{fill:#85B7E5;}
	.st47{fill:#4F7BA9;}
	.st48{fill:#674C50;}
	.st49{fill:#BAD7ED;}
	.st50{fill:#63494D;}
	.st51{fill:#503D3F;}
	.st52{fill:#638547;}
	.st53{fill:#56713E;}
	.st54{fill:#BB5135;}
	.st55{fill:#93C4EC;}
	.st56{fill:#CA8121;}
	.st57{fill:#FDFCFC;}
	.st58{fill:#A83A4F;}
	.st59{fill:#BD5E44;}
	.st60{fill:#688C4A;}
	.st61{fill:#7DA55A;}
	.st62{fill:#90BA51;}
	.st63{fill:none;}
	.st64{fill:#ABC287;}
	.st65{fill:#BDD993;}
	.st66{fill:none;stroke:#534046;stroke-width:15;stroke-linecap:round;stroke-linejoin:round;stroke-miterlimit:10;}
	.st67{fill:#413133;}
	.st68{fill:#34292B;}
	.st69{fill:#644B50;}
	.st70{fill:#CDACB7;}
	.st71{fill:#A83A4D;}
	.st72{fill:#413335;}
	.st73{fill:#DC6579;}
	.st74{fill:#4C393C;}
	.st75{fill:#527FAE;}
	.st76{fill:#92C2EA;}
	.st77{fill:#5B8C4A;}
	.st78{fill:#729C51;}
	.st79{fill:#AADB5E;}
	.st80{fill:#D66C53;}
	.st81{fill:#A65340;}
	.st82{fill:#B8594A;}
	.st83{fill:#79A754;}
	.st84{fill:#4E3B3E;}
	.st85{fill:#5E4649;}
	.st86{fill:#604A50;}
	.st87{fill:#685258;}
	.st88{fill:#765E66;}
	.st89{fill:#FCF69A;}
	.st90{fill:#D3CC84;}
	.st91{fill:#E6A572;}
	.st92{fill:#74A151;}
	.st93{fill:#6F994F;}
	.st94{fill:#CC6D7D;}
	.st95{fill:#AD6576;}
	.st96{fill:#95422D;}
	.st97{fill:#BE6850;}
	.st98{fill:#3B2F32;}
	.st99{fill:none;stroke:#46383B;stroke-width:15;stroke-linecap:round;stroke-miterlimit:10;}
	.st100{fill:none;stroke:#3B2F32;stroke-width:15;stroke-linecap:round;stroke-miterlimit:10;}
	.st101{fill:#D6CF77;}
	.st102{fill:#F5EF82;}
	.st103{fill:#4A383B;}
	.st104{fill:#CACACA;}
	.st105{fill:#48373A;}
	.st106{fill:#7AA8D2;}
	.st107{fill:#6E9150;}
	.st108{fill:#587441;}
	.st109{fill:#D76E51;}
	.st110{fill:#CCC475;}
	.st111{fill:#DDD57E;}
	.st112{fill:#F8F19C;}
	.st113{fill:#FBF58A;}
	.st114{fill:#C67F20;}
	.st115{fill:#AB6B1C;}
	.st116{fill:#C98020;}
	.st117{fill:#D99A41;}
	.st118{fill:#DBA35B;}
	.st119{fill:#9B5F1B;}
	.st120{fill:#97CF6D;}
	.st121{fill:#5380B1;}
	.st122{fill:#96D16A;}
	.st123{fill:#92BD50;}
	.st124{fill:#7EB058;}
	.st125{fill:#709A50;}
	.st126{fill:#5A8A4A;}
	.st127{fill:#D9D9D9;}
	.st128{fill:#75A3CD;}
	.st129{fill:#6E974F;}
	.st130{fill:#CA6D7D;}
	.st131{fill:#AB6576;}
	.st132{fill:#93422D;}
	.st133{fill:#A44B2D;}
	.st134{fill:#BC6850;}
	.st135{fill:#DFB52B;}
	.st136{fill:#4C3A3C;}
	.st137{fill:#473538;}
	.st138{fill:#382B2E;}
	.st139{fill:none;stroke:#FFFFFF;stroke-width:8;stroke-linecap:round;stroke-miterlimit:10;}
	.st140{fill:#90C0E8;}
	.st141{fill:none;stroke:#E09122;stroke-width:12;stroke-linecap:round;stroke-miterlimit:10;}
	.st142{fill:#DCAE2B;}
	.st143{fill:#F0D05A;}
	.st144{fill:#729E51;}
	.st145{fill:#E4BA36;}
	.st146{fill:#F8F283;}
	.st147{fill:#E4B6A9;}
	.st148{fill:#D78E30;}
	.st149{fill:#598A49;}
	.st150{fill:#B65339;}
	.st151{fill:#BA751F;}
	.st152{fill:#466A9F;}
	.st153{fill:#8BB34D;}
	.st154{fill:#9BCE54;}
	.st155{fill:#7F9F49;}
	.st156{fill:#D37F6D;}
	.st157{fill:#BB5E44;}
	.st158{fill:#93BB55;}
	.st159{fill:#B3E665;}
	.st160{fill:none;stroke:#4C393C;stroke-width:8;stroke-miterlimit:10;}
	.st161{fill:#97432D;}
	.st162{fill:#DAB12A;}
	.st163{fill:#5E914C;}
	.st164{fill:#5381B3;}
	.st165{fill:#6A8F4C;}
	.st166{fill:#628047;}
	.st167{fill:#E29D37;}
	.st168{fill:#6E555B;}
	.st169{fill:#91CA67;}
	.st170{fill:#476BA1;}
	.st171{fill:#6699D9;}
	.st172{fill:#503C3E;}
	.st173{fill:#413235;}
	.st174{fill:#CC916A;}
	.st175{fill:#BA8363;}
	.st176{fill:#D09571;}
	.st177{fill:#C98F68;}
	.st178{fill:#AA3B4D;}
	.st179{fill:#DA6075;}
	.st180{fill:#92452D;}
	.st181{fill:#A24B2D;}
	.st182{fill:#B76252;}
	.st183{fill:#87BD60;}
	.st184{fill:#78A7D2;}
	.st185{fill:#F9F38F;}
	.st186{fill:#E0D650;}
	.st187{fill:#AFE086;}
	.st188{fill:#9FD476;}
	.st189{fill:#9DD176;}
	.st190{fill:#8FC468;}
	.st191{fill:#7EAE58;}
	.st192{fill:#6F9850;}
	.st193{fill:#59884A;}
	.st194{fill:#638347;}
	.st195{fill:#B95135;}
	.st196{fill:#E5AB62;}
	.st197{fill:#733228;}
	.st198{fill:#803728;}
	.st199{fill:#6D974D;}
	.st200{fill:#99CD75;}
	.st201{fill:#93412C;}
	.st202{fill:#93C2EA;}
	.st203{fill:#CD926B;}
	.st204{fill:#E6AF8A;}
	.st205{fill:#E5DB4E;}
	.st206{fill:#FBF375;}
	.st207{fill:#779E54;}
	.st208{fill:#D3966D;}
	.st209{fill:#DA4355;}
	.st210{fill:#A83B4D;}
	.st211{fill:none;stroke:#594144;stroke-width:8;stroke-linecap:round;stroke-miterlimit:10;}
	.st212{fill:#E5A855;}
	.st213{fill:#EAC291;}
	.st214{fill:#96C252;}
	.st215{fill:#695055;}
	.st216{fill:#DC9C42;}
	.st217{fill:#8E5C1B;}
	.st218{fill:#F4EB6A;}
	.st219{fill:#CBC049;}
	.st220{fill:none;stroke:#B8E876;stroke-width:15;stroke-linecap:round;stroke-miterlimit:10;}
	.st221{fill:#A36A1C;}
	.st222{fill:#ECC94A;}
	.st223{fill:#91BEDA;}
	.st224{fill:#3D2F32;}
	.st225{fill:#A6394C;}
	.st226{fill:#33292B;}
	.st227{fill:#4F3D42;}
	.st228{fill:#638147;}
	.st229{fill:#CD8321;}
	.st230{fill:#D3CA4A;}
	.st231{fill:#E2A550;}
	.st232{fill:#B75135;}
	.st233{fill:#D4CD77;}
	.st234{fill:#F3EC80;}
	.st235{fill:#46383B;}
	.st236{fill:#82AA61;}
	.st237{fill:#8EBF69;}
	.st238{fill:#3C2E31;}
	.st239{fill:#C49F27;}
	.st240{fill:#D2BF7C;}
	.st241{fill:#F6E18D;}
	.st242{fill:#D6D6D6;}
	.st243{fill:#B5D7F2;}
	.st244{fill:#F1D467;}
	.st245{fill:#739FBD;}
	.st246{fill:#D0946C;}
	.st247{fill:#BE8767;}
	.st248{fill:#D0A829;}
	.st249{fill:#F6DF86;}
	.st250{fill:#EABA8D;}
	.st251{fill:#F0D1B8;}
	.st252{fill:#A5D0F1;}
	.st253{fill:#E3A13F;}
	.st254{fill:#F0FAFF;}
	.st255{fill:#B4D3E3;}
	.st256{fill:#80A5C3;}
	.st257{fill:#87AFD5;}
	.st258{fill:#B1D1E7;}
	.st259{fill:#AED66F;}
	.st260{fill:#91AA61;}
	.st261{fill:#A8384B;}
	.st262{fill:#CD8120;}
	.st263{fill:#E6AD56;}
	.st264{fill:none;stroke:#E6AD56;stroke-width:8;stroke-linecap:round;stroke-miterlimit:10;}
	.st265{fill:#9EBD68;}
	.st266{fill:#AAD16E;}
	.st267{fill:#86656B;}
	.st268{fill:#6D954D;}
	.st269{fill:#98CB75;}
	.st270{fill:#75A251;}
	.st271{fill:#91BD4F;}
	.st272{fill:none;stroke:#B8E078;stroke-width:8;stroke-linecap:round;stroke-miterlimit:10;}
	.st273{fill:none;stroke:#B8E078;stroke-width:8;stroke-linecap:round;stroke-linejoin:round;stroke-miterlimit:10;}
	.st274{fill:#8FBA4E;}
	.st275{fill:#B3E860;}
	.st276{fill:#E7A748;}
	.st277{fill:none;stroke:#B6E676;stroke-width:15;stroke-linecap:round;stroke-miterlimit:10;}
	.st278{fill:#639B53;}
	.st279{fill:#476B9F;}
	.st280{fill:#82B1DE;}
	.st281{fill:#A6533F;}
	.st282{fill:#C28A69;}
	.st283{fill:#64494E;}
	.st284{fill:#77565C;}
	.st285{fill:#4F3C40;}
	.st286{fill:#ECCCB1;}
	.st287{fill:#BF6F5C;}
	.st288{fill:none;stroke:#D4F1A7;stroke-width:10;stroke-linecap:round;stroke-miterlimit:10;}
	.st289{fill:none;stroke:#B8E876;stroke-width:10;stroke-linecap:round;stroke-miterlimit:10;}
	.st290{fill:#47688F;}
	.st291{fill:#3F5B78;}
	.st292{fill:#354E6C;}
	.st293{fill:#DAB12B;}
	.st294{fill:#C8A028;}
	.st295{fill:#F0D15C;}
	.st296{fill:#F8F28B;}
	.st297{fill:#F7F18D;}
	.st298{fill:#DED450;}
	.st299{fill:#F9F155;}
	.st300{fill:#A2CFF4;}
	.st301{fill:none;stroke:#594144;stroke-width:10;stroke-linecap:round;stroke-miterlimit:10;}
	.st302{fill:#F5F0AB;}
	.st303{fill:#496DA1;}
	.st304{fill:#5A85C7;}
	.st305{fill:#D7D7D7;}
	.st306{fill:#ADD3E6;}
	.st307{fill:#98B8C3;}
	.st308{fill:#CDCECF;}
	.st309{fill:#BF4F69;}
	.st310{fill:#A83448;}
	.st311{fill:#A4DAF7;}
	.st312{fill:#81A861;}
	.st313{fill:#82A549;}
	.st314{fill:#B6E676;}
	.st315{fill:#8CBD69;}
	.st316{fill:#ECC62F;}
	.st317{fill:#F4EA80;}
	.st318{fill:#D6AD2B;}
	.st319{fill:#6F9151;}
	.st320{fill:#46699C;}
	.st321{fill:#4A373A;}
	.st322{fill:#89B04C;}
	.st323{fill:#99CC53;}
	.st324{fill:#B1E465;}
	.st325{fill:#E19E3B;}
	.st326{fill:#C05970;}
	.st327{fill:#D95F74;}
	.st328{fill:#74A8DE;}
	.st329{fill:#C47C1E;}
	.st330{fill:#719A51;}
	.st331{fill:#A8D95E;}
	.st332{fill:#D46C53;}
	.st333{fill:#A45340;}
	.st334{fill:#B6594A;}
	.st335{fill:#79A554;}
	.st336{fill:#B6DAF7;}
	.st337{fill:#739F51;}
	.st338{fill:#DDB32B;}
	.st339{fill:#DE8F22;}
	.st340{fill:none;stroke:#46383B;stroke-width:8;stroke-linecap:round;stroke-miterlimit:10;}
	.st341{fill:none;stroke:#3B2F32;stroke-width:8;stroke-linecap:round;stroke-miterlimit:10;}
	.st342{fill:#C8C8C8;}
	.st343{fill:#7F9D49;}
	.st344{fill:#BA5E44;}
	.st345{fill:#92B955;}
	.st346{fill:#D17F6D;}
	.st347{fill:#5D8F4C;}
	.st348{fill:#B75334;}
	.st349{fill:#CA6D57;}
	.st350{fill:#A4574D;}
	.st351{fill:#7FB1E6;}
	.st352{fill:#77A3CD;}
	.st353{fill:#90BA4F;}
	.st354{fill:#5C8F4B;}
	.st355{fill:#ACDE5D;}
	.st356{fill:#6FAC5A;}
	.st357{fill:none;stroke:#9DD055;stroke-width:10;stroke-linecap:round;stroke-miterlimit:10;}
	.st358{fill:#AD5643;}
	.st359{fill:#B96052;}
	.st360{fill:#CB8D84;}
	.st361{fill:#CC6C56;}
	.st362{fill:#DE9A8E;}
	.st363{fill:#D37B6A;}
	.st364{fill:#A87758;}
	.st365{fill:#372A2C;}
	.st366{fill:#B8815C;}
	.st367{fill:#433335;}
	.st368{fill:#2C2325;}
	.st369{fill:#95402B;}
	.st370{fill:#A85441;}
	.st371{fill:#D2C74B;}
	.st372{fill:#B25945;}
	.st373{fill:none;stroke:#594144;stroke-width:15;stroke-linecap:round;stroke-miterlimit:10;}
	.st374{fill:none;stroke:#594144;stroke-width:12;stroke-linecap:round;stroke-miterlimit:10;}
	.st375{fill:#8F473B;}
	.st376{fill:#453538;}
	.st377{fill:#517DAB;}
	.st378{fill:#75A050;}
	.st379{fill:#A5384D;}
	.st380{fill:#CC6075;}
	.st381{fill:#F26B7F;}
	.st382{fill:#C67189;}
	.st383{fill:#B26980;}
	.st384{fill:#D87990;}
	.st385{fill:#F2869B;}
	.st386{fill:#EF8499;}
	.st387{fill:#649CD7;}
	.st388{fill:#639CDB;}
	.st389{fill:#C8ED8D;}
	.st390{fill:#A9DB83;}
	.st391{fill:#9BCF76;}
	.st392{fill:#7EAC58;}
	.st393{fill:#8CC463;}
	.st394{fill:#7FAC5B;}
	.st395{fill:#769C55;}
	.st396{fill:#6A894D;}
	.st397{fill:#769B56;}
	.st398{fill:#9BCC75;}
	.st399{fill:#AF5641;}
	.st400{fill:#F4D576;}
	.st401{fill:#76A055;}
	.st402{fill:#628347;}
	.st403{fill:#4F7B9F;}
	.st404{fill:#466D86;}
	.st405{fill:#4D789C;}
</style>
<g id="BULINE">
	<circle id="XMLID_2943_" class="st4" cx="256" cy="256" r="256"/>
</g>
<g id="Icons">
	<g id="XMLID_4301_">
		<path id="XMLID_4429_" class="st276" d="M459.4,122.3c0,87.1-54.7,161.4-131.6,190.4c-7.9,3-16.1,5.5-24.4,7.5
			c-1.8,0.4-3.5,0.8-5.3,1.2c-12,2.5-24.3,4-37,4.3c-1.7,0.1-3.3,0.1-5,0.1c-7.1,0-14.1-0.4-21-1.1c-5.5-0.6-10.9-1.4-16.3-2.4
			c-2.9-0.5-5.8-1.1-8.7-1.8c-8.8-2-17.3-4.6-25.6-7.7c-0.1,0-0.2-0.1-0.3-0.1C107.2,283.5,52.6,209.3,52.6,122.3
			c0-7.9,0.5-15.7,1.3-23.4c17.7-22.7,39.1-42.3,63.2-58c1.6-5.7,4.9-10.8,9.3-14.6c2.4-2.1,5.2-3.7,8.2-4.9c2.8-1.1,5.9-1.8,9.2-2
			c3.8-0.2,7.5,0.3,11,1.4c1.3-0.6,2.7-1.1,4-1.7C188.8,6.8,221.6,0,256,0c82.1,0,155.3,38.7,202.1,98.9
			C459,106.5,459.4,114.3,459.4,122.3z"/>
		<path id="XMLID_4367_" class="st51" d="M335.7,330.2c0,2.4-0.4,4.8-1.1,7c-3,9.6-11.9,16.5-22.4,16.5c-5.9,0-11.2-2.2-15.3-5.7
			c-5.1,3.9-11.5,6.2-18.4,6.2c-8.5,0-16.1-3.5-21.7-9.1c-5.5,5.6-13.2,9.1-21.7,9.1c-7.3,0-14.1-2.6-19.3-6.9
			c-4.2,4-9.9,6.5-16.2,6.5c-10.5,0-19.4-6.9-22.4-16.5c-0.7-2.2-1.1-4.6-1.1-7c0-13,10.5-23.5,23.5-23.5c3.2,0,6.3,0.6,9.1,1.8
			c5.3-9.1,15.1-15.3,26.4-15.3c8.5,0,16.1,3.5,21.7,9.1c5.5-5.6,13.2-9.1,21.7-9.1c11.1,0,20.8,5.9,26.1,14.7
			c2.4-0.8,4.9-1.3,7.6-1.3C325.1,306.7,335.7,317.2,335.7,330.2z"/>
		<g id="XMLID_4311_">
			<g id="XMLID_4359_">
				<line id="XMLID_4366_" class="st277" x1="391.4" y1="156.1" x2="401.8" y2="157.6"/>
				<path id="XMLID_4365_" class="st278" d="M399.9,146.9c-4.2,12.3-21.8,37.8-36.5,44.9c-3.7,1.7-7.2,2.3-10.2,1.3
					c-15.4-5.2-14.1-49.7-8.9-65.1s21.9-23.6,37.3-18.4c3.1,1,5.8,2.5,8.3,4.4C399.7,121.5,404.1,134.6,399.9,146.9z"/>
				<path id="XMLID_4364_" class="st124" d="M399.9,146.9c-4.2,12.3-21.8,37.8-36.5,44.9c-7.4-14.5-5.8-45.5-1.6-57.8
					s15.7-20,28-19.9C399.7,121.5,404.1,134.6,399.9,146.9z"/>
				<line id="XMLID_4363_" class="st277" x1="398.9" y1="119" x2="390.7" y2="125.5"/>
				<line id="XMLID_4362_" class="st277" x1="366.9" y1="103.1" x2="368.2" y2="113.5"/>
				<line id="XMLID_4361_" class="st277" x1="336.2" y1="129.8" x2="343.8" y2="137.2"/>
				<line id="XMLID_4360_" class="st277" x1="369.1" y1="145.6" x2="370.2" y2="156.1"/>
			</g>
			<g id="XMLID_4346_">
				<line id="XMLID_4358_" class="st277" x1="399.3" y1="233.6" x2="384.3" y2="228.5"/>
				<line id="XMLID_4357_" class="st277" x1="373.8" y1="180" x2="361.9" y2="190.5"/>
				<line id="XMLID_4356_" class="st277" x1="329.5" y1="262.5" x2="332.5" y2="278"/>
				<path id="XMLID_4355_" class="st278" d="M346.8,270.1c-19.6,0.1-64.6-12.4-81.8-29.9c-4.3-4.4-6.9-9-6.9-13.9
					c-0.1-24.4,63.8-44.6,88.2-44.7c24.4-0.1,44.3,19.6,44.5,44c0,4.9-0.7,9.6-2.2,13.9C382.8,257.3,366.3,270,346.8,270.1z"/>
				<path id="XMLID_4354_" class="st124" d="M346.8,270.1c-19.6,0.1-64.6-12.4-81.8-29.9c17-17.7,61.9-30.6,81.5-30.7
					c19.6-0.1,36.2,12.5,42.1,30.1C382.8,257.3,366.3,270,346.8,270.1z"/>
				<line id="XMLID_4353_" class="st277" x1="386" y1="255" x2="372.7" y2="246.5"/>
				<line id="XMLID_4352_" class="st277" x1="392.8" y1="201.5" x2="378.7" y2="208.6"/>
				<line id="XMLID_4351_" class="st277" x1="339.7" y1="171.1" x2="333" y2="185.4"/>
				<line id="XMLID_4350_" class="st277" x1="334.3" y1="219" x2="320" y2="225.7"/>
				<line id="XMLID_4349_" class="st277" x1="286.2" y1="231.6" x2="274.5" y2="220.9"/>
				<line id="XMLID_4348_" class="st277" x1="351.4" y1="259.5" x2="338.2" y2="250.9"/>
				<line id="XMLID_4347_" class="st277" x1="287.5" y1="201.2" x2="284.6" y2="185.7"/>
			</g>
			<g id="XMLID_4338_">
				<line id="XMLID_4345_" class="st277" x1="122" y1="61.5" x2="111.6" y2="60.2"/>
				<path id="XMLID_4395_" class="st278" d="M174.6,55c-1.2,12.4-5.7,30.3-12.5,41.6c-3.7,6.2-8.2,10.4-13.1,10.7
					c-3.2,0.2-6.4-1.3-9.5-4c-2.1-1.9-4.2-4.3-6.2-7.1c-6.9-9.7-12.5-24.1-15.3-35.3c-1-4.1-1.6-7.7-1.8-10.6
					c-0.2-3.3,0.2-6.5,1-9.5c1.6-5.7,4.9-10.8,9.3-14.6c2.4-2.1,5.2-3.7,8.2-4.9c2.8-1.1,5.9-1.8,9.2-2c3.8-0.2,7.5,0.3,11,1.4
					c1,0.3,1.9,0.7,2.8,1.1c9.6,4.4,16.5,13.8,17.2,25.1C175,49.2,174.9,51.9,174.6,55z"/>
				<path id="XMLID_4391_" class="st124" d="M145.6,94c-0.1,0.2-0.2,0.5-0.4,0.7c-1.8,3.4-3.7,6.3-5.8,8.6c-2.1-1.9-4.2-4.3-6.2-7.1
					c-6.9-9.7-12.5-24.1-15.3-35.3c-1-4.1-1.6-7.7-1.8-10.6c-0.2-3.3,0.2-6.5,1-9.5c1.6-5.7,4.9-10.8,9.3-14.6
					c2.4-2.1,5.2-3.7,8.2-4.9c3.4,0.9,6.5,2.4,9.3,4.4c7,5,11.8,13,12.4,22.3C157,58.4,152.8,79.7,145.6,94z"/>
				<line id="XMLID_4342_" class="st277" x1="124.6" y1="23.7" x2="130.8" y2="32.2"/>
				<line id="XMLID_4341_" class="st277" x1="159.7" y1="17" x2="155.6" y2="26.6"/>
				<line id="XMLID_4340_" class="st277" x1="182.1" y1="50.9" x2="172.9" y2="55.9"/>
				<line id="XMLID_4339_" class="st277" x1="146.3" y1="57.3" x2="142.5" y2="67.1"/>
			</g>
			<g id="XMLID_4325_">
				<line id="XMLID_4337_" class="st277" x1="95.8" y1="123.9" x2="111.6" y2="125.3"/>
				<line id="XMLID_4336_" class="st277" x1="140.9" y1="85.2" x2="147.5" y2="99.6"/>
				<line id="XMLID_4335_" class="st277" x1="147.9" y1="178.6" x2="138.9" y2="191.6"/>
				<path id="XMLID_4334_" class="st278" d="M129.1,178.6c17.8,8,64,14.9,86.9,5.8c5.7-2.2,9.9-5.5,11.9-9.9
					c10-22.3-40.3-66.6-62.5-76.6s-48.5-0.1-58.5,22.2c-2,4.4-3.2,9-3.7,13.6C101.3,152.2,111.2,170.6,129.1,178.6z"/>
				<path id="XMLID_4333_" class="st124" d="M129.1,178.6c17.8,8,64,14.9,86.9,5.8c-8.4-23.1-44.2-53.1-62-61.1
					c-17.8-8-38.2-3.2-50.7,10.4C101.3,152.2,111.2,170.6,129.1,178.6z"/>
				<line id="XMLID_4332_" class="st277" x1="99.3" y1="148.8" x2="114.9" y2="146.4"/>
				<line id="XMLID_4331_" class="st277" x1="114.7" y1="97.2" x2="124.8" y2="109.4"/>
				<line id="XMLID_4330_" class="st277" x1="175.6" y1="90.9" x2="175.9" y2="106.7"/>
				<line id="XMLID_4329_" class="st277" x1="161.2" y1="136.9" x2="171.6" y2="148.8"/>
				<line id="XMLID_4328_" class="st277" x1="129.1" y1="167" x2="144.7" y2="164.5"/>
				<line id="XMLID_4327_" class="st277" x1="169.2" y1="193.5" x2="178.2" y2="180.5"/>
				<line id="XMLID_4326_" class="st277" x1="211.1" y1="139.5" x2="220.1" y2="126.5"/>
			</g>
			<g id="XMLID_4312_">
				<line id="XMLID_4324_" class="st277" x1="268.5" y1="65" x2="261.8" y2="84.3"/>
				<line id="XMLID_4323_" class="st277" x1="199" y1="97.6" x2="212.5" y2="112.9"/>
				<line id="XMLID_4322_" class="st277" x1="305.3" y1="155.3" x2="325.4" y2="151.6"/>
				<path id="XMLID_4321_" class="st278" d="M323.6,177.3c0,44.8-18.8,147.9-44.8,187.2c-6.5,9.8-13.4,15.6-20.6,15.6
					c-36.2,0-65.5-146.8-65.5-202.8S222,75.9,258.2,75.9c7.2,0,14.1,1.8,20.6,5.1C304.9,94.4,323.6,132.5,323.6,177.3z"/>
				<path id="XMLID_4320_" class="st124" d="M323.6,177.3c0,44.8-18.8,147.9-44.8,187.2c-26-39.3-44.8-142.3-44.8-187.2
					c0-44.8,18.8-82.9,44.8-96.3C304.9,94.4,323.6,132.5,323.6,177.3z"/>
				<line id="XMLID_4319_" class="st277" x1="296" y1="82.3" x2="284.9" y2="99.4"/>
				<line id="XMLID_4318_" class="st277" x1="227" y1="73.1" x2="236" y2="91.4"/>
				<line id="XMLID_4317_" class="st277" x1="187.3" y1="141.5" x2="205.7" y2="150.3"/>
				<line id="XMLID_4316_" class="st277" x1="249.2" y1="148.9" x2="257.7" y2="167.4"/>
				<line id="XMLID_4315_" class="st277" x1="265.1" y1="211.1" x2="251.3" y2="226.1"/>
				<line id="XMLID_4314_" class="st277" x1="301.6" y1="127" x2="290.4" y2="144"/>
				<line id="XMLID_4313_" class="st277" x1="311.7" y1="188.4" x2="291.6" y2="192.1"/>
			</g>
		</g>
		<path id="XMLID_4310_" class="st2" d="M334.6,337.2c-3,9.6-11.9,16.5-22.4,16.5c-5.9,0-11.2-2.2-15.3-5.7
			c-5.1,3.9-11.5,6.2-18.4,6.2c-8.5,0-16.1-3.5-21.7-9.1c-5.5,5.6-13.2,9.1-21.7,9.1c-7.3,0-14.1-2.6-19.3-6.9
			c-4.2,4-9.9,6.5-16.2,6.5c-10.5,0-19.4-6.9-22.4-16.5c3-9.6,11.9-16.5,22.4-16.5c3.2,0,6.3,0.7,9.1,1.8
			c5.3-9.1,15.1-15.3,26.4-15.3c8.5,0,16.1,3.5,21.7,9.1c5.5-5.6,13.2-9.1,21.7-9.1c11.1,0,20.8,5.9,26.1,14.7
			c2.4-0.8,4.9-1.3,7.6-1.3C322.7,320.7,331.6,327.7,334.6,337.2z"/>
		<g id="XMLID_4302_">
			<path id="XMLID_4309_" class="st279" d="M356.9,347.7c0,4.8-2,9.2-5.1,12.4c-3.1,3.1-7.4,5.1-12.1,5.1H172.4
				c-9.6-0.1-17.3-7.9-17.3-17.5c0-4.8,2-9.2,5.1-12.4c3.2-3.2,7.5-5.1,12.4-5.1h166.8C349,330.2,356.9,338,356.9,347.7z"/>
			<path id="XMLID_4308_" class="st0" d="M339.6,365.2l-5.6,55l-2.2,21.6l-4.5,43.8c-0.8,8.2-7.7,14.4-15.9,14.4H200.7
				c-8.2,0-15.1-6.2-15.9-14.4l-4.5-43.8l-2.2-21.6l-5.6-55H339.6z"/>
			<polygon id="XMLID_4307_" class="st6" points="334,420.2 331.7,441.9 180.3,441.9 178,420.2 			"/>
			<path id="XMLID_4306_" class="st0" d="M356.9,347.7c0,4.8-2,9.2-5.1,12.4c-3.1,3.1-7.4,5.1-12.1,5.1H227.7
				c-9.6-0.1-17.3-7.9-17.3-17.5c0-4.8,2-9.2,5.1-12.4c3.2-3.2,7.5-5.1,12.4-5.1h111.5C349,330.2,356.9,338,356.9,347.7z"/>
			<path id="XMLID_4305_" class="st10" d="M339.6,365.2l-5.6,55l-2.2,21.6l-4.5,43.8c-0.8,8.2-7.7,14.4-15.9,14.4h-55.4
				c-8.2,0-15.1-6.2-15.9-14.4l-4.5-43.8l-2.2-21.6l-5.6-55H339.6z"/>
			<polygon id="XMLID_4304_" class="st5" points="334,420.2 331.7,441.9 235.5,441.9 233.3,420.2 			"/>
			<path id="XMLID_4303_" class="st280" d="M332.7,356.7h-32.6c-5.3,0-9.5-4.3-9.5-9.5l0,0c0-5.3,4.3-9.5,9.5-9.5h32.6
				c5.3,0,9.5,4.3,9.5,9.5l0,0C342.2,352.5,337.9,356.7,332.7,356.7z"/>
		</g>
	</g>
</g>
</svg>
