<?xml version="1.0" encoding="utf-8"?>
<!-- Generator: Adobe Illustrator 22.0.1, SVG Export Plug-In . SVG Version: 6.00 Build 0)  -->
<svg version="1.1" xmlns="http://www.w3.org/2000/svg" xmlns:xlink="http://www.w3.org/1999/xlink" x="0px" y="0px"
	 viewBox="0 0 512 512" style="enable-background:new 0 0 512 512;" xml:space="preserve">
<style type="text/css">
	.st0{fill:#4B71B4;}
	.st1{fill:#80B4E8;}
	.st2{fill:#594144;}
	.st3{fill:#B8E876;}
	.st4{fill:#E09122;}
	.st5{fill:#FBF355;}
	.st6{fill:#EEC82F;}
	.st7{fill:#CEA628;}
	.st8{fill:#9BC9EF;}
	.st9{fill:#9DD055;}
	.st10{fill:#5686C5;}
	.st11{fill:#3B5880;}
	.st12{fill:#C2E5FB;}
	.st13{fill:#446697;}
	.st14{fill:#D1F1A0;}
	.st15{fill:#ABD170;}
	.st16{fill:#9DBD6A;}
	.st17{fill:#649D53;}
	.st18{fill:#72B35D;}
	.st19{fill:#ABD68D;}
	.st20{fill:#7FB358;}
	.st21{fill:#920C50;}
	.st22{fill:#C60053;}
	.st23{fill:#530730;}
	.st24{fill:#600332;}
	.st25{fill:#D5AC2A;}
	.st26{fill:#EFD776;}
	.st27{fill:#A7C76D;}
	.st28{fill:#A43749;}
	.st29{fill:#DC4355;}
	.st30{fill:#E18696;}
	.st31{fill:#77A255;}
	.st32{fill:#628547;}
	.st33{fill:#6E994D;}
	.st34{fill:none;stroke:#54743C;stroke-width:8;stroke-linecap:round;stroke-miterlimit:10;}
	.st35{fill:#9BCF75;}
	.st36{fill:#CA8F80;}
	.st37{fill:#E6B8AB;}
	.st38{fill:#E2A18B;}
	.st39{fill:#8E3F2B;}
	.st40{fill:#D89988;}
	.st41{fill:#CFCFCF;}
	.st42{fill:#A64B2D;}
	.st43{fill:#FFFFFF;}
	.st44{fill:#CA801F;}
	.st45{fill:#719C50;}
	.st46{fill:#85B7E5;}
	.st47{fill:#4F7BA9;}
	.st48{fill:#674C50;}
	.st49{fill:#BAD7ED;}
	.st50{fill:#63494D;}
	.st51{fill:#503D3F;}
	.st52{fill:#638547;}
	.st53{fill:#56713E;}
	.st54{fill:#BB5135;}
	.st55{fill:#93C4EC;}
	.st56{fill:#CA8121;}
	.st57{fill:#FDFCFC;}
	.st58{fill:#A83A4F;}
	.st59{fill:#BD5E44;}
	.st60{fill:#688C4A;}
	.st61{fill:#7DA55A;}
	.st62{fill:#90BA51;}
	.st63{fill:none;}
	.st64{fill:#ABC287;}
	.st65{fill:#BDD993;}
	.st66{fill:none;stroke:#534046;stroke-width:15;stroke-linecap:round;stroke-linejoin:round;stroke-miterlimit:10;}
	.st67{fill:#413133;}
	.st68{fill:#34292B;}
	.st69{fill:#644B50;}
	.st70{fill:#CDACB7;}
	.st71{fill:#A83A4D;}
	.st72{fill:#413335;}
	.st73{fill:#DC6579;}
	.st74{fill:#4C393C;}
	.st75{fill:#527FAE;}
	.st76{fill:#92C2EA;}
	.st77{fill:#5B8C4A;}
	.st78{fill:#729C51;}
	.st79{fill:#AADB5E;}
	.st80{fill:#D66C53;}
	.st81{fill:#A65340;}
	.st82{fill:#B8594A;}
	.st83{fill:#79A754;}
	.st84{fill:#4E3B3E;}
	.st85{fill:#5E4649;}
	.st86{fill:#604A50;}
	.st87{fill:#685258;}
	.st88{fill:#765E66;}
	.st89{fill:#FCF69A;}
	.st90{fill:#D3CC84;}
	.st91{fill:#E6A572;}
	.st92{fill:#74A151;}
	.st93{fill:#6F994F;}
	.st94{fill:#CC6D7D;}
	.st95{fill:#AD6576;}
	.st96{fill:#95422D;}
	.st97{fill:#BE6850;}
	.st98{fill:#3B2F32;}
	.st99{fill:none;stroke:#46383B;stroke-width:15;stroke-linecap:round;stroke-miterlimit:10;}
	.st100{fill:none;stroke:#3B2F32;stroke-width:15;stroke-linecap:round;stroke-miterlimit:10;}
	.st101{fill:#D6CF77;}
	.st102{fill:#F5EF82;}
	.st103{fill:#4A383B;}
	.st104{fill:#CACACA;}
	.st105{fill:#48373A;}
	.st106{fill:#7AA8D2;}
	.st107{fill:#6E9150;}
	.st108{fill:#587441;}
	.st109{fill:#D76E51;}
	.st110{fill:#CCC475;}
	.st111{fill:#DDD57E;}
	.st112{fill:#F8F19C;}
	.st113{fill:#FBF58A;}
	.st114{fill:#C67F20;}
	.st115{fill:#AB6B1C;}
	.st116{fill:#C98020;}
	.st117{fill:#D99A41;}
	.st118{fill:#DBA35B;}
	.st119{fill:#9B5F1B;}
	.st120{fill:#97CF6D;}
	.st121{fill:#5380B1;}
	.st122{fill:#96D16A;}
	.st123{fill:#92BD50;}
	.st124{fill:#7EB058;}
	.st125{fill:#709A50;}
	.st126{fill:#5A8A4A;}
	.st127{fill:#D9D9D9;}
	.st128{fill:#75A3CD;}
	.st129{fill:#6E974F;}
	.st130{fill:#CA6D7D;}
	.st131{fill:#AB6576;}
	.st132{fill:#93422D;}
	.st133{fill:#A44B2D;}
	.st134{fill:#BC6850;}
	.st135{fill:#DFB52B;}
	.st136{fill:#4C3A3C;}
	.st137{fill:#473538;}
	.st138{fill:#382B2E;}
	.st139{fill:none;stroke:#FFFFFF;stroke-width:8;stroke-linecap:round;stroke-miterlimit:10;}
	.st140{fill:#90C0E8;}
	.st141{fill:none;stroke:#E09122;stroke-width:12;stroke-linecap:round;stroke-miterlimit:10;}
	.st142{fill:#DCAE2B;}
	.st143{fill:#F0D05A;}
	.st144{fill:#729E51;}
	.st145{fill:#E4BA36;}
	.st146{fill:#F8F283;}
	.st147{fill:#E4B6A9;}
	.st148{fill:#D78E30;}
	.st149{fill:#598A49;}
	.st150{fill:#B65339;}
	.st151{fill:#BA751F;}
	.st152{fill:#466A9F;}
	.st153{fill:#8BB34D;}
	.st154{fill:#9BCE54;}
	.st155{fill:#7F9F49;}
	.st156{fill:#D37F6D;}
	.st157{fill:#BB5E44;}
	.st158{fill:#93BB55;}
	.st159{fill:#B3E665;}
	.st160{fill:none;stroke:#4C393C;stroke-width:8;stroke-miterlimit:10;}
	.st161{fill:#97432D;}
	.st162{fill:#DAB12A;}
	.st163{fill:#5E914C;}
	.st164{fill:#5381B3;}
	.st165{fill:#6A8F4C;}
	.st166{fill:#628047;}
	.st167{fill:#E29D37;}
	.st168{fill:#6E555B;}
	.st169{fill:#91CA67;}
	.st170{fill:#476BA1;}
	.st171{fill:#6699D9;}
	.st172{fill:#503C3E;}
	.st173{fill:#413235;}
	.st174{fill:#CC916A;}
	.st175{fill:#BA8363;}
	.st176{fill:#D09571;}
	.st177{fill:#C98F68;}
	.st178{fill:#AA3B4D;}
	.st179{fill:#DA6075;}
	.st180{fill:#92452D;}
	.st181{fill:#A24B2D;}
	.st182{fill:#B76252;}
	.st183{fill:#87BD60;}
	.st184{fill:#78A7D2;}
	.st185{fill:#F9F38F;}
	.st186{fill:#E0D650;}
	.st187{fill:#AFE086;}
	.st188{fill:#9FD476;}
	.st189{fill:#9DD176;}
	.st190{fill:#8FC468;}
	.st191{fill:#7EAE58;}
	.st192{fill:#6F9850;}
	.st193{fill:#59884A;}
	.st194{fill:#638347;}
	.st195{fill:#B95135;}
	.st196{fill:#E5AB62;}
	.st197{fill:#733228;}
	.st198{fill:#803728;}
	.st199{fill:#6D974D;}
	.st200{fill:#99CD75;}
	.st201{fill:#93412C;}
	.st202{fill:#93C2EA;}
	.st203{fill:#CD926B;}
	.st204{fill:#E6AF8A;}
	.st205{fill:#E5DB4E;}
	.st206{fill:#FBF375;}
	.st207{fill:#779E54;}
	.st208{fill:#D3966D;}
	.st209{fill:#DA4355;}
	.st210{fill:#A83B4D;}
	.st211{fill:none;stroke:#594144;stroke-width:8;stroke-linecap:round;stroke-miterlimit:10;}
	.st212{fill:#E5A855;}
	.st213{fill:#EAC291;}
	.st214{fill:#96C252;}
	.st215{fill:#695055;}
	.st216{fill:#DC9C42;}
	.st217{fill:#8E5C1B;}
	.st218{fill:#F4EB6A;}
	.st219{fill:#CBC049;}
	.st220{fill:none;stroke:#B8E876;stroke-width:15;stroke-linecap:round;stroke-miterlimit:10;}
	.st221{fill:#A36A1C;}
	.st222{fill:#ECC94A;}
	.st223{fill:#91BEDA;}
	.st224{fill:#3D2F32;}
	.st225{fill:#A6394C;}
	.st226{fill:#33292B;}
	.st227{fill:#4F3D42;}
	.st228{fill:#638147;}
	.st229{fill:#CD8321;}
	.st230{fill:#D3CA4A;}
	.st231{fill:#E2A550;}
	.st232{fill:#B75135;}
	.st233{fill:#D4CD77;}
	.st234{fill:#F3EC80;}
	.st235{fill:#46383B;}
	.st236{fill:#82AA61;}
	.st237{fill:#8EBF69;}
	.st238{fill:#3C2E31;}
	.st239{fill:#C49F27;}
	.st240{fill:#D2BF7C;}
	.st241{fill:#F6E18D;}
	.st242{fill:#D6D6D6;}
	.st243{fill:#B5D7F2;}
	.st244{fill:#F1D467;}
	.st245{fill:#739FBD;}
	.st246{fill:#D0946C;}
	.st247{fill:#BE8767;}
	.st248{fill:#D0A829;}
	.st249{fill:#F6DF86;}
	.st250{fill:#EABA8D;}
	.st251{fill:#F0D1B8;}
	.st252{fill:#A5D0F1;}
	.st253{fill:#E3A13F;}
	.st254{fill:#F0FAFF;}
	.st255{fill:#B4D3E3;}
	.st256{fill:#80A5C3;}
	.st257{fill:#87AFD5;}
	.st258{fill:#B1D1E7;}
	.st259{fill:#AED66F;}
	.st260{fill:#91AA61;}
	.st261{fill:#A8384B;}
	.st262{fill:#CD8120;}
	.st263{fill:#E6AD56;}
	.st264{fill:none;stroke:#E6AD56;stroke-width:8;stroke-linecap:round;stroke-miterlimit:10;}
	.st265{fill:#9EBD68;}
	.st266{fill:#AAD16E;}
	.st267{fill:#86656B;}
	.st268{fill:#6D954D;}
	.st269{fill:#98CB75;}
	.st270{fill:#75A251;}
	.st271{fill:#91BD4F;}
	.st272{fill:none;stroke:#B8E078;stroke-width:8;stroke-linecap:round;stroke-miterlimit:10;}
	.st273{fill:none;stroke:#B8E078;stroke-width:8;stroke-linecap:round;stroke-linejoin:round;stroke-miterlimit:10;}
	.st274{fill:#8FBA4E;}
	.st275{fill:#B3E860;}
	.st276{fill:#E7A748;}
	.st277{fill:none;stroke:#B6E676;stroke-width:15;stroke-linecap:round;stroke-miterlimit:10;}
	.st278{fill:#639B53;}
	.st279{fill:#476B9F;}
	.st280{fill:#82B1DE;}
	.st281{fill:#A6533F;}
	.st282{fill:#C28A69;}
	.st283{fill:#64494E;}
	.st284{fill:#77565C;}
	.st285{fill:#4F3C40;}
	.st286{fill:#ECCCB1;}
	.st287{fill:#BF6F5C;}
	.st288{fill:none;stroke:#D4F1A7;stroke-width:10;stroke-linecap:round;stroke-miterlimit:10;}
	.st289{fill:none;stroke:#B8E876;stroke-width:10;stroke-linecap:round;stroke-miterlimit:10;}
	.st290{fill:#47688F;}
	.st291{fill:#3F5B78;}
	.st292{fill:#354E6C;}
	.st293{fill:#DAB12B;}
	.st294{fill:#C8A028;}
	.st295{fill:#F0D15C;}
	.st296{fill:#F8F28B;}
	.st297{fill:#F7F18D;}
	.st298{fill:#DED450;}
	.st299{fill:#F9F155;}
	.st300{fill:#A2CFF4;}
	.st301{fill:none;stroke:#594144;stroke-width:10;stroke-linecap:round;stroke-miterlimit:10;}
	.st302{fill:#F5F0AB;}
	.st303{fill:#496DA1;}
	.st304{fill:#5A85C7;}
	.st305{fill:#D7D7D7;}
	.st306{fill:#ADD3E6;}
	.st307{fill:#98B8C3;}
	.st308{fill:#CDCECF;}
	.st309{fill:#BF4F69;}
	.st310{fill:#A83448;}
	.st311{fill:#A4DAF7;}
	.st312{fill:#81A861;}
	.st313{fill:#82A549;}
	.st314{fill:#B6E676;}
	.st315{fill:#8CBD69;}
	.st316{fill:#ECC62F;}
	.st317{fill:#F4EA80;}
	.st318{fill:#D6AD2B;}
	.st319{fill:#6F9151;}
	.st320{fill:#46699C;}
	.st321{fill:#4A373A;}
	.st322{fill:#89B04C;}
	.st323{fill:#99CC53;}
	.st324{fill:#B1E465;}
	.st325{fill:#E19E3B;}
	.st326{fill:#C05970;}
	.st327{fill:#D95F74;}
	.st328{fill:#74A8DE;}
	.st329{fill:#C47C1E;}
	.st330{fill:#719A51;}
	.st331{fill:#A8D95E;}
	.st332{fill:#D46C53;}
	.st333{fill:#A45340;}
	.st334{fill:#B6594A;}
	.st335{fill:#79A554;}
	.st336{fill:#B6DAF7;}
	.st337{fill:#739F51;}
	.st338{fill:#DDB32B;}
	.st339{fill:#DE8F22;}
	.st340{fill:none;stroke:#46383B;stroke-width:8;stroke-linecap:round;stroke-miterlimit:10;}
	.st341{fill:none;stroke:#3B2F32;stroke-width:8;stroke-linecap:round;stroke-miterlimit:10;}
	.st342{fill:#C8C8C8;}
	.st343{fill:#7F9D49;}
	.st344{fill:#BA5E44;}
	.st345{fill:#92B955;}
	.st346{fill:#D17F6D;}
	.st347{fill:#5D8F4C;}
	.st348{fill:#B75334;}
	.st349{fill:#CA6D57;}
	.st350{fill:#A4574D;}
	.st351{fill:#7FB1E6;}
	.st352{fill:#77A3CD;}
	.st353{fill:#90BA4F;}
	.st354{fill:#5C8F4B;}
	.st355{fill:#ACDE5D;}
	.st356{fill:#6FAC5A;}
	.st357{fill:none;stroke:#9DD055;stroke-width:10;stroke-linecap:round;stroke-miterlimit:10;}
	.st358{fill:#AD5643;}
	.st359{fill:#B96052;}
	.st360{fill:#CB8D84;}
	.st361{fill:#CC6C56;}
	.st362{fill:#DE9A8E;}
	.st363{fill:#D37B6A;}
	.st364{fill:#A87758;}
	.st365{fill:#372A2C;}
	.st366{fill:#B8815C;}
	.st367{fill:#433335;}
	.st368{fill:#2C2325;}
	.st369{fill:#95402B;}
	.st370{fill:#A85441;}
	.st371{fill:#D2C74B;}
	.st372{fill:#B25945;}
	.st373{fill:none;stroke:#594144;stroke-width:15;stroke-linecap:round;stroke-miterlimit:10;}
	.st374{fill:none;stroke:#594144;stroke-width:12;stroke-linecap:round;stroke-miterlimit:10;}
	.st375{fill:#8F473B;}
	.st376{fill:#453538;}
	.st377{fill:#517DAB;}
	.st378{fill:#75A050;}
	.st379{fill:#A5384D;}
	.st380{fill:#CC6075;}
	.st381{fill:#F26B7F;}
	.st382{fill:#C67189;}
	.st383{fill:#B26980;}
	.st384{fill:#D87990;}
	.st385{fill:#F2869B;}
	.st386{fill:#EF8499;}
	.st387{fill:#649CD7;}
	.st388{fill:#639CDB;}
	.st389{fill:#C8ED8D;}
	.st390{fill:#A9DB83;}
	.st391{fill:#9BCF76;}
	.st392{fill:#7EAC58;}
	.st393{fill:#8CC463;}
	.st394{fill:#7FAC5B;}
	.st395{fill:#769C55;}
	.st396{fill:#6A894D;}
	.st397{fill:#769B56;}
	.st398{fill:#9BCC75;}
	.st399{fill:#AF5641;}
	.st400{fill:#F4D576;}
	.st401{fill:#76A055;}
	.st402{fill:#628347;}
	.st403{fill:#4F7B9F;}
	.st404{fill:#466D86;}
	.st405{fill:#4D789C;}
</style>
<g id="BULINE">
	<circle id="XMLID_989_" class="st1" cx="256" cy="256" r="256"/>
</g>
<g id="Icons">
	<g id="XMLID_990_">
		<path id="XMLID_1354_" class="st10" d="M512,259.3c-0.1,7.9-0.6,15.7-1.4,23.5c-0.2,1.4-0.3,2.9-0.5,4.3
			c-2.3,18.8-6.6,37.1-12.7,54.4c-8.1,23-19.5,44.5-33.5,64c-4,5.6-8.3,11-12.7,16.2c-1.2,1.5-2.5,2.9-3.8,4.4
			c-4.3,4.8-8.8,9.5-13.4,14c-1.7,1.7-3.5,3.3-5.3,5c-35.7,32.6-80.7,55.3-130.5,63.6c-13.7,2.3-27.8,3.5-42.2,3.5
			c-8.8,0-17.6-0.4-26.2-1.3c-23.2-2.4-45.6-7.8-66.5-16c-0.2-0.1-0.4-0.1-0.6-0.2c-14.5-5.7-28.3-12.6-41.3-20.7
			c-7-4.3-13.8-9-20.3-14c-0.9-0.7-1.8-1.4-2.7-2.1c-11.4-8.9-22-18.8-31.8-29.5c-0.1-0.2-0.3-0.3-0.4-0.5
			c-25.3-28-44.6-61.6-55.6-98.8c-6.3-21.3-9.9-43.7-10.5-66.9c61.4-5.7,123.3-9.4,185.6-11.2c5.5-0.2,11.1-0.3,16.6-0.4
			c5.6-0.1,11.3-0.2,16.9-0.3c6.5-0.1,12.9-0.2,19.4-0.3h0c0.6,0,1.3,0,1.9,0c6.8-0.1,13.6-0.1,20.4-0.1c26.6-0.1,53.3,0.2,80.1,0.8
			c5.7,0.1,11.4,0.3,17.1,0.4c0.3,0,0.7,0,1,0c4.1,0.1,8.2,0.2,12.3,0.4c2.1,0.1,4.3,0.2,6.4,0.2C422.3,253.2,467.1,255.8,512,259.3
			z"/>
		<path id="XMLID_1293_" class="st75" d="M453.1,401.1l-22.8,3.6l-7.9,1.2l-34.1,5.5l-10.8,1.7l-6.5,1l-34,5.4l-78.5,12.5l-4.9,0.8
			L165.5,447l-4.9,0.8l-55.2,8.8c0,0,0,0,0,0l-6.9,1.1c-11.4-8.9-22-18.8-31.8-29.5c-0.1-0.2-0.3-0.3-0.4-0.5
			c-25.3-28-44.6-61.6-55.6-98.8c7.5-8.2,17.4-14.6,30.2-18.3c0,0,62.8-24.2,145-35.7c8.4-1.2,17-2.2,25.8-3.1
			c5.5-0.5,11-1,16.5-1.4c0.5,0,0.9-0.1,1.4-0.1c2.5-0.2,5.1-0.3,7.7-0.5c4.9-0.3,9.8-0.5,14.8-0.6c3-0.1,6.1-0.2,9.1-0.2
			c13.2-0.2,26.7,0.2,40.1,1.2c4.4,0.3,5.2,6.5,1,7.9l-37.1,12.5l-3.9,1.3l-8.1,2.7c-1.4,0.5-2.2,1.6-2.4,2.8c-0.3,2,1,4.2,3.5,4.2
			l4.5,0.1l13.5,0.1l43.4,0.5l32.5,0.3l17.1,0.2l0.9,0l18.5,0.2l6.3,9l4.1,5.9l17.1,24.3l22,31.3L453.1,401.1z"/>
		<path id="XMLID_1163_" class="st76" d="M423.1,165.6c0-17.9-14.5-32.3-32.3-32.3c-5,0-9.7,1.1-13.9,3.2
			c-6.9-8.6-17.6-14.1-29.5-14.1c-16.9,0-31.2,11.1-36,26.3c-1.9-0.5-3.9-0.7-5.9-0.7c-13.8,0-25,11.2-25,25c0,13.8,11.2,25,25,25
			h85.9v0C409,197.6,423.1,183.3,423.1,165.6z"/>
		<path id="XMLID_1193_" class="st9" d="M171.7,419.8c1.4,4.9,5,10.1,3.6,14.4c-1.5,4.6-7.9,6.7-11.8,9.9c-0.8,0.6-1.4,1.3-2,2
			c-0.4,0.5-0.7,1.1-1,1.7c-2.2,4.8-2,12.1-6.1,15c-4.5,3.3-12.7-0.2-18.1,1.5c-0.2,0-0.3,0.1-0.4,0.2c-4.9,1.9-9.2,8.8-14.5,9.2
			c-7-4.3-13.8-9-20.3-14c-0.9-0.7-1.8-1.4-2.7-2.1c-11.4-8.9-22-18.8-31.8-29.5c0.1-0.3,0.2-0.6,0.3-0.9c1.3-3.6,3.5-7.4,3.5-11
			c0-5.8-5.9-12.5-4.2-17.7c1.8-5.4,10.5-7.4,13.8-11.9c3.3-4.6,2.5-13.5,7.1-16.8c4.5-3.3,12.7,0.2,18.1-1.5
			c5.2-1.7,9.8-9.4,15.6-9.4c5.6,0,10.1,7.3,15.1,9.3c0.1,0.1,0.3,0.1,0.4,0.2c1.1,0.3,2.2,0.5,3.4,0.5c5,0.1,11.1-1.6,14.7,1
			c4.6,3.3,3.7,12.2,7.1,16.8c0,0,0.1,0.1,0.1,0.1c3.4,4.4,12,6.4,13.7,11.8c1.7,5.2-4.2,11.9-4.2,17.7
			C171.2,417.5,171.4,418.6,171.7,419.8z"/>
		<path id="XMLID_1161_" class="st20" d="M273.2,389.2c0,7.4,7.5,15.8,5.3,22.5c-2.2,6.9-13.3,9.3-17.5,15.1
			c-4.2,5.8-3.2,17.1-8.9,21.3c-5.7,4.2-16.1-0.3-23,1.9c-0.2,0.1-0.4,0.1-0.5,0.2c-6.4,2.5-12,11.7-19.2,11.7
			c-7.4,0-13.1-9.8-19.7-11.9c-6.9-2.2-17.3,2.2-23-1.9c-5.8-4.2-4.7-15.5-8.9-21.3c-4.2-5.7-15.2-8.2-17.5-15.1
			c-2.2-6.6,5.3-15.1,5.3-22.5c0-7.4-7.5-15.8-5.3-22.5c2.2-6.9,13.3-9.3,17.5-15.1c4.2-5.8,3.2-17.1,8.9-21.3
			c5.7-4.2,16.1,0.3,23-1.9c6.6-2.2,12.4-11.9,19.7-11.9c7.2,0,12.8,9.2,19.2,11.7c0.2,0.1,0.4,0.1,0.5,0.2c6.9,2.2,17.3-2.2,23,1.9
			c5.8,4.2,4.7,15.5,8.9,21.3c4.2,5.7,15.2,8.2,17.5,15.1C280.6,373.4,273.2,381.8,273.2,389.2z"/>
		<path id="XMLID_1258_" class="st45" d="M510.1,287c-2.3,18.8-6.6,37.1-12.7,54.4c-8.1,23-19.5,44.5-33.5,64
			c-0.8,0.3-1.5,0.6-2.2,0.9c-0.3,0.1-0.6,0.3-0.9,0.5c-4.9,2.4-9.2,6.3-13.6,10.1c-4.7,4-9.4,8-15.3,10c-0.7,0.2-1.4,0.5-2.2,0.6
			c-0.2,0-0.3,0.1-0.5,0.1c-4.5,1-8.9,0.7-13.3-0.2c-1.9-0.4-3.7-0.8-5.6-1.3c-6.5-1.8-12.9-3.9-19.2-3.9c-0.1,0-0.3,0-0.4,0
			c-3.6,0.1-7.5,0.8-11.5,1.9c-1.7,0.4-3.4,0.9-5.2,1.4c-1.9,0.5-3.7,1-5.5,1.5c-7.1,1.9-14.1,3.5-19.5,2.4c-0.5-0.1-1-0.2-1.5-0.4
			c-5-1.6-7.9-5.4-10.5-9.4c-2.6-4-5.1-8.1-9.4-10.4c-8.9-4.7-29.4-3-35.2-9.8c-3.8-4.5,0.2-11.7,2.5-18.4c1.1-3.2,1.9-6.3,1.3-8.9
			c-0.2-1.1-0.7-2.1-1.3-3.1c-1.7-2.7-4.5-5.2-7.2-7.8c-0.4-0.4-0.8-0.8-1.2-1.2c-3.6-3.5-6.5-7-5.5-11c0-0.1,0.1-0.3,0.1-0.4
			c0.9-2.7,3.4-5.3,6.7-7.8c2-1.5,4.2-3,6.5-4.6c5.6-3.7,11.4-7.3,14.3-11.2c4.9-6.6,2.8-15.8,6.7-22.8c0.9-1.7,2.2-3.3,4-4.6
			c6.1-4.6,16.7-5.8,26.6-7.6c4.1-0.7,8.1-1.6,11.5-2.8c0.9-0.3,1.8-0.7,2.6-1c1-0.5,2.1-1,3.1-1.6c3-1.8,5.9-4.1,8.7-6.6
			c3.3-2.9,6.6-5.9,10.2-8.3c3.2-2.2,6.6-4,10.5-4.8c12.9-2.9,25.3,5.2,37.4,5.4c0.3,0,0.7,0,1,0c12.9-0.3,30.4-9.5,41.8-7.1
			c10.8,2.2,12.2,13.8,19.8,19.2c0,0,0,0,0,0c0.5,0.4,1,0.7,1.6,1C498.1,285.3,504.1,286.2,510.1,287z"/>
		<path id="XMLID_1203_" class="st77" d="M510.6,282.7c-0.2,1.4-0.3,2.9-0.5,4.3c-2.3,18.8-6.6,37.1-12.7,54.4
			c-8.1,23-19.5,44.5-33.5,64c-4,5.6-8.3,11-12.7,16.2c-1.6-1.4-2.8-3-4-4.8c-2.5-3.7-4.7-7.7-8.7-9.8c-2.1-1.1-5.1-1.8-8.2-2.4
			c-2.8-0.5-5.8-0.8-8.7-1.3c-4.9-0.7-9.6-1.7-12.4-3.7c-0.5-0.3-0.9-0.7-1.3-1.2c-2.4-2.9-1.2-7.1,0.5-11.4
			c1.6-4.3,3.6-8.7,2.8-12.3c0,0,0,0,0,0c-0.2-1.1-0.8-2.1-1.5-3.2c-1.9-2.8-5-5.3-7.6-8c-2.8-2.8-4.9-5.7-4.1-8.8
			c0.6-2.4,2.8-4.7,5.6-6.9c2.4-1.9,5.3-3.8,8.2-5.7c4.1-2.7,8.1-5.4,10.2-8.2c5.3-7.1,1.2-17.7,9.3-23.8c8-6.1,25.2-5.4,35.4-10
			c9.2-4.1,15.7-14.4,25.8-17.9c0,0,0,0,0,0c0.8-0.3,1.5-0.5,2.4-0.7C500.3,280.4,505.5,281.4,510.6,282.7z"/>
		<g id="XMLID_1078_">
			<path id="XMLID_1158_" class="st78" d="M270.8,22.9c0,0-6.6,5.4-17,10.4c-11.3,5.4-27.1,10.4-43.6,7.5l-14.8-11.3l-0.8,17.1
				c0,0-0.7,0.4-2,1c-1,0.5-2.5,1.2-4.2,2c-12.6,5.9-41.4,17.8-56.1,12.5c0,0,0.3-1.4,1.1-3.8c0,0,0,0,0,0
				C139.2,41.1,169.1-26.8,270.8,22.9z"/>
			<path id="XMLID_1157_" class="st79" d="M164,63.3c-3.7,3.4-9.5,5.6-16,7.2c-20,4.6-47.5,2.2-47.5,2.2l-7.3-15.5l-9.3,16.1
				C62.6,86.5,36.3,83,25.7,80.8c-3-0.6-4.7-1.1-4.7-1.1C106.5-16.6,164,63.3,164,63.3z"/>
			<path id="XMLID_1156_" class="st9" d="M148,70.5c-20,4.6-47.5,2.2-47.5,2.2l-7.3-15.5l-9.3,16.1C62.6,86.5,36.3,83,25.7,80.8
				C86.6,23.2,131.3,54.1,148,70.5z"/>
			<g id="XMLID_1098_">
				<path id="XMLID_1155_" class="st59" d="M232.7,280.9c-0.1,0-0.1,0-0.2-0.1l-19.6-5.8c2.4,5.3,4.8,10.7,7.3,16l18.8,3.1
					C236.8,289.7,234.7,285.3,232.7,280.9z"/>
				<path id="XMLID_1154_" class="st59" d="M171,107.9c-1-3.7-1.9-7.3-2.9-11c-3.9,2.8-9.1,3.5-13.6,1.5l-2.6-1.1
					c0.9,3.7,1.9,7.3,2.8,10.9l4.4,1.3C163.2,110.7,167.5,110.1,171,107.9z"/>
				<path id="XMLID_1153_" class="st59" d="M185.7,158.4c-1.2-3.7-2.3-7.3-3.4-11c-3.3,1.2-7,1.2-10.3-0.3l-7.3-3.1
					c1.2,4.2,2.5,8.4,3.8,12.5l7.8,2.3C179.4,159.7,182.7,159.6,185.7,158.4z"/>
				<path id="XMLID_1151_" class="st59" d="M193.4,182c-1.4-4.3-2.9-8.5-4.3-12.8c-3.6,1.7-7.8,1.9-11.6,0.3l-5.8-2.5
					c1.2,3.9,2.5,7.8,3.8,11.7l10.6,3.1C188.6,182.4,191,182.5,193.4,182z"/>
				<path id="XMLID_1150_" class="st59" d="M244.1,304.9l-20.2-6c2.8,5.8,5.6,11.5,8.5,17.2l19,3.2
					C248.9,314.5,246.5,309.7,244.1,304.9z"/>
				<path id="XMLID_1149_" class="st59" d="M218.7,249.1c-1.5-3.6-3-7.2-4.4-10.7c-0.9-0.1-1.7-0.2-2.6-0.5l-16.5-4.9
					c1.7,4.4,3.5,8.8,5.3,13.1l16.9,2.8C217.8,249,218.3,249.1,218.7,249.1z"/>
				<path id="XMLID_1148_" class="st59" d="M223.3,259.9c-1.1,0-2.3-0.2-3.4-0.6l-15.9-4.7c1.7,4.2,3.5,8.3,5.3,12.4l18.5,3.1
					C226.3,266.7,224.8,263.3,223.3,259.9z"/>
				<path id="XMLID_1147_" class="st59" d="M256.9,329.8l-20.7-6.1c2.5,4.8,5,9.6,7.6,14.4l19.3,3.2
					C261.1,337.5,259,333.6,256.9,329.8z"/>
				<path id="XMLID_1146_" class="st59" d="M200.3,201.8c-1.1-3-2.2-6-3.2-9c-3.1,1-6.5,0.9-9.6-0.5l-8.5-3.7
					c1.3,3.8,2.6,7.7,4,11.5l11.6,1.9C196.5,202.3,198.5,202.3,200.3,201.8z"/>
				<path id="XMLID_1145_" class="st59" d="M165.4,86c-0.4-1.6-0.8-3.3-1.2-4.9l-15.3,4.2c0.1,0.4,0.2,0.9,0.3,1.3l4,1.2
					C157.4,89,161.8,88.4,165.4,86z"/>
				<path id="XMLID_1143_" class="st59" d="M269.4,352.4c-0.6-0.1-1.1-0.2-1.7-0.4l-19.4-5.7c2.4,4.4,4.9,8.8,7.4,13.2l19.6,3.3
					C273.4,359.3,271.4,355.8,269.4,352.4z"/>
				<path id="XMLID_1142_" class="st59" d="M280.3,373.5l-19.7-5.8c3.9,6.5,7.8,13.1,11.8,19.5l15.3-4.2c-1.9-3-3.8-6.1-5.6-9.2
					C281.5,373.8,280.9,373.7,280.3,373.5z"/>
				<path id="XMLID_1141_" class="st59" d="M179,136.6c-1.7-5.9-3.4-11.9-5.1-17.9c-3.9,2.8-9,3.4-13.5,1.4l-2.9-1.2
					c1.4,5,2.8,10.1,4.2,15.1l8.9,2.6C173.5,137.4,176.4,137.3,179,136.6z"/>
				<path id="XMLID_1140_" class="st59" d="M210,227.6c-2-5-3.9-10-5.8-15.1c-2.3,0.6-4.8,0.5-7.2-0.2l-10.9-3.2
					c1.9,5.2,3.8,10.3,5.8,15.5l17.2,2.9C209.5,227.5,209.8,227.6,210,227.6z"/>
				<path id="XMLID_1139_" class="st80" d="M182.3,147.4c1.1,3.7,2.2,7.3,3.4,11c1.7-0.6,3.2-1.6,4.6-2.8l3.2-2.8
					c-1.4-3.5-2.7-7-4-10.6l-2.4,2.3C185.6,145.8,184,146.8,182.3,147.4z"/>
				<path id="XMLID_1138_" class="st80" d="M167.2,84.6l4.1-3.7c-0.1-0.5-0.2-1.1-0.4-1.6l-6.8,1.9c0.4,1.6,0.8,3.3,1.2,4.9
					C166,85.6,166.7,85.2,167.2,84.6z"/>
				<path id="XMLID_1137_" class="st80" d="M168.1,96.9c0.9,3.7,1.9,7.3,2.9,11c0.7-0.5,1.5-1,2.1-1.6l3.7-3.3c-1-3.8-2-7.5-3-11.3
					l-4.4,4.1C169.1,96.2,168.6,96.6,168.1,96.9z"/>
				<path id="XMLID_1136_" class="st80" d="M223.3,259.9c1.5,3.4,3,6.8,4.5,10.3l2.1,0.4c5,0.8,10.2-1,13.5-4.8l3.7-4.2
					c-2.5-4.3-5-8.5-7.4-12.8l-5.3,6.3C231.7,258.2,227.5,260,223.3,259.9z"/>
				<path id="XMLID_1135_" class="st80" d="M259.5,330.6l-2.6-0.8c2.1,3.8,4.1,7.7,6.3,11.5l2,0.3c5,0.8,10.2-1,13.5-4.8l9.1-10.4
					c-2-3.1-4.1-6.2-6.1-9.3l-7.6,9.1C270.6,330.4,264.9,332.1,259.5,330.6z"/>
				<path id="XMLID_1134_" class="st80" d="M244.9,305.1l-0.7-0.2c2.4,4.8,4.8,9.6,7.3,14.4l5.6,0.9c5,0.8,10.2-1,13.5-4.8l5.8-6.6
					c-3.4-5.3-6.8-10.7-10.2-16.1l-6.7,8C255.9,304.9,250.2,306.6,244.9,305.1z"/>
				<path id="XMLID_1133_" class="st80" d="M269.4,352.4c2,3.5,4,6.9,6,10.4l2.3,0.4c5,0.8,10.2-1,13.5-4.8l10.1-11.5
					c-2.7-4.1-5.5-8.2-8.2-12.2l-10.9,13C279.1,351.4,274.2,353.2,269.4,352.4z"/>
				<path id="XMLID_1132_" class="st80" d="M232.7,280.9c2,4.4,4.1,8.9,6.2,13.3l3.4,0.6c5,0.8,10.2-1,13.5-4.8l5-5.7
					c-2.9-4.7-5.7-9.4-8.5-14.1l-5.3,6.3C243.6,280.6,237.9,282.3,232.7,280.9z"/>
				<path id="XMLID_1131_" class="st80" d="M204.3,212.5c1.9,5,3.8,10.1,5.8,15.1c4.8,0.5,9.5-1.3,12.7-5l1.8-2
					c-3-5.8-6-11.6-8.9-17.5l-4,4.8C209.7,210.3,207.1,211.9,204.3,212.5z"/>
				<path id="XMLID_1130_" class="st80" d="M197.1,192.8c1.1,3,2.1,6,3.2,9c2.9-0.7,5.6-2.3,7.7-4.6l3.1-3.5
					c-1.3-2.8-2.6-5.6-3.9-8.5l-4.7,4.4C200.9,191.1,199.1,192.2,197.1,192.8z"/>
				<path id="XMLID_1129_" class="st80" d="M214.3,238.4c1.5,3.6,2.9,7.2,4.4,10.7c4.6,0.3,9.1-1.5,12.2-5l3.9-4.4
					c-1.8-3.3-3.6-6.6-5.4-9.9l-3.1,3.7C223.3,237,218.8,238.8,214.3,238.4z"/>
				<path id="XMLID_1128_" class="st80" d="M189.1,169.1c1.4,4.3,2.8,8.5,4.3,12.8c2.5-0.5,4.9-1.7,6.8-3.5l2.8-2.5
					c-2-4.5-3.9-9.1-5.8-13.6l-4.7,4.4C191.5,167.7,190.4,168.5,189.1,169.1z"/>
				<path id="XMLID_1127_" class="st80" d="M173.9,118.7c1.6,6,3.3,11.9,5.1,17.9c2.1-0.6,4-1.7,5.7-3.2l1.2-1.1
					c-2.2-6.3-4.2-12.6-6.1-18.9l-4.4,4.1C175,117.9,174.5,118.3,173.9,118.7z"/>
				<path id="XMLID_1126_" class="st80" d="M294.9,369.1c-3.2,3.8-8,5.6-12.8,4.8c1.9,3.1,3.7,6.1,5.6,9.2l32.3-8.8
					c-4.4-6.5-8.8-12.9-13.2-19.4L294.9,369.1z"/>
				<path id="XMLID_1125_" class="st81" d="M269.4,352.4c-2.1-3.7-4.2-7.4-6.2-11.1l-19.3-3.2c1.5,2.7,3,5.5,4.5,8.2l19.4,5.7
					C268.3,352.2,268.8,352.3,269.4,352.4z"/>
				<path id="XMLID_1124_" class="st82" d="M265.2,341.6l-2-0.3c2,3.7,4.1,7.4,6.2,11.1c4.8,0.8,9.7-1,12.9-4.8l10.9-13
					c-1.8-2.7-3.6-5.4-5.4-8.1l-9.1,10.4C275.3,340.6,270.2,342.5,265.2,341.6z"/>
				<path id="XMLID_1123_" class="st81" d="M282.1,373.9c-2.2-3.7-4.5-7.4-6.6-11.1l-19.6-3.3c1.6,2.7,3.2,5.5,4.8,8.2l19.7,5.8
					C280.9,373.7,281.5,373.8,282.1,373.9z"/>
				<path id="XMLID_1122_" class="st82" d="M277.8,363.2l-2.3-0.4c2.2,3.7,4.4,7.4,6.6,11.1c4.8,0.8,9.7-1,12.8-4.8l11.9-14.3
					c-1.8-2.7-3.6-5.4-5.4-8l-10.1,11.5C287.9,362.2,282.8,364,277.8,363.2z"/>
				<path id="XMLID_1121_" class="st81" d="M251.4,319.3l-19-3.2c1.3,2.5,2.6,5.1,3.9,7.6l20.7,6.1
					C255.1,326.3,253.2,322.8,251.4,319.3z"/>
				<path id="XMLID_1120_" class="st82" d="M257,320.2l-5.6-0.9c1.8,3.5,3.7,7,5.5,10.5l2.6,0.8c5.3,1.6,11-0.2,14.6-4.4l7.6-9.1
					c-1.8-2.8-3.6-5.6-5.4-8.3l-5.8,6.6C267.2,319.2,262.1,321,257,320.2z"/>
				<path id="XMLID_1119_" class="st81" d="M238.9,294.1l-18.8-3.1c1.2,2.6,2.5,5.2,3.7,7.9l20.2,6
					C242.4,301.3,240.6,297.7,238.9,294.1z"/>
				<path id="XMLID_1118_" class="st82" d="M242.3,294.7l-3.4-0.6c1.7,3.6,3.5,7.2,5.2,10.7l0.7,0.2c5.3,1.6,11-0.2,14.6-4.4l6.7-8
					c-1.8-2.8-3.5-5.7-5.3-8.5l-5,5.7C252.5,293.7,247.4,295.6,242.3,294.7z"/>
				<path id="XMLID_1116_" class="st81" d="M223.3,259.9c-1.5-3.6-3.1-7.2-4.6-10.8c-0.5,0-0.9-0.1-1.4-0.2l-16.9-2.8
					c1.2,2.8,2.3,5.7,3.5,8.5l15.9,4.7C221,259.6,222.2,259.8,223.3,259.9z"/>
				<path id="XMLID_1115_" class="st82" d="M218.7,249.1c1.5,3.6,3,7.2,4.6,10.8c4.2,0.2,8.4-1.6,11.2-5l5.3-6.3
					c-1.7-3-3.3-5.9-5-8.9l-3.9,4.4C227.8,247.6,223.3,249.4,218.7,249.1z"/>
				<path id="XMLID_1114_" class="st81" d="M232.7,280.9c-1.7-3.6-3.3-7.2-4.9-10.8l-18.5-3.1c1.2,2.7,2.3,5.3,3.5,8l19.6,5.8
					C232.5,280.8,232.6,280.9,232.7,280.9z"/>
				<path id="XMLID_1113_" class="st82" d="M229.9,270.5l-2.1-0.4c1.6,3.6,3.2,7.2,4.9,10.8c5.2,1.5,10.9-0.3,14.4-4.5l5.3-6.3
					c-1.7-2.9-3.5-5.8-5.2-8.7l-3.7,4.2C240.1,269.5,235,271.3,229.9,270.5z"/>
				<path id="XMLID_1112_" class="st81" d="M214.3,238.4c-1.4-3.6-2.9-7.2-4.3-10.7c-0.3,0-0.6-0.1-0.8-0.1l-17.2-2.9
					c1.1,2.8,2.1,5.6,3.2,8.3l16.5,4.9C212.6,238.1,213.4,238.3,214.3,238.4z"/>
				<path id="XMLID_1111_" class="st82" d="M210,227.6c1.4,3.6,2.8,7.2,4.3,10.7c4.5,0.4,9-1.3,12-4.9l3.1-3.7
					c-1.6-3.1-3.3-6.1-4.9-9.2l-1.8,2C219.5,226.3,214.8,228.1,210,227.6z"/>
				<path id="XMLID_1110_" class="st81" d="M204.3,212.5c-1.3-3.6-2.6-7.1-3.9-10.7c-1.9,0.4-3.9,0.5-5.8,0.2l-11.6-1.9
					c1.1,3,2.2,6.1,3.3,9.1l10.9,3.2C199.4,213.1,201.9,213.1,204.3,212.5z"/>
				<path id="XMLID_1109_" class="st82" d="M200.3,201.8c1.3,3.6,2.6,7.2,3.9,10.7c2.8-0.7,5.4-2.3,7.4-4.6l4-4.8
					c-1.5-3.1-3.1-6.3-4.6-9.5l-3.1,3.5C206,199.5,203.3,201.1,200.3,201.8z"/>
				<path id="XMLID_1108_" class="st81" d="M189.1,169.1c-1.2-3.6-2.3-7.1-3.4-10.7c-3,1.1-6.3,1.3-9.4,0.4l-7.8-2.3
					c1.1,3.5,2.2,6.9,3.3,10.4l5.8,2.5C181.3,171,185.5,170.9,189.1,169.1z"/>
				<path id="XMLID_1107_" class="st82" d="M185.7,158.4c1.1,3.6,2.3,7.1,3.4,10.7c1.2-0.6,2.4-1.4,3.4-2.4l4.7-4.4
					c-1.3-3.2-2.6-6.4-3.8-9.6l-3.2,2.8C188.9,156.9,187.3,157.8,185.7,158.4z"/>
				<path id="XMLID_1106_" class="st81" d="M197.1,192.8c-1.3-3.6-2.5-7.2-3.7-10.8c-2.3,0.5-4.8,0.4-7.2-0.3l-10.6-3.1
					c1.1,3.3,2.2,6.7,3.4,10l8.5,3.7C190.6,193.6,194,193.7,197.1,192.8z"/>
				<path id="XMLID_1105_" class="st82" d="M193.4,182c1.2,3.6,2.5,7.2,3.7,10.8c2-0.6,3.8-1.7,5.4-3.1l4.7-4.4
					c-1.4-3.1-2.8-6.2-4.1-9.3l-2.8,2.5C198.2,180.3,195.9,181.4,193.4,182z"/>
				<path id="XMLID_1104_" class="st81" d="M182.3,147.4c-1.1-3.6-2.2-7.2-3.2-10.9c-2.7,0.8-5.6,0.8-8.3,0l-8.9-2.6
					c1,3.4,1.9,6.7,2.9,10.1l7.3,3.1C175.3,148.6,179,148.6,182.3,147.4z"/>
				<path id="XMLID_1103_" class="st82" d="M179,136.6c1.1,3.6,2.1,7.3,3.2,10.9c1.7-0.6,3.3-1.6,4.7-2.9l2.4-2.3
					c-1.2-3.3-2.4-6.6-3.5-9.9l-1.2,1.1C183,134.9,181.1,135.9,179,136.6z"/>
				<path id="XMLID_1102_" class="st81" d="M173.9,118.7c-1-3.6-2-7.2-2.9-10.8c-3.5,2.2-7.8,2.8-11.9,1.6l-4.4-1.3
					c0.9,3.6,1.9,7.1,2.9,10.7l2.9,1.2C164.9,122,170,121.5,173.9,118.7z"/>
				<path id="XMLID_1101_" class="st82" d="M171,107.9c1,3.6,1.9,7.2,2.9,10.8c0.5-0.4,1-0.8,1.5-1.2l4.4-4.1c-1-3.4-2-6.9-3-10.3
					l-3.7,3.3C172.5,106.9,171.8,107.5,171,107.9z"/>
				<path id="XMLID_1100_" class="st81" d="M168.1,96.9c-0.9-3.6-1.8-7.2-2.7-10.9c-3.6,2.3-8,3-12.2,1.8l-4-1.2
					c0.9,3.5,1.8,7.1,2.7,10.6l2.6,1.1C159,100.4,164.2,99.7,168.1,96.9z"/>
				<path id="XMLID_1099_" class="st82" d="M165.4,86c0.9,3.6,1.8,7.3,2.7,10.9c0.5-0.3,0.9-0.7,1.4-1.1l4.4-4.1
					c-0.9-3.6-1.7-7.1-2.5-10.7l-4.1,3.7C166.7,85.2,166,85.6,165.4,86z"/>
			</g>
			<path id="XMLID_1097_" class="st79" d="M151.6,58.5c-0.2,5-2.6,10.7-6.1,16.4c-10.7,17.5-31.8,35.4-31.8,35.4l-16.2-5.7l4.9,17.9
				C97,147,76.1,163.3,67.1,169.3c-2.5,1.7-4.1,2.6-4.1,2.6C54.3,43.3,151.6,58.5,151.6,58.5z"/>
			<path id="XMLID_1096_" class="st9" d="M145.5,74.9c-10.7,17.5-31.8,35.4-31.8,35.4l-16.2-5.7l4.9,17.9
				C97,147,76.1,163.3,67.1,169.3C68.7,85.4,122.1,75.3,145.5,74.9z"/>
			<path id="XMLID_1095_" class="st20" d="M283.4,111.7c0,0-8.5,0.3-19.8-2.1c-12.3-2.5-27.8-8.1-39.3-20.4l-4.9-17.9l-11,13.1
				c0,0-0.8-0.1-2.2-0.4c-1.1-0.2-2.7-0.5-4.6-0.9c-13.6-3-43.8-10.9-52.2-24c0,0,1.1-0.9,3.2-2.3c0,0,0,0,0,0
				C167.7,46.5,232.6,10.6,283.4,111.7z"/>
			<path id="XMLID_1094_" class="st78" d="M263.6,109.6c-12.3-2.5-27.8-8.1-39.3-20.4l-4.9-17.9l-11,13.1c0,0-0.8-0.1-2.2-0.4
				l-1.3-4.8l-3.2,3.9c-13.6-3-43.8-10.9-52.2-24c0,0,1.1-0.9,3.2-2.3c0,0,0,0,0,0C177.5,46,224,39.4,263.6,109.6z"/>
			<path id="XMLID_1093_" class="st83" d="M252.4,162.4c0,0-34.1-14.8-44-45.4l3.2-18.3l-15.6,7.2c0,0-8.7-6.1-18.2-14.6
				c-10.9-9.7-22.9-22.6-24.4-33.4c0,0,15.5-3.9,34.2-0.2C215.4,63.2,250.3,85.5,252.4,162.4z"/>
			<path id="XMLID_1092_" class="st78" d="M187.6,57.7c3.3,12.2-0.8,24.8-9.8,33.6c-10.9-9.7-22.9-22.6-24.4-33.4
				C153.4,57.9,168.9,54,187.6,57.7z"/>
			<g id="XMLID_1087_">
				<path id="XMLID_1091_" class="st84" d="M191.1,111.7c-5.2,7.6-14.3,10.9-22.7,8.8c-2.5-0.6-4.9-1.6-7.1-3.1
					c-9.8-6.7-12.4-20-5.7-29.8c6.7-9.8,20-12.4,29.8-5.7c2.2,1.5,4.1,3.4,5.5,5.4C195.8,94.4,196.2,104.1,191.1,111.7z"/>
				<path id="XMLID_1090_" class="st2" d="M191.1,111.7c-5.2,7.6-14.3,10.9-22.7,8.8c-5-7.1-5.4-16.8-0.2-24.4
					c5.1-7.6,14.3-10.9,22.7-8.8C195.8,94.4,196.2,104.1,191.1,111.7z"/>
				<circle id="XMLID_1089_" class="st85" cx="184.2" cy="102.7" r="6.4"/>
			</g>
			<g id="XMLID_1083_">
				<path id="XMLID_1086_" class="st86" d="M121.8,128.4c-6.5-6.5-8.1-16.1-4.5-24c1-2.3,2.5-4.5,4.4-6.4c8.3-8.4,21.9-8.5,30.4-0.2
					c8.4,8.3,8.5,21.9,0.2,30.4c-1.9,1.9-4,3.4-6.3,4.4C138,136.2,128.4,134.8,121.8,128.4z"/>
				<path id="XMLID_1085_" class="st87" d="M121.8,128.4c-6.5-6.5-8.1-16.1-4.5-24c7.9-3.6,17.5-2.2,24,4.3c6.5,6.5,8.1,16.1,4.5,24
					C138,136.2,128.4,134.8,121.8,128.4z"/>
				<circle id="XMLID_1084_" class="st88" cx="132" cy="123.3" r="6.4"/>
			</g>
			<g id="XMLID_1079_">
				<path id="XMLID_1082_" class="st84" d="M170.6,73.3c2.4,8.9-1.1,17.9-8.1,23c-2.1,1.5-4.4,2.6-7,3.4
					c-11.4,3.1-23.2-3.6-26.4-15.1c-3.1-11.4,3.6-23.2,15.1-26.4c2.6-0.7,5.2-0.9,7.7-0.7C160.5,58.4,168.1,64.4,170.6,73.3z"/>
				<path id="XMLID_1081_" class="st2" d="M170.6,73.3c2.4,8.9-1.1,17.9-8.1,23c-8.6-0.8-16.2-6.9-18.7-15.7
					c-2.4-8.9,1.1-17.9,8.1-23C160.5,58.4,168.1,64.4,170.6,73.3z"/>
				<circle id="XMLID_1080_" class="st85" cx="159.2" cy="72.6" r="6.4"/>
			</g>
		</g>
		<path id="XMLID_1252_" class="st89" d="M497.4,341.4c-8.1,23-19.5,44.5-33.5,64c-4,5.6-8.3,11-12.7,16.2c-1.2,1.5-2.5,2.9-3.8,4.4
			c-4.3,4.8-8.8,9.5-13.4,14c-1.7,1.7-3.5,3.3-5.3,5c-35.7,32.6-80.7,55.3-130.5,63.6l-48.9-6l-66.8-8.1h-19.9
			c-14.5-5.7-28.3-12.6-41.3-20.7c-7-4.3-13.8-9-20.3-14c-0.9-0.7-1.8-1.4-2.7-2.1c-11.4-8.9-22-18.8-31.8-29.5
			c-0.1-0.2-0.3-0.3-0.4-0.5c0.2-0.1,0.5-0.2,0.7-0.4c13.7-7.2,41.9-21.1,78-34.5c5.4-2,11-4,16.7-5.9c29-9.9,62-18.8,96.3-23.8
			c3.7-0.5,7.4-1,11.2-1.5c0,0,0,0,0,0c1.6-0.2,3.3-0.4,5-0.5h0c0.1,0,0.3,0,0.4,0c4-0.4,8.1-0.8,12.1-1c1-0.1,2.1-0.1,3.1-0.2
			c4.5-0.3,8.9-0.5,13.4-0.6c2.2-0.1,4.5-0.1,6.7-0.1h0c16.5,0,33,1.2,49.1,4c6.3,1.1,12.6,2.5,18.9,4.1h0
			c6.9,1.8,13.7,3.9,20.4,6.4c0,0,2.8,0.5,7.5,0.8c1.7,0.1,3.5,0.2,5.6,0.3c0.3,0,0.6,0,0.9,0c5.9,0.1,13.4-0.1,21.7-1.3
			C453.9,370.8,478.6,362.7,497.4,341.4z"/>
		<g id="XMLID_994_">
			<path id="XMLID_1076_" class="st78" d="M486.9,45.4c0,0-8.9,3.9-21.7,6.3c-14,2.5-32.8,3.3-50-4.8l-12.8-16.8l-6,18.5
				c0,0-0.9,0.2-2.5,0.5c-1.3,0.3-3.1,0.6-5.2,0.9c-15.6,2.7-50.7,7.2-65.2-3c0,0,0.8-1.4,2.4-3.8c0,0,0,0,0,0
				C337.4,26,390.4-39.4,486.9,45.4z"/>
			<path id="XMLID_1075_" class="st79" d="M357.8,57.8c-5.1,2.6-12,3.4-19.7,3.1C314.9,59.9,285.5,49,285.5,49l-3.3-19.2l-15,14.8
				c-27.3,8.3-55-3.4-66-9c-3.1-1.6-4.8-2.7-4.8-2.7C318.8-47,357.8,57.8,357.8,57.8z"/>
			<path id="XMLID_1074_" class="st9" d="M338.2,60.8C314.9,59.9,285.5,49,285.5,49l-3.3-19.2l-15,14.8c-27.3,8.3-55-3.4-66-9
				C285.1-9.4,324.8,37.9,338.2,60.8z"/>
			<g id="XMLID_1015_">
				<path id="XMLID_1073_" class="st59" d="M368,316.6c-0.1,0-0.2-0.1-0.2-0.1l-19.8-12.2c1,6.6,2.1,13.1,3.2,19.7l19.6,9
					C369.9,327.5,368.9,322.1,368,316.6z"/>
				<path id="XMLID_1072_" class="st59" d="M352.2,108.7c0-4.3,0.1-8.6,0.1-12.9c-5.1,1.9-11,1.1-15.4-2.4l-2.6-2
					c-0.1,4.3-0.1,8.6-0.2,12.8l4.5,2.8C342.8,109.4,347.7,110.1,352.2,108.7z"/>
				<path id="XMLID_1071_" class="st59" d="M353.2,168.4c-0.2-4.4-0.3-8.7-0.4-13.1c-4,0.3-8-0.8-11.2-3.4l-7-5.6
					c0.1,5,0.3,9.9,0.4,14.9l7.8,4.8C345.9,168,349.6,168.8,353.2,168.4z"/>
				<path id="XMLID_1069_" class="st59" d="M354.6,196.5c-0.3-5.1-0.6-10.2-0.8-15.3c-4.4,0.8-9.1-0.3-12.7-3.2l-5.6-4.5
					c0.2,4.6,0.4,9.3,0.7,13.9l10.7,6.6C349.2,195.5,351.8,196.3,354.6,196.5z"/>
				<path id="XMLID_1068_" class="st59" d="M373.4,346.3L353,333.7c1.3,7.1,2.7,14.3,4.1,21.4l19.9,9.2
					C375.8,358.3,374.6,352.3,373.4,346.3z"/>
				<path id="XMLID_1067_" class="st59" d="M362.3,277.6c-0.6-4.4-1.1-8.7-1.6-13.1c-0.9-0.4-1.8-0.8-2.7-1.3l-16.6-10.3
					c0.6,5.3,1.2,10.6,1.8,16l17.6,8.1C361.3,277.3,361.8,277.4,362.3,277.6z"/>
				<path id="XMLID_1066_" class="st59" d="M364.1,290.8c-1.2-0.4-2.4-0.9-3.6-1.6l-16-9.9c0.7,5.1,1.4,10.1,2.1,15.2l19.3,8.9
					C365.3,299.2,364.6,295,364.1,290.8z"/>
				<path id="XMLID_1065_" class="st59" d="M380,377.4l-20.8-12.9c1.3,6,2.6,12,4,18.1l20.2,9.3C382.2,387.1,381.1,382.2,380,377.4z
					"/>
				<path id="XMLID_1064_" class="st59" d="M356.2,220.3c-0.3-3.6-0.6-7.2-0.8-10.9c-3.7,0.1-7.4-1-10.4-3.4l-8.3-6.6
					c0.3,4.6,0.6,9.2,0.9,13.8l12.1,5.6C351.9,219.8,354,220.3,356.2,220.3z"/>
				<path id="XMLID_1063_" class="st59" d="M352.6,83.1c0-1.9,0.1-3.8,0.1-5.7h-18c0,0.5,0,1,0,1.6l4,2.5
					C342.9,84,348,84.5,352.6,83.1z"/>
				<path id="XMLID_1062_" class="st59" d="M386.9,405.9c-0.6-0.3-1.2-0.6-1.7-0.9l-19.5-12.1c1.4,5.6,2.7,11.1,4.2,16.7l20.5,9.4
					C389.2,414.7,388,410.3,386.9,405.9z"/>
				<path id="XMLID_1061_" class="st59" d="M392.5,432.3L372.6,420c2.3,8.3,4.6,16.6,7.1,24.9h18c-1.2-3.9-2.3-7.8-3.4-11.7
					C393.7,433,393.1,432.7,392.5,432.3z"/>
				<path id="XMLID_1060_" class="st59" d="M352.4,142.5c-0.1-7-0.2-14.1-0.2-21.1c-5.1,1.9-10.9,1-15.2-2.5l-2.8-2.2
					c0,5.9,0,11.9,0.1,17.8l9,5.5C346.1,141.7,349.3,142.6,352.4,142.5z"/>
				<path id="XMLID_1059_" class="st59" d="M359.2,251.5c-0.7-6.1-1.2-12.1-1.8-18.2c-2.7-0.1-5.4-0.8-7.9-2.3l-10.9-6.8
					c0.5,6.2,1.1,12.4,1.7,18.7l18,8.3C358.6,251.2,358.9,251.4,359.2,251.5z"/>
				<path id="XMLID_1058_" class="st80" d="M352.7,155.4c0.1,4.4,0.3,8.7,0.4,13.1c2-0.2,4-0.8,5.9-1.7l4.3-2.2
					c-0.4-4.3-0.9-8.5-1.2-12.8l-3.4,1.8C356.9,154.6,354.8,155.2,352.7,155.4z"/>
				<path id="XMLID_1057_" class="st80" d="M355,82.1l5.6-2.8c0-0.6,0.1-1.3,0.1-1.9h-8c-0.1,1.9-0.1,3.8-0.1,5.7
					C353.4,82.8,354.2,82.5,355,82.1z"/>
				<path id="XMLID_1056_" class="st80" d="M352.3,95.8c-0.1,4.3-0.1,8.6-0.1,12.9c1-0.3,1.9-0.6,2.8-1.1l5-2.5
					c0-4.4,0-8.9,0.1-13.3l-6,3.2C353.6,95.3,353,95.6,352.3,95.8z"/>
				<path id="XMLID_1055_" class="st80" d="M364.1,290.8c0.6,4.2,1.2,8.4,1.9,12.6l2.2,1c5.3,2.4,11.4,2,16.3-1.3l5.3-3.5
					c-1.5-5.4-2.9-10.8-4.3-16.3l-7.7,5.3C373.7,291.5,368.6,292.2,364.1,290.8z"/>
				<path id="XMLID_1054_" class="st80" d="M382.6,379l-2.6-1.6c1.1,4.8,2.2,9.7,3.4,14.5l2.1,1c5.3,2.4,11.4,2,16.3-1.3l13.1-8.7
					c-1.3-4-2.6-8-3.9-12l-11,7.7C394.7,382.2,387.9,382.3,382.6,379z"/>
				<path id="XMLID_1053_" class="st80" d="M374.1,346.7l-0.7-0.4c1.2,6,2.4,12,3.7,17.9l5.9,2.7c5.3,2.4,11.4,2,16.3-1.3l8.3-5.5
					c-2.2-6.9-4.3-13.8-6.4-20.7l-9.7,6.8C386.3,349.9,379.5,350,374.1,346.7z"/>
				<path id="XMLID_1051_" class="st80" d="M386.9,405.9c1.1,4.4,2.3,8.8,3.5,13.2l2.5,1.1c5.3,2.4,11.4,2,16.3-1.3l14.5-9.6
					c-1.8-5.3-3.5-10.6-5.3-15.9l-15.8,11C397.8,407.7,391.9,408.2,386.9,405.9z"/>
				<path id="XMLID_1050_" class="st80" d="M368,316.6c0.9,5.5,1.9,10.9,2.9,16.4l3.6,1.6c5.3,2.4,11.4,2,16.3-1.3l7.2-4.8
					c-1.8-6-3.5-12-5.1-17.9l-7.6,5.3C380,319.5,373.3,319.8,368,316.6z"/>
				<path id="XMLID_1049_" class="st80" d="M357.4,233.3c0.6,6.1,1.2,12.1,1.8,18.2c5.1,2,10.8,1.4,15.4-1.6l2.6-1.7
					c-1.6-7.3-3.1-14.5-4.5-21.8l-5.8,4.1C364,232.4,360.6,233.4,357.4,233.3z"/>
				<path id="XMLID_1048_" class="st80" d="M355.4,209.5c0.3,3.6,0.5,7.2,0.8,10.9c3.4,0.1,6.9-0.8,9.8-2.8l4.4-2.9
					c-0.6-3.5-1.2-7-1.8-10.4l-6.4,3.4C360.1,208.8,357.8,209.4,355.4,209.5z"/>
				<path id="XMLID_1046_" class="st80" d="M360.6,264.5c0.5,4.4,1.1,8.7,1.6,13.1c4.9,1.7,10.4,1.1,14.8-1.8l5.6-3.7
					c-1-4.1-2-8.3-3-12.4l-4.4,3.1C370.9,265.8,365.4,266.4,360.6,264.5z"/>
				<path id="XMLID_1045_" class="st80" d="M353.7,181.2c0.2,5.1,0.5,10.2,0.8,15.3c2.9,0.2,5.8-0.4,8.5-1.8l3.8-1.9
					c-0.8-5.5-1.6-11.1-2.2-16.6l-6.5,3.4C356.8,180.4,355.3,180.9,353.7,181.2z"/>
				<path id="XMLID_1044_" class="st80" d="M352.2,121.4c0,7,0.1,14.1,0.2,21.1c2.4-0.1,4.9-0.6,7.2-1.8l1.7-0.8
					c-0.5-7.5-0.8-15-1-22.6l-6,3.2C353.5,120.9,352.9,121.1,352.2,121.4z"/>
				<path id="XMLID_1164_" class="st80" d="M434,440c-1.7,1.7-3.5,3.3-5.3,5h-31c-1.2-3.9-2.3-7.8-3.4-11.7c5,2.3,10.9,1.8,15.5-1.4
					l6.2-4.3l1.6-1.1l9.5-6.6c0.8,2.4,1.6,4.8,2.4,7.1c0.1,0.2,0.1,0.4,0.2,0.6C431.1,431.7,432.6,435.8,434,440z"/>
				<path id="XMLID_1042_" class="st81" d="M386.9,405.9c-1.2-4.7-2.4-9.3-3.5-14l-20.2-9.3c0.8,3.4,1.6,6.9,2.4,10.3l19.5,12.1
					C385.7,405.3,386.3,405.6,386.9,405.9z"/>
				<path id="XMLID_1041_" class="st82" d="M385.5,392.9l-2.1-1c1.1,4.7,2.3,9.3,3.5,14c5,2.3,10.9,1.8,15.6-1.4l15.8-11
					c-1.2-3.5-2.3-7-3.5-10.5l-13.1,8.7C396.9,394.8,390.7,395.3,385.5,392.9z"/>
				<path id="XMLID_1040_" class="st81" d="M394.3,433.2c-1.4-4.7-2.7-9.5-3.9-14.2l-20.5-9.4c0.9,3.5,1.8,6.9,2.8,10.4l19.9,12.3
					C393.1,432.7,393.7,433,394.3,433.2z"/>
				<path id="XMLID_1039_" class="st82" d="M392.8,420.2l-2.5-1.1c1.3,4.7,2.6,9.5,3.9,14.2c5,2.3,10.9,1.8,15.5-1.4l17.3-12.1
					c-1.2-3.5-2.4-7-3.5-10.4l-14.5,9.6C404.2,422.1,398.1,422.6,392.8,420.2z"/>
				<path id="XMLID_1038_" class="st81" d="M377.1,364.2l-19.9-9.2c0.6,3.2,1.3,6.3,2,9.5l20.8,12.9C379,373,378,368.6,377.1,364.2z
					"/>
				<path id="XMLID_1037_" class="st82" d="M382.9,366.9l-5.9-2.7c0.9,4.4,1.9,8.8,2.9,13.2l2.6,1.6c5.3,3.3,12.1,3.1,17.3-0.5
					l11-7.7c-1.1-3.6-2.3-7.2-3.4-10.7l-8.3,5.5C394.4,368.9,388.2,369.4,382.9,366.9z"/>
				<path id="XMLID_1036_" class="st81" d="M370.9,333l-19.6-9c0.6,3.2,1.1,6.5,1.7,9.7l20.4,12.6
					C372.6,341.9,371.7,337.4,370.9,333z"/>
				<path id="XMLID_1035_" class="st82" d="M374.5,334.6l-3.6-1.6c0.8,4.4,1.7,8.9,2.5,13.3l0.7,0.4c5.3,3.3,12.1,3.1,17.3-0.5
					l9.7-6.8c-1.1-3.6-2.2-7.3-3.2-10.9l-7.2,4.8C385.9,336.6,379.7,337.1,374.5,334.6z"/>
				<path id="XMLID_1033_" class="st81" d="M364.1,290.8c-0.6-4.4-1.2-8.8-1.8-13.2c-0.5-0.2-1-0.4-1.5-0.6l-17.6-8.1
					c0.4,3.4,0.9,6.9,1.3,10.3l16,9.9C361.6,289.8,362.8,290.4,364.1,290.8z"/>
				<path id="XMLID_1032_" class="st82" d="M362.3,277.6c0.6,4.4,1.2,8.8,1.8,13.2c4.6,1.4,9.7,0.7,13.7-2.1l7.7-5.3
					c-1-3.7-1.9-7.5-2.8-11.2l-5.6,3.7C372.7,278.7,367.2,279.3,362.3,277.6z"/>
				<path id="XMLID_1031_" class="st81" d="M368,316.6c-0.7-4.4-1.4-8.8-2.1-13.3l-19.3-8.9c0.5,3.3,1,6.5,1.5,9.8l19.8,12.2
					C367.9,316.5,368,316.6,368,316.6z"/>
				<path id="XMLID_1030_" class="st82" d="M368.1,304.4l-2.2-1c0.7,4.4,1.4,8.8,2.1,13.3c5.3,3.2,12,2.9,17.1-0.6l7.6-5.3
					c-1-3.7-2.1-7.4-3-11.1l-5.3,3.5C379.6,306.3,373.4,306.8,368.1,304.4z"/>
				<path id="XMLID_1029_" class="st81" d="M360.6,264.5c-0.5-4.3-1-8.7-1.5-13c-0.3-0.1-0.6-0.2-0.9-0.4l-18-8.3
					c0.3,3.4,0.7,6.7,1,10.1l16.6,10.3C358.8,263.8,359.7,264.2,360.6,264.5z"/>
				<path id="XMLID_1028_" class="st82" d="M359.2,251.5c0.5,4.3,1,8.7,1.5,13c4.8,1.8,10.3,1.2,14.6-1.8l4.4-3.1
					c-0.9-3.8-1.7-7.7-2.6-11.5l-2.6,1.7C370,252.9,364.2,253.5,359.2,251.5z"/>
				<path id="XMLID_1027_" class="st81" d="M357.4,233.3c-0.4-4.3-0.8-8.6-1.1-12.9c-2.2-0.1-4.4-0.6-6.4-1.5l-12.1-5.6
					c0.3,3.6,0.6,7.3,0.9,10.9l10.9,6.8C351.9,232.4,354.6,233.2,357.4,233.3z"/>
				<path id="XMLID_1026_" class="st82" d="M356.2,220.3c0.3,4.3,0.7,8.6,1.1,12.9c3.3,0.1,6.6-0.9,9.4-2.8l5.8-4.1
					c-0.8-3.9-1.5-7.8-2.2-11.7l-4.4,2.9C363.1,219.5,359.7,220.4,356.2,220.3z"/>
				<path id="XMLID_1025_" class="st81" d="M353.7,181.2c-0.2-4.3-0.4-8.5-0.6-12.8c-3.6,0.4-7.3-0.4-10.4-2.4l-7.8-4.8
					c0.1,4.1,0.3,8.2,0.5,12.3l5.6,4.5C344.6,180.9,349.3,182,353.7,181.2z"/>
				<path id="XMLID_1024_" class="st82" d="M353.2,168.4c0.2,4.3,0.3,8.5,0.6,12.8c1.5-0.3,3.1-0.8,4.5-1.6l6.5-3.4
					c-0.5-3.9-0.9-7.7-1.3-11.6l-4.3,2.2C357.2,167.7,355.2,168.2,353.2,168.4z"/>
				<path id="XMLID_1023_" class="st81" d="M355.4,209.5c-0.3-4.3-0.6-8.6-0.9-13c-2.7-0.2-5.4-1-7.8-2.4l-10.7-6.6
					c0.2,4,0.4,8,0.7,12l8.3,6.6C348,208.4,351.7,209.6,355.4,209.5z"/>
				<path id="XMLID_1022_" class="st82" d="M354.6,196.5c0.3,4.3,0.5,8.6,0.9,13c2.3-0.1,4.7-0.7,6.8-1.8l6.4-3.4
					c-0.6-3.8-1.2-7.6-1.8-11.4l-3.8,1.9C360.4,196.1,357.5,196.7,354.6,196.5z"/>
				<path id="XMLID_1021_" class="st81" d="M352.7,155.4c-0.1-4.3-0.2-8.6-0.3-12.9c-3.2,0.1-6.3-0.8-9.1-2.5l-9-5.5
					c0.1,4,0.1,7.9,0.2,11.9l7,5.6C344.8,154.6,348.8,155.7,352.7,155.4z"/>
				<path id="XMLID_1020_" class="st82" d="M352.4,142.5c0.1,4.3,0.2,8.6,0.3,12.9c2.1-0.2,4.1-0.8,6-1.8l3.4-1.8
					c-0.3-4-0.6-7.9-0.9-11.9l-1.7,0.8C357.3,141.8,354.9,142.4,352.4,142.5z"/>
				<path id="XMLID_1019_" class="st81" d="M352.2,121.4c0-4.2,0-8.4,0-12.7c-4.5,1.3-9.4,0.7-13.5-1.8l-4.5-2.8
					c0,4.2-0.1,8.3-0.1,12.5l2.8,2.2C341.3,122.4,347.1,123.3,352.2,121.4z"/>
				<path id="XMLID_1018_" class="st82" d="M352.2,108.7c0,4.2,0,8.4,0,12.7c0.7-0.2,1.4-0.5,2-0.9l6-3.2c-0.1-4.1-0.2-8.1-0.2-12.2
					l-5,2.5C354.1,108.1,353.2,108.4,352.2,108.7z"/>
				<path id="XMLID_1017_" class="st81" d="M352.3,95.8c0.1-4.2,0.1-8.5,0.2-12.7c-4.6,1.5-9.7,0.9-13.9-1.7l-4-2.5
					c-0.1,4.1-0.2,8.3-0.3,12.4l2.6,2C341.3,96.9,347.2,97.7,352.3,95.8z"/>
				<path id="XMLID_1016_" class="st82" d="M352.6,83.1c-0.1,4.2-0.2,8.5-0.2,12.7c0.6-0.2,1.2-0.5,1.9-0.8l6-3.2
					c0.1-4.2,0.2-8.3,0.4-12.5l-5.6,2.8C354.2,82.5,353.4,82.8,352.6,83.1z"/>
			</g>
			<path id="XMLID_1014_" class="st79" d="M345.7,48.8c-1.7,5.4-6.1,10.9-11.6,16.1c-17,16-45.4,29.2-45.4,29.2l-16-11.1v21.1
				c-13.2,25.2-41.1,36.8-52.7,40.7c-3.3,1.1-5.3,1.6-5.3,1.6C243.7,3.1,345.7,48.8,345.7,48.8z"/>
			<path id="XMLID_1013_" class="st9" d="M334.1,65c-17,16-45.4,29.2-45.4,29.2l-16-11.1v21.1c-13.2,25.2-41.1,36.8-52.7,40.7
				C246.9,53.5,308.4,58.4,334.1,65z"/>
			<path id="XMLID_1011_" class="st20" d="M474.2,146.5c0,0-9.4-2.3-21.1-8.2c-12.7-6.5-28.1-17.2-36.9-34.1V83.1l-16,11.1
				c0,0-0.8-0.4-2.2-1.1c-1.2-0.6-2.8-1.4-4.7-2.4c-14-7.3-44.7-25-50-41.9c0,0,1.5-0.7,4.2-1.6c0,0,0,0,0,0
				C367,40.5,448.8,20.6,474.2,146.5z"/>
			<path id="XMLID_1010_" class="st78" d="M453.1,138.3c-12.7-6.5-28.1-17.2-36.9-34.1V83.1l-16,11.1c0,0-0.8-0.4-2.2-1.1v-5.7
				l-4.7,3.3c-14-7.3-44.7-25-50-41.9c0,0,1.5-0.7,4.2-1.6c0,0,0,0,0,0C377.8,42.9,430.8,49.5,453.1,138.3z"/>
			<path id="XMLID_1009_" class="st83" d="M425,192.8c0,0-32.9-26.4-34.6-62.9l9-19.1l-19.2,3.2c0,0-7.7-9.2-15.6-21.4
				c-9-13.9-18.3-31.7-16.7-43.9c0,0,18.1,0.3,37.5,10C414.2,73,445.7,107.9,425,192.8z"/>
			<path id="XMLID_1008_" class="st78" d="M385.4,58.7c0,14.3-8.3,26.9-20.8,33.9c-9-13.9-18.3-31.7-16.7-43.9
				C347.9,48.7,366,49,385.4,58.7z"/>
			<g id="XMLID_1004_">
				<path id="XMLID_1007_" class="st84" d="M373,118.9c-7.9,6.8-18.9,7.6-27.5,2.9c-2.5-1.4-4.8-3.2-6.8-5.5
					c-8.8-10.2-7.6-25.6,2.6-34.4c10.2-8.8,25.6-7.6,34.4,2.6c2,2.3,3.4,4.9,4.4,7.6C383.4,101.4,380.9,112.1,373,118.9z"/>
				<path id="XMLID_1006_" class="st2" d="M373,118.9c-7.9,6.8-18.9,7.6-27.5,2.9c-3.3-9.2-0.8-20,7.1-26.8
					c7.9-6.8,18.9-7.6,27.5-2.9C383.4,101.4,380.9,112.1,373,118.9z"/>
				<circle id="XMLID_1005_" class="st85" cx="368.2" cy="106.9" r="7.3"/>
			</g>
			<g id="XMLID_999_">
				<path id="XMLID_1002_" class="st86" d="M292.2,116.4c-5.2-9-4-20,2.2-27.6c1.8-2.2,4.1-4.2,6.7-5.7c11.6-6.7,26.6-2.8,33.3,8.9
					c6.7,11.6,2.8,26.6-8.9,33.3c-2.6,1.5-5.4,2.5-8.3,3C307.6,129.8,297.4,125.4,292.2,116.4z"/>
				<path id="XMLID_1001_" class="st87" d="M292.2,116.4c-5.2-9-4-20,2.2-27.6c9.7-1.6,19.8,2.8,25,11.9c5.2,9,4,20-2.2,27.6
					C307.6,129.8,297.4,125.4,292.2,116.4z"/>
				<circle id="XMLID_1000_" class="st88" cx="304.9" cy="113.9" r="7.3"/>
			</g>
			<g id="XMLID_995_">
				<path id="XMLID_998_" class="st84" d="M362.1,70.6c0,10.4-6.5,19.3-15.7,22.8c-2.7,1-5.6,1.6-8.6,1.6
					c-13.5,0-24.4-10.9-24.4-24.4c0-13.5,10.9-24.4,24.4-24.4c3,0,6,0.6,8.6,1.6C355.5,51.3,362.1,60.2,362.1,70.6z"/>
				<path id="XMLID_997_" class="st2" d="M362.1,70.6c0,10.4-6.5,19.3-15.7,22.8c-9.2-3.5-15.7-12.4-15.7-22.8
					c0-10.4,6.5-19.3,15.7-22.8C355.5,51.3,362.1,60.2,362.1,70.6z"/>
				<circle id="XMLID_996_" class="st85" cx="349.8" cy="66.5" r="7.3"/>
			</g>
		</g>
		<path id="XMLID_1196_" class="st90" d="M247.6,452.8c-2.6,14.9-1,31.1,9.3,46.6l-7.6,3.1l-19.6,8.1c-23.2-2.4-45.6-7.8-66.5-16
			c-0.2-0.1-0.4-0.1-0.6-0.2c-14.5-5.7-28.3-12.6-41.3-20.7c-7-4.3-13.8-9-20.3-14c1.4-1,2.8-2.1,4.2-3.2c0,0,0,0,0,0
			c13-9.5,30.3-20.4,51.9-30.5c4.6-2.2,9.5-4.3,14.5-6.4c27.1-11.1,60.1-20.5,98.8-24.6c3-0.3,4.8,3.1,2.9,5.4
			c-5.4,6.7-13.8,18.2-19.8,32.3c-2.2,5.2-4.1,10.8-5.4,16.6C248,450.6,247.8,451.7,247.6,452.8z"/>
		<path id="XMLID_1187_" class="st91" d="M447.4,426c-4.3,4.8-8.8,9.5-13.4,14c-1.7,1.7-3.5,3.3-5.3,5
			c-35.7,32.6-80.7,55.3-130.5,63.6c-13.7,2.3-27.8,3.5-42.2,3.5c-8.8,0-17.6-0.4-26.2-1.3c-23.2-2.4-45.6-7.8-66.5-16
			c0.1-0.1,0.2-0.1,0.3-0.2c15.4-10.1,44.2-27.1,84-41.6c28.2-10.3,61.8-19.3,99.9-23.8c6.9-0.8,13.9-1.5,21-2
			c1.9-0.1,3.9-0.3,5.9-0.4c2.8-0.2,5.5-0.3,8.4-0.4h0c3.1-0.1,6.3-0.2,9.5-0.2c6-0.1,12-0.1,18.1,0.1c2.4,0.1,4.8,0.1,7.1,0.2
			c1.9,0.1,3.9,0.2,5.8,0.3c2.1,0.1,4.1,0.2,6.1,0.2c0.8,0,1.6,0,2.4,0C437.1,426.9,442.3,426.6,447.4,426z"/>
		<path id="XMLID_991_" class="st76" d="M173.3,207.3c0-17.9-14.5-32.3-32.3-32.3c-5,0-9.7,1.1-13.9,3.2
			c-6.9-8.6-17.6-14.1-29.5-14.1c-16.9,0-31.2,11.1-36,26.3c-1.9-0.5-3.9-0.7-5.9-0.7c-13.8,0-25,11.2-25,25c0,13.8,11.2,25,25,25
			h85.9v0C159.1,239.3,173.3,225,173.3,207.3z"/>
	</g>
</g>
</svg>
