<?xml version="1.0" encoding="utf-8"?>
<!-- Generator: Adobe Illustrator 22.0.1, SVG Export Plug-In . SVG Version: 6.00 Build 0)  -->
<svg version="1.1" xmlns="http://www.w3.org/2000/svg" xmlns:xlink="http://www.w3.org/1999/xlink" x="0px" y="0px"
	 viewBox="0 0 512 512" style="enable-background:new 0 0 512 512;" xml:space="preserve">
<style type="text/css">
	.st0{fill:#4B71B4;}
	.st1{fill:#80B4E8;}
	.st2{fill:#594144;}
	.st3{fill:#B8E876;}
	.st4{fill:#E09122;}
	.st5{fill:#FBF355;}
	.st6{fill:#EEC82F;}
	.st7{fill:#CEA628;}
	.st8{fill:#9BC9EF;}
	.st9{fill:#9DD055;}
	.st10{fill:#5686C5;}
	.st11{fill:#3B5880;}
	.st12{fill:#C2E5FB;}
	.st13{fill:#446697;}
	.st14{fill:#D1F1A0;}
	.st15{fill:#ABD170;}
	.st16{fill:#9DBD6A;}
	.st17{fill:#649D53;}
	.st18{fill:#72B35D;}
	.st19{fill:#ABD68D;}
	.st20{fill:#7FB358;}
	.st21{fill:#920C50;}
	.st22{fill:#C60053;}
	.st23{fill:#530730;}
	.st24{fill:#600332;}
	.st25{fill:#D5AC2A;}
	.st26{fill:#EFD776;}
	.st27{fill:#A7C76D;}
	.st28{fill:#A43749;}
	.st29{fill:#DC4355;}
	.st30{fill:#E18696;}
	.st31{fill:#77A255;}
	.st32{fill:#628547;}
	.st33{fill:#6E994D;}
	.st34{fill:none;stroke:#54743C;stroke-width:8;stroke-linecap:round;stroke-miterlimit:10;}
	.st35{fill:#9BCF75;}
	.st36{fill:#CA8F80;}
	.st37{fill:#E6B8AB;}
	.st38{fill:#E2A18B;}
	.st39{fill:#8E3F2B;}
	.st40{fill:#D89988;}
	.st41{fill:#CFCFCF;}
	.st42{fill:#A64B2D;}
	.st43{fill:#FFFFFF;}
	.st44{fill:#CA801F;}
	.st45{fill:#719C50;}
	.st46{fill:#85B7E5;}
	.st47{fill:#4F7BA9;}
	.st48{fill:#674C50;}
	.st49{fill:#BAD7ED;}
	.st50{fill:#63494D;}
	.st51{fill:#503D3F;}
	.st52{fill:#638547;}
	.st53{fill:#56713E;}
	.st54{fill:#BB5135;}
	.st55{fill:#93C4EC;}
	.st56{fill:#CA8121;}
	.st57{fill:#FDFCFC;}
	.st58{fill:#A83A4F;}
	.st59{fill:#BD5E44;}
	.st60{fill:#688C4A;}
	.st61{fill:#7DA55A;}
	.st62{fill:#90BA51;}
	.st63{fill:none;}
	.st64{fill:#ABC287;}
	.st65{fill:#BDD993;}
	.st66{fill:none;stroke:#534046;stroke-width:15;stroke-linecap:round;stroke-linejoin:round;stroke-miterlimit:10;}
	.st67{fill:#413133;}
	.st68{fill:#34292B;}
	.st69{fill:#644B50;}
	.st70{fill:#CDACB7;}
	.st71{fill:#A83A4D;}
	.st72{fill:#413335;}
	.st73{fill:#DC6579;}
	.st74{fill:#4C393C;}
	.st75{fill:#527FAE;}
	.st76{fill:#92C2EA;}
	.st77{fill:#5B8C4A;}
	.st78{fill:#729C51;}
	.st79{fill:#AADB5E;}
	.st80{fill:#D66C53;}
	.st81{fill:#A65340;}
	.st82{fill:#B8594A;}
	.st83{fill:#79A754;}
	.st84{fill:#4E3B3E;}
	.st85{fill:#5E4649;}
	.st86{fill:#604A50;}
	.st87{fill:#685258;}
	.st88{fill:#765E66;}
	.st89{fill:#FCF69A;}
	.st90{fill:#D3CC84;}
	.st91{fill:#E6A572;}
	.st92{fill:#74A151;}
	.st93{fill:#6F994F;}
	.st94{fill:#CC6D7D;}
	.st95{fill:#AD6576;}
	.st96{fill:#95422D;}
	.st97{fill:#BE6850;}
	.st98{fill:#3B2F32;}
	.st99{fill:none;stroke:#46383B;stroke-width:15;stroke-linecap:round;stroke-miterlimit:10;}
	.st100{fill:none;stroke:#3B2F32;stroke-width:15;stroke-linecap:round;stroke-miterlimit:10;}
	.st101{fill:#D6CF77;}
	.st102{fill:#F5EF82;}
	.st103{fill:#4A383B;}
	.st104{fill:#CACACA;}
	.st105{fill:#48373A;}
	.st106{fill:#7AA8D2;}
	.st107{fill:#6E9150;}
	.st108{fill:#587441;}
	.st109{fill:#D76E51;}
	.st110{fill:#CCC475;}
	.st111{fill:#DDD57E;}
	.st112{fill:#F8F19C;}
	.st113{fill:#FBF58A;}
	.st114{fill:#C67F20;}
	.st115{fill:#AB6B1C;}
	.st116{fill:#C98020;}
	.st117{fill:#D99A41;}
	.st118{fill:#DBA35B;}
	.st119{fill:#9B5F1B;}
	.st120{fill:#97CF6D;}
	.st121{fill:#5380B1;}
	.st122{fill:#96D16A;}
	.st123{fill:#92BD50;}
	.st124{fill:#7EB058;}
	.st125{fill:#709A50;}
	.st126{fill:#5A8A4A;}
	.st127{fill:#D9D9D9;}
	.st128{fill:#75A3CD;}
	.st129{fill:#6E974F;}
	.st130{fill:#CA6D7D;}
	.st131{fill:#AB6576;}
	.st132{fill:#93422D;}
	.st133{fill:#A44B2D;}
	.st134{fill:#BC6850;}
	.st135{fill:#DFB52B;}
	.st136{fill:#4C3A3C;}
	.st137{fill:#473538;}
	.st138{fill:#382B2E;}
	.st139{fill:none;stroke:#FFFFFF;stroke-width:8;stroke-linecap:round;stroke-miterlimit:10;}
	.st140{fill:#90C0E8;}
	.st141{fill:none;stroke:#E09122;stroke-width:12;stroke-linecap:round;stroke-miterlimit:10;}
	.st142{fill:#DCAE2B;}
	.st143{fill:#F0D05A;}
	.st144{fill:#729E51;}
	.st145{fill:#E4BA36;}
	.st146{fill:#F8F283;}
	.st147{fill:#E4B6A9;}
	.st148{fill:#D78E30;}
	.st149{fill:#598A49;}
	.st150{fill:#B65339;}
	.st151{fill:#BA751F;}
	.st152{fill:#466A9F;}
	.st153{fill:#8BB34D;}
	.st154{fill:#9BCE54;}
	.st155{fill:#7F9F49;}
	.st156{fill:#D37F6D;}
	.st157{fill:#BB5E44;}
	.st158{fill:#93BB55;}
	.st159{fill:#B3E665;}
	.st160{fill:none;stroke:#4C393C;stroke-width:8;stroke-miterlimit:10;}
	.st161{fill:#97432D;}
	.st162{fill:#DAB12A;}
	.st163{fill:#5E914C;}
	.st164{fill:#5381B3;}
	.st165{fill:#6A8F4C;}
	.st166{fill:#628047;}
	.st167{fill:#E29D37;}
	.st168{fill:#6E555B;}
	.st169{fill:#91CA67;}
	.st170{fill:#476BA1;}
	.st171{fill:#6699D9;}
	.st172{fill:#503C3E;}
	.st173{fill:#413235;}
	.st174{fill:#CC916A;}
	.st175{fill:#BA8363;}
	.st176{fill:#D09571;}
	.st177{fill:#C98F68;}
	.st178{fill:#AA3B4D;}
	.st179{fill:#DA6075;}
	.st180{fill:#92452D;}
	.st181{fill:#A24B2D;}
	.st182{fill:#B76252;}
	.st183{fill:#87BD60;}
	.st184{fill:#78A7D2;}
	.st185{fill:#F9F38F;}
	.st186{fill:#E0D650;}
	.st187{fill:#AFE086;}
	.st188{fill:#9FD476;}
	.st189{fill:#9DD176;}
	.st190{fill:#8FC468;}
	.st191{fill:#7EAE58;}
	.st192{fill:#6F9850;}
	.st193{fill:#59884A;}
	.st194{fill:#638347;}
	.st195{fill:#B95135;}
	.st196{fill:#E5AB62;}
	.st197{fill:#733228;}
	.st198{fill:#803728;}
	.st199{fill:#6D974D;}
	.st200{fill:#99CD75;}
	.st201{fill:#93412C;}
	.st202{fill:#93C2EA;}
	.st203{fill:#CD926B;}
	.st204{fill:#E6AF8A;}
	.st205{fill:#E5DB4E;}
	.st206{fill:#FBF375;}
	.st207{fill:#779E54;}
	.st208{fill:#D3966D;}
	.st209{fill:#DA4355;}
	.st210{fill:#A83B4D;}
	.st211{fill:none;stroke:#594144;stroke-width:8;stroke-linecap:round;stroke-miterlimit:10;}
	.st212{fill:#E5A855;}
	.st213{fill:#EAC291;}
	.st214{fill:#96C252;}
	.st215{fill:#695055;}
	.st216{fill:#DC9C42;}
	.st217{fill:#8E5C1B;}
	.st218{fill:#F4EB6A;}
	.st219{fill:#CBC049;}
	.st220{fill:none;stroke:#B8E876;stroke-width:15;stroke-linecap:round;stroke-miterlimit:10;}
	.st221{fill:#A36A1C;}
	.st222{fill:#ECC94A;}
	.st223{fill:#91BEDA;}
	.st224{fill:#3D2F32;}
	.st225{fill:#A6394C;}
	.st226{fill:#33292B;}
	.st227{fill:#4F3D42;}
	.st228{fill:#638147;}
	.st229{fill:#CD8321;}
	.st230{fill:#D3CA4A;}
	.st231{fill:#E2A550;}
	.st232{fill:#B75135;}
	.st233{fill:#D4CD77;}
	.st234{fill:#F3EC80;}
	.st235{fill:#46383B;}
	.st236{fill:#82AA61;}
	.st237{fill:#8EBF69;}
	.st238{fill:#3C2E31;}
	.st239{fill:#C49F27;}
	.st240{fill:#D2BF7C;}
	.st241{fill:#F6E18D;}
	.st242{fill:#D6D6D6;}
	.st243{fill:#B5D7F2;}
	.st244{fill:#F1D467;}
	.st245{fill:#739FBD;}
	.st246{fill:#D0946C;}
	.st247{fill:#BE8767;}
	.st248{fill:#D0A829;}
	.st249{fill:#F6DF86;}
	.st250{fill:#EABA8D;}
	.st251{fill:#F0D1B8;}
	.st252{fill:#A5D0F1;}
	.st253{fill:#E3A13F;}
	.st254{fill:#F0FAFF;}
	.st255{fill:#B4D3E3;}
	.st256{fill:#80A5C3;}
	.st257{fill:#87AFD5;}
	.st258{fill:#B1D1E7;}
	.st259{fill:#AED66F;}
	.st260{fill:#91AA61;}
	.st261{fill:#A8384B;}
	.st262{fill:#CD8120;}
	.st263{fill:#E6AD56;}
	.st264{fill:none;stroke:#E6AD56;stroke-width:8;stroke-linecap:round;stroke-miterlimit:10;}
	.st265{fill:#9EBD68;}
	.st266{fill:#AAD16E;}
	.st267{fill:#86656B;}
	.st268{fill:#6D954D;}
	.st269{fill:#98CB75;}
	.st270{fill:#75A251;}
	.st271{fill:#91BD4F;}
	.st272{fill:none;stroke:#B8E078;stroke-width:8;stroke-linecap:round;stroke-miterlimit:10;}
	.st273{fill:none;stroke:#B8E078;stroke-width:8;stroke-linecap:round;stroke-linejoin:round;stroke-miterlimit:10;}
	.st274{fill:#8FBA4E;}
	.st275{fill:#B3E860;}
	.st276{fill:#E7A748;}
	.st277{fill:none;stroke:#B6E676;stroke-width:15;stroke-linecap:round;stroke-miterlimit:10;}
	.st278{fill:#639B53;}
	.st279{fill:#476B9F;}
	.st280{fill:#82B1DE;}
	.st281{fill:#A6533F;}
	.st282{fill:#C28A69;}
	.st283{fill:#64494E;}
	.st284{fill:#77565C;}
	.st285{fill:#4F3C40;}
	.st286{fill:#ECCCB1;}
	.st287{fill:#BF6F5C;}
	.st288{fill:none;stroke:#D4F1A7;stroke-width:10;stroke-linecap:round;stroke-miterlimit:10;}
	.st289{fill:none;stroke:#B8E876;stroke-width:10;stroke-linecap:round;stroke-miterlimit:10;}
	.st290{fill:#47688F;}
	.st291{fill:#3F5B78;}
	.st292{fill:#354E6C;}
	.st293{fill:#DAB12B;}
	.st294{fill:#C8A028;}
	.st295{fill:#F0D15C;}
	.st296{fill:#F8F28B;}
	.st297{fill:#F7F18D;}
	.st298{fill:#DED450;}
	.st299{fill:#F9F155;}
	.st300{fill:#A2CFF4;}
	.st301{fill:none;stroke:#594144;stroke-width:10;stroke-linecap:round;stroke-miterlimit:10;}
	.st302{fill:#F5F0AB;}
	.st303{fill:#496DA1;}
	.st304{fill:#5A85C7;}
	.st305{fill:#D7D7D7;}
	.st306{fill:#ADD3E6;}
	.st307{fill:#98B8C3;}
	.st308{fill:#CDCECF;}
	.st309{fill:#BF4F69;}
	.st310{fill:#A83448;}
	.st311{fill:#A4DAF7;}
	.st312{fill:#81A861;}
	.st313{fill:#82A549;}
	.st314{fill:#B6E676;}
	.st315{fill:#8CBD69;}
	.st316{fill:#ECC62F;}
	.st317{fill:#F4EA80;}
	.st318{fill:#D6AD2B;}
	.st319{fill:#6F9151;}
	.st320{fill:#46699C;}
	.st321{fill:#4A373A;}
	.st322{fill:#89B04C;}
	.st323{fill:#99CC53;}
	.st324{fill:#B1E465;}
	.st325{fill:#E19E3B;}
	.st326{fill:#C05970;}
	.st327{fill:#D95F74;}
	.st328{fill:#74A8DE;}
	.st329{fill:#C47C1E;}
	.st330{fill:#719A51;}
	.st331{fill:#A8D95E;}
	.st332{fill:#D46C53;}
	.st333{fill:#A45340;}
	.st334{fill:#B6594A;}
	.st335{fill:#79A554;}
	.st336{fill:#B6DAF7;}
	.st337{fill:#739F51;}
	.st338{fill:#DDB32B;}
	.st339{fill:#DE8F22;}
	.st340{fill:none;stroke:#46383B;stroke-width:8;stroke-linecap:round;stroke-miterlimit:10;}
	.st341{fill:none;stroke:#3B2F32;stroke-width:8;stroke-linecap:round;stroke-miterlimit:10;}
	.st342{fill:#C8C8C8;}
	.st343{fill:#7F9D49;}
	.st344{fill:#BA5E44;}
	.st345{fill:#92B955;}
	.st346{fill:#D17F6D;}
	.st347{fill:#5D8F4C;}
	.st348{fill:#B75334;}
	.st349{fill:#CA6D57;}
	.st350{fill:#A4574D;}
	.st351{fill:#7FB1E6;}
	.st352{fill:#77A3CD;}
	.st353{fill:#90BA4F;}
	.st354{fill:#5C8F4B;}
	.st355{fill:#ACDE5D;}
	.st356{fill:#6FAC5A;}
	.st357{fill:none;stroke:#9DD055;stroke-width:10;stroke-linecap:round;stroke-miterlimit:10;}
	.st358{fill:#AD5643;}
	.st359{fill:#B96052;}
	.st360{fill:#CB8D84;}
	.st361{fill:#CC6C56;}
	.st362{fill:#DE9A8E;}
	.st363{fill:#D37B6A;}
	.st364{fill:#A87758;}
	.st365{fill:#372A2C;}
	.st366{fill:#B8815C;}
	.st367{fill:#433335;}
	.st368{fill:#2C2325;}
	.st369{fill:#95402B;}
	.st370{fill:#A85441;}
	.st371{fill:#D2C74B;}
	.st372{fill:#B25945;}
	.st373{fill:none;stroke:#594144;stroke-width:15;stroke-linecap:round;stroke-miterlimit:10;}
	.st374{fill:none;stroke:#594144;stroke-width:12;stroke-linecap:round;stroke-miterlimit:10;}
	.st375{fill:#8F473B;}
	.st376{fill:#453538;}
	.st377{fill:#517DAB;}
	.st378{fill:#75A050;}
	.st379{fill:#A5384D;}
	.st380{fill:#CC6075;}
	.st381{fill:#F26B7F;}
	.st382{fill:#C67189;}
	.st383{fill:#B26980;}
	.st384{fill:#D87990;}
	.st385{fill:#F2869B;}
	.st386{fill:#EF8499;}
	.st387{fill:#649CD7;}
	.st388{fill:#639CDB;}
	.st389{fill:#C8ED8D;}
	.st390{fill:#A9DB83;}
	.st391{fill:#9BCF76;}
	.st392{fill:#7EAC58;}
	.st393{fill:#8CC463;}
	.st394{fill:#7FAC5B;}
	.st395{fill:#769C55;}
	.st396{fill:#6A894D;}
	.st397{fill:#769B56;}
	.st398{fill:#9BCC75;}
	.st399{fill:#AF5641;}
	.st400{fill:#F4D576;}
	.st401{fill:#76A055;}
	.st402{fill:#628347;}
	.st403{fill:#4F7B9F;}
	.st404{fill:#466D86;}
	.st405{fill:#4D789C;}
</style>
<g id="BULINE">
	<circle id="XMLID_2019_" class="st1" cx="256" cy="256" r="256"/>
</g>
<g id="Icons">
	<g id="XMLID_510_">
		<path id="XMLID_2733_" class="st10" d="M512,256c0,2.1,0,4.2-0.1,6.3c0,0.6,0,1.2,0,1.8c0,0.6,0,1.2-0.1,1.7
			c0,0.9-0.1,1.8-0.1,2.7c0,0.9-0.1,1.8-0.1,2.7c-0.1,1.6-0.2,3.2-0.3,4.8c-0.1,0.8-0.1,1.6-0.2,2.3c-0.1,0.9-0.2,1.8-0.2,2.6
			c-0.1,0.9-0.2,1.7-0.3,2.6c-0.1,0.7-0.1,1.4-0.2,2.1c-0.1,0.9-0.2,1.9-0.3,2.8c-0.1,0.7-0.2,1.3-0.3,2c-0.1,0.9-0.2,1.9-0.4,2.8
			c-0.1,0.7-0.2,1.4-0.3,2.1c-0.1,0.9-0.3,1.8-0.4,2.6c-0.2,1.1-0.4,2.1-0.5,3.2c-0.2,0.9-0.3,1.9-0.5,2.8c0,0.2-0.1,0.3-0.1,0.5
			c-0.1,0.8-0.3,1.6-0.5,2.4c-0.2,1.2-0.5,2.4-0.8,3.7c-0.2,1-0.5,2.1-0.7,3.1c-0.2,0.9-0.4,1.9-0.7,2.8c-0.5,2.1-1.1,4.3-1.6,6.4
			c-0.2,0.7-0.4,1.5-0.6,2.2c-0.1,0.4-0.2,0.7-0.3,1.1c-0.6,1.9-1.1,3.9-1.7,5.8c-0.6,2-1.3,4-1.9,6c-0.3,1-0.7,2-1,3
			c-0.3,1-0.7,2-1.1,2.9c-0.3,0.8-0.6,1.5-0.9,2.3c-0.2,0.6-0.5,1.2-0.7,1.9c-0.5,1.2-1,2.5-1.5,3.7c0,0,0,0,0,0.1
			c-0.4,0.9-0.8,1.9-1.1,2.8c-1.3,3.2-2.7,6.3-4.2,9.4c-0.4,0.9-0.9,1.9-1.3,2.8c-0.3,0.7-0.7,1.4-1.1,2.1c-1.3,2.7-2.7,5.4-4.2,8.1
			c-1.4,2.6-2.8,5.2-4.3,7.7h0l-103.3,42.6l-10.7,4.4l-8.1,3.3l-73.7,5.4l-42,3.1l-32.3,2.4l-29.2,2.1l-53.8,3.9l-49.2-15l0,0
			c-1-1-2-2-2.9-3c-1-1-2-2-2.9-3.1c-1.8-1.9-3.5-3.8-5.2-5.8c-0.4-0.4-0.7-0.8-1.1-1.2c-0.7-0.8-1.4-1.6-2.1-2.5
			c-0.9-1.1-1.8-2.2-2.7-3.2c-0.8-1-1.6-2-2.5-3c-0.1-0.1-0.2-0.3-0.3-0.4c-0.8-1.1-1.6-2.1-2.5-3.2l0,0c-0.8-1.1-1.7-2.2-2.5-3.3
			c0,0-0.1-0.1-0.1-0.1c-0.6-0.8-1.2-1.7-1.8-2.5c-1-1.4-2-2.8-3-4.2c-0.8-1.1-1.5-2.2-2.3-3.3c-0.1-0.1-0.1-0.2-0.2-0.3
			c-0.7-1.1-1.5-2.2-2.2-3.4c-0.8-1.2-1.5-2.4-2.2-3.5c-0.7-1.1-1.4-2.2-2-3.4c-0.8-1.3-1.5-2.6-2.3-3.9c-1.8-3-3.4-6.1-5.1-9.2
			c-0.4-0.7-0.7-1.3-1-2c-1.6-3-3.1-6.1-4.5-9.2c-0.3-0.7-0.6-1.3-0.9-2c0,0,0,0,0,0c-0.5-1-0.9-2.1-1.4-3.1
			c-0.4-0.9-0.8-1.9-1.2-2.8c-0.3-0.7-0.6-1.5-0.9-2.2c-0.2-0.4-0.3-0.8-0.5-1.2c-0.3-0.6-0.5-1.2-0.8-1.9c-0.8-2.1-1.6-4.1-2.4-6.2
			c-0.3-0.7-0.5-1.4-0.8-2.2c-0.8-2.2-1.5-4.4-2.2-6.6c-0.4-1.3-0.8-2.6-1.2-3.9c-0.4-1.3-0.8-2.6-1.1-3.8c0-0.1-0.1-0.2-0.1-0.2
			c-0.4-1.3-0.7-2.6-1.1-3.9c0-0.1,0-0.1,0-0.2c-0.3-1.2-0.7-2.4-1-3.7c-0.1-0.2-0.1-0.4-0.2-0.6c-0.3-1-0.5-2.1-0.8-3.1
			c-0.1-0.3-0.2-0.7-0.2-1c-0.3-1.2-0.6-2.4-0.8-3.6c-0.4-1.6-0.7-3.2-1-4.9c-0.2-0.8-0.3-1.7-0.5-2.6c-0.1-0.6-0.2-1.2-0.3-1.8
			c-0.1-0.5-0.2-1-0.3-1.5c-0.1-0.7-0.2-1.5-0.4-2.2c-0.2-1.1-0.3-2.1-0.5-3.2c-0.1-0.6-0.2-1.1-0.2-1.6c-0.1-0.9-0.3-1.8-0.4-2.7
			c-0.1-0.3-0.1-0.6-0.1-0.9c-0.1-0.9-0.2-1.8-0.3-2.7c-0.1-0.5-0.1-1.1-0.2-1.6c-0.1-1.2-0.3-2.4-0.4-3.6c-0.1-1.4-0.3-2.8-0.4-4.2
			c0-0.1,0-0.2,0-0.2c-0.1-1.3-0.2-2.6-0.3-4c0-0.1,0-0.1,0-0.2c-0.1-1.3-0.2-2.6-0.2-3.9c-0.1-1.1-0.1-2.3-0.2-3.4
			c0-0.7,0-1.4-0.1-2.1c0-1.1-0.1-2.3-0.1-3.4c0-1.5,0-2.9,0-4.4c0-1.3,0-2.5,0-3.8c0-1.2,0-2.4,0.1-3.5c0.1-1.5,0.1-3,0.2-4.6
			c0-0.8,0.1-1.7,0.1-2.5c0-0.5,0-0.9,0.1-1.4c0.1-2.3,0.3-4.6,0.5-6.8c0.1-1.2,0.2-2.3,0.3-3.5c0.1-1.3,0.3-2.6,0.4-3.9
			c0.1-0.7,0.2-1.4,0.2-2c0-0.3,0.1-0.6,0.1-1c0.1-0.8,0.2-1.6,0.3-2.4c0.1-0.9,0.2-1.8,0.4-2.6c0.1-0.5,0.2-1.1,0.2-1.6
			c0.4-2.5,0.8-4.9,1.2-7.3c0.1-0.7,0.3-1.5,0.4-2.2c1-5.1,2.1-10.1,3.4-15c0.2-0.7,0.4-1.5,0.6-2.2c0.1-0.5,0.3-1,0.4-1.5
			c0.2-0.8,0.4-1.5,0.6-2.3c0.3-1.2,0.7-2.5,1.1-3.7c0.2-0.6,0.4-1.2,0.5-1.8c0.7-2.3,1.4-4.5,2.2-6.8c0.3-0.9,0.6-1.7,0.9-2.6
			c0.1-0.3,0.2-0.7,0.4-1c0.5-1.5,1.1-3,1.6-4.4c0.1-0.3,0.2-0.5,0.3-0.8c0.3-0.8,0.6-1.5,0.9-2.2c0.4-1.1,0.8-2.1,1.3-3.2
			c0.3-0.8,0.7-1.7,1-2.5c0.1-0.2,0.2-0.4,0.3-0.6c0.3-0.8,0.7-1.6,1-2.4c0.1-0.2,0.1-0.3,0.2-0.5c0.3-0.8,0.7-1.5,1-2.2
			c0.1-0.2,0.2-0.5,0.3-0.8c0.4-0.8,0.8-1.6,1.1-2.4c0.4-0.9,0.9-1.9,1.3-2.8c0.3-0.6,0.6-1.3,0.9-1.9c0.6-1.1,1.1-2.3,1.7-3.4
			c0.6-1.2,1.2-2.3,1.8-3.5c0.3-0.5,0.5-1,0.8-1.5c0.6-1.1,1.2-2.2,1.8-3.2c0.6-1.1,1.2-2.1,1.8-3.2c0.4-0.7,0.8-1.4,1.2-2.1
			c0.6-1,1.2-2,1.8-3c0.8-1.2,1.5-2.4,2.3-3.7c0.1-0.1,0.1-0.2,0.2-0.3c1.6-2.6,3.3-5.1,5-7.6c0.9-1.3,1.8-2.6,2.7-3.8c0,0,0,0,0,0
			c0.9-1.2,1.8-2.5,2.7-3.7c0.9-1.2,1.8-2.5,2.8-3.7c0,0,0,0,0,0c0.9-1.2,1.9-2.5,2.9-3.7c0.9-1.2,1.9-2.4,2.9-3.6
			c0,0,0-0.1,0.1-0.1c0.9-1.1,1.9-2.2,2.8-3.4c0.1-0.1,0.1-0.1,0.2-0.2c1.6,0.8,3.1,1.6,4.7,2.5c0,0,44.9,26.3,82.1,0
			c0,0,43.8-26.3,88.6,0c0,0,48.2,20.8,83.2,0c0,0,51.4-27.3,89.7,0c0,0,24.1,14.6,50.4,9.5c0,0,0.1,0.1,0.1,0.1
			c0.8,1.1,1.7,2.2,2.5,3.4c0.8,1.2,1.7,2.3,2.5,3.5c0,0,0,0,0,0c0.8,1.1,1.6,2.3,2.4,3.5c0,0,0.1,0.1,0.1,0.1
			c0.8,1.2,1.6,2.4,2.4,3.6c2.4,3.6,4.7,7.3,6.9,11.1c0.7,1.3,1.5,2.5,2.2,3.8c0.7,1.3,1.4,2.5,2.1,3.8c0.7,1.3,1.4,2.6,2,3.9
			c1.3,2.6,2.6,5.2,3.9,7.8c0.6,1.3,1.2,2.6,1.9,4c0.6,1.3,1.2,2.7,1.8,4c0.6,1.3,1.1,2.7,1.7,4c0.6,1.3,1.1,2.7,1.6,4c0,0,0,0,0,0
			c0.5,1.3,1,2.6,1.5,3.9c0.1,0.2,0.1,0.3,0.2,0.5c0.4,1.1,0.8,2.1,1.2,3.2c0.1,0.4,0.3,0.7,0.4,1.1c0.4,1.2,0.9,2.4,1.3,3.7
			c0.5,1.4,0.9,2.8,1.4,4.2c0.9,2.7,1.7,5.5,2.5,8.2c0.1,0.2,0.1,0.4,0.2,0.6c0.7,2.6,1.4,5.2,2,7.9c0.1,0.5,0.2,0.9,0.3,1.4
			c0.3,1.1,0.5,2.2,0.8,3.4c0.3,1.4,0.6,2.7,0.9,4.1c0,0.1,0.1,0.3,0.1,0.4c0.3,1.4,0.6,2.9,0.8,4.3c0.2,1.1,0.4,2.3,0.6,3.4
			c0.1,0.4,0.1,0.9,0.2,1.3c0,0.2,0.1,0.4,0.1,0.6c0.2,1.2,0.4,2.4,0.6,3.6c0.2,1.3,0.4,2.7,0.6,4c0.2,1.8,0.5,3.6,0.7,5.4
			c0.2,1.3,0.3,2.7,0.4,4c0,0.1,0,0.1,0,0.1c0,0.1,0,0.1,0,0.2c0.1,0.8,0.1,1.5,0.2,2.2c0.1,0.7,0.1,1.3,0.1,2c0,0.2,0,0.4,0.1,0.6
			c0.1,0.8,0.1,1.6,0.2,2.4c0,0.4,0,0.7,0.1,1c0,0.6,0.1,1.1,0.1,1.7c0,0.6,0.1,1.2,0.1,1.9c0,0.9,0.1,1.7,0.1,2.6
			c0,0.8,0.1,1.7,0.1,2.5C512,251.1,512,253.5,512,256z"/>
		<path id="XMLID_2692_" class="st0" d="M512,256c0,2.1,0,4.2-0.1,6.3c0,0.6,0,1.2,0,1.8c0,0.6,0,1.2-0.1,1.7c0,0.9-0.1,1.8-0.1,2.7
			c0,0.9-0.1,1.8-0.1,2.7c-0.1,1.6-0.2,3.2-0.3,4.8c-0.1,0.8-0.1,1.6-0.2,2.3c-0.1,0.9-0.2,1.8-0.2,2.6c-0.1,0.9-0.2,1.7-0.3,2.6
			c-0.1,0.7-0.1,1.4-0.2,2.1c-0.1,0.9-0.2,1.9-0.3,2.8c-0.1,0.7-0.2,1.3-0.3,2c-0.1,0.9-0.2,1.9-0.4,2.8c-0.1,0.7-0.2,1.4-0.3,2.1
			c-0.1,0.9-0.3,1.8-0.4,2.6c-0.2,1.1-0.4,2.1-0.5,3.2c-0.2,0.9-0.3,1.9-0.5,2.8c0,0.2-0.1,0.3-0.1,0.5c-0.1,0.8-0.3,1.6-0.5,2.4
			c-0.2,1.2-0.5,2.4-0.8,3.7c-0.2,1-0.5,2.1-0.7,3.1c-0.2,0.9-0.4,1.9-0.7,2.8c-0.5,2.1-1.1,4.3-1.6,6.4c-0.2,0.7-0.4,1.5-0.6,2.2
			c-0.1,0.4-0.2,0.7-0.3,1.1c-0.6,1.9-1.1,3.9-1.7,5.8c-0.6,2-1.3,4-1.9,6c-0.3,1-0.7,2-1,3c-0.3,1-0.7,2-1.1,2.9
			c-0.3,0.8-0.6,1.5-0.9,2.3c-0.2,0.6-0.5,1.2-0.7,1.9c-0.5,1.2-1,2.5-1.5,3.7c0,0,0,0,0,0.1c-0.4,0.9-0.8,1.9-1.1,2.8
			c-1.3,3.2-2.7,6.3-4.2,9.4c-0.4,0.9-0.9,1.9-1.3,2.8c-0.3,0.7-0.7,1.4-1.1,2.1c-1.3,2.7-2.7,5.4-4.2,8.1c-1.4,2.6-2.8,5.2-4.3,7.7
			h0c-1.6,2.7-3.2,5.4-4.9,8c-1.7,2.6-3.4,5.3-5.2,7.8c-0.9,1.3-1.8,2.6-2.7,3.8c-0.9,1.3-1.8,2.5-2.8,3.8c-0.9,1.3-1.9,2.5-2.8,3.7
			c-0.8,1.1-1.7,2.2-2.6,3.2c-0.3,0.3-0.5,0.7-0.8,1c-0.8,1-1.7,2-2.5,3.1c-0.9,1.1-1.9,2.3-2.9,3.4c-0.2,0.2-0.4,0.4-0.5,0.6
			c-0.9,1-1.8,2.1-2.7,3.1c-1,1.2-2.1,2.3-3.1,3.5c-2.1,2.3-4.3,4.5-6.5,6.7c-1.1,1.1-2.2,2.2-3.3,3.3c-1.1,1.1-2.2,2.2-3.4,3.2
			c0,0-0.1,0.1-0.1,0.1c-1,1-2.1,1.9-3.2,2.9c-0.2,0.2-0.3,0.3-0.5,0.4c-1,0.9-2,1.8-3,2.7c-0.1,0.1-0.3,0.2-0.4,0.4
			c-1,0.9-2,1.8-3.1,2.6c-0.2,0.2-0.4,0.3-0.6,0.5c-1.1,0.9-2.1,1.8-3.2,2.6c0,0-0.1,0.1-0.1,0.1c-1.2,1-2.4,1.9-3.7,2.9
			c-1.2,1-2.5,1.9-3.7,2.8c-1.1,0.9-2.3,1.7-3.5,2.5c-0.2,0.1-0.4,0.3-0.6,0.4c-1.2,0.9-2.4,1.7-3.6,2.5c-1.3,0.9-2.5,1.7-3.8,2.6
			c-0.1,0-0.1,0.1-0.2,0.1c-1.3,0.9-2.6,1.7-3.9,2.5c-1.3,0.8-2.6,1.7-4,2.5c-1.1,0.7-2.2,1.4-3.4,2c-0.4,0.2-0.8,0.5-1.3,0.7
			c-1.2,0.7-2.3,1.3-3.5,2c-1.1,0.6-2.2,1.2-3.3,1.9c-0.6,0.3-1.1,0.6-1.7,0.9c-0.8,0.4-1.6,0.9-2.5,1.3c-0.4,0.2-0.9,0.5-1.3,0.7
			c-1.2,0.6-2.4,1.2-3.6,1.8c0,0-0.1,0-0.1,0.1c-0.8,0.4-1.5,0.7-2.3,1.1c-0.6,0.3-1.2,0.6-1.8,0.8c-0.9,0.4-1.8,0.8-2.6,1.2
			c-1,0.5-2,0.9-3,1.4c-1.1,0.5-2.2,1-3.3,1.4c-0.1,0-0.2,0.1-0.2,0.1c-1,0.4-2,0.9-3.1,1.3c-1.1,0.5-2.2,0.9-3.3,1.3c0,0,0,0,0,0
			c-1.1,0.4-2.2,0.8-3.3,1.3c-0.9,0.4-1.9,0.7-2.8,1c-0.4,0.1-0.7,0.3-1.1,0.4c-0.9,0.3-1.8,0.6-2.7,0.9c-0.1,0-0.2,0.1-0.2,0.1
			c-0.9,0.3-1.9,0.6-2.8,0.9c-1.4,0.5-2.8,0.9-4.1,1.3c-2.2,0.7-4.3,1.3-6.5,1.9c-1.4,0.4-2.8,0.8-4.2,1.2c-0.8,0.2-1.6,0.4-2.4,0.6
			c-0.9,0.2-1.7,0.4-2.6,0.7c-0.8,0.2-1.7,0.4-2.5,0.6c-1,0.2-2.1,0.5-3.1,0.7c-2.1,0.4-4.1,0.9-6.2,1.3c-0.7,0.1-1.4,0.3-2.2,0.4
			c-2.1,0.4-4.1,0.7-6.2,1.1c-0.8,0.1-1.5,0.2-2.3,0.3c-0.3,0.1-0.7,0.1-1,0.2c-0.7,0.1-1.3,0.2-2,0.3c-0.7,0.1-1.5,0.2-2.2,0.3
			c-2.1,0.3-4.3,0.5-6.4,0.7c-1.2,0.1-2.4,0.2-3.6,0.3c-1,0.1-2,0.2-3,0.2c-0.6,0.1-1.2,0.1-1.8,0.1c-0.8,0.1-1.7,0.1-2.5,0.2H271
			c-1.2,0.1-2.4,0.1-3.5,0.2c-0.1,0-0.2,0-0.4,0c-1,0.1-2,0.1-3.1,0.1c-0.2,0-0.4,0-0.6,0c-1.2,0-2.4,0.1-3.6,0.1
			c-1.3,0-2.5,0-3.8,0c-3.5,0-7-0.1-10.5-0.2c-1.1,0-2.2-0.1-3.3-0.2c-0.9,0-1.9-0.1-2.8-0.2c-1-0.1-2-0.1-3-0.2
			c-0.6,0-1.2-0.1-1.9-0.1c-0.8-0.1-1.7-0.1-2.5-0.2c-0.8-0.1-1.7-0.2-2.5-0.2c-0.7-0.1-1.5-0.1-2.2-0.2c-1.3-0.1-2.7-0.3-4-0.5
			c-0.8-0.1-1.6-0.2-2.3-0.3c-0.5-0.1-1-0.1-1.5-0.2c-0.7-0.1-1.3-0.2-2-0.3c-0.2,0-0.4-0.1-0.6-0.1c-1-0.2-1.9-0.3-2.9-0.5
			c-1-0.1-1.9-0.3-2.8-0.5c-0.9-0.2-1.9-0.3-2.8-0.5c-0.8-0.2-1.7-0.3-2.5-0.5c-0.2,0-0.4-0.1-0.6-0.1c-0.8-0.2-1.6-0.3-2.4-0.5
			c-0.7-0.1-1.4-0.3-2.1-0.4c-0.8-0.2-1.6-0.4-2.4-0.5c-3.3-0.8-6.6-1.6-9.8-2.5c-0.8-0.2-1.7-0.5-2.5-0.7c-2-0.6-4-1.1-5.9-1.8
			c-0.3-0.1-0.7-0.2-1-0.3c-0.8-0.3-1.7-0.5-2.5-0.8c-2.9-0.9-5.7-1.9-8.5-2.9c-0.8-0.3-1.5-0.6-2.3-0.8c-0.3-0.1-0.6-0.2-0.9-0.3
			c-0.6-0.2-1.3-0.5-1.9-0.7c-0.9-0.4-1.8-0.7-2.7-1.1c-0.6-0.2-1.2-0.5-1.8-0.8c-0.3-0.1-0.6-0.2-0.9-0.4c-0.9-0.4-1.7-0.7-2.6-1.1
			c-0.9-0.4-1.8-0.8-2.7-1.2c-0.1,0-0.2-0.1-0.3-0.1c-3.3-1.5-6.6-3-9.8-4.6c-0.8-0.4-1.7-0.9-2.5-1.3c-0.9-0.5-1.8-0.9-2.8-1.4
			c-2-1.1-4-2.1-5.9-3.2c-1.6-0.9-3.2-1.9-4.9-2.8c-0.1,0-0.1-0.1-0.2-0.1c-1.7-1-3.3-2-5-3c-3.6-2.3-7.2-4.7-10.8-7.1
			c-0.7-0.5-1.3-0.9-2-1.4c-3.5-2.5-6.9-5-10.3-7.7c-0.7-0.5-1.4-1.1-2.1-1.7c-0.8-0.6-1.5-1.2-2.2-1.8c-0.1-0.1-0.2-0.1-0.2-0.2
			c-0.7-0.5-1.3-1.1-2-1.6c-0.2-0.1-0.3-0.2-0.5-0.4c-0.7-0.6-1.5-1.2-2.2-1.9c-0.8-0.7-1.6-1.3-2.3-2c-0.5-0.5-1.1-1-1.6-1.5
			c-3.2-2.9-6.4-5.9-9.5-9l0,0c-1-1-2-2-2.9-3c-1-1-2-2-2.9-3.1c-1.8-1.9-3.5-3.8-5.2-5.8c-0.4-0.4-0.7-0.8-1.1-1.2
			c-0.7-0.8-1.4-1.6-2.1-2.5c-0.9-1.1-1.8-2.2-2.7-3.2c-0.8-1-1.6-2-2.5-3c-0.1-0.1-0.2-0.3-0.3-0.4c-0.8-1.1-1.6-2.1-2.5-3.2l0,0
			c-0.8-1.1-1.7-2.2-2.5-3.3c0,0-0.1-0.1-0.1-0.1c-0.6-0.8-1.2-1.7-1.8-2.5c-1-1.4-2-2.8-3-4.2c-0.8-1.1-1.5-2.2-2.3-3.3
			c-0.1-0.1-0.1-0.2-0.2-0.3c-0.7-1.1-1.5-2.2-2.2-3.4c-0.8-1.2-1.5-2.4-2.2-3.5c-0.7-1.1-1.4-2.2-2-3.4c-0.8-1.3-1.5-2.6-2.3-3.9
			c-1.8-3-3.4-6.1-5.1-9.2c-0.4-0.7-0.7-1.3-1-2c-1.6-3-3.1-6.1-4.5-9.2c-0.3-0.7-0.6-1.3-0.9-2c0,0,0,0,0,0c-0.5-1-0.9-2.1-1.4-3.1
			c-0.4-0.9-0.8-1.9-1.2-2.8c-0.3-0.7-0.6-1.5-0.9-2.2c-0.2-0.4-0.3-0.8-0.5-1.2c-0.3-0.6-0.5-1.2-0.8-1.9c-0.8-2.1-1.6-4.1-2.4-6.2
			c-0.3-0.7-0.5-1.4-0.8-2.2c-0.8-2.2-1.5-4.4-2.2-6.6c-0.4-1.3-0.8-2.6-1.2-3.9c-0.4-1.3-0.8-2.6-1.1-3.8c0-0.1-0.1-0.2-0.1-0.2
			c-0.4-1.3-0.7-2.6-1.1-3.9c0-0.1,0-0.1,0-0.2c-0.3-1.2-0.7-2.4-1-3.7c-0.1-0.2-0.1-0.4-0.2-0.6c-0.3-1-0.5-2.1-0.8-3.1
			c-0.1-0.3-0.2-0.7-0.2-1c-0.3-1.2-0.6-2.4-0.8-3.6c-0.4-1.6-0.7-3.2-1-4.9c-0.2-0.8-0.3-1.7-0.5-2.6c-0.1-0.6-0.2-1.2-0.3-1.8
			c-0.1-0.5-0.2-1-0.3-1.5c-0.1-0.7-0.2-1.5-0.4-2.2c-0.2-1.1-0.3-2.1-0.5-3.2c-0.1-0.6-0.2-1.1-0.2-1.6c-0.1-0.9-0.3-1.8-0.4-2.7
			c-0.1-0.3-0.1-0.6-0.1-0.9c-0.1-0.9-0.2-1.8-0.3-2.7c-0.1-0.5-0.1-1.1-0.2-1.6c-0.1-1.2-0.3-2.4-0.4-3.6c-0.1-1.4-0.3-2.8-0.4-4.2
			c0-0.1,0-0.2,0-0.2c-0.1-1.3-0.2-2.6-0.3-4c0-0.1,0-0.1,0-0.2c-0.1-1.3-0.2-2.6-0.2-3.9c-0.1-1.1-0.1-2.3-0.2-3.4
			c0-0.7,0-1.4-0.1-2.1c0-1.1-0.1-2.3-0.1-3.4c0-1.5,0-2.9,0-4.4c0-1.3,0-2.5,0-3.8c0-1.2,0-2.4,0.1-3.5c0.1-1.5,0.1-3,0.2-4.6
			c0-0.8,0.1-1.7,0.1-2.5c0-0.5,0-0.9,0.1-1.4c0.1-2.3,0.3-4.6,0.5-6.8c0.1-1.2,0.2-2.3,0.3-3.5c0.1-1.3,0.3-2.6,0.4-3.9h0
			c11.7-0.2,24.6,1.3,38.4,5.6c2.8,0.9,5.6,1.9,8.4,3c4.5,1.8,9,3.8,13.6,6.2c1.3,0.7,2.6,1.4,4,2.2c0,0,0.7,0.4,1.9,1c0,0,0,0,0,0
			c1.7,0.9,4.5,2.3,8.2,3.7c4.4,1.7,9.9,3.6,16.3,5c8.1,1.7,17.6,2.6,27.4,1.3c2.2-0.3,4.4-0.7,6.6-1.2c3.8-0.9,7.6-2.2,11.3-3.9
			c3.5-1.6,6.9-3.5,10.2-5.9c0,0,0.1-0.1,0.1-0.1c0,0,2.4-1.4,6.6-3.3c2-0.9,4.4-1.9,7.2-2.8c6.6-2.3,15.3-4.6,25.3-5.3
			c0.3,0,0.5,0,0.8-0.1c8.1-0.5,17.1,0,26.4,2.3c7.3,1.8,14.9,4.8,22.4,9.2c0,0,6.3,2.7,16.1,5.2c3.1,0.8,6.5,1.5,10.2,2.2
			c13.1,2.3,29.4,3.1,44.6-1.9c4.2-1.4,8.3-3.2,12.3-5.6c0,0,13.3-7.1,31.4-10.4c15-2.8,33.2-3,49.9,5.4c1.4,0.7,2.8,1.5,4.2,2.3
			c1.4,0.8,2.8,1.8,4.2,2.7c0,0,39.2,23.7,72.2,0c0,0,11.9-7.2,28.8-11.3c0,0.1,0,0.1,0,0.2c0.1,0.8,0.1,1.5,0.2,2.2
			c0.1,0.7,0.1,1.3,0.1,2c0,0.2,0,0.4,0.1,0.6c0.1,0.8,0.1,1.6,0.2,2.4c0,0.4,0,0.7,0.1,1c0,0.6,0.1,1.1,0.1,1.7
			c0,0.6,0.1,1.2,0.1,1.9c0,0.9,0.1,1.7,0.1,2.6c0,0.8,0.1,1.7,0.1,2.5C512,251.1,512,253.5,512,256z"/>
		<path id="XMLID_1684_" class="st1" d="M418.5,336.6c2.2-6.5,0.3-13.1-4.2-16.4c5.6,0.1,11.1-4.1,13.2-10.6
			c2.4-7.1-0.2-14.4-5.7-17.3c5.2-0.5,10.1-4.5,12.1-10.5c2.1-6.3,0.3-12.9-4-16.2c4.1-1.4,7.8-5,9.4-10c2.6-7.7-0.6-15.8-7.2-17.9
			c-0.5-0.2-0.9-0.3-1.4-0.4c0.2-1.3,0.3-2.6,0.4-3.8c0.8-9,0.1-14.4-2.4-15.3c-2.8-0.9-7.4,4.3-13.1,14.1c-0.6-0.4-1.3-0.7-2.1-1
			c-6.5-2.2-13.9,2.3-16.5,10c-1.7,5.1-0.9,10.3,1.8,13.9c-5.3,0.4-10.3,4.4-12.3,10.5c-2,6-0.5,12.2,3.3,15.7
			c-6.1-1-12.5,3.3-14.9,10.4c-2.2,6.5-0.3,13.1,4.2,16.4c-5.6-0.1-11.1,4.1-13.2,10.6c-1.8,5.4-0.7,11,2.3,14.6
			c-4.6,1-8.8,4.9-10.6,10.3c-2.3,7,0.1,14.2,5.4,17.1c-5.1,0.6-9.8,4.6-11.8,10.5c-2,6-0.5,12.1,3.3,15.6c-5.1,0.5-10,4.5-12,10.5
			c-2.6,7.7,0.6,15.8,7.2,17.9c0.9,0.3,1.9,0.5,2.8,0.5c-2.8,16.8-2.9,27.5,0.6,28.6c2.4,0.8,6.3-3.1,11-10.8
			c2-3.3,4.3-7.2,6.6-11.8c0.8,0.5,1.6,1,2.6,1.3c6.5,2.2,13.9-2.3,16.5-10c2-6,0.5-12.1-3.3-15.6c5.1-0.5,10-4.6,12-10.5
			c2-5.9,0.6-11.9-3.1-15.5c6,0.9,12.3-3.5,14.6-10.5c1.8-5.4,0.8-11-2.3-14.6C412.5,345.8,416.7,342,418.5,336.6z"/>
		<path id="XMLID_2487_" class="st1" d="M366.1,373.4c-1.8-5.1-6.3-8.3-10.7-8.1c3.5-2.7,4.9-8,3-13.1c-2-5.6-7.2-8.9-12.1-8
			c3-2.9,4.1-7.8,2.3-12.5c-1.8-5-6.1-8.2-10.5-8.2c1.9-2.9,2.4-7,1-10.9c-2.2-6.1-8.2-9.5-13.3-7.7c-0.4,0.1-0.7,0.3-1.1,0.5
			c-0.6-0.9-1.1-1.7-1.6-2.5c-4-6-7.1-9-9-8.4c-2.2,0.8-2.5,6.3-1.2,15.3c-0.6,0.1-1.2,0.2-1.8,0.4c-5.2,1.9-7.6,8.3-5.4,14.4
			c1.5,4,4.6,6.9,8,7.8c-3.1,2.8-4.2,7.9-2.5,12.7c1.7,4.7,5.7,7.9,9.8,8.1c-4.3,2.4-6.2,8.3-4.2,13.9c1.8,5.1,6.3,8.3,10.7,8.1
			c-3.5,2.7-4.9,8-3,13.1c1.6,4.3,5,7.2,8.7,8c-2.4,2.9-3.1,7.4-1.5,11.7c2,5.5,7.1,8.8,11.9,8c-2.9,2.9-3.9,7.7-2.2,12.4
			c1.7,4.7,5.7,7.8,9.8,8.1c-2.9,2.9-4,7.8-2.3,12.5c2.2,6.1,8.2,9.5,13.3,7.7c0.7-0.3,1.4-0.6,2-1.1c6.5,11.9,11.8,18.6,14.5,17.6
			c1.9-0.7,2.4-5.1,1.6-12.2c-0.3-3.1-0.9-6.6-1.7-10.6c0.8-0.1,1.5-0.2,2.3-0.5c5.2-1.9,7.6-8.3,5.4-14.4c-1.7-4.7-5.7-7.8-9.7-8.1
			c2.9-2.9,4-7.8,2.3-12.5c-1.7-4.6-5.6-7.7-9.6-8.1c4.2-2.4,6-8.2,4-13.8c-1.6-4.3-5-7.2-8.7-8
			C366.9,382.1,367.6,377.7,366.1,373.4z"/>
		<path id="XMLID_2597_" class="st246" d="M493.4,351.9C493.4,351.9,493.4,351.9,493.4,351.9c-0.4,1-0.8,1.9-1.2,2.9
			c-1.3,3.2-2.7,6.3-4.2,9.4c-0.4,0.9-0.9,1.9-1.3,2.8c-0.3,0.7-0.7,1.4-1.1,2.1c-1.3,2.7-2.7,5.4-4.2,8.1c-1.4,2.6-2.8,5.2-4.3,7.7
			h0c-1.6,2.7-3.2,5.4-4.9,8c-1.7,2.6-3.4,5.3-5.2,7.8c-0.9,1.3-1.8,2.6-2.7,3.8c-0.9,1.3-1.8,2.5-2.8,3.8c-0.9,1.3-1.9,2.5-2.8,3.7
			c-0.8,1.1-1.7,2.2-2.6,3.2c-0.3,0.3-0.5,0.7-0.8,1c-0.8,1-1.7,2-2.5,3.1c-0.9,1.1-1.9,2.3-2.9,3.4c-0.2,0.2-0.4,0.4-0.5,0.6
			c-0.9,1-1.8,2.1-2.7,3.1c-1,1.2-2.1,2.3-3.1,3.5c-2.1,2.3-4.3,4.5-6.5,6.7c-1.1,1.1-2.2,2.2-3.3,3.3c-1.1,1.1-2.2,2.2-3.4,3.2
			c0,0-0.1,0.1-0.1,0.1c-1,1-2.1,1.9-3.2,2.9c-0.2,0.2-0.3,0.3-0.5,0.4c-1,0.9-2,1.8-3,2.7c-0.1,0.1-0.3,0.2-0.4,0.4
			c-1,0.9-2,1.8-3.1,2.6c-0.2,0.2-0.4,0.3-0.6,0.5c-1.1,0.9-2.1,1.8-3.2,2.6c0,0-0.1,0.1-0.1,0.1c-1.2,1-2.4,1.9-3.7,2.9
			c-1.2,1-2.5,1.9-3.7,2.8c-1.1,0.9-2.3,1.7-3.5,2.5c-0.2,0.1-0.4,0.3-0.6,0.4c-1.2,0.9-2.4,1.7-3.6,2.5c-1.3,0.9-2.5,1.7-3.8,2.6
			c-0.1,0-0.1,0.1-0.2,0.1c-1.3,0.9-2.6,1.7-3.9,2.5c-1.3,0.8-2.6,1.7-4,2.5c-1.1,0.7-2.2,1.4-3.4,2c-0.4,0.2-0.8,0.5-1.3,0.7
			c-1.2,0.7-2.3,1.3-3.5,2c-1.1,0.6-2.2,1.2-3.3,1.9c-0.6,0.3-1.1,0.6-1.7,0.9c-0.8,0.4-1.6,0.9-2.5,1.3c-0.4,0.2-0.9,0.5-1.3,0.7
			c-1.2,0.6-2.4,1.2-3.6,1.8c0,0-0.1,0-0.1,0.1c-60.7,0-126.3,0-126.3,0s-45.7,2.1-90.7,4.1c-3.3-1.5-6.6-3-9.8-4.6
			c-0.8-0.4-1.7-0.9-2.5-1.3c-0.9-0.5-1.8-0.9-2.8-1.4c-2-1.1-4-2.1-5.9-3.2c-1.6-0.9-3.2-1.9-4.9-2.8c-0.1,0-0.1-0.1-0.2-0.1
			c-1.7-1-3.3-2-5-3c-3.6-2.3-7.2-4.7-10.8-7.1c-0.7-0.5-1.3-0.9-2-1.4c-3.5-2.5-6.9-5-10.3-7.7c-0.7-0.5-1.4-1.1-2.1-1.7
			c-0.8-0.6-1.5-1.2-2.2-1.8c-0.1-0.1-0.2-0.1-0.2-0.2c-0.7-0.5-1.3-1.1-2-1.6c-0.2-0.1-0.3-0.2-0.5-0.4c-0.7-0.6-1.5-1.2-2.2-1.9
			c-0.8-0.7-1.6-1.3-2.3-2c-0.5-0.5-1.1-1-1.6-1.5c-3.2-2.9-6.4-5.9-9.5-9l0,0c-1-1-2-2-2.9-3c-1-1-2-2-2.9-3.1
			c-1.8-1.9-3.5-3.8-5.2-5.8c-0.4-0.4-0.7-0.8-1.1-1.2c-0.7-0.8-1.4-1.6-2.1-2.5c-0.9-1.1-1.8-2.2-2.7-3.2c-0.8-1-1.6-2-2.5-3
			c-0.1-0.1-0.2-0.3-0.3-0.4c-0.8-1.1-1.6-2.1-2.5-3.2l0,0c-0.8-1.1-1.7-2.2-2.5-3.3c0,0-0.1-0.1-0.1-0.1c-0.6-0.8-1.2-1.7-1.8-2.5
			c-1-1.4-2-2.8-3-4.2c-0.8-1.1-1.5-2.2-2.3-3.3c-0.1-0.1-0.1-0.2-0.2-0.3c-0.7-1.1-1.5-2.2-2.2-3.4c-0.8-1.2-1.5-2.4-2.2-3.5
			c-0.7-1.1-1.4-2.2-2-3.4c-0.8-1.3-1.5-2.6-2.3-3.9c14.3-3.8,32.3-5.3,54-1.3c2.6,0.5,5.1,1.1,7.6,2c6,2,19.5,6.3,30.7,8.5h0
			c1.7,0.3,3.3,0.6,4.9,0.8c3.9,0.6,7.8,0.2,11.6-1c0.6-0.2,1.2-0.4,1.8-0.6c1.7-0.7,3.8-1.4,6.2-2.1c3-0.9,6.6-1.6,10.6-2.1
			c0.6-0.1,1.2-0.1,1.8-0.2c7.6-0.7,16.4-0.1,25.7,3.3c2.4,0.9,4.8,1.9,7.2,3.2c5.1,2.7,11,3.1,16.4,1.4c6.3-2,15.7-4.9,27.2-7.9
			c1.6-0.4,3.2-0.8,4.9-1.2c5.2-1.3,10.8-2.6,16.7-3.9c31.8-6.9,72.4-12.6,110.5-8.8c22.1,2.2,44.4-3.5,62.4-16.5
			c6.7-4.8,14.5-9.1,23.3-11.6C469.9,342.3,483,344.7,493.4,351.9z"/>
		<g id="XMLID_2535_">
			<path id="XMLID_2538_" class="st256" d="M382.1,112c0,9.9-7,18.2-16.3,20.2c-1.4,0.3-2.9,0.5-4.4,0.5c-11.4,0-20.7-9.3-20.7-20.7
				s9.3-20.7,20.7-20.7c1.5,0,3,0.2,4.4,0.5C375.2,93.8,382.1,102.1,382.1,112z"/>
			<ellipse id="XMLID_2537_" class="st257" cx="365.8" cy="112" rx="16.3" ry="20.2"/>
			<circle id="XMLID_2536_" class="st258" cx="370.3" cy="103.5" r="5.5"/>
		</g>
		<g id="XMLID_2530_">
			<path id="XMLID_2534_" class="st256" d="M219.3,328.9c0,7.3-5.1,13.4-12,14.9c-1,0.2-2.1,0.3-3.3,0.3c-8.4,0-15.2-6.8-15.2-15.2
				c0-8.4,6.8-15.2,15.2-15.2c1.1,0,2.2,0.1,3.3,0.3C214.2,315.5,219.3,321.6,219.3,328.9z"/>
			<ellipse id="XMLID_2533_" class="st257" cx="207.3" cy="328.9" rx="12" ry="14.9"/>
			<circle id="XMLID_2531_" class="st258" cx="210.6" cy="322.6" r="4.1"/>
		</g>
		<g id="XMLID_2526_">
			<path id="XMLID_2529_" class="st256" d="M263.4,375c0,7.3-5.1,13.4-12,14.9c-1,0.2-2.1,0.3-3.3,0.3c-8.4,0-15.2-6.8-15.2-15.2
				s6.8-15.2,15.2-15.2c1.1,0,2.2,0.1,3.3,0.3C258.2,361.5,263.4,367.7,263.4,375z"/>
			<ellipse id="XMLID_2528_" class="st257" cx="251.4" cy="375" rx="12" ry="14.9"/>
			<circle id="XMLID_2527_" class="st258" cx="254.6" cy="368.7" r="4.1"/>
		</g>
		<g id="XMLID_2522_">
			<path id="XMLID_2525_" class="st256" d="M436.2,162.3c0,7.1-5,13.1-11.7,14.5c-1,0.2-2.1,0.3-3.2,0.3c-8.2,0-14.9-6.7-14.9-14.9
				s6.7-14.9,14.9-14.9c1.1,0,2.2,0.1,3.2,0.3C431.2,149.2,436.2,155.2,436.2,162.3z"/>
			<ellipse id="XMLID_2524_" class="st257" cx="424.5" cy="162.3" rx="11.7" ry="14.5"/>
			<circle id="XMLID_2523_" class="st258" cx="427.6" cy="156.1" r="4"/>
		</g>
		<path id="XMLID_2521_" class="st259" d="M172.1,440.1c-10.2,0-52.5-75.9-52.5-169.5c0-16,0.9-31.5,2.3-46.1
			c4.2-42.7,13.3-78.5,19.9-100.4c1-3.1,4.7-3.4,6.4-1.4c0.6,0.6,0.9,1.5,0.9,2.5c-0.3,17.6-0.6,43.7-0.8,74.9
			c-0.2,21.5-0.3,45.3-0.3,70.4c0,20.5,1.6,40.1,4.1,58.3C160.9,393.7,180.1,440.1,172.1,440.1z"/>
		<path id="XMLID_2520_" class="st3" d="M152.2,328.8c-11.8-23.5-25-60.7-30.2-104.4c4.2-42.7,13.3-78.5,19.9-100.4
			c1-3.1,4.7-3.4,6.4-1.4c-0.1,19.5-0.2,40.9-0.2,63.2c0,4.8,0.1,9.5,0.3,14.2c-0.2,21.5-0.3,45.3-0.3,70.4
			C148.1,291,149.7,310.7,152.2,328.8z"/>
		<path id="XMLID_2519_" class="st260" d="M102.5,284.5c28,89.3,83.3,151.5,73.5,154.6c-9.8,3.1-72.7-56.7-100.7-146.1
			c-18.7-59.7-22.2-115.8-22.5-146.5c0-4.3,6.1-5.3,7.3-1.1C68.5,173.8,84,225.6,102.5,284.5z"/>
		<g id="XMLID_2498_">
			<path id="XMLID_2518_" class="st29" d="M312.1,141l-7.4,2l-96,26.2l-43.5-5.3l-9.3-1.1c23.6-39.5,103.3-49.3,116.2-50.6
				c1.2-0.1,2.4,0,3.5,0.3C303.9,121.2,312.1,141,312.1,141z"/>
			<path id="XMLID_2517_" class="st261" d="M304.8,143l-96,26.2l-43.5-5.3c30.5-29.9,95.4-37.8,107-39c1.2-0.1,2.4,0,3.5,0.3
				C290,129.6,299.2,136.9,304.8,143z"/>
			<path id="XMLID_2516_" class="st29" d="M296.2,282.3c0,0-14.3,24.9-61.8,29.8c-3.1,0.3-5-3.3-2.9-5.7c5.2-5.9,9.6-15.3,0.1-25.8
				l64.6-6V282.3z"/>
			<path id="XMLID_2515_" class="st29" d="M35.4,155.1c-1.8-0.1-3.4,1.4-3.3,3.2c0.1,6.8,1.7,23.2,13.1,40.4
				c4.8,7.2,5,16.7,0.2,23.9c-11.6,17.3-13.2,33.8-13.3,40.6c0,1.8,1.5,3.3,3.3,3.2c36.2-1.7,48.7-30.1,48.7-30.1v-25.6v-25.6
				C84.1,185.1,71.6,156.7,35.4,155.1z"/>
			<path id="XMLID_2514_" class="st261" d="M49.2,169.2c-1.3-0.1-2.4,1-2.4,2.3c0.1,4.9,1.2,16.6,9.4,28.9c3.5,5.2,3.6,12,0.1,17.2
				c-8.3,12.4-9.5,24.2-9.6,29.1c0,1.3,1.1,2.4,2.4,2.3c26-1.2,34.9-21.6,34.9-21.6v-18.4v-18.4C84.1,190.7,75.1,170.4,49.2,169.2z"
				/>
			<path id="XMLID_2513_" class="st4" d="M412.3,210.6c0,17.3-14,36.4-40.2,50.7c-23.8,13.1-57.8,22.1-100.3,22.1
				c-25.6,0-49.8-3.3-71.3-8.7c-21.6-5.5-40.6-13.1-55.4-21.9c-18-10.6-38.4-16.5-59.3-16.5h-1.7c-10.2-17.8-11.1-34.9,0-51.2h1.4
				c20.9,0,41.3-5.9,59.3-16.5c14.9-8.8,33.9-16.5,55.7-21.9c21.5-5.4,45.7-8.7,71.3-8.7c42.5,0,76.4,9,100.2,21.9
				C398.3,174.2,412.3,193.3,412.3,210.6z"/>
			<path id="XMLID_2512_" class="st262" d="M273.9,210.6c0,23.6-26.1,50.6-73.4,64.1c-21.6-5.5-40.6-13.1-55.4-21.9
				c-18-10.6-38.4-16.5-59.3-16.5h-1.7c-10.2-17.8-11.1-34.9,0-51.2h1.4c20.9,0,41.3-5.9,59.3-16.5c14.9-8.8,33.9-16.5,55.7-21.9
				C247.9,160.2,273.9,187,273.9,210.6z"/>
			<path id="XMLID_2511_" class="st263" d="M372,160c-12.1,9.6-20.6,23.5-23.4,39.4c-0.3-0.3-0.6-0.6-1-1l-15.6-5.3
				c-2.2-0.8-4.7-0.1-6.3,1.6c-3.1,3.2-6.3,9.6,0.3,19.5c1.6,2.3,4.6,3.3,7.2,2.2l14.4-5.7c0,20.6,9.6,38.9,24.5,50.7
				c26.2-14.3,55-33.3,55-50.6C427.1,193.4,398.3,174.2,372,160z"/>
			<circle id="XMLID_2510_" class="st2" cx="369.4" cy="195.7" r="8"/>
			<path id="XMLID_2508_" class="st264" d="M175,247.6c7,0,12.7-5.7,12.7-12.7c0-7-5.7-12.7-12.7-12.7"/>
			<path id="XMLID_2507_" class="st264" d="M175,221.1c7,0,12.7-5.7,12.7-12.7c0-7-5.7-12.7-12.7-12.7"/>
			<path id="XMLID_2506_" class="st264" d="M296.2,266.4c7,0,12.7-5.7,12.7-12.7c0-7-5.7-12.7-12.7-12.7"/>
			<path id="XMLID_2505_" class="st264" d="M296.2,239.9c7,0,12.7-5.7,12.7-12.7c0-7-5.7-12.7-12.7-12.7"/>
			<path id="XMLID_2504_" class="st264" d="M281.9,176.5c7,0,12.7-5.7,12.7-12.7c0-7-5.7-12.7-12.7-12.7"/>
			<path id="XMLID_2503_" class="st264" d="M250.6,265.3c7,0,12.7-5.7,12.7-12.7c0-7-5.7-12.7-12.7-12.7"/>
			<path id="XMLID_2502_" class="st264" d="M250.6,223.4c7,0,12.7-5.7,12.7-12.7c0-7-5.7-12.7-12.7-12.7"/>
			<path id="XMLID_2501_" class="st264" d="M203.4,181.9c7,0,12.7-5.7,12.7-12.7c0-7-5.7-12.7-12.7-12.7"/>
			<path id="XMLID_2500_" class="st264" d="M133.9,233.9c7,0,12.7-5.7,12.7-12.7c0-7-5.7-12.7-12.7-12.7"/>
			<path id="XMLID_2499_" class="st264" d="M133.9,208.4c7,0,12.7-5.7,12.7-12.7c0-7-5.7-12.7-12.7-12.7"/>
		</g>
		<path id="XMLID_2497_" class="st265" d="M192.7,303.5c0,77.4-7.8,140.2-17.4,140.2c-9.6,0-17.4-62.8-17.4-140.2
			c0-12.4,0.5-24.5,1.2-36c0,0,0,0,0,0c2.4-36.9,8-67.8,11.9-86.1c1-4.6,7.6-4.6,8.6,0c3.9,18.3,9.5,49.3,11.9,86.1c0,0,0,0,0,0
			C192.3,279,192.7,291.1,192.7,303.5z"/>
		<path id="XMLID_2496_" class="st266" d="M191.5,267.5C191.5,267.5,191.5,267.5,191.5,267.5c-2.5,52-8.8,88.8-16.2,88.8
			c-7.3,0-13.6-36.8-16.2-88.8c0,0,0,0,0,0c2.4-36.9,8-67.8,11.9-86.1c1-4.6,7.6-4.6,8.6,0C183.6,199.7,189.1,230.7,191.5,267.5z"/>
		<g id="XMLID_2492_">
			<path id="XMLID_2495_" class="st256" d="M144.7,286.1c0,12.5-8.8,22.9-20.5,25.5c-1.8,0.4-3.7,0.6-5.6,0.6
				c-14.4,0-26.1-11.7-26.1-26.1s11.7-26.1,26.1-26.1c1.9,0,3.8,0.2,5.6,0.6C135.9,263.2,144.7,273.6,144.7,286.1z"/>
			<ellipse id="XMLID_2494_" class="st257" cx="124.1" cy="286.1" rx="20.5" ry="25.5"/>
			<circle id="XMLID_2493_" class="st258" cx="129.7" cy="275.3" r="7"/>
		</g>
		<g id="XMLID_2602_">
			<path id="XMLID_5906_" class="st255" d="M308.1,54c0,13.4-9.4,24.7-22.1,27.4c-1.9,0.4-3.9,0.6-6,0.6c-15.5,0-28-12.5-28-28
				s12.5-28,28-28c2.1,0,4.1,0.2,6,0.6C298.7,29.4,308.1,40.6,308.1,54z"/>
			<ellipse id="XMLID_5905_" class="st12" cx="286.1" cy="54" rx="22.1" ry="27.4"/>
			<circle id="XMLID_5904_" class="st254" cx="292.1" cy="42.4" r="7.5"/>
		</g>
		<path id="XMLID_511_" class="st91" d="M481.5,377.2c-1.4,2.6-2.8,5.2-4.3,7.7h0c-1.6,2.7-3.2,5.4-4.9,8c-1.7,2.6-3.4,5.3-5.2,7.8
			c-0.9,1.3-1.8,2.6-2.7,3.8c-0.9,1.3-1.8,2.5-2.8,3.8c-0.9,1.3-1.9,2.5-2.8,3.7c-0.8,1.1-1.7,2.2-2.6,3.2c-0.3,0.3-0.5,0.7-0.8,1
			c-0.8,1-1.7,2-2.5,3.1c-0.9,1.1-1.9,2.3-2.9,3.4c-0.2,0.2-0.4,0.4-0.5,0.6c-0.9,1-1.8,2.1-2.7,3.1c-0.6,0.6-1.1,1.2-1.7,1.9
			c-0.5,0.5-1,1.1-1.4,1.6c-2.1,2.3-4.3,4.5-6.5,6.7c-1.1,1.1-2.2,2.2-3.3,3.3c-1.1,1.1-2.2,2.2-3.4,3.2c0,0-0.1,0.1-0.1,0.1
			c-1,1-2.1,1.9-3.2,2.9c-0.2,0.2-0.3,0.3-0.5,0.4c-1,0.9-2,1.8-3,2.7c-0.1,0.1-0.3,0.2-0.4,0.4c-1,0.9-2,1.8-3.1,2.6
			c-0.2,0.2-0.4,0.3-0.6,0.5c-1.1,0.9-2.1,1.8-3.2,2.6c0,0-0.1,0.1-0.1,0.1c-1.2,1-2.4,1.9-3.7,2.9c-1.2,1-2.5,1.9-3.7,2.8
			c-1.1,0.9-2.3,1.7-3.5,2.5c-0.2,0.1-0.4,0.3-0.6,0.4c-1.2,0.9-2.4,1.7-3.6,2.5c-1.3,0.9-2.5,1.7-3.8,2.6c-0.1,0-0.1,0.1-0.2,0.1
			c-1.3,0.9-2.6,1.7-3.9,2.5c-1.3,0.8-2.6,1.7-4,2.5c-1.1,0.7-2.2,1.4-3.4,2c-0.4,0.2-0.8,0.5-1.3,0.7c-1.2,0.7-2.3,1.3-3.5,2
			c-1.1,0.6-2.2,1.2-3.3,1.9c-0.6,0.3-1.1,0.6-1.7,0.9c-0.8,0.4-1.6,0.9-2.5,1.3c-0.4,0.2-0.9,0.5-1.3,0.7c-1.2,0.6-2.4,1.2-3.6,1.8
			c0,0-0.1,0-0.1,0.1c-0.8,0.4-1.5,0.7-2.3,1.1c-0.6,0.3-1.2,0.6-1.8,0.8c-0.9,0.4-1.8,0.8-2.6,1.2c-1,0.5-2,0.9-3,1.4
			c-1.1,0.5-2.2,1-3.3,1.4c-0.1,0-0.2,0.1-0.2,0.1c-1,0.4-2,0.9-3.1,1.3c-1.1,0.5-2.2,0.9-3.3,1.3c0,0,0,0,0,0
			c-1.1,0.4-2.2,0.8-3.3,1.3c-0.9,0.4-1.9,0.7-2.8,1c-0.4,0.1-0.7,0.3-1.1,0.4c-0.9,0.3-1.8,0.6-2.7,0.9c-0.1,0-0.2,0.1-0.2,0.1
			c-0.9,0.3-1.9,0.6-2.8,0.9c-1.4,0.5-2.8,0.9-4.1,1.3c-2.2,0.7-4.3,1.3-6.5,1.9c-1.4,0.4-2.8,0.8-4.2,1.2c-0.8,0.2-1.6,0.4-2.4,0.6
			c-0.9,0.2-1.7,0.4-2.6,0.7c-0.8,0.2-1.7,0.4-2.5,0.6c-1,0.2-2.1,0.5-3.1,0.7c-2.1,0.4-4.1,0.9-6.2,1.3c-0.7,0.1-1.4,0.3-2.2,0.4
			c-2.1,0.4-4.1,0.7-6.2,1.1c-0.8,0.1-1.5,0.2-2.3,0.3c-0.3,0.1-0.7,0.1-1,0.2c-0.7,0.1-1.3,0.2-2,0.3c-0.7,0.1-1.5,0.2-2.2,0.3
			c-2.1,0.3-4.3,0.5-6.4,0.7c-1.2,0.1-2.4,0.2-3.6,0.3c-1,0.1-2,0.2-3,0.2c-0.6,0.1-1.2,0.1-1.8,0.1c-0.8,0.1-1.7,0.1-2.5,0.2H271
			c-1.2,0.1-2.4,0.1-3.5,0.2c-0.1,0-0.2,0-0.4,0c-1,0.1-2,0.1-3.1,0.1c-0.2,0-0.4,0-0.6,0c-1.2,0-2.4,0.1-3.6,0.1
			c-1.3,0-2.5,0-3.8,0c-3.5,0-7-0.1-10.5-0.2c-1.1,0-2.2-0.1-3.3-0.2c-0.9,0-1.9-0.1-2.8-0.2c-1-0.1-2-0.1-3-0.2
			c-0.4,0-0.8-0.1-1.2-0.1c-0.2,0-0.4,0-0.7,0c-0.8-0.1-1.7-0.1-2.5-0.2c-0.8-0.1-1.7-0.2-2.5-0.2c-0.7-0.1-1.5-0.1-2.2-0.2
			c-1.3-0.1-2.7-0.3-4-0.5c-0.8-0.1-1.6-0.2-2.3-0.3c-0.5-0.1-1-0.1-1.5-0.2c-0.7-0.1-1.3-0.2-2-0.3c-0.2,0-0.4-0.1-0.6-0.1
			c-1-0.2-1.9-0.3-2.9-0.5c-1-0.1-1.9-0.3-2.8-0.5c-0.9-0.2-1.9-0.3-2.8-0.5c-0.8-0.2-1.7-0.3-2.5-0.5c-0.2,0-0.4-0.1-0.6-0.1
			c-0.8-0.2-1.6-0.3-2.4-0.5c-0.7-0.1-1.4-0.3-2.1-0.4c-0.8-0.2-1.6-0.4-2.4-0.5c-3.3-0.8-6.6-1.6-9.8-2.5c-0.8-0.2-1.7-0.5-2.5-0.7
			c-2-0.6-4-1.1-5.9-1.8c-0.3-0.1-0.7-0.2-1-0.3c-0.8-0.3-1.7-0.5-2.5-0.8c-2.9-0.9-5.7-1.9-8.5-2.9c-0.8-0.3-1.5-0.6-2.3-0.8
			c-0.3-0.1-0.6-0.2-0.9-0.3c-0.6-0.2-1.3-0.5-1.9-0.7c-0.9-0.4-1.8-0.7-2.7-1.1c-0.6-0.2-1.2-0.5-1.8-0.8c-0.3-0.1-0.6-0.2-0.9-0.4
			c-0.9-0.4-1.7-0.7-2.6-1.1c-0.9-0.4-1.8-0.8-2.7-1.2c-0.1,0-0.2-0.1-0.3-0.1c-3.3-1.5-6.6-3-9.8-4.6c-0.8-0.4-1.7-0.9-2.5-1.3
			c-0.9-0.5-1.8-0.9-2.8-1.4c-2-1.1-4-2.1-5.9-3.2c-1.6-0.9-3.2-1.9-4.9-2.8c-0.1,0-0.1-0.1-0.2-0.1c-1.7-1-3.3-2-5-3
			c-3.6-2.3-7.2-4.7-10.8-7.1c-0.7-0.5-1.3-0.9-2-1.4c-3.5-2.5-6.9-5-10.3-7.7c-0.7-0.5-1.4-1.1-2.1-1.7c-0.8-0.6-1.5-1.2-2.2-1.8
			c-0.1-0.1-0.2-0.1-0.2-0.2c-0.7-0.5-1.3-1.1-2-1.6c-0.2-0.1-0.3-0.2-0.5-0.4c-0.7-0.6-1.5-1.2-2.2-1.9c-0.8-0.7-1.6-1.3-2.3-2
			c-0.5-0.5-1.1-1-1.6-1.5c-3.2-2.9-6.4-5.9-9.5-9l0,0c-1-1-2-2-2.9-3c-1-1-2-2-2.9-3.1c-1.8-1.9-3.5-3.8-5.2-5.8
			c-0.4-0.4-0.7-0.8-1.1-1.2c-0.7-0.8-1.4-1.6-2.1-2.5c-0.9-1.1-1.8-2.2-2.7-3.2c-0.8-1-1.6-2-2.5-3c-0.1-0.1-0.2-0.3-0.3-0.4
			c-0.8-1.1-1.6-2.1-2.5-3.2c10.4-0.9,22.2-0.5,35.4,1.9c2.6,0.5,5.1,1.1,7.6,2c6.9,2.3,23.6,7.6,35.6,9.3c4.5,0.6,9.1,0.1,13.3-1.6
			c1.6-0.6,3.6-1.3,5.9-2c1.5-0.4,3.2-0.9,5-1.2c3-0.6,6.3-1.1,9.9-1.3c0.9-0.1,1.8-0.1,2.7-0.1c0.9,0,1.8,0,2.7,0
			c4.4,0.1,9.2,0.8,14.1,2.2c3.7,1.1,7.5,2.5,11.2,4.5c5.1,2.7,11,3.1,16.4,1.4c24.8-7.9,95.6-28.1,159.3-21.8
			c22.1,2.2,44.4-3.5,62.4-16.5c6.7-4.8,14.5-9.1,23.3-11.6C465.5,374.6,473.8,374.9,481.5,377.2z"/>
		<ellipse id="XMLID_2490_" class="st246" cx="216.1" cy="471" rx="21.3" ry="13.9"/>
		<ellipse id="XMLID_2489_" class="st246" cx="166" cy="446" rx="14.8" ry="9.7"/>
		<ellipse id="XMLID_2488_" class="st246" cx="291.3" cy="431.7" rx="14.8" ry="9.7"/>
		<path id="XMLID_512_" class="st251" d="M447.1,420.9c0,0-0.6,2.3-1.6,6.2c-0.1,0.5-0.2,0.9-0.4,1.4c-0.5,0.5-1,1.1-1.4,1.6
			c-2.1,2.3-4.3,4.5-6.5,6.7c-1.1,1.1-2.2,2.2-3.3,3.3c-1.1,1.1-2.2,2.2-3.4,3.2c0,0-0.1,0.1-0.1,0.1c-1,1-2.1,1.9-3.2,2.9
			c-0.2,0.2-0.3,0.3-0.5,0.4c-1,0.9-2,1.8-3,2.7c-0.1,0.1-0.3,0.2-0.4,0.4c-1,0.9-2,1.8-3.1,2.6c-0.2,0.2-0.4,0.3-0.6,0.5
			c-1.1,0.9-2.1,1.8-3.2,2.6c0,0-0.1,0.1-0.1,0.1c-1.2,1-2.4,1.9-3.7,2.9c-1.2,1-2.5,1.9-3.7,2.8c-1.1,0.9-2.3,1.7-3.5,2.5
			c-0.2,0.1-0.4,0.3-0.6,0.4c-1.2,0.9-2.4,1.7-3.6,2.5c-1.3,0.9-2.5,1.7-3.8,2.6c-0.1,0-0.1,0.1-0.2,0.1c-1.3,0.9-2.6,1.7-3.9,2.5
			c-1.3,0.8-2.6,1.7-4,2.5c-1.1,0.7-2.2,1.4-3.4,2c-0.4,0.2-0.8,0.5-1.3,0.7c-1.2,0.7-2.3,1.3-3.5,2c-1.1,0.6-2.2,1.2-3.3,1.9
			c-0.6,0.3-1.1,0.6-1.7,0.9c-0.8,0.4-1.6,0.9-2.5,1.3c-0.4,0.2-0.9,0.5-1.3,0.7c-1.2,0.6-2.4,1.2-3.6,1.8c0,0-0.1,0-0.1,0.1
			c-0.8,0.4-1.5,0.7-2.3,1.1c-0.6,0.3-1.2,0.6-1.8,0.8c-0.9,0.4-1.8,0.8-2.6,1.2c-1,0.5-2,0.9-3,1.4c-1.1,0.5-2.2,1-3.3,1.4
			c-0.1,0-0.2,0.1-0.2,0.1c-1,0.4-2,0.9-3.1,1.3c-1.1,0.5-2.2,0.9-3.3,1.3c0,0,0,0,0,0c-1.1,0.4-2.2,0.8-3.3,1.3
			c-0.9,0.4-1.9,0.7-2.8,1c-0.4,0.1-0.7,0.3-1.1,0.4c-0.9,0.3-1.8,0.6-2.7,0.9c-0.1,0-0.2,0.1-0.2,0.1c-0.9,0.3-1.9,0.6-2.8,0.9
			c-1.4,0.5-2.8,0.9-4.1,1.3c-2.2,0.7-4.3,1.3-6.5,1.9c-1.4,0.4-2.8,0.8-4.2,1.2c-0.8,0.2-1.6,0.4-2.4,0.6c-0.9,0.2-1.7,0.4-2.6,0.7
			c-0.8,0.2-1.7,0.4-2.5,0.6c-1,0.2-2.1,0.5-3.1,0.7c-2.1,0.4-4.1,0.9-6.2,1.3c-0.7,0.1-1.4,0.3-2.2,0.4c-2.1,0.4-4.1,0.7-6.2,1.1
			c-0.8,0.1-1.5,0.2-2.3,0.3c-0.3,0.1-0.7,0.1-1,0.2c-0.7,0.1-1.3,0.2-2,0.3c-0.7,0.1-1.5,0.2-2.2,0.3c-2.1,0.3-4.3,0.5-6.4,0.7
			c-1.2,0.1-2.4,0.2-3.6,0.3c-1,0.1-2,0.2-3,0.2c-0.6,0.1-1.2,0.1-1.8,0.1c-0.8,0.1-1.7,0.1-2.5,0.2H271c-1.2,0.1-2.4,0.1-3.5,0.2
			c-0.1,0-0.2,0-0.4,0c-1,0.1-2,0.1-3.1,0.1c-0.2,0-0.4,0-0.6,0c-1.2,0-2.4,0.1-3.6,0.1c-1.3,0-2.5,0-3.8,0c-3.5,0-7-0.1-10.5-0.2
			c-1.1,0-2.2-0.1-3.3-0.2c-0.9,0-1.9-0.1-2.8-0.2c-1-0.1-2-0.1-3-0.2c-0.4,0-0.8-0.1-1.2-0.1c3.7-5.8,8.7-12.2,15.5-18.8
			c1.4-1.3,2.8-2.6,4.4-4c6.3-5.4,13.9-10.8,23.1-16c0.3-0.2,0.7-0.4,1-0.6c1.3-0.7,2.8,0.6,2.3,2l-1.4,3.8l-4.5,11.8
			c-0.7,1.7,1.6,3.1,2.8,1.7c3.2-3.6,7.5-8.2,13.1-13.4c0.2-0.2,0.4-0.4,0.7-0.6c2-1.8,4.1-3.7,6.4-5.6c9.8-8.3,22.4-17.2,37.6-25
			c1.5-0.8,3,1.1,2,2.4c-4.7,5.9-11.9,15.8-17.4,27c-1,2,1.7,3.8,3.2,2.1c9.1-10.1,25.3-27.1,44.4-42.4c9.5-7.7,20.4-13,31.9-16
			C415.3,415.7,431.6,416,447.1,420.9z"/>
	</g>
</g>
</svg>
