<?xml version="1.0" encoding="utf-8"?>
<!-- Generator: Adobe Illustrator 22.0.1, SVG Export Plug-In . SVG Version: 6.00 Build 0)  -->
<svg version="1.1" xmlns="http://www.w3.org/2000/svg" xmlns:xlink="http://www.w3.org/1999/xlink" x="0px" y="0px"
	 viewBox="0 0 512 512" style="enable-background:new 0 0 512 512;" xml:space="preserve">
<style type="text/css">
	.st0{fill:#4B71B4;}
	.st1{fill:#80B4E8;}
	.st2{fill:#594144;}
	.st3{fill:#B8E876;}
	.st4{fill:#E09122;}
	.st5{fill:#FBF355;}
	.st6{fill:#EEC82F;}
	.st7{fill:#CEA628;}
	.st8{fill:#9BC9EF;}
	.st9{fill:#9DD055;}
	.st10{fill:#5686C5;}
	.st11{fill:#3B5880;}
	.st12{fill:#C2E5FB;}
	.st13{fill:#446697;}
	.st14{fill:#D1F1A0;}
	.st15{fill:#ABD170;}
	.st16{fill:#9DBD6A;}
	.st17{fill:#649D53;}
	.st18{fill:#72B35D;}
	.st19{fill:#ABD68D;}
	.st20{fill:#7FB358;}
	.st21{fill:#920C50;}
	.st22{fill:#C60053;}
	.st23{fill:#530730;}
	.st24{fill:#600332;}
	.st25{fill:#D5AC2A;}
	.st26{fill:#EFD776;}
	.st27{fill:#A7C76D;}
	.st28{fill:#A43749;}
	.st29{fill:#DC4355;}
	.st30{fill:#E18696;}
	.st31{fill:#77A255;}
	.st32{fill:#628547;}
	.st33{fill:#6E994D;}
	.st34{fill:none;stroke:#54743C;stroke-width:8;stroke-linecap:round;stroke-miterlimit:10;}
	.st35{fill:#9BCF75;}
	.st36{fill:#CA8F80;}
	.st37{fill:#E6B8AB;}
	.st38{fill:#E2A18B;}
	.st39{fill:#8E3F2B;}
	.st40{fill:#D89988;}
	.st41{fill:#CFCFCF;}
	.st42{fill:#A64B2D;}
	.st43{fill:#FFFFFF;}
	.st44{fill:#CA801F;}
	.st45{fill:#719C50;}
	.st46{fill:#85B7E5;}
	.st47{fill:#4F7BA9;}
	.st48{fill:#674C50;}
	.st49{fill:#BAD7ED;}
	.st50{fill:#63494D;}
	.st51{fill:#503D3F;}
	.st52{fill:#638547;}
	.st53{fill:#56713E;}
	.st54{fill:#BB5135;}
	.st55{fill:#93C4EC;}
	.st56{fill:#CA8121;}
	.st57{fill:#FDFCFC;}
	.st58{fill:#A83A4F;}
	.st59{fill:#BD5E44;}
	.st60{fill:#688C4A;}
	.st61{fill:#7DA55A;}
	.st62{fill:#90BA51;}
	.st63{fill:none;}
	.st64{fill:#ABC287;}
	.st65{fill:#BDD993;}
	.st66{fill:none;stroke:#534046;stroke-width:15;stroke-linecap:round;stroke-linejoin:round;stroke-miterlimit:10;}
	.st67{fill:#413133;}
	.st68{fill:#34292B;}
	.st69{fill:#644B50;}
	.st70{fill:#CDACB7;}
	.st71{fill:#A83A4D;}
	.st72{fill:#413335;}
	.st73{fill:#DC6579;}
	.st74{fill:#4C393C;}
	.st75{fill:#527FAE;}
	.st76{fill:#92C2EA;}
	.st77{fill:#5B8C4A;}
	.st78{fill:#729C51;}
	.st79{fill:#AADB5E;}
	.st80{fill:#D66C53;}
	.st81{fill:#A65340;}
	.st82{fill:#B8594A;}
	.st83{fill:#79A754;}
	.st84{fill:#4E3B3E;}
	.st85{fill:#5E4649;}
	.st86{fill:#604A50;}
	.st87{fill:#685258;}
	.st88{fill:#765E66;}
	.st89{fill:#FCF69A;}
	.st90{fill:#D3CC84;}
	.st91{fill:#E6A572;}
	.st92{fill:#74A151;}
	.st93{fill:#6F994F;}
	.st94{fill:#CC6D7D;}
	.st95{fill:#AD6576;}
	.st96{fill:#95422D;}
	.st97{fill:#BE6850;}
	.st98{fill:#3B2F32;}
	.st99{fill:none;stroke:#46383B;stroke-width:15;stroke-linecap:round;stroke-miterlimit:10;}
	.st100{fill:none;stroke:#3B2F32;stroke-width:15;stroke-linecap:round;stroke-miterlimit:10;}
	.st101{fill:#D6CF77;}
	.st102{fill:#F5EF82;}
	.st103{fill:#4A383B;}
	.st104{fill:#CACACA;}
	.st105{fill:#48373A;}
	.st106{fill:#7AA8D2;}
	.st107{fill:#6E9150;}
	.st108{fill:#587441;}
	.st109{fill:#D76E51;}
	.st110{fill:#CCC475;}
	.st111{fill:#DDD57E;}
	.st112{fill:#F8F19C;}
	.st113{fill:#FBF58A;}
	.st114{fill:#C67F20;}
	.st115{fill:#AB6B1C;}
	.st116{fill:#C98020;}
	.st117{fill:#D99A41;}
	.st118{fill:#DBA35B;}
	.st119{fill:#9B5F1B;}
	.st120{fill:#97CF6D;}
	.st121{fill:#5380B1;}
	.st122{fill:#96D16A;}
	.st123{fill:#92BD50;}
	.st124{fill:#7EB058;}
	.st125{fill:#709A50;}
	.st126{fill:#5A8A4A;}
	.st127{fill:#D9D9D9;}
	.st128{fill:#75A3CD;}
	.st129{fill:#6E974F;}
	.st130{fill:#CA6D7D;}
	.st131{fill:#AB6576;}
	.st132{fill:#93422D;}
	.st133{fill:#A44B2D;}
	.st134{fill:#BC6850;}
	.st135{fill:#DFB52B;}
	.st136{fill:#4C3A3C;}
	.st137{fill:#473538;}
	.st138{fill:#382B2E;}
	.st139{fill:none;stroke:#FFFFFF;stroke-width:8;stroke-linecap:round;stroke-miterlimit:10;}
	.st140{fill:#90C0E8;}
	.st141{fill:none;stroke:#E09122;stroke-width:12;stroke-linecap:round;stroke-miterlimit:10;}
	.st142{fill:#DCAE2B;}
	.st143{fill:#F0D05A;}
	.st144{fill:#729E51;}
	.st145{fill:#E4BA36;}
	.st146{fill:#F8F283;}
	.st147{fill:#E4B6A9;}
	.st148{fill:#D78E30;}
	.st149{fill:#598A49;}
	.st150{fill:#B65339;}
	.st151{fill:#BA751F;}
	.st152{fill:#466A9F;}
	.st153{fill:#8BB34D;}
	.st154{fill:#9BCE54;}
	.st155{fill:#7F9F49;}
	.st156{fill:#D37F6D;}
	.st157{fill:#BB5E44;}
	.st158{fill:#93BB55;}
	.st159{fill:#B3E665;}
	.st160{fill:none;stroke:#4C393C;stroke-width:8;stroke-miterlimit:10;}
	.st161{fill:#97432D;}
	.st162{fill:#DAB12A;}
	.st163{fill:#5E914C;}
	.st164{fill:#5381B3;}
	.st165{fill:#6A8F4C;}
	.st166{fill:#628047;}
	.st167{fill:#E29D37;}
	.st168{fill:#6E555B;}
	.st169{fill:#91CA67;}
	.st170{fill:#476BA1;}
	.st171{fill:#6699D9;}
	.st172{fill:#503C3E;}
	.st173{fill:#413235;}
	.st174{fill:#CC916A;}
	.st175{fill:#BA8363;}
	.st176{fill:#D09571;}
	.st177{fill:#C98F68;}
	.st178{fill:#AA3B4D;}
	.st179{fill:#DA6075;}
	.st180{fill:#92452D;}
	.st181{fill:#A24B2D;}
	.st182{fill:#B76252;}
	.st183{fill:#87BD60;}
	.st184{fill:#78A7D2;}
	.st185{fill:#F9F38F;}
	.st186{fill:#E0D650;}
	.st187{fill:#AFE086;}
	.st188{fill:#9FD476;}
	.st189{fill:#9DD176;}
	.st190{fill:#8FC468;}
	.st191{fill:#7EAE58;}
	.st192{fill:#6F9850;}
	.st193{fill:#59884A;}
	.st194{fill:#638347;}
	.st195{fill:#B95135;}
	.st196{fill:#E5AB62;}
	.st197{fill:#733228;}
	.st198{fill:#803728;}
	.st199{fill:#6D974D;}
	.st200{fill:#99CD75;}
	.st201{fill:#93412C;}
	.st202{fill:#93C2EA;}
	.st203{fill:#CD926B;}
	.st204{fill:#E6AF8A;}
	.st205{fill:#E5DB4E;}
	.st206{fill:#FBF375;}
	.st207{fill:#779E54;}
	.st208{fill:#D3966D;}
	.st209{fill:#DA4355;}
	.st210{fill:#A83B4D;}
	.st211{fill:none;stroke:#594144;stroke-width:8;stroke-linecap:round;stroke-miterlimit:10;}
	.st212{fill:#E5A855;}
	.st213{fill:#EAC291;}
	.st214{fill:#96C252;}
	.st215{fill:#695055;}
	.st216{fill:#DC9C42;}
	.st217{fill:#8E5C1B;}
	.st218{fill:#F4EB6A;}
	.st219{fill:#CBC049;}
	.st220{fill:none;stroke:#B8E876;stroke-width:15;stroke-linecap:round;stroke-miterlimit:10;}
	.st221{fill:#A36A1C;}
	.st222{fill:#ECC94A;}
	.st223{fill:#91BEDA;}
	.st224{fill:#3D2F32;}
	.st225{fill:#A6394C;}
	.st226{fill:#33292B;}
	.st227{fill:#4F3D42;}
	.st228{fill:#638147;}
	.st229{fill:#CD8321;}
	.st230{fill:#D3CA4A;}
	.st231{fill:#E2A550;}
	.st232{fill:#B75135;}
	.st233{fill:#D4CD77;}
	.st234{fill:#F3EC80;}
	.st235{fill:#46383B;}
	.st236{fill:#82AA61;}
	.st237{fill:#8EBF69;}
	.st238{fill:#3C2E31;}
	.st239{fill:#C49F27;}
	.st240{fill:#D2BF7C;}
	.st241{fill:#F6E18D;}
	.st242{fill:#D6D6D6;}
	.st243{fill:#B5D7F2;}
	.st244{fill:#F1D467;}
	.st245{fill:#739FBD;}
	.st246{fill:#D0946C;}
	.st247{fill:#BE8767;}
	.st248{fill:#D0A829;}
	.st249{fill:#F6DF86;}
	.st250{fill:#EABA8D;}
	.st251{fill:#F0D1B8;}
	.st252{fill:#A5D0F1;}
	.st253{fill:#E3A13F;}
	.st254{fill:#F0FAFF;}
	.st255{fill:#B4D3E3;}
	.st256{fill:#80A5C3;}
	.st257{fill:#87AFD5;}
	.st258{fill:#B1D1E7;}
	.st259{fill:#AED66F;}
	.st260{fill:#91AA61;}
	.st261{fill:#A8384B;}
	.st262{fill:#CD8120;}
	.st263{fill:#E6AD56;}
	.st264{fill:none;stroke:#E6AD56;stroke-width:8;stroke-linecap:round;stroke-miterlimit:10;}
	.st265{fill:#9EBD68;}
	.st266{fill:#AAD16E;}
	.st267{fill:#86656B;}
	.st268{fill:#6D954D;}
	.st269{fill:#98CB75;}
	.st270{fill:#75A251;}
	.st271{fill:#91BD4F;}
	.st272{fill:none;stroke:#B8E078;stroke-width:8;stroke-linecap:round;stroke-miterlimit:10;}
	.st273{fill:none;stroke:#B8E078;stroke-width:8;stroke-linecap:round;stroke-linejoin:round;stroke-miterlimit:10;}
	.st274{fill:#8FBA4E;}
	.st275{fill:#B3E860;}
	.st276{fill:#E7A748;}
	.st277{fill:none;stroke:#B6E676;stroke-width:15;stroke-linecap:round;stroke-miterlimit:10;}
	.st278{fill:#639B53;}
	.st279{fill:#476B9F;}
	.st280{fill:#82B1DE;}
	.st281{fill:#A6533F;}
	.st282{fill:#C28A69;}
	.st283{fill:#64494E;}
	.st284{fill:#77565C;}
	.st285{fill:#4F3C40;}
	.st286{fill:#ECCCB1;}
	.st287{fill:#BF6F5C;}
	.st288{fill:none;stroke:#D4F1A7;stroke-width:10;stroke-linecap:round;stroke-miterlimit:10;}
	.st289{fill:none;stroke:#B8E876;stroke-width:10;stroke-linecap:round;stroke-miterlimit:10;}
	.st290{fill:#47688F;}
	.st291{fill:#3F5B78;}
	.st292{fill:#354E6C;}
	.st293{fill:#DAB12B;}
	.st294{fill:#C8A028;}
	.st295{fill:#F0D15C;}
	.st296{fill:#F8F28B;}
	.st297{fill:#F7F18D;}
	.st298{fill:#DED450;}
	.st299{fill:#F9F155;}
	.st300{fill:#A2CFF4;}
	.st301{fill:none;stroke:#594144;stroke-width:10;stroke-linecap:round;stroke-miterlimit:10;}
	.st302{fill:#F5F0AB;}
	.st303{fill:#496DA1;}
	.st304{fill:#5A85C7;}
	.st305{fill:#D7D7D7;}
	.st306{fill:#ADD3E6;}
	.st307{fill:#98B8C3;}
	.st308{fill:#CDCECF;}
	.st309{fill:#BF4F69;}
	.st310{fill:#A83448;}
	.st311{fill:#A4DAF7;}
	.st312{fill:#81A861;}
	.st313{fill:#82A549;}
	.st314{fill:#B6E676;}
	.st315{fill:#8CBD69;}
	.st316{fill:#ECC62F;}
	.st317{fill:#F4EA80;}
	.st318{fill:#D6AD2B;}
	.st319{fill:#6F9151;}
	.st320{fill:#46699C;}
	.st321{fill:#4A373A;}
	.st322{fill:#89B04C;}
	.st323{fill:#99CC53;}
	.st324{fill:#B1E465;}
	.st325{fill:#E19E3B;}
	.st326{fill:#C05970;}
	.st327{fill:#D95F74;}
	.st328{fill:#74A8DE;}
	.st329{fill:#C47C1E;}
	.st330{fill:#719A51;}
	.st331{fill:#A8D95E;}
	.st332{fill:#D46C53;}
	.st333{fill:#A45340;}
	.st334{fill:#B6594A;}
	.st335{fill:#79A554;}
	.st336{fill:#B6DAF7;}
	.st337{fill:#739F51;}
	.st338{fill:#DDB32B;}
	.st339{fill:#DE8F22;}
	.st340{fill:none;stroke:#46383B;stroke-width:8;stroke-linecap:round;stroke-miterlimit:10;}
	.st341{fill:none;stroke:#3B2F32;stroke-width:8;stroke-linecap:round;stroke-miterlimit:10;}
	.st342{fill:#C8C8C8;}
	.st343{fill:#7F9D49;}
	.st344{fill:#BA5E44;}
	.st345{fill:#92B955;}
	.st346{fill:#D17F6D;}
	.st347{fill:#5D8F4C;}
	.st348{fill:#B75334;}
	.st349{fill:#CA6D57;}
	.st350{fill:#A4574D;}
	.st351{fill:#7FB1E6;}
	.st352{fill:#77A3CD;}
	.st353{fill:#90BA4F;}
	.st354{fill:#5C8F4B;}
	.st355{fill:#ACDE5D;}
	.st356{fill:#6FAC5A;}
	.st357{fill:none;stroke:#9DD055;stroke-width:10;stroke-linecap:round;stroke-miterlimit:10;}
	.st358{fill:#AD5643;}
	.st359{fill:#B96052;}
	.st360{fill:#CB8D84;}
	.st361{fill:#CC6C56;}
	.st362{fill:#DE9A8E;}
	.st363{fill:#D37B6A;}
	.st364{fill:#A87758;}
	.st365{fill:#372A2C;}
	.st366{fill:#B8815C;}
	.st367{fill:#433335;}
	.st368{fill:#2C2325;}
	.st369{fill:#95402B;}
	.st370{fill:#A85441;}
	.st371{fill:#D2C74B;}
	.st372{fill:#B25945;}
	.st373{fill:none;stroke:#594144;stroke-width:15;stroke-linecap:round;stroke-miterlimit:10;}
	.st374{fill:none;stroke:#594144;stroke-width:12;stroke-linecap:round;stroke-miterlimit:10;}
	.st375{fill:#8F473B;}
	.st376{fill:#453538;}
	.st377{fill:#517DAB;}
	.st378{fill:#75A050;}
	.st379{fill:#A5384D;}
	.st380{fill:#CC6075;}
	.st381{fill:#F26B7F;}
	.st382{fill:#C67189;}
	.st383{fill:#B26980;}
	.st384{fill:#D87990;}
	.st385{fill:#F2869B;}
	.st386{fill:#EF8499;}
	.st387{fill:#649CD7;}
	.st388{fill:#639CDB;}
	.st389{fill:#C8ED8D;}
	.st390{fill:#A9DB83;}
	.st391{fill:#9BCF76;}
	.st392{fill:#7EAC58;}
	.st393{fill:#8CC463;}
	.st394{fill:#7FAC5B;}
	.st395{fill:#769C55;}
	.st396{fill:#6A894D;}
	.st397{fill:#769B56;}
	.st398{fill:#9BCC75;}
	.st399{fill:#AF5641;}
	.st400{fill:#F4D576;}
	.st401{fill:#76A055;}
	.st402{fill:#628347;}
	.st403{fill:#4F7B9F;}
	.st404{fill:#466D86;}
	.st405{fill:#4D789C;}
</style>
<g id="BULINE">
	<path id="XMLID_2_" class="st0" d="M512,256c0,50.3-14.5,97.2-39.6,136.8c-0.2,0.3-0.3,0.6-0.5,0.9c-0.3,0.5-0.6,0.9-0.9,1.4
		c-1.9,3-3.9,5.9-5.9,8.8c-0.9,1.2-1.7,2.4-2.6,3.6c-0.9,1.2-1.8,2.4-2.7,3.6c-0.9,1.2-1.8,2.3-2.7,3.5c-0.9,1.2-1.8,2.3-2.8,3.5
		c-0.9,1.1-1.9,2.3-2.8,3.4l-0.1,0.1c-0.7,0.8-1.4,1.6-2.1,2.4c-0.6,0.7-1.3,1.5-1.9,2.2c-0.7,0.7-1.3,1.5-2,2.2c-1,1.1-2,2.2-3,3.2
		c0,0,0,0,0,0c-6.4,6.8-13.3,13.3-20.4,19.4c-0.6,0.5-1.2,1-1.8,1.5c-1.6,1.4-3.2,2.7-4.9,4c-0.3,0.2-0.5,0.4-0.8,0.6
		c-0.5,0.4-1,0.8-1.5,1.2c-1.1,0.8-2.2,1.7-3.2,2.5c-1.4,1.1-2.9,2.1-4.3,3.2c0,0-0.1,0.1-0.1,0.1c-0.8,0.5-1.5,1.1-2.3,1.6
		c-0.8,0.5-1.5,1-2.2,1.6c-0.1,0.1-0.1,0.1-0.2,0.2c-0.7,0.5-1.5,1-2.2,1.5c-0.8,0.5-1.6,1.1-2.4,1.6c-5.6,3.7-11.3,7.1-17.2,10.3
		c-0.6,0.3-1.2,0.7-1.8,1c-4.2,2.3-8.5,4.4-12.9,6.5c-0.9,0.4-1.7,0.8-2.6,1.2c-0.6,0.3-1.3,0.6-1.9,0.9c-0.5,0.2-1,0.4-1.5,0.6
		c-6.2,2.7-12.5,5.2-18.9,7.4c-0.9,0.3-1.8,0.6-2.8,0.9c-0.9,0.3-1.8,0.6-2.7,0.9c0,0-0.1,0-0.1,0c-0.9,0.3-1.9,0.6-2.8,0.9
		c-1.4,0.4-2.8,0.8-4.1,1.2c-1.6,0.5-3.2,0.9-4.9,1.3c-0.7,0.2-1.4,0.4-2.1,0.6c-1.1,0.3-2.1,0.5-3.2,0.8c-0.8,0.2-1.7,0.4-2.5,0.6
		c-4.2,1-8.4,1.8-12.7,2.6c-1,0.2-2,0.4-3.1,0.5c-1.2,0.2-2.4,0.4-3.6,0.6c-0.7,0.1-1.4,0.2-2.2,0.3c-1.3,0.2-2.7,0.4-4.1,0.6
		c-1,0.1-2,0.2-3,0.4c-1.1,0.1-2.3,0.3-3.5,0.4c-0.7,0.1-1.5,0.2-2.2,0.2c-0.4,0-0.8,0.1-1.2,0.1c-0.2,0-0.3,0-0.5,0
		c-1.8,0.2-3.6,0.3-5.4,0.4c-1.3,0.1-2.7,0.2-4,0.2c-1.7,0.1-3.3,0.1-5,0.2c-0.1,0-0.2,0-0.2,0c-0.7,0-1.3,0-2,0c-0.8,0-1.5,0-2.3,0
		c-1,0-2.1,0-3.1,0s-2.1,0-3.1,0c-0.8,0-1.5,0-2.3,0c-0.7,0-1.3,0-2,0c-0.1,0-0.1,0-0.2,0c-1.7-0.1-3.3-0.1-5-0.2
		c-1.4-0.1-2.7-0.1-4-0.2c-1.8-0.1-3.6-0.2-5.4-0.4c-0.2,0-0.3,0-0.5,0c-0.4,0-0.8-0.1-1.2-0.1c-0.7-0.1-1.5-0.1-2.2-0.2
		c-1.2-0.1-2.3-0.2-3.5-0.4c-1-0.1-2-0.2-3-0.4c-1.4-0.2-2.7-0.3-4.1-0.6c-0.7-0.1-1.4-0.2-2.2-0.3c-1.2-0.2-2.4-0.4-3.6-0.6
		c-1-0.2-2-0.3-3.1-0.5c-4.3-0.8-8.5-1.6-12.7-2.6c-0.8-0.2-1.7-0.4-2.5-0.6c-1.1-0.2-2.1-0.5-3.2-0.8c-0.7-0.2-1.4-0.4-2.1-0.6
		c-1.6-0.4-3.3-0.9-4.9-1.3c-1.4-0.4-2.8-0.8-4.1-1.2c-0.9-0.3-1.9-0.6-2.8-0.9c0,0-0.1,0-0.1,0c-0.9-0.3-1.8-0.6-2.7-0.9
		c-0.9-0.3-1.8-0.6-2.8-0.9c-6.4-2.2-12.8-4.7-18.9-7.4c-0.5-0.2-1-0.4-1.5-0.6c-0.6-0.3-1.3-0.6-1.9-0.9c-0.9-0.4-1.7-0.8-2.6-1.2
		c-4.4-2-8.7-4.2-12.9-6.5c-0.6-0.3-1.2-0.7-1.8-1c-5.9-3.2-11.6-6.7-17.2-10.3c-0.8-0.5-1.6-1-2.4-1.6c-0.8-0.5-1.5-1-2.2-1.5
		c-0.1-0.1-0.2-0.1-0.2-0.2c-0.8-0.5-1.5-1-2.2-1.6c-0.8-0.5-1.5-1.1-2.3-1.6c-0.1,0-0.1-0.1-0.1-0.1c-1.5-1-2.9-2.1-4.3-3.2
		c-1.1-0.8-2.2-1.6-3.2-2.5c-0.5-0.4-1-0.8-1.5-1.2l-0.8-0.6c-9.6-7.6-18.7-16-27.1-24.9c-11.2-11.9-21.3-24.9-30.1-38.8
		C14.5,353.2,0,306.3,0,256C0,114.6,114.6,0,256,0S512,114.6,512,256z"/>
	<path id="XMLID_7_" class="st13" d="M470.1,326c0,23.3-3.7,45.8-10.6,66.8c-4.4,13.6-10.2,26.5-17.1,38.7c0,0,0,0,0,0
		c-6.4,6.8-13.3,13.3-20.4,19.4c-0.6,0.5-1.2,1-1.8,1.5c-1.6,1.4-3.2,2.7-4.9,4c-0.3,0.2-0.5,0.4-0.8,0.6c-0.5,0.4-1,0.8-1.5,1.2
		c-1.1,0.8-2.2,1.7-3.2,2.5c-1.4,1.1-2.9,2.1-4.3,3.2c0,0-0.1,0.1-0.1,0.1c-0.8,0.5-1.5,1.1-2.3,1.6c-0.8,0.5-1.5,1-2.2,1.6
		c-0.1,0.1-0.1,0.1-0.2,0.2c-0.7,0.5-1.5,1-2.2,1.5c-0.8,0.5-1.6,1.1-2.4,1.6c-5.6,3.7-11.3,7.1-17.2,10.3c-0.6,0.3-1.2,0.7-1.8,1
		c-4.2,2.3-8.5,4.4-12.9,6.5c-0.9,0.4-1.7,0.8-2.6,1.2c-0.6,0.3-1.3,0.6-1.9,0.9c-0.5,0.2-1,0.4-1.5,0.6c-6.2,2.7-12.5,5.2-18.9,7.4
		c-0.9,0.3-1.8,0.6-2.8,0.9c-0.9,0.3-1.8,0.6-2.7,0.9c0,0-0.1,0-0.1,0c-0.9,0.3-1.9,0.6-2.8,0.9c-1.4,0.4-2.8,0.8-4.1,1.2
		c-1.6,0.5-3.2,0.9-4.9,1.3c-0.7,0.2-1.4,0.4-2.1,0.6c-1.1,0.3-2.1,0.5-3.2,0.8c-0.8,0.2-1.7,0.4-2.5,0.6c-4.2,1-8.4,1.8-12.7,2.6
		c-1,0.2-2,0.4-3.1,0.5c-1.2,0.2-2.4,0.4-3.6,0.6c-0.7,0.1-1.4,0.2-2.2,0.3c-1.3,0.2-2.7,0.4-4.1,0.6c-1,0.1-2,0.2-3,0.4
		c-1.1,0.1-2.3,0.3-3.5,0.4c-0.7,0.1-1.5,0.2-2.2,0.2c-0.4,0-0.8,0.1-1.2,0.1c-0.2,0-0.3,0-0.5,0c-1.8,0.2-3.6,0.3-5.4,0.4
		c-1.3,0.1-2.7,0.2-4,0.2c-1.7,0.1-3.3,0.1-5,0.2c-0.1,0-0.2,0-0.2,0c-0.7,0-1.3,0-2,0c-0.8,0-1.5,0-2.3,0c-1,0-2.1,0-3.1,0
		s-2.1,0-3.1,0c-0.8,0-1.5,0-2.3,0c-0.7,0-1.3,0-2,0c-0.1,0-0.1,0-0.2,0c-1.7-0.1-3.3-0.1-5-0.2c-1.4-0.1-2.7-0.1-4-0.2
		c-1.8-0.1-3.6-0.2-5.4-0.4c-0.2,0-0.3,0-0.5,0c-0.4,0-0.8-0.1-1.2-0.1c-0.7-0.1-1.5-0.1-2.2-0.2c-1.2-0.1-2.3-0.2-3.5-0.4
		c-1-0.1-2-0.2-3-0.4c-1.4-0.2-2.7-0.3-4.1-0.6c-0.7-0.1-1.4-0.2-2.2-0.3c-1.2-0.2-2.4-0.4-3.6-0.6c-1-0.2-2-0.3-3.1-0.5
		c-4.3-0.8-8.5-1.6-12.7-2.6c-0.8-0.2-1.7-0.4-2.5-0.6c-1.1-0.2-2.1-0.5-3.2-0.8c-0.7-0.2-1.4-0.4-2.1-0.6c-1.6-0.4-3.3-0.9-4.9-1.3
		c-1.4-0.4-2.8-0.8-4.1-1.2c-0.9-0.3-1.9-0.6-2.8-0.9c0,0-0.1,0-0.1,0c-0.9-0.3-1.8-0.6-2.7-0.9c-0.9-0.3-1.8-0.6-2.8-0.9
		c-6.4-2.2-12.8-4.7-18.9-7.4c-0.5-0.2-1-0.4-1.5-0.6c-0.6-0.3-1.3-0.6-1.9-0.9c-0.9-0.4-1.7-0.8-2.6-1.2c-4.4-2-8.7-4.2-12.9-6.5
		c-0.6-0.3-1.2-0.7-1.8-1c-5.9-3.2-11.6-6.7-17.2-10.3c-0.8-0.5-1.6-1-2.4-1.6c-0.8-0.5-1.5-1-2.2-1.5c-0.1-0.1-0.2-0.1-0.2-0.2
		c-0.8-0.5-1.5-1-2.2-1.6c-0.8-0.5-1.5-1.1-2.3-1.6c-0.1,0-0.1-0.1-0.1-0.1c-1.5-1-2.9-2.1-4.3-3.2c-1.1-0.8-2.2-1.6-3.2-2.5
		c-0.5-0.4-1-0.8-1.5-1.2l-0.8-0.6c-9.6-7.6-18.7-16-27.1-24.9c-6.9-12.2-12.7-25.2-17.2-38.8c-6.9-21-10.6-43.4-10.6-66.8
		c0-118.3,95.9-214.1,214.1-214.1S470.1,207.7,470.1,326z"/>
</g>
<g id="Icons">
	<path id="XMLID_1732_" class="st143" d="M472.4,392.8c-0.2,0.3-0.4,0.6-0.6,0.9c-0.3,0.5-0.6,0.9-0.9,1.4c-1.9,3-3.9,5.9-5.9,8.8
		c-0.9,1.2-1.7,2.4-2.6,3.6c-0.9,1.2-1.8,2.4-2.7,3.6c-0.9,1.2-1.8,2.3-2.7,3.5c-0.9,1.2-1.8,2.3-2.8,3.5c-0.9,1.1-1.9,2.3-2.8,3.4
		l-0.1,0.1c-0.7,0.8-1.4,1.6-2.1,2.4c-0.6,0.7-1.3,1.5-1.9,2.2c-0.7,0.7-1.3,1.5-2,2.2c-1,1.1-2,2.2-3,3.2c0,0,0,0,0,0
		c-6.4,6.8-13.3,13.3-20.4,19.4c-0.6,0.5-1.2,1-1.8,1.5c-1.6,1.4-3.2,2.7-4.9,4c-0.3,0.2-0.5,0.4-0.8,0.6c-0.5,0.4-1,0.8-1.5,1.2
		c-1.1,0.8-2.2,1.7-3.2,2.5c-1.4,1.1-2.9,2.1-4.3,3.2c0,0-0.1,0.1-0.1,0.1c-0.8,0.5-1.5,1.1-2.3,1.6c-0.8,0.5-1.5,1-2.2,1.6
		c-0.1,0.1-0.1,0.1-0.2,0.2c-0.7,0.5-1.5,1-2.2,1.5c-0.8,0.5-1.6,1.1-2.4,1.6c-5.6,3.7-11.3,7.1-17.2,10.3c-0.6,0.3-1.2,0.7-1.8,1
		c-4.2,2.3-8.5,4.4-12.9,6.5c-0.9,0.4-1.7,0.8-2.6,1.2c-0.6,0.3-1.3,0.6-1.9,0.9c-0.5,0.2-1,0.4-1.5,0.6c-6.2,2.7-12.5,5.2-18.9,7.4
		c-0.9,0.3-1.8,0.6-2.8,0.9c-0.9,0.3-1.8,0.6-2.7,0.9c0,0-0.1,0-0.1,0c-0.9,0.3-1.9,0.6-2.8,0.9c-1.4,0.4-2.8,0.8-4.1,1.2
		c-1.6,0.5-3.2,0.9-4.9,1.3c-0.7,0.2-1.4,0.4-2.1,0.6c-1.1,0.3-2.1,0.5-3.2,0.8c-0.8,0.2-1.7,0.4-2.5,0.6c-4.2,1-8.4,1.8-12.7,2.6
		c-1,0.2-2,0.4-3.1,0.5c-1.2,0.2-2.4,0.4-3.6,0.6c-0.7,0.1-1.4,0.2-2.2,0.3c-1.3,0.2-2.7,0.4-4.1,0.6c-1,0.1-2,0.2-3,0.4
		c-1.1,0.1-2.3,0.3-3.5,0.4c-0.7,0.1-1.5,0.2-2.2,0.2c-0.4,0-0.8,0.1-1.2,0.1c-0.2,0-0.3,0-0.5,0c-1.8,0.2-3.6,0.3-5.4,0.4
		c-1.3,0.1-2.7,0.2-4,0.2c-1.7,0.1-3.3,0.1-5,0.2c-0.1,0-0.2,0-0.2,0c-0.7,0-1.3,0-2,0c-0.8,0-1.5,0-2.3,0c-1,0-2.1,0-3.1,0
		s-2.1,0-3.1,0c-0.8,0-1.5,0-2.3,0c-0.7,0-1.3,0-2,0c-0.1,0-0.1,0-0.2,0c-1.7-0.1-3.3-0.1-5-0.2c-1.4-0.1-2.7-0.1-4-0.2
		c-1.8-0.1-3.6-0.2-5.4-0.4c-0.2,0-0.3,0-0.5,0c-0.4,0-0.8-0.1-1.2-0.1c-0.7-0.1-1.5-0.1-2.2-0.2c-1.2-0.1-2.3-0.2-3.5-0.4
		c-1-0.1-2-0.2-3-0.4c-1.4-0.2-2.7-0.3-4.1-0.6c-0.7-0.1-1.4-0.2-2.2-0.3c-1.2-0.2-2.4-0.4-3.6-0.6c-1-0.2-2-0.3-3.1-0.5
		c-4.3-0.8-8.5-1.6-12.7-2.6c-0.8-0.2-1.7-0.4-2.5-0.6c-1.1-0.2-2.1-0.5-3.2-0.8c-0.7-0.2-1.4-0.4-2.1-0.6c-1.6-0.4-3.3-0.9-4.9-1.3
		c-1.4-0.4-2.8-0.8-4.1-1.2c-0.9-0.3-1.9-0.6-2.8-0.9c0,0-0.1,0-0.1,0c-0.9-0.3-1.8-0.6-2.7-0.9c-0.9-0.3-1.8-0.6-2.8-0.9
		c-6.4-2.2-12.8-4.7-18.9-7.4c-0.5-0.2-1-0.4-1.5-0.6c-0.6-0.3-1.3-0.6-1.9-0.9c-0.9-0.4-1.7-0.8-2.6-1.2c-4.4-2-8.7-4.2-12.9-6.5
		c-0.6-0.3-1.2-0.7-1.8-1c-5.9-3.2-11.6-6.7-17.2-10.3c-0.8-0.5-1.6-1-2.4-1.6c-0.8-0.5-1.5-1-2.2-1.5c-0.1-0.1-0.2-0.1-0.2-0.2
		c-0.8-0.5-1.5-1-2.2-1.6c-0.8-0.5-1.5-1.1-2.3-1.6c-0.1,0-0.1-0.1-0.1-0.1c-1.5-1-2.9-2.1-4.3-3.2c-1.1-0.8-2.2-1.6-3.2-2.5
		c-0.5-0.4-1-0.8-1.5-1.2l-0.8-0.6c-9.6-7.6-18.7-16-27.1-24.9c-11.2-11.9-21.3-24.9-30.1-38.8H472.4z"/>
	<g id="XMLID_1767_">
		<path id="XMLID_1908_" class="st51" d="M344,308.9c0,2.7-0.4,5.4-1.2,7.8c-3.3,10.7-13.3,18.4-25,18.4c-6.5,0-12.5-2.4-17.1-6.4
			c-5.7,4.3-12.8,6.9-20.5,6.9c-9.5,0-18-3.9-24.2-10.1c-6.2,6.2-14.7,10.1-24.2,10.1c-8.2,0-15.7-2.9-21.6-7.7
			c-4.7,4.5-11,7.2-18,7.2c-11.8,0-21.7-7.7-25-18.4c-0.8-2.5-1.2-5.1-1.2-7.8c0-14.5,11.7-26.2,26.2-26.2c3.6,0,7,0.7,10.1,2
			c5.9-10.2,16.9-17.1,29.5-17.1c9.5,0,18,3.9,24.2,10.1c6.2-6.2,14.7-10.1,24.2-10.1c12.4,0,23.2,6.6,29.1,16.4
			c2.7-0.9,5.5-1.4,8.5-1.4C332.3,282.7,344,294.4,344,308.9z"/>
		<g id="XMLID_1867_">
			<path id="XMLID_1869_" class="st353" d="M266.4,306.4c-3.8,3.1-7.7,4.7-11.6,4.4c-24.2-1.7-39-72.6-33-158.3
				c4.7-67.4,35.7-122.9,48.8-143.5c2.5-4,8.4-3.5,10.3,0.7c2.2,4.8,4.9,11.2,7.8,19.1c10.8,28.9,24.3,76.9,20.7,129.9
				C304.3,230.5,286.3,290,266.4,306.4z"/>
			<path id="XMLID_1868_" class="st9" d="M266.4,306.4c-15.2-23.1-23.1-80.8-18.5-147.6c3.9-55.9,25.9-103.6,40.8-130
				c10.8,28.9,24.3,76.9,20.7,129.9C304.3,230.5,286.3,290,266.4,306.4z"/>
		</g>
		<g id="XMLID_1863_">
			<path id="XMLID_1865_" class="st354" d="M220.7,293.9c-0.7,3.1-2.1,5.4-4.2,6.8c-13,8.6-48.4-21.7-79-67.8
				c-24.1-36.2-30-76.7-31.5-92.4c-0.3-3,2.9-5.1,5.5-3.7c3,1.6,6.9,3.8,11.5,6.6c16.9,10.5,42.6,29.6,61.5,58.1
				C210.3,240.3,224.5,277.7,220.7,293.9z"/>
			<path id="XMLID_1864_" class="st17" d="M220.7,293.9c-16.8-5.8-43.5-32.2-67.4-68c-20-30-27.5-63-30.3-82.3
				c16.9,10.5,42.6,29.6,61.5,58.1C210.3,240.3,224.5,277.7,220.7,293.9z"/>
		</g>
		<g id="XMLID_1860_">
			<path id="XMLID_1862_" class="st9" d="M308.6,302.9c-3,1-5.7,1-8,0c-14.1-6.6-6.7-52.6,16.7-102.8c18.4-39.4,49.8-65.6,62.5-75
				c2.4-1.8,5.9-0.2,6,2.8c0.2,3.4,0.4,7.9,0.3,13.3c-0.2,19.9-3.1,51.8-17.6,82.8C348.9,266.1,324.4,297.7,308.6,302.9z"/>
			<path id="XMLID_1861_" class="st355" d="M308.6,302.9c-3.8-17.4,4.8-53.9,23-93c15.2-32.7,39.5-56.3,54.5-68.7
				c-0.2,19.9-3.1,51.8-17.6,82.8C348.9,266.1,324.4,297.7,308.6,302.9z"/>
		</g>
		<path id="XMLID_1859_" class="st17" d="M337.7,173.4c-8.2,52.4-24.7,95.4-40.5,109.6c-4.2,3.7-8.3,5.5-12.2,4.9
			c-18.7-2.9-25.4-59-14.9-125.1c8.2-52,36-93,47.6-108.1c2.2-2.9,6.8-2.2,8,1.3c1,2.8,2.2,6.4,3.4,10.6
			C335.8,88.9,344.6,129.6,337.7,173.4z"/>
		<path id="XMLID_1858_" class="st356" d="M337.7,173.4c-8.2,52.4-24.7,95.4-40.5,109.6c-12.6-15.3-16.1-64.1-7.3-120.2
			c6.6-41.8,25.9-76.4,39.2-96.3C335.8,88.9,344.6,129.6,337.7,173.4z"/>
		<line id="XMLID_1857_" class="st357" x1="319.4" y1="69.5" x2="285" y2="287.9"/>
		<polyline id="XMLID_1830_" class="st357" points="293.1,112.6 307.6,144.7 328.6,118.2 		"/>
		<polyline id="XMLID_1829_" class="st357" points="278.8,203.2 293.3,235.4 314.3,208.8 		"/>
		<polyline id="XMLID_1828_" class="st357" points="275.4,245.2 287.3,271.7 304.7,249.8 		"/>
		<polyline id="XMLID_1827_" class="st357" points="280.2,151.3 300.1,195.3 328.9,159 		"/>
		<path id="XMLID_1826_" class="st354" d="M230.3,290.9c-2.6,3.2-5.6,5.1-8.9,5.6c-22.5,3.8-51.6-57.8-64.9-137.5
			c-10.5-62.7,5.7-120.2,13.2-142c1.4-4.2,6.9-5.1,9.6-1.6c2.7,3.5,6.2,8.2,10.1,13.9c16.3,23.8,40.1,65.5,48.6,116
			C249.3,213.3,245.6,272.6,230.3,290.9z"/>
		<path id="XMLID_1825_" class="st17" d="M230.3,290.9C211,274,190.6,222.2,180,159c-8.9-53.1,1.4-102.6,9.3-129.7
			c16.3,23.8,40.1,65.5,48.6,116C249.3,213.3,245.6,272.6,230.3,290.9z"/>
		<line id="XMLID_1824_" class="st357" x1="177.3" y1="33.3" x2="221.3" y2="296.5"/>
		<polyline id="XMLID_1823_" class="st357" points="163.6,92.8 192.5,124 206.4,85.6 		"/>
		<polyline id="XMLID_1822_" class="st357" points="181.9,202 210.7,233.2 224.7,194.9 		"/>
		<polyline id="XMLID_1821_" class="st357" points="194,251.4 217.8,277.1 229.3,245.4 		"/>
		<polyline id="XMLID_1820_" class="st357" points="163.6,142 203.2,184.8 222.3,132.2 		"/>
		<path id="XMLID_1819_" class="st2" d="M342.8,316.7c-3.3,10.7-13.3,18.4-25,18.4c-6.5,0-12.5-2.4-17.1-6.4
			c-5.7,4.3-12.8,6.9-20.5,6.9c-9.5,0-18-3.9-24.2-10.1c-6.2,6.2-14.7,10.1-24.2,10.1c-8.2,0-15.7-2.9-21.6-7.7
			c-4.7,4.5-11,7.2-18,7.2c-11.8,0-21.7-7.7-25-18.4c3.3-10.7,13.3-18.4,25-18.4c3.6,0,7,0.7,10.1,2c5.9-10.2,16.9-17.1,29.5-17.1
			c9.5,0,18,3.9,24.2,10.1c6.2-6.2,14.7-10.1,24.2-10.1c12.4,0,23.2,6.6,29.1,16.4c2.7-0.9,5.5-1.4,8.5-1.4
			C329.6,298.3,339.5,306,342.8,316.7z"/>
		<g id="XMLID_1768_">
			<path id="XMLID_1818_" class="st358" d="M367.7,328.4c0,5.4-2.2,10.3-5.7,13.8c-3.5,3.5-8.2,5.6-13.5,5.7H162
				c-10.7-0.1-19.3-8.8-19.3-19.5c0-5.4,2.2-10.3,5.7-13.8c3.5-3.5,8.4-5.7,13.8-5.7h185.9C358.9,308.9,367.7,317.6,367.7,328.4z"/>
			<path id="XMLID_1774_" class="st359" d="M348.4,347.9l-6.3,61.3l-2.5,24.1l-5,48.8c-0.9,9.1-8.6,16-17.8,16H193.5
				c-9.2,0-16.8-6.9-17.8-16l-5-48.8l-2.5-24.1l-6.3-61.3H348.4z"/>
			<polygon id="XMLID_1773_" class="st360" points="342.1,409.2 339.7,433.4 170.7,433.4 168.3,409.2 			"/>
			<path id="XMLID_1772_" class="st59" d="M367.7,328.4c0,5.4-2.2,10.3-5.7,13.8c-3.5,3.5-8.2,5.6-13.5,5.7H223.6
				c-10.7-0.1-19.3-8.8-19.3-19.5c0-5.4,2.2-10.3,5.7-13.8c3.5-3.5,8.4-5.7,13.8-5.7h124.3C358.9,308.9,367.7,317.6,367.7,328.4z"/>
			<path id="XMLID_1771_" class="st361" d="M348.4,347.9l-6.3,61.3l-2.5,24.1l-5,48.8c-0.9,9.1-8.6,16-17.8,16h-61.7
				c-9.2,0-16.8-6.9-17.8-16l-5-48.8l-2.5-24.1l-6.3-61.3H348.4z"/>
			<polygon id="XMLID_1770_" class="st362" points="342.1,409.2 339.7,433.4 232.4,433.4 229.9,409.2 			"/>
			<path id="XMLID_1769_" class="st363" d="M340.9,338.5h-36.9c-5.7,0-10.3-4.6-10.3-10.3v-0.6c0-5.7,4.6-10.3,10.3-10.3h36.9
				c5.7,0,10.3,4.6,10.3,10.3v0.6C351.3,333.8,346.7,338.5,340.9,338.5z"/>
		</g>
	</g>
</g>
</svg>
