<?xml version="1.0" encoding="utf-8"?>
<!-- Generator: Adobe Illustrator 22.0.1, SVG Export Plug-In . SVG Version: 6.00 Build 0)  -->
<svg version="1.1" xmlns="http://www.w3.org/2000/svg" xmlns:xlink="http://www.w3.org/1999/xlink" x="0px" y="0px"
	 viewBox="0 0 512 512" style="enable-background:new 0 0 512 512;" xml:space="preserve">
<style type="text/css">
	.st0{fill:#4B71B4;}
	.st1{fill:#80B4E8;}
	.st2{fill:#594144;}
	.st3{fill:#B8E876;}
	.st4{fill:#E09122;}
	.st5{fill:#FBF355;}
	.st6{fill:#EEC82F;}
	.st7{fill:#CEA628;}
	.st8{fill:#9BC9EF;}
	.st9{fill:#9DD055;}
	.st10{fill:#5686C5;}
	.st11{fill:#3B5880;}
	.st12{fill:#C2E5FB;}
	.st13{fill:#446697;}
	.st14{fill:#D1F1A0;}
	.st15{fill:#ABD170;}
	.st16{fill:#9DBD6A;}
	.st17{fill:#649D53;}
	.st18{fill:#72B35D;}
	.st19{fill:#ABD68D;}
	.st20{fill:#7FB358;}
	.st21{fill:#920C50;}
	.st22{fill:#C60053;}
	.st23{fill:#530730;}
	.st24{fill:#600332;}
	.st25{fill:#D5AC2A;}
	.st26{fill:#EFD776;}
	.st27{fill:#A7C76D;}
	.st28{fill:#A43749;}
	.st29{fill:#DC4355;}
	.st30{fill:#E18696;}
	.st31{fill:#77A255;}
	.st32{fill:#628547;}
	.st33{fill:#6E994D;}
	.st34{fill:none;stroke:#54743C;stroke-width:8;stroke-linecap:round;stroke-miterlimit:10;}
	.st35{fill:#9BCF75;}
	.st36{fill:#CA8F80;}
	.st37{fill:#E6B8AB;}
	.st38{fill:#E2A18B;}
	.st39{fill:#8E3F2B;}
	.st40{fill:#D89988;}
	.st41{fill:#CFCFCF;}
	.st42{fill:#A64B2D;}
	.st43{fill:#FFFFFF;}
	.st44{fill:#CA801F;}
	.st45{fill:#719C50;}
	.st46{fill:#85B7E5;}
	.st47{fill:#4F7BA9;}
	.st48{fill:#674C50;}
	.st49{fill:#BAD7ED;}
	.st50{fill:#63494D;}
	.st51{fill:#503D3F;}
	.st52{fill:#638547;}
	.st53{fill:#56713E;}
	.st54{fill:#BB5135;}
	.st55{fill:#93C4EC;}
	.st56{fill:#CA8121;}
	.st57{fill:#FDFCFC;}
	.st58{fill:#A83A4F;}
	.st59{fill:#BD5E44;}
	.st60{fill:#688C4A;}
	.st61{fill:#7DA55A;}
	.st62{fill:#90BA51;}
	.st63{fill:none;}
	.st64{fill:#ABC287;}
	.st65{fill:#BDD993;}
	.st66{fill:none;stroke:#534046;stroke-width:15;stroke-linecap:round;stroke-linejoin:round;stroke-miterlimit:10;}
	.st67{fill:#413133;}
	.st68{fill:#34292B;}
	.st69{fill:#644B50;}
	.st70{fill:#CDACB7;}
	.st71{fill:#A83A4D;}
	.st72{fill:#413335;}
	.st73{fill:#DC6579;}
	.st74{fill:#4C393C;}
	.st75{fill:#527FAE;}
	.st76{fill:#92C2EA;}
	.st77{fill:#5B8C4A;}
	.st78{fill:#729C51;}
	.st79{fill:#AADB5E;}
	.st80{fill:#D66C53;}
	.st81{fill:#A65340;}
	.st82{fill:#B8594A;}
	.st83{fill:#79A754;}
	.st84{fill:#4E3B3E;}
	.st85{fill:#5E4649;}
	.st86{fill:#604A50;}
	.st87{fill:#685258;}
	.st88{fill:#765E66;}
	.st89{fill:#FCF69A;}
	.st90{fill:#D3CC84;}
	.st91{fill:#E6A572;}
	.st92{fill:#74A151;}
	.st93{fill:#6F994F;}
	.st94{fill:#CC6D7D;}
	.st95{fill:#AD6576;}
	.st96{fill:#95422D;}
	.st97{fill:#BE6850;}
	.st98{fill:#3B2F32;}
	.st99{fill:none;stroke:#46383B;stroke-width:15;stroke-linecap:round;stroke-miterlimit:10;}
	.st100{fill:none;stroke:#3B2F32;stroke-width:15;stroke-linecap:round;stroke-miterlimit:10;}
	.st101{fill:#D6CF77;}
	.st102{fill:#F5EF82;}
	.st103{fill:#4A383B;}
	.st104{fill:#CACACA;}
	.st105{fill:#48373A;}
	.st106{fill:#7AA8D2;}
	.st107{fill:#6E9150;}
	.st108{fill:#587441;}
	.st109{fill:#D76E51;}
	.st110{fill:#CCC475;}
	.st111{fill:#DDD57E;}
	.st112{fill:#F8F19C;}
	.st113{fill:#FBF58A;}
	.st114{fill:#C67F20;}
	.st115{fill:#AB6B1C;}
	.st116{fill:#C98020;}
	.st117{fill:#D99A41;}
	.st118{fill:#DBA35B;}
	.st119{fill:#9B5F1B;}
	.st120{fill:#97CF6D;}
	.st121{fill:#5380B1;}
	.st122{fill:#96D16A;}
	.st123{fill:#92BD50;}
	.st124{fill:#7EB058;}
	.st125{fill:#709A50;}
	.st126{fill:#5A8A4A;}
	.st127{fill:#D9D9D9;}
	.st128{fill:#75A3CD;}
	.st129{fill:#6E974F;}
	.st130{fill:#CA6D7D;}
	.st131{fill:#AB6576;}
	.st132{fill:#93422D;}
	.st133{fill:#A44B2D;}
	.st134{fill:#BC6850;}
	.st135{fill:#DFB52B;}
	.st136{fill:#4C3A3C;}
	.st137{fill:#473538;}
	.st138{fill:#382B2E;}
	.st139{fill:none;stroke:#FFFFFF;stroke-width:8;stroke-linecap:round;stroke-miterlimit:10;}
	.st140{fill:#90C0E8;}
	.st141{fill:none;stroke:#E09122;stroke-width:12;stroke-linecap:round;stroke-miterlimit:10;}
	.st142{fill:#DCAE2B;}
	.st143{fill:#F0D05A;}
	.st144{fill:#729E51;}
	.st145{fill:#E4BA36;}
	.st146{fill:#F8F283;}
	.st147{fill:#E4B6A9;}
	.st148{fill:#D78E30;}
	.st149{fill:#598A49;}
	.st150{fill:#B65339;}
	.st151{fill:#BA751F;}
	.st152{fill:#466A9F;}
	.st153{fill:#8BB34D;}
	.st154{fill:#9BCE54;}
	.st155{fill:#7F9F49;}
	.st156{fill:#D37F6D;}
	.st157{fill:#BB5E44;}
	.st158{fill:#93BB55;}
	.st159{fill:#B3E665;}
	.st160{fill:none;stroke:#4C393C;stroke-width:8;stroke-miterlimit:10;}
	.st161{fill:#97432D;}
	.st162{fill:#DAB12A;}
	.st163{fill:#5E914C;}
	.st164{fill:#5381B3;}
	.st165{fill:#6A8F4C;}
	.st166{fill:#628047;}
	.st167{fill:#E29D37;}
	.st168{fill:#6E555B;}
	.st169{fill:#91CA67;}
	.st170{fill:#476BA1;}
	.st171{fill:#6699D9;}
	.st172{fill:#503C3E;}
	.st173{fill:#413235;}
	.st174{fill:#CC916A;}
	.st175{fill:#BA8363;}
	.st176{fill:#D09571;}
	.st177{fill:#C98F68;}
	.st178{fill:#AA3B4D;}
	.st179{fill:#DA6075;}
	.st180{fill:#92452D;}
	.st181{fill:#A24B2D;}
	.st182{fill:#B76252;}
	.st183{fill:#87BD60;}
	.st184{fill:#78A7D2;}
	.st185{fill:#F9F38F;}
	.st186{fill:#E0D650;}
	.st187{fill:#AFE086;}
	.st188{fill:#9FD476;}
	.st189{fill:#9DD176;}
	.st190{fill:#8FC468;}
	.st191{fill:#7EAE58;}
	.st192{fill:#6F9850;}
	.st193{fill:#59884A;}
	.st194{fill:#638347;}
	.st195{fill:#B95135;}
	.st196{fill:#E5AB62;}
	.st197{fill:#733228;}
	.st198{fill:#803728;}
	.st199{fill:#6D974D;}
	.st200{fill:#99CD75;}
	.st201{fill:#93412C;}
	.st202{fill:#93C2EA;}
	.st203{fill:#CD926B;}
	.st204{fill:#E6AF8A;}
	.st205{fill:#E5DB4E;}
	.st206{fill:#FBF375;}
	.st207{fill:#779E54;}
	.st208{fill:#D3966D;}
	.st209{fill:#DA4355;}
	.st210{fill:#A83B4D;}
	.st211{fill:none;stroke:#594144;stroke-width:8;stroke-linecap:round;stroke-miterlimit:10;}
	.st212{fill:#E5A855;}
	.st213{fill:#EAC291;}
	.st214{fill:#96C252;}
	.st215{fill:#695055;}
	.st216{fill:#DC9C42;}
	.st217{fill:#8E5C1B;}
	.st218{fill:#F4EB6A;}
	.st219{fill:#CBC049;}
	.st220{fill:none;stroke:#B8E876;stroke-width:15;stroke-linecap:round;stroke-miterlimit:10;}
	.st221{fill:#A36A1C;}
	.st222{fill:#ECC94A;}
	.st223{fill:#91BEDA;}
	.st224{fill:#3D2F32;}
	.st225{fill:#A6394C;}
	.st226{fill:#33292B;}
	.st227{fill:#4F3D42;}
	.st228{fill:#638147;}
	.st229{fill:#CD8321;}
	.st230{fill:#D3CA4A;}
	.st231{fill:#E2A550;}
	.st232{fill:#B75135;}
	.st233{fill:#D4CD77;}
	.st234{fill:#F3EC80;}
	.st235{fill:#46383B;}
	.st236{fill:#82AA61;}
	.st237{fill:#8EBF69;}
	.st238{fill:#3C2E31;}
	.st239{fill:#C49F27;}
	.st240{fill:#D2BF7C;}
	.st241{fill:#F6E18D;}
	.st242{fill:#D6D6D6;}
	.st243{fill:#B5D7F2;}
	.st244{fill:#F1D467;}
	.st245{fill:#739FBD;}
	.st246{fill:#D0946C;}
	.st247{fill:#BE8767;}
	.st248{fill:#D0A829;}
	.st249{fill:#F6DF86;}
	.st250{fill:#EABA8D;}
	.st251{fill:#F0D1B8;}
	.st252{fill:#A5D0F1;}
	.st253{fill:#E3A13F;}
	.st254{fill:#F0FAFF;}
	.st255{fill:#B4D3E3;}
	.st256{fill:#80A5C3;}
	.st257{fill:#87AFD5;}
	.st258{fill:#B1D1E7;}
	.st259{fill:#AED66F;}
	.st260{fill:#91AA61;}
	.st261{fill:#A8384B;}
	.st262{fill:#CD8120;}
	.st263{fill:#E6AD56;}
	.st264{fill:none;stroke:#E6AD56;stroke-width:8;stroke-linecap:round;stroke-miterlimit:10;}
	.st265{fill:#9EBD68;}
	.st266{fill:#AAD16E;}
	.st267{fill:#86656B;}
	.st268{fill:#6D954D;}
	.st269{fill:#98CB75;}
	.st270{fill:#75A251;}
	.st271{fill:#91BD4F;}
	.st272{fill:none;stroke:#B8E078;stroke-width:8;stroke-linecap:round;stroke-miterlimit:10;}
	.st273{fill:none;stroke:#B8E078;stroke-width:8;stroke-linecap:round;stroke-linejoin:round;stroke-miterlimit:10;}
	.st274{fill:#8FBA4E;}
	.st275{fill:#B3E860;}
	.st276{fill:#E7A748;}
	.st277{fill:none;stroke:#B6E676;stroke-width:15;stroke-linecap:round;stroke-miterlimit:10;}
	.st278{fill:#639B53;}
	.st279{fill:#476B9F;}
	.st280{fill:#82B1DE;}
	.st281{fill:#A6533F;}
	.st282{fill:#C28A69;}
	.st283{fill:#64494E;}
	.st284{fill:#77565C;}
	.st285{fill:#4F3C40;}
	.st286{fill:#ECCCB1;}
	.st287{fill:#BF6F5C;}
	.st288{fill:none;stroke:#D4F1A7;stroke-width:10;stroke-linecap:round;stroke-miterlimit:10;}
	.st289{fill:none;stroke:#B8E876;stroke-width:10;stroke-linecap:round;stroke-miterlimit:10;}
	.st290{fill:#47688F;}
	.st291{fill:#3F5B78;}
	.st292{fill:#354E6C;}
	.st293{fill:#DAB12B;}
	.st294{fill:#C8A028;}
	.st295{fill:#F0D15C;}
	.st296{fill:#F8F28B;}
	.st297{fill:#F7F18D;}
	.st298{fill:#DED450;}
	.st299{fill:#F9F155;}
	.st300{fill:#A2CFF4;}
	.st301{fill:none;stroke:#594144;stroke-width:10;stroke-linecap:round;stroke-miterlimit:10;}
	.st302{fill:#F5F0AB;}
	.st303{fill:#496DA1;}
	.st304{fill:#5A85C7;}
	.st305{fill:#D7D7D7;}
	.st306{fill:#ADD3E6;}
	.st307{fill:#98B8C3;}
	.st308{fill:#CDCECF;}
	.st309{fill:#BF4F69;}
	.st310{fill:#A83448;}
	.st311{fill:#A4DAF7;}
	.st312{fill:#81A861;}
	.st313{fill:#82A549;}
	.st314{fill:#B6E676;}
	.st315{fill:#8CBD69;}
	.st316{fill:#ECC62F;}
	.st317{fill:#F4EA80;}
	.st318{fill:#D6AD2B;}
	.st319{fill:#6F9151;}
	.st320{fill:#46699C;}
	.st321{fill:#4A373A;}
	.st322{fill:#89B04C;}
	.st323{fill:#99CC53;}
	.st324{fill:#B1E465;}
	.st325{fill:#E19E3B;}
	.st326{fill:#C05970;}
	.st327{fill:#D95F74;}
	.st328{fill:#74A8DE;}
	.st329{fill:#C47C1E;}
	.st330{fill:#719A51;}
	.st331{fill:#A8D95E;}
	.st332{fill:#D46C53;}
	.st333{fill:#A45340;}
	.st334{fill:#B6594A;}
	.st335{fill:#79A554;}
	.st336{fill:#B6DAF7;}
	.st337{fill:#739F51;}
	.st338{fill:#DDB32B;}
	.st339{fill:#DE8F22;}
	.st340{fill:none;stroke:#46383B;stroke-width:8;stroke-linecap:round;stroke-miterlimit:10;}
	.st341{fill:none;stroke:#3B2F32;stroke-width:8;stroke-linecap:round;stroke-miterlimit:10;}
	.st342{fill:#C8C8C8;}
	.st343{fill:#7F9D49;}
	.st344{fill:#BA5E44;}
	.st345{fill:#92B955;}
	.st346{fill:#D17F6D;}
	.st347{fill:#5D8F4C;}
	.st348{fill:#B75334;}
	.st349{fill:#CA6D57;}
	.st350{fill:#A4574D;}
	.st351{fill:#7FB1E6;}
	.st352{fill:#77A3CD;}
	.st353{fill:#90BA4F;}
	.st354{fill:#5C8F4B;}
	.st355{fill:#ACDE5D;}
	.st356{fill:#6FAC5A;}
	.st357{fill:none;stroke:#9DD055;stroke-width:10;stroke-linecap:round;stroke-miterlimit:10;}
	.st358{fill:#AD5643;}
	.st359{fill:#B96052;}
	.st360{fill:#CB8D84;}
	.st361{fill:#CC6C56;}
	.st362{fill:#DE9A8E;}
	.st363{fill:#D37B6A;}
	.st364{fill:#A87758;}
	.st365{fill:#372A2C;}
	.st366{fill:#B8815C;}
	.st367{fill:#433335;}
	.st368{fill:#2C2325;}
	.st369{fill:#95402B;}
	.st370{fill:#A85441;}
	.st371{fill:#D2C74B;}
	.st372{fill:#B25945;}
	.st373{fill:none;stroke:#594144;stroke-width:15;stroke-linecap:round;stroke-miterlimit:10;}
	.st374{fill:none;stroke:#594144;stroke-width:12;stroke-linecap:round;stroke-miterlimit:10;}
	.st375{fill:#8F473B;}
	.st376{fill:#453538;}
	.st377{fill:#517DAB;}
	.st378{fill:#75A050;}
	.st379{fill:#A5384D;}
	.st380{fill:#CC6075;}
	.st381{fill:#F26B7F;}
	.st382{fill:#C67189;}
	.st383{fill:#B26980;}
	.st384{fill:#D87990;}
	.st385{fill:#F2869B;}
	.st386{fill:#EF8499;}
	.st387{fill:#649CD7;}
	.st388{fill:#639CDB;}
	.st389{fill:#C8ED8D;}
	.st390{fill:#A9DB83;}
	.st391{fill:#9BCF76;}
	.st392{fill:#7EAC58;}
	.st393{fill:#8CC463;}
	.st394{fill:#7FAC5B;}
	.st395{fill:#769C55;}
	.st396{fill:#6A894D;}
	.st397{fill:#769B56;}
	.st398{fill:#9BCC75;}
	.st399{fill:#AF5641;}
	.st400{fill:#F4D576;}
	.st401{fill:#76A055;}
	.st402{fill:#628347;}
	.st403{fill:#4F7B9F;}
	.st404{fill:#466D86;}
	.st405{fill:#4D789C;}
</style>
<g id="BULINE">
	<circle id="XMLID_5_" class="st3" cx="256" cy="256" r="256"/>
</g>
<g id="Icons">
	<g id="XMLID_8_">
		<circle id="XMLID_230_" class="st14" cx="258.5" cy="156.6" r="146.4"/>
		<circle id="XMLID_229_" class="st15" cx="299.7" cy="309.7" r="146.4"/>
		<circle id="XMLID_228_" class="st16" cx="193.3" cy="323.3" r="146.4"/>
		<g id="XMLID_225_">
			<path id="XMLID_227_" class="st17" d="M40.5,294.9c-2.6-0.5-4.7-0.7-6.2-0.9c-1.3-0.1-2.1-0.2-2.1-0.2s-0.4,0.7-1,1.8
				c-3.4,6.5-14.1,29.3-5.6,45c9.6,17.9,33.9,38.7,47.8,33.8c0.5-0.2,1.1-0.4,1.6-0.7c0.5-0.3,1-0.6,1.5-0.9c1.4-1,2.6-2.4,3.5-4
				c7.3-12.1,3.3-38.7-5.1-54.5C68.2,301.6,50.9,296.7,40.5,294.9z"/>
			<path id="XMLID_226_" class="st18" d="M75,314.3c-6.8-12.6-24-17.5-34.4-19.4c-4.2,9.7-9.7,26.8-3,39.4
				C46,350,66,368.1,80.1,368.8C87.4,356.6,83.4,330,75,314.3z"/>
		</g>
		<g id="XMLID_223_">
			<path id="XMLID_447_" class="st2" d="M280.9,260.9l-2.4,13.8l-1,5.9c-0.1,0-3.9-0.7-10.4-1.1c-2.8-0.2-6-0.4-9.7-0.5
				c-6.1-0.1-13.3,0-21.3,0.5c-1,0.1-2,0.2-3.1,0.2c-1.5,0.1-3.1,0.3-4.6,0.5c-0.9,0.1-1.8,0.2-2.7,0.3c-0.5,0.1-1.1,0.1-1.7,0.2
				c-9.3,1.2-20,3.3-31.3,6.6c-3.7,1.1-7.4,2.3-11.2,3.7c-8.4,3.1-17.1,6.9-25.7,11.7c0,0,0,0,0,0c-0.8,0.5-1.6,0.9-2.4,1.4
				c-7.2,4.2-14.4,9-21.3,14.7c-5.2,4.2-10.2,8.7-14.8,13.6c-19.1,19.6-33.9,44.4-44.3,74.1c-2.4,6.9-4.6,14-6.6,21.4
				c-5.4-6-10.6-12.2-15.4-18.7c2.7-8.7,5.8-17.1,9.2-25.1c1.4-3.2,2.8-6.4,4.3-9.5c1.5-3.1,3-6.1,4.6-9.1
				c4.4-8.3,9.2-16.1,14.4-23.5c7.2-10.2,15.2-19.5,24-28c4-3.8,8.1-7.4,12.3-10.9c0.9-0.8,1.9-1.5,2.9-2.3
				c10.4-8,21.7-15,33.7-20.8c4.7-2.3,9.5-4.4,14.5-6.2c6-2.3,12.1-4.4,18.4-6.2c1.2-0.3,2.3-0.7,3.5-1c4.9-1.3,9.8-2.4,14.9-3.4
				c1.5-0.3,3.1-0.6,4.6-0.8c4.9-0.8,9.8-1.5,14.9-2.1c1.6-0.2,3.1-0.3,4.6-0.5c5.1-0.4,10-0.7,14.5-0.8c9.1-0.2,16.8,0.1,22.6,0.5
				C276.1,260.1,280.5,260.8,280.9,260.9z"/>
		</g>
		<g id="XMLID_169_">
			<path id="XMLID_222_" class="st17" d="M411.2,465.8c-2.1,5.6-4.1,10.1-5.5,13.2c-1.3,2.8-2.1,4.3-2.1,4.3s-1.7,0-4.8-0.2
				c-16.9-0.9-74.2-6.4-95.4-41.4c-24.1-39.7-37-112-10.9-133.8c1-0.9,2.1-1.6,3.3-2.3c1.1-0.7,2.3-1.3,3.6-1.8
				c3.7-1.5,7.7-2.3,12.1-2.3c32.5-0.3,80.3,38.7,101.6,73.7C430.1,403.3,419.7,443.1,411.2,465.8z"/>
			<path id="XMLID_221_" class="st18" d="M413.1,375.2c17,28.1,6.6,67.9-1.9,90.6c-24-2.9-64.2-12-81.2-40.1
				c-21.3-35.1-33.8-95.5-18.5-124.2C344,301.2,391.8,340.1,413.1,375.2z"/>
			<path id="XMLID_197_" class="st19" d="M410.8,433.2c-0.8,0.8-1.8,1.2-2.9,1.2c-1,0-2-0.4-2.8-1.1c-16.2-15.5-29.8-16.6-36.6-15.8
				l27.9,45.9l9.5,15.6c-1.3,2.8-2.1,4.3-2.1,4.3s-1.7,0-4.8-0.2l-13.5-22.2l-14.6-24.1c-1.3,5.2-2.7,12-2.9,18.3
				c-0.1,3.2,0,6.3,0.6,8.9c0.5,2.2-0.9,4.3-3,4.8c-0.3,0.1-0.6,0.1-0.9,0.1c-1.8,0-3.5-1.3-3.9-3.1c-0.9-4.2-1-9.2-0.6-14.2
				c0.9-10.1,3.7-20.2,5-24.2l-48.8-80.4c-2.5,7.5-5.7,19.9-5,33.5c0.4,7.9,2.1,16.1,6.1,24c1,2,0.2,4.4-1.8,5.4
				c-0.6,0.3-1.2,0.4-1.8,0.4c-1.5,0-2.9-0.8-3.6-2.2c-9.7-19.5-7.7-40.2-4.2-54.4c1.7-7.1,3.9-12.6,5-15.4l-6-10l-12.4-20.3
				l-0.2-0.3l3.4-2.1l3.4-2.1l0.2,0.3l7.2,11.8l12.3,20.4v0l16.2,26.6c8.7-1.4,35-3.2,64.7,17c1.8,1.2,2.3,3.7,1,5.6
				c-0.8,1.1-2,1.8-3.3,1.8c-0.8,0-1.6-0.2-2.2-0.7c-24.1-16.4-45.8-17-55.6-16.1l24.3,40.1c7.3-1.7,25.5-2.9,46.6,17.4
				C412.2,429.1,412.3,431.6,410.8,433.2z"/>
		</g>
		<g id="XMLID_108_">
			<path id="XMLID_138_" class="st17" d="M411.8,31.6c-1.5-5.8-3.1-10.5-4.1-13.7c-1-2.9-1.6-4.5-1.6-4.5s-1.7-0.2-4.8-0.3
				c-16.9-0.8-74.4-0.9-99,31.9c-27.9,37.2-47.6,107.9-23.8,132.1c0.9,1,1.9,1.8,3,2.6c1.1,0.8,2.2,1.5,3.4,2.2
				c3.5,1.9,7.5,3,11.8,3.4c32.3,3.4,83.7-30.7,108.3-63.5C424.5,95.6,418,54.9,411.8,31.6z"/>
			<path id="XMLID_110_" class="st18" d="M404.8,121.9c19.7-26.3,13.1-67,6.9-90.3c-24.2,0.6-65,5.8-84.7,32.1
				c-24.6,32.8-42.9,91.8-30.5,121.8C328.9,188.9,380.3,154.7,404.8,121.9z"/>
			<path id="XMLID_109_" class="st19" d="M408.1,64c-0.7-0.9-1.7-1.4-2.8-1.5c-1-0.1-2,0.2-2.9,0.8c-17.6,13.9-31.3,13.6-38,12.2
				l32.2-43l10.9-14.6c-1-2.9-1.6-4.5-1.6-4.5s-1.7-0.2-4.8-0.3L385.6,34l-16.9,22.6c-0.8-5.3-1.5-12.2-1.1-18.5
				c0.2-3.2,0.6-6.3,1.5-8.8c0.7-2.1-0.5-4.4-2.6-5.1c-0.3-0.1-0.6-0.1-0.9-0.2c-1.8-0.2-3.6,0.9-4.2,2.7c-1.4,4.1-1.9,9.1-1.9,14.1
				c-0.1,10.1,1.8,20.5,2.6,24.6l-56.4,75.3c-1.8-7.7-3.8-20.4-1.7-33.8c1.2-7.8,3.7-15.8,8.4-23.3c1.2-1.9,0.6-4.3-1.3-5.5
				c-0.5-0.3-1.1-0.5-1.7-0.6c-1.5-0.1-3,0.5-3.8,1.9c-11.5,18.5-11.6,39.3-9.5,53.7c1,7.3,2.6,12.9,3.5,15.8l-7,9.3l-14.3,19
				l-0.2,0.3l3.2,2.4l3.2,2.4l0.2-0.2l8.3-11.1l14.3-19.1l0,0l18.7-24.9c8.5,2.2,34.5,6.6,66-10.7c1.9-1.1,2.7-3.5,1.6-5.4
				c-0.7-1.2-1.9-1.9-3.1-2.1c-0.8-0.1-1.6,0.1-2.3,0.5c-25.6,14-47.2,12.5-56.9,10.7l28.1-37.5c7.1,2.4,25,5.4,48.1-12.8
				C409.2,68.2,409.5,65.7,408.1,64z"/>
		</g>
		<g id="XMLID_104_">
			<path id="XMLID_107_" class="st17" d="M78.7,46c-5.9,0.8-10.8,1.7-14.1,2.3c-3,0.6-4.7,1-4.7,1S59.6,51,59,54
				c-3,16.7-10.5,73.7,18.8,102.3c33.3,32.5,100.8,61.3,127.9,40.9c1.1-0.8,2.1-1.7,3-2.6c0.9-1,1.8-2,2.6-3.1c2.3-3.2,3.9-7,5-11.2
				c7.6-31.6-19.5-87-48.9-115.6C143.8,41.7,102.7,42.9,78.7,46z"/>
			<path id="XMLID_106_" class="st18" d="M167.3,64.6C143.8,41.7,102.7,42.9,78.7,46c-2.6,24-2.8,65.2,20.8,88.2
				c29.4,28.7,85.4,54.5,116.8,46.1C223.8,148.6,196.7,93.2,167.3,64.6z"/>
			<path id="XMLID_105_" class="st19" d="M110.3,53.8c-1,0.6-1.6,1.5-1.9,2.5c-0.2,1-0.1,2,0.5,2.9c11.5,19.3,9.4,32.8,7.1,39.3
				L77.6,61l-13-12.7c-3,0.6-4.7,1-4.7,1S59.6,51,59,54l18.6,18.2l20.2,19.7c-5.4,0.1-12.3-0.1-18.5-1.3c-3.2-0.6-6.1-1.4-8.6-2.6
				c-2-1-4.4-0.1-5.3,1.9c-0.1,0.3-0.2,0.6-0.3,0.8c-0.4,1.8,0.4,3.7,2.2,4.5C71.2,97.1,76,98.3,81,99c10,1.4,20.5,0.9,24.7,0.6
				l67.3,65.7c-7.9,0.8-20.7,1.1-33.8-2.7c-7.6-2.2-15.2-5.7-22-11.3c-1.7-1.4-4.2-1.2-5.6,0.5c-0.4,0.5-0.7,1.1-0.8,1.6
				c-0.3,1.4,0.1,3,1.4,4c16.8,13.8,37.5,16.6,52,16.4c7.3-0.1,13.2-0.9,16.1-1.4l8.3,8.1l17,16.6l0.2,0.2l2.8-2.9l2.8-2.9l-0.2-0.2
				l-9.9-9.7l-17-16.6l0,0l-22.3-21.8c3.3-8.1,11-33.4-2-66.9c-0.8-2.1-3.1-3.1-5.2-2.3c-1.3,0.5-2.2,1.6-2.5,2.8
				c-0.2,0.8-0.1,1.6,0.2,2.3c10.6,27.2,6.2,48.4,3.2,57.8l-33.6-32.7c3.3-6.7,8.6-24.1-6.4-49.4C114.7,53.3,112.2,52.6,110.3,53.8z
				"/>
		</g>
		<g id="XMLID_93_">
			<path id="XMLID_103_" class="st17" d="M126.3,448.8c-4.8,0.6-8.8,0.9-11.5,1c-2.5,0.1-3.9,0.1-3.9,0.1s-0.6-1.3-1.7-3.5
				c-5.7-12.5-23.1-55.6-5.9-83.9c19.5-32.1,66.6-68.3,91.9-57.7c1,0.4,2,0.9,2.9,1.5c0.9,0.6,1.8,1.2,2.6,1.9
				c2.5,2.1,4.5,4.7,6.1,7.8c12.3,23.2,2.2,72-15,100.4C178.1,439.1,145.7,446.4,126.3,448.8z"/>
			<path id="XMLID_102_" class="st18" d="M191.9,416.4c-13.8,22.7-46.3,30-65.6,32.4c-6.8-18.3-15.3-50.5-1.5-73.2
				c17.2-28.3,55.9-59.8,82.2-59.6C219.2,339.2,209.1,388,191.9,416.4z"/>
		</g>
		<path id="XMLID_92_" class="st17" d="M192.2,269.6c-9,47.6-69.9,31.1-69.9,31.1c-25-20.1-70.9-24.7-94.8-25.7
			c-1.8-0.1-3.5-0.1-5-0.2c-0.3,0-0.5,0-0.8-0.1c-3.3-0.6-5.1-4.4-3.5-7.3c0.2-0.3,0.4-0.6,0.6-0.9c75.3-86.4,174.4-13.8,174.4-13.8
			C193.5,259.2,193.1,264.7,192.2,269.6z"/>
		<path id="XMLID_91_" class="st20" d="M192.2,269.6c-9,47.6-69.9,31.1-69.9,31.1c-25-20.1-70.9-24.7-94.8-25.7
			C96.9,207.6,181.9,262.6,192.2,269.6z"/>
		<path id="XMLID_90_" class="st19" d="M178.9,256.5c-23.4-12.1-49.7-17.1-77.5-15c-1.9-1.1-18.2-10.4-41.8-5.3
			c-2.2,0.5-3.5,2.6-3.1,4.7c0.5,2.2,2.6,3.5,4.7,3.1c9-1.9,16.7-1.5,22.7-0.3c-6.9,1.2-13.9,2.9-21,4.9
			c-19.9,5.9-35.7,13.7-44.9,18.9c-1.6,2.9,0.1,6.7,3.5,7.3c8.7-4.9,24.4-12.8,43.9-18.5c12.2-3.6,27.1-6.6,43.4-7.1
			c-6.3,6.3-13.5,16.4-11.9,28.9c0.3,2,2,3.5,4,3.5c0.2,0,0.4,0,0.5,0c2.2-0.3,3.7-2.3,3.4-4.5c-1.9-14.2,13-25.4,16.2-27.6
			c17.3,0.9,35.8,5,54,14.4L178.9,256.5z"/>
		<g id="XMLID_86_">
			<path id="XMLID_89_" class="st17" d="M236.7,329.8c-47.1,11.4-27.6,71.4-27.6,71.4c21.4,24,28.2,69.6,30.4,93.5
				c0.2,1.8,0.3,3.5,0.4,5c0,0.3,0.1,0.5,0.1,0.8c0.8,3.3,4.6,4.8,7.4,3.1c0.3-0.2,0.6-0.4,0.9-0.7c82.6-79.5,5.2-174.9,5.2-174.9
				C247.1,328,241.5,328.7,236.7,329.8z"/>
			<path id="XMLID_88_" class="st20" d="M236.7,329.8c-47.1,11.4-27.6,71.4-27.6,71.4c21.4,24,28.2,69.6,30.4,93.5
				C303.3,422,244.2,339.7,236.7,329.8z"/>
			<path id="XMLID_87_" class="st19" d="M250.4,342.4c13.2,22.8,19.5,48.8,18.8,76.7c1.2,1.8,11.3,17.6,7.4,41.5
				c-0.4,2.2-2.4,3.7-4.6,3.3c-2.2-0.4-3.7-2.4-3.3-4.6c1.5-9,0.6-16.8-0.8-22.7c-0.9,7-2.2,14-3.9,21.2
				c-4.9,20.2-12,36.4-16.6,45.7c-2.8,1.8-6.7,0.2-7.4-3.1c4.5-9,11.6-25,16.4-44.8c3-12.4,5.3-27.4,5-43.7
				c-6,6.6-15.7,14.3-28.2,13.3c-2-0.2-3.6-1.8-3.7-3.8c0-0.2,0-0.4,0-0.5c0.2-2.2,2.1-3.8,4.3-3.6c14.3,1.2,24.7-14.2,26.8-17.6
				c-1.8-17.3-6.7-35.5-17-53.2L250.4,342.4z"/>
		</g>
		<g id="XMLID_27_">
			<path id="XMLID_85_" class="st17" d="M341.8,281c30.5,37.7,76.3-5.7,76.3-5.7c12.5-29.6,50.8-55.4,71.3-67.6
				c1.6-0.9,3-1.8,4.3-2.5c0.2-0.1,0.5-0.3,0.7-0.5c2.6-2.1,2.4-6.2-0.4-8c-0.3-0.2-0.6-0.4-1-0.5
				c-107.3-40.4-160.1,70.5-160.1,70.5C335.6,272.4,338.6,277.1,341.8,281z"/>
			<path id="XMLID_71_" class="st20" d="M341.8,281c30.5,37.7,76.3-5.7,76.3-5.7c12.5-29.6,50.8-55.4,71.3-67.6
				C396.3,181.2,347.4,269.9,341.8,281z"/>
			<path id="XMLID_29_" class="st19" d="M347.2,263.1c14.9-21.7,35.7-38.6,61.2-50c1.1-1.9,11.1-17.8,34.3-24.5
				c2.1-0.6,4.3,0.6,5,2.7c0.6,2.1-0.6,4.3-2.7,5c-8.8,2.6-15.4,6.6-20.2,10.5c6.7-2.2,13.6-4.1,20.8-5.6c20.3-4.3,38-4.8,48.5-4.6
				c2.8,1.8,3.1,5.9,0.4,8c-10-0.2-27.5,0.3-47.5,4.5c-12.5,2.6-27,7-41.6,14.3c8.6,2.5,19.7,8,24.1,19.8c0.7,1.9-0.1,4-1.8,4.9
				c-0.2,0.1-0.3,0.2-0.5,0.2c-2.1,0.8-4.4-0.3-5.1-2.3c-5-13.4-23.4-16.2-27.4-16.7c-14.8,9-29.1,21.3-40.7,38.2L347.2,263.1z"/>
		</g>
		<g id="XMLID_9_">
			<g id="XMLID_10_">
				<path id="XMLID_20_" class="st21" d="M316.4,361.8c0,26.1-17.3,36.3-41.1,39.1c-5.3,0.6-11,0.9-16.9,0.9
					c-32,0-57.9-8.1-57.9-40.1c0-10.1,2.6-23.2,7.1-36.5c9.8-29,28.9-58.8,50.9-58.8c5.9,0,11.5,2.1,16.9,5.8
					c14.6,10.1,26.8,31.7,34,52.9C313.9,338.6,316.4,351.8,316.4,361.8z"/>
				<path id="XMLID_19_" class="st22" d="M316.4,361.8c0,26.1-17.3,36.3-41.1,39.1c-23.8-2.8-41.1-13-41.1-39.1
					c0-10.1,2.6-23.2,7.1-36.5c7.2-21.2,19.4-42.9,34-52.9c14.6,10.1,26.8,31.7,34,52.9C313.9,338.6,316.4,351.8,316.4,361.8z"/>
				<path id="XMLID_18_" class="st21" d="M235.4,285.8c-4.5,27.8-28.7,62.3-47.6,76c-25.9,18.8-47.7,2.5-66.4-23.4
					c-3-4.1-5.8-8.3-8.1-12.4c-12.5-21.6-15.2-42.3,6.6-58c25.9-18.8,92.4-34.9,111.1-9C236,266,237.1,275.4,235.4,285.8z"/>
				<path id="XMLID_17_" class="st22" d="M235.4,285.8c-4.5,27.8-28.7,62.3-47.6,76c-25.9,18.8-47.7,2.5-66.4-23.4
					c-3-4.1-5.8-8.3-8.1-12.4c0.7-9.5,5.5-18.4,16.1-26.1C153.3,282.6,211.8,267.5,235.4,285.8z"/>
				<path id="XMLID_16_" class="st21" d="M406.8,325.9c-2.4,4.1-5.2,8.3-8.2,12.4c-18.8,25.9-40.5,42.2-66.4,23.4
					c-10.1-7.4-21.8-20.7-31.2-35.9c-14.5-23.5-23.4-51.2-12-67c2.5-3.5,6-6.3,10.1-8.3c18.5-9.4,50.6-4.9,75.6,4.4
					c10.1,3.7,19.1,8.2,25.5,12.9C422,283.7,419.3,304.4,406.8,325.9z"/>
				<path id="XMLID_31_" class="st22" d="M406.8,325.9c-17.2,20.5-36.8,31.3-59.7,14.7c-10.1-7.4-21.8-20.7-31.2-35.9
					c-11.1-18-18.9-38.4-16.8-54.1c18.5-9.4,50.6-4.9,75.6,4.4c10.1,3.7,19.1,8.2,25.5,12.9C422,283.7,419.3,304.4,406.8,325.9z"/>
				<path id="XMLID_15_" class="st21" d="M316.4,129c0,26.1-17.3,73.1-41.1,89.5c-5.3,3.7-11,5.8-16.9,5.8
					c-32,0-57.9-63.3-57.9-95.3c0-32,25.9-40.1,57.9-40.1c5.9,0,11.5,0.3,16.9,0.9C299.1,92.7,316.4,102.9,316.4,129z"/>
				<path id="XMLID_14_" class="st22" d="M316.4,129c0,26.1-17.3,73.1-41.1,89.5c-23.8-16.4-41.1-63.3-41.1-89.5
					c0-26.1,17.3-36.3,41.1-39.1C299.1,92.7,316.4,102.9,316.4,129z"/>
				<path id="XMLID_13_" class="st21" d="M402.7,216.7c-18.8,18.8-65.5,40.2-93.7,33.9c-5.8-1.3-10.8-3.7-14.6-7.5
					c-22.6-22.6,3.8-85.7,26.4-108.3c22.6-22.6,46.7-10,69.3,12.6c3.8,3.8,7.4,7.7,10.5,11.6C415.9,178.2,421.4,198,402.7,216.7z"/>
				<path id="XMLID_12_" class="st22" d="M402.7,216.7c-18.8,18.8-65.5,40.2-93.7,33.9c-6.2-28.3,15.2-74.9,33.9-93.7
					s38.5-13.3,57.7,2.1C415.9,178.2,421.4,198,402.7,216.7z"/>
				<path id="XMLID_11_" class="st21" d="M232.7,230.5c-1.4,4.9-3.7,9.2-7.1,12.6c-22.6,22.6-85.7-3.8-108.3-26.4
					c-22.6-22.6-10-46.7,12.6-69.3c6.7-6.7,13.6-12.6,20.5-16.9c16.3-10.2,32.9-11.7,48.8,4.2C218.5,154,240.5,202.5,232.7,230.5z"
					/>
				<path id="XMLID_21_" class="st22" d="M232.7,230.5c-28.4,4.5-73-16.2-91.2-34.4c-21.4-21.4-11.3-44,9-65.5
					c16.3-10.2,32.9-11.7,48.8,4.2C218.5,154,240.5,202.5,232.7,230.5z"/>
				<path id="XMLID_22_" class="st23" d="M307.8,245.5c0,21.1-13.2,39.1-31.8,46.2c-5.4,2.1-11.4,3.2-17.5,3.2
					c-27.3,0-49.4-22.1-49.4-49.4c0-27.3,22.1-49.4,49.4-49.4c6.2,0,12.1,1.1,17.5,3.2C294.6,206.4,307.8,224.4,307.8,245.5z"/>
				<ellipse id="XMLID_23_" class="st24" cx="276" cy="245.5" rx="31.8" ry="46.2"/>
				<path id="XMLID_28_" class="st23" d="M249.2,252.5L249.2,252.5c-4.3-3.8-4.8-10.4-1-14.8l81.6-95.9c5-5.8,13.7-6.4,19.4-1.3l0,0
					c5.7,5.1,6.1,13.9,0.9,19.5L264,251.8C260.1,256.1,253.5,256.3,249.2,252.5z"/>
				<path id="XMLID_24_" class="st25" d="M365.1,145.1c0,9.7-6.2,17.9-14.8,20.9c-2.3,0.8-4.8,1.3-7.4,1.3
					c-12.2,0-22.2-9.9-22.2-22.2c0-12.2,9.9-22.2,22.2-22.2c2.6,0,5.1,0.4,7.4,1.3C358.9,127.2,365.1,135.4,365.1,145.1z"/>
				<ellipse id="XMLID_30_" class="st6" cx="350.2" cy="145.1" rx="14.8" ry="20.9"/>
			</g>
			<circle id="XMLID_25_" class="st6" cx="307.7" cy="168.3" r="8.7"/>
			<circle id="XMLID_26_" class="st26" cx="320.7" cy="150.9" r="8.7"/>
			<circle id="XMLID_231_" class="st26" cx="316.4" cy="189.7" r="8.7"/>
			<circle id="XMLID_232_" class="st6" cx="338.1" cy="177" r="8.7"/>
		</g>
	</g>
</g>
</svg>
