<?xml version="1.0" encoding="utf-8"?>
<!-- Generator: Adobe Illustrator 22.0.1, SVG Export Plug-In . SVG Version: 6.00 Build 0)  -->
<svg version="1.1" xmlns="http://www.w3.org/2000/svg" xmlns:xlink="http://www.w3.org/1999/xlink" x="0px" y="0px"
	 viewBox="0 0 512 512" style="enable-background:new 0 0 512 512;" xml:space="preserve">
<style type="text/css">
	.st0{fill:#4B71B4;}
	.st1{fill:#80B4E8;}
	.st2{fill:#594144;}
	.st3{fill:#B8E876;}
	.st4{fill:#E09122;}
	.st5{fill:#FBF355;}
	.st6{fill:#EEC82F;}
	.st7{fill:#CEA628;}
	.st8{fill:#9BC9EF;}
	.st9{fill:#9DD055;}
	.st10{fill:#5686C5;}
	.st11{fill:#3B5880;}
	.st12{fill:#C2E5FB;}
	.st13{fill:#446697;}
	.st14{fill:#D1F1A0;}
	.st15{fill:#ABD170;}
	.st16{fill:#9DBD6A;}
	.st17{fill:#649D53;}
	.st18{fill:#72B35D;}
	.st19{fill:#ABD68D;}
	.st20{fill:#7FB358;}
	.st21{fill:#920C50;}
	.st22{fill:#C60053;}
	.st23{fill:#530730;}
	.st24{fill:#600332;}
	.st25{fill:#D5AC2A;}
	.st26{fill:#EFD776;}
	.st27{fill:#A7C76D;}
	.st28{fill:#A43749;}
	.st29{fill:#DC4355;}
	.st30{fill:#E18696;}
	.st31{fill:#77A255;}
	.st32{fill:#628547;}
	.st33{fill:#6E994D;}
	.st34{fill:none;stroke:#54743C;stroke-width:8;stroke-linecap:round;stroke-miterlimit:10;}
	.st35{fill:#9BCF75;}
	.st36{fill:#CA8F80;}
	.st37{fill:#E6B8AB;}
	.st38{fill:#E2A18B;}
	.st39{fill:#8E3F2B;}
	.st40{fill:#D89988;}
	.st41{fill:#CFCFCF;}
	.st42{fill:#A64B2D;}
	.st43{fill:#FFFFFF;}
	.st44{fill:#CA801F;}
	.st45{fill:#719C50;}
	.st46{fill:#85B7E5;}
	.st47{fill:#4F7BA9;}
	.st48{fill:#674C50;}
	.st49{fill:#BAD7ED;}
	.st50{fill:#63494D;}
	.st51{fill:#503D3F;}
	.st52{fill:#638547;}
	.st53{fill:#56713E;}
	.st54{fill:#BB5135;}
	.st55{fill:#93C4EC;}
	.st56{fill:#CA8121;}
	.st57{fill:#FDFCFC;}
	.st58{fill:#A83A4F;}
	.st59{fill:#BD5E44;}
	.st60{fill:#688C4A;}
	.st61{fill:#7DA55A;}
	.st62{fill:#90BA51;}
	.st63{fill:none;}
	.st64{fill:#ABC287;}
	.st65{fill:#BDD993;}
	.st66{fill:none;stroke:#534046;stroke-width:15;stroke-linecap:round;stroke-linejoin:round;stroke-miterlimit:10;}
	.st67{fill:#413133;}
	.st68{fill:#34292B;}
	.st69{fill:#644B50;}
	.st70{fill:#CDACB7;}
	.st71{fill:#A83A4D;}
	.st72{fill:#413335;}
	.st73{fill:#DC6579;}
	.st74{fill:#4C393C;}
	.st75{fill:#527FAE;}
	.st76{fill:#92C2EA;}
	.st77{fill:#5B8C4A;}
	.st78{fill:#729C51;}
	.st79{fill:#AADB5E;}
	.st80{fill:#D66C53;}
	.st81{fill:#A65340;}
	.st82{fill:#B8594A;}
	.st83{fill:#79A754;}
	.st84{fill:#4E3B3E;}
	.st85{fill:#5E4649;}
	.st86{fill:#604A50;}
	.st87{fill:#685258;}
	.st88{fill:#765E66;}
	.st89{fill:#FCF69A;}
	.st90{fill:#D3CC84;}
	.st91{fill:#E6A572;}
	.st92{fill:#74A151;}
	.st93{fill:#6F994F;}
	.st94{fill:#CC6D7D;}
	.st95{fill:#AD6576;}
	.st96{fill:#95422D;}
	.st97{fill:#BE6850;}
	.st98{fill:#3B2F32;}
	.st99{fill:none;stroke:#46383B;stroke-width:15;stroke-linecap:round;stroke-miterlimit:10;}
	.st100{fill:none;stroke:#3B2F32;stroke-width:15;stroke-linecap:round;stroke-miterlimit:10;}
	.st101{fill:#D6CF77;}
	.st102{fill:#F5EF82;}
	.st103{fill:#4A383B;}
	.st104{fill:#CACACA;}
	.st105{fill:#48373A;}
	.st106{fill:#7AA8D2;}
	.st107{fill:#6E9150;}
	.st108{fill:#587441;}
	.st109{fill:#D76E51;}
	.st110{fill:#CCC475;}
	.st111{fill:#DDD57E;}
	.st112{fill:#F8F19C;}
	.st113{fill:#FBF58A;}
	.st114{fill:#C67F20;}
	.st115{fill:#AB6B1C;}
	.st116{fill:#C98020;}
	.st117{fill:#D99A41;}
	.st118{fill:#DBA35B;}
	.st119{fill:#9B5F1B;}
	.st120{fill:#97CF6D;}
	.st121{fill:#5380B1;}
	.st122{fill:#96D16A;}
	.st123{fill:#92BD50;}
	.st124{fill:#7EB058;}
	.st125{fill:#709A50;}
	.st126{fill:#5A8A4A;}
	.st127{fill:#D9D9D9;}
	.st128{fill:#75A3CD;}
	.st129{fill:#6E974F;}
	.st130{fill:#CA6D7D;}
	.st131{fill:#AB6576;}
	.st132{fill:#93422D;}
	.st133{fill:#A44B2D;}
	.st134{fill:#BC6850;}
	.st135{fill:#DFB52B;}
	.st136{fill:#4C3A3C;}
	.st137{fill:#473538;}
	.st138{fill:#382B2E;}
	.st139{fill:none;stroke:#FFFFFF;stroke-width:8;stroke-linecap:round;stroke-miterlimit:10;}
	.st140{fill:#90C0E8;}
	.st141{fill:none;stroke:#E09122;stroke-width:12;stroke-linecap:round;stroke-miterlimit:10;}
	.st142{fill:#DCAE2B;}
	.st143{fill:#F0D05A;}
	.st144{fill:#729E51;}
	.st145{fill:#E4BA36;}
	.st146{fill:#F8F283;}
	.st147{fill:#E4B6A9;}
	.st148{fill:#D78E30;}
	.st149{fill:#598A49;}
	.st150{fill:#B65339;}
	.st151{fill:#BA751F;}
	.st152{fill:#466A9F;}
	.st153{fill:#8BB34D;}
	.st154{fill:#9BCE54;}
	.st155{fill:#7F9F49;}
	.st156{fill:#D37F6D;}
	.st157{fill:#BB5E44;}
	.st158{fill:#93BB55;}
	.st159{fill:#B3E665;}
	.st160{fill:none;stroke:#4C393C;stroke-width:8;stroke-miterlimit:10;}
	.st161{fill:#97432D;}
	.st162{fill:#DAB12A;}
	.st163{fill:#5E914C;}
	.st164{fill:#5381B3;}
	.st165{fill:#6A8F4C;}
	.st166{fill:#628047;}
	.st167{fill:#E29D37;}
	.st168{fill:#6E555B;}
	.st169{fill:#91CA67;}
	.st170{fill:#476BA1;}
	.st171{fill:#6699D9;}
	.st172{fill:#503C3E;}
	.st173{fill:#413235;}
	.st174{fill:#CC916A;}
	.st175{fill:#BA8363;}
	.st176{fill:#D09571;}
	.st177{fill:#C98F68;}
	.st178{fill:#AA3B4D;}
	.st179{fill:#DA6075;}
	.st180{fill:#92452D;}
	.st181{fill:#A24B2D;}
	.st182{fill:#B76252;}
	.st183{fill:#87BD60;}
	.st184{fill:#78A7D2;}
	.st185{fill:#F9F38F;}
	.st186{fill:#E0D650;}
	.st187{fill:#AFE086;}
	.st188{fill:#9FD476;}
	.st189{fill:#9DD176;}
	.st190{fill:#8FC468;}
	.st191{fill:#7EAE58;}
	.st192{fill:#6F9850;}
	.st193{fill:#59884A;}
	.st194{fill:#638347;}
	.st195{fill:#B95135;}
	.st196{fill:#E5AB62;}
	.st197{fill:#733228;}
	.st198{fill:#803728;}
	.st199{fill:#6D974D;}
	.st200{fill:#99CD75;}
	.st201{fill:#93412C;}
	.st202{fill:#93C2EA;}
	.st203{fill:#CD926B;}
	.st204{fill:#E6AF8A;}
	.st205{fill:#E5DB4E;}
	.st206{fill:#FBF375;}
	.st207{fill:#779E54;}
	.st208{fill:#D3966D;}
	.st209{fill:#DA4355;}
	.st210{fill:#A83B4D;}
	.st211{fill:none;stroke:#594144;stroke-width:8;stroke-linecap:round;stroke-miterlimit:10;}
	.st212{fill:#E5A855;}
	.st213{fill:#EAC291;}
	.st214{fill:#96C252;}
	.st215{fill:#695055;}
	.st216{fill:#DC9C42;}
	.st217{fill:#8E5C1B;}
	.st218{fill:#F4EB6A;}
	.st219{fill:#CBC049;}
	.st220{fill:none;stroke:#B8E876;stroke-width:15;stroke-linecap:round;stroke-miterlimit:10;}
	.st221{fill:#A36A1C;}
	.st222{fill:#ECC94A;}
	.st223{fill:#91BEDA;}
	.st224{fill:#3D2F32;}
	.st225{fill:#A6394C;}
	.st226{fill:#33292B;}
	.st227{fill:#4F3D42;}
	.st228{fill:#638147;}
	.st229{fill:#CD8321;}
	.st230{fill:#D3CA4A;}
	.st231{fill:#E2A550;}
	.st232{fill:#B75135;}
	.st233{fill:#D4CD77;}
	.st234{fill:#F3EC80;}
	.st235{fill:#46383B;}
	.st236{fill:#82AA61;}
	.st237{fill:#8EBF69;}
	.st238{fill:#3C2E31;}
	.st239{fill:#C49F27;}
	.st240{fill:#D2BF7C;}
	.st241{fill:#F6E18D;}
	.st242{fill:#D6D6D6;}
	.st243{fill:#B5D7F2;}
	.st244{fill:#F1D467;}
	.st245{fill:#739FBD;}
	.st246{fill:#D0946C;}
	.st247{fill:#BE8767;}
	.st248{fill:#D0A829;}
	.st249{fill:#F6DF86;}
	.st250{fill:#EABA8D;}
	.st251{fill:#F0D1B8;}
	.st252{fill:#A5D0F1;}
	.st253{fill:#E3A13F;}
	.st254{fill:#F0FAFF;}
	.st255{fill:#B4D3E3;}
	.st256{fill:#80A5C3;}
	.st257{fill:#87AFD5;}
	.st258{fill:#B1D1E7;}
	.st259{fill:#AED66F;}
	.st260{fill:#91AA61;}
	.st261{fill:#A8384B;}
	.st262{fill:#CD8120;}
	.st263{fill:#E6AD56;}
	.st264{fill:none;stroke:#E6AD56;stroke-width:8;stroke-linecap:round;stroke-miterlimit:10;}
	.st265{fill:#9EBD68;}
	.st266{fill:#AAD16E;}
	.st267{fill:#86656B;}
	.st268{fill:#6D954D;}
	.st269{fill:#98CB75;}
	.st270{fill:#75A251;}
	.st271{fill:#91BD4F;}
	.st272{fill:none;stroke:#B8E078;stroke-width:8;stroke-linecap:round;stroke-miterlimit:10;}
	.st273{fill:none;stroke:#B8E078;stroke-width:8;stroke-linecap:round;stroke-linejoin:round;stroke-miterlimit:10;}
	.st274{fill:#8FBA4E;}
	.st275{fill:#B3E860;}
	.st276{fill:#E7A748;}
	.st277{fill:none;stroke:#B6E676;stroke-width:15;stroke-linecap:round;stroke-miterlimit:10;}
	.st278{fill:#639B53;}
	.st279{fill:#476B9F;}
	.st280{fill:#82B1DE;}
	.st281{fill:#A6533F;}
	.st282{fill:#C28A69;}
	.st283{fill:#64494E;}
	.st284{fill:#77565C;}
	.st285{fill:#4F3C40;}
	.st286{fill:#ECCCB1;}
	.st287{fill:#BF6F5C;}
	.st288{fill:none;stroke:#D4F1A7;stroke-width:10;stroke-linecap:round;stroke-miterlimit:10;}
	.st289{fill:none;stroke:#B8E876;stroke-width:10;stroke-linecap:round;stroke-miterlimit:10;}
	.st290{fill:#47688F;}
	.st291{fill:#3F5B78;}
	.st292{fill:#354E6C;}
	.st293{fill:#DAB12B;}
	.st294{fill:#C8A028;}
	.st295{fill:#F0D15C;}
	.st296{fill:#F8F28B;}
	.st297{fill:#F7F18D;}
	.st298{fill:#DED450;}
	.st299{fill:#F9F155;}
	.st300{fill:#A2CFF4;}
	.st301{fill:none;stroke:#594144;stroke-width:10;stroke-linecap:round;stroke-miterlimit:10;}
	.st302{fill:#F5F0AB;}
	.st303{fill:#496DA1;}
	.st304{fill:#5A85C7;}
	.st305{fill:#D7D7D7;}
	.st306{fill:#ADD3E6;}
	.st307{fill:#98B8C3;}
	.st308{fill:#CDCECF;}
	.st309{fill:#BF4F69;}
	.st310{fill:#A83448;}
	.st311{fill:#A4DAF7;}
	.st312{fill:#81A861;}
	.st313{fill:#82A549;}
	.st314{fill:#B6E676;}
	.st315{fill:#8CBD69;}
	.st316{fill:#ECC62F;}
	.st317{fill:#F4EA80;}
	.st318{fill:#D6AD2B;}
	.st319{fill:#6F9151;}
	.st320{fill:#46699C;}
	.st321{fill:#4A373A;}
	.st322{fill:#89B04C;}
	.st323{fill:#99CC53;}
	.st324{fill:#B1E465;}
	.st325{fill:#E19E3B;}
	.st326{fill:#C05970;}
	.st327{fill:#D95F74;}
	.st328{fill:#74A8DE;}
	.st329{fill:#C47C1E;}
	.st330{fill:#719A51;}
	.st331{fill:#A8D95E;}
	.st332{fill:#D46C53;}
	.st333{fill:#A45340;}
	.st334{fill:#B6594A;}
	.st335{fill:#79A554;}
	.st336{fill:#B6DAF7;}
	.st337{fill:#739F51;}
	.st338{fill:#DDB32B;}
	.st339{fill:#DE8F22;}
	.st340{fill:none;stroke:#46383B;stroke-width:8;stroke-linecap:round;stroke-miterlimit:10;}
	.st341{fill:none;stroke:#3B2F32;stroke-width:8;stroke-linecap:round;stroke-miterlimit:10;}
	.st342{fill:#C8C8C8;}
	.st343{fill:#7F9D49;}
	.st344{fill:#BA5E44;}
	.st345{fill:#92B955;}
	.st346{fill:#D17F6D;}
	.st347{fill:#5D8F4C;}
	.st348{fill:#B75334;}
	.st349{fill:#CA6D57;}
	.st350{fill:#A4574D;}
	.st351{fill:#7FB1E6;}
	.st352{fill:#77A3CD;}
	.st353{fill:#90BA4F;}
	.st354{fill:#5C8F4B;}
	.st355{fill:#ACDE5D;}
	.st356{fill:#6FAC5A;}
	.st357{fill:none;stroke:#9DD055;stroke-width:10;stroke-linecap:round;stroke-miterlimit:10;}
	.st358{fill:#AD5643;}
	.st359{fill:#B96052;}
	.st360{fill:#CB8D84;}
	.st361{fill:#CC6C56;}
	.st362{fill:#DE9A8E;}
	.st363{fill:#D37B6A;}
	.st364{fill:#A87758;}
	.st365{fill:#372A2C;}
	.st366{fill:#B8815C;}
	.st367{fill:#433335;}
	.st368{fill:#2C2325;}
	.st369{fill:#95402B;}
	.st370{fill:#A85441;}
	.st371{fill:#D2C74B;}
	.st372{fill:#B25945;}
	.st373{fill:none;stroke:#594144;stroke-width:15;stroke-linecap:round;stroke-miterlimit:10;}
	.st374{fill:none;stroke:#594144;stroke-width:12;stroke-linecap:round;stroke-miterlimit:10;}
	.st375{fill:#8F473B;}
	.st376{fill:#453538;}
	.st377{fill:#517DAB;}
	.st378{fill:#75A050;}
	.st379{fill:#A5384D;}
	.st380{fill:#CC6075;}
	.st381{fill:#F26B7F;}
	.st382{fill:#C67189;}
	.st383{fill:#B26980;}
	.st384{fill:#D87990;}
	.st385{fill:#F2869B;}
	.st386{fill:#EF8499;}
	.st387{fill:#649CD7;}
	.st388{fill:#639CDB;}
	.st389{fill:#C8ED8D;}
	.st390{fill:#A9DB83;}
	.st391{fill:#9BCF76;}
	.st392{fill:#7EAC58;}
	.st393{fill:#8CC463;}
	.st394{fill:#7FAC5B;}
	.st395{fill:#769C55;}
	.st396{fill:#6A894D;}
	.st397{fill:#769B56;}
	.st398{fill:#9BCC75;}
	.st399{fill:#AF5641;}
	.st400{fill:#F4D576;}
	.st401{fill:#76A055;}
	.st402{fill:#628347;}
	.st403{fill:#4F7B9F;}
	.st404{fill:#466D86;}
	.st405{fill:#4D789C;}
</style>
<g id="BULINE">
	<circle id="XMLID_2532_" class="st5" cx="256" cy="256" r="256"/>
</g>
<g id="Icons">
	<g id="XMLID_5521_">
		<path id="XMLID_5637_" class="st45" d="M385.9,256.7c0,7.4,7.5,15.9,5.3,22.6c-2.2,6.9-13.4,9.4-17.6,15.2
			c-4.2,5.8-3.2,17.2-9,21.4c-5.8,4.2-16.2-0.3-23.1,2c-0.2,0.1-0.4,0.1-0.6,0.2c-6.5,2.5-12.1,11.8-19.3,11.8
			c-7.4,0-13.2-9.8-19.9-12c-6.9-2.2-17.4,2.2-23.1-2c-5.8-4.2-4.8-15.6-9-21.4c-4.2-5.8-15.3-8.2-17.6-15.2
			c-2.2-6.7,5.3-15.2,5.3-22.6c0-7.4-7.5-15.9-5.3-22.6c2.2-6.9,13.4-9.4,17.6-15.2c4.2-5.8,3.2-17.2,9-21.4
			c5.8-4.2,16.2,0.3,23.1-2c6.7-2.2,12.5-12,19.9-12c7.2,0,12.9,9.3,19.3,11.8c0.2,0.1,0.4,0.1,0.6,0.2c6.9,2.2,17.4-2.2,23.1,2
			c5.8,4.2,4.8,15.6,9,21.4c4.2,5.8,15.3,8.2,17.6,15.2C393.4,240.8,385.9,249.3,385.9,256.7z"/>
		<g id="XMLID_5628_">
			<path id="XMLID_5636_" class="st125" d="M492.5,247.8c-2.7,7,1.3,17.8-3.2,23.4c-4.7,5.8-16.1,4-22.2,8c-6.1,4-9.3,15.1-16.3,17
				c-7,1.9-15.3-6.2-22.7-6.6c-0.2,0-0.4,0-0.6,0c-7,0-15.8,6.8-22.6,4.2c-7-2.7-8.9-14.1-14.5-18.6c-5.8-4.7-17.3-4.2-21.2-10.3
				c-4-6.1,1.2-16.5-0.7-23.6c-1.9-7-11.6-13.4-11.2-20.8c0.4-7.1,10.6-12.5,13.3-19.5c2.7-7-1.3-17.8,3.2-23.4
				c4.7-5.8,16.1-4,22.2-8c6.1-4,9.3-15.1,16.3-17c7-1.9,15.3,6.2,22.7,6.6c7.1,0.4,16.2-6.9,23.2-4.2c6.8,2.6,8.8,13.5,14,18.2
				c0.1,0.1,0.3,0.3,0.4,0.4c5.8,4.7,17.3,4.2,21.2,10.3c4,6.1-1.2,16.5,0.7,23.6c1.9,7,11.6,13.4,11.2,20.8
				C505.4,235.4,495.2,240.8,492.5,247.8z"/>
			<path id="XMLID_5635_" class="st124" d="M492.5,247.8c-2.7,7,1.3,17.8-3.2,23.4c-4.7,5.8-16.1,4-22.2,8c-6.1,4-9.3,15.1-16.3,17
				c-7,1.9-15.3-6.2-22.7-6.6c-0.2,0-0.4,0-0.6,0c-0.1-0.1-0.3-0.3-0.4-0.4c-5.8-4.7-17.3-4.2-21.2-10.3c-4-6.1,1.2-16.5-0.7-23.6
				c-1.9-7-11.6-13.4-11.2-20.8c0.4-7.1,10.6-12.5,13.3-19.5c2.7-7-1.3-17.8,3.2-23.4c4.7-5.8,16.1-4,22.2-8c6.1-4,9.3-15.1,16.3-17
				c7-1.9,15.3,6.2,22.7,6.6c0.2,0,0.4,0,0.6,0c0.1,0.1,0.3,0.3,0.4,0.4c5.8,4.7,17.3,4.2,21.2,10.3c4,6.1-1.2,16.5,0.7,23.6
				c1.9,7,11.6,13.4,11.2,20.8C505.4,235.4,495.2,240.8,492.5,247.8z"/>
			<path id="XMLID_5634_" class="st314" d="M494.2,192.1c-6.7,4.4-14.3,4.7-16.9,0.7c-2.6-4,0.7-10.9,7.4-15.3
				c6.7-4.4,16.9-0.7,16.9-0.7S500.9,187.7,494.2,192.1z"/>
			<path id="XMLID_5633_" class="st125" d="M454.7,234.6c-7.2-3.5-11.3-9.9-9.2-14.2c2.1-4.3,9.7-5,16.9-1.4
				c7.2,3.5,9.2,14.2,9.2,14.2S461.9,238.2,454.7,234.6z"/>
			<path id="XMLID_5632_" class="st194" d="M441.8,174.5c4.8,6.4,5.6,14,1.8,16.9c-3.8,2.9-10.9,0.1-15.7-6.4
				c-4.8-6.4-1.8-16.9-1.8-16.9S436.9,168.1,441.8,174.5z"/>
			<path id="XMLID_5631_" class="st194" d="M408.6,212.6c8,1,13.9,5.7,13.3,10.5s-7.6,7.8-15.5,6.8c-8-1-13.3-10.5-13.3-10.5
				S400.6,211.6,408.6,212.6z"/>
			<path id="XMLID_5630_" class="st194" d="M400,161.2c4,7,3.9,14.6-0.3,17s-10.8-1.3-14.8-8.3c-4-7,0.3-17,0.3-17
				S396,154.2,400,161.2z"/>
			<path id="XMLID_5629_" class="st194" d="M365.4,191.6c8,0.9,14,5.4,13.5,10.2c-0.5,4.8-7.4,8-15.4,7.1
				c-8-0.9-13.5-10.2-13.5-10.2S357.5,190.8,365.4,191.6z"/>
		</g>
		<g id="XMLID_5619_">
			<path id="XMLID_5627_" class="st125" d="M169.9,209.1c1.8,7.3,11.2,13.9,10.6,21.1c-0.6,7.4-11,12.5-13.8,19.2
				c-2.8,6.8,1,17.7-3.8,23.3c-4.7,5.5-16.1,3.6-22.4,7.4c-0.2,0.1-0.3,0.2-0.5,0.3c-5.8,4-9.1,14.6-16.3,16.3
				c-7.3,1.8-15.4-6.6-22.5-7.1c-7.4-0.6-16.6,6.4-23.3,3.6c-6.8-2.8-8.4-14.3-14-19c-5.5-4.7-17.1-4.5-21-10.8
				c-3.7-6.1,1.6-16.3-0.1-23.6c-1.8-7.3-11.2-13.9-10.6-21.1c0.6-7.4,11-12.5,13.8-19.2c2.8-6.8-1-17.7,3.8-23.3
				c4.7-5.5,16.1-3.6,22.4-7.4c6.1-3.7,9.4-14.8,16.8-16.6c7.1-1.7,14.9,6.1,21.9,7.1c0.2,0,0.4,0.1,0.6,0.1
				c7.4,0.6,16.6-6.4,23.3-3.6c6.8,2.8,8.4,14.3,14,19c5.5,4.7,17.1,4.5,21,10.8C173.5,191.6,168.1,201.8,169.9,209.1z"/>
			<path id="XMLID_5626_" class="st124" d="M169.9,209.1c1.8,7.3,11.2,13.9,10.6,21.1c-0.6,7.4-11,12.5-13.8,19.2
				c-2.8,6.8,1,17.7-3.8,23.3c-4.7,5.5-16.1,3.6-22.4,7.4c-0.2,0.1-0.3,0.2-0.5,0.3c-0.2,0-0.4-0.1-0.6-0.1
				c-7.4-0.6-16.6,6.4-23.3,3.6c-6.8-2.8-8.4-14.3-14-19c-5.5-4.7-17.1-4.5-21-10.8c-3.7-6.1,1.6-16.3-0.1-23.6
				c-1.8-7.3-11.2-13.9-10.6-21.1c0.6-7.4,11-12.5,13.8-19.2c2.8-6.8-1-17.7,3.8-23.3c4.7-5.5,16.1-3.6,22.4-7.4
				c0.2-0.1,0.3-0.2,0.5-0.3c0.2,0,0.4,0.1,0.6,0.1c7.4,0.6,16.6-6.4,23.3-3.6c6.8,2.8,8.4,14.3,14,19c5.5,4.7,17.1,4.5,21,10.8
				C173.5,191.6,168.1,201.8,169.9,209.1z"/>
			<path id="XMLID_5625_" class="st314" d="M139.7,162.3c-3,7.4-9.1,12-13.6,10.2s-5.6-9.3-2.6-16.8c3-7.4,13.6-10.2,13.6-10.2
				S142.7,154.8,139.7,162.3z"/>
			<path id="XMLID_5624_" class="st125" d="M131.3,219.7c-7.9,1.2-15-1.7-15.7-6.5c-0.7-4.8,5.2-9.6,13.1-10.8
				c7.9-1.2,15.7,6.5,15.7,6.5S139.2,218.6,131.3,219.7z"/>
			<path id="XMLID_5623_" class="st194" d="M86.6,177.5c7.6,2.5,12.6,8.3,11,12.9s-8.9,6.2-16.6,3.7s-11-12.9-11-12.9
				S78.9,175,86.6,177.5z"/>
			<path id="XMLID_5622_" class="st194" d="M80.8,227.7c7.1-3.7,14.7-3.2,16.9,1.1s-1.8,10.7-8.9,14.4c-7.1,3.7-16.9-1.1-16.9-1.1
				S73.7,231.4,80.8,227.7z"/>
			<path id="XMLID_5621_" class="st194" d="M44.6,190.2c7.2,3.5,11.4,9.8,9.4,14.1c-2.1,4.3-9.6,5.1-16.9,1.6
				c-7.2-3.5-9.4-14.1-9.4-14.1S37.3,186.7,44.6,190.2z"/>
			<path id="XMLID_5620_" class="st194" d="M33.4,234.9c7.1-3.8,14.7-3.5,16.9,0.8c2.3,4.2-1.6,10.8-8.6,14.6s-16.9-0.8-16.9-0.8
				S26.3,238.7,33.4,234.9z"/>
		</g>
		<path id="XMLID_5618_" class="st45" d="M285.2,251.9c0,8.5,8.6,18.2,6.1,25.8c-2.6,7.9-15.3,10.7-20.1,17.3
			c-4.9,6.6-3.6,19.6-10.3,24.5c-6.6,4.8-18.5-0.3-26.4,2.2c-0.2,0.1-0.4,0.1-0.6,0.2c-7.4,2.9-13.8,13.5-22.1,13.5
			c-8.5,0-15.1-11.2-22.7-13.7c-7.9-2.6-19.8,2.6-26.4-2.2c-6.7-4.8-5.4-17.8-10.3-24.5c-4.8-6.6-17.5-9.4-20.1-17.3
			c-2.5-7.6,6.1-17.4,6.1-25.8c0-8.5-8.6-18.2-6.1-25.8c2.6-7.9,15.3-10.7,20.1-17.3c4.9-6.6,3.6-19.6,10.3-24.5
			c6.6-4.8,18.5,0.3,26.4-2.2c7.6-2.5,14.2-13.7,22.7-13.7c8.2,0,14.7,10.6,22.1,13.5c0.2,0.1,0.4,0.2,0.6,0.2
			c7.9,2.6,19.8-2.6,26.4,2.2c6.7,4.8,5.4,17.8,10.3,24.5c4.8,6.6,17.5,9.4,20.1,17.3C293.8,233.8,285.2,243.5,285.2,251.9z"/>
		<path id="XMLID_6003_" class="st278" d="M512,256c0,2.9-0.1,5.9-0.1,8.8c-0.2,6.4-0.7,12.7-1.3,19c-0.7,6.2-1.6,12.4-2.7,18.5
			c-8.4,46.1-29.1,87.8-58.6,121.7c-7.6,8.7-15.7,16.9-24.4,24.5C379.7,488,320.7,512,256,512C114.6,512,0,397.4,0,256
			c0-5.3,0.2-10.6,0.5-15.9h511c0.2,2.7,0.3,5.3,0.4,8C512,250.8,512,253.4,512,256z"/>
		<g id="XMLID_5592_">
			<path id="XMLID_5674_" class="st322" d="M442.1,121.7c-0.8,0.6-1.5,1.2-2.2,1.8c-1.4,1.2-2.8,2.4-4.2,3.6
				c-2.7,2.3-5.5,4.5-8.3,6.1c0,0,0,0,0,0c-2.7,1.5-5.4,2.5-8.3,2.5c-2.3,0-4.5-0.7-6.7-1.7c-9.5-4.5-18.2-16.7-27.6-18.2
				c-3.9-0.6-8.1,0.3-12.5,1.8c-0.4,0.1-0.7,0.3-1.1,0.4c-8.9,3.2-18.1,8.1-25.3,5.6c-11.4-3.9-15.6-24.4-26-30
				c-4.8-2.6-11.5-2.5-18.2-2.2h0c-1.8,0.1-3.6,0.1-5.4,0.2c-0.5,0-0.9,0-1.4,0c-5.5,0-10.7-0.6-14.3-3.5c-1-0.8-1.9-1.7-2.6-2.8
				c-0.1-0.1-0.2-0.2-0.3-0.4c-1.1-1.6-1.9-3.3-2.5-5.3c-1.3-3.8-2.1-8.2-3-12.5c-1.2-6.2-2.6-12.2-6.1-16c-0.9-1.1-2.1-2-3.4-2.8h0
				c-3.3-2.1-7.5-3.6-11.7-5c0,0,0,0,0,0c-3.1-1-6.2-1.9-9-3c-0.2-0.1-0.4-0.2-0.7-0.3c-0.1,0-0.2-0.1-0.3-0.1
				c-2.4-1-4.7-2.2-6.6-3.6c-1.4-1.1-2.5-2.3-3.4-3.7c-0.2-0.3-0.4-0.6-0.5-1c-0.1-0.2-0.2-0.4-0.2-0.5c-0.1-0.3-0.3-0.6-0.4-0.9
				c-0.5-1.5-0.8-3.2-0.9-4.9c0-0.5-0.1-1-0.1-1.5c0-1.9,0.2-3.9,0.4-6c0.7-5.5,2-11.3,2.1-16.5c7.2-0.7,14.5-1.1,21.9-1.2
				c0.9,0,1.9,0,2.9,0c2.3,0,4.6,0,6.9,0.1c14.8,0.4,29.3,2.1,43.4,4.9c4.2,0.8,8.3,1.8,12.4,2.8c3.8,1,7.6,2,11.4,3.2
				c-0.2,1-0.3,2.1-0.5,3.2c-0.1,0.6-0.2,1.2-0.3,1.8c-0.2,1.7-0.4,3.4-0.6,5.1c0,0.5-0.1,1.1-0.1,1.6c-0.1,3.7,0.4,7.2,2.1,10
				c6.3,10.2,27.1,9.6,35.1,18.5c7.6,8.5,5.2,27.9,13.4,36c0.3,0.3,0.7,0.6,1.1,0.9c2.5,2,5.7,2.9,9.3,3.2h0
				c7.1,0.7,15.5-0.6,22.6,0.1c2.7,0.3,5.2,0.9,7.4,2.1c7.6,4.1,11.8,16.1,18,23.8l0,0C439,119,440.4,120.5,442.1,121.7z"/>
			<path id="XMLID_5615_" class="st323" d="M453.3,115.7c-3.8,0.6-7.6,3-11.3,5.9c1.1,0.8,2.3,1.4,3.5,1.9
				c6.7,2.3,15.1-1.7,23.3-4.8C463.5,116.7,458.1,115,453.3,115.7z"/>
			<path id="XMLID_5588_" class="st323" d="M471.5,117.8c-0.9,0.3-1.7,0.6-2.6,1c-0.6-0.2-1.1-0.4-1.7-0.6c-0.6-0.2-1.1-0.4-1.7-0.6
				h0c-0.2-0.1-0.4-0.1-0.5-0.2c-0.4-0.1-0.7-0.2-1.1-0.4h0c0,0-0.1,0-0.2,0c0,0,0,0,0,0c0,0,0,0,0,0c0,0,0,0-0.1,0
				c-0.2-0.1-0.3-0.1-0.5-0.2c-0.2,0-0.3-0.1-0.5-0.1c-0.1,0-0.2-0.1-0.3-0.1c-0.3-0.1-0.6-0.1-0.8-0.2h0c-0.1,0-0.2,0-0.2,0
				c-0.3-0.1-0.6-0.1-0.9-0.2c-0.4-0.1-0.8-0.1-1.1-0.2c-0.2,0-0.3,0-0.5-0.1c0,0,0,0,0,0c0,0-0.1,0-0.1,0c0,0-0.1,0-0.1,0
				c-0.1,0-0.3,0-0.5,0c0,0,0,0-0.1,0c0,0-0.1,0-0.1,0c-0.3,0-0.6-0.1-0.9-0.1c0,0,0,0,0,0h0c-0.1,0-0.2,0-0.3,0c-0.1,0-0.1,0-0.2,0
				c-0.2,0-0.4,0-0.6,0h0c-0.3,0-0.6,0-0.9,0h-0.1c-0.3,0-0.6,0-0.9,0.1c0,0,0,0-0.1,0c-0.2,0-0.4,0-0.6,0.1c-0.5,0.1-1,0.2-1.4,0.3
				c-1,0.3-1.9,0.6-2.9,1.1c-0.2,0.1-0.5,0.2-0.7,0.4c-0.2,0.1-0.5,0.2-0.7,0.4c-0.2,0.1-0.5,0.3-0.7,0.4c-0.5,0.3-0.9,0.6-1.4,0.9
				s-0.9,0.6-1.4,1c-0.2,0.2-0.5,0.3-0.7,0.5c-0.5,0.3-0.9,0.7-1.4,1.1c-1.6-1.2-3.1-2.6-4.4-4.4l0,0c-6.2-7.7-10.4-19.6-18-23.8
				c-2.1-1.2-4.6-1.8-7.4-2.1c-7.1-0.8-15.5,0.5-22.6-0.1h0c-3.6-0.4-6.8-1.3-9.3-3.2c-0.4-0.3-0.7-0.6-1.1-0.9
				c-8.2-8.1-5.8-27.5-13.4-36c-8-8.9-28.8-8.3-35.1-18.5c-1.7-2.8-2.2-6.2-2.1-10c0-0.5,0-1.1,0.1-1.6c0.1-1.7,0.3-3.4,0.6-5.1
				c0.1-0.6,0.2-1.2,0.3-1.8c0.2-1.1,0.3-2.1,0.5-3.2c0-0.1,0-0.2,0.1-0.4v0c0.2,0.2,0.5,0.4,0.7,0.6c0.3,0.1,0.6,0.2,0.9,0.3
				c1.3,0.4,2.7,0.8,4,1.3c0.1,0,0.3,0.1,0.4,0.1c1.5,0.5,2.9,1,4.4,1.5c4.4,1.5,8.7,3.2,12.9,4.9c1.6,0.6,3.1,1.3,4.7,2
				c4,1.7,7.9,3.6,11.8,5.5c3.2,1.6,6.3,3.2,9.4,4.9c11.6,6.4,22.6,13.6,33,21.6c8.1,6.3,15.9,13,23.2,20.2
				c5.8,5.7,11.3,11.6,16.5,17.8c3.2,3.8,6.2,7.6,9.2,11.6C464.8,107.7,468.2,112.7,471.5,117.8z"/>
			<path id="XMLID_5612_" class="st322" d="M301.2,31.6c-0.3,0-0.6,0-0.8-0.1C300.7,31.6,301,31.6,301.2,31.6z"/>
			<path id="XMLID_5611_" class="st322" d="M302.2,31.5c0,0-0.1,0-0.1,0C302.2,31.6,302.2,31.6,302.2,31.5z"/>
			<path id="XMLID_5579_" class="st343" d="M300.3,31.5c-0.9-0.1-1.9-0.4-2.9-0.7c-0.1,0-0.3-0.1-0.4-0.1c-1.6-0.6-3.2-1.3-4.8-2h0
				c-3.1-1.4-6.2-2.6-8.9-2.2c-2.8,0.5-5.5,3.1-8.1,5.7c-1.8,1.7-3.6,3.4-5.4,4.5c-0.3,0.2-0.6,0.4-1,0.5c-0.2,0.1-0.4,0.2-0.6,0.2
				c-0.2,0.1-0.5,0.1-0.7,0.2c-0.4,0.1-0.9,0.2-1.4,0.2c-0.9,0-1.7-0.2-2.6-0.6h0c-0.5-0.2-0.9-0.5-1.4-0.7l0,0
				c-0.7-0.4-1.4-1-2.1-1.6c-0.3-0.2-0.6-0.5-0.8-0.7v0c-1-0.9-2.1-2-3.1-3c-0.5-0.5-1-1-1.5-1.4c-0.5-0.4-0.9-0.8-1.4-1.1
				c-1.4-1.1-2.8-1.9-4.3-2.2c-1.1-0.2-2.3-0.1-3.5,0.2c-1.9,0.4-3.9,1.3-5.9,2.2c-0.3,0.1-0.6,0.3-0.9,0.4
				c-0.9,0.4-1.8,0.8-2.7,1.1c-0.8,0.3-1.7,0.6-2.5,0.8c0,0,0,0,0,0c-1.1,0.3-2.1,0.4-3.1,0.3c-0.5,0-1-0.1-1.5-0.3c0,0-0.1,0-0.1,0
				c-1.4-0.5-2.5-1.6-3.5-2.9c-0.3-0.4-0.6-0.8-0.8-1.2c-0.6-1-1.2-2.1-1.8-3.3c-1-2.1-2-4.2-3.2-6c-0.9-1.3-1.8-2.4-3-3
				c-0.8-0.5-1.8-0.8-2.9-0.9c-0.1,0-0.3-0.1-0.4-0.1c-0.3,0-0.7-0.1-1.1-0.1c-3-0.2-6.6,0.4-9.8,0.4c-2.5,0-4.7-0.4-6.3-1.7
				c-0.2-0.2-0.4-0.4-0.6-0.6c-0.7-0.8-1.2-1.8-1.6-2.9c-0.1-0.4-0.2-0.8-0.3-1.2c1.4-0.4,2.8-0.7,4.2-1c3.2-0.7,6.4-1.4,9.6-2
				c7.8-1.5,15.8-2.7,23.9-3.4c7.2-0.7,14.5-1.1,21.9-1.2c0.9,0,1.9,0,2.9,0c2.3,0,4.6,0,6.9,0.1c0.2,1.3,0.3,2.7,0.4,4.1
				c0.4,3.4,1.1,6.5,3.1,8.2c0.8,0.7,1.8,1.1,2.9,1.4c0.3,0.1,0.7,0.1,1.1,0.2c5.2,0.7,12.4-1.5,16.4,0.9c1.8,1.1,3.2,3.1,4.4,5.5
				c0,0,0,0,0,0c2,3.8,3.6,8.2,6.5,10.3c0.4,0.3,0.9,0.6,1.4,0.8C299.5,31.4,299.9,31.5,300.3,31.5z"/>
			<path id="XMLID_5609_" class="st322" d="M302.1,31.6c-0.3,0-0.6,0.1-0.9,0.1C301.5,31.6,301.8,31.6,302.1,31.6z"/>
			<path id="XMLID_5608_" class="st322" d="M300.4,31.6c0,0-0.1,0-0.1,0C300.3,31.6,300.4,31.6,300.4,31.6z"/>
			<path id="XMLID_5560_" class="st322" d="M335.7,12.6c-0.1,0.1-0.3,0.2-0.4,0.2c0,0,0,0,0,0c-1.1,0.6-2.4,1-3.9,1.1
				c-0.4,0-0.7,0-1.1,0.1c-0.2,0-0.5,0-0.7,0c-4.8,0-10.5-1.2-13.9,0.7c-1.3,0.8-2.3,2-3.3,3.5c-0.1,0.2-0.2,0.4-0.4,0.6
				c-2.7,4.6-4.5,10.9-8.7,12.4c-0.1,0-0.2,0.1-0.3,0.1c-0.2,0.1-0.5,0.1-0.8,0.2c-0.1,0-0.1,0-0.1,0c-0.3,0-0.6,0-0.9,0
				c-0.3,0-0.6,0-0.9,0c0,0-0.1,0-0.1,0c-0.4-0.1-0.7-0.1-1.1-0.3c-0.5-0.2-1-0.4-1.4-0.8c-2.8-2-4.5-6.5-6.5-10.3c0,0,0,0,0,0
				c-1.2-2.3-2.6-4.4-4.4-5.5c-4-2.3-11.2-0.2-16.4-0.9c-0.4-0.1-0.7-0.1-1.1-0.2c-1.1-0.2-2.1-0.7-2.9-1.4
				c-2.1-1.7-2.7-4.8-3.1-8.2c-0.1-1.3-0.3-2.7-0.4-4.1c14.8,0.4,29.3,2.1,43.4,4.9c4.2,0.8,8.3,1.8,12.4,2.8c3.8,1,7.6,2,11.4,3.2
				c0-0.1,0-0.2,0.1-0.4v0c0.2,0.2,0.5,0.4,0.7,0.6c0.3,0.1,0.6,0.2,0.9,0.3C333,11.8,334.3,12.2,335.7,12.6z"/>
			<path id="XMLID_5602_" class="st343" d="M344.9,141.8c-2.7-0.3-6-2.5-8.8-3.1c-0.7-0.2-1.4-0.2-2.1-0.1c-1,0.2-1.9,0.7-2.9,1.5
				c-1.6,1.3-3.1,3-4.7,4.3c-1.1,0.9-2.3,1.5-3.5,1.5c-2.5,0-4.8-2.7-7.1-4.8c-1.3-1.2-2.6-2.2-4-2.5c-3.9-0.7-9.3,4.4-12.9,3
				c-0.5-0.2-0.9-0.5-1.3-0.8c-1.4-1.3-2.4-3.5-3.4-5.6v0c-0.9-1.8-1.8-3.4-3.2-4.2c-3.4-2-10.2,0.9-13.2-1.6
				c-0.1-0.1-0.1-0.1-0.2-0.2c-2.7-2.7-1.2-9.6-3.6-12.5c-2.5-3-9.9-2.6-11.8-6c-1.9-3.4,2.1-9.5,0.8-13.2c-0.2-0.6-0.6-1.1-1.1-1.7
				c-0.5-0.5-1.1-1.1-1.8-1.6c-0.5-0.4-1-0.8-1.6-1.2c-2.2-1.6-4.4-3.2-4.7-5.2c-0.7-3.8,5.2-8.2,5.2-12.2c0-4-5.9-8.4-5.2-12.2
				c0.7-3.9,7.8-6,9.1-9.7c0.6-1.6,0.2-3.6-0.3-5.6c-0.7-2.8-1.5-5.7-0.4-7.6c0.5-0.8,1.2-1.4,2.1-1.8c0.1,0,0.1-0.1,0.2-0.1
				c0.9-0.4,1.9-0.8,3-1.1c0.2-0.1,0.5-0.1,0.7-0.2c2.3-0.7,4.7-1.3,5.9-2.8c0.6-0.7,0.9-1.5,1.1-2.5c0.6-2.6,0.5-6,1.4-8.3
				c0.3-0.8,0.7-1.4,1.3-1.9c3-2.5,9.8,0.4,13.2-1.6c0.1-0.1,0.2-0.1,0.3-0.2c3.1-2.2,4.1-9.1,7.6-10.4c3.2-1.2,7.9,2.7,11.6,3.1
				c0.4,0,0.9,0,1.3,0c2.4-0.4,4.5-3.1,6.8-5.1c3.8,1,7.6,2,11.4,3.2c0-0.1,0-0.2,0.1-0.4v0c0.2,0.2,0.5,0.4,0.7,0.6
				c0.3,0.2,0.6,0.5,0.8,0.7c0.8,0.5,1.6,0.9,2.4,1.1c0.4,0.1,0.8,0.1,1.2,0c0,0,0,0,0,0c0.3,0,0.5-0.1,0.8-0.1
				c1.5,0.5,2.9,1,4.4,1.5c-1.2,2.4-2.3,5.1-4.1,6.2c-1.6,1-4.1,0.8-6.5,0.6c-0.4,0-0.8,0-1.2-0.1c-2.2-0.1-4.2,0-5.5,1
				c-0.6,0.5-1,1.1-1.2,1.9c-1.3,3.2-0.5,8.4-2.6,10.8c-2.5,3-9.9,2.6-11.9,5.9c-1.9,3.4,2.1,9.6,0.8,13.2c-1.3,3.6-8.4,5.8-9.1,9.7
				c-0.7,3.8,5.2,8.2,5.2,12.2c0,4-5.9,8.4-5.2,12.2c0.2,1.3,1.2,2.4,2.4,3.4h0c2.4,2,5.8,3.8,6.7,6.2c1.3,3.7-2.7,9.9-0.8,13.2
				c2,3.4,9.4,3,11.9,6c2.5,3,0.8,10.2,3.8,12.7c3,2.5,9.8-0.4,13.2,1.6c3.3,1.9,4.2,9.3,7.9,10.6
				C344.5,141.7,344.7,141.8,344.9,141.8z"/>
			<path id="XMLID_4558_" class="st322" d="M386.7,75.7c0,4,5.9,8.4,5.2,12.2c-0.2,1.3-1.2,2.4-2.4,3.4c-2.4,2.1-5.8,3.8-6.7,6.2
				c-1.3,3.7,2.7,9.9,0.8,13.2c-2,3.4-9.3,3-11.8,6c-0.1,0.1-0.2,0.2-0.3,0.4h0c-0.2,0.3-0.3,0.6-0.4,0.9c-1.4,3.4-0.4,9.2-3.1,11.4
				c-3,2.5-9.8-0.4-13.2,1.6c-3.4,1.9-4.2,9.3-7.9,10.6c-0.2,0.1-0.4,0.1-0.7,0.2c0,0-0.1,0-0.1,0c-0.2,0-0.4,0-0.5,0
				c-0.2,0-0.4,0-0.6,0c0,0-0.1,0-0.1,0c-0.2,0-0.5-0.1-0.7-0.2c-3.7-1.3-4.6-8.7-7.9-10.6c-3.4-2-10.2,0.9-13.2-1.6
				c-3-2.5-1.3-9.7-3.8-12.7c-2.5-3-9.9-2.6-11.9-6c-1.9-3.4,2.1-9.5,0.8-13.2c-0.9-2.4-4.3-4.2-6.7-6.2h0c-1.2-1-2.1-2.1-2.4-3.4
				c-0.7-3.8,5.2-8.2,5.2-12.2c0-4-5.9-8.4-5.2-12.2c0.7-3.9,7.8-6,9.1-9.7c1.3-3.7-2.7-9.9-0.8-13.2c2-3.4,9.4-3,11.9-5.9
				c2-2.4,1.3-7.6,2.6-10.8c0.3-0.8,0.7-1.4,1.2-1.9c1.3-1.1,3.4-1.2,5.5-1c0.4,0,0.8,0,1.2,0.1c2.4,0.2,4.8,0.4,6.5-0.6
				c1.8-1.1,2.9-3.7,4.1-6.2c4.4,1.5,8.7,3.2,12.9,4.9c0.4,0.5,0.9,1,1.4,1.3c0.9,0.5,2,0.7,3.3,0.7c4,1.7,7.9,3.6,11.8,5.5
				c0.4,2.9,0.4,6.2,1.9,8c1.5,1.8,4.7,2.3,7.4,3.2c1.9,0.6,3.6,1.4,4.4,2.7c1.9,3.4-2.1,9.6-0.8,13.2c1.3,3.6,8.4,5.8,9.1,9.6
				C392.6,67.3,386.7,71.8,386.7,75.7z"/>
			<g id="XMLID_5593_">
				<path id="XMLID_5806_" class="st181" d="M490.5,269.2c-1.6,1.6-3.8,2.6-6.4,2.6H323.8c-5.9,0-9.7-5.3-9-10.4
					c0.2-1.7,1-3.3,2.2-4.8l1.2-1.3c3.9-4.3,8.2-8.1,13-11.3c1.5-1,3.1-2,4.7-2.9c0.6-0.4,1.3-0.7,1.9-1c4.3-2.2,8.9-4,13.6-5.3
					c1.9-0.5,3.8-1,5.8-1.3c2.1,0,4.1-0.3,6-0.8c2.8-0.8,5.3-2.1,7.5-3.8c0.7-0.6,1.4-1.2,2.1-1.8c1.5-1.5,2.8-3.2,3.8-5.1
					c1.4-2.5,2.2-5.4,2.5-8.4v0c0.1-0.6,0.1-1.3,0.1-1.9v-88.7l-7.1-5.2l-0.6-0.5h0l-32-23.5c-6-4.4-7.3-12.8-2.9-18.8
					c4.4-6,12.8-7.3,18.8-2.9l23.8,17.5V31.6c11.6,6.4,22.6,13.6,33,21.6c8.1,6.3,15.9,13,23.2,20.2c5.8,5.7,11.3,11.6,16.5,17.8
					c3.2,3.8,6.2,7.6,9.2,11.6v81.5c0,11.8,2.2,23.4,6.5,34.3c1.9,4.9,4.2,9.6,7,14.2c1.1,1.8,2.2,3.6,3.4,5.3l1.4,2l3.9,5.6h0
					l4.6,6.6l3.5,5.1l0.1,0.1c0.3,0.5,0.6,1,0.8,1.5C494.1,262.5,493.1,266.6,490.5,269.2z"/>
				<path id="XMLID_5770_" class="st344" d="M490.2,259.4c0,6.4-5.1,12.4-12.4,12.4H336.4l9.3-10.4l5.4-6.1c0.7-0.8,1.4-1.6,2.2-2.3
					c4.5-4.6,9.6-8.5,15.1-11.6c0.2-0.1,0.3-0.2,0.5-0.3c0.6-0.4,1.3-0.7,1.9-1c0.1,0,0.1-0.1,0.2-0.1c2.4-1.2,4.8-2.3,7.3-3.2
					c0.9-0.4,1.9-0.7,2.8-1c3-1,6-1.8,9.1-2.3c0.2,0,0.5,0,0.7,0c1.1,0,2.1-0.1,3.2-0.3c1.1-0.2,2.1-0.5,3.1-0.8
					c2.2-0.7,4.3-1.8,6.1-3.2c1.6-1.1,3-2.5,4.2-4c2.6-3.3,4.3-7.3,4.6-11.7c0-0.4,0.1-0.9,0.1-1.4c0-0.2,0-0.3,0-0.5V53.2
					c8.1,6.3,15.9,13,23.2,20.2c5.8,5.7,11.3,11.6,16.5,17.8c3.2,3.8,6.2,7.6,9.2,11.6v81.5c0,11.8,2.2,23.4,6.5,34.3
					c1.9,4.9,4.2,9.6,7,14.2c1.1,1.8,2.2,3.6,3.4,5.3l1.4,2l3.9,5.6h0l4.6,6.6C489.5,254.6,490.2,257,490.2,259.4z"/>
				<path id="XMLID_5676_" class="st181" d="M452,91.3v3.9c0,2.2-1.8,4-4,4h-8.5c-2.2,0-4-1.8-4-4V73.5
					C441.3,79.1,446.8,85.1,452,91.3z"/>
				<path id="XMLID_5594_" class="st181" d="M439.7,198.4h-8.5c-2.2,0-4-1.8-4-4v-63.3c0-2.2,1.8-4,4-4h8.5c2.2,0,4,1.8,4,4v63.3
					C443.7,196.6,441.9,198.4,439.7,198.4z"/>
			</g>
		</g>
		<g id="XMLID_5563_">
			<path id="XMLID_5725_" class="st322" d="M155.8,149.9c-1.8,1.4-3.5,2.9-5.3,4.4c-2.2,1.9-4.5,3.6-6.8,4.9
				c-1.2,0.7-2.4,1.2-3.6,1.6c0,0,0,0,0,0c-1,0.3-2,0.5-3.1,0.5c-1.9,0-3.7-0.5-5.5-1.4c-2-1-4-2.3-5.9-3.9
				c-0.6-0.4-1.1-0.9-1.7-1.4c-4.9-4.1-9.8-8.7-14.9-9.6c-3.1-0.5-6.6,0.3-10.2,1.5c-0.3,0.1-0.6,0.2-0.9,0.3
				c-7.2,2.6-14.7,6.6-20.6,4.5c-1.2-0.4-2.3-1-3.3-1.8c-6.9-5.4-10.4-18.5-17.8-22.6c-3.9-2.1-9.3-2-14.8-1.8h0
				c-2,0.1-3.9,0.2-5.8,0.1c2.6-4.4,5.3-8.6,8.1-12.8c7.5-11.1,15.9-21.6,25.1-31.4c7.1,4.7,19.5,5.4,24.8,11.4
				c0.6,0.7,1.2,1.5,1.7,2.4c4.2,7.7,3.3,21,9.2,26.9c0.3,0.3,0.6,0.5,0.9,0.8c2,1.6,4.6,2.3,7.6,2.6h0c5.8,0.6,12.6-0.5,18.4,0.1
				c2.2,0.2,4.2,0.8,6,1.7C145.1,131.1,148.6,144.7,155.8,149.9z"/>
			<path id="XMLID_5590_" class="st323" d="M165,145c-3.1,0.5-6.2,2.5-9.2,4.8c0.9,0.6,1.8,1.2,2.9,1.5c5.5,1.9,12.3-1.4,19-3.9
				C173.2,145.8,168.9,144.4,165,145z"/>
			<path id="XMLID_5717_" class="st323" d="M312,18.9C312,18.9,312,18.9,312,18.9c0,0.7,0,1.4-0.1,2.1c-1.2,6.2-8.2,10.8-14.1,15.6
				c-0.1,0.1-0.3,0.2-0.4,0.4c0,0-0.1,0.1-0.1,0.1c-0.1,0.1-0.3,0.2-0.4,0.4c-2.8,2.4-5.2,4.9-6.3,7.8c-1.1,2.7-1.1,6-0.7,9.5
				c0.6,5.8,2.3,12,1.8,17.3v0c-0.2,2-0.7,3.9-1.7,5.5c-2.3,3.8-7.2,5.8-12.4,7.5c-0.8,0.3-1.7,0.5-2.5,0.8c-0.7,0.2-1.4,0.4-2,0.7
				c-4.1,1.3-8.1,2.8-10.7,5.2c-0.3,0.3-0.6,0.6-0.9,0.9c-0.5,0.5-0.9,1.1-1.3,1.8c-0.1,0.2-0.2,0.3-0.3,0.5
				c-0.7,1.2-1.2,2.6-1.7,4.1c-1.5,4.6-2.1,10-3.4,14.8c-0.1,0.3-0.2,0.6-0.2,0.8c-0.2,0.7-0.5,1.4-0.7,2.1
				c-0.9,2.4-2.1,4.4-3.9,5.9c0,0-0.1,0.1-0.1,0.1c-1,0.8-2.1,1.4-3.4,1.8h0c-1.8,0.6-3.8,0.9-5.9,1h0c-1.4,0.1-2.8,0.1-4.2,0
				c-4.9-0.1-10-0.6-14.2,0.2c-1.5,0.3-3,0.8-4.2,1.4c-1.3,0.7-2.6,1.8-3.7,3c-3.1,3.4-5.5,8.2-8.2,12.5c-1.9,3-3.9,5.6-6.3,7.4
				c-0.2-0.1-0.3-0.2-0.4-0.3c-2.9-2.2-5.7-4-8.7-4.5c-3.9-0.6-8.2,0.7-12.7,2.4c-0.5-0.2-0.9-0.4-1.4-0.5c-0.2-0.1-0.4-0.2-0.7-0.2
				c-0.2-0.1-0.4-0.2-0.7-0.2c-0.2-0.1-0.4-0.2-0.7-0.2l-0.7-0.2c-0.5-0.1-0.9-0.3-1.4-0.4c0,0-0.1,0-0.1,0
				c-0.2-0.1-0.4-0.1-0.6-0.1c-0.1,0-0.1,0-0.2,0c-0.1,0-0.1,0-0.2,0c0,0,0,0-0.1,0c-0.1,0-0.2-0.1-0.3-0.1c-0.1,0-0.2,0-0.3-0.1
				c0,0,0,0-0.1,0s0,0-0.1,0c-0.1,0-0.2,0-0.3-0.1c0,0,0,0-0.1,0c-0.1,0-0.1,0-0.2,0c-0.1,0-0.2,0-0.3,0c-0.1,0-0.2,0-0.2,0
				c-0.1,0-0.2,0-0.3,0H169c0,0,0,0-0.1,0c-0.3,0-0.5-0.1-0.8-0.1H168c-0.1,0-0.2,0-0.4,0c-0.2,0-0.3,0-0.5,0H167c0,0,0,0,0,0
				c-0.7,0-1.4,0-2,0.2c-3.1,0.5-6.1,2.5-9.2,4.8c-7.2-5.2-10.7-18.8-18.2-22.9c-1.7-1-3.8-1.5-6-1.7c-5.8-0.6-12.7,0.5-18.4-0.1h0
				c-2.9-0.3-5.5-1-7.6-2.6c-0.3-0.2-0.6-0.5-0.9-0.8c-6-5.9-5-19.2-9.2-26.9c-0.5-0.9-1-1.6-1.7-2.4c-5.3-6-17.8-6.7-24.8-11.4
				c4.7-5,9.6-9.9,14.7-14.5c3.9-3.5,7.8-6.9,11.9-10.1c3-2.4,6-4.7,9.1-7c2.9-2.1,5.8-4.2,8.8-6.2c5.8-3.9,11.8-7.6,18-11
				c1.8-1,3.6-2,5.5-3c3.5-1.9,7.1-3.6,10.7-5.3c2.9-1.4,5.9-2.7,8.9-3.9c3.5-1.5,7.1-2.9,10.7-4.2c8.5-3.2,17.3-5.9,26.3-8.1
				c1.4-0.4,2.8-0.7,4.2-1c3.2-0.7,6.4-1.4,9.6-2c7.8-1.5,15.8-2.7,23.9-3.4c7.2-0.7,14.5-1.1,21.9-1.2c0.9,0,1.9,0,2.9,0
				c2.3,0,4.6,0,6.9,0.1c14.8,0.4,29.3,2.1,43.4,4.9c0.2,0.4,0.5,0.9,0.8,1.3c1.3,2.2,2.5,4.5,3.4,6.6
				C311.4,14.9,311.9,16.9,312,18.9z"/>
			<path id="XMLID_5720_" class="st343" d="M76.9,166.2c-0.4-0.1-0.9-0.2-1.4-0.3c-1.2-0.4-2.6-1.1-3.9-1.6
				c-1.3-0.5-2.5-0.9-3.6-0.7c-3.1,0.5-5.8,5.9-9,5.9c-3.2,0-5.9-5.4-9-5.9c-3.1-0.6-7.5,3.6-10.5,2.5c-3-1.1-3.7-7.1-6.4-8.6
				c-2.8-1.6-8.3,0.8-10.7-1.3c-0.6-0.5-1-1.3-1.2-2.1c0,0,0,0,0,0c4.3-9.9,9.2-19.5,14.7-28.7c2.6-4.4,5.3-8.6,8.1-12.8
				c0,3.2-4.8,6.8-4.3,9.9c0,0,0,0,0,0.1c0,0.1,0.1,0.2,0.1,0.3c0,0.1,0,0.1,0.1,0.2c0,0,0,0.1,0,0.1c0,0.1,0.1,0.2,0.1,0.2
				c0.1,0.1,0.2,0.3,0.2,0.4c0,0,0,0,0,0c0,0,0,0,0,0c0.1,0.1,0.2,0.2,0.3,0.4c0.2,0.3,0.5,0.6,0.8,0.9c0.1,0.1,0.1,0.1,0.2,0.2h0
				c0.3,0.3,0.6,0.5,1,0.8c0.2,0.2,0.4,0.3,0.6,0.4c0,0,0,0,0,0c0.2,0.1,0.4,0.3,0.6,0.4c0,0,0.1,0.1,0.1,0.1c0.1,0,0.1,0.1,0.2,0.1
				c0.1,0.1,0.2,0.2,0.4,0.3c0.1,0.1,0.2,0.2,0.3,0.2c0.2,0.2,0.4,0.3,0.6,0.5c0.4,0.4,0.9,0.8,1.2,1.2c0.1,0.1,0.1,0.1,0.2,0.2
				c0.1,0.1,0.1,0.2,0.2,0.3c0,0.1,0.1,0.1,0.1,0.2c0,0,0,0.1,0.1,0.1c0,0.1,0.1,0.1,0.1,0.2c0.4,1,0.2,2.4-0.1,3.7
				c0,0.2-0.1,0.4-0.1,0.6c-0.1,0.5-0.2,0.9-0.3,1.4c-0.1,0.5-0.2,1-0.3,1.4c-0.3,1.4-0.3,2.7,0.2,3.7c0.8,1.4,2.7,2,4.7,2.5
				c0.2,0.1,0.5,0.1,0.7,0.2c0.1,0,0.2,0.1,0.4,0.1c0.2,0.1,0.5,0.1,0.7,0.2c1.2,0.4,2.2,0.8,3,1.5c0.1,0.1,0.1,0.1,0.2,0.2
				c0.4,0.5,0.6,1,0.8,1.7c0.1,0.2,0.1,0.4,0.2,0.7c0,0.2,0.1,0.5,0.1,0.7c0.4,2.5,0.3,5.6,1.7,7.1c0.1,0.1,0.1,0.1,0.2,0.2
				c1.5,1.3,4.2,0.8,6.7,0.7c1.5-0.1,3,0,4,0.6c0.1,0.1,0.2,0.2,0.3,0.2c0.1,0.1,0.2,0.2,0.3,0.3c0,0,0.1,0.1,0.1,0.1
				c0.1,0,0.1,0.1,0.1,0.1c0.3,0.4,0.6,0.8,0.9,1.2c0.1,0.2,0.3,0.5,0.4,0.7c0,0,0,0,0,0.1s0,0,0,0c0,0,0,0,0,0
				c0.1,0.2,0.2,0.4,0.3,0.6c0.6,1.2,1.2,2.5,1.9,3.5c0.1,0.1,0.2,0.2,0.2,0.3c0,0,0,0,0,0c0.2,0.2,0.4,0.5,0.6,0.6
				c0.1,0.1,0.2,0.2,0.4,0.3c0.1,0.1,0.2,0.1,0.3,0.2c0.1,0.1,0.2,0.1,0.4,0.2C76.5,166.1,76.7,166.2,76.9,166.2z"/>
			<path id="XMLID_5715_" class="st322" d="M110.8,112.5c0,3.2,4.8,6.8,4.3,9.9c-0.2,1.1-0.9,1.9-1.9,2.8c-1.9,1.7-4.8,3.1-5.5,5.1
				c-1.1,3,2.2,8,0.6,10.8c-1.6,2.8-7.6,2.4-9.6,4.8c-0.1,0.1-0.2,0.2-0.2,0.3c-0.1,0.2-0.3,0.4-0.4,0.7c-0.8,1.8-0.7,4.4-1.1,6.5
				c-0.2,1.2-0.6,2.2-1.4,2.8c-2.4,2-7.9-0.3-10.7,1.3c-2.7,1.6-3.4,7.5-6.4,8.6c-0.2,0.1-0.4,0.1-0.6,0.1c0,0,0,0-0.1,0
				c-0.1,0-0.3,0-0.5,0c-0.1,0-0.3,0-0.4,0c0,0-0.1,0-0.1,0c-0.2,0-0.4-0.1-0.5-0.1c-0.1-0.1-0.3-0.1-0.4-0.2
				c-0.1,0-0.2-0.1-0.3-0.2c-0.1-0.1-0.2-0.2-0.4-0.3c-0.2-0.2-0.4-0.4-0.6-0.6c0,0,0,0,0,0c-0.1-0.1-0.2-0.2-0.2-0.3
				c-0.7-1-1.3-2.3-1.9-3.5c-0.1-0.2-0.2-0.4-0.3-0.6c0,0,0,0,0,0c0,0-0.1-0.1-0.1-0.1c-0.1-0.2-0.3-0.5-0.4-0.7
				c-0.3-0.5-0.6-0.9-0.9-1.2c0,0-0.1-0.1-0.1-0.1c-0.1-0.1-0.3-0.3-0.5-0.4c-0.1-0.1-0.2-0.2-0.3-0.2c-1.1-0.6-2.5-0.6-4-0.6
				c-2.5,0.1-5.2,0.6-6.7-0.7c-0.1-0.1-0.1-0.1-0.2-0.2c-1.4-1.5-1.3-4.5-1.7-7.1c0-0.2-0.1-0.5-0.1-0.7c-0.1-0.2-0.1-0.5-0.2-0.7
				c-0.2-0.6-0.5-1.2-0.8-1.7c-0.1-0.1-0.1-0.1-0.2-0.2c-0.7-0.7-1.8-1.2-3-1.5c-0.2-0.1-0.5-0.1-0.7-0.2c-0.1,0-0.2-0.1-0.4-0.1
				c-0.2-0.1-0.5-0.1-0.7-0.2c-2-0.6-3.9-1.2-4.7-2.5c-0.6-1-0.5-2.3-0.2-3.7c0.1-0.5,0.2-0.9,0.3-1.4c0.1-0.5,0.2-0.9,0.3-1.4
				c0-0.2,0.1-0.4,0.1-0.6c0.3-1.4,0.4-2.7,0.1-3.7c0-0.1-0.1-0.1-0.1-0.2c0,0,0-0.1-0.1-0.1c0-0.1-0.1-0.1-0.1-0.2
				c-0.1-0.1-0.1-0.2-0.2-0.3c-0.1-0.1-0.1-0.1-0.2-0.2c-0.3-0.4-0.7-0.8-1.2-1.2c-0.2-0.2-0.4-0.3-0.6-0.5
				c-0.1-0.1-0.2-0.2-0.3-0.2c-0.2-0.1-0.3-0.3-0.5-0.4c0,0-0.1-0.1-0.1-0.1c-0.2-0.1-0.4-0.3-0.6-0.4c0,0,0,0,0,0
				c-0.2-0.1-0.4-0.3-0.6-0.4c-0.3-0.2-0.7-0.5-1-0.8c-0.1-0.1-0.1-0.1-0.2-0.2c-0.3-0.3-0.6-0.6-0.8-0.9c-0.1-0.1-0.2-0.2-0.3-0.4
				c0,0,0,0,0,0c0,0,0,0,0,0c-0.1-0.1-0.2-0.3-0.2-0.4c-0.1-0.1-0.1-0.1-0.1-0.2c0-0.1-0.1-0.2-0.1-0.3c0-0.1-0.1-0.2-0.1-0.3
				c0,0,0,0,0-0.1c-0.5-3.1,4.2-6.7,4.3-9.9c7.5-11.1,15.9-21.6,25.1-31.4c4.7-5,9.6-9.9,14.7-14.5c0.3,0.4,0.7,0.8,1.1,1
				c2.8,1.6,8.3-0.8,10.7,1.3c2.4,2,1.1,7.9,3.1,10.3c1.2,1.4,3.8,1.9,6.1,2.6c1.5,0.5,2.9,1.1,3.6,2.2c1.6,2.7-1.7,7.8-0.6,10.8
				c1.1,2.9,6.8,4.7,7.4,7.9C115.6,105.7,110.8,109.3,110.8,112.5z"/>
			<path id="XMLID_5702_" class="st345" d="M299.1,38.1c-0.8-0.1-1.5-0.3-2.3-0.6c-3.7-1.3-7.8-3.9-11-3.3c-4.8,0.8-9,9.2-14,9.2
				c-0.6,0-1.1-0.1-1.7-0.3h0c-0.1,0-0.3-0.1-0.4-0.2c-1.8-0.8-3.6-2.4-5.3-4c-0.1-0.1-0.2-0.2-0.4-0.4c0,0,0,0,0,0
				c-0.7-0.6-1.3-1.3-2-1.8l0,0c-0.7-0.6-1.4-1.1-2.1-1.6c-0.4-0.2-0.8-0.4-1.2-0.6h0c0,0,0,0,0,0c0,0,0,0,0,0
				c-0.3-0.1-0.5-0.2-0.8-0.2c-1.4-0.3-3,0.1-4.7,0.7c-1.2,0.4-2.4,1-3.7,1.6c0,0,0,0,0,0c-2.8,1.3-5.6,2.4-7.9,1.6
				c-0.2-0.1-0.3-0.1-0.5-0.2h0c-1-0.5-1.8-1.3-2.5-2.3c-0.4-0.6-0.8-1.2-1.1-1.8v0c-0.1-0.2-0.3-0.5-0.4-0.7v0
				c-0.4-0.8-0.8-1.6-1.2-2.4c-1.2-2.5-2.5-4.9-4.3-5.9c-0.7-0.4-1.5-0.6-2.4-0.8c-0.1,0-0.3,0-0.4-0.1c-1.8-0.2-3.9,0-6,0.1
				c-1.1,0.1-2.2,0.1-3.2,0.1c-1.8-0.1-3.4-0.4-4.6-1.4c0,0,0,0,0,0h0c-0.8-0.7-1.3-1.6-1.7-2.7c-0.1-0.2-0.2-0.5-0.2-0.7
				c-0.4-1.6-0.6-3.6-0.8-5.4c-0.3-2.6-0.6-5.2-1.9-6.9c-0.1-0.1-0.1-0.2-0.2-0.3c-0.7-0.8-1.6-1.4-2.8-1.9
				c7.8-1.5,15.8-2.7,23.9-3.4c7.2-0.7,14.5-1.1,21.9-1.2c0.1,0.1,0.3,0.3,0.5,0.4c2.2,1.7,5.8,2.4,9,3.5c0.3,0.1,0.5,0.2,0.8,0.3
				c1.6,0.6,3,1.3,3.9,2.4c1.4,1.7,1.8,4.4,2.1,7.2c0.2,2.2,0.4,4.5,1.1,6.3c0.4,1,0.9,1.9,1.7,2.6c1.1,1,2.7,1.3,4.4,1.4
				c4.1,0.2,9.2-1.1,12.2,0.6c0.8,0.5,1.5,1.2,2.1,2.1c0.5,0.6,0.9,1.4,1.3,2.1h0c1.5,2.8,2.8,6.2,4.8,8.1c0.1,0.1,0.2,0.2,0.3,0.3
				c0.5,0.4,1,0.7,1.5,0.9C298.9,38,299,38,299.1,38.1z"/>
			<path id="XMLID_5581_" class="st345" d="M299.6,38.1c-0.2,0-0.3-0.1-0.5-0.1C299.3,38.1,299.4,38.1,299.6,38.1z"/>
			<path id="XMLID_5570_" class="st324" d="M331.7,11.4c0,0.1,0,0.3-0.1,0.4c-0.1,0.7-0.2,1.4-0.3,2.2c0,0.1,0,0.2,0,0.3
				c-0.1,1-0.2,2.1-0.4,3c-0.1,1-0.4,2-0.7,2.8c-0.1,0.3-0.3,0.6-0.4,0.9c-0.2,0.3-0.4,0.6-0.6,0.9c-0.2,0.2-0.4,0.4-0.6,0.6
				c0,0,0,0,0,0c-1.6,1.3-4.1,1.4-6.7,1.3c-3.4-0.2-7.1-0.7-9.6,0.5c-0.1,0-0.2,0.1-0.3,0.1c-3.9,2.3-5.2,10.4-9.1,12.9
				c-0.3,0.2-0.6,0.4-0.9,0.5c-0.3,0.1-0.6,0.2-0.9,0.2c0,0-0.1,0-0.1,0c-0.2,0-0.5,0-0.7,0c-0.2,0-0.5,0-0.7,0c0,0-0.1,0-0.1,0
				c-0.2,0-0.3,0-0.4-0.1c-0.1,0-0.3-0.1-0.4-0.1c-0.5-0.2-1-0.5-1.5-0.9c-0.1-0.1-0.2-0.2-0.3-0.3c-2-1.9-3.3-5.2-4.8-8.1h0
				c-0.4-0.8-0.8-1.5-1.3-2.1c-0.6-0.9-1.3-1.6-2.1-2.1c-3-1.7-8.1-0.5-12.2-0.6c-1.8-0.1-3.3-0.4-4.4-1.4c-0.8-0.6-1.3-1.5-1.7-2.6
				c-0.6-1.8-0.8-4.1-1.1-6.3c-0.3-2.8-0.7-5.5-2.1-7.2c-0.9-1.1-2.3-1.8-3.9-2.4c-0.2-0.1-0.5-0.2-0.8-0.3c-3.2-1.1-6.8-1.7-9-3.5
				c-0.2-0.1-0.3-0.3-0.5-0.4c0.9,0,1.9,0,2.9,0c2.3,0,4.6,0,6.9,0.1c14.8,0.4,29.3,2.1,43.4,4.9c4.2,0.8,8.3,1.8,12.4,2.8
				c3.8,1,7.6,2,11.4,3.2c0-0.1,0-0.2,0.1-0.4v0c0.2,0.2,0.5,0.4,0.7,0.6C331.1,11.2,331.4,11.3,331.7,11.4z"/>
			<path id="XMLID_5578_" class="st345" d="M252.4,130.5c-2.7-1.6-8.1,0.7-10.4-1.2c-2.4-2-1-7.7-3-10.1c-2-2.4-7.8-2-9.4-4.7
				c-1.5-2.7,1.7-7.6,0.6-10.5c-1-2.9-6.7-4.6-7.2-7.7c-0.5-3,4.2-6.5,4.2-9.7c0-3.1-4.7-6.7-4.2-9.7c0.5-3.1,6.2-4.8,7.2-7.7
				c1.1-2.9-2.1-7.8-0.6-10.5c1.6-2.7,7.4-2.4,9.4-4.7c2-2.4,0.7-8.1,3-10.1c2.4-2,7.8,0.3,10.4-1.2c2.7-1.5,3.4-7.4,6.3-8.4
				c0.2-0.1,0.4-0.1,0.5-0.1c-2.7,0.3-6.1,3-8.7,2.6c-3-0.5-5.7-5.8-8.8-5.8c-3.1,0-5.8,5.2-8.8,5.8c-3.1,0.5-7.4-3.5-10.2-2.4
				c-2.9,1.1-3.6,6.9-6.3,8.4c-2.7,1.6-8.1-0.7-10.4,1.2c-2.4,2-1,7.7-3,10.1c-2,2.4-7.8,2-9.4,4.7c-1.5,2.7,1.7,7.6,0.6,10.5
				c-1,2.9-6.7,4.6-7.2,7.7c-0.5,3,4.2,6.5,4.2,9.7c0,3.1-4.7,6.7-4.2,9.7c0.5,3.1,6.2,4.8,7.2,7.7c1.1,2.9-2.1,7.8-0.6,10.5
				c1.6,2.7,7.4,2.4,9.4,4.7c2,2.4,0.7,8.1,3,10.1c2.4,2,7.8-0.3,10.4,1.2c2.7,1.5,3.4,7.4,6.3,8.4c2.9,1,7.2-3,10.2-2.4
				c3,0.5,5.7,5.8,8.8,5.8c3.1,0,5.8-5.2,8.8-5.8c2.6-0.4,6,2.2,8.7,2.6c-0.2,0-0.4-0.1-0.5-0.1
				C255.8,137.9,255.1,132.1,252.4,130.5z"/>
			<path id="XMLID_5577_" class="st324" d="M267.1,130.5c2.7-1.6,8.1,0.7,10.4-1.2c2.4-2,1-7.7,3-10.1c2-2.4,7.8-2,9.4-4.7
				c1.5-2.7-1.7-7.6-0.6-10.5c1-2.9,6.7-4.6,7.2-7.7c0.5-3-4.2-6.5-4.2-9.7c0-3.1,4.7-6.7,4.2-9.7c-0.5-3.1-6.2-4.8-7.2-7.7
				c-1.1-2.9,2.1-7.8,0.6-10.5c-1.6-2.7-7.4-2.4-9.4-4.7c-2-2.4-0.7-8.1-3-10.1c-2.4-2-7.8,0.3-10.4-1.2c-2.7-1.5-3.4-7.4-6.3-8.4
				c-0.2-0.1-0.4-0.1-0.5-0.1c0,0,0,0-0.1,0c-0.1,0-0.3,0-0.4,0c-0.1,0-0.3,0-0.4,0c0,0,0,0-0.1,0c-0.2,0-0.4,0.1-0.5,0.1
				c-2.9,1.1-3.6,6.9-6.3,8.4c-2.7,1.6-8.1-0.7-10.4,1.2c-2.4,2-1,7.7-3,10.1c-2,2.4-7.8,2-9.4,4.7c-1.5,2.7,1.7,7.6,0.6,10.5
				c-1,2.9-6.7,4.6-7.2,7.7c-0.5,3,4.2,6.5,4.2,9.7c0,3.1-4.7,6.7-4.2,9.7c0.5,3.1,6.2,4.8,7.2,7.7c1.1,2.9-2.1,7.8-0.6,10.5
				c1.6,2.7,7.4,2.4,9.4,4.7c2,2.4,0.7,8.1,3,10.1c2.4,2,7.8-0.3,10.4,1.2c2.7,1.5,3.4,7.4,6.3,8.4c0.2,0.1,0.4,0.1,0.5,0.1
				c0,0,0,0,0.1,0c0.1,0,0.3,0,0.4,0c0.1,0,0.3,0,0.4,0c0,0,0,0,0.1,0c0.2,0,0.4-0.1,0.5-0.1C263.8,137.9,264.5,132.1,267.1,130.5z"
				/>
			<g id="XMLID_5564_">
				<g id="XMLID_5575_">
					<path id="XMLID_5576_" class="st344" d="M218.4,73.6c-1.1,0-2.3-0.2-3.5-0.6c-9.2-3.2-13.2-17.4-13.7-48.9
						c-0.1-3.8,3-7,6.8-7.1c3.8-0.1,7,3,7.1,6.8c0.4,22.1,2.7,31.1,4.1,34.5c2.4-1.3,5.4-1,7.7,0.8c3,2.4,3.4,6.8,0.9,9.8
						C225.7,71.6,222.2,73.6,218.4,73.6z"/>
				</g>
				<g id="XMLID_5573_">
					<path id="XMLID_5574_" class="st346" d="M161.4,112.5c-5.4,0-10-4-10.8-9.4c-0.8-6,3.3-11.5,9.3-12.3l22.1-3.1
						c13.1-1.8,24.1-10.6,28.7-23l10-26.6c2.1-5.6,8.4-8.5,14.1-6.4c5.6,2.1,8.5,8.4,6.4,14.1l-10,26.6c-7.5,19.8-25.2,34-46.2,36.9
						l-22.1,3.1C162.4,112.5,161.9,112.5,161.4,112.5z"/>
				</g>
				<path id="XMLID_5675_" class="st344" d="M132.5,60.6l-0.9,0.9l-14,15.2l-5.9-5.4l-7-6.4l-9.1-8.4c3-2.4,6-4.7,9.1-7
					c2.9-2.1,5.8-4.2,8.8-6.2L126.4,55l5.2,4.8L132.5,60.6z"/>
				<path id="XMLID_5743_" class="st181" d="M193.7,261.4c-0.5,5.3-4.8,10.1-10.8,10.4h0c-0.2,0-0.4,0-0.6,0H61.1
					c-0.4,0-0.8,0-1.1-0.1h0c-1.2-0.2-2.3-0.6-3.2-1.2c-3.7-2.4-5-7.9-1.9-11.8c0.1-0.1,0.2-0.2,0.3-0.3c2.1-2.3,4.3-4.4,6.8-6.4
					c1.9-1.5,3.9-2.9,6-4.2c0.5-0.3,1.1-0.6,1.6-0.9c0,0,0.1,0,0.1,0c2.2-1.2,4.4-2.3,6.8-3.2h0c0.3-0.1,0.7-0.3,1.1-0.4
					c1-0.4,2.1-0.7,3.1-1.1c0,0,0.1,0,0.1,0c2.1-0.6,4.2-1.2,6.3-1.5c1.6,0,3.1-0.2,4.5-0.6c1.1-0.3,2.2-0.7,3.3-1.2c0,0,0,0,0,0
					c4.4-2.1,7.8-6,9.3-10.8c0.5-1.7,0.8-3.4,0.8-5.3v-72.1l-5.8-4.2l-0.5-0.4l0,0L79,131.8l-6.6-4.8c-4.9-3.6-5.9-10.4-2.3-15.3
					c3.6-4.9,10.4-5.9,15.3-2.3l1.8,1.4l17.5,12.9V49.4c2.9-2.1,5.8-4.2,8.8-6.2c5.8-3.9,11.8-7.6,18-11c1.8-1,3.6-2,5.5-3
					c3.5-1.9,7.1-3.6,10.7-5.3c2.9-1.4,5.9-2.7,8.9-3.9l1.7,4.4l1.7,4.2l4.9,12.3c0.6,1.4,1.1,2.9,1.6,4.3c0.1,0.3,0.2,0.6,0.3,0.9
					c0.1,0.3,0.2,0.6,0.3,0.9c0.2,0.6,0.4,1.2,0.5,1.8c0.1,0.4,0.2,0.8,0.4,1.3c0.2,0.9,0.5,1.7,0.7,2.6c0.1,0.5,0.2,0.9,0.3,1.4
					c0,0.1,0.1,0.2,0.1,0.3l0.4,1.6c0.1,0.6,0.2,1.2,0.4,1.8c0.5,2.5,0.8,5,1.1,7.5c0.1,0.5,0.1,1.1,0.1,1.6c0,0.4,0.1,0.9,0.1,1.3
					c0,0.6,0.1,1.2,0.1,1.8c0,0.5,0.1,1.1,0.1,1.6c0,0.3,0,0.6,0,0.8c0,0.6,0,1.2,0,1.8v126.6c0,0.6,0,1.2,0,1.8
					c0.1,4.2,0.5,8.3,1.3,12.3v0c0,0,0,0,0,0c1.1,6,2.9,11.8,5.4,17.3c0.1,0.3,0.3,0.6,0.4,0.9c0.2,0.4,0.4,0.8,0.6,1.2
					c1,2,2,3.9,3.1,5.7c0.9,1.5,1.8,2.9,2.8,4.4l0.7,1l4.9,7.1l0.9,1.3C193.3,256.3,193.9,258.9,193.7,261.4z"/>
				<path id="XMLID_5703_" class="st344" d="M197.8,6.6c-0.2,0.4-0.3,0.8-0.5,1.2c-0.5,1.2-1,2.4-1.6,3.5v0
					c-0.1,0.1-0.1,0.2-0.2,0.4c-0.5,1.1-1,2.2-1.6,3.2c-8.1,15.5-18.6,24.7-27.4,30.2h0c0.1,0.3,0.2,0.6,0.3,0.9
					c0.1,0.3,0.2,0.6,0.3,0.9c0.2,0.6,0.4,1.2,0.5,1.8c0.1,0.4,0.2,0.8,0.4,1.3c0.2,0.9,0.5,1.7,0.7,2.6c0.1,0.5,0.2,0.9,0.3,1.4
					c0,0.1,0.1,0.2,0.1,0.3l0.4,1.6c0.1,0.6,0.2,1.2,0.4,1.8c0.5,2.5,0.8,5,1.1,7.5c0.1,0.5,0.1,1.1,0.1,1.6c0,0.4,0.1,0.9,0.1,1.3
					c0,0.6,0.1,1.2,0.1,1.8c0,0.5,0.1,1.1,0.1,1.6c0,0.3,0,0.6,0,0.8c0,0.6,0,1.2,0,1.8v126.6c0,0.6,0,1.2,0,1.8
					c0.1,4.2,0.5,8.3,1.3,12.3v0c0,0,0,0,0,0c1.1,6,2.9,11.8,5.4,17.3c0.1,0.3,0.3,0.6,0.4,0.9c0.2,0.4,0.4,0.8,0.6,1.2
					c1,2,2,3.9,3.1,5.7c0.9,1.5,1.8,2.9,2.8,4.4l0.7,1l4.9,7.1c1.9,2.8,2.5,5.9,2.1,8.8c-0.8,4.9-4.5,9.2-9.9,10.2
					c-0.5,0.1-1,0.1-1.5,0.2c-0.2,0-0.5,0-0.8,0H70l5.7-6.3l0,0l6-6.7l0.3-0.3c0.1-0.1,0.2-0.2,0.4-0.4c0.4-0.5,0.8-0.9,1.3-1.4
					c3.8-3.9,8.1-7.2,12.7-9.8c0.4-0.2,0.7-0.4,1.1-0.6c4.4-2.3,9-4,13.9-5.2c0.8-0.2,1.6-0.4,2.4-0.5c1.6,0,3.1-0.2,4.5-0.6
					c1.7-0.5,3.4-1.2,4.9-2.1c5.1-3.1,8.5-8.8,8.5-15.2V32.2c1.8-1,3.6-2,5.5-3c3.5-1.9,7.1-3.6,10.7-5.3c2.9-1.4,5.9-2.7,8.9-3.9
					l1.7,4.4c2.9-2.2,6-5,9-8.6c8.5-3.2,17.3-5.9,26.3-8.1C195,7.3,196.4,7,197.8,6.6z"/>
				<path id="XMLID_4552_" class="st181" d="M150.5,27.8v49.9c0,2.2-1.8,4-4,4h-5.4c-2.2,0-4-1.8-4-4V29.2c3.5-1.9,7.1-3.6,10.7-5.3
					C149.3,24.5,150.5,26,150.5,27.8z"/>
				<path id="XMLID_5566_" class="st181" d="M159.9,131.6h-5.4c-2.2,0-4-1.8-4-4v-21c0-2.2,1.8-4,4-4h5.4c2.2,0,4,1.8,4,4v21
					C163.9,129.8,162.1,131.6,159.9,131.6z"/>
				<path id="XMLID_5565_" class="st181" d="M153.2,212.2h-5.4c-2.2,0-4-1.8-4-4v-49.9c0-2.2,1.8-4,4-4h5.4c2.2,0,4,1.8,4,4v49.9
					C157.2,210.4,155.4,212.2,153.2,212.2z"/>
			</g>
		</g>
		<path id="XMLID_5562_" class="st347" d="M425.9,386.3c-9.3,0-17.3,5.4-21.1,13.3c-4.3-4.5-10.3-7.3-16.9-7.3c-6.9,0-13,3-17.3,7.7
			c-3.7-8.1-11.8-13.7-21.2-13.7c-6.1,0-11.6,2.3-15.8,6.1c-4.2-3.8-9.7-6.1-15.8-6.1c-12.9,0-23.4,10.5-23.4,23.4
			c0,12.9,10.5,23.4,23.4,23.4c6.1,0,11.6-2.3,15.8-6.1c4.2,3.8,9.7,6.1,15.8,6.1c6.9,0,13-3,17.3-7.7c3.7,8.1,11.8,13.7,21.2,13.7
			c9.3,0,17.3-5.4,21.1-13.3c4.3,4.5,10.3,7.3,16.9,7.3c12.9,0,23.4-10.5,23.4-23.4C449.2,396.7,438.8,386.3,425.9,386.3z"/>
		<path id="XMLID_5677_" class="st278" d="M449.2,423.9c-7.6,8.7-15.7,16.9-24.4,24.5c-6.2-0.3-11.9-3-15.9-7.3
			c-3.8,7.8-11.8,13.3-21.1,13.3c-9.4,0-17.6-5.6-21.2-13.7c-4.3,4.7-10.5,7.7-17.3,7.7c-6.1,0-11.6-2.3-15.8-6.1
			c-0.1,0.1-0.2,0.2-0.3,0.3c-4.1,3.6-9.5,5.8-15.4,5.8c-12.9,0-23.4-10.5-23.4-23.4c0-2.7,0.5-5.3,1.3-7.7c0.6-1.8,1.5-3.5,2.5-5
			c4.2-6.4,11.4-10.6,19.6-10.6c5,0,9.6,1.6,13.4,4.2c0.8,0.6,1.6,1.2,2.4,1.9c4.2-3.8,9.7-6.1,15.8-6.1c2.5,0,4.9,0.4,7.2,1.1
			c2.6,0.8,4.9,2.1,7,3.7c0.4,0.3,0.9,0.7,1.3,1c2.4,2.1,4.4,4.8,5.8,7.8c0.8-0.9,1.6-1.6,2.5-2.4c4-3.3,9.2-5.3,14.8-5.3
			c6.7,0,12.7,2.8,16.9,7.3c3.8-7.8,11.8-13.3,21.1-13.3c10.2,0,18.9,6.5,22,15.6c0.2,0.7,0.5,1.3,0.6,2
			C448.9,420.9,449.1,422.4,449.2,423.9z"/>
		<path id="XMLID_5723_" class="st347" d="M512,256c0,2.9-0.1,5.9-0.1,8.8c-0.2,6.4-0.7,12.7-1.3,19c-4,3.1-9,5-14.4,5
			c-6.7,0-12.7-2.8-16.9-7.3c-3.8,7.8-11.8,13.3-21.1,13.3c-1.3,0-2.6-0.1-3.8-0.3c-7.8-1.3-14.3-6.4-17.4-13.3
			c-3.1,3.4-7.1,5.8-11.6,7c-1.8,0.5-3.8,0.7-5.7,0.7c-3.7,0-7.2-0.9-10.4-2.4c-2-1-3.8-2.2-5.4-3.7c-1.7,1.6-3.7,2.9-5.9,3.9
			c-3,1.4-6.3,2.2-9.9,2.2c-2,0-4-0.3-5.9-0.8c-0.6-0.2-1.2-0.3-1.8-0.5c-3.1-1.1-5.9-2.8-8.2-5c-1.6-1.5-3-3.2-4.1-5
			c-0.7-1.2-1.3-2.4-1.8-3.8c-0.2-0.6-0.5-1.3-0.6-1.9c-0.6-2-0.9-4.2-0.9-6.4c0-1.4,0.1-2.7,0.3-4c0.5-3,1.6-5.8,3.1-8.2
			c2.8-4.5,7-8,12.1-9.8c2.5-0.9,5.1-1.4,7.9-1.4c0.9,0,1.7,0.1,2.5,0.1c2.6,0.3,5.2,1,7.5,2.1c2.1,1,4.1,2.3,5.8,3.9
			c4.2-3.8,9.7-6.1,15.8-6.1c9.4,0,17.6,5.6,21.2,13.7c4.3-4.7,10.4-7.7,17.3-7.7c6.7,0,12.7,2.8,16.9,7.3c1.9-3.9,4.8-7.2,8.4-9.5
			h0c3.7-2.4,8-3.8,12.7-3.8c0.1,0,0.2,0,0.2,0c6,0,11.4,2.4,15.5,6.1C512,250.8,512,253.4,512,256z"/>
		<path id="XMLID_5713_" class="st278" d="M511.9,264.8c-0.2,6.4-0.7,12.7-1.3,19c-0.7,6.2-1.6,12.4-2.7,18.5
			c-3.5,2-7.5,3.2-11.7,3.2c-6.7,0-12.7-2.8-16.9-7.3c-3.8,7.9-11.8,13.3-21.1,13.3c-9.4,0-17.6-5.6-21.2-13.6
			c-4.3,4.7-10.5,7.7-17.3,7.7c-5.1,0-9.7-1.6-13.6-4.4c-0.8-0.5-1.5-1.1-2.2-1.8c-4.1,3.8-9.7,6.1-15.8,6.1
			c-5.1,0-9.9-1.7-13.8-4.5c-0.9-0.7-1.8-1.4-2.6-2.2c-3.5-3.5-5.9-8-6.7-13.1c0-0.3-0.1-0.5-0.1-0.8c-0.1-0.9-0.2-1.8-0.2-2.7
			c0-2.9,0.5-5.7,1.5-8.3c0.2-0.7,0.5-1.3,0.9-1.9c0.9-1.9,2.1-3.7,3.5-5.2c0.3-0.4,0.6-0.7,0.9-1c1.6-1.6,3.5-3,5.5-4.1
			c1.6-0.9,3.4-1.6,5.3-2c1.2-0.3,2.5-0.5,3.8-0.6c0.6-0.1,1.3-0.1,1.9-0.1c4,0,7.7,1,11,2.8c0.3,0.1,0.5,0.3,0.8,0.4c0,0,0,0,0,0
			c1.4,0.8,2.8,1.8,4,2.9c0.3-0.3,0.7-0.6,1-0.9c0.1-0.1,0.3-0.2,0.4-0.4c3.9-3.1,8.9-4.9,14.3-4.9c9.2,0,17.2,5.3,21,13.1
			c0.1,0.2,0.2,0.4,0.3,0.5c0.2-0.2,0.3-0.4,0.5-0.5c4.2-4.4,10.2-7.1,16.8-7.1c6.6,0,12.5,2.7,16.8,7.1c0,0,0.1,0.1,0.1,0.1
			c0,0,0.1-0.1,0.1-0.1c3-6.1,8.5-10.6,15.1-12.4c0.4-0.1,0.9-0.2,1.3-0.3c0.3-0.1,0.6-0.1,0.8-0.1c1.2-0.2,2.4-0.3,3.7-0.3
			C502.2,258.7,507.7,261,511.9,264.8z"/>
		<path id="XMLID_5558_" class="st347" d="M160.5,242c-9.3,0-17.3,5.4-21.1,13.3c-4.3-4.5-10.3-7.3-16.9-7.3c-6.9,0-13,3-17.3,7.7
			c-3.7-8.1-11.8-13.7-21.2-13.7c-6.1,0-11.6,2.3-15.8,6.1c-4.2-3.8-9.7-6.1-15.8-6.1C39.5,242,29,252.5,29,265.4
			c0,12.9,10.5,23.4,23.4,23.4c6.1,0,11.6-2.3,15.8-6.1c4.2,3.8,9.7,6.1,15.8,6.1c6.9,0,13-3,17.3-7.7c3.7,8.1,11.8,13.7,21.2,13.7
			c9.3,0,17.3-5.4,21.1-13.3c4.3,4.5,10.3,7.3,16.9,7.3c12.9,0,23.4-10.5,23.4-23.4C183.8,252.5,173.4,242,160.5,242z"/>
		<path id="XMLID_5557_" class="st278" d="M160.5,258.7c-9.3,0-17.3,5.4-21.1,13.3c-4.3-4.5-10.3-7.3-16.9-7.3c-6.9,0-13,3-17.3,7.7
			c-3.7-8.1-11.8-13.7-21.2-13.7c-6.1,0-11.6,2.3-15.8,6.1c-4.2-3.8-9.7-6.1-15.8-6.1C39.5,258.7,29,269.1,29,282
			c0,12.9,10.5,23.4,23.4,23.4c6.1,0,11.6-2.3,15.8-6.1c4.2,3.8,9.7,6.1,15.8,6.1c6.9,0,13-3,17.3-7.7c3.7,8.1,11.8,13.7,21.2,13.7
			c9.3,0,17.3-5.4,21.1-13.3c4.3,4.5,10.3,7.3,16.9,7.3c12.9,0,23.4-10.5,23.4-23.4C183.8,269.1,173.4,258.7,160.5,258.7z"/>
		<path id="XMLID_5556_" class="st181" d="M443.9,419.6c-12-2.9-26.9,0.6-26.9,0.6c-16.9,10.5-42-5-53.6-13.5
			c-6.5-4.7-14.7-6.7-22.5-5c-2.2,0.5-4.2,1.2-6,2c0,0,0,0,0,0c-11,5.3-13.3,16.4-13.3,16.4c6.4,10.5,10.3,18.8,12.6,25.2
			c3.4,9.4-5.2,18.8-14.9,16.3c-38.3-9.9-49.9-30.7-49.9-30.7c-15.4-22.1-41.3-22.5-59.8-19.1c-10.6,1.9-20.2,6.9-28.2,14.1
			c-12,10.7-34.2,17.6-51.2,21.5c-8.9,2-17-5.8-15-14.7c5.6-25.6-12.6-43.3-12.6-43.3c-12.5-13-30.9-10.3-44.8-5.2
			c-6.9,2.5-13.4-4.5-10.4-11.2l0.6-1.3c15.6-19.4,49.8-9.2,49.8-9.2c30.4-10.6,17.7-57.4,17.7-57.4c-8.9-35,6.9-43.7,6.9-43.7
			h277.4c22.4,5.3,0,57.2,0,57.2c-5.1,24.8,19.2,53.1,19.2,53.1c23.7,10.4,32.5,25.2,35.6,36.7C456.3,415,450.5,421.1,443.9,419.6z"
			/>
		<path id="XMLID_5555_" class="st180" d="M319.4,461.6c-38.3-9.9-49.9-30.7-49.9-30.7c-15.4-22.1-41.3-22.5-59.8-19.1
			c-10.6,1.9-20.2,6.9-28.2,14.1c-12,10.7-34.2,17.6-51.2,21.5c-8.9,2-17-5.8-15-14.7c5.6-25.6-12.6-43.3-12.6-43.3
			c-12.5-13-30.9-10.3-44.8-5.2c-6.9,2.5-13.4-4.5-10.4-11.2l0.6-1.3c15.6-19.4,49.8-9.2,49.8-9.2c2.6-0.9,4.9-2.1,6.9-3.5
			c4.8-3.3,7.9-7.8,10-12.7c7.2-17.5,0.8-41.2,0.8-41.2c-1.9-7.6-2.7-14-2.7-19.3c0-7,1.3-12.2,3-15.9c2.8-6.3,6.6-8.5,6.6-8.5h27
			c0,0,24.4,115.7,172.2,158.7c6.4,10.5,10.3,18.8,12.6,25.2C337.6,454.7,329.1,464.1,319.4,461.6z"/>
		<path id="XMLID_5554_" class="st180" d="M363.4,406.7c-6.5-4.7-14.7-6.7-22.5-5c-2.2,0.5-4.2,1.2-6,2c-0.1-0.6-5.4-23.1,8-42
			c0,0,4.8-6.6,8.1-13.4c1.5-3.1,5.9-3.1,7.5,0C366,363.6,378.7,394.8,363.4,406.7z"/>
		<g id="XMLID_5552_">
			<path id="XMLID_5553_" class="st348" d="M286.4,357.2c-2.7,0-5.4-0.1-8.1-0.3c-4.1-0.3-7.2-3.9-7-8c0.3-4.1,3.9-7.2,8-7
				c31.7,2.2,56.9-10,74.7-36.2c13.6-20,17.6-40.8,17.7-41c0.8-4.1,4.7-6.7,8.8-6c4.1,0.8,6.7,4.7,6,8.8c-0.2,1-4.7,24.1-20,46.7
				C347.2,342.4,319.6,357.2,286.4,357.2z"/>
		</g>
		<g id="XMLID_5550_">
			<path id="XMLID_5551_" class="st348" d="M153.3,357.8c-5.3,4.6-12,6.8-20,6.8c-2.9,0-6-0.3-9.2-0.9c-1.1-0.2-2.1-0.4-3.1-0.6
				l-0.1,0.5c0,0-3.1-0.6-6.2-1.3c-1.6-0.3-3.1-0.7-4.3-1c-0.7-0.2-1.2-0.3-1.6-0.4c-1.6-0.4-2.8-1.1-3.7-1.9l-0.2-0.1
				c4.8-3.3,7.9-7.8,10-12.7l3.7,1.1c2.3,0.4,5.1,0.9,8.4,1.6c7.4,1.4,13,0.5,16.6-2.6c5.7-4.9,6.1-14.5,6.2-16.1
				c-2.2-17.4-22.1-34.5-36.9-44.5c0-7,1.3-12.2,3-15.9c14.4,9,45.8,31.6,48.9,59.1l0,0.6C164.7,330.3,165.1,347.7,153.3,357.8z"/>
		</g>
		<g id="XMLID_5548_">
			<path id="XMLID_5549_" class="st348" d="M201,383.9c-15.6,0-31-18.3-34.1-22.1c-2.6-3.2-2.1-8,1.2-10.5c3.2-2.6,8-2.1,10.5,1.2
				l0,0c5.6,7,16.8,17.2,22.9,16.4c4.1-0.5,7.8,2.5,8.3,6.6c0.5,4.1-2.5,7.8-6.6,8.3C202.5,383.8,201.7,383.9,201,383.9z"/>
		</g>
		<g id="XMLID_5546_">
			<path id="XMLID_5547_" class="st348" d="M238.8,326.2c-1.2,0-2.4-0.3-3.5-0.9c-15.6-8.2-30.3-0.2-30.5-0.1
				c-3.6,2-8.2,0.7-10.2-2.9c-2-3.6-0.7-8.2,2.9-10.2c0.9-0.5,22.1-12,44.7-0.1c3.7,1.9,5.1,6.5,3.2,10.1
				C244.1,324.7,241.5,326.1,238.8,326.2z"/>
		</g>
		<g id="XMLID_5544_">
			<path id="XMLID_5545_" class="st348" d="M403.9,383.9c-2,0-4-0.8-5.5-2.4c-21.8-23.5-22.7-50.3-22.8-51.5
				c-0.1-4.1,3.2-7.6,7.3-7.7c4.1-0.1,7.6,3.2,7.7,7.3c0,0.4,1,22.5,18.8,41.7c2.8,3,2.6,7.8-0.4,10.6
				C407.6,383.2,405.8,383.9,403.9,383.9z"/>
		</g>
		<ellipse id="XMLID_5543_" class="st349" cx="261.1" cy="261.4" rx="138.7" ry="35.1"/>
		<ellipse id="XMLID_5542_" class="st182" cx="261.1" cy="261.4" rx="98" ry="24.8"/>
		<ellipse id="XMLID_5541_" class="st350" cx="259.8" cy="261.4" rx="53.8" ry="13.6"/>
		<g id="XMLID_5523_">
			<g id="XMLID_5536_">
				<path id="XMLID_5540_" class="st191" d="M295.4,116.6c1.5,8.9,0.1,17.3-3.4,23.7c-3.2,5.8-8.1,9.8-14.1,10.9
					c-12.5,2.1-25-9.9-27.9-26.9c-2.2-12.9,8.2-31.3,13.3-39.4c0,0,0,0,0,0c1.4-2.2,4.4-2.7,6.5-1.1
					C277.3,89.7,293.2,103.6,295.4,116.6z"/>
				<path id="XMLID_5539_" class="st268" d="M292,140.3c-3.2,5.8-8.1,9.8-14.1,10.9c-12.5,2.1-25-9.9-27.9-26.9
					c-2.2-12.9,8.2-31.3,13.3-39.4C263.1,85.9,250.9,145.7,292,140.3z"/>
				
					<ellipse id="XMLID_5538_" transform="matrix(0.7934 -0.6087 0.6087 0.7934 -1.3221 187.2431)" class="st269" cx="275.2" cy="95.6" rx="4.5" ry="7.1"/>
				
					<ellipse id="XMLID_5537_" transform="matrix(0.7934 -0.6087 0.6087 0.7934 -5.587 194.0563)" class="st269" cx="283.1" cy="105.3" rx="2.2" ry="3.5"/>
			</g>
			<path id="XMLID_5535_" class="st191" d="M326.4,176c-6,6.7-13.5,10.9-20.7,12.1c-6.5,1.1-12.7-0.2-17.3-4.2
				c-9.5-8.5-7.9-25.7,3.6-38.6c8.7-9.8,29.6-13.1,39.1-14.2c0,0,0,0,0,0c2.6-0.3,4.9,1.8,4.9,4.4C336.1,145,335.2,166.2,326.4,176z
				"/>
			<path id="XMLID_5534_" class="st268" d="M305.8,188.1c-6.5,1.1-12.7-0.2-17.3-4.2c-9.5-8.5-7.9-25.7,3.6-38.6
				c8.7-9.8,29.6-13.1,39.1-14.2C330.3,131.6,275.9,159.4,305.8,188.1z"/>
			<path id="XMLID_5533_" class="st34" d="M261.2,261.7c22.4-20.3,16.1-115.7,16.1-115.7"/>
			
				<ellipse id="XMLID_5532_" transform="matrix(0.2399 -0.9708 0.9708 0.2399 108.2486 432.3183)" class="st269" cx="330.2" cy="147" rx="7.1" ry="4.5"/>
			
				<ellipse id="XMLID_5531_" transform="matrix(0.2399 -0.9708 0.9708 0.2399 94.3788 439.0491)" class="st269" cx="327.6" cy="159.3" rx="3.5" ry="2.2"/>
			<g id="XMLID_5526_">
				<path id="XMLID_5530_" class="st191" d="M257,171.5c6.2,6.5,9.8,14.3,10.5,21.5c0.6,6.6-1.2,12.7-5.6,16.9
					c-9.2,8.8-26.3,5.8-38.2-6.6c-9.1-9.5-10.8-30.5-11.1-40.1l0,0c-0.1-2.6,2.1-4.8,4.8-4.6C226.9,159.4,247.9,162,257,171.5z"/>
				<path id="XMLID_5529_" class="st268" d="M267.4,193c0.6,6.6-1.2,12.7-5.6,16.9c-9.2,8.8-26.3,5.8-38.2-6.6
					c-9.1-9.5-10.8-30.5-11.1-40.1C213,164.2,236.5,220.5,267.4,193z"/>
				
					<ellipse id="XMLID_5528_" transform="matrix(0.3155 -0.9489 0.9489 0.3155 -0.6663 330.0402)" class="st269" cx="228.4" cy="165.5" rx="4.5" ry="7.1"/>
				
					<ellipse id="XMLID_5527_" transform="matrix(0.3155 -0.9489 0.9489 0.3155 4.1258 343.863)" class="st269" cx="240.4" cy="169.1" rx="2.2" ry="3.5"/>
			</g>
			<line id="XMLID_5525_" class="st34" x1="260.7" y1="203" x2="275.2" y2="216.6"/>
			<line id="XMLID_5524_" class="st34" x1="278.1" y1="191.2" x2="289.4" y2="180.8"/>
		</g>
		<ellipse id="XMLID_5522_" class="st182" cx="259.2" cy="261.4" rx="24" ry="6.1"/>
	</g>
</g>
</svg>
