<?xml version="1.0" encoding="utf-8"?>
<!-- Generator: Adobe Illustrator 22.0.1, SVG Export Plug-In . SVG Version: 6.00 Build 0)  -->
<svg version="1.1" xmlns="http://www.w3.org/2000/svg" xmlns:xlink="http://www.w3.org/1999/xlink" x="0px" y="0px"
	 viewBox="0 0 512 512" style="enable-background:new 0 0 512 512;" xml:space="preserve">
<style type="text/css">
	.st0{fill:#4B71B4;}
	.st1{fill:#80B4E8;}
	.st2{fill:#594144;}
	.st3{fill:#B8E876;}
	.st4{fill:#E09122;}
	.st5{fill:#FBF355;}
	.st6{fill:#EEC82F;}
	.st7{fill:#CEA628;}
	.st8{fill:#9BC9EF;}
	.st9{fill:#9DD055;}
	.st10{fill:#5686C5;}
	.st11{fill:#3B5880;}
	.st12{fill:#C2E5FB;}
	.st13{fill:#446697;}
	.st14{fill:#D1F1A0;}
	.st15{fill:#ABD170;}
	.st16{fill:#9DBD6A;}
	.st17{fill:#649D53;}
	.st18{fill:#72B35D;}
	.st19{fill:#ABD68D;}
	.st20{fill:#7FB358;}
	.st21{fill:#920C50;}
	.st22{fill:#C60053;}
	.st23{fill:#530730;}
	.st24{fill:#600332;}
	.st25{fill:#D5AC2A;}
	.st26{fill:#EFD776;}
	.st27{fill:#A7C76D;}
	.st28{fill:#A43749;}
	.st29{fill:#DC4355;}
	.st30{fill:#E18696;}
	.st31{fill:#77A255;}
	.st32{fill:#628547;}
	.st33{fill:#6E994D;}
	.st34{fill:none;stroke:#54743C;stroke-width:8;stroke-linecap:round;stroke-miterlimit:10;}
	.st35{fill:#9BCF75;}
	.st36{fill:#CA8F80;}
	.st37{fill:#E6B8AB;}
	.st38{fill:#E2A18B;}
	.st39{fill:#8E3F2B;}
	.st40{fill:#D89988;}
	.st41{fill:#CFCFCF;}
	.st42{fill:#A64B2D;}
	.st43{fill:#FFFFFF;}
	.st44{fill:#CA801F;}
	.st45{fill:#719C50;}
	.st46{fill:#85B7E5;}
	.st47{fill:#4F7BA9;}
	.st48{fill:#674C50;}
	.st49{fill:#BAD7ED;}
	.st50{fill:#63494D;}
	.st51{fill:#503D3F;}
	.st52{fill:#638547;}
	.st53{fill:#56713E;}
	.st54{fill:#BB5135;}
	.st55{fill:#93C4EC;}
	.st56{fill:#CA8121;}
	.st57{fill:#FDFCFC;}
	.st58{fill:#A83A4F;}
	.st59{fill:#BD5E44;}
	.st60{fill:#688C4A;}
	.st61{fill:#7DA55A;}
	.st62{fill:#90BA51;}
	.st63{fill:none;}
	.st64{fill:#ABC287;}
	.st65{fill:#BDD993;}
	.st66{fill:none;stroke:#534046;stroke-width:15;stroke-linecap:round;stroke-linejoin:round;stroke-miterlimit:10;}
	.st67{fill:#413133;}
	.st68{fill:#34292B;}
	.st69{fill:#644B50;}
	.st70{fill:#CDACB7;}
	.st71{fill:#A83A4D;}
	.st72{fill:#413335;}
	.st73{fill:#DC6579;}
	.st74{fill:#4C393C;}
	.st75{fill:#527FAE;}
	.st76{fill:#92C2EA;}
	.st77{fill:#5B8C4A;}
	.st78{fill:#729C51;}
	.st79{fill:#AADB5E;}
	.st80{fill:#D66C53;}
	.st81{fill:#A65340;}
	.st82{fill:#B8594A;}
	.st83{fill:#79A754;}
	.st84{fill:#4E3B3E;}
	.st85{fill:#5E4649;}
	.st86{fill:#604A50;}
	.st87{fill:#685258;}
	.st88{fill:#765E66;}
	.st89{fill:#FCF69A;}
	.st90{fill:#D3CC84;}
	.st91{fill:#E6A572;}
	.st92{fill:#74A151;}
	.st93{fill:#6F994F;}
	.st94{fill:#CC6D7D;}
	.st95{fill:#AD6576;}
	.st96{fill:#95422D;}
	.st97{fill:#BE6850;}
	.st98{fill:#3B2F32;}
	.st99{fill:none;stroke:#46383B;stroke-width:15;stroke-linecap:round;stroke-miterlimit:10;}
	.st100{fill:none;stroke:#3B2F32;stroke-width:15;stroke-linecap:round;stroke-miterlimit:10;}
	.st101{fill:#D6CF77;}
	.st102{fill:#F5EF82;}
	.st103{fill:#4A383B;}
	.st104{fill:#CACACA;}
	.st105{fill:#48373A;}
	.st106{fill:#7AA8D2;}
	.st107{fill:#6E9150;}
	.st108{fill:#587441;}
	.st109{fill:#D76E51;}
	.st110{fill:#CCC475;}
	.st111{fill:#DDD57E;}
	.st112{fill:#F8F19C;}
	.st113{fill:#FBF58A;}
	.st114{fill:#C67F20;}
	.st115{fill:#AB6B1C;}
	.st116{fill:#C98020;}
	.st117{fill:#D99A41;}
	.st118{fill:#DBA35B;}
	.st119{fill:#9B5F1B;}
	.st120{fill:#97CF6D;}
	.st121{fill:#5380B1;}
	.st122{fill:#96D16A;}
	.st123{fill:#92BD50;}
	.st124{fill:#7EB058;}
	.st125{fill:#709A50;}
	.st126{fill:#5A8A4A;}
	.st127{fill:#D9D9D9;}
	.st128{fill:#75A3CD;}
	.st129{fill:#6E974F;}
	.st130{fill:#CA6D7D;}
	.st131{fill:#AB6576;}
	.st132{fill:#93422D;}
	.st133{fill:#A44B2D;}
	.st134{fill:#BC6850;}
	.st135{fill:#DFB52B;}
	.st136{fill:#4C3A3C;}
	.st137{fill:#473538;}
	.st138{fill:#382B2E;}
	.st139{fill:none;stroke:#FFFFFF;stroke-width:8;stroke-linecap:round;stroke-miterlimit:10;}
	.st140{fill:#90C0E8;}
	.st141{fill:none;stroke:#E09122;stroke-width:12;stroke-linecap:round;stroke-miterlimit:10;}
	.st142{fill:#DCAE2B;}
	.st143{fill:#F0D05A;}
	.st144{fill:#729E51;}
	.st145{fill:#E4BA36;}
	.st146{fill:#F8F283;}
	.st147{fill:#E4B6A9;}
	.st148{fill:#D78E30;}
	.st149{fill:#598A49;}
	.st150{fill:#B65339;}
	.st151{fill:#BA751F;}
	.st152{fill:#466A9F;}
	.st153{fill:#8BB34D;}
	.st154{fill:#9BCE54;}
	.st155{fill:#7F9F49;}
	.st156{fill:#D37F6D;}
	.st157{fill:#BB5E44;}
	.st158{fill:#93BB55;}
	.st159{fill:#B3E665;}
	.st160{fill:none;stroke:#4C393C;stroke-width:8;stroke-miterlimit:10;}
	.st161{fill:#97432D;}
	.st162{fill:#DAB12A;}
	.st163{fill:#5E914C;}
	.st164{fill:#5381B3;}
	.st165{fill:#6A8F4C;}
	.st166{fill:#628047;}
	.st167{fill:#E29D37;}
	.st168{fill:#6E555B;}
	.st169{fill:#91CA67;}
	.st170{fill:#476BA1;}
	.st171{fill:#6699D9;}
	.st172{fill:#503C3E;}
	.st173{fill:#413235;}
	.st174{fill:#CC916A;}
	.st175{fill:#BA8363;}
	.st176{fill:#D09571;}
	.st177{fill:#C98F68;}
	.st178{fill:#AA3B4D;}
	.st179{fill:#DA6075;}
	.st180{fill:#92452D;}
	.st181{fill:#A24B2D;}
	.st182{fill:#B76252;}
	.st183{fill:#87BD60;}
	.st184{fill:#78A7D2;}
	.st185{fill:#F9F38F;}
	.st186{fill:#E0D650;}
	.st187{fill:#AFE086;}
	.st188{fill:#9FD476;}
	.st189{fill:#9DD176;}
	.st190{fill:#8FC468;}
	.st191{fill:#7EAE58;}
	.st192{fill:#6F9850;}
	.st193{fill:#59884A;}
	.st194{fill:#638347;}
	.st195{fill:#B95135;}
	.st196{fill:#E5AB62;}
	.st197{fill:#733228;}
	.st198{fill:#803728;}
	.st199{fill:#6D974D;}
	.st200{fill:#99CD75;}
	.st201{fill:#93412C;}
	.st202{fill:#93C2EA;}
	.st203{fill:#CD926B;}
	.st204{fill:#E6AF8A;}
	.st205{fill:#E5DB4E;}
	.st206{fill:#FBF375;}
	.st207{fill:#779E54;}
	.st208{fill:#D3966D;}
	.st209{fill:#DA4355;}
	.st210{fill:#A83B4D;}
	.st211{fill:none;stroke:#594144;stroke-width:8;stroke-linecap:round;stroke-miterlimit:10;}
	.st212{fill:#E5A855;}
	.st213{fill:#EAC291;}
	.st214{fill:#96C252;}
	.st215{fill:#695055;}
	.st216{fill:#DC9C42;}
	.st217{fill:#8E5C1B;}
	.st218{fill:#F4EB6A;}
	.st219{fill:#CBC049;}
	.st220{fill:none;stroke:#B8E876;stroke-width:15;stroke-linecap:round;stroke-miterlimit:10;}
	.st221{fill:#A36A1C;}
	.st222{fill:#ECC94A;}
	.st223{fill:#91BEDA;}
	.st224{fill:#3D2F32;}
	.st225{fill:#A6394C;}
	.st226{fill:#33292B;}
	.st227{fill:#4F3D42;}
	.st228{fill:#638147;}
	.st229{fill:#CD8321;}
	.st230{fill:#D3CA4A;}
	.st231{fill:#E2A550;}
	.st232{fill:#B75135;}
	.st233{fill:#D4CD77;}
	.st234{fill:#F3EC80;}
	.st235{fill:#46383B;}
	.st236{fill:#82AA61;}
	.st237{fill:#8EBF69;}
	.st238{fill:#3C2E31;}
	.st239{fill:#C49F27;}
	.st240{fill:#D2BF7C;}
	.st241{fill:#F6E18D;}
	.st242{fill:#D6D6D6;}
	.st243{fill:#B5D7F2;}
	.st244{fill:#F1D467;}
	.st245{fill:#739FBD;}
	.st246{fill:#D0946C;}
	.st247{fill:#BE8767;}
	.st248{fill:#D0A829;}
	.st249{fill:#F6DF86;}
	.st250{fill:#EABA8D;}
	.st251{fill:#F0D1B8;}
	.st252{fill:#A5D0F1;}
	.st253{fill:#E3A13F;}
	.st254{fill:#F0FAFF;}
	.st255{fill:#B4D3E3;}
	.st256{fill:#80A5C3;}
	.st257{fill:#87AFD5;}
	.st258{fill:#B1D1E7;}
	.st259{fill:#AED66F;}
	.st260{fill:#91AA61;}
	.st261{fill:#A8384B;}
	.st262{fill:#CD8120;}
	.st263{fill:#E6AD56;}
	.st264{fill:none;stroke:#E6AD56;stroke-width:8;stroke-linecap:round;stroke-miterlimit:10;}
	.st265{fill:#9EBD68;}
	.st266{fill:#AAD16E;}
	.st267{fill:#86656B;}
	.st268{fill:#6D954D;}
	.st269{fill:#98CB75;}
	.st270{fill:#75A251;}
	.st271{fill:#91BD4F;}
	.st272{fill:none;stroke:#B8E078;stroke-width:8;stroke-linecap:round;stroke-miterlimit:10;}
	.st273{fill:none;stroke:#B8E078;stroke-width:8;stroke-linecap:round;stroke-linejoin:round;stroke-miterlimit:10;}
	.st274{fill:#8FBA4E;}
	.st275{fill:#B3E860;}
	.st276{fill:#E7A748;}
	.st277{fill:none;stroke:#B6E676;stroke-width:15;stroke-linecap:round;stroke-miterlimit:10;}
	.st278{fill:#639B53;}
	.st279{fill:#476B9F;}
	.st280{fill:#82B1DE;}
	.st281{fill:#A6533F;}
	.st282{fill:#C28A69;}
	.st283{fill:#64494E;}
	.st284{fill:#77565C;}
	.st285{fill:#4F3C40;}
	.st286{fill:#ECCCB1;}
	.st287{fill:#BF6F5C;}
	.st288{fill:none;stroke:#D4F1A7;stroke-width:10;stroke-linecap:round;stroke-miterlimit:10;}
	.st289{fill:none;stroke:#B8E876;stroke-width:10;stroke-linecap:round;stroke-miterlimit:10;}
	.st290{fill:#47688F;}
	.st291{fill:#3F5B78;}
	.st292{fill:#354E6C;}
	.st293{fill:#DAB12B;}
	.st294{fill:#C8A028;}
	.st295{fill:#F0D15C;}
	.st296{fill:#F8F28B;}
	.st297{fill:#F7F18D;}
	.st298{fill:#DED450;}
	.st299{fill:#F9F155;}
	.st300{fill:#A2CFF4;}
	.st301{fill:none;stroke:#594144;stroke-width:10;stroke-linecap:round;stroke-miterlimit:10;}
	.st302{fill:#F5F0AB;}
	.st303{fill:#496DA1;}
	.st304{fill:#5A85C7;}
	.st305{fill:#D7D7D7;}
	.st306{fill:#ADD3E6;}
	.st307{fill:#98B8C3;}
	.st308{fill:#CDCECF;}
	.st309{fill:#BF4F69;}
	.st310{fill:#A83448;}
	.st311{fill:#A4DAF7;}
	.st312{fill:#81A861;}
	.st313{fill:#82A549;}
	.st314{fill:#B6E676;}
	.st315{fill:#8CBD69;}
	.st316{fill:#ECC62F;}
	.st317{fill:#F4EA80;}
	.st318{fill:#D6AD2B;}
	.st319{fill:#6F9151;}
	.st320{fill:#46699C;}
	.st321{fill:#4A373A;}
	.st322{fill:#89B04C;}
	.st323{fill:#99CC53;}
	.st324{fill:#B1E465;}
	.st325{fill:#E19E3B;}
	.st326{fill:#C05970;}
	.st327{fill:#D95F74;}
	.st328{fill:#74A8DE;}
	.st329{fill:#C47C1E;}
	.st330{fill:#719A51;}
	.st331{fill:#A8D95E;}
	.st332{fill:#D46C53;}
	.st333{fill:#A45340;}
	.st334{fill:#B6594A;}
	.st335{fill:#79A554;}
	.st336{fill:#B6DAF7;}
	.st337{fill:#739F51;}
	.st338{fill:#DDB32B;}
	.st339{fill:#DE8F22;}
	.st340{fill:none;stroke:#46383B;stroke-width:8;stroke-linecap:round;stroke-miterlimit:10;}
	.st341{fill:none;stroke:#3B2F32;stroke-width:8;stroke-linecap:round;stroke-miterlimit:10;}
	.st342{fill:#C8C8C8;}
	.st343{fill:#7F9D49;}
	.st344{fill:#BA5E44;}
	.st345{fill:#92B955;}
	.st346{fill:#D17F6D;}
	.st347{fill:#5D8F4C;}
	.st348{fill:#B75334;}
	.st349{fill:#CA6D57;}
	.st350{fill:#A4574D;}
	.st351{fill:#7FB1E6;}
	.st352{fill:#77A3CD;}
	.st353{fill:#90BA4F;}
	.st354{fill:#5C8F4B;}
	.st355{fill:#ACDE5D;}
	.st356{fill:#6FAC5A;}
	.st357{fill:none;stroke:#9DD055;stroke-width:10;stroke-linecap:round;stroke-miterlimit:10;}
	.st358{fill:#AD5643;}
	.st359{fill:#B96052;}
	.st360{fill:#CB8D84;}
	.st361{fill:#CC6C56;}
	.st362{fill:#DE9A8E;}
	.st363{fill:#D37B6A;}
	.st364{fill:#A87758;}
	.st365{fill:#372A2C;}
	.st366{fill:#B8815C;}
	.st367{fill:#433335;}
	.st368{fill:#2C2325;}
	.st369{fill:#95402B;}
	.st370{fill:#A85441;}
	.st371{fill:#D2C74B;}
	.st372{fill:#B25945;}
	.st373{fill:none;stroke:#594144;stroke-width:15;stroke-linecap:round;stroke-miterlimit:10;}
	.st374{fill:none;stroke:#594144;stroke-width:12;stroke-linecap:round;stroke-miterlimit:10;}
	.st375{fill:#8F473B;}
	.st376{fill:#453538;}
	.st377{fill:#517DAB;}
	.st378{fill:#75A050;}
	.st379{fill:#A5384D;}
	.st380{fill:#CC6075;}
	.st381{fill:#F26B7F;}
	.st382{fill:#C67189;}
	.st383{fill:#B26980;}
	.st384{fill:#D87990;}
	.st385{fill:#F2869B;}
	.st386{fill:#EF8499;}
	.st387{fill:#649CD7;}
	.st388{fill:#639CDB;}
	.st389{fill:#C8ED8D;}
	.st390{fill:#A9DB83;}
	.st391{fill:#9BCF76;}
	.st392{fill:#7EAC58;}
	.st393{fill:#8CC463;}
	.st394{fill:#7FAC5B;}
	.st395{fill:#769C55;}
	.st396{fill:#6A894D;}
	.st397{fill:#769B56;}
	.st398{fill:#9BCC75;}
	.st399{fill:#AF5641;}
	.st400{fill:#F4D576;}
	.st401{fill:#76A055;}
	.st402{fill:#628347;}
	.st403{fill:#4F7B9F;}
	.st404{fill:#466D86;}
	.st405{fill:#4D789C;}
</style>
<g id="BULINE">
	<circle id="XMLID_1688_" class="st1" cx="256" cy="256" r="256"/>
</g>
<g id="Icons">
	<g id="XMLID_2577_">
		<path id="XMLID_2621_" class="st184" d="M393.9,93.9c-1.2-0.7-2.5-1.3-3.8-1.7c-1.1-0.3-2.2-0.6-3.4-0.7c-0.5-0.1-1-0.1-1.5-0.1
			c-2.1,0-4,0.4-5.9,1.1c-0.3-1.6-0.7-3.1-1.2-4.5c-2.9-7.6-9.3-13.4-17.3-15.4c-1.9-0.5-4-0.7-6-0.7h-0.2c-0.7-5.4-3.9-10-8.4-12.6
			c-2.5-1.4-5.4-2.3-8.5-2.3c-1.1,0-2.1,0.1-3.1,0.3c-0.2-3.1-1.3-6-3.2-8.2c-2.5-3-6.3-4.9-10.6-4.9c-5.9,0-10.9,3.7-12.9,8.9
			c-0.5,1.5-0.9,3-0.9,4.7c-0.2-0.2-0.3-0.4-0.5-0.6c-2.8-2.9-6.7-4.7-11-4.7c-3.7,0-7.1,1.3-9.8,3.5c-3.3,2.8-5.5,7-5.5,11.7
			c0,0.2,0,0.4,0,0.6c-0.9-0.4-1.8-0.6-2.8-0.8c-0.6-0.1-1.1-0.1-1.7-0.1c-5.3,0-9.8,3.5-11.3,8.2c-10.9,0.1-20.1,7.1-23.5,16.9
			c-0.9,2.5-1.3,5.3-1.3,8.1c0,3.2,0.6,6.2,1.7,9c3.6,9.4,12.7,16.1,23.4,16.1h120.7c0.5,0,1,0,1.5-0.1c4.7-0.4,8.8-2.7,11.6-6.1
			c0.2-0.2,0.4-0.5,0.6-0.8c0.3-0.4,0.6-0.8,0.8-1.2c1.6-2.6,2.5-5.7,2.5-9C402.2,102.4,398.9,96.9,393.9,93.9z M330,103.2
			c0.1-0.1,0.2-0.2,0.3-0.3c0,0.1,0,0.2,0.1,0.3H330z"/>
		<path id="XMLID_2617_" class="st184" d="M188.5,187c-1.1-4.4-4-8.1-7.8-10.4c-2.1-1.3-4.5-2.1-7.1-2.3c0,0-0.1,0-0.1,0
			c-0.5-0.1-1-0.1-1.5-0.1c-2.1,0-4,0.4-5.9,1.1c-0.3-1.6-0.7-3.1-1.2-4.5c-2.9-7.6-9.4-13.4-17.3-15.4c-1.9-0.5-4-0.7-6.1-0.7h-0.2
			c-0.7-5.4-3.9-10-8.4-12.6l-0.4-0.2c-2.4-1.3-5.2-2.1-8.1-2.1c-1.1,0-2.1,0.1-3.1,0.3c-0.2-3.1-1.3-6-3.2-8.2
			c-2.5-3-6.3-4.9-10.6-4.9c-4,0-7.6,1.7-10.1,4.4c-1.2,1.3-2.2,2.9-2.9,4.5c-0.6,1.5-0.9,3-0.9,4.7c-0.2-0.2-0.3-0.4-0.5-0.6
			c-2.8-2.9-6.6-4.7-11-4.7c-3.7,0-7.1,1.3-9.8,3.5c-3.4,2.8-5.5,7-5.5,11.7c0,0.2,0,0.4,0,0.5c-1.4-0.6-2.9-0.9-4.5-0.9
			c-5.3,0-9.8,3.5-11.3,8.2c-13.7,0.1-24.8,11.3-24.8,25c0,3.2,0.6,6.2,1.7,9c3.6,9.4,12.7,16,23.3,16h120.8c0.5,0,1,0,1.5-0.1
			c5.5-0.5,10.3-3.6,13.1-8.1c0.1-0.2,0.2-0.4,0.3-0.6c1.4-2.5,2.2-5.3,2.2-8.4C189,189.9,188.8,188.4,188.5,187z M117.1,185.6
			c0,0.1,0,0.2,0.1,0.3h-0.4C116.9,185.8,117,185.8,117.1,185.6z"/>
		<path id="XMLID_2616_" class="st185" d="M106.6,151.2c0,11.5-17.7,25.7-14.3,36.1c3.5,10.8,26.3,11.8,32.8,20.8
			c6.6,9.1,0.6,31,9.7,37.6c9,6.5,28-5.9,38.7-2.4c10.4,3.4,18.4,24.7,29.9,24.7c11.5,0,19.5-21.3,29.9-24.7
			c10.8-3.5,29.8,8.9,38.7,2.4c9.1-6.6,3.1-28.5,9.7-37.6c6.5-9,29.3-10,32.8-20.8c3.4-10.4-14.3-24.6-14.3-36.1
			c0-11.5,17.7-25.7,14.3-36.1c-3.5-10.8-26.3-11.8-32.8-20.8c-6.6-9.1-0.6-31-9.7-37.6c-9-6.5-28,5.9-38.7,2.4
			C223,55.7,215,34.3,203.5,34.3c-11.5,0-19.5,21.3-29.9,24.7c-10.8,3.5-29.8-8.9-38.7-2.4c-9.1,6.6-3.1,28.5-9.7,37.6
			c-6.5,9-29.3,10-32.8,20.8C88.9,125.5,106.6,139.7,106.6,151.2z"/>
		<path id="XMLID_2615_" class="st186" d="M275.6,154.4c0,33-22.2,60.8-52.4,69.4c-6.3,1.8-12.9,2.7-19.7,2.7
			c-39.8,0-72.1-32.3-72.1-72.1c0-39.8,32.3-72.1,72.1-72.1c6.8,0,13.4,1,19.7,2.7C253.4,93.5,275.6,121.4,275.6,154.4z"/>
		<path id="XMLID_2614_" class="st5" d="M275.6,154.4c0,33-22.2,60.8-52.4,69.4c-30.3-8.6-52.4-36.4-52.4-69.4
			c0-33,22.2-60.8,52.4-69.4C253.4,93.5,275.6,121.4,275.6,154.4z"/>
		<path id="XMLID_2707_" class="st187" d="M512,256c0,13.6-1.1,27-3.1,40.1c-0.1,0.8-0.2,1.5-0.4,2.3l-110.1,3.6h0l-4.7,0.2
			l-7.1,0.2l-1.3-1.1l-7.7-6.7l-0.1,0L369,287c0,0,0,0,0,0l-3.2-2.8l-4.6-4l-10.1-8.8l-21.5-18.7l-10-3.9l-12.3-4.8l-20.1-7.9
			c0,0-0.1,0-0.1,0l-7.8-3.1l-1.8-0.7l-38.5-15.1l-14.5-5.7c5.1-6.4,10.7-12.4,16.6-18.1c10.1-9.7,21.3-18.3,33.1-25.9
			c8.4-5.4,17.1-10.3,26-14.8c23.7-11.9,48.7-20.6,72.3-27c8.7-2.4,17.3-4.4,25.5-6.1c0.4-0.1,0.8-0.2,1.2-0.2
			c2.8-0.6,5.5-1.1,8.1-1.7c5.7-1.1,11.2-2.1,16.4-2.9c17.1-2.8,31.7-4.3,42-5.2c3,4.3,5.9,8.6,8.6,13.1c4.4,7.2,8.5,14.6,12.1,22.3
			c8.5,17.6,15,36.3,19.3,55.9c1.3,6.1,2.5,12.4,3.4,18.7c0.2,1.4,0.4,2.9,0.6,4.3c0.4,3,0.7,6.1,1,9.1c0.6,6.1,0.9,12.3,1,18.6
			c0,0.7,0,1.3,0,1.9C512,254.2,512,255.1,512,256z"/>
		<path id="XMLID_2681_" class="st188" d="M512,256c0,13.6-1.1,27-3.1,40.1c-0.1,0.8-0.2,1.5-0.4,2.3l-110.1,3.6h0l-4.7,0.2
			l-3.1-2.7l-8.8-7.6l-2.5-2.2l-2.9-2.5h0l-1.8-1.6l-4.5-1.8l-8.9-3.5l-19.6-7.7l-22-8.6l-20-7.9l-27.1-10.6l-3-1.2
			c2.4-3,4.9-5.9,7.5-8.8c0.5-0.6,1.1-1.2,1.7-1.8c0.2-0.2,0.4-0.4,0.6-0.6c8-8.4,16.7-16,25.9-23c0.2-0.2,0.5-0.3,0.7-0.5
			c7.9-5.9,16.2-11.3,24.8-16.2c3.6-2.1,7.2-4,10.9-5.9c19.9-10.3,40.7-18.3,61-24.5c0,0,0,0,0,0c0.7-0.2,1.4-0.4,2.1-0.6
			c5.2-1.6,10.4-3,15.6-4.4c24.8-6.5,47.9-10.5,66.3-12.9c8.5,17.6,15,36.3,19.3,55.9c1.3,6.1,2.5,12.4,3.4,18.7
			c0.2,1.4,0.4,2.9,0.6,4.3c0.4,3,0.7,6.1,1,9.1c0.6,6.1,0.9,12.3,1,18.6c0,0.7,0,1.3,0,1.9C512,254.2,512,255.1,512,256z"/>
		<path id="XMLID_2713_" class="st189" d="M512,256c0,13.6-1.1,27-3.1,40.1c-0.1,0.8-0.2,1.5-0.4,2.3c-1.3,7.8-2.9,15.4-4.9,23
			c-0.3,1-0.5,2-0.8,3c-8.8,31.9-23.6,61.3-43.2,86.9c-4.1,5.4-8.4,10.6-12.9,15.6c-6.2,6.9-12.7,13.5-19.6,19.7
			c-1.2,1.1-2.3,2.1-3.5,3.1c-6.9,5.9-14.1,11.5-21.5,16.7c-1.6,1.1-3.1,2.2-4.7,3.2C356.8,496.4,308.2,512,256,512
			c-2.9,0-5.8-0.1-8.7-0.1c-9.9-0.3-19.7-1.2-29.2-2.6c-20.7-3.1-40.5-8.6-59.2-16.3c-0.6-0.3-1.3-0.5-1.9-0.8
			c-8-3.3-15.7-7.1-23.2-11.2c-13.6-7.4-26.4-16-38.3-25.6c-8.4-6.7-16.3-14-23.7-21.7c-21-21.8-38.2-47.4-50.5-75.6
			c-8.3-19.2-14.4-39.5-17.8-60.8c-1.5-9.5-2.6-19.1-3-28.9C0.1,264.2,0,260.1,0,256c0-6.8,0.3-13.5,0.8-20.1
			c10.9-7.6,27.8-18.1,50.3-27.4c13.6-5.6,29.1-10.8,46.6-14.8c12.8-2.9,26.7-5.2,41.5-6.4c12.3-1,25.4-1.4,39-0.8h0
			c3.4,0.1,6.8,0.3,10.2,0.6c9.1,0.6,18.5,1.7,28.1,3.2c0,0,9.4,0.5,24.6,3.1c5.9,1,12.7,2.3,20.2,3.9c7.8,1.8,16.3,3.9,25.3,6.6
			c6,1.8,12.2,3.8,18.6,6.1c0.5,0.2,1,0.4,1.5,0.5h0c2.4,0.9,4.9,1.8,7.4,2.8c5.2,2,10.4,4.2,15.8,6.6c3.1,1.4,6.2,2.8,9.3,4.3
			c3.8,1.8,7.5,3.7,11.3,5.8c6.1,3.2,12.1,6.7,18.1,10.5c3,1.9,6,3.8,8.9,5.8c2.8,1.9,5.7,3.7,8.7,5.4c5.8,3.2,11.8,5.8,18.1,7.9
			c1.1,0.4,2.2,0.7,3.3,1c4.3,1.2,9.1,2.4,14.2,3.3c1.7,0.3,3.4,0.6,5.1,0.8h0c0.1,0,0.2,0,0.3,0c7.8,1,16.2,1.4,24.6,0.4h0
			c7.9-0.9,15.9-3,23.4-6.7h0c1.6-0.8,3.2-1.6,4.7-2.6c2.9-1.8,5.7-3.8,8.4-6.1c2.6-2.2,5.1-4.8,7.5-7.6c4-4.7,7.6-10.3,10.8-16.8
			c0.9-1.8,1.8-3.8,2.6-5.8l0,0c0.2,1.4,0.4,2.9,0.6,4.3c0.4,3,0.7,6.1,1,9.1c0.6,6.1,0.9,12.3,1,18.6c0,0.7,0,1.3,0,1.9
			C512,254.2,512,255.1,512,256z"/>
		<path id="XMLID_2623_" class="st190" d="M512,256c0,13.6-1.1,27-3.1,40.1c-0.1,0.8-0.2,1.5-0.4,2.3c-1.3,7.8-2.9,15.4-4.9,23
			c-0.3,1-0.5,2-0.8,3c-8.8,31.9-23.6,61.3-43.2,86.9c-4.1,5.4-8.4,10.6-12.9,15.6c-6.2,6.9-12.7,13.5-19.6,19.7
			c-1.2,1.1-2.3,2.1-3.5,3.1c-6.9,5.9-14.1,11.5-21.5,16.7c-1.6,1.1-3.1,2.2-4.7,3.2C356.8,496.4,308.2,512,256,512
			c-2.9,0-5.8-0.1-8.7-0.1c-9.9-0.3-19.7-1.2-29.2-2.6c-20.7-3.1-40.5-8.6-59.2-16.3c-0.6-0.3-1.3-0.5-1.9-0.8
			c-8-3.3-15.7-7.1-23.2-11.2c-13.6-7.4-26.4-16-38.3-25.6c-8.4-6.7-16.3-14-23.7-21.7c-21-21.8-38.2-47.4-50.5-75.6
			c-8.3-19.2-14.4-39.5-17.8-60.8c-1.5-9.5-2.6-19.1-3-28.9c20.8-14.8,64.9-40.3,128.2-47.9c13-1.6,26.8-2.3,41.3-2.1
			c14.8,0.2,30.4,1.5,46.8,4c0,0,0.8,0,2.3,0.2h0c1.5,0.1,3.7,0.3,6.5,0.7h0c10.4,1.2,29.1,4,52,10.2c0.4,0.1,0.9,0.2,1.4,0.4
			c2.7,0.8,5.5,1.6,8.4,2.4c0,0,0.1,0,0.1,0c6.8,2,13.9,4.4,21.1,7c3.8,1.4,7.7,2.9,11.6,4.5c14.7,6,29.9,13.4,45,22.5
			c4.3,2.6,8.5,5.3,12.8,8.2c1.5,1,3,2,4.6,2.9c1.3,0.8,2.6,1.5,3.9,2.2c0,0,0,0,0,0c1.2,0.7,2.5,1.4,3.7,2h0
			c4.8,2.4,9.8,4.5,14.9,6.1c1,0.3,2,0.6,3,0.9c21,6,53.5,10.4,78.2-8.8c3.3-2.6,6.5-5.6,9.5-9c2-2.3,3.8-4.7,5.6-7.4
			c2.8-4.2,5.3-8.9,7.6-14.1c0.2-0.6,0.5-1.2,0.8-1.8l1.1,0.8l1.5,1.1C512,254.2,512,255.1,512,256z"/>
		<path id="XMLID_2622_" class="st191" d="M508.9,296.1c-0.1,0.8-0.2,1.5-0.4,2.3c-1.3,7.8-2.9,15.4-4.9,23c-0.3,1-0.5,2-0.8,3
			c-8.8,31.9-23.6,61.3-43.2,86.9c-4.1,5.4-8.4,10.6-12.9,15.6c-6.2,6.9-12.7,13.5-19.6,19.7c-1.2,1.1-2.3,2.1-3.5,3.1
			c-6.9,5.9-14.1,11.5-21.5,16.7c-1.6,1.1-3.1,2.2-4.7,3.2C356.8,496.4,308.2,512,256,512c-2.9,0-5.8-0.1-8.7-0.1
			c-9.9-0.3-19.7-1.2-29.2-2.6c-20.7-3.1-40.5-8.6-59.2-16.3c-0.6-0.3-1.3-0.5-1.9-0.8c-8-3.3-15.7-7.1-23.2-11.2
			c-13.6-7.4-26.4-16-38.3-25.6c-8.4-6.7-16.3-14-23.7-21.7c-21-21.8-38.2-47.4-50.5-75.6c-8.3-19.2-14.4-39.5-17.8-60.8
			c10.1-13,47.3-52.5,128.9-54.4c9.2-0.2,18.9,0.1,29.2,0.9h0c5.2,0.4,10.5,1,16,1.7h0c7.8,1,15.8,2.3,24.2,4
			c6.4,1.3,13,2.8,19.8,4.5c6.1,1.5,12.4,3.2,18.8,5.1c0,0,6.4,2.3,16.3,5.2c2,0.6,4.1,1.2,6.4,1.8c12.4,3.4,25.1,5.6,37.9,6.8
			c4,0.4,8.1,0.6,12.1,0.7h0c9.6,0.3,19.3,0,28.9-0.9c1.9-0.2,3.7-0.4,5.6-0.6c1.3-0.2,2.6-0.3,3.9-0.5c4.2-0.5,8.8-0.9,13.8-1.3
			c10.5-0.8,22.4-1.4,35-1.3c0.9,0,1.8,0,2.7,0c6.4,0.1,12.9,0.4,19.6,0.9c0,0,0,0,0,0c0.1,0,0.1,0,0.2,0c0.4,0,0.9,0.1,1.3,0.1
			c10.7,0.9,21.6,2.4,32.3,4.7c10.3,2.2,20.4,5.2,30,9.2C494.1,287.1,501.8,291.2,508.9,296.1z"/>
		<path id="XMLID_2058_" class="st154" d="M446.7,426.8c-6.2,6.9-12.7,13.5-19.6,19.7c-1.2,1.1-2.3,2.1-3.5,3.1l-31.2,5l-11.1,1.8
			l-6.6,1.1l-34.8,5.6l-80.3,12.8h0l-5,0.8l-90.2,14.4h0l-5,0.8l-2.4,0.4c-8-3.3-15.7-7.1-23.2-11.2c-13.6-7.4-26.4-16-38.3-25.6
			c-8.4-6.7-16.3-14-23.7-21.7c-21-21.8-38.2-47.4-50.5-75.6c4.6-2.7,9.8-4.9,15.6-6.6c0,0,64.2-24.8,148.4-36.5
			c5.6-0.8,11.3-1.5,17-2.2c3.1-0.4,6.2-0.7,9.3-1c5.6-0.6,11.2-1,16.9-1.4c0.5,0,1-0.1,1.5-0.1c2.6-0.2,5.2-0.3,7.8-0.5
			c5-0.3,10-0.5,15.1-0.6c3.1-0.1,6.2-0.2,9.3-0.2c13.6-0.2,27.3,0.2,41,1.2c4.5,0.3,5.3,6.6,1,8.1l-38,12.8l-4,1.4l-8.3,2.8
			c-1.5,0.5-2.3,1.6-2.5,2.8c-0.3,2,1,4.3,3.6,4.3l4.6,0.1l13.8,0.1l34.2,0.4l10.2,0.1l33.3,0.4l17.5,0.2l0.9,0l19,0.2l6.5,9.2
			l4.2,6l17.5,24.9l22.5,32.1L446.7,426.8z"/>
		<path id="XMLID_1916_" class="st192" d="M170.7,463c1.4,5,5.2,10.4,3.7,14.7c-1.5,4.7-8,6.8-12.1,10.1l0,0c-0.8,0.6-1.5,1.3-2,2.1
			c-0.4,0.5-0.7,1.1-1,1.8c-0.2,0.4-0.3,0.8-0.5,1.2c-0.6-0.3-1.3-0.5-1.9-0.8c-8-3.3-15.7-7.1-23.2-11.2
			c-13.6-7.4-26.4-16-38.3-25.6c-8.4-6.7-16.3-14-23.7-21.7c2.1-1.3,4-2.6,5.2-4.3c3.4-4.7,2.5-13.8,7.2-17.2
			c4.6-3.4,13,0.2,18.6-1.6c5.4-1.7,10-9.6,16-9.6c5.8,0,10.3,7.5,15.5,9.5c0.1,0.1,0.3,0.1,0.4,0.2c1.1,0.4,2.3,0.5,3.5,0.5
			c5.2,0.1,11.3-1.7,15,1c4.7,3.4,3.8,12.5,7.2,17.2c0,0,0.1,0.1,0.1,0.1c3.4,4.6,12.2,6.5,14,12.1c1.8,5.4-4.3,12.2-4.3,18.1
			C170.2,460.7,170.4,461.9,170.7,463z"/>
		<path id="XMLID_2606_" class="st191" d="M274.6,431.7c0,7.5,7.6,16.2,5.4,23c-2.3,7-13.6,9.5-17.9,15.4
			c-4.3,5.9-3.2,17.5-9.2,21.8c-5.9,4.3-16.5-0.3-23.5,2c-0.2,0.1-0.4,0.1-0.6,0.2c-6.6,2.5-12.3,12-19.6,12
			c-7.5,0-13.4-10-20.2-12.2c-7-2.3-17.7,2.3-23.5-2c-5.9-4.3-4.8-15.8-9.2-21.8c-4.3-5.9-15.6-8.4-17.9-15.4
			c-2.2-6.8,5.4-15.5,5.4-23c0-7.5-7.6-16.2-5.4-23c2.3-7,13.6-9.5,17.9-15.4c4.3-5.9,3.2-17.5,9.2-21.8c5.9-4.3,16.5,0.3,23.5-2
			c6.8-2.2,12.7-12.2,20.2-12.2c7.3,0,13.1,9.5,19.6,12c0.2,0.1,0.4,0.1,0.6,0.2c7,2.3,17.7-2.3,23.5,2c5.9,4.3,4.8,15.8,9.2,21.8
			c4.3,5.9,15.6,8.4,17.9,15.4C282.2,415.5,274.6,424.2,274.6,431.7z"/>
		<path id="XMLID_1934_" class="st192" d="M502.8,324.3c-8.8,31.9-23.6,61.3-43.2,86.9c-4.1,5.4-8.4,10.6-12.9,15.6
			c-6.2,6.9-12.7,13.5-19.6,19.7c-1.2,1.1-2.3,2.1-3.5,3.1c-6.9,5.9-14.1,11.5-21.5,16.7c-2.2-0.4-4.4-0.7-6.7-0.7
			c-0.1,0-0.3,0-0.4,0c-3.6,0.1-7.7,0.9-11.8,1.9c-1.7,0.4-3.5,0.9-5.3,1.4c-1.9,0.5-3.8,1.1-5.7,1.6c-7.3,2-14.4,3.6-20,2.4
			c-0.5-0.1-1.1-0.2-1.5-0.4c-5.2-1.6-8.1-5.5-10.8-9.6c-2.7-4.1-5.2-8.3-9.6-10.6c-9.1-4.8-30.1-3.1-36-10
			c-3.9-4.6,0.2-11.9,2.6-18.8c1.1-3.3,1.9-6.4,1.3-9.1c-0.2-1.1-0.7-2.1-1.4-3.2c-1.7-2.8-4.6-5.4-7.3-8c-0.4-0.4-0.8-0.8-1.2-1.2
			c-3.7-3.6-6.7-7.2-5.6-11.2c0-0.1,0.1-0.3,0.1-0.4c0.9-2.8,3.5-5.4,6.8-8c2-1.6,4.3-3.1,6.7-4.7c5.7-3.8,11.7-7.5,14.6-11.4
			c5-6.7,2.9-16.1,6.8-23.3c0,0,0-0.1,0.1-0.1c0.9-1.7,2.2-3.3,4.1-4.6c6.2-4.7,17.1-6,27.2-7.8c4.2-0.8,8.2-1.6,11.8-2.9
			c0.9-0.3,1.8-0.7,2.7-1.1c1.1-0.5,2.1-1,3.1-1.7c2.4-1.4,4.6-3.1,6.8-4.9c0.7-0.6,1.4-1.2,2.1-1.8c3.4-2.9,6.7-6,10.4-8.5
			c3.2-2.2,6.8-4,10.7-4.9c0.9-0.2,1.8-0.4,2.8-0.5c1.5-0.2,2.9-0.2,4.4-0.2c10.6,0.4,21,5.9,31.1,6.1c0.3,0,0.7,0,1,0
			c13.2-0.3,31.1-9.7,42.7-7.3c11,2.3,12.5,14.1,20.3,19.6c0,0,0,0,0,0c0.5,0.4,1.1,0.7,1.6,1C501.4,323.7,502.1,324,502.8,324.3z"
			/>
		<path id="XMLID_1912_" class="st193" d="M503.6,321.3c-0.3,1-0.5,2-0.8,3c-8.8,31.9-23.6,61.3-43.2,86.9
			c-4.1,5.4-8.4,10.6-12.9,15.6c-6.2,6.9-12.7,13.5-19.6,19.7c-0.2,0-0.4-0.1-0.6-0.1c-5.1-0.8-9.8-1.7-12.6-3.8
			c-0.5-0.4-0.9-0.8-1.3-1.2c-2.5-2.9-1.2-7.2,0.5-11.7c1.7-4.4,3.7-8.9,2.9-12.6c0,0,0,0,0,0c-0.2-1.1-0.8-2.2-1.5-3.2
			c-1.9-2.8-5.2-5.5-7.8-8.2c-2.9-2.9-5-5.8-4.2-9c0.7-2.5,2.9-4.8,5.8-7.1c2.5-2,5.5-3.9,8.4-5.8c4.2-2.8,8.2-5.5,10.4-8.4
			c5.5-7.3,1.2-18.1,9.5-24.4c8.2-6.2,25.8-5.5,36.3-10.2c9.4-4.2,16.1-14.7,26.4-18.3c0,0,0,0,0,0c0.8-0.3,1.6-0.5,2.4-0.7
			C502.2,321.5,502.9,321.4,503.6,321.3z"/>
		<path id="XMLID_2069_" class="st154" d="M459.6,411.2c-4.1,5.4-8.4,10.6-12.9,15.6c-6.2,6.9-12.7,13.5-19.6,19.7
			c-1.2,1.1-2.3,2.1-3.5,3.1c-6.9,5.9-14.1,11.5-21.5,16.7c-1.6,1.1-3.1,2.2-4.7,3.2C356.8,496.4,308.2,512,256,512
			c-2.9,0-5.8-0.1-8.7-0.1c-9.9-0.3-19.7-1.2-29.2-2.6c-20.7-3.1-40.5-8.6-59.2-16.3c-0.6-0.3-1.3-0.5-1.9-0.8
			c-8-3.3-15.7-7.1-23.2-11.2c-13.6-7.4-26.4-16-38.3-25.6c13.5-6.1,29.7-13,48-19.8v0h0c5.5-2.1,11.2-4.1,17.1-6.1
			c29.7-10.1,63.5-19.3,98.5-24.3c3.8-0.5,7.6-1,11.4-1.5c0,0,0,0,0,0c1.7-0.2,3.4-0.4,5.1-0.5h0c0.1,0,0.3,0,0.4,0
			c4.1-0.4,8.2-0.8,12.4-1.1c1.1-0.1,2.1-0.1,3.2-0.2c4.6-0.3,9.1-0.5,13.7-0.6c2.3-0.1,4.6-0.1,6.9-0.1h0c16.9,0,33.7,1.2,50.2,4.1
			c6.5,1.1,12.9,2.5,19.3,4.2h0c7.1,1.8,14,4,20.9,6.6c0,0,2.8,0.5,7.6,0.8c1.7,0.1,3.6,0.2,5.8,0.3c0.3,0,0.6,0,0.9,0
			c6.1,0.1,13.7-0.1,22.2-1.3C445.5,414.9,452.5,413.4,459.6,411.2z"/>
		<path id="XMLID_1915_" class="st191" d="M274.8,443.4c-5.6,6.8-14.1,18.7-20.2,33.1c-2.3,5.4-4.2,11.1-5.5,17
			c-0.2,1.1-0.5,2.2-0.7,3.4c-0.9,4.9-1.3,9.9-1.1,15c-9.9-0.3-19.7-1.2-29.2-2.6c-20.7-3.1-40.5-8.6-59.2-16.3
			c-0.6-0.3-1.3-0.5-1.9-0.8c-8-3.3-15.7-7.1-23.2-11.2c6.8-3.8,14.2-7.7,22.2-11.4c4.8-2.2,9.7-4.4,14.9-6.5
			c27.8-11.4,61.5-21,101.1-25.2C274.9,437.6,276.8,441.1,274.8,443.4z"/>
		<path id="XMLID_1764_" class="st193" d="M397.3,469.5C356.8,496.4,308.2,512,256,512c-2.9,0-5.8-0.1-8.7-0.1
			c-9.9-0.3-19.7-1.2-29.2-2.6c9.3-4.2,19.4-8.3,30.3-12.3c28.8-10.5,63.2-19.8,102.3-24.4c7-0.8,14.2-1.5,21.5-2c2-0.1,4-0.3,6-0.4
			c2.8-0.1,5.7-0.3,8.5-0.4h0c3.2-0.1,6.4-0.2,9.7-0.2C396.8,469.5,397,469.5,397.3,469.5z"/>
		<g id="XMLID_2582_">
			<path id="XMLID_2599_" class="st53" d="M372,205.8c1.4,2.1,3.1,3.9,5.3,5.4c9.2,6.4,21.7,4.1,28.1-5.1c0.6-0.9,1.1-1.8,1.6-2.8
				c5.4,2.5,11.6,2.5,16.8,0.1c3.2-1.4,6.1-3.8,8.3-6.9c6.4-9.2,4.1-21.8-5.1-28.1c-2.2-1.6-4.7-2.6-7.2-3.1
				c2.3-10.9-1.9-22.6-11.6-29.3c-11.8-8.2-27.6-6.2-37.1,4.1c-8.7-3.9-19.3-1.2-24.9,6.9c-2.2,3.1-3.3,6.6-3.5,10.2
				c-0.4,5.8,1.8,11.6,6.1,15.8c-1.3,1.1-2.5,2.4-3.5,3.9c-6.4,9.2-4.1,21.8,5.1,28.1C357,209.5,365.4,209.6,372,205.8z"/>
			<path id="XMLID_2598_" class="st194" d="M372,205.8c1.4,2.1,3.1,3.9,5.3,5.4c9.2,6.4,21.7,4.1,28.1-5.1c0.6-0.9,1.1-1.8,1.6-2.8
				c5.4,2.5,11.6,2.5,16.8,0.1c0.5-6.9-2.6-13.8-8.6-18c-2.2-1.6-4.7-2.6-7.2-3.1c2.3-10.9-1.9-22.6-11.6-29.3
				c-11.8-8.2-27.6-6.2-37.1,4.1c-5.4-2.4-11.4-2.3-16.6,0c-0.4,5.8,1.8,11.6,6.1,15.8c-1.3,1.1-2.5,2.4-3.5,3.9
				c-6.4,9.2-4.1,21.8,5.1,28.1C357,209.5,365.4,209.6,372,205.8z"/>
			<path id="XMLID_2173_" class="st125" d="M512,251.4c-0.5,0.3-1,0.6-1.5,0.8c-0.6,0.3-1.2,0.7-1.9,1c-2.9,1.4-5.9,2.4-8.9,3.1
				c-6.4,1.4-13.2,1.3-19.7-0.5c-0.9-0.3-1.9-0.6-2.8-0.9c-3.3-1.2-6.5-2.8-9.6-4.9c0,0-0.1-0.1-0.1-0.1c0,0-0.1-0.1-0.1-0.1
				c-1.1-0.7-2.1-1.5-3-2.4c-0.5-0.4-0.9-0.8-1.4-1.3c-0.4-0.4-0.9-0.9-1.3-1.3c-0.4-0.4-0.9-0.9-1.3-1.4c-0.9-1-1.7-2-2.4-3
				c-0.3-0.4-0.7-0.9-1-1.4c-0.3,0.2-0.6,0.4-0.9,0.5c-0.3,0.2-0.6,0.3-0.9,0.5c-0.3,0.2-0.6,0.3-0.9,0.5c-0.3,0.2-0.6,0.3-1,0.4
				c-0.6,0.3-1.3,0.6-1.9,0.8c-0.3,0.1-0.6,0.2-1,0.4c-0.3,0.1-0.6,0.2-1,0.3c-0.6,0.2-1.3,0.4-2,0.6c-0.3,0.1-0.7,0.2-1,0.3
				c-1.4,0.4-2.8,0.6-4.2,0.8c-0.3,0-0.6,0.1-0.9,0.1c-0.3,0.1-0.7,0.1-1,0.1c-0.3,0-0.6,0.1-0.9,0.1c-0.3,0-0.6,0.1-0.9,0.1
				c-0.2,0-0.5,0-0.8,0c-2.9,0.1-5.8-0.1-8.6-0.7c-0.5-0.1-1-0.2-1.5-0.3c-1.5-0.3-3-0.8-4.4-1.3c-1-0.3-1.9-0.7-2.9-1.1
				c-1.6-0.7-3.2-1.5-4.7-2.4c-0.7-0.4-1.5-0.9-2.2-1.4c0,0,0,0,0,0c-1.3-0.9-2.5-1.8-3.6-2.8l0,0c-0.1,0-0.1-0.1-0.2-0.2h0
				c-0.1-0.1-0.1-0.1-0.2-0.1c0,0,0,0,0,0c-0.4-0.3-0.8-0.7-1.1-1c-0.2-0.2-0.5-0.5-0.7-0.7c-0.2-0.2-0.5-0.5-0.8-0.8
				c-0.6-0.7-1.2-1.4-1.8-2.1c-0.2-0.2-0.3-0.4-0.4-0.6c-0.2-0.2-0.3-0.4-0.5-0.7c-0.2-0.2-0.3-0.4-0.5-0.6c0,0,0,0,0,0
				c-0.4-0.6-0.8-1.1-1.1-1.7c-0.2-0.3-0.4-0.6-0.6-0.9c-0.2-0.4-0.4-0.8-0.7-1.1c-0.1-0.2-0.2-0.3-0.3-0.5c-0.2-0.3-0.4-0.7-0.6-1
				c-0.2-0.3-0.3-0.7-0.5-1c-0.1-0.3-0.3-0.6-0.4-0.9c-0.1-0.3-0.3-0.7-0.4-1c-0.1-0.2-0.2-0.5-0.3-0.7c-0.5-1.4-1-2.7-1.4-4.1
				c-0.1-0.4-0.2-0.8-0.3-1.2c-0.1-0.1-0.1-0.3-0.1-0.4v0c-0.1-0.2-0.1-0.5-0.1-0.7c-0.1-0.4-0.2-0.8-0.2-1.2
				c-0.1-0.3-0.1-0.6-0.2-1c0-0.2-0.1-0.4-0.1-0.6c0-0.4-0.1-0.7-0.1-1.1c-0.1-0.4-0.1-0.8-0.1-1.1c0-0.4-0.1-0.8-0.1-1.1
				c-0.1-0.8-0.1-1.5-0.1-2.3c0-0.5,0-1,0-1.5c0-0.4,0-0.8,0.1-1.2c0-0.2,0-0.5,0.1-0.8c0-0.3,0.1-0.5,0.1-0.8
				c0-0.2,0.1-0.5,0.1-0.7c0-0.2,0-0.4,0.1-0.6c0-0.2,0.1-0.5,0.1-0.7c0.1-0.4,0.1-0.9,0.2-1.3c0.1-0.3,0.1-0.7,0.2-1
				c0.1-0.7,0.3-1.4,0.5-2.2c0.2-0.8,0.4-1.5,0.7-2.3c0.2-0.7,0.5-1.3,0.7-2c0.2-0.4,0.3-0.7,0.5-1.1c0.1-0.3,0.3-0.6,0.4-0.9
				c0.1-0.3,0.3-0.6,0.4-0.9c0.1-0.2,0.2-0.5,0.4-0.8c0.2-0.4,0.4-0.8,0.6-1.2c0.1-0.2,0.3-0.5,0.4-0.7c0.1-0.1,0.1-0.2,0.2-0.3
				c0.2-0.3,0.4-0.7,0.6-1c0.2-0.4,0.5-0.8,0.8-1.2c0.3-0.4,0.6-0.8,0.9-1.2c0.2-0.3,0.4-0.6,0.6-0.8c0.3-0.4,0.6-0.7,0.9-1.1
				c0.3-0.3,0.6-0.7,0.9-1c0.3-0.3,0.6-0.6,0.9-1c0.2-0.3,0.5-0.5,0.8-0.8c0.1-0.1,0.2-0.2,0.3-0.3c0.3-0.3,0.6-0.5,0.8-0.8
				c0.3-0.3,0.6-0.6,1-0.9c-0.3-0.3-0.6-0.6-0.9-0.9c-0.2-0.2-0.4-0.4-0.6-0.6c-0.3-0.3-0.6-0.6-0.9-1c0,0,0,0,0,0l0,0
				c-0.3-0.3-0.6-0.7-0.9-1.1c-0.3-0.4-0.6-0.7-0.9-1.1c-0.2-0.3-0.4-0.6-0.6-0.8c-0.2-0.3-0.4-0.6-0.6-0.9
				c-0.8-1.1-1.5-2.3-2.1-3.5c-0.1-0.1-0.1-0.2-0.2-0.3c0,0,0,0,0,0c-0.1-0.2-0.2-0.4-0.3-0.5c-0.1-0.3-0.3-0.6-0.4-0.9
				c-0.1-0.3-0.3-0.6-0.4-0.9c-0.2-0.3-0.3-0.7-0.4-1c-0.2-0.5-0.4-1.1-0.6-1.6c-0.2-0.7-0.5-1.3-0.7-2c0,0,0,0,0,0
				c-0.1-0.4-0.2-0.7-0.3-1.1l-0.1-0.6c-0.1-0.3-0.1-0.5-0.2-0.8c0-0.2-0.1-0.4-0.1-0.6c-0.1-0.6-0.2-1.1-0.3-1.7
				c-0.1-0.3-0.1-0.5-0.1-0.8c0-0.2-0.1-0.4-0.1-0.5c-0.1-0.6-0.1-1.1-0.2-1.7c0-0.4-0.1-0.8-0.1-1.2c0-0.5-0.1-0.9-0.1-1.4
				c0-0.1,0-0.1,0-0.2c0-0.4,0-0.9,0-1.4c0-0.9,0-1.9,0.1-2.8c0.2-3.1,0.7-6.1,1.6-9.1c0.6-1.8,1.2-3.6,2.1-5.4
				c0.6-1.3,1.3-2.5,2-3.8c0.5-0.7,0.9-1.5,1.4-2.2c0.7-1,1.5-2,2.3-3c4.3-5.1,9.6-8.9,15.5-11.3c10.2-4.2,21.9-4.2,32.4,0.5
				c1.6-1.7,3.3-3.4,5.1-4.8c1.9,2.5,3.7,5,5.5,7.6c3,4.3,5.9,8.6,8.6,13.1c4.4,7.2,8.5,14.6,12.1,22.3c8.5,17.6,15,36.3,19.3,55.9
				c1.3,6.1,2.5,12.4,3.4,18.7c0.2,1.4,0.4,2.9,0.6,4.3c0.4,3,0.7,6.1,1,9.1C511.5,239,511.9,245.2,512,251.4z"/>
			<path id="XMLID_2164_" class="st124" d="M512,251.4c-0.5,0.3-1,0.6-1.5,0.8c-0.6,0.3-1.2,0.7-1.9,1c-2.9,1.4-5.9,2.4-8.9,3.1
				c-6.4,1.4-13.2,1.3-19.7-0.5c-0.9-0.3-1.9-0.6-2.8-0.9c-3.3-1.2-6.5-2.8-9.6-4.9c0,0-0.1-0.1-0.1-0.1c0,0-0.1-0.1-0.1-0.1
				c-1.1-0.7-2.1-1.5-3-2.4c-0.5-0.4-0.9-0.8-1.4-1.3c-0.4-0.4-0.9-0.9-1.3-1.3c-0.4-0.4-0.9-0.9-1.3-1.4c-0.9-1-1.7-2-2.4-3
				c-0.3-0.4-0.7-0.9-1-1.4h0c-0.3,0.2-0.6,0.4-0.9,0.5c-0.3,0.2-0.6,0.3-0.9,0.5c-0.3,0.2-0.6,0.3-0.9,0.5c-0.3,0.2-0.6,0.3-1,0.4
				c-0.6,0.3-1.3,0.6-1.9,0.8c-0.3,0.1-0.6,0.2-1,0.4c-0.3,0.1-0.6,0.2-1,0.3c-0.6,0.2-1.3,0.4-2,0.6c-0.3,0.1-0.7,0.2-1,0.3
				c-1.4,0.4-2.8,0.6-4.2,0.8c-0.3,0-0.6,0.1-0.9,0.1c-0.3,0.1-0.7,0.1-1,0.1c-0.3,0-0.6,0.1-0.9,0.1c-0.3,0-0.6,0.1-0.9,0.1
				c-0.2,0-0.5,0-0.8,0c-2.9,0.1-5.8-0.1-8.6-0.7c-0.5-0.1-1-0.2-1.5-0.3c-1.5-0.3-3-0.8-4.4-1.3c-1-0.3-1.9-0.7-2.9-1.1
				c-1.6-0.7-3.2-1.5-4.7-2.4c-0.7-0.4-1.5-0.9-2.2-1.4c0,0,0,0,0,0c-1.3-0.9-2.5-1.8-3.6-2.8l0,0c-0.1-0.1-0.1-0.1-0.2-0.2h0
				c-0.1-0.1-0.1-0.1-0.2-0.1c0,0,0,0,0,0c-0.4-0.3-0.8-0.7-1.1-1c-0.2-0.2-0.5-0.5-0.7-0.7c-0.2-0.2-0.5-0.5-0.8-0.8
				c-0.6-0.7-1.2-1.4-1.8-2.1c-0.2-0.2-0.3-0.4-0.4-0.6c-0.2-0.2-0.3-0.4-0.5-0.7c-0.2-0.2-0.3-0.4-0.5-0.6c0,0,0,0,0,0
				c-0.4-0.6-0.8-1.1-1.1-1.7c-0.2-0.3-0.4-0.6-0.6-0.9c-0.2-0.4-0.4-0.8-0.7-1.1c-0.1-0.2-0.2-0.3-0.3-0.5c-0.2-0.3-0.4-0.7-0.6-1
				c-0.2-0.3-0.3-0.7-0.5-1c-0.1-0.3-0.3-0.6-0.4-0.9c-0.1-0.3-0.3-0.7-0.4-1c-0.1-0.2-0.2-0.5-0.3-0.7c-0.5-1.4-1-2.7-1.4-4.1
				c-0.1-0.4-0.2-0.8-0.3-1.2c0-0.1-0.1-0.3-0.1-0.5c-0.1-0.2-0.1-0.5-0.2-0.7c-0.1-0.4-0.2-0.8-0.2-1.2c-0.1-0.3-0.1-0.6-0.2-1
				c0-0.2-0.1-0.4-0.1-0.6c0-0.4-0.1-0.7-0.1-1.1c-0.1-0.4-0.1-0.8-0.1-1.1c0-0.4-0.1-0.8-0.1-1.1c-0.1-0.8-0.1-1.5-0.1-2.3
				c0-0.5,0-1,0-1.5c0-0.4,0-0.8,0.1-1.2c0-0.2,0-0.5,0.1-0.8c0-0.3,0.1-0.5,0.1-0.8c0-0.2,0.1-0.5,0.1-0.7c0-0.2,0-0.4,0.1-0.6
				c0-0.2,0.1-0.5,0.1-0.7c0.1-0.4,0.1-0.9,0.2-1.3c0.1-0.3,0.1-0.7,0.2-1c0.1-0.7,0.3-1.4,0.5-2.2c0.2-0.8,0.4-1.5,0.7-2.3
				c0.2-0.7,0.5-1.3,0.7-2c0.2-0.4,0.3-0.7,0.5-1.1c0.1-0.3,0.3-0.6,0.4-0.9c0.1-0.3,0.3-0.6,0.4-0.9c0.1-0.2,0.2-0.5,0.4-0.8
				c0.2-0.4,0.4-0.8,0.6-1.2c0.1-0.2,0.3-0.5,0.4-0.7c0.1-0.1,0.1-0.2,0.2-0.3c0.2-0.3,0.4-0.7,0.6-1c0.2-0.4,0.5-0.8,0.8-1.2
				c0.3-0.4,0.6-0.8,0.9-1.2c0.2-0.3,0.4-0.6,0.6-0.8c0.3-0.4,0.6-0.7,0.9-1.1c0.3-0.3,0.6-0.7,0.9-1c0.3-0.3,0.6-0.6,0.9-1
				c0.2-0.3,0.5-0.5,0.8-0.8c0.1-0.1,0.2-0.2,0.3-0.3v0c0.3-0.3,0.6-0.5,0.8-0.8c0.3-0.3,0.6-0.6,1-0.9c-0.3-0.3-0.6-0.6-0.9-0.9
				c-0.2-0.2-0.4-0.4-0.6-0.6c-0.3-0.3-0.6-0.6-0.9-1c0,0,0,0,0,0c0,0,0,0,0,0c-0.3-0.4-0.6-0.7-0.9-1.1c-0.3-0.4-0.6-0.7-0.9-1.1
				c-0.2-0.3-0.4-0.6-0.6-0.8c-0.2-0.3-0.4-0.6-0.6-0.9c-0.8-1.1-1.5-2.3-2.1-3.5c-0.1-0.1-0.1-0.2-0.2-0.3c0,0,0,0,0,0
				c-0.1-0.2-0.2-0.4-0.3-0.5c-0.1-0.3-0.3-0.6-0.4-0.9c-0.1-0.3-0.3-0.6-0.4-0.9c-0.2-0.3-0.3-0.7-0.4-1c-0.2-0.5-0.4-1.1-0.6-1.6
				c-0.2-0.7-0.5-1.3-0.7-2c0,0,0,0,0,0c-0.1-0.4-0.2-0.7-0.3-1.1l-0.1-0.6c-0.1-0.3-0.1-0.5-0.2-0.8c0-0.2-0.1-0.4-0.1-0.6
				c-0.1-0.6-0.2-1.1-0.3-1.7c-0.1-0.3-0.1-0.5-0.1-0.8c0-0.2-0.1-0.4-0.1-0.5c-0.1-0.6-0.1-1.1-0.2-1.7c0-0.4-0.1-0.8-0.1-1.2
				c0-0.5-0.1-0.9-0.1-1.4c0-0.1,0-0.1,0-0.2c0-0.4,0-0.9,0-1.4c0-0.9,0-1.9,0.1-2.8c3.9-1.8,8.1-2.9,12.4-3.4
				c7.1-0.8,14.4,0.3,21.1,3.4c11.3-12.3,27-18.7,43-18.5c4.4,7.2,8.5,14.6,12.1,22.3c8.5,17.6,15,36.3,19.3,55.9
				c1.3,6.1,2.5,12.4,3.4,18.7c0.2,1.4,0.4,2.9,0.6,4.3c0.4,3,0.7,6.1,1,9.1C511.5,239,511.9,245.2,512,251.4z"/>
			<path id="XMLID_2594_" class="st53" d="M380.1,284.4c3.1-0.1,6.2-0.7,9.2-2c12.8-5.5,18.7-20.3,13.1-33.1
				c-0.5-1.3-1.2-2.4-1.9-3.5c6.2-4.1,10.3-10.7,11.2-17.8c0.6-4.4,0-8.9-1.8-13.3c-5.5-12.8-20.4-18.7-33.1-13.1
				c-3.1,1.3-5.8,3.3-8.1,5.6c-10-9.6-25.2-12.9-38.7-7c-16.5,7.1-24.7,25.2-20.1,42c-9.9,6.6-14,19.6-9.1,30.9
				c1.9,4.4,4.8,7.9,8.4,10.5c5.9,4.2,13.5,5.8,20.8,4c0.3,2.1,0.9,4.2,1.8,6.3c5.5,12.8,20.4,18.7,33.1,13.2
				C374.2,302.8,379.8,293.9,380.1,284.4z"/>
			<path id="XMLID_2593_" class="st194" d="M380.1,284.4c3.1-0.1,6.2-0.7,9.2-2c12.8-5.5,18.7-20.3,13.1-33.1
				c-0.5-1.3-1.2-2.4-1.9-3.5c6.2-4.1,10.3-10.7,11.2-17.8c-7-5-16.3-6.3-24.7-2.7c-3.1,1.3-5.8,3.3-8.1,5.5
				c-10-9.6-25.2-12.9-38.7-7c-16.5,7.1-24.7,25.2-20.1,42c-6.1,4.1-10,10.6-10.9,17.6c5.9,4.2,13.5,5.8,20.8,4
				c0.3,2.1,0.9,4.2,1.8,6.3c5.5,12.8,20.4,18.7,33.1,13.2C374.2,302.8,379.8,293.9,380.1,284.4z"/>
			<g id="XMLID_2587_">
				<path id="XMLID_2592_" class="st195" d="M401.8,203.6c-4.5-3.1-5.7-9.4-2.5-13.9c3.1-4.5,9.4-5.7,13.9-2.5l35.1,24.4l-27.1,5.5
					L401.8,203.6z"/>
				<g id="XMLID_2588_">
					<path id="XMLID_1928_" class="st195" d="M511,232.8c-4.6,3.7-9.6,6.8-14.9,9.2c-5.1,2.3-10.5,4.1-16.1,5.2l-12.5,2.5h0
						l-26.1,5.3c0,0,0,0,0,0l-8.6,1.7l2.9-4.1l5.8-8.4l3.4-4.9l47.3-9.6c5.1-1,10-2.6,14.7-4.7c1.1-0.5,2.1-1,3.2-1.5
						C510.4,226.7,510.7,229.8,511,232.8z"/>
					<path id="XMLID_2590_" class="st195" d="M350,296c-0.6-5.5,3.3-10.4,8.8-11l5.9-0.7c2.1,2.2,5.1,3.5,8.4,3.1l14.2-1.6
						c17.4-1.9,33.1-11.3,43.1-25.7l-12.1,17.4c-10,14.4-25.7,23.8-43.1,25.7l-14.2,1.6C355.5,305.4,350.6,301.5,350,296z"/>
					<path id="XMLID_2146_" class="st133" d="M510,223.7c-1.1,0.5-2.1,1-3.2,1.5c-4.7,2.1-9.6,3.6-14.7,4.7l-47.3,9.6l-3.4,4.9
						l-5.8,8.4l-2.9,4.1l-2.2,3.2c-0.2,0.2-0.3,0.4-0.5,0.7c-0.1,0.2-0.3,0.4-0.5,0.7c-0.1,0.2-0.3,0.4-0.5,0.6
						c-0.2,0.2-0.3,0.4-0.5,0.6c-0.3,0.4-0.6,0.8-0.9,1.1c-0.2,0.3-0.4,0.5-0.7,0.8h0c-0.2,0.2-0.4,0.4-0.5,0.7
						c-0.9,1.1-1.9,2.1-2.9,3.1c-0.4,0.4-0.8,0.8-1.2,1.1c-0.1,0.1-0.1,0.1-0.2,0.2c-0.3,0.3-0.6,0.6-0.9,0.8
						c-0.4,0.3-0.7,0.7-1.1,1c-0.4,0.4-0.9,0.7-1.3,1.1c-0.3,0.2-0.6,0.5-0.9,0.7c-0.4,0.3-0.8,0.7-1.3,1c-0.2,0.1-0.4,0.3-0.6,0.4
						c-0.1,0.1-0.2,0.1-0.3,0.2c-0.1,0.1-0.2,0.1-0.3,0.2c-0.4,0.3-0.8,0.6-1.2,0.9c-0.6,0.4-1.2,0.8-1.9,1.2c0,0-0.1,0.1-0.1,0.1
						c-0.4,0.3-0.8,0.5-1.3,0.8c-0.1,0-0.1,0.1-0.2,0.1c-0.1,0.1-0.3,0.2-0.4,0.2c-0.4,0.2-0.8,0.5-1.2,0.7
						c-0.4,0.2-0.8,0.4-1.3,0.7c-0.9,0.4-1.8,0.9-2.7,1.3c-0.2,0.1-0.4,0.2-0.5,0.2c0,0,0,0,0,0c-0.2,0.1-0.4,0.1-0.6,0.2
						c-0.3,0.1-0.5,0.2-0.8,0.3c-0.3,0.1-0.5,0.2-0.8,0.3c-0.6,0.2-1.2,0.4-1.7,0.6c0,0-0.1,0-0.1,0c0,0,0,0,0,0
						c-0.3,0.1-0.6,0.2-0.9,0.3c-0.3,0.1-0.6,0.2-0.9,0.3c-0.2,0.1-0.5,0.2-0.7,0.2c-0.3,0.1-0.5,0.2-0.8,0.2
						c-0.3,0.1-0.5,0.2-0.8,0.2c-0.3,0.1-0.6,0.2-0.9,0.2c-0.2,0.1-0.5,0.1-0.7,0.2c-0.1,0-0.2,0-0.2,0.1c-0.2,0.1-0.5,0.1-0.7,0.2
						c-0.1,0-0.2,0.1-0.3,0.1c0,0,0,0-0.1,0c-0.4,0.1-0.8,0.2-1.2,0.2c-0.4,0.1-0.8,0.1-1.1,0.2c-0.2,0-0.4,0.1-0.5,0.1
						c-0.2,0-0.5,0.1-0.7,0.1h0c-0.2,0-0.3,0.1-0.5,0.1c-0.1,0-0.2,0-0.4,0.1c-0.5,0.1-1.1,0.1-1.6,0.2l-7.4,0.8h0l-3.4,0.4h0
						l-3.3,0.4c-0.4,0-0.8,0.1-1.1,0.1c-0.2,0-0.5,0-0.7,0c-0.3,0-0.6,0-0.8-0.1c-0.2,0-0.4-0.1-0.6-0.1c-0.3-0.1-0.6-0.1-0.9-0.2
						c0,0,0,0,0,0c-0.3-0.1-0.7-0.2-1-0.4c-0.3-0.1-0.6-0.3-0.9-0.5c-0.3-0.2-0.6-0.3-0.9-0.5c-0.2-0.1-0.4-0.3-0.6-0.5
						c-0.2-0.2-0.4-0.3-0.6-0.5c-0.1-0.1-0.2-0.2-0.4-0.3h0l1-0.1l4.3-0.5l2.9-0.3c3.2-0.3,6.2-1.1,9.2-2.1
						c3.8-1.4,7.4-3.3,10.6-5.7c2.6-1.9,5-4.2,7.1-6.8c0.7-0.9,1.4-1.7,2-2.6l2.3-3.3v0l0.2-0.2l-0.1,0h0l-2,0.4
						c-2,0.4-3.9,0.3-5.7-0.1c-4.9-1.2-8.9-5-10-10.3c-0.1-0.3-0.1-0.6-0.2-1c-0.6-4.8,1.5-9.5,5.2-12.3c1.6-1.2,3.4-2,5.4-2.5
						l2-0.4l10.7-2.2h0l0.3-0.1l27.9-5.7l-16.7-11.6l27.1-5.5h0l16.7,11.6l9.7-2c8.9-1.8,17-6.1,23.4-12.5l7.9-7.9
						c1.3,6.1,2.5,12.4,3.4,18.7C509.6,220.9,509.8,222.3,510,223.7z"/>
				</g>
			</g>
			<path id="XMLID_2586_" class="st124" d="M403.9,122.8c5.5,3.5,11.1,4.4,15.1,1.9c4.9-3.1,6.2-10.3,4-18.4
				c-0.9-3.5-2.5-7.1-4.7-10.6c-1.2-2-2.8-3.6-4.5-5c-8.5-7-21.4-8-21.4-8s-0.9,2.4-1.7,6.1c0,0.1,0,0.1,0,0.2
				c-1.3,6.1-2.1,15.5,2.5,22.7c2.4,3.8,5.3,7,8.2,9.4C402.2,121.7,403,122.3,403.9,122.8z"/>
			<path id="XMLID_2585_" class="st53" d="M304.2,206.8c7.3,11.6,18.9,17.4,25.9,13s6.6-17.4-0.7-29c-7.3-11.6-25.9-13-25.9-13
				S296.8,195.1,304.2,206.8z"/>
			<path id="XMLID_2584_" class="st194" d="M402.4,312.7c-2.9-13.4-11.9-22.9-19.9-21.1s-12.2,14.1-9.2,27.5
				c2.9,13.4,19.9,21.1,19.9,21.1S405.4,326.1,402.4,312.7z"/>
			<path id="XMLID_2583_" class="st194" d="M452.8,266.5c-7.6-11.5-19.3-17.1-26.1-12.6c-6.9,4.5-6.3,17.5,1.2,29
				c7.6,11.5,26.1,12.6,26.1,12.6S460.4,277.9,452.8,266.5z"/>
		</g>
		<circle id="XMLID_2581_" class="st29" cx="355.3" cy="242.7" r="13.6"/>
		<circle id="XMLID_2580_" class="st29" cx="448.3" cy="167.7" r="13.6"/>
		<circle id="XMLID_2579_" class="st29" cx="488" cy="263.3" r="13.6"/>
		<circle id="XMLID_2578_" class="st29" cx="331.8" cy="293.6" r="13.6"/>
	</g>
</g>
</svg>
