<?xml version="1.0" encoding="utf-8"?>
<!-- Generator: Adobe Illustrator 22.0.1, SVG Export Plug-In . SVG Version: 6.00 Build 0)  -->
<svg version="1.1" xmlns="http://www.w3.org/2000/svg" xmlns:xlink="http://www.w3.org/1999/xlink" x="0px" y="0px"
	 viewBox="0 0 512 512" style="enable-background:new 0 0 512 512;" xml:space="preserve">
<style type="text/css">
	.st0{fill:#4B71B4;}
	.st1{fill:#80B4E8;}
	.st2{fill:#594144;}
	.st3{fill:#B8E876;}
	.st4{fill:#E09122;}
	.st5{fill:#FBF355;}
	.st6{fill:#EEC82F;}
	.st7{fill:#CEA628;}
	.st8{fill:#9BC9EF;}
	.st9{fill:#9DD055;}
	.st10{fill:#5686C5;}
	.st11{fill:#3B5880;}
	.st12{fill:#C2E5FB;}
	.st13{fill:#446697;}
	.st14{fill:#D1F1A0;}
	.st15{fill:#ABD170;}
	.st16{fill:#9DBD6A;}
	.st17{fill:#649D53;}
	.st18{fill:#72B35D;}
	.st19{fill:#ABD68D;}
	.st20{fill:#7FB358;}
	.st21{fill:#920C50;}
	.st22{fill:#C60053;}
	.st23{fill:#530730;}
	.st24{fill:#600332;}
	.st25{fill:#D5AC2A;}
	.st26{fill:#EFD776;}
	.st27{fill:#A7C76D;}
	.st28{fill:#A43749;}
	.st29{fill:#DC4355;}
	.st30{fill:#E18696;}
	.st31{fill:#77A255;}
	.st32{fill:#628547;}
	.st33{fill:#6E994D;}
	.st34{fill:none;stroke:#54743C;stroke-width:8;stroke-linecap:round;stroke-miterlimit:10;}
	.st35{fill:#9BCF75;}
	.st36{fill:#CA8F80;}
	.st37{fill:#E6B8AB;}
	.st38{fill:#E2A18B;}
	.st39{fill:#8E3F2B;}
	.st40{fill:#D89988;}
	.st41{fill:#CFCFCF;}
	.st42{fill:#A64B2D;}
	.st43{fill:#FFFFFF;}
	.st44{fill:#CA801F;}
	.st45{fill:#719C50;}
	.st46{fill:#85B7E5;}
	.st47{fill:#4F7BA9;}
	.st48{fill:#674C50;}
	.st49{fill:#BAD7ED;}
	.st50{fill:#63494D;}
	.st51{fill:#503D3F;}
	.st52{fill:#638547;}
	.st53{fill:#56713E;}
	.st54{fill:#BB5135;}
	.st55{fill:#93C4EC;}
	.st56{fill:#CA8121;}
	.st57{fill:#FDFCFC;}
	.st58{fill:#A83A4F;}
	.st59{fill:#BD5E44;}
	.st60{fill:#688C4A;}
	.st61{fill:#7DA55A;}
	.st62{fill:#90BA51;}
	.st63{fill:none;}
	.st64{fill:#ABC287;}
	.st65{fill:#BDD993;}
	.st66{fill:none;stroke:#534046;stroke-width:15;stroke-linecap:round;stroke-linejoin:round;stroke-miterlimit:10;}
	.st67{fill:#413133;}
	.st68{fill:#34292B;}
	.st69{fill:#644B50;}
	.st70{fill:#CDACB7;}
	.st71{fill:#A83A4D;}
	.st72{fill:#413335;}
	.st73{fill:#DC6579;}
	.st74{fill:#4C393C;}
	.st75{fill:#527FAE;}
	.st76{fill:#92C2EA;}
	.st77{fill:#5B8C4A;}
	.st78{fill:#729C51;}
	.st79{fill:#AADB5E;}
	.st80{fill:#D66C53;}
	.st81{fill:#A65340;}
	.st82{fill:#B8594A;}
	.st83{fill:#79A754;}
	.st84{fill:#4E3B3E;}
	.st85{fill:#5E4649;}
	.st86{fill:#604A50;}
	.st87{fill:#685258;}
	.st88{fill:#765E66;}
	.st89{fill:#FCF69A;}
	.st90{fill:#D3CC84;}
	.st91{fill:#E6A572;}
	.st92{fill:#74A151;}
	.st93{fill:#6F994F;}
	.st94{fill:#CC6D7D;}
	.st95{fill:#AD6576;}
	.st96{fill:#95422D;}
	.st97{fill:#BE6850;}
	.st98{fill:#3B2F32;}
	.st99{fill:none;stroke:#46383B;stroke-width:15;stroke-linecap:round;stroke-miterlimit:10;}
	.st100{fill:none;stroke:#3B2F32;stroke-width:15;stroke-linecap:round;stroke-miterlimit:10;}
	.st101{fill:#D6CF77;}
	.st102{fill:#F5EF82;}
	.st103{fill:#4A383B;}
	.st104{fill:#CACACA;}
	.st105{fill:#48373A;}
	.st106{fill:#7AA8D2;}
	.st107{fill:#6E9150;}
	.st108{fill:#587441;}
	.st109{fill:#D76E51;}
	.st110{fill:#CCC475;}
	.st111{fill:#DDD57E;}
	.st112{fill:#F8F19C;}
	.st113{fill:#FBF58A;}
	.st114{fill:#C67F20;}
	.st115{fill:#AB6B1C;}
	.st116{fill:#C98020;}
	.st117{fill:#D99A41;}
	.st118{fill:#DBA35B;}
	.st119{fill:#9B5F1B;}
	.st120{fill:#97CF6D;}
	.st121{fill:#5380B1;}
	.st122{fill:#96D16A;}
	.st123{fill:#92BD50;}
	.st124{fill:#7EB058;}
	.st125{fill:#709A50;}
	.st126{fill:#5A8A4A;}
	.st127{fill:#D9D9D9;}
	.st128{fill:#75A3CD;}
	.st129{fill:#6E974F;}
	.st130{fill:#CA6D7D;}
	.st131{fill:#AB6576;}
	.st132{fill:#93422D;}
	.st133{fill:#A44B2D;}
	.st134{fill:#BC6850;}
	.st135{fill:#DFB52B;}
	.st136{fill:#4C3A3C;}
	.st137{fill:#473538;}
	.st138{fill:#382B2E;}
	.st139{fill:none;stroke:#FFFFFF;stroke-width:8;stroke-linecap:round;stroke-miterlimit:10;}
	.st140{fill:#90C0E8;}
	.st141{fill:none;stroke:#E09122;stroke-width:12;stroke-linecap:round;stroke-miterlimit:10;}
	.st142{fill:#DCAE2B;}
	.st143{fill:#F0D05A;}
	.st144{fill:#729E51;}
	.st145{fill:#E4BA36;}
	.st146{fill:#F8F283;}
	.st147{fill:#E4B6A9;}
	.st148{fill:#D78E30;}
	.st149{fill:#598A49;}
	.st150{fill:#B65339;}
	.st151{fill:#BA751F;}
	.st152{fill:#466A9F;}
	.st153{fill:#8BB34D;}
	.st154{fill:#9BCE54;}
	.st155{fill:#7F9F49;}
	.st156{fill:#D37F6D;}
	.st157{fill:#BB5E44;}
	.st158{fill:#93BB55;}
	.st159{fill:#B3E665;}
	.st160{fill:none;stroke:#4C393C;stroke-width:8;stroke-miterlimit:10;}
	.st161{fill:#97432D;}
	.st162{fill:#DAB12A;}
	.st163{fill:#5E914C;}
	.st164{fill:#5381B3;}
	.st165{fill:#6A8F4C;}
	.st166{fill:#628047;}
	.st167{fill:#E29D37;}
	.st168{fill:#6E555B;}
	.st169{fill:#91CA67;}
	.st170{fill:#476BA1;}
	.st171{fill:#6699D9;}
	.st172{fill:#503C3E;}
	.st173{fill:#413235;}
	.st174{fill:#CC916A;}
	.st175{fill:#BA8363;}
	.st176{fill:#D09571;}
	.st177{fill:#C98F68;}
	.st178{fill:#AA3B4D;}
	.st179{fill:#DA6075;}
	.st180{fill:#92452D;}
	.st181{fill:#A24B2D;}
	.st182{fill:#B76252;}
	.st183{fill:#87BD60;}
	.st184{fill:#78A7D2;}
	.st185{fill:#F9F38F;}
	.st186{fill:#E0D650;}
	.st187{fill:#AFE086;}
	.st188{fill:#9FD476;}
	.st189{fill:#9DD176;}
	.st190{fill:#8FC468;}
	.st191{fill:#7EAE58;}
	.st192{fill:#6F9850;}
	.st193{fill:#59884A;}
	.st194{fill:#638347;}
	.st195{fill:#B95135;}
	.st196{fill:#E5AB62;}
	.st197{fill:#733228;}
	.st198{fill:#803728;}
	.st199{fill:#6D974D;}
	.st200{fill:#99CD75;}
	.st201{fill:#93412C;}
	.st202{fill:#93C2EA;}
	.st203{fill:#CD926B;}
	.st204{fill:#E6AF8A;}
	.st205{fill:#E5DB4E;}
	.st206{fill:#FBF375;}
	.st207{fill:#779E54;}
	.st208{fill:#D3966D;}
	.st209{fill:#DA4355;}
	.st210{fill:#A83B4D;}
	.st211{fill:none;stroke:#594144;stroke-width:8;stroke-linecap:round;stroke-miterlimit:10;}
	.st212{fill:#E5A855;}
	.st213{fill:#EAC291;}
	.st214{fill:#96C252;}
	.st215{fill:#695055;}
	.st216{fill:#DC9C42;}
	.st217{fill:#8E5C1B;}
	.st218{fill:#F4EB6A;}
	.st219{fill:#CBC049;}
	.st220{fill:none;stroke:#B8E876;stroke-width:15;stroke-linecap:round;stroke-miterlimit:10;}
	.st221{fill:#A36A1C;}
	.st222{fill:#ECC94A;}
	.st223{fill:#91BEDA;}
	.st224{fill:#3D2F32;}
	.st225{fill:#A6394C;}
	.st226{fill:#33292B;}
	.st227{fill:#4F3D42;}
	.st228{fill:#638147;}
	.st229{fill:#CD8321;}
	.st230{fill:#D3CA4A;}
	.st231{fill:#E2A550;}
	.st232{fill:#B75135;}
	.st233{fill:#D4CD77;}
	.st234{fill:#F3EC80;}
	.st235{fill:#46383B;}
	.st236{fill:#82AA61;}
	.st237{fill:#8EBF69;}
	.st238{fill:#3C2E31;}
	.st239{fill:#C49F27;}
	.st240{fill:#D2BF7C;}
	.st241{fill:#F6E18D;}
	.st242{fill:#D6D6D6;}
	.st243{fill:#B5D7F2;}
	.st244{fill:#F1D467;}
	.st245{fill:#739FBD;}
	.st246{fill:#D0946C;}
	.st247{fill:#BE8767;}
	.st248{fill:#D0A829;}
	.st249{fill:#F6DF86;}
	.st250{fill:#EABA8D;}
	.st251{fill:#F0D1B8;}
	.st252{fill:#A5D0F1;}
	.st253{fill:#E3A13F;}
	.st254{fill:#F0FAFF;}
	.st255{fill:#B4D3E3;}
	.st256{fill:#80A5C3;}
	.st257{fill:#87AFD5;}
	.st258{fill:#B1D1E7;}
	.st259{fill:#AED66F;}
	.st260{fill:#91AA61;}
	.st261{fill:#A8384B;}
	.st262{fill:#CD8120;}
	.st263{fill:#E6AD56;}
	.st264{fill:none;stroke:#E6AD56;stroke-width:8;stroke-linecap:round;stroke-miterlimit:10;}
	.st265{fill:#9EBD68;}
	.st266{fill:#AAD16E;}
	.st267{fill:#86656B;}
	.st268{fill:#6D954D;}
	.st269{fill:#98CB75;}
	.st270{fill:#75A251;}
	.st271{fill:#91BD4F;}
	.st272{fill:none;stroke:#B8E078;stroke-width:8;stroke-linecap:round;stroke-miterlimit:10;}
	.st273{fill:none;stroke:#B8E078;stroke-width:8;stroke-linecap:round;stroke-linejoin:round;stroke-miterlimit:10;}
	.st274{fill:#8FBA4E;}
	.st275{fill:#B3E860;}
	.st276{fill:#E7A748;}
	.st277{fill:none;stroke:#B6E676;stroke-width:15;stroke-linecap:round;stroke-miterlimit:10;}
	.st278{fill:#639B53;}
	.st279{fill:#476B9F;}
	.st280{fill:#82B1DE;}
	.st281{fill:#A6533F;}
	.st282{fill:#C28A69;}
	.st283{fill:#64494E;}
	.st284{fill:#77565C;}
	.st285{fill:#4F3C40;}
	.st286{fill:#ECCCB1;}
	.st287{fill:#BF6F5C;}
	.st288{fill:none;stroke:#D4F1A7;stroke-width:10;stroke-linecap:round;stroke-miterlimit:10;}
	.st289{fill:none;stroke:#B8E876;stroke-width:10;stroke-linecap:round;stroke-miterlimit:10;}
	.st290{fill:#47688F;}
	.st291{fill:#3F5B78;}
	.st292{fill:#354E6C;}
	.st293{fill:#DAB12B;}
	.st294{fill:#C8A028;}
	.st295{fill:#F0D15C;}
	.st296{fill:#F8F28B;}
	.st297{fill:#F7F18D;}
	.st298{fill:#DED450;}
	.st299{fill:#F9F155;}
	.st300{fill:#A2CFF4;}
	.st301{fill:none;stroke:#594144;stroke-width:10;stroke-linecap:round;stroke-miterlimit:10;}
	.st302{fill:#F5F0AB;}
	.st303{fill:#496DA1;}
	.st304{fill:#5A85C7;}
	.st305{fill:#D7D7D7;}
	.st306{fill:#ADD3E6;}
	.st307{fill:#98B8C3;}
	.st308{fill:#CDCECF;}
	.st309{fill:#BF4F69;}
	.st310{fill:#A83448;}
	.st311{fill:#A4DAF7;}
	.st312{fill:#81A861;}
	.st313{fill:#82A549;}
	.st314{fill:#B6E676;}
	.st315{fill:#8CBD69;}
	.st316{fill:#ECC62F;}
	.st317{fill:#F4EA80;}
	.st318{fill:#D6AD2B;}
	.st319{fill:#6F9151;}
	.st320{fill:#46699C;}
	.st321{fill:#4A373A;}
	.st322{fill:#89B04C;}
	.st323{fill:#99CC53;}
	.st324{fill:#B1E465;}
	.st325{fill:#E19E3B;}
	.st326{fill:#C05970;}
	.st327{fill:#D95F74;}
	.st328{fill:#74A8DE;}
	.st329{fill:#C47C1E;}
	.st330{fill:#719A51;}
	.st331{fill:#A8D95E;}
	.st332{fill:#D46C53;}
	.st333{fill:#A45340;}
	.st334{fill:#B6594A;}
	.st335{fill:#79A554;}
	.st336{fill:#B6DAF7;}
	.st337{fill:#739F51;}
	.st338{fill:#DDB32B;}
	.st339{fill:#DE8F22;}
	.st340{fill:none;stroke:#46383B;stroke-width:8;stroke-linecap:round;stroke-miterlimit:10;}
	.st341{fill:none;stroke:#3B2F32;stroke-width:8;stroke-linecap:round;stroke-miterlimit:10;}
	.st342{fill:#C8C8C8;}
	.st343{fill:#7F9D49;}
	.st344{fill:#BA5E44;}
	.st345{fill:#92B955;}
	.st346{fill:#D17F6D;}
	.st347{fill:#5D8F4C;}
	.st348{fill:#B75334;}
	.st349{fill:#CA6D57;}
	.st350{fill:#A4574D;}
	.st351{fill:#7FB1E6;}
	.st352{fill:#77A3CD;}
	.st353{fill:#90BA4F;}
	.st354{fill:#5C8F4B;}
	.st355{fill:#ACDE5D;}
	.st356{fill:#6FAC5A;}
	.st357{fill:none;stroke:#9DD055;stroke-width:10;stroke-linecap:round;stroke-miterlimit:10;}
	.st358{fill:#AD5643;}
	.st359{fill:#B96052;}
	.st360{fill:#CB8D84;}
	.st361{fill:#CC6C56;}
	.st362{fill:#DE9A8E;}
	.st363{fill:#D37B6A;}
	.st364{fill:#A87758;}
	.st365{fill:#372A2C;}
	.st366{fill:#B8815C;}
	.st367{fill:#433335;}
	.st368{fill:#2C2325;}
	.st369{fill:#95402B;}
	.st370{fill:#A85441;}
	.st371{fill:#D2C74B;}
	.st372{fill:#B25945;}
	.st373{fill:none;stroke:#594144;stroke-width:15;stroke-linecap:round;stroke-miterlimit:10;}
	.st374{fill:none;stroke:#594144;stroke-width:12;stroke-linecap:round;stroke-miterlimit:10;}
	.st375{fill:#8F473B;}
	.st376{fill:#453538;}
	.st377{fill:#517DAB;}
	.st378{fill:#75A050;}
	.st379{fill:#A5384D;}
	.st380{fill:#CC6075;}
	.st381{fill:#F26B7F;}
	.st382{fill:#C67189;}
	.st383{fill:#B26980;}
	.st384{fill:#D87990;}
	.st385{fill:#F2869B;}
	.st386{fill:#EF8499;}
	.st387{fill:#649CD7;}
	.st388{fill:#639CDB;}
	.st389{fill:#C8ED8D;}
	.st390{fill:#A9DB83;}
	.st391{fill:#9BCF76;}
	.st392{fill:#7EAC58;}
	.st393{fill:#8CC463;}
	.st394{fill:#7FAC5B;}
	.st395{fill:#769C55;}
	.st396{fill:#6A894D;}
	.st397{fill:#769B56;}
	.st398{fill:#9BCC75;}
	.st399{fill:#AF5641;}
	.st400{fill:#F4D576;}
	.st401{fill:#76A055;}
	.st402{fill:#628347;}
	.st403{fill:#4F7B9F;}
	.st404{fill:#466D86;}
	.st405{fill:#4D789C;}
</style>
<g id="BULINE">
	<circle id="XMLID_2324_" class="st6" cx="256" cy="256" r="256"/>
</g>
<g id="Icons">
	<g id="XMLID_2380_">
		<path id="XMLID_2674_" class="st53" d="M343,163c-0.1,3.9-0.9,7.9-2.6,11.7c-7,16.2-25.8,23.6-42,16.6c-1.6-0.7-3.1-1.5-4.5-2.4
			c-5.2,7.9-13.5,13-22.5,14.2c-5.5,0.7-11.3,0-16.8-2.3c-16.2-7-23.6-25.8-16.6-42c1.7-3.9,4.1-7.4,7-10.2
			c-12.2-12.7-16.3-31.9-8.9-49c9-20.8,31.9-31.3,53.2-25.4c8.4-12.5,24.8-17.7,39.2-11.5c5.5,2.4,10,6.1,13.2,10.7
			c5.3,7.4,7.3,17.1,5,26.3c2.7,0.4,5.3,1.1,8,2.2c16.2,7,23.6,25.8,16.6,42C366.2,155.5,354.9,162.6,343,163z"/>
		<path id="XMLID_2671_" class="st194" d="M343,163c-0.1,3.9-0.9,7.9-2.6,11.7c-7,16.2-25.8,23.6-42,16.6c-1.6-0.7-3.1-1.5-4.5-2.4
			c-5.2,7.9-13.5,13-22.5,14.2c-6.3-8.8-8-20.6-3.4-31.3c1.7-3.9,4.1-7.4,7-10.2c-12.2-12.7-16.3-31.9-8.9-49
			c9-20.8,31.9-31.3,53.2-25.4c5.2-7.7,13.4-12.7,22.3-13.8c5.3,7.4,7.3,17.1,5,26.3c2.7,0.4,5.3,1.1,8,2.2
			c16.2,7,23.6,25.8,16.6,42C366.2,155.5,354.9,162.6,343,163z"/>
		<path id="XMLID_2670_" class="st125" d="M256.5,278.6c-0.3,7.9-1.9,15.8-5.2,23.5c-14.1,32.6-51.9,47.5-84.5,33.4
			c-3.2-1.4-6.2-3-9-4.8c-10.4,15.9-27.2,26.1-45.4,28.5c-11.1,1.5-22.8,0.1-33.9-4.7c-32.6-14.1-47.6-52-33.5-84.5
			c3.4-7.9,8.4-14.8,14.2-20.5c-24.5-25.5-32.8-64.2-17.9-98.7c18.2-42,64.3-63,107.1-51.2c16.9-25.2,50-35.7,78.9-23.2
			c11.1,4.8,20.1,12.3,26.6,21.5c10.7,15,14.8,34.4,10.1,53c5.4,0.8,10.8,2.3,16,4.5c32.6,14.1,47.6,51.9,33.5,84.5
			C303.3,263.6,280.6,277.9,256.5,278.6z"/>
		<path id="XMLID_2669_" class="st124" d="M256.5,278.6c-0.3,7.9-1.9,15.8-5.2,23.5c-14.1,32.6-51.9,47.5-84.5,33.4
			c-3.2-1.4-6.2-3-9-4.8c-10.4,15.9-27.2,26.1-45.4,28.5c-12.7-17.8-16.1-41.5-6.8-63.1c3.4-7.9,8.3-14.8,14.2-20.5
			c-24.5-25.5-32.8-64.2-17.9-98.7c18.2-42,64.3-63,107.1-51.1c10.4-15.6,27-25.5,45-27.9c10.7,15,14.8,34.4,10.1,53
			c5.4,0.8,10.8,2.3,16,4.5c32.6,14.1,47.6,51.9,33.5,84.5C303.3,263.6,280.6,277.9,256.5,278.6z"/>
		<path id="XMLID_2668_" class="st125" d="M314.8,250.9c7.6-2.1,15.7-2.8,24-1.9c35.3,3.9,60.7,35.6,56.9,70.9
			c-0.4,3.5-1.1,6.8-2,10.1c18.3,5.2,33,18.3,40.6,35c4.7,10.2,6.8,21.8,5.5,33.8c-3.9,35.3-35.6,60.8-70.9,56.9
			c-8.6-0.9-16.6-3.6-23.8-7.5c-17.1,31-51.7,50.3-89.1,46.2c-45.4-5-79.2-42.8-80.5-87.2c-29.1-8.7-48.8-37.2-45.4-68.5
			c1.3-12,5.8-22.9,12.7-31.8c11.2-14.7,28.5-24.3,47.7-25.3c-0.8-5.4-1-10.9-0.4-16.6c3.9-35.3,35.6-60.8,70.9-56.9
			C286.6,210.6,307,228.1,314.8,250.9z"/>
		<path id="XMLID_2667_" class="st124" d="M314.8,250.9c7.6-2.1,15.7-2.8,24-1.9c35.3,3.9,60.7,35.6,56.9,70.9
			c-0.4,3.5-1.1,6.8-2,10.1c18.3,5.2,33,18.3,40.6,35c-13.2,17.4-34.9,27.6-58.3,25.1c-8.6-0.9-16.6-3.6-23.8-7.5
			c-17.1,31-51.7,50.3-89.1,46.2c-45.4-5-79.2-42.8-80.4-87.3c-18-5.4-32.3-18.3-39.9-34.8c11.2-14.7,28.5-24.3,47.7-25.3
			c-0.8-5.4-1-10.9-0.4-16.6c3.9-35.3,35.6-60.8,70.9-56.9C286.6,210.6,307,228.1,314.8,250.9z"/>
		<path id="XMLID_2666_" class="st53" d="M397.7,275.2c-4.2,2.4-8.9,4.2-14.1,4.9c-21.8,3.2-42-11.8-45.2-33.5
			c-0.3-2.1-0.4-4.2-0.4-6.3c-11.8-0.3-22.6-5.8-29.9-14.6c-4.4-5.4-7.5-12-8.6-19.4c-3.2-21.8,11.8-42,33.5-45.3
			c5.3-0.8,10.5-0.5,15.4,0.8c5.4-21.3,23.1-38.3,46.1-41.7c28-4.2,54.2,13.2,62,39.6c18.8,0.7,35.1,14.6,38,33.9
			c1.1,7.4,0.1,14.6-2.6,21.1c-4.4,10.6-13.3,19-24.6,22.7c1.3,3.1,2.3,6.4,2.9,9.9c3.2,21.8-11.8,42-33.5,45.3
			C420.9,295,405.9,287.7,397.7,275.2z"/>
		<path id="XMLID_2665_" class="st194" d="M397.7,275.2c-4.2,2.4-8.9,4.2-14.1,4.9c-21.8,3.2-42-11.8-45.2-33.5
			c-0.3-2.1-0.4-4.2-0.4-6.3c-11.8-0.3-22.6-5.8-29.9-14.6c5.2-12.5,16.6-22.1,31-24.2c5.3-0.8,10.5-0.5,15.4,0.7
			c5.4-21.3,23.1-38.3,46.1-41.7c28-4.2,54.2,13.2,62,39.6c11.6,0.4,22.3,5.9,29.4,14.5c-4.4,10.6-13.3,19-24.6,22.7
			c1.3,3.1,2.3,6.4,2.9,9.9c3.2,21.8-11.8,42-33.5,45.3C420.9,295,405.9,287.7,397.7,275.2z"/>
		<g id="XMLID_2659_">
			<path id="XMLID_2664_" class="st195" d="M301.2,184.9c3.5-8-0.2-17.3-8.2-20.8s-17.3,0.2-20.8,8.2l-26.8,61.9l41-15.2
				L301.2,184.9z"/>
			<g id="XMLID_2660_">
				<path id="XMLID_2456_" class="st195" d="M304.1,282.1l-26.8,9.9l-25.8,9.6l-18.9,7c-21.2,7.9-44,9.3-66,4.3l-23.3-5.3l-1-0.2
					l-12.1-2.8l-15.4-3.6l-5.6-1.3l-4.6-1.1L92.8,296l-0.9-0.2l-30-6.9L40.8,284l-40.1-9.2c-0.2-2.1-0.3-4.2-0.4-6.3l41.8,9.6
					l18.4,4.2l31.6,7.3l4.5,1l10.5,2.4l28.8,6.6c3.7,0.8,7.5,1.5,11.2,2c18.4,2.4,37.2,0.2,54.8-6.3l71.5-26.5l8.6,3.7l12.6,5.5
					L304.1,282.1z"/>
				<path id="XMLID_2662_" class="st195" d="M447.7,265.7c-3.7-7.9-13.2-11.2-21-7.5l-8.5,4c-0.9,4.7-4,8.9-8.7,11.2l-20.4,9.7
					c-25,11.9-53.9,12.4-79.3,1.4l30.8,13.3c25.4,11,54.3,10.5,79.3-1.4l20.4-9.7C448.1,283,451.4,273.6,447.7,265.7z"/>
				<path id="XMLID_2459_" class="st133" d="M418.1,262.3c-1,4.7-4,8.9-8.7,11.2l-9.7,4.6l-10.7,5.1c-0.1,0-0.2,0.1-0.2,0.1
					c-14.7,7-30.8,10-46.7,9c-11-0.7-22-3.2-32.4-7.7l-5.7-2.5l-9.5-4.1l-12.6-5.5l-8.6-3.7l-71.5,26.5c-17.6,6.5-36.3,8.7-54.8,6.3
					c-3.8-0.5-7.5-1.2-11.2-2l-28.8-6.6l-10.5-2.4l-4.5-1l-31.6-7.3l-18.4-4.2l-41.8-9.6C0.1,264.4,0,260.2,0,256
					c0-8,0.4-15.9,1.1-23.8c1.6,0,3.2,0.2,4.8,0.5l48.5,11.1l50.8,11.7l70.9,16.3c4.6,1.1,9.2,1.7,13.8,1.8
					c9.5,0.3,19.1-1.2,28.1-4.5l14.7-5.4l12.8-29.5l41-15.2l-12.8,29.5l33.8-12.5l8.3-3.1l0.5-0.2l16.2-6l3-1.1
					c10.9-4.1,23,1.5,27.1,12.4c2.2,6.1,1.5,12.5-1.4,17.7c-0.9,1.6-2,3.1-3.4,4.5c-2.1,2.1-4.6,3.8-7.6,4.9l-3,1.1l-0.2,0.1
					l0.4,0.2l5.8,2.5c9.5,4.1,19.8,5.8,29.9,5.1c8-0.5,15.9-2.6,23.2-6.1L418.1,262.3z"/>
			</g>
		</g>
		<path id="XMLID_2658_" class="st124" d="M236.2,54.1c-0.2,21.7-10.9,39.2-23.9,39.1S188.9,75.4,189,53.7S213,14.6,213,14.6
			S236.4,32.4,236.2,54.1z"/>
		<path id="XMLID_2657_" class="st53" d="M434.8,107.8c-0.2,21.7-10.9,39.2-23.9,39.1s-23.4-17.8-23.2-39.5
			c0.2-21.7,23.9-39.1,23.9-39.1S435,86,434.8,107.8z"/>
		<path id="XMLID_2656_" class="st194" d="M391.2,331.9c-7.2-20.5-3.1-40.6,9.1-44.9c12.3-4.3,28.1,8.7,35.3,29.2
			c7.2,20.5-9.1,44.9-9.1,44.9S398.4,352.3,391.2,331.9z"/>
		<path id="XMLID_2654_" class="st194" d="M134.6,154.4c15.4,15.3,20.4,35.2,11.3,44.4s-29.1,4.3-44.5-11s-11.3-44.4-11.3-44.4
			S119.2,139.1,134.6,154.4z"/>
		<path id="XMLID_2653_" class="st194" d="M111.2,374.2c13.4-17.1,32.5-24.5,42.8-16.4c10.3,8,7.7,28.4-5.6,45.5
			c-13.4,17.1-42.8,16.4-42.8,16.4S97.8,391.3,111.2,374.2z"/>
		<path id="XMLID_2652_" class="st124" d="M334.5,457.2c-5.9-20.9-0.5-40.7,12-44.2c12.5-3.5,27.5,10.6,33.3,31.4
			c5.9,20.9-12,44.2-12,44.2S340.4,478.1,334.5,457.2z"/>
		<g id="XMLID_2612_">
			<path id="XMLID_2651_" class="st209" d="M359.5,379.4c-7.4,29-45.8,81.1-74.7,73.7c-2.2-0.6-4.3-1.5-6.3-2.6
				c-2.8-1.7-6.3-1.7-9.1,0c-2,1.2-4.1,2.1-6.3,2.6c-29,7.4-67.3-44.7-74.7-73.7c-7.4-29,10.1-58.4,39-65.9
				c11.7-3,23.5-1.9,33.9,2.3c8.1,3.3,17.2,3.3,25.3,0c7.6-3.1,16-4.5,24.6-3.9c3.1,0.2,6.2,0.7,9.3,1.5
				c22.3,5.7,37.8,24.5,40.3,46.1C361.6,366,361.2,372.7,359.5,379.4z"/>
			<path id="XMLID_2620_" class="st210" d="M284.7,453.1c-2.2-0.6-4.3-1.5-6.3-2.6c-2.8-1.7-6.3-1.7-9.1,0c-2,1.2-4.1,2.1-6.3,2.6
				c-29,7.4-67.3-44.7-74.7-73.7c-7.4-29,10.1-58.4,39-65.9C227.4,313.5,201.4,391.5,284.7,453.1z"/>
			<ellipse id="XMLID_2619_" class="st210" cx="274.2" cy="330.4" rx="20" ry="5.3"/>
			<path id="XMLID_2618_" class="st211" d="M274.2,330.4c0,0-4.5-28,23.3-41.7"/>
			<path id="XMLID_2613_" class="st179" d="M360.8,359.6c-26.7-0.2-48.4-21.2-49.6-47.6c3.1,0.2,6.2,0.7,9.3,1.5
				C342.7,319.2,358.2,338,360.8,359.6z"/>
		</g>
		<g id="XMLID_2400_">
			<path id="XMLID_2407_" class="st209" d="M147.2,345.1c-5,19.5-30.8,54.5-50.3,49.6c-1.5-0.4-2.9-1-4.2-1.8
				c-1.9-1.1-4.2-1.1-6.1,0c-1.3,0.8-2.7,1.4-4.2,1.8c-19.5,5-45.3-30.1-50.3-49.6c-5-19.5,6.8-39.3,26.2-44.3
				c7.9-2,15.8-1.3,22.8,1.6c5.5,2.2,11.6,2.2,17,0c5.1-2.1,10.8-3,16.5-2.6c2.1,0.2,4.2,0.5,6.3,1c15,3.8,25.4,16.5,27.1,31
				C148.6,336.1,148.3,340.6,147.2,345.1z"/>
			<path id="XMLID_2405_" class="st210" d="M96.9,394.7c-1.5-0.4-2.9-1-4.2-1.8c-1.9-1.1-4.2-1.1-6.1,0c-1.3,0.8-2.7,1.4-4.2,1.8
				c-19.5,5-45.3-30.1-50.3-49.6c-5-19.5,6.8-39.3,26.2-44.3C58.3,300.8,40.8,353.3,96.9,394.7z"/>
			<ellipse id="XMLID_2404_" class="st210" cx="89.8" cy="312.1" rx="13.5" ry="3.6"/>
			<path id="XMLID_2402_" class="st211" d="M89.8,312.1c0,0-3-18.9,15.7-28"/>
			<path id="XMLID_2401_" class="st179" d="M148.1,331.8c-17.9-0.1-32.5-14.3-33.4-32c2.1,0.2,4.2,0.5,6.3,1
				C135.9,304.6,146.4,317.3,148.1,331.8z"/>
		</g>
		<g id="XMLID_2389_">
			<path id="XMLID_2399_" class="st209" d="M386,177.5c-3.2,12.6-20,35.4-32.6,32.1c-1-0.2-1.9-0.6-2.7-1.2c-1.2-0.7-2.8-0.7-4,0
				c-0.9,0.5-1.8,0.9-2.7,1.2c-12.6,3.2-29.4-19.5-32.6-32.1c-3.2-12.6,4.4-25.5,17-28.7c5.1-1.3,10.3-0.8,14.8,1
				c3.5,1.5,7.5,1.5,11,0c3.3-1.4,7-2,10.7-1.7c1.3,0.1,2.7,0.3,4.1,0.7c9.7,2.5,16.5,10.7,17.6,20.1
				C386.9,171.7,386.7,174.6,386,177.5z"/>
			<path id="XMLID_2397_" class="st210" d="M353.4,209.6c-1-0.2-1.9-0.6-2.7-1.2c-1.2-0.7-2.8-0.7-4,0c-0.9,0.5-1.8,0.9-2.7,1.2
				c-12.6,3.2-29.4-19.5-32.6-32.1c-3.2-12.6,4.4-25.5,17-28.7C328.4,148.8,317.1,182.8,353.4,209.6z"/>
			<ellipse id="XMLID_2396_" class="st210" cx="348.8" cy="156.1" rx="8.7" ry="2.3"/>
			<path id="XMLID_2395_" class="st211" d="M348.8,156.1c0,0-2-12.2,10.2-18.2"/>
			<path id="XMLID_2390_" class="st179" d="M386.6,168.9c-11.6-0.1-21.1-9.3-21.7-20.8c1.3,0.1,2.7,0.3,4.1,0.7
				C378.7,151.3,385.5,159.5,386.6,168.9z"/>
		</g>
		<path id="XMLID_2387_" class="st194" d="M310.1,324.2c-21.1-5-35.8-19.3-32.9-32c3-12.7,22.5-18.9,43.7-13.9
			c21.1,5,32.9,32,32.9,32S331.2,329.2,310.1,324.2z"/>
		<path id="XMLID_2386_" class="st194" d="M89,277.8c5.4,12.3,3.9,24.9-3.5,28.2c-7.4,3.3-17.8-4.1-23.2-16.4s3.5-28.2,3.5-28.2
			S83.5,265.5,89,277.8z"/>
	</g>
</g>
</svg>
