<?xml version="1.0" encoding="utf-8"?>
<!-- Generator: Adobe Illustrator 22.0.1, SVG Export Plug-In . SVG Version: 6.00 Build 0)  -->
<svg version="1.1" xmlns="http://www.w3.org/2000/svg" xmlns:xlink="http://www.w3.org/1999/xlink" x="0px" y="0px"
	 viewBox="0 0 512 512" style="enable-background:new 0 0 512 512;" xml:space="preserve">
<style type="text/css">
	.st0{fill:#4B71B4;}
	.st1{fill:#80B4E8;}
	.st2{fill:#594144;}
	.st3{fill:#B8E876;}
	.st4{fill:#E09122;}
	.st5{fill:#FBF355;}
	.st6{fill:#EEC82F;}
	.st7{fill:#CEA628;}
	.st8{fill:#9BC9EF;}
	.st9{fill:#9DD055;}
	.st10{fill:#5686C5;}
	.st11{fill:#3B5880;}
	.st12{fill:#C2E5FB;}
	.st13{fill:#446697;}
	.st14{fill:#D1F1A0;}
	.st15{fill:#ABD170;}
	.st16{fill:#9DBD6A;}
	.st17{fill:#649D53;}
	.st18{fill:#72B35D;}
	.st19{fill:#ABD68D;}
	.st20{fill:#7FB358;}
	.st21{fill:#920C50;}
	.st22{fill:#C60053;}
	.st23{fill:#530730;}
	.st24{fill:#600332;}
	.st25{fill:#D5AC2A;}
	.st26{fill:#EFD776;}
	.st27{fill:#A7C76D;}
	.st28{fill:#A43749;}
	.st29{fill:#DC4355;}
	.st30{fill:#E18696;}
	.st31{fill:#77A255;}
	.st32{fill:#628547;}
	.st33{fill:#6E994D;}
	.st34{fill:none;stroke:#54743C;stroke-width:8;stroke-linecap:round;stroke-miterlimit:10;}
	.st35{fill:#9BCF75;}
	.st36{fill:#CA8F80;}
	.st37{fill:#E6B8AB;}
	.st38{fill:#E2A18B;}
	.st39{fill:#8E3F2B;}
	.st40{fill:#D89988;}
	.st41{fill:#CFCFCF;}
	.st42{fill:#A64B2D;}
	.st43{fill:#FFFFFF;}
	.st44{fill:#CA801F;}
	.st45{fill:#719C50;}
	.st46{fill:#85B7E5;}
	.st47{fill:#4F7BA9;}
	.st48{fill:#674C50;}
	.st49{fill:#BAD7ED;}
	.st50{fill:#63494D;}
	.st51{fill:#503D3F;}
	.st52{fill:#638547;}
	.st53{fill:#56713E;}
	.st54{fill:#BB5135;}
	.st55{fill:#93C4EC;}
	.st56{fill:#CA8121;}
	.st57{fill:#FDFCFC;}
	.st58{fill:#A83A4F;}
	.st59{fill:#BD5E44;}
	.st60{fill:#688C4A;}
	.st61{fill:#7DA55A;}
	.st62{fill:#90BA51;}
	.st63{fill:none;}
	.st64{fill:#ABC287;}
	.st65{fill:#BDD993;}
	.st66{fill:none;stroke:#534046;stroke-width:15;stroke-linecap:round;stroke-linejoin:round;stroke-miterlimit:10;}
	.st67{fill:#413133;}
	.st68{fill:#34292B;}
	.st69{fill:#644B50;}
	.st70{fill:#CDACB7;}
	.st71{fill:#A83A4D;}
	.st72{fill:#413335;}
	.st73{fill:#DC6579;}
	.st74{fill:#4C393C;}
	.st75{fill:#527FAE;}
	.st76{fill:#92C2EA;}
	.st77{fill:#5B8C4A;}
	.st78{fill:#729C51;}
	.st79{fill:#AADB5E;}
	.st80{fill:#D66C53;}
	.st81{fill:#A65340;}
	.st82{fill:#B8594A;}
	.st83{fill:#79A754;}
	.st84{fill:#4E3B3E;}
	.st85{fill:#5E4649;}
	.st86{fill:#604A50;}
	.st87{fill:#685258;}
	.st88{fill:#765E66;}
	.st89{fill:#FCF69A;}
	.st90{fill:#D3CC84;}
	.st91{fill:#E6A572;}
	.st92{fill:#74A151;}
	.st93{fill:#6F994F;}
	.st94{fill:#CC6D7D;}
	.st95{fill:#AD6576;}
	.st96{fill:#95422D;}
	.st97{fill:#BE6850;}
	.st98{fill:#3B2F32;}
	.st99{fill:none;stroke:#46383B;stroke-width:15;stroke-linecap:round;stroke-miterlimit:10;}
	.st100{fill:none;stroke:#3B2F32;stroke-width:15;stroke-linecap:round;stroke-miterlimit:10;}
	.st101{fill:#D6CF77;}
	.st102{fill:#F5EF82;}
	.st103{fill:#4A383B;}
	.st104{fill:#CACACA;}
	.st105{fill:#48373A;}
	.st106{fill:#7AA8D2;}
	.st107{fill:#6E9150;}
	.st108{fill:#587441;}
	.st109{fill:#D76E51;}
	.st110{fill:#CCC475;}
	.st111{fill:#DDD57E;}
	.st112{fill:#F8F19C;}
	.st113{fill:#FBF58A;}
	.st114{fill:#C67F20;}
	.st115{fill:#AB6B1C;}
	.st116{fill:#C98020;}
	.st117{fill:#D99A41;}
	.st118{fill:#DBA35B;}
	.st119{fill:#9B5F1B;}
	.st120{fill:#97CF6D;}
	.st121{fill:#5380B1;}
	.st122{fill:#96D16A;}
	.st123{fill:#92BD50;}
	.st124{fill:#7EB058;}
	.st125{fill:#709A50;}
	.st126{fill:#5A8A4A;}
	.st127{fill:#D9D9D9;}
	.st128{fill:#75A3CD;}
	.st129{fill:#6E974F;}
	.st130{fill:#CA6D7D;}
	.st131{fill:#AB6576;}
	.st132{fill:#93422D;}
	.st133{fill:#A44B2D;}
	.st134{fill:#BC6850;}
	.st135{fill:#DFB52B;}
	.st136{fill:#4C3A3C;}
	.st137{fill:#473538;}
	.st138{fill:#382B2E;}
	.st139{fill:none;stroke:#FFFFFF;stroke-width:8;stroke-linecap:round;stroke-miterlimit:10;}
	.st140{fill:#90C0E8;}
	.st141{fill:none;stroke:#E09122;stroke-width:12;stroke-linecap:round;stroke-miterlimit:10;}
	.st142{fill:#DCAE2B;}
	.st143{fill:#F0D05A;}
	.st144{fill:#729E51;}
	.st145{fill:#E4BA36;}
	.st146{fill:#F8F283;}
	.st147{fill:#E4B6A9;}
	.st148{fill:#D78E30;}
	.st149{fill:#598A49;}
	.st150{fill:#B65339;}
	.st151{fill:#BA751F;}
	.st152{fill:#466A9F;}
	.st153{fill:#8BB34D;}
	.st154{fill:#9BCE54;}
	.st155{fill:#7F9F49;}
	.st156{fill:#D37F6D;}
	.st157{fill:#BB5E44;}
	.st158{fill:#93BB55;}
	.st159{fill:#B3E665;}
	.st160{fill:none;stroke:#4C393C;stroke-width:8;stroke-miterlimit:10;}
	.st161{fill:#97432D;}
	.st162{fill:#DAB12A;}
	.st163{fill:#5E914C;}
	.st164{fill:#5381B3;}
	.st165{fill:#6A8F4C;}
	.st166{fill:#628047;}
	.st167{fill:#E29D37;}
	.st168{fill:#6E555B;}
	.st169{fill:#91CA67;}
	.st170{fill:#476BA1;}
	.st171{fill:#6699D9;}
	.st172{fill:#503C3E;}
	.st173{fill:#413235;}
	.st174{fill:#CC916A;}
	.st175{fill:#BA8363;}
	.st176{fill:#D09571;}
	.st177{fill:#C98F68;}
	.st178{fill:#AA3B4D;}
	.st179{fill:#DA6075;}
	.st180{fill:#92452D;}
	.st181{fill:#A24B2D;}
	.st182{fill:#B76252;}
	.st183{fill:#87BD60;}
	.st184{fill:#78A7D2;}
	.st185{fill:#F9F38F;}
	.st186{fill:#E0D650;}
	.st187{fill:#AFE086;}
	.st188{fill:#9FD476;}
	.st189{fill:#9DD176;}
	.st190{fill:#8FC468;}
	.st191{fill:#7EAE58;}
	.st192{fill:#6F9850;}
	.st193{fill:#59884A;}
	.st194{fill:#638347;}
	.st195{fill:#B95135;}
	.st196{fill:#E5AB62;}
	.st197{fill:#733228;}
	.st198{fill:#803728;}
	.st199{fill:#6D974D;}
	.st200{fill:#99CD75;}
	.st201{fill:#93412C;}
	.st202{fill:#93C2EA;}
	.st203{fill:#CD926B;}
	.st204{fill:#E6AF8A;}
	.st205{fill:#E5DB4E;}
	.st206{fill:#FBF375;}
	.st207{fill:#779E54;}
	.st208{fill:#D3966D;}
	.st209{fill:#DA4355;}
	.st210{fill:#A83B4D;}
	.st211{fill:none;stroke:#594144;stroke-width:8;stroke-linecap:round;stroke-miterlimit:10;}
	.st212{fill:#E5A855;}
	.st213{fill:#EAC291;}
	.st214{fill:#96C252;}
	.st215{fill:#695055;}
	.st216{fill:#DC9C42;}
	.st217{fill:#8E5C1B;}
	.st218{fill:#F4EB6A;}
	.st219{fill:#CBC049;}
	.st220{fill:none;stroke:#B8E876;stroke-width:15;stroke-linecap:round;stroke-miterlimit:10;}
	.st221{fill:#A36A1C;}
	.st222{fill:#ECC94A;}
	.st223{fill:#91BEDA;}
	.st224{fill:#3D2F32;}
	.st225{fill:#A6394C;}
	.st226{fill:#33292B;}
	.st227{fill:#4F3D42;}
	.st228{fill:#638147;}
	.st229{fill:#CD8321;}
	.st230{fill:#D3CA4A;}
	.st231{fill:#E2A550;}
	.st232{fill:#B75135;}
	.st233{fill:#D4CD77;}
	.st234{fill:#F3EC80;}
	.st235{fill:#46383B;}
	.st236{fill:#82AA61;}
	.st237{fill:#8EBF69;}
	.st238{fill:#3C2E31;}
	.st239{fill:#C49F27;}
	.st240{fill:#D2BF7C;}
	.st241{fill:#F6E18D;}
	.st242{fill:#D6D6D6;}
	.st243{fill:#B5D7F2;}
	.st244{fill:#F1D467;}
	.st245{fill:#739FBD;}
	.st246{fill:#D0946C;}
	.st247{fill:#BE8767;}
	.st248{fill:#D0A829;}
	.st249{fill:#F6DF86;}
	.st250{fill:#EABA8D;}
	.st251{fill:#F0D1B8;}
	.st252{fill:#A5D0F1;}
	.st253{fill:#E3A13F;}
	.st254{fill:#F0FAFF;}
	.st255{fill:#B4D3E3;}
	.st256{fill:#80A5C3;}
	.st257{fill:#87AFD5;}
	.st258{fill:#B1D1E7;}
	.st259{fill:#AED66F;}
	.st260{fill:#91AA61;}
	.st261{fill:#A8384B;}
	.st262{fill:#CD8120;}
	.st263{fill:#E6AD56;}
	.st264{fill:none;stroke:#E6AD56;stroke-width:8;stroke-linecap:round;stroke-miterlimit:10;}
	.st265{fill:#9EBD68;}
	.st266{fill:#AAD16E;}
	.st267{fill:#86656B;}
	.st268{fill:#6D954D;}
	.st269{fill:#98CB75;}
	.st270{fill:#75A251;}
	.st271{fill:#91BD4F;}
	.st272{fill:none;stroke:#B8E078;stroke-width:8;stroke-linecap:round;stroke-miterlimit:10;}
	.st273{fill:none;stroke:#B8E078;stroke-width:8;stroke-linecap:round;stroke-linejoin:round;stroke-miterlimit:10;}
	.st274{fill:#8FBA4E;}
	.st275{fill:#B3E860;}
	.st276{fill:#E7A748;}
	.st277{fill:none;stroke:#B6E676;stroke-width:15;stroke-linecap:round;stroke-miterlimit:10;}
	.st278{fill:#639B53;}
	.st279{fill:#476B9F;}
	.st280{fill:#82B1DE;}
	.st281{fill:#A6533F;}
	.st282{fill:#C28A69;}
	.st283{fill:#64494E;}
	.st284{fill:#77565C;}
	.st285{fill:#4F3C40;}
	.st286{fill:#ECCCB1;}
	.st287{fill:#BF6F5C;}
	.st288{fill:none;stroke:#D4F1A7;stroke-width:10;stroke-linecap:round;stroke-miterlimit:10;}
	.st289{fill:none;stroke:#B8E876;stroke-width:10;stroke-linecap:round;stroke-miterlimit:10;}
	.st290{fill:#47688F;}
	.st291{fill:#3F5B78;}
	.st292{fill:#354E6C;}
	.st293{fill:#DAB12B;}
	.st294{fill:#C8A028;}
	.st295{fill:#F0D15C;}
	.st296{fill:#F8F28B;}
	.st297{fill:#F7F18D;}
	.st298{fill:#DED450;}
	.st299{fill:#F9F155;}
	.st300{fill:#A2CFF4;}
	.st301{fill:none;stroke:#594144;stroke-width:10;stroke-linecap:round;stroke-miterlimit:10;}
	.st302{fill:#F5F0AB;}
	.st303{fill:#496DA1;}
	.st304{fill:#5A85C7;}
	.st305{fill:#D7D7D7;}
	.st306{fill:#ADD3E6;}
	.st307{fill:#98B8C3;}
	.st308{fill:#CDCECF;}
	.st309{fill:#BF4F69;}
	.st310{fill:#A83448;}
	.st311{fill:#A4DAF7;}
	.st312{fill:#81A861;}
	.st313{fill:#82A549;}
	.st314{fill:#B6E676;}
	.st315{fill:#8CBD69;}
	.st316{fill:#ECC62F;}
	.st317{fill:#F4EA80;}
	.st318{fill:#D6AD2B;}
	.st319{fill:#6F9151;}
	.st320{fill:#46699C;}
	.st321{fill:#4A373A;}
	.st322{fill:#89B04C;}
	.st323{fill:#99CC53;}
	.st324{fill:#B1E465;}
	.st325{fill:#E19E3B;}
	.st326{fill:#C05970;}
	.st327{fill:#D95F74;}
	.st328{fill:#74A8DE;}
	.st329{fill:#C47C1E;}
	.st330{fill:#719A51;}
	.st331{fill:#A8D95E;}
	.st332{fill:#D46C53;}
	.st333{fill:#A45340;}
	.st334{fill:#B6594A;}
	.st335{fill:#79A554;}
	.st336{fill:#B6DAF7;}
	.st337{fill:#739F51;}
	.st338{fill:#DDB32B;}
	.st339{fill:#DE8F22;}
	.st340{fill:none;stroke:#46383B;stroke-width:8;stroke-linecap:round;stroke-miterlimit:10;}
	.st341{fill:none;stroke:#3B2F32;stroke-width:8;stroke-linecap:round;stroke-miterlimit:10;}
	.st342{fill:#C8C8C8;}
	.st343{fill:#7F9D49;}
	.st344{fill:#BA5E44;}
	.st345{fill:#92B955;}
	.st346{fill:#D17F6D;}
	.st347{fill:#5D8F4C;}
	.st348{fill:#B75334;}
	.st349{fill:#CA6D57;}
	.st350{fill:#A4574D;}
	.st351{fill:#7FB1E6;}
	.st352{fill:#77A3CD;}
	.st353{fill:#90BA4F;}
	.st354{fill:#5C8F4B;}
	.st355{fill:#ACDE5D;}
	.st356{fill:#6FAC5A;}
	.st357{fill:none;stroke:#9DD055;stroke-width:10;stroke-linecap:round;stroke-miterlimit:10;}
	.st358{fill:#AD5643;}
	.st359{fill:#B96052;}
	.st360{fill:#CB8D84;}
	.st361{fill:#CC6C56;}
	.st362{fill:#DE9A8E;}
	.st363{fill:#D37B6A;}
	.st364{fill:#A87758;}
	.st365{fill:#372A2C;}
	.st366{fill:#B8815C;}
	.st367{fill:#433335;}
	.st368{fill:#2C2325;}
	.st369{fill:#95402B;}
	.st370{fill:#A85441;}
	.st371{fill:#D2C74B;}
	.st372{fill:#B25945;}
	.st373{fill:none;stroke:#594144;stroke-width:15;stroke-linecap:round;stroke-miterlimit:10;}
	.st374{fill:none;stroke:#594144;stroke-width:12;stroke-linecap:round;stroke-miterlimit:10;}
	.st375{fill:#8F473B;}
	.st376{fill:#453538;}
	.st377{fill:#517DAB;}
	.st378{fill:#75A050;}
	.st379{fill:#A5384D;}
	.st380{fill:#CC6075;}
	.st381{fill:#F26B7F;}
	.st382{fill:#C67189;}
	.st383{fill:#B26980;}
	.st384{fill:#D87990;}
	.st385{fill:#F2869B;}
	.st386{fill:#EF8499;}
	.st387{fill:#649CD7;}
	.st388{fill:#639CDB;}
	.st389{fill:#C8ED8D;}
	.st390{fill:#A9DB83;}
	.st391{fill:#9BCF76;}
	.st392{fill:#7EAC58;}
	.st393{fill:#8CC463;}
	.st394{fill:#7FAC5B;}
	.st395{fill:#769C55;}
	.st396{fill:#6A894D;}
	.st397{fill:#769B56;}
	.st398{fill:#9BCC75;}
	.st399{fill:#AF5641;}
	.st400{fill:#F4D576;}
	.st401{fill:#76A055;}
	.st402{fill:#628347;}
	.st403{fill:#4F7B9F;}
	.st404{fill:#466D86;}
	.st405{fill:#4D789C;}
</style>
<g id="BULINE">
	<circle id="XMLID_2357_" class="st12" cx="256" cy="256" r="256"/>
</g>
<g id="Icons">
	<g id="XMLID_4372_">
		<path id="XMLID_4769_" class="st53" d="M341.6,160.8c-0.1,4-1,8-2.6,11.9c-7.2,16.5-26.4,24.1-42.9,17c-1.6-0.7-3.1-1.5-4.6-2.5
			c-5.3,8.1-13.8,13.3-23,14.5c-5.7,0.8-11.6,0-17.2-2.4c-16.5-7.2-24.1-26.4-17-42.9c1.7-4,4.2-7.5,7.2-10.4
			c-12.5-12.9-16.7-32.6-9.1-50.1c9.2-21.3,32.6-32,54.4-26c8.6-12.8,25.4-18.1,40-11.8c5.6,2.4,10.2,6.3,13.5,10.9
			c5.5,7.6,7.5,17.5,5.1,26.9c2.8,0.4,5.5,1.1,8.1,2.3c16.5,7.2,24.2,26.4,17,42.9C365.4,153.2,353.9,160.4,341.6,160.8z"/>
		<path id="XMLID_4768_" class="st228" d="M341.6,160.8c-0.1,4-1,8-2.6,11.9c-7.2,16.5-26.4,24.1-42.9,17c-1.6-0.7-3.1-1.5-4.6-2.5
			c-5.3,8.1-13.8,13.3-23,14.5c-6.5-9-8.2-21.1-3.4-32c1.7-4,4.2-7.5,7.2-10.4c-12.5-12.9-16.7-32.6-9.1-50.1
			c9.2-21.3,32.6-32,54.4-26c5.3-7.9,13.7-13,22.8-14.1c5.5,7.6,7.5,17.5,5.1,26.9c2.8,0.4,5.5,1.1,8.1,2.3
			c16.5,7.2,24.2,26.4,17,42.9C365.4,153.2,353.9,160.4,341.6,160.8z"/>
		<path id="XMLID_4767_" class="st192" d="M253.2,279c-0.3,8.1-1.9,16.2-5.3,24c-14.4,33.3-53.1,48.6-86.4,34.2
			c-3.3-1.4-6.3-3.1-9.2-4.9c-10.6,16.3-27.8,26.7-46.4,29.1c-11.4,1.5-23.3,0.1-34.6-4.8c-33.3-14.4-48.6-53.1-34.2-86.4
			c3.5-8.1,8.5-15.2,14.5-21C26.5,223.1,18,183.6,33.3,148.3C51.9,105.4,99,83.8,142.8,96c17.3-25.8,51.1-36.5,80.6-23.7
			c11.3,4.9,20.6,12.6,27.2,22c11,15.3,15.1,35.2,10.3,54.2c5.5,0.8,11,2.3,16.4,4.6c33.3,14.4,48.6,53.1,34.2,86.4
			C301.1,263.7,277.9,278.3,253.2,279z"/>
		<path id="XMLID_4766_" class="st191" d="M253.2,279c-0.3,8.1-1.9,16.2-5.3,24c-14.4,33.3-53.1,48.6-86.4,34.2
			c-3.3-1.4-6.3-3.1-9.2-4.9c-10.6,16.3-27.8,26.7-46.4,29.1C92.9,343.3,89.4,319,99,297c3.5-8.1,8.5-15.2,14.5-21
			C88.4,249.9,79.9,210.3,95.2,175c18.6-42.9,65.7-64.5,109.5-52.3c10.7-15.9,27.6-26.1,46-28.5c11,15.3,15.1,35.2,10.3,54.2
			c5.5,0.8,11,2.3,16.4,4.6c33.3,14.4,48.6,53.1,34.2,86.4C301.1,263.7,277.9,278.3,253.2,279z"/>
		<path id="XMLID_4765_" class="st192" d="M312.9,250.7c7.8-2.1,16-2.9,24.5-2c36.1,4,62.1,36.4,58.1,72.5c-0.4,3.5-1.1,6.9-2,10.3
			c18.7,5.4,33.7,18.7,41.5,35.7c4.8,10.4,6.9,22.3,5.6,34.5c-4,36.1-36.4,62.1-72.5,58.2c-8.8-1-17-3.7-24.3-7.7
			c-17.5,31.7-52.8,51.4-91.1,47.2c-46.5-5.1-81-43.8-82.3-89.2c-29.8-8.9-49.9-38.1-46.4-70.1c1.3-12.3,6-23.4,13-32.5
			c11.4-15,29.2-24.8,48.8-25.8c-0.8-5.5-1-11.2-0.4-17c4-36.1,36.4-62.1,72.5-58.2C284.1,209.5,304.9,227.4,312.9,250.7z"/>
		<path id="XMLID_4764_" class="st191" d="M312.9,250.7c7.8-2.1,16-2.9,24.5-2c36.1,4,62.1,36.4,58.1,72.5c-0.4,3.5-1.1,6.9-2,10.3
			c18.7,5.4,33.7,18.7,41.5,35.7c-13.5,17.8-35.7,28.2-59.6,25.6c-8.8-1-17-3.7-24.3-7.6c-17.5,31.7-52.8,51.4-91.1,47.2
			c-46.5-5.1-81-43.8-82.2-89.2c-18.4-5.5-33.1-18.7-40.8-35.5c11.4-15,29.2-24.8,48.8-25.8c-0.8-5.5-1-11.2-0.4-17
			c4-36.1,36.4-62.1,72.5-58.2C284.1,209.5,304.9,227.4,312.9,250.7z"/>
		<path id="XMLID_4763_" class="st53" d="M397.6,275.6c-4.3,2.5-9.1,4.3-14.4,5c-22.2,3.3-42.9-12-46.3-34.3
			c-0.3-2.2-0.4-4.3-0.4-6.5c-12-0.3-23.2-5.9-30.5-14.9c-4.5-5.5-7.7-12.3-8.8-19.8c-3.3-22.2,12.1-43,34.3-46.3
			c5.4-0.8,10.8-0.5,15.8,0.8c5.5-21.7,23.6-39.1,47.1-42.6c28.7-4.3,55.4,13.5,63.4,40.5c19.3,0.7,35.9,14.9,38.9,34.7
			c1.1,7.6,0.1,15-2.7,21.5c-4.5,10.8-13.6,19.5-25.2,23.2c1.4,3.2,2.4,6.5,2.9,10.1c3.3,22.2-12,43-34.3,46.3
			C421.3,295.7,406,288.3,397.6,275.6z"/>
		<path id="XMLID_4762_" class="st228" d="M397.6,275.6c-4.3,2.5-9.1,4.3-14.4,5c-22.2,3.3-42.9-12-46.3-34.3
			c-0.3-2.2-0.4-4.3-0.4-6.5c-12-0.3-23.2-5.9-30.5-14.9c5.3-12.8,17-22.5,31.7-24.7c5.4-0.8,10.8-0.5,15.8,0.7
			c5.5-21.7,23.6-39.1,47.1-42.6c28.7-4.3,55.4,13.5,63.4,40.5c11.9,0.4,22.8,6,30,14.9c-4.5,10.8-13.6,19.5-25.2,23.2
			c1.4,3.2,2.4,6.5,2.9,10.1c3.3,22.2-12,43-34.3,46.3C421.3,295.7,406,288.3,397.6,275.6z"/>
		<g id="XMLID_4756_">
			<path id="XMLID_4761_" class="st232" d="M298.9,183.2c3.5-8.2-0.2-17.7-8.4-21.2c-8.2-3.5-17.7,0.2-21.2,8.4l-27.4,63.3
				l41.9-15.6L298.9,183.2z"/>
			<g id="XMLID_4757_">
				<path id="XMLID_4464_" class="st232" d="M301.9,282.6l-27.4,10.2l-4.2,1.6l-19,7.1l-3.2,1.2l-10.1,3.7l-9.2,3.4
					c-21.6,8-45,9.5-67.5,4.4l-23.8-5.5h0l-1-0.2l-12.4-2.8l-13.6-3.1l-1.8-0.4l-0.4-0.1l-5.7-1.3l-4.7-1.1h0l-12-2.8l-0.9-0.2
					l-9-2.1l-12.9-3l-8.8-2l-21.6-5h0l-31.8-7.3c-0.2-2.2-0.3-4.3-0.5-6.5l33.7,7.7l18.8,4.3l17.8,4.1l2.7,0.6l11.7,2.7l4.6,1
					l10.7,2.5l1.6,0.4l11.4,2.6l16.4,3.8c3.8,0.9,7.6,1.6,11.5,2.1h0c18.9,2.4,38,0.2,56-6.4l73.1-27.1l8.8,3.8l0,0l12.9,5.6
					L301.9,282.6z"/>
				<path id="XMLID_4759_" class="st232" d="M448.7,265.8c-3.8-8.1-13.5-11.5-21.5-7.6l-8.7,4.1c-1,4.8-4.1,9.1-8.9,11.4l-20.9,9.9
					c-25.5,12.2-55.1,12.7-81.1,1.5l31.4,13.6c26,11.2,55.5,10.7,81.1-1.5l20.9-9.9C449.1,283.5,452.6,273.9,448.7,265.8z"/>
				<path id="XMLID_4793_" class="st181" d="M418.5,262.4c-0.6,3-2.1,5.8-4.2,8.1c-0.9,0.9-1.9,1.7-2.9,2.4
					c-0.5,0.4-1.1,0.7-1.7,0.9l-9.9,4.7h0l-10.9,5.2c-0.1,0-0.1,0.1-0.2,0.1h0c-0.8,0.4-1.5,0.7-2.3,1c-0.6,0.3-1.2,0.5-1.9,0.8
					c-1.9,0.8-3.8,1.5-5.8,2.2c-0.9,0.3-1.7,0.6-2.6,0.9c-2.7,0.9-5.5,1.6-8.3,2.2c-0.8,0.2-1.5,0.3-2.3,0.5
					c-1.8,0.4-3.5,0.6-5.3,0.9c-2.7,0.4-5.3,0.6-8,0.8c-1.8,0.1-3.7,0.1-5.5,0.1c-0.6,0-1.2,0-1.8,0c-0.3,0-0.7,0-1,0
					c-0.2,0-0.4,0-0.6,0c-0.4,0-0.8,0-1.2-0.1c-0.4,0-0.7,0-1.1-0.1c-0.1,0-0.1,0-0.2,0c-1.3-0.1-2.7-0.2-4-0.3
					c-1.4-0.1-2.8-0.3-4.2-0.5c-0.6-0.1-1.3-0.2-1.9-0.3c-0.1,0-0.2,0-0.3,0c-0.7-0.1-1.3-0.2-2-0.4c-0.6-0.1-1.3-0.3-2-0.4
					c-2.9-0.6-5.8-1.4-8.6-2.3c-0.5-0.1-1-0.3-1.5-0.5c-0.2,0-0.3-0.1-0.5-0.2c-0.4-0.1-0.8-0.2-1.1-0.4c0,0,0,0,0,0
					c-0.8-0.3-1.5-0.5-2.3-0.8c-0.6-0.2-1.2-0.5-1.8-0.7c-0.9-0.4-1.8-0.7-2.7-1.1l-5.8-2.5l-9.8-4.2l-12.9-5.6l0,0l-8.8-3.8
					l-73.1,27.1c-18,6.7-37.1,8.9-56,6.4h0c-3.8-0.5-7.7-1.2-11.5-2.1l-16.4-3.8l-11.4-2.6l-1.6-0.4l-10.7-2.5l-4.6-1l-11.7-2.7
					l-2.7-0.6l-17.8-4.1l-18.8-4.3l-33.7-7.7C0.1,265.9,0,261,0,256c0-7.7,0.3-15.4,1-22.9l45.6,10.5l52,11.9l72.4,16.6
					c4.7,1.1,9.4,1.7,14.1,1.9c9.7,0.4,19.5-1.2,28.7-4.6l15-5.6l13-30.1l41.9-15.6l-13,30.1l34.5-12.8l8.5-3.2l0.5-0.2h0l3.3-1.2
					l13.2-4.9l2.3-0.9l0.8-0.3c1.6-0.6,3.2-1,4.7-1.2c4.1-0.5,8.3,0.2,11.9,1.9c4.5,2.1,8.3,5.8,10.5,10.6c0.2,0.4,0.4,0.9,0.6,1.3
					c1.5,4,1.7,8.1,0.9,11.9c-0.5,2.2-1.3,4.2-2.4,6.2c-0.9,1.6-2.1,3.2-3.4,4.6c-2.1,2.1-4.8,3.9-7.8,5l-3.1,1.1l-0.2,0.1l0.4,0.2
					h0l5.9,2.6c9.8,4.2,20.2,6,30.6,5.3h0c8.2-0.6,16.2-2.6,23.8-6.2L418.5,262.4z"/>
			</g>
		</g>
		<path id="XMLID_4755_" class="st191" d="M232.5,49.5c-0.2,22.2-11.1,40.1-24.5,40c-13.3-0.1-23.9-18.2-23.8-40.4
			c0.2-22.2,24.5-40,24.5-40S232.7,27.3,232.5,49.5z"/>
		<path id="XMLID_4754_" class="st53" d="M435.5,104.3c-0.2,22.2-11.1,40.1-24.5,40c-13.3-0.1-23.9-18.2-23.8-40.4s24.5-40,24.5-40
			S435.7,82.1,435.5,104.3z"/>
		<path id="XMLID_4753_" class="st228" d="M391,333.4c-7.4-20.9-3.2-41.5,9.3-45.9c12.6-4.4,28.7,8.9,36.1,29.9
			c7.4,20.9-9.3,45.9-9.3,45.9S398.3,354.4,391,333.4z"/>
		<path id="XMLID_4752_" class="st228" d="M128.6,152c15.7,15.6,20.9,36,11.5,45.4c-9.4,9.4-29.8,4.4-45.5-11.2
			s-11.5-45.4-11.5-45.4S112.9,136.4,128.6,152z"/>
		<path id="XMLID_4751_" class="st228" d="M104.7,376.7c13.7-17.5,33.3-25,43.7-16.8s7.9,29-5.8,46.5s-43.7,16.8-43.7,16.8
			S91,394.2,104.7,376.7z"/>
		<path id="XMLID_4750_" class="st191" d="M333,461.6c-6-21.4-0.5-41.6,12.3-45.2c12.8-3.6,28.1,10.8,34.1,32.2
			c6,21.4-12.3,45.2-12.3,45.2S339,483,333,461.6z"/>
		<g id="XMLID_4736_">
			<g id="XMLID_4747_">
				<path id="XMLID_4749_" class="st299" d="M350.8,424.2c0,8.5-1.8,16.5-5.1,23.7c-7.8,17.1-23.7,29.6-42.8,32.8
					c-0.5,0.1-1,0.2-1.5,0.2c-0.4,0.1-0.8,0.1-1.3,0.2c-0.1,0-0.3,0-0.4,0c-0.4,0-0.7,0.1-1.1,0.1c-0.1,0-0.3,0-0.4,0
					c-0.5,0-1,0.1-1.5,0.1c-0.3,0-0.6,0-0.9,0c-0.2,0-0.5,0-0.8,0c-1.2,0-2.5,0-3.7,0c-29.6-1.1-53.8-25.3-55-54.9
					c-0.7-17.5,6.5-33.3,18.2-44.2c5.2-4.9,8.2-11.7,8.2-18.9v-9.2c0-6.5,2-12.6,5.5-17.6c5.5-7.8,14.5-13,24.7-13.2
					c0.6,0,1.1,0,1.7,0c0.2,0,0.4,0,0.6,0c0,0,0.1,0,0.1,0c0.3,0,0.7,0,1,0.1c0.2,0,0.4,0,0.6,0.1h0c0.3,0,0.6,0.1,0.8,0.1
					c0.2,0,0.5,0.1,0.7,0.1c0.4,0.1,0.7,0.1,1.1,0.2c0.5,0.1,1.1,0.2,1.6,0.4c0,0,0,0,0,0c0.3,0.1,0.5,0.2,0.8,0.2
					c0.8,0.2,1.7,0.5,2.5,0.9c0.2,0.1,0.5,0.2,0.7,0.3c0.2,0.1,0.5,0.2,0.7,0.3c0.1,0,0.1,0.1,0.2,0.1c1,0.4,1.9,0.9,2.8,1.5
					c0.5,0.3,1,0.6,1.4,0.9c0.5,0.3,0.9,0.6,1.4,1c0.2,0.2,0.4,0.3,0.7,0.5c0.4,0.3,0.8,0.7,1.2,1.1c0,0,0,0,0,0
					c0.2,0.2,0.4,0.4,0.6,0.6c0.4,0.4,0.8,0.8,1.2,1.2c0.2,0.2,0.4,0.4,0.6,0.6c0.4,0.4,0.7,0.8,1.1,1.3c4.5,5.5,7.2,12.5,7.2,20
					v8.5c0,7.1,2.8,14,8,18.8c1,1,2.1,2,3,3C345,395.4,350.8,409.1,350.8,424.2z"/>
				<path id="XMLID_4748_" class="st316" d="M284,426.5c-0.7-17.5,6.5-33.3,18.2-44.2c5.2-4.9,8.2-11.7,8.2-18.9v-9.2
					c0-7.3,2.6-14.1,6.8-19.3c-5.8-7.1-14.5-11.6-24.2-11.5c-16.7,0.3-30.2,14-30.2,30.8v9.2c0,7.1-2.9,14-8.2,18.9
					c-11.8,10.9-18.9,26.8-18.2,44.2c1.2,29.6,25.3,53.8,55,54.9c9.3,0.4,18.2-1.5,26.1-5.2C298.4,467.4,284.9,448.5,284,426.5z"/>
			</g>
			<path id="XMLID_4746_" class="st317" d="M350.8,424.2c0,8.5-1.8,16.5-5.1,23.7c-13-6.2-22-19.5-22-34.9
				c0-10.9,4.5-20.8,11.8-27.8C345,395.4,350.8,409.1,350.8,424.2z"/>
			<circle id="XMLID_4745_" class="st318" cx="259.4" cy="413.8" r="7.3"/>
			<circle id="XMLID_4744_" class="st316" cx="302.7" cy="430.7" r="7.3"/>
			<circle id="XMLID_4743_" class="st318" cx="278.5" cy="385.2" r="9.7"/>
			<circle id="XMLID_4742_" class="st318" cx="266.7" cy="438" r="4.6"/>
			<circle id="XMLID_4741_" class="st316" cx="317.4" cy="460.8" r="4.6"/>
			<circle id="XMLID_4740_" class="st318" cx="273.4" cy="360.3" r="4.6"/>
			<path id="XMLID_4739_" class="st211" d="M290.1,325.7c0,0,2.7-23.5,25.2-38.5"/>
			<path id="XMLID_4738_" class="st194" d="M295.3,326c-0.2,1.6-0.7,3.1-1.6,4.5c-5.6,9.6-23,9.8-38.9,0.5
				C238.8,321.8,236,297,236,297s5.3-2.3,12.6-3.6c7.9-1.4,18-1.7,26.3,3.1C288.5,304.4,296.7,316.7,295.3,326z"/>
			<path id="XMLID_4737_" class="st319" d="M295.3,326c-8,2-19,0-29.4-6.1c-10.3-6-15.1-18.5-17.3-26.6c7.9-1.4,18-1.7,26.3,3.1
				C288.5,304.4,296.7,316.7,295.3,326z"/>
		</g>
		<g id="XMLID_4387_">
			<g id="XMLID_4733_">
				<path id="XMLID_4735_" class="st299" d="M157.5,394.3c0,7-1.5,13.6-4.2,19.6c-6.4,14.1-19.5,24.5-35.3,27
					c-0.4,0.1-0.8,0.1-1.3,0.2c-0.4,0.1-0.7,0.1-1,0.1c-0.1,0-0.2,0-0.3,0c-0.3,0-0.6,0.1-0.9,0.1c-0.1,0-0.2,0-0.4,0
					c-0.4,0-0.8,0.1-1.2,0.1c-0.3,0-0.5,0-0.8,0c-0.2,0-0.4,0-0.6,0c-1,0-2,0-3.1,0C84,440.6,64,420.7,63.1,396.3
					c-0.6-14.4,5.3-27.5,15.1-36.5c4.3-4,6.7-9.7,6.7-15.6v-7.6c0-5.4,1.7-10.4,4.5-14.5c4.5-6.5,11.9-10.8,20.4-10.9
					c0.5,0,0.9,0,1.4,0c0.2,0,0.3,0,0.5,0c0,0,0.1,0,0.1,0c0.3,0,0.5,0,0.8,0.1c0.2,0,0.3,0,0.5,0.1h0c0.2,0,0.5,0.1,0.7,0.1
					c0.2,0,0.4,0.1,0.6,0.1c0.3,0,0.6,0.1,0.9,0.2c0.4,0.1,0.9,0.2,1.3,0.3c0,0,0,0,0,0c0.2,0.1,0.5,0.1,0.7,0.2
					c0.7,0.2,1.4,0.4,2,0.7c0.2,0.1,0.4,0.2,0.6,0.3c0.2,0.1,0.4,0.2,0.6,0.3c0.1,0,0.1,0.1,0.2,0.1c0.8,0.4,1.6,0.8,2.3,1.2
					c0.4,0.2,0.8,0.5,1.2,0.7c0.4,0.3,0.8,0.5,1.1,0.8c0.2,0.1,0.4,0.3,0.5,0.4c0.3,0.3,0.7,0.6,1,0.9c0,0,0,0,0,0
					c0.2,0.2,0.3,0.3,0.5,0.5c0.3,0.3,0.7,0.6,1,1c0.2,0.2,0.3,0.3,0.5,0.5c0.3,0.3,0.6,0.7,0.9,1.1c3.7,4.5,5.9,10.3,5.9,16.5v7
					c0,5.9,2.3,11.5,6.6,15.5c0.9,0.8,1.7,1.6,2.5,2.5C152.7,370.6,157.5,381.9,157.5,394.3z"/>
				<path id="XMLID_4734_" class="st316" d="M102.4,396.3c-0.6-14.4,5.3-27.5,15.1-36.5c4.3-4,6.7-9.7,6.7-15.6v-7.6
					c0-6,2.1-11.6,5.6-16c-4.8-5.9-12-9.6-20-9.4c-13.8,0.3-24.9,11.5-24.9,25.4v7.6c0,5.9-2.4,11.6-6.7,15.6
					c-9.7,9-15.6,22.1-15.1,36.5c1,24.5,20.9,44.4,45.4,45.3c7.7,0.3,15-1.3,21.5-4.3C114.2,430,103.1,414.4,102.4,396.3z"/>
			</g>
			<path id="XMLID_4718_" class="st317" d="M157.5,394.3c0,7-1.5,13.6-4.2,19.6c-10.8-5.1-18.2-16.1-18.2-28.8
				c0-9,3.7-17.1,9.7-22.9C152.7,370.6,157.5,381.9,157.5,394.3z"/>
			<circle id="XMLID_4717_" class="st318" cx="82.1" cy="385.8" r="6"/>
			<circle id="XMLID_4716_" class="st316" cx="117.8" cy="399.7" r="6"/>
			<circle id="XMLID_4714_" class="st318" cx="97.8" cy="362.1" r="8"/>
			<circle id="XMLID_4713_" class="st318" cx="88" cy="405.7" r="3.8"/>
			<circle id="XMLID_4712_" class="st316" cx="130" cy="424.6" r="3.8"/>
			<circle id="XMLID_4710_" class="st318" cx="93.6" cy="341.6" r="3.8"/>
			<path id="XMLID_4390_" class="st211" d="M107.4,313.1c0,0,2.2-19.4,20.8-31.8"/>
			<path id="XMLID_4389_" class="st194" d="M111.7,313.3c-0.2,1.3-0.6,2.6-1.3,3.7c-4.6,7.9-19,8.1-32.1,0.4
				c-13.2-7.7-15.5-28.1-15.5-28.1s4.4-1.9,10.4-3c6.5-1.2,14.9-1.4,21.7,2.5C106.1,295.5,112.8,305.6,111.7,313.3z"/>
			<path id="XMLID_4388_" class="st319" d="M111.7,313.3c-6.6,1.6-15.7,0-24.3-5c-8.5-4.9-12.5-15.3-14.2-21.9
				c6.5-1.2,14.9-1.4,21.7,2.5C106.1,295.5,112.8,305.6,111.7,313.3z"/>
		</g>
		<g id="XMLID_4373_">
			<g id="XMLID_4384_">
				<path id="XMLID_4386_" class="st299" d="M389.6,202.5c1.4,5.6,1.5,11.2,0.5,16.5c-2.3,12.6-10.8,23.5-22.8,28.7
					c-0.3,0.1-0.6,0.3-1,0.4c-0.3,0.1-0.5,0.2-0.8,0.3c-0.1,0-0.2,0.1-0.3,0.1c-0.2,0.1-0.5,0.2-0.7,0.2c-0.1,0-0.2,0.1-0.3,0.1
					c-0.3,0.1-0.6,0.2-1,0.3c-0.2,0.1-0.4,0.1-0.6,0.2c-0.2,0.1-0.3,0.1-0.5,0.1c-0.8,0.2-1.6,0.4-2.5,0.6
					c-19.8,4.1-39.7-7.8-45.4-27.2c-3.3-11.4-1.2-23.1,4.8-32.2c2.7-4.1,3.5-9.1,2.3-13.8l-1.5-6.1c-1.1-4.3-0.7-8.6,0.7-12.5
					c2.3-6.1,7.4-11,14.1-12.8c0.4-0.1,0.8-0.2,1.1-0.3c0.1,0,0.3-0.1,0.4-0.1c0,0,0.1,0,0.1,0c0.2,0,0.4-0.1,0.7-0.1
					c0.1,0,0.3,0,0.4-0.1l0,0c0.2,0,0.4,0,0.6-0.1c0.2,0,0.3,0,0.5,0c0.2,0,0.5,0,0.7,0c0.4,0,0.7,0,1.1,0c0,0,0,0,0,0
					c0.2,0,0.4,0,0.6,0c0.6,0,1.2,0.1,1.8,0.2c0.2,0,0.4,0,0.5,0.1c0.2,0,0.4,0.1,0.5,0.1c0.1,0,0.1,0,0.2,0
					c0.7,0.1,1.4,0.3,2.1,0.5c0.4,0.1,0.7,0.2,1.1,0.4c0.4,0.1,0.7,0.3,1.1,0.4c0.2,0.1,0.3,0.2,0.5,0.2c0.3,0.2,0.7,0.3,1,0.5
					c0,0,0,0,0,0c0.2,0.1,0.3,0.2,0.5,0.3c0.3,0.2,0.7,0.4,1,0.6c0.2,0.1,0.3,0.2,0.5,0.3c0.3,0.2,0.6,0.4,0.9,0.7
					c3.9,2.9,6.8,7.1,8,12.1l1.4,5.6c1.2,4.7,4.2,8.8,8.4,11.1c0.8,0.5,1.7,1,2.5,1.5C380.9,184.4,387.1,192.5,389.6,202.5z"/>
				<path id="XMLID_4385_" class="st316" d="M345.8,215c-3.3-11.4-1.2-23.1,4.8-32.2c2.7-4.1,3.5-9.1,2.3-13.8l-1.5-6.1
					c-1.2-4.8-0.6-9.7,1.3-13.9c-5-3.7-11.5-5.3-17.9-3.6c-11,3-17.7,14.2-14.9,25.3l1.5,6.1c1.2,4.7,0.4,9.7-2.3,13.8
					c-6,9.2-8.1,20.8-4.8,32.2c5.7,19.4,25.6,31.3,45.4,27.2c6.2-1.3,11.8-4,16.4-7.7C362.1,239.7,350,229.4,345.8,215z"/>
			</g>
			<path id="XMLID_4383_" class="st317" d="M389.6,202.5c1.4,5.6,1.5,11.2,0.5,16.5c-9.6-2-17.8-9.3-20.3-19.4
				c-1.8-7.2-0.4-14.5,3.2-20.3C380.9,184.4,387.1,192.5,389.6,202.5z"/>
			<circle id="XMLID_4382_" class="st318" cx="327.4" cy="210.7" r="4.9"/>
			<circle id="XMLID_4381_" class="st316" cx="358.8" cy="214.8" r="4.9"/>
			<circle id="XMLID_4380_" class="st318" cx="335.3" cy="188.6" r="6.6"/>
			<circle id="XMLID_4379_" class="st318" cx="336.2" cy="225.5" r="3.1"/>
			<circle id="XMLID_4378_" class="st316" cx="373.5" cy="232.2" r="3.1"/>
			<circle id="XMLID_4377_" class="st318" cx="327.9" cy="173" r="3.1"/>
			<path id="XMLID_4376_" class="st211" d="M333.2,147.4c0,0-2.1-16,10.3-29.6"/>
			<path id="XMLID_4375_" class="st194" d="M336.7,146.8c0.1,1.1,0,2.2-0.3,3.3c-2.1,7.2-13.6,10.3-25.6,6.8
				c-12.1-3.5-18-19.4-18-19.4s3.1-2.4,7.8-4.5c5-2.2,11.6-4.1,17.9-2.3C328.6,133.6,336,140.4,336.7,146.8z"/>
			<path id="XMLID_4374_" class="st319" d="M336.7,146.8c-4.9,2.6-12.6,3.1-20.4,0.8c-7.8-2.3-13.1-9.7-15.8-14.7
				c5-2.2,11.6-4.1,17.9-2.3C328.6,133.6,336,140.4,336.7,146.8z"/>
		</g>
	</g>
</g>
</svg>
