<?xml version="1.0" encoding="utf-8"?>
<!-- Generator: Adobe Illustrator 22.0.1, SVG Export Plug-In . SVG Version: 6.00 Build 0)  -->
<svg version="1.1" xmlns="http://www.w3.org/2000/svg" xmlns:xlink="http://www.w3.org/1999/xlink" x="0px" y="0px"
	 viewBox="0 0 512 512" style="enable-background:new 0 0 512 512;" xml:space="preserve">
<style type="text/css">
	.st0{fill:#4B71B4;}
	.st1{fill:#80B4E8;}
	.st2{fill:#594144;}
	.st3{fill:#B8E876;}
	.st4{fill:#E09122;}
	.st5{fill:#FBF355;}
	.st6{fill:#EEC82F;}
	.st7{fill:#CEA628;}
	.st8{fill:#9BC9EF;}
	.st9{fill:#9DD055;}
	.st10{fill:#5686C5;}
	.st11{fill:#3B5880;}
	.st12{fill:#C2E5FB;}
	.st13{fill:#446697;}
	.st14{fill:#D1F1A0;}
	.st15{fill:#ABD170;}
	.st16{fill:#9DBD6A;}
	.st17{fill:#649D53;}
	.st18{fill:#72B35D;}
	.st19{fill:#ABD68D;}
	.st20{fill:#7FB358;}
	.st21{fill:#920C50;}
	.st22{fill:#C60053;}
	.st23{fill:#530730;}
	.st24{fill:#600332;}
	.st25{fill:#D5AC2A;}
	.st26{fill:#EFD776;}
	.st27{fill:#A7C76D;}
	.st28{fill:#A43749;}
	.st29{fill:#DC4355;}
	.st30{fill:#E18696;}
	.st31{fill:#77A255;}
	.st32{fill:#628547;}
	.st33{fill:#6E994D;}
	.st34{fill:none;stroke:#54743C;stroke-width:8;stroke-linecap:round;stroke-miterlimit:10;}
	.st35{fill:#9BCF75;}
	.st36{fill:#CA8F80;}
	.st37{fill:#E6B8AB;}
	.st38{fill:#E2A18B;}
	.st39{fill:#8E3F2B;}
	.st40{fill:#D89988;}
	.st41{fill:#CFCFCF;}
	.st42{fill:#A64B2D;}
	.st43{fill:#FFFFFF;}
	.st44{fill:#CA801F;}
	.st45{fill:#719C50;}
	.st46{fill:#85B7E5;}
	.st47{fill:#4F7BA9;}
	.st48{fill:#674C50;}
	.st49{fill:#BAD7ED;}
	.st50{fill:#63494D;}
	.st51{fill:#503D3F;}
	.st52{fill:#638547;}
	.st53{fill:#56713E;}
	.st54{fill:#BB5135;}
	.st55{fill:#93C4EC;}
	.st56{fill:#CA8121;}
	.st57{fill:#FDFCFC;}
	.st58{fill:#A83A4F;}
	.st59{fill:#BD5E44;}
	.st60{fill:#688C4A;}
	.st61{fill:#7DA55A;}
	.st62{fill:#90BA51;}
	.st63{fill:none;}
	.st64{fill:#ABC287;}
	.st65{fill:#BDD993;}
	.st66{fill:none;stroke:#534046;stroke-width:15;stroke-linecap:round;stroke-linejoin:round;stroke-miterlimit:10;}
	.st67{fill:#413133;}
	.st68{fill:#34292B;}
	.st69{fill:#644B50;}
	.st70{fill:#CDACB7;}
	.st71{fill:#A83A4D;}
	.st72{fill:#413335;}
	.st73{fill:#DC6579;}
	.st74{fill:#4C393C;}
	.st75{fill:#527FAE;}
	.st76{fill:#92C2EA;}
	.st77{fill:#5B8C4A;}
	.st78{fill:#729C51;}
	.st79{fill:#AADB5E;}
	.st80{fill:#D66C53;}
	.st81{fill:#A65340;}
	.st82{fill:#B8594A;}
	.st83{fill:#79A754;}
	.st84{fill:#4E3B3E;}
	.st85{fill:#5E4649;}
	.st86{fill:#604A50;}
	.st87{fill:#685258;}
	.st88{fill:#765E66;}
	.st89{fill:#FCF69A;}
	.st90{fill:#D3CC84;}
	.st91{fill:#E6A572;}
	.st92{fill:#74A151;}
	.st93{fill:#6F994F;}
	.st94{fill:#CC6D7D;}
	.st95{fill:#AD6576;}
	.st96{fill:#95422D;}
	.st97{fill:#BE6850;}
	.st98{fill:#3B2F32;}
	.st99{fill:none;stroke:#46383B;stroke-width:15;stroke-linecap:round;stroke-miterlimit:10;}
	.st100{fill:none;stroke:#3B2F32;stroke-width:15;stroke-linecap:round;stroke-miterlimit:10;}
	.st101{fill:#D6CF77;}
	.st102{fill:#F5EF82;}
	.st103{fill:#4A383B;}
	.st104{fill:#CACACA;}
	.st105{fill:#48373A;}
	.st106{fill:#7AA8D2;}
	.st107{fill:#6E9150;}
	.st108{fill:#587441;}
	.st109{fill:#D76E51;}
	.st110{fill:#CCC475;}
	.st111{fill:#DDD57E;}
	.st112{fill:#F8F19C;}
	.st113{fill:#FBF58A;}
	.st114{fill:#C67F20;}
	.st115{fill:#AB6B1C;}
	.st116{fill:#C98020;}
	.st117{fill:#D99A41;}
	.st118{fill:#DBA35B;}
	.st119{fill:#9B5F1B;}
	.st120{fill:#97CF6D;}
	.st121{fill:#5380B1;}
	.st122{fill:#96D16A;}
	.st123{fill:#92BD50;}
	.st124{fill:#7EB058;}
	.st125{fill:#709A50;}
	.st126{fill:#5A8A4A;}
	.st127{fill:#D9D9D9;}
	.st128{fill:#75A3CD;}
	.st129{fill:#6E974F;}
	.st130{fill:#CA6D7D;}
	.st131{fill:#AB6576;}
	.st132{fill:#93422D;}
	.st133{fill:#A44B2D;}
	.st134{fill:#BC6850;}
	.st135{fill:#DFB52B;}
	.st136{fill:#4C3A3C;}
	.st137{fill:#473538;}
	.st138{fill:#382B2E;}
	.st139{fill:none;stroke:#FFFFFF;stroke-width:8;stroke-linecap:round;stroke-miterlimit:10;}
	.st140{fill:#90C0E8;}
	.st141{fill:none;stroke:#E09122;stroke-width:12;stroke-linecap:round;stroke-miterlimit:10;}
	.st142{fill:#DCAE2B;}
	.st143{fill:#F0D05A;}
	.st144{fill:#729E51;}
	.st145{fill:#E4BA36;}
	.st146{fill:#F8F283;}
	.st147{fill:#E4B6A9;}
	.st148{fill:#D78E30;}
	.st149{fill:#598A49;}
	.st150{fill:#B65339;}
	.st151{fill:#BA751F;}
	.st152{fill:#466A9F;}
	.st153{fill:#8BB34D;}
	.st154{fill:#9BCE54;}
	.st155{fill:#7F9F49;}
	.st156{fill:#D37F6D;}
	.st157{fill:#BB5E44;}
	.st158{fill:#93BB55;}
	.st159{fill:#B3E665;}
	.st160{fill:none;stroke:#4C393C;stroke-width:8;stroke-miterlimit:10;}
	.st161{fill:#97432D;}
	.st162{fill:#DAB12A;}
	.st163{fill:#5E914C;}
	.st164{fill:#5381B3;}
	.st165{fill:#6A8F4C;}
	.st166{fill:#628047;}
	.st167{fill:#E29D37;}
	.st168{fill:#6E555B;}
	.st169{fill:#91CA67;}
	.st170{fill:#476BA1;}
	.st171{fill:#6699D9;}
	.st172{fill:#503C3E;}
	.st173{fill:#413235;}
	.st174{fill:#CC916A;}
	.st175{fill:#BA8363;}
	.st176{fill:#D09571;}
	.st177{fill:#C98F68;}
	.st178{fill:#AA3B4D;}
	.st179{fill:#DA6075;}
	.st180{fill:#92452D;}
	.st181{fill:#A24B2D;}
	.st182{fill:#B76252;}
	.st183{fill:#87BD60;}
	.st184{fill:#78A7D2;}
	.st185{fill:#F9F38F;}
	.st186{fill:#E0D650;}
	.st187{fill:#AFE086;}
	.st188{fill:#9FD476;}
	.st189{fill:#9DD176;}
	.st190{fill:#8FC468;}
	.st191{fill:#7EAE58;}
	.st192{fill:#6F9850;}
	.st193{fill:#59884A;}
	.st194{fill:#638347;}
	.st195{fill:#B95135;}
	.st196{fill:#E5AB62;}
	.st197{fill:#733228;}
	.st198{fill:#803728;}
	.st199{fill:#6D974D;}
	.st200{fill:#99CD75;}
	.st201{fill:#93412C;}
	.st202{fill:#93C2EA;}
	.st203{fill:#CD926B;}
	.st204{fill:#E6AF8A;}
	.st205{fill:#E5DB4E;}
	.st206{fill:#FBF375;}
	.st207{fill:#779E54;}
	.st208{fill:#D3966D;}
	.st209{fill:#DA4355;}
	.st210{fill:#A83B4D;}
	.st211{fill:none;stroke:#594144;stroke-width:8;stroke-linecap:round;stroke-miterlimit:10;}
	.st212{fill:#E5A855;}
	.st213{fill:#EAC291;}
	.st214{fill:#96C252;}
	.st215{fill:#695055;}
	.st216{fill:#DC9C42;}
	.st217{fill:#8E5C1B;}
	.st218{fill:#F4EB6A;}
	.st219{fill:#CBC049;}
	.st220{fill:none;stroke:#B8E876;stroke-width:15;stroke-linecap:round;stroke-miterlimit:10;}
	.st221{fill:#A36A1C;}
	.st222{fill:#ECC94A;}
	.st223{fill:#91BEDA;}
	.st224{fill:#3D2F32;}
	.st225{fill:#A6394C;}
	.st226{fill:#33292B;}
	.st227{fill:#4F3D42;}
	.st228{fill:#638147;}
	.st229{fill:#CD8321;}
	.st230{fill:#D3CA4A;}
	.st231{fill:#E2A550;}
	.st232{fill:#B75135;}
	.st233{fill:#D4CD77;}
	.st234{fill:#F3EC80;}
	.st235{fill:#46383B;}
	.st236{fill:#82AA61;}
	.st237{fill:#8EBF69;}
	.st238{fill:#3C2E31;}
	.st239{fill:#C49F27;}
	.st240{fill:#D2BF7C;}
	.st241{fill:#F6E18D;}
	.st242{fill:#D6D6D6;}
	.st243{fill:#B5D7F2;}
	.st244{fill:#F1D467;}
	.st245{fill:#739FBD;}
	.st246{fill:#D0946C;}
	.st247{fill:#BE8767;}
	.st248{fill:#D0A829;}
	.st249{fill:#F6DF86;}
	.st250{fill:#EABA8D;}
	.st251{fill:#F0D1B8;}
	.st252{fill:#A5D0F1;}
	.st253{fill:#E3A13F;}
	.st254{fill:#F0FAFF;}
	.st255{fill:#B4D3E3;}
	.st256{fill:#80A5C3;}
	.st257{fill:#87AFD5;}
	.st258{fill:#B1D1E7;}
	.st259{fill:#AED66F;}
	.st260{fill:#91AA61;}
	.st261{fill:#A8384B;}
	.st262{fill:#CD8120;}
	.st263{fill:#E6AD56;}
	.st264{fill:none;stroke:#E6AD56;stroke-width:8;stroke-linecap:round;stroke-miterlimit:10;}
	.st265{fill:#9EBD68;}
	.st266{fill:#AAD16E;}
	.st267{fill:#86656B;}
	.st268{fill:#6D954D;}
	.st269{fill:#98CB75;}
	.st270{fill:#75A251;}
	.st271{fill:#91BD4F;}
	.st272{fill:none;stroke:#B8E078;stroke-width:8;stroke-linecap:round;stroke-miterlimit:10;}
	.st273{fill:none;stroke:#B8E078;stroke-width:8;stroke-linecap:round;stroke-linejoin:round;stroke-miterlimit:10;}
	.st274{fill:#8FBA4E;}
	.st275{fill:#B3E860;}
	.st276{fill:#E7A748;}
	.st277{fill:none;stroke:#B6E676;stroke-width:15;stroke-linecap:round;stroke-miterlimit:10;}
	.st278{fill:#639B53;}
	.st279{fill:#476B9F;}
	.st280{fill:#82B1DE;}
	.st281{fill:#A6533F;}
	.st282{fill:#C28A69;}
	.st283{fill:#64494E;}
	.st284{fill:#77565C;}
	.st285{fill:#4F3C40;}
	.st286{fill:#ECCCB1;}
	.st287{fill:#BF6F5C;}
	.st288{fill:none;stroke:#D4F1A7;stroke-width:10;stroke-linecap:round;stroke-miterlimit:10;}
	.st289{fill:none;stroke:#B8E876;stroke-width:10;stroke-linecap:round;stroke-miterlimit:10;}
	.st290{fill:#47688F;}
	.st291{fill:#3F5B78;}
	.st292{fill:#354E6C;}
	.st293{fill:#DAB12B;}
	.st294{fill:#C8A028;}
	.st295{fill:#F0D15C;}
	.st296{fill:#F8F28B;}
	.st297{fill:#F7F18D;}
	.st298{fill:#DED450;}
	.st299{fill:#F9F155;}
	.st300{fill:#A2CFF4;}
	.st301{fill:none;stroke:#594144;stroke-width:10;stroke-linecap:round;stroke-miterlimit:10;}
	.st302{fill:#F5F0AB;}
	.st303{fill:#496DA1;}
	.st304{fill:#5A85C7;}
	.st305{fill:#D7D7D7;}
	.st306{fill:#ADD3E6;}
	.st307{fill:#98B8C3;}
	.st308{fill:#CDCECF;}
	.st309{fill:#BF4F69;}
	.st310{fill:#A83448;}
	.st311{fill:#A4DAF7;}
	.st312{fill:#81A861;}
	.st313{fill:#82A549;}
	.st314{fill:#B6E676;}
	.st315{fill:#8CBD69;}
	.st316{fill:#ECC62F;}
	.st317{fill:#F4EA80;}
	.st318{fill:#D6AD2B;}
	.st319{fill:#6F9151;}
	.st320{fill:#46699C;}
	.st321{fill:#4A373A;}
	.st322{fill:#89B04C;}
	.st323{fill:#99CC53;}
	.st324{fill:#B1E465;}
	.st325{fill:#E19E3B;}
	.st326{fill:#C05970;}
	.st327{fill:#D95F74;}
	.st328{fill:#74A8DE;}
	.st329{fill:#C47C1E;}
	.st330{fill:#719A51;}
	.st331{fill:#A8D95E;}
	.st332{fill:#D46C53;}
	.st333{fill:#A45340;}
	.st334{fill:#B6594A;}
	.st335{fill:#79A554;}
	.st336{fill:#B6DAF7;}
	.st337{fill:#739F51;}
	.st338{fill:#DDB32B;}
	.st339{fill:#DE8F22;}
	.st340{fill:none;stroke:#46383B;stroke-width:8;stroke-linecap:round;stroke-miterlimit:10;}
	.st341{fill:none;stroke:#3B2F32;stroke-width:8;stroke-linecap:round;stroke-miterlimit:10;}
	.st342{fill:#C8C8C8;}
	.st343{fill:#7F9D49;}
	.st344{fill:#BA5E44;}
	.st345{fill:#92B955;}
	.st346{fill:#D17F6D;}
	.st347{fill:#5D8F4C;}
	.st348{fill:#B75334;}
	.st349{fill:#CA6D57;}
	.st350{fill:#A4574D;}
	.st351{fill:#7FB1E6;}
	.st352{fill:#77A3CD;}
	.st353{fill:#90BA4F;}
	.st354{fill:#5C8F4B;}
	.st355{fill:#ACDE5D;}
	.st356{fill:#6FAC5A;}
	.st357{fill:none;stroke:#9DD055;stroke-width:10;stroke-linecap:round;stroke-miterlimit:10;}
	.st358{fill:#AD5643;}
	.st359{fill:#B96052;}
	.st360{fill:#CB8D84;}
	.st361{fill:#CC6C56;}
	.st362{fill:#DE9A8E;}
	.st363{fill:#D37B6A;}
	.st364{fill:#A87758;}
	.st365{fill:#372A2C;}
	.st366{fill:#B8815C;}
	.st367{fill:#433335;}
	.st368{fill:#2C2325;}
	.st369{fill:#95402B;}
	.st370{fill:#A85441;}
	.st371{fill:#D2C74B;}
	.st372{fill:#B25945;}
	.st373{fill:none;stroke:#594144;stroke-width:15;stroke-linecap:round;stroke-miterlimit:10;}
	.st374{fill:none;stroke:#594144;stroke-width:12;stroke-linecap:round;stroke-miterlimit:10;}
	.st375{fill:#8F473B;}
	.st376{fill:#453538;}
	.st377{fill:#517DAB;}
	.st378{fill:#75A050;}
	.st379{fill:#A5384D;}
	.st380{fill:#CC6075;}
	.st381{fill:#F26B7F;}
	.st382{fill:#C67189;}
	.st383{fill:#B26980;}
	.st384{fill:#D87990;}
	.st385{fill:#F2869B;}
	.st386{fill:#EF8499;}
	.st387{fill:#649CD7;}
	.st388{fill:#639CDB;}
	.st389{fill:#C8ED8D;}
	.st390{fill:#A9DB83;}
	.st391{fill:#9BCF76;}
	.st392{fill:#7EAC58;}
	.st393{fill:#8CC463;}
	.st394{fill:#7FAC5B;}
	.st395{fill:#769C55;}
	.st396{fill:#6A894D;}
	.st397{fill:#769B56;}
	.st398{fill:#9BCC75;}
	.st399{fill:#AF5641;}
	.st400{fill:#F4D576;}
	.st401{fill:#76A055;}
	.st402{fill:#628347;}
	.st403{fill:#4F7B9F;}
	.st404{fill:#466D86;}
	.st405{fill:#4D789C;}
</style>
<g id="BULINE">
	<circle id="XMLID_2024_" class="st12" cx="256" cy="256" r="256"/>
</g>
<g id="Icons">
	<g id="XMLID_4255_">
		<circle id="XMLID_4719_" class="st311" cx="256.3" cy="250.2" r="195.8"/>
		<path id="XMLID_4715_" class="st43" d="M470.2,142.7c-2.1-1.2-4.4-2-7-2.2c-0.5-0.1-1-0.1-1.5-0.1c-2,0-3.9,0.4-5.7,1
			c-0.3-1.5-0.7-2.9-1.2-4.3c-2.8-7.3-9-13-16.7-14.9c-1.9-0.5-3.8-0.7-5.8-0.7h-0.2c-0.7-5.2-3.8-9.6-8.1-12.1
			c-2.4-1.4-5.2-2.2-8.2-2.2c-1,0-2,0.1-3,0.3c-0.2-3-1.3-5.8-3.1-7.9c-2.4-2.9-6.1-4.8-10.2-4.8c-5.7,0-10.6,3.6-12.5,8.6
			c-0.1,0.3-0.2,0.6-0.3,0.9c-0.3,1.2-0.6,2.4-0.6,3.6c-0.2-0.2-0.3-0.4-0.5-0.5c-2.6-2.7-6.2-4.4-10.2-4.5c-0.1,0-0.2,0-0.4,0
			c-3.6,0-6.9,1.3-9.4,3.4c-3.2,2.7-5.3,6.8-5.3,11.3c0,0.2,0,0.4,0,0.5c-1.3-0.5-2.8-0.8-4.3-0.8c-5.1,0-9.4,3.3-10.9,7.9
			c-0.6,0-1.2,0-1.8,0.1c-9.1,0.7-16.7,6.5-20.2,14.5c0,0,0,0.1,0,0.1c-1.2,2.9-1.9,6.1-1.9,9.4c0,3,0.6,6,1.6,8.7
			c0.4,1,0.8,2,1.4,3c1.4,2.5,3.2,4.7,5.3,6.6c4.2,3.7,9.8,6,15.9,6h116.4c0.5,0,1,0,1.5-0.1c5.3-0.5,9.9-3.5,12.6-7.8
			c1.5-2.5,2.5-5.5,2.5-8.6C478.3,150.8,475.1,145.6,470.2,142.7z M408.6,151.7c0.1-0.1,0.2-0.2,0.3-0.3c0,0.1,0,0.2,0.1,0.3H408.6z
			"/>
		<path id="XMLID_4711_" class="st43" d="M164.4,233.5c-1-1-2.2-2-3.4-2.7c-2-1.2-4.3-2-6.7-2.2c-0.1,0-0.2,0-0.3,0
			c-0.5,0-1-0.1-1.5-0.1c-2,0-3.9,0.4-5.7,1c-0.3-1.5-0.7-3-1.2-4.4c-1.9-5.1-5.5-9.4-10.1-12.1h0c-2-1.2-4.2-2.1-6.6-2.7
			c-1.5-0.4-3.2-0.6-4.8-0.7c-0.3,0-0.7,0-1,0H123c-0.4-3.3-1.9-6.3-4-8.7c-1.2-1.4-2.6-2.5-4.2-3.4c-2.4-1.4-5.2-2.2-8.2-2.2
			c-1,0-2,0.1-3,0.3c-0.2-3-1.3-5.8-3.1-7.9c-0.2-0.3-0.5-0.6-0.8-0.9c-2.4-2.4-5.7-3.9-9.4-3.9c-5.7,0-10.6,3.6-12.5,8.6
			c-0.5,1.4-0.8,2.9-0.9,4.5c-0.2-0.2-0.3-0.4-0.5-0.5c-1.9-1.9-4.2-3.4-6.9-4.1c-1.2-0.3-2.4-0.5-3.7-0.5c-3.6,0-6.9,1.3-9.4,3.4
			c-3.2,2.7-5.3,6.8-5.3,11.3c0,0.2,0,0.4,0,0.5c-1.3-0.5-2.8-0.9-4.3-0.9c-5.1,0-9.4,3.3-10.9,8C22.7,213.3,12,224,12,237.3
			c0,3,0.6,6,1.6,8.7c3.5,9.1,12.3,15.5,22.5,15.5h116.4c0.5,0,1,0,1.5-0.1c3.6-0.3,6.9-1.8,9.4-4c0,0,0,0,0,0
			c1.2-1.1,2.3-2.4,3.2-3.8c1.5-2.5,2.5-5.5,2.5-8.6C169.1,240.5,167.3,236.5,164.4,233.5z M99.4,239.7c0.1-0.1,0.2-0.2,0.3-0.3
			c0,0.1,0,0.2,0.1,0.3H99.4z"/>
		<path id="XMLID_4371_" class="st312" d="M496,345.2c-6,16.2-13.7,31.7-22.7,46.1C428.1,463.8,347.7,512,256,512
			c-79.4,0-150.3-36.1-197.2-92.8c-15-18.1-27.5-38.2-37.1-60c1-0.1,1.9-0.1,2.9-0.1c9.1,0,17.2,3.9,22.9,10.1
			c2.2,2.5,4.1,5.3,5.4,8.3h0.6c3-2.3,6.5-4.1,10.2-5.1c2.6-0.7,5.3-1.2,8.1-1.2c0.1,0,0.3,0,0.4,0c1.7,0,3.4,0.1,5,0.4
			c3.2,0.5,6.2,1.5,9,2.9c0,0,0,0,0,0c1.7,0.9,3.3,1.9,4.8,3h0.3c2.6-3.4,5.7-6.4,9.2-8.9c0.1,0,0.1-0.1,0.2-0.1
			c0.2-0.2,0.5-0.3,0.7-0.5c0,0,0,0,0,0c2.5-1.7,5.2-3.1,8-4.1c4.5-1.7,9.4-2.6,14.5-2.6c1,0,2,0,2.9,0.1c0.5,0,1,0.1,1.5,0.1
			c2,0.2,3.9,0.6,5.8,1.1c2,0.5,4,1.2,5.9,2c0.1,0,0.1,0.1,0.2,0.1c0,0,0,0,0.1,0c4.4,1.9,8.4,4.6,11.8,7.9c0.5,0.4,0.9,0.9,1.4,1.4
			c0.7-0.9,1.4-1.7,2.1-2.5c0.1-0.1,0.2-0.2,0.3-0.4c2.2-2.4,4.7-4.6,7.4-6.5c3-2.2,6.4-4,9.9-5.3c1.8-0.7,3.7-1.3,5.6-1.8
			c0.5-0.1,1-0.2,1.5-0.3c2.5-0.5,5.1-0.9,7.7-1c0.6,0,1.2,0,1.9,0c2.1,0,4.1,0.1,6.1,0.4c2.1,0.3,4.2,0.7,6.3,1.3
			c3.8,1.1,7.5,2.6,10.8,4.6c5.2,3,9.8,7.1,13.4,11.9c0.8,1,1.5,2.1,2.2,3.2h2.4c2.3-1.8,4.9-3.2,7.6-4.3c0.4-0.2,0.9-0.3,1.3-0.5
			c2.3-0.8,4.8-1.3,7.3-1.5c0.5,0,1.1-0.1,1.6-0.1c0.3,0,0.6,0,0.8,0c2.8,0,5.6,0.4,8.2,1.1c1,0.3,2.1,0.6,3,1
			c1.5-1.3,3.2-2.5,4.9-3.5c0.2-0.1,0.3-0.2,0.5-0.3c0.2-0.1,0.5-0.2,0.7-0.4c2.9-1.5,6.1-2.6,9.5-3.1c0.4-0.1,0.9-0.1,1.3-0.2
			c8.5-0.9,16.7,1.7,22.9,6.7c1.8,1.5,3.4,3.1,4.8,4.9h5c4.1-3.3,9-5.7,14.5-6.6c0,0,0.1,0,0.1,0c0.1,0,0.2,0,0.3,0
			c0.9-0.1,1.7-0.2,2.6-0.3c6.1-0.4,12,1,17.1,3.8c2.1-3.9,4.8-7.4,8-10.4c0.2-0.2,0.4-0.4,0.6-0.6c0,0,0,0,0,0
			c1.7-1.5,3.5-2.9,5.4-4.1c0.9-0.6,1.9-1.2,2.9-1.7c1-0.5,1.9-1,3-1.4c3.1-1.4,6.5-2.3,10-2.9c0.1,0,0.2,0,0.4,0
			c3.4-0.5,6.7-0.5,9.9-0.2c1.6,0.2,3.3,0.4,4.8,0.8c0.5,0.1,1.1,0.3,1.6,0.4c5.3,1.4,10.2,3.9,14.4,7.2
			c5.2-9.3,13.5-16.7,23.8-20.7c0.1,0,0.1,0,0.2-0.1c2.4-0.9,4.9-1.6,7.5-2.1c0.6-0.1,1.2-0.2,1.8-0.3c8.4-1.3,16.6-0.2,23.9,2.7
			c5.6,2.2,10.7,5.5,15,9.7c1.3,1.2,2.5,2.6,3.7,4C485.6,350.3,490.4,347,496,345.2z"/>
		<g id="XMLID_4694_">
			<path id="XMLID_4709_" class="st313" d="M260.7,128.9c0,9.1,9.2,19.5,6.5,27.7c-2.8,8.5-16.4,11.5-21.5,18.6
				c-5.2,7.1-3.9,21-11,26.2c-7.1,5.1-19.9-0.4-28.3,2.4c-0.2,0.1-0.5,0.2-0.7,0.3c-7.9,3.1-14.8,14.5-23.7,14.5
				c-9.1,0-16.1-12-24.3-14.7c-8.5-2.8-21.3,2.8-28.3-2.4c-7.1-5.2-5.8-19.1-11-26.2c-5.1-7.1-18.8-10.1-21.5-18.6
				c-2.7-8.2,6.5-18.6,6.5-27.7c0-9.1-9.2-19.5-6.5-27.7c2.8-8.5,16.4-11.5,21.5-18.6c5.2-7.1,3.9-21,11-26.2
				c7.1-5.1,19.9,0.4,28.3-2.4c8.2-2.7,15.3-14.7,24.3-14.7c8.8,0,15.7,11.4,23.7,14.5c0.2,0.1,0.4,0.2,0.7,0.3
				c8.5,2.8,21.3-2.8,28.3,2.4c7.1,5.2,5.8,19.1,11,26.2c5.1,7.1,18.8,10.1,21.5,18.6C269.9,109.4,260.7,119.8,260.7,128.9z"/>
			<path id="XMLID_4708_" class="st274" d="M260.7,128.9c0,9.1,9.2,19.5,6.5,27.7c-2.8,8.5-16.4,11.5-21.5,18.6
				c-5.2,7.1-3.9,21-11,26.2c-7.1,5.1-19.9-0.4-28.3,2.4c-0.2,0.1-0.5,0.2-0.7,0.3c-0.2-0.1-0.4-0.2-0.7-0.3
				c-8.5-2.8-21.3,2.8-28.3-2.4c-7.1-5.2-5.8-19.1-11-26.2c-5.1-7.1-18.8-10.1-21.5-18.6c-2.7-8.2,6.5-18.6,6.5-27.7
				c0-9.1-9.2-19.5-6.5-27.7c2.8-8.5,16.4-11.5,21.5-18.6c5.2-7.1,3.9-21,11-26.2c7.1-5.1,19.9,0.4,28.3-2.4
				c0.2-0.1,0.5-0.2,0.7-0.3c0.2,0.1,0.4,0.2,0.7,0.3c8.5,2.8,21.3-2.8,28.3,2.4c7.1,5.2,5.8,19.1,11,26.2
				c5.1,7.1,18.8,10.1,21.5,18.6C269.9,109.4,260.7,119.8,260.7,128.9z"/>
			<path id="XMLID_4707_" class="st154" d="M375.1,99.5c0,9.3,9.4,20,6.7,28.4c-2.8,8.7-16.8,11.8-22.1,19.1
				c-5.3,7.3-4,21.6-11.3,26.9c-7.3,5.3-20.4-0.4-29.1,2.5c-0.2,0.1-0.5,0.2-0.7,0.3c-8.1,3.2-15.2,14.8-24.3,14.8
				c-9.3,0-16.6-12.4-25-15.1c-8.7-2.8-21.8,2.8-29.1-2.5c-7.3-5.3-6-19.6-11.3-26.9c-5.3-7.3-19.3-10.4-22.1-19.1
				c-2.7-8.4,6.7-19.1,6.7-28.4c0-9.3-9.4-20-6.7-28.4c2.8-8.7,16.8-11.8,22.1-19.1c5.3-7.3,4-21.6,11.3-26.9
				c7.3-5.3,20.4,0.4,29.1-2.5c8.4-2.7,15.7-15.1,25-15.1c9.1,0,16.2,11.7,24.3,14.8c0.2,0.1,0.5,0.2,0.7,0.3
				c8.7,2.8,21.8-2.8,29.1,2.5c7.3,5.3,6,19.6,11.3,26.9C365,59.2,379,62.3,381.8,71C384.5,79.4,375.1,90.1,375.1,99.5z"/>
			<path id="XMLID_4705_" class="st314" d="M375.1,99.5c0,9.3,9.4,20,6.7,28.4c-2.8,8.7-16.8,11.8-22.1,19.1
				c-5.3,7.3-4,21.6-11.3,26.9c-7.3,5.3-20.4-0.4-29.1,2.5c-0.2,0.1-0.5,0.2-0.7,0.3c-0.2-0.1-0.5-0.2-0.7-0.3
				c-8.7-2.8-21.8,2.8-29.1-2.5c-7.3-5.3-6-19.6-11.3-26.9c-5.3-7.3-19.3-10.4-22.1-19.1c-2.7-8.4,6.7-19.1,6.7-28.4
				c0-9.3-9.4-20-6.7-28.4c2.8-8.7,16.8-11.8,22.1-19.1c5.3-7.3,4-21.6,11.3-26.9c7.3-5.3,20.4,0.4,29.1-2.5
				c0.2-0.1,0.5-0.2,0.7-0.3c0.2,0.1,0.5,0.2,0.7,0.3c8.7,2.8,21.8-2.8,29.1,2.5c7.3,5.3,6,19.6,11.3,26.9
				C365,59.2,379,62.3,381.8,71C384.5,79.4,375.1,90.1,375.1,99.5z"/>
			<path id="XMLID_4704_" class="st154" d="M425.2,218.5c0,9.3,9.4,20,6.7,28.4c-2.8,8.7-16.8,11.8-22.1,19.1
				c-5.3,7.3-4,21.6-11.3,26.9c-7.3,5.3-20.4-0.4-29.1,2.5c-0.2,0.1-0.5,0.2-0.7,0.3c-8.1,3.2-15.2,14.8-24.3,14.8
				c-9.3,0-16.6-12.4-25-15.1c-8.7-2.8-21.8,2.8-29.1-2.5c-7.3-5.3-6-19.6-11.3-26.9c-5.3-7.3-19.3-10.4-22.1-19.1
				c-2.7-8.4,6.7-19.1,6.7-28.4c0-9.3-9.4-20-6.7-28.4c2.8-8.7,16.8-11.8,22.1-19.1c5.3-7.3,4-21.6,11.3-26.9
				c7.3-5.3,20.4,0.4,29.1-2.5c8.4-2.7,15.7-15.1,25-15.1c9.1,0,16.2,11.7,24.3,14.8c0.2,0.1,0.5,0.2,0.7,0.3
				c8.7,2.8,21.8-2.8,29.1,2.5c7.3,5.3,6,19.6,11.3,26.9c5.3,7.3,19.3,10.4,22.1,19.1C434.6,198.5,425.2,209.2,425.2,218.5z"/>
			<path id="XMLID_4703_" class="st314" d="M425.2,218.5c0,9.3,9.4,20,6.7,28.4c-2.8,8.7-16.8,11.8-22.1,19.1
				c-5.3,7.3-4,21.6-11.3,26.9c-7.3,5.3-20.4-0.4-29.1,2.5c-0.2,0.1-0.5,0.2-0.7,0.3c-0.2-0.1-0.5-0.2-0.7-0.3
				c-8.7-2.8-21.8,2.8-29.1-2.5c-7.3-5.3-6-19.6-11.3-26.9c-5.3-7.3-19.3-10.4-22.1-19.1c-2.7-8.4,6.7-19.1,6.7-28.4
				c0-9.3-9.4-20-6.7-28.4c2.8-8.7,16.8-11.8,22.1-19.1c5.3-7.3,4-21.6,11.3-26.9c7.3-5.3,20.4,0.4,29.1-2.5
				c0.2-0.1,0.5-0.2,0.7-0.3c0.2,0.1,0.5,0.2,0.7,0.3c8.7,2.8,21.8-2.8,29.1,2.5c7.3,5.3,6,19.6,11.3,26.9
				c5.3,7.3,19.3,10.4,22.1,19.1C434.6,198.5,425.2,209.2,425.2,218.5z"/>
			<path id="XMLID_4702_" class="st313" d="M212.6,240.7c0,7.5,7.6,16.2,5.4,23c-2.3,7-13.6,9.5-17.8,15.4
				c-4.3,5.9-3.2,17.4-9.1,21.7c-5.9,4.3-16.5-0.3-23.5,2c-0.2,0.1-0.4,0.1-0.6,0.2c-6.6,2.5-12.3,12-19.6,12
				c-7.5,0-13.4-10-20.2-12.2c-7-2.3-17.6,2.3-23.5-2c-5.9-4.3-4.8-15.8-9.1-21.7c-4.3-5.9-15.6-8.4-17.8-15.4
				c-2.2-6.8,5.4-15.4,5.4-23c0-7.5-7.6-16.2-5.4-23c2.3-7,13.6-9.5,17.8-15.4c4.3-5.9,3.2-17.4,9.1-21.7c5.9-4.3,16.5,0.3,23.5-2
				c6.8-2.2,12.6-12.2,20.2-12.2c7.3,0,13.1,9.4,19.6,12c0.2,0.1,0.4,0.1,0.6,0.2c7,2.3,17.6-2.3,23.5,2c5.9,4.3,4.8,15.8,9.1,21.7
				c4.3,5.9,15.6,8.4,17.8,15.4C220.2,224.5,212.6,233.2,212.6,240.7z"/>
			<path id="XMLID_4701_" class="st274" d="M212.6,240.7c0,7.5,7.6,16.2,5.4,23c-2.3,7-13.6,9.5-17.8,15.4
				c-4.3,5.9-3.2,17.4-9.1,21.7c-5.9,4.3-16.5-0.3-23.5,2c-0.2,0.1-0.4,0.1-0.6,0.2c-0.2-0.1-0.4-0.1-0.6-0.2
				c-7-2.3-17.6,2.3-23.5-2c-5.9-4.3-4.8-15.8-9.1-21.7c-4.3-5.9-15.6-8.4-17.9-15.4c-2.2-6.8,5.4-15.4,5.4-23
				c0-7.5-7.6-16.2-5.4-23c2.3-7,13.6-9.5,17.9-15.4c4.3-5.9,3.2-17.4,9.1-21.7c5.9-4.3,16.5,0.3,23.5-2c0.2-0.1,0.4-0.1,0.6-0.2
				c0.2,0.1,0.4,0.1,0.6,0.2c7,2.3,17.6-2.3,23.5,2c5.9,4.3,4.8,15.8,9.1,21.7c4.3,5.9,15.6,8.4,17.8,15.4
				C220.2,224.5,212.6,233.2,212.6,240.7z"/>
			<path id="XMLID_4700_" class="st313" d="M314.8,240.7c0,7.5,7.6,16.2,5.4,23c-2.3,7-13.6,9.5-17.8,15.4
				c-4.3,5.9-3.2,17.4-9.1,21.7c-5.9,4.3-16.5-0.3-23.5,2c-0.2,0.1-0.4,0.1-0.6,0.2c-6.6,2.5-12.3,12-19.6,12
				c-7.5,0-13.4-10-20.2-12.2c-7-2.3-17.6,2.3-23.5-2c-5.9-4.3-4.8-15.8-9.1-21.7c-4.3-5.9-15.6-8.4-17.8-15.4
				c-2.2-6.8,5.4-15.4,5.4-23c0-7.5-7.6-16.2-5.4-23c2.3-7,13.6-9.5,17.8-15.4c4.3-5.9,3.2-17.4,9.1-21.7c5.9-4.3,16.5,0.3,23.5-2
				c6.8-2.2,12.6-12.2,20.2-12.2c7.3,0,13.1,9.4,19.6,12c0.2,0.1,0.4,0.1,0.6,0.2c7,2.3,17.6-2.3,23.5,2c5.9,4.3,4.8,15.8,9.1,21.7
				c4.3,5.9,15.6,8.4,17.8,15.4C322.4,224.5,314.8,233.2,314.8,240.7z"/>
			<path id="XMLID_4699_" class="st274" d="M314.8,240.7c0,7.5,7.6,16.2,5.4,23c-2.3,7-13.6,9.5-17.8,15.4
				c-4.3,5.9-3.2,17.4-9.1,21.7c-5.9,4.3-16.5-0.3-23.5,2c-0.2,0.1-0.4,0.1-0.6,0.2c-0.2-0.1-0.4-0.1-0.6-0.2
				c-7-2.3-17.6,2.3-23.5-2c-5.9-4.3-4.8-15.8-9.1-21.7c-4.3-5.9-15.6-8.4-17.9-15.4c-2.2-6.8,5.4-15.4,5.4-23
				c0-7.5-7.6-16.2-5.4-23c2.3-7,13.6-9.5,17.9-15.4c4.3-5.9,3.2-17.4,9.1-21.7c5.9-4.3,16.5,0.3,23.5-2c0.2-0.1,0.4-0.1,0.6-0.2
				c0.2,0.1,0.4,0.1,0.6,0.2c7,2.3,17.6-2.3,23.5,2c5.9,4.3,4.8,15.8,9.1,21.7c4.3,5.9,15.6,8.4,17.8,15.4
				C322.4,224.5,314.8,233.2,314.8,240.7z"/>
			<g id="XMLID_4696_">
				<path id="XMLID_4698_" class="st2" d="M392.7,202.4c-1.4,4.1-3.4,7.5-5.7,10.4c-7.5,9.2-18.9,12.1-29.7,12.1
					c-4.5,0-8.9-0.5-12.9-1.3c-6.1,13.8-16.1,25.2-28.8,32.9c7,6.8,18.8,16.5,32,18c8.4,1,16-1.3,23.3-7.1c2.4-1.9,5.9-1.5,7.8,0.9
					c1.9,2.4,1.5,5.9-0.9,7.8c-8.1,6.4-17,9.7-26.4,9.7c-1.7,0-3.4-0.1-5.1-0.3c-18.3-2.2-33.7-16-41.1-23.8l-3.7,1.5l-26.6,10.9
					l6.1,199.7h-44.3l4.5-146l-67.3-37c-9.1-5-16.9-12.3-22.4-21.1l-2-3.1c-2.7,0.3-6,0.6-9.7,0.6c-12.4,0-28-3.2-33.5-18.1
					c-1-2.9,0.4-6,3.3-7.1c2.9-1.1,6.1,0.4,7.1,3.3c3.6,9.8,16.5,11.2,26.1,10.7l-27.2-43.3c-2.4-3.9-1.3-9,2.6-11.4
					c3.9-2.4,9-1.3,11.5,2.6l19.6,31.2l21.4-28.4c1.8-2.4,5.3-2.9,7.8-1.1c2.4,1.8,2.9,5.3,1.1,7.8l-23.9,31.8l9.9,15.8
					c4,6.4,9.7,11.8,16.4,15.4l59.8,32.9l3.8-124c-6.8-1.9-15.9-4.9-25.5-9.9c-26.5-13.7-44.7-35.4-52.8-62.7
					c-1.3-4.4,1.2-9,5.6-10.3c4.4-1.3,9,1.2,10.3,5.6c3.8,12.7,10,23.7,18.5,33.1c6.5-8,12.9-17.9,12.6-23.1c-0.2-3,2.2-5.7,5.2-5.8
					c3.1-0.2,5.7,2.2,5.8,5.2c0.6,10.1-8.9,23.4-15.6,31.4c5.2,4.4,11,8.3,17.5,11.6c6.9,3.6,13.5,6.1,18.9,7.8l1.4-46.7
					c0.2-5.8,4.6-10.5,10.3-11c0.4,0,0.7-0.1,1.1-0.1c6.2,0,11.2,4.9,11.4,11.1l1.1,35.2l17.7-11.3c3.9-2.5,6.6-6.3,7.7-10.7
					l7.2-28.1l21-11c2.7-1.4,6.1-0.4,7.5,2.3c1.4,2.7,0.4,6.1-2.3,7.5l-16.6,8.7l-5.9,23.3c-1.8,7.2-6.3,13.3-12.5,17.3l-23.3,14.8
					l2.7,87.1l24.8-10.2c1.9-0.8,3.7-1.7,5.5-2.6c10.9-5.9,19.5-15.2,24.5-26.8l14-31.9c1.8-4.2,6.7-6.1,10.9-4.3
					c4.2,1.8,6.1,6.7,4.3,10.9l-9.4,21.6c10.6,1.7,27.6,1.7,33.1-14.3c0.3-0.9,0.8-1.6,1.4-2.2c1.4-1.4,3.6-1.9,5.6-1.2
					C392.2,196.3,393.7,199.5,392.7,202.4z"/>
				<path id="XMLID_4697_" class="st74" d="M257.9,110.2v363.6h-21l4.5-146l-67.3-37c-9.1-5-16.9-12.3-22.4-21.1l-2-3.1
					c-2.7,0.3-6,0.6-9.7,0.6c-12.4,0-28-3.2-33.5-18.1c-1-2.9,0.4-6,3.3-7.1c2.9-1.1,6.1,0.4,7.1,3.3c3.6,9.8,16.5,11.2,26.1,10.7
					l-27.2-43.3c-2.4-3.9-1.3-9,2.6-11.5c3.9-2.4,9-1.3,11.5,2.6l19.6,31.2l21.4-28.4c1.8-2.4,5.3-2.9,7.8-1.1
					c2.4,1.8,2.9,5.3,1.1,7.8l-23.9,31.8l9.9,15.8c4,6.4,9.7,11.8,16.4,15.4l59.8,32.9l3.8-124c-6.8-1.8-15.9-4.9-25.5-9.9
					c-26.5-13.7-44.7-35.4-52.8-62.7c-1.3-4.4,1.2-9,5.6-10.3c4.4-1.3,9,1.2,10.3,5.6c3.8,12.7,10,23.7,18.5,33.1
					c6.5-8,12.9-17.9,12.6-23.1c-0.2-3,2.2-5.7,5.2-5.8c3.1-0.2,5.7,2.2,5.8,5.2c0.6,10.1-8.9,23.4-15.6,31.4
					c5.2,4.4,11,8.3,17.5,11.7c6.9,3.6,13.5,6.1,18.9,7.8l1.4-46.7C247.8,115.4,252.2,110.8,257.9,110.2z"/>
			</g>
			<path id="XMLID_4695_" class="st215" d="M315.7,256.4c7,6.8,18.8,16.5,32,18c8.4,1,16-1.3,23.3-7.1c2.4-1.9,5.9-1.5,7.8,0.9
				c1.9,2.4,1.5,5.9-0.9,7.8c-8.1,6.4-17,9.7-26.4,9.7c-1.7,0-3.4-0.1-5.1-0.3c-18.3-2.2-33.7-16-41.1-23.8l-3.7,1.5
				c0.7-6.6,1.8-13.2,3.2-19.7c10.9-5.9,19.5-15.2,24.5-26.8l14-31.9c1.8-4.2,6.7-6.1,10.9-4.3c4.2,1.8,6.1,6.7,4.3,10.9l-9.4,21.6
				c10.6,1.7,27.6,1.7,33.1-14.3c0.3-0.9,0.8-1.6,1.4-2.2l3.4,16.2c-7.5,9.2-18.9,12.1-29.7,12.1c-4.5,0-8.9-0.5-12.9-1.3
				C338.5,237.3,328.4,248.7,315.7,256.4z"/>
		</g>
		<g id="XMLID_4689_">
			<g id="XMLID_4691_">
				<path id="XMLID_4693_" class="st5" d="M183.3,294v-3.2c0-6.6-5.4-12.1-11.9-12c-6.4,0.1-11.5,5.3-11.5,11.7v3.5
					c0,2.7-1.1,5.3-3.1,7.2c-4.5,4.2-7.2,10.2-6.9,16.8c0.4,11.3,9.6,20.4,20.9,20.9c12.4,0.5,22.6-9.4,22.6-21.7c0-6.3-2.7-12-7-16
					C184.3,299.3,183.3,296.7,183.3,294z"/>
				<path id="XMLID_4692_" class="st6" d="M167.9,318c-0.3-6.6,2.5-12.7,6.9-16.8c2-1.8,3.1-4.5,3.1-7.2v-3.5c0-2.8,1-5.3,2.6-7.3
					c-2.2-2.7-5.5-4.4-9.2-4.4c-6.4,0.1-11.5,5.3-11.5,11.7v3.5c0,2.7-1.1,5.3-3.1,7.2c-4.5,4.2-7.2,10.2-6.9,16.8
					c0.4,11.3,9.6,20.4,20.9,20.9c3.5,0.1,6.9-0.6,9.9-2C173.4,333.5,168.2,326.3,167.9,318z"/>
			</g>
			<path id="XMLID_4690_" class="st52" d="M164.5,268.6c6.1,3.5,9.3,9.3,7.1,13c-2.1,3.6-8.7,3.7-14.8,0.2c-6.1-3.5-7.1-13-7.1-13
				S158.4,265,164.5,268.6z"/>
		</g>
		<g id="XMLID_4683_">
			<g id="XMLID_4686_">
				<path id="XMLID_4688_" class="st5" d="M380.4,235.4v-3.2c0-6.6-5.4-12.1-11.9-12c-6.4,0.1-11.5,5.3-11.5,11.7v3.5
					c0,2.7-1.1,5.3-3.1,7.2c-4.5,4.2-7.2,10.2-6.9,16.8c0.4,11.3,9.6,20.4,20.9,20.9c12.4,0.5,22.6-9.4,22.6-21.7c0-6.3-2.7-12-7-16
					C381.5,240.7,380.4,238.1,380.4,235.4z"/>
				<path id="XMLID_4687_" class="st6" d="M365,259.4c-0.3-6.6,2.5-12.7,6.9-16.8c2-1.8,3.1-4.5,3.1-7.2v-3.5c0-2.8,1-5.3,2.6-7.3
					c-2.2-2.7-5.5-4.4-9.2-4.4c-6.4,0.1-11.5,5.3-11.5,11.7v3.5c0,2.7-1.1,5.3-3.1,7.2c-4.5,4.2-7.2,10.2-6.9,16.8
					c0.4,11.3,9.6,20.4,20.9,20.9c3.5,0.1,6.9-0.6,9.9-2C370.5,274.9,365.4,267.7,365,259.4z"/>
			</g>
			<path id="XMLID_4685_" class="st52" d="M361.6,210c6.1,3.5,9.3,9.3,7.1,13c-2.1,3.6-8.7,3.7-14.8,0.2c-6.1-3.5-7.1-13-7.1-13
				S355.6,206.4,361.6,210z"/>
		</g>
		<g id="XMLID_4678_">
			<g id="XMLID_4680_">
				<path id="XMLID_4682_" class="st5" d="M193.8,152.1v-3.2c0-6.6-5.4-12.1-11.9-12c-6.4,0.1-11.5,5.3-11.5,11.7v3.5
					c0,2.7-1.1,5.3-3.1,7.2c-4.5,4.2-7.2,10.2-6.9,16.8c0.4,11.3,9.6,20.4,20.9,20.9c12.4,0.5,22.6-9.4,22.6-21.7c0-6.3-2.7-12-7-16
					C194.9,157.4,193.8,154.8,193.8,152.1z"/>
				<path id="XMLID_4681_" class="st6" d="M178.4,176c-0.3-6.6,2.5-12.7,6.9-16.8c2-1.8,3.1-4.5,3.1-7.2v-3.5c0-2.8,1-5.3,2.6-7.3
					c-2.2-2.7-5.5-4.4-9.2-4.4c-6.4,0.1-11.5,5.3-11.5,11.7v3.5c0,2.7-1.1,5.3-3.1,7.2c-4.5,4.2-7.2,10.2-6.9,16.8
					c0.4,11.3,9.6,20.4,20.9,20.9c3.5,0.1,6.9-0.6,9.9-2C183.9,191.6,178.8,184.4,178.4,176z"/>
			</g>
			<path id="XMLID_4679_" class="st52" d="M175,126.6c6.1,3.5,9.3,9.3,7.1,13s-8.7,3.7-14.8,0.2c-6.1-3.5-7.1-13-7.1-13
				S168.9,123.1,175,126.6z"/>
		</g>
		<g id="XMLID_4669_">
			<g id="XMLID_4671_">
				<path id="XMLID_4676_" class="st5" d="M338.5,116.2v-3.2c0-6.6-5.4-12.1-11.9-12c-6.4,0.1-11.5,5.3-11.5,11.7v3.5
					c0,2.7-1.1,5.3-3.1,7.2c-4.5,4.2-7.2,10.2-6.9,16.8c0.4,11.3,9.6,20.4,20.9,20.9c12.4,0.5,22.6-9.4,22.6-21.7c0-6.3-2.7-12-7-16
					C339.6,121.5,338.5,118.9,338.5,116.2z"/>
				<path id="XMLID_4674_" class="st6" d="M323.1,140.1c-0.3-6.6,2.5-12.7,6.9-16.8c2-1.8,3.1-4.5,3.1-7.2v-3.5c0-2.8,1-5.3,2.6-7.3
					c-2.2-2.7-5.5-4.4-9.2-4.4c-6.4,0.1-11.5,5.3-11.5,11.7v3.5c0,2.7-1.1,5.3-3.1,7.2c-4.5,4.2-7.2,10.2-6.9,16.8
					c0.4,11.3,9.6,20.4,20.9,20.9c3.5,0.1,6.9-0.6,9.9-2C328.6,155.7,323.5,148.5,323.1,140.1z"/>
			</g>
			<path id="XMLID_4670_" class="st52" d="M319.7,90.7c6.1,3.5,9.3,9.3,7.1,13c-2.1,3.6-8.7,3.7-14.8,0.2c-6.1-3.5-7.1-13-7.1-13
				S313.6,87.2,319.7,90.7z"/>
		</g>
		<g id="XMLID_4644_">
			<g id="XMLID_4650_">
				<path id="XMLID_4668_" class="st5" d="M330.3,379l-0.4-3.2c-0.7-6.5-6.7-11.4-13.2-10.6c-6.3,0.8-10.8,6.5-10.1,12.9l0.4,3.5
					c0.3,2.7-0.5,5.4-2.3,7.5c-4,4.6-6,10.9-5,17.5c1.7,11.1,11.8,19.2,23,18.4c12.4-0.9,21.4-11.9,20.1-24.1
					c-0.7-6.3-4-11.6-8.7-15.1C332,384.2,330.6,381.7,330.3,379z"/>
				<path id="XMLID_4666_" class="st6" d="M317.7,404.5c-1-6.6,1.1-12.8,5-17.5c1.8-2.1,2.6-4.8,2.3-7.5l-0.4-3.5
					c-0.3-2.8,0.4-5.4,1.8-7.6c-2.5-2.4-6-3.8-9.6-3.3c-6.3,0.8-10.8,6.5-10.1,12.9l0.4,3.5c0.3,2.7-0.5,5.4-2.3,7.5
					c-4,4.6-6,10.9-5,17.5c1.7,11.1,11.8,19.2,23,18.4c3.5-0.3,6.8-1.3,9.6-3C324.8,419.4,318.9,412.8,317.7,404.5z"/>
			</g>
			<path id="XMLID_4649_" class="st52" d="M308.9,355.8c6.4,2.8,10.2,8.3,8.5,12.1c-1.7,3.8-8.3,4.7-14.7,1.8
				c-6.4-2.8-8.5-12.1-8.5-12.1S302.5,353,308.9,355.8z"/>
		</g>
		<g id="XMLID_4257_">
			<g id="XMLID_4259_">
				<path id="XMLID_4643_" class="st5" d="M185.9,375l-2.4-2.2c-4.8-4.5-12.5-4.3-16.9,0.6c-4.2,4.8-3.9,12,0.8,16.4l2.6,2.4
					c2,1.8,3.2,4.4,3.2,7.1c0,6.1,2.6,12.2,7.6,16.5c8.6,7.3,21.5,6.8,29.5-1.2c8.8-8.8,8.4-23-0.6-31.3c-4.6-4.3-10.6-6.2-16.5-5.7
					C190.5,377.8,187.9,376.8,185.9,375z"/>
				<path id="XMLID_4260_" class="st6" d="M193.1,402.5c-5.1-4.3-7.6-10.4-7.6-16.5c0-2.7-1.2-5.3-3.2-7.1l-2.6-2.4
					c-2-1.9-3.3-4.3-3.6-6.9c-3.5-0.2-7,1-9.4,3.8c-4.2,4.8-3.9,12,0.8,16.4l2.6,2.4c2,1.8,3.2,4.4,3.2,7.1c0,6.1,2.6,12.2,7.6,16.5
					c8.6,7.3,21.5,6.8,29.5-1.2c2.5-2.5,4.3-5.5,5.3-8.6C208.2,409.1,199.4,408,193.1,402.5z"/>
			</g>
			<path id="XMLID_4258_" class="st52" d="M154.5,371.5c6.7-2.1,13.1-0.5,14.4,3.6c1.2,4-3.2,8.9-9.9,11c-6.7,2.1-14.4-3.6-14.4-3.6
				S147.8,373.6,154.5,371.5z"/>
		</g>
		<path id="XMLID_4286_" class="st315" d="M473.3,391.3C428.1,463.8,347.7,512,256,512c-79.4,0-150.3-36.1-197.2-92.8
			c4-1.9,8.4-3,13.1-3.1c0.1,0,0.3,0,0.4,0c3,0,5.8,0.4,8.5,1.2c2.1,0.6,4,1.4,5.9,2.4c1.5,0.8,3,1.7,4.3,2.8h0.3
			c1.4-1.9,3-3.7,4.8-5.3c1.4-1.4,3-2.6,4.6-3.7c0.2-0.2,0.5-0.3,0.7-0.5c0,0,0,0,0,0c6.5-4.3,14.2-6.8,22.5-6.8c0.5,0,1,0,1.6,0
			c1,0,1.9,0.1,2.8,0.2c2,0.2,3.9,0.6,5.8,1.1c2.1,0.5,4.2,1.2,6.1,2.1c0,0,0,0,0.1,0c2.1,0.9,4.1,2,6,3.3c1.9,1.2,3.7,2.6,5.3,4.2
			c0.4,0.4,0.9,0.8,1.3,1.2c0.1,0.1,0.2,0.2,0.3,0.3s0.2,0.2,0.3,0.3c0.1-0.2,0.3-0.4,0.4-0.6c0.1-0.1,0.2-0.3,0.4-0.4
			c0.1-0.1,0.2-0.3,0.4-0.5c0.1-0.1,0.2-0.2,0.3-0.3c0.6-0.7,1.3-1.5,2-2.2c4-4.2,8.9-7.6,14.3-10c0,0,0,0,0,0
			c0.8-0.4,1.7-0.7,2.6-1c2.1-0.8,4.3-1.4,6.5-1.9c2.5-0.5,5.1-0.9,7.7-1c0.6,0,1.2,0,1.9,0c0.6,0,1.2,0,1.8,0
			c7.6,0.3,14.6,2.4,20.8,5.9c0.2,0.1,0.4,0.2,0.5,0.3c0.6,0.3,1.1,0.7,1.7,1c3.8,2.4,7.1,5.4,10,8.8c0.6,0.7,1.2,1.4,1.7,2.1
			c0.8,1,1.5,2.1,2.2,3.2h2.4c2.3-1.7,4.8-3.2,7.5-4.2c0,0,0.1,0,0.1,0c1-0.4,2-0.7,3.1-1c1.8-0.5,3.6-0.8,5.5-1
			c0.5,0,1.1-0.1,1.6-0.1c0.3,0,0.6,0,0.8,0c2.8,0,5.4,0.4,7.9,1.1c0.1,0,0.2,0,0.2,0.1c1,0.3,2.1,0.6,3,1c0.4-0.4,0.9-0.7,1.3-1.1
			c1.3-1,2.7-1.9,4.1-2.7c0.2-0.1,0.5-0.2,0.7-0.4c0,0,0.1,0,0.1-0.1c2.9-1.5,6-2.5,9.4-3c0.9-0.1,1.8-0.2,2.6-0.3
			c7.8-0.5,15.2,1.9,21.1,6.5c0.2,0.1,0.3,0.2,0.5,0.4c1.8,1.5,3.4,3.1,4.8,4.9h5c0.1,0,0.1-0.1,0.2-0.1c2.7-2.2,5.8-3.9,9.2-5.1
			c1.1-0.4,2.3-0.7,3.5-1c0.6-0.1,1.2-0.2,1.7-0.3c0.1,0,0.3-0.1,0.4-0.1c4.5-0.7,8.8-0.4,12.9,0.8c0.7,0.2,1.4,0.4,2,0.6
			c1.6,0.6,3.2,1.3,4.7,2.1c0.4-0.7,0.8-1.4,1.2-2.1c1.9-3.1,4.1-5.9,6.7-8.3c0.2-0.2,0.4-0.4,0.6-0.6c0,0,0,0,0,0
			c2.1-1.9,4.4-3.6,6.9-5.1c3.6-2.1,7.5-3.6,11.7-4.5c0.9-0.2,1.7-0.4,2.6-0.5c0.1,0,0.2,0,0.4-0.1c3.2-0.5,6.4-0.5,9.5-0.2
			c0.2,0,0.3,0,0.5,0c2.1,0.2,4.2,0.6,6.2,1.1c0.1,0,0.1,0,0.2,0.1c5.3,1.4,10.2,3.9,14.4,7.2c5.2-9.3,13.6-16.8,23.9-20.7
			c2.4-0.9,4.9-1.6,7.5-2.1c0.6-0.1,1.2-0.2,1.8-0.3c8.4-1.3,16.6-0.2,23.9,2.7C466.9,387.2,470.3,389.1,473.3,391.3z"/>
	</g>
</g>
</svg>
