<?xml version="1.0" encoding="utf-8"?>
<!-- Generator: Adobe Illustrator 22.0.1, SVG Export Plug-In . SVG Version: 6.00 Build 0)  -->
<svg version="1.1" xmlns="http://www.w3.org/2000/svg" xmlns:xlink="http://www.w3.org/1999/xlink" x="0px" y="0px"
	 viewBox="0 0 512 512" style="enable-background:new 0 0 512 512;" xml:space="preserve">
<style type="text/css">
	.st0{fill:#4B71B4;}
	.st1{fill:#80B4E8;}
	.st2{fill:#594144;}
	.st3{fill:#B8E876;}
	.st4{fill:#E09122;}
	.st5{fill:#FBF355;}
	.st6{fill:#EEC82F;}
	.st7{fill:#CEA628;}
	.st8{fill:#9BC9EF;}
	.st9{fill:#9DD055;}
	.st10{fill:#5686C5;}
	.st11{fill:#3B5880;}
	.st12{fill:#C2E5FB;}
	.st13{fill:#446697;}
	.st14{fill:#D1F1A0;}
	.st15{fill:#ABD170;}
	.st16{fill:#9DBD6A;}
	.st17{fill:#649D53;}
	.st18{fill:#72B35D;}
	.st19{fill:#ABD68D;}
	.st20{fill:#7FB358;}
	.st21{fill:#920C50;}
	.st22{fill:#C60053;}
	.st23{fill:#530730;}
	.st24{fill:#600332;}
	.st25{fill:#D5AC2A;}
	.st26{fill:#EFD776;}
	.st27{fill:#A7C76D;}
	.st28{fill:#A43749;}
	.st29{fill:#DC4355;}
	.st30{fill:#E18696;}
	.st31{fill:#77A255;}
	.st32{fill:#628547;}
	.st33{fill:#6E994D;}
	.st34{fill:none;stroke:#54743C;stroke-width:8;stroke-linecap:round;stroke-miterlimit:10;}
	.st35{fill:#9BCF75;}
	.st36{fill:#CA8F80;}
	.st37{fill:#E6B8AB;}
	.st38{fill:#E2A18B;}
	.st39{fill:#8E3F2B;}
	.st40{fill:#D89988;}
	.st41{fill:#CFCFCF;}
	.st42{fill:#A64B2D;}
	.st43{fill:#FFFFFF;}
	.st44{fill:#CA801F;}
	.st45{fill:#719C50;}
	.st46{fill:#85B7E5;}
	.st47{fill:#4F7BA9;}
	.st48{fill:#674C50;}
	.st49{fill:#BAD7ED;}
	.st50{fill:#63494D;}
	.st51{fill:#503D3F;}
	.st52{fill:#638547;}
	.st53{fill:#56713E;}
	.st54{fill:#BB5135;}
	.st55{fill:#93C4EC;}
	.st56{fill:#CA8121;}
	.st57{fill:#FDFCFC;}
	.st58{fill:#A83A4F;}
	.st59{fill:#BD5E44;}
	.st60{fill:#688C4A;}
	.st61{fill:#7DA55A;}
	.st62{fill:#90BA51;}
	.st63{fill:none;}
	.st64{fill:#ABC287;}
	.st65{fill:#BDD993;}
	.st66{fill:none;stroke:#534046;stroke-width:15;stroke-linecap:round;stroke-linejoin:round;stroke-miterlimit:10;}
	.st67{fill:#413133;}
	.st68{fill:#34292B;}
	.st69{fill:#644B50;}
	.st70{fill:#CDACB7;}
	.st71{fill:#A83A4D;}
	.st72{fill:#413335;}
	.st73{fill:#DC6579;}
	.st74{fill:#4C393C;}
	.st75{fill:#527FAE;}
	.st76{fill:#92C2EA;}
	.st77{fill:#5B8C4A;}
	.st78{fill:#729C51;}
	.st79{fill:#AADB5E;}
	.st80{fill:#D66C53;}
	.st81{fill:#A65340;}
	.st82{fill:#B8594A;}
	.st83{fill:#79A754;}
	.st84{fill:#4E3B3E;}
	.st85{fill:#5E4649;}
	.st86{fill:#604A50;}
	.st87{fill:#685258;}
	.st88{fill:#765E66;}
	.st89{fill:#FCF69A;}
	.st90{fill:#D3CC84;}
	.st91{fill:#E6A572;}
	.st92{fill:#74A151;}
	.st93{fill:#6F994F;}
	.st94{fill:#CC6D7D;}
	.st95{fill:#AD6576;}
	.st96{fill:#95422D;}
	.st97{fill:#BE6850;}
	.st98{fill:#3B2F32;}
	.st99{fill:none;stroke:#46383B;stroke-width:15;stroke-linecap:round;stroke-miterlimit:10;}
	.st100{fill:none;stroke:#3B2F32;stroke-width:15;stroke-linecap:round;stroke-miterlimit:10;}
	.st101{fill:#D6CF77;}
	.st102{fill:#F5EF82;}
	.st103{fill:#4A383B;}
	.st104{fill:#CACACA;}
	.st105{fill:#48373A;}
	.st106{fill:#7AA8D2;}
	.st107{fill:#6E9150;}
	.st108{fill:#587441;}
	.st109{fill:#D76E51;}
	.st110{fill:#CCC475;}
	.st111{fill:#DDD57E;}
	.st112{fill:#F8F19C;}
	.st113{fill:#FBF58A;}
	.st114{fill:#C67F20;}
	.st115{fill:#AB6B1C;}
	.st116{fill:#C98020;}
	.st117{fill:#D99A41;}
	.st118{fill:#DBA35B;}
	.st119{fill:#9B5F1B;}
	.st120{fill:#97CF6D;}
	.st121{fill:#5380B1;}
	.st122{fill:#96D16A;}
	.st123{fill:#92BD50;}
	.st124{fill:#7EB058;}
	.st125{fill:#709A50;}
	.st126{fill:#5A8A4A;}
	.st127{fill:#D9D9D9;}
	.st128{fill:#75A3CD;}
	.st129{fill:#6E974F;}
	.st130{fill:#CA6D7D;}
	.st131{fill:#AB6576;}
	.st132{fill:#93422D;}
	.st133{fill:#A44B2D;}
	.st134{fill:#BC6850;}
	.st135{fill:#DFB52B;}
	.st136{fill:#4C3A3C;}
	.st137{fill:#473538;}
	.st138{fill:#382B2E;}
	.st139{fill:none;stroke:#FFFFFF;stroke-width:8;stroke-linecap:round;stroke-miterlimit:10;}
	.st140{fill:#90C0E8;}
	.st141{fill:none;stroke:#E09122;stroke-width:12;stroke-linecap:round;stroke-miterlimit:10;}
	.st142{fill:#DCAE2B;}
	.st143{fill:#F0D05A;}
	.st144{fill:#729E51;}
	.st145{fill:#E4BA36;}
	.st146{fill:#F8F283;}
	.st147{fill:#E4B6A9;}
	.st148{fill:#D78E30;}
	.st149{fill:#598A49;}
	.st150{fill:#B65339;}
	.st151{fill:#BA751F;}
	.st152{fill:#466A9F;}
	.st153{fill:#8BB34D;}
	.st154{fill:#9BCE54;}
	.st155{fill:#7F9F49;}
	.st156{fill:#D37F6D;}
	.st157{fill:#BB5E44;}
	.st158{fill:#93BB55;}
	.st159{fill:#B3E665;}
	.st160{fill:none;stroke:#4C393C;stroke-width:8;stroke-miterlimit:10;}
	.st161{fill:#97432D;}
	.st162{fill:#DAB12A;}
	.st163{fill:#5E914C;}
	.st164{fill:#5381B3;}
	.st165{fill:#6A8F4C;}
	.st166{fill:#628047;}
	.st167{fill:#E29D37;}
	.st168{fill:#6E555B;}
	.st169{fill:#91CA67;}
	.st170{fill:#476BA1;}
	.st171{fill:#6699D9;}
	.st172{fill:#503C3E;}
	.st173{fill:#413235;}
	.st174{fill:#CC916A;}
	.st175{fill:#BA8363;}
	.st176{fill:#D09571;}
	.st177{fill:#C98F68;}
	.st178{fill:#AA3B4D;}
	.st179{fill:#DA6075;}
	.st180{fill:#92452D;}
	.st181{fill:#A24B2D;}
	.st182{fill:#B76252;}
	.st183{fill:#87BD60;}
	.st184{fill:#78A7D2;}
	.st185{fill:#F9F38F;}
	.st186{fill:#E0D650;}
	.st187{fill:#AFE086;}
	.st188{fill:#9FD476;}
	.st189{fill:#9DD176;}
	.st190{fill:#8FC468;}
	.st191{fill:#7EAE58;}
	.st192{fill:#6F9850;}
	.st193{fill:#59884A;}
	.st194{fill:#638347;}
	.st195{fill:#B95135;}
	.st196{fill:#E5AB62;}
	.st197{fill:#733228;}
	.st198{fill:#803728;}
	.st199{fill:#6D974D;}
	.st200{fill:#99CD75;}
	.st201{fill:#93412C;}
	.st202{fill:#93C2EA;}
	.st203{fill:#CD926B;}
	.st204{fill:#E6AF8A;}
	.st205{fill:#E5DB4E;}
	.st206{fill:#FBF375;}
	.st207{fill:#779E54;}
	.st208{fill:#D3966D;}
	.st209{fill:#DA4355;}
	.st210{fill:#A83B4D;}
	.st211{fill:none;stroke:#594144;stroke-width:8;stroke-linecap:round;stroke-miterlimit:10;}
	.st212{fill:#E5A855;}
	.st213{fill:#EAC291;}
	.st214{fill:#96C252;}
	.st215{fill:#695055;}
	.st216{fill:#DC9C42;}
	.st217{fill:#8E5C1B;}
	.st218{fill:#F4EB6A;}
	.st219{fill:#CBC049;}
	.st220{fill:none;stroke:#B8E876;stroke-width:15;stroke-linecap:round;stroke-miterlimit:10;}
	.st221{fill:#A36A1C;}
	.st222{fill:#ECC94A;}
	.st223{fill:#91BEDA;}
	.st224{fill:#3D2F32;}
	.st225{fill:#A6394C;}
	.st226{fill:#33292B;}
	.st227{fill:#4F3D42;}
	.st228{fill:#638147;}
	.st229{fill:#CD8321;}
	.st230{fill:#D3CA4A;}
	.st231{fill:#E2A550;}
	.st232{fill:#B75135;}
	.st233{fill:#D4CD77;}
	.st234{fill:#F3EC80;}
	.st235{fill:#46383B;}
	.st236{fill:#82AA61;}
	.st237{fill:#8EBF69;}
	.st238{fill:#3C2E31;}
	.st239{fill:#C49F27;}
	.st240{fill:#D2BF7C;}
	.st241{fill:#F6E18D;}
	.st242{fill:#D6D6D6;}
	.st243{fill:#B5D7F2;}
	.st244{fill:#F1D467;}
	.st245{fill:#739FBD;}
	.st246{fill:#D0946C;}
	.st247{fill:#BE8767;}
	.st248{fill:#D0A829;}
	.st249{fill:#F6DF86;}
	.st250{fill:#EABA8D;}
	.st251{fill:#F0D1B8;}
	.st252{fill:#A5D0F1;}
	.st253{fill:#E3A13F;}
	.st254{fill:#F0FAFF;}
	.st255{fill:#B4D3E3;}
	.st256{fill:#80A5C3;}
	.st257{fill:#87AFD5;}
	.st258{fill:#B1D1E7;}
	.st259{fill:#AED66F;}
	.st260{fill:#91AA61;}
	.st261{fill:#A8384B;}
	.st262{fill:#CD8120;}
	.st263{fill:#E6AD56;}
	.st264{fill:none;stroke:#E6AD56;stroke-width:8;stroke-linecap:round;stroke-miterlimit:10;}
	.st265{fill:#9EBD68;}
	.st266{fill:#AAD16E;}
	.st267{fill:#86656B;}
	.st268{fill:#6D954D;}
	.st269{fill:#98CB75;}
	.st270{fill:#75A251;}
	.st271{fill:#91BD4F;}
	.st272{fill:none;stroke:#B8E078;stroke-width:8;stroke-linecap:round;stroke-miterlimit:10;}
	.st273{fill:none;stroke:#B8E078;stroke-width:8;stroke-linecap:round;stroke-linejoin:round;stroke-miterlimit:10;}
	.st274{fill:#8FBA4E;}
	.st275{fill:#B3E860;}
	.st276{fill:#E7A748;}
	.st277{fill:none;stroke:#B6E676;stroke-width:15;stroke-linecap:round;stroke-miterlimit:10;}
	.st278{fill:#639B53;}
	.st279{fill:#476B9F;}
	.st280{fill:#82B1DE;}
	.st281{fill:#A6533F;}
	.st282{fill:#C28A69;}
	.st283{fill:#64494E;}
	.st284{fill:#77565C;}
	.st285{fill:#4F3C40;}
	.st286{fill:#ECCCB1;}
	.st287{fill:#BF6F5C;}
	.st288{fill:none;stroke:#D4F1A7;stroke-width:10;stroke-linecap:round;stroke-miterlimit:10;}
	.st289{fill:none;stroke:#B8E876;stroke-width:10;stroke-linecap:round;stroke-miterlimit:10;}
	.st290{fill:#47688F;}
	.st291{fill:#3F5B78;}
	.st292{fill:#354E6C;}
	.st293{fill:#DAB12B;}
	.st294{fill:#C8A028;}
	.st295{fill:#F0D15C;}
	.st296{fill:#F8F28B;}
	.st297{fill:#F7F18D;}
	.st298{fill:#DED450;}
	.st299{fill:#F9F155;}
	.st300{fill:#A2CFF4;}
	.st301{fill:none;stroke:#594144;stroke-width:10;stroke-linecap:round;stroke-miterlimit:10;}
	.st302{fill:#F5F0AB;}
	.st303{fill:#496DA1;}
	.st304{fill:#5A85C7;}
	.st305{fill:#D7D7D7;}
	.st306{fill:#ADD3E6;}
	.st307{fill:#98B8C3;}
	.st308{fill:#CDCECF;}
	.st309{fill:#BF4F69;}
	.st310{fill:#A83448;}
	.st311{fill:#A4DAF7;}
	.st312{fill:#81A861;}
	.st313{fill:#82A549;}
	.st314{fill:#B6E676;}
	.st315{fill:#8CBD69;}
	.st316{fill:#ECC62F;}
	.st317{fill:#F4EA80;}
	.st318{fill:#D6AD2B;}
	.st319{fill:#6F9151;}
	.st320{fill:#46699C;}
	.st321{fill:#4A373A;}
	.st322{fill:#89B04C;}
	.st323{fill:#99CC53;}
	.st324{fill:#B1E465;}
	.st325{fill:#E19E3B;}
	.st326{fill:#C05970;}
	.st327{fill:#D95F74;}
	.st328{fill:#74A8DE;}
	.st329{fill:#C47C1E;}
	.st330{fill:#719A51;}
	.st331{fill:#A8D95E;}
	.st332{fill:#D46C53;}
	.st333{fill:#A45340;}
	.st334{fill:#B6594A;}
	.st335{fill:#79A554;}
	.st336{fill:#B6DAF7;}
	.st337{fill:#739F51;}
	.st338{fill:#DDB32B;}
	.st339{fill:#DE8F22;}
	.st340{fill:none;stroke:#46383B;stroke-width:8;stroke-linecap:round;stroke-miterlimit:10;}
	.st341{fill:none;stroke:#3B2F32;stroke-width:8;stroke-linecap:round;stroke-miterlimit:10;}
	.st342{fill:#C8C8C8;}
	.st343{fill:#7F9D49;}
	.st344{fill:#BA5E44;}
	.st345{fill:#92B955;}
	.st346{fill:#D17F6D;}
	.st347{fill:#5D8F4C;}
	.st348{fill:#B75334;}
	.st349{fill:#CA6D57;}
	.st350{fill:#A4574D;}
	.st351{fill:#7FB1E6;}
	.st352{fill:#77A3CD;}
	.st353{fill:#90BA4F;}
	.st354{fill:#5C8F4B;}
	.st355{fill:#ACDE5D;}
	.st356{fill:#6FAC5A;}
	.st357{fill:none;stroke:#9DD055;stroke-width:10;stroke-linecap:round;stroke-miterlimit:10;}
	.st358{fill:#AD5643;}
	.st359{fill:#B96052;}
	.st360{fill:#CB8D84;}
	.st361{fill:#CC6C56;}
	.st362{fill:#DE9A8E;}
	.st363{fill:#D37B6A;}
	.st364{fill:#A87758;}
	.st365{fill:#372A2C;}
	.st366{fill:#B8815C;}
	.st367{fill:#433335;}
	.st368{fill:#2C2325;}
	.st369{fill:#95402B;}
	.st370{fill:#A85441;}
	.st371{fill:#D2C74B;}
	.st372{fill:#B25945;}
	.st373{fill:none;stroke:#594144;stroke-width:15;stroke-linecap:round;stroke-miterlimit:10;}
	.st374{fill:none;stroke:#594144;stroke-width:12;stroke-linecap:round;stroke-miterlimit:10;}
	.st375{fill:#8F473B;}
	.st376{fill:#453538;}
	.st377{fill:#517DAB;}
	.st378{fill:#75A050;}
	.st379{fill:#A5384D;}
	.st380{fill:#CC6075;}
	.st381{fill:#F26B7F;}
	.st382{fill:#C67189;}
	.st383{fill:#B26980;}
	.st384{fill:#D87990;}
	.st385{fill:#F2869B;}
	.st386{fill:#EF8499;}
	.st387{fill:#649CD7;}
	.st388{fill:#639CDB;}
	.st389{fill:#C8ED8D;}
	.st390{fill:#A9DB83;}
	.st391{fill:#9BCF76;}
	.st392{fill:#7EAC58;}
	.st393{fill:#8CC463;}
	.st394{fill:#7FAC5B;}
	.st395{fill:#769C55;}
	.st396{fill:#6A894D;}
	.st397{fill:#769B56;}
	.st398{fill:#9BCC75;}
	.st399{fill:#AF5641;}
	.st400{fill:#F4D576;}
	.st401{fill:#76A055;}
	.st402{fill:#628347;}
	.st403{fill:#4F7B9F;}
	.st404{fill:#466D86;}
	.st405{fill:#4D789C;}
</style>
<g id="BULINE">
</g>
<g id="Icons">
	<g>
		<circle id="XMLID_1933_" class="st0" cx="256" cy="256" r="256"/>
		<g id="XMLID_823_">
			<circle id="XMLID_2293_" class="st152" cx="257.9" cy="169.9" r="159"/>
			<path id="XMLID_2338_" class="st17" d="M512,256c0,141.4-114.6,256-256,256S0,397.4,0,256c0-4.3,0.1-8.5,0.3-12.8h511.4
				C511.9,247.5,512,251.7,512,256z"/>
			<g id="XMLID_2256_">
				<path id="XMLID_2285_" class="st153" d="M410.5,117.6c-0.6,0.5-1.2,1-1.9,1.5c-1.2,1-2.4,2-3.6,3c-2.3,1.9-4.6,3.8-7,5.1
					c-2.2,1.3-4.5,2.1-6.9,2.1c-1.9,0-3.8-0.5-5.6-1.4c-7.9-3.8-15.2-14-23.1-15.3c-3.2-0.5-6.8,0.3-10.5,1.5
					c-0.3,0.1-0.6,0.2-0.9,0.3c-7.4,2.7-15.1,6.8-21.2,4.7c-9.6-3.3-13-20.4-21.7-25.1c-4-2.2-9.6-2.1-15.2-1.9
					c-1.5,0.1-3.1,0.1-4.6,0.2c-5.1,0.1-9.8-0.3-13.1-2.9c-0.8-0.7-1.6-1.4-2.2-2.3c-1-1.4-1.7-3-2.3-4.7c-1.1-3.2-1.8-6.9-2.5-10.5
					c-1-5.2-2.2-10.2-5.1-13.4c-0.8-0.9-1.8-1.7-2.8-2.4c-4.8-3.2-12.1-4.6-18-6.9c-0.1,0-0.2-0.1-0.2-0.1c-3.6-1.5-6.6-3.3-8.4-6.1
					c-0.2-0.3-0.3-0.5-0.5-0.8c-0.2-0.4-0.4-0.8-0.5-1.2c-0.5-1.3-0.7-2.7-0.8-4.1c-0.1-2,0-4.1,0.3-6.3c0.8-6,2.4-12.5,1.6-17.8
					c-0.2-1-0.4-2-0.8-2.9c-0.7-1.7-1.8-3.3-3.1-4.8c-1-1.1-2.2-2.2-3.4-3.3c3.6-0.4,7.2-0.8,10.9-1h0c1.7-0.1,3.4-0.2,5.2-0.3
					c3.3-0.2,6.6-0.3,9.9-0.3h0c1.2,0,2.3,0,3.4,0c10.2,0,20.2,0.6,30,1.7c2.1,0.2,4.1,0.5,6.2,0.8c3.4,0.5,6.7,1,10.1,1.6h0
					c4.3,0.8,8.6,1.7,12.9,2.7c0.7,0.9,1.2,1.9,1.6,2.9c1.4,3.6,1,7.9,0.4,12.5c-0.1,0.7-0.2,1.5-0.3,2.2c-0.2,1-0.3,2-0.5,3
					c-0.1,0.5-0.2,1-0.2,1.5c-0.2,1.4-0.4,2.9-0.5,4.3c-0.2,3.6,0,7,1.7,9.7c5.2,8.5,22.7,8,29.4,15.5c6.4,7.2,4.4,23.4,11.2,30.2
					c0.3,0.3,0.6,0.5,0.9,0.8c2.1,1.7,4.8,2.4,7.8,2.7c5.9,0.6,13-0.5,18.9,0.1c2.3,0.2,4.4,0.8,6.2,1.7c6.4,3.4,9.9,13.4,15.1,19.9
					l0,0C408,115.4,409.2,116.6,410.5,117.6z"/>
				<path id="XMLID_2290_" class="st154" d="M420,112.6c-3.2,0.5-6.3,2.5-9.4,5c0.9,0.7,1.9,1.2,3,1.6c5.6,1.9,12.7-1.4,19.5-4
					C428.5,113.4,424,111.9,420,112.6z"/>
				<path id="XMLID_2230_" class="st154" d="M332.7,6.7l-0.2-0.2c0,0,0.1,0,0.2-0.1C332.7,6.5,332.7,6.6,332.7,6.7z"/>
				<path id="XMLID_2131_" class="st154" d="M464,106.7c-2.5,4.2-5.1,8.4-8.5,10.8c-3.1-2.4-6.2-4.4-9.4-5c-4-0.7-8.5,0.8-13.1,2.5
					c-1-0.3-1.9-0.7-2.8-1c-0.2,0-0.3-0.1-0.5-0.2c-0.3-0.1-0.6-0.2-1-0.3c0,0-0.1,0-0.1,0c0,0,0,0,0,0c0,0,0,0-0.1,0
					c-0.3-0.1-0.6-0.2-0.9-0.2c-0.3-0.1-0.7-0.2-1-0.2c-0.1,0-0.1,0-0.2,0c-0.3-0.1-0.5-0.1-0.8-0.2c-0.3-0.1-0.6-0.1-0.9-0.2
					c-0.2,0-0.3,0-0.5-0.1c-0.2,0-0.4,0-0.5-0.1c0,0,0,0-0.1,0c-0.2,0-0.5-0.1-0.8-0.1h0c-0.1,0-0.2,0-0.3,0c-0.9,0-1.8,0-2.6,0.2
					c-3.2,0.5-6.3,2.5-9.4,5c-1.4-1-2.6-2.2-3.7-3.7l0,0c-5.2-6.4-8.7-16.4-15.1-19.9c-1.8-1-3.9-1.5-6.2-1.7
					c-5.9-0.7-13,0.5-18.9-0.1c-3-0.3-5.7-1.1-7.8-2.7c-0.3-0.2-0.6-0.5-0.9-0.8c-6.8-6.8-4.8-23-11.2-30.2
					c-6.7-7.5-24.1-7-29.4-15.5c-1.7-2.7-2-6.1-1.7-9.7c0.1-1.4,0.3-2.8,0.5-4.3c0.1-0.5,0.1-1,0.2-1.5c0.2-1,0.3-2,0.5-3
					c0.1-0.7,0.2-1.5,0.3-2.2c0.7-4.6,1-9-0.4-12.5c-0.4-1-0.9-2-1.6-2.9c3.8,0.9,7.6,1.9,11.4,3c1.5,0.4,2.9,0.8,4.4,1.3
					c3.5,1,6.9,2.2,10.3,3.4h0c5.7,2,11.3,4.2,16.8,6.6c7.7,3.3,15.2,7,22.5,11.1c1.7,1,3.5,2,5.2,3c1.9,1.1,3.8,2.2,5.6,3.4
					c4.1,2.6,8.2,5.2,12.1,8.1c4.5,3.1,8.8,6.4,13,9.8c3.5,2.8,6.9,5.7,10.2,8.6c4,3.6,7.9,7.2,11.6,11.1
					C447.5,85.6,456.2,95.9,464,106.7z"/>
				<path id="XMLID_2288_" class="st153" d="M292.7,42.2c-0.2,0-0.5,0-0.7,0C292.2,42.1,292.4,42.2,292.7,42.2z"/>
				<path id="XMLID_2286_" class="st153" d="M293.5,42.1c0,0-0.1,0-0.1,0C293.4,42.1,293.4,42.1,293.5,42.1z"/>
				<path id="XMLID_2130_" class="st155" d="M291.8,42.1c-0.8-0.1-1.6-0.3-2.4-0.6c-0.1,0-0.2-0.1-0.4-0.1
					c-3.8-1.4-8.1-4.1-11.4-3.5c-2.3,0.4-4.6,2.6-6.8,4.8c-1.5,1.4-3,2.9-4.5,3.8c-0.3,0.2-0.5,0.3-0.8,0.4
					c-0.2,0.1-0.3,0.1-0.5,0.2c-0.2,0.1-0.4,0.1-0.6,0.2c-0.4,0.1-0.8,0.1-1.1,0.1c-3,0-5.7-2.9-8.4-5.5c-0.4-0.4-0.9-0.8-1.3-1.2
					c-0.4-0.3-0.8-0.7-1.1-0.9c-1.2-0.9-2.4-1.6-3.6-1.8c-0.9-0.2-1.9-0.1-3,0.2c-1.6,0.4-3.2,1.1-4.9,1.8c-0.2,0.1-0.5,0.2-0.7,0.3
					c-2.4,1.1-4.8,2.1-6.9,1.9c-0.4,0-0.8-0.1-1.2-0.3c-1.2-0.4-2.1-1.3-3-2.5c-0.2-0.3-0.5-0.7-0.7-1c-1.5-2.4-2.6-5.5-4.1-7.8
					c-0.7-1.1-1.5-2-2.5-2.5c-0.7-0.4-1.5-0.6-2.4-0.8c-0.1,0-0.2,0-0.4-0.1c-2.7-0.3-6.1,0.2-9.1,0.2c-2.1,0-4-0.3-5.3-1.4
					c-0.8-0.7-1.4-1.7-1.8-2.9c-0.2-0.7-0.4-1.5-0.5-2.2c-0.7-4-0.5-8.8-2.6-11.3c-0.9-1.1-2.3-1.8-3.9-2.4c0.3-0.1,0.5-0.1,0.8-0.2
					c2.3-0.6,4.6-1.1,6.9-1.6c2.1-0.4,4.3-0.9,6.4-1.2c5.5-1,11.1-1.8,16.7-2.5c3.6-0.4,7.2-0.8,10.9-1h0c1.7-0.1,3.4-0.2,5.2-0.3
					c0.1,0.5,0.3,1,0.5,1.5c1.4,2.3,4.7,3.3,8.1,4.2c2.9,0.8,5.8,1.7,7.3,3.5c0.3,0.4,0.6,0.8,0.8,1.3c0.4,0.9,0.7,1.9,0.9,3
					c0.8,4.3,0.5,9.8,3.2,12.2c0.9,0.8,2,1.1,3.3,1.3c4.3,0.6,10.4-1.2,13.8,0.7c1.5,0.9,2.6,2.6,3.7,4.6c1.7,3.2,3,6.9,5.4,8.6
					c0.4,0.3,0.8,0.5,1.2,0.7C291.2,42,291.5,42.1,291.8,42.1z"/>
				<path id="XMLID_2283_" class="st153" d="M293.4,42.1c-0.2,0-0.5,0-0.7,0C292.9,42.2,293.1,42.1,293.4,42.1z"/>
				<path id="XMLID_2282_" class="st153" d="M291.9,42.1c0,0-0.1,0-0.1,0C291.9,42.1,291.9,42.1,291.9,42.1z"/>
				<path id="XMLID_2056_" class="st153" d="M326.5,9.8c-0.7,1-1.1,2.2-1.4,3.6c-0.8,3.7-0.5,8.5-2.2,11.3c-0.3,0.5-0.7,1-1.1,1.3
					c-0.2,0.2-0.4,0.3-0.7,0.4c0,0,0,0,0,0c-1.1,0.7-2.6,0.9-4.2,0.9c-0.2,0-0.4,0-0.6,0c-4,0-8.8-1-11.7,0.6
					c-1.1,0.6-2,1.7-2.8,2.9c-2.4,3.8-3.9,9.6-7.5,10.9c-0.1,0-0.2,0.1-0.3,0.1c-0.2,0.1-0.4,0.1-0.6,0.1c0,0-0.1,0-0.1,0
					c-0.2,0-0.5,0-0.7,0c-0.2,0-0.5,0-0.7,0c0,0-0.1,0-0.1,0c-0.3,0-0.6-0.1-0.9-0.2c-0.4-0.2-0.8-0.4-1.2-0.7
					c-2.4-1.7-3.8-5.4-5.4-8.6c-1-2-2.2-3.7-3.7-4.6c-3.4-2-9.4-0.2-13.8-0.7c-1.3-0.2-2.4-0.5-3.3-1.3c-2.8-2.3-2.4-7.8-3.2-12.2
					c-0.2-1.1-0.5-2.1-0.9-3c-0.2-0.5-0.5-1-0.8-1.3c-1.5-1.8-4.4-2.7-7.3-3.5c-3.3-1-6.7-1.9-8.1-4.2c-0.3-0.5-0.4-1-0.5-1.5
					c3.3-0.2,6.6-0.3,9.9-0.3h0c1.2,0,2.3,0,3.4,0c10.2,0,20.2,0.6,30,1.7c2.1,0.2,4.1,0.5,6.2,0.8c3.4,0.5,6.7,1,10.1,1.6h0
					c4.3,0.8,8.6,1.7,12.9,2.7C319,7.8,322.8,8.8,326.5,9.8z"/>
				<path id="XMLID_2278_" class="st155" d="M322,125.4c-2.8-1.6-8.5,0.8-11-1.3c-2.5-2.1-1.1-8.1-3.2-10.6c-2.1-2.5-8.3-2.2-9.9-5
					c-1.6-2.8,1.8-8,0.6-11.1c-1.1-3-7-4.8-7.6-8.1c-0.6-3.2,4.4-6.9,4.4-10.2c0-3.3-4.9-7-4.4-10.2c0.6-3.3,6.5-5.1,7.6-8.1
					c1.1-3.1-2.3-8.3-0.6-11.1c1.6-2.8,7.8-2.5,9.9-5c2.1-2.5,0.7-8.5,3.2-10.6c2.5-2.1,8.2,0.3,11-1.3c2.8-1.6,3.5-7.8,6.6-8.9
					c0.2-0.1,0.4-0.1,0.6-0.1c-2.9,0.3-6.5,3.2-9.2,2.7c-3.2-0.6-6-6.1-9.3-6.1c-3.3,0-6.1,5.5-9.3,6.1c-3.3,0.6-7.8-3.7-10.8-2.6
					c-3.1,1.1-3.8,7.3-6.6,8.9c-2.8,1.6-8.5-0.8-11,1.3c-2.5,2.1-1.1,8.1-3.2,10.6c-2.1,2.5-8.3,2.2-9.9,5c-1.6,2.8,1.8,8,0.6,11.1
					c-1.1,3-7,4.8-7.6,8.1c-0.6,3.2,4.4,6.9,4.4,10.2c0,3.3-4.9,7-4.4,10.2c0.6,3.3,6.5,5.1,7.6,8.1c1.1,3.1-2.3,8.3-0.6,11.1
					c1.6,2.8,7.8,2.5,9.9,5c2.1,2.5,0.7,8.5,3.2,10.6c2.5,2.1,8.2-0.3,11,1.3c2.8,1.6,3.5,7.8,6.6,8.9c3,1.1,7.5-3.1,10.8-2.6
					c3.2,0.6,6,6.1,9.3,6.1c3.3,0,6.1-5.5,9.3-6.1c2.7-0.5,6.3,2.4,9.2,2.7c-0.2,0-0.4-0.1-0.6-0.1C325.6,133.1,324.8,127,322,125.4
					z"/>
				<path id="XMLID_2277_" class="st153" d="M337.5,125.4c2.8-1.6,8.5,0.8,11-1.3c2.5-2.1,1.1-8.1,3.2-10.6c2.1-2.5,8.3-2.2,9.9-5
					c1.6-2.8-1.8-8-0.6-11.1c1.1-3,7-4.8,7.6-8.1c0.6-3.2-4.4-6.9-4.4-10.2c0-3.3,4.9-7,4.4-10.2c-0.6-3.3-6.5-5.1-7.6-8.1
					c-1.1-3.1,2.3-8.3,0.6-11.1c-1.6-2.8-7.8-2.5-9.9-5c-2.1-2.5-0.7-8.5-3.2-10.6c-2.5-2.1-8.2,0.3-11-1.3
					c-2.8-1.6-3.5-7.8-6.6-8.9c-0.2-0.1-0.4-0.1-0.6-0.1c0,0-0.1,0-0.1,0c-0.1,0-0.3,0-0.5,0c-0.2,0-0.3,0-0.5,0c0,0,0,0-0.1,0
					c-0.2,0-0.4,0.1-0.6,0.1c-3.1,1.1-3.8,7.3-6.6,8.9c-2.8,1.6-8.5-0.8-11,1.3c-2.5,2.1-1.1,8.1-3.2,10.6c-2.1,2.5-8.3,2.2-9.9,5
					c-1.6,2.8,1.8,8,0.6,11.1c-1.1,3-7,4.8-7.6,8.1c-0.6,3.2,4.4,6.9,4.4,10.2c0,3.3-4.9,7-4.4,10.2c0.6,3.3,6.5,5.1,7.6,8.1
					c1.1,3.1-2.3,8.3-0.6,11.1c1.6,2.8,7.8,2.5,9.9,5c2.1,2.5,0.7,8.5,3.2,10.6c2.5,2.1,8.2-0.3,11,1.3c2.8,1.6,3.5,7.8,6.6,8.9
					c0.2,0.1,0.4,0.1,0.6,0.1c0,0,0.1,0,0.1,0c0.1,0,0.3,0,0.5,0c0.2,0,0.3,0,0.5,0c0,0,0,0,0.1,0c0.2,0,0.4-0.1,0.6-0.1
					C333.9,133.1,334.7,127,337.5,125.4z"/>
				<g id="XMLID_2257_">
					<g id="XMLID_2269_">
						<path id="XMLID_1923_" class="st156" d="M438.2,76.1l-11.6,1.6l-7.7,1.1l-1,0.1c-0.5,0.1-1.1,0.1-1.6,0.1
							c-5,0-9.4-3.3-10.8-8.1c-0.2-0.5-0.3-1.1-0.3-1.6c-0.9-6.2,3.4-11.8,9.6-12.7l1.6-0.2c3.5,2.8,6.9,5.7,10.2,8.6
							C430.5,68.6,434.4,72.3,438.2,76.1z"/>
					</g>
					<g id="XMLID_2267_">
						<path id="XMLID_2070_" class="st133" d="M302.3,4.2l-7,2.4C294.5,6.8,293.7,7,293,7h-0.1c-3,0-5.8-1.9-6.8-4.8
							c0-0.1-0.1-0.3-0.1-0.4c2.1,0.2,4.1,0.5,6.2,0.8C295.6,3,298.9,3.6,302.3,4.2z"/>
					</g>
					<path id="XMLID_1922_" class="st157" d="M332.7,6.7l-0.2-0.2c0,0,0.1,0,0.2-0.1C332.7,6.5,332.7,6.6,332.7,6.7z"/>
					<path id="XMLID_2063_" class="st157" d="M357.9,21.1c7.7,3.3,15.2,7,22.5,11.1l-9.2,10L357.9,30l-16.8-15.4
						C346.9,16.5,352.5,18.7,357.9,21.1z"/>
					<path id="XMLID_2243_" class="st133" d="M460.3,243.2H294.5l12.4-13.8c4.3-4.8,9.3-8.8,14.8-11.9c5.5-3.1,11.6-5.3,17.9-6.4
						c4.3,0,8.2-1.4,11.3-3.9c0.6-0.5,1.2-1,1.7-1.5c3-3,4.9-6.9,5.3-11.4v0c0.1-0.5,0.1-1.1,0.1-1.6v-74.3l-5.9-4.4l-0.5-0.4
						l-26.8-19.7c-5-3.7-6.1-10.7-2.4-15.7c3.7-5,10.7-6.1,15.8-2.4l20,14.7V21.1c7.7,3.3,15.2,7,22.5,11.1c1.7,1,3.5,2,5.2,3
						c1.9,1.1,3.8,2.2,5.6,3.4c4.1,2.6,8.2,5.2,12.1,8.1c4.5,3.1,8.8,6.4,13,9.8c3.5,2.8,6.9,5.7,10.2,8.6v105
						c0,9.9,1.9,19.6,5.4,28.7c1.6,4.1,3.6,8.1,5.9,11.9c0.9,1.5,1.9,3,2.9,4.4L460.3,243.2z"/>
					<path id="XMLID_2126_" class="st157" d="M460.3,243.2H322.1l12.4-13.8c4.3-4.8,9.3-8.8,14.8-11.9c2.5-1.4,5.2-2.6,7.9-3.7
						c0.8-0.3,1.6-0.6,2.4-0.8c2.5-0.8,5-1.5,7.6-2c2,0,4-0.3,5.8-0.9c3.4-1.1,6.4-3.3,8.6-6c2.4-3,3.9-6.8,4-11c0-0.1,0-0.3,0-0.4
						V35.2c1.9,1.1,3.8,2.2,5.6,3.4c4.1,2.6,8.2,5.2,12.1,8.1c4.5,3.1,8.8,6.4,13,9.8c3.5,2.8,6.9,5.7,10.2,8.6v105
						c0,9.9,1.9,19.6,5.4,28.7c1.6,4.1,3.6,8.1,5.9,11.9c0.9,1.5,1.9,3,2.9,4.4L460.3,243.2z"/>
					<path id="XMLID_865_" class="st133" d="M403.3,46.6c-0.7,0.5-1.5,0.7-2.3,0.7h-5.8c-2.2,0-4-1.8-4-4v-4.8
						C395.3,41.1,399.4,43.8,403.3,46.6z"/>
					<path id="XMLID_2259_" class="st133" d="M414.8,98.7H409c-2.2,0-4-1.8-4-4V72.9c0-2.2,1.8-4,4-4h5.8c2.2,0,4,1.8,4,4v21.8
						C418.9,96.9,417.1,98.7,414.8,98.7z"/>
					<path id="XMLID_2258_" class="st133" d="M407.9,181.8h-5.8c-2.2,0-4-1.8-4-4v-51.7c0-2.2,1.8-4,4-4h5.8c2.2,0,4,1.8,4,4v51.7
						C411.9,180,410.1,181.8,407.9,181.8z"/>
				</g>
			</g>
			<g id="XMLID_2220_">
				<path id="XMLID_1957_" class="st153" d="M170.9,136.1c-1.5,1.2-2.9,2.4-4.4,3.7c-1.9,1.6-3.8,3.1-5.7,4.1
					c-1.8,1-3.7,1.7-5.6,1.7c-1.6,0-3.1-0.4-4.6-1.2c-6.4-3.1-12.4-11.3-18.8-12.4c-2.6-0.4-5.5,0.2-8.5,1.3
					c-0.2,0.1-0.5,0.2-0.7,0.3c-6,2.2-12.3,5.5-17.2,3.8c-1-0.3-1.9-0.9-2.8-1.5c-5.8-4.5-8.7-15.5-14.9-18.9
					c-3.3-1.8-7.8-1.7-12.4-1.5c-5.4,0.2-10.9,0.5-14.4-2.2c-4-3.1-4.7-9.7-6-15.7c6.3-8,13.1-15.6,20.2-22.7
					c1.8-1.8,3.6-3.6,5.5-5.3c0,0,0,0,0,0c2.5-2.3,5-4.6,7.6-6.9c1.5-1.3,3-2.6,4.6-3.9c0.8-0.6,1.6-1.3,2.3-1.9
					c-0.1,1.2-0.3,2.4-0.5,3.6c-0.1,0.8-0.3,1.6-0.4,2.4c-0.2,1.6-0.5,3.2-0.6,4.7c-0.2,3,0,5.7,1.4,7.9c4.3,6.9,18.5,6.5,23.9,12.6
					c0.5,0.6,1,1.2,1.4,2c3.6,6.4,2.7,17.6,7.7,22.6c0.2,0.2,0.5,0.4,0.7,0.6c1.7,1.3,3.9,1.9,6.3,2.2h0c4.8,0.5,10.6-0.4,15.4,0.1
					c1.8,0.2,3.5,0.6,5,1.4C161.9,120.3,164.8,131.7,170.9,136.1z"/>
				<path id="XMLID_2254_" class="st154" d="M178.6,132c-2.6,0.4-5.1,2.1-7.7,4c0.8,0.5,1.5,1,2.4,1.3c4.6,1.6,10.3-1.2,15.9-3.3
					C185.5,132.6,181.8,131.5,178.6,132z"/>
				<path id="XMLID_2371_" class="st154" d="M301.6,26.4c0,0.6,0,1.2-0.1,1.7c-1,5.2-6.9,9-11.8,13.1c-0.1,0.1-0.2,0.2-0.3,0.3
					c0,0-0.1,0.1-0.1,0.1c-0.1,0.1-0.2,0.2-0.4,0.3c-2.3,2-4.3,4.1-5.2,6.5c-0.9,2.3-0.9,5-0.6,7.9c0.5,4.8,1.9,10.1,1.5,14.5
					c-0.1,1.7-0.6,3.3-1.4,4.6c-2.3,3.7-7.4,5.3-12.5,6.9c-4.4,1.4-8.9,2.8-11.4,5.7c-0.5,0.6-1,1.2-1.3,1.9c-0.6,1-1.1,2.2-1.4,3.4
					c-1.2,3.8-1.7,8.4-2.9,12.3c-0.1,0.2-0.1,0.5-0.2,0.7c-0.2,0.6-0.4,1.2-0.6,1.7c-0.8,2-1.8,3.8-3.4,5c-0.8,0.7-1.8,1.1-2.8,1.5
					h0c-1.5,0.5-3.1,0.7-4.9,0.8c-1.2,0.1-2.3,0.1-3.5,0c-4.1-0.1-8.3-0.5-11.9,0.2c-1.3,0.2-2.5,0.6-3.6,1.2
					c-1.1,0.6-2.1,1.5-3.1,2.5c-2.6,2.8-4.6,6.9-6.9,10.5c-1.6,2.5-3.2,4.7-5.3,6.2c-0.1-0.1-0.2-0.2-0.4-0.3
					c-2.4-1.9-4.8-3.4-7.3-3.8c-3.2-0.5-6.9,0.6-10.6,2c-0.4-0.2-0.8-0.3-1.1-0.4c-0.2-0.1-0.4-0.1-0.6-0.2
					c-0.2-0.1-0.4-0.1-0.6-0.2c-0.2-0.1-0.4-0.1-0.6-0.2l-0.6-0.2c-0.4-0.1-0.8-0.2-1.1-0.3c-0.2-0.1-0.5-0.1-0.7-0.2
					c-0.1,0-0.1,0-0.1,0c0,0,0,0,0,0c-0.2,0-0.3-0.1-0.5-0.1c0,0-0.1,0-0.1,0c-0.1,0-0.2-0.1-0.3-0.1c-0.2,0-0.4-0.1-0.6-0.1
					c-0.1,0-0.2,0-0.4,0c-0.2,0-0.4-0.1-0.7-0.1h-0.1c-0.2,0-0.5,0-0.7,0h-0.1c0,0,0,0,0,0c-0.6,0-1.2,0-1.7,0.1
					c-2.6,0.4-5.2,2.1-7.7,4c-6-4.3-9-15.7-15.3-19.2c-1.5-0.8-3.2-1.2-5-1.4c-4.8-0.5-10.6,0.4-15.4-0.1h0
					c-2.5-0.3-4.6-0.9-6.3-2.2c-0.2-0.2-0.5-0.4-0.7-0.6c-5-5-4.2-16.1-7.7-22.6c-0.4-0.7-0.9-1.4-1.4-2
					c-5.4-6.1-19.6-5.7-23.9-12.6c-1.4-2.2-1.6-4.9-1.4-7.9c0.1-1.5,0.3-3.1,0.6-4.7c0.1-0.8,0.2-1.6,0.4-2.4
					c0.2-1.2,0.4-2.4,0.5-3.6c2-1.6,4.1-3.2,6.1-4.8c2.3-1.8,4.7-3.5,7.1-5.2c1.1-0.8,2.1-1.5,3.2-2.2c0,0,0,0,0,0
					c1.1-0.8,2.3-1.6,3.5-2.3l0,0c3-2,6-3.9,9.1-5.7c1.3-0.8,2.6-1.5,3.9-2.3c7.3-4.2,14.8-8.1,22.5-11.5c5.4-2.4,10.8-4.7,16.4-6.7
					v0c7.3-2.7,14.7-5.1,22.3-7.1h0c2.1-0.6,4.3-1.1,6.5-1.7c0,0,0,0,0,0c0.3-0.1,0.5-0.1,0.8-0.2c2.3-0.6,4.6-1.1,6.9-1.6
					c2.1-0.4,4.3-0.9,6.4-1.2c5.5-1,11.1-1.8,16.7-2.5c3.6-0.4,7.2-0.8,10.9-1h0c1.7-0.1,3.4-0.2,5.2-0.3c3.3-0.2,6.6-0.3,9.9-0.3h0
					c1.2,0,2.3,0,3.4,0c10.2,0,20.2,0.6,30,1.7c2.1,0.2,4.1,0.5,6.2,0.8c0,0.1,0,0.2,0,0.3c0,1.4,0.3,2.8,0.8,4.2
					c1,2.9,2.8,5.9,4.5,8.9C299.6,19.5,301.6,23.1,301.6,26.4z"/>
				<path id="XMLID_2250_" class="st153" d="M75.8,74.7C75.7,74.7,75.7,74.8,75.8,74.7C75.7,74.8,75.7,74.8,75.8,74.7z"/>
				<path id="XMLID_2051_" class="st153" d="M75.2,74.8c1.8-1.8,3.6-3.6,5.5-5.3c-1.1,2.3-2.3,4.4-4.2,5.1c-0.2,0.1-0.5,0.1-0.7,0.2
					h-0.1C75.5,74.8,75.3,74.8,75.2,74.8z"/>
				<path id="XMLID_2052_" class="st153" d="M101.4,52c-0.6,3.5-0.4,7.9-2.6,9.7c-0.2,0.1-0.3,0.3-0.5,0.4c-1,0.6-2.4,0.8-3.9,0.8
					c-2,0-4.1-0.3-6-0.2c1.5-1.3,3-2.6,4.6-3.9c0.8-0.6,1.6-1.3,2.3-1.9C97.2,55.1,99.3,53.5,101.4,52z"/>
				<path id="XMLID_1911_" class="st153" d="M115.2,42.2c-0.7,1.1-2,1.8-3.5,2.3C112.8,43.7,114,42.9,115.2,42.2z"/>
				<path id="XMLID_1947_" class="st155" d="M104.8,149.8c-1.4-0.2-2.9-1-4.4-1.6c-1.1-0.4-2.1-0.7-3-0.6c-2.6,0.4-4.8,4.9-7.5,4.9
					c-2.7,0-5-4.5-7.5-4.9c-2.6-0.5-6.3,3-8.8,2.1c-2.5-0.9-3.1-5.9-5.4-7.2c-2.3-1.3-6.9,0.6-9-1.1c-2-1.7-0.9-6.6-2.6-8.6
					c-1.7-2-6.7-1.8-8.1-4.1c-1.3-2.3,1.4-6.5,0.5-9c-0.8-2.2-4.8-3.6-5.9-5.8c3.7-5.6,7.7-11,11.8-16.3c6.3-8,13.1-15.6,20.2-22.7
					c1.8-1.8,3.6-3.6,5.5-5.3c0,0,0,0,0,0c2.5-2.3,5-4.6,7.6-6.9c1.5-1.3,3-2.6,4.6-3.9c0.6,0.6,1.2,1.2,1.8,1.7
					c0.9,0.8,1.7,1.5,2.7,1.6c0.3,0,0.6,0.1,0.9,0c2-0.2,4.4-1.8,6.4-2.2c-0.1,0-0.2,0-0.2,0.1c-2.5,0.9-3.1,5.9-5.4,7.2
					c-0.3,0.2-0.7,0.3-1.1,0.4c-0.1,0-0.2,0-0.3,0.1c-0.3,0-0.7,0-1,0c-0.4,0-0.9,0-1.3,0c-0.5,0-0.9-0.1-1.4-0.1
					c-1.5-0.1-2.9,0-3.8,0.7c-2,1.7-0.9,6.6-2.6,8.6c-1.7,2-6.7,1.8-8.1,4c-1.3,2.3,1.4,6.5,0.5,9c-0.9,2.5-5.7,3.9-6.2,6.6
					c-0.5,2.6,3.6,5.6,3.6,8.3c0,2.7-4,5.7-3.6,8.3c0,0.2,0.1,0.3,0.1,0.5c0,0.1,0.1,0.2,0.1,0.2c0.1,0.1,0.2,0.3,0.2,0.4
					c0,0,0,0,0,0c0.1,0.1,0.2,0.2,0.3,0.4c0.2,0.3,0.5,0.6,0.8,0.8c0.6,0.5,1.2,0.9,1.8,1.4c0.1,0,0.2,0.1,0.2,0.2
					c0.4,0.3,0.8,0.6,1.1,0.8c0.1,0.1,0.3,0.2,0.4,0.3c0.5,0.5,0.9,1,1.1,1.5c0.9,2.5-1.8,6.7-0.5,9c1.3,2.3,6.4,2,8.1,4.1
					c1.7,2,0.6,6.9,2.6,8.6c2,1.7,6.7-0.3,9,1.1c0.1,0.1,0.2,0.1,0.3,0.2s0.2,0.2,0.3,0.2c0.1,0.1,0.1,0.1,0.2,0.2
					c0.3,0.3,0.5,0.6,0.7,1c0.1,0.1,0.1,0.2,0.2,0.4c0,0.1,0.1,0.2,0.1,0.2c0,0,0,0,0,0.1s0,0,0,0.1v0c0.3,0.5,0.5,1.1,0.8,1.6
					c0.1,0.2,0.2,0.4,0.3,0.6c0,0,0,0.1,0,0.1c0.1,0.2,0.2,0.3,0.2,0.5c0.5,1,1.2,1.8,2,2.1C104.5,149.7,104.7,149.7,104.8,149.8z"
					/>
				<path id="XMLID_2241_" class="st153" d="M111.5,142.4c2.3-1.3,6.9,0.6,9-1.1c2-1.7,0.9-6.6,2.6-8.6c1.7-2,6.7-1.7,8.1-4.1
					c1.3-2.3-1.4-6.5-0.5-9c0.9-2.5,5.7-3.9,6.2-6.6c0.5-2.6-3.6-5.6-3.6-8.3c0-2.7,4-5.7,3.6-8.3c-0.5-2.6-5.3-4.1-6.2-6.6
					c-0.9-2.5,1.8-6.7,0.5-9c-1.3-2.3-6.4-2-8.1-4.1c-1.7-2-0.6-6.9-2.6-8.6c-2-1.7-6.7,0.3-9-1.1c-2.3-1.3-2.9-6.3-5.4-7.2
					c-0.2-0.1-0.3-0.1-0.5-0.1c0,0,0,0-0.1,0c-0.1,0-0.2,0-0.4,0c-0.1,0-0.3,0-0.4,0c0,0,0,0-0.1,0c-0.2,0-0.3,0.1-0.5,0.1
					c-2.5,0.9-3.1,5.9-5.4,7.2c-2.3,1.3-6.9-0.6-9,1.1c-2,1.7-0.9,6.6-2.6,8.6c-1.7,2-6.7,1.7-8.1,4.1c-1.3,2.3,1.4,6.5,0.5,9
					c-0.9,2.5-5.7,3.9-6.2,6.6c-0.5,2.6,3.6,5.6,3.6,8.3c0,2.7-4,5.7-3.6,8.3c0.5,2.6,5.3,4.1,6.2,6.6c0.9,2.5-1.8,6.7-0.5,9
					c1.3,2.3,6.4,2,8.1,4.1c1.7,2,0.6,6.9,2.6,8.6c2,1.7,6.7-0.3,9,1.1c2.3,1.3,2.9,6.3,5.4,7.2c0.2,0.1,0.3,0.1,0.5,0.1
					c0,0,0,0,0.1,0c0.1,0,0.2,0,0.4,0c0.1,0,0.3,0,0.4,0c0,0,0,0,0.1,0c0.2,0,0.3-0.1,0.5-0.1C108.7,148.7,109.3,143.7,111.5,142.4z
					"/>
				<path id="XMLID_2067_" class="st158" d="M290.9,42.5c-0.6-0.1-1.3-0.3-2-0.5c-3.1-1.1-6.5-3.3-9.2-2.8c-4,0.7-7.5,7.7-11.7,7.7
					c-0.5,0-0.9-0.1-1.4-0.3h0c-0.1,0-0.2-0.1-0.3-0.1c-1.6-0.7-3.2-2.2-4.7-3.7c0,0,0,0,0,0c-1.5-1.4-2.9-2.8-4.5-3.4h0
					c0,0,0,0,0,0c0,0,0,0,0,0c-0.2-0.1-0.5-0.2-0.7-0.2c-1.2-0.2-2.5,0.1-3.9,0.6c-1,0.4-2.1,0.8-3.1,1.3c-2.4,1.1-4.7,2-6.6,1.3
					c-0.1,0-0.3-0.1-0.4-0.2h0c-0.8-0.4-1.5-1.1-2.1-1.9c-0.3-0.5-0.6-1-1-1.5v0c-0.1-0.2-0.2-0.4-0.3-0.6c-1.4-2.7-2.6-5.8-4.6-7
					c-0.6-0.3-1.3-0.5-2-0.7c-2.4-0.3-5.5,0.2-8,0.1c-1.5,0-2.9-0.3-3.8-1.1c0,0,0,0,0,0h0c-0.6-0.6-1.1-1.3-1.4-2.2
					c-0.1-0.2-0.1-0.4-0.2-0.6c-0.9-3.3-0.5-7.9-2.2-10.3c0-0.1-0.1-0.2-0.2-0.2c-1.8-2.1-5.8-2.6-8.9-3.8c-1.6-0.6-2.9-1.3-3.6-2.5
					c-0.1-0.2-0.2-0.3-0.2-0.5c-0.4-1.1-0.4-2.5-0.1-3.9c2.1-0.4,4.3-0.9,6.4-1.2c5.5-1,11.1-1.8,16.7-2.5c3.6-0.4,7.2-0.8,10.9-1h0
					c1.7-0.1,3.4-0.2,5.2-0.3c3.3-0.2,6.6-0.3,9.9-0.3c-0.4,2-1,4.1-1.3,6c-0.2,1.4-0.1,2.7,0.5,3.7c0.3,0.4,0.6,0.8,1,1.2
					c1.8,1.5,4.9,2,7.5,2.9c1.6,0.5,3,1.2,3.9,2.2c2.1,2.5,1.4,7.8,2.6,11.2c0.3,0.9,0.7,1.6,1.4,2.2c3.1,2.6,10.3-0.4,13.9,1.7
					c0.7,0.4,1.3,1,1.8,1.7c1.8,2.5,3,6.6,5.1,8.5c0.1,0.1,0.2,0.2,0.2,0.2c0.4,0.3,0.8,0.6,1.2,0.8
					C290.6,42.4,290.8,42.4,290.9,42.5z"/>
				<path id="XMLID_1955_" class="st158" d="M291.2,42.6c-0.1,0-0.3,0-0.4-0.1C291,42.5,291.1,42.5,291.2,42.6z"/>
				<path id="XMLID_2062_" class="st159" d="M326.5,9.8c1.5,0.4,2.9,0.8,4.4,1.3c-1.5,1.1-3.7,1.6-5.8,2.3c-2.2,0.6-4.3,1.3-5.5,2.7
					c-1.2,1.5-1.5,4-1.8,6.5c-0.1,0.9-0.2,1.7-0.3,2.5c-0.1,0.8-0.3,1.6-0.6,2.3c-0.2,0.6-0.5,1.1-0.8,1.5c-0.1,0.2-0.3,0.4-0.5,0.5
					c-3.1,2.6-10-0.3-13.7,1.5c-0.1,0-0.2,0.1-0.2,0.1c-3.3,1.9-4.3,8.7-7.6,10.8c-0.2,0.2-0.5,0.3-0.8,0.4
					c-0.2,0.1-0.5,0.1-0.7,0.2c0,0-0.1,0-0.1,0c-0.2,0-0.4,0-0.6,0c-0.2,0-0.4,0-0.6,0c0,0-0.1,0-0.1,0c-0.1,0-0.2,0-0.4-0.1
					c-0.1,0-0.2-0.1-0.3-0.1c-0.5-0.2-0.9-0.4-1.2-0.8c-0.1-0.1-0.2-0.1-0.2-0.2c-2.1-2-3.2-6-5.1-8.5c-0.5-0.7-1.1-1.3-1.8-1.7
					c-3.6-2.1-10.8,1-13.9-1.7c-0.7-0.5-1.1-1.3-1.4-2.2c-1.2-3.4-0.5-8.7-2.6-11.2c-0.9-1-2.3-1.7-3.9-2.2
					c-2.6-0.9-5.7-1.4-7.5-2.9c-0.4-0.3-0.8-0.7-1-1.2c-0.6-1-0.7-2.3-0.5-3.7c0.2-1.9,0.9-4.1,1.3-6h0c1.2,0,2.3,0,3.4,0
					c10.2,0,20.2,0.6,30,1.7c2.1,0.2,4.1,0.5,6.2,0.8c3.4,0.5,6.7,1,10.1,1.6h0c4.3,0.8,8.6,1.7,12.9,2.7
					C319,7.8,322.8,8.8,326.5,9.8z"/>
				<path id="XMLID_2064_" class="st159" d="M332.7,6.7l-0.2-0.2c0,0,0.1,0,0.2-0.1C332.7,6.5,332.7,6.6,332.7,6.7z"/>
				<path id="XMLID_2238_" class="st158" d="M251.8,119.9c-2.2-1.3-6.8,0.6-8.7-1c-2-1.7-0.9-6.5-2.5-8.4c-1.7-2-6.6-1.7-7.9-4
					c-1.3-2.2,1.4-6.3,0.5-8.8c-0.9-2.4-5.6-3.8-6-6.4c-0.4-2.5,3.5-5.5,3.5-8.1c0-2.6-3.9-5.6-3.5-8.1c0.5-2.6,5.2-4,6-6.4
					c0.9-2.5-1.8-6.6-0.5-8.8c1.3-2.2,6.2-2,7.9-4c1.7-2,0.6-6.8,2.5-8.4c2-1.7,6.5,0.3,8.7-1c2.2-1.3,2.8-6.2,5.3-7.1
					c0.1-0.1,0.3-0.1,0.5-0.1c-2.3,0.3-5.1,2.5-7.3,2.1c-2.5-0.4-4.7-4.8-7.4-4.8c-2.6,0-4.9,4.4-7.4,4.8c-2.6,0.5-6.2-2.9-8.6-2
					c-2.5,0.9-3,5.8-5.3,7.1c-2.2,1.3-6.8-0.6-8.7,1c-2,1.7-0.9,6.5-2.5,8.4c-1.7,2-6.6,1.7-7.9,4c-1.3,2.2,1.4,6.3,0.5,8.8
					c-0.9,2.4-5.6,3.8-6,6.4c-0.4,2.5,3.5,5.5,3.5,8.1c0,2.6-3.9,5.6-3.5,8.1c0.5,2.6,5.2,4,6,6.4c0.9,2.5-1.8,6.6-0.5,8.8
					c1.3,2.2,6.2,2,7.9,4c1.7,2,0.6,6.8,2.5,8.4c2,1.7,6.5-0.3,8.7,1c2.2,1.3,2.8,6.2,5.3,7.1c2.4,0.9,6-2.5,8.6-2
					c2.5,0.4,4.7,4.8,7.4,4.8c2.6,0,4.9-4.4,7.4-4.8c2.1-0.4,5,1.9,7.3,2.1c-0.2,0-0.3-0.1-0.5-0.1
					C254.6,126.1,254,121.2,251.8,119.9z"/>
				<path id="XMLID_2237_" class="st159" d="M264.1,119.9c2.2-1.3,6.8,0.6,8.7-1c2-1.7,0.9-6.5,2.5-8.4c1.7-2,6.6-1.7,7.9-4
					c1.3-2.2-1.4-6.3-0.5-8.8c0.9-2.4,5.6-3.8,6-6.4c0.4-2.5-3.5-5.5-3.5-8.1c0-2.6,3.9-5.6,3.5-8.1c-0.5-2.6-5.2-4-6-6.4
					c-0.9-2.5,1.8-6.6,0.5-8.8c-1.3-2.2-6.2-2-7.9-4c-1.7-2-0.6-6.8-2.5-8.4c-2-1.7-6.5,0.3-8.7-1c-2.2-1.3-2.8-6.2-5.3-7.1
					c-0.1-0.1-0.3-0.1-0.5-0.1c0,0,0,0-0.1,0c-0.1,0-0.2,0-0.4,0c-0.1,0-0.2,0-0.4,0c0,0,0,0-0.1,0c-0.2,0-0.3,0.1-0.5,0.1
					c-2.5,0.9-3,5.8-5.3,7.1c-2.2,1.3-6.8-0.6-8.7,1c-2,1.7-0.9,6.5-2.5,8.4c-1.7,2-6.6,1.7-7.9,4c-1.3,2.2,1.4,6.3,0.5,8.8
					c-0.9,2.4-5.6,3.8-6,6.4c-0.4,2.5,3.5,5.5,3.5,8.1c0,2.6-3.9,5.6-3.5,8.1c0.5,2.6,5.2,4,6,6.4c0.9,2.5-1.8,6.6-0.5,8.8
					c1.3,2.2,6.2,2,7.9,4c1.7,2,0.6,6.8,2.5,8.4c2,1.7,6.5-0.3,8.7,1c2.2,1.3,2.8,6.2,5.3,7.1c0.1,0.1,0.3,0.1,0.5,0.1
					c0,0,0,0,0.1,0c0.1,0,0.2,0,0.4,0c0.1,0,0.2,0,0.4,0c0,0,0,0,0.1,0c0.2,0,0.3-0.1,0.5-0.1C261.3,126.1,261.8,121.2,264.1,119.9z
					"/>
				<g id="XMLID_2221_">
					<g id="XMLID_2235_">
						<path id="XMLID_2236_" class="st157" d="M223.3,72.3c-1,0-1.9-0.2-2.9-0.5c-7.7-2.7-11-14.6-11.5-40.9
							c-0.1-3.2,2.5-5.9,5.7-5.9c3.2,0,5.9,2.5,5.9,5.7c0.3,18.5,2.3,26,3.5,28.9c2-1.1,4.6-0.9,6.4,0.7c2.5,2,2.8,5.7,0.8,8.2
							C229.4,70.5,226.5,72.3,223.3,72.3z"/>
					</g>
					<g id="XMLID_2233_">
						<path id="XMLID_2234_" class="st156" d="M175.6,104.8c-4.5,0-8.4-3.3-9.1-7.9c-0.7-5,2.8-9.6,7.8-10.3l18.5-2.6
							c10.9-1.5,20.2-8.9,24.1-19.2l8.4-22.3c1.8-4.7,7.1-7.1,11.8-5.3c4.7,1.8,7.1,7.1,5.3,11.8L234,71.2
							c-6.3,16.6-21.1,28.4-38.6,30.9l-18.5,2.6C176.4,104.8,176,104.8,175.6,104.8z"/>
					</g>
					<path id="XMLID_1926_" class="st157" d="M151.3,61.3l-0.7,0.8l-11.7,12.7l-4.9-4.6l-5.8-5.4l-19.7-18.1
						c1.1-0.8,2.1-1.5,3.2-2.2c0,0,0,0,0,0c1.1-0.8,2.3-1.6,3.5-2.3l0,0c3-2,6-3.9,9.1-5.7l3.9,3.6l18.1,16.7l4.3,4L151.3,61.3z"/>
					<path id="XMLID_2059_" class="st133" d="M211.4,238.2H76.6l10-11.2c3.5-3.9,7.6-7.1,12.1-9.6c2.1-1.2,4.3-2.2,6.6-3
						c2.6-1,5.2-1.7,8-2.2c6.7,0,12.4-4.4,14.3-10.5c0.4-1.4,0.7-2.9,0.7-4.4v-60.3l-4.8-3.5l-0.4-0.3l-16.3-12l-5.5-4
						c-4.1-3-5-8.7-2-12.8c3-4.1,8.7-4.9,12.8-2l1.5,1.1l14.7,10.8v-80c7.3-4.2,14.8-8.1,22.5-11.5c5.4-2.4,10.8-4.7,16.4-6.7
						l6,15.1l1.4,3.5l4.1,10.3c0.5,1.2,0.9,2.4,1.3,3.6c0.2,0.5,0.3,1,0.5,1.5c0.2,0.5,0.3,1,0.5,1.5c0.1,0.3,0.2,0.7,0.3,1
						c0.2,0.7,0.4,1.4,0.6,2.2c0.1,0.4,0.2,0.8,0.3,1.1c0,0.1,0,0.2,0.1,0.3c0.1,0.5,0.2,0.9,0.3,1.4c0.1,0.5,0.2,1,0.3,1.5
						c0.4,2.1,0.7,4.2,0.9,6.3c0,0.4,0.1,0.9,0.1,1.4c0,0.4,0.1,0.7,0.1,1.1c0,0.5,0.1,1,0.1,1.5c0,0.5,0,0.9,0,1.3
						c0,0.2,0,0.5,0,0.7c0,0.5,0,1,0,1.6v106c0,0.5,0,1,0,1.5c0.2,8.6,2.2,17,5.7,24.8c1.6,3.6,3.6,7,5.8,10.2L211.4,238.2z"/>
					<g id="XMLID_2226_">
						<path id="XMLID_1925_" class="st156" d="M237.5,0.7C235,2.4,232.5,3.8,230,5c-7.5,3.4-15.2,4.6-21.6,4.6h0
							c-1.7,0-3.3-0.1-4.8-0.2c-1.4-0.1-2.8-0.3-4-0.6c-1.2-0.2-2.3-0.9-3.1-1.8c2.3-0.6,4.6-1.1,6.9-1.6c2.1-0.4,4.3-0.9,6.4-1.2
							c5.5-1,11.1-1.8,16.7-2.5C230.2,1.3,233.8,0.9,237.5,0.7z"/>
					</g>
					<path id="XMLID_2128_" class="st157" d="M211.4,238.2H99l4.8-5.3l0,0l5.3-5.9c0.1-0.1,0.2-0.2,0.3-0.3
						c3.4-3.7,7.4-6.9,11.8-9.3c3.9-2.2,8.1-3.8,12.5-4.8c0.7-0.2,1.3-0.3,2-0.4c2.9,0,5.6-0.8,7.8-2.2c4.3-2.6,7.1-7.3,7.1-12.7
						V22.6c5.4-2.4,10.8-4.7,16.4-6.7l6,15.1c5.2-3.9,11.2-10.4,15.7-20.9c0.2-0.4,0.4-0.9,0.5-1.3h0c2.1-0.6,4.3-1.1,6.5-1.7
						c0,0,0,0,0,0c0.3-0.1,0.5-0.1,0.8-0.2c2.3-0.6,4.6-1.1,6.9-1.6c2.1-0.4,4.3-0.9,6.4-1.2c-0.4,1.8-0.9,3.6-1.5,5.4
						c-0.3,0.9-0.6,1.9-0.9,2.8c-0.6,1.6-1.2,3.3-1.9,4.9c-0.4,1-0.9,2-1.3,2.9v0c-0.5,1-1,2-1.5,3c-6.8,13-15.5,20.7-23,25.3h0
						c0.2,0.5,0.3,1,0.5,1.5c0.2,0.5,0.3,1,0.5,1.5c0.1,0.3,0.2,0.7,0.3,1c0.2,0.7,0.4,1.4,0.6,2.2c0.1,0.4,0.2,0.8,0.3,1.1
						c0,0.1,0,0.2,0.1,0.3c0.1,0.5,0.2,0.9,0.3,1.4c0.1,0.5,0.2,1,0.3,1.5c0.4,2.1,0.7,4.2,0.9,6.3c0,0.4,0.1,0.9,0.1,1.4
						c0,0.4,0.1,0.7,0.1,1.1c0,0.5,0.1,1,0.1,1.5c0,0.5,0,0.9,0,1.3c0,0.2,0,0.5,0,0.7c0,0.5,0,1,0,1.6v106c0,0.5,0,1,0,1.5
						c0.2,8.6,2.2,17,5.7,24.8c1.6,3.6,3.6,7,5.8,10.2L211.4,238.2z"/>
					<path id="XMLID_2224_" class="st133" d="M162.4,79h-3.2c-2.2,0-4-1.8-4-4V34.5c0-2.2,1.8-4,4-4h3.2c2.2,0,4,1.8,4,4V75
						C166.4,77.2,164.6,79,162.4,79z"/>
					<path id="XMLID_2223_" class="st133" d="M173.6,120.8h-3.2c-2.2,0-4-1.8-4-4v-16.2c0-2.2,1.8-4,4-4h3.2c2.2,0,4,1.8,4,4v16.2
						C177.7,119,175.9,120.8,173.6,120.8z"/>
					<path id="XMLID_2222_" class="st133" d="M168,188.3h-3.2c-2.2,0-4-1.8-4-4v-40.5c0-2.2,1.8-4,4-4h3.2c2.2,0,4,1.8,4,4v40.5
						C172,186.5,170.2,188.3,168,188.3z"/>
				</g>
			</g>
			<g id="XMLID_2211_">
				<path id="XMLID_2219_" class="st45" d="M485.4,283c-2.6,6.7,1.3,17-3,22.2c-4.4,5.5-15.3,3.8-21.1,7.6
					c-5.8,3.8-8.8,14.4-15.5,16.2c-6.7,1.8-14.5-5.9-21.5-6.2c-0.2,0-0.4,0-0.6,0c-6.7,0-15,6.5-21.5,4c-6.7-2.6-8.5-13.4-13.8-17.7
					c-5.5-4.4-16.4-4-20.2-9.8c-3.8-5.8,1.1-15.7-0.7-22.4c-1.8-6.7-11-12.7-10.6-19.8c0.4-6.8,10.1-11.9,12.6-18.5
					c2.6-6.7-1.3-17,3-22.2c4.4-5.5,15.3-3.8,21.1-7.6c5.8-3.8,8.8-14.4,15.5-16.2c6.7-1.8,14.5,5.9,21.5,6.2
					c6.8,0.4,15.4-6.5,22.1-4c6.5,2.5,8.4,12.8,13.3,17.3c0.1,0.1,0.3,0.3,0.4,0.4c5.5,4.4,16.4,4,20.2,9.8
					c3.8,5.8-1.1,15.7,0.7,22.4c1.8,6.7,11,12.7,10.6,19.8C497.7,271.3,488,276.3,485.4,283z"/>
				<path id="XMLID_2218_" class="st20" d="M485.4,283c-2.6,6.7,1.3,17-3,22.2c-4.4,5.5-15.3,3.8-21.1,7.6
					c-5.8,3.8-8.8,14.4-15.5,16.2c-6.7,1.8-14.5-5.9-21.5-6.2c-0.2,0-0.4,0-0.6,0c-0.1-0.1-0.3-0.3-0.4-0.4
					c-5.5-4.4-16.4-4-20.2-9.8c-3.8-5.8,1.1-15.7-0.7-22.4c-1.8-6.7-11-12.7-10.6-19.8c0.4-6.8,10.1-11.9,12.6-18.5
					c2.6-6.7-1.3-17,3-22.2c4.4-5.5,15.3-3.8,21.1-7.6c5.8-3.8,8.8-14.4,15.5-16.2c6.7-1.8,14.5,5.9,21.5,6.2c0.2,0,0.4,0,0.6,0
					c0.1,0.1,0.3,0.3,0.4,0.4c5.5,4.4,16.4,4,20.2,9.8c3.8,5.8-1.1,15.7,0.7,22.4c1.8,6.7,11,12.7,10.6,19.8
					C497.7,271.3,488,276.3,485.4,283z"/>
				<path id="XMLID_2217_" class="st3" d="M487,230.1c-6.4,4.2-13.6,4.5-16.1,0.7c-2.5-3.8,0.6-10.3,7-14.5
					c6.4-4.2,16.1-0.7,16.1-0.7S493.4,225.9,487,230.1z"/>
				<path id="XMLID_2216_" class="st45" d="M449.4,270.5c-6.9-3.4-10.8-9.4-8.8-13.5c2-4.1,9.2-4.7,16.1-1.3
					c6.9,3.4,8.8,13.5,8.8,13.5S456.3,273.9,449.4,270.5z"/>
				<path id="XMLID_2215_" class="st52" d="M437.2,213.4c4.6,6.1,5.4,13.3,1.7,16c-3.7,2.8-10.3,0.1-14.9-6c-4.6-6.1-1.7-16-1.7-16
					S432.6,207.3,437.2,213.4z"/>
				<path id="XMLID_2214_" class="st52" d="M405.6,249.6c7.6,1,13.2,5.4,12.7,10s-7.2,7.4-14.8,6.5s-12.7-10-12.7-10
					S398.1,248.6,405.6,249.6z"/>
				<path id="XMLID_2213_" class="st52" d="M397.5,200.6c3.8,6.6,3.7,13.8-0.3,16.1c-4,2.3-10.3-1.2-14.1-7.8s0.3-16.1,0.3-16.1
					S393.7,194,397.5,200.6z"/>
				<path id="XMLID_2212_" class="st52" d="M364.6,229.6c7.6,0.8,13.3,5.2,12.9,9.7c-0.5,4.6-7,7.6-14.6,6.8
					c-7.6-0.8-12.9-9.7-12.9-9.7S357.1,228.8,364.6,229.6z"/>
			</g>
			<g id="XMLID_2202_">
				<path id="XMLID_2210_" class="st45" d="M149.9,236.9c1.7,7,10.6,13.3,10.1,20c-0.5,7-10.4,11.9-13.1,18.2
					c-2.7,6.4,0.9,16.8-3.6,22.1c-4.5,5.3-15.3,3.4-21.3,7.1c-0.2,0.1-0.3,0.2-0.5,0.3c-5.5,3.8-8.7,13.8-15.5,15.5
					c-7,1.7-14.6-6.3-21.4-6.8c-7-0.5-15.8,6-22.2,3.4c-6.4-2.7-8-13.6-13.3-18.1c-5.2-4.5-16.3-4.3-19.9-10.3
					c-3.6-5.8,1.6-15.5-0.1-22.4c-1.7-7-10.6-13.3-10.1-20c0.5-7,10.4-11.9,13.1-18.2c2.7-6.4-0.9-16.8,3.6-22.1
					c4.5-5.3,15.3-3.4,21.3-7.1c5.8-3.6,9-14.1,15.9-15.8c6.8-1.6,14.2,5.8,20.8,6.7c0.2,0,0.4,0.1,0.6,0.1c7,0.5,15.8-6,22.2-3.4
					c6.4,2.7,8,13.6,13.3,18.1c5.2,4.5,16.3,4.3,19.9,10.3C153.3,220.3,148.2,230,149.9,236.9z"/>
				<path id="XMLID_2209_" class="st20" d="M149.9,236.9c1.7,7,10.6,13.3,10.1,20c-0.5,7-10.4,11.9-13.1,18.2
					c-2.7,6.4,0.9,16.8-3.6,22.1c-4.5,5.3-15.3,3.4-21.3,7.1c-0.2,0.1-0.3,0.2-0.5,0.3c-0.2,0-0.4-0.1-0.6-0.1
					c-7-0.5-15.8,6-22.2,3.4c-6.4-2.7-8-13.6-13.3-18.1c-5.3-4.5-16.3-4.3-20-10.3c-3.6-5.8,1.6-15.5-0.1-22.4
					c-1.7-7-10.6-13.3-10.1-20c0.5-7,10.4-11.9,13.1-18.2c2.7-6.4-0.9-16.8,3.6-22.1c4.5-5.3,15.3-3.4,21.3-7.1
					c0.2-0.1,0.3-0.2,0.5-0.3c0.2,0,0.4,0.1,0.6,0.1c7,0.5,15.8-6,22.2-3.4c6.4,2.7,8,13.6,13.3,18.1c5.2,4.5,16.3,4.3,19.9,10.3
					C153.3,220.3,148.2,230,149.9,236.9z"/>
				<path id="XMLID_2208_" class="st3" d="M121.2,192.4c-2.9,7.1-8.6,11.4-12.9,9.7c-4.2-1.7-5.3-8.9-2.5-15.9
					c2.9-7.1,12.9-9.7,12.9-9.7S124,185.4,121.2,192.4z"/>
				<path id="XMLID_2207_" class="st45" d="M113.2,247c-7.6,1.1-14.2-1.7-14.9-6.2s4.9-9.1,12.5-10.2c7.6-1.1,14.9,6.2,14.9,6.2
					S120.7,245.9,113.2,247z"/>
				<path id="XMLID_2206_" class="st52" d="M70.7,206.9c7.2,2.4,11.9,7.9,10.5,12.2c-1.4,4.3-8.5,5.9-15.7,3.5S55,210.4,55,210.4
					S63.4,204.5,70.7,206.9z"/>
				<path id="XMLID_2205_" class="st52" d="M65.2,254.6c6.8-3.5,14-3,16.1,1c2.1,4.1-1.7,10.2-8.5,13.7c-6.8,3.5-16.1-1-16.1-1
					S58.5,258.1,65.2,254.6z"/>
				<path id="XMLID_2204_" class="st52" d="M30.8,219c6.9,3.3,10.9,9.3,8.9,13.4c-2,4.1-9.2,4.8-16,1.5c-6.9-3.3-8.9-13.4-8.9-13.4
					S23.9,215.7,30.8,219z"/>
				<path id="XMLID_2203_" class="st52" d="M20.2,261.5c6.7-3.6,13.9-3.3,16.1,0.7S34.8,272.4,28,276s-16.1-0.7-16.1-0.7
					S13.4,265.1,20.2,261.5z"/>
			</g>
			<g id="XMLID_2184_">
				<path id="XMLID_2201_" class="st160" d="M400.4,266.3c0,0,10.9,85.4,58.7,97.5"/>
				<path id="XMLID_2199_" class="st161" d="M470.1,355.6l-18.9,42.3c-0.3,0.7-0.7,1.3-1.3,1.8c-1.6,1.6-4.1,2.3-6.4,1.5
					c-3-1-4.8-4.2-4-7.3l11.4-44.9c0.8-3.3,4.3-5.1,7.4-4l3.1,1.1l5.2,1.8C469.9,348.9,471.5,352.5,470.1,355.6z"/>
				<path id="XMLID_2198_" class="st42" d="M470.1,355.6l-18.9,42.3c-0.3,0.7-0.7,1.3-1.3,1.8c-1.5-1.5-2.2-3.7-1.6-5.9l11.4-44.9
					c0.3-1.2,1-2.2,1.8-2.9l5.2,1.8C469.9,348.9,471.5,352.5,470.1,355.6z"/>
				<path id="XMLID_2197_" class="st160" d="M106.1,266.3c0,0-10.9,85.4-58.7,97.5"/>
				<path id="XMLID_2196_" class="st162" d="M404.2,269.6L385.4,398h-266l-18.8-128.3c-0.8-5.3,0.9-10.6,4.6-14.5l137.8-144.8
					c5.1-5.3,13.6-5.3,18.6,0l9,9.5l128.8,135.3C403.3,259,405,264.3,404.2,269.6z"/>
				<path id="XMLID_2195_" class="st6" d="M404.2,269.6L385.4,398H156.1l-18.8-128.3c-0.8-5.3,0.9-10.6,4.6-14.5l128.8-135.3
					l128.8,135.3C403.3,259,405,264.3,404.2,269.6z"/>
				<polygon id="XMLID_2194_" class="st2" points="338.4,398 319.7,398 252.4,283.8 252.4,252.2 				"/>
				<polygon id="XMLID_2193_" class="st74" points="319.7,398 252.4,398 252.4,283.8 				"/>
				<polygon id="XMLID_2192_" class="st4" points="252.4,252.2 252.4,398 166.4,398 				"/>
				<path id="XMLID_2190_" class="st4" d="M252.4,252.2L358.5,342c3.8,3.2,4.9,8.7,2.5,13.2L338.4,398L252.4,252.2z"/>
				<path id="XMLID_2189_" class="st161" d="M65.7,399.2c-0.7,0.9-1.7,1.6-2.8,2c-3,1.1-6.3-0.4-7.7-3.3l-18.9-42.3
					c-1.4-3.1,0.2-6.7,3.4-7.8l8.3-2.9c2.1-0.7,4.4-0.1,5.9,1.3c0.7,0.7,1.3,1.6,1.6,2.7l11.4,44.9
					C67.4,395.8,66.9,397.7,65.7,399.2z"/>
				<path id="XMLID_2188_" class="st42" d="M65.7,399.2c-0.3-0.4-0.6-0.8-0.8-1.3L46,355.6c-1.4-3.1,0.2-6.7,3.4-7.8l4.5-1.6
					c0.7,0.7,1.3,1.6,1.6,2.7l11.4,44.9C67.4,395.8,66.9,397.7,65.7,399.2z"/>
				<path id="XMLID_2187_" class="st161" d="M87,271.5L87,271.5c2.8,2.7,7.2,2.6,9.9-0.2L303.3,55.4c2.7-2.8,2.6-7.2-0.2-9.9l0,0
					c-2.8-2.7-7.2-2.6-9.9,0.2L86.8,261.6C84.1,264.4,84.2,268.8,87,271.5z"/>
				<path id="XMLID_2186_" class="st42" d="M421.9,271.5L421.9,271.5c-2.8,2.7-7.2,2.6-9.9-0.2L205.6,55.4c-2.7-2.8-2.6-7.2,0.2-9.9
					v0c2.8-2.7,7.2-2.6,9.9,0.2l206.5,215.8C424.8,264.4,424.7,268.8,421.9,271.5z"/>
			</g>
			<path id="XMLID_2183_" class="st163" d="M196.9,379.3c-8.8,0-16.4,5.1-20,12.6c-4-4.3-9.8-6.9-16.1-6.9c-6.5,0-12.4,2.8-16.5,7.3
				c-3.5-7.7-11.2-13-20.2-13c-5.8,0-11,2.2-15,5.8c-3.9-3.6-9.2-5.8-15-5.8c-12.3,0-22.2,9.9-22.2,22.2c0,12.3,9.9,22.2,22.2,22.2
				c5.8,0,11-2.2,15-5.8c3.9,3.6,9.2,5.8,15,5.8c6.5,0,12.4-2.8,16.5-7.3c3.5,7.7,11.2,13,20.2,13c8.8,0,16.4-5.1,20-12.6
				c4,4.3,9.8,6.9,16.1,6.9c12.3,0,22.2-9.9,22.2-22.2C219.2,389.3,209.2,379.3,196.9,379.3z"/>
			<path id="XMLID_2181_" class="st17" d="M196.9,395.1c-8.8,0-16.4,5.1-20,12.6c-4-4.3-9.8-6.9-16.1-6.9c-6.5,0-12.4,2.8-16.5,7.3
				c-3.5-7.7-11.2-13-20.2-13c-5.8,0-11,2.2-15,5.8c-3.9-3.6-9.2-5.8-15-5.8c-12.3,0-22.2,9.9-22.2,22.2s9.9,22.2,22.2,22.2
				c5.8,0,11-2.2,15-5.8c3.9,3.6,9.2,5.8,15,5.8c6.5,0,12.4-2.8,16.5-7.3c3.5,7.7,11.2,13,20.2,13c8.8,0,16.4-5.1,20-12.6
				c4,4.3,9.8,6.9,16.1,6.9c12.3,0,22.2-9.9,22.2-22.2S209.2,395.1,196.9,395.1z"/>
			<path id="XMLID_2180_" class="st163" d="M416.4,382.2c-8.8,0-16.4,5.1-20,12.6c-4-4.3-9.8-6.9-16.1-6.9c-6.5,0-12.4,2.8-16.5,7.3
				c-3.5-7.7-11.2-13-20.2-13c-5.8,0-11,2.2-15,5.8c-3.9-3.6-9.2-5.8-15-5.8c-12.3,0-22.2,9.9-22.2,22.2s9.9,22.2,22.2,22.2
				c5.8,0,11-2.2,15-5.8c3.9,3.6,9.2,5.8,15,5.8c6.5,0,12.4-2.8,16.5-7.3c3.5,7.7,11.2,13,20.2,13c8.8,0,16.4-5.1,20-12.6
				c4,4.3,9.8,6.9,16.1,6.9c12.3,0,22.2-9.9,22.2-22.2S428.7,382.2,416.4,382.2z"/>
			<path id="XMLID_2179_" class="st17" d="M416.4,396.9c-8.8,0-16.4,5.1-20,12.6c-4-4.3-9.8-6.9-16.1-6.9c-6.5,0-12.4,2.8-16.5,7.3
				c-3.5-7.7-11.2-13-20.2-13c-5.8,0-11,2.2-15,5.8c-3.9-3.6-9.2-5.8-15-5.8c-12.3,0-22.2,9.9-22.2,22.2s9.9,22.2,22.2,22.2
				c5.8,0,11-2.2,15-5.8c3.9,3.6,9.2,5.8,15,5.8c6.5,0,12.4-2.8,16.5-7.3c3.5,7.7,11.2,13,20.2,13c8.8,0,16.4-5.1,20-12.6
				c4,4.3,9.8,6.9,16.1,6.9c12.3,0,22.2-9.9,22.2-22.2S428.7,396.9,416.4,396.9z"/>
		</g>
	</g>
</g>
</svg>
