<?xml version="1.0" encoding="utf-8"?>
<!-- Generator: Adobe Illustrator 22.0.1, SVG Export Plug-In . SVG Version: 6.00 Build 0)  -->
<svg version="1.1" xmlns="http://www.w3.org/2000/svg" xmlns:xlink="http://www.w3.org/1999/xlink" x="0px" y="0px"
	 viewBox="0 0 512 512" style="enable-background:new 0 0 512 512;" xml:space="preserve">
<style type="text/css">
	.st0{fill:#4B71B4;}
	.st1{fill:#80B4E8;}
	.st2{fill:#594144;}
	.st3{fill:#B8E876;}
	.st4{fill:#E09122;}
	.st5{fill:#FBF355;}
	.st6{fill:#EEC82F;}
	.st7{fill:#CEA628;}
	.st8{fill:#9BC9EF;}
	.st9{fill:#9DD055;}
	.st10{fill:#5686C5;}
	.st11{fill:#3B5880;}
	.st12{fill:#C2E5FB;}
	.st13{fill:#446697;}
	.st14{fill:#D1F1A0;}
	.st15{fill:#ABD170;}
	.st16{fill:#9DBD6A;}
	.st17{fill:#649D53;}
	.st18{fill:#72B35D;}
	.st19{fill:#ABD68D;}
	.st20{fill:#7FB358;}
	.st21{fill:#920C50;}
	.st22{fill:#C60053;}
	.st23{fill:#530730;}
	.st24{fill:#600332;}
	.st25{fill:#D5AC2A;}
	.st26{fill:#EFD776;}
	.st27{fill:#A7C76D;}
	.st28{fill:#A43749;}
	.st29{fill:#DC4355;}
	.st30{fill:#E18696;}
	.st31{fill:#77A255;}
	.st32{fill:#628547;}
	.st33{fill:#6E994D;}
	.st34{fill:none;stroke:#54743C;stroke-width:8;stroke-linecap:round;stroke-miterlimit:10;}
	.st35{fill:#9BCF75;}
	.st36{fill:#CA8F80;}
	.st37{fill:#E6B8AB;}
	.st38{fill:#E2A18B;}
	.st39{fill:#8E3F2B;}
	.st40{fill:#D89988;}
	.st41{fill:#CFCFCF;}
	.st42{fill:#A64B2D;}
	.st43{fill:#FFFFFF;}
	.st44{fill:#CA801F;}
	.st45{fill:#719C50;}
	.st46{fill:#85B7E5;}
	.st47{fill:#4F7BA9;}
	.st48{fill:#674C50;}
	.st49{fill:#BAD7ED;}
	.st50{fill:#63494D;}
	.st51{fill:#503D3F;}
	.st52{fill:#638547;}
	.st53{fill:#56713E;}
	.st54{fill:#BB5135;}
	.st55{fill:#93C4EC;}
	.st56{fill:#CA8121;}
	.st57{fill:#FDFCFC;}
	.st58{fill:#A83A4F;}
	.st59{fill:#BD5E44;}
	.st60{fill:#688C4A;}
	.st61{fill:#7DA55A;}
	.st62{fill:#90BA51;}
	.st63{fill:none;}
	.st64{fill:#ABC287;}
	.st65{fill:#BDD993;}
	.st66{fill:none;stroke:#534046;stroke-width:15;stroke-linecap:round;stroke-linejoin:round;stroke-miterlimit:10;}
	.st67{fill:#413133;}
	.st68{fill:#34292B;}
	.st69{fill:#644B50;}
	.st70{fill:#CDACB7;}
	.st71{fill:#A83A4D;}
	.st72{fill:#413335;}
	.st73{fill:#DC6579;}
	.st74{fill:#4C393C;}
	.st75{fill:#527FAE;}
	.st76{fill:#92C2EA;}
	.st77{fill:#5B8C4A;}
	.st78{fill:#729C51;}
	.st79{fill:#AADB5E;}
	.st80{fill:#D66C53;}
	.st81{fill:#A65340;}
	.st82{fill:#B8594A;}
	.st83{fill:#79A754;}
	.st84{fill:#4E3B3E;}
	.st85{fill:#5E4649;}
	.st86{fill:#604A50;}
	.st87{fill:#685258;}
	.st88{fill:#765E66;}
	.st89{fill:#FCF69A;}
	.st90{fill:#D3CC84;}
	.st91{fill:#E6A572;}
	.st92{fill:#74A151;}
	.st93{fill:#6F994F;}
	.st94{fill:#CC6D7D;}
	.st95{fill:#AD6576;}
	.st96{fill:#95422D;}
	.st97{fill:#BE6850;}
	.st98{fill:#3B2F32;}
	.st99{fill:none;stroke:#46383B;stroke-width:15;stroke-linecap:round;stroke-miterlimit:10;}
	.st100{fill:none;stroke:#3B2F32;stroke-width:15;stroke-linecap:round;stroke-miterlimit:10;}
	.st101{fill:#D6CF77;}
	.st102{fill:#F5EF82;}
	.st103{fill:#4A383B;}
	.st104{fill:#CACACA;}
	.st105{fill:#48373A;}
	.st106{fill:#7AA8D2;}
	.st107{fill:#6E9150;}
	.st108{fill:#587441;}
	.st109{fill:#D76E51;}
	.st110{fill:#CCC475;}
	.st111{fill:#DDD57E;}
	.st112{fill:#F8F19C;}
	.st113{fill:#FBF58A;}
	.st114{fill:#C67F20;}
	.st115{fill:#AB6B1C;}
	.st116{fill:#C98020;}
	.st117{fill:#D99A41;}
	.st118{fill:#DBA35B;}
	.st119{fill:#9B5F1B;}
	.st120{fill:#97CF6D;}
	.st121{fill:#5380B1;}
	.st122{fill:#96D16A;}
	.st123{fill:#92BD50;}
	.st124{fill:#7EB058;}
	.st125{fill:#709A50;}
	.st126{fill:#5A8A4A;}
	.st127{fill:#D9D9D9;}
	.st128{fill:#75A3CD;}
	.st129{fill:#6E974F;}
	.st130{fill:#CA6D7D;}
	.st131{fill:#AB6576;}
	.st132{fill:#93422D;}
	.st133{fill:#A44B2D;}
	.st134{fill:#BC6850;}
	.st135{fill:#DFB52B;}
	.st136{fill:#4C3A3C;}
	.st137{fill:#473538;}
	.st138{fill:#382B2E;}
	.st139{fill:none;stroke:#FFFFFF;stroke-width:8;stroke-linecap:round;stroke-miterlimit:10;}
	.st140{fill:#90C0E8;}
	.st141{fill:none;stroke:#E09122;stroke-width:12;stroke-linecap:round;stroke-miterlimit:10;}
	.st142{fill:#DCAE2B;}
	.st143{fill:#F0D05A;}
	.st144{fill:#729E51;}
	.st145{fill:#E4BA36;}
	.st146{fill:#F8F283;}
	.st147{fill:#E4B6A9;}
	.st148{fill:#D78E30;}
	.st149{fill:#598A49;}
	.st150{fill:#B65339;}
	.st151{fill:#BA751F;}
	.st152{fill:#466A9F;}
	.st153{fill:#8BB34D;}
	.st154{fill:#9BCE54;}
	.st155{fill:#7F9F49;}
	.st156{fill:#D37F6D;}
	.st157{fill:#BB5E44;}
	.st158{fill:#93BB55;}
	.st159{fill:#B3E665;}
	.st160{fill:none;stroke:#4C393C;stroke-width:8;stroke-miterlimit:10;}
	.st161{fill:#97432D;}
	.st162{fill:#DAB12A;}
	.st163{fill:#5E914C;}
	.st164{fill:#5381B3;}
	.st165{fill:#6A8F4C;}
	.st166{fill:#628047;}
	.st167{fill:#E29D37;}
	.st168{fill:#6E555B;}
	.st169{fill:#91CA67;}
	.st170{fill:#476BA1;}
	.st171{fill:#6699D9;}
	.st172{fill:#503C3E;}
	.st173{fill:#413235;}
	.st174{fill:#CC916A;}
	.st175{fill:#BA8363;}
	.st176{fill:#D09571;}
	.st177{fill:#C98F68;}
	.st178{fill:#AA3B4D;}
	.st179{fill:#DA6075;}
	.st180{fill:#92452D;}
	.st181{fill:#A24B2D;}
	.st182{fill:#B76252;}
	.st183{fill:#87BD60;}
	.st184{fill:#78A7D2;}
	.st185{fill:#F9F38F;}
	.st186{fill:#E0D650;}
	.st187{fill:#AFE086;}
	.st188{fill:#9FD476;}
	.st189{fill:#9DD176;}
	.st190{fill:#8FC468;}
	.st191{fill:#7EAE58;}
	.st192{fill:#6F9850;}
	.st193{fill:#59884A;}
	.st194{fill:#638347;}
	.st195{fill:#B95135;}
	.st196{fill:#E5AB62;}
	.st197{fill:#733228;}
	.st198{fill:#803728;}
	.st199{fill:#6D974D;}
	.st200{fill:#99CD75;}
	.st201{fill:#93412C;}
	.st202{fill:#93C2EA;}
	.st203{fill:#CD926B;}
	.st204{fill:#E6AF8A;}
	.st205{fill:#E5DB4E;}
	.st206{fill:#FBF375;}
	.st207{fill:#779E54;}
	.st208{fill:#D3966D;}
	.st209{fill:#DA4355;}
	.st210{fill:#A83B4D;}
	.st211{fill:none;stroke:#594144;stroke-width:8;stroke-linecap:round;stroke-miterlimit:10;}
	.st212{fill:#E5A855;}
	.st213{fill:#EAC291;}
	.st214{fill:#96C252;}
	.st215{fill:#695055;}
	.st216{fill:#DC9C42;}
	.st217{fill:#8E5C1B;}
	.st218{fill:#F4EB6A;}
	.st219{fill:#CBC049;}
	.st220{fill:none;stroke:#B8E876;stroke-width:15;stroke-linecap:round;stroke-miterlimit:10;}
	.st221{fill:#A36A1C;}
	.st222{fill:#ECC94A;}
	.st223{fill:#91BEDA;}
	.st224{fill:#3D2F32;}
	.st225{fill:#A6394C;}
	.st226{fill:#33292B;}
	.st227{fill:#4F3D42;}
	.st228{fill:#638147;}
	.st229{fill:#CD8321;}
	.st230{fill:#D3CA4A;}
	.st231{fill:#E2A550;}
	.st232{fill:#B75135;}
	.st233{fill:#D4CD77;}
	.st234{fill:#F3EC80;}
	.st235{fill:#46383B;}
	.st236{fill:#82AA61;}
	.st237{fill:#8EBF69;}
	.st238{fill:#3C2E31;}
	.st239{fill:#C49F27;}
	.st240{fill:#D2BF7C;}
	.st241{fill:#F6E18D;}
	.st242{fill:#D6D6D6;}
	.st243{fill:#B5D7F2;}
	.st244{fill:#F1D467;}
	.st245{fill:#739FBD;}
	.st246{fill:#D0946C;}
	.st247{fill:#BE8767;}
	.st248{fill:#D0A829;}
	.st249{fill:#F6DF86;}
	.st250{fill:#EABA8D;}
	.st251{fill:#F0D1B8;}
	.st252{fill:#A5D0F1;}
	.st253{fill:#E3A13F;}
	.st254{fill:#F0FAFF;}
	.st255{fill:#B4D3E3;}
	.st256{fill:#80A5C3;}
	.st257{fill:#87AFD5;}
	.st258{fill:#B1D1E7;}
	.st259{fill:#AED66F;}
	.st260{fill:#91AA61;}
	.st261{fill:#A8384B;}
	.st262{fill:#CD8120;}
	.st263{fill:#E6AD56;}
	.st264{fill:none;stroke:#E6AD56;stroke-width:8;stroke-linecap:round;stroke-miterlimit:10;}
	.st265{fill:#9EBD68;}
	.st266{fill:#AAD16E;}
	.st267{fill:#86656B;}
	.st268{fill:#6D954D;}
	.st269{fill:#98CB75;}
	.st270{fill:#75A251;}
	.st271{fill:#91BD4F;}
	.st272{fill:none;stroke:#B8E078;stroke-width:8;stroke-linecap:round;stroke-miterlimit:10;}
	.st273{fill:none;stroke:#B8E078;stroke-width:8;stroke-linecap:round;stroke-linejoin:round;stroke-miterlimit:10;}
	.st274{fill:#8FBA4E;}
	.st275{fill:#B3E860;}
	.st276{fill:#E7A748;}
	.st277{fill:none;stroke:#B6E676;stroke-width:15;stroke-linecap:round;stroke-miterlimit:10;}
	.st278{fill:#639B53;}
	.st279{fill:#476B9F;}
	.st280{fill:#82B1DE;}
	.st281{fill:#A6533F;}
	.st282{fill:#C28A69;}
	.st283{fill:#64494E;}
	.st284{fill:#77565C;}
	.st285{fill:#4F3C40;}
	.st286{fill:#ECCCB1;}
	.st287{fill:#BF6F5C;}
	.st288{fill:none;stroke:#D4F1A7;stroke-width:10;stroke-linecap:round;stroke-miterlimit:10;}
	.st289{fill:none;stroke:#B8E876;stroke-width:10;stroke-linecap:round;stroke-miterlimit:10;}
	.st290{fill:#47688F;}
	.st291{fill:#3F5B78;}
	.st292{fill:#354E6C;}
	.st293{fill:#DAB12B;}
	.st294{fill:#C8A028;}
	.st295{fill:#F0D15C;}
	.st296{fill:#F8F28B;}
	.st297{fill:#F7F18D;}
	.st298{fill:#DED450;}
	.st299{fill:#F9F155;}
	.st300{fill:#A2CFF4;}
	.st301{fill:none;stroke:#594144;stroke-width:10;stroke-linecap:round;stroke-miterlimit:10;}
	.st302{fill:#F5F0AB;}
	.st303{fill:#496DA1;}
	.st304{fill:#5A85C7;}
	.st305{fill:#D7D7D7;}
	.st306{fill:#ADD3E6;}
	.st307{fill:#98B8C3;}
	.st308{fill:#CDCECF;}
	.st309{fill:#BF4F69;}
	.st310{fill:#A83448;}
	.st311{fill:#A4DAF7;}
	.st312{fill:#81A861;}
	.st313{fill:#82A549;}
	.st314{fill:#B6E676;}
	.st315{fill:#8CBD69;}
	.st316{fill:#ECC62F;}
	.st317{fill:#F4EA80;}
	.st318{fill:#D6AD2B;}
	.st319{fill:#6F9151;}
	.st320{fill:#46699C;}
	.st321{fill:#4A373A;}
	.st322{fill:#89B04C;}
	.st323{fill:#99CC53;}
	.st324{fill:#B1E465;}
	.st325{fill:#E19E3B;}
	.st326{fill:#C05970;}
	.st327{fill:#D95F74;}
	.st328{fill:#74A8DE;}
	.st329{fill:#C47C1E;}
	.st330{fill:#719A51;}
	.st331{fill:#A8D95E;}
	.st332{fill:#D46C53;}
	.st333{fill:#A45340;}
	.st334{fill:#B6594A;}
	.st335{fill:#79A554;}
	.st336{fill:#B6DAF7;}
	.st337{fill:#739F51;}
	.st338{fill:#DDB32B;}
	.st339{fill:#DE8F22;}
	.st340{fill:none;stroke:#46383B;stroke-width:8;stroke-linecap:round;stroke-miterlimit:10;}
	.st341{fill:none;stroke:#3B2F32;stroke-width:8;stroke-linecap:round;stroke-miterlimit:10;}
	.st342{fill:#C8C8C8;}
	.st343{fill:#7F9D49;}
	.st344{fill:#BA5E44;}
	.st345{fill:#92B955;}
	.st346{fill:#D17F6D;}
	.st347{fill:#5D8F4C;}
	.st348{fill:#B75334;}
	.st349{fill:#CA6D57;}
	.st350{fill:#A4574D;}
	.st351{fill:#7FB1E6;}
	.st352{fill:#77A3CD;}
	.st353{fill:#90BA4F;}
	.st354{fill:#5C8F4B;}
	.st355{fill:#ACDE5D;}
	.st356{fill:#6FAC5A;}
	.st357{fill:none;stroke:#9DD055;stroke-width:10;stroke-linecap:round;stroke-miterlimit:10;}
	.st358{fill:#AD5643;}
	.st359{fill:#B96052;}
	.st360{fill:#CB8D84;}
	.st361{fill:#CC6C56;}
	.st362{fill:#DE9A8E;}
	.st363{fill:#D37B6A;}
	.st364{fill:#A87758;}
	.st365{fill:#372A2C;}
	.st366{fill:#B8815C;}
	.st367{fill:#433335;}
	.st368{fill:#2C2325;}
	.st369{fill:#95402B;}
	.st370{fill:#A85441;}
	.st371{fill:#D2C74B;}
	.st372{fill:#B25945;}
	.st373{fill:none;stroke:#594144;stroke-width:15;stroke-linecap:round;stroke-miterlimit:10;}
	.st374{fill:none;stroke:#594144;stroke-width:12;stroke-linecap:round;stroke-miterlimit:10;}
	.st375{fill:#8F473B;}
	.st376{fill:#453538;}
	.st377{fill:#517DAB;}
	.st378{fill:#75A050;}
	.st379{fill:#A5384D;}
	.st380{fill:#CC6075;}
	.st381{fill:#F26B7F;}
	.st382{fill:#C67189;}
	.st383{fill:#B26980;}
	.st384{fill:#D87990;}
	.st385{fill:#F2869B;}
	.st386{fill:#EF8499;}
	.st387{fill:#649CD7;}
	.st388{fill:#639CDB;}
	.st389{fill:#C8ED8D;}
	.st390{fill:#A9DB83;}
	.st391{fill:#9BCF76;}
	.st392{fill:#7EAC58;}
	.st393{fill:#8CC463;}
	.st394{fill:#7FAC5B;}
	.st395{fill:#769C55;}
	.st396{fill:#6A894D;}
	.st397{fill:#769B56;}
	.st398{fill:#9BCC75;}
	.st399{fill:#AF5641;}
	.st400{fill:#F4D576;}
	.st401{fill:#76A055;}
	.st402{fill:#628347;}
	.st403{fill:#4F7B9F;}
	.st404{fill:#466D86;}
	.st405{fill:#4D789C;}
</style>
<g id="BULINE">
</g>
<g id="Icons">
	<g>
		<circle id="XMLID_1443_" class="st10" cx="256" cy="256" r="256"/>
		<g id="XMLID_4611_">
			<path id="XMLID_1815_" class="st377" d="M51.9,290.4c-11.9-32.2-22.4-94,83-77.8c0,0,110.2,38.8,103-53.2
				c0,0,52.8-162.6,166.3-69.8c0,0,35.1,28.3-11.7,89.6c0,0-9.4,75.2,45.8,105.1c16.6,9,27.2,26.3,28,45.2
				c1.7,39.8-10.4,98.1-94.8,100l-254.1-13.6c0,0-99.3-12-66.4-89.5C55.8,314.9,56.2,302,51.9,290.4z"/>
			<g id="XMLID_4612_">
				<g id="XMLID_4659_">
					<path id="XMLID_4661_" class="st20" d="M105.6,185.3c0,8.2-7.5,15.4-18.6,19.1c-5.2,1.8-11.2,2.8-17.7,2.8
						c-16.6,0-40.9-15-48.7-20.2c-1.5-1-1.5-2.5,0-3.4c7.8-5.2,32.1-20.2,48.7-20.2c6.4,0,12.4,1,17.7,2.8
						C98.1,169.9,105.6,177.1,105.6,185.3z"/>
					<path id="XMLID_4660_" class="st378" d="M105.6,185.3c0,8.2-7.5,15.4-18.6,19.1c-13.9-4.6-28.4-13.7-34.2-17.4
						c-1.5-1-1.5-2.5,0-3.4c5.7-3.8,20.3-12.8,34.2-17.4C98.1,169.9,105.6,177.1,105.6,185.3z"/>
				</g>
				<g id="XMLID_4656_">
					<path id="XMLID_4658_" class="st20" d="M157.3,185.3c0-8.2,7.5-15.4,18.6-19.1c5.2-1.8,11.2-2.8,17.7-2.8
						c16.6,0,40.9,15,48.7,20.2c1.5,1,1.5,2.5,0,3.4c-7.8,5.2-32.1,20.2-48.7,20.2c-6.4,0-12.4-1-17.7-2.8
						C164.8,200.7,157.3,193.5,157.3,185.3z"/>
					<path id="XMLID_4657_" class="st378" d="M157.3,185.3c0-8.2,7.5-15.4,18.6-19.1c13.9,4.6,28.4,13.7,34.2,17.4
						c1.5,1,1.5,2.5,0,3.4c-5.7,3.8-20.3,12.8-34.2,17.4C164.8,200.7,157.3,193.5,157.3,185.3z"/>
				</g>
				<path id="XMLID_4655_" class="st378" d="M216,226.6c-2.4-9.1-10.4-36.5-22.8-47.6c-4.8-4.3-9.9-7.6-15-9.7
					c-10.8-4.6-21.1-4.3-26.6,1.8c-5.5,6.1-4.7,16.5,1.1,26.7c2.7,4.8,6.5,9.6,11.3,13.9c12.4,11.1,40.5,16.1,49.8,17.5
					C215.4,229.4,216.4,228.3,216,226.6z"/>
				<path id="XMLID_4654_" class="st378" d="M58.8,226.6c2.4-9.1,10.4-36.5,22.8-47.6c4.8-4.3,9.9-7.6,15-9.7
					c10.8-4.6,21.1-4.3,26.6,1.8c5.5,6.1,4.7,16.5-1.1,26.7c-2.7,4.8-6.5,9.6-11.3,13.9c-12.4,11.1-40.5,16.1-49.8,17.5
					C59.3,229.4,58.3,228.3,58.8,226.6z"/>
				<path id="XMLID_4653_" class="st379" d="M86.6,122.7c8.5,18.2,29.6,26.2,47.3,18c17.6-8.2,25.1-29.6,16.6-47.8
					c-7-15-39.2-26.9-50-30.5c-2-0.7-4.2,0.3-5,2.3C91.3,75.4,79.6,107.6,86.6,122.7z"/>
				<path id="XMLID_4652_" class="st379" d="M183.5,122.7c-8.5,18.2-29.6,26.2-47.3,18c-17.6-8.2-25.1-29.6-16.6-47.8
					c7-15,39.2-26.9,50-30.5c2-0.7,4.2,0.3,5,2.3C178.8,75.4,190.5,107.6,183.5,122.7z"/>
				<path id="XMLID_4642_" class="st29" d="M70.2,146.1c14.2,14.2,36.8,14.5,50.6,0.7s13.4-36.4-0.7-50.6
					c-11.7-11.7-46-11.8-57.4-11.5c-2.1,0.1-3.8,1.8-3.9,3.9C58.4,100.1,58.5,134.4,70.2,146.1z"/>
				<g id="XMLID_4638_">
					<path id="XMLID_4640_" class="st20" d="M174.8,199.4c0,18.7-27.3,46.2-36.7,55c-1.8,1.7-4.5,1.7-6.2,0
						c-9.4-8.8-36.7-36.3-36.7-55c0-8.6,2.6-16.6,7-23.2c7.2-10.7,19.2-17.8,32.8-17.8c13.6,0,25.6,7,32.8,17.8
						C172.2,182.8,174.8,190.8,174.8,199.4z"/>
					<path id="XMLID_4639_" class="st378" d="M167.8,176.2c-8.8,14.6-23.4,29.1-29.7,35.1c-1.8,1.6-4.5,1.6-6.2,0
						c-6.3-6-21-20.5-29.7-35.1c7.2-10.7,19.2-17.8,32.8-17.8C148.6,158.4,160.7,165.4,167.8,176.2z"/>
				</g>
				<path id="XMLID_4636_" class="st29" d="M199.4,146.1c-14.2,14.2-36.8,14.5-50.6,0.7c-13.8-13.8-13.4-36.4,0.7-50.6
					c11.7-11.7,46-11.8,57.4-11.5c2.1,0.1,3.8,1.8,3.9,3.9C211.2,100.1,211.1,134.4,199.4,146.1z"/>
				<path id="XMLID_4635_" class="st380" d="M185.7,133c0,22.7-14,42-33.6,49.2c-5.4,2-11.2,3.1-17.2,3.1
					c-28.1,0-50.8-23.4-50.8-52.3c0-23.9,34.9-58.9,46.8-70.2c2.2-2.1,5.7-2.1,7.9,0c3.2,3,7.9,7.6,13.2,13.3
					C166.8,91.8,185.7,115.4,185.7,133z"/>
				<path id="XMLID_4634_" class="st381" d="M185.7,133c0,22.7-14,42-33.6,49.2c-19.6-7.2-33.6-26.6-33.6-49.2
					c0-17.6,18.9-41.2,33.6-57C166.8,91.8,185.7,115.4,185.7,133z"/>
				<path id="XMLID_4632_" class="st382" d="M134.4,184.4c-1.5,0.5-3,0.9-4.5,1.3c-12.9,3.6-24.6,4.5-35.1,3.6
					c-46.2-4.2-70.7-44.9-79.4-63.4c-1.3-2.6,1.5-5.3,4.1-4c5.1,2.6,11.1,4.8,17,6.5c2.9,0.9,5.9,1.7,8.7,2.4
					c9.8,2.4,19.8,3.7,29.9,4.3c23.6,1.4,38.1,11.9,46.8,22.9C132,170.9,134.4,184.4,134.4,184.4z"/>
				<path id="XMLID_4631_" class="st383" d="M129.9,185.7c-12.9,3.6-24.6,4.5-35.1,3.6c-33.6-10.7-50.2-38-58.3-60.8
					c2.9,0.9,5.9,1.7,8.7,2.4c9.8,2.4,19.8,3.7,29.9,4.3c23.6,1.4,38.1,11.9,46.8,22.9c5.7,10.2,7.5,20.4,8,27.3
					C129.8,185.5,129.8,185.6,129.9,185.7z"/>
				<path id="XMLID_4630_" class="st382" d="M134.5,184.4c1.5,0.5,3,0.9,4.5,1.3c12.9,3.6,24.6,4.5,35.1,3.6
					c46.2-4.2,70.7-44.9,79.4-63.4c1.3-2.6-1.5-5.3-4.1-4c-5.1,2.6-11.1,4.8-17,6.5c-2.9,0.9-5.9,1.7-8.7,2.4
					c-9.8,2.4-19.8,3.7-29.9,4.3c-23.6,1.4-38.1,11.9-46.8,22.9C136.9,170.9,134.5,184.4,134.5,184.4z"/>
				<path id="XMLID_4618_" class="st383" d="M139,185.7c12.9,3.6,24.6,4.5,35.1,3.6c33.6-10.7,50.2-38,58.3-60.8
					c-2.9,0.9-5.9,1.7-8.7,2.4c-9.8,2.4-19.8,3.7-29.9,4.3c-23.6,1.4-38.1,11.9-46.8,22.9c-5.7,10.2-7.5,20.4-8,27.3
					C139.1,185.5,139.1,185.6,139,185.7z"/>
				<path id="XMLID_4617_" class="st384" d="M229.4,95.8c-1.7,1.6-3.5,3.1-5.4,4.6c-5.4,4.2-11.5,8.1-17.2,11.4
					c-8.9,5.1-18.3,9.2-28,12.7c-30.8,10.9-41.2,33.4-44.2,48.8c-2.9-15.4-12.5-37.9-43.3-48.8c-9.7-3.4-19.1-7.5-28-12.7
					c-5.7-3.3-11.8-7.2-17.2-11.4c-1.9-1.5-3.7-3-5.4-4.6c-2.2-2-5.6-0.2-5.2,2.8c4.2,25.6,23.1,92.1,99.4,90.8
					c76.3,1.4,95.4-65.1,99.6-90.8C235,95.7,231.6,93.8,229.4,95.8z"/>
				<path id="XMLID_4616_" class="st385" d="M224,100.4c-5.4,4.2-11.5,8.1-17.2,11.4c-8.9,5.1-18.3,9.2-28,12.7
					c-22.6,8-34,22.2-39.7,35.3c-1.8,4.1-7.6,4.1-9.3,0c-5.6-13.1-17-27.3-39.6-35.3c-9.7-3.4-19.1-7.5-28-12.7
					c-5.7-3.3-11.8-7.2-17.2-11.4c6.8,28.4,27.9,77.2,88.9,80.3c0,0,0,0,0,0.1c0.2,0,0.4,0,0.5,0c0.2,0,0.4,0,0.5,0c0,0,0,0,0-0.1
					C195.8,177.7,217.1,128.9,224,100.4z"/>
				
					<ellipse id="XMLID_4613_" transform="matrix(0.9087 -0.4174 0.4174 0.9087 -28.6607 75.0445)" class="st386" cx="157.3" cy="103.1" rx="11.1" ry="14.7"/>
			</g>
			<g id="XMLID_5487_">
				<g id="XMLID_5513_">
					<path id="XMLID_5515_" class="st20" d="M360.6,150.1c0,8.2-7.5,15.4-18.6,19.1c-5.2,1.8-11.2,2.8-17.7,2.8
						c-16.6,0-40.9-15-48.7-20.2c-1.5-1-1.5-2.5,0-3.4c7.8-5.2,32.1-20.2,48.7-20.2c6.4,0,12.4,1,17.7,2.8
						C353.1,134.7,360.6,141.9,360.6,150.1z"/>
					<path id="XMLID_5514_" class="st378" d="M360.6,150.1c0,8.2-7.5,15.4-18.6,19.1c-13.9-4.6-28.4-13.7-34.2-17.4
						c-1.5-1-1.5-2.5,0-3.4c5.7-3.8,20.3-12.8,34.2-17.4C353.1,134.7,360.6,141.9,360.6,150.1z"/>
				</g>
				<g id="XMLID_5510_">
					<path id="XMLID_5512_" class="st20" d="M412.3,150.1c0-8.2,7.5-15.4,18.6-19.1c5.2-1.8,11.2-2.8,17.7-2.8
						c16.6,0,40.9,15,48.7,20.2c1.5,1,1.5,2.5,0,3.4c-7.8,5.2-32.1,20.2-48.7,20.2c-6.4,0-12.4-1-17.7-2.8
						C419.8,165.5,412.3,158.4,412.3,150.1z"/>
					<path id="XMLID_5511_" class="st378" d="M412.3,150.1c0-8.2,7.5-15.4,18.6-19.1c13.9,4.6,28.4,13.7,34.2,17.4
						c1.5,1,1.5,2.5,0,3.4c-5.7,3.8-20.3,12.8-34.2,17.4C419.8,165.5,412.3,158.4,412.3,150.1z"/>
				</g>
				<path id="XMLID_5509_" class="st378" d="M471,191.4c-2.4-9.1-10.4-36.5-22.8-47.6c-4.8-4.3-9.9-7.6-15-9.7
					c-10.8-4.6-21.1-4.3-26.6,1.8c-5.5,6.1-4.7,16.5,1.1,26.7c2.7,4.8,6.5,9.6,11.3,13.9c12.4,11.1,40.5,16.1,49.8,17.5
					C470.5,194.2,471.5,193.1,471,191.4z"/>
				<path id="XMLID_5504_" class="st378" d="M313.8,191.4c2.4-9.1,10.4-36.5,22.8-47.6c4.8-4.3,9.9-7.6,15-9.7
					c10.8-4.6,21.1-4.3,26.6,1.8c5.5,6.1,4.7,16.5-1.1,26.7c-2.7,4.8-6.5,9.6-11.3,13.9c-12.4,11.1-40.5,16.1-49.8,17.5
					C314.3,194.2,313.4,193.1,313.8,191.4z"/>
				<path id="XMLID_5503_" class="st379" d="M341.7,87.5c8.5,18.2,29.6,26.2,47.3,18c17.6-8.2,25.1-29.6,16.6-47.8
					c-7-15-39.2-26.9-50-30.5c-2-0.7-4.2,0.3-5,2.3C346.4,40.2,334.7,72.4,341.7,87.5z"/>
				<path id="XMLID_5502_" class="st379" d="M438.5,87.5c-8.5,18.2-29.6,26.2-47.3,18c-17.6-8.2-25.1-29.6-16.6-47.8
					c7-15,39.2-26.9,50-30.5c2-0.7,4.2,0.3,5,2.3C433.8,40.2,445.5,72.4,438.5,87.5z"/>
				<path id="XMLID_5501_" class="st29" d="M325.2,111c14.2,14.2,36.8,14.5,50.6,0.7c13.8-13.8,13.4-36.4-0.7-50.6
					c-11.7-11.7-46-11.8-57.4-11.5c-2.1,0.1-3.8,1.8-3.9,3.9C313.4,65,313.5,99.2,325.2,111z"/>
				<g id="XMLID_5498_">
					<path id="XMLID_5500_" class="st20" d="M429.9,164.2c0,18.7-27.3,46.2-36.7,55c-1.8,1.7-4.5,1.7-6.2,0
						c-9.4-8.8-36.7-36.3-36.7-55c0-8.6,2.6-16.6,7-23.2c7.2-10.7,19.2-17.8,32.8-17.8c13.6,0,25.6,7,32.8,17.8
						C427.3,147.6,429.9,155.6,429.9,164.2z"/>
					<path id="XMLID_5499_" class="st378" d="M422.9,141c-8.8,14.6-23.4,29.1-29.7,35.1c-1.8,1.6-4.5,1.6-6.2,0
						c-6.3-6-21-20.5-29.7-35.1c7.2-10.7,19.2-17.8,32.8-17.8C403.7,123.2,415.7,130.3,422.9,141z"/>
				</g>
				<path id="XMLID_5497_" class="st29" d="M454.4,111c-14.2,14.2-36.8,14.5-50.6,0.7c-13.8-13.8-13.4-36.4,0.7-50.6
					c11.7-11.7,46-11.8,57.4-11.5c2.1,0.1,3.8,1.8,3.9,3.9C466.2,65,466.2,99.2,454.4,111z"/>
				<path id="XMLID_5496_" class="st380" d="M440.7,97.8c0,22.7-14,42-33.6,49.2c-5.4,2-11.2,3.1-17.2,3.1
					c-28.1,0-50.8-23.4-50.8-52.3c0-23.9,34.9-58.9,46.8-70.2c2.2-2.1,5.7-2.1,7.9,0c3.2,3,7.9,7.6,13.2,13.3
					C421.8,56.6,440.7,80.2,440.7,97.8z"/>
				<path id="XMLID_5495_" class="st381" d="M440.7,97.8c0,22.7-14,42-33.6,49.2c-19.6-7.2-33.6-26.6-33.6-49.2
					c0-17.6,18.9-41.2,33.6-57C421.8,56.6,440.7,80.2,440.7,97.8z"/>
				<path id="XMLID_5494_" class="st382" d="M389.4,149.2c-1.5,0.5-3,0.9-4.5,1.3c-12.9,3.6-24.6,4.5-35.1,3.6
					c-46.2-4.2-70.7-44.9-79.4-63.4c-1.3-2.6,1.5-5.3,4.1-4c5.1,2.6,11.1,4.8,17,6.5c2.9,0.9,5.9,1.7,8.7,2.4
					c9.8,2.4,19.8,3.7,29.9,4.3c23.6,1.4,38.1,11.9,46.8,22.9C387.1,135.8,389.4,149.2,389.4,149.2z"/>
				<path id="XMLID_5493_" class="st383" d="M384.9,150.6c-12.9,3.6-24.6,4.5-35.1,3.6c-33.6-10.7-50.2-38-58.3-60.8
					c2.9,0.9,5.9,1.7,8.7,2.4c9.8,2.4,19.8,3.7,29.9,4.3c23.6,1.4,38.1,11.9,46.8,22.9c5.7,10.2,7.5,20.4,8,27.3
					C384.9,150.3,384.9,150.4,384.9,150.6z"/>
				<path id="XMLID_5492_" class="st382" d="M389.5,149.2c1.5,0.5,3,0.9,4.5,1.3c12.9,3.6,24.6,4.5,35.1,3.6
					c46.2-4.2,70.7-44.9,79.4-63.4c1.3-2.6-1.5-5.3-4.1-4c-5.1,2.6-11.1,4.8-17,6.5c-2.9,0.9-5.9,1.7-8.7,2.4
					c-9.8,2.4-19.8,3.7-29.9,4.3c-23.6,1.4-38.1,11.9-46.8,22.9C391.9,135.8,389.5,149.2,389.5,149.2z"/>
				<path id="XMLID_5491_" class="st383" d="M394.1,150.6c12.9,3.6,24.6,4.5,35.1,3.6c33.6-10.7,50.2-38,58.3-60.8
					c-2.9,0.9-5.9,1.7-8.7,2.4c-9.8,2.4-19.8,3.7-29.9,4.3c-23.6,1.4-38.1,11.9-46.8,22.9c-5.7,10.2-7.5,20.4-8,27.3
					C394.1,150.3,394.1,150.4,394.1,150.6z"/>
				<path id="XMLID_5490_" class="st384" d="M484.4,60.7c-1.7,1.6-3.5,3.1-5.4,4.6c-5.4,4.2-11.5,8.1-17.2,11.4
					c-8.9,5.1-18.3,9.2-28,12.7c-30.8,10.9-41.2,33.4-44.2,48.8c-2.9-15.4-12.5-37.9-43.3-48.8c-9.7-3.4-19.1-7.5-28-12.7
					c-5.7-3.3-11.8-7.2-17.2-11.4c-1.9-1.5-3.7-3-5.4-4.6c-2.2-2-5.6-0.2-5.2,2.8c4.2,25.6,23.1,92.1,99.4,90.8
					c76.3,1.4,95.4-65.1,99.6-90.8C490.1,60.5,486.6,58.7,484.4,60.7z"/>
				<path id="XMLID_5489_" class="st385" d="M479,65.3c-5.4,4.2-11.5,8.1-17.2,11.4c-8.9,5.1-18.3,9.2-28,12.7
					c-22.6,8-34,22.2-39.7,35.3c-1.8,4.1-7.6,4.1-9.3,0c-5.6-13.1-17-27.3-39.6-35.3c-9.7-3.4-19.1-7.5-28-12.7
					c-5.7-3.3-11.8-7.2-17.2-11.4c6.8,28.4,27.9,77.2,88.9,80.3c0,0,0,0,0,0.1c0.2,0,0.4,0,0.5,0c0.2,0,0.4,0,0.5,0c0,0,0,0,0-0.1
					C450.9,142.5,472.2,93.7,479,65.3z"/>
				
					<ellipse id="XMLID_5488_" transform="matrix(0.9087 -0.4174 0.4174 0.9087 9.2969 178.2858)" class="st386" cx="412.3" cy="67.9" rx="11.1" ry="14.7"/>
			</g>
			<ellipse id="XMLID_1817_" class="st387" cx="205" cy="36" rx="39.2" ry="16.5"/>
			<ellipse id="XMLID_4662_" class="st387" cx="276" cy="26" rx="19.6" ry="8.3"/>
			<ellipse id="XMLID_1816_" class="st387" cx="175.2" cy="453.8" rx="46" ry="19.4"/>
			<ellipse id="XMLID_1797_" class="st387" cx="266.3" cy="481.9" rx="36.2" ry="15.3"/>
			<g id="XMLID_1713_">
				<g id="XMLID_1793_">
					<path id="XMLID_1795_" class="st20" d="M220.4,356.8c0,12.2-11.1,22.8-27.6,28.4c-7.7,2.6-16.7,4.1-26.2,4.1
						c-24.6,0-60.6-22.3-72.2-30c-2.2-1.4-2.2-3.6,0-5.1c11.6-7.6,47.6-30,72.2-30c9.5,0,18.4,1.5,26.2,4.1
						C209.3,334,220.4,344.6,220.4,356.8z"/>
					<path id="XMLID_1794_" class="st378" d="M220.4,356.8c0,12.2-11.1,22.8-27.6,28.4c-20.6-6.8-42.1-20.2-50.7-25.8
						c-2.2-1.4-2.2-3.6,0-5.1c8.5-5.6,30.1-19,50.7-25.8C209.3,334,220.4,344.6,220.4,356.8z"/>
				</g>
				<g id="XMLID_1790_">
					<path id="XMLID_1792_" class="st20" d="M297,356.8c0-12.2,11.1-22.8,27.6-28.4c7.7-2.6,16.7-4.1,26.2-4.1
						c24.6,0,60.6,22.3,72.2,30c2.2,1.4,2.2,3.6,0,5.1c-11.6,7.6-47.6,30-72.2,30c-9.5,0-18.4-1.5-26.2-4.1
						C308.1,379.6,297,369,297,356.8z"/>
					<path id="XMLID_1791_" class="st378" d="M297,356.8c0-12.2,11.1-22.8,27.6-28.4c20.6,6.8,42.1,20.2,50.7,25.8
						c2.2,1.4,2.2,3.6,0,5.1c-8.5,5.6-30.1,19-50.7,25.8C308.1,379.6,297,369,297,356.8z"/>
				</g>
				<path id="XMLID_1788_" class="st378" d="M384,418c-3.5-13.5-15.5-54.1-33.8-70.5c-7.1-6.3-14.7-11.2-22.2-14.4
					c-16-6.9-31.3-6.4-39.5,2.7c-8.1,9.1-7,24.4,1.6,39.5c4,7.1,9.7,14.2,16.8,20.5c18.3,16.4,60,23.8,73.8,25.9
					C383.2,422.2,384.7,420.6,384,418z"/>
				<path id="XMLID_1786_" class="st378" d="M151,418c3.5-13.5,15.5-54.1,33.8-70.5c7.1-6.3,14.7-11.2,22.2-14.4
					c16-6.9,31.3-6.4,39.5,2.7c8.1,9.1,7,24.4-1.6,39.5c-4,7.1-9.7,14.2-16.8,20.5c-18.3,16.4-60,23.8-73.8,25.9
					C151.8,422.2,150.3,420.6,151,418z"/>
				<path id="XMLID_1784_" class="st379" d="M192.3,264c12.5,26.9,43.9,38.9,70.1,26.7c26.2-12.2,37.2-43.9,24.7-70.8
					c-10.4-22.3-58.1-39.8-74.2-45.1c-3-1-6.2,0.5-7.4,3.4C199.3,193.9,181.9,241.7,192.3,264z"/>
				<path id="XMLID_1783_" class="st379" d="M335.9,264c-12.5,26.9-43.9,38.9-70.1,26.7c-26.2-12.2-37.2-43.9-24.7-70.8
					c10.4-22.3,58.1-39.8,74.2-45.1c3-1,6.2,0.5,7.4,3.4C328.9,193.9,346.3,241.7,335.9,264z"/>
				<path id="XMLID_1782_" class="st29" d="M168,298.8c21,21,54.6,21.5,75,1.1s19.9-54-1.1-75c-17.4-17.4-68.2-17.5-85.1-17
					c-3.2,0.1-5.7,2.6-5.8,5.8C150.5,230.6,150.6,281.4,168,298.8z"/>
				<g id="XMLID_1778_">
					<path id="XMLID_1780_" class="st20" d="M323,377.7c0,27.8-40.5,68.4-54.4,81.6c-2.6,2.5-6.6,2.5-9.2,0
						c-13.9-13.1-54.4-53.8-54.4-81.6c0-12.8,3.8-24.6,10.4-34.4C226,327.4,243.9,317,264,317c20.2,0,38,10.4,48.6,26.3
						C319.2,353.1,323,364.9,323,377.7z"/>
					<path id="XMLID_1779_" class="st378" d="M312.7,343.3c-13,21.6-34.6,43.1-44,52c-2.6,2.4-6.6,2.4-9.2,0
						c-9.4-8.9-31.1-30.4-44-52C226,327.4,243.9,317,264,317C284.2,317,302,327.4,312.7,343.3z"/>
				</g>
				<path id="XMLID_1777_" class="st29" d="M359.4,298.8c-21,21-54.6,21.5-75,1.1s-19.9-54,1.1-75c17.4-17.4,68.2-17.5,85.1-17
					c3.2,0.1,5.7,2.6,5.8,5.8C376.9,230.6,376.8,281.4,359.4,298.8z"/>
				<path id="XMLID_1776_" class="st380" d="M339.1,279.3c0,33.6-20.8,62.2-49.9,73c-8,2.9-16.5,4.5-25.5,4.5
					c-41.6,0-75.3-34.7-75.3-77.5c0-35.5,51.7-87.4,69.4-104.1c3.3-3.1,8.5-3.1,11.8,0c4.7,4.4,11.7,11.3,19.6,19.7
					C311.1,218.2,339.1,253.2,339.1,279.3z"/>
				<path id="XMLID_1744_" class="st381" d="M339.1,279.3c0,33.6-20.8,62.2-49.9,73c-29.1-10.7-49.9-39.4-49.9-73
					c0-26.1,28-61.1,49.9-84.4C311.1,218.2,339.1,253.2,339.1,279.3z"/>
				<path id="XMLID_1741_" class="st382" d="M263.1,355.5c-2.3,0.7-4.5,1.4-6.7,2c-19.1,5.3-36.4,6.7-52.1,5.3
					c-68.5-6.2-104.7-66.6-117.8-93.9c-1.9-3.9,2.3-7.9,6.1-5.9c7.6,3.8,16.4,7.1,25.2,9.7c4.4,1.3,8.7,2.5,12.9,3.5
					c14.5,3.6,29.4,5.5,44.3,6.4c35,2.1,56.5,17.7,69.4,33.9C259.6,335.5,263.1,355.5,263.1,355.5z"/>
				<path id="XMLID_1740_" class="st383" d="M256.4,357.4c-19.1,5.3-36.4,6.7-52.1,5.3c-49.8-15.9-74.4-56.4-86.5-90.1
					c4.4,1.3,8.7,2.5,12.9,3.5c14.5,3.6,29.4,5.5,44.3,6.4c35,2.1,56.5,17.7,69.4,33.9c8.5,15.1,11.1,30.2,11.9,40.4
					C256.3,357.1,256.4,357.3,256.4,357.4z"/>
				<path id="XMLID_1731_" class="st382" d="M263.3,355.5c2.3,0.7,4.5,1.4,6.7,2c19.1,5.3,36.4,6.7,52.1,5.3
					c68.5-6.2,104.7-66.6,117.8-93.9c1.9-3.9-2.3-7.9-6.1-5.9c-7.6,3.8-16.4,7.1-25.2,9.7c-4.4,1.3-8.7,2.5-12.9,3.5
					c-14.5,3.6-29.4,5.5-44.3,6.4c-35,2.1-56.5,17.7-69.4,33.9C266.8,335.5,263.3,355.5,263.3,355.5z"/>
				<path id="XMLID_1730_" class="st383" d="M270,357.4c19.1,5.3,36.4,6.7,52.1,5.3c49.8-15.9,74.4-56.4,86.5-90.1
					c-4.4,1.3-8.7,2.5-12.9,3.5c-14.5,3.6-29.4,5.5-44.3,6.4c-35,2.1-56.5,17.7-69.4,33.9c-8.5,15.1-11.1,30.2-11.9,40.4
					C270,357.1,270,357.3,270,357.4z"/>
				<path id="XMLID_1728_" class="st384" d="M403.9,224.2c-2.5,2.3-5.2,4.6-8,6.8c-8,6.2-17,12-25.5,16.8
					c-13.2,7.6-27.2,13.7-41.5,18.8c-45.7,16.2-61,49.5-65.6,72.4c-4.3-22.9-18.5-56.2-64.1-72.4c-14.4-5.1-28.4-11.1-41.5-18.8
					c-8.4-4.9-17.5-10.6-25.5-16.8c-2.8-2.2-5.5-4.5-8-6.8c-3.2-3-8.4-0.2-7.6,4.1c6.3,38,34.2,136.6,147.4,134.5
					c113.1,2,141.4-96.5,147.7-134.5C412.3,224,407.1,221.2,403.9,224.2z"/>
				<path id="XMLID_1727_" class="st385" d="M395.9,231c-8,6.2-17,12-25.5,16.8c-13.2,7.6-27.2,13.7-41.5,18.8
					c-33.4,11.8-50.4,32.9-58.9,52.4c-2.6,6.1-11.2,6.1-13.8,0c-8.4-19.4-25.2-40.5-58.7-52.3c-14.4-5.1-28.4-11.1-41.5-18.8
					c-8.4-4.9-17.5-10.6-25.5-16.8c10.1,42.2,41.4,114.5,131.8,119.1c0,0,0,0.1,0,0.1c0.3,0,0.5,0,0.8,0c0.3,0,0.5,0,0.8,0
					c0,0,0-0.1,0-0.1C354.2,345.5,385.7,273.2,395.9,231z"/>
				
					<ellipse id="XMLID_1726_" transform="matrix(0.9087 -0.4174 0.4174 0.9087 -70.9436 145.4051)" class="st386" cx="297" cy="234.9" rx="16.5" ry="21.7"/>
			</g>
		</g>
	</g>
</g>
</svg>
