<?xml version="1.0" encoding="utf-8"?>
<!-- Generator: Adobe Illustrator 22.0.1, SVG Export Plug-In . SVG Version: 6.00 Build 0)  -->
<svg version="1.1" xmlns="http://www.w3.org/2000/svg" xmlns:xlink="http://www.w3.org/1999/xlink" x="0px" y="0px"
	 viewBox="0 0 512 512" style="enable-background:new 0 0 512 512;" xml:space="preserve">
<style type="text/css">
	.st0{fill:#4B71B4;}
	.st1{fill:#80B4E8;}
	.st2{fill:#594144;}
	.st3{fill:#B8E876;}
	.st4{fill:#E09122;}
	.st5{fill:#FBF355;}
	.st6{fill:#EEC82F;}
	.st7{fill:#CEA628;}
	.st8{fill:#9BC9EF;}
	.st9{fill:#9DD055;}
	.st10{fill:#5686C5;}
	.st11{fill:#3B5880;}
	.st12{fill:#C2E5FB;}
	.st13{fill:#446697;}
	.st14{fill:#D1F1A0;}
	.st15{fill:#ABD170;}
	.st16{fill:#9DBD6A;}
	.st17{fill:#649D53;}
	.st18{fill:#72B35D;}
	.st19{fill:#ABD68D;}
	.st20{fill:#7FB358;}
	.st21{fill:#920C50;}
	.st22{fill:#C60053;}
	.st23{fill:#530730;}
	.st24{fill:#600332;}
	.st25{fill:#D5AC2A;}
	.st26{fill:#EFD776;}
	.st27{fill:#A7C76D;}
	.st28{fill:#A43749;}
	.st29{fill:#DC4355;}
	.st30{fill:#E18696;}
	.st31{fill:#77A255;}
	.st32{fill:#628547;}
	.st33{fill:#6E994D;}
	.st34{fill:none;stroke:#54743C;stroke-width:8;stroke-linecap:round;stroke-miterlimit:10;}
	.st35{fill:#9BCF75;}
	.st36{fill:#CA8F80;}
	.st37{fill:#E6B8AB;}
	.st38{fill:#E2A18B;}
	.st39{fill:#8E3F2B;}
	.st40{fill:#D89988;}
	.st41{fill:#CFCFCF;}
	.st42{fill:#A64B2D;}
	.st43{fill:#FFFFFF;}
	.st44{fill:#CA801F;}
	.st45{fill:#719C50;}
	.st46{fill:#85B7E5;}
	.st47{fill:#4F7BA9;}
	.st48{fill:#674C50;}
	.st49{fill:#BAD7ED;}
	.st50{fill:#63494D;}
	.st51{fill:#503D3F;}
	.st52{fill:#638547;}
	.st53{fill:#56713E;}
	.st54{fill:#BB5135;}
	.st55{fill:#93C4EC;}
	.st56{fill:#CA8121;}
	.st57{fill:#FDFCFC;}
	.st58{fill:#A83A4F;}
	.st59{fill:#BD5E44;}
	.st60{fill:#688C4A;}
	.st61{fill:#7DA55A;}
	.st62{fill:#90BA51;}
	.st63{fill:none;}
	.st64{fill:#ABC287;}
	.st65{fill:#BDD993;}
	.st66{fill:none;stroke:#534046;stroke-width:15;stroke-linecap:round;stroke-linejoin:round;stroke-miterlimit:10;}
	.st67{fill:#413133;}
	.st68{fill:#34292B;}
	.st69{fill:#644B50;}
	.st70{fill:#CDACB7;}
	.st71{fill:#A83A4D;}
	.st72{fill:#413335;}
	.st73{fill:#DC6579;}
	.st74{fill:#4C393C;}
	.st75{fill:#527FAE;}
	.st76{fill:#92C2EA;}
	.st77{fill:#5B8C4A;}
	.st78{fill:#729C51;}
	.st79{fill:#AADB5E;}
	.st80{fill:#D66C53;}
	.st81{fill:#A65340;}
	.st82{fill:#B8594A;}
	.st83{fill:#79A754;}
	.st84{fill:#4E3B3E;}
	.st85{fill:#5E4649;}
	.st86{fill:#604A50;}
	.st87{fill:#685258;}
	.st88{fill:#765E66;}
	.st89{fill:#FCF69A;}
	.st90{fill:#D3CC84;}
	.st91{fill:#E6A572;}
	.st92{fill:#74A151;}
	.st93{fill:#6F994F;}
	.st94{fill:#CC6D7D;}
	.st95{fill:#AD6576;}
	.st96{fill:#95422D;}
	.st97{fill:#BE6850;}
	.st98{fill:#3B2F32;}
	.st99{fill:none;stroke:#46383B;stroke-width:15;stroke-linecap:round;stroke-miterlimit:10;}
	.st100{fill:none;stroke:#3B2F32;stroke-width:15;stroke-linecap:round;stroke-miterlimit:10;}
	.st101{fill:#D6CF77;}
	.st102{fill:#F5EF82;}
	.st103{fill:#4A383B;}
	.st104{fill:#CACACA;}
	.st105{fill:#48373A;}
	.st106{fill:#7AA8D2;}
	.st107{fill:#6E9150;}
	.st108{fill:#587441;}
	.st109{fill:#D76E51;}
	.st110{fill:#CCC475;}
	.st111{fill:#DDD57E;}
	.st112{fill:#F8F19C;}
	.st113{fill:#FBF58A;}
	.st114{fill:#C67F20;}
	.st115{fill:#AB6B1C;}
	.st116{fill:#C98020;}
	.st117{fill:#D99A41;}
	.st118{fill:#DBA35B;}
	.st119{fill:#9B5F1B;}
	.st120{fill:#97CF6D;}
	.st121{fill:#5380B1;}
	.st122{fill:#96D16A;}
	.st123{fill:#92BD50;}
	.st124{fill:#7EB058;}
	.st125{fill:#709A50;}
	.st126{fill:#5A8A4A;}
	.st127{fill:#D9D9D9;}
	.st128{fill:#75A3CD;}
	.st129{fill:#6E974F;}
	.st130{fill:#CA6D7D;}
	.st131{fill:#AB6576;}
	.st132{fill:#93422D;}
	.st133{fill:#A44B2D;}
	.st134{fill:#BC6850;}
	.st135{fill:#DFB52B;}
	.st136{fill:#4C3A3C;}
	.st137{fill:#473538;}
	.st138{fill:#382B2E;}
	.st139{fill:none;stroke:#FFFFFF;stroke-width:8;stroke-linecap:round;stroke-miterlimit:10;}
	.st140{fill:#90C0E8;}
	.st141{fill:none;stroke:#E09122;stroke-width:12;stroke-linecap:round;stroke-miterlimit:10;}
	.st142{fill:#DCAE2B;}
	.st143{fill:#F0D05A;}
	.st144{fill:#729E51;}
	.st145{fill:#E4BA36;}
	.st146{fill:#F8F283;}
	.st147{fill:#E4B6A9;}
	.st148{fill:#D78E30;}
	.st149{fill:#598A49;}
	.st150{fill:#B65339;}
	.st151{fill:#BA751F;}
	.st152{fill:#466A9F;}
	.st153{fill:#8BB34D;}
	.st154{fill:#9BCE54;}
	.st155{fill:#7F9F49;}
	.st156{fill:#D37F6D;}
	.st157{fill:#BB5E44;}
	.st158{fill:#93BB55;}
	.st159{fill:#B3E665;}
	.st160{fill:none;stroke:#4C393C;stroke-width:8;stroke-miterlimit:10;}
	.st161{fill:#97432D;}
	.st162{fill:#DAB12A;}
	.st163{fill:#5E914C;}
	.st164{fill:#5381B3;}
	.st165{fill:#6A8F4C;}
	.st166{fill:#628047;}
	.st167{fill:#E29D37;}
	.st168{fill:#6E555B;}
	.st169{fill:#91CA67;}
	.st170{fill:#476BA1;}
	.st171{fill:#6699D9;}
	.st172{fill:#503C3E;}
	.st173{fill:#413235;}
	.st174{fill:#CC916A;}
	.st175{fill:#BA8363;}
	.st176{fill:#D09571;}
	.st177{fill:#C98F68;}
	.st178{fill:#AA3B4D;}
	.st179{fill:#DA6075;}
	.st180{fill:#92452D;}
	.st181{fill:#A24B2D;}
	.st182{fill:#B76252;}
	.st183{fill:#87BD60;}
	.st184{fill:#78A7D2;}
	.st185{fill:#F9F38F;}
	.st186{fill:#E0D650;}
	.st187{fill:#AFE086;}
	.st188{fill:#9FD476;}
	.st189{fill:#9DD176;}
	.st190{fill:#8FC468;}
	.st191{fill:#7EAE58;}
	.st192{fill:#6F9850;}
	.st193{fill:#59884A;}
	.st194{fill:#638347;}
	.st195{fill:#B95135;}
	.st196{fill:#E5AB62;}
	.st197{fill:#733228;}
	.st198{fill:#803728;}
	.st199{fill:#6D974D;}
	.st200{fill:#99CD75;}
	.st201{fill:#93412C;}
	.st202{fill:#93C2EA;}
	.st203{fill:#CD926B;}
	.st204{fill:#E6AF8A;}
	.st205{fill:#E5DB4E;}
	.st206{fill:#FBF375;}
	.st207{fill:#779E54;}
	.st208{fill:#D3966D;}
	.st209{fill:#DA4355;}
	.st210{fill:#A83B4D;}
	.st211{fill:none;stroke:#594144;stroke-width:8;stroke-linecap:round;stroke-miterlimit:10;}
	.st212{fill:#E5A855;}
	.st213{fill:#EAC291;}
	.st214{fill:#96C252;}
	.st215{fill:#695055;}
	.st216{fill:#DC9C42;}
	.st217{fill:#8E5C1B;}
	.st218{fill:#F4EB6A;}
	.st219{fill:#CBC049;}
	.st220{fill:none;stroke:#B8E876;stroke-width:15;stroke-linecap:round;stroke-miterlimit:10;}
	.st221{fill:#A36A1C;}
	.st222{fill:#ECC94A;}
	.st223{fill:#91BEDA;}
	.st224{fill:#3D2F32;}
	.st225{fill:#A6394C;}
	.st226{fill:#33292B;}
	.st227{fill:#4F3D42;}
	.st228{fill:#638147;}
	.st229{fill:#CD8321;}
	.st230{fill:#D3CA4A;}
	.st231{fill:#E2A550;}
	.st232{fill:#B75135;}
	.st233{fill:#D4CD77;}
	.st234{fill:#F3EC80;}
	.st235{fill:#46383B;}
	.st236{fill:#82AA61;}
	.st237{fill:#8EBF69;}
	.st238{fill:#3C2E31;}
	.st239{fill:#C49F27;}
	.st240{fill:#D2BF7C;}
	.st241{fill:#F6E18D;}
	.st242{fill:#D6D6D6;}
	.st243{fill:#B5D7F2;}
	.st244{fill:#F1D467;}
	.st245{fill:#739FBD;}
	.st246{fill:#D0946C;}
	.st247{fill:#BE8767;}
	.st248{fill:#D0A829;}
	.st249{fill:#F6DF86;}
	.st250{fill:#EABA8D;}
	.st251{fill:#F0D1B8;}
	.st252{fill:#A5D0F1;}
	.st253{fill:#E3A13F;}
	.st254{fill:#F0FAFF;}
	.st255{fill:#B4D3E3;}
	.st256{fill:#80A5C3;}
	.st257{fill:#87AFD5;}
	.st258{fill:#B1D1E7;}
	.st259{fill:#AED66F;}
	.st260{fill:#91AA61;}
	.st261{fill:#A8384B;}
	.st262{fill:#CD8120;}
	.st263{fill:#E6AD56;}
	.st264{fill:none;stroke:#E6AD56;stroke-width:8;stroke-linecap:round;stroke-miterlimit:10;}
	.st265{fill:#9EBD68;}
	.st266{fill:#AAD16E;}
	.st267{fill:#86656B;}
	.st268{fill:#6D954D;}
	.st269{fill:#98CB75;}
	.st270{fill:#75A251;}
	.st271{fill:#91BD4F;}
	.st272{fill:none;stroke:#B8E078;stroke-width:8;stroke-linecap:round;stroke-miterlimit:10;}
	.st273{fill:none;stroke:#B8E078;stroke-width:8;stroke-linecap:round;stroke-linejoin:round;stroke-miterlimit:10;}
	.st274{fill:#8FBA4E;}
	.st275{fill:#B3E860;}
	.st276{fill:#E7A748;}
	.st277{fill:none;stroke:#B6E676;stroke-width:15;stroke-linecap:round;stroke-miterlimit:10;}
	.st278{fill:#639B53;}
	.st279{fill:#476B9F;}
	.st280{fill:#82B1DE;}
	.st281{fill:#A6533F;}
	.st282{fill:#C28A69;}
	.st283{fill:#64494E;}
	.st284{fill:#77565C;}
	.st285{fill:#4F3C40;}
	.st286{fill:#ECCCB1;}
	.st287{fill:#BF6F5C;}
	.st288{fill:none;stroke:#D4F1A7;stroke-width:10;stroke-linecap:round;stroke-miterlimit:10;}
	.st289{fill:none;stroke:#B8E876;stroke-width:10;stroke-linecap:round;stroke-miterlimit:10;}
	.st290{fill:#47688F;}
	.st291{fill:#3F5B78;}
	.st292{fill:#354E6C;}
	.st293{fill:#DAB12B;}
	.st294{fill:#C8A028;}
	.st295{fill:#F0D15C;}
	.st296{fill:#F8F28B;}
	.st297{fill:#F7F18D;}
	.st298{fill:#DED450;}
	.st299{fill:#F9F155;}
	.st300{fill:#A2CFF4;}
	.st301{fill:none;stroke:#594144;stroke-width:10;stroke-linecap:round;stroke-miterlimit:10;}
	.st302{fill:#F5F0AB;}
	.st303{fill:#496DA1;}
	.st304{fill:#5A85C7;}
	.st305{fill:#D7D7D7;}
	.st306{fill:#ADD3E6;}
	.st307{fill:#98B8C3;}
	.st308{fill:#CDCECF;}
	.st309{fill:#BF4F69;}
	.st310{fill:#A83448;}
	.st311{fill:#A4DAF7;}
	.st312{fill:#81A861;}
	.st313{fill:#82A549;}
	.st314{fill:#B6E676;}
	.st315{fill:#8CBD69;}
	.st316{fill:#ECC62F;}
	.st317{fill:#F4EA80;}
	.st318{fill:#D6AD2B;}
	.st319{fill:#6F9151;}
	.st320{fill:#46699C;}
	.st321{fill:#4A373A;}
	.st322{fill:#89B04C;}
	.st323{fill:#99CC53;}
	.st324{fill:#B1E465;}
	.st325{fill:#E19E3B;}
	.st326{fill:#C05970;}
	.st327{fill:#D95F74;}
	.st328{fill:#74A8DE;}
	.st329{fill:#C47C1E;}
	.st330{fill:#719A51;}
	.st331{fill:#A8D95E;}
	.st332{fill:#D46C53;}
	.st333{fill:#A45340;}
	.st334{fill:#B6594A;}
	.st335{fill:#79A554;}
	.st336{fill:#B6DAF7;}
	.st337{fill:#739F51;}
	.st338{fill:#DDB32B;}
	.st339{fill:#DE8F22;}
	.st340{fill:none;stroke:#46383B;stroke-width:8;stroke-linecap:round;stroke-miterlimit:10;}
	.st341{fill:none;stroke:#3B2F32;stroke-width:8;stroke-linecap:round;stroke-miterlimit:10;}
	.st342{fill:#C8C8C8;}
	.st343{fill:#7F9D49;}
	.st344{fill:#BA5E44;}
	.st345{fill:#92B955;}
	.st346{fill:#D17F6D;}
	.st347{fill:#5D8F4C;}
	.st348{fill:#B75334;}
	.st349{fill:#CA6D57;}
	.st350{fill:#A4574D;}
	.st351{fill:#7FB1E6;}
	.st352{fill:#77A3CD;}
	.st353{fill:#90BA4F;}
	.st354{fill:#5C8F4B;}
	.st355{fill:#ACDE5D;}
	.st356{fill:#6FAC5A;}
	.st357{fill:none;stroke:#9DD055;stroke-width:10;stroke-linecap:round;stroke-miterlimit:10;}
	.st358{fill:#AD5643;}
	.st359{fill:#B96052;}
	.st360{fill:#CB8D84;}
	.st361{fill:#CC6C56;}
	.st362{fill:#DE9A8E;}
	.st363{fill:#D37B6A;}
	.st364{fill:#A87758;}
	.st365{fill:#372A2C;}
	.st366{fill:#B8815C;}
	.st367{fill:#433335;}
	.st368{fill:#2C2325;}
	.st369{fill:#95402B;}
	.st370{fill:#A85441;}
	.st371{fill:#D2C74B;}
	.st372{fill:#B25945;}
	.st373{fill:none;stroke:#594144;stroke-width:15;stroke-linecap:round;stroke-miterlimit:10;}
	.st374{fill:none;stroke:#594144;stroke-width:12;stroke-linecap:round;stroke-miterlimit:10;}
	.st375{fill:#8F473B;}
	.st376{fill:#453538;}
	.st377{fill:#517DAB;}
	.st378{fill:#75A050;}
	.st379{fill:#A5384D;}
	.st380{fill:#CC6075;}
	.st381{fill:#F26B7F;}
	.st382{fill:#C67189;}
	.st383{fill:#B26980;}
	.st384{fill:#D87990;}
	.st385{fill:#F2869B;}
	.st386{fill:#EF8499;}
	.st387{fill:#649CD7;}
	.st388{fill:#639CDB;}
	.st389{fill:#C8ED8D;}
	.st390{fill:#A9DB83;}
	.st391{fill:#9BCF76;}
	.st392{fill:#7EAC58;}
	.st393{fill:#8CC463;}
	.st394{fill:#7FAC5B;}
	.st395{fill:#769C55;}
	.st396{fill:#6A894D;}
	.st397{fill:#769B56;}
	.st398{fill:#9BCC75;}
	.st399{fill:#AF5641;}
	.st400{fill:#F4D576;}
	.st401{fill:#76A055;}
	.st402{fill:#628347;}
	.st403{fill:#4F7B9F;}
	.st404{fill:#466D86;}
	.st405{fill:#4D789C;}
</style>
<g id="BULINE">
	<circle id="XMLID_825_" class="st10" cx="256" cy="256" r="256"/>
</g>
<g id="Icons">
	<g id="XMLID_5664_">
		<g id="XMLID_3960_">
			<path id="XMLID_3977_" class="st388" d="M430.2,79.7c-1.3-0.8-2.7-1.4-4.2-1.8c-1.2-0.4-2.5-0.6-3.8-0.7c-0.4,0-0.9-0.1-1.3-0.1
				c-0.1,0-0.2,0-0.4,0c-2.3,0-4.5,0.4-6.5,1.2c-0.3-1.7-0.8-3.4-1.4-5c-1-2.6-2.4-5.1-4.1-7.2c-3.7-4.8-9-8.2-15.1-9.8
				c-2.1-0.5-4.4-0.8-6.7-0.8h-0.2c-0.8-6-4.3-11-9.3-13.9c-2.8-1.6-6-2.5-9.4-2.5c-1.2,0-2.3,0.1-3.4,0.3c-0.2-3.4-1.5-6.6-3.6-9.1
				c-2.8-3.3-7-5.4-11.7-5.4c-6.5,0-12.1,4.1-14.3,9.8c-0.6,1.6-1,3.3-1,5.2c-0.2-0.2-0.4-0.4-0.6-0.6c-3.1-3.2-7.3-5.2-12.1-5.2
				c-4.1,0-7.8,1.5-10.8,3.9c-3.7,3.1-6.1,7.7-6.1,12.9c0,0.2,0,0.4,0,0.6c-1-0.4-2-0.7-3.1-0.8c-0.6-0.1-1.2-0.1-1.9-0.1
				c-5.9,0-10.8,3.8-12.5,9.1c-12,0.1-22.2,7.9-25.9,18.7c-1,2.8-1.5,5.8-1.5,8.9c0,3.5,0.7,6.8,1.8,9.9c4,10.4,14,17.7,25.8,17.7
				h133.2c0.4,0,0.8,0,1.2-0.1h0c0.1,0,0.3,0,0.4,0c3.1-0.3,5.9-1.3,8.4-2.8c1.7-1,3.2-2.4,4.4-3.9c0.2-0.3,0.5-0.6,0.7-0.9
				c0.3-0.4,0.6-0.9,0.9-1.4c0.8-1.3,1.4-2.7,1.9-4.1c0.6-1.8,0.9-3.7,0.9-5.7C439.4,89,435.7,83,430.2,79.7z M359.7,90
				c0.1-0.1,0.2-0.2,0.4-0.3c0,0.1,0.1,0.2,0.1,0.3H359.7z"/>
			<path id="XMLID_3973_" class="st388" d="M203.5,182.5c-1.3-4.9-4.4-9-8.6-11.5c-2.3-1.4-5-2.3-7.9-2.6c0,0-0.1,0-0.1,0
				c-0.6-0.1-1.1-0.1-1.7-0.1c-1.6,0-3.1,0.2-4.5,0.6c-0.7,0.2-1.3,0.4-2,0.6c-0.3-1.7-0.8-3.4-1.4-5c-0.3-0.9-0.7-1.8-1.2-2.6
				c0,0,0,0,0,0c-0.7-1.4-1.5-2.7-2.4-4c0,0,0,0,0,0c0,0,0,0,0,0c0,0,0,0,0,0c-3.8-5-9.2-8.8-15.5-10.3c-1.5-0.4-3-0.6-4.5-0.7
				c-0.7-0.1-1.4-0.1-2.1-0.1h-0.2c-0.8-6-4.3-11-9.3-13.9l-0.4-0.2h0c-2.7-1.5-5.7-2.3-8.9-2.3c-1.2,0-2.3,0.1-3.4,0.3
				c-0.2-3.5-1.5-6.6-3.6-9.1c-2.8-3.3-7-5.4-11.7-5.4c-4.4,0-8.3,1.9-11.1,4.8c-1.4,1.5-2.4,3.1-3.2,5c-0.6,1.6-1,3.4-1,5.2
				c-0.2-0.2-0.4-0.4-0.6-0.6c-3.1-3.2-7.3-5.2-12.1-5.2c-4.1,0-7.8,1.4-10.8,3.9c-3.7,3.1-6.1,7.7-6.1,13c0,0.2,0,0.4,0,0.6
				c-1.5-0.6-3.2-1-4.9-1c-5.8,0-10.8,3.8-12.5,9.1c-15.1,0.1-27.4,12.4-27.4,27.6c0,3.5,0.6,6.8,1.8,9.9c4,10.3,14,17.7,25.7,17.7
				h133.3c0.6,0,1.1,0,1.7-0.1c6-0.5,11.2-3.8,14.2-8.6c0.1-0.1,0.1-0.2,0.2-0.3c0.1-0.2,0.2-0.4,0.4-0.6c1.6-2.7,2.4-5.9,2.4-9.3
				C204.1,185.6,203.9,184,203.5,182.5z M124.7,181c0,0.1,0.1,0.2,0.1,0.4h-0.4C124.4,181.2,124.5,181.1,124.7,181z"/>
			<path id="XMLID_3972_" class="st297" d="M113.1,142.9c0,12.7-19.5,28.4-15.8,39.9c3.9,11.9,29,13.1,36.2,23
				c7.3,10,0.7,34.2,10.7,41.5c9.9,7.2,30.9-6.5,42.8-2.7c11.5,3.7,20.3,27.3,33.1,27.3c12.7,0,21.6-23.6,33.1-27.3
				c11.9-3.9,32.9,9.9,42.8,2.7c10-7.3,3.4-31.5,10.7-41.5c7.2-9.9,32.3-11.1,36.2-23c3.7-11.5-15.8-27.1-15.8-39.9
				c0-12.7,19.5-28.4,15.8-39.9c-3.9-11.9-29-13.1-36.2-23c-7.3-10-0.7-34.2-10.7-41.5c-9.9-7.2-30.9,6.5-42.8,2.7
				c-11.5-3.7-20.3-27.3-33.1-27.3c-12.7,0-21.6,23.6-33.1,27.3c-11.9,3.9-32.9-9.9-42.8-2.7c-10,7.3-3.4,31.5-10.7,41.5
				c-7.2,9.9-32.3,11.1-36.2,23C93.6,114.6,113.1,130.2,113.1,142.9z"/>
			<path id="XMLID_3971_" class="st298" d="M299.6,146.5c0,36.4-24.5,67.2-57.9,76.6c-6.9,2-14.2,3-21.8,3
				c-44,0-79.6-35.7-79.6-79.6c0-44,35.7-79.6,79.6-79.6c7.6,0,14.8,1,21.8,3C275.2,79.3,299.6,110,299.6,146.5z"/>
			<path id="XMLID_3970_" class="st299" d="M299.6,146.5c0,36.4-24.5,67.2-57.9,76.6c-33.4-9.5-57.9-40.2-57.9-76.6
				c0-36.4,24.5-67.2,57.9-76.6C275.2,79.3,299.6,110,299.6,146.5z"/>
			<path id="XMLID_4596_" class="st389" d="M512,256c0,2.9-0.1,5.9-0.1,8.8c-0.2,5.8-0.6,11.6-1.2,17.3c-0.6,6.5-1.5,12.9-2.7,19.3
				c-0.3,1.9-0.7,3.8-1.1,5.8l-71.7,2.3h0l-5.1,0.2l-7.8,0.2l-1.4-1.2l-5.4-4.7l-3.2-2.8l-0.1-0.1l-1.1-1l-8.3-7.2c0,0,0,0,0,0
				l-2.3-2l-1.3-1.1l-5.1-4.4l-11.1-9.7L359.3,255l-11-4.3l-8.8-3.5l-4.8-1.9l-22.1-8.7c0,0-0.1,0-0.1,0l-8.6-3.4l-2-0.8l-42.5-16.7
				h0l-16-6.3c3.3-4.1,6.7-8.1,10.3-11.9c2.6-2.8,5.3-5.5,8-8.1c11.2-10.7,23.5-20.2,36.6-28.6h0c9.3-6,18.9-11.4,28.7-16.3
				c14.3-7.2,29-13.3,43.6-18.5c4.9-1.7,9.7-3.4,14.5-4.9c3.7-1.2,7.3-2.3,11-3.4c3.6-1.1,7.2-2.1,10.8-3c6.1-1.6,12.2-3.2,18.1-4.5
				c1.3-0.3,2.6-0.6,3.9-0.9c2.1-0.5,4.1-0.9,6.2-1.4c0.4-0.1,0.9-0.2,1.3-0.3c2.1-0.4,4.1-0.9,6.2-1.3c0.9-0.2,1.9-0.4,2.8-0.6
				c5.5-1.1,10.8-2,16-2.9c9.5,12.8,17.9,26.4,24.9,40.9C502.7,177.8,512,215.8,512,256z"/>
			<path id="XMLID_4083_" class="st3" d="M512,256c0,2.9-0.1,5.9-0.1,8.8c-0.2,5.8-0.6,11.6-1.2,17.3c-0.6,6.5-1.5,12.9-2.7,19.3
				c-0.3,1.9-0.7,3.8-1.1,5.8l-71.7,2.3h0l-5.1,0.2l-3.4-3l-5.5-4.8l-4.2-3.7l-2.8-2.4l-3.2-2.8h0l-0.6-0.5l-1.4-1.2l-5-1.9
				l-3.5-1.4l-6.4-2.5l-21.6-8.5l-24.3-9.5l-8.8-3.5l-13.2-5.2l-29.9-11.7l-3.3-1.3c2.7-3.3,5.4-6.6,8.3-9.7l0,0
				c0.6-0.7,1.2-1.3,1.8-2c0.2-0.2,0.5-0.5,0.7-0.7c8.8-9.3,18.4-17.7,28.6-25.4c0.3-0.2,0.5-0.4,0.8-0.6c2-1.5,4.1-3,6.2-4.5
				c5-3.5,10.2-6.9,15.5-10c1.9-1.1,3.8-2.3,5.7-3.4c3.9-2.3,7.9-4.5,12-6.6c4.6-2.4,9.2-4.6,13.9-6.8c7-3.2,14-6.2,21-9
				c4-1.6,7.9-3.1,11.9-4.5c2-0.7,4-1.4,6-2.1c4.9-1.7,9.7-3.2,14.6-4.7c0,0,0,0,0,0c0,0,0,0,0,0c0.8-0.2,1.5-0.5,2.3-0.7
				c5.8-1.7,11.5-3.4,17.2-4.8l1.5-0.4c8.6-2.2,17.1-4.2,25.2-5.9C502.7,177.8,512,215.8,512,256z"/>
			<path id="XMLID_4677_" class="st390" d="M511.9,264.8c-0.2,5.8-0.6,11.6-1.2,17.3c-0.6,6.5-1.5,12.9-2.7,19.3
				c-0.3,1.9-0.7,3.8-1.1,5.8c-7.6,37.5-23.4,72-45.4,101.6c-6.9,9.3-14.4,18.1-22.5,26.4c-21.4,21.9-46.8,40-74.9,53.1
				c-28,13.1-58.7,21.2-91.1,23.3c-5.6,0.4-11.2,0.6-16.9,0.6c-10.2,0-20.4-0.6-30.3-1.8c-21-2.5-41.3-7.5-60.4-14.8
				c-16.9-6.4-32.9-14.5-47.8-24.2c-39.3-25.4-71.2-61.2-91.8-103.6c-10.4-21.5-18-44.7-22.1-69C1.9,289,0.8,279,0.3,269
				c-0.2-4.3-0.3-8.6-0.3-13c0-7.7,0.3-15.3,1-22.8c12-8,29-18,50.8-27c15-6.2,32.1-12,51.4-16.4h0c8-1.8,16.3-3.4,25-4.7
				c6.7-1,13.7-1.8,20.8-2.4c1.1-0.1,2.1-0.2,3.2-0.2c5.2-0.4,10.5-0.7,15.8-0.8c2-0.1,4.1-0.1,6.1-0.1c5-0.1,10,0,15.1,0.2
				c0.9,0,1.9,0.1,2.8,0.1h0c3.7,0.1,7.5,0.4,11.3,0.6c10.1,0.7,20.4,1.9,31.1,3.6c0,0,10.4,0.6,27.2,3.4c6.5,1.1,14,2.5,22.2,4.4
				c0,0,0,0,0,0c4.8,1.1,9.9,2.3,15.2,3.7c4.1,1.1,8.4,2.3,12.7,3.6h0c6.6,2,13.5,4.2,20.5,6.7c0.6,0.2,1.1,0.4,1.7,0.6h0
				c1.8,0.6,3.5,1.3,5.3,2c0.9,0.3,1.9,0.7,2.9,1.1c3.9,1.5,7.8,3.1,11.7,4.8c1.9,0.8,3.8,1.6,5.6,2.5c3.4,1.5,6.8,3.1,10.2,4.8
				c4.1,2,8.2,4.1,12.4,6.3c0,0,0.1,0,0.1,0.1c6,3.2,12.1,6.7,18.1,10.4c0.7,0.4,1.3,0.8,2,1.2c2.7,1.7,5.3,3.4,7.9,5.1
				c0.7,0.4,1.3,0.9,2,1.3c3.1,2.1,6.3,4.1,9.6,5.9c0.1,0.1,0.2,0.1,0.4,0.2c6.3,3.4,12.8,6.3,19.6,8.5c1.2,0.4,2.4,0.8,3.6,1.1
				c4.7,1.3,10,2.6,15.6,3.6c1.8,0.3,3.7,0.6,5.6,0.9h0c0.1,0,0.2,0,0.3,0.1c8.6,1.1,17.9,1.5,27.2,0.5h0
				C500.2,268,506.1,266.8,511.9,264.8z"/>
			<path id="XMLID_4623_" class="st391" d="M508,301.3c-0.3,1.9-0.7,3.8-1.1,5.8c-7.6,37.5-23.4,72-45.4,101.6
				c-6.9,9.3-14.4,18.1-22.5,26.4c-21.4,21.9-46.8,40-74.9,53.1c-28,13.1-58.7,21.2-91.1,23.3c-5.6,0.4-11.2,0.6-16.9,0.6
				c-10.2,0-20.4-0.6-30.3-1.8c-21-2.5-41.3-7.5-60.4-14.8c-16.9-6.4-32.9-14.5-47.8-24.2c-39.3-25.4-71.2-61.2-91.8-103.6
				c-10.4-21.5-18-44.7-22.1-69C1.9,289,0.8,279,0.3,269c18.8-12.7,50.6-30.5,93.9-41.6c10.5-2.7,21.6-5,33.4-6.8
				c3.2-0.5,6.3-0.9,9.6-1.3h0c2.7-0.3,5.4-0.6,8.1-0.9c11.9-1.1,24.4-1.7,37.5-1.5c0.3,0,0.7,0,1,0c2,0,4.1,0.1,6.1,0.2
				c8.7,0.3,17.7,0.9,26.8,1.9c0.7,0.1,1.5,0.1,2.2,0.2c5.1,0.6,10.2,1.3,15.4,2.1c0,0,0.9,0.1,2.5,0.2c0,0,0,0,0,0h0
				c1.7,0.1,4.1,0.4,7.2,0.7h0c0,0,0,0,0,0c11.5,1.3,32.1,4.4,57.4,11.2c0.5,0.1,1,0.3,1.5,0.4c3,0.8,6.1,1.7,9.3,2.7
				c0,0,0.1,0,0.1,0c7.5,2.2,15.3,4.8,23.3,7.8c1.2,0.4,2.4,0.9,3.6,1.4c3,1.1,6.1,2.3,9.1,3.6c16.2,6.6,33.1,14.8,49.6,24.9
				c0.8,0.5,1.5,0.9,2.3,1.4c3.3,2,6.6,4.1,9.9,6.4c0.7,0.4,1.3,0.9,2,1.3c1.6,1.1,3.3,2.2,5,3.2c1.4,0.9,2.8,1.7,4.2,2.5h0
				c0.2,0.1,0.4,0.2,0.7,0.4c1.1,0.6,2.3,1.2,3.4,1.8h0c5.3,2.7,10.8,5,16.5,6.8c1.1,0.3,2.2,0.7,3.3,1
				C462.3,303.8,485.9,307.7,508,301.3z"/>
			<path id="XMLID_4589_" class="st3" d="M510.7,282c-0.6,6.5-1.5,12.9-2.7,19.3c-0.3,1.9-0.7,3.8-1.1,5.8
				c-7.6,37.5-23.4,72-45.4,101.6c-6.9,9.3-14.4,18.1-22.5,26.4c-21.4,21.9-46.8,40-74.9,53.1c-28,13.1-58.7,21.2-91.1,23.3
				c-5.6,0.4-11.2,0.6-16.9,0.6c-10.2,0-20.4-0.6-30.3-1.8c-21-2.5-41.3-7.5-60.4-14.8c-16.9-6.4-32.9-14.5-47.8-24.2
				c-39.3-25.4-71.2-61.2-91.8-103.6c-10.4-21.5-18-44.7-22.1-69c13.5-15,45.5-42.8,104.6-51.8c0.9-0.1,1.7-0.3,2.6-0.4
				c7.5-1.1,15.4-1.8,23.7-2.2c2.2-0.1,4.5-0.2,6.8-0.2h0c1.6,0,3.3-0.1,4.9-0.1c5.7,0,11.5,0.1,17.6,0.4c3.2,0.2,6.4,0.4,9.8,0.6h0
				c0.5,0,1.1,0.1,1.6,0.1h0c4.2,0.4,8.4,0.8,12.8,1.3c1.1,0.1,2.2,0.3,3.2,0.4h0c7.6,1,15.5,2.3,23.7,3.8c0.6,0.1,1.3,0.3,2,0.4
				c0.3,0.1,0.7,0.1,1,0.2c7.1,1.4,14.4,3,21.9,4.9c6.7,1.7,13.6,3.6,20.7,5.6c0,0,7.1,2.5,18,5.7c2.2,0.6,4.5,1.3,7,2
				c13.7,3.7,27.7,6.2,41.8,7.5c4,0.4,8.1,0.6,12.2,0.8c0.4,0,0.8,0,1.2,0h0c10.6,0.4,21.3,0,31.9-1c2.1-0.2,4.1-0.4,6.1-0.7
				c1.4-0.2,2.9-0.3,4.3-0.5c4.7-0.5,9.8-1,15.2-1.5c0.8-0.1,1.5-0.1,2.3-0.2c3.2-0.2,6.5-0.5,9.9-0.6c3.9-0.2,7.8-0.4,11.9-0.5
				c4.8-0.1,9.6-0.2,14.6-0.1c1,0,2,0,2.9,0c7.1,0.1,14.3,0.4,21.6,1c0,0,0,0,0,0c0.1,0,0.1,0,0.2,0c0.5,0,1,0.1,1.5,0.1
				c11.8,1,23.9,2.6,35.6,5.2C502.8,280,506.8,280.9,510.7,282z"/>
			<path id="XMLID_4055_" class="st323" d="M461.5,408.6c-6.9,9.3-14.4,18.1-22.5,26.4c-21.4,21.9-46.8,40-74.9,53.1L282,501.2h0
				l-5.5,0.9l-50.7,8.1c-21-2.5-41.3-7.5-60.4-14.8c-16.9-6.4-32.9-14.5-47.8-24.2c-39.3-25.4-71.2-61.2-91.8-103.6
				c3.2-1.4,6.6-2.7,10.2-3.7c0,0,10.7-4.1,29.2-9.9c11.7-3.7,26.6-8,43.9-12.4c8.4-2.1,17.4-4.3,26.9-6.4
				c14.1-3.1,29.3-6.1,45.3-8.8c5.6-0.9,11.2-1.8,17-2.6c0.5-0.1,1.1-0.2,1.6-0.2c6.2-0.9,12.4-1.7,18.8-2.4
				c3.4-0.4,6.9-0.8,10.3-1.1h0c6.1-0.6,12.4-1.2,18.7-1.6c0.5,0,1.1-0.1,1.6-0.1c2.9-0.2,5.8-0.4,8.7-0.5
				c5.5-0.3,11.1-0.6,16.7-0.7c3.4-0.1,6.9-0.2,10.3-0.2c15-0.2,30.1,0.2,45.3,1.3c1.5,0.1,2.7,0.8,3.4,1.8c1.6,2.3,1.1,6-2.2,7.1
				l-41.9,14.1l-4.5,1.5l-9.1,3.1c-1.6,0.5-2.5,1.8-2.7,3.1c-0.4,2.2,1.1,4.8,4,4.8l5.1,0.1l15.3,0.2l37.8,0.4l11.2,0.1l36.7,0.4
				l19.4,0.2l1,0l8.5,0.1c7.8,0.1,15.1,3.9,19.6,10.3l4.6,6.6l19.3,27.5L461.5,408.6z"/>
			<path id="XMLID_4043_" class="st323" d="M416.7,428c7.5,2,15,4.3,22.3,7c-21.4,21.9-46.8,40-74.9,53.1
				c-28,13.1-58.7,21.2-91.1,23.3c-5.6,0.4-11.2,0.6-16.9,0.6c-10.2,0-20.4-0.6-30.3-1.8c-21-2.5-41.3-7.5-60.4-14.8
				c-16.9-6.4-32.9-14.5-47.8-24.2c11-4.7,23.1-9.6,36.2-14.4v0h0c6.1-2.3,12.4-4.5,18.9-6.7c32.8-11.2,70.1-21.3,108.8-26.9
				c4.2-0.6,8.4-1.1,12.6-1.6c0,0,0,0,0,0c1.9-0.2,3.7-0.4,5.6-0.6h0c0.1,0,0.3,0,0.5,0c4.6-0.5,9.1-0.9,13.7-1.2
				c1.2-0.1,2.4-0.2,3.5-0.2c5-0.3,10.1-0.5,15.1-0.6c2.5-0.1,5.1-0.1,7.6-0.1h0c18.6-0.1,37.2,1.3,55.5,4.5
				C402.5,424.6,409.6,426.2,416.7,428L416.7,428z"/>
			<path id="XMLID_4039_" class="st392" d="M298.8,465.6c-6.1,7.6-15.6,20.6-22.4,36.5c-1.3,3-2.5,6.1-3.5,9.3
				c-5.6,0.4-11.2,0.6-16.9,0.6c-10.2,0-20.4-0.6-30.3-1.8c-21-2.5-41.3-7.5-60.4-14.8c0.7-0.3,1.4-0.7,2.2-1
				c5.2-2.5,10.7-4.9,16.4-7.2c30.7-12.6,67.8-23.1,111.6-27.8C298.8,459.1,300.9,463,298.8,465.6z"/>
		</g>
		<g id="XMLID_4797_">
			<path id="XMLID_4235_" class="st74" d="M170.6,443.9h-8.9c-3.3,0-6-2.7-6-6v-90.5h20.9v90.5C176.6,441.2,173.9,443.9,170.6,443.9
				z"/>
			<path id="XMLID_5516_" class="st2" d="M176.6,347.5h-10.4v91.2c0,2.9,2.3,5.2,5.2,5.2l0,0c2.9,0,5.2-2.3,5.2-5.2V347.5z"/>
			<path id="XMLID_4796_" class="st393" d="M239.6,377c-2.6,1.1-5.5,1.8-8.6,1.8c-8.8,0-16.5-5.4-19.7-13c-0.6-1.5-2.8-1.5-3.5,0
				c-3.3,7.6-10.9,13-19.7,13s-16.5-5.4-19.7-13c-0.6-1.5-2.8-1.5-3.5,0c-3.3,7.6-10.9,13-19.7,13c-8.8,0-16.5-5.4-19.7-13
				c-0.3-0.7-1-1.1-1.7-1.1c-0.7,0-1.5,0.3-1.8,1.1c-3.3,7.6-10.9,13-19.7,13c-3.5,0-6.9-0.8-9.8-2.4c-10-5.1-12-18.6-4.4-26.8
				c4.2-4.5,8.2-9.1,12.1-13.6c23.6-27.3,42.5-54.6,56.7-81.9c1.4-2.7,3.7-4.4,6.2-5.2c4.7-1.5,10.2,0.4,12.7,5.4
				c13.5,27.2,32.3,54.4,56.5,81.6c4,4.5,8.1,9,12.4,13.5C253,357.9,250.5,372.2,239.6,377z"/>
			<path id="XMLID_4795_" class="st394" d="M163.2,248.9c-6.8,22.8-22.7,74.6-39.3,115.7c-0.7,0-1.5,0.3-1.8,1.1
				c-3.3,7.6-10.9,13-19.7,13c-3.5,0-6.9-0.8-9.8-2.4c-10-5.1-12-18.6-4.4-26.8c4.2-4.5,8.2-9.1,12.1-13.6
				c23.6-27.3,42.5-54.6,56.7-81.9C158.4,251.4,160.7,249.7,163.2,248.9z"/>
			<path id="XMLID_4782_" class="st395" d="M239.6,323.8c-2.6,1.1-5.5,1.8-8.6,1.8c-8.8,0-16.5-5.4-19.7-13c-0.6-1.5-2.8-1.5-3.5,0
				c-3.3,7.6-10.9,13-19.7,13s-16.5-5.4-19.7-13c-0.6-1.5-2.8-1.5-3.5,0c-3.3,7.6-10.9,13-19.7,13c-8.8,0-16.5-5.4-19.7-13
				c-0.3-0.7-1-1.1-1.7-1.1c-0.7,0-1.5,0.3-1.8,1.1c-3.3,7.6-10.9,13-19.7,13c-3.5,0-6.9-0.8-9.8-2.4c-10-5.1-12-18.6-4.4-26.8
				c4.2-4.5,8.2-9.1,12.1-13.6c23.6-27.3,42.5-54.6,56.7-81.9c1.4-2.7,3.7-4.4,6.2-5.2c4.7-1.5,10.2,0.4,12.7,5.4
				c13.5,27.2,32.3,54.4,56.5,81.6c4,4.5,8.1,9,12.4,13.5C253,304.7,250.5,319,239.6,323.8z"/>
			<path id="XMLID_4780_" class="st396" d="M163.2,195.7c-6.8,22.8-22.7,74.6-39.3,115.7c-0.7,0-1.5,0.3-1.8,1.1
				c-3.3,7.6-10.9,13-19.7,13c-3.5,0-6.9-0.8-9.8-2.4c-10-5.1-12-18.6-4.4-26.8c4.2-4.5,8.2-9.1,12.1-13.6
				c23.6-27.3,42.5-54.6,56.7-81.9C158.4,198.2,160.7,196.5,163.2,195.7z"/>
			<path id="XMLID_4779_" class="st394" d="M223.6,259c-2.1,0.9-4.3,1.4-6.7,1.4c-6.9,0-12.8-4.2-15.4-10.1c-0.5-1.2-2.2-1.2-2.7,0
				c-2.6,6-8.5,10.1-15.4,10.1c-6.9,0-12.8-4.2-15.4-10.1c-0.5-1.2-2.2-1.2-2.7,0c-2.6,6-8.5,10.1-15.4,10.1s-12.8-4.2-15.4-10.1
				c-0.2-0.6-0.8-0.9-1.3-0.9c-0.6,0-1.1,0.3-1.4,0.9c-2.6,6-8.5,10.1-15.4,10.1c-2.8,0-5.3-0.7-7.6-1.8c-7.8-4-9.4-14.5-3.4-20.9
				c3.3-3.5,6.4-7.1,9.5-10.6c18.4-21.3,33.1-42.6,44.3-63.9c1.1-2.1,2.9-3.5,4.8-4c3.6-1.1,7.9,0.3,9.9,4.2
				c10.5,21.2,25.2,42.4,44.1,63.7c3.1,3.5,6.4,7,9.7,10.5C234,244.1,232.1,255.3,223.6,259z"/>
			<path id="XMLID_4778_" class="st397" d="M163.9,159c-5.3,17.8-17.7,58.2-30.7,90.3c-0.6,0-1.1,0.3-1.4,0.9
				c-2.6,6-8.5,10.1-15.4,10.1c-2.8,0-5.3-0.7-7.6-1.8c-7.8-4-9.4-14.5-3.4-20.9c3.3-3.5,6.4-7.1,9.5-10.6
				c18.4-21.3,33.1-42.6,44.3-63.9C160.2,161,162,159.6,163.9,159z"/>
			<path id="XMLID_5559_" class="st393" d="M214.7,208.4c-1.7,0.7-3.6,1.2-5.6,1.2c-5.8,0-10.8-3.5-13-8.6c-0.4-1-1.9-1-2.3,0
				c-2.2,5-7.2,8.6-13,8.6c-5.8,0-10.8-3.5-13-8.6c-0.4-1-1.9-1-2.3,0c-2.2,5-7.2,8.6-13,8.6c-5.8,0-10.8-3.5-13-8.6
				c-0.2-0.5-0.7-0.7-1.1-0.7c-0.5,0-1,0.2-1.2,0.7c-2.2,5-7.2,8.6-13,8.6c-2.3,0-4.5-0.6-6.4-1.6c-6.6-3.4-7.9-12.2-2.9-17.7
				c2.7-3,5.4-6,8-9c15.5-18,27.9-35.9,37.3-53.9c0.9-1.8,2.4-2.9,4.1-3.4c3.1-1,6.7,0.2,8.3,3.6c2.9,5.8,6.1,11.5,9.7,17.3
				c7.6,12.1,16.7,24.3,27.6,36.4c1.8,2,3.6,4,5.5,6c0.9,0.9,1.8,1.9,2.7,2.8C223.5,195.8,221.8,205.2,214.7,208.4z"/>
			<path id="XMLID_4798_" class="st394" d="M164.3,124.1c-4.5,15-14.9,49.1-25.9,76.2c-0.5,0-1,0.2-1.2,0.7c-2.2,5-7.2,8.6-13,8.6
				c-2.3,0-4.5-0.6-6.4-1.6c-6.6-3.4-7.9-12.2-2.9-17.7c2.7-3,5.4-6,8-9c15.5-18,27.9-35.9,37.3-53.9
				C161.2,125.7,162.7,124.6,164.3,124.1z"/>
			<path id="XMLID_5519_" class="st398" d="M215.4,187.4c-3.4,1.5-7.1,2.3-11,2.3c-15.4,0-27.8-12.5-27.8-27.8
				c0-6.4,2.1-12.2,5.7-16.9c7.6,12.1,16.7,24.3,27.6,36.4C211.7,183.3,213.5,185.3,215.4,187.4z"/>
		</g>
		<g id="XMLID_3845_">
			<path id="XMLID_3857_" class="st399" d="M405.7,343.5h-3.5c-3.3,0-6-2.7-6-6v-65.5h15.5v65.5C411.7,340.8,409,343.5,405.7,343.5z
				"/>
			<path id="XMLID_3856_" class="st59" d="M411.7,271.9H404v67.7c0,2.1,1.7,3.9,3.9,3.9l0,0c2.1,0,3.9-1.7,3.9-3.9V271.9z"/>
			<path id="XMLID_3855_" class="st393" d="M458.5,293.8c-1.9,0.8-4.1,1.3-6.3,1.3c-6.6,0-12.2-4-14.6-9.6c-0.5-1.1-2.1-1.1-2.6,0
				c-2.4,5.7-8.1,9.6-14.6,9.6s-12.2-4-14.6-9.6c-0.5-1.1-2.1-1.1-2.6,0c-2.4,5.7-8.1,9.6-14.6,9.6c-6.6,0-12.2-4-14.6-9.6
				c-0.2-0.5-0.7-0.8-1.2-0.8c-0.5,0-1.1,0.3-1.3,0.8c-2.4,5.7-8.1,9.6-14.6,9.6c-2.6,0-5.1-0.6-7.3-1.8c-7.4-3.8-8.9-13.8-3.3-19.9
				c3.1-3.4,6.1-6.7,9-10.1c17.5-20.2,31.5-40.5,42.1-60.7c1-2,2.7-3.3,4.6-3.8c3.5-1.1,7.5,0.3,9.4,4c10,20.2,24,40.3,41.9,60.5
				c3,3.3,6,6.7,9.2,10C468.4,279.7,466.6,290.3,458.5,293.8z"/>
			<path id="XMLID_3854_" class="st394" d="M401.8,198.8c-5,16.9-16.8,55.3-29.1,85.8c-0.5,0-1.1,0.3-1.3,0.8
				c-2.4,5.7-8.1,9.6-14.6,9.6c-2.6,0-5.1-0.6-7.3-1.8c-7.4-3.8-8.9-13.8-3.3-19.9c3.1-3.4,6.1-6.7,9-10.1
				c17.5-20.2,31.5-40.5,42.1-60.7C398.2,200.7,399.9,199.4,401.8,198.8z"/>
			<path id="XMLID_3853_" class="st395" d="M458.5,254.4c-1.9,0.8-4.1,1.3-6.3,1.3c-6.6,0-12.2-4-14.6-9.6c-0.5-1.1-2.1-1.1-2.6,0
				c-2.4,5.7-8.1,9.6-14.6,9.6s-12.2-4-14.6-9.6c-0.5-1.1-2.1-1.1-2.6,0c-2.4,5.7-8.1,9.6-14.6,9.6c-6.6,0-12.2-4-14.6-9.6
				c-0.2-0.5-0.7-0.8-1.2-0.8c-0.5,0-1.1,0.3-1.3,0.8c-2.4,5.7-8.1,9.6-14.6,9.6c-2.6,0-5.1-0.6-7.3-1.8c-7.4-3.8-8.9-13.8-3.3-19.9
				c3.1-3.4,6.1-6.7,9-10.1c17.5-20.2,31.5-40.5,42.1-60.7c1-2,2.7-3.3,4.6-3.8c3.5-1.1,7.5,0.3,9.4,4c10,20.2,24,40.3,41.9,60.5
				c3,3.3,6,6.7,9.2,10C468.4,240.2,466.6,250.9,458.5,254.4z"/>
			<path id="XMLID_3852_" class="st396" d="M401.8,159.4c-5,16.9-16.8,55.3-29.1,85.8c-0.5,0-1.1,0.3-1.3,0.8
				c-2.4,5.7-8.1,9.6-14.6,9.6c-2.6,0-5.1-0.6-7.3-1.8c-7.4-3.8-8.9-13.8-3.3-19.9c3.1-3.4,6.1-6.7,9-10.1
				c17.5-20.2,31.5-40.5,42.1-60.7C398.2,161.2,399.9,159.9,401.8,159.4z"/>
			<path id="XMLID_3851_" class="st394" d="M446.6,206.3c-1.5,0.7-3.2,1-5,1c-5.1,0-9.5-3.1-11.4-7.5c-0.4-0.9-1.6-0.9-2,0
				c-1.9,4.4-6.3,7.5-11.4,7.5s-9.5-3.1-11.4-7.5c-0.4-0.9-1.6-0.9-2,0c-1.9,4.4-6.3,7.5-11.4,7.5s-9.5-3.1-11.4-7.5
				c-0.2-0.4-0.6-0.6-1-0.6c-0.4,0-0.8,0.2-1,0.6c-1.9,4.4-6.3,7.5-11.4,7.5c-2,0-4-0.5-5.7-1.4c-5.8-3-7-10.8-2.6-15.5
				c2.4-2.6,4.8-5.3,7-7.9c13.6-15.8,24.6-31.6,32.8-47.4c0.8-1.6,2.1-2.6,3.6-3c2.7-0.8,5.9,0.2,7.3,3.1
				c7.8,15.7,18.7,31.5,32.7,47.2c2.3,2.6,4.7,5.2,7.2,7.8C454.3,195.3,452.9,203.6,446.6,206.3z"/>
			<path id="XMLID_3850_" class="st397" d="M402.3,132.2c-3.9,13.2-13.1,43.2-22.7,67c-0.4,0-0.8,0.2-1,0.6
				c-1.9,4.4-6.3,7.5-11.4,7.5c-2,0-4-0.5-5.7-1.4c-5.8-3-7-10.8-2.6-15.5c2.4-2.6,4.8-5.3,7-7.9c13.6-15.8,24.6-31.6,32.8-47.4
				C399.6,133.6,400.9,132.6,402.3,132.2z"/>
			<path id="XMLID_3849_" class="st393" d="M440,168.8c-1.3,0.6-2.7,0.9-4.2,0.9c-4.3,0-8-2.6-9.6-6.3c-0.3-0.7-1.4-0.7-1.7,0
				c-1.6,3.7-5.3,6.3-9.6,6.3c-4.3,0-8-2.6-9.6-6.3c-0.3-0.7-1.4-0.7-1.7,0c-1.6,3.7-5.3,6.3-9.6,6.3c-4.3,0-8-2.6-9.6-6.3
				c-0.2-0.4-0.5-0.5-0.8-0.5c-0.4,0-0.7,0.2-0.9,0.5c-1.6,3.7-5.3,6.3-9.6,6.3c-1.7,0-3.3-0.4-4.8-1.2c-4.9-2.5-5.9-9.1-2.2-13.1
				c2-2.2,4-4.4,5.9-6.6c11.5-13.3,20.7-26.6,27.7-40c0.7-1.3,1.8-2.2,3-2.5c2.3-0.7,5,0.2,6.2,2.6c2.1,4.3,4.5,8.5,7.2,12.8
				c5.6,9,12.4,18,20.4,27c1.3,1.5,2.7,3,4.1,4.5c0.7,0.7,1.3,1.4,2,2.1C446.5,159.5,445.3,166.4,440,168.8z"/>
			<path id="XMLID_3848_" class="st394" d="M402.6,106.2c-3.3,11.2-11.1,36.4-19.2,56.5c-0.4,0-0.7,0.2-0.9,0.5
				c-1.6,3.7-5.3,6.3-9.6,6.3c-1.7,0-3.3-0.4-4.8-1.2c-4.9-2.5-5.9-9.1-2.2-13.1c2-2.2,4-4.4,5.9-6.6c11.5-13.3,20.7-26.6,27.7-40
				C400.3,107.4,401.4,106.6,402.6,106.2z"/>
			<path id="XMLID_3846_" class="st398" d="M440.5,153.2c-2.5,1.1-5.3,1.7-8.2,1.7c-11.4,0-20.6-9.2-20.6-20.6
				c0-4.7,1.6-9.1,4.3-12.5c5.6,9,12.4,18,20.4,27C437.7,150.2,439.1,151.7,440.5,153.2z"/>
		</g>
		<g id="XMLID_5665_">
			<path id="XMLID_5681_" class="st399" d="M275.9,262.4L275.9,262.4c-1.9,0-3.4-1.5-3.4-3.4v-27.7h6.7v27.7
				C279.2,260.9,277.7,262.4,275.9,262.4z"/>
			<path id="XMLID_5680_" class="st59" d="M279.2,231.3h-3.4v29.4c0,0.9,0.8,1.7,1.7,1.7l0,0c0.9,0,1.7-0.8,1.7-1.7V231.3z"/>
			<path id="XMLID_5678_" class="st393" d="M299.5,240.8c-0.8,0.4-1.8,0.6-2.8,0.6c-2.9,0-5.3-1.7-6.4-4.2c-0.2-0.5-0.9-0.5-1.1,0
				c-1.1,2.5-3.5,4.2-6.4,4.2c-2.9,0-5.3-1.7-6.4-4.2c-0.2-0.5-0.9-0.5-1.1,0c-1.1,2.5-3.5,4.2-6.4,4.2c-2.9,0-5.3-1.7-6.4-4.2
				c-0.1-0.2-0.3-0.4-0.5-0.4c-0.2,0-0.5,0.1-0.6,0.4c-1.1,2.5-3.5,4.2-6.4,4.2c-1.1,0-2.2-0.3-3.2-0.8c-3.2-1.7-3.9-6-1.4-8.7
				c1.3-1.5,2.6-2.9,3.9-4.4c7.6-8.8,13.7-17.6,18.3-26.4c0.5-0.9,1.2-1.4,2-1.7c1.5-0.5,3.3,0.1,4.1,1.7
				c4.3,8.8,10.4,17.5,18.2,26.3c1.3,1.5,2.6,2.9,4,4.4C303.9,234.7,303.1,239.3,299.5,240.8z"/>
			<path id="XMLID_5673_" class="st394" d="M274.9,199.6c-2.2,7.4-7.3,24-12.7,37.3c-0.2,0-0.5,0.1-0.6,0.4
				c-1.1,2.5-3.5,4.2-6.4,4.2c-1.1,0-2.2-0.3-3.2-0.8c-3.2-1.7-3.9-6-1.4-8.7c1.3-1.5,2.6-2.9,3.9-4.4c7.6-8.8,13.7-17.6,18.3-26.4
				C273.4,200.4,274.1,199.8,274.9,199.6z"/>
			<path id="XMLID_5672_" class="st395" d="M299.5,223.7c-0.8,0.4-1.8,0.6-2.8,0.6c-2.9,0-5.3-1.7-6.4-4.2c-0.2-0.5-0.9-0.5-1.1,0
				c-1.1,2.5-3.5,4.2-6.4,4.2c-2.9,0-5.3-1.7-6.4-4.2c-0.2-0.5-0.9-0.5-1.1,0c-1.1,2.5-3.5,4.2-6.4,4.2c-2.9,0-5.3-1.7-6.4-4.2
				c-0.1-0.2-0.3-0.4-0.5-0.4c-0.2,0-0.5,0.1-0.6,0.4c-1.1,2.5-3.5,4.2-6.4,4.2c-1.1,0-2.2-0.3-3.2-0.8c-3.2-1.7-3.9-6-1.4-8.7
				c1.3-1.5,2.6-2.9,3.9-4.4c7.6-8.8,13.7-17.6,18.3-26.4c0.5-0.9,1.2-1.4,2-1.7c1.5-0.5,3.3,0.1,4.1,1.7
				c4.3,8.8,10.4,17.5,18.2,26.3c1.3,1.5,2.6,2.9,4,4.4C303.9,217.6,303.1,222.2,299.5,223.7z"/>
			<path id="XMLID_5671_" class="st396" d="M274.9,182.4c-2.2,7.4-7.3,24-12.7,37.3c-0.2,0-0.5,0.1-0.6,0.4
				c-1.1,2.5-3.5,4.2-6.4,4.2c-1.1,0-2.2-0.3-3.2-0.8c-3.2-1.7-3.9-6-1.4-8.7c1.3-1.5,2.6-2.9,3.9-4.4c7.6-8.8,13.7-17.6,18.3-26.4
				C273.4,183.2,274.1,182.6,274.9,182.4z"/>
			<path id="XMLID_5670_" class="st394" d="M294.4,202.8c-0.7,0.3-1.4,0.4-2.2,0.4c-2.2,0-4.1-1.3-5-3.3c-0.2-0.4-0.7-0.4-0.9,0
				c-0.8,1.9-2.7,3.3-5,3.3s-4.1-1.3-5-3.3c-0.2-0.4-0.7-0.4-0.9,0c-0.8,1.9-2.7,3.3-5,3.3s-4.1-1.3-5-3.3c-0.1-0.2-0.2-0.3-0.4-0.3
				c-0.2,0-0.4,0.1-0.5,0.3c-0.8,1.9-2.7,3.3-5,3.3c-0.9,0-1.7-0.2-2.5-0.6c-2.5-1.3-3-4.7-1.1-6.8c1-1.1,2.1-2.3,3-3.4
				c5.9-6.9,10.7-13.7,14.3-20.6c0.4-0.7,0.9-1.1,1.6-1.3c1.2-0.4,2.6,0.1,3.2,1.4c3.4,6.8,8.1,13.7,14.2,20.5c1,1.1,2,2.3,3.1,3.4
				C297.7,198,297.1,201.6,294.4,202.8z"/>
			<path id="XMLID_5669_" class="st397" d="M275.1,170.6c-1.7,5.7-5.7,18.8-9.9,29.1c-0.2,0-0.4,0.1-0.5,0.3c-0.8,1.9-2.7,3.3-5,3.3
				c-0.9,0-1.7-0.2-2.5-0.6c-2.5-1.3-3-4.7-1.1-6.8c1-1.1,2.1-2.3,3-3.4c5.9-6.9,10.7-13.7,14.3-20.6
				C273.9,171.2,274.5,170.8,275.1,170.6z"/>
			<path id="XMLID_5668_" class="st393" d="M291.5,186.5c-0.6,0.2-1.2,0.4-1.8,0.4c-1.9,0-3.5-1.1-4.2-2.8c-0.1-0.3-0.6-0.3-0.7,0
				c-0.7,1.6-2.3,2.8-4.2,2.8s-3.5-1.1-4.2-2.8c-0.1-0.3-0.6-0.3-0.7,0c-0.7,1.6-2.3,2.8-4.2,2.8s-3.5-1.1-4.2-2.8
				c-0.1-0.2-0.2-0.2-0.4-0.2c-0.2,0-0.3,0.1-0.4,0.2c-0.7,1.6-2.3,2.8-4.2,2.8c-0.7,0-1.5-0.2-2.1-0.5c-2.1-1.1-2.5-3.9-0.9-5.7
				c0.9-1,1.7-1.9,2.6-2.9c5-5.8,9-11.6,12-17.4c0.3-0.6,0.8-0.9,1.3-1.1c1-0.3,2.2,0.1,2.7,1.1c0.9,1.9,2,3.7,3.1,5.6
				c2.4,3.9,5.4,7.8,8.9,11.7c0.6,0.6,1.2,1.3,1.8,1.9c0.3,0.3,0.6,0.6,0.9,0.9C294.3,182.4,293.8,185.5,291.5,186.5z"/>
			<path id="XMLID_5667_" class="st394" d="M275.3,159.3c-1.4,4.8-4.8,15.8-8.3,24.6c-0.2,0-0.3,0.1-0.4,0.2
				c-0.7,1.6-2.3,2.8-4.2,2.8c-0.7,0-1.5-0.2-2.1-0.5c-2.1-1.1-2.5-3.9-0.9-5.7c0.9-1,1.7-1.9,2.6-2.9c5-5.8,9-11.6,12-17.4
				C274.3,159.8,274.7,159.5,275.3,159.3z"/>
			<path id="XMLID_5666_" class="st398" d="M291.7,179.7c-1.1,0.5-2.3,0.7-3.5,0.7c-5,0-9-4-9-9c0-2.1,0.7-3.9,1.8-5.5
				c2.4,3.9,5.4,7.8,8.9,11.7C290.5,178.4,291.1,179.1,291.7,179.7z"/>
		</g>
	</g>
</g>
</svg>
