<?xml version="1.0" encoding="utf-8"?>
<!-- Generator: Adobe Illustrator 22.0.1, SVG Export Plug-In . SVG Version: 6.00 Build 0)  -->
<svg version="1.1" xmlns="http://www.w3.org/2000/svg" xmlns:xlink="http://www.w3.org/1999/xlink" x="0px" y="0px"
	 viewBox="0 0 512 512" style="enable-background:new 0 0 512 512;" xml:space="preserve">
<style type="text/css">
	.st0{fill:#4B71B4;}
	.st1{fill:#80B4E8;}
	.st2{fill:#594144;}
	.st3{fill:#B8E876;}
	.st4{fill:#E09122;}
	.st5{fill:#FBF355;}
	.st6{fill:#EEC82F;}
	.st7{fill:#CEA628;}
	.st8{fill:#9BC9EF;}
	.st9{fill:#9DD055;}
	.st10{fill:#5686C5;}
	.st11{fill:#3B5880;}
	.st12{fill:#C2E5FB;}
	.st13{fill:#446697;}
	.st14{fill:#D1F1A0;}
	.st15{fill:#ABD170;}
	.st16{fill:#9DBD6A;}
	.st17{fill:#649D53;}
	.st18{fill:#72B35D;}
	.st19{fill:#ABD68D;}
	.st20{fill:#7FB358;}
	.st21{fill:#920C50;}
	.st22{fill:#C60053;}
	.st23{fill:#530730;}
	.st24{fill:#600332;}
	.st25{fill:#D5AC2A;}
	.st26{fill:#EFD776;}
	.st27{fill:#A7C76D;}
	.st28{fill:#A43749;}
	.st29{fill:#DC4355;}
	.st30{fill:#E18696;}
	.st31{fill:#77A255;}
	.st32{fill:#628547;}
	.st33{fill:#6E994D;}
	.st34{fill:none;stroke:#54743C;stroke-width:8;stroke-linecap:round;stroke-miterlimit:10;}
	.st35{fill:#9BCF75;}
	.st36{fill:#CA8F80;}
	.st37{fill:#E6B8AB;}
	.st38{fill:#E2A18B;}
	.st39{fill:#8E3F2B;}
	.st40{fill:#D89988;}
	.st41{fill:#CFCFCF;}
	.st42{fill:#A64B2D;}
	.st43{fill:#FFFFFF;}
	.st44{fill:#CA801F;}
	.st45{fill:#719C50;}
	.st46{fill:#85B7E5;}
	.st47{fill:#4F7BA9;}
	.st48{fill:#674C50;}
	.st49{fill:#BAD7ED;}
	.st50{fill:#63494D;}
	.st51{fill:#503D3F;}
	.st52{fill:#638547;}
	.st53{fill:#56713E;}
	.st54{fill:#BB5135;}
	.st55{fill:#93C4EC;}
	.st56{fill:#CA8121;}
	.st57{fill:#FDFCFC;}
	.st58{fill:#A83A4F;}
	.st59{fill:#BD5E44;}
	.st60{fill:#688C4A;}
	.st61{fill:#7DA55A;}
	.st62{fill:#90BA51;}
	.st63{fill:none;}
	.st64{fill:#ABC287;}
	.st65{fill:#BDD993;}
	.st66{fill:none;stroke:#534046;stroke-width:15;stroke-linecap:round;stroke-linejoin:round;stroke-miterlimit:10;}
	.st67{fill:#413133;}
	.st68{fill:#34292B;}
	.st69{fill:#644B50;}
	.st70{fill:#CDACB7;}
	.st71{fill:#A83A4D;}
	.st72{fill:#413335;}
	.st73{fill:#DC6579;}
	.st74{fill:#4C393C;}
	.st75{fill:#527FAE;}
	.st76{fill:#92C2EA;}
	.st77{fill:#5B8C4A;}
	.st78{fill:#729C51;}
	.st79{fill:#AADB5E;}
	.st80{fill:#D66C53;}
	.st81{fill:#A65340;}
	.st82{fill:#B8594A;}
	.st83{fill:#79A754;}
	.st84{fill:#4E3B3E;}
	.st85{fill:#5E4649;}
	.st86{fill:#604A50;}
	.st87{fill:#685258;}
	.st88{fill:#765E66;}
	.st89{fill:#FCF69A;}
	.st90{fill:#D3CC84;}
	.st91{fill:#E6A572;}
	.st92{fill:#74A151;}
	.st93{fill:#6F994F;}
	.st94{fill:#CC6D7D;}
	.st95{fill:#AD6576;}
	.st96{fill:#95422D;}
	.st97{fill:#BE6850;}
	.st98{fill:#3B2F32;}
	.st99{fill:none;stroke:#46383B;stroke-width:15;stroke-linecap:round;stroke-miterlimit:10;}
	.st100{fill:none;stroke:#3B2F32;stroke-width:15;stroke-linecap:round;stroke-miterlimit:10;}
	.st101{fill:#D6CF77;}
	.st102{fill:#F5EF82;}
	.st103{fill:#4A383B;}
	.st104{fill:#CACACA;}
	.st105{fill:#48373A;}
	.st106{fill:#7AA8D2;}
	.st107{fill:#6E9150;}
	.st108{fill:#587441;}
	.st109{fill:#D76E51;}
	.st110{fill:#CCC475;}
	.st111{fill:#DDD57E;}
	.st112{fill:#F8F19C;}
	.st113{fill:#FBF58A;}
	.st114{fill:#C67F20;}
	.st115{fill:#AB6B1C;}
	.st116{fill:#C98020;}
	.st117{fill:#D99A41;}
	.st118{fill:#DBA35B;}
	.st119{fill:#9B5F1B;}
	.st120{fill:#97CF6D;}
	.st121{fill:#5380B1;}
	.st122{fill:#96D16A;}
	.st123{fill:#92BD50;}
	.st124{fill:#7EB058;}
	.st125{fill:#709A50;}
	.st126{fill:#5A8A4A;}
	.st127{fill:#D9D9D9;}
	.st128{fill:#75A3CD;}
	.st129{fill:#6E974F;}
	.st130{fill:#CA6D7D;}
	.st131{fill:#AB6576;}
	.st132{fill:#93422D;}
	.st133{fill:#A44B2D;}
	.st134{fill:#BC6850;}
	.st135{fill:#DFB52B;}
	.st136{fill:#4C3A3C;}
	.st137{fill:#473538;}
	.st138{fill:#382B2E;}
	.st139{fill:none;stroke:#FFFFFF;stroke-width:8;stroke-linecap:round;stroke-miterlimit:10;}
	.st140{fill:#90C0E8;}
	.st141{fill:none;stroke:#E09122;stroke-width:12;stroke-linecap:round;stroke-miterlimit:10;}
	.st142{fill:#DCAE2B;}
	.st143{fill:#F0D05A;}
	.st144{fill:#729E51;}
	.st145{fill:#E4BA36;}
	.st146{fill:#F8F283;}
	.st147{fill:#E4B6A9;}
	.st148{fill:#D78E30;}
	.st149{fill:#598A49;}
	.st150{fill:#B65339;}
	.st151{fill:#BA751F;}
	.st152{fill:#466A9F;}
	.st153{fill:#8BB34D;}
	.st154{fill:#9BCE54;}
	.st155{fill:#7F9F49;}
	.st156{fill:#D37F6D;}
	.st157{fill:#BB5E44;}
	.st158{fill:#93BB55;}
	.st159{fill:#B3E665;}
	.st160{fill:none;stroke:#4C393C;stroke-width:8;stroke-miterlimit:10;}
	.st161{fill:#97432D;}
	.st162{fill:#DAB12A;}
	.st163{fill:#5E914C;}
	.st164{fill:#5381B3;}
	.st165{fill:#6A8F4C;}
	.st166{fill:#628047;}
	.st167{fill:#E29D37;}
	.st168{fill:#6E555B;}
	.st169{fill:#91CA67;}
	.st170{fill:#476BA1;}
	.st171{fill:#6699D9;}
	.st172{fill:#503C3E;}
	.st173{fill:#413235;}
	.st174{fill:#CC916A;}
	.st175{fill:#BA8363;}
	.st176{fill:#D09571;}
	.st177{fill:#C98F68;}
	.st178{fill:#AA3B4D;}
	.st179{fill:#DA6075;}
	.st180{fill:#92452D;}
	.st181{fill:#A24B2D;}
	.st182{fill:#B76252;}
	.st183{fill:#87BD60;}
	.st184{fill:#78A7D2;}
	.st185{fill:#F9F38F;}
	.st186{fill:#E0D650;}
	.st187{fill:#AFE086;}
	.st188{fill:#9FD476;}
	.st189{fill:#9DD176;}
	.st190{fill:#8FC468;}
	.st191{fill:#7EAE58;}
	.st192{fill:#6F9850;}
	.st193{fill:#59884A;}
	.st194{fill:#638347;}
	.st195{fill:#B95135;}
	.st196{fill:#E5AB62;}
	.st197{fill:#733228;}
	.st198{fill:#803728;}
	.st199{fill:#6D974D;}
	.st200{fill:#99CD75;}
	.st201{fill:#93412C;}
	.st202{fill:#93C2EA;}
	.st203{fill:#CD926B;}
	.st204{fill:#E6AF8A;}
	.st205{fill:#E5DB4E;}
	.st206{fill:#FBF375;}
	.st207{fill:#779E54;}
	.st208{fill:#D3966D;}
	.st209{fill:#DA4355;}
	.st210{fill:#A83B4D;}
	.st211{fill:none;stroke:#594144;stroke-width:8;stroke-linecap:round;stroke-miterlimit:10;}
	.st212{fill:#E5A855;}
	.st213{fill:#EAC291;}
	.st214{fill:#96C252;}
	.st215{fill:#695055;}
	.st216{fill:#DC9C42;}
	.st217{fill:#8E5C1B;}
	.st218{fill:#F4EB6A;}
	.st219{fill:#CBC049;}
	.st220{fill:none;stroke:#B8E876;stroke-width:15;stroke-linecap:round;stroke-miterlimit:10;}
	.st221{fill:#A36A1C;}
	.st222{fill:#ECC94A;}
	.st223{fill:#91BEDA;}
	.st224{fill:#3D2F32;}
	.st225{fill:#A6394C;}
	.st226{fill:#33292B;}
	.st227{fill:#4F3D42;}
	.st228{fill:#638147;}
	.st229{fill:#CD8321;}
	.st230{fill:#D3CA4A;}
	.st231{fill:#E2A550;}
	.st232{fill:#B75135;}
	.st233{fill:#D4CD77;}
	.st234{fill:#F3EC80;}
	.st235{fill:#46383B;}
	.st236{fill:#82AA61;}
	.st237{fill:#8EBF69;}
	.st238{fill:#3C2E31;}
	.st239{fill:#C49F27;}
	.st240{fill:#D2BF7C;}
	.st241{fill:#F6E18D;}
	.st242{fill:#D6D6D6;}
	.st243{fill:#B5D7F2;}
	.st244{fill:#F1D467;}
	.st245{fill:#739FBD;}
	.st246{fill:#D0946C;}
	.st247{fill:#BE8767;}
	.st248{fill:#D0A829;}
	.st249{fill:#F6DF86;}
	.st250{fill:#EABA8D;}
	.st251{fill:#F0D1B8;}
	.st252{fill:#A5D0F1;}
	.st253{fill:#E3A13F;}
	.st254{fill:#F0FAFF;}
	.st255{fill:#B4D3E3;}
	.st256{fill:#80A5C3;}
	.st257{fill:#87AFD5;}
	.st258{fill:#B1D1E7;}
	.st259{fill:#AED66F;}
	.st260{fill:#91AA61;}
	.st261{fill:#A8384B;}
	.st262{fill:#CD8120;}
	.st263{fill:#E6AD56;}
	.st264{fill:none;stroke:#E6AD56;stroke-width:8;stroke-linecap:round;stroke-miterlimit:10;}
	.st265{fill:#9EBD68;}
	.st266{fill:#AAD16E;}
	.st267{fill:#86656B;}
	.st268{fill:#6D954D;}
	.st269{fill:#98CB75;}
	.st270{fill:#75A251;}
	.st271{fill:#91BD4F;}
	.st272{fill:none;stroke:#B8E078;stroke-width:8;stroke-linecap:round;stroke-miterlimit:10;}
	.st273{fill:none;stroke:#B8E078;stroke-width:8;stroke-linecap:round;stroke-linejoin:round;stroke-miterlimit:10;}
	.st274{fill:#8FBA4E;}
	.st275{fill:#B3E860;}
	.st276{fill:#E7A748;}
	.st277{fill:none;stroke:#B6E676;stroke-width:15;stroke-linecap:round;stroke-miterlimit:10;}
	.st278{fill:#639B53;}
	.st279{fill:#476B9F;}
	.st280{fill:#82B1DE;}
	.st281{fill:#A6533F;}
	.st282{fill:#C28A69;}
	.st283{fill:#64494E;}
	.st284{fill:#77565C;}
	.st285{fill:#4F3C40;}
	.st286{fill:#ECCCB1;}
	.st287{fill:#BF6F5C;}
	.st288{fill:none;stroke:#D4F1A7;stroke-width:10;stroke-linecap:round;stroke-miterlimit:10;}
	.st289{fill:none;stroke:#B8E876;stroke-width:10;stroke-linecap:round;stroke-miterlimit:10;}
	.st290{fill:#47688F;}
	.st291{fill:#3F5B78;}
	.st292{fill:#354E6C;}
	.st293{fill:#DAB12B;}
	.st294{fill:#C8A028;}
	.st295{fill:#F0D15C;}
	.st296{fill:#F8F28B;}
	.st297{fill:#F7F18D;}
	.st298{fill:#DED450;}
	.st299{fill:#F9F155;}
	.st300{fill:#A2CFF4;}
	.st301{fill:none;stroke:#594144;stroke-width:10;stroke-linecap:round;stroke-miterlimit:10;}
	.st302{fill:#F5F0AB;}
	.st303{fill:#496DA1;}
	.st304{fill:#5A85C7;}
	.st305{fill:#D7D7D7;}
	.st306{fill:#ADD3E6;}
	.st307{fill:#98B8C3;}
	.st308{fill:#CDCECF;}
	.st309{fill:#BF4F69;}
	.st310{fill:#A83448;}
	.st311{fill:#A4DAF7;}
	.st312{fill:#81A861;}
	.st313{fill:#82A549;}
	.st314{fill:#B6E676;}
	.st315{fill:#8CBD69;}
	.st316{fill:#ECC62F;}
	.st317{fill:#F4EA80;}
	.st318{fill:#D6AD2B;}
	.st319{fill:#6F9151;}
	.st320{fill:#46699C;}
	.st321{fill:#4A373A;}
	.st322{fill:#89B04C;}
	.st323{fill:#99CC53;}
	.st324{fill:#B1E465;}
	.st325{fill:#E19E3B;}
	.st326{fill:#C05970;}
	.st327{fill:#D95F74;}
	.st328{fill:#74A8DE;}
	.st329{fill:#C47C1E;}
	.st330{fill:#719A51;}
	.st331{fill:#A8D95E;}
	.st332{fill:#D46C53;}
	.st333{fill:#A45340;}
	.st334{fill:#B6594A;}
	.st335{fill:#79A554;}
	.st336{fill:#B6DAF7;}
	.st337{fill:#739F51;}
	.st338{fill:#DDB32B;}
	.st339{fill:#DE8F22;}
	.st340{fill:none;stroke:#46383B;stroke-width:8;stroke-linecap:round;stroke-miterlimit:10;}
	.st341{fill:none;stroke:#3B2F32;stroke-width:8;stroke-linecap:round;stroke-miterlimit:10;}
	.st342{fill:#C8C8C8;}
	.st343{fill:#7F9D49;}
	.st344{fill:#BA5E44;}
	.st345{fill:#92B955;}
	.st346{fill:#D17F6D;}
	.st347{fill:#5D8F4C;}
	.st348{fill:#B75334;}
	.st349{fill:#CA6D57;}
	.st350{fill:#A4574D;}
	.st351{fill:#7FB1E6;}
	.st352{fill:#77A3CD;}
	.st353{fill:#90BA4F;}
	.st354{fill:#5C8F4B;}
	.st355{fill:#ACDE5D;}
	.st356{fill:#6FAC5A;}
	.st357{fill:none;stroke:#9DD055;stroke-width:10;stroke-linecap:round;stroke-miterlimit:10;}
	.st358{fill:#AD5643;}
	.st359{fill:#B96052;}
	.st360{fill:#CB8D84;}
	.st361{fill:#CC6C56;}
	.st362{fill:#DE9A8E;}
	.st363{fill:#D37B6A;}
	.st364{fill:#A87758;}
	.st365{fill:#372A2C;}
	.st366{fill:#B8815C;}
	.st367{fill:#433335;}
	.st368{fill:#2C2325;}
	.st369{fill:#95402B;}
	.st370{fill:#A85441;}
	.st371{fill:#D2C74B;}
	.st372{fill:#B25945;}
	.st373{fill:none;stroke:#594144;stroke-width:15;stroke-linecap:round;stroke-miterlimit:10;}
	.st374{fill:none;stroke:#594144;stroke-width:12;stroke-linecap:round;stroke-miterlimit:10;}
	.st375{fill:#8F473B;}
	.st376{fill:#453538;}
	.st377{fill:#517DAB;}
	.st378{fill:#75A050;}
	.st379{fill:#A5384D;}
	.st380{fill:#CC6075;}
	.st381{fill:#F26B7F;}
	.st382{fill:#C67189;}
	.st383{fill:#B26980;}
	.st384{fill:#D87990;}
	.st385{fill:#F2869B;}
	.st386{fill:#EF8499;}
	.st387{fill:#649CD7;}
	.st388{fill:#639CDB;}
	.st389{fill:#C8ED8D;}
	.st390{fill:#A9DB83;}
	.st391{fill:#9BCF76;}
	.st392{fill:#7EAC58;}
	.st393{fill:#8CC463;}
	.st394{fill:#7FAC5B;}
	.st395{fill:#769C55;}
	.st396{fill:#6A894D;}
	.st397{fill:#769B56;}
	.st398{fill:#9BCC75;}
	.st399{fill:#AF5641;}
	.st400{fill:#F4D576;}
	.st401{fill:#76A055;}
	.st402{fill:#628347;}
	.st403{fill:#4F7B9F;}
	.st404{fill:#466D86;}
	.st405{fill:#4D789C;}
</style>
<g id="BULINE">
	<circle id="XMLID_3387_" class="st1" cx="256" cy="256" r="256"/>
</g>
<g id="Icons">
	<g id="XMLID_4620_">
		<circle id="XMLID_4651_" class="st300" cx="256" cy="206.4" r="174.3"/>
		<path id="XMLID_4675_" class="st303" d="M511.9,261.2c-1.6,80.3-40.2,151.5-99.4,197.4C369.3,492.1,315,512,256,512
			C125,512,16.9,413.5,1.8,286.6c-1-8.3-1.6-16.8-1.8-25.4H511.9z"/>
		<path id="XMLID_4136_" class="st11" d="M412.6,458.5C369.3,492.1,315,512,256,512C125,512,16.9,413.5,1.8,286.6
			c10.8,8.3,24.3,18.1,40.5,28.9c8.6,5.8,18,11.8,28.1,17.9c30.1,18.4,66.8,38.3,109.4,57c10.7,4.7,21.7,9.3,33.2,13.8
			c0.3,0.1,0.7,0.3,1,0.4c0.1,0.1,0.3,0.1,0.4,0.2c9.5,3.7,19.2,7.4,29.2,10.9c7.1,2.5,14.2,5,21.6,7.4c9.6,3.1,19.4,6.2,29.4,9.1
			c0.1,0,0.2,0.1,0.4,0.1C331.5,443,370.7,452,412.6,458.5z"/>
		<path id="XMLID_4648_" class="st304" d="M21.8,324.6c14-8.4,49.6-24.4,92.6-1c13,7.1,27.1,12.1,41.7,14.1
			c13.6,1.9,30.2,2.1,47.1-2.6c2.6-0.7,4.2,2.8,1.9,4.3c-8.3,5.2-19.6,11.1-32.6,14.8c-19.7,5.6-40.8,3.2-58.7-6.6
			c-13.1-7.1-41-17.8-90.8-18.6C20.6,329,19.8,325.9,21.8,324.6z"/>
		<path id="XMLID_4647_" class="st304" d="M266.1,394.6c-14-8.4-49.6-24.4-92.6-1c-13,7.1-27.1,12.1-41.7,14.1
			c-13.6,1.9-30.2,2.1-47.1-2.6c-2.6-0.7-4.2,2.8-1.9,4.3c8.3,5.2,19.6,11.1,32.6,14.8c19.7,5.6,40.8,3.2,58.7-6.6
			c13.1-7.1,41-17.8,90.8-18.6C267.3,399,268.2,395.9,266.1,394.6z"/>
		<path id="XMLID_4646_" class="st304" d="M301.7,324.6c14-8.4,49.6-24.4,92.6-1c13,7.1,27.1,12.1,41.7,14.1
			c13.6,1.9,30.2,2.1,47.1-2.6c2.6-0.7,4.2,2.8,1.9,4.3c-8.3,5.2-19.6,11.1-32.6,14.8c-19.7,5.6-40.8,3.2-58.7-6.6
			c-13.1-7.1-41-17.8-90.8-18.6C300.6,329,299.7,325.9,301.7,324.6z"/>
		<path id="XMLID_4645_" class="st304" d="M248.1,391.5c14-8.4,49.6-24.4,92.6-1c13,7.1,27.1,12.1,41.7,14.1
			c13.6,1.9,30.2,2.1,47.1-2.6c2.6-0.7,4.2,2.8,1.9,4.3c-8.3,5.2-19.6,11.1-32.6,14.8c-19.7,5.6-40.8,3.2-58.7-6.6
			c-13.1-7.1-41-17.8-90.8-18.6C247,395.8,246.1,392.7,248.1,391.5z"/>
		<path id="XMLID_4641_" class="st43" d="M447.1,117.5c-2.2-1.3-4.7-2.1-7.4-2.4c-0.5-0.1-1-0.1-1.5-0.1c-2.1,0-4.1,0.4-6,1.1
			c-0.3-1.6-0.7-3.1-1.3-4.6c-2.9-7.7-9.5-13.6-17.6-15.6c-2-0.5-4-0.8-6.1-0.8h-0.2c-0.7-5.5-4-10.1-8.6-12.8
			c-2.5-1.5-5.5-2.3-8.6-2.3c-1.1,0-2.1,0.1-3.1,0.3c-0.2-3.2-1.4-6.1-3.3-8.3c-2.6-3.1-6.4-5-10.7-5c-3.1,0-6,1-8.4,2.8
			c-2.1,1.6-3.8,3.8-4.8,6.3c-0.6,1.5-0.9,3.1-0.9,4.8c-0.2-0.2-0.3-0.4-0.5-0.6c-2.8-2.9-6.8-4.8-11.1-4.8c-3.8,0-7.2,1.3-9.9,3.6
			c-3.4,2.8-5.6,7.1-5.6,11.9c0,0.2,0,0.4,0,0.5c-1.4-0.6-2.9-0.9-4.5-0.9c-5.4,0-9.9,3.5-11.5,8.4c-7.2,0.1-13.7,3.1-18.3,8
			c-4.2,4.5-6.8,10.6-6.8,17.3c0,3.2,0.6,6.3,1.7,9.1c3.7,9.5,12.9,16.3,23.7,16.3h122.5c0.5,0,1,0,1.5-0.1
			c5.6-0.5,10.5-3.6,13.3-8.2c1.6-2.6,2.6-5.8,2.6-9.1C455.6,126,452.2,120.5,447.1,117.5z M382.3,126.9c0.1-0.1,0.2-0.2,0.3-0.3
			c0,0.1,0,0.2,0.1,0.3H382.3z"/>
		<path id="XMLID_4637_" class="st305" d="M439.7,133.3c-0.5,0-1-0.1-1.5-0.1c-2.1,0-4.1,0.4-6,1.1c-1-5.3-3.6-10.1-7.3-13.8
			c-4-3.9-9.4-6.5-15.4-7.1c-0.8-0.1-1.5-0.1-2.3-0.1c-0.1,0-0.1,0-0.2,0c-1-7.5-6.7-13.5-14.1-14.8c0,0,0,0,0,0
			c-1-0.2-2-0.3-3.1-0.3s-2.1,0.1-3.1,0.3c-0.3-5.7-3.9-10.5-9-12.4c-1.6-0.6-3.3-1-5.1-1c-7.7,0-13.9,6.2-14,13.8
			c-1.2-1.4-2.7-2.6-4.4-3.5c-2.2-1.1-4.6-1.8-7.2-1.8c-7,0-12.8,4.6-14.8,10.9c-0.4,1.4-0.7,3-0.7,4.6c0,0.2,0,0.4,0,0.5
			c-1.4-0.6-2.9-0.9-4.5-0.9c-5.1,0-9.5,3.2-11.3,7.8c-0.1,0.2-0.2,0.4-0.2,0.6c-0.9,0-1.7,0.1-2.5,0.2c-4.3,0.5-8.3,2-11.7,4.3
			c-4.2,2.9-7.4,7-9.3,11.8c3.7,9.5,12.9,16.3,23.7,16.3h122.5c0.5,0,1,0,1.5-0.1c5.6-0.5,10.5-3.6,13.3-8.2
			C450.2,136.9,445.3,133.8,439.7,133.3z M382.3,145.1c0.1-0.1,0.2-0.2,0.3-0.3c0,0.1,0,0.2,0.1,0.3H382.3z"/>
		<path id="XMLID_4633_" class="st43" d="M162.6,164.6c-1.7-1-3.6-1.6-5.6-1.8c-0.4,0-0.8,0-1.2,0c-1.6,0-3.1,0.3-4.6,0.8
			c-0.2-1.2-0.5-2.4-1-3.5c-0.1-0.2-0.1-0.4-0.2-0.5c-2.3-5.6-7.2-9.9-13.2-11.4c-1.5-0.4-3.1-0.6-4.7-0.6h-0.1
			c-0.6-4.2-3-7.7-6.5-9.8c-1.9-1.1-4.2-1.8-6.6-1.8c-0.8,0-1.6,0.1-2.4,0.2c-0.1-2.4-1-4.6-2.5-6.4c-2-2.3-4.9-3.8-8.2-3.8
			c-2,0-3.9,0.6-5.5,1.5c-2,1.2-3.7,3.1-4.5,5.4c-0.4,1.1-0.7,2.4-0.7,3.6c-0.1-0.1-0.2-0.3-0.4-0.4c-2.2-2.2-5.2-3.6-8.5-3.6
			c-2.9,0-5.5,1-7.5,2.7c-2.6,2.2-4.2,5.4-4.2,9.1c0,0.1,0,0.3,0,0.4c-1.1-0.4-2.2-0.7-3.5-0.7c-4.1,0-7.6,2.7-8.8,6.4
			c-10.6,0.1-19.2,8.7-19.2,19.4c0,2.4,0.5,4.8,1.3,6.9c2.8,7.3,9.8,12.4,18.1,12.4h93.5c0.4,0,0.8,0,1.2,0c4.3-0.4,8-2.8,10.1-6.2
			c1.2-2,2-4.4,2-7C169.1,171.2,166.5,167,162.6,164.6z M113.2,171.9c0.1-0.1,0.2-0.2,0.2-0.2c0,0.1,0,0.2,0,0.2H113.2z"/>
		<path id="XMLID_4629_" class="st305" d="M157,176.7c-0.4,0-0.8,0-1.2,0c-1.6,0-3.1,0.3-4.6,0.8c-0.7-4.1-2.7-7.7-5.6-10.5
			c0,0-0.1-0.1-0.1-0.1c-3.1-3-7.1-4.9-11.7-5.3c-0.6-0.1-1.2-0.1-1.8-0.1c0,0-0.1,0-0.1,0c-0.8-5.7-5.1-10.3-10.8-11.3
			c-0.8-0.1-1.5-0.2-2.4-0.2c-0.8,0-1.6,0.1-2.4,0.2c-0.2-4.3-3-8-6.8-9.5c-1.2-0.5-2.5-0.7-3.9-0.7c-5.9,0-10.6,4.7-10.7,10.5
			c-0.9-1.1-2.1-2-3.4-2.7c0,0,0,0-0.1,0c-1.6-0.8-3.5-1.3-5.5-1.3c-5.3,0-9.8,3.5-11.3,8.3c-0.3,1.1-0.5,2.3-0.5,3.5
			c0,0.1,0,0.3,0,0.4c-1.1-0.4-2.2-0.7-3.5-0.7c-4.1,0-7.6,2.7-8.8,6.4c-8.2,0.1-15.1,5.2-17.9,12.4c2.8,7.3,9.8,12.4,18.1,12.4
			h93.5c0.4,0,0.8,0,1.2,0c4.3-0.4,8-2.8,10.1-6.2C165,179.5,161.3,177.1,157,176.7z M113.2,185.7c0.1-0.1,0.2-0.2,0.2-0.2
			c0,0.1,0,0.2,0,0.2H113.2z"/>
		<path id="XMLID_4628_" class="st12" d="M263.5,70.3L239.6,103l-21,12H193c-5.1,0-9.6,3.1-11.5,7.8l-11.9,29.5l-12,3.1
			c-5.6,1.5-10.1,5.7-11.9,11.2l-8.1,25.1c0,0-29,16.6-17,39.4c0,0-19,34.9,18,45.9l18,33l16,11l19.1,53.2l19.9,15.4l18,94.9
			c1,5.5,6.7,8.7,11.9,6.7l8-3l18-18.6l12.9-5.6c5.7-2.5,9.7-7.6,10.8-13.7l4.3-23.8l32-23.9c0,0,23-21.6,24-47.6l25-38l8-37.2
			c0,0,16-12.6,0-48.7l-13-17.3l-7-33.5l-26-22.6l-6.3-30c-1-5-4.7-9.1-9.5-10.7l0,0c-5.5-1.8-11.7-0.1-15.5,4.3l-0.7,0.8
			c-1.7,2-5,1.3-5.7-1.3l-12.6-46.1c-1.6-5.9-7-10.1-13.2-10.1h-0.6C270.2,64.7,266.1,66.8,263.5,70.3z"/>
		<path id="XMLID_516_" class="st12" d="M328.2,120.9c0.3,1.2,1.2,2,2.3,2.3c-0.7-1.1-1.5-2.1-2.4-3L328.2,120.9z"/>
		<path id="XMLID_4627_" class="st300" d="M391.7,261.2c0.3,15-7.1,20.8-7.1,20.8l-8,37.2l-25,38c-1,26-24,47.6-24,47.6l-32,23.9
			l-4.3,23.8c-1.1,6.1-5.1,11.2-10.8,13.7l-12.9,5.6l-18,18.6l-8,3c-5.2,2-10.9-1.2-11.9-6.7l-18-95l-19.9-15.4l-19.1-53.2l-16-11
			l-18-33c-13.1-3.9-19.1-10.8-21.5-18H391.7z"/>
		<path id="XMLID_4626_" class="st306" d="M268.6,118.6v28.5l11.9,12l10.7,3.5c2.2,0.7,3.5,3.1,3,5.4l-4.6,20.4l11,7.1
			c0,0-11.9,30.3-32,36.7c0,0-25.6,3.1-37,10.4c-3.3,2.1-7.7,1.2-9.9-2.1l-8.8-13v-21.1l-6.4-17.9c0,0-2.7-15.8,17.3-25.3l25.6-32.8
			l15.2-13.5C266.2,115.4,268.6,116.5,268.6,118.6z"/>
		<path id="XMLID_4625_" class="st306" d="M331.6,170l11,26l13,7.2l15,39.5l-23-14.5l-6-21.9C341.6,206.4,328.1,199.1,331.6,170z"/>
		<path id="XMLID_4624_" class="st1" d="M169.2,281.6l13.4,22.4l14.9,12l14.1,40l27,18.2l9,73.9c0.4,3.4,5,4.1,6.4,1l9.6-20.8
			l8-25.7l20-13l-8-25.1l-29.9-17.3L216.6,310l-25-10.2l-19.7-20.2C170.5,278.1,168.1,279.9,169.2,281.6z"/>
		<path id="XMLID_4622_" class="st1" d="M331,291l-9.4,24l-10,11l9.7,21.2l-3.6,27.7c-0.3,2.4,2.8,3.7,4.3,1.7l17.6-23.6v-22
			l11.2-16L331,291z"/>
		<path id="XMLID_517_" class="st1" d="M117.9,261.2h27.3c-6.1-13.8,2.7-30.1,2.7-30.1c-12-22.9,17-39.4,17-39.4l8.1-25.1
			c1.8-5.5,6.3-9.7,11.9-11.2l12-3.1l11.9-29.5c1.9-4.7,6.4-7.8,11.5-7.8h25.6l21-12l21.2-29c-1.9-5.5-7.1-9.3-12.9-9.3h-0.6
			c-4.4,0-8.5,2.1-11,5.6L239.6,103l-21,12H193c-5.1,0-9.6,3.1-11.5,7.8l-11.9,29.5l-12,3.1c-5.6,1.5-10.1,5.7-11.9,11.2l-8.1,25.1
			c0,0-29,16.6-17,39.4C120.6,231.1,111.8,247.4,117.9,261.2z"/>
	</g>
</g>
</svg>
