<?xml version="1.0" encoding="utf-8"?>
<!-- Generator: Adobe Illustrator 22.0.1, SVG Export Plug-In . SVG Version: 6.00 Build 0)  -->
<svg version="1.1" xmlns="http://www.w3.org/2000/svg" xmlns:xlink="http://www.w3.org/1999/xlink" x="0px" y="0px"
	 viewBox="0 0 512 512" style="enable-background:new 0 0 512 512;" xml:space="preserve">
<style type="text/css">
	.st0{fill:#4B71B4;}
	.st1{fill:#80B4E8;}
	.st2{fill:#594144;}
	.st3{fill:#B8E876;}
	.st4{fill:#E09122;}
	.st5{fill:#FBF355;}
	.st6{fill:#EEC82F;}
	.st7{fill:#CEA628;}
	.st8{fill:#9BC9EF;}
	.st9{fill:#9DD055;}
	.st10{fill:#5686C5;}
	.st11{fill:#3B5880;}
	.st12{fill:#C2E5FB;}
	.st13{fill:#446697;}
	.st14{fill:#D1F1A0;}
	.st15{fill:#ABD170;}
	.st16{fill:#9DBD6A;}
	.st17{fill:#649D53;}
	.st18{fill:#72B35D;}
	.st19{fill:#ABD68D;}
	.st20{fill:#7FB358;}
	.st21{fill:#920C50;}
	.st22{fill:#C60053;}
	.st23{fill:#530730;}
	.st24{fill:#600332;}
	.st25{fill:#D5AC2A;}
	.st26{fill:#EFD776;}
	.st27{fill:#A7C76D;}
	.st28{fill:#A43749;}
	.st29{fill:#DC4355;}
	.st30{fill:#E18696;}
	.st31{fill:#77A255;}
	.st32{fill:#628547;}
	.st33{fill:#6E994D;}
	.st34{fill:none;stroke:#54743C;stroke-width:8;stroke-linecap:round;stroke-miterlimit:10;}
	.st35{fill:#9BCF75;}
	.st36{fill:#CA8F80;}
	.st37{fill:#E6B8AB;}
	.st38{fill:#E2A18B;}
	.st39{fill:#8E3F2B;}
	.st40{fill:#D89988;}
	.st41{fill:#CFCFCF;}
	.st42{fill:#A64B2D;}
	.st43{fill:#FFFFFF;}
	.st44{fill:#CA801F;}
	.st45{fill:#719C50;}
	.st46{fill:#85B7E5;}
	.st47{fill:#4F7BA9;}
	.st48{fill:#674C50;}
	.st49{fill:#BAD7ED;}
	.st50{fill:#63494D;}
	.st51{fill:#503D3F;}
	.st52{fill:#638547;}
	.st53{fill:#56713E;}
	.st54{fill:#BB5135;}
	.st55{fill:#93C4EC;}
	.st56{fill:#CA8121;}
	.st57{fill:#FDFCFC;}
	.st58{fill:#A83A4F;}
	.st59{fill:#BD5E44;}
	.st60{fill:#688C4A;}
	.st61{fill:#7DA55A;}
	.st62{fill:#90BA51;}
	.st63{fill:none;}
	.st64{fill:#ABC287;}
	.st65{fill:#BDD993;}
	.st66{fill:none;stroke:#534046;stroke-width:15;stroke-linecap:round;stroke-linejoin:round;stroke-miterlimit:10;}
	.st67{fill:#413133;}
	.st68{fill:#34292B;}
	.st69{fill:#644B50;}
	.st70{fill:#CDACB7;}
	.st71{fill:#A83A4D;}
	.st72{fill:#413335;}
	.st73{fill:#DC6579;}
	.st74{fill:#4C393C;}
	.st75{fill:#527FAE;}
	.st76{fill:#92C2EA;}
	.st77{fill:#5B8C4A;}
	.st78{fill:#729C51;}
	.st79{fill:#AADB5E;}
	.st80{fill:#D66C53;}
	.st81{fill:#A65340;}
	.st82{fill:#B8594A;}
	.st83{fill:#79A754;}
	.st84{fill:#4E3B3E;}
	.st85{fill:#5E4649;}
	.st86{fill:#604A50;}
	.st87{fill:#685258;}
	.st88{fill:#765E66;}
	.st89{fill:#FCF69A;}
	.st90{fill:#D3CC84;}
	.st91{fill:#E6A572;}
	.st92{fill:#74A151;}
	.st93{fill:#6F994F;}
	.st94{fill:#CC6D7D;}
	.st95{fill:#AD6576;}
	.st96{fill:#95422D;}
	.st97{fill:#BE6850;}
	.st98{fill:#3B2F32;}
	.st99{fill:none;stroke:#46383B;stroke-width:15;stroke-linecap:round;stroke-miterlimit:10;}
	.st100{fill:none;stroke:#3B2F32;stroke-width:15;stroke-linecap:round;stroke-miterlimit:10;}
	.st101{fill:#D6CF77;}
	.st102{fill:#F5EF82;}
	.st103{fill:#4A383B;}
	.st104{fill:#CACACA;}
	.st105{fill:#48373A;}
	.st106{fill:#7AA8D2;}
	.st107{fill:#6E9150;}
	.st108{fill:#587441;}
	.st109{fill:#D76E51;}
	.st110{fill:#CCC475;}
	.st111{fill:#DDD57E;}
	.st112{fill:#F8F19C;}
	.st113{fill:#FBF58A;}
	.st114{fill:#C67F20;}
	.st115{fill:#AB6B1C;}
	.st116{fill:#C98020;}
	.st117{fill:#D99A41;}
	.st118{fill:#DBA35B;}
	.st119{fill:#9B5F1B;}
	.st120{fill:#97CF6D;}
	.st121{fill:#5380B1;}
	.st122{fill:#96D16A;}
	.st123{fill:#92BD50;}
	.st124{fill:#7EB058;}
	.st125{fill:#709A50;}
	.st126{fill:#5A8A4A;}
	.st127{fill:#D9D9D9;}
	.st128{fill:#75A3CD;}
	.st129{fill:#6E974F;}
	.st130{fill:#CA6D7D;}
	.st131{fill:#AB6576;}
	.st132{fill:#93422D;}
	.st133{fill:#A44B2D;}
	.st134{fill:#BC6850;}
	.st135{fill:#DFB52B;}
	.st136{fill:#4C3A3C;}
	.st137{fill:#473538;}
	.st138{fill:#382B2E;}
	.st139{fill:none;stroke:#FFFFFF;stroke-width:8;stroke-linecap:round;stroke-miterlimit:10;}
	.st140{fill:#90C0E8;}
	.st141{fill:none;stroke:#E09122;stroke-width:12;stroke-linecap:round;stroke-miterlimit:10;}
	.st142{fill:#DCAE2B;}
	.st143{fill:#F0D05A;}
	.st144{fill:#729E51;}
	.st145{fill:#E4BA36;}
	.st146{fill:#F8F283;}
	.st147{fill:#E4B6A9;}
	.st148{fill:#D78E30;}
	.st149{fill:#598A49;}
	.st150{fill:#B65339;}
	.st151{fill:#BA751F;}
	.st152{fill:#466A9F;}
	.st153{fill:#8BB34D;}
	.st154{fill:#9BCE54;}
	.st155{fill:#7F9F49;}
	.st156{fill:#D37F6D;}
	.st157{fill:#BB5E44;}
	.st158{fill:#93BB55;}
	.st159{fill:#B3E665;}
	.st160{fill:none;stroke:#4C393C;stroke-width:8;stroke-miterlimit:10;}
	.st161{fill:#97432D;}
	.st162{fill:#DAB12A;}
	.st163{fill:#5E914C;}
	.st164{fill:#5381B3;}
	.st165{fill:#6A8F4C;}
	.st166{fill:#628047;}
	.st167{fill:#E29D37;}
	.st168{fill:#6E555B;}
	.st169{fill:#91CA67;}
	.st170{fill:#476BA1;}
	.st171{fill:#6699D9;}
	.st172{fill:#503C3E;}
	.st173{fill:#413235;}
	.st174{fill:#CC916A;}
	.st175{fill:#BA8363;}
	.st176{fill:#D09571;}
	.st177{fill:#C98F68;}
	.st178{fill:#AA3B4D;}
	.st179{fill:#DA6075;}
	.st180{fill:#92452D;}
	.st181{fill:#A24B2D;}
	.st182{fill:#B76252;}
	.st183{fill:#87BD60;}
	.st184{fill:#78A7D2;}
	.st185{fill:#F9F38F;}
	.st186{fill:#E0D650;}
	.st187{fill:#AFE086;}
	.st188{fill:#9FD476;}
	.st189{fill:#9DD176;}
	.st190{fill:#8FC468;}
	.st191{fill:#7EAE58;}
	.st192{fill:#6F9850;}
	.st193{fill:#59884A;}
	.st194{fill:#638347;}
	.st195{fill:#B95135;}
	.st196{fill:#E5AB62;}
	.st197{fill:#733228;}
	.st198{fill:#803728;}
	.st199{fill:#6D974D;}
	.st200{fill:#99CD75;}
	.st201{fill:#93412C;}
	.st202{fill:#93C2EA;}
	.st203{fill:#CD926B;}
	.st204{fill:#E6AF8A;}
	.st205{fill:#E5DB4E;}
	.st206{fill:#FBF375;}
	.st207{fill:#779E54;}
	.st208{fill:#D3966D;}
	.st209{fill:#DA4355;}
	.st210{fill:#A83B4D;}
	.st211{fill:none;stroke:#594144;stroke-width:8;stroke-linecap:round;stroke-miterlimit:10;}
	.st212{fill:#E5A855;}
	.st213{fill:#EAC291;}
	.st214{fill:#96C252;}
	.st215{fill:#695055;}
	.st216{fill:#DC9C42;}
	.st217{fill:#8E5C1B;}
	.st218{fill:#F4EB6A;}
	.st219{fill:#CBC049;}
	.st220{fill:none;stroke:#B8E876;stroke-width:15;stroke-linecap:round;stroke-miterlimit:10;}
	.st221{fill:#A36A1C;}
	.st222{fill:#ECC94A;}
	.st223{fill:#91BEDA;}
	.st224{fill:#3D2F32;}
	.st225{fill:#A6394C;}
	.st226{fill:#33292B;}
	.st227{fill:#4F3D42;}
	.st228{fill:#638147;}
	.st229{fill:#CD8321;}
	.st230{fill:#D3CA4A;}
	.st231{fill:#E2A550;}
	.st232{fill:#B75135;}
	.st233{fill:#D4CD77;}
	.st234{fill:#F3EC80;}
	.st235{fill:#46383B;}
	.st236{fill:#82AA61;}
	.st237{fill:#8EBF69;}
	.st238{fill:#3C2E31;}
	.st239{fill:#C49F27;}
	.st240{fill:#D2BF7C;}
	.st241{fill:#F6E18D;}
	.st242{fill:#D6D6D6;}
	.st243{fill:#B5D7F2;}
	.st244{fill:#F1D467;}
	.st245{fill:#739FBD;}
	.st246{fill:#D0946C;}
	.st247{fill:#BE8767;}
	.st248{fill:#D0A829;}
	.st249{fill:#F6DF86;}
	.st250{fill:#EABA8D;}
	.st251{fill:#F0D1B8;}
	.st252{fill:#A5D0F1;}
	.st253{fill:#E3A13F;}
	.st254{fill:#F0FAFF;}
	.st255{fill:#B4D3E3;}
	.st256{fill:#80A5C3;}
	.st257{fill:#87AFD5;}
	.st258{fill:#B1D1E7;}
	.st259{fill:#AED66F;}
	.st260{fill:#91AA61;}
	.st261{fill:#A8384B;}
	.st262{fill:#CD8120;}
	.st263{fill:#E6AD56;}
	.st264{fill:none;stroke:#E6AD56;stroke-width:8;stroke-linecap:round;stroke-miterlimit:10;}
	.st265{fill:#9EBD68;}
	.st266{fill:#AAD16E;}
	.st267{fill:#86656B;}
	.st268{fill:#6D954D;}
	.st269{fill:#98CB75;}
	.st270{fill:#75A251;}
	.st271{fill:#91BD4F;}
	.st272{fill:none;stroke:#B8E078;stroke-width:8;stroke-linecap:round;stroke-miterlimit:10;}
	.st273{fill:none;stroke:#B8E078;stroke-width:8;stroke-linecap:round;stroke-linejoin:round;stroke-miterlimit:10;}
	.st274{fill:#8FBA4E;}
	.st275{fill:#B3E860;}
	.st276{fill:#E7A748;}
	.st277{fill:none;stroke:#B6E676;stroke-width:15;stroke-linecap:round;stroke-miterlimit:10;}
	.st278{fill:#639B53;}
	.st279{fill:#476B9F;}
	.st280{fill:#82B1DE;}
	.st281{fill:#A6533F;}
	.st282{fill:#C28A69;}
	.st283{fill:#64494E;}
	.st284{fill:#77565C;}
	.st285{fill:#4F3C40;}
	.st286{fill:#ECCCB1;}
	.st287{fill:#BF6F5C;}
	.st288{fill:none;stroke:#D4F1A7;stroke-width:10;stroke-linecap:round;stroke-miterlimit:10;}
	.st289{fill:none;stroke:#B8E876;stroke-width:10;stroke-linecap:round;stroke-miterlimit:10;}
	.st290{fill:#47688F;}
	.st291{fill:#3F5B78;}
	.st292{fill:#354E6C;}
	.st293{fill:#DAB12B;}
	.st294{fill:#C8A028;}
	.st295{fill:#F0D15C;}
	.st296{fill:#F8F28B;}
	.st297{fill:#F7F18D;}
	.st298{fill:#DED450;}
	.st299{fill:#F9F155;}
	.st300{fill:#A2CFF4;}
	.st301{fill:none;stroke:#594144;stroke-width:10;stroke-linecap:round;stroke-miterlimit:10;}
	.st302{fill:#F5F0AB;}
	.st303{fill:#496DA1;}
	.st304{fill:#5A85C7;}
	.st305{fill:#D7D7D7;}
	.st306{fill:#ADD3E6;}
	.st307{fill:#98B8C3;}
	.st308{fill:#CDCECF;}
	.st309{fill:#BF4F69;}
	.st310{fill:#A83448;}
	.st311{fill:#A4DAF7;}
	.st312{fill:#81A861;}
	.st313{fill:#82A549;}
	.st314{fill:#B6E676;}
	.st315{fill:#8CBD69;}
	.st316{fill:#ECC62F;}
	.st317{fill:#F4EA80;}
	.st318{fill:#D6AD2B;}
	.st319{fill:#6F9151;}
	.st320{fill:#46699C;}
	.st321{fill:#4A373A;}
	.st322{fill:#89B04C;}
	.st323{fill:#99CC53;}
	.st324{fill:#B1E465;}
	.st325{fill:#E19E3B;}
	.st326{fill:#C05970;}
	.st327{fill:#D95F74;}
	.st328{fill:#74A8DE;}
	.st329{fill:#C47C1E;}
	.st330{fill:#719A51;}
	.st331{fill:#A8D95E;}
	.st332{fill:#D46C53;}
	.st333{fill:#A45340;}
	.st334{fill:#B6594A;}
	.st335{fill:#79A554;}
	.st336{fill:#B6DAF7;}
	.st337{fill:#739F51;}
	.st338{fill:#DDB32B;}
	.st339{fill:#DE8F22;}
	.st340{fill:none;stroke:#46383B;stroke-width:8;stroke-linecap:round;stroke-miterlimit:10;}
	.st341{fill:none;stroke:#3B2F32;stroke-width:8;stroke-linecap:round;stroke-miterlimit:10;}
	.st342{fill:#C8C8C8;}
	.st343{fill:#7F9D49;}
	.st344{fill:#BA5E44;}
	.st345{fill:#92B955;}
	.st346{fill:#D17F6D;}
	.st347{fill:#5D8F4C;}
	.st348{fill:#B75334;}
	.st349{fill:#CA6D57;}
	.st350{fill:#A4574D;}
	.st351{fill:#7FB1E6;}
	.st352{fill:#77A3CD;}
	.st353{fill:#90BA4F;}
	.st354{fill:#5C8F4B;}
	.st355{fill:#ACDE5D;}
	.st356{fill:#6FAC5A;}
	.st357{fill:none;stroke:#9DD055;stroke-width:10;stroke-linecap:round;stroke-miterlimit:10;}
	.st358{fill:#AD5643;}
	.st359{fill:#B96052;}
	.st360{fill:#CB8D84;}
	.st361{fill:#CC6C56;}
	.st362{fill:#DE9A8E;}
	.st363{fill:#D37B6A;}
	.st364{fill:#A87758;}
	.st365{fill:#372A2C;}
	.st366{fill:#B8815C;}
	.st367{fill:#433335;}
	.st368{fill:#2C2325;}
	.st369{fill:#95402B;}
	.st370{fill:#A85441;}
	.st371{fill:#D2C74B;}
	.st372{fill:#B25945;}
	.st373{fill:none;stroke:#594144;stroke-width:15;stroke-linecap:round;stroke-miterlimit:10;}
	.st374{fill:none;stroke:#594144;stroke-width:12;stroke-linecap:round;stroke-miterlimit:10;}
	.st375{fill:#8F473B;}
	.st376{fill:#453538;}
	.st377{fill:#517DAB;}
	.st378{fill:#75A050;}
	.st379{fill:#A5384D;}
	.st380{fill:#CC6075;}
	.st381{fill:#F26B7F;}
	.st382{fill:#C67189;}
	.st383{fill:#B26980;}
	.st384{fill:#D87990;}
	.st385{fill:#F2869B;}
	.st386{fill:#EF8499;}
	.st387{fill:#649CD7;}
	.st388{fill:#639CDB;}
	.st389{fill:#C8ED8D;}
	.st390{fill:#A9DB83;}
	.st391{fill:#9BCF76;}
	.st392{fill:#7EAC58;}
	.st393{fill:#8CC463;}
	.st394{fill:#7FAC5B;}
	.st395{fill:#769C55;}
	.st396{fill:#6A894D;}
	.st397{fill:#769B56;}
	.st398{fill:#9BCC75;}
	.st399{fill:#AF5641;}
	.st400{fill:#F4D576;}
	.st401{fill:#76A055;}
	.st402{fill:#628347;}
	.st403{fill:#4F7B9F;}
	.st404{fill:#466D86;}
	.st405{fill:#4D789C;}
</style>
<g id="BULINE">
	<circle id="XMLID_446_" class="st4" cx="256" cy="256" r="256"/>
</g>
<g id="Icons">
	<g id="XMLID_504_">
		<path id="XMLID_946_" class="st60" d="M493.8,222.7c0,8.2,8.3,17.7,5.9,25.1c-2.5,7.7-14.9,10.4-19.5,16.8
			c-4.7,6.5-3.5,19.1-10,23.8c-6.4,4.7-18-0.3-25.7,2.2c-0.2,0.1-0.4,0.1-0.6,0.2c-7.2,2.8-13.4,13.1-21.4,13.1
			c-8.2,0-14.6-10.9-22.1-13.3c-7.7-2.5-19.3,2.5-25.7-2.2c-6.5-4.7-5.3-17.3-10-23.8c-4.7-6.4-17-9.1-19.5-16.8
			c-2.4-7.4,5.9-16.9,5.9-25.1c0-8.2-8.3-17.7-5.9-25.1c2.5-7.7,14.9-10.4,19.5-16.8c4.7-6.5,3.5-19.1,10-23.8
			c6.4-4.7,18,0.3,25.7-2.2c7.4-2.4,13.8-13.3,22.1-13.3c8,0,14.3,10.3,21.4,13.1c0.2,0.1,0.4,0.2,0.6,0.2
			c7.7,2.5,19.3-2.5,25.7,2.2c6.5,4.7,5.3,17.3,10,23.8c4.7,6.4,17,9.1,19.5,16.8C502.2,205,493.8,214.4,493.8,222.7z"/>
		<path id="XMLID_960_" class="st60" d="M162.6,222.7c0,8.2,8.3,17.7,5.9,25.1c-2.5,7.7-14.9,10.4-19.5,16.8
			c-4.7,6.5-3.5,19.1-10,23.8c-6.4,4.7-18-0.3-25.7,2.2c-0.2,0.1-0.4,0.1-0.6,0.2c-7.2,2.8-13.4,13.1-21.4,13.1
			c-8.2,0-14.6-10.9-22.1-13.3c-7.7-2.5-19.3,2.5-25.7-2.2c-6.5-4.7-5.3-17.3-10-23.8c-4.7-6.4-17-9.1-19.5-16.8
			c-2.4-7.4,5.9-16.9,5.9-25.1c0-8.2-8.3-17.7-5.9-25.1c2.5-7.7,14.9-10.4,19.5-16.8c4.7-6.5,3.5-19.1,10-23.8
			c6.4-4.7,18,0.3,25.7-2.2c7.4-2.4,13.8-13.3,22.1-13.3c8,0,14.3,10.3,21.4,13.1c0.2,0.1,0.4,0.2,0.6,0.2
			c7.7,2.5,19.3-2.5,25.7,2.2c6.5,4.7,5.3,17.3,10,23.8c4.7,6.4,17,9.1,19.5,16.8C170.9,205,162.6,214.4,162.6,222.7z"/>
		<path id="XMLID_982_" class="st45" d="M268.3,343.4c0,14.4,14.6,31,10.4,44c-4.4,13.5-26.1,18.3-34.2,29.5
			c-8.3,11.3-6.2,33.4-17.5,41.6c-11.2,8.2-31.5-0.6-45,3.8c-0.4,0.1-0.7,0.2-1.1,0.4c-1.6,0.6-3.1,1.4-4.7,2.4
			c-3.1,1.9-6.1,4.5-9.1,7.1c-7.5,6.5-15.1,13.5-23.8,13.5c-14.4,0-25.6-19.1-38.7-23.4c-13.5-4.4-33.8,4.4-45-3.8
			c-11.4-8.2-9.2-30.3-17.5-41.6c-8.2-11.2-29.8-16-34.2-29.5c-4.2-13,10.4-29.6,10.4-44c0-14.4-14.6-31-10.4-44
			c4.4-13.5,26.1-18.3,34.2-29.5c8.3-11.3,6.2-33.4,17.5-41.6c11.2-8.2,31.5,0.6,45-3.8c13-4.2,24.2-23.4,38.7-23.4
			c8.7,0,16.3,7,23.8,13.5c3,2.6,6,5.1,9.1,7.1c1.5,1,3.1,1.8,4.7,2.4c0.3,0.2,0.7,0.3,1.1,0.4c13.5,4.4,33.8-4.4,45,3.8
			c11.3,8.2,9.2,30.3,17.5,41.6c8.2,11.2,29.8,16,34.2,29.5C282.9,312.5,268.3,329,268.3,343.4z"/>
		<path id="XMLID_978_" class="st60" d="M268.3,343.4c0,14.4,14.6,31,10.4,44c-4.4,13.5-26.1,18.3-34.2,29.5
			c-8.3,11.3-6.2,33.4-17.5,41.6c-11.2,8.2-31.5-0.6-45,3.8c-0.4,0.1-0.7,0.2-1.1,0.4c-1.6,0.6-3.1,1.4-4.7,2.4
			c-1.9-1.2-3.8-2.2-5.8-2.8c-13.5-4.4-33.8,4.4-45-3.8c-11.3-8.2-9.2-30.3-17.5-41.6c-8.2-11.2-29.9-16-34.2-29.5
			c-4.2-13,10.4-29.6,10.4-44c0-14.4-14.6-31-10.4-44c4.4-13.5,26-18.3,34.2-29.5c8.3-11.3,6.2-33.4,17.5-41.6
			c11.2-8.2,31.5,0.6,45-3.8c2-0.6,3.9-1.6,5.8-2.8c1.5,1,3.1,1.8,4.7,2.4c0.3,0.2,0.7,0.3,1.1,0.4c13.5,4.4,33.8-4.4,45,3.8
			c11.3,8.2,9.2,30.3,17.5,41.6c8.2,11.2,29.8,16,34.2,29.5C282.9,312.5,268.3,329,268.3,343.4z"/>
		<path id="XMLID_981_" class="st45" d="M493.9,343.4c0,14.4,14.6,31,10.3,44c-4.4,13.5-26.1,18.3-34.2,29.5
			c-8.3,11.3-6.2,33.4-17.5,41.6c-11.2,8.2-31.5-0.6-45,3.8c-0.4,0.1-0.7,0.2-1.1,0.4c-4.7,1.8-9.3,5.6-13.8,9.5
			c-7.5,6.5-15.1,13.5-23.8,13.5c-11.2,0-20.6-11.7-30.3-18.8c-2.7-2-5.5-3.7-8.4-4.6c-13.5-4.4-33.8,4.4-45-3.8
			c-11.3-8.2-9.2-30.3-17.5-41.6c-8.2-11.2-29.8-16-34.2-29.5c-4.2-13,10.4-29.6,10.4-44c0-14.4-14.6-31-10.4-44
			c4.4-13.5,26.1-18.3,34.2-29.5c8.3-11.3,6.2-33.4,17.5-41.6c11.2-8.2,31.5,0.6,45-3.8c2.9-0.9,5.6-2.6,8.4-4.6
			c9.7-7.1,19-18.8,30.3-18.8c8.7,0,16.3,7,23.8,13.5c4.5,3.9,9,7.6,13.8,9.5c0.4,0.2,0.7,0.3,1.1,0.4c13.5,4.4,33.8-4.4,45,3.8
			c11.3,8.2,9.2,30.3,17.5,41.6c8.2,11.2,29.8,16,34.2,29.5C508.4,312.5,493.9,329,493.9,343.4z"/>
		<path id="XMLID_979_" class="st60" d="M433.2,343.4c0,14.4,14.6,31,10.4,44c-4.4,13.5-26.1,18.3-34.2,29.5
			c-8.3,11.3-6.2,33.4-17.5,41.6c-11.2,8.2-31.5-0.6-45,3.8c-0.4,0.1-0.7,0.2-1.1,0.4c-2.5,1-4.9,2.4-7.3,4.2
			c-2.7-2-5.5-3.7-8.4-4.6c-13.5-4.4-33.8,4.4-45-3.8c-11.3-8.2-9.2-30.3-17.5-41.6c-8.2-11.2-29.8-16-34.2-29.5
			c-4.2-13,10.4-29.6,10.4-44c0-14.4-14.6-31-10.4-44c4.4-13.5,26.1-18.3,34.2-29.5c8.3-11.3,6.2-33.4,17.5-41.6
			c11.2-8.2,31.5,0.6,45-3.8c2.9-0.9,5.6-2.6,8.4-4.6c2.4,1.7,4.8,3.2,7.3,4.2c0.3,0.2,0.7,0.3,1.1,0.4c13.5,4.4,33.8-4.4,45,3.8
			c11.3,8.2,9.2,30.3,17.5,41.6c8.1,11.2,29.8,16,34.2,29.5C447.8,312.5,433.2,329,433.2,343.4z"/>
		<g id="XMLID_947_">
			<path id="XMLID_955_" class="st45" d="M205.6,128c-2.1,9,4.6,21.6,0,29.1c-4.7,7.8-19,7.6-25.8,13.5c-6.9,5.9-8.8,20-17.1,23.5
				c-8.2,3.5-19.7-5-28.8-4.3c-0.2,0-0.5,0-0.7,0.1c-8.6,1.2-18.2,10.9-27,8.9c-9-2.1-13.3-15.8-20.8-20.4c-7.8-4.7-21.8-2.2-27.7-9
				c-5.9-6.8-1.3-20.4-4.8-28.7c-3.5-8.3-16.4-14.5-17.1-23.6c-0.7-8.8,10.9-17,13-26.1c2.1-9-4.6-21.6,0-29.1
				c4.7-7.8,19-7.6,25.8-13.5c6.9-5.9,8.8-20,17.1-23.5c8.2-3.5,19.7,5,28.8,4.3c8.8-0.7,18.7-11.1,27.7-9c8.8,2.1,13,15,20.2,20
				c0.2,0.1,0.4,0.3,0.6,0.4c7.8,4.7,21.8,2.2,27.7,9c5.9,6.8,1.3,20.4,4.8,28.7c3.5,8.3,16.4,14.5,17.1,23.6
				C219.4,110.7,207.8,118.9,205.6,128z"/>
			<path id="XMLID_954_" class="st61" d="M205.6,128c-2.1,9,4.6,21.6,0,29.1c-4.7,7.8-19,7.6-25.8,13.5c-6.9,5.9-8.8,20-17.1,23.5
				c-8.2,3.5-19.7-5-28.8-4.3c-0.2,0-0.5,0-0.7,0.1c-0.2-0.1-0.4-0.3-0.6-0.4c-7.8-4.7-21.8-2.2-27.7-9c-5.9-6.8-1.3-20.4-4.8-28.7
				c-3.5-8.3-16.4-14.5-17.1-23.6c-0.7-8.8,10.9-17,13-26.1c2.1-9-4.6-21.6,0-29.1c4.7-7.8,19-7.6,25.8-13.5
				c6.8-5.9,8.8-20,17.1-23.5c8.3-3.5,19.7,5,28.8,4.3c0.2,0,0.5,0,0.7-0.1c0.2,0.1,0.4,0.3,0.6,0.4c7.8,4.7,21.8,2.2,27.7,9
				c5.9,6.8,1.3,20.4,4.8,28.7c3.5,8.3,16.4,14.5,17.1,23.6C219.4,110.7,207.8,118.9,205.6,128z"/>
			<path id="XMLID_953_" class="st3" d="M198.4,59.6c-7.5,6.5-16.7,8.2-20.6,3.7c-3.9-4.5-1-13.4,6.5-19.9
				c7.5-6.5,20.6-3.7,20.6-3.7S205.9,53.1,198.4,59.6z"/>
			<path id="XMLID_952_" class="st45" d="M157.2,118.2c-9.4-3.1-15.5-10.2-13.6-15.9c1.9-5.6,11-7.7,20.4-4.5
				c9.4,3.1,13.6,15.9,13.6,15.9S166.6,121.3,157.2,118.2z"/>
			<path id="XMLID_951_" class="st52" d="M131.4,46.8c7,7,9.2,16.1,5,20.3c-4.2,4.2-13.3,1.9-20.3-5.2s-5-20.3-5-20.3
				S124.4,39.8,131.4,46.8z"/>
			<path id="XMLID_950_" class="st52" d="M97.2,99c9.9-0.1,18,4.7,18,10.6c0.1,5.9-7.9,10.8-17.9,10.9s-18-10.6-18-10.6
				S87.3,99,97.2,99z"/>
			<path id="XMLID_949_" class="st52" d="M78.1,37.4c6.1,7.8,7.2,17.1,2.5,20.8s-13.4,0.2-19.5-7.6s-2.5-20.8-2.5-20.8
				S72.1,29.6,78.1,37.4z"/>
			<path id="XMLID_948_" class="st52" d="M40.9,80.5c9.9-0.3,18.1,4.3,18.2,10.3c0.2,5.9-7.7,11-17.6,11.3S23.3,91.7,23.3,91.7
				S31,80.7,40.9,80.5z"/>
		</g>
		<g id="XMLID_932_">
			<path id="XMLID_943_" class="st45" d="M307.4,128c2.1,9-4.6,21.6,0,29.1c4.7,7.8,19,7.6,25.8,13.5c6.9,5.9,8.8,20,17.1,23.5
				c8.2,3.5,19.7-5,28.8-4.3c0.2,0,0.5,0,0.7,0.1c8.6,1.2,18.2,10.9,27,8.9c9-2.1,13.3-15.8,20.8-20.4c7.8-4.7,21.8-2.2,27.7-9
				c5.9-6.8,1.3-20.4,4.8-28.7c3.5-8.3,16.4-14.5,17.1-23.6c0.7-8.8-10.9-17-13-26.1c-2.1-9,4.6-21.6,0-29.1
				c-4.7-7.8-19-7.6-25.8-13.5c-6.9-5.9-8.8-20-17.1-23.5c-8.2-3.5-19.7,5-28.8,4.3c-8.8-0.7-18.7-11.1-27.7-9
				c-8.8,2.1-13,15-20.2,20c-0.2,0.1-0.4,0.3-0.6,0.4c-7.8,4.7-21.8,2.2-27.7,9c-5.9,6.8-1.3,20.4-4.8,28.7
				c-3.5,8.3-16.4,14.5-17.1,23.6C293.7,110.7,305.3,118.9,307.4,128z"/>
			<path id="XMLID_941_" class="st61" d="M307.4,128c2.1,9-4.6,21.6,0,29.1c4.7,7.8,19,7.6,25.8,13.5c6.9,5.9,8.8,20,17.1,23.5
				c8.2,3.5,19.7-5,28.8-4.3c0.2,0,0.5,0,0.7,0.1c0.2-0.1,0.4-0.3,0.6-0.4c7.8-4.7,21.8-2.2,27.7-9c5.9-6.8,1.3-20.4,4.8-28.7
				c3.5-8.3,16.4-14.5,17.1-23.6c0.7-8.8-10.9-17-13-26.1c-2.1-9,4.6-21.6,0-29.1c-4.7-7.8-19-7.6-25.8-13.5
				c-6.8-5.9-8.8-20-17.1-23.5c-8.3-3.5-19.7,5-28.8,4.3c-0.2,0-0.5,0-0.7-0.1c-0.2,0.1-0.4,0.3-0.6,0.4c-7.8,4.7-21.8,2.2-27.7,9
				c-5.9,6.8-1.3,20.4-4.8,28.7c-3.5,8.3-16.4,14.5-17.1,23.6C293.7,110.7,305.3,118.9,307.4,128z"/>
			<path id="XMLID_940_" class="st3" d="M314.7,59.6c7.5,6.5,16.7,8.2,20.6,3.7c3.9-4.5,1-13.4-6.5-19.9s-20.6-3.7-20.6-3.7
				S307.2,53.1,314.7,59.6z"/>
			<path id="XMLID_938_" class="st45" d="M355.9,118.2c9.4-3.1,15.5-10.2,13.6-15.9c-1.9-5.6-11-7.7-20.4-4.5s-13.6,15.9-13.6,15.9
				S346.5,121.3,355.9,118.2z"/>
			<path id="XMLID_937_" class="st52" d="M381.7,46.8c-7,7-9.2,16.1-5,20.3c4.2,4.2,13.3,1.9,20.3-5.2s5-20.3,5-20.3
				S388.6,39.8,381.7,46.8z"/>
			<path id="XMLID_936_" class="st52" d="M415.9,99c-9.9-0.1-18,4.7-18,10.6c-0.1,5.9,7.9,10.8,17.9,10.9c9.9,0.1,18-10.6,18-10.6
				S425.8,99,415.9,99z"/>
			<path id="XMLID_935_" class="st52" d="M435,37.4c-6.1,7.8-7.2,17.1-2.5,20.8s13.4,0.2,19.5-7.6s2.5-20.8,2.5-20.8
				S441,29.6,435,37.4z"/>
			<path id="XMLID_933_" class="st52" d="M472.1,80.5c-9.9-0.3-18.1,4.3-18.2,10.3c-0.2,5.9,7.7,11,17.6,11.3
				c9.9,0.3,18.2-10.3,18.2-10.3S482,80.7,472.1,80.5z"/>
		</g>
		<path id="XMLID_1264_" class="st62" d="M411.8,267.6c0,1.7,0,3.4,0,5.1c-0.1,8.5-0.4,16.9-1,25.2c-0.3,5.1-0.8,10.2-1.3,15.2
			c-5.9,58.1-22.8,109.7-46.9,148.3c-3.6,5.8-7.4,11.2-11.2,16.4c-6.6,8.7-13.6,16.5-20.9,23.3c-19.4,5.9-39.9,9.6-61,10.6
			c-1.9,0.1-3.8,0.2-5.7,0.2c-2.6,0.1-5.1,0.1-7.7,0.1c-2.4,0-4.9,0-7.3-0.1c-22.7-0.6-44.7-4.2-65.6-10.4
			c-7.7-7.1-15-15.2-21.8-24.3c-3.7-4.9-7.2-10.1-10.7-15.5c-24.1-38.5-41.1-90-47-148c-0.5-5-1-10.2-1.3-15.3
			c-0.5-7.3-0.8-14.7-0.9-22.2c-0.1-2.8-0.1-5.7-0.1-8.6c0-14.8,1.6-29.4,4.4-43.5c1.7-8.6,3.9-17.1,6.5-25.4
			c1.4-4.4,2.9-8.8,4.5-13.1c3.9-10.5,8.4-20.8,13.3-30.7c6.8-13.6,14.4-26.5,22.4-38.8c4.1-6.2,8.3-12.2,12.5-18
			c9.2-12.6,18.7-24.2,28-34.7c2.2-2.5,4.4-5,6.6-7.3c1.3-1.4,2.5-2.8,3.8-4.1C220,34,235,20.3,244.8,11.9c6.7-5.8,16.7-5.8,23.4,0
			c6.5,5.6,15.2,13.5,25.3,23.3c5.2,5.1,10.6,10.7,16.3,16.8c1.2,1.3,2.5,2.7,3.8,4.1c2.2,2.4,4.3,4.8,6.5,7.3
			c9.2,10.5,18.8,22.1,28,34.8c4.2,5.8,8.4,11.8,12.5,18c3.6,5.5,7.1,11.1,10.5,16.8c4.2,7.1,8.1,14.4,11.9,21.9
			c4.9,9.9,9.4,20.2,13.3,30.8c1.6,4.3,3.1,8.7,4.4,13c2.6,8.4,4.9,17.1,6.6,25.8C410.2,238.5,411.8,252.9,411.8,267.6z"/>
		<g id="XMLID_919_">
			<path id="XMLID_930_" class="st63" d="M211.6,445.9c2.5,2.2,5,4.3,7.4,6.4c-3.2-5.6-6.2-11.5-9.1-17.6
				C210.3,440.4,211,444,211.6,445.9z"/>
			<path id="XMLID_1047_" class="st9" d="M411.8,267.6c0,1.7,0,3.4,0,5.1c-0.1,8.5-0.4,16.9-1,25.2c-0.3,5.1-0.8,10.2-1.3,15.2
				c-5.9,58.1-22.8,109.7-46.9,148.3c-3.6,5.8-7.4,11.2-11.2,16.4c-6.6,8.7-13.6,16.5-20.9,23.3c-19.4,5.9-39.9,9.6-61,10.6
				c-1.9-1.4-3.8-2.9-5.7-4.4v-20.6c0-13.3,6.5-25.4,17-32.8c2.9-2.1,6.1-3.8,9.6-5.1c8.4-3.1,17.9-7.4,27.5-13
				c13-7.6,27.5-18.6,40-34c14.8-18.2,26.8-42.7,30.4-75.3c0.4-4-2.4-7.5-6.4-8c-3.9-0.5-7.5,2.4-8,6.4c-1.6,14-4.8,26.9-9.8,38.7
				c-0.7,1.6-1.4,3.2-2.1,4.8c-3.3,7.1-13.7,6.3-15.8-1.2c-1.1-3.7-2.4-7.5-4-11.6c-0.8-2-1.6-4-2.5-6.1c-1.6-3.6-5.9-5.3-9.5-3.7
				c-3.6,1.6-5.3,5.9-3.7,9.5c2.3,5.3,4.1,10.1,5.5,14.6c7,23.5,1.7,35.6,0.4,38c-6.4,5.6-13.6,10.8-21.4,15.4
				c-9.1,5.4-18.1,9.3-26.1,12.3c-3.6,1.3-7.2,1.2-10.4,0.1c-6.1-2-10.7-7.7-10.7-14.8V238.5c7.9-2.1,14.9-5.6,21.1-10.1
				c0.2-0.1,0.3-0.2,0.5-0.4c14.2-10.4,24.2-25.9,31.2-42.2c2-4.6,3.7-9.3,5.3-14c0.7-2,1.3-4,1.9-6c8.2-27.7,9.4-53,9.4-55.2
				c0.2-4-2.9-7.3-6.9-7.5c-4-0.2-7.3,2.9-7.5,6.9c0,0.3-0.4,9.7-2.6,23c-0.8,4.8-5.3,6.7-9,5.6c-2.2-0.6-4-2.3-4.7-5
				c-1.9-7.4-3.1-14.7-3.9-20.8c-1.2-9.9-1.2-16.9-1.2-17.1c0-0.3,0-0.6-0.1-0.9c-0.5-3.5-3.5-6.3-7.1-6.3c-2,0-3.8,0.8-5.1,2.1
				c-0.7,0.7-1.2,1.5-1.6,2.3c-0.4,0.8-0.6,1.8-0.6,2.8c0,0.3,0,1.3,0.1,3.1c0.2,5.8,1,18.9,4.3,33.5c1.3,5.6,2.9,11.5,5,17.2
				c2.6,7.2,6,14.2,10.3,20.5c0.8,1.2,1.6,2.3,2.5,3.4c0.2,0.2,0.4,0.4,0.6,0.7c0,0.1-0.1,0.1-0.1,0.2c-2.6,6.7-5.6,13.3-9.2,19.4
				c-7.8,13.3-18.4,24.4-32.6,29.5V66.9c10.4-12.1,20.6-22.7,29.8-31.7c5.2,5.1,10.6,10.7,16.3,16.8c1.2,1.3,2.5,2.7,3.8,4.1
				c2.2,2.4,4.3,4.8,6.5,7.3c9.2,10.5,18.8,22.1,28,34.8c4.2,5.8,8.4,11.8,12.5,18c3.6,5.5,7.1,11.1,10.5,16.8
				c4.2,7.1,8.1,14.4,11.9,21.9c4.9,9.9,9.4,20.2,13.3,30.8c1.6,4.3,3.1,8.7,4.4,13c2.6,8.4,4.9,17.1,6.6,25.8
				C410.2,238.5,411.8,252.9,411.8,267.6z"/>
			<path id="XMLID_927_" class="st9" d="M207.7,174.2c8.1,21.3,21,41.5,41.6,49.1v-139c-6.7,8.5-13.4,17.6-19.9,27.2
				c-1.8,16.8-6.8,43.7-21.2,62.1C208,173.8,207.9,174,207.7,174.2z"/>
			<path id="XMLID_926_" class="st9" d="M210.4,368.7c4,0.8,6.5,4.7,5.6,8.7c-6.5,28-7,46.4-6.2,57.3c2.9,6.1,5.9,12,9.1,17.6
				c1.6,1.3,3.1,2.6,4.7,3.8c10.4,8.2,25.7,0.9,25.7-12.4V238.5c-29-8-45.9-34-55.7-60.5c-11.2,28-18.4,58.1-18.4,89.6
				c0,49.3,7.9,95.5,21.6,135.1c1.1-8.2,2.7-17.6,5.1-28.2C202.8,370.6,206.6,367.9,210.4,368.7z"/>
			<path id="XMLID_983_" class="st64" d="M263.7,507.2v4.6c-2.6,0.1-5.1,0.1-7.7,0.1c-2.4,0-4.9,0-7.3-0.1
				c-2.1-14-9.8-26.8-21.6-35.1c-5.8-4.1-12.3-9-19-14.7c-2.2-1.9-4.5-3.8-6.7-5.8c-0.6-0.4-1.1-0.9-1.6-1.4c-0.3-0.3-0.7-0.6-1-0.9
				c-14.7-13.5-26.7-27.7-35.8-42.2c-13.5-21.4-20.9-43.7-21.6-65.9c-0.1-4,3-7.3,6.9-7.5c4-0.1,7.3,3,7.5,7
				c0.2,4.8,0.7,9.5,1.5,14.2c3.4,19.5,12.2,37.2,23.3,52.6c4.6,6.4,14.7,3.7,15.6-4.2c0.2-1.6,0.4-3.4,0.6-5.1
				c3.9,11.2,8.3,21.9,13,32c0.4,5.8,1.2,9.4,1.7,11.2c2.5,2.2,5,4.3,7.4,6.4c1.6,2.8,3.2,5.5,4.8,8.1
				C235.5,479.3,249,495.2,263.7,507.2z"/>
			<path id="XMLID_924_" class="st64" d="M263.7,17.9c0-3.9-3-7.4-7-7.5c-4.1-0.1-7.4,3.2-7.4,7.2v66.7c4.8-6.1,9.6-11.9,14.4-17.4
				V17.9z"/>
			<path id="XMLID_923_" class="st64" d="M230.4,96c0-4-3.2-7.2-7.2-7.2h0c-4,0-7.2,3.2-7.2,7.2c0,0.3-0.1,20.9-6.1,41.5
				c-1.8,6.3-11,5.8-12.1-0.7c-2.7-15.2-3.2-26.2-3.2-26.6c-0.2-4-3.5-7.1-7.5-6.9c-4,0.2-7.1,3.5-6.9,7.5
				c0.1,2.5,1.6,35.2,13.5,67.2c9.6-23.9,22.2-46.3,35.8-66.5C230.3,102.7,230.4,96.7,230.4,96z"/>
			<path id="XMLID_921_" class="st65" d="M216.1,377.3c0.9-3.9-1.6-7.9-5.6-8.7c-3.9-0.8-7.6,1.9-8.5,5.8c-2.4,10.6-4.1,20-5.1,28.2
				c3.9,11.2,8.3,21.9,13,32C209,423.8,209.6,405.3,216.1,377.3z"/>
			<path id="XMLID_920_" class="st65" d="M263.7,486.7L263.7,486.7c0-17,10.6-32,26.5-37.9c8.4-3.1,17.9-7.4,27.5-13
				c28.4-16.6,63.7-49.1,70.5-109.3c0.4-4-2.4-7.5-6.4-8c-4-0.4-7.5,2.4-8,6.4c-1.8,15.9-5.8,30.4-11.9,43.4
				c-3.3,7.1-13.7,6.3-15.9-1.2c-1.6-5.5-3.7-11.4-6.5-17.8c-1.6-3.6-5.9-5.3-9.5-3.7c-3.6,1.6-5.3,5.9-3.7,9.5
				c14.7,33.1,7.3,49.7,5.8,52.5c-6.4,5.6-13.6,10.8-21.4,15.4c-9.1,5.4-18.1,9.3-26.1,12.3c-10.2,3.8-21.1-3.8-21.1-14.7V238.5
				c64.4-17.5,69.3-123.1,69.5-127.8c0.2-4-2.9-7.3-6.9-7.5c-4-0.2-7.3,2.9-7.5,6.9c0,0.3-0.4,9.7-2.6,23c-1.2,7.5-11.8,8-13.7,0.7
				c-5-19.4-5.1-37.6-5.1-37.9c0-4-3.2-7.2-7.2-7.2c0,0,0,0,0,0c-4,0-7.2,3.2-7.2,7.2c0,2,0.2,49.7,22.1,77.6
				c0.2,0.2,0.4,0.4,0.6,0.6c-8.1,21.3-21.1,41.6-41.9,49.2V66.9c-4.8,5.5-9.6,11.3-14.4,17.4v139c-20.7-7.6-33.6-27.8-41.6-49.1
				c0.2-0.2,0.4-0.4,0.5-0.6c14.4-18.3,19.4-45.2,21.2-62.1c-13.6,20.2-26.2,42.5-35.8,66.5c9.8,26.5,26.7,52.5,55.7,60.5v205.2
				c0,13.2-15.3,20.6-25.7,12.4c-1.5-1.2-3.1-2.5-4.7-3.8c12.8,22.6,27.9,41.3,44.8,55V486.7C263.7,486.7,263.7,486.7,263.7,486.7z"
				/>
		</g>
		<g id="XMLID_505_">
			<path id="XMLID_918_" class="st66" d="M164.1,276.7l-2-1.7c-10.2-8.7-26-4.9-31.1,7.6l-9.1,22.4c-2.8,7-10.4,10.8-17.7,9l-14-3.5
				"/>
			<path id="XMLID_917_" class="st66" d="M359.5,276.7l2-1.7c10.2-8.7,26-4.9,31.1,7.6l9.1,22.4c2.8,7,10.4,10.8,17.7,9l14-3.5"/>
			<path id="XMLID_916_" class="st66" d="M148.6,132.6l6.6,3.8c6.3,3.6,9.6,11,7.9,18.1l-6.5,28.5c-2.5,11.1,1.3,22.7,10,30.1
				l23.3,19.7"/>
			<path id="XMLID_915_" class="st66" d="M371.8,132.6l-6.6,3.8c-6.3,3.6-9.6,11-7.9,18.1l6.5,28.5c2.5,11.1-1.3,22.7-10,30.1
				l-23.3,19.7"/>
			<path id="XMLID_914_" class="st66" d="M371.8,425.8l-6.6-3.8c-6.3-3.6-9.6-11-7.9-18.1l6.5-28.5c2.5-11.1-1.3-22.7-10-30.1
				l-23.3-19.7"/>
			<path id="XMLID_913_" class="st66" d="M148.6,425.8l6.6-3.8c6.3-3.6,9.6-11,7.9-18.1l-6.5-28.5c-2.5-11.1,1.3-22.7,10-30.1
				l23.3-19.7"/>
			<path id="XMLID_912_" class="st67" d="M280.4,126.5c0,2.7-0.7,5.2-1.8,7.5c-0.8,1.4-1.7,2.7-2.8,3.9c-2.9,2.9-6.9,4.7-11.3,4.7
				H256c-6.1,0-11.5-3.5-14.2-8.5c-1.2-2.2-1.8-4.8-1.8-7.5c0-4.4,1.8-8.4,4.7-11.3c2.9-2.9,6.9-4.7,11.3-4.7h8.4
				C273.2,110.5,280.4,117.7,280.4,126.5z"/>
			<path id="XMLID_911_" class="st68" d="M278.6,134c-0.8,1.4-1.7,2.7-2.8,3.9c-2.9,2.9-6.9,4.7-11.3,4.7H256
				c-6.1,0-11.5-3.5-14.2-8.5c0.8-1.4,1.7-2.7,2.8-3.9c2.9-2.9,6.9-4.7,11.3-4.7h8.4C270.5,125.4,275.9,128.9,278.6,134z"/>
			<path id="XMLID_909_" class="st2" d="M312.4,157.4c0,6.9-2.8,13.1-7.3,17.6c-4.5,4.5-10.7,7.3-17.6,7.3h-54.7
				c-13.7,0-24.8-11.1-24.8-24.8c0-2.5,0.4-4.9,1-7.1c1.2-4,3.4-7.6,6.2-10.4c4.5-4.5,10.7-7.3,17.6-7.3h54.7
				c11.2,0,20.6,7.4,23.7,17.5C312,152.4,312.4,154.9,312.4,157.4z"/>
			<path id="XMLID_906_" class="st69" d="M312.4,157.4c0,6.9-2.8,13.1-7.3,17.6c-4.5,4.5-10.7,7.3-17.6,7.3h-13.9
				c-13.7,0-24.8-11.1-24.8-24.8c0-6.9,2.8-13.1,7.3-17.6c4.5-4.5,10.7-7.3,17.6-7.3h13.9C301.3,132.6,312.4,143.7,312.4,157.4z"/>
			<path id="XMLID_903_" class="st66" d="M252.1,120.2l-8.3-10.5c-3.5-4.4-5.4-9.8-5.4-15.5V77.7"/>
			<path id="XMLID_902_" class="st66" d="M269.8,120.2l8.3-10.5c3.5-4.4,5.4-9.8,5.4-15.5V77.7"/>
			<path id="XMLID_900_" class="st70" d="M311.3,150.1c-2.6,1.9-5.8,3-9.3,3c-8.8,0-15.9-7.1-15.9-15.9c0-1.6,0.2-3.2,0.7-4.6h0.7
				C298.7,132.6,308.1,139.9,311.3,150.1z"/>
			<path id="XMLID_899_" class="st70" d="M233.9,137.2c0,8.8-7.1,15.9-15.9,15.9c-3.3,0-6.4-1-9-2.8c1.2-4,3.4-7.6,6.2-10.4
				c4.5-4.5,10.7-7.3,17.6-7.3h0.4C233.6,134,233.9,135.6,233.9,137.2z"/>
			<path id="XMLID_898_" class="st29" d="M339.5,185.9c-0.5-0.7-0.9-1.4-1.4-2c-2.2-3.1-4.8-5.7-7.8-7.8c-2.4-1.7-5.1-3-7.9-4
				c-0.9,12.3-11.2,21.9-23.7,21.9c-13.1,0-23.7-10.6-23.7-23.7c0,0,0,0,0,0h-29.8c0,0,0,0,0,0c0,13.1-10.6,23.7-23.7,23.7
				c-12.5,0-22.7-9.6-23.7-21.9c-6.2,2.2-11.6,6.2-15.5,11.7c-16.5,23.6-26.6,54.7-26.6,88.9c0,23.9,4.9,46.3,13.5,65.7
				c6.8,15.2,15.8,28.6,26.5,39.3c17.8,17.8,40.1,28.4,64.4,28.4c24.3,0,46.7-10.6,64.4-28.4c10.7-10.7,19.8-24.1,26.5-39.3
				c1.1-2.4,2.1-4.9,3-7.4c6.7-17.6,10.5-37.4,10.5-58.3C364.7,239.5,355.2,209.2,339.5,185.9z"/>
			<path id="XMLID_897_" class="st71" d="M260.2,170.2v235.8c-57.7,0-104.5-59.7-104.5-133.3c0-34.1,10.1-65.3,26.6-88.9
				c6-8.6,15.9-13.6,26.4-13.6H260.2z"/>
			<circle id="XMLID_896_" class="st72" cx="221.5" cy="272.2" r="23.7"/>
			<path id="XMLID_895_" class="st72" d="M221.5,194c13.1,0,23.7-10.6,23.7-23.7c0,0,0,0,0,0h-36.5c-3.8,0-7.4,0.6-10.9,1.9
				c0,0,0,0,0,0C198.7,184.4,209,194,221.5,194z"/>
			<path id="XMLID_893_" class="st72" d="M298.7,194c12.5,0,22.7-9.7,23.7-21.9c-3.4-1.2-7-1.8-10.7-1.8H275c0,0,0,0,0,0
				C275,183.4,285.6,194,298.7,194z"/>
			<circle id="XMLID_892_" class="st72" cx="187.3" cy="211.9" r="10.8"/>
			<circle id="XMLID_891_" class="st68" cx="291.4" cy="329.1" r="10.8"/>
			<circle id="XMLID_890_" class="st72" cx="229.2" cy="329.1" r="10.8"/>
			<path id="XMLID_889_" class="st72" d="M205.4,358.6c0,7.8-3.8,14.8-9.7,19.1C185,367,176,353.6,169.2,338.4
				c3.6-2.2,7.9-3.5,12.5-3.5C194.8,334.8,205.4,345.5,205.4,358.6z"/>
			<path id="XMLID_888_" class="st72" d="M351.1,338.4c-6.8,15.2-15.8,28.6-26.5,39.3c-5.9-4.3-9.7-11.3-9.7-19.1
				c0-13.1,10.6-23.7,23.7-23.7C343.2,334.8,347.5,336.1,351.1,338.4z"/>
			<path id="XMLID_885_" class="st73" d="M339.5,185.9c-4.9,4.7-9.2,10-12.9,15.7c1-0.3,2-0.5,3.1-0.5c6,0,10.8,4.8,10.8,10.8
				c0,6-4.8,10.8-10.8,10.8c-4.9,0-9.1-3.3-10.4-7.8c-5.1,11.4-7.9,24-8,37.3c6.7,4.2,11.1,11.6,11.1,20.1c0,5.4-1.8,10.3-4.8,14.3
				c7.2,18.4,20.1,34,36.5,44.5c6.7-17.6,10.5-37.4,10.5-58.3C364.7,239.6,355.2,209.2,339.5,185.9z"/>
			<path id="XMLID_881_" class="st68" d="M318.9,211.9c0,1,0.2,2,0.4,3c2.1-4.6,4.5-9.1,7.3-13.3C322.1,202.9,318.9,207,318.9,211.9
				z"/>
			<path id="XMLID_813_" class="st74" d="M329.6,222.7c6,0,10.8-4.8,10.8-10.8c0-6-4.8-10.8-10.8-10.8c-1.1,0-2.1,0.2-3.1,0.5
				c-2.8,4.2-5.2,8.6-7.3,13.3C320.6,219.3,324.7,222.7,329.6,222.7z"/>
			<path id="XMLID_812_" class="st72" d="M311.3,252.1c-3.6-2.3-8-3.6-12.6-3.6c-13.1,0-23.7,10.6-23.7,23.7
				c0,13.1,10.6,23.7,23.7,23.7c7.7,0,14.6-3.7,19-9.5c-4.1-10.5-6.4-21.9-6.4-33.9C311.3,252.4,311.3,252.3,311.3,252.1z"/>
			<path id="XMLID_802_" class="st74" d="M311.3,252.1c0,0.2,0,0.3,0,0.5c0,12,2.3,23.4,6.4,33.9c3-4,4.8-8.9,4.8-14.3
				C322.4,263.8,318,256.3,311.3,252.1z"/>
		</g>
	</g>
</g>
</svg>
