<?xml version="1.0" encoding="utf-8"?>
<!-- Generator: Adobe Illustrator 22.0.1, SVG Export Plug-In . SVG Version: 6.00 Build 0)  -->
<svg version="1.1" xmlns="http://www.w3.org/2000/svg" xmlns:xlink="http://www.w3.org/1999/xlink" x="0px" y="0px"
	 viewBox="0 0 512 512" style="enable-background:new 0 0 512 512;" xml:space="preserve">
<style type="text/css">
	.st0{fill:#4B71B4;}
	.st1{fill:#80B4E8;}
	.st2{fill:#594144;}
	.st3{fill:#B8E876;}
	.st4{fill:#E09122;}
	.st5{fill:#FBF355;}
	.st6{fill:#EEC82F;}
	.st7{fill:#CEA628;}
	.st8{fill:#9BC9EF;}
	.st9{fill:#9DD055;}
	.st10{fill:#5686C5;}
	.st11{fill:#3B5880;}
	.st12{fill:#C2E5FB;}
	.st13{fill:#446697;}
	.st14{fill:#D1F1A0;}
	.st15{fill:#ABD170;}
	.st16{fill:#9DBD6A;}
	.st17{fill:#649D53;}
	.st18{fill:#72B35D;}
	.st19{fill:#ABD68D;}
	.st20{fill:#7FB358;}
	.st21{fill:#920C50;}
	.st22{fill:#C60053;}
	.st23{fill:#530730;}
	.st24{fill:#600332;}
	.st25{fill:#D5AC2A;}
	.st26{fill:#EFD776;}
	.st27{fill:#A7C76D;}
	.st28{fill:#A43749;}
	.st29{fill:#DC4355;}
	.st30{fill:#E18696;}
	.st31{fill:#77A255;}
	.st32{fill:#628547;}
	.st33{fill:#6E994D;}
	.st34{fill:none;stroke:#54743C;stroke-width:8;stroke-linecap:round;stroke-miterlimit:10;}
	.st35{fill:#9BCF75;}
	.st36{fill:#CA8F80;}
	.st37{fill:#E6B8AB;}
	.st38{fill:#E2A18B;}
	.st39{fill:#8E3F2B;}
	.st40{fill:#D89988;}
	.st41{fill:#CFCFCF;}
	.st42{fill:#A64B2D;}
	.st43{fill:#FFFFFF;}
	.st44{fill:#CA801F;}
	.st45{fill:#719C50;}
	.st46{fill:#85B7E5;}
	.st47{fill:#4F7BA9;}
	.st48{fill:#674C50;}
	.st49{fill:#BAD7ED;}
	.st50{fill:#63494D;}
	.st51{fill:#503D3F;}
	.st52{fill:#638547;}
	.st53{fill:#56713E;}
	.st54{fill:#BB5135;}
	.st55{fill:#93C4EC;}
	.st56{fill:#CA8121;}
	.st57{fill:#FDFCFC;}
	.st58{fill:#A83A4F;}
	.st59{fill:#BD5E44;}
	.st60{fill:#688C4A;}
	.st61{fill:#7DA55A;}
	.st62{fill:#90BA51;}
	.st63{fill:none;}
	.st64{fill:#ABC287;}
	.st65{fill:#BDD993;}
	.st66{fill:none;stroke:#534046;stroke-width:15;stroke-linecap:round;stroke-linejoin:round;stroke-miterlimit:10;}
	.st67{fill:#413133;}
	.st68{fill:#34292B;}
	.st69{fill:#644B50;}
	.st70{fill:#CDACB7;}
	.st71{fill:#A83A4D;}
	.st72{fill:#413335;}
	.st73{fill:#DC6579;}
	.st74{fill:#4C393C;}
	.st75{fill:#527FAE;}
	.st76{fill:#92C2EA;}
	.st77{fill:#5B8C4A;}
	.st78{fill:#729C51;}
	.st79{fill:#AADB5E;}
	.st80{fill:#D66C53;}
	.st81{fill:#A65340;}
	.st82{fill:#B8594A;}
	.st83{fill:#79A754;}
	.st84{fill:#4E3B3E;}
	.st85{fill:#5E4649;}
	.st86{fill:#604A50;}
	.st87{fill:#685258;}
	.st88{fill:#765E66;}
	.st89{fill:#FCF69A;}
	.st90{fill:#D3CC84;}
	.st91{fill:#E6A572;}
	.st92{fill:#74A151;}
	.st93{fill:#6F994F;}
	.st94{fill:#CC6D7D;}
	.st95{fill:#AD6576;}
	.st96{fill:#95422D;}
	.st97{fill:#BE6850;}
	.st98{fill:#3B2F32;}
	.st99{fill:none;stroke:#46383B;stroke-width:15;stroke-linecap:round;stroke-miterlimit:10;}
	.st100{fill:none;stroke:#3B2F32;stroke-width:15;stroke-linecap:round;stroke-miterlimit:10;}
	.st101{fill:#D6CF77;}
	.st102{fill:#F5EF82;}
	.st103{fill:#4A383B;}
	.st104{fill:#CACACA;}
	.st105{fill:#48373A;}
	.st106{fill:#7AA8D2;}
	.st107{fill:#6E9150;}
	.st108{fill:#587441;}
	.st109{fill:#D76E51;}
	.st110{fill:#CCC475;}
	.st111{fill:#DDD57E;}
	.st112{fill:#F8F19C;}
	.st113{fill:#FBF58A;}
	.st114{fill:#C67F20;}
	.st115{fill:#AB6B1C;}
	.st116{fill:#C98020;}
	.st117{fill:#D99A41;}
	.st118{fill:#DBA35B;}
	.st119{fill:#9B5F1B;}
	.st120{fill:#97CF6D;}
	.st121{fill:#5380B1;}
	.st122{fill:#96D16A;}
	.st123{fill:#92BD50;}
	.st124{fill:#7EB058;}
	.st125{fill:#709A50;}
	.st126{fill:#5A8A4A;}
	.st127{fill:#D9D9D9;}
	.st128{fill:#75A3CD;}
	.st129{fill:#6E974F;}
	.st130{fill:#CA6D7D;}
	.st131{fill:#AB6576;}
	.st132{fill:#93422D;}
	.st133{fill:#A44B2D;}
	.st134{fill:#BC6850;}
	.st135{fill:#DFB52B;}
	.st136{fill:#4C3A3C;}
	.st137{fill:#473538;}
	.st138{fill:#382B2E;}
	.st139{fill:none;stroke:#FFFFFF;stroke-width:8;stroke-linecap:round;stroke-miterlimit:10;}
	.st140{fill:#90C0E8;}
	.st141{fill:none;stroke:#E09122;stroke-width:12;stroke-linecap:round;stroke-miterlimit:10;}
	.st142{fill:#DCAE2B;}
	.st143{fill:#F0D05A;}
	.st144{fill:#729E51;}
	.st145{fill:#E4BA36;}
	.st146{fill:#F8F283;}
	.st147{fill:#E4B6A9;}
	.st148{fill:#D78E30;}
	.st149{fill:#598A49;}
	.st150{fill:#B65339;}
	.st151{fill:#BA751F;}
	.st152{fill:#466A9F;}
	.st153{fill:#8BB34D;}
	.st154{fill:#9BCE54;}
	.st155{fill:#7F9F49;}
	.st156{fill:#D37F6D;}
	.st157{fill:#BB5E44;}
	.st158{fill:#93BB55;}
	.st159{fill:#B3E665;}
	.st160{fill:none;stroke:#4C393C;stroke-width:8;stroke-miterlimit:10;}
	.st161{fill:#97432D;}
	.st162{fill:#DAB12A;}
	.st163{fill:#5E914C;}
	.st164{fill:#5381B3;}
	.st165{fill:#6A8F4C;}
	.st166{fill:#628047;}
	.st167{fill:#E29D37;}
	.st168{fill:#6E555B;}
	.st169{fill:#91CA67;}
	.st170{fill:#476BA1;}
	.st171{fill:#6699D9;}
	.st172{fill:#503C3E;}
	.st173{fill:#413235;}
	.st174{fill:#CC916A;}
	.st175{fill:#BA8363;}
	.st176{fill:#D09571;}
	.st177{fill:#C98F68;}
	.st178{fill:#AA3B4D;}
	.st179{fill:#DA6075;}
	.st180{fill:#92452D;}
	.st181{fill:#A24B2D;}
	.st182{fill:#B76252;}
	.st183{fill:#87BD60;}
	.st184{fill:#78A7D2;}
	.st185{fill:#F9F38F;}
	.st186{fill:#E0D650;}
	.st187{fill:#AFE086;}
	.st188{fill:#9FD476;}
	.st189{fill:#9DD176;}
	.st190{fill:#8FC468;}
	.st191{fill:#7EAE58;}
	.st192{fill:#6F9850;}
	.st193{fill:#59884A;}
	.st194{fill:#638347;}
	.st195{fill:#B95135;}
	.st196{fill:#E5AB62;}
	.st197{fill:#733228;}
	.st198{fill:#803728;}
	.st199{fill:#6D974D;}
	.st200{fill:#99CD75;}
	.st201{fill:#93412C;}
	.st202{fill:#93C2EA;}
	.st203{fill:#CD926B;}
	.st204{fill:#E6AF8A;}
	.st205{fill:#E5DB4E;}
	.st206{fill:#FBF375;}
	.st207{fill:#779E54;}
	.st208{fill:#D3966D;}
	.st209{fill:#DA4355;}
	.st210{fill:#A83B4D;}
	.st211{fill:none;stroke:#594144;stroke-width:8;stroke-linecap:round;stroke-miterlimit:10;}
	.st212{fill:#E5A855;}
	.st213{fill:#EAC291;}
	.st214{fill:#96C252;}
	.st215{fill:#695055;}
	.st216{fill:#DC9C42;}
	.st217{fill:#8E5C1B;}
	.st218{fill:#F4EB6A;}
	.st219{fill:#CBC049;}
	.st220{fill:none;stroke:#B8E876;stroke-width:15;stroke-linecap:round;stroke-miterlimit:10;}
	.st221{fill:#A36A1C;}
	.st222{fill:#ECC94A;}
	.st223{fill:#91BEDA;}
	.st224{fill:#3D2F32;}
	.st225{fill:#A6394C;}
	.st226{fill:#33292B;}
	.st227{fill:#4F3D42;}
	.st228{fill:#638147;}
	.st229{fill:#CD8321;}
	.st230{fill:#D3CA4A;}
	.st231{fill:#E2A550;}
	.st232{fill:#B75135;}
	.st233{fill:#D4CD77;}
	.st234{fill:#F3EC80;}
	.st235{fill:#46383B;}
	.st236{fill:#82AA61;}
	.st237{fill:#8EBF69;}
	.st238{fill:#3C2E31;}
	.st239{fill:#C49F27;}
	.st240{fill:#D2BF7C;}
	.st241{fill:#F6E18D;}
	.st242{fill:#D6D6D6;}
	.st243{fill:#B5D7F2;}
	.st244{fill:#F1D467;}
	.st245{fill:#739FBD;}
	.st246{fill:#D0946C;}
	.st247{fill:#BE8767;}
	.st248{fill:#D0A829;}
	.st249{fill:#F6DF86;}
	.st250{fill:#EABA8D;}
	.st251{fill:#F0D1B8;}
	.st252{fill:#A5D0F1;}
	.st253{fill:#E3A13F;}
	.st254{fill:#F0FAFF;}
	.st255{fill:#B4D3E3;}
	.st256{fill:#80A5C3;}
	.st257{fill:#87AFD5;}
	.st258{fill:#B1D1E7;}
	.st259{fill:#AED66F;}
	.st260{fill:#91AA61;}
	.st261{fill:#A8384B;}
	.st262{fill:#CD8120;}
	.st263{fill:#E6AD56;}
	.st264{fill:none;stroke:#E6AD56;stroke-width:8;stroke-linecap:round;stroke-miterlimit:10;}
	.st265{fill:#9EBD68;}
	.st266{fill:#AAD16E;}
	.st267{fill:#86656B;}
	.st268{fill:#6D954D;}
	.st269{fill:#98CB75;}
	.st270{fill:#75A251;}
	.st271{fill:#91BD4F;}
	.st272{fill:none;stroke:#B8E078;stroke-width:8;stroke-linecap:round;stroke-miterlimit:10;}
	.st273{fill:none;stroke:#B8E078;stroke-width:8;stroke-linecap:round;stroke-linejoin:round;stroke-miterlimit:10;}
	.st274{fill:#8FBA4E;}
	.st275{fill:#B3E860;}
	.st276{fill:#E7A748;}
	.st277{fill:none;stroke:#B6E676;stroke-width:15;stroke-linecap:round;stroke-miterlimit:10;}
	.st278{fill:#639B53;}
	.st279{fill:#476B9F;}
	.st280{fill:#82B1DE;}
	.st281{fill:#A6533F;}
	.st282{fill:#C28A69;}
	.st283{fill:#64494E;}
	.st284{fill:#77565C;}
	.st285{fill:#4F3C40;}
	.st286{fill:#ECCCB1;}
	.st287{fill:#BF6F5C;}
	.st288{fill:none;stroke:#D4F1A7;stroke-width:10;stroke-linecap:round;stroke-miterlimit:10;}
	.st289{fill:none;stroke:#B8E876;stroke-width:10;stroke-linecap:round;stroke-miterlimit:10;}
	.st290{fill:#47688F;}
	.st291{fill:#3F5B78;}
	.st292{fill:#354E6C;}
	.st293{fill:#DAB12B;}
	.st294{fill:#C8A028;}
	.st295{fill:#F0D15C;}
	.st296{fill:#F8F28B;}
	.st297{fill:#F7F18D;}
	.st298{fill:#DED450;}
	.st299{fill:#F9F155;}
	.st300{fill:#A2CFF4;}
	.st301{fill:none;stroke:#594144;stroke-width:10;stroke-linecap:round;stroke-miterlimit:10;}
	.st302{fill:#F5F0AB;}
	.st303{fill:#496DA1;}
	.st304{fill:#5A85C7;}
	.st305{fill:#D7D7D7;}
	.st306{fill:#ADD3E6;}
	.st307{fill:#98B8C3;}
	.st308{fill:#CDCECF;}
	.st309{fill:#BF4F69;}
	.st310{fill:#A83448;}
	.st311{fill:#A4DAF7;}
	.st312{fill:#81A861;}
	.st313{fill:#82A549;}
	.st314{fill:#B6E676;}
	.st315{fill:#8CBD69;}
	.st316{fill:#ECC62F;}
	.st317{fill:#F4EA80;}
	.st318{fill:#D6AD2B;}
	.st319{fill:#6F9151;}
	.st320{fill:#46699C;}
	.st321{fill:#4A373A;}
	.st322{fill:#89B04C;}
	.st323{fill:#99CC53;}
	.st324{fill:#B1E465;}
	.st325{fill:#E19E3B;}
	.st326{fill:#C05970;}
	.st327{fill:#D95F74;}
	.st328{fill:#74A8DE;}
	.st329{fill:#C47C1E;}
	.st330{fill:#719A51;}
	.st331{fill:#A8D95E;}
	.st332{fill:#D46C53;}
	.st333{fill:#A45340;}
	.st334{fill:#B6594A;}
	.st335{fill:#79A554;}
	.st336{fill:#B6DAF7;}
	.st337{fill:#739F51;}
	.st338{fill:#DDB32B;}
	.st339{fill:#DE8F22;}
	.st340{fill:none;stroke:#46383B;stroke-width:8;stroke-linecap:round;stroke-miterlimit:10;}
	.st341{fill:none;stroke:#3B2F32;stroke-width:8;stroke-linecap:round;stroke-miterlimit:10;}
	.st342{fill:#C8C8C8;}
	.st343{fill:#7F9D49;}
	.st344{fill:#BA5E44;}
	.st345{fill:#92B955;}
	.st346{fill:#D17F6D;}
	.st347{fill:#5D8F4C;}
	.st348{fill:#B75334;}
	.st349{fill:#CA6D57;}
	.st350{fill:#A4574D;}
	.st351{fill:#7FB1E6;}
	.st352{fill:#77A3CD;}
	.st353{fill:#90BA4F;}
	.st354{fill:#5C8F4B;}
	.st355{fill:#ACDE5D;}
	.st356{fill:#6FAC5A;}
	.st357{fill:none;stroke:#9DD055;stroke-width:10;stroke-linecap:round;stroke-miterlimit:10;}
	.st358{fill:#AD5643;}
	.st359{fill:#B96052;}
	.st360{fill:#CB8D84;}
	.st361{fill:#CC6C56;}
	.st362{fill:#DE9A8E;}
	.st363{fill:#D37B6A;}
	.st364{fill:#A87758;}
	.st365{fill:#372A2C;}
	.st366{fill:#B8815C;}
	.st367{fill:#433335;}
	.st368{fill:#2C2325;}
	.st369{fill:#95402B;}
	.st370{fill:#A85441;}
	.st371{fill:#D2C74B;}
	.st372{fill:#B25945;}
	.st373{fill:none;stroke:#594144;stroke-width:15;stroke-linecap:round;stroke-miterlimit:10;}
	.st374{fill:none;stroke:#594144;stroke-width:12;stroke-linecap:round;stroke-miterlimit:10;}
	.st375{fill:#8F473B;}
	.st376{fill:#453538;}
	.st377{fill:#517DAB;}
	.st378{fill:#75A050;}
	.st379{fill:#A5384D;}
	.st380{fill:#CC6075;}
	.st381{fill:#F26B7F;}
	.st382{fill:#C67189;}
	.st383{fill:#B26980;}
	.st384{fill:#D87990;}
	.st385{fill:#F2869B;}
	.st386{fill:#EF8499;}
	.st387{fill:#649CD7;}
	.st388{fill:#639CDB;}
	.st389{fill:#C8ED8D;}
	.st390{fill:#A9DB83;}
	.st391{fill:#9BCF76;}
	.st392{fill:#7EAC58;}
	.st393{fill:#8CC463;}
	.st394{fill:#7FAC5B;}
	.st395{fill:#769C55;}
	.st396{fill:#6A894D;}
	.st397{fill:#769B56;}
	.st398{fill:#9BCC75;}
	.st399{fill:#AF5641;}
	.st400{fill:#F4D576;}
	.st401{fill:#76A055;}
	.st402{fill:#628347;}
	.st403{fill:#4F7B9F;}
	.st404{fill:#466D86;}
	.st405{fill:#4D789C;}
</style>
<g id="BULINE">
	<circle id="XMLID_6_" class="st2" cx="256" cy="256" r="256"/>
</g>
<g id="Icons">
	<g id="XMLID_2569_">
		<path id="XMLID_3871_" class="st48" d="M444.7,96.1c0,25.4-5.3,49.5-14.9,71.4c-7.5,17.1-17.6,32.8-29.8,46.6
			c-12,13.5-25.9,25.2-41.5,34.6c-0.1,0-0.2,0.1-0.2,0.1c-6.3,3.8-12.9,7.2-19.6,10.2c-2,0.9-4,1.7-6.1,2.6
			c-20.5,8.2-42.8,12.7-66.2,12.7c-1.1,0-2.2,0-3.3,0c-2.6,0-5.2-0.1-7.8-0.3c-0.8-0.1-1.6-0.1-2.4-0.2
			c-17.6-1.3-34.5-5.2-50.3-11.2c-6-2.3-11.9-4.9-17.6-7.9c-9.9-5.1-19.3-11.1-28.1-17.9c-2.1-1.6-4.2-3.3-6.2-5
			c-14.6-12.5-27.2-27.3-37.2-43.9c-0.3-0.5-0.6-1-0.9-1.4C97.2,160,88.2,129.1,88.2,96.1c0-12.6,1.3-24.8,3.8-36.7
			C136.4,22.3,193.6,0,256,0c74.4,0,141.4,31.7,188.2,82.4C444.5,86.9,444.7,91.5,444.7,96.1z"/>
		<path id="XMLID_4524_" class="st59" d="M470.9,351.1c-6.4-3.7-13.9-5.8-21.8-5.8c-2.7,0-5.4,0.3-7.9,0.8c-0.4-8-3.4-15.4-8.3-21.1
			c-6.5-7.7-16.2-12.7-27.2-12.7c-15.1,0-28.1,9.5-33.2,22.9c-1.4,3.8-2.2,7.8-2.3,12c-0.4-0.5-0.8-1-1.3-1.4
			c-7.1-7.4-17.1-12-28.2-12c-9.5,0-18.2,3.4-25,9c-8.6,7.2-14.1,18-14.1,30.1c0,0.5,0,0.9,0.1,1.4c-3.5-1.4-7.4-2.2-11.5-2.2
			c-13.6,0-25.1,8.9-29.1,21.2c-11.5,0.1-22.3,3.2-31.6,8.6c-2.2-1.1-4.5-2.1-6.9-2.9c-1.6-0.5-3.1-1-4.7-1.4
			c-1.7-0.4-3.5-0.8-5.3-1.1c-2.8-0.4-5.6-0.6-8.4-0.6h-0.4c-1.6-12.2-8.9-22.7-19.2-28.6c-5.7-3.3-12.3-5.1-19.3-5.1
			c-2.4,0-4.7,0.3-7,0.7c-0.4-7.1-3.1-13.6-7.4-18.7c-5.8-6.8-14.4-11.2-24-11.2c-9.6,0-18.2,4.3-24,11.1c-1.5,1.8-2.8,3.7-3.9,5.7
			c-0.6,1.1-1.1,2.2-1.5,3.4c-0.3,0.8-0.5,1.5-0.8,2.3c0,0,0,0,0,0c-0.8,2.6-1.2,5.4-1.3,8.3c-0.4-0.4-0.7-0.8-1.1-1.2
			c0,0,0,0-0.1-0.1c-6.3-6.6-15.1-10.7-24.9-10.7c-2.2,0-4.4,0.2-6.5,0.6c-2.3,0.4-4.5,1.1-6.6,1.9c-3.3,1.3-6.3,3.2-9,5.4
			c-7.2,6-12,14.9-12.5,25c3.6,6.1,7.4,12,11.4,17.8c24.4,34.9,57.3,63.5,95.7,82.6c3.8,1.9,7.7,3.7,11.6,5.4c0.4,2,0.8,3.9,1.1,5.8
			c1-1.4,1.9-2.7,2.9-4.1c3.2,1.3,6.4,2.6,9.6,3.8c27.7,10.3,57.8,15.9,89.1,15.9c90.7,0,170.5-47.2,215.9-118.4c0,0,0,0,0,0
			c5.5-8.6,10.4-17.5,14.9-26.7C482.9,360.3,477.4,354.9,470.9,351.1z M148.9,466.1c0.1,0.2,0.1,0.5,0.2,0.7h-0.9
			C148.4,466.6,148.6,466.4,148.9,466.1z"/>
		<path id="XMLID_4514_" class="st287" d="M470.9,392.9c-5.6-3.2-11.9-5.2-18.6-5.7c-1.1-0.1-2.1-0.1-3.2-0.1
			c-1.2,0-2.3,0.1-3.5,0.2c-1.5,0.1-3,0.4-4.4,0.6c-0.1-1.8-0.3-3.5-0.7-5.2c-1.2-6-3.9-11.4-7.6-15.9c-0.1-0.1-0.2-0.2-0.3-0.3
			c-6.5-7.5-16.1-12.3-26.9-12.3c-15.1,0-28.1,9.5-33.2,22.9c-0.8,2.1-1.4,4.4-1.8,6.7c-0.3,1.7-0.5,3.5-0.5,5.3
			c-0.4-0.5-0.8-1-1.3-1.4c-0.6-0.6-1.2-1.2-1.8-1.8c-1.5-1.4-3.1-2.6-4.7-3.7c-6.2-4.1-13.6-6.6-21.6-6.6c-5.7,0-11.1,1.2-15.9,3.4
			c-3.3,1.4-6.3,3.4-9.1,5.6c-8.6,7.2-14.1,18-14.1,30.1c0,0.5,0,0.9,0.1,1.4c-3.5-1.4-7.4-2.2-11.5-2.2c-13.6,0-25.1,8.9-29.1,21.2
			c-11.5,0.1-22.3,3.2-31.6,8.6c-3.7-1.8-7.5-3.3-11.6-4.3c-4.4-1.1-9-1.7-13.7-1.7h-0.4c0-0.3-0.1-0.5-0.1-0.8
			c-0.7-4.7-2.3-9.1-4.5-13.1c-3.4-6.1-8.5-11.2-14.6-14.7c-5.7-3.3-12.3-5.2-19.3-5.2c-2.4,0-4.7,0.3-7,0.7
			c-0.4-7.1-3.1-13.6-7.4-18.7c-4.7-5.5-11.2-9.4-18.6-10.7c-1.8-0.3-3.6-0.5-5.5-0.5c-2,0-3.9,0.2-5.8,0.5
			c-7.8,1.4-14.5,5.7-19.1,11.7c-1.9,2.4-3.4,5.1-4.5,8c-0.2,0.6-0.4,1.1-0.6,1.7c-0.1,0.2-0.1,0.4-0.2,0.6
			c-0.5,1.7-0.9,3.5-1.1,5.4c-0.1,1-0.2,2-0.2,3c-0.4-0.4-0.8-0.9-1.2-1.3c-2.8-2.9-6-5.3-9.5-7c-2.1-1-4.2-1.9-6.5-2.5h0
			c-2.8-0.8-5.8-1.2-8.9-1.2c-3.3,0-6.5,0.5-9.6,1.3c-4.7,1.3-8.9,3.6-12.6,6.6c-0.4,0.3-0.7,0.6-1.1,0.9
			c24.4,34.9,57.3,63.5,95.7,82.6c3.8,1.9,7.7,3.7,11.6,5.4c0.4,2,0.8,3.9,1.1,5.8c1-1.4,1.9-2.7,2.9-4.1c3.2,1.3,6.4,2.6,9.6,3.8
			c27.7,10.3,57.8,15.9,89.1,15.9c90.7,0,170.5-47.2,215.9-118.4C471.6,393.4,471.2,393.1,470.9,392.9z"/>
		<g id="XMLID_2570_">
			<line id="XMLID_4513_" class="st288" x1="264.4" y1="236.6" x2="291.1" y2="218.1"/>
			<line id="XMLID_4512_" class="st288" x1="257.3" y1="277.5" x2="241.9" y2="250.7"/>
			<path id="XMLID_4511_" class="st288" d="M235.9,356.1c0,0,21.3-18.6,49.4-8.1"/>
			<path id="XMLID_4510_" class="st288" d="M177.5,471.3c0,0-2.7-33.4-22-55.5"/>
			<line id="XMLID_4509_" class="st288" x1="210.1" y1="415.7" x2="244.5" y2="407.4"/>
			<line id="XMLID_4508_" class="st288" x1="255.8" y1="443.6" x2="285.4" y2="463"/>
			<g id="XMLID_4502_">
				<path id="XMLID_4507_" class="st191" d="M322.2,99.4c1.3,22.4-4.6,43-15.1,57.8c-9.5,13.5-22.8,22.1-37.9,23
					c-31.6,1.8-59.2-31.5-61.6-74.3c-1.8-32.6,29.1-75.3,43.9-93.8c0,0,0,0,0,0c4.1-5.1,11.8-5.6,16.4-0.9
					C284.8,27.8,320.4,66.8,322.2,99.4z"/>
				<path id="XMLID_4506_" class="st268" d="M307.1,157.1c-9.5,13.5-22.8,22.1-37.9,23c-31.6,1.8-59.2-31.5-61.6-74.3
					c-1.8-32.6,29.1-75.3,43.9-93.8C250.8,14.4,204,159.1,307.1,157.1z"/>
				
					<ellipse id="XMLID_4504_" transform="matrix(0.8564 -0.5164 0.5164 0.8564 18.3392 149.4827)" class="st269" cx="277.9" cy="41.8" rx="11.2" ry="17.7"/>
				
					<ellipse id="XMLID_4503_" transform="matrix(0.8564 -0.5164 0.5164 0.8564 7.2382 161.9605)" class="st269" cx="294.7" cy="68" rx="5.6" ry="8.8"/>
			</g>
			<g id="XMLID_4500_">
				<path id="XMLID_3847_" class="st3" d="M274.2,179.5c-0.5,15.9-1.7,33.8-4.2,53.2c-0.6,4.8-1.3,9.8-2.1,14.8
					c-1.4,9-3,17.9-4.8,26.8c-2.3,11.5-5,22.9-8.1,34.2c-4,14.8-8.5,29.4-13.7,43.9c-5.4,15.1-11.4,30-18,44.6
					c-0.3,0.6-0.5,1.2-0.8,1.8c-2.4,5.2-4.9,10.5-7.4,15.7c-3.7,7.5-7.5,15-11.5,22.3c-2.1,3.9-4.3,7.8-6.5,11.7
					c-9.2,16.2-19.3,32-30.1,47.5c-3.2-1.2-6.4-2.5-9.6-3.8c6.8-9.6,13.1-19.2,19.1-28.8c8.3-13.4,15.9-26.7,22.7-39.8
					c4.8-9.2,9.3-18.4,13.4-27.4c2.1-4.6,4.1-9.1,6-13.6c17-39.6,27.7-76.6,34.4-108.9c0.2-1,0.4-2,0.6-2.9
					c1.7-8.5,3.2-16.7,4.4-24.4c3.8-24.5,5.6-46.9,6.2-66.4c0.2-7.4,0.3-14.4,0.2-20.9c-0.1-5-0.2-9.8-0.4-14.2
					c-0.6-14.3-1.7-25.5-2.7-33.1c-0.9-7.1-1.7-11-1.7-11.1l-0.1-0.4l-7.1-64.6c-0.3-2.8,1.7-5.2,4.4-5.5c2.7-0.3,5.2,1.7,5.5,4.4
					l7.1,64.4c0.4,2.1,2.7,14.3,4,34.4c0.4,5.4,0.7,11.3,0.8,17.8C274.5,159.8,274.5,169.2,274.2,179.5z"/>
			</g>
			<path id="XMLID_4499_" class="st289" d="M269.4,135.2c0,0,33.8-12.2,32-41.1"/>
			<path id="XMLID_4498_" class="st289" d="M290.1,121.8c0,0,17.4,3,24.6-1.7"/>
			<path id="XMLID_4497_" class="st289" d="M266.4,113.1c0,0-37.6-5.8-39.1-45.2"/>
			<path id="XMLID_4496_" class="st289" d="M246.9,104.9c0,0-15.1,14.5-27.4-2.7"/>
			<path id="XMLID_4495_" class="st289" d="M269.4,160.3c0,0-28.9-4.1-33.4-25.1"/>
			<g id="XMLID_4479_">
				<g id="XMLID_4484_">
					<path id="XMLID_4488_" class="st191" d="M412.2,251.2c-12.4,11.7-27.3,18.3-41,19.4c-12.5,1-24-2.5-31.9-10.9
						c-16.5-17.6-10.5-49.9,13.3-72.2c18.1-17,58.1-19.8,76.1-20.1c0,0,0,0,0,0c5-0.1,9,4.1,8.5,9.1
						C435.7,194.5,430.3,234.2,412.2,251.2z"/>
					<path id="XMLID_4487_" class="st268" d="M371.1,270.6c-12.5,1-24-2.5-31.9-10.9c-16.5-17.6-10.5-49.9,13.3-72.2
						c18.1-17,58.1-19.8,76.1-20.1C427,168.1,319.7,211.4,371.1,270.6z"/>
					
						<ellipse id="XMLID_4486_" transform="matrix(0.3258 -0.9454 0.9454 0.3258 99.4854 534.0229)" class="st269" cx="424.2" cy="197.3" rx="13.4" ry="8.5"/>
					
						<ellipse id="XMLID_4485_" transform="matrix(0.3258 -0.9454 0.9454 0.3258 73.3471 542.6112)" class="st269" cx="417.1" cy="219.9" rx="6.7" ry="4.2"/>
				</g>
				<path id="XMLID_4483_" class="st289" d="M402.7,197.3c0,0-104.9,108.5-153.1,112"/>
				<path id="XMLID_4482_" class="st289" d="M350.4,246.7c0,0,33.2,11.4,52.4-1.7"/>
				<path id="XMLID_4481_" class="st289" d="M370.1,228.9c0,0-10.5-9.4-4.9-26.6"/>
				<path id="XMLID_4480_" class="st289" d="M389.7,210.2c0,0,18.3,11.4,32-3.1"/>
			</g>
			<g id="XMLID_4455_">
				<g id="XMLID_4473_">
					<path id="XMLID_4478_" class="st191" d="M397.3,451.2c-18.7,7.7-38,8.8-53.7,4.3c-14.3-4.1-25.6-12.8-30.8-25.4
						c-10.9-26.4,9.2-59.8,45-74.5c27.2-11.2,72.8,2.4,92.9,9.6c0,0,0,0,0,0c5.6,2,8.2,8.4,5.7,13.7
						C447.2,398.1,424.5,439.9,397.3,451.2z"/>
					<path id="XMLID_4477_" class="st268" d="M343.6,455.5c-14.3-4.1-25.6-12.8-30.8-25.4c-10.9-26.4,9.2-59.8,45-74.5
						c27.2-11.2,72.8,2.4,92.9,9.6C448.5,365.1,311.3,368.2,343.6,455.5z"/>
					
						<ellipse id="XMLID_4475_" transform="matrix(0.6388 -0.7693 0.7693 0.6388 -148.4307 476.421)" class="st269" cx="433.2" cy="396.3" rx="15.9" ry="10.1"/>
					
						<ellipse id="XMLID_4474_" transform="matrix(0.6388 -0.7693 0.7693 0.6388 -171.7238 471.1071)" class="st269" cx="415.9" cy="418.5" rx="8" ry="5"/>
				</g>
				<path id="XMLID_4472_" class="st289" d="M409.4,387.3c0,0-161.9,76.4-216.9,60.1"/>
				<path id="XMLID_4458_" class="st289" d="M330.6,420.2c0,0,32.1,26.6,58.8,20.1"/>
				<path id="XMLID_4457_" class="st289" d="M360,408.7c0,0-7.7-14.8,5.7-31.6"/>
				<path id="XMLID_4456_" class="st289" d="M389.5,396.3c0,0,15.5,20.4,36.8,9.9"/>
			</g>
			<g id="XMLID_4399_">
				<g id="XMLID_4413_">
					<path id="XMLID_4454_" class="st191" d="M190.7,223.8c9.2,14.3,13.1,30.1,11.7,43.8c-1.2,12.5-6.7,23.2-16.4,29.4
						c-20.2,13.1-51,1.4-68.6-26c-13.5-20.9-9.1-60.7-6.2-78.5c0,0,0,0,0,0c0.8-4.9,5.7-8.1,10.5-6.8
						C139.1,190.5,177.2,203,190.7,223.8z"/>
					<path id="XMLID_4416_" class="st268" d="M202.4,267.7c-1.2,12.5-6.7,23.2-16.4,29.4c-20.2,13.1-51,1.4-68.6-26
						c-13.5-20.9-9.1-60.7-6.2-78.5C111.6,194.4,135,307.7,202.4,267.7z"/>
					
						<ellipse id="XMLID_4415_" transform="matrix(0.4894 -0.8721 0.8721 0.4894 -105.1393 225.2036)" class="st269" cx="139.7" cy="202.4" rx="8.5" ry="13.4"/>
					
						<ellipse id="XMLID_4414_" transform="matrix(0.4894 -0.8721 0.8721 0.4894 -103.9884 249.1185)" class="st269" cx="160.7" cy="213.4" rx="4.2" ry="6.7"/>
				</g>
				<path id="XMLID_4412_" class="st289" d="M135.9,223.5c0,0,88,122.6,82.9,170.6"/>
				<path id="XMLID_4402_" class="st289" d="M175.2,283.8c0,0,17.2-30.7,7.7-51.8"/>
				<path id="XMLID_4401_" class="st289" d="M161.2,261.2c0,0-11.1,8.7-27.1,0.1"/>
				<path id="XMLID_4400_" class="st289" d="M146.4,238.6c0,0,14.5-16,2.6-32"/>
			</g>
			<g id="XMLID_2573_">
				<g id="XMLID_2603_">
					<path id="XMLID_4398_" class="st191" d="M125.9,362.7c7.9,12.2,11.1,25.7,10,37.3c-1,10.6-5.7,19.7-14,25
						c-17.2,11.1-43.4,1.2-58.4-22.1c-11.4-17.7-7.7-51.6-5.3-66.8c0,0,0,0,0,0c0.7-4.2,4.8-6.9,8.9-5.8
						C82,334.4,114.5,345,125.9,362.7z"/>
					<path id="XMLID_4392_" class="st268" d="M135.9,400c-1,10.6-5.7,19.7-14,25c-17.2,11.1-43.4,1.2-58.4-22.1
						c-11.4-17.7-7.7-51.6-5.3-66.8C58.6,337.7,78.5,434.1,135.9,400z"/>
					
						<ellipse id="XMLID_2957_" transform="matrix(0.4894 -0.8721 0.8721 0.4894 -258.2313 247.8945)" class="st269" cx="82.6" cy="344.5" rx="7.2" ry="11.4"/>
					
						<ellipse id="XMLID_2604_" transform="matrix(0.4894 -0.8721 0.8721 0.4894 -257.2519 268.2485)" class="st269" cx="100.5" cy="353.8" rx="3.6" ry="5.7"/>
				</g>
				<g id="XMLID_2595_">
					<path id="XMLID_3842_" class="st3" d="M153.3,490.6c-3.9-1.7-7.8-3.5-11.6-5.4c-5.1-16.9-15.4-37.6-26.4-57
						c-4.5-7.9-9.1-15.6-13.5-22.7c-1.8-2.9-3.5-5.6-5.2-8.3c-0.1-0.1-0.2-0.3-0.3-0.5c-11.6-18.2-20.8-31.1-21.1-31.4
						c-1.6-2.2-1.1-5.4,1.1-7c2.2-1.6,5.4-1.1,7,1.1c0.6,0.8,3.5,4.9,7.9,11.4c3,4.4,6.6,9.8,10.6,16c4,6.1,8.3,13,12.8,20.4
						c0.2,0.4,0.5,0.8,0.7,1.1c2.9,4.9,5.9,9.9,8.8,15.1C137,446.2,149,471,153.3,490.6z"/>
				</g>
				<path id="XMLID_2591_" class="st289" d="M112.7,413.8c0,0,14.6-26.1,6.6-44.1"/>
				<path id="XMLID_2576_" class="st289" d="M100.8,394.5c0,0-9.5,7.4-23,0"/>
				<path id="XMLID_2575_" class="st289" d="M88.2,375.3c0,0,12.4-13.6,2.2-27.3"/>
			</g>
		</g>
	</g>
</g>
</svg>
