<?xml version="1.0" encoding="utf-8"?>
<!-- Generator: Adobe Illustrator 22.0.1, SVG Export Plug-In . SVG Version: 6.00 Build 0)  -->
<svg version="1.1" xmlns="http://www.w3.org/2000/svg" xmlns:xlink="http://www.w3.org/1999/xlink" x="0px" y="0px"
	 viewBox="0 0 512 512" style="enable-background:new 0 0 512 512;" xml:space="preserve">
<style type="text/css">
	.st0{fill:#4B71B4;}
	.st1{fill:#80B4E8;}
	.st2{fill:#594144;}
	.st3{fill:#B8E876;}
	.st4{fill:#E09122;}
	.st5{fill:#FBF355;}
	.st6{fill:#EEC82F;}
	.st7{fill:#CEA628;}
	.st8{fill:#9BC9EF;}
	.st9{fill:#9DD055;}
	.st10{fill:#5686C5;}
	.st11{fill:#3B5880;}
	.st12{fill:#C2E5FB;}
	.st13{fill:#446697;}
	.st14{fill:#D1F1A0;}
	.st15{fill:#ABD170;}
	.st16{fill:#9DBD6A;}
	.st17{fill:#649D53;}
	.st18{fill:#72B35D;}
	.st19{fill:#ABD68D;}
	.st20{fill:#7FB358;}
	.st21{fill:#920C50;}
	.st22{fill:#C60053;}
	.st23{fill:#530730;}
	.st24{fill:#600332;}
	.st25{fill:#D5AC2A;}
	.st26{fill:#EFD776;}
	.st27{fill:#A7C76D;}
	.st28{fill:#A43749;}
	.st29{fill:#DC4355;}
	.st30{fill:#E18696;}
	.st31{fill:#77A255;}
	.st32{fill:#628547;}
	.st33{fill:#6E994D;}
	.st34{fill:none;stroke:#54743C;stroke-width:8;stroke-linecap:round;stroke-miterlimit:10;}
	.st35{fill:#9BCF75;}
	.st36{fill:#CA8F80;}
	.st37{fill:#E6B8AB;}
	.st38{fill:#E2A18B;}
	.st39{fill:#8E3F2B;}
	.st40{fill:#D89988;}
	.st41{fill:#CFCFCF;}
	.st42{fill:#A64B2D;}
	.st43{fill:#FFFFFF;}
	.st44{fill:#CA801F;}
	.st45{fill:#719C50;}
	.st46{fill:#85B7E5;}
	.st47{fill:#4F7BA9;}
	.st48{fill:#674C50;}
	.st49{fill:#BAD7ED;}
	.st50{fill:#63494D;}
	.st51{fill:#503D3F;}
	.st52{fill:#638547;}
	.st53{fill:#56713E;}
	.st54{fill:#BB5135;}
	.st55{fill:#93C4EC;}
	.st56{fill:#CA8121;}
	.st57{fill:#FDFCFC;}
	.st58{fill:#A83A4F;}
	.st59{fill:#BD5E44;}
	.st60{fill:#688C4A;}
	.st61{fill:#7DA55A;}
	.st62{fill:#90BA51;}
	.st63{fill:none;}
	.st64{fill:#ABC287;}
	.st65{fill:#BDD993;}
	.st66{fill:none;stroke:#534046;stroke-width:15;stroke-linecap:round;stroke-linejoin:round;stroke-miterlimit:10;}
	.st67{fill:#413133;}
	.st68{fill:#34292B;}
	.st69{fill:#644B50;}
	.st70{fill:#CDACB7;}
	.st71{fill:#A83A4D;}
	.st72{fill:#413335;}
	.st73{fill:#DC6579;}
	.st74{fill:#4C393C;}
	.st75{fill:#527FAE;}
	.st76{fill:#92C2EA;}
	.st77{fill:#5B8C4A;}
	.st78{fill:#729C51;}
	.st79{fill:#AADB5E;}
	.st80{fill:#D66C53;}
	.st81{fill:#A65340;}
	.st82{fill:#B8594A;}
	.st83{fill:#79A754;}
	.st84{fill:#4E3B3E;}
	.st85{fill:#5E4649;}
	.st86{fill:#604A50;}
	.st87{fill:#685258;}
	.st88{fill:#765E66;}
	.st89{fill:#FCF69A;}
	.st90{fill:#D3CC84;}
	.st91{fill:#E6A572;}
	.st92{fill:#74A151;}
	.st93{fill:#6F994F;}
	.st94{fill:#CC6D7D;}
	.st95{fill:#AD6576;}
	.st96{fill:#95422D;}
	.st97{fill:#BE6850;}
	.st98{fill:#3B2F32;}
	.st99{fill:none;stroke:#46383B;stroke-width:15;stroke-linecap:round;stroke-miterlimit:10;}
	.st100{fill:none;stroke:#3B2F32;stroke-width:15;stroke-linecap:round;stroke-miterlimit:10;}
	.st101{fill:#D6CF77;}
	.st102{fill:#F5EF82;}
	.st103{fill:#4A383B;}
	.st104{fill:#CACACA;}
	.st105{fill:#48373A;}
	.st106{fill:#7AA8D2;}
	.st107{fill:#6E9150;}
	.st108{fill:#587441;}
	.st109{fill:#D76E51;}
	.st110{fill:#CCC475;}
	.st111{fill:#DDD57E;}
	.st112{fill:#F8F19C;}
	.st113{fill:#FBF58A;}
	.st114{fill:#C67F20;}
	.st115{fill:#AB6B1C;}
	.st116{fill:#C98020;}
	.st117{fill:#D99A41;}
	.st118{fill:#DBA35B;}
	.st119{fill:#9B5F1B;}
	.st120{fill:#97CF6D;}
	.st121{fill:#5380B1;}
	.st122{fill:#96D16A;}
	.st123{fill:#92BD50;}
	.st124{fill:#7EB058;}
	.st125{fill:#709A50;}
	.st126{fill:#5A8A4A;}
	.st127{fill:#D9D9D9;}
	.st128{fill:#75A3CD;}
	.st129{fill:#6E974F;}
	.st130{fill:#CA6D7D;}
	.st131{fill:#AB6576;}
	.st132{fill:#93422D;}
	.st133{fill:#A44B2D;}
	.st134{fill:#BC6850;}
	.st135{fill:#DFB52B;}
	.st136{fill:#4C3A3C;}
	.st137{fill:#473538;}
	.st138{fill:#382B2E;}
	.st139{fill:none;stroke:#FFFFFF;stroke-width:8;stroke-linecap:round;stroke-miterlimit:10;}
	.st140{fill:#90C0E8;}
	.st141{fill:none;stroke:#E09122;stroke-width:12;stroke-linecap:round;stroke-miterlimit:10;}
	.st142{fill:#DCAE2B;}
	.st143{fill:#F0D05A;}
	.st144{fill:#729E51;}
	.st145{fill:#E4BA36;}
	.st146{fill:#F8F283;}
	.st147{fill:#E4B6A9;}
	.st148{fill:#D78E30;}
	.st149{fill:#598A49;}
	.st150{fill:#B65339;}
	.st151{fill:#BA751F;}
	.st152{fill:#466A9F;}
	.st153{fill:#8BB34D;}
	.st154{fill:#9BCE54;}
	.st155{fill:#7F9F49;}
	.st156{fill:#D37F6D;}
	.st157{fill:#BB5E44;}
	.st158{fill:#93BB55;}
	.st159{fill:#B3E665;}
	.st160{fill:none;stroke:#4C393C;stroke-width:8;stroke-miterlimit:10;}
	.st161{fill:#97432D;}
	.st162{fill:#DAB12A;}
	.st163{fill:#5E914C;}
	.st164{fill:#5381B3;}
	.st165{fill:#6A8F4C;}
	.st166{fill:#628047;}
	.st167{fill:#E29D37;}
	.st168{fill:#6E555B;}
	.st169{fill:#91CA67;}
	.st170{fill:#476BA1;}
	.st171{fill:#6699D9;}
	.st172{fill:#503C3E;}
	.st173{fill:#413235;}
	.st174{fill:#CC916A;}
	.st175{fill:#BA8363;}
	.st176{fill:#D09571;}
	.st177{fill:#C98F68;}
	.st178{fill:#AA3B4D;}
	.st179{fill:#DA6075;}
	.st180{fill:#92452D;}
	.st181{fill:#A24B2D;}
	.st182{fill:#B76252;}
	.st183{fill:#87BD60;}
	.st184{fill:#78A7D2;}
	.st185{fill:#F9F38F;}
	.st186{fill:#E0D650;}
	.st187{fill:#AFE086;}
	.st188{fill:#9FD476;}
	.st189{fill:#9DD176;}
	.st190{fill:#8FC468;}
	.st191{fill:#7EAE58;}
	.st192{fill:#6F9850;}
	.st193{fill:#59884A;}
	.st194{fill:#638347;}
	.st195{fill:#B95135;}
	.st196{fill:#E5AB62;}
	.st197{fill:#733228;}
	.st198{fill:#803728;}
	.st199{fill:#6D974D;}
	.st200{fill:#99CD75;}
	.st201{fill:#93412C;}
	.st202{fill:#93C2EA;}
	.st203{fill:#CD926B;}
	.st204{fill:#E6AF8A;}
	.st205{fill:#E5DB4E;}
	.st206{fill:#FBF375;}
	.st207{fill:#779E54;}
	.st208{fill:#D3966D;}
	.st209{fill:#DA4355;}
	.st210{fill:#A83B4D;}
	.st211{fill:none;stroke:#594144;stroke-width:8;stroke-linecap:round;stroke-miterlimit:10;}
	.st212{fill:#E5A855;}
	.st213{fill:#EAC291;}
	.st214{fill:#96C252;}
	.st215{fill:#695055;}
	.st216{fill:#DC9C42;}
	.st217{fill:#8E5C1B;}
	.st218{fill:#F4EB6A;}
	.st219{fill:#CBC049;}
	.st220{fill:none;stroke:#B8E876;stroke-width:15;stroke-linecap:round;stroke-miterlimit:10;}
	.st221{fill:#A36A1C;}
	.st222{fill:#ECC94A;}
	.st223{fill:#91BEDA;}
	.st224{fill:#3D2F32;}
	.st225{fill:#A6394C;}
	.st226{fill:#33292B;}
	.st227{fill:#4F3D42;}
	.st228{fill:#638147;}
	.st229{fill:#CD8321;}
	.st230{fill:#D3CA4A;}
	.st231{fill:#E2A550;}
	.st232{fill:#B75135;}
	.st233{fill:#D4CD77;}
	.st234{fill:#F3EC80;}
	.st235{fill:#46383B;}
	.st236{fill:#82AA61;}
	.st237{fill:#8EBF69;}
	.st238{fill:#3C2E31;}
	.st239{fill:#C49F27;}
	.st240{fill:#D2BF7C;}
	.st241{fill:#F6E18D;}
	.st242{fill:#D6D6D6;}
	.st243{fill:#B5D7F2;}
	.st244{fill:#F1D467;}
	.st245{fill:#739FBD;}
	.st246{fill:#D0946C;}
	.st247{fill:#BE8767;}
	.st248{fill:#D0A829;}
	.st249{fill:#F6DF86;}
	.st250{fill:#EABA8D;}
	.st251{fill:#F0D1B8;}
	.st252{fill:#A5D0F1;}
	.st253{fill:#E3A13F;}
	.st254{fill:#F0FAFF;}
	.st255{fill:#B4D3E3;}
	.st256{fill:#80A5C3;}
	.st257{fill:#87AFD5;}
	.st258{fill:#B1D1E7;}
	.st259{fill:#AED66F;}
	.st260{fill:#91AA61;}
	.st261{fill:#A8384B;}
	.st262{fill:#CD8120;}
	.st263{fill:#E6AD56;}
	.st264{fill:none;stroke:#E6AD56;stroke-width:8;stroke-linecap:round;stroke-miterlimit:10;}
	.st265{fill:#9EBD68;}
	.st266{fill:#AAD16E;}
	.st267{fill:#86656B;}
	.st268{fill:#6D954D;}
	.st269{fill:#98CB75;}
	.st270{fill:#75A251;}
	.st271{fill:#91BD4F;}
	.st272{fill:none;stroke:#B8E078;stroke-width:8;stroke-linecap:round;stroke-miterlimit:10;}
	.st273{fill:none;stroke:#B8E078;stroke-width:8;stroke-linecap:round;stroke-linejoin:round;stroke-miterlimit:10;}
	.st274{fill:#8FBA4E;}
	.st275{fill:#B3E860;}
	.st276{fill:#E7A748;}
	.st277{fill:none;stroke:#B6E676;stroke-width:15;stroke-linecap:round;stroke-miterlimit:10;}
	.st278{fill:#639B53;}
	.st279{fill:#476B9F;}
	.st280{fill:#82B1DE;}
	.st281{fill:#A6533F;}
	.st282{fill:#C28A69;}
	.st283{fill:#64494E;}
	.st284{fill:#77565C;}
	.st285{fill:#4F3C40;}
	.st286{fill:#ECCCB1;}
	.st287{fill:#BF6F5C;}
	.st288{fill:none;stroke:#D4F1A7;stroke-width:10;stroke-linecap:round;stroke-miterlimit:10;}
	.st289{fill:none;stroke:#B8E876;stroke-width:10;stroke-linecap:round;stroke-miterlimit:10;}
	.st290{fill:#47688F;}
	.st291{fill:#3F5B78;}
	.st292{fill:#354E6C;}
	.st293{fill:#DAB12B;}
	.st294{fill:#C8A028;}
	.st295{fill:#F0D15C;}
	.st296{fill:#F8F28B;}
	.st297{fill:#F7F18D;}
	.st298{fill:#DED450;}
	.st299{fill:#F9F155;}
	.st300{fill:#A2CFF4;}
	.st301{fill:none;stroke:#594144;stroke-width:10;stroke-linecap:round;stroke-miterlimit:10;}
	.st302{fill:#F5F0AB;}
	.st303{fill:#496DA1;}
	.st304{fill:#5A85C7;}
	.st305{fill:#D7D7D7;}
	.st306{fill:#ADD3E6;}
	.st307{fill:#98B8C3;}
	.st308{fill:#CDCECF;}
	.st309{fill:#BF4F69;}
	.st310{fill:#A83448;}
	.st311{fill:#A4DAF7;}
	.st312{fill:#81A861;}
	.st313{fill:#82A549;}
	.st314{fill:#B6E676;}
	.st315{fill:#8CBD69;}
	.st316{fill:#ECC62F;}
	.st317{fill:#F4EA80;}
	.st318{fill:#D6AD2B;}
	.st319{fill:#6F9151;}
	.st320{fill:#46699C;}
	.st321{fill:#4A373A;}
	.st322{fill:#89B04C;}
	.st323{fill:#99CC53;}
	.st324{fill:#B1E465;}
	.st325{fill:#E19E3B;}
	.st326{fill:#C05970;}
	.st327{fill:#D95F74;}
	.st328{fill:#74A8DE;}
	.st329{fill:#C47C1E;}
	.st330{fill:#719A51;}
	.st331{fill:#A8D95E;}
	.st332{fill:#D46C53;}
	.st333{fill:#A45340;}
	.st334{fill:#B6594A;}
	.st335{fill:#79A554;}
	.st336{fill:#B6DAF7;}
	.st337{fill:#739F51;}
	.st338{fill:#DDB32B;}
	.st339{fill:#DE8F22;}
	.st340{fill:none;stroke:#46383B;stroke-width:8;stroke-linecap:round;stroke-miterlimit:10;}
	.st341{fill:none;stroke:#3B2F32;stroke-width:8;stroke-linecap:round;stroke-miterlimit:10;}
	.st342{fill:#C8C8C8;}
	.st343{fill:#7F9D49;}
	.st344{fill:#BA5E44;}
	.st345{fill:#92B955;}
	.st346{fill:#D17F6D;}
	.st347{fill:#5D8F4C;}
	.st348{fill:#B75334;}
	.st349{fill:#CA6D57;}
	.st350{fill:#A4574D;}
	.st351{fill:#7FB1E6;}
	.st352{fill:#77A3CD;}
	.st353{fill:#90BA4F;}
	.st354{fill:#5C8F4B;}
	.st355{fill:#ACDE5D;}
	.st356{fill:#6FAC5A;}
	.st357{fill:none;stroke:#9DD055;stroke-width:10;stroke-linecap:round;stroke-miterlimit:10;}
	.st358{fill:#AD5643;}
	.st359{fill:#B96052;}
	.st360{fill:#CB8D84;}
	.st361{fill:#CC6C56;}
	.st362{fill:#DE9A8E;}
	.st363{fill:#D37B6A;}
	.st364{fill:#A87758;}
	.st365{fill:#372A2C;}
	.st366{fill:#B8815C;}
	.st367{fill:#433335;}
	.st368{fill:#2C2325;}
	.st369{fill:#95402B;}
	.st370{fill:#A85441;}
	.st371{fill:#D2C74B;}
	.st372{fill:#B25945;}
	.st373{fill:none;stroke:#594144;stroke-width:15;stroke-linecap:round;stroke-miterlimit:10;}
	.st374{fill:none;stroke:#594144;stroke-width:12;stroke-linecap:round;stroke-miterlimit:10;}
	.st375{fill:#8F473B;}
	.st376{fill:#453538;}
	.st377{fill:#517DAB;}
	.st378{fill:#75A050;}
	.st379{fill:#A5384D;}
	.st380{fill:#CC6075;}
	.st381{fill:#F26B7F;}
	.st382{fill:#C67189;}
	.st383{fill:#B26980;}
	.st384{fill:#D87990;}
	.st385{fill:#F2869B;}
	.st386{fill:#EF8499;}
	.st387{fill:#649CD7;}
	.st388{fill:#639CDB;}
	.st389{fill:#C8ED8D;}
	.st390{fill:#A9DB83;}
	.st391{fill:#9BCF76;}
	.st392{fill:#7EAC58;}
	.st393{fill:#8CC463;}
	.st394{fill:#7FAC5B;}
	.st395{fill:#769C55;}
	.st396{fill:#6A894D;}
	.st397{fill:#769B56;}
	.st398{fill:#9BCC75;}
	.st399{fill:#AF5641;}
	.st400{fill:#F4D576;}
	.st401{fill:#76A055;}
	.st402{fill:#628347;}
	.st403{fill:#4F7B9F;}
	.st404{fill:#466D86;}
	.st405{fill:#4D789C;}
</style>
<g id="BULINE">
	<circle id="XMLID_2471_" class="st11" cx="256" cy="256" r="256"/>
</g>
<g id="Icons">
	<g id="XMLID_3843_">
		<circle id="XMLID_4059_" class="st290" cx="231.3" cy="215" r="191"/>
		<path id="XMLID_4053_" class="st291" d="M493.6,200.3c-3.4-2-7.3-3.3-11.4-3.7c-0.8-0.1-1.6-0.1-2.4-0.1c-3.3,0-6.4,0.6-9.2,1.7
			c-0.4-2.5-1.1-4.8-2-7.1c-4.5-12-14.7-21.2-27.3-24.3c-3-0.8-6.2-1.2-9.5-1.2h-0.3c-0.3-2.2-0.8-4.3-1.6-6.3
			c-2.2-5.8-6.4-10.5-11.7-13.6c-4-2.3-8.5-3.6-13.4-3.6c-1.7,0-3.3,0.2-4.9,0.5c-0.2-4.9-2.1-9.4-5.1-13c-4-4.7-10-7.8-16.7-7.8
			c-9.3,0-17.3,5.8-20.4,14c-0.9,2.3-1.4,4.8-1.4,7.4c-0.3-0.3-0.5-0.6-0.8-0.9c-4.4-4.6-10.5-7.4-17.3-7.4
			c-5.8,0-11.2,2.1-15.4,5.5c-5.3,4.4-8.7,11-8.7,18.5c0,0.3,0,0.6,0,0.9c-2.2-0.9-4.6-1.4-7.1-1.4c-8.3,0-15.4,5.5-17.9,13
			c-21.6,0.2-39.1,17.8-39.1,39.4c0,5,0.9,9.8,2.6,14.2c5.7,14.8,20,25.3,36.8,25.3h190.3c0.8,0,1.6,0,2.4-0.1
			c8.7-0.8,16.2-5.6,20.6-12.7c2.5-4.1,4-8.9,4-14.1C506.8,213.6,501.5,205,493.6,200.3z M393.5,215h-0.6c0.2-0.2,0.3-0.3,0.5-0.5
			C393.5,214.6,393.5,214.8,393.5,215z"/>
		<path id="XMLID_4050_" class="st292" d="M493.6,200.3c-3.4-2-7.3-3.3-11.4-3.7c-0.8-0.1-1.6-0.1-2.4-0.1c-3.3,0-6.4,0.6-9.2,1.7
			c-0.4-2.5-1.1-4.8-2-7.1c-4.5-12-14.7-21.2-27.3-24.3c-3-0.8-6.2-1.2-9.5-1.2h-0.3c-0.3-2.2-0.8-4.3-1.6-6.3
			c-6,1.7-10.7,6.3-12.6,12.2c-21.6,0.2-39.1,17.8-39.1,39.4c0,5,0.9,9.8,2.6,14.2c5.7,14.8,20,25.3,36.8,25.3h62.2
			c0.8,0,1.6,0,2.4-0.1c8.7-0.8,16.2-5.6,20.6-12.7c2.5-4.1,4-8.9,4-14.1C506.8,213.6,501.5,205,493.6,200.3z"/>
		<g id="XMLID_4011_">
			<path id="XMLID_4049_" class="st6" d="M388.8,216.7c0,87-70.5,157.5-157.5,157.5S73.8,303.7,73.8,216.7S144.3,59.2,231.3,59.2
				c21.8,0,42.7,4.4,61.6,12.5c39.3,16.7,70.4,48.9,85.6,88.9C385.1,178,388.8,196.9,388.8,216.7z"/>
			<path id="XMLID_4048_" class="st293" d="M153.7,216.7c0-73.2,49.9-134.7,117.6-152.4c-12.8-3.3-26.1-5.1-39.9-5.1
				c-87,0-157.5,70.5-157.5,157.5s70.5,157.5,157.5,157.5c13.8,0,27.2-1.8,39.9-5.1C203.6,351.4,153.7,289.9,153.7,216.7z"/>
			<path id="XMLID_4047_" class="st294" d="M355.7,211.5c0,14-8.9,25.9-21.3,30.3c-3.4,1.2-7.1,1.9-10.9,1.9
				c-17.8,0-32.2-14.4-32.2-32.2c0-17.8,14.4-32.2,32.2-32.2c3.8,0,7.5,0.7,10.9,1.9C346.8,185.6,355.7,197.5,355.7,211.5z"/>
			<ellipse id="XMLID_4046_" class="st293" cx="334.4" cy="211.5" rx="21.3" ry="30.3"/>
			<path id="XMLID_4044_" class="st294" d="M256.5,123.9c0,8.3-5.3,15.3-12.6,18c-2,0.7-4.2,1.1-6.5,1.1c-10.5,0-19.1-8.6-19.1-19.1
				c0-10.6,8.6-19.1,19.1-19.1c2.3,0,4.4,0.4,6.5,1.1C251.3,108.5,256.5,115.6,256.5,123.9z"/>
			<ellipse id="XMLID_4040_" class="st293" cx="243.9" cy="123.9" rx="12.6" ry="18"/>
			<path id="XMLID_4038_" class="st294" d="M269.5,316.7c0,8.3-5.3,15.3-12.6,18c-2,0.7-4.2,1.1-6.5,1.1c-10.5,0-19.1-8.6-19.1-19.1
				c0-10.6,8.6-19.1,19.1-19.1c2.3,0,4.4,0.4,6.5,1.1C264.2,301.3,269.5,308.4,269.5,316.7z"/>
			<ellipse id="XMLID_4037_" class="st293" cx="256.8" cy="316.7" rx="12.6" ry="18"/>
			<path id="XMLID_4031_" class="st294" d="M242.5,233.4c0,13.1-8.4,24.3-20.1,28.5c-3.2,1.1-6.6,1.8-10.2,1.8
				c-16.7,0-30.3-13.6-30.3-30.3c0-16.7,13.6-30.3,30.3-30.3c3.6,0,7,0.6,10.2,1.8C234.1,209,242.5,220.2,242.5,233.4z"/>
			<ellipse id="XMLID_4016_" class="st293" cx="222.4" cy="233.4" rx="20.1" ry="28.5"/>
			<path id="XMLID_4015_" class="st295" d="M378.5,160.6c-4,0.7-8.1,1-12.3,1c-41.3,0-74.8-33.5-74.8-74.8c0-5.2,0.5-10.2,1.5-15.1
				C332.1,88.4,363.2,120.6,378.5,160.6z"/>
		</g>
		<circle id="XMLID_3980_" class="st296" cx="413.2" cy="93.1" r="16"/>
		<circle id="XMLID_3979_" class="st296" cx="40.2" cy="237.2" r="16"/>
		<circle id="XMLID_3978_" class="st296" cx="461.2" cy="355.1" r="16"/>
		<circle id="XMLID_3976_" class="st296" cx="145.2" cy="59.2" r="11"/>
		<circle id="XMLID_3975_" class="st296" cx="302.3" cy="30.7" r="11"/>
		<circle id="XMLID_3974_" class="st296" cx="413.2" cy="283.3" r="11"/>
		<circle id="XMLID_3969_" class="st296" cx="212.2" cy="477.3" r="11"/>
		<path id="XMLID_3965_" class="st10" d="M419.2,375.8c-5-3-10.7-4.9-16.8-5.4c-1.1-0.1-2.3-0.2-3.5-0.2c-4.8,0-9.3,0.9-13.6,2.4
			c-0.6-3.6-1.6-7.1-2.9-10.4c-6.7-17.6-21.6-31-40.1-35.6c-4.5-1.1-9.2-1.7-14-1.7h-0.4c-1.7-12.5-9.1-23.1-19.5-29.1
			c-5.8-3.3-12.5-5.2-19.7-5.2c-2.4,0-4.8,0.3-7.1,0.7c-0.4-7.2-3.1-13.8-7.5-19c-5.9-7-14.6-11.4-24.5-11.4
			c-13.7,0-25.3,8.5-29.9,20.6c-1.3,3.4-2,7-2.1,10.8c-0.4-0.4-0.8-0.9-1.2-1.3c-6.4-6.7-15.4-10.8-25.4-10.8
			c-8.6,0-16.4,3-22.5,8.1c-7.8,6.5-12.7,16.2-12.7,27.1c0,0.4,0,0.8,0.1,1.3c-3.2-1.3-6.7-2-10.4-2c-12.2,0-22.6,8-26.2,19.1
			c-31.7,0.3-57.3,26-57.3,57.8c0,7.3,1.4,14.3,3.8,20.7c8.3,21.7,29.4,37.1,54,37.1h279c1.2,0,2.4-0.1,3.5-0.2
			c12.8-1.1,23.8-8.3,30.2-18.7c3.7-6,5.9-13.1,5.9-20.7C438.6,395.3,430.8,382.7,419.2,375.8z M271.6,397.3
			c0.2-0.3,0.5-0.5,0.7-0.7c0.1,0.2,0.1,0.5,0.1,0.7H271.6z"/>
		<path id="XMLID_3961_" class="st75" d="M402.5,411.8c-1.1-0.1-2.3-0.2-3.5-0.2c-4.8,0-9.3,0.9-13.6,2.4
			c-2.2-12.2-8.1-23.1-16.6-31.4c-9.2-9-21.5-14.9-35.1-16.1c-1.7-0.2-3.5-0.2-5.2-0.2c-0.1,0-0.3,0-0.4,0
			c-2.3-17.1-15.3-30.7-32.1-33.7c-2.3-0.4-4.6-0.6-7.1-0.6c-2.4,0-4.8,0.3-7.1,0.7c-0.7-12.9-8.9-23.8-20.4-28.3
			c-3.6-1.4-7.5-2.2-11.5-2.2c-17.5,0-31.7,14-32,31.4c-2.8-3.2-6.2-6-10-8c-4.9-2.6-10.5-4.1-16.5-4.1c-15.8,0-29.2,10.4-33.7,24.8
			c-1,3.3-1.6,6.8-1.6,10.4c0,0.4,0,0.8,0.1,1.2c-3.2-1.3-6.7-2-10.4-2c-12.2,0-22.6,8-26.2,19.1c-24.4,0.2-45.2,15.5-53.5,37.1
			c8.3,21.7,29.4,37.1,54,37.1h279c1.2,0,2.4-0.1,3.5-0.2c12.8-1.1,23.8-8.3,30.2-18.7C426.3,420.1,415.3,412.9,402.5,411.8z
			 M271.6,438.7c0.2-0.2,0.5-0.5,0.7-0.7c0.1,0.2,0.1,0.5,0.1,0.7H271.6z"/>
	</g>
</g>
</svg>
