<?xml version="1.0" encoding="utf-8"?>
<!-- Generator: Adobe Illustrator 22.0.1, SVG Export Plug-In . SVG Version: 6.00 Build 0)  -->
<svg version="1.1" xmlns="http://www.w3.org/2000/svg" xmlns:xlink="http://www.w3.org/1999/xlink" x="0px" y="0px"
	 viewBox="0 0 512 512" style="enable-background:new 0 0 512 512;" xml:space="preserve">
<style type="text/css">
	.st0{fill:#4B71B4;}
	.st1{fill:#80B4E8;}
	.st2{fill:#594144;}
	.st3{fill:#B8E876;}
	.st4{fill:#E09122;}
	.st5{fill:#FBF355;}
	.st6{fill:#EEC82F;}
	.st7{fill:#CEA628;}
	.st8{fill:#9BC9EF;}
	.st9{fill:#9DD055;}
	.st10{fill:#5686C5;}
	.st11{fill:#3B5880;}
	.st12{fill:#C2E5FB;}
	.st13{fill:#446697;}
	.st14{fill:#D1F1A0;}
	.st15{fill:#ABD170;}
	.st16{fill:#9DBD6A;}
	.st17{fill:#649D53;}
	.st18{fill:#72B35D;}
	.st19{fill:#ABD68D;}
	.st20{fill:#7FB358;}
	.st21{fill:#920C50;}
	.st22{fill:#C60053;}
	.st23{fill:#530730;}
	.st24{fill:#600332;}
	.st25{fill:#D5AC2A;}
	.st26{fill:#EFD776;}
	.st27{fill:#A7C76D;}
	.st28{fill:#A43749;}
	.st29{fill:#DC4355;}
	.st30{fill:#E18696;}
	.st31{fill:#77A255;}
	.st32{fill:#628547;}
	.st33{fill:#6E994D;}
	.st34{fill:none;stroke:#54743C;stroke-width:8;stroke-linecap:round;stroke-miterlimit:10;}
	.st35{fill:#9BCF75;}
	.st36{fill:#CA8F80;}
	.st37{fill:#E6B8AB;}
	.st38{fill:#E2A18B;}
	.st39{fill:#8E3F2B;}
	.st40{fill:#D89988;}
	.st41{fill:#CFCFCF;}
	.st42{fill:#A64B2D;}
	.st43{fill:#FFFFFF;}
	.st44{fill:#CA801F;}
	.st45{fill:#719C50;}
	.st46{fill:#85B7E5;}
	.st47{fill:#4F7BA9;}
	.st48{fill:#674C50;}
	.st49{fill:#BAD7ED;}
	.st50{fill:#63494D;}
	.st51{fill:#503D3F;}
	.st52{fill:#638547;}
	.st53{fill:#56713E;}
	.st54{fill:#BB5135;}
	.st55{fill:#93C4EC;}
	.st56{fill:#CA8121;}
	.st57{fill:#FDFCFC;}
	.st58{fill:#A83A4F;}
	.st59{fill:#BD5E44;}
	.st60{fill:#688C4A;}
	.st61{fill:#7DA55A;}
	.st62{fill:#90BA51;}
	.st63{fill:none;}
	.st64{fill:#ABC287;}
	.st65{fill:#BDD993;}
	.st66{fill:none;stroke:#534046;stroke-width:15;stroke-linecap:round;stroke-linejoin:round;stroke-miterlimit:10;}
	.st67{fill:#413133;}
	.st68{fill:#34292B;}
	.st69{fill:#644B50;}
	.st70{fill:#CDACB7;}
	.st71{fill:#A83A4D;}
	.st72{fill:#413335;}
	.st73{fill:#DC6579;}
	.st74{fill:#4C393C;}
	.st75{fill:#527FAE;}
	.st76{fill:#92C2EA;}
	.st77{fill:#5B8C4A;}
	.st78{fill:#729C51;}
	.st79{fill:#AADB5E;}
	.st80{fill:#D66C53;}
	.st81{fill:#A65340;}
	.st82{fill:#B8594A;}
	.st83{fill:#79A754;}
	.st84{fill:#4E3B3E;}
	.st85{fill:#5E4649;}
	.st86{fill:#604A50;}
	.st87{fill:#685258;}
	.st88{fill:#765E66;}
	.st89{fill:#FCF69A;}
	.st90{fill:#D3CC84;}
	.st91{fill:#E6A572;}
	.st92{fill:#74A151;}
	.st93{fill:#6F994F;}
	.st94{fill:#CC6D7D;}
	.st95{fill:#AD6576;}
	.st96{fill:#95422D;}
	.st97{fill:#BE6850;}
	.st98{fill:#3B2F32;}
	.st99{fill:none;stroke:#46383B;stroke-width:15;stroke-linecap:round;stroke-miterlimit:10;}
	.st100{fill:none;stroke:#3B2F32;stroke-width:15;stroke-linecap:round;stroke-miterlimit:10;}
	.st101{fill:#D6CF77;}
	.st102{fill:#F5EF82;}
	.st103{fill:#4A383B;}
	.st104{fill:#CACACA;}
	.st105{fill:#48373A;}
	.st106{fill:#7AA8D2;}
	.st107{fill:#6E9150;}
	.st108{fill:#587441;}
	.st109{fill:#D76E51;}
	.st110{fill:#CCC475;}
	.st111{fill:#DDD57E;}
	.st112{fill:#F8F19C;}
	.st113{fill:#FBF58A;}
	.st114{fill:#C67F20;}
	.st115{fill:#AB6B1C;}
	.st116{fill:#C98020;}
	.st117{fill:#D99A41;}
	.st118{fill:#DBA35B;}
	.st119{fill:#9B5F1B;}
	.st120{fill:#97CF6D;}
	.st121{fill:#5380B1;}
	.st122{fill:#96D16A;}
	.st123{fill:#92BD50;}
	.st124{fill:#7EB058;}
	.st125{fill:#709A50;}
	.st126{fill:#5A8A4A;}
	.st127{fill:#D9D9D9;}
	.st128{fill:#75A3CD;}
	.st129{fill:#6E974F;}
	.st130{fill:#CA6D7D;}
	.st131{fill:#AB6576;}
	.st132{fill:#93422D;}
	.st133{fill:#A44B2D;}
	.st134{fill:#BC6850;}
	.st135{fill:#DFB52B;}
	.st136{fill:#4C3A3C;}
	.st137{fill:#473538;}
	.st138{fill:#382B2E;}
	.st139{fill:none;stroke:#FFFFFF;stroke-width:8;stroke-linecap:round;stroke-miterlimit:10;}
	.st140{fill:#90C0E8;}
	.st141{fill:none;stroke:#E09122;stroke-width:12;stroke-linecap:round;stroke-miterlimit:10;}
	.st142{fill:#DCAE2B;}
	.st143{fill:#F0D05A;}
	.st144{fill:#729E51;}
	.st145{fill:#E4BA36;}
	.st146{fill:#F8F283;}
	.st147{fill:#E4B6A9;}
	.st148{fill:#D78E30;}
	.st149{fill:#598A49;}
	.st150{fill:#B65339;}
	.st151{fill:#BA751F;}
	.st152{fill:#466A9F;}
	.st153{fill:#8BB34D;}
	.st154{fill:#9BCE54;}
	.st155{fill:#7F9F49;}
	.st156{fill:#D37F6D;}
	.st157{fill:#BB5E44;}
	.st158{fill:#93BB55;}
	.st159{fill:#B3E665;}
	.st160{fill:none;stroke:#4C393C;stroke-width:8;stroke-miterlimit:10;}
	.st161{fill:#97432D;}
	.st162{fill:#DAB12A;}
	.st163{fill:#5E914C;}
	.st164{fill:#5381B3;}
	.st165{fill:#6A8F4C;}
	.st166{fill:#628047;}
	.st167{fill:#E29D37;}
	.st168{fill:#6E555B;}
	.st169{fill:#91CA67;}
	.st170{fill:#476BA1;}
	.st171{fill:#6699D9;}
	.st172{fill:#503C3E;}
	.st173{fill:#413235;}
	.st174{fill:#CC916A;}
	.st175{fill:#BA8363;}
	.st176{fill:#D09571;}
	.st177{fill:#C98F68;}
	.st178{fill:#AA3B4D;}
	.st179{fill:#DA6075;}
	.st180{fill:#92452D;}
	.st181{fill:#A24B2D;}
	.st182{fill:#B76252;}
	.st183{fill:#87BD60;}
	.st184{fill:#78A7D2;}
	.st185{fill:#F9F38F;}
	.st186{fill:#E0D650;}
	.st187{fill:#AFE086;}
	.st188{fill:#9FD476;}
	.st189{fill:#9DD176;}
	.st190{fill:#8FC468;}
	.st191{fill:#7EAE58;}
	.st192{fill:#6F9850;}
	.st193{fill:#59884A;}
	.st194{fill:#638347;}
	.st195{fill:#B95135;}
	.st196{fill:#E5AB62;}
	.st197{fill:#733228;}
	.st198{fill:#803728;}
	.st199{fill:#6D974D;}
	.st200{fill:#99CD75;}
	.st201{fill:#93412C;}
	.st202{fill:#93C2EA;}
	.st203{fill:#CD926B;}
	.st204{fill:#E6AF8A;}
	.st205{fill:#E5DB4E;}
	.st206{fill:#FBF375;}
	.st207{fill:#779E54;}
	.st208{fill:#D3966D;}
	.st209{fill:#DA4355;}
	.st210{fill:#A83B4D;}
	.st211{fill:none;stroke:#594144;stroke-width:8;stroke-linecap:round;stroke-miterlimit:10;}
	.st212{fill:#E5A855;}
	.st213{fill:#EAC291;}
	.st214{fill:#96C252;}
	.st215{fill:#695055;}
	.st216{fill:#DC9C42;}
	.st217{fill:#8E5C1B;}
	.st218{fill:#F4EB6A;}
	.st219{fill:#CBC049;}
	.st220{fill:none;stroke:#B8E876;stroke-width:15;stroke-linecap:round;stroke-miterlimit:10;}
	.st221{fill:#A36A1C;}
	.st222{fill:#ECC94A;}
	.st223{fill:#91BEDA;}
	.st224{fill:#3D2F32;}
	.st225{fill:#A6394C;}
	.st226{fill:#33292B;}
	.st227{fill:#4F3D42;}
	.st228{fill:#638147;}
	.st229{fill:#CD8321;}
	.st230{fill:#D3CA4A;}
	.st231{fill:#E2A550;}
	.st232{fill:#B75135;}
	.st233{fill:#D4CD77;}
	.st234{fill:#F3EC80;}
	.st235{fill:#46383B;}
	.st236{fill:#82AA61;}
	.st237{fill:#8EBF69;}
	.st238{fill:#3C2E31;}
	.st239{fill:#C49F27;}
	.st240{fill:#D2BF7C;}
	.st241{fill:#F6E18D;}
	.st242{fill:#D6D6D6;}
	.st243{fill:#B5D7F2;}
	.st244{fill:#F1D467;}
	.st245{fill:#739FBD;}
	.st246{fill:#D0946C;}
	.st247{fill:#BE8767;}
	.st248{fill:#D0A829;}
	.st249{fill:#F6DF86;}
	.st250{fill:#EABA8D;}
	.st251{fill:#F0D1B8;}
	.st252{fill:#A5D0F1;}
	.st253{fill:#E3A13F;}
	.st254{fill:#F0FAFF;}
	.st255{fill:#B4D3E3;}
	.st256{fill:#80A5C3;}
	.st257{fill:#87AFD5;}
	.st258{fill:#B1D1E7;}
	.st259{fill:#AED66F;}
	.st260{fill:#91AA61;}
	.st261{fill:#A8384B;}
	.st262{fill:#CD8120;}
	.st263{fill:#E6AD56;}
	.st264{fill:none;stroke:#E6AD56;stroke-width:8;stroke-linecap:round;stroke-miterlimit:10;}
	.st265{fill:#9EBD68;}
	.st266{fill:#AAD16E;}
	.st267{fill:#86656B;}
	.st268{fill:#6D954D;}
	.st269{fill:#98CB75;}
	.st270{fill:#75A251;}
	.st271{fill:#91BD4F;}
	.st272{fill:none;stroke:#B8E078;stroke-width:8;stroke-linecap:round;stroke-miterlimit:10;}
	.st273{fill:none;stroke:#B8E078;stroke-width:8;stroke-linecap:round;stroke-linejoin:round;stroke-miterlimit:10;}
	.st274{fill:#8FBA4E;}
	.st275{fill:#B3E860;}
	.st276{fill:#E7A748;}
	.st277{fill:none;stroke:#B6E676;stroke-width:15;stroke-linecap:round;stroke-miterlimit:10;}
	.st278{fill:#639B53;}
	.st279{fill:#476B9F;}
	.st280{fill:#82B1DE;}
	.st281{fill:#A6533F;}
	.st282{fill:#C28A69;}
	.st283{fill:#64494E;}
	.st284{fill:#77565C;}
	.st285{fill:#4F3C40;}
	.st286{fill:#ECCCB1;}
	.st287{fill:#BF6F5C;}
	.st288{fill:none;stroke:#D4F1A7;stroke-width:10;stroke-linecap:round;stroke-miterlimit:10;}
	.st289{fill:none;stroke:#B8E876;stroke-width:10;stroke-linecap:round;stroke-miterlimit:10;}
	.st290{fill:#47688F;}
	.st291{fill:#3F5B78;}
	.st292{fill:#354E6C;}
	.st293{fill:#DAB12B;}
	.st294{fill:#C8A028;}
	.st295{fill:#F0D15C;}
	.st296{fill:#F8F28B;}
	.st297{fill:#F7F18D;}
	.st298{fill:#DED450;}
	.st299{fill:#F9F155;}
	.st300{fill:#A2CFF4;}
	.st301{fill:none;stroke:#594144;stroke-width:10;stroke-linecap:round;stroke-miterlimit:10;}
	.st302{fill:#F5F0AB;}
	.st303{fill:#496DA1;}
	.st304{fill:#5A85C7;}
	.st305{fill:#D7D7D7;}
	.st306{fill:#ADD3E6;}
	.st307{fill:#98B8C3;}
	.st308{fill:#CDCECF;}
	.st309{fill:#BF4F69;}
	.st310{fill:#A83448;}
	.st311{fill:#A4DAF7;}
	.st312{fill:#81A861;}
	.st313{fill:#82A549;}
	.st314{fill:#B6E676;}
	.st315{fill:#8CBD69;}
	.st316{fill:#ECC62F;}
	.st317{fill:#F4EA80;}
	.st318{fill:#D6AD2B;}
	.st319{fill:#6F9151;}
	.st320{fill:#46699C;}
	.st321{fill:#4A373A;}
	.st322{fill:#89B04C;}
	.st323{fill:#99CC53;}
	.st324{fill:#B1E465;}
	.st325{fill:#E19E3B;}
	.st326{fill:#C05970;}
	.st327{fill:#D95F74;}
	.st328{fill:#74A8DE;}
	.st329{fill:#C47C1E;}
	.st330{fill:#719A51;}
	.st331{fill:#A8D95E;}
	.st332{fill:#D46C53;}
	.st333{fill:#A45340;}
	.st334{fill:#B6594A;}
	.st335{fill:#79A554;}
	.st336{fill:#B6DAF7;}
	.st337{fill:#739F51;}
	.st338{fill:#DDB32B;}
	.st339{fill:#DE8F22;}
	.st340{fill:none;stroke:#46383B;stroke-width:8;stroke-linecap:round;stroke-miterlimit:10;}
	.st341{fill:none;stroke:#3B2F32;stroke-width:8;stroke-linecap:round;stroke-miterlimit:10;}
	.st342{fill:#C8C8C8;}
	.st343{fill:#7F9D49;}
	.st344{fill:#BA5E44;}
	.st345{fill:#92B955;}
	.st346{fill:#D17F6D;}
	.st347{fill:#5D8F4C;}
	.st348{fill:#B75334;}
	.st349{fill:#CA6D57;}
	.st350{fill:#A4574D;}
	.st351{fill:#7FB1E6;}
	.st352{fill:#77A3CD;}
	.st353{fill:#90BA4F;}
	.st354{fill:#5C8F4B;}
	.st355{fill:#ACDE5D;}
	.st356{fill:#6FAC5A;}
	.st357{fill:none;stroke:#9DD055;stroke-width:10;stroke-linecap:round;stroke-miterlimit:10;}
	.st358{fill:#AD5643;}
	.st359{fill:#B96052;}
	.st360{fill:#CB8D84;}
	.st361{fill:#CC6C56;}
	.st362{fill:#DE9A8E;}
	.st363{fill:#D37B6A;}
	.st364{fill:#A87758;}
	.st365{fill:#372A2C;}
	.st366{fill:#B8815C;}
	.st367{fill:#433335;}
	.st368{fill:#2C2325;}
	.st369{fill:#95402B;}
	.st370{fill:#A85441;}
	.st371{fill:#D2C74B;}
	.st372{fill:#B25945;}
	.st373{fill:none;stroke:#594144;stroke-width:15;stroke-linecap:round;stroke-miterlimit:10;}
	.st374{fill:none;stroke:#594144;stroke-width:12;stroke-linecap:round;stroke-miterlimit:10;}
	.st375{fill:#8F473B;}
	.st376{fill:#453538;}
	.st377{fill:#517DAB;}
	.st378{fill:#75A050;}
	.st379{fill:#A5384D;}
	.st380{fill:#CC6075;}
	.st381{fill:#F26B7F;}
	.st382{fill:#C67189;}
	.st383{fill:#B26980;}
	.st384{fill:#D87990;}
	.st385{fill:#F2869B;}
	.st386{fill:#EF8499;}
	.st387{fill:#649CD7;}
	.st388{fill:#639CDB;}
	.st389{fill:#C8ED8D;}
	.st390{fill:#A9DB83;}
	.st391{fill:#9BCF76;}
	.st392{fill:#7EAC58;}
	.st393{fill:#8CC463;}
	.st394{fill:#7FAC5B;}
	.st395{fill:#769C55;}
	.st396{fill:#6A894D;}
	.st397{fill:#769B56;}
	.st398{fill:#9BCC75;}
	.st399{fill:#AF5641;}
	.st400{fill:#F4D576;}
	.st401{fill:#76A055;}
	.st402{fill:#628347;}
	.st403{fill:#4F7B9F;}
	.st404{fill:#466D86;}
	.st405{fill:#4D789C;}
</style>
<g id="BULINE">
</g>
<g id="Icons">
	<g>
		<circle id="XMLID_3105_" class="st12" cx="256" cy="256" r="256"/>
		<g id="XMLID_525_">
			<path id="XMLID_4075_" class="st236" d="M503.5,321.5c-5,18.9-12.1,37-21.1,53.9c-11.1,20.9-25,40.2-41.2,57.2
				c-8.7,9.2-18.2,17.7-28.2,25.5C369.8,491.9,315.2,512,256,512c-59.8,0-114.8-20.5-158.4-54.9c-9.1-7.2-17.7-15-25.7-23.3
				C57,418.4,44,401.1,33.3,382.4c-7.7-13.6-14.3-28-19.4-43c0.6-0.3,1.3-0.5,1.9-0.8c0.2-0.1,0.5-0.2,0.8-0.3
				c3.1-1.1,6.4-1.6,9.9-1.6c9.1,0,17.2,3.9,22.9,10.1c2.2,2.5,4.1,5.3,5.4,8.3h0.6c3-2.3,6.5-4.1,10.2-5.1c2.6-0.7,5.3-1.2,8.1-1.2
				c0.1,0,0.3,0,0.4,0c1.7,0,3.4,0.1,5,0.4c3.2,0.5,6.2,1.5,9,2.9c0,0,0,0,0,0c1.7,0.9,3.3,1.9,4.8,3h0.3c2.6-3.5,5.8-6.5,9.3-9
				c0.2-0.2,0.4-0.3,0.7-0.4c0,0,0,0,0,0c2.5-1.7,5.2-3.1,8-4.1c4.5-1.7,9.4-2.6,14.5-2.6c1,0,2,0,2.9,0.1c0.5,0,1,0.1,1.5,0.1
				c2,0.2,4,0.6,5.8,1.1c2,0.5,4,1.2,5.9,2c0.1,0,0.1,0.1,0.2,0.1c0,0,0,0,0,0c5,2.2,9.5,5.4,13.2,9.3c0.7-0.9,1.4-1.7,2.1-2.5
				c2.3-2.6,4.9-4.9,7.7-6.9c3-2.2,6.3-4,9.9-5.3c1.8-0.7,3.7-1.3,5.6-1.8c0.5-0.1,1-0.2,1.6-0.3c2.5-0.5,5.1-0.9,7.7-1
				c0.6,0,1.2,0,1.9,0c2.1,0,4.1,0.1,6.1,0.4c2.2,0.3,4.2,0.7,6.3,1.3c3.8,1.1,7.5,2.6,10.8,4.6c5.2,3,9.8,7.1,13.4,11.9
				c0.8,1,1.5,2.1,2.2,3.2h2.4c2.3-1.8,4.9-3.2,7.6-4.3c2.7-1.1,5.6-1.7,8.6-2c0.5,0,1.1-0.1,1.6-0.1c0.3,0,0.6,0,0.8,0
				c4,0,7.7,0.8,11.2,2.1c1.5-1.3,3.2-2.5,4.9-3.5c0.2-0.1,0.3-0.2,0.5-0.3c0.2-0.1,0.5-0.2,0.7-0.4c2.9-1.5,6.1-2.6,9.5-3.1
				c9-1.4,17.6,1.2,24.2,6.6c1.8,1.4,3.4,3.1,4.8,4.9h5c4.1-3.3,9-5.7,14.5-6.6c0.1,0,0.3-0.1,0.4-0.1c7-1.1,13.9,0.3,19.7,3.5
				c2.1-3.9,4.8-7.4,8-10.4c0.2-0.2,0.4-0.4,0.6-0.6c0,0,0,0,0,0c1.7-1.5,3.5-2.9,5.4-4.1c0.9-0.6,1.9-1.2,2.9-1.7
				c1-0.5,1.9-1,3-1.4c3.1-1.4,6.5-2.3,10-2.9c0.1,0,0.2,0,0.4,0c3.4-0.5,6.7-0.6,9.9-0.2c1.6,0.2,3.3,0.4,4.9,0.8
				c0.5,0.1,1.1,0.3,1.6,0.4c5.3,1.4,10.2,3.9,14.4,7.2c5.2-9.4,13.6-16.8,23.9-20.7c2.4-0.9,4.9-1.6,7.5-2.1
				c0.6-0.1,1.2-0.2,1.8-0.3c8.4-1.3,16.5-0.2,23.9,2.7c5.6,2.2,10.7,5.5,15,9.7c1.3,1.2,2.5,2.6,3.7,4c4.6-5.5,11.2-9.4,19-10.6
				C503.1,321.6,503.3,321.5,503.5,321.5z"/>
			<g id="XMLID_3957_">
				<path id="XMLID_4074_" class="st45" d="M144.1,147.4c0,6.5,6.6,14.1,4.7,20c-2,6.1-11.8,8.3-15.5,13.4
					c-3.7,5.1-2.8,15.2-7.9,18.9c-5.1,3.7-14.3-0.3-20.4,1.7c-0.2,0.1-0.3,0.1-0.5,0.2c-5.7,2.2-10.7,10.4-17.1,10.4
					c-6.5,0-11.6-8.7-17.5-10.6c-6.1-2-15.3,2-20.4-1.7c-5.1-3.7-4.2-13.8-7.9-18.9c-3.7-5.1-13.5-7.3-15.5-13.4
					c-1.9-5.9,4.7-13.4,4.7-20c0-6.5-6.6-14.1-4.7-20c2-6.1,11.8-8.3,15.5-13.4c3.7-5.1,2.8-15.2,7.9-18.9
					c5.1-3.7,14.3,0.3,20.4-1.7c5.9-1.9,11-10.6,17.5-10.6c6.4,0,11.3,8.2,17.1,10.4c0.2,0.1,0.3,0.1,0.5,0.2c6.1,2,15.3-2,20.4,1.7
					c5.1,3.7,4.2,13.8,7.9,18.9c3.7,5.1,13.5,7.3,15.5,13.4C150.7,133.3,144.1,140.9,144.1,147.4z"/>
				<path id="XMLID_4073_" class="st20" d="M144.1,147.4c0,6.5,6.6,14.1,4.7,20c-2,6.1-11.8,8.3-15.5,13.4
					c-3.7,5.1-2.8,15.2-7.9,18.9c-5.1,3.7-14.3-0.3-20.4,1.7c-0.2,0.1-0.3,0.1-0.5,0.2c-0.2-0.1-0.3-0.1-0.5-0.2
					c-6.1-2-15.3,2-20.4-1.7c-5.1-3.7-4.2-13.8-7.9-18.9c-3.7-5.1-13.5-7.3-15.5-13.4c-1.9-5.9,4.7-13.4,4.7-20
					c0-6.5-6.6-14.1-4.7-20c2-6.1,11.8-8.3,15.5-13.4c3.7-5.1,2.8-15.2,7.9-18.9c5.1-3.7,14.3,0.3,20.4-1.7c0.2-0.1,0.3-0.1,0.5-0.2
					c0.2,0.1,0.3,0.1,0.5,0.2c6.1,2,15.3-2,20.4,1.7c5.1,3.7,4.2,13.8,7.9,18.9c3.7,5.1,13.5,7.3,15.5,13.4
					C150.7,133.3,144.1,140.9,144.1,147.4z"/>
				<path id="XMLID_4072_" class="st45" d="M226.5,126.2c0,6.7,6.8,14.4,4.8,20.5c-2,6.3-12.1,8.5-15.9,13.7
					c-3.8,5.3-2.9,15.6-8.2,19.4c-5.2,3.8-14.7-0.3-21,1.8c-0.2,0.1-0.3,0.1-0.5,0.2c-5.9,2.3-11,10.7-17.5,10.7
					c-6.7,0-11.9-8.9-18-10.9c-6.3-2-15.7,2-21-1.8c-5.3-3.8-4.3-14.1-8.2-19.4c-3.8-5.2-13.9-7.5-15.9-13.7
					c-2-6.1,4.8-13.8,4.8-20.5c0-6.7-6.8-14.4-4.8-20.5c2-6.3,12.1-8.5,15.9-13.7c3.8-5.3,2.9-15.6,8.2-19.4
					c5.2-3.8,14.7,0.3,21-1.8c6.1-2,11.3-10.9,18-10.9c6.5,0,11.7,8.4,17.5,10.7c0.2,0.1,0.3,0.1,0.5,0.2c6.3,2,15.7-2,21,1.8
					c5.3,3.8,4.3,14.1,8.2,19.4c3.8,5.2,13.9,7.5,15.9,13.7C233.3,111.8,226.5,119.5,226.5,126.2z"/>
				<path id="XMLID_4071_" class="st20" d="M226.5,126.2c0,6.7,6.8,14.4,4.8,20.5c-2,6.3-12.1,8.5-15.9,13.7
					c-3.8,5.3-2.9,15.6-8.2,19.4c-5.2,3.8-14.7-0.3-21,1.8c-0.2,0.1-0.3,0.1-0.5,0.2c-0.2-0.1-0.3-0.1-0.5-0.2c-6.3-2-15.7,2-21-1.8
					c-5.3-3.8-4.3-14.1-8.1-19.4c-3.8-5.2-13.9-7.5-15.9-13.7c-2-6.1,4.8-13.8,4.8-20.5c0-6.7-6.8-14.4-4.8-20.5
					c2-6.3,12.1-8.5,15.9-13.7c3.8-5.3,2.9-15.6,8.1-19.4c5.2-3.8,14.7,0.3,21-1.8c0.2-0.1,0.3-0.1,0.5-0.2c0.2,0.1,0.3,0.1,0.5,0.2
					c6.3,2,15.7-2,21,1.8c5.3,3.8,4.3,14.1,8.2,19.4c3.8,5.2,13.9,7.5,15.9,13.7C233.3,111.8,226.5,119.5,226.5,126.2z"/>
				<path id="XMLID_4070_" class="st45" d="M262.6,212c0,6.7,6.8,14.4,4.8,20.5c-2,6.3-12.1,8.5-15.9,13.7
					c-3.8,5.3-2.9,15.6-8.2,19.4c-5.2,3.8-14.7-0.3-21,1.8c-0.2,0.1-0.3,0.1-0.5,0.2c-5.9,2.3-11,10.7-17.5,10.7
					c-6.7,0-11.9-8.9-18-10.9c-6.3-2-15.7,2-21-1.8c-5.3-3.8-4.3-14.1-8.2-19.4c-3.8-5.2-13.9-7.5-15.9-13.7
					c-2-6.1,4.8-13.8,4.8-20.5c0-6.7-6.8-14.4-4.8-20.5c2-6.3,12.1-8.5,15.9-13.7c3.8-5.3,2.9-15.6,8.2-19.4
					c5.2-3.8,14.7,0.3,21-1.8c6.1-2,11.3-10.9,18-10.9c6.5,0,11.7,8.4,17.5,10.7c0.2,0.1,0.3,0.1,0.5,0.2c6.3,2,15.7-2,21,1.8
					c5.3,3.8,4.3,14.1,8.2,19.4c3.8,5.2,13.9,7.5,15.9,13.7C269.4,197.5,262.6,205.3,262.6,212z"/>
				<path id="XMLID_4069_" class="st20" d="M262.6,212c0,6.7,6.8,14.4,4.8,20.5c-2,6.3-12.1,8.5-15.9,13.7
					c-3.8,5.3-2.9,15.6-8.2,19.4c-5.2,3.8-14.7-0.3-21,1.8c-0.2,0.1-0.3,0.1-0.5,0.2c-0.2-0.1-0.3-0.1-0.5-0.2c-6.3-2-15.7,2-21-1.8
					c-5.3-3.8-4.3-14.1-8.1-19.4c-3.8-5.2-13.9-7.5-15.9-13.7c-2-6.1,4.8-13.8,4.8-20.5c0-6.7-6.8-14.4-4.8-20.5
					c2-6.3,12.1-8.5,15.9-13.7c3.8-5.3,2.9-15.6,8.1-19.4c5.2-3.8,14.7,0.3,21-1.8c0.2-0.1,0.3-0.1,0.5-0.2c0.2,0.1,0.3,0.1,0.5,0.2
					c6.3,2,15.7-2,21,1.8c5.3,3.8,4.3,14.1,8.2,19.4c3.8,5.2,13.9,7.5,15.9,13.7C269.4,197.5,262.6,205.3,262.6,212z"/>
				<path id="XMLID_4068_" class="st45" d="M109.4,228c0,5.4,5.5,11.6,3.9,16.5c-1.6,5.1-9.8,6.9-12.9,11.1
					c-3.1,4.3-2.3,12.6-6.6,15.7c-4.2,3.1-11.9-0.2-16.9,1.4c-0.1,0-0.3,0.1-0.4,0.1c-4.7,1.8-8.9,8.6-14.1,8.6
					c-5.4,0-9.6-7.2-14.5-8.8c-5.1-1.6-12.7,1.6-16.9-1.4c-4.3-3.1-3.5-11.4-6.6-15.7c-3.1-4.2-11.2-6-12.9-11.1
					c-1.6-4.9,3.9-11.1,3.9-16.5c0-5.4-5.5-11.6-3.9-16.5c1.6-5.1,9.8-6.9,12.9-11.1c3.1-4.3,2.3-12.6,6.6-15.7
					c4.2-3.1,11.9,0.2,16.9-1.4c4.9-1.6,9.1-8.8,14.5-8.8c5.3,0,9.4,6.8,14.1,8.6c0.1,0.1,0.3,0.1,0.4,0.1
					c5.1,1.6,12.7-1.6,16.9,1.4c4.3,3.1,3.5,11.4,6.6,15.7c3.1,4.2,11.2,6,12.9,11.1C114.9,216.3,109.4,222.6,109.4,228z"/>
				<path id="XMLID_4067_" class="st20" d="M109.4,228c0,5.4,5.5,11.6,3.9,16.5c-1.6,5.1-9.8,6.9-12.9,11.1
					c-3.1,4.3-2.3,12.6-6.6,15.7c-4.2,3.1-11.9-0.2-16.9,1.4c-0.1,0-0.3,0.1-0.4,0.1c-0.1-0.1-0.3-0.1-0.4-0.1
					c-5.1-1.6-12.7,1.6-16.9-1.4c-4.3-3.1-3.5-11.4-6.6-15.7c-3.1-4.2-11.2-6-12.9-11.1c-1.6-4.9,3.9-11.1,3.9-16.5
					c0-5.4-5.5-11.6-3.9-16.5c1.6-5.1,9.8-6.9,12.9-11.1c3.1-4.3,2.3-12.6,6.6-15.7c4.2-3.1,11.9,0.2,16.9-1.4
					c0.1,0,0.3-0.1,0.4-0.1c0.1,0.1,0.3,0.1,0.4,0.1c5.1,1.6,12.7-1.6,16.9,1.4c4.3,3.1,3.5,11.4,6.6,15.7c3.1,4.2,11.2,6,12.9,11.1
					C114.9,216.3,109.4,222.6,109.4,228z"/>
				<path id="XMLID_4061_" class="st45" d="M183.1,228c0,5.4,5.5,11.6,3.9,16.5c-1.6,5.1-9.8,6.9-12.9,11.1
					c-3.1,4.3-2.3,12.6-6.6,15.7c-4.2,3.1-11.9-0.2-16.9,1.4c-0.1,0-0.3,0.1-0.4,0.1c-4.7,1.8-8.9,8.6-14.1,8.6
					c-5.4,0-9.6-7.2-14.5-8.8c-5.1-1.6-12.7,1.6-16.9-1.4c-4.3-3.1-3.5-11.4-6.6-15.7c-3.1-4.2-11.2-6-12.9-11.1
					c-1.6-4.9,3.9-11.1,3.9-16.5c0-5.4-5.5-11.6-3.9-16.5c1.6-5.1,9.8-6.9,12.9-11.1c3.1-4.3,2.3-12.6,6.6-15.7
					c4.2-3.1,11.9,0.2,16.9-1.4c4.9-1.6,9.1-8.8,14.5-8.8c5.3,0,9.4,6.8,14.1,8.6c0.1,0.1,0.3,0.1,0.4,0.1
					c5.1,1.6,12.7-1.6,16.9,1.4c4.3,3.1,3.5,11.4,6.6,15.7c3.1,4.2,11.2,6,12.9,11.1C188.6,216.3,183.1,222.6,183.1,228z"/>
				<path id="XMLID_4060_" class="st20" d="M183.1,228c0,5.4,5.5,11.6,3.9,16.5c-1.6,5.1-9.8,6.9-12.9,11.1
					c-3.1,4.3-2.3,12.6-6.6,15.7c-4.2,3.1-11.9-0.2-16.9,1.4c-0.1,0-0.3,0.1-0.4,0.1c-0.1-0.1-0.3-0.1-0.4-0.1
					c-5.1-1.6-12.7,1.6-16.9-1.4c-4.3-3.1-3.5-11.4-6.6-15.7c-3.1-4.2-11.2-6-12.9-11.1c-1.6-4.9,3.9-11.1,3.9-16.5
					c0-5.4-5.5-11.6-3.9-16.5c1.6-5.1,9.8-6.9,12.9-11.1c3.1-4.3,2.3-12.6,6.6-15.7c4.2-3.1,11.9,0.2,16.9-1.4
					c0.1,0,0.3-0.1,0.4-0.1c0.1,0.1,0.3,0.1,0.4,0.1c5.1,1.6,12.7-1.6,16.9,1.4c4.3,3.1,3.5,11.4,6.6,15.7c3.1,4.2,11.2,6,12.9,11.1
					C188.6,216.3,183.1,222.6,183.1,228z"/>
				<g id="XMLID_3959_">
					<path id="XMLID_3983_" class="st2" d="M239.2,200.4c-1,3-2.4,5.4-4.1,7.5c-5.4,6.6-13.6,8.7-21.4,8.7c-3.3,0-6.4-0.4-9.3-1
						c-4.4,10-11.6,18.2-20.8,23.7c5,4.9,13.6,11.9,23.1,13c6,0.7,11.5-0.9,16.8-5.1c1.7-1.4,4.2-1.1,5.6,0.7
						c1.4,1.7,1.1,4.2-0.7,5.6c-5.9,4.6-12.2,7-19,7c-1.2,0-2.5-0.1-3.7-0.2c-13.2-1.6-24.3-11.5-29.6-17.1l-2.7,1.1l-19.1,7.9
						l4.4,143.9h-31.9l3.2-105.3l-48.5-26.6c-6.6-3.6-12.2-8.9-16.2-15.2l-1.4-2.3c-2,0.2-4.4,0.4-7,0.4c-8.9,0-20.2-2.3-24.1-13
						c-0.7-2.1,0.3-4.4,2.4-5.1c2.1-0.8,4.4,0.3,5.1,2.4c2.6,7.1,11.9,8.1,18.8,7.7l-19.6-31.2c-1.8-2.8-0.9-6.5,1.9-8.3
						c2.8-1.8,6.5-0.9,8.3,1.9l14.1,22.5l15.4-20.5c1.3-1.8,3.8-2.1,5.6-0.8c1.8,1.3,2.1,3.8,0.8,5.6l-17.3,22.9l7.2,11.4
						c2.9,4.6,7,8.5,11.8,11.1l43.1,23.7l2.7-89.4c-4.9-1.3-11.5-3.5-18.4-7.1c-19.1-9.9-32.2-25.5-38.1-45.2
						c-0.9-3.2,0.9-6.5,4-7.4c3.2-0.9,6.5,0.9,7.4,4c2.7,9.1,7.2,17.1,13.3,23.8c4.7-5.8,9.3-12.9,9.1-16.7
						c-0.1-2.2,1.6-4.1,3.8-4.2c2.2-0.1,4.1,1.6,4.2,3.8c0.4,7.3-6.4,16.9-11.2,22.7c3.7,3.1,7.9,6,12.6,8.4
						c4.9,2.6,9.7,4.4,13.6,5.6l1-33.7c0.1-4.2,3.3-7.5,7.4-7.9c0.3,0,0.5,0,0.8,0c4.4,0,8.1,3.5,8.2,8l0.8,25.4l12.8-8.1
						c2.8-1.8,4.8-4.5,5.6-7.7l5.2-20.2l15.1-7.9c2-1,4.4-0.3,5.4,1.7c1,2,0.3,4.4-1.7,5.4l-12,6.3l-4.3,16.8
						c-1.3,5.2-4.5,9.6-9,12.5l-16.8,10.7l1.9,62.7l17.9-7.4c1.4-0.6,2.7-1.2,4-1.9c7.9-4.3,14-11,17.7-19.3l10.1-23
						c1.3-3,4.9-4.4,7.9-3.1c3,1.3,4.4,4.9,3.1,7.9l-6.8,15.5c7.6,1.2,19.9,1.2,23.9-10.3c0.2-0.6,0.6-1.2,1-1.6
						c1-1,2.6-1.4,4.1-0.9C238.8,196,240,198.3,239.2,200.4z"/>
					<path id="XMLID_3981_" class="st74" d="M142.1,134V396h-15.2l3.2-105.3l-48.5-26.6c-6.6-3.6-12.2-8.9-16.2-15.2l-1.4-2.3
						c-2,0.2-4.4,0.4-7,0.4c-8.9,0-20.2-2.3-24.1-13.1c-0.8-2.1,0.3-4.4,2.4-5.1c2.1-0.8,4.4,0.3,5.1,2.4c2.6,7.1,11.9,8.1,18.8,7.7
						l-19.6-31.2c-1.8-2.8-0.9-6.5,1.9-8.3c2.8-1.8,6.5-0.9,8.3,1.9l14.1,22.5l15.4-20.5c1.3-1.8,3.8-2.1,5.6-0.8
						c1.8,1.3,2.1,3.8,0.8,5.6l-17.3,22.9l7.2,11.4c2.9,4.6,7,8.5,11.8,11.1l43.1,23.7l2.7-89.4c-4.9-1.3-11.5-3.5-18.4-7.1
						c-19.1-9.9-32.2-25.5-38.1-45.2c-0.9-3.2,0.9-6.5,4-7.4c3.2-0.9,6.5,0.9,7.4,4c2.7,9.1,7.2,17.1,13.3,23.8
						c4.7-5.8,9.3-12.9,9.1-16.7c-0.1-2.2,1.6-4.1,3.8-4.2c2.2-0.1,4.1,1.6,4.2,3.8c0.4,7.3-6.4,16.9-11.2,22.7
						c3.7,3.1,7.9,6,12.6,8.4c4.9,2.6,9.7,4.4,13.6,5.6l1-33.7C134.8,137.7,138,134.3,142.1,134z"/>
				</g>
				<path id="XMLID_3958_" class="st215" d="M183.8,239.3c5,4.9,13.6,11.9,23.1,13c6,0.7,11.5-0.9,16.8-5.1c1.7-1.4,4.2-1.1,5.6,0.7
					c1.4,1.7,1.1,4.2-0.7,5.6c-5.9,4.6-12.2,7-19,7c-1.2,0-2.5-0.1-3.7-0.2c-13.2-1.6-24.3-11.5-29.6-17.1l-2.7,1.1
					c0.5-4.8,1.3-9.5,2.3-14.2c7.9-4.3,14-11,17.7-19.3l10.1-23c1.3-3,4.9-4.4,7.9-3.1c3,1.3,4.4,4.9,3.1,7.9l-6.8,15.5
					c7.6,1.2,19.9,1.2,23.9-10.3c0.2-0.6,0.6-1.2,1-1.6l2.4,11.7c-5.4,6.6-13.6,8.7-21.4,8.7c-3.3,0-6.4-0.4-9.3-1
					C200.1,225.6,192.9,233.8,183.8,239.3z"/>
			</g>
			<g id="XMLID_1721_">
				<path id="XMLID_3868_" class="st45" d="M379.3,147.4c0,6.5,6.6,14.1,4.7,20c-2,6.1-11.8,8.3-15.5,13.4
					c-3.7,5.1-2.8,15.2-7.9,18.9c-5.1,3.7-14.3-0.3-20.4,1.7c-0.2,0.1-0.3,0.1-0.5,0.2C334,203.8,329,212,322.6,212
					c-6.5,0-11.6-8.7-17.5-10.6c-6.1-2-15.3,2-20.4-1.7c-5.1-3.7-4.2-13.8-7.9-18.9c-3.7-5.1-13.5-7.3-15.5-13.4
					c-1.9-5.9,4.7-13.4,4.7-20c0-6.5-6.6-14.1-4.7-20c2-6.1,11.8-8.3,15.5-13.4c3.7-5.1,2.8-15.2,7.9-18.9
					c5.1-3.7,14.3,0.3,20.4-1.7c5.9-1.9,11-10.6,17.5-10.6c6.4,0,11.3,8.2,17.1,10.4c0.2,0.1,0.3,0.1,0.5,0.2c6.1,2,15.3-2,20.4,1.7
					c5.1,3.7,4.2,13.8,7.9,18.9c3.7,5.1,13.5,7.3,15.5,13.4C386,133.3,379.3,140.9,379.3,147.4z"/>
				<path id="XMLID_3867_" class="st20" d="M379.3,147.4c0,6.5,6.6,14.1,4.7,20c-2,6.1-11.8,8.3-15.5,13.4
					c-3.7,5.1-2.8,15.2-7.9,18.9c-5.1,3.7-14.3-0.3-20.4,1.7c-0.2,0.1-0.3,0.1-0.5,0.2c-0.2-0.1-0.3-0.1-0.5-0.2
					c-6.1-2-15.3,2-20.4-1.7c-5.1-3.7-4.2-13.8-7.9-18.9c-3.7-5.1-13.5-7.3-15.5-13.4c-1.9-5.9,4.7-13.4,4.7-20
					c0-6.5-6.6-14.1-4.7-20c2-6.1,11.8-8.3,15.5-13.4c3.7-5.1,2.8-15.2,7.9-18.9c5.1-3.7,14.3,0.3,20.4-1.7c0.2-0.1,0.3-0.1,0.5-0.2
					c0.2,0.1,0.3,0.1,0.5,0.2c6.1,2,15.3-2,20.4,1.7c5.1,3.7,4.2,13.8,7.9,18.9c3.7,5.1,13.5,7.3,15.5,13.4
					C386,133.3,379.3,140.9,379.3,147.4z"/>
				<path id="XMLID_3866_" class="st45" d="M461.8,126.2c0,6.7,6.8,14.4,4.8,20.5c-2,6.3-12.1,8.5-15.9,13.7
					c-3.8,5.3-2.9,15.6-8.2,19.4c-5.2,3.8-14.7-0.3-21,1.8c-0.2,0.1-0.3,0.1-0.5,0.2c-5.9,2.3-11,10.7-17.5,10.7
					c-6.7,0-11.9-8.9-18-10.9c-6.3-2-15.7,2-21-1.8c-5.3-3.8-4.3-14.1-8.2-19.4c-3.8-5.2-13.9-7.5-15.9-13.7
					c-2-6.1,4.8-13.8,4.8-20.5c0-6.7-6.8-14.4-4.8-20.5c2-6.3,12.1-8.5,15.9-13.7c3.8-5.3,2.9-15.6,8.2-19.4
					c5.2-3.8,14.7,0.3,21-1.8c6.1-2,11.3-10.9,18-10.9c6.5,0,11.7,8.4,17.5,10.7c0.2,0.1,0.3,0.1,0.5,0.2c6.3,2,15.7-2,21,1.8
					c5.3,3.8,4.3,14.1,8.2,19.4c3.8,5.2,13.9,7.5,15.9,13.7C468.6,111.8,461.8,119.5,461.8,126.2z"/>
				<path id="XMLID_3865_" class="st20" d="M461.8,126.2c0,6.7,6.8,14.4,4.8,20.5c-2,6.3-12.1,8.5-15.9,13.7
					c-3.8,5.3-2.9,15.6-8.2,19.4c-5.2,3.8-14.7-0.3-21,1.8c-0.2,0.1-0.3,0.1-0.5,0.2c-0.2-0.1-0.3-0.1-0.5-0.2c-6.3-2-15.7,2-21-1.8
					c-5.3-3.8-4.3-14.1-8.1-19.4c-3.8-5.2-13.9-7.5-15.9-13.7c-2-6.1,4.8-13.8,4.8-20.5c0-6.7-6.8-14.4-4.8-20.5
					c2-6.3,12.1-8.5,15.9-13.7c3.8-5.3,2.9-15.6,8.1-19.4c5.2-3.8,14.7,0.3,21-1.8c0.2-0.1,0.3-0.1,0.5-0.2c0.2,0.1,0.3,0.1,0.5,0.2
					c6.3,2,15.7-2,21,1.8c5.3,3.8,4.3,14.1,8.2,19.4c3.8,5.2,13.9,7.5,15.9,13.7C468.6,111.8,461.8,119.5,461.8,126.2z"/>
				<path id="XMLID_3863_" class="st45" d="M497.8,212c0,6.7,6.8,14.4,4.8,20.5c-2,6.3-12.1,8.5-15.9,13.7
					c-3.8,5.3-2.9,15.6-8.2,19.4c-5.2,3.8-14.7-0.3-21,1.8c-0.2,0.1-0.3,0.1-0.5,0.2c-5.9,2.3-11,10.7-17.5,10.7
					c-6.7,0-11.9-8.9-18-10.9c-6.3-2-15.7,2-21-1.8c-5.3-3.8-4.3-14.1-8.2-19.4c-3.8-5.2-13.9-7.5-15.9-13.7
					c-2-6.1,4.8-13.8,4.8-20.5c0-6.7-6.8-14.4-4.8-20.5c2-6.3,12.1-8.5,15.9-13.7c3.8-5.3,2.9-15.6,8.2-19.4
					c5.2-3.8,14.7,0.3,21-1.8c6.1-2,11.3-10.9,18-10.9c6.5,0,11.7,8.4,17.5,10.7c0.2,0.1,0.3,0.1,0.5,0.2c6.3,2,15.7-2,21,1.8
					c5.3,3.8,4.3,14.1,8.2,19.4c3.8,5.2,13.9,7.5,15.9,13.7C504.6,197.5,497.8,205.3,497.8,212z"/>
				<path id="XMLID_3861_" class="st20" d="M497.8,212c0,6.7,6.8,14.4,4.8,20.5c-2,6.3-12.1,8.5-15.9,13.7
					c-3.8,5.3-2.9,15.6-8.2,19.4c-5.2,3.8-14.7-0.3-21,1.8c-0.2,0.1-0.3,0.1-0.5,0.2c-0.2-0.1-0.3-0.1-0.5-0.2c-6.3-2-15.7,2-21-1.8
					c-5.3-3.8-4.3-14.1-8.1-19.4c-3.8-5.2-13.9-7.5-15.9-13.7c-2-6.1,4.8-13.8,4.8-20.5c0-6.7-6.8-14.4-4.8-20.5
					c2-6.3,12.1-8.5,15.9-13.7c3.8-5.3,2.9-15.6,8.1-19.4c5.2-3.8,14.7,0.3,21-1.8c0.2-0.1,0.3-0.1,0.5-0.2c0.2,0.1,0.3,0.1,0.5,0.2
					c6.3,2,15.7-2,21,1.8c5.3,3.8,4.3,14.1,8.2,19.4c3.8,5.2,13.9,7.5,15.9,13.7C504.6,197.5,497.8,205.3,497.8,212z"/>
				<path id="XMLID_3860_" class="st45" d="M344.7,228c0,5.4,5.5,11.6,3.9,16.5c-1.6,5.1-9.8,6.9-12.9,11.1
					c-3.1,4.3-2.3,12.6-6.6,15.7c-4.2,3.1-11.9-0.2-16.9,1.4c-0.1,0-0.3,0.1-0.4,0.1c-4.7,1.8-8.9,8.6-14.1,8.6
					c-5.4,0-9.6-7.2-14.5-8.8c-5.1-1.6-12.7,1.6-16.9-1.4c-4.3-3.1-3.5-11.4-6.6-15.7c-3.1-4.2-11.2-6-12.9-11.1
					c-1.6-4.9,3.9-11.1,3.9-16.5c0-5.4-5.5-11.6-3.9-16.5c1.6-5.1,9.8-6.9,12.9-11.1c3.1-4.3,2.3-12.6,6.6-15.7
					c4.2-3.1,11.9,0.2,16.9-1.4c4.9-1.6,9.1-8.8,14.5-8.8c5.3,0,9.4,6.8,14.1,8.6c0.1,0.1,0.3,0.1,0.4,0.1
					c5.1,1.6,12.7-1.6,16.9,1.4c4.3,3.1,3.5,11.4,6.6,15.7c3.1,4.2,11.2,6,12.9,11.1C350.1,216.3,344.7,222.6,344.7,228z"/>
				<path id="XMLID_3859_" class="st20" d="M344.7,228c0,5.4,5.5,11.6,3.9,16.5c-1.6,5.1-9.8,6.9-12.9,11.1
					c-3.1,4.3-2.3,12.6-6.6,15.7c-4.2,3.1-11.9-0.2-16.9,1.4c-0.1,0-0.3,0.1-0.4,0.1c-0.1-0.1-0.3-0.1-0.4-0.1
					c-5.1-1.6-12.7,1.6-16.9-1.4c-4.3-3.1-3.5-11.4-6.6-15.7c-3.1-4.2-11.2-6-12.9-11.1c-1.6-4.9,3.9-11.1,3.9-16.5
					c0-5.4-5.5-11.6-3.9-16.5c1.6-5.1,9.8-6.9,12.9-11.1c3.1-4.3,2.3-12.6,6.6-15.7c4.2-3.1,11.9,0.2,16.9-1.4
					c0.1,0,0.3-0.1,0.4-0.1c0.1,0.1,0.3,0.1,0.4,0.1c5.1,1.6,12.7-1.6,16.9,1.4c4.3,3.1,3.5,11.4,6.6,15.7c3.1,4.2,11.2,6,12.9,11.1
					C350.1,216.3,344.7,222.6,344.7,228z"/>
				<path id="XMLID_3858_" class="st45" d="M418.3,228c0,5.4,5.5,11.6,3.9,16.5c-1.6,5.1-9.8,6.9-12.9,11.1
					c-3.1,4.3-2.3,12.6-6.6,15.7c-4.2,3.1-11.9-0.2-16.9,1.4c-0.1,0-0.3,0.1-0.4,0.1c-4.7,1.8-8.9,8.6-14.1,8.6
					c-5.4,0-9.6-7.2-14.5-8.8c-5.1-1.6-12.7,1.6-16.9-1.4c-4.3-3.1-3.5-11.4-6.6-15.7c-3.1-4.2-11.2-6-12.9-11.1
					c-1.6-4.9,3.9-11.1,3.9-16.5c0-5.4-5.5-11.6-3.9-16.5c1.6-5.1,9.8-6.9,12.9-11.1c3.1-4.3,2.3-12.6,6.6-15.7
					c4.2-3.1,11.9,0.2,16.9-1.4c4.9-1.6,9.1-8.8,14.5-8.8c5.3,0,9.4,6.8,14.1,8.6c0.1,0.1,0.3,0.1,0.4,0.1
					c5.1,1.6,12.7-1.6,16.9,1.4c4.3,3.1,3.5,11.4,6.6,15.7c3.1,4.2,11.2,6,12.9,11.1C423.8,216.3,418.3,222.6,418.3,228z"/>
				<path id="XMLID_3844_" class="st20" d="M418.3,228c0,5.4,5.5,11.6,3.9,16.5c-1.6,5.1-9.8,6.9-12.9,11.1
					c-3.1,4.3-2.3,12.6-6.6,15.7c-4.2,3.1-11.9-0.2-16.9,1.4c-0.1,0-0.3,0.1-0.4,0.1c-0.1-0.1-0.3-0.1-0.4-0.1
					c-5.1-1.6-12.7,1.6-16.9-1.4c-4.3-3.1-3.5-11.4-6.6-15.7c-3.1-4.2-11.2-6-12.9-11.1c-1.6-4.9,3.9-11.1,3.9-16.5
					c0-5.4-5.5-11.6-3.9-16.5c1.6-5.1,9.8-6.9,12.9-11.1c3.1-4.3,2.3-12.6,6.6-15.7c4.2-3.1,11.9,0.2,16.9-1.4
					c0.1,0,0.3-0.1,0.4-0.1c0.1,0.1,0.3,0.1,0.4,0.1c5.1,1.6,12.7-1.6,16.9,1.4c4.3,3.1,3.5,11.4,6.6,15.7c3.1,4.2,11.2,6,12.9,11.1
					C423.8,216.3,418.3,222.6,418.3,228z"/>
				<g id="XMLID_3839_">
					<path id="XMLID_3841_" class="st2" d="M474.5,200.4c-1,3-2.4,5.4-4.1,7.5c-5.4,6.6-13.6,8.7-21.4,8.7c-3.3,0-6.4-0.4-9.3-1
						c-4.4,10-11.6,18.2-20.8,23.7c5,4.9,13.6,11.9,23.1,13c6,0.7,11.5-0.9,16.8-5.1c1.7-1.4,4.2-1.1,5.6,0.7
						c1.4,1.7,1.1,4.2-0.7,5.6c-5.9,4.6-12.2,7-19,7c-1.2,0-2.5-0.1-3.7-0.2c-13.2-1.6-24.3-11.5-29.6-17.1l-2.7,1.1l-19.1,7.9
						l4.4,143.9h-31.9l3.2-105.3l-48.5-26.6c-6.6-3.6-12.2-8.9-16.2-15.2l-1.4-2.3c-2,0.2-4.4,0.4-7,0.4c-8.9,0-20.2-2.3-24.1-13
						c-0.7-2.1,0.3-4.4,2.4-5.1c2.1-0.8,4.4,0.3,5.1,2.4c2.6,7.1,11.9,8.1,18.8,7.7l-19.6-31.2c-1.8-2.8-0.9-6.5,1.9-8.3
						c2.8-1.8,6.5-0.9,8.3,1.9l14.1,22.5l15.4-20.5c1.3-1.8,3.8-2.1,5.6-0.8c1.8,1.3,2.1,3.8,0.8,5.6l-17.3,22.9l7.2,11.4
						c2.9,4.6,7,8.5,11.8,11.1l43.1,23.7l2.7-89.4c-4.9-1.3-11.5-3.5-18.4-7.1c-19.1-9.9-32.2-25.5-38.1-45.2
						c-0.9-3.2,0.9-6.5,4-7.4c3.2-0.9,6.5,0.9,7.4,4c2.7,9.1,7.2,17.1,13.3,23.8c4.7-5.8,9.3-12.9,9.1-16.7
						c-0.1-2.2,1.6-4.1,3.8-4.2c2.2-0.1,4.1,1.6,4.2,3.8c0.4,7.3-6.4,16.9-11.2,22.7c3.7,3.1,7.9,6,12.6,8.4
						c4.9,2.6,9.7,4.4,13.6,5.6l1-33.7c0.1-4.2,3.3-7.5,7.4-7.9c0.3,0,0.5,0,0.8,0c4.4,0,8.1,3.5,8.2,8l0.8,25.4l12.8-8.1
						c2.8-1.8,4.8-4.5,5.6-7.7l5.2-20.2l15.1-7.9c2-1,4.4-0.3,5.4,1.7c1,2,0.3,4.4-1.7,5.4l-12,6.3l-4.3,16.8
						c-1.3,5.2-4.5,9.6-9,12.5l-16.8,10.7l1.9,62.7l17.9-7.4c1.4-0.6,2.7-1.2,4-1.9c7.9-4.3,14-11,17.7-19.3l10.1-23
						c1.3-3,4.9-4.4,7.9-3.1c3,1.3,4.4,4.9,3.1,7.9l-6.8,15.5c7.6,1.2,19.9,1.2,23.9-10.3c0.2-0.6,0.6-1.2,1-1.6
						c1-1,2.6-1.4,4.1-0.9C474.1,196,475.2,198.3,474.5,200.4z"/>
					<path id="XMLID_3840_" class="st74" d="M377.3,134V396h-15.2l3.2-105.3l-48.5-26.6c-6.6-3.6-12.2-8.9-16.2-15.2l-1.4-2.3
						c-2,0.2-4.4,0.4-7,0.4c-8.9,0-20.2-2.3-24.1-13.1c-0.8-2.1,0.3-4.4,2.4-5.1c2.1-0.8,4.4,0.3,5.1,2.4c2.6,7.1,11.9,8.1,18.8,7.7
						l-19.6-31.2c-1.8-2.8-0.9-6.5,1.9-8.3c2.8-1.8,6.5-0.9,8.3,1.9l14.1,22.5l15.4-20.5c1.3-1.8,3.8-2.1,5.6-0.8
						c1.8,1.3,2.1,3.8,0.8,5.6l-17.3,22.9l7.2,11.4c2.9,4.6,7,8.5,11.8,11.1l43.1,23.7l2.7-89.4c-4.9-1.3-11.5-3.5-18.4-7.1
						c-19.1-9.9-32.2-25.5-38.1-45.2c-0.9-3.2,0.9-6.5,4-7.4c3.2-0.9,6.5,0.9,7.4,4c2.7,9.1,7.2,17.1,13.3,23.8
						c4.7-5.8,9.3-12.9,9.1-16.7c-0.1-2.2,1.6-4.1,3.8-4.2c2.2-0.1,4.1,1.6,4.2,3.8c0.4,7.3-6.4,16.9-11.2,22.7
						c3.7,3.1,7.9,6,12.6,8.4c4.9,2.6,9.7,4.4,13.6,5.6l1-33.7C370,137.7,373.2,134.3,377.3,134z"/>
				</g>
				<path id="XMLID_1722_" class="st215" d="M419,239.3c5,4.9,13.6,11.9,23.1,13c6,0.7,11.5-0.9,16.8-5.1c1.7-1.4,4.2-1.1,5.6,0.7
					c1.4,1.7,1.1,4.2-0.7,5.6c-5.9,4.6-12.2,7-19,7c-1.2,0-2.5-0.1-3.7-0.2c-13.2-1.6-24.3-11.5-29.6-17.1l-2.7,1.1
					c0.5-4.8,1.3-9.5,2.3-14.2c7.9-4.3,14-11,17.7-19.3l10.1-23c1.3-3,4.9-4.4,7.9-3.1c3,1.3,4.4,4.9,3.1,7.9l-6.8,15.5
					c7.6,1.2,19.9,1.2,23.9-10.3c0.2-0.6,0.6-1.2,1-1.6l2.4,11.7c-5.4,6.6-13.6,8.7-21.4,8.7c-3.3,0-6.4-0.4-9.3-1
					C435.4,225.6,428.1,233.8,419,239.3z"/>
			</g>
			<g id="XMLID_1702_">
				<path id="XMLID_1720_" class="st9" d="M251.7,109.7c0,8.1,8.2,17.4,5.8,24.7c-2.5,7.6-14.6,10.2-19.2,16.5
					c-4.6,6.4-3.5,18.7-9.8,23.4c-6.3,4.6-17.7-0.3-25.2,2.1c-0.2,0.1-0.4,0.1-0.6,0.2c-7,2.7-13.2,12.9-21.1,12.9
					c-8.1,0-14.4-10.7-21.7-13.1c-7.6-2.5-19,2.5-25.2-2.1c-6.4-4.6-5.2-17-9.8-23.4c-4.6-6.3-16.7-9-19.2-16.5
					c-2.4-7.3,5.8-16.6,5.8-24.7c0-8.1-8.2-17.4-5.8-24.7c2.5-7.6,14.6-10.2,19.2-16.5c4.6-6.3,3.5-18.7,9.8-23.4
					c6.3-4.6,17.7,0.3,25.2-2.1c7.3-2.4,13.6-13.1,21.7-13.1c7.9,0,14,10.2,21.1,12.9c0.2,0.1,0.4,0.2,0.6,0.2
					c7.6,2.5,19-2.5,25.2,2.1c6.4,4.6,5.2,17,9.8,23.4c4.6,6.3,16.7,9,19.2,16.5C259.8,92.3,251.7,101.6,251.7,109.7z"/>
				<path id="XMLID_1719_" class="st3" d="M251.7,109.7c0,8.1,8.2,17.4,5.8,24.7c-2.5,7.6-14.6,10.2-19.2,16.5
					c-4.6,6.4-3.5,18.7-9.8,23.4c-6.3,4.6-17.7-0.3-25.2,2.1c-0.2,0.1-0.4,0.1-0.6,0.2c-0.2-0.1-0.4-0.2-0.6-0.2
					c-7.6-2.5-18.9,2.5-25.2-2.1c-6.4-4.6-5.2-17-9.8-23.4c-4.6-6.3-16.7-9-19.2-16.5c-2.4-7.3,5.8-16.6,5.8-24.7
					c0-8.1-8.2-17.4-5.8-24.7c2.5-7.6,14.6-10.2,19.2-16.5c4.6-6.3,3.5-18.7,9.8-23.4c6.3-4.6,17.7,0.3,25.2-2.1
					c0.2-0.1,0.4-0.1,0.6-0.2c0.2,0.1,0.4,0.2,0.6,0.2c7.6,2.5,19-2.5,25.2,2.1c6.4,4.6,5.2,17,9.8,23.4c4.6,6.3,16.7,9,19.2,16.5
					C259.8,92.3,251.7,101.6,251.7,109.7z"/>
				<path id="XMLID_1718_" class="st9" d="M353.5,83.5c0,8.3,8.4,17.8,6,25.3c-2.5,7.8-15,10.5-19.7,17c-4.8,6.5-3.6,19.2-10.1,24
					c-6.5,4.7-18.2-0.3-25.9,2.2c-0.2,0.1-0.4,0.1-0.6,0.2c-7.2,2.8-13.6,13.2-21.6,13.2c-8.3,0-14.8-11-22.3-13.5
					c-7.8-2.5-19.5,2.5-25.9-2.2c-6.5-4.7-5.3-17.5-10.1-24c-4.7-6.5-17.2-9.2-19.7-17c-2.4-7.5,6-17,6-25.3c0-8.3-8.4-17.8-6-25.3
					c2.5-7.8,15-10.5,19.7-17c4.8-6.5,3.6-19.2,10.1-24c6.5-4.7,18.2,0.3,25.9-2.2c7.5-2.4,14-13.5,22.3-13.5
					c8.1,0,14.4,10.4,21.6,13.2c0.2,0.1,0.4,0.2,0.6,0.2c7.8,2.5,19.5-2.5,25.9,2.2c6.5,4.7,5.3,17.5,10.1,24
					c4.7,6.5,17.2,9.2,19.7,17C361.9,65.7,353.5,75.2,353.5,83.5z"/>
				<path id="XMLID_1716_" class="st3" d="M353.5,83.5c0,8.3,8.4,17.8,6,25.3c-2.5,7.8-15,10.5-19.7,17c-4.8,6.5-3.6,19.2-10.1,24
					c-6.5,4.7-18.2-0.3-25.9,2.2c-0.2,0.1-0.4,0.1-0.6,0.2c-0.2-0.1-0.4-0.2-0.6-0.2c-7.8-2.5-19.4,2.5-25.9-2.2
					c-6.5-4.7-5.3-17.5-10.1-24c-4.7-6.5-17.2-9.2-19.7-17c-2.4-7.5,6-17,6-25.3c0-8.3-8.4-17.8-6-25.3c2.5-7.8,15-10.5,19.7-17
					c4.7-6.5,3.5-19.2,10.1-24c6.5-4.7,18.2,0.3,25.9-2.2c0.2-0.1,0.4-0.1,0.6-0.2c0.2,0.1,0.4,0.2,0.6,0.2
					c7.8,2.5,19.5-2.5,25.9,2.2c6.5,4.7,5.3,17.5,10.1,24c4.7,6.5,17.2,9.2,19.7,17C361.9,65.7,353.5,75.2,353.5,83.5z"/>
				<path id="XMLID_1715_" class="st9" d="M398.1,189.5c0,8.3,8.4,17.8,6,25.3c-2.5,7.8-15,10.5-19.7,17c-4.8,6.5-3.6,19.2-10.1,24
					c-6.5,4.7-18.2-0.3-25.9,2.2c-0.2,0.1-0.4,0.1-0.6,0.2c-7.2,2.8-13.6,13.2-21.6,13.2c-8.3,0-14.8-11-22.3-13.5
					c-7.8-2.5-19.5,2.5-25.9-2.2c-6.5-4.7-5.3-17.5-10.1-24c-4.7-6.5-17.2-9.2-19.7-17c-2.4-7.5,6-17,6-25.3c0-8.3-8.4-17.8-6-25.3
					c2.5-7.8,15-10.5,19.7-17c4.8-6.5,3.6-19.2,10.1-24c6.5-4.7,18.2,0.3,25.9-2.2c7.5-2.4,14-13.5,22.3-13.5
					c8.1,0,14.4,10.4,21.6,13.2c0.2,0.1,0.4,0.2,0.6,0.2c7.8,2.5,19.5-2.5,25.9,2.2c6.5,4.7,5.3,17.5,10.1,24
					c4.7,6.5,17.2,9.2,19.7,17C406.5,171.7,398.1,181.2,398.1,189.5z"/>
				<path id="XMLID_1714_" class="st3" d="M398.1,189.5c0,8.3,8.4,17.8,6,25.3c-2.5,7.8-15,10.5-19.7,17c-4.8,6.5-3.6,19.2-10.1,24
					c-6.5,4.7-18.2-0.3-25.9,2.2c-0.2,0.1-0.4,0.1-0.6,0.2c-0.2-0.1-0.4-0.2-0.6-0.2c-7.8-2.5-19.4,2.5-25.9-2.2
					c-6.5-4.7-5.3-17.5-10.1-24c-4.7-6.5-17.2-9.2-19.7-17c-2.4-7.5,6-17,6-25.3c0-8.3-8.4-17.8-6-25.3c2.5-7.8,15-10.5,19.7-17
					c4.7-6.5,3.5-19.2,10.1-24c6.5-4.7,18.2,0.3,25.9-2.2c0.2-0.1,0.4-0.1,0.6-0.2c0.2,0.1,0.4,0.2,0.6,0.2
					c7.8,2.5,19.5-2.5,25.9,2.2c6.5,4.7,5.3,17.5,10.1,24c4.7,6.5,17.2,9.2,19.7,17C406.5,171.7,398.1,181.2,398.1,189.5z"/>
				<path id="XMLID_1712_" class="st9" d="M208.8,209.3c0,6.7,6.8,14.4,4.8,20.4c-2,6.3-12.1,8.5-15.9,13.7
					c-3.8,5.3-2.9,15.5-8.1,19.4c-5.2,3.8-14.7-0.3-20.9,1.8c-0.2,0.1-0.3,0.1-0.5,0.2c-5.8,2.3-11,10.7-17.5,10.7
					c-6.7,0-11.9-8.9-18-10.9c-6.3-2-15.7,2-20.9-1.8c-5.3-3.8-4.3-14.1-8.1-19.4c-3.8-5.2-13.9-7.4-15.9-13.7
					c-2-6.1,4.8-13.7,4.8-20.4c0-6.7-6.8-14.4-4.8-20.4c2-6.3,12.1-8.5,15.9-13.7c3.8-5.3,2.9-15.5,8.1-19.4
					c5.2-3.8,14.7,0.3,20.9-1.8c6.1-2,11.3-10.9,18-10.9c6.5,0,11.6,8.4,17.5,10.7c0.2,0.1,0.3,0.1,0.5,0.2c6.3,2,15.7-2,20.9,1.8
					c5.3,3.8,4.3,14.1,8.1,19.4c3.8,5.2,13.9,7.4,15.9,13.7C215.6,194.9,208.8,202.6,208.8,209.3z"/>
				<path id="XMLID_1710_" class="st3" d="M208.8,209.3c0,6.7,6.8,14.4,4.8,20.4c-2,6.3-12.1,8.5-15.9,13.7
					c-3.8,5.3-2.9,15.5-8.1,19.4c-5.2,3.8-14.7-0.3-20.9,1.8c-0.2,0.1-0.3,0.1-0.5,0.2c-0.2-0.1-0.3-0.1-0.5-0.2
					c-6.3-2-15.7,2-20.9-1.8c-5.3-3.8-4.3-14.1-8.1-19.4c-3.8-5.2-13.9-7.4-15.9-13.7c-2-6.1,4.8-13.7,4.8-20.4
					c0-6.7-6.8-14.4-4.8-20.4c2-6.3,12.1-8.5,15.9-13.7c3.8-5.3,2.9-15.5,8.1-19.4c5.2-3.8,14.7,0.3,20.9-1.8
					c0.2-0.1,0.3-0.1,0.5-0.2c0.2,0.1,0.3,0.1,0.5,0.2c6.3,2,15.7-2,20.9,1.8c5.3,3.8,4.3,14.1,8.1,19.4c3.8,5.2,13.9,7.4,15.9,13.7
					C215.6,194.9,208.8,202.6,208.8,209.3z"/>
				<path id="XMLID_1709_" class="st9" d="M299.8,209.3c0,6.7,6.8,14.4,4.8,20.4c-2,6.3-12.1,8.5-15.9,13.7
					c-3.8,5.3-2.9,15.5-8.1,19.4c-5.2,3.8-14.7-0.3-20.9,1.8c-0.2,0.1-0.3,0.1-0.5,0.2c-5.8,2.3-11,10.7-17.5,10.7
					c-6.7,0-11.9-8.9-18-10.9c-6.3-2-15.7,2-20.9-1.8c-5.3-3.8-4.3-14.1-8.1-19.4c-3.8-5.2-13.9-7.4-15.9-13.7
					c-2-6.1,4.8-13.7,4.8-20.4c0-6.7-6.8-14.4-4.8-20.4c2-6.3,12.1-8.5,15.9-13.7c3.8-5.3,2.9-15.5,8.1-19.4
					c5.2-3.8,14.7,0.3,20.9-1.8c6.1-2,11.3-10.9,18-10.9c6.5,0,11.6,8.4,17.5,10.7c0.2,0.1,0.3,0.1,0.5,0.2c6.3,2,15.7-2,20.9,1.8
					c5.3,3.8,4.3,14.1,8.1,19.4c3.8,5.2,13.9,7.4,15.9,13.7C306.6,194.9,299.8,202.6,299.8,209.3z"/>
				<path id="XMLID_1708_" class="st3" d="M299.8,209.3c0,6.7,6.8,14.4,4.8,20.4c-2,6.3-12.1,8.5-15.9,13.7
					c-3.8,5.3-2.9,15.5-8.1,19.4c-5.2,3.8-14.7-0.3-20.9,1.8c-0.2,0.1-0.3,0.1-0.5,0.2c-0.2-0.1-0.3-0.1-0.5-0.2
					c-6.3-2-15.7,2-20.9-1.8c-5.3-3.8-4.3-14.1-8.1-19.4c-3.8-5.2-13.9-7.4-15.9-13.7c-2-6.1,4.8-13.7,4.8-20.4
					c0-6.7-6.8-14.4-4.8-20.4c2-6.3,12.1-8.5,15.9-13.7c3.8-5.3,2.9-15.5,8.1-19.4c5.2-3.8,14.7,0.3,20.9-1.8
					c0.2-0.1,0.3-0.1,0.5-0.2c0.2,0.1,0.3,0.1,0.5,0.2c6.3,2,15.7-2,20.9,1.8c5.3,3.8,4.3,14.1,8.1,19.4c3.8,5.2,13.9,7.4,15.9,13.7
					C306.6,194.9,299.8,202.6,299.8,209.3z"/>
				<g id="XMLID_1704_">
					<path id="XMLID_1707_" class="st2" d="M369.2,175.2c-1.3,3.7-3,6.7-5,9.2c-6.7,8.2-16.8,10.8-26.4,10.8c-4,0-7.9-0.5-11.5-1.2
						c-5.4,12.3-14.3,22.5-25.7,29.3c6.2,6.1,16.8,14.7,28.5,16.1c7.5,0.9,14.2-1.2,20.7-6.3c2.1-1.7,5.2-1.3,6.9,0.8
						c1.7,2.1,1.3,5.2-0.8,6.9c-7.3,5.7-15.1,8.6-23.5,8.6c-1.5,0-3-0.1-4.6-0.3c-16.3-2-30-14.2-36.6-21.2l-3.3,1.4l-23.7,9.7
						l5.4,177.9h-39.5l4-130.1L174.4,254c-8.1-4.5-15-11-20-18.8l-1.7-2.8c-2.4,0.3-5.4,0.5-8.6,0.5c-11,0-25-2.8-29.8-16.1
						c-0.9-2.6,0.4-5.4,2.9-6.3c2.6-0.9,5.4,0.4,6.3,2.9c3.2,8.7,14.7,10,23.2,9.6l-24.3-38.6c-2.2-3.5-1.1-8,2.3-10.2
						c3.5-2.2,8-1.1,10.2,2.3l17.5,27.8l19.1-25.3c1.6-2.2,4.7-2.6,6.9-1c2.2,1.6,2.6,4.7,1,6.9l-21.3,28.3l8.8,14.1
						c3.6,5.7,8.6,10.5,14.6,13.7l53.3,29.3l3.4-110.5c-6.1-1.7-14.2-4.4-22.7-8.8c-23.6-12.2-39.9-31.5-47.1-55.9
						c-1.2-3.9,1.1-8,5-9.2c3.9-1.2,8,1.1,9.2,5c3.3,11.3,8.9,21.1,16.5,29.5c5.8-7.1,11.5-16,11.2-20.6c-0.2-2.7,1.9-5.1,4.6-5.2
						c2.7-0.2,5.1,1.9,5.2,4.6c0.5,9-8,20.9-13.9,28c4.6,3.9,9.8,7.4,15.6,10.4c6.1,3.2,12,5.4,16.8,6.9l1.3-41.6
						c0.2-5.2,4.1-9.3,9.2-9.8c0.3,0,0.7-0.1,1-0.1c5.5,0,10,4.4,10.2,9.9l1,31.3l15.8-10.1c3.4-2.2,5.9-5.6,6.9-9.5l6.4-25
						l18.7-9.8c2.4-1.3,5.4-0.3,6.7,2.1c1.3,2.4,0.3,5.4-2.1,6.7l-14.8,7.7l-5.3,20.7c-1.6,6.4-5.6,11.8-11.1,15.4l-20.7,13.2
						l2.4,77.5l22.1-9.1c1.7-0.7,3.3-1.5,4.9-2.3c9.7-5.3,17.4-13.6,21.8-23.8l12.4-28.4c1.6-3.7,6-5.5,9.7-3.8
						c3.7,1.6,5.5,6,3.8,9.7l-8.4,19.2c9.4,1.5,24.6,1.5,29.5-12.7c0.3-0.8,0.7-1.4,1.3-2c1.3-1.2,3.2-1.7,5-1.1
						C368.7,169.8,370.1,172.6,369.2,175.2z"/>
					<path id="XMLID_1705_" class="st74" d="M249.1,93.1V417h-18.7l4-130.1L174.4,254c-8.1-4.5-15-11-20-18.8l-1.7-2.8
						c-2.4,0.3-5.4,0.5-8.6,0.5c-11,0-25-2.8-29.8-16.1c-0.9-2.6,0.4-5.4,2.9-6.3c2.6-0.9,5.4,0.4,6.3,2.9c3.2,8.8,14.7,10,23.2,9.6
						l-24.3-38.6c-2.2-3.5-1.1-8,2.3-10.2c3.5-2.2,8-1.1,10.2,2.3l17.5,27.8l19.1-25.3c1.6-2.2,4.7-2.6,6.9-1c2.2,1.6,2.6,4.7,1,6.9
						l-21.3,28.3l8.8,14.1c3.6,5.7,8.6,10.5,14.6,13.7l53.3,29.3l3.4-110.5c-6.1-1.6-14.2-4.4-22.7-8.8
						c-23.6-12.2-39.9-31.5-47.1-55.9c-1.2-3.9,1.1-8,5-9.2c3.9-1.2,8,1.1,9.2,5c3.3,11.3,8.9,21.1,16.5,29.5
						c5.8-7.1,11.5-16,11.2-20.6c-0.1-2.7,1.9-5.1,4.6-5.2c2.7-0.1,5.1,1.9,5.2,4.6c0.5,9-8,20.9-13.9,28c4.6,3.9,9.8,7.4,15.6,10.4
						c6.1,3.2,12,5.4,16.8,6.9l1.3-41.6C240.1,97.8,244.1,93.6,249.1,93.1z"/>
				</g>
				<path id="XMLID_1703_" class="st215" d="M300.7,223.3c6.2,6.1,16.8,14.7,28.5,16.1c7.5,0.9,14.2-1.2,20.7-6.3
					c2.1-1.7,5.2-1.3,6.9,0.8c1.7,2.1,1.3,5.2-0.8,6.9c-7.3,5.7-15.1,8.6-23.5,8.6c-1.5,0-3-0.1-4.6-0.3c-16.3-2-30-14.2-36.6-21.2
					l-3.3,1.4c0.7-5.9,1.6-11.8,2.9-17.5c9.7-5.3,17.4-13.6,21.8-23.8l12.4-28.4c1.6-3.7,6-5.5,9.7-3.8c3.7,1.6,5.5,6,3.8,9.7
					l-8.4,19.2c9.4,1.5,24.6,1.5,29.5-12.7c0.3-0.8,0.7-1.4,1.3-2l3,14.4c-6.7,8.2-16.8,10.8-26.4,10.8c-4,0-7.9-0.5-11.5-1.2
					C320.9,206.4,312,216.5,300.7,223.3z"/>
			</g>
			<path id="XMLID_1701_" class="st237" d="M482.5,375.5c-11.1,20.9-25,40.2-41.2,57.2c-8.7,9.2-18.2,17.7-28.2,25.5
				C369.8,491.9,315.2,512,256,512c-59.8,0-114.8-20.5-158.4-54.9c-9.1-7.2-17.7-15-25.7-23.3C57,418.4,44,401.1,33.3,382.4
				c6.3,1.4,11.8,4.8,16,9.4c2.2,2.5,4.1,5.3,5.4,8.3h0.6c5.1-3.9,11.4-6.2,18.3-6.3c0.1,0,0.3,0,0.4,0c3,0,5.8,0.4,8.5,1.2
				c2.1,0.6,4,1.4,5.9,2.4c1.5,0.8,3,1.7,4.3,2.8h0.3c1.4-1.9,3-3.7,4.8-5.3c1.4-1.4,3-2.6,4.6-3.7c0.2-0.2,0.4-0.3,0.7-0.5
				c0,0,0,0,0,0c6.5-4.3,14.2-6.8,22.5-6.8c0.5,0,1.1,0,1.6,0c0.9,0,1.9,0.1,2.8,0.2c2,0.2,4,0.6,5.8,1.1c2.1,0.5,4.2,1.2,6.1,2.1
				c0,0,0,0,0,0c2.1,0.9,4.1,2,6,3.3c1.9,1.2,3.7,2.6,5.3,4.2c0.4,0.4,0.9,0.8,1.3,1.2c0.1,0.1,0.2,0.2,0.3,0.3
				c0.1,0.1,0.2,0.2,0.3,0.3c0.1-0.2,0.3-0.4,0.4-0.6c0.1-0.1,0.2-0.3,0.4-0.4c0.2-0.3,0.4-0.5,0.7-0.8c0.6-0.7,1.3-1.5,2-2.2
				c4-4.2,8.9-7.6,14.3-10c0,0,0,0,0,0c2.9-1.3,5.9-2.3,9.1-2.9c2.5-0.5,5.1-0.9,7.7-1c0.6,0,1.2,0,1.9,0c8.5,0,16.4,2.3,23.2,6.3
				c4.4,2.6,8.4,5.9,11.7,9.8c0.6,0.7,1.2,1.4,1.7,2.1c0.8,1,1.5,2.1,2.2,3.2h2.4c2.3-1.8,4.9-3.2,7.6-4.3c1-0.4,2.1-0.7,3.1-1
				c1.8-0.5,3.6-0.8,5.5-0.9c0.5,0,1.1-0.1,1.6-0.1c0.3,0,0.6,0,0.8,0c2.8,0,5.4,0.4,7.9,1.1c1.1,0.3,2.2,0.6,3.3,1.1
				c0.4-0.4,0.8-0.7,1.3-1.1c1.3-1,2.7-1.9,4.1-2.7c0.2-0.1,0.5-0.2,0.7-0.4c0,0,0.1,0,0.1-0.1c2.9-1.5,6-2.5,9.4-3
				c8.8-1.3,17.2,1.1,23.7,6.2c0.2,0.1,0.3,0.2,0.5,0.4c1.8,1.5,3.4,3.1,4.8,4.9h5c2.7-2.2,5.9-4.1,9.3-5.3c1.7-0.6,3.4-1,5.2-1.3
				c0.1,0,0.3-0.1,0.4-0.1c5.2-0.8,10.3-0.2,15,1.4c1.6,0.6,3.2,1.3,4.7,2.1c0.4-0.7,0.8-1.4,1.2-2.1c1.9-3.1,4.1-5.9,6.7-8.3
				c0.2-0.2,0.4-0.4,0.6-0.6c0,0,0,0,0,0c2.1-1.9,4.4-3.6,6.9-5.1c3.6-2.1,7.5-3.6,11.7-4.5c0.8-0.2,1.7-0.4,2.6-0.5
				c0.1,0,0.2,0,0.4-0.1c3.4-0.5,6.7-0.6,9.9-0.2c2.1,0.2,4.2,0.6,6.2,1.1c0.1,0,0.1,0,0.2,0.1c5.3,1.4,10.2,3.9,14.4,7.2
				c5.2-9.3,13.6-16.8,23.9-20.7c2.4-0.9,4.9-1.6,7.5-2.1c0.6-0.1,1.2-0.2,1.8-0.3c8.4-1.3,16.5-0.2,23.9,2.7
				c5.6,2.2,10.7,5.5,15,9.7C481,373.9,481.8,374.7,482.5,375.5z"/>
			<path id="XMLID_1700_" class="st236" d="M441.3,432.7c-8.7,9.2-18.2,17.7-28.2,25.5c-36.4,5.7-92.2,9.3-154.7,9.3
				c-66.1,0-124.7-4.1-160.8-10.3c-9.1-7.2-17.7-15-25.7-23.3c12.6-4.3,34.4-8.1,62.4-10.9c2.8-0.3,5.7-0.6,8.6-0.8
				c5.1-0.5,10.5-0.9,15.9-1.3c5.2-0.4,10.6-0.7,16.2-1.1c2.8-0.2,5.6-0.3,8.4-0.5c5.2-0.3,10.6-0.5,16-0.7c2.9-0.1,5.8-0.2,8.7-0.3
				c7.6-0.2,15.4-0.5,23.4-0.6c3.4-0.1,6.9-0.1,10.4-0.1c5.5-0.1,11-0.1,16.6-0.1c21.1,0,41.4,0.4,60.4,1.2c7.9,0.3,15.6,0.7,23,1.1
				c20,1.2,38.1,2.7,53.9,4.6c4.1,0.5,8.1,1,11.9,1.6C421.5,427.9,432.9,430.2,441.3,432.7z"/>
			<g id="XMLID_526_">
				<path id="XMLID_1699_" class="st43" d="M412.4,414.9h-40.5v-14h40.5c3.9,0,7,3.1,7,7v0C419.4,411.8,416.3,414.9,412.4,414.9z"/>
				<path id="XMLID_1698_" class="st238" d="M293.1,428.3v6.1h-34v-6.1h-12.1v22.3c0,3.3,2.7,6,6,6h0c3.3,0,6-2.7,6-6v-4.1h34v4.1
					c0,3.3,2.7,6,6,6s6-2.7,6-6v-22.3H293.1z"/>
				<path id="XMLID_1697_" class="st239" d="M371.9,407.1c-2.2,1.6-4.9,2.5-7.8,2.5h-260c-3.2,0-6.1-0.9-8.6-2.5
					c-4.5-2.8-7.4-7.8-7.4-13.5V271.1c0-5.6,1.3-10.9,3.7-15.5c5.7-11.3,17.4-19,30.8-19h144.3c21.6,0,41.8,7,58.3,19
					c20.1,14.7,34.6,36.9,39.2,63l6.9,40l6.1,35.3C378.3,399.2,376,404.2,371.9,407.1z"/>
				<path id="XMLID_1152_" class="st240" d="M371.9,407.1c-2.2,1.6-4.9,2.5-7.8,2.5h-260c-3.2,0-6.1-0.9-8.6-2.5
					c-4.5-2.8-7.4-7.8-7.4-13.5v-35h283.2l6.1,35.3C378.3,399.2,376,404.2,371.9,407.1z"/>
				<path id="XMLID_1003_" class="st178" d="M325.1,255.6H91.8c5.7-11.3,17.4-19,30.8-19h144.3C288.5,236.6,308.7,243.6,325.1,255.6
					z"/>
				<path id="XMLID_830_" class="st6" d="M371.9,407.1c-2.2,1.6-4.9,2.5-7.8,2.5h-218c-3.2,0-6.1-0.9-8.6-2.5
					c-4.5-2.8-7.4-7.8-7.4-13.5V271.1c0-5.6,1.3-10.9,3.7-15.5c5.7-11.3,17.3-19,30.8-19h102.3c21.6,0,41.8,7,58.3,19
					c1.7,1.2,3.3,2.5,4.9,3.8c17.6,14.6,30.1,35.2,34.2,59.2l3.6,20.7l3.4,19.4l6.1,35.3C378.3,399.2,376,404.2,371.9,407.1z"/>
				<path id="XMLID_829_" class="st241" d="M371.9,407.1c-2.2,1.6-4.9,2.5-7.8,2.5h-218c-3.2,0-6.1-0.9-8.6-2.5
					c-4.5-2.8-7.4-7.8-7.4-13.5v-35h241.1l6.1,35.3C378.3,399.2,376,404.2,371.9,407.1z"/>
				<path id="XMLID_798_" class="st29" d="M325.1,255.6H133.8c5.7-11.3,17.3-19,30.8-19h102.3C288.5,236.6,308.7,243.6,325.1,255.6z
					"/>
				<path id="XMLID_795_" class="st178" d="M388.1,407.3c0,3.5-1.4,6.6-3.7,8.8c-2.3,2.3-5.4,3.7-8.8,3.7h-291
					c-6.9,0-12.5-5.6-12.5-12.5c0-3.5,1.4-6.6,3.7-8.8c2.3-2.3,5.4-3.7,8.8-3.7h291C382.5,394.8,388.1,400.4,388.1,407.3z"/>
				<path id="XMLID_794_" class="st29" d="M388.1,407.3c0,3.5-1.4,6.6-3.7,8.8c-2.3,2.3-5.4,3.7-8.8,3.7H142.1
					c-6.9,0-12.5-5.6-12.5-12.5c0-3.5,1.4-6.6,3.7-8.8c2.3-2.3,5.4-3.7,8.8-3.7h233.5C382.5,394.8,388.1,400.4,388.1,407.3z"/>
				<circle id="XMLID_793_" class="st238" cx="171.1" cy="419.6" r="37"/>
				<circle id="XMLID_792_" class="st2" cx="171.1" cy="419.6" r="28.3"/>
				<circle id="XMLID_791_" class="st43" cx="171.1" cy="419.6" r="12.3"/>
				<path id="XMLID_790_" class="st242" d="M319.5,421.6c0,3.7-3,6.7-6.7,6.7h-76c-3.7,0-6.7-3-6.7-6.7s3-6.7,6.7-6.7h3.7V299.4
					c0-9.1,7.4-16.4,16.4-16.4h35.8c9.1,0,16.4,7.4,16.4,16.4v115.6h3.7C316.5,414.9,319.5,417.9,319.5,421.6z"/>
				<path id="XMLID_789_" class="st43" d="M319.5,421.6c0,3.7-3,6.7-6.7,6.7h-65.7c-3.7,0-6.7-3-6.7-6.7s3-6.7,6.7-6.7h3.7V299.4
					c0-9.1,7.4-16.4,16.4-16.4h25.6c9.1,0,16.4,7.4,16.4,16.4v115.6h3.7C316.5,414.9,319.5,417.9,319.5,421.6z"/>
				<path id="XMLID_788_" class="st106" d="M299.2,304.3v26c0,3.7-3,6.7-6.7,6.7h-35.3c-3.5,0-6.3-2.7-6.6-6.1c0-0.2,0-0.4,0-0.6
					v-26c0-3.7,3-6.7,6.7-6.7h35.3c1.8,0,3.5,0.7,4.7,1.9C298.4,300.8,299.2,302.4,299.2,304.3z"/>
				<path id="XMLID_787_" class="st1" d="M299.2,304.3v26c0,3.7-3,6.7-6.7,6.7h-26.7c-3.7,0-6.7-3-6.7-6.7v-26c0-3.7,3-6.7,6.7-6.7
					h26.7C296.2,297.6,299.2,300.6,299.2,304.3z"/>
				<path id="XMLID_786_" class="st243" d="M297.2,299.5l-37.4,37.4h-2.6c-3.5,0-6.3-2.7-6.6-6.1l33.3-33.3h8.7
					C294.3,297.6,296,298.3,297.2,299.5z"/>
				<polygon id="XMLID_785_" class="st243" points="299.2,306.8 299.2,317.2 279.4,336.9 269,336.9 				"/>
				<rect id="XMLID_784_" x="250.5" y="407.3" class="st242" width="58.6" height="7.7"/>
				<path id="XMLID_783_" class="st43" d="M199.8,342.3h-86.3c-2.3,0-4.2-1.9-4.2-4.2v-51c0-2.3,1.9-4.2,4.2-4.2h86.3
					c2.3,0,4.2,1.9,4.2,4.2v51C204,340.4,202.1,342.3,199.8,342.3z"/>
				<path id="XMLID_782_" class="st106" d="M197.8,291.6v41.7c0,2-1.6,3.6-3.6,3.6h-75.1c-2,0-3.6-1.6-3.6-3.6v-41.7
					c0-2,1.6-3.6,3.6-3.6h75.1c1.9,0,3.5,1.5,3.6,3.4C197.8,291.4,197.8,291.5,197.8,291.6z"/>
				<path id="XMLID_536_" class="st1" d="M197.8,291.6v41.7c0,2-1.6,3.6-3.6,3.6h-59.1c-2,0-3.6-1.6-3.6-3.6v-41.7
					c0-2,1.6-3.6,3.6-3.6h59.1C196.2,287.9,197.8,289.6,197.8,291.6z"/>
				<path id="XMLID_535_" class="st243" d="M197.8,291.4l-45.6,45.6h-22.6l49-49h15.6C196.1,287.9,197.7,289.5,197.8,291.4z"/>
				<polygon id="XMLID_534_" class="st243" points="197.8,302.5 197.8,317.9 178.8,336.9 163.4,336.9 				"/>
				<path id="XMLID_533_" class="st68" d="M88.1,304.6v47c0,3.9-3.1,7-7,7h-8.5c-0.1,0-0.2,0-0.2,0c-3.8-0.1-6.8-3.2-6.8-7v-47
					c0-3.8,3-6.9,6.8-7c0.1,0,0.2,0,0.2,0h8.5C85,297.6,88.1,300.7,88.1,304.6z"/>
				<path id="XMLID_532_" class="st238" d="M79.1,304.6v47c0,3.8-3,6.9-6.8,7c-3.8-0.1-6.8-3.2-6.8-7v-47c0-3.8,3-6.9,6.8-7
					C76.1,297.8,79.1,300.8,79.1,304.6z"/>
				<path id="XMLID_531_" class="st2" d="M65.6,344.2L65.6,344.2c-3,0-5.5-2.5-5.5-5.5v-21.2c0-3,2.5-5.5,5.5-5.5h0V344.2z"/>
				<path id="XMLID_530_" class="st244" d="M367.9,339.2c-24.6-6.9-42.7-29.5-42.7-56.3c0-8.4,1.8-16.3,4.9-23.5
					c17.6,14.6,30.1,35.2,34.2,59.2L367.9,339.2z"/>
				<path id="XMLID_527_" class="st43" d="M401.6,456.6L401.6,456.6c-3.3,0-6-2.7-6-6v-35.7h11.9v35.7
					C407.6,453.9,404.9,456.6,401.6,456.6z"/>
			</g>
		</g>
	</g>
</g>
</svg>
