<?xml version="1.0" encoding="utf-8"?>
<!-- Generator: Adobe Illustrator 22.0.1, SVG Export Plug-In . SVG Version: 6.00 Build 0)  -->
<svg version="1.1" xmlns="http://www.w3.org/2000/svg" xmlns:xlink="http://www.w3.org/1999/xlink" x="0px" y="0px"
	 viewBox="0 0 512 512" style="enable-background:new 0 0 512 512;" xml:space="preserve">
<style type="text/css">
	.st0{fill:#4B71B4;}
	.st1{fill:#80B4E8;}
	.st2{fill:#594144;}
	.st3{fill:#B8E876;}
	.st4{fill:#E09122;}
	.st5{fill:#FBF355;}
	.st6{fill:#EEC82F;}
	.st7{fill:#CEA628;}
	.st8{fill:#9BC9EF;}
	.st9{fill:#9DD055;}
	.st10{fill:#5686C5;}
	.st11{fill:#3B5880;}
	.st12{fill:#C2E5FB;}
	.st13{fill:#446697;}
	.st14{fill:#D1F1A0;}
	.st15{fill:#ABD170;}
	.st16{fill:#9DBD6A;}
	.st17{fill:#649D53;}
	.st18{fill:#72B35D;}
	.st19{fill:#ABD68D;}
	.st20{fill:#7FB358;}
	.st21{fill:#920C50;}
	.st22{fill:#C60053;}
	.st23{fill:#530730;}
	.st24{fill:#600332;}
	.st25{fill:#D5AC2A;}
	.st26{fill:#EFD776;}
	.st27{fill:#A7C76D;}
	.st28{fill:#A43749;}
	.st29{fill:#DC4355;}
	.st30{fill:#E18696;}
	.st31{fill:#77A255;}
	.st32{fill:#628547;}
	.st33{fill:#6E994D;}
	.st34{fill:none;stroke:#54743C;stroke-width:8;stroke-linecap:round;stroke-miterlimit:10;}
	.st35{fill:#9BCF75;}
	.st36{fill:#CA8F80;}
	.st37{fill:#E6B8AB;}
	.st38{fill:#E2A18B;}
	.st39{fill:#8E3F2B;}
	.st40{fill:#D89988;}
	.st41{fill:#CFCFCF;}
	.st42{fill:#A64B2D;}
	.st43{fill:#FFFFFF;}
	.st44{fill:#CA801F;}
	.st45{fill:#719C50;}
	.st46{fill:#85B7E5;}
	.st47{fill:#4F7BA9;}
	.st48{fill:#674C50;}
	.st49{fill:#BAD7ED;}
	.st50{fill:#63494D;}
	.st51{fill:#503D3F;}
	.st52{fill:#638547;}
	.st53{fill:#56713E;}
	.st54{fill:#BB5135;}
	.st55{fill:#93C4EC;}
	.st56{fill:#CA8121;}
	.st57{fill:#FDFCFC;}
	.st58{fill:#A83A4F;}
	.st59{fill:#BD5E44;}
	.st60{fill:#688C4A;}
	.st61{fill:#7DA55A;}
	.st62{fill:#90BA51;}
	.st63{fill:none;}
	.st64{fill:#ABC287;}
	.st65{fill:#BDD993;}
	.st66{fill:none;stroke:#534046;stroke-width:15;stroke-linecap:round;stroke-linejoin:round;stroke-miterlimit:10;}
	.st67{fill:#413133;}
	.st68{fill:#34292B;}
	.st69{fill:#644B50;}
	.st70{fill:#CDACB7;}
	.st71{fill:#A83A4D;}
	.st72{fill:#413335;}
	.st73{fill:#DC6579;}
	.st74{fill:#4C393C;}
	.st75{fill:#527FAE;}
	.st76{fill:#92C2EA;}
	.st77{fill:#5B8C4A;}
	.st78{fill:#729C51;}
	.st79{fill:#AADB5E;}
	.st80{fill:#D66C53;}
	.st81{fill:#A65340;}
	.st82{fill:#B8594A;}
	.st83{fill:#79A754;}
	.st84{fill:#4E3B3E;}
	.st85{fill:#5E4649;}
	.st86{fill:#604A50;}
	.st87{fill:#685258;}
	.st88{fill:#765E66;}
	.st89{fill:#FCF69A;}
	.st90{fill:#D3CC84;}
	.st91{fill:#E6A572;}
	.st92{fill:#74A151;}
	.st93{fill:#6F994F;}
	.st94{fill:#CC6D7D;}
	.st95{fill:#AD6576;}
	.st96{fill:#95422D;}
	.st97{fill:#BE6850;}
	.st98{fill:#3B2F32;}
	.st99{fill:none;stroke:#46383B;stroke-width:15;stroke-linecap:round;stroke-miterlimit:10;}
	.st100{fill:none;stroke:#3B2F32;stroke-width:15;stroke-linecap:round;stroke-miterlimit:10;}
	.st101{fill:#D6CF77;}
	.st102{fill:#F5EF82;}
	.st103{fill:#4A383B;}
	.st104{fill:#CACACA;}
	.st105{fill:#48373A;}
	.st106{fill:#7AA8D2;}
	.st107{fill:#6E9150;}
	.st108{fill:#587441;}
	.st109{fill:#D76E51;}
	.st110{fill:#CCC475;}
	.st111{fill:#DDD57E;}
	.st112{fill:#F8F19C;}
	.st113{fill:#FBF58A;}
	.st114{fill:#C67F20;}
	.st115{fill:#AB6B1C;}
	.st116{fill:#C98020;}
	.st117{fill:#D99A41;}
	.st118{fill:#DBA35B;}
	.st119{fill:#9B5F1B;}
	.st120{fill:#97CF6D;}
	.st121{fill:#5380B1;}
	.st122{fill:#96D16A;}
	.st123{fill:#92BD50;}
	.st124{fill:#7EB058;}
	.st125{fill:#709A50;}
	.st126{fill:#5A8A4A;}
	.st127{fill:#D9D9D9;}
	.st128{fill:#75A3CD;}
	.st129{fill:#6E974F;}
	.st130{fill:#CA6D7D;}
	.st131{fill:#AB6576;}
	.st132{fill:#93422D;}
	.st133{fill:#A44B2D;}
	.st134{fill:#BC6850;}
	.st135{fill:#DFB52B;}
	.st136{fill:#4C3A3C;}
	.st137{fill:#473538;}
	.st138{fill:#382B2E;}
	.st139{fill:none;stroke:#FFFFFF;stroke-width:8;stroke-linecap:round;stroke-miterlimit:10;}
	.st140{fill:#90C0E8;}
	.st141{fill:none;stroke:#E09122;stroke-width:12;stroke-linecap:round;stroke-miterlimit:10;}
	.st142{fill:#DCAE2B;}
	.st143{fill:#F0D05A;}
	.st144{fill:#729E51;}
	.st145{fill:#E4BA36;}
	.st146{fill:#F8F283;}
	.st147{fill:#E4B6A9;}
	.st148{fill:#D78E30;}
	.st149{fill:#598A49;}
	.st150{fill:#B65339;}
	.st151{fill:#BA751F;}
	.st152{fill:#466A9F;}
	.st153{fill:#8BB34D;}
	.st154{fill:#9BCE54;}
	.st155{fill:#7F9F49;}
	.st156{fill:#D37F6D;}
	.st157{fill:#BB5E44;}
	.st158{fill:#93BB55;}
	.st159{fill:#B3E665;}
	.st160{fill:none;stroke:#4C393C;stroke-width:8;stroke-miterlimit:10;}
	.st161{fill:#97432D;}
	.st162{fill:#DAB12A;}
	.st163{fill:#5E914C;}
	.st164{fill:#5381B3;}
	.st165{fill:#6A8F4C;}
	.st166{fill:#628047;}
	.st167{fill:#E29D37;}
	.st168{fill:#6E555B;}
	.st169{fill:#91CA67;}
	.st170{fill:#476BA1;}
	.st171{fill:#6699D9;}
	.st172{fill:#503C3E;}
	.st173{fill:#413235;}
	.st174{fill:#CC916A;}
	.st175{fill:#BA8363;}
	.st176{fill:#D09571;}
	.st177{fill:#C98F68;}
	.st178{fill:#AA3B4D;}
	.st179{fill:#DA6075;}
	.st180{fill:#92452D;}
	.st181{fill:#A24B2D;}
	.st182{fill:#B76252;}
	.st183{fill:#87BD60;}
	.st184{fill:#78A7D2;}
	.st185{fill:#F9F38F;}
	.st186{fill:#E0D650;}
	.st187{fill:#AFE086;}
	.st188{fill:#9FD476;}
	.st189{fill:#9DD176;}
	.st190{fill:#8FC468;}
	.st191{fill:#7EAE58;}
	.st192{fill:#6F9850;}
	.st193{fill:#59884A;}
	.st194{fill:#638347;}
	.st195{fill:#B95135;}
	.st196{fill:#E5AB62;}
	.st197{fill:#733228;}
	.st198{fill:#803728;}
	.st199{fill:#6D974D;}
	.st200{fill:#99CD75;}
	.st201{fill:#93412C;}
	.st202{fill:#93C2EA;}
	.st203{fill:#CD926B;}
	.st204{fill:#E6AF8A;}
	.st205{fill:#E5DB4E;}
	.st206{fill:#FBF375;}
	.st207{fill:#779E54;}
	.st208{fill:#D3966D;}
	.st209{fill:#DA4355;}
	.st210{fill:#A83B4D;}
	.st211{fill:none;stroke:#594144;stroke-width:8;stroke-linecap:round;stroke-miterlimit:10;}
	.st212{fill:#E5A855;}
	.st213{fill:#EAC291;}
	.st214{fill:#96C252;}
	.st215{fill:#695055;}
	.st216{fill:#DC9C42;}
	.st217{fill:#8E5C1B;}
	.st218{fill:#F4EB6A;}
	.st219{fill:#CBC049;}
	.st220{fill:none;stroke:#B8E876;stroke-width:15;stroke-linecap:round;stroke-miterlimit:10;}
	.st221{fill:#A36A1C;}
	.st222{fill:#ECC94A;}
	.st223{fill:#91BEDA;}
	.st224{fill:#3D2F32;}
	.st225{fill:#A6394C;}
	.st226{fill:#33292B;}
	.st227{fill:#4F3D42;}
	.st228{fill:#638147;}
	.st229{fill:#CD8321;}
	.st230{fill:#D3CA4A;}
	.st231{fill:#E2A550;}
	.st232{fill:#B75135;}
	.st233{fill:#D4CD77;}
	.st234{fill:#F3EC80;}
	.st235{fill:#46383B;}
	.st236{fill:#82AA61;}
	.st237{fill:#8EBF69;}
	.st238{fill:#3C2E31;}
	.st239{fill:#C49F27;}
	.st240{fill:#D2BF7C;}
	.st241{fill:#F6E18D;}
	.st242{fill:#D6D6D6;}
	.st243{fill:#B5D7F2;}
	.st244{fill:#F1D467;}
	.st245{fill:#739FBD;}
	.st246{fill:#D0946C;}
	.st247{fill:#BE8767;}
	.st248{fill:#D0A829;}
	.st249{fill:#F6DF86;}
	.st250{fill:#EABA8D;}
	.st251{fill:#F0D1B8;}
	.st252{fill:#A5D0F1;}
	.st253{fill:#E3A13F;}
	.st254{fill:#F0FAFF;}
	.st255{fill:#B4D3E3;}
	.st256{fill:#80A5C3;}
	.st257{fill:#87AFD5;}
	.st258{fill:#B1D1E7;}
	.st259{fill:#AED66F;}
	.st260{fill:#91AA61;}
	.st261{fill:#A8384B;}
	.st262{fill:#CD8120;}
	.st263{fill:#E6AD56;}
	.st264{fill:none;stroke:#E6AD56;stroke-width:8;stroke-linecap:round;stroke-miterlimit:10;}
	.st265{fill:#9EBD68;}
	.st266{fill:#AAD16E;}
	.st267{fill:#86656B;}
	.st268{fill:#6D954D;}
	.st269{fill:#98CB75;}
	.st270{fill:#75A251;}
	.st271{fill:#91BD4F;}
	.st272{fill:none;stroke:#B8E078;stroke-width:8;stroke-linecap:round;stroke-miterlimit:10;}
	.st273{fill:none;stroke:#B8E078;stroke-width:8;stroke-linecap:round;stroke-linejoin:round;stroke-miterlimit:10;}
	.st274{fill:#8FBA4E;}
	.st275{fill:#B3E860;}
	.st276{fill:#E7A748;}
	.st277{fill:none;stroke:#B6E676;stroke-width:15;stroke-linecap:round;stroke-miterlimit:10;}
	.st278{fill:#639B53;}
	.st279{fill:#476B9F;}
	.st280{fill:#82B1DE;}
	.st281{fill:#A6533F;}
	.st282{fill:#C28A69;}
	.st283{fill:#64494E;}
	.st284{fill:#77565C;}
	.st285{fill:#4F3C40;}
	.st286{fill:#ECCCB1;}
	.st287{fill:#BF6F5C;}
	.st288{fill:none;stroke:#D4F1A7;stroke-width:10;stroke-linecap:round;stroke-miterlimit:10;}
	.st289{fill:none;stroke:#B8E876;stroke-width:10;stroke-linecap:round;stroke-miterlimit:10;}
	.st290{fill:#47688F;}
	.st291{fill:#3F5B78;}
	.st292{fill:#354E6C;}
	.st293{fill:#DAB12B;}
	.st294{fill:#C8A028;}
	.st295{fill:#F0D15C;}
	.st296{fill:#F8F28B;}
	.st297{fill:#F7F18D;}
	.st298{fill:#DED450;}
	.st299{fill:#F9F155;}
	.st300{fill:#A2CFF4;}
	.st301{fill:none;stroke:#594144;stroke-width:10;stroke-linecap:round;stroke-miterlimit:10;}
	.st302{fill:#F5F0AB;}
	.st303{fill:#496DA1;}
	.st304{fill:#5A85C7;}
	.st305{fill:#D7D7D7;}
	.st306{fill:#ADD3E6;}
	.st307{fill:#98B8C3;}
	.st308{fill:#CDCECF;}
	.st309{fill:#BF4F69;}
	.st310{fill:#A83448;}
	.st311{fill:#A4DAF7;}
	.st312{fill:#81A861;}
	.st313{fill:#82A549;}
	.st314{fill:#B6E676;}
	.st315{fill:#8CBD69;}
	.st316{fill:#ECC62F;}
	.st317{fill:#F4EA80;}
	.st318{fill:#D6AD2B;}
	.st319{fill:#6F9151;}
	.st320{fill:#46699C;}
	.st321{fill:#4A373A;}
	.st322{fill:#89B04C;}
	.st323{fill:#99CC53;}
	.st324{fill:#B1E465;}
	.st325{fill:#E19E3B;}
	.st326{fill:#C05970;}
	.st327{fill:#D95F74;}
	.st328{fill:#74A8DE;}
	.st329{fill:#C47C1E;}
	.st330{fill:#719A51;}
	.st331{fill:#A8D95E;}
	.st332{fill:#D46C53;}
	.st333{fill:#A45340;}
	.st334{fill:#B6594A;}
	.st335{fill:#79A554;}
	.st336{fill:#B6DAF7;}
	.st337{fill:#739F51;}
	.st338{fill:#DDB32B;}
	.st339{fill:#DE8F22;}
	.st340{fill:none;stroke:#46383B;stroke-width:8;stroke-linecap:round;stroke-miterlimit:10;}
	.st341{fill:none;stroke:#3B2F32;stroke-width:8;stroke-linecap:round;stroke-miterlimit:10;}
	.st342{fill:#C8C8C8;}
	.st343{fill:#7F9D49;}
	.st344{fill:#BA5E44;}
	.st345{fill:#92B955;}
	.st346{fill:#D17F6D;}
	.st347{fill:#5D8F4C;}
	.st348{fill:#B75334;}
	.st349{fill:#CA6D57;}
	.st350{fill:#A4574D;}
	.st351{fill:#7FB1E6;}
	.st352{fill:#77A3CD;}
	.st353{fill:#90BA4F;}
	.st354{fill:#5C8F4B;}
	.st355{fill:#ACDE5D;}
	.st356{fill:#6FAC5A;}
	.st357{fill:none;stroke:#9DD055;stroke-width:10;stroke-linecap:round;stroke-miterlimit:10;}
	.st358{fill:#AD5643;}
	.st359{fill:#B96052;}
	.st360{fill:#CB8D84;}
	.st361{fill:#CC6C56;}
	.st362{fill:#DE9A8E;}
	.st363{fill:#D37B6A;}
	.st364{fill:#A87758;}
	.st365{fill:#372A2C;}
	.st366{fill:#B8815C;}
	.st367{fill:#433335;}
	.st368{fill:#2C2325;}
	.st369{fill:#95402B;}
	.st370{fill:#A85441;}
	.st371{fill:#D2C74B;}
	.st372{fill:#B25945;}
	.st373{fill:none;stroke:#594144;stroke-width:15;stroke-linecap:round;stroke-miterlimit:10;}
	.st374{fill:none;stroke:#594144;stroke-width:12;stroke-linecap:round;stroke-miterlimit:10;}
	.st375{fill:#8F473B;}
	.st376{fill:#453538;}
	.st377{fill:#517DAB;}
	.st378{fill:#75A050;}
	.st379{fill:#A5384D;}
	.st380{fill:#CC6075;}
	.st381{fill:#F26B7F;}
	.st382{fill:#C67189;}
	.st383{fill:#B26980;}
	.st384{fill:#D87990;}
	.st385{fill:#F2869B;}
	.st386{fill:#EF8499;}
	.st387{fill:#649CD7;}
	.st388{fill:#639CDB;}
	.st389{fill:#C8ED8D;}
	.st390{fill:#A9DB83;}
	.st391{fill:#9BCF76;}
	.st392{fill:#7EAC58;}
	.st393{fill:#8CC463;}
	.st394{fill:#7FAC5B;}
	.st395{fill:#769C55;}
	.st396{fill:#6A894D;}
	.st397{fill:#769B56;}
	.st398{fill:#9BCC75;}
	.st399{fill:#AF5641;}
	.st400{fill:#F4D576;}
	.st401{fill:#76A055;}
	.st402{fill:#628347;}
	.st403{fill:#4F7B9F;}
	.st404{fill:#466D86;}
	.st405{fill:#4D789C;}
</style>
<g id="BULINE">
	<circle id="XMLID_2314_" class="st1" cx="256" cy="256" r="256"/>
</g>
<g id="Icons">
	<g id="XMLID_2315_">
		<path id="XMLID_2417_" class="st2" d="M512,256c0,2.3,0,4.6-0.1,6.9c0,1.8-0.1,3.7-0.2,5.5c0,0.4,0,0.7,0,1
			c-2.1-0.3-4.1-0.6-6.2-0.7c-15.1-1.2-29.1,1.3-38.4,3.7c-6.9,1.8-11.1,3.5-11.1,3.5c-10,4.8-18.4,7.6-25.5,9.2h0
			c-1.5,0.3-2.9,0.6-4.2,0.8c-2.9,0.5-5.6,0.7-8.1,0.7c-0.2,0-0.3,0-0.5,0c-4.6,0-8.3-0.7-11.4-1.7c-9-3-11.7-9.1-11.7-9.1
			c8.3-10.7-12.2-13.5-27.9-14.2c-8.8-0.4-16.2,0-16.2,0c-6.3,1.3-12.1,2.1-17.4,2.4c0,0,0,0,0,0c-1.1,0.1-2.3,0.1-3.4,0.2
			c-9.8,0.4-17.8-0.4-24.2-1.9c-13.5-3-19.8-8.3-19.8-8.3l77-88.5l17.9-20.6l6-7l8-9.1c0.5-0.5,0.9-1.1,1.4-1.5
			c0.2-0.2,0.5-0.5,0.7-0.7c0.8-0.8,1.6-1.6,2.4-2.2c0.4-0.3,0.7-0.6,1.1-0.9c1.9-1.5,3.8-2.6,5.7-3.5c0.7-0.3,1.3-0.6,2-0.8
			c0.3-0.1,0.6-0.2,0.8-0.3c0.1,0,0.2-0.1,0.4-0.1c2.7-0.9,5.3-1.2,7.8-1.2c0.4,0,0.8,0,1.1,0c0.8,0,1.7,0.1,2.5,0.2
			c0.1,0,0.2,0,0.4,0c0.3,0,0.6,0.1,0.8,0.1c0.3,0.1,0.5,0.1,0.8,0.1c0.3,0.1,0.6,0.1,0.9,0.2c0.3,0.1,0.6,0.1,0.9,0.2
			c0.3,0.1,0.7,0.2,1,0.3c0.3,0.1,0.6,0.2,0.9,0.3c0.1,0,0.1,0,0.2,0.1c0.2,0.1,0.5,0.2,0.7,0.3c0.3,0.1,0.6,0.2,0.9,0.3
			c0.3,0.1,0.6,0.2,0.8,0.3c0.3,0.1,0.6,0.2,0.8,0.4c0.3,0.1,0.5,0.3,0.8,0.4c0.8,0.4,1.6,0.8,2.3,1.2c0.4,0.2,0.7,0.4,1.1,0.6
			c0.4,0.2,0.7,0.4,1,0.6c2,1.3,3.7,2.5,4.9,3.6c0.2,0.2,0.4,0.4,0.6,0.5c0.3,0.3,0.6,0.5,0.9,0.8c0.1,0.1,0.2,0.2,0.3,0.3
			c0.3,0.3,0.5,0.5,0.5,0.5l11.7,14.4l15.4,18.8l38.8,47.4C510.6,224.6,512,240.1,512,256z"/>
		<path id="XMLID_2403_" class="st48" d="M512,256c0,2.3,0,4.6-0.1,6.9c0,1.8-0.1,3.7-0.2,5.5c-2.1,0-4.2,0.2-6.2,0.3
			c-8.6,0.7-16.2,2.2-22,3.7c-6.9,1.8-11.1,3.5-11.1,3.5c-10.6,5.1-19.5,8-26.9,9.5h0c-3.7,0.8-7.1,1.1-10.1,1.2c-1.5,0-3,0-4.3-0.1
			c-1.7-0.1-3.3-0.3-4.8-0.6c-2.3-0.5-4.3-1.2-6.1-1.9c-0.4-0.2-0.8-0.4-1.1-0.6c-4.2-2.1-6.4-4.8-7.4-6.3c-0.2-0.3-0.3-0.5-0.4-0.7
			v0c-0.2-0.3-0.2-0.5-0.2-0.5c7.7-9.9-9.4-13.1-24.5-14c-10.3-0.6-19.6-0.2-19.6-0.2c-0.1,0-0.1,0-0.2,0
			c-13.4,2.7-24.5,3.1-33.6,2.4c0,0,0,0,0,0c-1.2-0.1-2.3-0.2-3.4-0.3c-2.9-0.3-5.5-0.8-7.8-1.3c-13.5-3-19.8-8.3-19.8-8.3
			l24.8-28.5l5.3-6.1l37.4-43l17.6-20.3l9.7-11.2l0.4-0.5L411,129c4.7-5.4,9.6-8.6,14.2-10.1c0.3,0.1,0.6,0.2,0.9,0.3
			c0.1,0,0.1,0,0.2,0.1c0.2,0.1,0.5,0.2,0.7,0.3c0.3,0.1,0.6,0.2,0.9,0.3c0.3,0.1,0.6,0.2,0.8,0.3c0.3,0.1,0.6,0.2,0.8,0.4
			c0.3,0.1,0.5,0.3,0.8,0.4c0.8,0.4,1.6,0.8,2.3,1.2c0.4,0.2,0.7,0.4,1.1,0.6c0.4,0.2,0.7,0.4,1,0.6c2,1.3,3.7,2.5,4.9,3.6
			c0.2,0.2,0.4,0.4,0.6,0.5c0.3,0.3,0.6,0.5,0.9,0.8c0.1,0.1,0.2,0.2,0.3,0.3c0.3,0.3,0.5,0.5,0.5,0.5l11.7,14.4l15.4,18.8
			l38.8,47.4C510.6,224.6,512,240.1,512,256z"/>
		<path id="XMLID_2354_" class="st127" d="M469,162.2c-2,1.3-4.9,1.2-6.8-0.1l-13.8-9.8c-2.1-1.5-5.4-1.2-7,0.6l-10.2,11.1
			c-1.8,2-5.5,2.3-7.8,0.6l-11.8-8.7c-1.2-0.9-3-1.2-4.7-0.8l-13.6,3.3c-3.3,0.8-6.7-1.1-6.7-3.8v-5.8c0-2.4-3-4.2-6-3.5l6-6.9
			l8-9.1c22.4-25.7,47.4,0,47.4,0l11.7,14.3L469,162.2z"/>
		<path id="XMLID_2353_" class="st43" d="M453.7,143.3l-5.2-3.7c-2.1-1.5-5.4-1.2-7,0.6l-10.2,11.1c-1.8,2-5.5,2.3-7.8,0.6
			l-11.8-8.7c-1.2-0.9-3-1.2-4.7-0.8l-13.6,3.3c-3.3,0.8-6.7-1.1-6.7-3.8v-3.6l8-9.1c22.4-25.7,47.4,0,47.4,0L453.7,143.3z"/>
		<path id="XMLID_2398_" class="st48" d="M206.3,239.4c0,0-7.1,2.4-17.2,5.2c-7.2,2-15.8,4.3-24.4,6.1c-7.1,1.5-14.2,2.7-20.4,3.2
			c-4.6,0.4-13.4,1.3-24.5,2.5c-5.1,0.6-10.8,1.2-16.8,1.9c-6.7,0.8-13.8,1.6-21.1,2.4c-1.2,0.1-2.5,0.3-3.7,0.4
			c-28.2,3.3-58.6,6.9-77.8,9.2C0.1,265.7,0,260.9,0,256c0-1.6,0-3.2,0-4.8c0.8-42.8,12-83,31.4-118.2c-0.1-0.9-0.2-1.9-0.2-2.9
			c0-5.8,2-11.2,5.4-15.4c2.9-3.7,6.9-6.6,11.5-8.1c4.1-5.8,8.5-11.3,13.1-16.7c2.6,2.1,5.2,4.5,7.7,7.3c7.2,8,13.6,18.7,17.5,33.2
			c1.9,7.1,4.3,14.1,7.4,20.7c0.6,1.3,1.2,2.6,1.9,4c5.9,11.8,15.2,27.3,27.6,39.4c4.6,4.5,9.5,8.5,15,11.7c9,5.4,19.2,8.5,30.5,7.8
			l3.3,2.2l24.1,16.3L206.3,239.4z"/>
		<path id="XMLID_2385_" class="st2" d="M164.7,250.8c-7.1,1.5-14.2,2.7-20.4,3.2c-4.6,0.4-13.4,1.3-24.5,2.5
			c-5.1,0.6-10.8,1.2-16.8,1.9c-6.7,0.8-13.8,1.6-21.1,2.4c-1.2,0.1-2.5,0.3-3.7,0.4c-28.2,3.3-58.6,6.9-77.8,9.2
			C0.1,265.7,0,260.9,0,256c0-1.6,0-3.2,0-4.8c0.8-42.8,12-83,31.4-118.2c-0.1-0.9-0.2-1.9-0.2-2.9c0-5.8,2-11.2,5.4-15.4
			c1.1,1.2,2.2,2.5,3.3,3.9c6,7.6,11.2,17.2,14.5,29.6c0.6,2.3,1.3,4.5,2,6.8c1.5,4.8,3.3,9.4,5.4,13.9
			c7.4,15.5,21.7,40.4,42.4,53.8c5.4,3.5,11.3,6.2,17.6,7.8c4.8,1.2,9.8,1.7,15,1.4l0.1,0.1L164.7,250.8z"/>
		<path id="XMLID_2350_" class="st172" d="M430.6,272.9l-9,9.5l-16.3,17.4l-4.7,5c-8-3.1-16.1-4.9-24-5.8c-21-2.2-40.6,2.4-53.5,6.7
			c-9.6,3.2-15.5,6.2-15.5,6.2c-16.7,10.3-30.4,15.8-41.4,18c-35.4,7.3-44.1-18-44.1-18c11.5-19.2-17-24.3-38.9-25.4
			c-12.3-0.6-22.6-0.1-22.6-0.1c-8.8,2.3-16.8,3.7-24.2,4.4c0,0,0,0,0,0c-15.8,1.5-28.5-0.1-38.5-3c-18.9-5.4-27.6-14.9-27.6-14.9
			L202.6,76.8l19.5-28.9c14.8-21.9,30.3-23,42.7-18.2c13.7,5.4,23.3,18.2,23.3,18.2l37.8,59.6L430.6,272.9z"/>
		<path id="XMLID_2349_" class="st2" d="M430.6,272.9l-9,9.5l-16.3,17.4c-9.9-1.7-19.7-1.7-28.7-0.8c-12,1.2-22.6,4-30.7,6.7
			c-9.6,3.2-15.5,6.2-15.5,6.2c-31,19.1-51.2,21.4-64.2,18c-16.6-4.3-21.3-18-21.3-18c18-30-61.5-25.5-61.5-25.5
			c-0.1,0-0.2,0.1-0.3,0.1c-18.7,4.9-34.2,5.6-46.8,4.3c0,0,0,0,0,0c-5.8-0.6-11-1.7-15.7-3c-18.9-5.4-27.6-14.9-27.6-14.9
			L225.4,76.8l19.5-28.9c6.6-9.7,13.3-15.4,19.8-18.2c13.7,5.4,23.3,18.2,23.3,18.2l37.8,59.6L430.6,272.9z"/>
		<path id="XMLID_2348_" class="st127" d="M325.9,107.5c-2.8,2.3-6.8,2.2-9.5-0.2l-19.2-17.6c-2.9-2.7-7.5-2.2-9.8,1l-14.2,20
			c-2.5,3.6-7.7,4.1-10.9,1L245.8,96c-1.7-1.6-4.2-2.2-6.5-1.5l-18.9,5.9c-4.7,1.5-9.4-2-9.4-6.9V83.1c0-4.4-4.2-7.5-8.4-6.3
			l8.4-12.5l11.1-16.4c31.2-46.2,66,0,66,0l16.3,25.8L325.9,107.5z"/>
		<path id="XMLID_2347_" class="st43" d="M304.4,73.7l-7.3-6.6c-2.9-2.7-7.5-2.2-9.8,1l-14.2,20c-2.5,3.6-7.7,4.1-10.9,1l-16.5-15.7
			c-1.7-1.6-4.2-2.2-6.5-1.5l-18.9,5.9c-4.7,1.4-9.4-2-9.4-6.9v-6.5l11.1-16.4c31.2-46.2,66,0,66,0L304.4,73.7z"/>
		<path id="XMLID_2346_" class="st74" d="M246.1,253.3c-0.2,0.4-0.3,0.8-0.5,1.2c-1.1,2.9-1.6,6.1-1.4,9.3
			c0.7,12.3-0.2,40.2-22.1,48.2c15.4-25.7-40.7-26.1-57.1-25.7c-2.8,0.1-4.4,0.2-4.4,0.2c-1.9,0.5-3.9,1-5.7,1.4
			c-6.7,1.5-12.9,2.5-18.7,3c-15.7,1.5-28.4-0.2-38.3-3l41.4-59.4c3.6-5.2,11.4-5,14.8,0.3l2.5,3.9c1.4,2.2,4.6,2.1,6-0.1l39.1-67.4
			c3-5.2,10.7-4.7,13.1,0.8l3.9,9.3c1,2.3,3.5,3.4,5.8,2.6l4.4-1.5c4.7-1.6,9.8,0.8,11.7,5.4C246.5,196.9,257,229.8,246.1,253.3z"/>
		<path id="XMLID_2345_" class="st74" d="M154.2,286.6l0.7,1.2c-6.7,1.5-12.9,2.5-18.7,3l3.1-4.5C143,281.1,150.8,281.2,154.2,286.6
			z"/>
		<path id="XMLID_2344_" class="st173" d="M244.3,263.7c0.7,12.3-0.2,40.2-22.1,48.2c15.4-25.7-40.7-26.1-57.1-25.7l36.7-63.2
			c3-5.2,10.7-4.7,13.1,0.8l3.9,9.3c1,2.3,3.5,3.4,5.8,2.6l4.4-1.5c4.7-1.6,9.8,0.8,11.7,5.4c1.5,3.9,3.4,9,5.1,14.8
			C244.5,257.4,244.1,260.6,244.3,263.7z"/>
		<path id="XMLID_2343_" class="st74" d="M421.6,282.4l-21,22.3c-29.2-11.5-59.7-5-77.5,0.9l-6.3-38.8c-0.2-1.2,1.1-2,2.1-1.4
			l4.1,2.6c3,2,7-0.4,6.7-4l-3-41.7c-0.2-3.3,4-5,6-2.3l29.2,37.1c2.6,3.3,7.8,1.4,7.8-2.7v0c0-1,1.1-1.7,2-1.2L421.6,282.4z"/>
		<path id="XMLID_2509_" class="st20" d="M511.9,262.9c0,1.8-0.1,3.7-0.2,5.5c0,0.4,0,0.7,0,1c-1,20.1-4.4,39.5-9.8,58.1
			c-28.1,96.8-111.9,170-214.4,182.6c-10.3,1.3-20.8,1.9-31.5,1.9c-39.3,0-76.5-8.9-109.8-24.7c-8.7-4.1-17-8.7-25.1-13.7
			C65.6,439.1,24.2,384,7.8,318.9c-4-15.6-6.5-31.8-7.4-48.4C0.1,265.7,0,260.9,0,256c0-1.6,0-3.2,0-4.8c12.3-2.3,25.8-1.7,36.4,6.5
			c0,0,16.8,5.7,21-0.9c0,0,12-5.6,22.3,2.1c0.7,0.6,1.4,1.2,2.2,1.8c2.8,2.7,5.4,6.6,7.5,12c0,0,5,5.8,11.5,10.6
			c6.4,4.7,14.1,8.3,19.8,4.3c0,0,22.3-17.8,34.1-5.3c0,0,6.6-2.7,14.8-4.3c9.3-1.9,20.6-2.3,26.4,4.3c0,0,21.9-2.1,30.8,6.5
			c2.7,2.6,4.2,6.1,3.6,11c0,0,2.5,0.1,5.7,1c3.5,0.9,7.8,2.8,10.8,6.3c0.1,0.1,0.1,0.1,0.2,0.2c3.9,4.9,10.7,6.4,16.1,3.2
			c7.8-4.6,17.2-7.4,22.4,1.2c0,0,19.9-18.7,31.1-4c0,0,0,0,0,0c0.2-0.2,2.4-2.2,5.8-4.9c9.8-7.5,30.1-20.3,46.5-12.2
			c0,0,24.4-19.2,36.2-4.2c0,0,0.3-0.6,0.9-1.7c1-1.8,2.9-4.8,5.3-7.9c0.1-0.1,0.2-0.2,0.2-0.3c4-4.9,9.3-9.9,14.9-9.9
			c4.4,0,9,3.2,13,12.1c0,0,2.9-21.7,29.2-16.7C469,262.2,496.6,249.8,511.9,262.9z"/>
		<path id="XMLID_2406_" class="st45" d="M501.9,327.5c-28.1,96.8-111.9,170-214.4,182.6c-10.3,1.3-20.8,1.9-31.5,1.9
			c-39.3,0-76.5-8.9-109.8-24.7c-8.7-4.1-17-8.7-25.1-13.7C65.6,439.1,24.2,384,7.8,318.9c47.6-10,129-13.9,202.7,46.8
			c12.9,10.6,27.4,19.3,43,25.2c4.5,1.7,9.4,3.3,14.5,4.7c7.7,2.1,15.9,3.7,24.2,4.4c14.1,1.1,28.7-0.5,42.1-7.1
			c1.7-0.8,3.4-1.9,4.9-3c0.5-0.4,1-0.7,1.4-1.1l0,0c6.3-5.1,23.3-18.3,45.5-31.5c7.1-4.2,14.6-8.4,22.6-12.2
			c4.4-2.2,9-4.3,13.6-6.2c3-1.3,6.1-2.5,9.2-3.7c15.6-5.8,31.7-9.8,47.2-10.2c4.3-0.1,8.7,0.1,12.9,0.5c2,0.2,4,0.5,6,0.9
			C499.1,326.8,500.5,327.1,501.9,327.5z"/>
		<path id="XMLID_2340_" class="st60" d="M58.4,327.3c13.2,1.1,32.5,7.4,53,30.1c1.3,1.5,0.4,3.9-1.6,4.1l-6.9,0.7
			c-3,0.3-3.6,4.3-0.9,5.6c22.3,10.4,78.7,35,106.8,33c2.2-0.2,3.1,2.8,1.2,3.9c-14.5,8.6-47.8,20.7-101.3-2.6
			c0,0-46.9-22.7-62.7-57C42,336.4,48.8,326.5,58.4,327.3z"/>
		<path id="XMLID_2335_" class="st43" d="M449.1,66c-1.2-3.8-4.7-6.6-8.9-6.8h-0.4c-1.3,0-2.5,0.3-3.7,0.7c0-0.1,0-0.3,0-0.4
			c0-6.9-5.6-12.5-12.5-12.5c-1.3,0-2.6,0.2-3.8,0.6c-2.1,0.7-3.9,1.9-5.4,3.5c-0.1,0.1-0.2,0.2-0.2,0.2
			c-0.1-6.2-5.1-11.1-11.3-11.1c-1.4,0-2.8,0.3-4,0.8c-0.8,0.3-1.5,0.7-2.2,1.1c-2.9,1.9-4.9,5.2-5.1,8.9c-0.8-0.1-1.7-0.2-2.5-0.2
			c-0.5,0-1,0-1.5,0.1c-5.8,0.6-10.6,4.8-12.1,10.4c-0.1,0.6-0.3,1.1-0.3,1.7H375c-5.8,0-11,2.4-14.7,6.2c-2.8,2.9-4.8,6.6-5.5,10.7
			c-1.5-0.6-3.1-0.9-4.8-0.9c-0.4,0-0.7,0-1.1,0.1c-7.2,0.6-12.9,6.6-12.9,14c0,2.7,0.8,5.2,2.1,7.3c2.5,4,6.9,6.7,11.9,6.7h98.9
			c4.6,0,8.9-1.5,12.3-4.1c3.1-2.3,5.5-5.4,6.9-9.1c0.9-2.3,1.3-4.8,1.3-7.4C469.4,75.2,460.3,66.1,449.1,66z M394.9,88.5
			c0-0.1,0-0.2,0-0.2c0.1,0.1,0.2,0.2,0.3,0.2H394.9z"/>
		<path id="XMLID_2331_" class="st43" d="M190.4,128.8c-2.8-4.3-7.5-7.3-13-7.7c-0.4,0-0.9,0-1.3,0c-1.2,0-2.4,0.1-3.6,0.4h0
			c-0.8,0.2-1.5,0.4-2.2,0.7c-0.9-5-3.3-9.5-6.7-13c-4.5-4.6-10.8-7.5-17.8-7.5h-0.2c-0.1-0.7-0.2-1.4-0.4-2.1
			c-1.8-6.7-7.5-11.8-14.6-12.6c-0.6-0.1-1.2-0.1-1.8-0.1c-1,0-2.1,0.1-3.1,0.3c-0.3-5.6-3.9-10.3-8.8-12.2
			c-1.5-0.6-3.2-0.9-4.9-0.9c-7.5,0-13.6,6-13.8,13.5c-0.1-0.1-0.2-0.2-0.3-0.3c-1.8-1.9-4-3.4-6.5-4.2c-1.4-0.5-3-0.7-4.6-0.7
			c-8.4,0-15.2,6.8-15.2,15.2c0,0.2,0,0.4,0,0.5c-0.9-0.4-1.9-0.6-2.8-0.8c-0.5-0.1-1.1-0.1-1.6-0.1h-0.5c-5.1,0.2-9.3,3.6-10.8,8.2
			c-2.8,0-5.4,0.5-7.9,1.3c-4.6,1.6-8.5,4.4-11.5,8.1c-3.4,4.2-5.4,9.6-5.4,15.4c0,1,0.1,1.9,0.2,2.9c0.2,2.1,0.7,4.1,1.5,6.1
			c3.6,9.3,12.6,16,23.2,16h120c6.1,0,11.5-3.2,14.5-8.1c1.6-2.6,2.5-5.6,2.5-8.9C193.1,134.7,192.1,131.5,190.4,128.8z
			 M121.3,132.7c0.1-0.1,0.2-0.2,0.3-0.3c0,0.1,0,0.2,0.1,0.3H121.3z"/>
		<g id="XMLID_2321_">
			<path id="XMLID_2330_" class="st45" d="M475.1,371.7c-3.7,4.3-3.5,13-8.1,15.8c-4.7,2.9-12.4-1.2-17.7,0.1
				c-5.4,1.3-10.3,8.4-15.8,8c-5.4-0.4-9.3-8.2-14.4-10.3c-0.1-0.1-0.3-0.1-0.4-0.2c-5-1.7-12.9,0.9-17.1-2.7
				c-4.3-3.7-2.8-12.2-5.6-16.8c-2.9-4.7-11.2-7.3-12.5-12.6c-1.3-5.4,4.9-11.4,5.4-16.9c0.4-5.4-4.9-12.4-2.7-17.5
				c2-5,10.6-6.2,14.3-10.5c3.7-4.3,3.5-13,8.1-15.8c4.7-2.9,12.4,1.2,17.7-0.1c5.4-1.3,10.3-8.4,15.8-8c5.4,0.4,9.3,8.2,14.4,10.3
				c5,2,13.2-0.8,17.5,2.8c4.2,3.6,2.9,11.8,5.4,16.4c0.1,0.1,0.1,0.3,0.2,0.4c2.9,4.7,11.2,7.3,12.5,12.6
				c1.3,5.4-4.9,11.4-5.4,16.9c-0.4,5.4,4.9,12.4,2.7,17.5C487.4,366.1,478.8,367.4,475.1,371.7z"/>
			<path id="XMLID_2329_" class="st20" d="M475.1,371.7c-3.7,4.3-3.5,13-8.1,15.8c-4.7,2.9-12.4-1.2-17.7,0.1
				c-5.4,1.3-10.3,8.4-15.8,8c-5.4-0.4-9.3-8.2-14.4-10.3c-0.1-0.1-0.3-0.1-0.4-0.2c-0.1-0.1-0.1-0.3-0.2-0.4
				c-2.9-4.7-11.2-7.3-12.5-12.6c-1.3-5.4,4.9-11.4,5.4-16.9c0.4-5.4-4.9-12.4-2.7-17.5c2-5,10.6-6.2,14.3-10.5
				c3.7-4.3,3.5-13,8.1-15.8c4.7-2.9,12.4,1.2,17.7-0.1c5.3-1.3,10.3-8.4,15.8-8c5.4,0.4,9.3,8.2,14.4,10.3c0.1,0.1,0.3,0.1,0.4,0.2
				c0.1,0.1,0.1,0.3,0.2,0.4c2.9,4.7,11.2,7.3,12.5,12.6c1.3,5.4-4.9,11.4-5.4,16.9c-0.4,5.4,4.9,12.4,2.7,17.5
				C487.4,366.1,478.8,367.4,475.1,371.7z"/>
			<path id="XMLID_2328_" class="st3" d="M490.2,332.6c-5.9,1.5-11.3-0.2-12.2-3.7c-0.9-3.5,3.2-7.5,9-9c5.9-1.5,12.2,3.7,12.2,3.7
				S496.1,331.1,490.2,332.6z"/>
			<path id="XMLID_2327_" class="st45" d="M451.6,352.9c-4.2-4.3-5.6-9.9-3-12.4c2.6-2.5,8.1-1.1,12.3,3.2c4.2,4.3,3,12.4,3,12.4
				S455.8,357.2,451.6,352.9z"/>
			<path id="XMLID_2326_" class="st52" d="M457.4,307.1c1.8,5.8,0.5,11.3-2.9,12.4c-3.5,1.1-7.7-2.7-9.6-8.4
				c-1.8-5.8,2.9-12.4,2.9-12.4S455.6,301.3,457.4,307.1z"/>
			<path id="XMLID_2325_" class="st52" d="M424.4,325.8c5.4,2.7,8.5,7.5,6.8,10.8c-1.6,3.2-7.3,3.7-12.7,1
				c-5.4-2.7-6.8-10.8-6.8-10.8S419,323.1,424.4,325.8z"/>
			<path id="XMLID_2323_" class="st52" d="M431.1,287.1c1.1,5.9-0.9,11.3-4.4,12s-7.3-3.6-8.5-9.6s4.4-12,4.4-12
				S430,281.2,431.1,287.1z"/>
			<path id="XMLID_2322_" class="st52" d="M399,300.2c5.5,2.6,8.6,7.4,7,10.6s-7.2,3.8-12.7,1.2c-5.5-2.6-7-10.6-7-10.6
				S393.6,297.6,399,300.2z"/>
		</g>
		<path id="XMLID_2393_" class="st174" d="M340.8,388.9c-0.4,0.4-0.8,0.7-1.2,1.1c-40.4,35.4-51.7,81-52.1,120.1
			c-10.3,1.3-20.8,1.9-31.5,1.9c-39.3,0-76.5-8.9-109.8-24.7c-8.7-4.1-17-8.7-25.1-13.7c54.9-46.9,107.2-68.3,146.9-78
			C311.6,385.1,340.1,388.8,340.8,388.9z"/>
		<path id="XMLID_2388_" class="st91" d="M339.5,389.9c-40.4,35.4-51.7,81-52.1,120.1c-10.3,1.3-20.8,1.9-31.5,1.9
			c-39.3,0-76.5-8.9-109.8-24.7c8.4-7.9,16.8-15.1,25.1-21.8c11-8.8,21.8-16.7,32.4-23.6c32.2-21.1,62.5-34,88.6-41.9
			c17.9-5.4,33.8-8.4,47.1-10.1C339.4,390,339.5,389.9,339.5,389.9z"/>
		<ellipse id="XMLID_2318_" class="st174" cx="264.7" cy="429.6" rx="21" ry="14"/>
		<ellipse id="XMLID_2317_" class="st174" cx="256.3" cy="466.1" rx="15.9" ry="10.5"/>
		<ellipse id="XMLID_2316_" class="st174" cx="193.1" cy="457.2" rx="25.2" ry="16.8"/>
	</g>
</g>
</svg>
