<?xml version="1.0" encoding="utf-8"?>
<!-- Generator: Adobe Illustrator 22.0.1, SVG Export Plug-In . SVG Version: 6.00 Build 0)  -->
<svg version="1.1" xmlns="http://www.w3.org/2000/svg" xmlns:xlink="http://www.w3.org/1999/xlink" x="0px" y="0px"
	 viewBox="0 0 512 512" style="enable-background:new 0 0 512 512;" xml:space="preserve">
<style type="text/css">
	.st0{fill:#4B71B4;}
	.st1{fill:#80B4E8;}
	.st2{fill:#594144;}
	.st3{fill:#B8E876;}
	.st4{fill:#E09122;}
	.st5{fill:#FBF355;}
	.st6{fill:#EEC82F;}
	.st7{fill:#CEA628;}
	.st8{fill:#9BC9EF;}
	.st9{fill:#9DD055;}
	.st10{fill:#5686C5;}
	.st11{fill:#3B5880;}
	.st12{fill:#C2E5FB;}
	.st13{fill:#446697;}
	.st14{fill:#D1F1A0;}
	.st15{fill:#ABD170;}
	.st16{fill:#9DBD6A;}
	.st17{fill:#649D53;}
	.st18{fill:#72B35D;}
	.st19{fill:#ABD68D;}
	.st20{fill:#7FB358;}
	.st21{fill:#920C50;}
	.st22{fill:#C60053;}
	.st23{fill:#530730;}
	.st24{fill:#600332;}
	.st25{fill:#D5AC2A;}
	.st26{fill:#EFD776;}
	.st27{fill:#A7C76D;}
	.st28{fill:#A43749;}
	.st29{fill:#DC4355;}
	.st30{fill:#E18696;}
	.st31{fill:#77A255;}
	.st32{fill:#628547;}
	.st33{fill:#6E994D;}
	.st34{fill:none;stroke:#54743C;stroke-width:8;stroke-linecap:round;stroke-miterlimit:10;}
	.st35{fill:#9BCF75;}
	.st36{fill:#CA8F80;}
	.st37{fill:#E6B8AB;}
	.st38{fill:#E2A18B;}
	.st39{fill:#8E3F2B;}
	.st40{fill:#D89988;}
	.st41{fill:#CFCFCF;}
	.st42{fill:#A64B2D;}
	.st43{fill:#FFFFFF;}
	.st44{fill:#CA801F;}
	.st45{fill:#719C50;}
	.st46{fill:#85B7E5;}
	.st47{fill:#4F7BA9;}
	.st48{fill:#674C50;}
	.st49{fill:#BAD7ED;}
	.st50{fill:#63494D;}
	.st51{fill:#503D3F;}
	.st52{fill:#638547;}
	.st53{fill:#56713E;}
	.st54{fill:#BB5135;}
	.st55{fill:#93C4EC;}
	.st56{fill:#CA8121;}
	.st57{fill:#FDFCFC;}
	.st58{fill:#A83A4F;}
	.st59{fill:#BD5E44;}
	.st60{fill:#688C4A;}
	.st61{fill:#7DA55A;}
	.st62{fill:#90BA51;}
	.st63{fill:none;}
	.st64{fill:#ABC287;}
	.st65{fill:#BDD993;}
	.st66{fill:none;stroke:#534046;stroke-width:15;stroke-linecap:round;stroke-linejoin:round;stroke-miterlimit:10;}
	.st67{fill:#413133;}
	.st68{fill:#34292B;}
	.st69{fill:#644B50;}
	.st70{fill:#CDACB7;}
	.st71{fill:#A83A4D;}
	.st72{fill:#413335;}
	.st73{fill:#DC6579;}
	.st74{fill:#4C393C;}
	.st75{fill:#527FAE;}
	.st76{fill:#92C2EA;}
	.st77{fill:#5B8C4A;}
	.st78{fill:#729C51;}
	.st79{fill:#AADB5E;}
	.st80{fill:#D66C53;}
	.st81{fill:#A65340;}
	.st82{fill:#B8594A;}
	.st83{fill:#79A754;}
	.st84{fill:#4E3B3E;}
	.st85{fill:#5E4649;}
	.st86{fill:#604A50;}
	.st87{fill:#685258;}
	.st88{fill:#765E66;}
	.st89{fill:#FCF69A;}
	.st90{fill:#D3CC84;}
	.st91{fill:#E6A572;}
	.st92{fill:#74A151;}
	.st93{fill:#6F994F;}
	.st94{fill:#CC6D7D;}
	.st95{fill:#AD6576;}
	.st96{fill:#95422D;}
	.st97{fill:#BE6850;}
	.st98{fill:#3B2F32;}
	.st99{fill:none;stroke:#46383B;stroke-width:15;stroke-linecap:round;stroke-miterlimit:10;}
	.st100{fill:none;stroke:#3B2F32;stroke-width:15;stroke-linecap:round;stroke-miterlimit:10;}
	.st101{fill:#D6CF77;}
	.st102{fill:#F5EF82;}
	.st103{fill:#4A383B;}
	.st104{fill:#CACACA;}
	.st105{fill:#48373A;}
	.st106{fill:#7AA8D2;}
	.st107{fill:#6E9150;}
	.st108{fill:#587441;}
	.st109{fill:#D76E51;}
	.st110{fill:#CCC475;}
	.st111{fill:#DDD57E;}
	.st112{fill:#F8F19C;}
	.st113{fill:#FBF58A;}
	.st114{fill:#C67F20;}
	.st115{fill:#AB6B1C;}
	.st116{fill:#C98020;}
	.st117{fill:#D99A41;}
	.st118{fill:#DBA35B;}
	.st119{fill:#9B5F1B;}
	.st120{fill:#97CF6D;}
	.st121{fill:#5380B1;}
	.st122{fill:#96D16A;}
	.st123{fill:#92BD50;}
	.st124{fill:#7EB058;}
	.st125{fill:#709A50;}
	.st126{fill:#5A8A4A;}
	.st127{fill:#D9D9D9;}
	.st128{fill:#75A3CD;}
	.st129{fill:#6E974F;}
	.st130{fill:#CA6D7D;}
	.st131{fill:#AB6576;}
	.st132{fill:#93422D;}
	.st133{fill:#A44B2D;}
	.st134{fill:#BC6850;}
	.st135{fill:#DFB52B;}
	.st136{fill:#4C3A3C;}
	.st137{fill:#473538;}
	.st138{fill:#382B2E;}
	.st139{fill:none;stroke:#FFFFFF;stroke-width:8;stroke-linecap:round;stroke-miterlimit:10;}
	.st140{fill:#90C0E8;}
	.st141{fill:none;stroke:#E09122;stroke-width:12;stroke-linecap:round;stroke-miterlimit:10;}
	.st142{fill:#DCAE2B;}
	.st143{fill:#F0D05A;}
	.st144{fill:#729E51;}
	.st145{fill:#E4BA36;}
	.st146{fill:#F8F283;}
	.st147{fill:#E4B6A9;}
	.st148{fill:#D78E30;}
	.st149{fill:#598A49;}
	.st150{fill:#B65339;}
	.st151{fill:#BA751F;}
	.st152{fill:#466A9F;}
	.st153{fill:#8BB34D;}
	.st154{fill:#9BCE54;}
	.st155{fill:#7F9F49;}
	.st156{fill:#D37F6D;}
	.st157{fill:#BB5E44;}
	.st158{fill:#93BB55;}
	.st159{fill:#B3E665;}
	.st160{fill:none;stroke:#4C393C;stroke-width:8;stroke-miterlimit:10;}
	.st161{fill:#97432D;}
	.st162{fill:#DAB12A;}
	.st163{fill:#5E914C;}
	.st164{fill:#5381B3;}
	.st165{fill:#6A8F4C;}
	.st166{fill:#628047;}
	.st167{fill:#E29D37;}
	.st168{fill:#6E555B;}
	.st169{fill:#91CA67;}
	.st170{fill:#476BA1;}
	.st171{fill:#6699D9;}
	.st172{fill:#503C3E;}
	.st173{fill:#413235;}
	.st174{fill:#CC916A;}
	.st175{fill:#BA8363;}
	.st176{fill:#D09571;}
	.st177{fill:#C98F68;}
	.st178{fill:#AA3B4D;}
	.st179{fill:#DA6075;}
	.st180{fill:#92452D;}
	.st181{fill:#A24B2D;}
	.st182{fill:#B76252;}
	.st183{fill:#87BD60;}
	.st184{fill:#78A7D2;}
	.st185{fill:#F9F38F;}
	.st186{fill:#E0D650;}
	.st187{fill:#AFE086;}
	.st188{fill:#9FD476;}
	.st189{fill:#9DD176;}
	.st190{fill:#8FC468;}
	.st191{fill:#7EAE58;}
	.st192{fill:#6F9850;}
	.st193{fill:#59884A;}
	.st194{fill:#638347;}
	.st195{fill:#B95135;}
	.st196{fill:#E5AB62;}
	.st197{fill:#733228;}
	.st198{fill:#803728;}
	.st199{fill:#6D974D;}
	.st200{fill:#99CD75;}
	.st201{fill:#93412C;}
	.st202{fill:#93C2EA;}
	.st203{fill:#CD926B;}
	.st204{fill:#E6AF8A;}
	.st205{fill:#E5DB4E;}
	.st206{fill:#FBF375;}
	.st207{fill:#779E54;}
	.st208{fill:#D3966D;}
	.st209{fill:#DA4355;}
	.st210{fill:#A83B4D;}
	.st211{fill:none;stroke:#594144;stroke-width:8;stroke-linecap:round;stroke-miterlimit:10;}
	.st212{fill:#E5A855;}
	.st213{fill:#EAC291;}
	.st214{fill:#96C252;}
	.st215{fill:#695055;}
	.st216{fill:#DC9C42;}
	.st217{fill:#8E5C1B;}
	.st218{fill:#F4EB6A;}
	.st219{fill:#CBC049;}
	.st220{fill:none;stroke:#B8E876;stroke-width:15;stroke-linecap:round;stroke-miterlimit:10;}
	.st221{fill:#A36A1C;}
	.st222{fill:#ECC94A;}
	.st223{fill:#91BEDA;}
	.st224{fill:#3D2F32;}
	.st225{fill:#A6394C;}
	.st226{fill:#33292B;}
	.st227{fill:#4F3D42;}
	.st228{fill:#638147;}
	.st229{fill:#CD8321;}
	.st230{fill:#D3CA4A;}
	.st231{fill:#E2A550;}
	.st232{fill:#B75135;}
	.st233{fill:#D4CD77;}
	.st234{fill:#F3EC80;}
	.st235{fill:#46383B;}
	.st236{fill:#82AA61;}
	.st237{fill:#8EBF69;}
	.st238{fill:#3C2E31;}
	.st239{fill:#C49F27;}
	.st240{fill:#D2BF7C;}
	.st241{fill:#F6E18D;}
	.st242{fill:#D6D6D6;}
	.st243{fill:#B5D7F2;}
	.st244{fill:#F1D467;}
	.st245{fill:#739FBD;}
	.st246{fill:#D0946C;}
	.st247{fill:#BE8767;}
	.st248{fill:#D0A829;}
	.st249{fill:#F6DF86;}
	.st250{fill:#EABA8D;}
	.st251{fill:#F0D1B8;}
	.st252{fill:#A5D0F1;}
	.st253{fill:#E3A13F;}
	.st254{fill:#F0FAFF;}
	.st255{fill:#B4D3E3;}
	.st256{fill:#80A5C3;}
	.st257{fill:#87AFD5;}
	.st258{fill:#B1D1E7;}
	.st259{fill:#AED66F;}
	.st260{fill:#91AA61;}
	.st261{fill:#A8384B;}
	.st262{fill:#CD8120;}
	.st263{fill:#E6AD56;}
	.st264{fill:none;stroke:#E6AD56;stroke-width:8;stroke-linecap:round;stroke-miterlimit:10;}
	.st265{fill:#9EBD68;}
	.st266{fill:#AAD16E;}
	.st267{fill:#86656B;}
	.st268{fill:#6D954D;}
	.st269{fill:#98CB75;}
	.st270{fill:#75A251;}
	.st271{fill:#91BD4F;}
	.st272{fill:none;stroke:#B8E078;stroke-width:8;stroke-linecap:round;stroke-miterlimit:10;}
	.st273{fill:none;stroke:#B8E078;stroke-width:8;stroke-linecap:round;stroke-linejoin:round;stroke-miterlimit:10;}
	.st274{fill:#8FBA4E;}
	.st275{fill:#B3E860;}
	.st276{fill:#E7A748;}
	.st277{fill:none;stroke:#B6E676;stroke-width:15;stroke-linecap:round;stroke-miterlimit:10;}
	.st278{fill:#639B53;}
	.st279{fill:#476B9F;}
	.st280{fill:#82B1DE;}
	.st281{fill:#A6533F;}
	.st282{fill:#C28A69;}
	.st283{fill:#64494E;}
	.st284{fill:#77565C;}
	.st285{fill:#4F3C40;}
	.st286{fill:#ECCCB1;}
	.st287{fill:#BF6F5C;}
	.st288{fill:none;stroke:#D4F1A7;stroke-width:10;stroke-linecap:round;stroke-miterlimit:10;}
	.st289{fill:none;stroke:#B8E876;stroke-width:10;stroke-linecap:round;stroke-miterlimit:10;}
	.st290{fill:#47688F;}
	.st291{fill:#3F5B78;}
	.st292{fill:#354E6C;}
	.st293{fill:#DAB12B;}
	.st294{fill:#C8A028;}
	.st295{fill:#F0D15C;}
	.st296{fill:#F8F28B;}
	.st297{fill:#F7F18D;}
	.st298{fill:#DED450;}
	.st299{fill:#F9F155;}
	.st300{fill:#A2CFF4;}
	.st301{fill:none;stroke:#594144;stroke-width:10;stroke-linecap:round;stroke-miterlimit:10;}
	.st302{fill:#F5F0AB;}
	.st303{fill:#496DA1;}
	.st304{fill:#5A85C7;}
	.st305{fill:#D7D7D7;}
	.st306{fill:#ADD3E6;}
	.st307{fill:#98B8C3;}
	.st308{fill:#CDCECF;}
	.st309{fill:#BF4F69;}
	.st310{fill:#A83448;}
	.st311{fill:#A4DAF7;}
	.st312{fill:#81A861;}
	.st313{fill:#82A549;}
	.st314{fill:#B6E676;}
	.st315{fill:#8CBD69;}
	.st316{fill:#ECC62F;}
	.st317{fill:#F4EA80;}
	.st318{fill:#D6AD2B;}
	.st319{fill:#6F9151;}
	.st320{fill:#46699C;}
	.st321{fill:#4A373A;}
	.st322{fill:#89B04C;}
	.st323{fill:#99CC53;}
	.st324{fill:#B1E465;}
	.st325{fill:#E19E3B;}
	.st326{fill:#C05970;}
	.st327{fill:#D95F74;}
	.st328{fill:#74A8DE;}
	.st329{fill:#C47C1E;}
	.st330{fill:#719A51;}
	.st331{fill:#A8D95E;}
	.st332{fill:#D46C53;}
	.st333{fill:#A45340;}
	.st334{fill:#B6594A;}
	.st335{fill:#79A554;}
	.st336{fill:#B6DAF7;}
	.st337{fill:#739F51;}
	.st338{fill:#DDB32B;}
	.st339{fill:#DE8F22;}
	.st340{fill:none;stroke:#46383B;stroke-width:8;stroke-linecap:round;stroke-miterlimit:10;}
	.st341{fill:none;stroke:#3B2F32;stroke-width:8;stroke-linecap:round;stroke-miterlimit:10;}
	.st342{fill:#C8C8C8;}
	.st343{fill:#7F9D49;}
	.st344{fill:#BA5E44;}
	.st345{fill:#92B955;}
	.st346{fill:#D17F6D;}
	.st347{fill:#5D8F4C;}
	.st348{fill:#B75334;}
	.st349{fill:#CA6D57;}
	.st350{fill:#A4574D;}
	.st351{fill:#7FB1E6;}
	.st352{fill:#77A3CD;}
	.st353{fill:#90BA4F;}
	.st354{fill:#5C8F4B;}
	.st355{fill:#ACDE5D;}
	.st356{fill:#6FAC5A;}
	.st357{fill:none;stroke:#9DD055;stroke-width:10;stroke-linecap:round;stroke-miterlimit:10;}
	.st358{fill:#AD5643;}
	.st359{fill:#B96052;}
	.st360{fill:#CB8D84;}
	.st361{fill:#CC6C56;}
	.st362{fill:#DE9A8E;}
	.st363{fill:#D37B6A;}
	.st364{fill:#A87758;}
	.st365{fill:#372A2C;}
	.st366{fill:#B8815C;}
	.st367{fill:#433335;}
	.st368{fill:#2C2325;}
	.st369{fill:#95402B;}
	.st370{fill:#A85441;}
	.st371{fill:#D2C74B;}
	.st372{fill:#B25945;}
	.st373{fill:none;stroke:#594144;stroke-width:15;stroke-linecap:round;stroke-miterlimit:10;}
	.st374{fill:none;stroke:#594144;stroke-width:12;stroke-linecap:round;stroke-miterlimit:10;}
	.st375{fill:#8F473B;}
	.st376{fill:#453538;}
	.st377{fill:#517DAB;}
	.st378{fill:#75A050;}
	.st379{fill:#A5384D;}
	.st380{fill:#CC6075;}
	.st381{fill:#F26B7F;}
	.st382{fill:#C67189;}
	.st383{fill:#B26980;}
	.st384{fill:#D87990;}
	.st385{fill:#F2869B;}
	.st386{fill:#EF8499;}
	.st387{fill:#649CD7;}
	.st388{fill:#639CDB;}
	.st389{fill:#C8ED8D;}
	.st390{fill:#A9DB83;}
	.st391{fill:#9BCF76;}
	.st392{fill:#7EAC58;}
	.st393{fill:#8CC463;}
	.st394{fill:#7FAC5B;}
	.st395{fill:#769C55;}
	.st396{fill:#6A894D;}
	.st397{fill:#769B56;}
	.st398{fill:#9BCC75;}
	.st399{fill:#AF5641;}
	.st400{fill:#F4D576;}
	.st401{fill:#76A055;}
	.st402{fill:#628347;}
	.st403{fill:#4F7B9F;}
	.st404{fill:#466D86;}
	.st405{fill:#4D789C;}
</style>
<g id="BULINE">
	<circle id="XMLID_2074_" class="st0" cx="256" cy="256" r="256"/>
</g>
<g id="Icons">
	<g id="XMLID_2359_">
		<path id="XMLID_4831_" class="st320" d="M427.1,140.1c0,12.8-1.4,25.3-4.1,37.4c-8.7,39.7-31.1,74.3-61.9,98.7
			c-1.1,0.9-2.2,1.7-3.3,2.6c-2.1,1.6-4.2,3.1-6.4,4.6c-27.8,19-61.4,30-97.5,30c-13.4,0-26.4-1.5-38.9-4.4
			c-18.7-4.3-36.3-11.6-52.2-21.5c-2.8-1.7-5.4-3.5-8.1-5.3c-0.1,0-0.2-0.1-0.2-0.2c-22-15.5-40.3-35.9-53.1-59.8
			c-6.8-12.5-12-26-15.5-40.1c-3.3-13.4-5.1-27.5-5.1-42c0-34,9.8-65.8,26.8-92.6C149.3,17.6,200.6,0,256,0
			c52,0,100.4,15.5,140.8,42.1C415.9,70,427.1,103.7,427.1,140.1z"/>
		<path id="XMLID_4938_" class="st281" d="M511.2,276.4L511.2,276.4c-3.2,41.3-16.3,79.8-36.8,113.2c-5.7,9.3-12,18.2-18.8,26.7v0
			l-17.4,3.6l-197.4,41.1l-150.3-9.5C80.3,442.7,70.8,433.2,62,423c-5.4-6.3-10.5-12.8-15.3-19.6c-3.7-5.2-7.2-10.6-10.4-16.1
			C13.2,348.9,0,304,0,256c0-14.1,1.1-27.9,3.3-41.4l49.5-28.1h29l3.9-4.4l65-74.1c2.7-3,6.3-5.1,10.2-5.9l44.9-8.7l47-52.7
			c5.3-6,14.3-6.9,20.7-2.1c10.3,7.6,25.6,20.3,39,36.6c6.9,8.5,13.4,17.9,18.3,28.1l25,18.4l42.4,15.5c3.8,1.4,7,4,9.2,7.4
			c4,6.3,10.4,17.8,15.6,32.9c3.8,11,6.8,24,7.8,38.3l51,16L511.2,276.4z"/>
		<path id="XMLID_4932_" class="st59" d="M511.2,276.4L511.2,276.4c-3.2,41.3-16.3,79.8-36.8,113.2c-5.7,9.3-12,18.2-18.8,26.7v0
			l-17.4,3.6l-197.4,41.1l-150.3-9.5C80.3,442.7,70.8,433.2,62,423c-5.4-6.3-10.5-12.8-15.3-19.6l0.9-22.6l0.8-21.1l0.6-15l3.6-94.8
			l48.8-27.7l20.7-11.8h29l39.1-44.6l29.8-33.9c2.7-3,6.3-5.1,10.2-5.9l44.9-8.7l37.6-42.2c6.9,8.5,13.4,17.9,18.3,28.1l25,18.4
			l42.4,15.5c3.8,1.4,7,4,9.2,7.4c4,6.3,10.4,17.8,15.6,32.9c3.8,11,6.8,24,7.8,38.3l51,16L511.2,276.4z"/>
		<path id="XMLID_4792_" class="st321" d="M392.2,349.5l-16,28.3l-131.7,9.3l-55.7,3.9l-50.8-34c0,0,18.1-68.9,33-81l27.4-12.8
			c6.7-3.1,11.9-8.8,14.4-15.7c3.3-9,9.6-21.9,21-29.7l22.9-7.2c4.1-1.3,8.6-0.5,12.1,2.1l17.1,13.2c0,0,0.1,0.1,0.4,0.3
			c2.2,1.8,13.3,11.6,20.2,25.9c2,4,4.9,7.5,8.4,10.3l26.4,20.3l12.8,0.7L392.2,349.5z"/>
		<path id="XMLID_4791_" class="st2" d="M392.2,349.5l-16,28.3l-131.7,9.3L199.7,357c0,0,18.1-68.9,33-81l27.3-12.8
			c6.7-3.1,11.9-8.8,14.4-15.7c2.3-6.2,6-14.3,11.8-21.2c2.2,1.8,13.3,11.6,20.2,25.9c2,4,4.9,7.5,8.4,10.3l26.4,20.3l12.8,0.7
			L392.2,349.5z"/>
		<g id="XMLID_518_">
			<path id="XMLID_519_" class="st285" d="M354.1,283.4l-12.8-0.7l-26.4-20.4c-3.6-2.7-6.4-6.2-8.4-10.3
				c-6.9-14.2-18-24.1-20.2-25.9c-4.9,5.8-8.3,12.3-10.6,18c4.3,4.6,9.7,11.4,13.7,19.7c2,4,4.9,7.5,8.4,10.3l26.4,20.4l12.8,0.7
				l38.1,66l-9.8,17.3l10.8-0.8l16-28.3L354.1,283.4z"/>
		</g>
		<g id="XMLID_4758_">
			<path id="XMLID_4790_" class="st45" d="M173.6,343.1c0.4,6.7,7.7,14,6.1,20.2c-1.7,6.4-11.6,9.3-15.1,14.7
				c-3.5,5.5-1.9,15.8-7,19.9c-5,4.1-14.7,0.6-20.9,3.1c-0.2,0.1-0.3,0.1-0.5,0.2c-5.7,2.6-10.3,11.4-16.9,11.8
				c-6.7,0.4-12.5-8.2-18.7-9.8c-6.4-1.7-15.6,3-21.1-0.5c-5.5-3.5-5.2-13.9-9.4-18.9c-4.1-5-14.4-6.6-16.8-12.8
				c-2.3-5.9,4-14.1,3.6-20.8c-0.4-6.7-7.7-14-6.1-20.2c1.7-6.4,11.6-9.3,15.1-14.7c3.5-5.5,1.9-15.8,7-19.9
				c5-4.1,14.7-0.6,20.9-3.1c5.9-2.3,10.6-11.6,17.4-12c6.5-0.4,12.2,7.7,18.2,9.6c0.2,0.1,0.3,0.1,0.5,0.2c6.4,1.7,15.6-3,21.1,0.5
				c5.5,3.5,5.2,13.9,9.4,18.9c4.1,5,14.4,6.6,16.8,12.8C179.5,328.2,173.2,336.4,173.6,343.1z"/>
			<path id="XMLID_4789_" class="st20" d="M173.6,343.1c0.4,6.7,7.7,14,6.1,20.2c-1.7,6.4-11.6,9.3-15.1,14.7
				c-3.5,5.5-1.9,15.8-7,19.9c-5,4.1-14.7,0.6-20.9,3.1c-0.2,0.1-0.3,0.1-0.5,0.2c-0.2-0.1-0.3-0.1-0.5-0.2
				c-6.4-1.7-15.6,3-21.1-0.5c-5.5-3.5-5.2-13.9-9.4-18.9c-4.1-5-14.4-6.6-16.8-12.8c-2.3-5.9,4-14.1,3.6-20.8
				c-0.4-6.7-7.7-14-6.1-20.2c1.7-6.4,11.6-9.3,15.1-14.7c3.5-5.5,1.9-15.8,7-19.9c5-4.1,14.7-0.6,20.9-3.1c0.2-0.1,0.3-0.1,0.5-0.2
				c0.2,0.1,0.3,0.1,0.5,0.2c6.4,1.7,15.6-3,21.1,0.5c5.5,3.5,5.2,13.9,9.4,18.9c4.1,5,14.4,6.6,16.8,12.8
				C179.5,328.2,173.2,336.4,173.6,343.1z"/>
			<path id="XMLID_4788_" class="st3" d="M154.2,297.1c-3.8,6.1-9.9,9.2-13.5,6.9s-3.5-9.1,0.3-15.2c3.8-6.1,13.5-6.9,13.5-6.9
				S158.1,291,154.2,297.1z"/>
			<path id="XMLID_4786_" class="st45" d="M137.9,346.4c-7.2-0.2-12.9-3.9-12.8-8.2c0.1-4.3,6-7.6,13.2-7.4
				c7.2,0.2,12.8,8.2,12.8,8.2S145.1,346.6,137.9,346.4z"/>
			<path id="XMLID_4785_" class="st52" d="M105.1,302.3c6.3,3.4,9.8,9.3,7.7,13.1c-2.1,3.8-8.8,4.1-15.2,0.7S89.9,303,89.9,303
				S98.8,298.9,105.1,302.3z"/>
			<path id="XMLID_4784_" class="st52" d="M92.2,345.6c6.9-2.1,13.5-0.5,14.7,3.6s-3.2,9.2-10.1,11.3c-6.9,2.1-14.7-3.6-14.7-3.6
				S85.4,347.8,92.2,345.6z"/>
			<path id="XMLID_4783_" class="st52" d="M66.1,306.9c5.8,4.2,8.6,10.4,6,13.9s-9.3,3-15.1-1.2c-5.8-4.2-6-13.9-6-13.9
				S60.3,302.7,66.1,306.9z"/>
			<path id="XMLID_4760_" class="st52" d="M49.3,344.5c6.8-2.3,13.4-0.8,14.8,3.3c1.4,4.1-3.1,9.2-9.9,11.5S39.4,356,39.4,356
				S42.5,346.8,49.3,344.5z"/>
		</g>
		<g id="XMLID_4462_">
			<path id="XMLID_4471_" class="st45" d="M464.4,347.9c-1.6,6.5,3.2,15.7-0.2,21.1c-3.5,5.6-13.8,5.4-18.8,9.6
				c-5,4.2-6.5,14.5-12.6,17c-6,2.5-14.3-3.7-20.9-3.2c-0.2,0-0.4,0-0.5,0.1c-6.2,0.8-13.2,7.8-19.6,6.3c-6.5-1.6-9.5-11.5-15-14.9
				c-5.6-3.5-15.8-1.7-20-6.7c-4.2-5-0.8-14.8-3.3-20.8c-2.5-6-11.8-10.6-12.3-17.2c-0.5-6.4,8-12.3,9.6-18.8
				c1.6-6.5-3.2-15.7,0.2-21.1c3.5-5.6,13.8-5.4,18.8-9.6c5-4.2,6.5-14.5,12.6-17c6-2.5,14.3,3.7,20.9,3.2
				c6.4-0.5,13.6-7.9,20.1-6.3c6.4,1.5,9.4,11,14.5,14.6c0.1,0.1,0.3,0.2,0.4,0.3c5.6,3.5,15.8,1.7,20,6.7c4.2,5,0.8,14.8,3.3,20.8
				c2.5,6,11.8,10.6,12.3,17.2C474.4,335.5,466,341.4,464.4,347.9z"/>
			<path id="XMLID_4470_" class="st20" d="M464.4,347.9c-1.6,6.5,3.2,15.7-0.2,21.1c-3.5,5.6-13.8,5.4-18.8,9.6
				c-5,4.2-6.5,14.5-12.6,17c-6,2.5-14.3-3.7-20.9-3.2c-0.2,0-0.4,0-0.5,0.1c-0.1-0.1-0.3-0.2-0.4-0.3c-5.6-3.5-15.8-1.7-20-6.7
				c-4.2-5-0.8-14.8-3.3-20.8c-2.5-6-11.8-10.6-12.3-17.2c-0.5-6.4,8-12.3,9.6-18.8s-3.2-15.7,0.2-21.1c3.5-5.6,13.8-5.4,18.8-9.6
				c5-4.2,6.5-14.5,12.5-17c6-2.5,14.3,3.7,20.9,3.2c0.2,0,0.4,0,0.5-0.1c0.1,0.1,0.3,0.2,0.4,0.3c5.6,3.5,15.8,1.7,20,6.7
				c4.2,5,0.8,14.8,3.3,20.8c2.5,6,11.8,10.6,12.3,17.2C474.4,335.5,466,341.4,464.4,347.9z"/>
			<path id="XMLID_4469_" class="st3" d="M459.5,298.3c-5.5,4.7-12.1,5.8-15,2.5c-2.8-3.3-0.7-9.7,4.8-14.4s15-2.5,15-2.5
				S464.9,293.6,459.5,298.3z"/>
			<path id="XMLID_4468_" class="st3" d="M428.6,348.3c-6.8-2.3-11.2-7.5-9.8-11.6c1.4-4.1,8-5.5,14.8-3.2
				c6.8,2.3,9.8,11.6,9.8,11.6S435.4,350.7,428.6,348.3z"/>
			<path id="XMLID_4084_" class="st45" d="M440.6,307.8c3.2,6.4,2.6,13.2-1.3,15.1s-9.6-1.8-12.7-8.2c-3.2-6.4,1.3-15.1,1.3-15.1
				S437.5,301.4,440.6,307.8z"/>
			<path id="XMLID_4467_" class="st52" d="M411,288.7c5,5.1,6.6,11.7,3.5,14.8s-9.7,1.3-14.7-3.9c-5-5.1-3.5-14.8-3.5-14.8
				S406,283.6,411,288.7z"/>
			<path id="XMLID_4466_" class="st52" d="M385.9,326.3c7.2,0,13,3.5,13,7.8s-5.8,7.8-13,7.8s-13-7.8-13-7.8
				S378.7,326.3,385.9,326.3z"/>
			<path id="XMLID_4465_" class="st52" d="M372.4,281.6c4.3,5.7,5.1,12.5,1.7,15.1c-3.4,2.6-9.7,0.1-14.1-5.6
				c-4.3-5.7-1.7-15.1-1.7-15.1S368.1,275.9,372.4,281.6z"/>
			<path id="XMLID_4463_" class="st52" d="M345.2,312.6c7.2-0.1,13.1,3.2,13.2,7.5c0.1,4.3-5.7,7.9-12.9,8.1
				c-7.2,0.1-13.2-7.5-13.2-7.5S338.1,312.7,345.2,312.6z"/>
		</g>
		<path id="XMLID_4847_" class="st322" d="M474.4,389.6c-5.7,9.3-12,18.2-18.8,26.7v0c-2.3,2.9-4.7,5.7-7.1,8.4
			C401.6,478.2,332.8,512,256,512c-63.1,0-120.8-22.8-165.4-60.6C80.3,442.7,70.8,433.2,62,423c-5.4-6.3-10.5-12.8-15.3-19.6
			c-3.7-5.2-7.2-10.6-10.4-16.1c3.7-2.2,7.4-4.4,11.3-6.5c3.2-1.8,6.5-3.5,9.8-5.1c9.8-4.9,20.2-9.4,31.2-13.5
			c1.1-0.4,2.2-0.8,3.3-1.2c3.9-1.4,7.9-2.8,12-4.1c2.9-1,5.9-1.9,8.9-2.8c9.1-2.8,18.6-5.3,28.3-7.5c1.8-0.4,3.6-0.8,5.4-1.2
			c8.9-1.9,18.1-3.6,27.4-5.1c10.4-1.6,21-2.9,31.9-3.9c15.6-1.4,31.6-2.1,47.9-2.1c26.4,0,51.9,1.9,76.2,5.5
			c4.1,0.6,8.2,1.2,12.2,2c2.5,0.4,5,0.9,7.5,1.4c6.8,1.3,13.5,2.7,20,4.3c2.1,0.5,4.2,1,6.2,1.5c5,1.3,9.9,2.6,14.7,4
			c5.5,1.6,10.8,3.3,16.1,5.1c15.7,5.3,30.4,11.4,44,18.2C458.9,380.3,466.9,384.8,474.4,389.6z"/>
		<path id="XMLID_520_" class="st323" d="M448.6,424.7c-9.5,10.8-19.8,20.8-30.9,29.9C373.6,490.5,317.3,512,256,512
			c-62,0-118.9-22-163.2-58.7c-0.8-0.6-1.5-1.2-2.2-1.9C80.3,442.7,70.8,433.2,62,423c13.5-6.5,28.1-12.2,43.6-17.2
			c4.2-1.4,8.4-2.6,12.8-3.9c13.6-3.9,27.8-7.2,42.6-9.9c7.8-1.4,15.7-2.7,23.7-3.7c17.8-2.4,36.2-3.8,55.2-4.3
			c4.5-0.1,9.1-0.2,13.7-0.2c9.5,0,19,0.2,28.3,0.8c59.1,3.1,113,15.9,156.5,35.4C441.8,421.4,445.2,423,448.6,424.7z"/>
		<path id="XMLID_521_" class="st324" d="M417.6,454.5C373.6,490.5,317.3,512,256,512c-62,0-118.9-22-163.2-58.7
			c4.2-1.5,8.4-3,12.7-4.4c4.2-1.4,8.4-2.7,12.8-3.9c13.6-3.9,27.8-7.2,42.6-9.9c7.8-1.4,15.7-2.7,23.7-3.7
			c17.8-2.4,36.2-3.8,55.2-4.3c4.5-0.1,9.1-0.2,13.7-0.2c9.5,0,19,0.2,28.3,0.8C331.8,430.2,378.2,439.8,417.6,454.5z"/>
		<circle id="XMLID_4459_" class="st29" cx="111.4" cy="330.8" r="7.5"/>
		<circle id="XMLID_4370_" class="st29" cx="163.5" cy="327.9" r="7.5"/>
		<circle id="XMLID_2567_" class="st29" cx="128.4" cy="304.9" r="7.5"/>
		<circle id="XMLID_2411_" class="st22" cx="73.1" cy="343.2" r="7.5"/>
		<circle id="XMLID_2379_" class="st22" cx="80.6" cy="294.8" r="7.5"/>
		<circle id="XMLID_2378_" class="st29" cx="412.8" cy="331.7" r="7.5"/>
		<circle id="XMLID_2099_" class="st29" cx="456" cy="328.5" r="7.5"/>
		<circle id="XMLID_2370_" class="st29" cx="441" cy="357.5" r="7.5"/>
		<circle id="XMLID_2377_" class="st29" cx="361.6" cy="321.2" r="7.5"/>
		<circle id="XMLID_2376_" class="st29" cx="399.7" cy="303.6" r="7.5"/>
		<ellipse id="XMLID_2375_" class="st2" cx="132.8" cy="357.5" rx="20.6" ry="16.3"/>
		<ellipse id="XMLID_2374_" class="st2" cx="385.9" cy="357" rx="20.6" ry="16.3"/>
		
			<ellipse id="XMLID_2366_" transform="matrix(0.9983 -5.774550e-02 5.774550e-02 0.9983 -19.9635 19.8381)" class="st48" cx="333.3" cy="355.3" rx="21" ry="16.6"/>
		<path id="XMLID_522_" class="st2" d="M320.1,356.6c-0.5-8.5,7.2-16,17.6-17.5c-1.7-0.3-3.5-0.3-5.4-0.2
			c-11.6,0.7-20.5,8.6-20,17.8c0.5,9.2,10.3,16,21.9,15.4c0.8,0,1.6-0.1,2.3-0.2C327.5,370.3,320.5,364.2,320.1,356.6z"/>
		
			<ellipse id="XMLID_1471_" transform="matrix(0.9983 -5.774550e-02 5.774550e-02 0.9983 -21.3153 9.9207)" class="st48" cx="161" cy="373.8" rx="16.4" ry="13"/>
		<path id="XMLID_523_" class="st2" d="M150.6,374.7c-0.4-6.7,5.7-12.6,13.8-13.8c-1.4-0.2-2.8-0.3-4.2-0.2
			c-9.1,0.5-16.1,6.8-15.7,13.9c0.4,7.2,8.1,12.6,17.2,12c0.6,0,1.2-0.1,1.8-0.2C156.5,385.5,151,380.8,150.6,374.7z"/>
		<path id="XMLID_2364_" class="st287" d="M332.4,130.1l25.1,17l7.8,17.7l16.5,2.1l25.8,44.5h-21.7l-24.3-15.1l-26.4-4.1
			c-4.5-0.7-7.5-5.1-6.6-9.6l3.8-17.7V130.1z"/>
	</g>
</g>
</svg>
