<?xml version="1.0" encoding="utf-8"?>
<!-- Generator: Adobe Illustrator 22.0.1, SVG Export Plug-In . SVG Version: 6.00 Build 0)  -->
<svg version="1.1" xmlns="http://www.w3.org/2000/svg" xmlns:xlink="http://www.w3.org/1999/xlink" x="0px" y="0px"
	 viewBox="0 0 512 512" style="enable-background:new 0 0 512 512;" xml:space="preserve">
<style type="text/css">
	.st0{fill:#4B71B4;}
	.st1{fill:#80B4E8;}
	.st2{fill:#594144;}
	.st3{fill:#B8E876;}
	.st4{fill:#E09122;}
	.st5{fill:#FBF355;}
	.st6{fill:#EEC82F;}
	.st7{fill:#CEA628;}
	.st8{fill:#9BC9EF;}
	.st9{fill:#9DD055;}
	.st10{fill:#5686C5;}
	.st11{fill:#3B5880;}
	.st12{fill:#C2E5FB;}
	.st13{fill:#446697;}
	.st14{fill:#D1F1A0;}
	.st15{fill:#ABD170;}
	.st16{fill:#9DBD6A;}
	.st17{fill:#649D53;}
	.st18{fill:#72B35D;}
	.st19{fill:#ABD68D;}
	.st20{fill:#7FB358;}
	.st21{fill:#920C50;}
	.st22{fill:#C60053;}
	.st23{fill:#530730;}
	.st24{fill:#600332;}
	.st25{fill:#D5AC2A;}
	.st26{fill:#EFD776;}
	.st27{fill:#A7C76D;}
	.st28{fill:#A43749;}
	.st29{fill:#DC4355;}
	.st30{fill:#E18696;}
	.st31{fill:#77A255;}
	.st32{fill:#628547;}
	.st33{fill:#6E994D;}
	.st34{fill:none;stroke:#54743C;stroke-width:8;stroke-linecap:round;stroke-miterlimit:10;}
	.st35{fill:#9BCF75;}
	.st36{fill:#CA8F80;}
	.st37{fill:#E6B8AB;}
	.st38{fill:#E2A18B;}
	.st39{fill:#8E3F2B;}
	.st40{fill:#D89988;}
	.st41{fill:#CFCFCF;}
	.st42{fill:#A64B2D;}
	.st43{fill:#FFFFFF;}
	.st44{fill:#CA801F;}
	.st45{fill:#719C50;}
	.st46{fill:#85B7E5;}
	.st47{fill:#4F7BA9;}
	.st48{fill:#674C50;}
	.st49{fill:#BAD7ED;}
	.st50{fill:#63494D;}
	.st51{fill:#503D3F;}
	.st52{fill:#638547;}
	.st53{fill:#56713E;}
	.st54{fill:#BB5135;}
	.st55{fill:#93C4EC;}
	.st56{fill:#CA8121;}
	.st57{fill:#FDFCFC;}
	.st58{fill:#A83A4F;}
	.st59{fill:#BD5E44;}
	.st60{fill:#688C4A;}
	.st61{fill:#7DA55A;}
	.st62{fill:#90BA51;}
	.st63{fill:none;}
	.st64{fill:#ABC287;}
	.st65{fill:#BDD993;}
	.st66{fill:none;stroke:#534046;stroke-width:15;stroke-linecap:round;stroke-linejoin:round;stroke-miterlimit:10;}
	.st67{fill:#413133;}
	.st68{fill:#34292B;}
	.st69{fill:#644B50;}
	.st70{fill:#CDACB7;}
	.st71{fill:#A83A4D;}
	.st72{fill:#413335;}
	.st73{fill:#DC6579;}
	.st74{fill:#4C393C;}
	.st75{fill:#527FAE;}
	.st76{fill:#92C2EA;}
	.st77{fill:#5B8C4A;}
	.st78{fill:#729C51;}
	.st79{fill:#AADB5E;}
	.st80{fill:#D66C53;}
	.st81{fill:#A65340;}
	.st82{fill:#B8594A;}
	.st83{fill:#79A754;}
	.st84{fill:#4E3B3E;}
	.st85{fill:#5E4649;}
	.st86{fill:#604A50;}
	.st87{fill:#685258;}
	.st88{fill:#765E66;}
	.st89{fill:#FCF69A;}
	.st90{fill:#D3CC84;}
	.st91{fill:#E6A572;}
	.st92{fill:#74A151;}
	.st93{fill:#6F994F;}
	.st94{fill:#CC6D7D;}
	.st95{fill:#AD6576;}
	.st96{fill:#95422D;}
	.st97{fill:#BE6850;}
	.st98{fill:#3B2F32;}
	.st99{fill:none;stroke:#46383B;stroke-width:15;stroke-linecap:round;stroke-miterlimit:10;}
	.st100{fill:none;stroke:#3B2F32;stroke-width:15;stroke-linecap:round;stroke-miterlimit:10;}
	.st101{fill:#D6CF77;}
	.st102{fill:#F5EF82;}
	.st103{fill:#4A383B;}
	.st104{fill:#CACACA;}
	.st105{fill:#48373A;}
	.st106{fill:#7AA8D2;}
	.st107{fill:#6E9150;}
	.st108{fill:#587441;}
	.st109{fill:#D76E51;}
	.st110{fill:#CCC475;}
	.st111{fill:#DDD57E;}
	.st112{fill:#F8F19C;}
	.st113{fill:#FBF58A;}
	.st114{fill:#C67F20;}
	.st115{fill:#AB6B1C;}
	.st116{fill:#C98020;}
	.st117{fill:#D99A41;}
	.st118{fill:#DBA35B;}
	.st119{fill:#9B5F1B;}
	.st120{fill:#97CF6D;}
	.st121{fill:#5380B1;}
	.st122{fill:#96D16A;}
	.st123{fill:#92BD50;}
	.st124{fill:#7EB058;}
	.st125{fill:#709A50;}
	.st126{fill:#5A8A4A;}
	.st127{fill:#D9D9D9;}
	.st128{fill:#75A3CD;}
	.st129{fill:#6E974F;}
	.st130{fill:#CA6D7D;}
	.st131{fill:#AB6576;}
	.st132{fill:#93422D;}
	.st133{fill:#A44B2D;}
	.st134{fill:#BC6850;}
	.st135{fill:#DFB52B;}
	.st136{fill:#4C3A3C;}
	.st137{fill:#473538;}
	.st138{fill:#382B2E;}
	.st139{fill:none;stroke:#FFFFFF;stroke-width:8;stroke-linecap:round;stroke-miterlimit:10;}
	.st140{fill:#90C0E8;}
	.st141{fill:none;stroke:#E09122;stroke-width:12;stroke-linecap:round;stroke-miterlimit:10;}
	.st142{fill:#DCAE2B;}
	.st143{fill:#F0D05A;}
	.st144{fill:#729E51;}
	.st145{fill:#E4BA36;}
	.st146{fill:#F8F283;}
	.st147{fill:#E4B6A9;}
	.st148{fill:#D78E30;}
	.st149{fill:#598A49;}
	.st150{fill:#B65339;}
	.st151{fill:#BA751F;}
	.st152{fill:#466A9F;}
	.st153{fill:#8BB34D;}
	.st154{fill:#9BCE54;}
	.st155{fill:#7F9F49;}
	.st156{fill:#D37F6D;}
	.st157{fill:#BB5E44;}
	.st158{fill:#93BB55;}
	.st159{fill:#B3E665;}
	.st160{fill:none;stroke:#4C393C;stroke-width:8;stroke-miterlimit:10;}
	.st161{fill:#97432D;}
	.st162{fill:#DAB12A;}
	.st163{fill:#5E914C;}
	.st164{fill:#5381B3;}
	.st165{fill:#6A8F4C;}
	.st166{fill:#628047;}
	.st167{fill:#E29D37;}
	.st168{fill:#6E555B;}
	.st169{fill:#91CA67;}
	.st170{fill:#476BA1;}
	.st171{fill:#6699D9;}
	.st172{fill:#503C3E;}
	.st173{fill:#413235;}
	.st174{fill:#CC916A;}
	.st175{fill:#BA8363;}
	.st176{fill:#D09571;}
	.st177{fill:#C98F68;}
	.st178{fill:#AA3B4D;}
	.st179{fill:#DA6075;}
	.st180{fill:#92452D;}
	.st181{fill:#A24B2D;}
	.st182{fill:#B76252;}
	.st183{fill:#87BD60;}
	.st184{fill:#78A7D2;}
	.st185{fill:#F9F38F;}
	.st186{fill:#E0D650;}
	.st187{fill:#AFE086;}
	.st188{fill:#9FD476;}
	.st189{fill:#9DD176;}
	.st190{fill:#8FC468;}
	.st191{fill:#7EAE58;}
	.st192{fill:#6F9850;}
	.st193{fill:#59884A;}
	.st194{fill:#638347;}
	.st195{fill:#B95135;}
	.st196{fill:#E5AB62;}
	.st197{fill:#733228;}
	.st198{fill:#803728;}
	.st199{fill:#6D974D;}
	.st200{fill:#99CD75;}
	.st201{fill:#93412C;}
	.st202{fill:#93C2EA;}
	.st203{fill:#CD926B;}
	.st204{fill:#E6AF8A;}
	.st205{fill:#E5DB4E;}
	.st206{fill:#FBF375;}
	.st207{fill:#779E54;}
	.st208{fill:#D3966D;}
	.st209{fill:#DA4355;}
	.st210{fill:#A83B4D;}
	.st211{fill:none;stroke:#594144;stroke-width:8;stroke-linecap:round;stroke-miterlimit:10;}
	.st212{fill:#E5A855;}
	.st213{fill:#EAC291;}
	.st214{fill:#96C252;}
	.st215{fill:#695055;}
	.st216{fill:#DC9C42;}
	.st217{fill:#8E5C1B;}
	.st218{fill:#F4EB6A;}
	.st219{fill:#CBC049;}
	.st220{fill:none;stroke:#B8E876;stroke-width:15;stroke-linecap:round;stroke-miterlimit:10;}
	.st221{fill:#A36A1C;}
	.st222{fill:#ECC94A;}
	.st223{fill:#91BEDA;}
	.st224{fill:#3D2F32;}
	.st225{fill:#A6394C;}
	.st226{fill:#33292B;}
	.st227{fill:#4F3D42;}
	.st228{fill:#638147;}
	.st229{fill:#CD8321;}
	.st230{fill:#D3CA4A;}
	.st231{fill:#E2A550;}
	.st232{fill:#B75135;}
	.st233{fill:#D4CD77;}
	.st234{fill:#F3EC80;}
	.st235{fill:#46383B;}
	.st236{fill:#82AA61;}
	.st237{fill:#8EBF69;}
	.st238{fill:#3C2E31;}
	.st239{fill:#C49F27;}
	.st240{fill:#D2BF7C;}
	.st241{fill:#F6E18D;}
	.st242{fill:#D6D6D6;}
	.st243{fill:#B5D7F2;}
	.st244{fill:#F1D467;}
	.st245{fill:#739FBD;}
	.st246{fill:#D0946C;}
	.st247{fill:#BE8767;}
	.st248{fill:#D0A829;}
	.st249{fill:#F6DF86;}
	.st250{fill:#EABA8D;}
	.st251{fill:#F0D1B8;}
	.st252{fill:#A5D0F1;}
	.st253{fill:#E3A13F;}
	.st254{fill:#F0FAFF;}
	.st255{fill:#B4D3E3;}
	.st256{fill:#80A5C3;}
	.st257{fill:#87AFD5;}
	.st258{fill:#B1D1E7;}
	.st259{fill:#AED66F;}
	.st260{fill:#91AA61;}
	.st261{fill:#A8384B;}
	.st262{fill:#CD8120;}
	.st263{fill:#E6AD56;}
	.st264{fill:none;stroke:#E6AD56;stroke-width:8;stroke-linecap:round;stroke-miterlimit:10;}
	.st265{fill:#9EBD68;}
	.st266{fill:#AAD16E;}
	.st267{fill:#86656B;}
	.st268{fill:#6D954D;}
	.st269{fill:#98CB75;}
	.st270{fill:#75A251;}
	.st271{fill:#91BD4F;}
	.st272{fill:none;stroke:#B8E078;stroke-width:8;stroke-linecap:round;stroke-miterlimit:10;}
	.st273{fill:none;stroke:#B8E078;stroke-width:8;stroke-linecap:round;stroke-linejoin:round;stroke-miterlimit:10;}
	.st274{fill:#8FBA4E;}
	.st275{fill:#B3E860;}
	.st276{fill:#E7A748;}
	.st277{fill:none;stroke:#B6E676;stroke-width:15;stroke-linecap:round;stroke-miterlimit:10;}
	.st278{fill:#639B53;}
	.st279{fill:#476B9F;}
	.st280{fill:#82B1DE;}
	.st281{fill:#A6533F;}
	.st282{fill:#C28A69;}
	.st283{fill:#64494E;}
	.st284{fill:#77565C;}
	.st285{fill:#4F3C40;}
	.st286{fill:#ECCCB1;}
	.st287{fill:#BF6F5C;}
	.st288{fill:none;stroke:#D4F1A7;stroke-width:10;stroke-linecap:round;stroke-miterlimit:10;}
	.st289{fill:none;stroke:#B8E876;stroke-width:10;stroke-linecap:round;stroke-miterlimit:10;}
	.st290{fill:#47688F;}
	.st291{fill:#3F5B78;}
	.st292{fill:#354E6C;}
	.st293{fill:#DAB12B;}
	.st294{fill:#C8A028;}
	.st295{fill:#F0D15C;}
	.st296{fill:#F8F28B;}
	.st297{fill:#F7F18D;}
	.st298{fill:#DED450;}
	.st299{fill:#F9F155;}
	.st300{fill:#A2CFF4;}
	.st301{fill:none;stroke:#594144;stroke-width:10;stroke-linecap:round;stroke-miterlimit:10;}
	.st302{fill:#F5F0AB;}
	.st303{fill:#496DA1;}
	.st304{fill:#5A85C7;}
	.st305{fill:#D7D7D7;}
	.st306{fill:#ADD3E6;}
	.st307{fill:#98B8C3;}
	.st308{fill:#CDCECF;}
	.st309{fill:#BF4F69;}
	.st310{fill:#A83448;}
	.st311{fill:#A4DAF7;}
	.st312{fill:#81A861;}
	.st313{fill:#82A549;}
	.st314{fill:#B6E676;}
	.st315{fill:#8CBD69;}
	.st316{fill:#ECC62F;}
	.st317{fill:#F4EA80;}
	.st318{fill:#D6AD2B;}
	.st319{fill:#6F9151;}
	.st320{fill:#46699C;}
	.st321{fill:#4A373A;}
	.st322{fill:#89B04C;}
	.st323{fill:#99CC53;}
	.st324{fill:#B1E465;}
	.st325{fill:#E19E3B;}
	.st326{fill:#C05970;}
	.st327{fill:#D95F74;}
	.st328{fill:#74A8DE;}
	.st329{fill:#C47C1E;}
	.st330{fill:#719A51;}
	.st331{fill:#A8D95E;}
	.st332{fill:#D46C53;}
	.st333{fill:#A45340;}
	.st334{fill:#B6594A;}
	.st335{fill:#79A554;}
	.st336{fill:#B6DAF7;}
	.st337{fill:#739F51;}
	.st338{fill:#DDB32B;}
	.st339{fill:#DE8F22;}
	.st340{fill:none;stroke:#46383B;stroke-width:8;stroke-linecap:round;stroke-miterlimit:10;}
	.st341{fill:none;stroke:#3B2F32;stroke-width:8;stroke-linecap:round;stroke-miterlimit:10;}
	.st342{fill:#C8C8C8;}
	.st343{fill:#7F9D49;}
	.st344{fill:#BA5E44;}
	.st345{fill:#92B955;}
	.st346{fill:#D17F6D;}
	.st347{fill:#5D8F4C;}
	.st348{fill:#B75334;}
	.st349{fill:#CA6D57;}
	.st350{fill:#A4574D;}
	.st351{fill:#7FB1E6;}
	.st352{fill:#77A3CD;}
	.st353{fill:#90BA4F;}
	.st354{fill:#5C8F4B;}
	.st355{fill:#ACDE5D;}
	.st356{fill:#6FAC5A;}
	.st357{fill:none;stroke:#9DD055;stroke-width:10;stroke-linecap:round;stroke-miterlimit:10;}
	.st358{fill:#AD5643;}
	.st359{fill:#B96052;}
	.st360{fill:#CB8D84;}
	.st361{fill:#CC6C56;}
	.st362{fill:#DE9A8E;}
	.st363{fill:#D37B6A;}
	.st364{fill:#A87758;}
	.st365{fill:#372A2C;}
	.st366{fill:#B8815C;}
	.st367{fill:#433335;}
	.st368{fill:#2C2325;}
	.st369{fill:#95402B;}
	.st370{fill:#A85441;}
	.st371{fill:#D2C74B;}
	.st372{fill:#B25945;}
	.st373{fill:none;stroke:#594144;stroke-width:15;stroke-linecap:round;stroke-miterlimit:10;}
	.st374{fill:none;stroke:#594144;stroke-width:12;stroke-linecap:round;stroke-miterlimit:10;}
	.st375{fill:#8F473B;}
	.st376{fill:#453538;}
	.st377{fill:#517DAB;}
	.st378{fill:#75A050;}
	.st379{fill:#A5384D;}
	.st380{fill:#CC6075;}
	.st381{fill:#F26B7F;}
	.st382{fill:#C67189;}
	.st383{fill:#B26980;}
	.st384{fill:#D87990;}
	.st385{fill:#F2869B;}
	.st386{fill:#EF8499;}
	.st387{fill:#649CD7;}
	.st388{fill:#639CDB;}
	.st389{fill:#C8ED8D;}
	.st390{fill:#A9DB83;}
	.st391{fill:#9BCF76;}
	.st392{fill:#7EAC58;}
	.st393{fill:#8CC463;}
	.st394{fill:#7FAC5B;}
	.st395{fill:#769C55;}
	.st396{fill:#6A894D;}
	.st397{fill:#769B56;}
	.st398{fill:#9BCC75;}
	.st399{fill:#AF5641;}
	.st400{fill:#F4D576;}
	.st401{fill:#76A055;}
	.st402{fill:#628347;}
	.st403{fill:#4F7B9F;}
	.st404{fill:#466D86;}
	.st405{fill:#4D789C;}
</style>
<g id="BULINE">
	<circle id="XMLID_3096_" class="st0" cx="256" cy="256" r="256"/>
</g>
<g id="Icons">
	<g id="XMLID_4564_">
		<circle id="XMLID_4592_" class="st1" cx="248.3" cy="261.1" r="199.6"/>
		<path id="XMLID_4587_" class="st43" d="M330.1,160.1c-4.3-2.5-9.1-4.2-14.4-4.6c-1-0.1-2-0.1-3-0.1c-4.1,0-8,0.8-11.6,2.1
			c-0.5-3.1-1.4-6.1-2.5-8.9c-5.7-15.1-18.5-26.6-34.4-30.5c-3.8-1-7.9-1.5-12-1.5h-0.3c-1.4-10.7-7.8-19.8-16.7-25
			c-5-2.9-10.7-4.5-16.9-4.5c-2.1,0-4.1,0.2-6.1,0.6c-0.3-6.2-2.7-11.9-6.4-16.3c-5-6-12.6-9.8-21-9.8c-11.7,0-21.7,7.3-25.7,17.7
			c-1.1,2.9-1.7,6-1.8,9.3c-0.3-0.4-0.7-0.8-1-1.1c-5.5-5.7-13.2-9.3-21.8-9.3c-7.4,0-14.1,2.6-19.3,7c-6.7,5.6-10.9,13.9-10.9,23.3
			c0,0.4,0,0.7,0,1.1c-2.7-1.1-5.7-1.7-8.9-1.7c-10.5,0-19.4,6.9-22.5,16.4c-27.2,0.2-49.2,22.3-49.2,49.6c0,6.3,1.2,12.3,3.3,17.8
			c7.2,18.6,25.2,31.8,46.3,31.8h239.4c1,0,2,0,3-0.1c11-1,20.4-7.1,25.9-16c3.2-5.2,5-11.2,5-17.8C346.6,176.9,340,166,330.1,160.1
			z M203.4,178.6c0.2-0.2,0.4-0.4,0.6-0.6c0,0.2,0.1,0.4,0.1,0.6H203.4z"/>
		<g id="XMLID_4583_">
			<path id="XMLID_4586_" class="st297" d="M182.1,190.4c0,17.4-26.6,38.7-21.5,54.4c5.3,16.2,39.5,17.8,49.4,31.3
				c9.9,13.6,0.9,46.7,14.6,56.6c13.5,9.8,42.1-8.9,58.3-3.6c15.7,5.1,27.7,37.2,45.1,37.2c17.4,0,29.4-32.1,45.1-37.2
				c16.2-5.3,44.8,13.4,58.3,3.6c13.6-9.9,4.6-43,14.6-56.6c9.8-13.5,44.1-15.1,49.4-31.3c5.1-15.7-21.5-37-21.5-54.4
				c0-17.4,26.6-38.7,21.5-54.4c-5.3-16.2-39.5-17.8-49.4-31.3C436,91,445,58,431.4,48c-13.5-9.8-42.1,8.9-58.3,3.6
				c-15.7-5.1-27.7-37.2-45.1-37.2c-17.4,0-29.4,32.1-45.1,37.2c-16.2,5.3-44.8-13.4-58.3-3.6c-13.6,9.9-4.6,43-14.6,56.6
				c-9.8,13.5-44.1,15.1-49.4,31.3C155.5,151.7,182.1,173,182.1,190.4z"/>
			<path id="XMLID_4585_" class="st298" d="M436.6,195.2c0,49.7-33.4,91.6-78.9,104.5c-9.4,2.7-19.4,4.1-29.7,4.1
				c-60,0-108.6-48.6-108.6-108.6c0-60,48.6-108.6,108.6-108.6c10.3,0,20.3,1.4,29.7,4.1C403.2,103.6,436.6,145.5,436.6,195.2z"/>
			<path id="XMLID_4584_" class="st299" d="M436.6,195.2c0,40-21.6,75-53.9,93.8c-7.8,4.6-16.2,8.2-25.1,10.7
				c-45.6-12.9-78.9-54.8-78.9-104.5c0-49.7,33.4-91.6,78.9-104.5c36.6,10.4,65.4,39.5,75.2,76.4C435.3,176,436.6,185.4,436.6,195.2
				z"/>
		</g>
		<path id="XMLID_4579_" class="st300" d="M427.4,358.2c-5.3-3.2-11.3-5.2-17.8-5.7c-1.2-0.1-2.5-0.2-3.7-0.2
			c-5.1,0-9.9,0.9-14.4,2.6c-0.7-3.8-1.7-7.5-3.1-11c-7.1-18.6-22.9-32.9-42.5-37.8c-4.7-1.2-9.7-1.8-14.8-1.8h-0.4
			c-1.8-13.2-9.6-24.5-20.7-30.9c-6.1-3.5-13.3-5.6-20.9-5.6c-2.6,0-5.1,0.3-7.6,0.7c-0.4-7.7-3.3-14.7-7.9-20.2
			c-6.2-7.4-15.5-12.1-25.9-12.1c-14.5,0-26.8,9.1-31.7,21.8c-1.4,3.6-2.1,7.4-2.2,11.5c-0.4-0.5-0.8-0.9-1.3-1.4
			c-6.8-7.1-16.3-11.5-26.9-11.5c-9.1,0-17.4,3.2-23.9,8.6c-8.2,6.9-13.5,17.2-13.5,28.7c0,0.4,0,0.9,0.1,1.3
			c-3.4-1.4-7.1-2.1-11-2.1c-13,0-24,8.5-27.8,20.2c-33.6,0.3-60.8,27.6-60.8,61.3c0,7.8,1.4,15.2,4.1,22
			c8.9,23,31.2,39.3,57.3,39.3h295.8c1.3,0,2.5-0.1,3.7-0.2c13.5-1.2,25.3-8.8,32-19.8c3.9-6.4,6.2-13.9,6.2-22
			C447.9,378.9,439.6,365.5,427.4,358.2z M270.8,381c0.3-0.3,0.5-0.5,0.8-0.8c0.1,0.2,0.1,0.5,0.2,0.8H270.8z"/>
		<path id="XMLID_4575_" class="st12" d="M409.6,396.5c-1.2-0.1-2.5-0.2-3.7-0.2c-5.1,0-9.9,0.9-14.4,2.6
			c-2.3-12.9-8.6-24.5-17.6-33.2c-9.8-9.5-22.8-15.8-37.2-17.1c-1.8-0.2-3.7-0.3-5.5-0.3c-0.1,0-0.3,0-0.4,0
			c-2.4-18.1-16.2-32.5-34.1-35.7c-2.4-0.4-4.9-0.7-7.5-0.7c-2.6,0-5.1,0.3-7.6,0.7c-0.7-13.7-9.5-25.2-21.7-30
			c-3.8-1.5-7.9-2.3-12.2-2.3c-18.5,0-33.6,14.9-33.9,33.3c-3-3.4-6.6-6.3-10.7-8.5c-5.2-2.8-11.2-4.4-17.5-4.4
			c-16.8,0-31,11.1-35.7,26.3c-1.1,3.5-1.7,7.2-1.7,11.1c0,0.4,0,0.9,0.1,1.3c-3.4-1.4-7.1-2.1-11-2.1c-13,0-24,8.5-27.8,20.2
			c-25.9,0.2-48,16.5-56.8,39.3c8.9,23,31.2,39.3,57.3,39.3h295.8c1.3,0,2.5-0.1,3.7-0.2c13.5-1.2,25.3-8.8,32-19.8
			C434.9,405.2,423.1,397.6,409.6,396.5z M270.8,425c0.3-0.3,0.5-0.5,0.8-0.8c0.1,0.3,0.1,0.5,0.2,0.8H270.8z"/>
		<g id="XMLID_4572_">
			<path id="XMLID_4574_" class="st301" d="M130.9,173.4c-8-8-21-8-29.1,0"/>
			<path id="XMLID_4573_" class="st301" d="M159.9,173.4c-8-8-21-8-29.1,0"/>
		</g>
		<g id="XMLID_4569_">
			<path id="XMLID_4571_" class="st301" d="M52.8,262.1c-10.8-3.5-22.4,2.5-25.8,13.3"/>
			<path id="XMLID_4570_" class="st301" d="M78.6,248.8c-10.8-3.5-22.4,2.5-25.8,13.3"/>
		</g>
		<g id="XMLID_4566_">
			<path id="XMLID_4568_" class="st301" d="M203.8,369.4c-11.4-9.5-28.3-8.1-37.9,3.3"/>
			<path id="XMLID_4567_" class="st301" d="M241.7,366.1c-11.4-9.5-28.3-8.1-37.9,3.3"/>
		</g>
		<path id="XMLID_4565_" class="st302" d="M436.6,195.2c0,40-21.6,75-53.9,93.8c-6.9-12.2-10.8-26.2-10.8-41.1
			c0-38.4,25.8-70.8,60.9-80.8C435.3,176,436.6,185.4,436.6,195.2z"/>
	</g>
</g>
</svg>
