<?xml version="1.0" encoding="utf-8"?>
<!-- Generator: Adobe Illustrator 22.0.1, SVG Export Plug-In . SVG Version: 6.00 Build 0)  -->
<svg version="1.1" xmlns="http://www.w3.org/2000/svg" xmlns:xlink="http://www.w3.org/1999/xlink" x="0px" y="0px"
	 viewBox="0 0 512 512" style="enable-background:new 0 0 512 512;" xml:space="preserve">
<style type="text/css">
	.st0{fill:#4B71B4;}
	.st1{fill:#80B4E8;}
	.st2{fill:#594144;}
	.st3{fill:#B8E876;}
	.st4{fill:#E09122;}
	.st5{fill:#FBF355;}
	.st6{fill:#EEC82F;}
	.st7{fill:#CEA628;}
	.st8{fill:#9BC9EF;}
	.st9{fill:#9DD055;}
	.st10{fill:#5686C5;}
	.st11{fill:#3B5880;}
	.st12{fill:#C2E5FB;}
	.st13{fill:#446697;}
	.st14{fill:#D1F1A0;}
	.st15{fill:#ABD170;}
	.st16{fill:#9DBD6A;}
	.st17{fill:#649D53;}
	.st18{fill:#72B35D;}
	.st19{fill:#ABD68D;}
	.st20{fill:#7FB358;}
	.st21{fill:#920C50;}
	.st22{fill:#C60053;}
	.st23{fill:#530730;}
	.st24{fill:#600332;}
	.st25{fill:#D5AC2A;}
	.st26{fill:#EFD776;}
	.st27{fill:#A7C76D;}
	.st28{fill:#A43749;}
	.st29{fill:#DC4355;}
	.st30{fill:#E18696;}
	.st31{fill:#77A255;}
	.st32{fill:#628547;}
	.st33{fill:#6E994D;}
	.st34{fill:none;stroke:#54743C;stroke-width:8;stroke-linecap:round;stroke-miterlimit:10;}
	.st35{fill:#9BCF75;}
	.st36{fill:#CA8F80;}
	.st37{fill:#E6B8AB;}
	.st38{fill:#E2A18B;}
	.st39{fill:#8E3F2B;}
	.st40{fill:#D89988;}
	.st41{fill:#CFCFCF;}
	.st42{fill:#A64B2D;}
	.st43{fill:#FFFFFF;}
	.st44{fill:#CA801F;}
	.st45{fill:#719C50;}
	.st46{fill:#85B7E5;}
	.st47{fill:#4F7BA9;}
	.st48{fill:#674C50;}
	.st49{fill:#BAD7ED;}
	.st50{fill:#63494D;}
	.st51{fill:#503D3F;}
	.st52{fill:#638547;}
	.st53{fill:#56713E;}
	.st54{fill:#BB5135;}
	.st55{fill:#93C4EC;}
	.st56{fill:#CA8121;}
	.st57{fill:#FDFCFC;}
	.st58{fill:#A83A4F;}
	.st59{fill:#BD5E44;}
	.st60{fill:#688C4A;}
	.st61{fill:#7DA55A;}
	.st62{fill:#90BA51;}
	.st63{fill:none;}
	.st64{fill:#ABC287;}
	.st65{fill:#BDD993;}
	.st66{fill:none;stroke:#534046;stroke-width:15;stroke-linecap:round;stroke-linejoin:round;stroke-miterlimit:10;}
	.st67{fill:#413133;}
	.st68{fill:#34292B;}
	.st69{fill:#644B50;}
	.st70{fill:#CDACB7;}
	.st71{fill:#A83A4D;}
	.st72{fill:#413335;}
	.st73{fill:#DC6579;}
	.st74{fill:#4C393C;}
	.st75{fill:#527FAE;}
	.st76{fill:#92C2EA;}
	.st77{fill:#5B8C4A;}
	.st78{fill:#729C51;}
	.st79{fill:#AADB5E;}
	.st80{fill:#D66C53;}
	.st81{fill:#A65340;}
	.st82{fill:#B8594A;}
	.st83{fill:#79A754;}
	.st84{fill:#4E3B3E;}
	.st85{fill:#5E4649;}
	.st86{fill:#604A50;}
	.st87{fill:#685258;}
	.st88{fill:#765E66;}
	.st89{fill:#FCF69A;}
	.st90{fill:#D3CC84;}
	.st91{fill:#E6A572;}
	.st92{fill:#74A151;}
	.st93{fill:#6F994F;}
	.st94{fill:#CC6D7D;}
	.st95{fill:#AD6576;}
	.st96{fill:#95422D;}
	.st97{fill:#BE6850;}
	.st98{fill:#3B2F32;}
	.st99{fill:none;stroke:#46383B;stroke-width:15;stroke-linecap:round;stroke-miterlimit:10;}
	.st100{fill:none;stroke:#3B2F32;stroke-width:15;stroke-linecap:round;stroke-miterlimit:10;}
	.st101{fill:#D6CF77;}
	.st102{fill:#F5EF82;}
	.st103{fill:#4A383B;}
	.st104{fill:#CACACA;}
	.st105{fill:#48373A;}
	.st106{fill:#7AA8D2;}
	.st107{fill:#6E9150;}
	.st108{fill:#587441;}
	.st109{fill:#D76E51;}
	.st110{fill:#CCC475;}
	.st111{fill:#DDD57E;}
	.st112{fill:#F8F19C;}
	.st113{fill:#FBF58A;}
	.st114{fill:#C67F20;}
	.st115{fill:#AB6B1C;}
	.st116{fill:#C98020;}
	.st117{fill:#D99A41;}
	.st118{fill:#DBA35B;}
	.st119{fill:#9B5F1B;}
	.st120{fill:#97CF6D;}
	.st121{fill:#5380B1;}
	.st122{fill:#96D16A;}
	.st123{fill:#92BD50;}
	.st124{fill:#7EB058;}
	.st125{fill:#709A50;}
	.st126{fill:#5A8A4A;}
	.st127{fill:#D9D9D9;}
	.st128{fill:#75A3CD;}
	.st129{fill:#6E974F;}
	.st130{fill:#CA6D7D;}
	.st131{fill:#AB6576;}
	.st132{fill:#93422D;}
	.st133{fill:#A44B2D;}
	.st134{fill:#BC6850;}
	.st135{fill:#DFB52B;}
	.st136{fill:#4C3A3C;}
	.st137{fill:#473538;}
	.st138{fill:#382B2E;}
	.st139{fill:none;stroke:#FFFFFF;stroke-width:8;stroke-linecap:round;stroke-miterlimit:10;}
	.st140{fill:#90C0E8;}
	.st141{fill:none;stroke:#E09122;stroke-width:12;stroke-linecap:round;stroke-miterlimit:10;}
	.st142{fill:#DCAE2B;}
	.st143{fill:#F0D05A;}
	.st144{fill:#729E51;}
	.st145{fill:#E4BA36;}
	.st146{fill:#F8F283;}
	.st147{fill:#E4B6A9;}
	.st148{fill:#D78E30;}
	.st149{fill:#598A49;}
	.st150{fill:#B65339;}
	.st151{fill:#BA751F;}
	.st152{fill:#466A9F;}
	.st153{fill:#8BB34D;}
	.st154{fill:#9BCE54;}
	.st155{fill:#7F9F49;}
	.st156{fill:#D37F6D;}
	.st157{fill:#BB5E44;}
	.st158{fill:#93BB55;}
	.st159{fill:#B3E665;}
	.st160{fill:none;stroke:#4C393C;stroke-width:8;stroke-miterlimit:10;}
	.st161{fill:#97432D;}
	.st162{fill:#DAB12A;}
	.st163{fill:#5E914C;}
	.st164{fill:#5381B3;}
	.st165{fill:#6A8F4C;}
	.st166{fill:#628047;}
	.st167{fill:#E29D37;}
	.st168{fill:#6E555B;}
	.st169{fill:#91CA67;}
	.st170{fill:#476BA1;}
	.st171{fill:#6699D9;}
	.st172{fill:#503C3E;}
	.st173{fill:#413235;}
	.st174{fill:#CC916A;}
	.st175{fill:#BA8363;}
	.st176{fill:#D09571;}
	.st177{fill:#C98F68;}
	.st178{fill:#AA3B4D;}
	.st179{fill:#DA6075;}
	.st180{fill:#92452D;}
	.st181{fill:#A24B2D;}
	.st182{fill:#B76252;}
	.st183{fill:#87BD60;}
	.st184{fill:#78A7D2;}
	.st185{fill:#F9F38F;}
	.st186{fill:#E0D650;}
	.st187{fill:#AFE086;}
	.st188{fill:#9FD476;}
	.st189{fill:#9DD176;}
	.st190{fill:#8FC468;}
	.st191{fill:#7EAE58;}
	.st192{fill:#6F9850;}
	.st193{fill:#59884A;}
	.st194{fill:#638347;}
	.st195{fill:#B95135;}
	.st196{fill:#E5AB62;}
	.st197{fill:#733228;}
	.st198{fill:#803728;}
	.st199{fill:#6D974D;}
	.st200{fill:#99CD75;}
	.st201{fill:#93412C;}
	.st202{fill:#93C2EA;}
	.st203{fill:#CD926B;}
	.st204{fill:#E6AF8A;}
	.st205{fill:#E5DB4E;}
	.st206{fill:#FBF375;}
	.st207{fill:#779E54;}
	.st208{fill:#D3966D;}
	.st209{fill:#DA4355;}
	.st210{fill:#A83B4D;}
	.st211{fill:none;stroke:#594144;stroke-width:8;stroke-linecap:round;stroke-miterlimit:10;}
	.st212{fill:#E5A855;}
	.st213{fill:#EAC291;}
	.st214{fill:#96C252;}
	.st215{fill:#695055;}
	.st216{fill:#DC9C42;}
	.st217{fill:#8E5C1B;}
	.st218{fill:#F4EB6A;}
	.st219{fill:#CBC049;}
	.st220{fill:none;stroke:#B8E876;stroke-width:15;stroke-linecap:round;stroke-miterlimit:10;}
	.st221{fill:#A36A1C;}
	.st222{fill:#ECC94A;}
	.st223{fill:#91BEDA;}
	.st224{fill:#3D2F32;}
	.st225{fill:#A6394C;}
	.st226{fill:#33292B;}
	.st227{fill:#4F3D42;}
	.st228{fill:#638147;}
	.st229{fill:#CD8321;}
	.st230{fill:#D3CA4A;}
	.st231{fill:#E2A550;}
	.st232{fill:#B75135;}
	.st233{fill:#D4CD77;}
	.st234{fill:#F3EC80;}
	.st235{fill:#46383B;}
	.st236{fill:#82AA61;}
	.st237{fill:#8EBF69;}
	.st238{fill:#3C2E31;}
	.st239{fill:#C49F27;}
	.st240{fill:#D2BF7C;}
	.st241{fill:#F6E18D;}
	.st242{fill:#D6D6D6;}
	.st243{fill:#B5D7F2;}
	.st244{fill:#F1D467;}
	.st245{fill:#739FBD;}
	.st246{fill:#D0946C;}
	.st247{fill:#BE8767;}
	.st248{fill:#D0A829;}
	.st249{fill:#F6DF86;}
	.st250{fill:#EABA8D;}
	.st251{fill:#F0D1B8;}
	.st252{fill:#A5D0F1;}
	.st253{fill:#E3A13F;}
	.st254{fill:#F0FAFF;}
	.st255{fill:#B4D3E3;}
	.st256{fill:#80A5C3;}
	.st257{fill:#87AFD5;}
	.st258{fill:#B1D1E7;}
	.st259{fill:#AED66F;}
	.st260{fill:#91AA61;}
	.st261{fill:#A8384B;}
	.st262{fill:#CD8120;}
	.st263{fill:#E6AD56;}
	.st264{fill:none;stroke:#E6AD56;stroke-width:8;stroke-linecap:round;stroke-miterlimit:10;}
	.st265{fill:#9EBD68;}
	.st266{fill:#AAD16E;}
	.st267{fill:#86656B;}
	.st268{fill:#6D954D;}
	.st269{fill:#98CB75;}
	.st270{fill:#75A251;}
	.st271{fill:#91BD4F;}
	.st272{fill:none;stroke:#B8E078;stroke-width:8;stroke-linecap:round;stroke-miterlimit:10;}
	.st273{fill:none;stroke:#B8E078;stroke-width:8;stroke-linecap:round;stroke-linejoin:round;stroke-miterlimit:10;}
	.st274{fill:#8FBA4E;}
	.st275{fill:#B3E860;}
	.st276{fill:#E7A748;}
	.st277{fill:none;stroke:#B6E676;stroke-width:15;stroke-linecap:round;stroke-miterlimit:10;}
	.st278{fill:#639B53;}
	.st279{fill:#476B9F;}
	.st280{fill:#82B1DE;}
	.st281{fill:#A6533F;}
	.st282{fill:#C28A69;}
	.st283{fill:#64494E;}
	.st284{fill:#77565C;}
	.st285{fill:#4F3C40;}
	.st286{fill:#ECCCB1;}
	.st287{fill:#BF6F5C;}
	.st288{fill:none;stroke:#D4F1A7;stroke-width:10;stroke-linecap:round;stroke-miterlimit:10;}
	.st289{fill:none;stroke:#B8E876;stroke-width:10;stroke-linecap:round;stroke-miterlimit:10;}
	.st290{fill:#47688F;}
	.st291{fill:#3F5B78;}
	.st292{fill:#354E6C;}
	.st293{fill:#DAB12B;}
	.st294{fill:#C8A028;}
	.st295{fill:#F0D15C;}
	.st296{fill:#F8F28B;}
	.st297{fill:#F7F18D;}
	.st298{fill:#DED450;}
	.st299{fill:#F9F155;}
	.st300{fill:#A2CFF4;}
	.st301{fill:none;stroke:#594144;stroke-width:10;stroke-linecap:round;stroke-miterlimit:10;}
	.st302{fill:#F5F0AB;}
	.st303{fill:#496DA1;}
	.st304{fill:#5A85C7;}
	.st305{fill:#D7D7D7;}
	.st306{fill:#ADD3E6;}
	.st307{fill:#98B8C3;}
	.st308{fill:#CDCECF;}
	.st309{fill:#BF4F69;}
	.st310{fill:#A83448;}
	.st311{fill:#A4DAF7;}
	.st312{fill:#81A861;}
	.st313{fill:#82A549;}
	.st314{fill:#B6E676;}
	.st315{fill:#8CBD69;}
	.st316{fill:#ECC62F;}
	.st317{fill:#F4EA80;}
	.st318{fill:#D6AD2B;}
	.st319{fill:#6F9151;}
	.st320{fill:#46699C;}
	.st321{fill:#4A373A;}
	.st322{fill:#89B04C;}
	.st323{fill:#99CC53;}
	.st324{fill:#B1E465;}
	.st325{fill:#E19E3B;}
	.st326{fill:#C05970;}
	.st327{fill:#D95F74;}
	.st328{fill:#74A8DE;}
	.st329{fill:#C47C1E;}
	.st330{fill:#719A51;}
	.st331{fill:#A8D95E;}
	.st332{fill:#D46C53;}
	.st333{fill:#A45340;}
	.st334{fill:#B6594A;}
	.st335{fill:#79A554;}
	.st336{fill:#B6DAF7;}
	.st337{fill:#739F51;}
	.st338{fill:#DDB32B;}
	.st339{fill:#DE8F22;}
	.st340{fill:none;stroke:#46383B;stroke-width:8;stroke-linecap:round;stroke-miterlimit:10;}
	.st341{fill:none;stroke:#3B2F32;stroke-width:8;stroke-linecap:round;stroke-miterlimit:10;}
	.st342{fill:#C8C8C8;}
	.st343{fill:#7F9D49;}
	.st344{fill:#BA5E44;}
	.st345{fill:#92B955;}
	.st346{fill:#D17F6D;}
	.st347{fill:#5D8F4C;}
	.st348{fill:#B75334;}
	.st349{fill:#CA6D57;}
	.st350{fill:#A4574D;}
	.st351{fill:#7FB1E6;}
	.st352{fill:#77A3CD;}
	.st353{fill:#90BA4F;}
	.st354{fill:#5C8F4B;}
	.st355{fill:#ACDE5D;}
	.st356{fill:#6FAC5A;}
	.st357{fill:none;stroke:#9DD055;stroke-width:10;stroke-linecap:round;stroke-miterlimit:10;}
	.st358{fill:#AD5643;}
	.st359{fill:#B96052;}
	.st360{fill:#CB8D84;}
	.st361{fill:#CC6C56;}
	.st362{fill:#DE9A8E;}
	.st363{fill:#D37B6A;}
	.st364{fill:#A87758;}
	.st365{fill:#372A2C;}
	.st366{fill:#B8815C;}
	.st367{fill:#433335;}
	.st368{fill:#2C2325;}
	.st369{fill:#95402B;}
	.st370{fill:#A85441;}
	.st371{fill:#D2C74B;}
	.st372{fill:#B25945;}
	.st373{fill:none;stroke:#594144;stroke-width:15;stroke-linecap:round;stroke-miterlimit:10;}
	.st374{fill:none;stroke:#594144;stroke-width:12;stroke-linecap:round;stroke-miterlimit:10;}
	.st375{fill:#8F473B;}
	.st376{fill:#453538;}
	.st377{fill:#517DAB;}
	.st378{fill:#75A050;}
	.st379{fill:#A5384D;}
	.st380{fill:#CC6075;}
	.st381{fill:#F26B7F;}
	.st382{fill:#C67189;}
	.st383{fill:#B26980;}
	.st384{fill:#D87990;}
	.st385{fill:#F2869B;}
	.st386{fill:#EF8499;}
	.st387{fill:#649CD7;}
	.st388{fill:#639CDB;}
	.st389{fill:#C8ED8D;}
	.st390{fill:#A9DB83;}
	.st391{fill:#9BCF76;}
	.st392{fill:#7EAC58;}
	.st393{fill:#8CC463;}
	.st394{fill:#7FAC5B;}
	.st395{fill:#769C55;}
	.st396{fill:#6A894D;}
	.st397{fill:#769B56;}
	.st398{fill:#9BCC75;}
	.st399{fill:#AF5641;}
	.st400{fill:#F4D576;}
	.st401{fill:#76A055;}
	.st402{fill:#628347;}
	.st403{fill:#4F7B9F;}
	.st404{fill:#466D86;}
	.st405{fill:#4D789C;}
</style>
<g id="BULINE">
	<circle id="XMLID_1285_" class="st5" cx="256" cy="256" r="256"/>
</g>
<g id="Icons">
	<path id="XMLID_1796_" class="st120" d="M236.2,498.3c11,1.2,20.9,6.1,28.4,13.6c-2.8,0.1-5.7,0.2-8.6,0.2
		c-17.9,0-35.3-1.8-52.2-5.3c2.5-1.7,5.1-3.2,7.9-4.5c5.9-2.7,12.5-4.2,19.4-4.2C232.8,498,234.5,498.1,236.2,498.3z"/>
	<path id="XMLID_1775_" class="st120" d="M334.9,499.6c-0.8,0.3-1.6,0.5-2.4,0.8c-1,0.3-2,0.6-3,0.9c-0.2,0.1-0.4,0.1-0.6,0.2
		c-1.7,0.5-3.4,1-5.1,1.4c-18.5,5.1-37.7,8.1-57.6,8.9c9.8-12,24.7-19.7,41.4-19.7c1.9,0,3.7,0.1,5.5,0.3c3.7,0.4,7.3,1.1,10.7,2.2
		c2.1,0.7,4.2,1.5,6.2,2.5c0.9,0.4,1.8,0.8,2.6,1.3C333.4,498.7,334.2,499.2,334.9,499.6z"/>
	<g id="XMLID_1735_">
		<circle id="XMLID_1761_" class="st371" cx="261.6" cy="254.2" r="205.4"/>
		<g id="XMLID_1747_">
			<path id="XMLID_1760_" class="st53" d="M236.7,84.6c-1.3,2.1-2.9,4.1-5,5.7c-8.8,6.8-21.5,5.2-28.3-3.6c-0.7-0.9-1.2-1.8-1.7-2.7
				c-5.3,2.8-11.4,3-16.8,0.9c-3.3-1.3-6.3-3.4-8.6-6.4c-6.8-8.8-5.2-21.5,3.6-28.3c2.1-1.7,4.5-2.8,7-3.5
				c-2.9-10.7,0.7-22.6,10.1-29.8c11.3-8.8,27.2-7.6,37.1,2.2c8.5-4.4,19.1-2.2,25.2,5.6c2.3,3,3.7,6.4,4,9.9
				c0.7,5.7-1.2,11.7-5.3,16.1c1.4,1,2.6,2.3,3.7,3.7c6.8,8.8,5.2,21.5-3.6,28.3C251.8,87.6,243.4,88.1,236.7,84.6z"/>
			<path id="XMLID_1759_" class="st194" d="M236.7,84.6c-1.3,2.1-2.9,4.1-5,5.7c-8.8,6.8-21.5,5.2-28.3-3.6
				c-0.7-0.9-1.2-1.8-1.7-2.7c-5.3,2.8-11.4,3-16.8,0.9c-0.8-6.8,1.9-13.8,7.7-18.3c2.1-1.7,4.5-2.8,7-3.5
				c-2.9-10.7,0.7-22.6,10.1-29.8c11.3-8.8,27.2-7.6,37.2,2.2c5.2-2.7,11.3-2.9,16.6-0.8c0.7,5.7-1.2,11.7-5.3,16.1
				c1.4,1,2.6,2.3,3.7,3.7c6.8,8.8,5.2,21.5-3.6,28.3C251.8,87.6,243.4,88.1,236.7,84.6z"/>
			<path id="XMLID_1758_" class="st53" d="M232.6,163.4c-3.1,0.1-6.2-0.4-9.3-1.6c-13-4.9-19.6-19.3-14.8-32.3
				c0.5-1.3,1.1-2.5,1.7-3.6c-6.4-3.7-10.8-10.1-12.1-17.2c-0.8-4.3-0.5-8.9,1.2-13.3c4.9-13,19.4-19.6,32.4-14.8
				c3.2,1.2,6,3,8.3,5.1c9.5-10.1,24.4-14.1,38.2-9c16.8,6.3,25.9,23.8,22.1,40.8c10.2,6.1,14.9,18.8,10.6,30.4
				c-1.7,4.4-4.4,8.1-7.9,10.8c-5.6,4.5-13.1,6.5-20.5,5c-0.2,2.1-0.7,4.3-1.4,6.4c-4.9,13-19.3,19.6-32.3,14.8
				C239.4,181.4,233.4,172.8,232.6,163.4z"/>
			<path id="XMLID_1757_" class="st194" d="M232.6,163.4c-3.1,0.1-6.2-0.4-9.3-1.6c-13-4.9-19.6-19.3-14.8-32.3
				c0.5-1.3,1.1-2.5,1.7-3.6c-6.4-3.7-10.8-10.1-12.1-17.2c6.7-5.3,15.9-7.1,24.5-3.9c3.2,1.2,6,3,8.3,5.1
				c9.5-10.1,24.4-14.1,38.2-9c16.8,6.3,25.9,23.8,22.1,40.8c6.3,3.8,10.5,10,11.8,17c-5.6,4.5-13.1,6.5-20.5,5
				c-0.2,2.1-0.7,4.3-1.4,6.4c-4.9,13-19.3,19.6-32.3,14.8C239.4,181.4,233.4,172.8,232.6,163.4z"/>
			<g id="XMLID_1751_">
				<path id="XMLID_1756_" class="st195" d="M206.9,84c4.4-3.4,5.2-9.6,1.8-14c-3.4-4.4-9.6-5.2-14-1.8l-33.7,26.1l27.3,4.1
					L206.9,84z"/>
				<g id="XMLID_1752_">
					<path id="XMLID_1755_" class="st195" d="M178.8,138.6l-8.7-1.3l0,0l-26.3-4l-12.6-1.9c-14.1-2.1-27.2-8.3-37.8-17.8L63.5,86.8
						L32.7,59.3l-9.7-8.7c1-0.8,1.9-1.7,2.9-2.5l9.4,8.4l31.3,28.1l13.9,12.4c10.6,9.5,23.7,15.7,37.8,17.8l47.6,7.2L178.8,138.6z"
						/>
					<path id="XMLID_1754_" class="st195" d="M263.2,173.4c0.3-5.5-3.9-10.2-9.4-10.6l-5.9-0.4c-2,2.3-4.9,3.7-8.2,3.5l-14.2-0.9
						c-17.4-1.1-33.6-9.6-44.3-23.4l12.9,16.8c10.7,13.8,26.8,22.4,44.3,23.4l14.2,0.9C258.1,183.1,262.8,178.9,263.2,173.4z"/>
					<path id="XMLID_1753_" class="st133" d="M239.7,166l-6.8-0.4l-7.5-0.5c-0.7,0-1.3-0.1-2-0.2c-0.6-0.1-1.2-0.1-1.7-0.2
						c-0.4,0-0.8-0.1-1.2-0.1c-0.5-0.1-1.1-0.2-1.6-0.3c-1.2-0.2-2.3-0.4-3.4-0.7c-0.5-0.1-1-0.2-1.6-0.4c-0.6-0.2-1.2-0.3-1.8-0.5
						c0,0-0.1,0-0.1,0c-0.6-0.2-1.2-0.4-1.8-0.5c-0.6-0.2-1.1-0.4-1.7-0.6c-0.4-0.1-0.8-0.3-1.1-0.4c-0.9-0.4-1.8-0.7-2.7-1.1
						c-0.9-0.4-1.7-0.8-2.6-1.2c-1.4-0.7-2.7-1.4-4-2.2c-0.4-0.3-0.9-0.5-1.3-0.8c-0.4-0.3-0.8-0.5-1.2-0.8
						c-0.4-0.3-0.9-0.6-1.3-0.9c-0.3-0.2-0.6-0.5-0.9-0.7c-0.5-0.3-0.9-0.7-1.4-1c-0.4-0.3-0.8-0.6-1.2-0.9c-0.4-0.3-0.8-0.6-1.1-1
						c-0.4-0.4-0.8-0.7-1.2-1.1c-1.1-1-2.1-1.9-3.1-3c-0.4-0.5-0.9-0.9-1.3-1.4c-0.3-0.4-0.6-0.7-1-1.1c-0.4-0.4-0.7-0.8-1-1.2
						c-0.4-0.4-0.7-0.8-1-1.3l-15.3-19.9l-47.6-7.2c-14.1-2.1-27.2-8.3-37.8-17.8L66.6,84.5L35.3,56.4L25.9,48
						c3.9-3.3,7.9-6.6,12-9.7c2-1.6,4-3.1,6.1-4.6l8.5,7.6l24.5,22l34.2,30.6c6.7,6,15,9.9,24,11.3l9.8,1.5l16-12.4l27.3,4.1
						l-16,12.4l28,4.2l0.3,0l10.8,1.6l2,0.3c2,0.3,3.9,1.1,5.5,2.2c4.1,2.8,6.5,7.8,5.7,13c-0.8,5.3-4.6,9.4-9.4,10.8
						c-1.8,0.5-3.7,0.7-5.7,0.4l-2-0.3l-0.1,0l2.6,3.4c2.7,3.5,5.9,6.5,9.5,8.9c5.9,4,12.9,6.4,20.1,6.8l8.3,0.5
						C245.9,164.8,242.9,166.2,239.7,166z"/>
				</g>
			</g>
			<path id="XMLID_1750_" class="st53" d="M304.3,82.2c-6.7,11.9-18,18.3-25.2,14.3c-7.2-4-7.5-17-0.8-28.9s25.2-14.3,25.2-14.3
				S311,70.2,304.3,82.2z"/>
			<path id="XMLID_1749_" class="st194" d="M211.7,192.7c2.3-13.5,10.7-23.4,18.8-22s12.9,13.4,10.6,26.9c-2.3,13.5-18.8,22-18.8,22
				S209.5,206.2,211.7,192.7z"/>
			<path id="XMLID_1748_" class="st194" d="M159.2,149.2c6.9-11.8,18.3-18,25.4-13.9s7.2,17.1,0.3,28.9s-25.4,13.9-25.4,13.9
				S152.2,161,159.2,149.2z"/>
		</g>
		<g id="XMLID_1743_">
			<path id="XMLID_1812_" class="st78" d="M440.8,433.2c-7.6,7.9-15.8,15.4-24.3,22.3c-10.5,8.4-21.6,16.1-33.4,22.8
				c-3.1-0.8-6-2.2-8.7-3.9c-5.7,5.3-14.5,8-24.4,7.8c-2,0-4.1-0.2-6.2-0.5c-0.2,0-0.5-0.1-0.7-0.1c-2.8-0.4-5.6-1-8.4-1.9
				c-0.7-0.2-1.5-0.5-2.2-0.7c-2-0.7-4-1.4-5.9-2.3c-0.9-0.4-1.8-0.8-2.7-1.3c-7.5-3.8-13.8-8.8-18.4-14.2c-1.5-1.8-2.9-3.7-4-5.5
				c-0.7-1.1-1.3-2.2-1.8-3.3c-3.5-7.3-4.2-14.8-1.2-21.4c2.4-5.4,7-9.4,12.9-11.8c2.3-1,4.8-1.7,7.4-2.2c5-0.9,10.6-1,16.4,0
				c2,0.3,3.9,0.7,5.9,1.2c3.4,0.9,6.9,2.1,10.3,3.6c1.9,0.8,3.7,1.8,5.4,2.7c3.4,1.9,6.6,4.1,9.4,6.5c0.2,0.1,0.3,0.3,0.5,0.4
				c0.4-0.5,0.7-0.9,1.1-1.4c3.7-4.4,8.6-7.7,14.3-9.5c3-0.9,6.2-1.4,9.5-1.4c12.6,0,23.4,7.3,28.2,17.8c3.8-3.2,8.6-5.1,14-5.1
				C436.1,432,438.5,432.4,440.8,433.2z"/>
			<path id="XMLID_1789_" class="st78" d="M250.2,449.3c0,0.6,0,1.2,0,1.7c-0.2,2.8-0.7,5.6-1.7,8.1c-0.2,0.7-0.5,1.3-0.8,2
				c-1.2,2.7-2.8,5.2-4.7,7.5c-5.7,6.6-14.1,10.7-23.6,10.7c-5.4,0-10.5-1.4-14.9-3.8c-0.1,0-0.1-0.1-0.2-0.1
				c-5.6-3.1-10.2-7.9-12.9-13.6c-0.5,0.9-1,1.8-1.6,2.7c0,0.1-0.1,0.1-0.1,0.2c-3.2,4.6-8.3,7.9-14.2,8.8c-1.1,0.2-2.2,0.3-3.4,0.3
				c-6.4,0-12.1-2.7-16-7c-0.4-0.4-0.7-0.8-1.1-1.3c-3,4.6-7.3,8.3-12.3,10.8c-1.5,0.7-3.1,1.4-4.8,1.8c-2.3,0.7-4.6,1.1-7.1,1.2h0
				c-7.7-4.3-15.1-9-22.2-14c-10-7.1-19.5-14.8-28.4-23.2c-3.7-3.5-7.4-7.2-10.9-10.9c-1.8-1.9-3.5-3.8-5.3-5.8
				c-4.2-4.8-8.3-9.7-12.2-14.8c4.2-1.4,8.8-2.4,13.7-2.8c2-0.2,4-0.3,6.1-0.3c4.3,0,8.4,0.4,12.3,1.2c3.9,0.8,7.7,1.9,11.1,3.3
				c6.4,2.7,11.7,6.4,15.4,10.8c0.5,0.5,0.9,1.1,1.3,1.6c0.4-0.3,0.9-0.6,1.4-0.8h0c2.8-1.7,6-2.9,9.4-3.7c2.1-0.5,4.3-0.7,6.6-0.7
				c6.8,0,13.1,2.1,18.2,5.8c4.5,3.2,8.1,7.5,10.2,12.6c1.5-1.4,3.2-2.5,5.1-3.5c2.9-1.4,6.1-2.2,9.6-2.2c7.3,0,13.8,3.6,17.7,9.1
				c3.7-12.6,15.6-21.9,29.7-21.9c5.1,0,9.9,1.2,14.1,3.4C243.5,427.6,250.2,437.7,250.2,449.3z"/>
		</g>
		<g id="XMLID_1739_">
			<path id="XMLID_1804_" class="st124" d="M416.4,455.5c-10.5,8.4-21.6,16.1-33.4,22.8c-0.4,0.2-0.8,0.4-1.1,0.6
				c-13.6,7.7-27.9,14.2-42.8,19.3c-1.4,0.5-2.8,0.9-4.2,1.4c-0.8,0.3-1.6,0.5-2.4,0.8c-1,0.3-2,0.6-3,0.9c-0.2,0.1-0.4,0.1-0.6,0.2
				c-0.8-0.3-1.6-0.7-2.4-1c-0.9-0.4-1.8-0.8-2.7-1.3c-3.9-2-7.5-4.3-10.7-6.8c-1.8-1.4-3.5-2.9-5-4.5c-7.7-7.8-12-17-11.6-25.5
				c0.1-2,0.5-4,1.2-5.9c0.2-0.6,0.4-1.1,0.7-1.7c0.4-0.8,0.8-1.6,1.2-2.4c3.6-5.9,10-9.7,17.9-11.4c2-0.4,4.1-0.7,6.3-0.8
				c4.3-0.3,8.8,0.1,13.5,1c0.4,0.1,0.8,0.2,1.3,0.3c1.6,0.3,3.2,0.8,4.8,1.3c2.6,0.8,5.2,1.8,7.8,2.9c0.1,0.1,0.2,0.1,0.4,0.2
				c5.6,2.6,10.7,5.8,14.9,9.5c5.6-7.5,14.7-12.3,24.9-12.3C401.7,442.9,410.8,447.9,416.4,455.5z"/>
			<path id="XMLID_1787_" class="st124" d="M250.2,473c0,5.4-1.5,10.5-4,14.8c-2.4,4.2-5.9,7.8-10,10.4c-4.8,3.1-10.6,4.8-16.8,4.8
				c-2.7,0-5.2-0.3-7.7-0.9c-8.2-2.1-15.1-7.3-19.1-14.3c-0.4-0.7-0.8-1.5-1.2-2.3c-0.4,0.8-0.8,1.5-1.3,2.3
				c-3.8,5.8-10.4,9.7-18,9.7c-0.4,0-0.8,0-1.2,0c-0.9-0.3-1.8-0.6-2.7-0.9c-3.3-1.2-6.6-2.5-9.8-3.8c-1.3-1-2.4-2.2-3.4-3.5
				c-0.4,0.5-0.7,1.1-1.1,1.6c-4.9-2.1-9.7-4.4-14.4-6.8c-2.9-1.5-5.8-3-8.6-4.6h0c-7.7-4.3-15.1-9-22.2-14
				c-10-7.1-19.5-14.8-28.4-23.2c-3.7-3.5-7.4-7.2-10.9-10.9c0.8,0,1.5,0,2.3,0c4.1,0,8.1,0.4,11.9,1.1c2.4,0.4,4.7,1,6.9,1.7
				c3.3,1,6.4,2.3,9.2,3.9c5,2.8,9.2,6.3,12,10.2c0.7-0.4,1.3-0.8,2-1.2c4.4-2.5,9.4-3.9,14.9-4c0.1,0,0.3,0,0.5,0
				c7.8,0,15,2.8,20.4,7.5c3.5,3,6.2,6.7,8.1,10.9c3.8-3.5,9-5.6,14.6-5.6c6.2,0,11.9,2.6,15.8,6.8c0.7,0.7,1.3,1.5,1.9,2.3
				c0,0,0,0,0,0.1c0-0.1,0-0.2,0.1-0.2c0.5-1.6,1.1-3.1,1.8-4.5v0c1.9-3.9,4.6-7.2,7.9-10c5.4-4.4,12.3-7.1,19.9-7.1
				c3.3,0,6.5,0.5,9.6,1.5c5,1.6,9.4,4.4,12.9,8c1.9,2,3.5,4.2,4.8,6.6c0.4,0.7,0.7,1.4,1,2.1c1.4,3.1,2.2,6.4,2.4,10
				C250.2,471.8,250.2,472.4,250.2,473z"/>
		</g>
		
			<ellipse id="XMLID_1738_" transform="matrix(0.5964 -0.8027 0.8027 0.5964 -229.5468 196.1463)" class="st153" cx="80.3" cy="326.3" rx="18.6" ry="8"/>
		
			<ellipse id="XMLID_1737_" transform="matrix(0.6845 -0.729 0.729 0.6845 -49.3448 442.5254)" class="st159" cx="486.6" cy="278.3" rx="8" ry="18.6"/>
		
			<ellipse id="XMLID_1736_" transform="matrix(0.9686 -0.2487 0.2487 0.9686 -73.2412 125.1895)" class="st159" cx="458.8" cy="352.5" rx="8" ry="18.6"/>
		
			<ellipse id="XMLID_1746_" transform="matrix(0.2439 -0.9698 0.9698 0.2439 -346.564 437.2409)" class="st159" cx="107.1" cy="440.9" rx="18.6" ry="8"/>
		
			<ellipse id="XMLID_1781_" transform="matrix(0.95 -0.3122 0.3122 0.95 -121.6689 68.4139)" class="st154" cx="152.8" cy="414.1" rx="8" ry="18.6"/>
		
			<ellipse id="XMLID_1785_" transform="matrix(1 -4.567963e-03 4.567963e-03 1 -1.2541 0.1272)" class="st155" cx="27.2" cy="274.6" rx="18.6" ry="8"/>
		
			<ellipse id="XMLID_1805_" transform="matrix(0.8516 -0.5242 0.5242 0.8516 -145.7791 256.7722)" class="st155" cx="380.6" cy="385.8" rx="18.6" ry="8"/>
		<path id="XMLID_1856_" class="st183" d="M381.9,478.9c-13.6,7.7-27.9,14.2-42.8,19.3c-1.4,0.5-2.8,0.9-4.2,1.4
			c-0.8,0.3-1.6,0.5-2.4,0.8c-1,0.3-2,0.6-3,0.9c-0.2,0.1-0.4,0.1-0.6,0.2c-1.7,0.5-3.4,1-5.1,1.4c-18.5,5.1-37.7,8.1-57.6,8.9
			c-0.6,0-1.1,0-1.7,0c-2.8,0.1-5.7,0.2-8.6,0.2c-17.9,0-35.3-1.8-52.2-5.3c-11.3-2.3-22.3-5.4-33-9.2c-0.9-0.3-1.8-0.6-2.7-0.9
			c-3.3-1.2-6.6-2.5-9.8-3.8c-1.5-0.6-3-1.3-4.5-1.9c-4.9-2.1-9.7-4.4-14.4-6.8c-2.9-1.5-5.8-3-8.6-4.6h0c-7.7-4.3-15.1-9-22.2-14
			c2.4-0.5,4.9-0.8,7.5-0.8c7.3,0,14,2.2,19.7,5.9c2.5,1.7,4.8,3.6,6.8,5.9c2.7,2.9,4.9,6.3,6.5,10.1c3.6-2.8,7.8-5,12.3-6.3
			c3-0.9,6.2-1.4,9.5-1.4c0.1,0,0.3,0,0.5,0c8.3,0,15.9,2.8,21.9,7.5c3.1-4.1,6.8-7.7,11-10.6c0.2-0.2,0.5-0.4,0.8-0.5c0,0,0,0,0,0
			c7.5-5,16.5-7.9,26.1-7.9c4.1,0,8.1,0.5,11.9,1.5c2.5,0.6,4.9,1.5,7.2,2.5c5.8,2.5,11,6.2,15.3,10.8c7.6-9.8,18.5-16.9,31-19.5
			c2.9-0.6,5.9-1,8.9-1.1c0.7,0,1.4-0.1,2.2-0.1c5.7,0,11.1,0.9,16.2,2.5c3.5,1.1,6.9,2.6,10,4.4c0.2,0.1,0.4,0.2,0.7,0.4
			c0.4,0.2,0.8,0.5,1.2,0.8c3.1,1.9,6,4.2,8.7,6.7c2,1.9,3.9,4,5.6,6.3c1.3,1.7,2.4,3.4,3.5,5.2c6.3-5.5,14.5-8.9,23.6-8.9
			C378.7,478.6,380.3,478.7,381.9,478.9z"/>
		<path id="XMLID_2711_" class="st370" d="M223.3,330.9c0,0-3.6,4.4-9.2,11c-11.9,14-33,37.7-47.9,49.9c-3.8,3.1-7.2,6.7-10.1,10.7
			c-3.3,4.7-5.9,9.9-7.4,15.5c-0.4,1.4-0.8,2.9-1,4.4v0c-0.2,0.8-0.3,1.6-0.4,2.4v0c0,0.1,0,0.1,0,0.2c-1.1,7.1-0.9,15.3,1.6,24
			l0.6,1.4l6.7,16.4l5.4,13.2l6.8,16.5c-3.3-1.2-6.6-2.5-9.8-3.8c-1.5-0.6-3-1.3-4.5-1.9c-4.9-2.1-9.7-4.4-14.4-6.8l-1.5-5.8l-2-7.7
			l-7.3-27.5l-6.1-23l-2.7-10c0,0-1.2-3-1.3-8.4c0-2.7,0.2-5.9,0.9-9.6c1-5.1,3-11.1,6.6-17.9c8.8-16.4,17.2-35.1,20.8-43.4
			c1.2-2.8,1.9-4.5,1.9-4.5h54.9L223.3,330.9z"/>
		<path id="XMLID_4085_" class="st370" d="M372.7,340.2l-12.3,45.7c0.2,15.1-1.9,29.2-3.8,38.7c-1.5,7.4-2.8,12-2.8,12l-0.3,1.4
			l-1.9,7.8l-7.2,30.2l-1.4,5.7l-3.9,16.5c-1.4,0.5-2.8,0.9-4.2,1.4c-0.8,0.3-1.6,0.5-2.4,0.8c-1,0.3-2,0.6-3,0.9l0.6-4.3l2.3-17.9
			l1.4-11l3-22.7l0.6-4.2l0.4-3.3c-1.3-6.5-2.2-13.7-2.8-20.8c-1.7-19.6-1.4-38.5-1.4-38.5c0.8-18.1-7.7-50.1-7.7-50.1l48.3,6.3
			L372.7,340.2z"/>
		<path id="XMLID_4086_" class="st59" d="M79,272.8H52.4c-2.9,0-5.3-2.4-5.3-5.3v-6c0-15.8,12.8-28.6,28.6-28.6h26.5
			c2.9,0,5.3,2.4,5.3,5.3v6C107.6,259.9,94.8,272.8,79,272.8z"/>
		<path id="XMLID_4087_" class="st59" d="M374.9,339.4c-0.7,0.4-1.5,0.6-2.2,0.8c-3.2,1.1-6.6,1.7-10.1,1.7
			c-10.2,0-18.7,7.5-20.1,17.6l-3,22.4c2,13.7,2,26.9,1.4,36.4c-0.5,8.9-1.4,14.7-1.4,14.7l-0.9,8.5l-0.4,3.4l-2.5,24.4l-1.1,10.6
			l-1.9,18.5l-0.2,2.1c-1,0.3-2,0.6-3,0.9c-0.2,0.1-0.4,0.1-0.6,0.2c-1.7,0.5-3.4,1-5.1,1.4v-66.7c-2-5.9-3.7-12.5-5.2-19.1
			c-4.4-19.6-6.6-39.1-6.6-39.1c0-0.1,0-0.2,0-0.3c-1-10.2-5.8-19.2-13-25.6c-7.1-6.4-16.5-10.2-26.7-10.2h-81
			c-8.9,0-17.6,3-24.6,8.4c-1,0.8-2,1.7-3,2.5c-4.1,3.9-8.6,8.1-13.3,12.4c-10.4,9.5-21.6,19.3-31.1,26.7c-2.1,1.6-4.1,3.1-6,4.5
			c-3.2,2.3-6.2,4.2-8.6,5.5c0,0-4.4,3-9.8,10c-3.8,4.8-8,11.5-11.5,20.3c-1.2,3-2.3,6.3-3.3,9.9c-3.7-3.5-7.4-7.2-10.9-10.9
			c-1.8-1.9-3.5-3.8-5.3-5.8l1.5-17.7l0.7-7.6c0.5-6.2,4-11.7,9.2-15c5-3.1,11.5-7.8,17.2-13.9c11.1-11.8,19.5-28.7,9-49.7
			c0,0-12.8-23.6-13.7-50.2v0c-0.5-12.9,1.9-26.5,9.9-38.4c9-13.3,25-24.4,52-30h0c3.8-0.9,7.6-1.1,11.4-0.7
			c3.4,0.4,6.7,1.2,9.8,2.6c4.4,1.9,9,3.5,13.7,5c10.8,3.3,22.5,5.5,34.8,6.8c2.3,0.2,4.6,0.4,6.9,0.6c17.7,1.3,37.7,4.4,57.5,2.6
			l0,0c24.2-2.2,48.9-5.1,74.8-9.6c15-2.7,28.3-11.5,35.9-24.7c0.3-0.5,0.5-0.9,0.8-1.4c2.7-4.9,4.4-11.1,4.2-18.7
			c0,0,4.7-1.9,11.2-3.2c14.1-2.9,37-3.2,40.8,23.6c0,0-3.2,4.3-2.8,9l-17-1.8C433.4,211.8,401.2,322.7,374.9,339.4z"/>
		<path id="XMLID_4088_" class="st91" d="M299.1,352.1c-7.1-6.4-16.5-10.2-26.7-10.2h-81c-8.9,0-17.6,3-24.6,8.4
			c2.1-24.5,30.9-43.9,66.1-43.9C268.9,306.4,298.3,326.7,299.1,352.1z"/>
		<path id="XMLID_4151_" class="st372" d="M146.8,330.6c0.9,10.7,2,22.2,3.6,34.6c-10.4,9.5-21.6,19.3-31.1,26.7
			c-2.1,1.6-4.1,3.1-6,4.5c-3.2,2.3-6.2,4.2-8.6,5.5c0,0-4.4,3-9.8,10c-3.8,4.8-8,11.5-11.5,20.3c-1.2,3-2.3,6.3-3.3,9.9
			c-3.7-3.5-7.4-7.2-10.9-10.9c-1.8-1.9-3.5-3.8-5.3-5.8l1.5-17.7l0.7-7.6c0.5-6.2,4-11.7,9.2-15c5-3.1,11.5-7.8,17.2-13.9
			c11.1-11.8,19.5-28.7,9-49.7c0,0-12.8-23.6-13.7-50.2v0c-0.5-12.9,1.9-26.5,9.9-38.4c9-13.3,25-24.4,52-30h0
			c3.8-0.9,7.6-1.1,11.4-0.7C150.5,220.4,141,257.1,146.8,330.6z"/>
		<ellipse id="XMLID_4152_" class="st370" cx="177.5" cy="244" rx="16.2" ry="8.8"/>
		<ellipse id="XMLID_4153_" class="st370" cx="220.7" cy="252.8" rx="20.2" ry="10.9"/>
		<ellipse id="XMLID_4178_" class="st370" cx="200.5" cy="228.9" rx="11.4" ry="6.2"/>
		<ellipse id="XMLID_4197_" class="st370" cx="214.7" cy="278.3" rx="8.6" ry="4.7"/>
		<ellipse id="XMLID_4210_" class="st370" cx="186.6" cy="278.9" rx="11.4" ry="6.2"/>
		<path id="XMLID_4212_" class="st373" d="M405.5,147.6c0,0-16.5-20.9-38.9-30.8c-4.3-1.9-7.9-5-10.1-9.1
			C349.8,95,343.8,65,383.8,7.9"/>
		<path id="XMLID_4213_" class="st374" d="M398.4,133.8c0,0,0.9-32.3,10.3-42.1"/>
		<path id="XMLID_4215_" class="st374" d="M352,88.4c0,0,27.5-16.1,41.3-33.6"/>
		<path id="XMLID_4216_" class="st373" d="M441.9,147.6c0,0,16.5-20.9,38.9-30.8c4.3-1.9,7.9-5,10.1-9.1
			C497.7,95,503.6,65,463.6,7.9"/>
		<path id="XMLID_4217_" class="st374" d="M449.1,133.8c0,0-0.9-32.3-10.3-42.1"/>
		<path id="XMLID_4221_" class="st374" d="M495.4,88.4c0,0-27.5-16.1-41.3-33.6"/>
		<path id="XMLID_4222_" class="st59" d="M395.2,157.9c-1.3,2-3.6,3.5-6.4,4.4c-7.1,2.3-17.9,1.2-26.6-4.6
			c-10.1-6.8-14.4-17.8-12.9-25.3c0.3-1.5,0.8-3,1.6-4.1c4.6-6.8,15.8-3.2,28.1,5C391.1,141.4,399.8,151,395.2,157.9z"/>
		<path id="XMLID_4223_" class="st91" d="M388.7,162.3c-7.1,2.3-17.9,1.2-26.6-4.6c-10.1-6.8-14.4-17.8-12.9-25.3
			c5.6-0.6,13.6,2.8,22,8.5C381.6,147.8,389.4,155.8,388.7,162.3z"/>
		<path id="XMLID_4224_" class="st59" d="M452.6,157.9c1.3,2,3.6,3.5,6.4,4.4c7.1,2.3,17.9,1.2,26.6-4.6
			c10.1-6.8,14.4-17.8,12.9-25.3c-0.3-1.5-0.8-3-1.6-4.1c-4.6-6.8-15.8-3.2-28.1,5C456.6,141.4,448,151,452.6,157.9z"/>
		<path id="XMLID_4225_" class="st91" d="M459,162.3c7.1,2.3,17.9,1.2,26.6-4.6c10.1-6.8,14.4-17.8,12.9-25.3
			c-5.6-0.6-13.6,2.8-22,8.5C466.1,147.8,458.3,155.8,459,162.3z"/>
		<path id="XMLID_4227_" class="st375" d="M462,169.7c0,0.7,0,1.3-0.1,2l-12.2,73.9c-0.2,0.9-0.4,1.9-0.6,2.8
			c-2,6.7-7.1,12-13.5,14.4c-2.4,0.9-5.1,1.4-7.8,1.4h-5.1c-9.9,0-18.5-6.6-21.3-15.8c-0.3-0.9-0.5-1.8-0.6-2.8l-12.2-73.9
			c-0.1-0.6-0.2-1.3-0.1-2c0.5-19.9,16.8-35.9,36.9-35.9c3.6,0,7.1,0.5,10.4,1.5c6,1.8,11.4,5,15.7,9.3
			C457.6,151,461.7,159.9,462,169.7z"/>
		<path id="XMLID_4228_" class="st81" d="M462,170.6l-12.4,74.9c-0.2,0.9-0.4,1.9-0.6,2.8c-2,6.7-7.1,12-13.5,14.4
			c-6.4-2.4-11.5-7.7-13.5-14.4c-0.3-0.9-0.5-1.8-0.6-2.8l-12.4-74.9c0-16.8,11.2-30.9,26.5-35.4c6,1.8,11.4,5,15.7,9.3
			C457.8,151.2,462,160.5,462,170.6z"/>
		<circle id="XMLID_4229_" class="st376" cx="403.5" cy="192.9" r="8.7"/>
		<circle id="XMLID_4230_" class="st376" cx="445.8" cy="192.9" r="8.7"/>
		<path id="XMLID_4231_" class="st246" d="M448.9,248.3c-2.4,7.9-9,13.9-17,15.4c-1.4,0.3-2.8,0.4-4.3,0.4h-5.1
			c-9.9,0-18.5-6.6-21.3-15.9c2.7-4,6.3-7.3,10.6-9.6c1.7-0.9,3.1-2.2,4-3.8c1-1.6,1.5-3.4,1.5-5.3c0-2.1,0.9-4.1,2.3-5.5
			c1.4-1.4,3.3-2.3,5.5-2.3c4.3,0,7.7,3.5,7.7,7.7c0,1.9,0.5,3.6,1.4,5.2c1,1.6,2.4,3,4.1,3.9C442.6,241,446.3,244.3,448.9,248.3z"
			/>
		<path id="XMLID_4232_" class="st91" d="M448.9,248.3c-2.4,7.9-9,13.9-17,15.4c-8.1-1.6-14.6-7.5-17-15.4
			c3.8-5.7,12.3-11.5,19.3-13.5c1,1.6,2.4,3,4.1,3.9C442.6,241,446.3,244.3,448.9,248.3z"/>
		<ellipse id="XMLID_4233_" class="st376" cx="417.4" cy="246.7" rx="5.1" ry="3.1"/>
		<ellipse id="XMLID_4234_" class="st376" cx="432" cy="246.7" rx="5.1" ry="3.1"/>
	</g>
</g>
</svg>
