<?xml version="1.0" encoding="utf-8"?>
<!-- Generator: Adobe Illustrator 22.0.1, SVG Export Plug-In . SVG Version: 6.00 Build 0)  -->
<svg version="1.1" xmlns="http://www.w3.org/2000/svg" xmlns:xlink="http://www.w3.org/1999/xlink" x="0px" y="0px"
	 viewBox="0 0 512 512" style="enable-background:new 0 0 512 512;" xml:space="preserve">
<style type="text/css">
	.st0{fill:#4B71B4;}
	.st1{fill:#80B4E8;}
	.st2{fill:#594144;}
	.st3{fill:#B8E876;}
	.st4{fill:#E09122;}
	.st5{fill:#FBF355;}
	.st6{fill:#EEC82F;}
	.st7{fill:#CEA628;}
	.st8{fill:#9BC9EF;}
	.st9{fill:#9DD055;}
	.st10{fill:#5686C5;}
	.st11{fill:#3B5880;}
	.st12{fill:#C2E5FB;}
	.st13{fill:#446697;}
	.st14{fill:#D1F1A0;}
	.st15{fill:#ABD170;}
	.st16{fill:#9DBD6A;}
	.st17{fill:#649D53;}
	.st18{fill:#72B35D;}
	.st19{fill:#ABD68D;}
	.st20{fill:#7FB358;}
	.st21{fill:#920C50;}
	.st22{fill:#C60053;}
	.st23{fill:#530730;}
	.st24{fill:#600332;}
	.st25{fill:#D5AC2A;}
	.st26{fill:#EFD776;}
	.st27{fill:#A7C76D;}
	.st28{fill:#A43749;}
	.st29{fill:#DC4355;}
	.st30{fill:#E18696;}
	.st31{fill:#77A255;}
	.st32{fill:#628547;}
	.st33{fill:#6E994D;}
	.st34{fill:none;stroke:#54743C;stroke-width:8;stroke-linecap:round;stroke-miterlimit:10;}
	.st35{fill:#9BCF75;}
	.st36{fill:#CA8F80;}
	.st37{fill:#E6B8AB;}
	.st38{fill:#E2A18B;}
	.st39{fill:#8E3F2B;}
	.st40{fill:#D89988;}
	.st41{fill:#CFCFCF;}
	.st42{fill:#A64B2D;}
	.st43{fill:#FFFFFF;}
	.st44{fill:#CA801F;}
	.st45{fill:#719C50;}
	.st46{fill:#85B7E5;}
	.st47{fill:#4F7BA9;}
	.st48{fill:#674C50;}
	.st49{fill:#BAD7ED;}
	.st50{fill:#63494D;}
	.st51{fill:#503D3F;}
	.st52{fill:#638547;}
	.st53{fill:#56713E;}
	.st54{fill:#BB5135;}
	.st55{fill:#93C4EC;}
	.st56{fill:#CA8121;}
	.st57{fill:#FDFCFC;}
	.st58{fill:#A83A4F;}
	.st59{fill:#BD5E44;}
	.st60{fill:#688C4A;}
	.st61{fill:#7DA55A;}
	.st62{fill:#90BA51;}
	.st63{fill:none;}
	.st64{fill:#ABC287;}
	.st65{fill:#BDD993;}
	.st66{fill:none;stroke:#534046;stroke-width:15;stroke-linecap:round;stroke-linejoin:round;stroke-miterlimit:10;}
	.st67{fill:#413133;}
	.st68{fill:#34292B;}
	.st69{fill:#644B50;}
	.st70{fill:#CDACB7;}
	.st71{fill:#A83A4D;}
	.st72{fill:#413335;}
	.st73{fill:#DC6579;}
	.st74{fill:#4C393C;}
	.st75{fill:#527FAE;}
	.st76{fill:#92C2EA;}
	.st77{fill:#5B8C4A;}
	.st78{fill:#729C51;}
	.st79{fill:#AADB5E;}
	.st80{fill:#D66C53;}
	.st81{fill:#A65340;}
	.st82{fill:#B8594A;}
	.st83{fill:#79A754;}
	.st84{fill:#4E3B3E;}
	.st85{fill:#5E4649;}
	.st86{fill:#604A50;}
	.st87{fill:#685258;}
	.st88{fill:#765E66;}
	.st89{fill:#FCF69A;}
	.st90{fill:#D3CC84;}
	.st91{fill:#E6A572;}
	.st92{fill:#74A151;}
	.st93{fill:#6F994F;}
	.st94{fill:#CC6D7D;}
	.st95{fill:#AD6576;}
	.st96{fill:#95422D;}
	.st97{fill:#BE6850;}
	.st98{fill:#3B2F32;}
	.st99{fill:none;stroke:#46383B;stroke-width:15;stroke-linecap:round;stroke-miterlimit:10;}
	.st100{fill:none;stroke:#3B2F32;stroke-width:15;stroke-linecap:round;stroke-miterlimit:10;}
	.st101{fill:#D6CF77;}
	.st102{fill:#F5EF82;}
	.st103{fill:#4A383B;}
	.st104{fill:#CACACA;}
	.st105{fill:#48373A;}
	.st106{fill:#7AA8D2;}
	.st107{fill:#6E9150;}
	.st108{fill:#587441;}
	.st109{fill:#D76E51;}
	.st110{fill:#CCC475;}
	.st111{fill:#DDD57E;}
	.st112{fill:#F8F19C;}
	.st113{fill:#FBF58A;}
	.st114{fill:#C67F20;}
	.st115{fill:#AB6B1C;}
	.st116{fill:#C98020;}
	.st117{fill:#D99A41;}
	.st118{fill:#DBA35B;}
	.st119{fill:#9B5F1B;}
	.st120{fill:#97CF6D;}
	.st121{fill:#5380B1;}
	.st122{fill:#96D16A;}
	.st123{fill:#92BD50;}
	.st124{fill:#7EB058;}
	.st125{fill:#709A50;}
	.st126{fill:#5A8A4A;}
	.st127{fill:#D9D9D9;}
	.st128{fill:#75A3CD;}
	.st129{fill:#6E974F;}
	.st130{fill:#CA6D7D;}
	.st131{fill:#AB6576;}
	.st132{fill:#93422D;}
	.st133{fill:#A44B2D;}
	.st134{fill:#BC6850;}
	.st135{fill:#DFB52B;}
	.st136{fill:#4C3A3C;}
	.st137{fill:#473538;}
	.st138{fill:#382B2E;}
	.st139{fill:none;stroke:#FFFFFF;stroke-width:8;stroke-linecap:round;stroke-miterlimit:10;}
	.st140{fill:#90C0E8;}
	.st141{fill:none;stroke:#E09122;stroke-width:12;stroke-linecap:round;stroke-miterlimit:10;}
	.st142{fill:#DCAE2B;}
	.st143{fill:#F0D05A;}
	.st144{fill:#729E51;}
	.st145{fill:#E4BA36;}
	.st146{fill:#F8F283;}
	.st147{fill:#E4B6A9;}
	.st148{fill:#D78E30;}
	.st149{fill:#598A49;}
	.st150{fill:#B65339;}
	.st151{fill:#BA751F;}
	.st152{fill:#466A9F;}
	.st153{fill:#8BB34D;}
	.st154{fill:#9BCE54;}
	.st155{fill:#7F9F49;}
	.st156{fill:#D37F6D;}
	.st157{fill:#BB5E44;}
	.st158{fill:#93BB55;}
	.st159{fill:#B3E665;}
	.st160{fill:none;stroke:#4C393C;stroke-width:8;stroke-miterlimit:10;}
	.st161{fill:#97432D;}
	.st162{fill:#DAB12A;}
	.st163{fill:#5E914C;}
	.st164{fill:#5381B3;}
	.st165{fill:#6A8F4C;}
	.st166{fill:#628047;}
	.st167{fill:#E29D37;}
	.st168{fill:#6E555B;}
	.st169{fill:#91CA67;}
	.st170{fill:#476BA1;}
	.st171{fill:#6699D9;}
	.st172{fill:#503C3E;}
	.st173{fill:#413235;}
	.st174{fill:#CC916A;}
	.st175{fill:#BA8363;}
	.st176{fill:#D09571;}
	.st177{fill:#C98F68;}
	.st178{fill:#AA3B4D;}
	.st179{fill:#DA6075;}
	.st180{fill:#92452D;}
	.st181{fill:#A24B2D;}
	.st182{fill:#B76252;}
	.st183{fill:#87BD60;}
	.st184{fill:#78A7D2;}
	.st185{fill:#F9F38F;}
	.st186{fill:#E0D650;}
	.st187{fill:#AFE086;}
	.st188{fill:#9FD476;}
	.st189{fill:#9DD176;}
	.st190{fill:#8FC468;}
	.st191{fill:#7EAE58;}
	.st192{fill:#6F9850;}
	.st193{fill:#59884A;}
	.st194{fill:#638347;}
	.st195{fill:#B95135;}
	.st196{fill:#E5AB62;}
	.st197{fill:#733228;}
	.st198{fill:#803728;}
	.st199{fill:#6D974D;}
	.st200{fill:#99CD75;}
	.st201{fill:#93412C;}
	.st202{fill:#93C2EA;}
	.st203{fill:#CD926B;}
	.st204{fill:#E6AF8A;}
	.st205{fill:#E5DB4E;}
	.st206{fill:#FBF375;}
	.st207{fill:#779E54;}
	.st208{fill:#D3966D;}
	.st209{fill:#DA4355;}
	.st210{fill:#A83B4D;}
	.st211{fill:none;stroke:#594144;stroke-width:8;stroke-linecap:round;stroke-miterlimit:10;}
	.st212{fill:#E5A855;}
	.st213{fill:#EAC291;}
	.st214{fill:#96C252;}
	.st215{fill:#695055;}
	.st216{fill:#DC9C42;}
	.st217{fill:#8E5C1B;}
	.st218{fill:#F4EB6A;}
	.st219{fill:#CBC049;}
	.st220{fill:none;stroke:#B8E876;stroke-width:15;stroke-linecap:round;stroke-miterlimit:10;}
	.st221{fill:#A36A1C;}
	.st222{fill:#ECC94A;}
	.st223{fill:#91BEDA;}
	.st224{fill:#3D2F32;}
	.st225{fill:#A6394C;}
	.st226{fill:#33292B;}
	.st227{fill:#4F3D42;}
	.st228{fill:#638147;}
	.st229{fill:#CD8321;}
	.st230{fill:#D3CA4A;}
	.st231{fill:#E2A550;}
	.st232{fill:#B75135;}
	.st233{fill:#D4CD77;}
	.st234{fill:#F3EC80;}
	.st235{fill:#46383B;}
	.st236{fill:#82AA61;}
	.st237{fill:#8EBF69;}
	.st238{fill:#3C2E31;}
	.st239{fill:#C49F27;}
	.st240{fill:#D2BF7C;}
	.st241{fill:#F6E18D;}
	.st242{fill:#D6D6D6;}
	.st243{fill:#B5D7F2;}
	.st244{fill:#F1D467;}
	.st245{fill:#739FBD;}
	.st246{fill:#D0946C;}
	.st247{fill:#BE8767;}
	.st248{fill:#D0A829;}
	.st249{fill:#F6DF86;}
	.st250{fill:#EABA8D;}
	.st251{fill:#F0D1B8;}
	.st252{fill:#A5D0F1;}
	.st253{fill:#E3A13F;}
	.st254{fill:#F0FAFF;}
	.st255{fill:#B4D3E3;}
	.st256{fill:#80A5C3;}
	.st257{fill:#87AFD5;}
	.st258{fill:#B1D1E7;}
	.st259{fill:#AED66F;}
	.st260{fill:#91AA61;}
	.st261{fill:#A8384B;}
	.st262{fill:#CD8120;}
	.st263{fill:#E6AD56;}
	.st264{fill:none;stroke:#E6AD56;stroke-width:8;stroke-linecap:round;stroke-miterlimit:10;}
	.st265{fill:#9EBD68;}
	.st266{fill:#AAD16E;}
	.st267{fill:#86656B;}
	.st268{fill:#6D954D;}
	.st269{fill:#98CB75;}
	.st270{fill:#75A251;}
	.st271{fill:#91BD4F;}
	.st272{fill:none;stroke:#B8E078;stroke-width:8;stroke-linecap:round;stroke-miterlimit:10;}
	.st273{fill:none;stroke:#B8E078;stroke-width:8;stroke-linecap:round;stroke-linejoin:round;stroke-miterlimit:10;}
	.st274{fill:#8FBA4E;}
	.st275{fill:#B3E860;}
	.st276{fill:#E7A748;}
	.st277{fill:none;stroke:#B6E676;stroke-width:15;stroke-linecap:round;stroke-miterlimit:10;}
	.st278{fill:#639B53;}
	.st279{fill:#476B9F;}
	.st280{fill:#82B1DE;}
	.st281{fill:#A6533F;}
	.st282{fill:#C28A69;}
	.st283{fill:#64494E;}
	.st284{fill:#77565C;}
	.st285{fill:#4F3C40;}
	.st286{fill:#ECCCB1;}
	.st287{fill:#BF6F5C;}
	.st288{fill:none;stroke:#D4F1A7;stroke-width:10;stroke-linecap:round;stroke-miterlimit:10;}
	.st289{fill:none;stroke:#B8E876;stroke-width:10;stroke-linecap:round;stroke-miterlimit:10;}
	.st290{fill:#47688F;}
	.st291{fill:#3F5B78;}
	.st292{fill:#354E6C;}
	.st293{fill:#DAB12B;}
	.st294{fill:#C8A028;}
	.st295{fill:#F0D15C;}
	.st296{fill:#F8F28B;}
	.st297{fill:#F7F18D;}
	.st298{fill:#DED450;}
	.st299{fill:#F9F155;}
	.st300{fill:#A2CFF4;}
	.st301{fill:none;stroke:#594144;stroke-width:10;stroke-linecap:round;stroke-miterlimit:10;}
	.st302{fill:#F5F0AB;}
	.st303{fill:#496DA1;}
	.st304{fill:#5A85C7;}
	.st305{fill:#D7D7D7;}
	.st306{fill:#ADD3E6;}
	.st307{fill:#98B8C3;}
	.st308{fill:#CDCECF;}
	.st309{fill:#BF4F69;}
	.st310{fill:#A83448;}
	.st311{fill:#A4DAF7;}
	.st312{fill:#81A861;}
	.st313{fill:#82A549;}
	.st314{fill:#B6E676;}
	.st315{fill:#8CBD69;}
	.st316{fill:#ECC62F;}
	.st317{fill:#F4EA80;}
	.st318{fill:#D6AD2B;}
	.st319{fill:#6F9151;}
	.st320{fill:#46699C;}
	.st321{fill:#4A373A;}
	.st322{fill:#89B04C;}
	.st323{fill:#99CC53;}
	.st324{fill:#B1E465;}
	.st325{fill:#E19E3B;}
	.st326{fill:#C05970;}
	.st327{fill:#D95F74;}
	.st328{fill:#74A8DE;}
	.st329{fill:#C47C1E;}
	.st330{fill:#719A51;}
	.st331{fill:#A8D95E;}
	.st332{fill:#D46C53;}
	.st333{fill:#A45340;}
	.st334{fill:#B6594A;}
	.st335{fill:#79A554;}
	.st336{fill:#B6DAF7;}
	.st337{fill:#739F51;}
	.st338{fill:#DDB32B;}
	.st339{fill:#DE8F22;}
	.st340{fill:none;stroke:#46383B;stroke-width:8;stroke-linecap:round;stroke-miterlimit:10;}
	.st341{fill:none;stroke:#3B2F32;stroke-width:8;stroke-linecap:round;stroke-miterlimit:10;}
	.st342{fill:#C8C8C8;}
	.st343{fill:#7F9D49;}
	.st344{fill:#BA5E44;}
	.st345{fill:#92B955;}
	.st346{fill:#D17F6D;}
	.st347{fill:#5D8F4C;}
	.st348{fill:#B75334;}
	.st349{fill:#CA6D57;}
	.st350{fill:#A4574D;}
	.st351{fill:#7FB1E6;}
	.st352{fill:#77A3CD;}
	.st353{fill:#90BA4F;}
	.st354{fill:#5C8F4B;}
	.st355{fill:#ACDE5D;}
	.st356{fill:#6FAC5A;}
	.st357{fill:none;stroke:#9DD055;stroke-width:10;stroke-linecap:round;stroke-miterlimit:10;}
	.st358{fill:#AD5643;}
	.st359{fill:#B96052;}
	.st360{fill:#CB8D84;}
	.st361{fill:#CC6C56;}
	.st362{fill:#DE9A8E;}
	.st363{fill:#D37B6A;}
	.st364{fill:#A87758;}
	.st365{fill:#372A2C;}
	.st366{fill:#B8815C;}
	.st367{fill:#433335;}
	.st368{fill:#2C2325;}
	.st369{fill:#95402B;}
	.st370{fill:#A85441;}
	.st371{fill:#D2C74B;}
	.st372{fill:#B25945;}
	.st373{fill:none;stroke:#594144;stroke-width:15;stroke-linecap:round;stroke-miterlimit:10;}
	.st374{fill:none;stroke:#594144;stroke-width:12;stroke-linecap:round;stroke-miterlimit:10;}
	.st375{fill:#8F473B;}
	.st376{fill:#453538;}
	.st377{fill:#517DAB;}
	.st378{fill:#75A050;}
	.st379{fill:#A5384D;}
	.st380{fill:#CC6075;}
	.st381{fill:#F26B7F;}
	.st382{fill:#C67189;}
	.st383{fill:#B26980;}
	.st384{fill:#D87990;}
	.st385{fill:#F2869B;}
	.st386{fill:#EF8499;}
	.st387{fill:#649CD7;}
	.st388{fill:#639CDB;}
	.st389{fill:#C8ED8D;}
	.st390{fill:#A9DB83;}
	.st391{fill:#9BCF76;}
	.st392{fill:#7EAC58;}
	.st393{fill:#8CC463;}
	.st394{fill:#7FAC5B;}
	.st395{fill:#769C55;}
	.st396{fill:#6A894D;}
	.st397{fill:#769B56;}
	.st398{fill:#9BCC75;}
	.st399{fill:#AF5641;}
	.st400{fill:#F4D576;}
	.st401{fill:#76A055;}
	.st402{fill:#628347;}
	.st403{fill:#4F7B9F;}
	.st404{fill:#466D86;}
	.st405{fill:#4D789C;}
</style>
<g id="BULINE">
	<circle id="XMLID_1742_" class="st7" cx="256" cy="256" r="256"/>
</g>
<g id="Icons">
	<g id="XMLID_2080_">
		<circle id="XMLID_2155_" class="st145" cx="166.9" cy="170.6" r="131"/>
		<path id="XMLID_2154_" class="st5" d="M234.9,187.5c0,28.3-19.1,52.2-45.2,59.3c-5.2,1.4-10.7,2.2-16.3,2.2
			c-34,0-61.5-27.5-61.5-61.5c0-34,27.5-61.5,61.5-61.5c5.7,0,11.1,0.8,16.3,2.2C215.8,135.3,234.9,159.1,234.9,187.5z"/>
		<path id="XMLID_2153_" class="st146" d="M234.9,187.5c0,28.3-19.1,52.2-45.2,59.3c-26-7.2-45.2-31-45.2-59.3
			c0-28.3,19.1-52.2,45.2-59.3C215.8,135.3,234.9,159.1,234.9,187.5z"/>
		<path id="XMLID_2228_" class="st2" d="M513.9,276.9l-2.9,1.8l-16.4,9.8L401,344.4l-2.9,1.7l-7.9,0.2l-8,0.2l-13.7,0.3l-0.9,0
			l-17.4,0.3l-14,0.3l-7.2,0.1l-13.6,0.3l-17.5,0.3l-6.1,0.1l-58.4,1.2l-91.5,1.9l-46.9-6.5l-48.1-6.7v-61.2c0,0,1.8-3.1,5.8-7.6
			c3.3-3.8,8.1-8.7,14.6-13.7c13.3-10.3,33.8-21.1,63-24.3c9.7-1.1,20.4-1.4,32.2-0.5c6,0.4,12.2,1.2,18.7,2.2
			c9.9,1.6,19.9,2.7,29.9,3.1c21.4,0.9,42.9-1.1,63.8-6.3c3.4-0.9,6.8-1.8,10.3-2.8c15-4.3,30-9.9,42.2-17.1c3.3-1.9,6.4-4,9.2-6.2
			c2.2-1.7,4.6-3.3,7-4.7c3.3-1.9,6.8-3.6,10.4-4.8c3.3-1.2,6.8-2,10.3-2.5c10.2-1.4,22.6-0.8,33.9,6.5c0,0,79.8,47.8,107.2,70.2
			c2.5,2,4.5,3.9,6.1,5.4C512.6,274.9,513.4,276,513.9,276.9z"/>
		<path id="XMLID_2151_" class="st84" d="M494.6,288.5l-96.4,57.7l-256.2,5.2l-95-13.2v-32.9c0,0,35.7-60.1,134.2-43.9
			c31.2,5.1,63.1,4.4,93.7-3.2c22.3-5.6,45.9-13.9,61.7-26.1c8.1-6.3,17.6-10.6,27.7-12.1c10.2-1.4,22.6-0.8,33.9,6.5
			C398.2,226.5,461.4,264.4,494.6,288.5z"/>
		<path id="XMLID_2150_" class="st60" d="M465.5,271.2c0,3.1,3.1,6.7,2.4,9.6c0,0.1,0,0.2-0.1,0.2c-1,3-5.8,4.1-7.7,6.6
			c-1.8,2.5-1.4,7.5-3.9,9.3c-2.5,1.8-7-0.1-10.1,0.9c-0.1,0-0.2,0-0.2,0.1c-2.8,1.1-5.3,5.1-8.4,5.1c-3.2,0-5.7-4.3-8.6-5.2
			c-3-1-7.5,1-10.1-0.9c-2.5-1.8-2.1-6.8-3.9-9.3c-0.7-1-2-1.8-3.2-2.6c-2.2,0.8-4.4,1.5-5.7,2.6c-3.3,2.5-2.4,7.5-6.9,9.3
			c-4.4,1.8-12.4-0.1-17.8,0.9c-0.1,0-0.3,0-0.4,0.1c-5,1.1-9.3,5.1-14.8,5.1c-5.7,0-10.1-4.3-15.3-5.2c-5.3-1-13.3,1-17.8-0.9
			c-4.5-1.8-3.7-6.8-6.9-9.3c-1-0.8-2.6-1.5-4.3-2.1c0,0.4,0,0.8-0.2,1.2c-1,3-5.8,4.1-7.6,6.6c-1.9,2.5-1.4,7.5-3.9,9.3
			c-2.5,1.8-7-0.1-10.1,0.8c-0.1,0-0.2,0-0.2,0.1c-2.8,1.1-5.3,5.1-8.4,5.1c-3.2,0-5.7-4.3-8.6-5.2c-3-1-7.5,1-10.1-0.8
			c-2.5-1.8-2.1-6.8-3.9-9.3c-1.8-2.5-6.7-3.6-7.6-6.6c0-0.1-0.1-0.2-0.1-0.2c-0.7-2.9,2.4-6.5,2.4-9.6c0-3.2-3.3-6.9-2.3-9.8
			c1-3,5.8-4.1,7.6-6.6c1.9-2.5,1.4-7.5,3.9-9.3c2.5-1.8,7,0.1,10.1-0.8c2.9-0.9,5.4-5.2,8.6-5.2c3.1,0,5.6,4,8.4,5.1
			c0.1,0,0.2,0.1,0.2,0.1c3,1,7.6-1,10.1,0.8c2.4,1.8,2.1,6.4,3.7,9c3-2.2,9.6-3.3,12.3-5.4c3.3-2.5,2.4-7.5,6.9-9.3
			c4.4-1.8,12.4,0.1,17.8-0.9c5.1-0.9,9.6-5.2,15.3-5.2c5.5,0,9.9,4,14.8,5.1c0.1,0,0.3,0.1,0.4,0.1c5.3,1,13.3-1,17.8,0.9
			c4.5,1.8,3.6,6.8,6.9,9.3c1.3,1,3.5,1.8,5.7,2.6c1.3-0.8,2.5-1.5,3.2-2.6c1.8-2.5,1.4-7.5,3.9-9.3c2.5-1.8,7.1,0.1,10.1-0.9
			c2.9-0.9,5.4-5.2,8.6-5.2c3.1,0,5.6,4,8.4,5.1c0.1,0,0.2,0.1,0.2,0.1c3,1,7.5-1,10.1,0.9c2.5,1.8,2.1,6.8,3.9,9.3
			c1.8,2.5,6.7,3.6,7.7,6.6C468.8,264.2,465.5,267.9,465.5,271.2z"/>
		<path id="XMLID_2149_" class="st45" d="M467.9,280.8c0,0.1,0,0.2-0.1,0.2c-1,3-5.8,4.1-7.7,6.6c-1.8,2.5-1.4,7.5-3.9,9.3
			c-2.5,1.8-7-0.1-10.1,0.9c-0.1,0-0.2,0-0.2,0.1c-2.8,1.1-5.3,5.1-8.4,5.1c-3.2,0-5.7-4.3-8.6-5.2c-3-1-7.5,1-10.1-0.9
			c-2.5-1.8-2.1-6.8-3.9-9.3c-0.7-1-2-1.8-3.2-2.6c-2.2,0.8-4.4,1.5-5.7,2.6c-3.3,2.5-2.4,7.5-6.9,9.3c-4.4,1.8-12.4-0.1-17.8,0.9
			c-0.1,0-0.3,0-0.4,0.1c-5,1.1-9.3,5.1-14.8,5.1c-5.7,0-10.1-4.3-15.3-5.2c-5.3-1-13.3,1-17.8-0.9c-4.5-1.8-3.7-6.8-6.9-9.3
			c-1-0.8-2.6-1.5-4.3-2.1c0,0.4,0,0.8-0.2,1.2c-1,3-5.8,4.1-7.6,6.6c-1.9,2.5-1.4,7.5-3.9,9.3c-2.5,1.8-7-0.1-10.1,0.8
			c-0.1,0-0.2,0-0.2,0.1c-2.8,1.1-5.3,5.1-8.4,5.1c-3.2,0-5.7-4.3-8.6-5.2c-3-1-7.5,1-10.1-0.8c-2.5-1.8-2.1-6.8-3.9-9.3
			c-1.8-2.5-6.7-3.6-7.6-6.6c0-0.1-0.1-0.2-0.1-0.2c0-0.1,0-0.2,0.1-0.2c1-3,5.8-4.1,7.6-6.6c1.9-2.5,1.4-7.5,3.9-9.3
			c2.5-1.8,7,0.1,10.1-0.8c2.9-1,5.4-5.2,8.6-5.2c3.1,0,5.6,4,8.4,5.1c0.1,0,0.2,0.1,0.2,0.1c3,1,7.6-1,10.1,0.8
			c2.4,1.8,2.1,6.4,3.7,9c3-2.2,9.6-3.2,12.3-5.4c3.3-2.5,2.4-7.5,6.9-9.3c4.4-1.8,12.4,0.1,17.8-0.9c5.1-0.9,9.6-5.2,15.3-5.2
			c5.5,0,9.9,4,14.8,5.1c0.1,0,0.3,0.1,0.4,0.1c5.3,1,13.3-1,17.8,0.9c4.5,1.8,3.6,6.8,6.9,9.3c1.3,1,3.5,1.8,5.7,2.5
			c1.3-0.8,2.5-1.5,3.2-2.5c1.8-2.5,1.4-7.5,3.9-9.3c2.5-1.8,7.1,0.1,10.1-0.9c2.9-0.9,5.4-5.2,8.6-5.2c3.1,0,5.6,4,8.4,5.1
			c0.1,0,0.2,0.1,0.2,0.1c3,1,7.5-1,10.1,0.9c2.5,1.8,2.1,6.8,3.9,9.3c1.8,2.5,6.7,3.6,7.7,6.6C467.8,280.6,467.9,280.7,467.9,280.8
			z"/>
		<path id="XMLID_2265_" class="st56" d="M513.9,276.9l-2.9,1.8c-5.1,58.1-29.6,110.6-66.9,151c-6.6,7.1-13.6,13.9-21,20.2
			C378.3,488.6,319.9,512,256,512c-51.2,0-98.8-15-138.8-40.9c-34.1-22-62.6-51.9-82.9-87.1C16.3,353,4.7,317.9,1.2,280.5
			c12.8-3.3,30.5-7.4,51.5-11.2c7.6-1.3,15.6-2.6,24-3.8c15.1-2.1,31.3-4,48.5-5.2c10.8-0.8,21.9-1.2,33.3-1.4
			c26.3-0.4,53.9,1,81.7,5c5.3,0.8,10.7,1.7,16.1,2.6c1.6,0.3,3.3,0.6,4.9,0.9c0.1,0,0.1,0,0.2,0c4.3,0.8,8.6,1.6,12.9,2.2
			c2.1,0.3,4.1,0.6,6.2,0.8c7.6,0.9,18.6,2.1,31.8,3.4c3.4,0.3,6.9,0.7,10.6,1c0.6,0,1.1,0.1,1.7,0.2c4,0.3,8.1,0.7,12.4,1
			c4.1,0.3,8.3,0.6,12.5,0.9c37.2,2.5,80.7,3.8,115.1,0.2c1-0.1,1.9-0.2,2.8-0.3c3-0.4,6-0.7,8.8-1.2c11.3-1.7,21.3-4.1,29.2-7.3
			c2.3-1,4.5-2,6.5-3.1c-0.1,2.8-0.2,5.7-0.4,8.5C512.6,274.9,513.4,276,513.9,276.9z"/>
		<path id="XMLID_2191_" class="st148" d="M410.2,367.2c-5.1,2.6-12.1,5.1-20.4,7.7c-3.8,1.2-7.8,2.3-12.1,3.5
			c-0.5,0.1-1,0.3-1.5,0.4c-1.7,0.5-3.4,0.9-5.1,1.4c-2.2,0.5-4.4,1.1-6.6,1.7c-4.4,1.1-9,2.2-13.8,3.3c-4.7,1.1-9.5,2.2-14.4,3.3
			c-0.8,0.2-1.6,0.4-2.5,0.6c-2.5,0.6-5,1.1-7.6,1.7c-1.2,0.3-2.5,0.6-3.8,0.9c-4.3,1-8.8,2-13.2,3c-0.7,0.2-1.5,0.3-2.2,0.5
			c-6.8,1.5-13.6,3.1-20.4,4.7c-46.7,11-92.7,23.4-113.5,38.9c-17.4,12.9-36.1,24.1-56,32.5c-34.1-22-62.6-51.9-82.9-87.1
			c18.4-16,38.9-29.2,60.8-39.2c38.8-17.9,82-25.9,125.5-22.2c10,0.8,20.2,2.3,30.5,4.5c3.5,0.8,4.6,5.3,1.7,7.5l-19.4,14.9
			l-7.4,5.7c-3.6,2.8-1.1,8.6,3.5,7.8c14.9-2.8,37.5-6.5,63.4-8.9c3.2-0.3,6.5-0.6,9.9-0.8c4.3-0.3,8.7-0.6,13.2-0.8
			c4.5-0.2,9.1-0.4,13.8-0.5c2.3-0.1,4.7-0.1,7-0.1c4.6,0,9.3,0,14,0.1c5.6,0.1,11.3,0.3,16.9,0.7c0.4,0,0.8,0.1,1.1,0.1
			c4.2,0.3,8.4,0.6,12.6,1.1c1.7,0.2,3.3,0.4,5,0.6c3.7,0.4,7.3,0.9,10.9,1.5c3.9,0.6,7.8,1.3,11.6,2.1
			C413.6,358.7,414.4,365.1,410.2,367.2z"/>
		<path id="XMLID_2145_" class="st149" d="M440.7,145.2c0.5,1.3,0.8,2.7,0.8,4.1c0,11.5-18.3,20.9-40.8,20.9c-7.5,0-14.6-1-20.6-2.9
			c-11,8.8-30.3,14.7-52.3,14.7c-23.3,0-43.5-6.6-54.1-16.3c-6,1.5-12.7,2.3-19.8,2.3c-24.2,0-44-9.5-45.9-21.6
			c-8.5,1.4-17.6,2.2-27,2.2c-22.9,0-43.8-4.5-59.3-11.9c-6.2,2.5-13.7,3.9-21.7,3.9c-21.2,0-38.4-10-38.4-22.4
			c0-7.1,5.6-13.3,14.3-17.4c5.4-2.6,12.1-4.3,19.4-4.8c4.6-12.9,20.1-23.9,41.4-30.3c-1-2-1.5-4-1.5-6.2
			c0-12.4,17.2-22.4,38.4-22.4c17.2,0,31.7,6.6,36.6,15.6c4.5-4.7,10.3-9,17.2-12.8c6.9-3.8,14.9-7.1,23.7-9.7
			c0-12.4,17.2-22.4,38.4-22.4c17.9,0,32.9,7.1,37.2,16.8c13,1.6,25,4.5,35.6,8.3c6.7-6.6,19-11,33.1-11c21.2,0,38.4,10,38.4,22.4
			c0,0.9-0.1,1.8-0.3,2.7c30,5.2,53.8,17.2,64.2,32.4c3.8,5.5,5.8,11.3,5.8,17.4C503.4,118.5,477.6,137.2,440.7,145.2z"/>
		<path id="XMLID_2144_" class="st17" d="M440.7,110.3c0.5,1.3,0.8,2.7,0.8,4.1c0,11.5-18.3,20.9-40.8,20.9c-3.7,0-7.3-0.3-10.7-0.7
			c-6.2-0.9-12.6,0.2-18.1,3.1c-11.2,5.8-26.8,9.4-44.1,9.4c-23.3,0-43.5-6.6-54.1-16.3c-6,1.5-12.7,2.3-19.8,2.3
			c-17.4,0-32.5-4.9-40.3-12.1c-6-5.5-14-8.1-22.1-7.6c-3.5,0.2-7,0.3-10.6,0.3c-19.1,0-36.7-3.1-51-8.4c-5.3-2-11.1-2.2-16.7-1
			c-4.2,0.9-8.7,1.4-13.4,1.4c-9.1,0-17.5-1.8-24.1-4.9c5.4-2.6,12.1-4.3,19.4-4.8c4.6-12.9,20.1-23.9,41.4-30.3c-1-2-1.5-4-1.5-6.2
			c0-12.4,17.2-22.4,38.4-22.4c17.2,0,31.7,6.6,36.6,15.6c4.5-4.7,10.3-9,17.2-12.8c6.9-3.8,14.9-7.1,23.7-9.7
			c0-12.4,17.2-22.4,38.4-22.4c17.9,0,32.9,7.1,37.2,16.8c13,1.6,25,4.5,35.6,8.3c6.7-6.6,19-11,33.1-11c21.2,0,38.4,10,38.4,22.4
			c0,0.9-0.1,1.8-0.3,2.7c30,5.2,53.8,17.2,64.2,32.4C488,93.3,467.2,104.6,440.7,110.3z"/>
		<g id="XMLID_2140_">
			<path id="XMLID_2143_" class="st150" d="M364.2,417.3c0,0.1,0,0.1-0.1,0.2l-34.5-0.5c14.3-40.7,6.2-81,0.1-101.4
				c-11.3-38-8.4-78.1-0.3-115.9c5.2-24.2,11.6-41.1,11.9-41.8h20.9c-0.1,0.2-6,25.6-10.7,47.5c-7.1,33.3-5.5,68.7,4.5,102.4
				C363.1,331.3,380.9,369.4,364.2,417.3z"/>
			<path id="XMLID_2142_" class="st42" d="M364.2,417.3l-20.6-0.3c14.3-40.7,6.2-81,0.1-101.4c-11.3-38-8.4-78.1-0.3-115.9
				c5.2-24.2,11.6-41.1,11.9-41.8h6.9c-0.1,0.2-6,25.6-10.7,47.5c-7.1,33.3-5.5,68.7,4.5,102.4C363.1,331.3,380.9,369.4,364.2,417.3
				z"/>
			<path id="XMLID_2141_" class="st42" d="M471.5,88.1c-3.9,0-7,3.1-7,7c0,9.9-3.6,18.4-11.1,25.8c-10.4,10.4-26.7,17.1-43.6,21.6
				c6.2-8.8,11.8-21.4,12.9-38.7c7.2-2.1,13.9-8.4,20-18.9c1.4-2.4,0.6-5.4-1.8-6.8c-2.4-1.4-5.4-0.6-6.8,1.8
				c-2.8,4.8-6.7,10.3-11.2,13c-0.1-2.1-0.2-4.3-0.4-6.5c-0.3-3.9-3.7-6.7-7.6-6.4c-3.9,0.3-6.7,3.7-6.4,7.6
				c0.1,1.1,0.2,2.1,0.2,3.2c-6.3-5.1-11.4-14.2-13.2-18c-1.1-2.5-4.1-3.6-6.6-2.5c-2.5,1.1-3.6,4.1-2.5,6.6
				c1,2.3,9.3,19.7,22.3,25.7c-2.1,31.7-20.9,43-24.9,45.1c-23,3.3-42,3.2-42.4,3.3c-4.8-0.1-9.6-0.4-14.2-0.9
				c-4.3-2.3-23-13.9-24.8-46c13-5.9,21.3-23.4,22.3-25.7c1.1-2.5,0-5.5-2.5-6.6c-2.5-1.1-5.5,0-6.6,2.5c-1.8,3.9-6.9,12.8-13.1,18
				c0-0.7,0.1-1.4,0.1-2.2c0.3-3.9-2.5-7.2-6.4-7.6c-3.8-0.3-7.2,2.5-7.6,6.4c-0.2,1.9-0.3,3.7-0.4,5.5c-4.5-2.7-8.4-8.1-11.2-13
				c-1.4-2.4-4.4-3.2-6.8-1.8c-2.4,1.4-3.2,4.4-1.8,6.8c6.1,10.5,12.7,16.8,19.9,18.9c1.1,18.4,6.9,31.4,13.5,40.4
				c-9-2.3-17.5-5.3-25.6-9.1c-0.4-0.2-0.8-0.4-1.3-0.6c-8.9-4.2-17.3-9.4-25.1-15.4c-18.6-14.3-26.9-28.6-27.1-28.9
				c-1.9-3.4-6.2-4.6-9.5-2.7c-3.4,1.9-4.6,6.2-2.7,9.5c0.4,0.7,9.4,16.6,30.1,32.7c2.7,2.1,5.8,4.3,9.1,6.5
				c-21.8,0.6-55.3-2.5-75.9-24.4c5-4.5,8.7-11.8,11-22.1c0.6-2.7-1.1-5.4-3.8-6c-2.7-0.6-5.4,1.1-6,3.8c-1.3,5.8-3.6,12.7-7.5,16.5
				c-0.9-1.4-1.8-2.8-2.7-4.3c-1.9-3.4-6.1-4.6-9.5-2.7c-2.7,1.5-4,4.6-3.5,7.5c-6.7-3.4-13.1-9.4-15.7-12.3c-1.8-2.1-5-2.2-7.1-0.4
				c-2.1,1.8-2.3,5-0.4,7.1c1.8,2,16,17.5,30.9,18.1c14.5,18.2,37.3,29.4,66.6,32.6c6.4,0.7,12.6,1,18.3,1c12.8,0,22.9-1.4,27.2-2.1
				c14.2,6.4,31.5,11.6,52.2,13.9c0.3,0.1,0.6,0.1,0.9,0.1c5.2,0.5,10.6,0.9,16.2,1c0.2,0,0.5,0,0.9,0c9.8,0,87.9-1.1,121.1-34
				c10.1-10,15.3-22,15.3-35.7C478.5,91.3,475.4,88.1,471.5,88.1z"/>
		</g>
		<path id="XMLID_2182_" class="st151" d="M444.1,429.7c-6.6,7.1-13.6,13.9-21,20.2l-89.5-31.5l-0.2,0l-1.1-0.4l-2.9-1l2.8,0l1.5,0
			h0l30.3,0.3l0.5,0.1l2.5,0.4L444.1,429.7z"/>
		<path id="XMLID_2136_" class="st5" d="M381.2,355.1c-4.8,35.6-11.7,64-15.5,63.5c-3.8-0.5-2.9-29.8,1.9-65.4
			c3.6-27.1,10.7-49.7,13.9-59c0.5-1.6,1.9-1.4,2,0.3C384.1,304.4,384.9,328.1,381.2,355.1z"/>
		<path id="XMLID_2135_" class="st5" d="M330.2,354.8c4.9,35.6,5.8,64.8,2.1,65.4c-3.8,0.5-10.8-27.9-15.7-63.5
			c-3.7-27-3-50.7-2.4-60.5c0.1-1.7,1.4-1.9,2-0.3C319.3,305.2,326.4,327.8,330.2,354.8z"/>
		<path id="XMLID_2134_" class="st5" d="M319.5,376.9c11.5,21.6,17.3,41,13,43.3c-4.3,2.3-17.1-13.4-28.5-35.1
			c-8.7-16.5-11.7-32.9-12.6-39.9c-0.2-1.2,1.4-2,2.3-1.2C298.9,348.7,310.8,360.5,319.5,376.9z"/>
		<path id="XMLID_2133_" class="st5" d="M307.4,395.2c15.9,9.3,27,20,24.8,23.8c-2.2,3.8-17-0.6-32.9-9.9
			c-12.1-7.1-20.1-17.2-23.3-21.6c-0.5-0.8,0.3-2.1,1.2-2C282.6,386.1,295.3,388.1,307.4,395.2z"/>
		<path id="XMLID_2116_" class="st5" d="M392.5,368.3c-11.3,27.3-22.9,48.4-25.8,47.2c-2.9-1.2,4-24.3,15.3-51.5
			c8.6-20.7,19-37.2,23.5-43.9c0.8-1.2,1.8-0.7,1.5,0.6C405.5,328.6,401.1,347.6,392.5,368.3z"/>
	</g>
</g>
</svg>
