<?xml version="1.0" encoding="utf-8"?>
<!-- Generator: Adobe Illustrator 22.0.1, SVG Export Plug-In . SVG Version: 6.00 Build 0)  -->
<svg version="1.1" xmlns="http://www.w3.org/2000/svg" xmlns:xlink="http://www.w3.org/1999/xlink" x="0px" y="0px"
	 viewBox="0 0 512 512" style="enable-background:new 0 0 512 512;" xml:space="preserve">
<style type="text/css">
	.st0{fill:#4B71B4;}
	.st1{fill:#80B4E8;}
	.st2{fill:#594144;}
	.st3{fill:#B8E876;}
	.st4{fill:#E09122;}
	.st5{fill:#FBF355;}
	.st6{fill:#EEC82F;}
	.st7{fill:#CEA628;}
	.st8{fill:#9BC9EF;}
	.st9{fill:#9DD055;}
	.st10{fill:#5686C5;}
	.st11{fill:#3B5880;}
	.st12{fill:#C2E5FB;}
	.st13{fill:#446697;}
	.st14{fill:#D1F1A0;}
	.st15{fill:#ABD170;}
	.st16{fill:#9DBD6A;}
	.st17{fill:#649D53;}
	.st18{fill:#72B35D;}
	.st19{fill:#ABD68D;}
	.st20{fill:#7FB358;}
	.st21{fill:#920C50;}
	.st22{fill:#C60053;}
	.st23{fill:#530730;}
	.st24{fill:#600332;}
	.st25{fill:#D5AC2A;}
	.st26{fill:#EFD776;}
	.st27{fill:#A7C76D;}
	.st28{fill:#A43749;}
	.st29{fill:#DC4355;}
	.st30{fill:#E18696;}
	.st31{fill:#77A255;}
	.st32{fill:#628547;}
	.st33{fill:#6E994D;}
	.st34{fill:none;stroke:#54743C;stroke-width:8;stroke-linecap:round;stroke-miterlimit:10;}
	.st35{fill:#9BCF75;}
	.st36{fill:#CA8F80;}
	.st37{fill:#E6B8AB;}
	.st38{fill:#E2A18B;}
	.st39{fill:#8E3F2B;}
	.st40{fill:#D89988;}
	.st41{fill:#CFCFCF;}
	.st42{fill:#A64B2D;}
	.st43{fill:#FFFFFF;}
	.st44{fill:#CA801F;}
	.st45{fill:#719C50;}
	.st46{fill:#85B7E5;}
	.st47{fill:#4F7BA9;}
	.st48{fill:#674C50;}
	.st49{fill:#BAD7ED;}
	.st50{fill:#63494D;}
	.st51{fill:#503D3F;}
	.st52{fill:#638547;}
	.st53{fill:#56713E;}
	.st54{fill:#BB5135;}
	.st55{fill:#93C4EC;}
	.st56{fill:#CA8121;}
	.st57{fill:#FDFCFC;}
	.st58{fill:#A83A4F;}
	.st59{fill:#BD5E44;}
	.st60{fill:#688C4A;}
	.st61{fill:#7DA55A;}
	.st62{fill:#90BA51;}
	.st63{fill:none;}
	.st64{fill:#ABC287;}
	.st65{fill:#BDD993;}
	.st66{fill:none;stroke:#534046;stroke-width:15;stroke-linecap:round;stroke-linejoin:round;stroke-miterlimit:10;}
	.st67{fill:#413133;}
	.st68{fill:#34292B;}
	.st69{fill:#644B50;}
	.st70{fill:#CDACB7;}
	.st71{fill:#A83A4D;}
	.st72{fill:#413335;}
	.st73{fill:#DC6579;}
	.st74{fill:#4C393C;}
	.st75{fill:#527FAE;}
	.st76{fill:#92C2EA;}
	.st77{fill:#5B8C4A;}
	.st78{fill:#729C51;}
	.st79{fill:#AADB5E;}
	.st80{fill:#D66C53;}
	.st81{fill:#A65340;}
	.st82{fill:#B8594A;}
	.st83{fill:#79A754;}
	.st84{fill:#4E3B3E;}
	.st85{fill:#5E4649;}
	.st86{fill:#604A50;}
	.st87{fill:#685258;}
	.st88{fill:#765E66;}
	.st89{fill:#FCF69A;}
	.st90{fill:#D3CC84;}
	.st91{fill:#E6A572;}
	.st92{fill:#74A151;}
	.st93{fill:#6F994F;}
	.st94{fill:#CC6D7D;}
	.st95{fill:#AD6576;}
	.st96{fill:#95422D;}
	.st97{fill:#BE6850;}
	.st98{fill:#3B2F32;}
	.st99{fill:none;stroke:#46383B;stroke-width:15;stroke-linecap:round;stroke-miterlimit:10;}
	.st100{fill:none;stroke:#3B2F32;stroke-width:15;stroke-linecap:round;stroke-miterlimit:10;}
	.st101{fill:#D6CF77;}
	.st102{fill:#F5EF82;}
	.st103{fill:#4A383B;}
	.st104{fill:#CACACA;}
	.st105{fill:#48373A;}
	.st106{fill:#7AA8D2;}
	.st107{fill:#6E9150;}
	.st108{fill:#587441;}
	.st109{fill:#D76E51;}
	.st110{fill:#CCC475;}
	.st111{fill:#DDD57E;}
	.st112{fill:#F8F19C;}
	.st113{fill:#FBF58A;}
	.st114{fill:#C67F20;}
	.st115{fill:#AB6B1C;}
	.st116{fill:#C98020;}
	.st117{fill:#D99A41;}
	.st118{fill:#DBA35B;}
	.st119{fill:#9B5F1B;}
	.st120{fill:#97CF6D;}
	.st121{fill:#5380B1;}
	.st122{fill:#96D16A;}
	.st123{fill:#92BD50;}
	.st124{fill:#7EB058;}
	.st125{fill:#709A50;}
	.st126{fill:#5A8A4A;}
	.st127{fill:#D9D9D9;}
	.st128{fill:#75A3CD;}
	.st129{fill:#6E974F;}
	.st130{fill:#CA6D7D;}
	.st131{fill:#AB6576;}
	.st132{fill:#93422D;}
	.st133{fill:#A44B2D;}
	.st134{fill:#BC6850;}
	.st135{fill:#DFB52B;}
	.st136{fill:#4C3A3C;}
	.st137{fill:#473538;}
	.st138{fill:#382B2E;}
	.st139{fill:none;stroke:#FFFFFF;stroke-width:8;stroke-linecap:round;stroke-miterlimit:10;}
	.st140{fill:#90C0E8;}
	.st141{fill:none;stroke:#E09122;stroke-width:12;stroke-linecap:round;stroke-miterlimit:10;}
	.st142{fill:#DCAE2B;}
	.st143{fill:#F0D05A;}
	.st144{fill:#729E51;}
	.st145{fill:#E4BA36;}
	.st146{fill:#F8F283;}
	.st147{fill:#E4B6A9;}
	.st148{fill:#D78E30;}
	.st149{fill:#598A49;}
	.st150{fill:#B65339;}
	.st151{fill:#BA751F;}
	.st152{fill:#466A9F;}
	.st153{fill:#8BB34D;}
	.st154{fill:#9BCE54;}
	.st155{fill:#7F9F49;}
	.st156{fill:#D37F6D;}
	.st157{fill:#BB5E44;}
	.st158{fill:#93BB55;}
	.st159{fill:#B3E665;}
	.st160{fill:none;stroke:#4C393C;stroke-width:8;stroke-miterlimit:10;}
	.st161{fill:#97432D;}
	.st162{fill:#DAB12A;}
	.st163{fill:#5E914C;}
	.st164{fill:#5381B3;}
	.st165{fill:#6A8F4C;}
	.st166{fill:#628047;}
	.st167{fill:#E29D37;}
	.st168{fill:#6E555B;}
	.st169{fill:#91CA67;}
	.st170{fill:#476BA1;}
	.st171{fill:#6699D9;}
	.st172{fill:#503C3E;}
	.st173{fill:#413235;}
	.st174{fill:#CC916A;}
	.st175{fill:#BA8363;}
	.st176{fill:#D09571;}
	.st177{fill:#C98F68;}
	.st178{fill:#AA3B4D;}
	.st179{fill:#DA6075;}
	.st180{fill:#92452D;}
	.st181{fill:#A24B2D;}
	.st182{fill:#B76252;}
	.st183{fill:#87BD60;}
	.st184{fill:#78A7D2;}
	.st185{fill:#F9F38F;}
	.st186{fill:#E0D650;}
	.st187{fill:#AFE086;}
	.st188{fill:#9FD476;}
	.st189{fill:#9DD176;}
	.st190{fill:#8FC468;}
	.st191{fill:#7EAE58;}
	.st192{fill:#6F9850;}
	.st193{fill:#59884A;}
	.st194{fill:#638347;}
	.st195{fill:#B95135;}
	.st196{fill:#E5AB62;}
	.st197{fill:#733228;}
	.st198{fill:#803728;}
	.st199{fill:#6D974D;}
	.st200{fill:#99CD75;}
	.st201{fill:#93412C;}
	.st202{fill:#93C2EA;}
	.st203{fill:#CD926B;}
	.st204{fill:#E6AF8A;}
	.st205{fill:#E5DB4E;}
	.st206{fill:#FBF375;}
	.st207{fill:#779E54;}
	.st208{fill:#D3966D;}
	.st209{fill:#DA4355;}
	.st210{fill:#A83B4D;}
	.st211{fill:none;stroke:#594144;stroke-width:8;stroke-linecap:round;stroke-miterlimit:10;}
	.st212{fill:#E5A855;}
	.st213{fill:#EAC291;}
	.st214{fill:#96C252;}
	.st215{fill:#695055;}
	.st216{fill:#DC9C42;}
	.st217{fill:#8E5C1B;}
	.st218{fill:#F4EB6A;}
	.st219{fill:#CBC049;}
	.st220{fill:none;stroke:#B8E876;stroke-width:15;stroke-linecap:round;stroke-miterlimit:10;}
	.st221{fill:#A36A1C;}
	.st222{fill:#ECC94A;}
	.st223{fill:#91BEDA;}
	.st224{fill:#3D2F32;}
	.st225{fill:#A6394C;}
	.st226{fill:#33292B;}
	.st227{fill:#4F3D42;}
	.st228{fill:#638147;}
	.st229{fill:#CD8321;}
	.st230{fill:#D3CA4A;}
	.st231{fill:#E2A550;}
	.st232{fill:#B75135;}
	.st233{fill:#D4CD77;}
	.st234{fill:#F3EC80;}
	.st235{fill:#46383B;}
	.st236{fill:#82AA61;}
	.st237{fill:#8EBF69;}
	.st238{fill:#3C2E31;}
	.st239{fill:#C49F27;}
	.st240{fill:#D2BF7C;}
	.st241{fill:#F6E18D;}
	.st242{fill:#D6D6D6;}
	.st243{fill:#B5D7F2;}
	.st244{fill:#F1D467;}
	.st245{fill:#739FBD;}
	.st246{fill:#D0946C;}
	.st247{fill:#BE8767;}
	.st248{fill:#D0A829;}
	.st249{fill:#F6DF86;}
	.st250{fill:#EABA8D;}
	.st251{fill:#F0D1B8;}
	.st252{fill:#A5D0F1;}
	.st253{fill:#E3A13F;}
	.st254{fill:#F0FAFF;}
	.st255{fill:#B4D3E3;}
	.st256{fill:#80A5C3;}
	.st257{fill:#87AFD5;}
	.st258{fill:#B1D1E7;}
	.st259{fill:#AED66F;}
	.st260{fill:#91AA61;}
	.st261{fill:#A8384B;}
	.st262{fill:#CD8120;}
	.st263{fill:#E6AD56;}
	.st264{fill:none;stroke:#E6AD56;stroke-width:8;stroke-linecap:round;stroke-miterlimit:10;}
	.st265{fill:#9EBD68;}
	.st266{fill:#AAD16E;}
	.st267{fill:#86656B;}
	.st268{fill:#6D954D;}
	.st269{fill:#98CB75;}
	.st270{fill:#75A251;}
	.st271{fill:#91BD4F;}
	.st272{fill:none;stroke:#B8E078;stroke-width:8;stroke-linecap:round;stroke-miterlimit:10;}
	.st273{fill:none;stroke:#B8E078;stroke-width:8;stroke-linecap:round;stroke-linejoin:round;stroke-miterlimit:10;}
	.st274{fill:#8FBA4E;}
	.st275{fill:#B3E860;}
	.st276{fill:#E7A748;}
	.st277{fill:none;stroke:#B6E676;stroke-width:15;stroke-linecap:round;stroke-miterlimit:10;}
	.st278{fill:#639B53;}
	.st279{fill:#476B9F;}
	.st280{fill:#82B1DE;}
	.st281{fill:#A6533F;}
	.st282{fill:#C28A69;}
	.st283{fill:#64494E;}
	.st284{fill:#77565C;}
	.st285{fill:#4F3C40;}
	.st286{fill:#ECCCB1;}
	.st287{fill:#BF6F5C;}
	.st288{fill:none;stroke:#D4F1A7;stroke-width:10;stroke-linecap:round;stroke-miterlimit:10;}
	.st289{fill:none;stroke:#B8E876;stroke-width:10;stroke-linecap:round;stroke-miterlimit:10;}
	.st290{fill:#47688F;}
	.st291{fill:#3F5B78;}
	.st292{fill:#354E6C;}
	.st293{fill:#DAB12B;}
	.st294{fill:#C8A028;}
	.st295{fill:#F0D15C;}
	.st296{fill:#F8F28B;}
	.st297{fill:#F7F18D;}
	.st298{fill:#DED450;}
	.st299{fill:#F9F155;}
	.st300{fill:#A2CFF4;}
	.st301{fill:none;stroke:#594144;stroke-width:10;stroke-linecap:round;stroke-miterlimit:10;}
	.st302{fill:#F5F0AB;}
	.st303{fill:#496DA1;}
	.st304{fill:#5A85C7;}
	.st305{fill:#D7D7D7;}
	.st306{fill:#ADD3E6;}
	.st307{fill:#98B8C3;}
	.st308{fill:#CDCECF;}
	.st309{fill:#BF4F69;}
	.st310{fill:#A83448;}
	.st311{fill:#A4DAF7;}
	.st312{fill:#81A861;}
	.st313{fill:#82A549;}
	.st314{fill:#B6E676;}
	.st315{fill:#8CBD69;}
	.st316{fill:#ECC62F;}
	.st317{fill:#F4EA80;}
	.st318{fill:#D6AD2B;}
	.st319{fill:#6F9151;}
	.st320{fill:#46699C;}
	.st321{fill:#4A373A;}
	.st322{fill:#89B04C;}
	.st323{fill:#99CC53;}
	.st324{fill:#B1E465;}
	.st325{fill:#E19E3B;}
	.st326{fill:#C05970;}
	.st327{fill:#D95F74;}
	.st328{fill:#74A8DE;}
	.st329{fill:#C47C1E;}
	.st330{fill:#719A51;}
	.st331{fill:#A8D95E;}
	.st332{fill:#D46C53;}
	.st333{fill:#A45340;}
	.st334{fill:#B6594A;}
	.st335{fill:#79A554;}
	.st336{fill:#B6DAF7;}
	.st337{fill:#739F51;}
	.st338{fill:#DDB32B;}
	.st339{fill:#DE8F22;}
	.st340{fill:none;stroke:#46383B;stroke-width:8;stroke-linecap:round;stroke-miterlimit:10;}
	.st341{fill:none;stroke:#3B2F32;stroke-width:8;stroke-linecap:round;stroke-miterlimit:10;}
	.st342{fill:#C8C8C8;}
	.st343{fill:#7F9D49;}
	.st344{fill:#BA5E44;}
	.st345{fill:#92B955;}
	.st346{fill:#D17F6D;}
	.st347{fill:#5D8F4C;}
	.st348{fill:#B75334;}
	.st349{fill:#CA6D57;}
	.st350{fill:#A4574D;}
	.st351{fill:#7FB1E6;}
	.st352{fill:#77A3CD;}
	.st353{fill:#90BA4F;}
	.st354{fill:#5C8F4B;}
	.st355{fill:#ACDE5D;}
	.st356{fill:#6FAC5A;}
	.st357{fill:none;stroke:#9DD055;stroke-width:10;stroke-linecap:round;stroke-miterlimit:10;}
	.st358{fill:#AD5643;}
	.st359{fill:#B96052;}
	.st360{fill:#CB8D84;}
	.st361{fill:#CC6C56;}
	.st362{fill:#DE9A8E;}
	.st363{fill:#D37B6A;}
	.st364{fill:#A87758;}
	.st365{fill:#372A2C;}
	.st366{fill:#B8815C;}
	.st367{fill:#433335;}
	.st368{fill:#2C2325;}
	.st369{fill:#95402B;}
	.st370{fill:#A85441;}
	.st371{fill:#D2C74B;}
	.st372{fill:#B25945;}
	.st373{fill:none;stroke:#594144;stroke-width:15;stroke-linecap:round;stroke-miterlimit:10;}
	.st374{fill:none;stroke:#594144;stroke-width:12;stroke-linecap:round;stroke-miterlimit:10;}
	.st375{fill:#8F473B;}
	.st376{fill:#453538;}
	.st377{fill:#517DAB;}
	.st378{fill:#75A050;}
	.st379{fill:#A5384D;}
	.st380{fill:#CC6075;}
	.st381{fill:#F26B7F;}
	.st382{fill:#C67189;}
	.st383{fill:#B26980;}
	.st384{fill:#D87990;}
	.st385{fill:#F2869B;}
	.st386{fill:#EF8499;}
	.st387{fill:#649CD7;}
	.st388{fill:#639CDB;}
	.st389{fill:#C8ED8D;}
	.st390{fill:#A9DB83;}
	.st391{fill:#9BCF76;}
	.st392{fill:#7EAC58;}
	.st393{fill:#8CC463;}
	.st394{fill:#7FAC5B;}
	.st395{fill:#769C55;}
	.st396{fill:#6A894D;}
	.st397{fill:#769B56;}
	.st398{fill:#9BCC75;}
	.st399{fill:#AF5641;}
	.st400{fill:#F4D576;}
	.st401{fill:#76A055;}
	.st402{fill:#628347;}
	.st403{fill:#4F7B9F;}
	.st404{fill:#466D86;}
	.st405{fill:#4D789C;}
</style>
<g id="BULINE">
	<circle id="XMLID_1841_" class="st1" cx="256" cy="256" r="256"/>
</g>
<g id="Icons">
	<g id="XMLID_1948_">
		<circle id="XMLID_2054_" class="st106" cx="248.3" cy="280.2" r="208.2"/>
		<g id="XMLID_1951_">
			<path id="XMLID_2053_" class="st140" d="M156.3,189.6c0-17.9-14.5-32.3-32.3-32.3c-5,0-9.7,1.1-13.9,3.2
				c-6.9-8.6-17.6-14.1-29.5-14.1c-16.9,0-31.2,11.1-36,26.3c-1.9-0.5-3.9-0.7-5.9-0.7c-13.8,0-25,11.2-25,25c0,13.8,11.2,25,25,25
				h85.9v0C142.1,221.6,156.3,207.3,156.3,189.6z"/>
			<path id="XMLID_2049_" class="st2" d="M468.7,341.7c-6.3,0-12,2.1-16.6,5.7c-1.6-1.7-3.4-3.2-5.3-4.6c-4.3-3.1-9.3-5.4-14.7-6.5
				c-1.6-0.3-3.1-0.6-4.8-0.7c0,0,0,0,0,0c-1.2-0.1-2.4-0.2-3.6-0.2c-8.2,0-15.9,2.5-22.2,6.9c-1.6,1.1-3.2,2.3-4.6,3.7
				c-1.1-3.4-3.1-6.4-5.7-8.8c-3.8-3.5-8.8-5.6-14.3-5.6c-2.2,0-4.3,0.3-6.3,1c-4,1.3-7.5,3.7-10,6.8c-1.2,1.5-2.2,3.2-3,5
				c-1.9-2.4-4-4.5-6.4-6.4c-6.7-5.4-15.2-8.6-24.5-8.6c-12,0-22.7,5.3-29.9,13.8c0-0.1-0.1-0.1-0.1-0.2c-1.9-2.7-4.3-5-7-6.9
				c-3.7-2.5-8.1-4.1-12.8-4.5c-0.8-0.1-1.6-0.1-2.3-0.1c-6.1,0-11.8,2-16.3,5.4c-0.7-1.9-1.6-3.7-2.7-5.3
				c-4.8-7.4-13.2-12.3-22.7-12.3c-3.9,0-7.6,0.8-11,2.3c-4,1.8-7.5,4.5-10.2,7.8c-0.8,1-1.6,2.1-2.2,3.2c-1.3,2.3-2.4,4.7-3,7.3
				c-2.6-2.4-5.5-4.5-8.7-6.2c-5.4-2.8-11.6-4.4-18.1-4.4c-4.5,0-8.9,0.8-12.9,2.2c-0.6,0.2-1.3,0.4-1.9,0.7c0,0,0,0,0,0
				c-3.8,1.5-7.3,3.7-10.4,6.2c-1.1-3.7-3-7-5.4-9.8c-2-2.3-4.4-4.3-7.1-5.8c-4-2.3-8.6-3.6-13.5-3.6c-1.3,0-2.6,0.1-3.8,0.3
				c-0.7,0.1-1.3,0.2-1.9,0.3c-0.1,0-0.1,0-0.2,0c-0.1,0-0.1,0-0.2,0c-3.9,0.9-7.6,2.7-10.6,5.1c-2.9,2.3-5.4,5.2-7.2,8.5
				c-0.8,1.5-1.5,3.2-2,4.9c-6.2-5.1-13.9-8.4-22.4-9c-0.9-0.1-1.8-0.1-2.8-0.1c-11.1,0-21,4.6-28.2,11.9c-2.5,2.6-4.7,5.5-6.4,8.7
				c-4.9-5.2-11.9-8.4-19.6-8.4c-2.8,0-5.5,0.4-8,1.2c4.6,12.8,10.2,25.1,16.7,36.8C75.5,458.6,159.5,512,256,512
				c8.6,0,17.1-0.4,25.5-1.2c86.2-8.5,159.8-59.8,199.4-132.3c4.1-7.5,7.9-15.3,11.2-23.3C487.4,347.1,478.7,341.7,468.7,341.7z
				 M249.2,368.2c0.1,0.2,0.2,0.4,0.3,0.7h-1.2C248.6,368.6,248.9,368.4,249.2,368.2z"/>
			<g id="XMLID_2029_">
				<line id="XMLID_2048_" class="st141" x1="74.6" y1="103.6" x2="74.6" y2="69.4"/>
				<line id="XMLID_2047_" class="st141" x1="169" y1="103.6" x2="169" y2="69.4"/>
				<path id="XMLID_2046_" class="st142" d="M121.1,164.1l-19.3-5.1c-0.1,0-0.2-0.1-0.3-0.1c-22.3-6-36.3-27.7-33.1-50.1
					c0.2-1.7,0.6-3.4,1-5.2l19.3,5.1C113,115,127.5,139.8,121.1,164.1z"/>
				<path id="XMLID_2045_" class="st142" d="M121.1,219l-19.3-5.1c-0.1,0-0.2-0.1-0.3-0.1c-22.3-6-36.3-27.7-33.1-50.1
					c0.2-1.7,0.6-3.4,1-5.2l19.3,5.1C113,170,127.5,194.8,121.1,219z"/>
				<path id="XMLID_2044_" class="st142" d="M121.1,273.6l-19.3-5.1c-0.1,0-0.2-0.1-0.3-0.1c-22.3-6-36.3-27.7-33.1-50.1
					c0.2-1.7,0.6-3.4,1-5.2l19.3,5.1C113,224.5,127.5,249.3,121.1,273.6z"/>
				<path id="XMLID_2043_" class="st142" d="M121.1,327.6l-19.3-5.1c-0.1,0-0.2-0.1-0.3-0.1c-22.3-6-36.3-27.7-33.1-50.1
					c0.2-1.7,0.6-3.4,1-5.1l19.3,5.1C113,278.6,127.5,303.4,121.1,327.6z"/>
				<path id="XMLID_2042_" class="st6" d="M101.5,158.9c-22.3-6-36.3-27.7-33.1-50.1C90.7,114.8,104.7,136.5,101.5,158.9z"/>
				<path id="XMLID_2041_" class="st6" d="M101.5,213.8c-22.3-6-36.3-27.7-33.1-50.1C90.7,169.7,104.7,191.4,101.5,213.8z"/>
				<path id="XMLID_2040_" class="st6" d="M101.5,268.4c-22.3-6-36.3-27.7-33.1-50.1C90.7,224.3,104.7,246,101.5,268.4z"/>
				<path id="XMLID_2039_" class="st6" d="M101.5,322.5c-22.3-6-36.3-27.7-33.1-50.1C90.7,278.4,104.7,300.1,101.5,322.5z"/>
				<path id="XMLID_2038_" class="st6" d="M143.4,159l-1.2,0.3l-18.1,4.7c-6.3-24.2,8.2-49,32.4-55.4l19.3-5.1
					c0.4,1.6,0.7,3.2,1,4.7C180.2,131,166.1,153.1,143.4,159z"/>
				<path id="XMLID_2037_" class="st6" d="M143.4,213.9l-1.2,0.3l-18.1,4.7c-6.3-24.2,8.2-49,32.4-55.4l19.3-5.1
					c0.4,1.6,0.7,3.2,1,4.7C180.2,186,166.1,208,143.4,213.9z"/>
				<path id="XMLID_2036_" class="st6" d="M143.4,268.5l-1.2,0.3l-18.1,4.7c-6.3-24.2,8.2-49,32.4-55.4l19.3-5.1
					c0.4,1.6,0.7,3.2,1,4.7C180.2,240.5,166.1,262.5,143.4,268.5z"/>
				<path id="XMLID_2035_" class="st6" d="M143.4,322.6l-1.2,0.3l-18.1,4.7c-6.3-24.2,8.2-49,32.4-55.4l19.3-5.1
					c0.4,1.6,0.7,3.2,1,4.7C180.2,294.6,166.1,316.7,143.4,322.6z"/>
				<path id="XMLID_2034_" class="st143" d="M143.4,159l-1.2,0.3c-3.4-22.6,10.7-44.7,33.3-50.6l1.2-0.3
					C180.2,131,166.1,153.1,143.4,159z"/>
				<path id="XMLID_2033_" class="st143" d="M143.4,213.9l-1.2,0.3c-3.4-22.6,10.7-44.7,33.3-50.6l1.2-0.3
					C180.2,186,166.1,208,143.4,213.9z"/>
				<path id="XMLID_2032_" class="st143" d="M143.4,268.5l-1.2,0.3c-3.4-22.6,10.7-44.7,33.3-50.6l1.2-0.3
					C180.2,240.5,166.1,262.5,143.4,268.5z"/>
				<path id="XMLID_2031_" class="st143" d="M143.4,322.6l-1.2,0.3c-3.4-22.6,10.7-44.7,33.3-50.6l1.2-0.3
					C180.2,294.6,166.1,316.7,143.4,322.6z"/>
				<line id="XMLID_2030_" class="st141" x1="122.6" y1="55.8" x2="122.6" y2="407.3"/>
			</g>
			<path id="XMLID_2028_" class="st144" d="M173.2,312.8c0,0-1.8,7.5-6.2,18.3c-4.4,10.7-11.4,24.8-22,38c-1.8,2.3-3.7,4.6-5.6,6.8
				c-5.3,6.3-10.6,12-15.5,16.9c-5-4.8-10.2-10.5-15.6-16.8c-1.9-2.2-3.7-4.5-5.6-6.8c-10.5-13.3-17.6-27.3-22-38
				c-4.4-10.8-6.2-18.3-6.2-18.3s27.3,13.5,48.5,40.2c0.3,0.3,0.6,0.7,0.8,1.1c0.3-0.3,0.5-0.7,0.8-1
				C145.9,326.3,173.2,312.8,173.2,312.8z"/>
			<path id="XMLID_2027_" class="st144" d="M440.7,312.8c0,0-1.8,7.5-6.2,18.3c-4.4,10.7-11.4,24.8-22,38c-1.9,2.3-3.7,4.6-5.6,6.8
				c-5.3,6.3-10.6,12-15.5,16.9c-5-4.8-10.2-10.5-15.6-16.8c-1.9-2.2-3.7-4.5-5.6-6.8c-10.6-13.3-17.6-27.3-22-38
				c-4.4-10.8-6.2-18.3-6.2-18.3s27.3,13.5,48.5,40.2c0.3,0.3,0.6,0.7,0.8,1.1c0.3-0.3,0.5-0.7,0.8-1
				C413.4,326.3,440.7,312.8,440.7,312.8z"/>
			<path id="XMLID_2026_" class="st20" d="M167,331c-4.4,10.7-11.4,24.8-22,38c-1.8,2.3-3.7,4.6-5.6,6.8c-5.3,6.3-10.6,12-15.5,16.9
				c-5-4.8-10.2-10.5-15.6-16.8c-1.9-2.2-3.7-4.5-5.6-6.8c-10.5-13.3-17.6-27.3-22-38c9.3,5.6,27.3,17.9,42.3,36.7
				c0.3,0.3,0.6,0.7,0.8,1.1c0.3-0.3,0.5-0.7,0.8-1C139.7,348.9,157.8,336.6,167,331z"/>
			<path id="XMLID_2025_" class="st20" d="M434.5,331.1c-4.4,10.7-11.4,24.8-22,38c-1.9,2.3-3.7,4.6-5.6,6.8
				c-5.3,6.3-10.6,12-15.5,16.9c-5-4.8-10.2-10.5-15.6-16.8c-1.9-2.2-3.7-4.5-5.6-6.8c-10.6-13.3-17.6-27.3-22-38
				c9.3,5.6,27.3,17.9,42.3,36.7c0.3,0.3,0.6,0.7,0.8,1.1c0.3-0.3,0.5-0.7,0.8-1C407.2,348.9,425.2,336.6,434.5,331.1z"/>
			<path id="XMLID_2023_" class="st144" d="M310.3,308.4c0,0-1.7,7.3-6,18.2c-4.8,12.1-12.8,28.7-25.2,44.3c-2,2.6-4.1,5.1-6.2,7.5
				c-5.9,7-11.8,13.3-17.2,18.7c-5.5-5.4-11.3-11.7-17.2-18.7c-2.1-2.4-4.1-5-6.2-7.6c-12.4-15.6-20.4-32.1-25.2-44.3
				c-4.3-10.9-6.1-18.2-6.1-18.2s30.3,15,53.8,44.6c0.3,0.4,0.6,0.8,0.9,1.2c0.3-0.4,0.6-0.8,0.9-1.2
				C280,323.4,310.3,308.4,310.3,308.4z"/>
			<path id="XMLID_2021_" class="st20" d="M304.3,326.6c-4.8,12.1-12.8,28.7-25.2,44.3c-2,2.6-4.1,5.1-6.2,7.5
				c-5.9,7-11.8,13.3-17.2,18.7c-5.5-5.4-11.3-11.7-17.2-18.7c-2.1-2.4-4.1-5-6.2-7.6c-12.4-15.6-20.4-32.1-25.2-44.3
				c10,6,30.7,19.7,47.7,41.2c0.3,0.4,0.6,0.8,0.9,1.2c0.3-0.4,0.6-0.8,0.9-1.2C273.6,346.3,294.3,332.5,304.3,326.6z"/>
			<path id="XMLID_2020_" class="st140" d="M403.8,82.5c0-17.9-14.5-32.3-32.3-32.3c-5,0-9.7,1.1-13.9,3.2
				c-6.9-8.6-17.6-14.1-29.5-14.1c-16.9,0-31.2,11.1-36,26.3c-1.9-0.5-3.9-0.7-5.9-0.7c-13.8,0-25,11.2-25,25c0,13.8,11.2,25,25,25
				h85.9v0C389.7,114.5,403.8,100.2,403.8,82.5z"/>
			<path id="XMLID_2018_" class="st140" d="M473.8,281c0-17.9-14.5-32.3-32.3-32.3c-5,0-9.7,1.1-13.9,3.2
				c-6.9-8.6-17.6-14.1-29.5-14.1c-16.9,0-31.2,11.1-36,26.3c-1.9-0.5-3.9-0.7-5.9-0.7c-13.8,0-25,11.2-25,25c0,13.8,11.2,25,25,25
				h85.9v0C459.7,313,473.8,298.6,473.8,281z"/>
			<g id="XMLID_1990_">
				<line id="XMLID_2017_" class="st141" x1="207.6" y1="56.2" x2="207.6" y2="21.9"/>
				<line id="XMLID_2016_" class="st141" x1="302" y1="56.2" x2="302" y2="21.9"/>
				<path id="XMLID_2015_" class="st142" d="M254.1,116.6l-19.3-5.1c-0.1,0-0.2-0.1-0.3-0.1c-22.3-6-36.3-27.7-33.1-50.1
					c0.2-1.7,0.6-3.4,1-5.2l19.3,5.1C246,67.6,260.5,92.4,254.1,116.6z"/>
				<path id="XMLID_2014_" class="st142" d="M254.1,171.6l-19.3-5.1c-0.1,0-0.2-0.1-0.3-0.1c-22.3-6-36.3-27.7-33.1-50.1
					c0.2-1.7,0.6-3.4,1-5.2l19.3,5.1C246,122.5,260.5,147.3,254.1,171.6z"/>
				<path id="XMLID_2013_" class="st142" d="M254.1,226.1l-19.3-5.1c-0.1,0-0.2-0.1-0.3-0.1c-22.3-6-36.3-27.7-33.1-50.1
					c0.2-1.7,0.6-3.4,1-5.2l19.3,5.1C246,177.1,260.5,201.9,254.1,226.1z"/>
				<path id="XMLID_2012_" class="st142" d="M254.1,280.2l-19.3-5.1c-0.1,0-0.2-0.1-0.3-0.1c-22.3-6-36.3-27.7-33.1-50.1
					c0.2-1.7,0.6-3.4,1-5.1l19.3,5.1C246,231.2,260.5,256,254.1,280.2z"/>
				<path id="XMLID_2011_" class="st6" d="M234.5,111.5c-22.3-6-36.3-27.7-33.1-50.1C223.7,67.4,237.7,89.1,234.5,111.5z"/>
				<path id="XMLID_2010_" class="st6" d="M234.5,166.4c-22.3-6-36.3-27.7-33.1-50.1C223.7,122.3,237.7,144,234.5,166.4z"/>
				<path id="XMLID_2009_" class="st6" d="M234.5,221c-22.3-6-36.3-27.7-33.1-50.1C223.7,176.9,237.7,198.6,234.5,221z"/>
				<path id="XMLID_2008_" class="st6" d="M234.5,275.1c-22.3-6-36.3-27.7-33.1-50.1C223.7,231,237.7,252.7,234.5,275.1z"/>
				<path id="XMLID_2007_" class="st6" d="M276.4,111.6l-1.2,0.3l-18.1,4.7c-6.3-24.2,8.2-49,32.4-55.4l19.3-5.1
					c0.4,1.6,0.7,3.2,1,4.7C313.2,83.6,299.1,105.6,276.4,111.6z"/>
				<path id="XMLID_2006_" class="st6" d="M276.4,166.5l-1.2,0.3l-18.1,4.7c-6.3-24.2,8.2-49,32.4-55.4l19.3-5.1
					c0.4,1.6,0.7,3.2,1,4.7C313.2,138.5,299.1,160.6,276.4,166.5z"/>
				<path id="XMLID_2005_" class="st6" d="M276.4,221l-1.2,0.3l-18.1,4.7c-6.3-24.2,8.2-49,32.4-55.4l19.3-5.1
					c0.4,1.6,0.7,3.2,1,4.7C313.2,193.1,299.1,215.1,276.4,221z"/>
				<path id="XMLID_2004_" class="st6" d="M276.4,275.2l-1.2,0.3l-18.1,4.7c-6.3-24.2,8.2-49,32.4-55.4l19.3-5.1
					c0.4,1.6,0.7,3.2,1,4.7C313.2,247.2,299.1,269.2,276.4,275.2z"/>
				<path id="XMLID_2003_" class="st143" d="M276.4,111.6l-1.2,0.3c-3.4-22.6,10.7-44.7,33.3-50.6l1.2-0.3
					C313.2,83.6,299.1,105.6,276.4,111.6z"/>
				<path id="XMLID_1996_" class="st143" d="M276.4,166.5l-1.2,0.3c-3.4-22.6,10.7-44.7,33.3-50.6l1.2-0.3
					C313.2,138.5,299.1,160.6,276.4,166.5z"/>
				<path id="XMLID_1994_" class="st143" d="M276.4,221l-1.2,0.3c-3.4-22.6,10.7-44.7,33.3-50.6l1.2-0.3
					C313.2,193.1,299.1,215.1,276.4,221z"/>
				<path id="XMLID_1993_" class="st143" d="M276.4,275.2l-1.2,0.3c-3.4-22.6,10.7-44.7,33.3-50.6l1.2-0.3
					C313.2,247.2,299.1,269.2,276.4,275.2z"/>
				<line id="XMLID_1992_" class="st141" x1="255.6" y1="8.4" x2="255.6" y2="359.9"/>
			</g>
			<g id="XMLID_1958_">
				<line id="XMLID_1989_" class="st141" x1="343.4" y1="103.6" x2="343.4" y2="69.4"/>
				<line id="XMLID_1988_" class="st141" x1="437.8" y1="103.6" x2="437.8" y2="69.4"/>
				<path id="XMLID_1987_" class="st142" d="M389.9,164.1l-19.3-5.1c-0.1,0-0.2-0.1-0.3-0.1c-22.3-6-36.3-27.7-33.1-50.1
					c0.2-1.7,0.6-3.4,1-5.2l19.3,5.1C381.7,115,396.2,139.8,389.9,164.1z"/>
				<path id="XMLID_1986_" class="st142" d="M389.9,219l-19.3-5.1c-0.1,0-0.2-0.1-0.3-0.1c-22.3-6-36.3-27.7-33.1-50.1
					c0.2-1.7,0.6-3.4,1-5.2l19.3,5.1C381.7,170,396.2,194.8,389.9,219z"/>
				<path id="XMLID_1975_" class="st142" d="M389.9,273.6l-19.3-5.1c-0.1,0-0.2-0.1-0.3-0.1c-22.3-6-36.3-27.7-33.1-50.1
					c0.2-1.7,0.6-3.4,1-5.2l19.3,5.1C381.7,224.5,396.2,249.3,389.9,273.6z"/>
				<path id="XMLID_1973_" class="st142" d="M389.9,327.6l-19.3-5.1c-0.1,0-0.2-0.1-0.3-0.1c-22.3-6-36.3-27.7-33.1-50.1
					c0.2-1.7,0.6-3.4,1-5.1l19.3,5.1C381.7,278.6,396.2,303.4,389.9,327.6z"/>
				<path id="XMLID_1972_" class="st6" d="M370.2,158.9c-22.3-6-36.3-27.7-33.1-50.1C359.5,114.8,373.5,136.5,370.2,158.9z"/>
				<path id="XMLID_1971_" class="st6" d="M370.2,213.8c-22.3-6-36.3-27.7-33.1-50.1C359.5,169.7,373.5,191.4,370.2,213.8z"/>
				<path id="XMLID_1970_" class="st6" d="M370.2,268.4c-22.3-6-36.3-27.7-33.1-50.1C359.5,224.3,373.5,246,370.2,268.4z"/>
				<path id="XMLID_1969_" class="st6" d="M370.2,322.5c-22.3-6-36.3-27.7-33.1-50.1C359.5,278.4,373.5,300.1,370.2,322.5z"/>
				<path id="XMLID_1968_" class="st6" d="M412.2,159l-1.2,0.3l-18.1,4.7c-6.3-24.2,8.2-49,32.4-55.4l19.3-5.1
					c0.4,1.6,0.7,3.2,1,4.7C449,131,434.8,153.1,412.2,159z"/>
				<path id="XMLID_1967_" class="st6" d="M412.2,213.9l-1.2,0.3l-18.1,4.7c-6.3-24.2,8.2-49,32.4-55.4l19.3-5.1
					c0.4,1.6,0.7,3.2,1,4.7C449,186,434.8,208,412.2,213.9z"/>
				<path id="XMLID_1966_" class="st6" d="M412.2,268.5l-1.2,0.3l-18.1,4.7c-6.3-24.2,8.2-49,32.4-55.4l19.3-5.1
					c0.4,1.6,0.7,3.2,1,4.7C449,240.5,434.8,262.5,412.2,268.5z"/>
				<path id="XMLID_1965_" class="st6" d="M412.2,322.6l-1.2,0.3l-18.1,4.7c-6.3-24.2,8.2-49,32.4-55.4l19.3-5.1
					c0.4,1.6,0.7,3.2,1,4.7C449,294.6,434.9,316.7,412.2,322.6z"/>
				<path id="XMLID_1964_" class="st143" d="M412.2,159l-1.2,0.3c-3.4-22.6,10.7-44.7,33.3-50.6l1.2-0.3
					C449,131,434.8,153.1,412.2,159z"/>
				<path id="XMLID_1962_" class="st143" d="M412.2,213.9l-1.2,0.3c-3.4-22.6,10.7-44.7,33.3-50.6l1.2-0.3
					C449,186,434.8,208,412.2,213.9z"/>
				<path id="XMLID_1961_" class="st143" d="M412.2,268.5l-1.2,0.3c-3.4-22.6,10.7-44.7,33.3-50.6l1.2-0.3
					C449,240.5,434.8,262.5,412.2,268.5z"/>
				<path id="XMLID_1960_" class="st143" d="M412.2,322.6l-1.2,0.3c-3.4-22.6,10.7-44.7,33.3-50.6l1.2-0.3
					C449,294.6,434.9,316.7,412.2,322.6z"/>
				<line id="XMLID_1959_" class="st141" x1="391.4" y1="55.8" x2="391.4" y2="407.3"/>
			</g>
			<path id="XMLID_1954_" class="st48" d="M472.2,382.9c-7.1-7.4-17.2-12-28.3-12c-3,0-5.9,0.3-8.7,1h0c-6.9,1.6-13.1,5-18.1,9.6
				c-1.3-3.9-3.7-7.2-6.7-9.7c-3.6-2.9-8.2-4.7-13.2-4.7c-1.7,0-3.3,0.2-4.8,0.5h0c-0.3,0.1-0.7,0.2-1,0.3c-0.2,0-0.4,0.1-0.6,0.2
				c-5.5,1.7-9.9,5.6-12.5,10.7c-0.2,0.4-0.4,0.8-0.5,1.2c-7.2-9.1-18.4-14.9-30.9-14.9c-12,0-22.7,5.3-29.9,13.8
				c-4.9-7.1-13.1-11.7-22.3-11.7c-6.1,0-11.8,2-16.3,5.5c-0.1-0.2-0.1-0.4-0.2-0.6c-2.5-6.1-7.1-11.2-13-14.1
				c-2.9-1.5-6.2-2.5-9.6-2.8c-0.9-0.1-1.7-0.1-2.6-0.1c-2.9,0-5.8,0.5-8.5,1.4c-6.2,2-11.3,6.2-14.7,11.6c-1.5,2.4-2.6,5-3.2,7.7
				c-7-6.6-16.5-10.6-26.9-10.6c-9.6,0-18.4,3.4-25.2,9.1c-2.8-9.3-10.5-16.4-20-18.6c-1.9-0.4-3.9-0.7-5.9-0.7
				c-12.2,0-22.6,8.1-26,19.2c0,0,0,0-0.1-0.1c-6.3-5.2-14.2-8.5-22.9-9c-0.7-0.1-1.5-0.1-2.2-0.1c-12.9,0-24.4,6.2-31.5,15.8
				c-1.1,1.5-2.2,3.1-3.1,4.8c-4.9-5.2-11.9-8.4-19.6-8.4c-4.1,0-7.9,0.9-11.4,2.5C75.5,458.6,159.5,512,256,512
				c8.6,0,17.1-0.4,25.5-1.2c86.2-8.5,159.8-59.8,199.4-132.3C477.7,379.4,474.8,380.9,472.2,382.9z M269.6,404.4h-1.2
				c0.3-0.2,0.6-0.4,0.9-0.7C269.4,403.9,269.5,404.1,269.6,404.4z"/>
			<path id="XMLID_2079_" class="st51" d="M281.5,510.8c-8.4,0.8-16.9,1.2-25.5,1.2c-96.5,0-180.5-53.4-224.2-132.3
				c3.5-1.6,7.3-2.5,11.4-2.5c7.7,0,14.7,3.2,19.6,8.4c0.9-1.7,2-3.3,3.1-4.8c7.2-9.6,18.6-15.8,31.5-15.8c0.7,0,1.5,0,2.2,0.1
				c8.7,0.5,16.6,3.8,22.9,9c0,0,0,0,0.1,0.1c3.4-11.1,13.7-19.2,26-19.2c2,0,4,0.2,5.9,0.7c9.6,2.1,17.2,9.3,20,18.6
				c0,0,0.9,6,3.6,15.7c0.5,0,1.1,0,1.6,0c21,0,38.1,15.4,38.1,34.3c0,7-2.3,13.6-6.4,19c6.8,1.5,14.1,5.3,20.6,11.2
				c11.8,10.7,17.1,24.8,13.6,34.1c-0.2,0.5-0.4,1-0.7,1.5C255.6,497.8,267.7,504.9,281.5,510.8z"/>
		</g>
	</g>
</g>
</svg>
